<?xml version="1.0" encoding="UTF-8" standalone="no"?>
<!DOCTYPE svg PUBLIC "-//W3C//DTD SVG 1.1//EN"
 "http://www.w3.org/Graphics/SVG/1.1/DTD/svg11.dtd">
<!-- Generated by graphviz version 2.43.0 (0)
 -->
<!-- Title: opp Pages: 1 -->
<svg width="574pt" height="82pt"
 viewBox="0.00 0.00 573.50 82.00" xmlns="http://www.w3.org/2000/svg" xmlns:xlink="http://www.w3.org/1999/xlink">
<g id="graph0" class="graph" transform="scale(1 1) rotate(0) translate(4 78)">
<title>opp</title>
<polygon fill="transparent" stroke="transparent" points="-4,4 -4,-78 569.5,-78 569.5,4 -4,4"/>
<!-- DiffservNetwork -->
<g id="node1" class="node">
<title>DiffservNetwork</title>
<g id="a_node1"><a xlink:href="inet.showcases.general.diffserv.DiffservNetwork.html" xlink:title="Network DiffservNetwork" target="_parent">
<polygon fill="#9090ff" stroke="black" points="349,-74 252,-74 252,-55 349,-55 349,-74"/>
<text text-anchor="middle" x="300.5" y="-62" font-family="Helvetica,sans-Serif" font-size="10.00">DiffservNetwork</text>
</a>
</g>
</g>
<!-- StandardHost -->
<g id="node2" class="node">
<title>StandardHost</title>
<g id="a_node2"><a xlink:href="inet.node.inet.StandardHost.html" xlink:title="Compound Module StandardHost" target="_parent">
<polygon fill="#fffcaf" stroke="black" points="83,-19 0,-19 0,0 83,0 83,-19"/>
<text text-anchor="middle" x="41.5" y="-7" font-family="Helvetica,sans-Serif" font-size="10.00">StandardHost</text>
</a>
</g>
</g>
<!-- DiffservNetwork&#45;&gt;StandardHost -->
<g id="edge1" class="edge">
<title>DiffservNetwork&#45;&gt;StandardHost</title>
<path fill="none" stroke="black" d="M258.89,-54.98C213.76,-45.75 141.69,-31 93.02,-21.04"/>
<polygon fill="black" stroke="black" points="93.51,-17.57 83.01,-18.99 92.1,-24.43 93.51,-17.57"/>
</g>
<!-- Router -->
<g id="node3" class="node">
<title>Router</title>
<g id="a_node3"><a xlink:href="inet.node.inet.Router.html" xlink:title="Compound Module Router" target="_parent">
<polygon fill="#fffcaf" stroke="black" points="155.5,-19 101.5,-19 101.5,0 155.5,0 155.5,-19"/>
<text text-anchor="middle" x="128.5" y="-7" font-family="Helvetica,sans-Serif" font-size="10.00">Router</text>
</a>
</g>
</g>
<!-- DiffservNetwork&#45;&gt;Router -->
<g id="edge2" class="edge">
<title>DiffservNetwork&#45;&gt;Router</title>
<path fill="none" stroke="black" d="M272.87,-54.98C243.82,-46.03 197.95,-31.9 165.73,-21.97"/>
<polygon fill="black" stroke="black" points="166.37,-18.51 155.78,-18.91 164.31,-25.2 166.37,-18.51"/>
</g>
<!-- Ipv4NetworkConfigurator -->
<g id="node4" class="node">
<title>Ipv4NetworkConfigurator</title>
<g id="a_node4"><a xlink:href="inet.networklayer.configurator.ipv4.Ipv4NetworkConfigurator.html" xlink:title="Simple Module Ipv4NetworkConfigurator" target="_parent">
<polygon fill="#fffcaf" stroke="black" points="313.5,-19 173.5,-19 173.5,0 313.5,0 313.5,-19"/>
<text text-anchor="middle" x="243.5" y="-7" font-family="Helvetica,sans-Serif" font-size="10.00">Ipv4NetworkConfigurator</text>
</a>
</g>
</g>
<!-- DiffservNetwork&#45;&gt;Ipv4NetworkConfigurator -->
<g id="edge3" class="edge">
<title>DiffservNetwork&#45;&gt;Ipv4NetworkConfigurator</title>
<path fill="none" stroke="black" d="M291.34,-54.98C283,-47.23 270.47,-35.58 260.32,-26.14"/>
<polygon fill="black" stroke="black" points="262.53,-23.42 252.82,-19.17 257.76,-28.54 262.53,-23.42"/>
</g>
<!-- Eth10M -->
<g id="node5" class="node">
<title>Eth10M</title>
<g id="a_node5"><a xlink:href="inet.node.ethernet.Eth10M.html" xlink:title="Channel Eth10M" target="_parent">
<polygon fill="#d0ffd0" stroke="black" points="385.5,-19 331.5,-19 331.5,0 385.5,0 385.5,-19"/>
<text text-anchor="middle" x="358.5" y="-7" font-family="Helvetica,sans-Serif" font-size="10.00">Eth10M</text>
</a>
</g>
</g>
<!-- DiffservNetwork&#45;&gt;Eth10M -->
<g id="edge4" class="edge">
<title>DiffservNetwork&#45;&gt;Eth10M</title>
<path fill="none" stroke="black" d="M309.82,-54.98C318.31,-47.23 331.06,-35.58 341.38,-26.14"/>
<polygon fill="black" stroke="black" points="343.99,-28.5 349.01,-19.17 339.27,-23.33 343.99,-28.5"/>
</g>
<!-- line -->
<g id="node6" class="node">
<title>line</title>
<g id="a_node6"><a xlink:href="inet.showcases.general.diffserv.DiffservNetwork.line.html" xlink:title="Channel line" target="_parent">
<polygon fill="#d0ffd0" stroke="black" points="457.5,-19 403.5,-19 403.5,0 457.5,0 457.5,-19"/>
<text text-anchor="middle" x="430.5" y="-7" font-family="Helvetica,sans-Serif" font-size="10.00">line</text>
</a>
</g>
</g>
<!-- DiffservNetwork&#45;&gt;line -->
<g id="edge5" class="edge">
<title>DiffservNetwork&#45;&gt;line</title>
<path fill="none" stroke="black" d="M321.39,-54.98C342.58,-46.34 375.63,-32.87 399.8,-23.02"/>
<polygon fill="black" stroke="black" points="401.29,-26.19 409.23,-19.17 398.65,-19.7 401.29,-26.19"/>
</g>
<!-- EthernetSwitch -->
<g id="node7" class="node">
<title>EthernetSwitch</title>
<g id="a_node7"><a xlink:href="inet.node.ethernet.EthernetSwitch.html" xlink:title="Compound Module EthernetSwitch" target="_parent">
<polygon fill="#fffcaf" stroke="black" points="565.5,-19 475.5,-19 475.5,0 565.5,0 565.5,-19"/>
<text text-anchor="middle" x="520.5" y="-7" font-family="Helvetica,sans-Serif" font-size="10.00">EthernetSwitch</text>
</a>
</g>
</g>
<!-- DiffservNetwork&#45;&gt;EthernetSwitch -->
<g id="edge6" class="edge">
<title>DiffservNetwork&#45;&gt;EthernetSwitch</title>
<path fill="none" stroke="black" d="M335.85,-54.98C373.66,-45.87 433.76,-31.4 475.07,-21.45"/>
<polygon fill="black" stroke="black" points="475.97,-24.83 484.88,-19.08 474.33,-18.02 475.97,-24.83"/>
</g>
</g>
</svg>
