<?xml version="1.0" encoding="UTF-8" standalone="no"?>
<!DOCTYPE svg PUBLIC "-//W3C//DTD SVG 1.1//EN"
 "http://www.w3.org/Graphics/SVG/1.1/DTD/svg11.dtd">
<!-- Generated by graphviz version 2.43.0 (0)
 -->
<!-- Title: opp Pages: 1 -->
<svg width="496pt" height="82pt"
 viewBox="0.00 0.00 496.00 82.00" xmlns="http://www.w3.org/2000/svg" xmlns:xlink="http://www.w3.org/1999/xlink">
<g id="graph0" class="graph" transform="scale(1 1) rotate(0) translate(4 78)">
<title>opp</title>
<polygon fill="transparent" stroke="transparent" points="-4,4 -4,-78 492,-78 492,4 -4,4"/>
<!-- OSPF_AreaTest -->
<g id="node1" class="node">
<title>OSPF_AreaTest</title>
<g id="a_node1"><a xlink:href="inet.examples.ospfv2.areas.OSPF_AreaTest.html" xlink:title="Network OSPF_AreaTest" target="_parent">
<polygon fill="#9090ff" stroke="black" points="242.5,-74 153.5,-74 153.5,-55 242.5,-55 242.5,-74"/>
<text text-anchor="middle" x="198" y="-62" font-family="Helvetica,sans-Serif" font-size="10.00">OSPF_AreaTest</text>
</a>
</g>
</g>
<!-- TwoNetsArea -->
<g id="node2" class="node">
<title>TwoNetsArea</title>
<g id="a_node2"><a xlink:href="inet.examples.ospfv2.areas.TwoNetsArea.html" xlink:title="Compound Module TwoNetsArea" target="_parent">
<polygon fill="#fffcaf" stroke="black" points="80,-19 0,-19 0,0 80,0 80,-19"/>
<text text-anchor="middle" x="40" y="-7" font-family="Helvetica,sans-Serif" font-size="10.00">TwoNetsArea</text>
</a>
</g>
</g>
<!-- OSPF_AreaTest&#45;&gt;TwoNetsArea -->
<g id="edge1" class="edge">
<title>OSPF_AreaTest&#45;&gt;TwoNetsArea</title>
<path fill="none" stroke="black" d="M172.61,-54.98C146.2,-46.13 104.65,-32.19 75.11,-22.28"/>
<polygon fill="black" stroke="black" points="76.18,-18.94 65.58,-19.08 73.95,-25.58 76.18,-18.94"/>
</g>
<!-- OneNetArea -->
<g id="node3" class="node">
<title>OneNetArea</title>
<g id="a_node3"><a xlink:href="inet.examples.ospfv2.areas.OneNetArea.html" xlink:title="Compound Module OneNetArea" target="_parent">
<polygon fill="#fffcaf" stroke="black" points="174,-19 98,-19 98,0 174,0 174,-19"/>
<text text-anchor="middle" x="136" y="-7" font-family="Helvetica,sans-Serif" font-size="10.00">OneNetArea</text>
</a>
</g>
</g>
<!-- OSPF_AreaTest&#45;&gt;OneNetArea -->
<g id="edge2" class="edge">
<title>OSPF_AreaTest&#45;&gt;OneNetArea</title>
<path fill="none" stroke="black" d="M188.04,-54.98C178.87,-47.15 165.06,-35.34 153.97,-25.86"/>
<polygon fill="black" stroke="black" points="156.02,-23.01 146.14,-19.17 151.47,-28.33 156.02,-23.01"/>
</g>
<!-- ThruputMeteringChannel -->
<g id="node4" class="node">
<title>ThruputMeteringChannel</title>
<g id="a_node4"><a xlink:href="inet.common.misc.ThruputMeteringChannel.html" xlink:title="Channel ThruputMeteringChannel" target="_parent">
<polygon fill="#d0ffd0" stroke="black" points="329.5,-19 192.5,-19 192.5,0 329.5,0 329.5,-19"/>
<text text-anchor="middle" x="261" y="-7" font-family="Helvetica,sans-Serif" font-size="10.00">ThruputMeteringChannel</text>
</a>
</g>
</g>
<!-- OSPF_AreaTest&#45;&gt;ThruputMeteringChannel -->
<g id="edge3" class="edge">
<title>OSPF_AreaTest&#45;&gt;ThruputMeteringChannel</title>
<path fill="none" stroke="black" d="M208.12,-54.98C217.44,-47.15 231.47,-35.34 242.74,-25.86"/>
<polygon fill="black" stroke="black" points="245.29,-28.29 250.69,-19.17 240.79,-22.93 245.29,-28.29"/>
</g>
<!-- Ipv4NetworkConfigurator -->
<g id="node5" class="node">
<title>Ipv4NetworkConfigurator</title>
<g id="a_node5"><a xlink:href="inet.networklayer.configurator.ipv4.Ipv4NetworkConfigurator.html" xlink:title="Simple Module Ipv4NetworkConfigurator" target="_parent">
<polygon fill="#fffcaf" stroke="black" points="488,-19 348,-19 348,0 488,0 488,-19"/>
<text text-anchor="middle" x="418" y="-7" font-family="Helvetica,sans-Serif" font-size="10.00">Ipv4NetworkConfigurator</text>
</a>
</g>
</g>
<!-- OSPF_AreaTest&#45;&gt;Ipv4NetworkConfigurator -->
<g id="edge4" class="edge">
<title>OSPF_AreaTest&#45;&gt;Ipv4NetworkConfigurator</title>
<path fill="none" stroke="black" d="M233.35,-54.98C271.16,-45.87 331.26,-31.4 372.57,-21.45"/>
<polygon fill="black" stroke="black" points="373.47,-24.83 382.38,-19.08 371.83,-18.02 373.47,-24.83"/>
</g>
</g>
</svg>
