<?xml version="1.0" encoding="UTF-8" standalone="no"?>
<!DOCTYPE svg PUBLIC "-//W3C//DTD SVG 1.1//EN"
 "http://www.w3.org/Graphics/SVG/1.1/DTD/svg11.dtd">
<!-- Generated by graphviz version 2.43.0 (0)
 -->
<!-- Title: opp Pages: 1 -->
<svg width="831pt" height="82pt"
 viewBox="0.00 0.00 830.50 82.00" xmlns="http://www.w3.org/2000/svg" xmlns:xlink="http://www.w3.org/1999/xlink">
<g id="graph0" class="graph" transform="scale(1 1) rotate(0) translate(4 78)">
<title>opp</title>
<polygon fill="transparent" stroke="transparent" points="-4,4 -4,-78 826.5,-78 826.5,4 -4,4"/>
<!-- SimpleTest -->
<g id="node1" class="node">
<title>SimpleTest</title>
<g id="a_node1"><a xlink:href="inet.examples.rip.simpletest.SimpleTest.html" xlink:title="Network SimpleTest" target="_parent">
<polygon fill="#9090ff" stroke="black" points="439.5,-74 369.5,-74 369.5,-55 439.5,-55 439.5,-74"/>
<text text-anchor="middle" x="404.5" y="-62" font-family="Helvetica,sans-Serif" font-size="10.00">SimpleTest</text>
</a>
</g>
</g>
<!-- RipRouter -->
<g id="node2" class="node">
<title>RipRouter</title>
<g id="a_node2"><a xlink:href="inet.node.rip.RipRouter.html" xlink:title="Compound Module RipRouter" target="_parent">
<polygon fill="#fffcaf" stroke="black" points="65,-19 0,-19 0,0 65,0 65,-19"/>
<text text-anchor="middle" x="32.5" y="-7" font-family="Helvetica,sans-Serif" font-size="10.00">RipRouter</text>
</a>
</g>
</g>
<!-- SimpleTest&#45;&gt;RipRouter -->
<g id="edge1" class="edge">
<title>SimpleTest&#45;&gt;RipRouter</title>
<path fill="none" stroke="black" d="M369.1,-59.58C310.19,-52.86 188.09,-38.18 75.32,-19.21"/>
<polygon fill="black" stroke="black" points="75.58,-15.71 65.13,-17.48 74.41,-22.61 75.58,-15.71"/>
</g>
<!-- StandardHost -->
<g id="node3" class="node">
<title>StandardHost</title>
<g id="a_node3"><a xlink:href="inet.node.inet.StandardHost.html" xlink:title="Compound Module StandardHost" target="_parent">
<polygon fill="#fffcaf" stroke="black" points="166,-19 83,-19 83,0 166,0 166,-19"/>
<text text-anchor="middle" x="124.5" y="-7" font-family="Helvetica,sans-Serif" font-size="10.00">StandardHost</text>
</a>
</g>
</g>
<!-- SimpleTest&#45;&gt;StandardHost -->
<g id="edge2" class="edge">
<title>SimpleTest&#45;&gt;StandardHost</title>
<path fill="none" stroke="black" d="M369.32,-56.84C320.65,-47.63 232.43,-30.93 176.24,-20.29"/>
<polygon fill="black" stroke="black" points="176.61,-16.8 166.14,-18.38 175.31,-23.68 176.61,-16.8"/>
</g>
<!-- Ipv4NetworkConfigurator -->
<g id="node4" class="node">
<title>Ipv4NetworkConfigurator</title>
<g id="a_node4"><a xlink:href="inet.networklayer.configurator.ipv4.Ipv4NetworkConfigurator.html" xlink:title="Simple Module Ipv4NetworkConfigurator" target="_parent">
<polygon fill="#fffcaf" stroke="black" points="324.5,-19 184.5,-19 184.5,0 324.5,0 324.5,-19"/>
<text text-anchor="middle" x="254.5" y="-7" font-family="Helvetica,sans-Serif" font-size="10.00">Ipv4NetworkConfigurator</text>
</a>
</g>
</g>
<!-- SimpleTest&#45;&gt;Ipv4NetworkConfigurator -->
<g id="edge3" class="edge">
<title>SimpleTest&#45;&gt;Ipv4NetworkConfigurator</title>
<path fill="none" stroke="black" d="M380.4,-54.98C355.62,-46.23 316.8,-32.51 288.81,-22.62"/>
<polygon fill="black" stroke="black" points="289.63,-19.2 279.04,-19.17 287.3,-25.8 289.63,-19.2"/>
</g>
<!-- RoutingTableRecorder -->
<g id="node5" class="node">
<title>RoutingTableRecorder</title>
<g id="a_node5"><a xlink:href="inet.networklayer.ipv4.RoutingTableRecorder.html" xlink:title="Simple Module RoutingTableRecorder" target="_parent">
<polygon fill="#fffcaf" stroke="black" points="466,-19 343,-19 343,0 466,0 466,-19"/>
<text text-anchor="middle" x="404.5" y="-7" font-family="Helvetica,sans-Serif" font-size="10.00">RoutingTableRecorder</text>
</a>
</g>
</g>
<!-- SimpleTest&#45;&gt;RoutingTableRecorder -->
<g id="edge4" class="edge">
<title>SimpleTest&#45;&gt;RoutingTableRecorder</title>
<path fill="none" stroke="black" d="M404.5,-54.75C404.5,-47.8 404.5,-37.85 404.5,-29.13"/>
<polygon fill="black" stroke="black" points="408,-29.09 404.5,-19.09 401,-29.09 408,-29.09"/>
</g>
<!-- C -->
<g id="node6" class="node">
<title>C</title>
<g id="a_node6"><a xlink:href="inet.examples.rip.simpletest.SimpleTest.C.html" xlink:title="Channel C" target="_parent">
<polygon fill="#d0ffd0" stroke="black" points="538.5,-19 484.5,-19 484.5,0 538.5,0 538.5,-19"/>
<text text-anchor="middle" x="511.5" y="-7" font-family="Helvetica,sans-Serif" font-size="10.00">C</text>
</a>
</g>
</g>
<!-- SimpleTest&#45;&gt;C -->
<g id="edge5" class="edge">
<title>SimpleTest&#45;&gt;C</title>
<path fill="none" stroke="black" d="M421.69,-54.98C438.75,-46.54 465.13,-33.47 484.9,-23.68"/>
<polygon fill="black" stroke="black" points="486.59,-26.75 494,-19.17 483.48,-20.47 486.59,-26.75"/>
</g>
<!-- Ipv6FlatNetworkConfigurator -->
<g id="node7" class="node">
<title>Ipv6FlatNetworkConfigurator</title>
<g id="a_node7"><a xlink:href="inet.networklayer.configurator.ipv6.Ipv6FlatNetworkConfigurator.html" xlink:title="Simple Module Ipv6FlatNetworkConfigurator" target="_parent">
<polygon fill="#fffcaf" stroke="black" points="714.5,-19 556.5,-19 556.5,0 714.5,0 714.5,-19"/>
<text text-anchor="middle" x="635.5" y="-7" font-family="Helvetica,sans-Serif" font-size="10.00">Ipv6FlatNetworkConfigurator</text>
</a>
</g>
</g>
<!-- SimpleTest&#45;&gt;Ipv6FlatNetworkConfigurator -->
<g id="edge6" class="edge">
<title>SimpleTest&#45;&gt;Ipv6FlatNetworkConfigurator</title>
<path fill="none" stroke="black" d="M439.58,-55.45C479.28,-46.34 544.13,-31.46 588.25,-21.34"/>
<polygon fill="black" stroke="black" points="589.2,-24.71 598.17,-19.07 587.64,-17.89 589.2,-24.71"/>
</g>
<!-- EthernetSwitch -->
<g id="node8" class="node">
<title>EthernetSwitch</title>
<g id="a_node8"><a xlink:href="inet.node.ethernet.EthernetSwitch.html" xlink:title="Compound Module EthernetSwitch" target="_parent">
<polygon fill="#fffcaf" stroke="black" points="822.5,-19 732.5,-19 732.5,0 822.5,0 822.5,-19"/>
<text text-anchor="middle" x="777.5" y="-7" font-family="Helvetica,sans-Serif" font-size="10.00">EthernetSwitch</text>
</a>
</g>
</g>
<!-- SimpleTest&#45;&gt;EthernetSwitch -->
<g id="edge7" class="edge">
<title>SimpleTest&#45;&gt;EthernetSwitch</title>
<path fill="none" stroke="black" d="M439.93,-58.76C497.06,-51.08 613.3,-35.27 722.25,-19.16"/>
<polygon fill="black" stroke="black" points="723.05,-22.58 732.43,-17.66 722.02,-15.66 723.05,-22.58"/>
</g>
</g>
</svg>
