<?xml version="1.0" encoding="UTF-8" standalone="no"?>
<!DOCTYPE svg PUBLIC "-//W3C//DTD SVG 1.1//EN"
 "http://www.w3.org/Graphics/SVG/1.1/DTD/svg11.dtd">
<!-- Generated by graphviz version 2.43.0 (0)
 -->
<!-- Title: opp Pages: 1 -->
<svg width="426pt" height="82pt"
 viewBox="0.00 0.00 426.00 82.00" xmlns="http://www.w3.org/2000/svg" xmlns:xlink="http://www.w3.org/1999/xlink">
<g id="graph0" class="graph" transform="scale(1 1) rotate(0) translate(4 78)">
<title>opp</title>
<polygon fill="transparent" stroke="transparent" points="-4,4 -4,-78 422,-78 422,4 -4,4"/>
<!-- MacService -->
<g id="node1" class="node">
<title>MacService</title>
<g id="a_node1"><a xlink:href="inet.protocolelement.service.MacService.html" xlink:title="Compound Module MacService" target="_parent">
<polygon fill="#fff700" stroke="black" points="239.5,-74 166.5,-74 166.5,-55 239.5,-55 239.5,-74"/>
<text text-anchor="middle" x="203" y="-62" font-family="Helvetica,sans-Serif" font-size="10.00">MacService</text>
</a>
</g>
</g>
<!-- IdealChannel -->
<g id="node2" class="node">
<title>IdealChannel</title>
<g id="a_node2"><a xlink:href="ned.IdealChannel.html" xlink:title="Channel IdealChannel" target="_parent">
<polygon fill="#d0ffd0" stroke="black" points="80,-19 0,-19 0,0 80,0 80,-19"/>
<text text-anchor="middle" x="40" y="-7" font-family="Helvetica,sans-Serif" font-size="10.00">IdealChannel</text>
</a>
</g>
</g>
<!-- MacService&#45;&gt;IdealChannel -->
<g id="edge1" class="edge">
<title>MacService&#45;&gt;IdealChannel</title>
<path fill="none" stroke="black" d="M176.81,-54.98C149.56,-46.13 106.7,-32.19 76.22,-22.28"/>
<polygon fill="black" stroke="black" points="76.99,-18.85 66.39,-19.08 74.82,-25.5 76.99,-18.85"/>
</g>
<!-- PacketMultiplexer -->
<g id="node3" class="node">
<title>PacketMultiplexer</title>
<g id="a_node3"><a xlink:href="inet.queueing.common.PacketMultiplexer.html" xlink:title="Simple Module PacketMultiplexer" target="_parent">
<polygon fill="#fffcaf" stroke="black" points="202,-19 98,-19 98,0 202,0 202,-19"/>
<text text-anchor="middle" x="150" y="-7" font-family="Helvetica,sans-Serif" font-size="10.00">PacketMultiplexer</text>
</a>
</g>
</g>
<!-- MacService&#45;&gt;PacketMultiplexer -->
<g id="edge2" class="edge">
<title>MacService&#45;&gt;PacketMultiplexer</title>
<path fill="none" stroke="black" d="M194.25,-54.75C186.53,-47.03 175.1,-35.6 165.78,-26.28"/>
<polygon fill="black" stroke="black" points="168.14,-23.69 158.59,-19.09 163.19,-28.64 168.14,-23.69"/>
</g>
<!-- PeerService -->
<g id="node4" class="node">
<title>PeerService</title>
<g id="a_node4"><a xlink:href="inet.protocolelement.service.PeerService.html" xlink:title="Compound Module PeerService" target="_parent">
<polygon fill="#fffcaf" stroke="black" points="294,-19 220,-19 220,0 294,0 294,-19"/>
<text text-anchor="middle" x="257" y="-7" font-family="Helvetica,sans-Serif" font-size="10.00">PeerService</text>
</a>
</g>
</g>
<!-- MacService&#45;&gt;PeerService -->
<g id="edge3" class="edge">
<title>MacService&#45;&gt;PeerService</title>
<path fill="none" stroke="black" d="M211.92,-54.75C219.78,-47.03 231.43,-35.6 240.92,-26.28"/>
<polygon fill="black" stroke="black" points="243.56,-28.59 248.25,-19.09 238.66,-23.6 243.56,-28.59"/>
</g>
<!-- DynamicClassifier -->
<g id="node5" class="node">
<title>DynamicClassifier</title>
<g id="a_node5"><a xlink:href="inet.queueing.classifier.DynamicClassifier.html" xlink:title="Simple Module DynamicClassifier" target="_parent">
<polygon fill="#fffcaf" stroke="black" points="418,-19 312,-19 312,0 418,0 418,-19"/>
<text text-anchor="middle" x="365" y="-7" font-family="Helvetica,sans-Serif" font-size="10.00">DynamicClassifier</text>
</a>
</g>
</g>
<!-- MacService&#45;&gt;DynamicClassifier -->
<g id="edge4" class="edge">
<title>MacService&#45;&gt;DynamicClassifier</title>
<path fill="none" stroke="black" d="M229.03,-54.98C256.11,-46.13 298.71,-32.19 329.01,-22.28"/>
<polygon fill="black" stroke="black" points="330.35,-25.52 338.77,-19.08 328.18,-18.87 330.35,-25.52"/>
</g>
</g>
</svg>
