<?xml version="1.0" encoding="UTF-8" standalone="no"?>
<!DOCTYPE svg PUBLIC "-//W3C//DTD SVG 1.1//EN"
 "http://www.w3.org/Graphics/SVG/1.1/DTD/svg11.dtd">
<!-- Generated by graphviz version 2.43.0 (0)
 -->
<!-- Title: opp Pages: 1 -->
<svg width="545pt" height="82pt"
 viewBox="0.00 0.00 544.50 82.00" xmlns="http://www.w3.org/2000/svg" xmlns:xlink="http://www.w3.org/1999/xlink">
<g id="graph0" class="graph" transform="scale(1 1) rotate(0) translate(4 78)">
<title>opp</title>
<polygon fill="transparent" stroke="transparent" points="-4,4 -4,-78 540.5,-78 540.5,4 -4,4"/>
<!-- DataLinkVisualizerEnablingWirelessShowcase -->
<g id="node1" class="node">
<title>DataLinkVisualizerEnablingWirelessShowcase</title>
<g id="a_node1"><a xlink:href="inet.showcases.visualizer.canvas.datalinkactivity.DataLinkVisualizerEnablingWirelessShowcase.html" xlink:title="Network DataLinkVisualizerEnablingWirelessShowcase" target="_parent">
<polygon fill="#9090ff" stroke="black" points="385.5,-74 144.5,-74 144.5,-55 385.5,-55 385.5,-74"/>
<text text-anchor="middle" x="265" y="-62" font-family="Helvetica,sans-Serif" font-size="10.00">DataLinkVisualizerEnablingWirelessShowcase</text>
</a>
</g>
</g>
<!-- Ipv4NetworkConfigurator -->
<g id="node2" class="node">
<title>Ipv4NetworkConfigurator</title>
<g id="a_node2"><a xlink:href="inet.networklayer.configurator.ipv4.Ipv4NetworkConfigurator.html" xlink:title="Simple Module Ipv4NetworkConfigurator" target="_parent">
<polygon fill="#fffcaf" stroke="black" points="140,-19 0,-19 0,0 140,0 140,-19"/>
<text text-anchor="middle" x="70" y="-7" font-family="Helvetica,sans-Serif" font-size="10.00">Ipv4NetworkConfigurator</text>
</a>
</g>
</g>
<!-- DataLinkVisualizerEnablingWirelessShowcase&#45;&gt;Ipv4NetworkConfigurator -->
<g id="edge1" class="edge">
<title>DataLinkVisualizerEnablingWirelessShowcase&#45;&gt;Ipv4NetworkConfigurator</title>
<path fill="none" stroke="black" d="M233.67,-54.98C200.51,-45.97 148,-31.7 111.44,-21.76"/>
<polygon fill="black" stroke="black" points="112.14,-18.33 101.58,-19.08 110.31,-25.08 112.14,-18.33"/>
</g>
<!-- DataLinkVisualizer -->
<g id="node3" class="node">
<title>DataLinkVisualizer</title>
<g id="a_node3"><a xlink:href="inet.visualizer.common.DataLinkVisualizer.html" xlink:title="Compound Module DataLinkVisualizer" target="_parent">
<polygon fill="#fffcaf" stroke="black" points="266,-19 158,-19 158,0 266,0 266,-19"/>
<text text-anchor="middle" x="212" y="-7" font-family="Helvetica,sans-Serif" font-size="10.00">DataLinkVisualizer</text>
</a>
</g>
</g>
<!-- DataLinkVisualizerEnablingWirelessShowcase&#45;&gt;DataLinkVisualizer -->
<g id="edge2" class="edge">
<title>DataLinkVisualizerEnablingWirelessShowcase&#45;&gt;DataLinkVisualizer</title>
<path fill="none" stroke="black" d="M256.25,-54.75C248.53,-47.03 237.1,-35.6 227.78,-26.28"/>
<polygon fill="black" stroke="black" points="230.14,-23.69 220.59,-19.09 225.19,-28.64 230.14,-23.69"/>
</g>
<!-- AdhocHost -->
<g id="node4" class="node">
<title>AdhocHost</title>
<g id="a_node4"><a xlink:href="inet.node.inet.AdhocHost.html" xlink:title="Compound Module AdhocHost" target="_parent">
<polygon fill="#fffcaf" stroke="black" points="353.5,-19 284.5,-19 284.5,0 353.5,0 353.5,-19"/>
<text text-anchor="middle" x="319" y="-7" font-family="Helvetica,sans-Serif" font-size="10.00">AdhocHost</text>
</a>
</g>
</g>
<!-- DataLinkVisualizerEnablingWirelessShowcase&#45;&gt;AdhocHost -->
<g id="edge3" class="edge">
<title>DataLinkVisualizerEnablingWirelessShowcase&#45;&gt;AdhocHost</title>
<path fill="none" stroke="black" d="M273.92,-54.75C281.78,-47.03 293.43,-35.6 302.92,-26.28"/>
<polygon fill="black" stroke="black" points="305.56,-28.59 310.25,-19.09 300.66,-23.6 305.56,-28.59"/>
</g>
<!-- Ieee80211ScalarRadioMedium -->
<g id="node5" class="node">
<title>Ieee80211ScalarRadioMedium</title>
<g id="a_node5"><a xlink:href="inet.physicallayer.wireless.ieee80211.packetlevel.Ieee80211ScalarRadioMedium.html" xlink:title="Compound Module Ieee80211ScalarRadioMedium" target="_parent">
<polygon fill="#fffcaf" stroke="black" points="536.5,-19 371.5,-19 371.5,0 536.5,0 536.5,-19"/>
<text text-anchor="middle" x="454" y="-7" font-family="Helvetica,sans-Serif" font-size="10.00">Ieee80211ScalarRadioMedium</text>
</a>
</g>
</g>
<!-- DataLinkVisualizerEnablingWirelessShowcase&#45;&gt;Ieee80211ScalarRadioMedium -->
<g id="edge4" class="edge">
<title>DataLinkVisualizerEnablingWirelessShowcase&#45;&gt;Ieee80211ScalarRadioMedium</title>
<path fill="none" stroke="black" d="M295.37,-54.98C327.37,-46.01 377.96,-31.82 413.38,-21.89"/>
<polygon fill="black" stroke="black" points="414.71,-25.15 423.4,-19.08 412.82,-18.41 414.71,-25.15"/>
</g>
</g>
</svg>
