<?xml version="1.0" encoding="UTF-8" standalone="no"?>
<!DOCTYPE svg PUBLIC "-//W3C//DTD SVG 1.1//EN"
 "http://www.w3.org/Graphics/SVG/1.1/DTD/svg11.dtd">
<!-- Generated by graphviz version 2.43.0 (0)
 -->
<!-- Title: opp Pages: 1 -->
<svg width="328pt" height="82pt"
 viewBox="0.00 0.00 328.00 82.00" xmlns="http://www.w3.org/2000/svg" xmlns:xlink="http://www.w3.org/1999/xlink">
<g id="graph0" class="graph" transform="scale(1 1) rotate(0) translate(4 78)">
<title>opp</title>
<polygon fill="transparent" stroke="transparent" points="-4,4 -4,-78 324,-78 324,4 -4,4"/>
<!-- BusLAN -->
<g id="node1" class="node">
<title>BusLAN</title>
<g id="a_node1"><a xlink:href="inet.examples.ethernet.lans.BusLAN.html" xlink:title="Network BusLAN" target="_parent">
<polygon fill="#9090ff" stroke="black" points="194.5,-74 139.5,-74 139.5,-55 194.5,-55 194.5,-74"/>
<text text-anchor="middle" x="167" y="-62" font-family="Helvetica,sans-Serif" font-size="10.00">BusLAN</text>
</a>
</g>
</g>
<!-- EthernetHost -->
<g id="node2" class="node">
<title>EthernetHost</title>
<g id="a_node2"><a xlink:href="inet.node.ethernet.EthernetHost.html" xlink:title="Compound Module EthernetHost" target="_parent">
<polygon fill="#fffcaf" stroke="black" points="80,-19 0,-19 0,0 80,0 80,-19"/>
<text text-anchor="middle" x="40" y="-7" font-family="Helvetica,sans-Serif" font-size="10.00">EthernetHost</text>
</a>
</g>
</g>
<!-- BusLAN&#45;&gt;EthernetHost -->
<g id="edge1" class="edge">
<title>BusLAN&#45;&gt;EthernetHost</title>
<path fill="none" stroke="black" d="M146.6,-54.98C125.98,-46.38 93.89,-32.99 70.31,-23.15"/>
<polygon fill="black" stroke="black" points="71.35,-19.79 60.78,-19.17 68.66,-26.25 71.35,-19.79"/>
</g>
<!-- Eth10M -->
<g id="node3" class="node">
<title>Eth10M</title>
<g id="a_node3"><a xlink:href="inet.node.ethernet.Eth10M.html" xlink:title="Channel Eth10M" target="_parent">
<polygon fill="#d0ffd0" stroke="black" points="152,-19 98,-19 98,0 152,0 152,-19"/>
<text text-anchor="middle" x="125" y="-7" font-family="Helvetica,sans-Serif" font-size="10.00">Eth10M</text>
</a>
</g>
</g>
<!-- BusLAN&#45;&gt;Eth10M -->
<g id="edge2" class="edge">
<title>BusLAN&#45;&gt;Eth10M</title>
<path fill="none" stroke="black" d="M160.06,-54.75C154.13,-47.26 145.43,-36.28 138.18,-27.13"/>
<polygon fill="black" stroke="black" points="140.76,-24.75 131.81,-19.09 135.27,-29.1 140.76,-24.75"/>
</g>
<!-- WireJunction -->
<g id="node4" class="node">
<title>WireJunction</title>
<g id="a_node4"><a xlink:href="inet.physicallayer.wired.common.WireJunction.html" xlink:title="Simple Module WireJunction" target="_parent">
<polygon fill="#fffcaf" stroke="black" points="248,-19 170,-19 170,0 248,0 248,-19"/>
<text text-anchor="middle" x="209" y="-7" font-family="Helvetica,sans-Serif" font-size="10.00">WireJunction</text>
</a>
</g>
</g>
<!-- BusLAN&#45;&gt;WireJunction -->
<g id="edge3" class="edge">
<title>BusLAN&#45;&gt;WireJunction</title>
<path fill="none" stroke="black" d="M173.94,-54.75C179.87,-47.26 188.57,-36.28 195.82,-27.13"/>
<polygon fill="black" stroke="black" points="198.73,-29.1 202.19,-19.09 193.24,-24.75 198.73,-29.1"/>
</g>
<!-- C -->
<g id="node5" class="node">
<title>C</title>
<g id="a_node5"><a xlink:href="inet.examples.ethernet.lans.BusLAN.C.html" xlink:title="Channel C" target="_parent">
<polygon fill="#d0ffd0" stroke="black" points="320,-19 266,-19 266,0 320,0 320,-19"/>
<text text-anchor="middle" x="293" y="-7" font-family="Helvetica,sans-Serif" font-size="10.00">C</text>
</a>
</g>
</g>
<!-- BusLAN&#45;&gt;C -->
<g id="edge4" class="edge">
<title>BusLAN&#45;&gt;C</title>
<path fill="none" stroke="black" d="M187.24,-54.98C207.7,-46.38 239.53,-32.99 262.93,-23.15"/>
<polygon fill="black" stroke="black" points="264.53,-26.27 272.39,-19.17 261.81,-19.82 264.53,-26.27"/>
</g>
</g>
</svg>
