<?xml version="1.0" encoding="UTF-8" standalone="no"?>
<!DOCTYPE svg PUBLIC "-//W3C//DTD SVG 1.1//EN"
 "http://www.w3.org/Graphics/SVG/1.1/DTD/svg11.dtd">
<!-- Generated by graphviz version 2.43.0 (0)
 -->
<!-- Title: opp Pages: 1 -->
<svg width="248pt" height="82pt"
 viewBox="0.00 0.00 248.00 82.00" xmlns="http://www.w3.org/2000/svg" xmlns:xlink="http://www.w3.org/1999/xlink">
<g id="graph0" class="graph" transform="scale(1 1) rotate(0) translate(4 78)">
<title>opp</title>
<polygon fill="transparent" stroke="transparent" points="-4,4 -4,-78 244,-78 244,4 -4,4"/>
<!-- Ieee8022SnapInserter -->
<g id="node1" class="node">
<title>Ieee8022SnapInserter</title>
<g id="a_node1"><a xlink:href="inet.linklayer.ieee8022.Ieee8022SnapInserter.html" xlink:title="Simple Module Ieee8022SnapInserter" target="_parent">
<polygon fill="#fff700" stroke="black" points="173.5,-19 50.5,-19 50.5,0 173.5,0 173.5,-19"/>
<text text-anchor="middle" x="112" y="-7" font-family="Helvetica,sans-Serif" font-size="10.00">Ieee8022SnapInserter</text>
</a>
</g>
</g>
<!-- PacketFlowBase -->
<g id="node2" class="node">
<title>PacketFlowBase</title>
<g id="a_node2"><a xlink:href="inet.queueing.base.PacketFlowBase.html" xlink:title="Simple Module PacketFlowBase" target="_parent">
<polygon fill="#fffcaf" stroke="black" points="96,-74 0,-74 0,-55 96,-55 96,-74"/>
<text text-anchor="middle" x="48" y="-62" font-family="Helvetica,sans-Serif" font-size="10.00">PacketFlowBase</text>
</a>
</g>
</g>
<!-- PacketFlowBase&#45;&gt;Ieee8022SnapInserter -->
<g id="edge1" class="edge">
<title>PacketFlowBase&#45;&gt;Ieee8022SnapInserter</title>
<path fill="none" stroke="black" d="M58.28,-54.98C70.16,-45.15 89.58,-29.07 101.53,-19.17"/>
</g>
<!-- IIeee8022SnapInserter -->
<g id="node3" class="node">
<title>IIeee8022SnapInserter</title>
<g id="a_node3"><a xlink:href="inet.linklayer.ieee8022.IIeee8022SnapInserter.html" xlink:title="Module Interface IIeee8022SnapInserter" target="_parent">
<polygon fill="#fffcaf" stroke="black" stroke-dasharray="5,2" points="240,-74 114,-74 114,-55 240,-55 240,-74"/>
<text text-anchor="middle" x="177" y="-62" font-family="Helvetica,sans-Serif" font-size="10.00">IIeee8022SnapInserter</text>
</a>
</g>
</g>
<!-- IIeee8022SnapInserter&#45;&gt;Ieee8022SnapInserter -->
<g id="edge2" class="edge">
<title>IIeee8022SnapInserter&#45;&gt;Ieee8022SnapInserter</title>
<path fill="none" stroke="black" stroke-dasharray="5,2" d="M166.56,-54.98C154.5,-45.15 134.77,-29.07 122.63,-19.17"/>
</g>
</g>
</svg>
