<?xml version="1.0" encoding="UTF-8" standalone="no"?>
<!DOCTYPE svg PUBLIC "-//W3C//DTD SVG 1.1//EN"
 "http://www.w3.org/Graphics/SVG/1.1/DTD/svg11.dtd">
<!-- Generated by graphviz version 2.43.0 (0)
 -->
<!-- Title: opp Pages: 1 -->
<svg width="1604pt" height="82pt"
 viewBox="0.00 0.00 1604.00 82.00" xmlns="http://www.w3.org/2000/svg" xmlns:xlink="http://www.w3.org/1999/xlink">
<g id="graph0" class="graph" transform="scale(1 1) rotate(0) translate(4 78)">
<title>opp</title>
<polygon fill="transparent" stroke="transparent" points="-4,4 -4,-78 1600,-78 1600,4 -4,4"/>
<!-- IProtocolLayer -->
<g id="node1" class="node">
<title>IProtocolLayer</title>
<g id="a_node1"><a xlink:href="inet.protocolelement.contract.IProtocolLayer.html" xlink:title="Module Interface IProtocolLayer" target="_parent">
<polygon fill="#fff700" stroke="black" stroke-dasharray="5,2" points="876,-74 790,-74 790,-55 876,-55 876,-74"/>
<text text-anchor="middle" x="833" y="-62" font-family="Helvetica,sans-Serif" font-size="10.00">IProtocolLayer</text>
</a>
</g>
</g>
<!-- BridgingLayer -->
<g id="node2" class="node">
<title>BridgingLayer</title>
<g id="a_node2"><a xlink:href="inet.linklayer.ethernet.common.BridgingLayer.html" xlink:title="Compound Module BridgingLayer" target="_parent">
<polygon fill="#fffcaf" stroke="black" points="84,-19 0,-19 0,0 84,0 84,-19"/>
<text text-anchor="middle" x="42" y="-7" font-family="Helvetica,sans-Serif" font-size="10.00">BridgingLayer</text>
</a>
</g>
</g>
<!-- IProtocolLayer&#45;&gt;BridgingLayer -->
<g id="edge1" class="edge">
<title>IProtocolLayer&#45;&gt;BridgingLayer</title>
<path fill="none" stroke="black" stroke-dasharray="5,2" d="M789.91,-62.49C675.85,-59.48 356.77,-48.83 93,-19 90.15,-18.68 87.21,-18.3 84.25,-17.89"/>
</g>
<!-- DirectionReverserLayer -->
<g id="node3" class="node">
<title>DirectionReverserLayer</title>
<g id="a_node3"><a xlink:href="inet.linklayer.ethernet.common.DirectionReverserLayer.html" xlink:title="Compound Module DirectionReverserLayer" target="_parent">
<polygon fill="#fffcaf" stroke="black" points="233.5,-19 102.5,-19 102.5,0 233.5,0 233.5,-19"/>
<text text-anchor="middle" x="168" y="-7" font-family="Helvetica,sans-Serif" font-size="10.00">DirectionReverserLayer</text>
</a>
</g>
</g>
<!-- IProtocolLayer&#45;&gt;DirectionReverserLayer -->
<g id="edge2" class="edge">
<title>IProtocolLayer&#45;&gt;DirectionReverserLayer</title>
<path fill="none" stroke="black" stroke-dasharray="5,2" d="M789.94,-60.84C692.35,-54.68 446.87,-38.47 242,-19 239.3,-18.74 236.54,-18.47 233.75,-18.19"/>
</g>
<!-- InterfaceRelayLayer -->
<g id="node4" class="node">
<title>InterfaceRelayLayer</title>
<g id="a_node4"><a xlink:href="inet.linklayer.ethernet.common.InterfaceRelayLayer.html" xlink:title="Compound Module InterfaceRelayLayer" target="_parent">
<polygon fill="#fffcaf" stroke="black" points="366.5,-19 251.5,-19 251.5,0 366.5,0 366.5,-19"/>
<text text-anchor="middle" x="309" y="-7" font-family="Helvetica,sans-Serif" font-size="10.00">InterfaceRelayLayer</text>
</a>
</g>
</g>
<!-- IProtocolLayer&#45;&gt;InterfaceRelayLayer -->
<g id="edge3" class="edge">
<title>IProtocolLayer&#45;&gt;InterfaceRelayLayer</title>
<path fill="none" stroke="black" stroke-dasharray="5,2" d="M789.7,-59.75C708.36,-52.6 527.22,-36.19 375,-19 372.24,-18.69 369.43,-18.36 366.58,-18.02"/>
</g>
<!-- OmittedProtocolLayer -->
<g id="node5" class="node">
<title>OmittedProtocolLayer</title>
<g id="a_node5"><a xlink:href="inet.protocolelement.common.OmittedProtocolLayer.html" xlink:title="Compound Module OmittedProtocolLayer" target="_parent">
<polygon fill="#fffcaf" stroke="black" points="507.5,-19 384.5,-19 384.5,0 507.5,0 507.5,-19"/>
<text text-anchor="middle" x="446" y="-7" font-family="Helvetica,sans-Serif" font-size="10.00">OmittedProtocolLayer</text>
</a>
</g>
</g>
<!-- IProtocolLayer&#45;&gt;OmittedProtocolLayer -->
<g id="edge4" class="edge">
<title>IProtocolLayer&#45;&gt;OmittedProtocolLayer</title>
<path fill="none" stroke="black" stroke-dasharray="5,2" d="M789.73,-57.57C720.99,-48.16 586.58,-29.75 507.74,-18.96"/>
</g>
<!-- StreamCoderLayer -->
<g id="node6" class="node">
<title>StreamCoderLayer</title>
<g id="a_node6"><a xlink:href="inet.protocolelement.redundancy.StreamCoderLayer.html" xlink:title="Compound Module StreamCoderLayer" target="_parent">
<polygon fill="#fffcaf" stroke="black" points="632.5,-19 525.5,-19 525.5,0 632.5,0 632.5,-19"/>
<text text-anchor="middle" x="579" y="-7" font-family="Helvetica,sans-Serif" font-size="10.00">StreamCoderLayer</text>
</a>
</g>
</g>
<!-- IProtocolLayer&#45;&gt;StreamCoderLayer -->
<g id="edge5" class="edge">
<title>IProtocolLayer&#45;&gt;StreamCoderLayer</title>
<path fill="none" stroke="black" stroke-dasharray="5,2" d="M792.19,-54.98C744.93,-45.12 667.52,-28.97 620.13,-19.08"/>
</g>
<!-- StreamFilterLayer -->
<g id="node7" class="node">
<title>StreamFilterLayer</title>
<g id="a_node7"><a xlink:href="inet.linklayer.ieee8021q.StreamFilterLayer.html" xlink:title="Compound Module StreamFilterLayer" target="_parent">
<polygon fill="#fffcaf" stroke="black" points="753.5,-19 650.5,-19 650.5,0 753.5,0 753.5,-19"/>
<text text-anchor="middle" x="702" y="-7" font-family="Helvetica,sans-Serif" font-size="10.00">StreamFilterLayer</text>
</a>
</g>
</g>
<!-- IProtocolLayer&#45;&gt;StreamFilterLayer -->
<g id="edge6" class="edge">
<title>IProtocolLayer&#45;&gt;StreamFilterLayer</title>
<path fill="none" stroke="black" stroke-dasharray="5,2" d="M811.95,-54.98C787.65,-45.15 747.89,-29.07 723.43,-19.17"/>
</g>
<!-- StreamIdentifierLayer -->
<g id="node8" class="node">
<title>StreamIdentifierLayer</title>
<g id="a_node8"><a xlink:href="inet.protocolelement.redundancy.StreamIdentifierLayer.html" xlink:title="Compound Module StreamIdentifierLayer" target="_parent">
<polygon fill="#fffcaf" stroke="black" points="894.5,-19 771.5,-19 771.5,0 894.5,0 894.5,-19"/>
<text text-anchor="middle" x="833" y="-7" font-family="Helvetica,sans-Serif" font-size="10.00">StreamIdentifierLayer</text>
</a>
</g>
</g>
<!-- IProtocolLayer&#45;&gt;StreamIdentifierLayer -->
<g id="edge7" class="edge">
<title>IProtocolLayer&#45;&gt;StreamIdentifierLayer</title>
<path fill="none" stroke="black" stroke-dasharray="5,2" d="M833,-54.75C833,-44.87 833,-28.9 833,-19.09"/>
</g>
<!-- StreamPolicyLayer -->
<g id="node9" class="node">
<title>StreamPolicyLayer</title>
<g id="a_node9"><a xlink:href="inet.linklayer.ieee8021q.StreamPolicyLayer.html" xlink:title="Compound Module StreamPolicyLayer" target="_parent">
<polygon fill="#fffcaf" stroke="black" points="1021,-19 913,-19 913,0 1021,0 1021,-19"/>
<text text-anchor="middle" x="967" y="-7" font-family="Helvetica,sans-Serif" font-size="10.00">StreamPolicyLayer</text>
</a>
</g>
</g>
<!-- IProtocolLayer&#45;&gt;StreamPolicyLayer -->
<g id="edge8" class="edge">
<title>IProtocolLayer&#45;&gt;StreamPolicyLayer</title>
<path fill="none" stroke="black" stroke-dasharray="5,2" d="M854.53,-54.98C879.39,-45.15 920.06,-29.07 945.08,-19.17"/>
</g>
<!-- StreamRelayLayer -->
<g id="node10" class="node">
<title>StreamRelayLayer</title>
<g id="a_node10"><a xlink:href="inet.protocolelement.redundancy.StreamRelayLayer.html" xlink:title="Compound Module StreamRelayLayer" target="_parent">
<polygon fill="#fffcaf" stroke="black" points="1146.5,-19 1039.5,-19 1039.5,0 1146.5,0 1146.5,-19"/>
<text text-anchor="middle" x="1093" y="-7" font-family="Helvetica,sans-Serif" font-size="10.00">StreamRelayLayer</text>
</a>
</g>
</g>
<!-- IProtocolLayer&#45;&gt;StreamRelayLayer -->
<g id="edge9" class="edge">
<title>IProtocolLayer&#45;&gt;StreamRelayLayer</title>
<path fill="none" stroke="black" stroke-dasharray="5,2" d="M874.77,-54.98C923.15,-45.12 1002.39,-28.97 1050.9,-19.08"/>
</g>
<!-- VlanPolicyLayer -->
<g id="node11" class="node">
<title>VlanPolicyLayer</title>
<g id="a_node11"><a xlink:href="inet.linklayer.vlan.VlanPolicyLayer.html" xlink:title="Compound Module VlanPolicyLayer" target="_parent">
<polygon fill="#fffcaf" stroke="black" points="1259.5,-19 1164.5,-19 1164.5,0 1259.5,0 1259.5,-19"/>
<text text-anchor="middle" x="1212" y="-7" font-family="Helvetica,sans-Serif" font-size="10.00">VlanPolicyLayer</text>
</a>
</g>
</g>
<!-- IProtocolLayer&#45;&gt;VlanPolicyLayer -->
<g id="edge10" class="edge">
<title>IProtocolLayer&#45;&gt;VlanPolicyLayer</title>
<path fill="none" stroke="black" stroke-dasharray="5,2" d="M876.13,-57.75C938.09,-49.44 1055.86,-33.5 1156,-19 1158.72,-18.61 1161.52,-18.2 1164.35,-17.78"/>
</g>
<!-- IIeee8021qLayer -->
<g id="node12" class="node">
<title>IIeee8021qLayer</title>
<g id="a_node12"><a xlink:href="inet.linklayer.ieee8021q.IIeee8021qLayer.html" xlink:title="Module Interface IIeee8021qLayer" target="_parent">
<polygon fill="#fffcaf" stroke="black" stroke-dasharray="5,2" points="1376,-19 1278,-19 1278,0 1376,0 1376,-19"/>
<text text-anchor="middle" x="1327" y="-7" font-family="Helvetica,sans-Serif" font-size="10.00">IIeee8021qLayer</text>
</a>
</g>
</g>
<!-- IProtocolLayer&#45;&gt;IIeee8021qLayer -->
<g id="edge11" class="edge">
<title>IProtocolLayer&#45;&gt;IIeee8021qLayer</title>
<path fill="none" stroke="black" d="M876.08,-59.73C954.41,-52.75 1125.35,-36.85 1269,-19 1271.93,-18.64 1274.94,-18.25 1277.97,-17.84"/>
</g>
<!-- IIeee8021rLayer -->
<g id="node13" class="node">
<title>IIeee8021rLayer</title>
<g id="a_node13"><a xlink:href="inet.linklayer.ieee8021r.IIeee8021rLayer.html" xlink:title="Module Interface IIeee8021rLayer" target="_parent">
<polygon fill="#fffcaf" stroke="black" stroke-dasharray="5,2" points="1489.5,-19 1394.5,-19 1394.5,0 1489.5,0 1489.5,-19"/>
<text text-anchor="middle" x="1442" y="-7" font-family="Helvetica,sans-Serif" font-size="10.00">IIeee8021rLayer</text>
</a>
</g>
</g>
<!-- IProtocolLayer&#45;&gt;IIeee8021rLayer -->
<g id="edge12" class="edge">
<title>IProtocolLayer&#45;&gt;IIeee8021rLayer</title>
<path fill="none" stroke="black" d="M876.04,-61.02C969.09,-55.45 1195.88,-40.7 1385,-19 1388.08,-18.65 1391.25,-18.25 1394.45,-17.84"/>
</g>
<!-- IMacRelayUnit -->
<g id="node14" class="node">
<title>IMacRelayUnit</title>
<g id="a_node14"><a xlink:href="inet.linklayer.contract.IMacRelayUnit.html" xlink:title="Module Interface IMacRelayUnit" target="_parent">
<polygon fill="#fffcaf" stroke="black" stroke-dasharray="5,2" points="1596,-19 1508,-19 1508,0 1596,0 1596,-19"/>
<text text-anchor="middle" x="1552" y="-7" font-family="Helvetica,sans-Serif" font-size="10.00">IMacRelayUnit</text>
</a>
</g>
</g>
<!-- IProtocolLayer&#45;&gt;IMacRelayUnit -->
<g id="edge13" class="edge">
<title>IProtocolLayer&#45;&gt;IMacRelayUnit</title>
<path fill="none" stroke="black" d="M876.37,-61.99C982.74,-57.98 1264.97,-45.53 1499,-19 1501.87,-18.67 1504.82,-18.3 1507.8,-17.9"/>
</g>
</g>
</svg>
