<?xml version="1.0" encoding="UTF-8" standalone="no"?>
<!DOCTYPE svg PUBLIC "-//W3C//DTD SVG 1.1//EN"
 "http://www.w3.org/Graphics/SVG/1.1/DTD/svg11.dtd">
<!-- Generated by graphviz version 2.43.0 (0)
 -->
<!-- Title: opp Pages: 1 -->
<svg width="510pt" height="82pt"
 viewBox="0.00 0.00 509.50 82.00" xmlns="http://www.w3.org/2000/svg" xmlns:xlink="http://www.w3.org/1999/xlink">
<g id="graph0" class="graph" transform="scale(1 1) rotate(0) translate(4 78)">
<title>opp</title>
<polygon fill="transparent" stroke="transparent" points="-4,4 -4,-78 505.5,-78 505.5,4 -4,4"/>
<!-- NetworkDaisyChain -->
<g id="node1" class="node">
<title>NetworkDaisyChain</title>
<g id="a_node1"><a xlink:href="inet.examples.ieee8021as.NetworkDaisyChain.html" xlink:title="Network NetworkDaisyChain" target="_parent">
<polygon fill="#9090ff" stroke="black" points="308,-74 195,-74 195,-55 308,-55 308,-74"/>
<text text-anchor="middle" x="251.5" y="-62" font-family="Helvetica,sans-Serif" font-size="10.00">NetworkDaisyChain</text>
</a>
</g>
</g>
<!-- GptpBridge -->
<g id="node2" class="node">
<title>GptpBridge</title>
<g id="a_node2"><a xlink:href="inet.linklayer.ieee8021as.GptpBridge.html" xlink:title="Compound Module GptpBridge" target="_parent">
<polygon fill="#fffcaf" stroke="black" points="71,-19 0,-19 0,0 71,0 71,-19"/>
<text text-anchor="middle" x="35.5" y="-7" font-family="Helvetica,sans-Serif" font-size="10.00">GptpBridge</text>
</a>
</g>
</g>
<!-- NetworkDaisyChain&#45;&gt;GptpBridge -->
<g id="edge1" class="edge">
<title>NetworkDaisyChain&#45;&gt;GptpBridge</title>
<path fill="none" stroke="black" d="M216.8,-54.98C179.75,-45.89 120.91,-31.46 80.37,-21.51"/>
<polygon fill="black" stroke="black" points="81.02,-18.07 70.48,-19.08 79.35,-24.86 81.02,-18.07"/>
</g>
<!-- GptpMaster -->
<g id="node3" class="node">
<title>GptpMaster</title>
<g id="a_node3"><a xlink:href="inet.linklayer.ieee8021as.GptpMaster.html" xlink:title="Compound Module GptpMaster" target="_parent">
<polygon fill="#fffcaf" stroke="black" points="163.5,-19 89.5,-19 89.5,0 163.5,0 163.5,-19"/>
<text text-anchor="middle" x="126.5" y="-7" font-family="Helvetica,sans-Serif" font-size="10.00">GptpMaster</text>
</a>
</g>
</g>
<!-- NetworkDaisyChain&#45;&gt;GptpMaster -->
<g id="edge2" class="edge">
<title>NetworkDaisyChain&#45;&gt;GptpMaster</title>
<path fill="none" stroke="black" d="M231.42,-54.98C211.13,-46.38 179.54,-32.99 156.33,-23.15"/>
<polygon fill="black" stroke="black" points="157.52,-19.85 146.95,-19.17 154.79,-26.3 157.52,-19.85"/>
</g>
<!-- Ipv4NetworkConfigurator -->
<g id="node4" class="node">
<title>Ipv4NetworkConfigurator</title>
<g id="a_node4"><a xlink:href="inet.networklayer.configurator.ipv4.Ipv4NetworkConfigurator.html" xlink:title="Simple Module Ipv4NetworkConfigurator" target="_parent">
<polygon fill="#fffcaf" stroke="black" points="321.5,-19 181.5,-19 181.5,0 321.5,0 321.5,-19"/>
<text text-anchor="middle" x="251.5" y="-7" font-family="Helvetica,sans-Serif" font-size="10.00">Ipv4NetworkConfigurator</text>
</a>
</g>
</g>
<!-- NetworkDaisyChain&#45;&gt;Ipv4NetworkConfigurator -->
<g id="edge3" class="edge">
<title>NetworkDaisyChain&#45;&gt;Ipv4NetworkConfigurator</title>
<path fill="none" stroke="black" d="M251.5,-54.75C251.5,-47.8 251.5,-37.85 251.5,-29.13"/>
<polygon fill="black" stroke="black" points="255,-29.09 251.5,-19.09 248,-29.09 255,-29.09"/>
</g>
<!-- GptpSlave -->
<g id="node5" class="node">
<title>GptpSlave</title>
<g id="a_node5"><a xlink:href="inet.linklayer.ieee8021as.GptpSlave.html" xlink:title="Compound Module GptpSlave" target="_parent">
<polygon fill="#fffcaf" stroke="black" points="407,-19 340,-19 340,0 407,0 407,-19"/>
<text text-anchor="middle" x="373.5" y="-7" font-family="Helvetica,sans-Serif" font-size="10.00">GptpSlave</text>
</a>
</g>
</g>
<!-- NetworkDaisyChain&#45;&gt;GptpSlave -->
<g id="edge4" class="edge">
<title>NetworkDaisyChain&#45;&gt;GptpSlave</title>
<path fill="none" stroke="black" d="M271.1,-54.98C290.82,-46.42 321.45,-33.11 344.08,-23.28"/>
<polygon fill="black" stroke="black" points="345.76,-26.37 353.54,-19.17 342.98,-19.94 345.76,-26.37"/>
</g>
<!-- Ethernet100 -->
<g id="node6" class="node">
<title>Ethernet100</title>
<g id="a_node6"><a xlink:href="inet.examples.ieee8021as.NetworkDaisyChain.Ethernet100.html" xlink:title="Channel Ethernet100" target="_parent">
<polygon fill="#d0ffd0" stroke="black" points="501.5,-19 425.5,-19 425.5,0 501.5,0 501.5,-19"/>
<text text-anchor="middle" x="463.5" y="-7" font-family="Helvetica,sans-Serif" font-size="10.00">Ethernet100</text>
</a>
</g>
</g>
<!-- NetworkDaisyChain&#45;&gt;Ethernet100 -->
<g id="edge5" class="edge">
<title>NetworkDaisyChain&#45;&gt;Ethernet100</title>
<path fill="none" stroke="black" d="M285.56,-54.98C321.92,-45.89 379.67,-31.46 419.47,-21.51"/>
<polygon fill="black" stroke="black" points="420.32,-24.9 429.17,-19.08 418.62,-18.11 420.32,-24.9"/>
</g>
</g>
</svg>
