<?xml version="1.0" encoding="UTF-8" standalone="no"?>
<!DOCTYPE svg PUBLIC "-//W3C//DTD SVG 1.1//EN"
 "http://www.w3.org/Graphics/SVG/1.1/DTD/svg11.dtd">
<!-- Generated by graphviz version 2.43.0 (0)
 -->
<!-- Title: opp Pages: 1 -->
<svg width="844pt" height="137pt"
 viewBox="0.00 0.00 843.50 137.00" xmlns="http://www.w3.org/2000/svg" xmlns:xlink="http://www.w3.org/1999/xlink">
<g id="graph0" class="graph" transform="scale(1 1) rotate(0) translate(4 133)">
<title>opp</title>
<polygon fill="transparent" stroke="transparent" points="-4,4 -4,-133 839.5,-133 839.5,4 -4,4"/>
<!-- ITrafficConditioner -->
<g id="node1" class="node">
<title>ITrafficConditioner</title>
<g id="a_node1"><a xlink:href="inet.queueing.contract.ITrafficConditioner.html" xlink:title="Module Interface ITrafficConditioner" target="_parent">
<polygon fill="#fff700" stroke="black" stroke-dasharray="5,2" points="536,-74 429,-74 429,-55 536,-55 536,-74"/>
<text text-anchor="middle" x="482.5" y="-62" font-family="Helvetica,sans-Serif" font-size="10.00">ITrafficConditioner</text>
</a>
</g>
</g>
<!-- DiffservTrafficConditioner -->
<g id="node4" class="node">
<title>DiffservTrafficConditioner</title>
<g id="a_node4"><a xlink:href="inet.showcases.general.diffserv.DiffservTrafficConditioner.html" xlink:title="Compound Module DiffservTrafficConditioner" target="_parent">
<polygon fill="#fffcaf" stroke="black" points="143,-19 0,-19 0,0 143,0 143,-19"/>
<text text-anchor="middle" x="71.5" y="-7" font-family="Helvetica,sans-Serif" font-size="10.00">DiffservTrafficConditioner</text>
</a>
</g>
</g>
<!-- ITrafficConditioner&#45;&gt;DiffservTrafficConditioner -->
<g id="edge3" class="edge">
<title>ITrafficConditioner&#45;&gt;DiffservTrafficConditioner</title>
<path fill="none" stroke="black" stroke-dasharray="5,2" d="M428.77,-56.57C353.92,-46.92 218.37,-29.44 137.48,-19.01"/>
</g>
<!-- LeakyBucket -->
<g id="node5" class="node">
<title>LeakyBucket</title>
<g id="a_node5"><a xlink:href="inet.queueing.shaper.LeakyBucket.html" xlink:title="Compound Module LeakyBucket" target="_parent">
<polygon fill="#fffcaf" stroke="black" points="239.5,-19 161.5,-19 161.5,0 239.5,0 239.5,-19"/>
<text text-anchor="middle" x="200.5" y="-7" font-family="Helvetica,sans-Serif" font-size="10.00">LeakyBucket</text>
</a>
</g>
</g>
<!-- ITrafficConditioner&#45;&gt;LeakyBucket -->
<g id="edge4" class="edge">
<title>ITrafficConditioner&#45;&gt;LeakyBucket</title>
<path fill="none" stroke="black" stroke-dasharray="5,2" d="M437.19,-54.98C382.54,-44.71 291.58,-27.62 239.78,-17.88"/>
</g>
<!-- OmittedTrafficConditioner -->
<g id="node6" class="node">
<title>OmittedTrafficConditioner</title>
<g id="a_node6"><a xlink:href="inet.queueing.shaper.OmittedTrafficConditioner.html" xlink:title="Compound Module OmittedTrafficConditioner" target="_parent">
<polygon fill="#fffcaf" stroke="black" points="401,-19 258,-19 258,0 401,0 401,-19"/>
<text text-anchor="middle" x="329.5" y="-7" font-family="Helvetica,sans-Serif" font-size="10.00">OmittedTrafficConditioner</text>
</a>
</g>
</g>
<!-- ITrafficConditioner&#45;&gt;OmittedTrafficConditioner -->
<g id="edge5" class="edge">
<title>ITrafficConditioner&#45;&gt;OmittedTrafficConditioner</title>
<path fill="none" stroke="black" stroke-dasharray="5,2" d="M457.92,-54.98C429.45,-45.12 382.82,-28.97 354.27,-19.08"/>
</g>
<!-- TC1 -->
<g id="node7" class="node">
<title>TC1</title>
<g id="a_node7"><a xlink:href="inet.examples.diffserv.onedomain.TC1.html" xlink:title="Compound Module TC1" target="_parent">
<polygon fill="#fffcaf" stroke="black" points="473.5,-19 419.5,-19 419.5,0 473.5,0 473.5,-19"/>
<text text-anchor="middle" x="446.5" y="-7" font-family="Helvetica,sans-Serif" font-size="10.00">TC1</text>
</a>
</g>
</g>
<!-- ITrafficConditioner&#45;&gt;TC1 -->
<g id="edge6" class="edge">
<title>ITrafficConditioner&#45;&gt;TC1</title>
<path fill="none" stroke="black" stroke-dasharray="5,2" d="M476.56,-54.75C469.85,-44.87 459,-28.9 452.33,-19.09"/>
</g>
<!-- TC2 -->
<g id="node8" class="node">
<title>TC2</title>
<g id="a_node8"><a xlink:href="inet.examples.diffserv.onedomain.TC2.html" xlink:title="Compound Module TC2" target="_parent">
<polygon fill="#fffcaf" stroke="black" points="545.5,-19 491.5,-19 491.5,0 545.5,0 545.5,-19"/>
<text text-anchor="middle" x="518.5" y="-7" font-family="Helvetica,sans-Serif" font-size="10.00">TC2</text>
</a>
</g>
</g>
<!-- ITrafficConditioner&#45;&gt;TC2 -->
<g id="edge7" class="edge">
<title>ITrafficConditioner&#45;&gt;TC2</title>
<path fill="none" stroke="black" stroke-dasharray="5,2" d="M488.44,-54.75C495.15,-44.87 506,-28.9 512.67,-19.09"/>
</g>
<!-- TC3 -->
<g id="node9" class="node">
<title>TC3</title>
<g id="a_node9"><a xlink:href="inet.examples.diffserv.onedomain.TC3.html" xlink:title="Compound Module TC3" target="_parent">
<polygon fill="#fffcaf" stroke="black" points="617.5,-19 563.5,-19 563.5,0 617.5,0 617.5,-19"/>
<text text-anchor="middle" x="590.5" y="-7" font-family="Helvetica,sans-Serif" font-size="10.00">TC3</text>
</a>
</g>
</g>
<!-- ITrafficConditioner&#45;&gt;TC3 -->
<g id="edge8" class="edge">
<title>ITrafficConditioner&#45;&gt;TC3</title>
<path fill="none" stroke="black" stroke-dasharray="5,2" d="M499.85,-54.98C519.89,-45.15 552.66,-29.07 572.83,-19.17"/>
</g>
<!-- TokenBucket -->
<g id="node10" class="node">
<title>TokenBucket</title>
<g id="a_node10"><a xlink:href="inet.queueing.shaper.TokenBucket.html" xlink:title="Compound Module TokenBucket" target="_parent">
<polygon fill="#fffcaf" stroke="black" points="713,-19 636,-19 636,0 713,0 713,-19"/>
<text text-anchor="middle" x="674.5" y="-7" font-family="Helvetica,sans-Serif" font-size="10.00">TokenBucket</text>
</a>
</g>
</g>
<!-- ITrafficConditioner&#45;&gt;TokenBucket -->
<g id="edge9" class="edge">
<title>ITrafficConditioner&#45;&gt;TokenBucket</title>
<path fill="none" stroke="black" stroke-dasharray="5,2" d="M513.35,-54.98C549.07,-45.12 607.58,-28.97 643.41,-19.08"/>
</g>
<!-- TrafficConditioner -->
<g id="node11" class="node">
<title>TrafficConditioner</title>
<g id="a_node11"><a xlink:href="inet.examples.diffserv.simple_.TrafficConditioner.html" xlink:title="Compound Module TrafficConditioner" target="_parent">
<polygon fill="#fffcaf" stroke="black" points="835.5,-19 731.5,-19 731.5,0 835.5,0 835.5,-19"/>
<text text-anchor="middle" x="783.5" y="-7" font-family="Helvetica,sans-Serif" font-size="10.00">TrafficConditioner</text>
</a>
</g>
</g>
<!-- ITrafficConditioner&#45;&gt;TrafficConditioner -->
<g id="edge10" class="edge">
<title>ITrafficConditioner&#45;&gt;TrafficConditioner</title>
<path fill="none" stroke="black" stroke-dasharray="5,2" d="M530.86,-54.98C586.86,-45.12 678.6,-28.97 734.76,-19.08"/>
</g>
<!-- IPassivePacketSink -->
<g id="node2" class="node">
<title>IPassivePacketSink</title>
<g id="a_node2"><a xlink:href="inet.queueing.contract.IPassivePacketSink.html" xlink:title="Module Interface IPassivePacketSink" target="_parent">
<polygon fill="#fffcaf" stroke="black" stroke-dasharray="5,2" points="472.5,-129 362.5,-129 362.5,-110 472.5,-110 472.5,-129"/>
<text text-anchor="middle" x="417.5" y="-117" font-family="Helvetica,sans-Serif" font-size="10.00">IPassivePacketSink</text>
</a>
</g>
</g>
<!-- IPassivePacketSink&#45;&gt;ITrafficConditioner -->
<g id="edge1" class="edge">
<title>IPassivePacketSink&#45;&gt;ITrafficConditioner</title>
<path fill="none" stroke="black" d="M427.94,-109.98C440,-100.15 459.73,-84.07 471.87,-74.17"/>
</g>
<!-- IActivePacketSource -->
<g id="node3" class="node">
<title>IActivePacketSource</title>
<g id="a_node3"><a xlink:href="inet.queueing.contract.IActivePacketSource.html" xlink:title="Module Interface IActivePacketSource" target="_parent">
<polygon fill="#fffcaf" stroke="black" stroke-dasharray="5,2" points="606.5,-129 490.5,-129 490.5,-110 606.5,-110 606.5,-129"/>
<text text-anchor="middle" x="548.5" y="-117" font-family="Helvetica,sans-Serif" font-size="10.00">IActivePacketSource</text>
</a>
</g>
</g>
<!-- IActivePacketSource&#45;&gt;ITrafficConditioner -->
<g id="edge2" class="edge">
<title>IActivePacketSource&#45;&gt;ITrafficConditioner</title>
<path fill="none" stroke="black" d="M537.9,-109.98C525.65,-100.15 505.62,-84.07 493.3,-74.17"/>
</g>
</g>
</svg>
