<?xml version="1.0" encoding="UTF-8" standalone="no"?>
<!DOCTYPE svg PUBLIC "-//W3C//DTD SVG 1.1//EN"
 "http://www.w3.org/Graphics/SVG/1.1/DTD/svg11.dtd">
<!-- Generated by graphviz version 2.43.0 (0)
 -->
<!-- Title: opp Pages: 1 -->
<svg width="536pt" height="82pt"
 viewBox="0.00 0.00 536.00 82.00" xmlns="http://www.w3.org/2000/svg" xmlns:xlink="http://www.w3.org/1999/xlink">
<g id="graph0" class="graph" transform="scale(1 1) rotate(0) translate(4 78)">
<title>opp</title>
<polygon fill="transparent" stroke="transparent" points="-4,4 -4,-78 532,-78 532,4 -4,4"/>
<!-- CompoundPacketQueueTutorialStep -->
<g id="node1" class="node">
<title>CompoundPacketQueueTutorialStep</title>
<g id="a_node1"><a xlink:href="inet.tutorials.queueing.CompoundPacketQueueTutorialStep.html" xlink:title="Network CompoundPacketQueueTutorialStep" target="_parent">
<polygon fill="#9090ff" stroke="black" points="341,-74 150,-74 150,-55 341,-55 341,-74"/>
<text text-anchor="middle" x="245.5" y="-62" font-family="Helvetica,sans-Serif" font-size="10.00">CompoundPacketQueueTutorialStep</text>
</a>
</g>
</g>
<!-- ActivePacketSource -->
<g id="node2" class="node">
<title>ActivePacketSource</title>
<g id="a_node2"><a xlink:href="inet.queueing.source.ActivePacketSource.html" xlink:title="Simple Module ActivePacketSource" target="_parent">
<polygon fill="#fffcaf" stroke="black" points="113,-19 0,-19 0,0 113,0 113,-19"/>
<text text-anchor="middle" x="56.5" y="-7" font-family="Helvetica,sans-Serif" font-size="10.00">ActivePacketSource</text>
</a>
</g>
</g>
<!-- CompoundPacketQueueTutorialStep&#45;&gt;ActivePacketSource -->
<g id="edge1" class="edge">
<title>CompoundPacketQueueTutorialStep&#45;&gt;ActivePacketSource</title>
<path fill="none" stroke="black" d="M215.13,-54.98C183.13,-46.01 132.54,-31.82 97.12,-21.89"/>
<polygon fill="black" stroke="black" points="97.68,-18.41 87.1,-19.08 95.79,-25.15 97.68,-18.41"/>
</g>
<!-- IdealChannel -->
<g id="node3" class="node">
<title>IdealChannel</title>
<g id="a_node3"><a xlink:href="ned.IdealChannel.html" xlink:title="Channel IdealChannel" target="_parent">
<polygon fill="#d0ffd0" stroke="black" points="211.5,-19 131.5,-19 131.5,0 211.5,0 211.5,-19"/>
<text text-anchor="middle" x="171.5" y="-7" font-family="Helvetica,sans-Serif" font-size="10.00">IdealChannel</text>
</a>
</g>
</g>
<!-- CompoundPacketQueueTutorialStep&#45;&gt;IdealChannel -->
<g id="edge2" class="edge">
<title>CompoundPacketQueueTutorialStep&#45;&gt;IdealChannel</title>
<path fill="none" stroke="black" d="M233.61,-54.98C222.35,-46.92 205.21,-34.65 191.79,-25.03"/>
<polygon fill="black" stroke="black" points="193.77,-22.15 183.61,-19.17 189.7,-27.84 193.77,-22.15"/>
</g>
<!-- ExampleCompoundPriorityQueue -->
<g id="node4" class="node">
<title>ExampleCompoundPriorityQueue</title>
<g id="a_node4"><a xlink:href="inet.tutorials.queueing.ExampleCompoundPriorityQueue.html" xlink:title="Compound Module ExampleCompoundPriorityQueue" target="_parent">
<polygon fill="#fffcaf" stroke="black" points="409,-19 230,-19 230,0 409,0 409,-19"/>
<text text-anchor="middle" x="319.5" y="-7" font-family="Helvetica,sans-Serif" font-size="10.00">ExampleCompoundPriorityQueue</text>
</a>
</g>
</g>
<!-- CompoundPacketQueueTutorialStep&#45;&gt;ExampleCompoundPriorityQueue -->
<g id="edge3" class="edge">
<title>CompoundPacketQueueTutorialStep&#45;&gt;ExampleCompoundPriorityQueue</title>
<path fill="none" stroke="black" d="M257.39,-54.98C268.65,-46.92 285.79,-34.65 299.21,-25.03"/>
<polygon fill="black" stroke="black" points="301.3,-27.84 307.39,-19.17 297.23,-22.15 301.3,-27.84"/>
</g>
<!-- ActivePacketSink -->
<g id="node5" class="node">
<title>ActivePacketSink</title>
<g id="a_node5"><a xlink:href="inet.queueing.sink.ActivePacketSink.html" xlink:title="Simple Module ActivePacketSink" target="_parent">
<polygon fill="#fffcaf" stroke="black" points="528,-19 427,-19 427,0 528,0 528,-19"/>
<text text-anchor="middle" x="477.5" y="-7" font-family="Helvetica,sans-Serif" font-size="10.00">ActivePacketSink</text>
</a>
</g>
</g>
<!-- CompoundPacketQueueTutorialStep&#45;&gt;ActivePacketSink -->
<g id="edge4" class="edge">
<title>CompoundPacketQueueTutorialStep&#45;&gt;ActivePacketSink</title>
<path fill="none" stroke="black" d="M282.77,-54.98C322.82,-45.84 386.57,-31.27 430.14,-21.32"/>
<polygon fill="black" stroke="black" points="430.96,-24.72 439.93,-19.08 429.4,-17.9 430.96,-24.72"/>
</g>
</g>
</svg>
