<?xml version="1.0" encoding="UTF-8" standalone="no"?>
<!DOCTYPE svg PUBLIC "-//W3C//DTD SVG 1.1//EN"
 "http://www.w3.org/Graphics/SVG/1.1/DTD/svg11.dtd">
<!-- Generated by graphviz version 2.43.0 (0)
 -->
<!-- Title: opp Pages: 1 -->
<svg width="1637pt" height="82pt"
 viewBox="0.00 0.00 1636.50 82.00" xmlns="http://www.w3.org/2000/svg" xmlns:xlink="http://www.w3.org/1999/xlink">
<g id="graph0" class="graph" transform="scale(1 1) rotate(0) translate(4 78)">
<title>opp</title>
<polygon fill="transparent" stroke="transparent" points="-4,4 -4,-78 1632.5,-78 1632.5,4 -4,4"/>
<!-- InterfaceService -->
<g id="node1" class="node">
<title>InterfaceService</title>
<g id="a_node1"><a xlink:href="inet.protocolelement.service.InterfaceService.html" xlink:title="Compound Module InterfaceService" target="_parent">
<polygon fill="#fff700" stroke="black" points="838,-74 742,-74 742,-55 838,-55 838,-74"/>
<text text-anchor="middle" x="790" y="-62" font-family="Helvetica,sans-Serif" font-size="10.00">InterfaceService</text>
</a>
</g>
</g>
<!-- Resending -->
<g id="node2" class="node">
<title>Resending</title>
<g id="a_node2"><a xlink:href="inet.protocolelement.acknowledgement.Resending.html" xlink:title="Simple Module Resending" target="_parent">
<polygon fill="#fffcaf" stroke="black" points="68,-19 0,-19 0,0 68,0 68,-19"/>
<text text-anchor="middle" x="34" y="-7" font-family="Helvetica,sans-Serif" font-size="10.00">Resending</text>
</a>
</g>
</g>
<!-- InterfaceService&#45;&gt;Resending -->
<g id="edge1" class="edge">
<title>InterfaceService&#45;&gt;Resending</title>
<path fill="none" stroke="black" d="M741.8,-62.7C628.01,-60.33 333.66,-51.44 78.41,-19"/>
<polygon fill="black" stroke="black" points="78.56,-15.49 68.2,-17.69 77.67,-22.43 78.56,-15.49"/>
</g>
<!-- IdealChannel -->
<g id="node3" class="node">
<title>IdealChannel</title>
<g id="a_node3"><a xlink:href="ned.IdealChannel.html" xlink:title="Channel IdealChannel" target="_parent">
<polygon fill="#d0ffd0" stroke="black" points="166,-19 86,-19 86,0 166,0 166,-19"/>
<text text-anchor="middle" x="126" y="-7" font-family="Helvetica,sans-Serif" font-size="10.00">IdealChannel</text>
</a>
</g>
</g>
<!-- InterfaceService&#45;&gt;IdealChannel -->
<g id="edge2" class="edge">
<title>InterfaceService&#45;&gt;IdealChannel</title>
<path fill="none" stroke="black" d="M742,-61.65C639.8,-57.37 393,-45.17 176.04,-19"/>
<polygon fill="black" stroke="black" points="176.41,-15.52 166.06,-17.78 175.57,-22.47 176.41,-15.52"/>
</g>
<!-- ReceiveWithProtocol -->
<g id="node4" class="node">
<title>ReceiveWithProtocol</title>
<g id="a_node4"><a xlink:href="inet.protocolelement.dispatching.ReceiveWithProtocol.html" xlink:title="Simple Module ReceiveWithProtocol" target="_parent">
<polygon fill="#fffcaf" stroke="black" points="302,-19 184,-19 184,0 302,0 302,-19"/>
<text text-anchor="middle" x="243" y="-7" font-family="Helvetica,sans-Serif" font-size="10.00">ReceiveWithProtocol</text>
</a>
</g>
</g>
<!-- InterfaceService&#45;&gt;ReceiveWithProtocol -->
<g id="edge3" class="edge">
<title>InterfaceService&#45;&gt;ReceiveWithProtocol</title>
<path fill="none" stroke="black" d="M741.68,-59.52C656.98,-52.44 475.96,-36.8 312.56,-19.14"/>
<polygon fill="black" stroke="black" points="312.64,-15.63 302.33,-18.03 311.89,-22.59 312.64,-15.63"/>
</g>
<!-- ReceiveWithAcknowledge -->
<g id="node5" class="node">
<title>ReceiveWithAcknowledge</title>
<g id="a_node5"><a xlink:href="inet.protocolelement.acknowledgement.ReceiveWithAcknowledge.html" xlink:title="Simple Module ReceiveWithAcknowledge" target="_parent">
<polygon fill="#fffcaf" stroke="black" points="463.5,-19 320.5,-19 320.5,0 463.5,0 463.5,-19"/>
<text text-anchor="middle" x="392" y="-7" font-family="Helvetica,sans-Serif" font-size="10.00">ReceiveWithAcknowledge</text>
</a>
</g>
</g>
<!-- InterfaceService&#45;&gt;ReceiveWithAcknowledge -->
<g id="edge4" class="edge">
<title>InterfaceService&#45;&gt;ReceiveWithAcknowledge</title>
<path fill="none" stroke="black" d="M741.99,-57.11C673.39,-47.97 546.71,-31.1 466.05,-20.36"/>
<polygon fill="black" stroke="black" points="466.33,-16.87 455.96,-19.02 465.41,-23.81 466.33,-16.87"/>
</g>
<!-- CrcHeaderInserter -->
<g id="node6" class="node">
<title>CrcHeaderInserter</title>
<g id="a_node6"><a xlink:href="inet.protocolelement.checksum.CrcHeaderInserter.html" xlink:title="Simple Module CrcHeaderInserter" target="_parent">
<polygon fill="#fffcaf" stroke="black" points="586.5,-19 481.5,-19 481.5,0 586.5,0 586.5,-19"/>
<text text-anchor="middle" x="534" y="-7" font-family="Helvetica,sans-Serif" font-size="10.00">CrcHeaderInserter</text>
</a>
</g>
</g>
<!-- InterfaceService&#45;&gt;CrcHeaderInserter -->
<g id="edge5" class="edge">
<title>InterfaceService&#45;&gt;CrcHeaderInserter</title>
<path fill="none" stroke="black" d="M748.87,-54.98C704.4,-45.78 633.45,-31.09 585.35,-21.13"/>
<polygon fill="black" stroke="black" points="585.96,-17.68 575.45,-19.08 584.54,-24.54 585.96,-17.68"/>
</g>
<!-- SendToMacAddress -->
<g id="node7" class="node">
<title>SendToMacAddress</title>
<g id="a_node7"><a xlink:href="inet.protocolelement.selectivity.SendToMacAddress.html" xlink:title="Simple Module SendToMacAddress" target="_parent">
<polygon fill="#fffcaf" stroke="black" points="715,-19 605,-19 605,0 715,0 715,-19"/>
<text text-anchor="middle" x="660" y="-7" font-family="Helvetica,sans-Serif" font-size="10.00">SendToMacAddress</text>
</a>
</g>
</g>
<!-- InterfaceService&#45;&gt;SendToMacAddress -->
<g id="edge6" class="edge">
<title>InterfaceService&#45;&gt;SendToMacAddress</title>
<path fill="none" stroke="black" d="M769.11,-54.98C747.92,-46.34 714.87,-32.87 690.7,-23.02"/>
<polygon fill="black" stroke="black" points="691.85,-19.7 681.27,-19.17 689.21,-26.19 691.85,-19.7"/>
</g>
<!-- MessageDispatcher -->
<g id="node8" class="node">
<title>MessageDispatcher</title>
<g id="a_node8"><a xlink:href="inet.common.MessageDispatcher.html" xlink:title="Simple Module MessageDispatcher" target="_parent">
<polygon fill="#fffcaf" stroke="black" points="846.5,-19 733.5,-19 733.5,0 846.5,0 846.5,-19"/>
<text text-anchor="middle" x="790" y="-7" font-family="Helvetica,sans-Serif" font-size="10.00">MessageDispatcher</text>
</a>
</g>
</g>
<!-- InterfaceService&#45;&gt;MessageDispatcher -->
<g id="edge7" class="edge">
<title>InterfaceService&#45;&gt;MessageDispatcher</title>
<path fill="none" stroke="black" d="M790,-54.75C790,-47.8 790,-37.85 790,-29.13"/>
<polygon fill="black" stroke="black" points="793.5,-29.09 790,-19.09 786.5,-29.09 793.5,-29.09"/>
</g>
<!-- SendWithAcknowledge -->
<g id="node9" class="node">
<title>SendWithAcknowledge</title>
<g id="a_node9"><a xlink:href="inet.protocolelement.acknowledgement.SendWithAcknowledge.html" xlink:title="Simple Module SendWithAcknowledge" target="_parent">
<polygon fill="#fffcaf" stroke="black" points="993,-19 865,-19 865,0 993,0 993,-19"/>
<text text-anchor="middle" x="929" y="-7" font-family="Helvetica,sans-Serif" font-size="10.00">SendWithAcknowledge</text>
</a>
</g>
</g>
<!-- InterfaceService&#45;&gt;SendWithAcknowledge -->
<g id="edge8" class="edge">
<title>InterfaceService&#45;&gt;SendWithAcknowledge</title>
<path fill="none" stroke="black" d="M812.33,-54.98C835.2,-46.27 870.96,-32.63 896.86,-22.75"/>
<polygon fill="black" stroke="black" points="898.16,-26 906.26,-19.17 895.67,-19.46 898.16,-26"/>
</g>
<!-- PacketTransmitter -->
<g id="node10" class="node">
<title>PacketTransmitter</title>
<g id="a_node10"><a xlink:href="inet.protocolelement.transceiver.PacketTransmitter.html" xlink:title="Simple Module PacketTransmitter" target="_parent">
<polygon fill="#fffcaf" stroke="black" points="1116.5,-19 1011.5,-19 1011.5,0 1116.5,0 1116.5,-19"/>
<text text-anchor="middle" x="1064" y="-7" font-family="Helvetica,sans-Serif" font-size="10.00">PacketTransmitter</text>
</a>
</g>
</g>
<!-- InterfaceService&#45;&gt;PacketTransmitter -->
<g id="edge9" class="edge">
<title>InterfaceService&#45;&gt;PacketTransmitter</title>
<path fill="none" stroke="black" d="M834.02,-54.98C881.82,-45.74 958.2,-30.97 1009.68,-21.01"/>
<polygon fill="black" stroke="black" points="1010.48,-24.42 1019.63,-19.08 1009.15,-17.54 1010.48,-24.42"/>
</g>
<!-- PacketMultiplexer -->
<g id="node11" class="node">
<title>PacketMultiplexer</title>
<g id="a_node11"><a xlink:href="inet.queueing.common.PacketMultiplexer.html" xlink:title="Simple Module PacketMultiplexer" target="_parent">
<polygon fill="#fffcaf" stroke="black" points="1239,-19 1135,-19 1135,0 1239,0 1239,-19"/>
<text text-anchor="middle" x="1187" y="-7" font-family="Helvetica,sans-Serif" font-size="10.00">PacketMultiplexer</text>
</a>
</g>
</g>
<!-- InterfaceService&#45;&gt;PacketMultiplexer -->
<g id="edge10" class="edge">
<title>InterfaceService&#45;&gt;PacketMultiplexer</title>
<path fill="none" stroke="black" d="M838.14,-57.23C901.42,-48.96 1016.3,-33.87 1124.63,-19.18"/>
<polygon fill="black" stroke="black" points="1125.32,-22.62 1134.76,-17.8 1124.38,-15.68 1125.32,-22.62"/>
</g>
<!-- CrcHeaderChecker -->
<g id="node12" class="node">
<title>CrcHeaderChecker</title>
<g id="a_node12"><a xlink:href="inet.protocolelement.checksum.CrcHeaderChecker.html" xlink:title="Simple Module CrcHeaderChecker" target="_parent">
<polygon fill="#fffcaf" stroke="black" points="1364.5,-19 1257.5,-19 1257.5,0 1364.5,0 1364.5,-19"/>
<text text-anchor="middle" x="1311" y="-7" font-family="Helvetica,sans-Serif" font-size="10.00">CrcHeaderChecker</text>
</a>
</g>
</g>
<!-- InterfaceService&#45;&gt;CrcHeaderChecker -->
<g id="edge11" class="edge">
<title>InterfaceService&#45;&gt;CrcHeaderChecker</title>
<path fill="none" stroke="black" d="M838.2,-59.41C919.95,-52.35 1091.25,-36.98 1247.15,-19.05"/>
<polygon fill="black" stroke="black" points="1247.87,-22.5 1257.4,-17.87 1247.06,-15.54 1247.87,-22.5"/>
</g>
<!-- SendWithProtocol -->
<g id="node13" class="node">
<title>SendWithProtocol</title>
<g id="a_node13"><a xlink:href="inet.protocolelement.dispatching.SendWithProtocol.html" xlink:title="Simple Module SendWithProtocol" target="_parent">
<polygon fill="#fffcaf" stroke="black" points="1485.5,-19 1382.5,-19 1382.5,0 1485.5,0 1485.5,-19"/>
<text text-anchor="middle" x="1434" y="-7" font-family="Helvetica,sans-Serif" font-size="10.00">SendWithProtocol</text>
</a>
</g>
</g>
<!-- InterfaceService&#45;&gt;SendWithProtocol -->
<g id="edge12" class="edge">
<title>InterfaceService&#45;&gt;SendWithProtocol</title>
<path fill="none" stroke="black" d="M838.17,-60.89C936.58,-55.32 1168,-41.06 1372.3,-19.12"/>
<polygon fill="black" stroke="black" points="1372.75,-22.59 1382.32,-18.04 1372,-15.63 1372.75,-22.59"/>
</g>
<!-- ReceiveAtMacAddress -->
<g id="node14" class="node">
<title>ReceiveAtMacAddress</title>
<g id="a_node14"><a xlink:href="inet.protocolelement.selectivity.ReceiveAtMacAddress.html" xlink:title="Simple Module ReceiveAtMacAddress" target="_parent">
<polygon fill="#fffcaf" stroke="black" points="1628.5,-19 1503.5,-19 1503.5,0 1628.5,0 1628.5,-19"/>
<text text-anchor="middle" x="1566" y="-7" font-family="Helvetica,sans-Serif" font-size="10.00">ReceiveAtMacAddress</text>
</a>
</g>
</g>
<!-- InterfaceService&#45;&gt;ReceiveAtMacAddress -->
<g id="edge13" class="edge">
<title>InterfaceService&#45;&gt;ReceiveAtMacAddress</title>
<path fill="none" stroke="black" d="M838.37,-61.38C951.2,-56.25 1240.83,-41.89 1493.21,-19.12"/>
<polygon fill="black" stroke="black" points="1493.66,-22.59 1503.3,-18.2 1493.02,-15.62 1493.66,-22.59"/>
</g>
</g>
</svg>
