<?xml version="1.0" encoding="UTF-8" standalone="no"?>
<!DOCTYPE svg PUBLIC "-//W3C//DTD SVG 1.1//EN"
 "http://www.w3.org/Graphics/SVG/1.1/DTD/svg11.dtd">
<!-- Generated by graphviz version 2.43.0 (0)
 -->
<!-- Title: opp Pages: 1 -->
<svg width="898pt" height="137pt"
 viewBox="0.00 0.00 898.00 137.00" xmlns="http://www.w3.org/2000/svg" xmlns:xlink="http://www.w3.org/1999/xlink">
<g id="graph0" class="graph" transform="scale(1 1) rotate(0) translate(4 133)">
<title>opp</title>
<polygon fill="transparent" stroke="transparent" points="-4,4 -4,-133 894,-133 894,4 -4,4"/>
<!-- ClientHost6 -->
<g id="node1" class="node">
<title>ClientHost6</title>
<g id="a_node1"><a xlink:href="inet.tutorials.protocol.ClientHost6.html" xlink:title="Compound Module ClientHost6" target="_parent">
<polygon fill="#fff700" stroke="black" points="448,-74 374,-74 374,-55 448,-55 448,-74"/>
<text text-anchor="middle" x="411" y="-62" font-family="Helvetica,sans-Serif" font-size="10.00">ClientHost6</text>
</a>
</g>
</g>
<!-- Resending -->
<g id="node2" class="node">
<title>Resending</title>
<g id="a_node2"><a xlink:href="inet.protocolelement.acknowledgement.Resending.html" xlink:title="Simple Module Resending" target="_parent">
<polygon fill="#fffcaf" stroke="black" points="68,-19 0,-19 0,0 68,0 68,-19"/>
<text text-anchor="middle" x="34" y="-7" font-family="Helvetica,sans-Serif" font-size="10.00">Resending</text>
</a>
</g>
</g>
<!-- ClientHost6&#45;&gt;Resending -->
<g id="edge1" class="edge">
<title>ClientHost6&#45;&gt;Resending</title>
<path fill="none" stroke="black" d="M373.82,-59.32C313.77,-52.4 191.53,-37.61 78.12,-19.1"/>
<polygon fill="black" stroke="black" points="78.67,-15.64 68.23,-17.47 77.53,-22.55 78.67,-15.64"/>
</g>
<!-- ActivePacketSource -->
<g id="node3" class="node">
<title>ActivePacketSource</title>
<g id="a_node3"><a xlink:href="inet.queueing.source.ActivePacketSource.html" xlink:title="Simple Module ActivePacketSource" target="_parent">
<polygon fill="#fffcaf" stroke="black" points="199.5,-19 86.5,-19 86.5,0 199.5,0 199.5,-19"/>
<text text-anchor="middle" x="143" y="-7" font-family="Helvetica,sans-Serif" font-size="10.00">ActivePacketSource</text>
</a>
</g>
</g>
<!-- ClientHost6&#45;&gt;ActivePacketSource -->
<g id="edge2" class="edge">
<title>ClientHost6&#45;&gt;ActivePacketSource</title>
<path fill="none" stroke="black" d="M373.74,-56.13C327.62,-47.01 248.78,-31.42 196.28,-21.04"/>
<polygon fill="black" stroke="black" points="196.64,-17.54 186.15,-19.03 195.28,-24.41 196.64,-17.54"/>
</g>
<!-- IdealChannel -->
<g id="node4" class="node">
<title>IdealChannel</title>
<g id="a_node4"><a xlink:href="ned.IdealChannel.html" xlink:title="Channel IdealChannel" target="_parent">
<polygon fill="#d0ffd0" stroke="black" points="298,-19 218,-19 218,0 298,0 298,-19"/>
<text text-anchor="middle" x="258" y="-7" font-family="Helvetica,sans-Serif" font-size="10.00">IdealChannel</text>
</a>
</g>
</g>
<!-- ClientHost6&#45;&gt;IdealChannel -->
<g id="edge3" class="edge">
<title>ClientHost6&#45;&gt;IdealChannel</title>
<path fill="none" stroke="black" d="M386.42,-54.98C360.95,-46.16 320.96,-32.31 292.37,-22.41"/>
<polygon fill="black" stroke="black" points="293.37,-19.05 282.77,-19.08 291.08,-25.66 293.37,-19.05"/>
</g>
<!-- PacketQueue -->
<g id="node5" class="node">
<title>PacketQueue</title>
<g id="a_node5"><a xlink:href="inet.queueing.queue.PacketQueue.html" xlink:title="Simple Module PacketQueue" target="_parent">
<polygon fill="#fffcaf" stroke="black" points="396,-19 316,-19 316,0 396,0 396,-19"/>
<text text-anchor="middle" x="356" y="-7" font-family="Helvetica,sans-Serif" font-size="10.00">PacketQueue</text>
</a>
</g>
</g>
<!-- ClientHost6&#45;&gt;PacketQueue -->
<g id="edge4" class="edge">
<title>ClientHost6&#45;&gt;PacketQueue</title>
<path fill="none" stroke="black" d="M401.92,-54.75C393.91,-47.03 382.04,-35.6 372.38,-26.28"/>
<polygon fill="black" stroke="black" points="374.54,-23.51 364.91,-19.09 369.69,-28.55 374.54,-23.51"/>
</g>
<!-- FcsHeaderInserter -->
<g id="node6" class="node">
<title>FcsHeaderInserter</title>
<g id="a_node6"><a xlink:href="inet.protocolelement.checksum.FcsHeaderInserter.html" xlink:title="Simple Module FcsHeaderInserter" target="_parent">
<polygon fill="#fffcaf" stroke="black" points="520,-19 414,-19 414,0 520,0 520,-19"/>
<text text-anchor="middle" x="467" y="-7" font-family="Helvetica,sans-Serif" font-size="10.00">FcsHeaderInserter</text>
</a>
</g>
</g>
<!-- ClientHost6&#45;&gt;FcsHeaderInserter -->
<g id="edge5" class="edge">
<title>ClientHost6&#45;&gt;FcsHeaderInserter</title>
<path fill="none" stroke="black" d="M420,-54.98C428.19,-47.23 440.51,-35.58 450.47,-26.14"/>
<polygon fill="black" stroke="black" points="452.98,-28.59 457.84,-19.17 448.17,-23.5 452.98,-28.59"/>
</g>
<!-- InterpacketGapInserter -->
<g id="node7" class="node">
<title>InterpacketGapInserter</title>
<g id="a_node7"><a xlink:href="inet.protocolelement.common.InterpacketGapInserter.html" xlink:title="Simple Module InterpacketGapInserter" target="_parent">
<polygon fill="#fffcaf" stroke="black" points="666,-19 538,-19 538,0 666,0 666,-19"/>
<text text-anchor="middle" x="602" y="-7" font-family="Helvetica,sans-Serif" font-size="10.00">InterpacketGapInserter</text>
</a>
</g>
</g>
<!-- ClientHost6&#45;&gt;InterpacketGapInserter -->
<g id="edge6" class="edge">
<title>ClientHost6&#45;&gt;InterpacketGapInserter</title>
<path fill="none" stroke="black" d="M441.69,-54.98C474.17,-45.97 525.6,-31.7 561.41,-21.76"/>
<polygon fill="black" stroke="black" points="562.37,-25.13 571.07,-19.08 560.5,-18.38 562.37,-25.13"/>
</g>
<!-- PacketTransmitter -->
<g id="node8" class="node">
<title>PacketTransmitter</title>
<g id="a_node8"><a xlink:href="inet.protocolelement.transceiver.PacketTransmitter.html" xlink:title="Simple Module PacketTransmitter" target="_parent">
<polygon fill="#fffcaf" stroke="black" points="789.5,-19 684.5,-19 684.5,0 789.5,0 789.5,-19"/>
<text text-anchor="middle" x="737" y="-7" font-family="Helvetica,sans-Serif" font-size="10.00">PacketTransmitter</text>
</a>
</g>
</g>
<!-- ClientHost6&#45;&gt;PacketTransmitter -->
<g id="edge7" class="edge">
<title>ClientHost6&#45;&gt;PacketTransmitter</title>
<path fill="none" stroke="black" d="M448.08,-57.47C503.24,-48.5 607.59,-31.54 674.63,-20.64"/>
<polygon fill="black" stroke="black" points="675.34,-24.07 684.65,-19.01 674.22,-17.16 675.34,-24.07"/>
</g>
<!-- InstantServer -->
<g id="node9" class="node">
<title>InstantServer</title>
<g id="a_node9"><a xlink:href="inet.queueing.server.InstantServer.html" xlink:title="Simple Module InstantServer" target="_parent">
<polygon fill="#fffcaf" stroke="black" points="890,-19 808,-19 808,0 890,0 890,-19"/>
<text text-anchor="middle" x="849" y="-7" font-family="Helvetica,sans-Serif" font-size="10.00">InstantServer</text>
</a>
</g>
</g>
<!-- ClientHost6&#45;&gt;InstantServer -->
<g id="edge8" class="edge">
<title>ClientHost6&#45;&gt;InstantServer</title>
<path fill="none" stroke="black" d="M448.27,-59.9C515.82,-53.24 663.19,-38.03 797.75,-19.11"/>
<polygon fill="black" stroke="black" points="798.42,-22.55 807.83,-17.68 797.43,-15.62 798.42,-22.55"/>
</g>
<!-- Network6 -->
<g id="node10" class="node">
<title>Network6</title>
<g id="a_node10"><a xlink:href="inet.tutorials.protocol.Network6.html" xlink:title="Network Network6" target="_parent">
<polygon fill="#d0d0ff" stroke="black" points="443,-129 379,-129 379,-110 443,-110 443,-129"/>
<text text-anchor="middle" x="411" y="-117" font-family="Helvetica,sans-Serif" font-size="10.00">Network6</text>
</a>
</g>
</g>
<!-- Network6&#45;&gt;ClientHost6 -->
<g id="edge9" class="edge">
<title>Network6&#45;&gt;ClientHost6</title>
<path fill="none" stroke="black" d="M411,-109.75C411,-102.8 411,-92.85 411,-84.13"/>
<polygon fill="black" stroke="black" points="414.5,-84.09 411,-74.09 407.5,-84.09 414.5,-84.09"/>
</g>
</g>
</svg>
