<?xml version="1.0" encoding="UTF-8" standalone="no"?>
<!DOCTYPE svg PUBLIC "-//W3C//DTD SVG 1.1//EN"
 "http://www.w3.org/Graphics/SVG/1.1/DTD/svg11.dtd">
<!-- Generated by graphviz version 2.43.0 (0)
 -->
<!-- Title: opp Pages: 1 -->
<svg width="444pt" height="82pt"
 viewBox="0.00 0.00 444.00 82.00" xmlns="http://www.w3.org/2000/svg" xmlns:xlink="http://www.w3.org/1999/xlink">
<g id="graph0" class="graph" transform="scale(1 1) rotate(0) translate(4 78)">
<title>opp</title>
<polygon fill="transparent" stroke="transparent" points="-4,4 -4,-78 440,-78 440,4 -4,4"/>
<!-- TaggerTutorialStep -->
<g id="node1" class="node">
<title>TaggerTutorialStep</title>
<g id="a_node1"><a xlink:href="inet.tutorials.queueing.TaggerTutorialStep.html" xlink:title="Network TaggerTutorialStep" target="_parent">
<polygon fill="#9090ff" stroke="black" points="274,-74 167,-74 167,-55 274,-55 274,-74"/>
<text text-anchor="middle" x="220.5" y="-62" font-family="Helvetica,sans-Serif" font-size="10.00">TaggerTutorialStep</text>
</a>
</g>
</g>
<!-- ActivePacketSource -->
<g id="node2" class="node">
<title>ActivePacketSource</title>
<g id="a_node2"><a xlink:href="inet.queueing.source.ActivePacketSource.html" xlink:title="Simple Module ActivePacketSource" target="_parent">
<polygon fill="#fffcaf" stroke="black" points="113,-19 0,-19 0,0 113,0 113,-19"/>
<text text-anchor="middle" x="56.5" y="-7" font-family="Helvetica,sans-Serif" font-size="10.00">ActivePacketSource</text>
</a>
</g>
</g>
<!-- TaggerTutorialStep&#45;&gt;ActivePacketSource -->
<g id="edge1" class="edge">
<title>TaggerTutorialStep&#45;&gt;ActivePacketSource</title>
<path fill="none" stroke="black" d="M194.15,-54.98C166.74,-46.13 123.61,-32.19 92.94,-22.28"/>
<polygon fill="black" stroke="black" points="93.65,-18.83 83.06,-19.08 91.5,-25.49 93.65,-18.83"/>
</g>
<!-- IdealChannel -->
<g id="node3" class="node">
<title>IdealChannel</title>
<g id="a_node3"><a xlink:href="ned.IdealChannel.html" xlink:title="Channel IdealChannel" target="_parent">
<polygon fill="#d0ffd0" stroke="black" points="211.5,-19 131.5,-19 131.5,0 211.5,0 211.5,-19"/>
<text text-anchor="middle" x="171.5" y="-7" font-family="Helvetica,sans-Serif" font-size="10.00">IdealChannel</text>
</a>
</g>
</g>
<!-- TaggerTutorialStep&#45;&gt;IdealChannel -->
<g id="edge2" class="edge">
<title>TaggerTutorialStep&#45;&gt;IdealChannel</title>
<path fill="none" stroke="black" d="M212.41,-54.75C205.34,-47.11 194.91,-35.82 186.35,-26.56"/>
<polygon fill="black" stroke="black" points="188.8,-24.06 179.44,-19.09 183.66,-28.81 188.8,-24.06"/>
</g>
<!-- PacketTagger -->
<g id="node4" class="node">
<title>PacketTagger</title>
<g id="a_node4"><a xlink:href="inet.queueing.marker.PacketTagger.html" xlink:title="Simple Module PacketTagger" target="_parent">
<polygon fill="#fffcaf" stroke="black" points="311,-19 230,-19 230,0 311,0 311,-19"/>
<text text-anchor="middle" x="270.5" y="-7" font-family="Helvetica,sans-Serif" font-size="10.00">PacketTagger</text>
</a>
</g>
</g>
<!-- TaggerTutorialStep&#45;&gt;PacketTagger -->
<g id="edge3" class="edge">
<title>TaggerTutorialStep&#45;&gt;PacketTagger</title>
<path fill="none" stroke="black" d="M228.76,-54.75C235.96,-47.11 246.61,-35.82 255.35,-26.56"/>
<polygon fill="black" stroke="black" points="258.08,-28.76 262.4,-19.09 252.99,-23.96 258.08,-28.76"/>
</g>
<!-- PassivePacketSink -->
<g id="node5" class="node">
<title>PassivePacketSink</title>
<g id="a_node5"><a xlink:href="inet.queueing.sink.PassivePacketSink.html" xlink:title="Simple Module PassivePacketSink" target="_parent">
<polygon fill="#fffcaf" stroke="black" points="436,-19 329,-19 329,0 436,0 436,-19"/>
<text text-anchor="middle" x="382.5" y="-7" font-family="Helvetica,sans-Serif" font-size="10.00">PassivePacketSink</text>
</a>
</g>
</g>
<!-- TaggerTutorialStep&#45;&gt;PassivePacketSink -->
<g id="edge4" class="edge">
<title>TaggerTutorialStep&#45;&gt;PassivePacketSink</title>
<path fill="none" stroke="black" d="M246.53,-54.98C273.61,-46.13 316.21,-32.19 346.51,-22.28"/>
<polygon fill="black" stroke="black" points="347.85,-25.52 356.27,-19.08 345.68,-18.87 347.85,-25.52"/>
</g>
</g>
</svg>
