<?xml version="1.0" encoding="UTF-8" standalone="no"?>
<!DOCTYPE svg PUBLIC "-//W3C//DTD SVG 1.1//EN"
 "http://www.w3.org/Graphics/SVG/1.1/DTD/svg11.dtd">
<!-- Generated by graphviz version 2.43.0 (0)
 -->
<!-- Title: opp Pages: 1 -->
<svg width="399pt" height="82pt"
 viewBox="0.00 0.00 399.00 82.00" xmlns="http://www.w3.org/2000/svg" xmlns:xlink="http://www.w3.org/1999/xlink">
<g id="graph0" class="graph" transform="scale(1 1) rotate(0) translate(4 78)">
<title>opp</title>
<polygon fill="transparent" stroke="transparent" points="-4,4 -4,-78 395,-78 395,4 -4,4"/>
<!-- DcTcpIncast -->
<g id="node1" class="node">
<title>DcTcpIncast</title>
<g id="a_node1"><a xlink:href="inet.examples.inet.dctcp.DcTcpIncast.html" xlink:title="Network DcTcpIncast" target="_parent">
<polygon fill="#9090ff" stroke="black" points="222.5,-74 148.5,-74 148.5,-55 222.5,-55 222.5,-74"/>
<text text-anchor="middle" x="185.5" y="-62" font-family="Helvetica,sans-Serif" font-size="10.00">DcTcpIncast</text>
</a>
</g>
</g>
<!-- StandardHost -->
<g id="node2" class="node">
<title>StandardHost</title>
<g id="a_node2"><a xlink:href="inet.node.inet.StandardHost.html" xlink:title="Compound Module StandardHost" target="_parent">
<polygon fill="#fffcaf" stroke="black" points="83,-19 0,-19 0,0 83,0 83,-19"/>
<text text-anchor="middle" x="41.5" y="-7" font-family="Helvetica,sans-Serif" font-size="10.00">StandardHost</text>
</a>
</g>
</g>
<!-- DcTcpIncast&#45;&gt;StandardHost -->
<g id="edge1" class="edge">
<title>DcTcpIncast&#45;&gt;StandardHost</title>
<path fill="none" stroke="black" d="M162.36,-54.98C138.68,-46.27 101.63,-32.63 74.79,-22.75"/>
<polygon fill="black" stroke="black" points="75.65,-19.34 65.06,-19.17 73.23,-25.91 75.65,-19.34"/>
</g>
<!-- Router -->
<g id="node3" class="node">
<title>Router</title>
<g id="a_node3"><a xlink:href="inet.node.inet.Router.html" xlink:title="Compound Module Router" target="_parent">
<polygon fill="#fffcaf" stroke="black" points="155.5,-19 101.5,-19 101.5,0 155.5,0 155.5,-19"/>
<text text-anchor="middle" x="128.5" y="-7" font-family="Helvetica,sans-Serif" font-size="10.00">Router</text>
</a>
</g>
</g>
<!-- DcTcpIncast&#45;&gt;Router -->
<g id="edge2" class="edge">
<title>DcTcpIncast&#45;&gt;Router</title>
<path fill="none" stroke="black" d="M176.34,-54.98C168,-47.23 155.47,-35.58 145.32,-26.14"/>
<polygon fill="black" stroke="black" points="147.53,-23.42 137.82,-19.17 142.76,-28.54 147.53,-23.42"/>
</g>
<!-- Ipv4NetworkConfigurator -->
<g id="node4" class="node">
<title>Ipv4NetworkConfigurator</title>
<g id="a_node4"><a xlink:href="inet.networklayer.configurator.ipv4.Ipv4NetworkConfigurator.html" xlink:title="Simple Module Ipv4NetworkConfigurator" target="_parent">
<polygon fill="#fffcaf" stroke="black" points="313.5,-19 173.5,-19 173.5,0 313.5,0 313.5,-19"/>
<text text-anchor="middle" x="243.5" y="-7" font-family="Helvetica,sans-Serif" font-size="10.00">Ipv4NetworkConfigurator</text>
</a>
</g>
</g>
<!-- DcTcpIncast&#45;&gt;Ipv4NetworkConfigurator -->
<g id="edge3" class="edge">
<title>DcTcpIncast&#45;&gt;Ipv4NetworkConfigurator</title>
<path fill="none" stroke="black" d="M194.82,-54.98C203.31,-47.23 216.06,-35.58 226.38,-26.14"/>
<polygon fill="black" stroke="black" points="228.99,-28.5 234.01,-19.17 224.27,-23.33 228.99,-28.5"/>
</g>
<!-- NormalP -->
<g id="node5" class="node">
<title>NormalP</title>
<g id="a_node5"><a xlink:href="inet.examples.inet.dctcp.DcTcpIncast.NormalP.html" xlink:title="Channel NormalP" target="_parent">
<polygon fill="#d0ffd0" stroke="black" points="391,-19 332,-19 332,0 391,0 391,-19"/>
<text text-anchor="middle" x="361.5" y="-7" font-family="Helvetica,sans-Serif" font-size="10.00">NormalP</text>
</a>
</g>
</g>
<!-- DcTcpIncast&#45;&gt;NormalP -->
<g id="edge4" class="edge">
<title>DcTcpIncast&#45;&gt;NormalP</title>
<path fill="none" stroke="black" d="M213.78,-54.98C243.45,-46.05 290.29,-31.94 323.25,-22.02"/>
<polygon fill="black" stroke="black" points="324.43,-25.32 333,-19.08 322.42,-18.61 324.43,-25.32"/>
</g>
</g>
</svg>
