<?xml version="1.0" encoding="UTF-8" standalone="no"?>
<!DOCTYPE svg PUBLIC "-//W3C//DTD SVG 1.1//EN"
 "http://www.w3.org/Graphics/SVG/1.1/DTD/svg11.dtd">
<!-- Generated by graphviz version 2.43.0 (0)
 -->
<!-- Title: opp Pages: 1 -->
<svg width="1521pt" height="137pt"
 viewBox="0.00 0.00 1520.50 137.00" xmlns="http://www.w3.org/2000/svg" xmlns:xlink="http://www.w3.org/1999/xlink">
<g id="graph0" class="graph" transform="scale(1 1) rotate(0) translate(4 133)">
<title>opp</title>
<polygon fill="transparent" stroke="transparent" points="-4,4 -4,-133 1516.5,-133 1516.5,4 -4,4"/>
<!-- IPacketClassifier -->
<g id="node1" class="node">
<title>IPacketClassifier</title>
<g id="a_node1"><a xlink:href="inet.queueing.contract.IPacketClassifier.html" xlink:title="Module Interface IPacketClassifier" target="_parent">
<polygon fill="#fff700" stroke="black" stroke-dasharray="5,2" points="840.5,-74 742.5,-74 742.5,-55 840.5,-55 840.5,-74"/>
<text text-anchor="middle" x="791.5" y="-62" font-family="Helvetica,sans-Serif" font-size="10.00">IPacketClassifier</text>
</a>
</g>
</g>
<!-- ContentBasedClassifier -->
<g id="node3" class="node">
<title>ContentBasedClassifier</title>
<g id="a_node3"><a xlink:href="inet.queueing.classifier.ContentBasedClassifier.html" xlink:title="Simple Module ContentBasedClassifier" target="_parent">
<polygon fill="#fffcaf" stroke="black" points="131,-19 0,-19 0,0 131,0 131,-19"/>
<text text-anchor="middle" x="65.5" y="-7" font-family="Helvetica,sans-Serif" font-size="10.00">ContentBasedClassifier</text>
</a>
</g>
</g>
<!-- IPacketClassifier&#45;&gt;ContentBasedClassifier -->
<g id="edge2" class="edge">
<title>IPacketClassifier&#45;&gt;ContentBasedClassifier</title>
<path fill="none" stroke="black" stroke-dasharray="5,2" d="M742.44,-60.9C633.85,-54.97 365.01,-39.39 140.5,-19 137.5,-18.73 134.43,-18.44 131.33,-18.13"/>
</g>
<!-- EthernetFrameClassifier -->
<g id="node4" class="node">
<title>EthernetFrameClassifier</title>
<g id="a_node4"><a xlink:href="inet.linklayer.ethernet.common.EthernetFrameClassifier.html" xlink:title="Simple Module EthernetFrameClassifier" target="_parent">
<polygon fill="#fffcaf" stroke="black" points="283.5,-19 149.5,-19 149.5,0 283.5,0 283.5,-19"/>
<text text-anchor="middle" x="216.5" y="-7" font-family="Helvetica,sans-Serif" font-size="10.00">EthernetFrameClassifier</text>
</a>
</g>
</g>
<!-- IPacketClassifier&#45;&gt;EthernetFrameClassifier -->
<g id="edge3" class="edge">
<title>IPacketClassifier&#45;&gt;EthernetFrameClassifier</title>
<path fill="none" stroke="black" stroke-dasharray="5,2" d="M742.24,-59.48C652.67,-52.08 457.14,-35.55 292.5,-19 289.59,-18.71 286.63,-18.4 283.63,-18.09"/>
</g>
<!-- LabelClassifier -->
<g id="node5" class="node">
<title>LabelClassifier</title>
<g id="a_node5"><a xlink:href="inet.queueing.classifier.LabelClassifier.html" xlink:title="Simple Module LabelClassifier" target="_parent">
<polygon fill="#fffcaf" stroke="black" points="391,-19 302,-19 302,0 391,0 391,-19"/>
<text text-anchor="middle" x="346.5" y="-7" font-family="Helvetica,sans-Serif" font-size="10.00">LabelClassifier</text>
</a>
</g>
</g>
<!-- IPacketClassifier&#45;&gt;LabelClassifier -->
<g id="edge4" class="edge">
<title>IPacketClassifier&#45;&gt;LabelClassifier</title>
<path fill="none" stroke="black" stroke-dasharray="5,2" d="M742.21,-58.64C667.83,-51.14 522.5,-35.84 399.5,-19 396.73,-18.62 393.88,-18.21 391.01,-17.79"/>
</g>
<!-- MarkovClassifier -->
<g id="node6" class="node">
<title>MarkovClassifier</title>
<g id="a_node6"><a xlink:href="inet.queueing.classifier.MarkovClassifier.html" xlink:title="Simple Module MarkovClassifier" target="_parent">
<polygon fill="#fffcaf" stroke="black" points="506.5,-19 408.5,-19 408.5,0 506.5,0 506.5,-19"/>
<text text-anchor="middle" x="457.5" y="-7" font-family="Helvetica,sans-Serif" font-size="10.00">MarkovClassifier</text>
</a>
</g>
</g>
<!-- IPacketClassifier&#45;&gt;MarkovClassifier -->
<g id="edge5" class="edge">
<title>IPacketClassifier&#45;&gt;MarkovClassifier</title>
<path fill="none" stroke="black" stroke-dasharray="5,2" d="M742.22,-55.68C678.98,-45.64 569.92,-28.34 506.71,-18.31"/>
</g>
<!-- MultiTokenBucketClassifier -->
<g id="node7" class="node">
<title>MultiTokenBucketClassifier</title>
<g id="a_node7"><a xlink:href="inet.queueing.classifier.MultiTokenBucketClassifier.html" xlink:title="Simple Module MultiTokenBucketClassifier" target="_parent">
<polygon fill="#fffcaf" stroke="black" points="672.5,-19 524.5,-19 524.5,0 672.5,0 672.5,-19"/>
<text text-anchor="middle" x="598.5" y="-7" font-family="Helvetica,sans-Serif" font-size="10.00">MultiTokenBucketClassifier</text>
</a>
</g>
</g>
<!-- IPacketClassifier&#45;&gt;MultiTokenBucketClassifier -->
<g id="edge6" class="edge">
<title>IPacketClassifier&#45;&gt;MultiTokenBucketClassifier</title>
<path fill="none" stroke="black" stroke-dasharray="5,2" d="M760.49,-54.98C724.58,-45.12 665.76,-28.97 629.75,-19.08"/>
</g>
<!-- PacketClassifier -->
<g id="node8" class="node">
<title>PacketClassifier</title>
<g id="a_node8"><a xlink:href="inet.queueing.classifier.PacketClassifier.html" xlink:title="Simple Module PacketClassifier" target="_parent">
<polygon fill="#fffcaf" stroke="black" points="786,-19 691,-19 691,0 786,0 786,-19"/>
<text text-anchor="middle" x="738.5" y="-7" font-family="Helvetica,sans-Serif" font-size="10.00">PacketClassifier</text>
</a>
</g>
</g>
<!-- IPacketClassifier&#45;&gt;PacketClassifier -->
<g id="edge7" class="edge">
<title>IPacketClassifier&#45;&gt;PacketClassifier</title>
<path fill="none" stroke="black" stroke-dasharray="5,2" d="M782.75,-54.75C772.87,-44.87 756.9,-28.9 747.09,-19.09"/>
</g>
<!-- PcpClassifier -->
<g id="node9" class="node">
<title>PcpClassifier</title>
<g id="a_node9"><a xlink:href="inet.linklayer.ieee8021q.PcpClassifier.html" xlink:title="Simple Module PcpClassifier" target="_parent">
<polygon fill="#fffcaf" stroke="black" points="884.5,-19 804.5,-19 804.5,0 884.5,0 884.5,-19"/>
<text text-anchor="middle" x="844.5" y="-7" font-family="Helvetica,sans-Serif" font-size="10.00">PcpClassifier</text>
</a>
</g>
</g>
<!-- IPacketClassifier&#45;&gt;PcpClassifier -->
<g id="edge8" class="edge">
<title>IPacketClassifier&#45;&gt;PcpClassifier</title>
<path fill="none" stroke="black" stroke-dasharray="5,2" d="M800.25,-54.75C810.13,-44.87 826.1,-28.9 835.91,-19.09"/>
</g>
<!-- PcpTrafficClassClassifier -->
<g id="node10" class="node">
<title>PcpTrafficClassClassifier</title>
<g id="a_node10"><a xlink:href="inet.linklayer.ieee8021q.PcpTrafficClassClassifier.html" xlink:title="Compound Module PcpTrafficClassClassifier" target="_parent">
<polygon fill="#fffcaf" stroke="black" points="1040,-19 903,-19 903,0 1040,0 1040,-19"/>
<text text-anchor="middle" x="971.5" y="-7" font-family="Helvetica,sans-Serif" font-size="10.00">PcpTrafficClassClassifier</text>
</a>
</g>
</g>
<!-- IPacketClassifier&#45;&gt;PcpTrafficClassClassifier -->
<g id="edge9" class="edge">
<title>IPacketClassifier&#45;&gt;PcpTrafficClassClassifier</title>
<path fill="none" stroke="black" stroke-dasharray="5,2" d="M820.42,-54.98C853.91,-45.12 908.77,-28.97 942.35,-19.08"/>
</g>
<!-- PriorityClassifier -->
<g id="node11" class="node">
<title>PriorityClassifier</title>
<g id="a_node11"><a xlink:href="inet.queueing.classifier.PriorityClassifier.html" xlink:title="Simple Module PriorityClassifier" target="_parent">
<polygon fill="#fffcaf" stroke="black" points="1156.5,-19 1058.5,-19 1058.5,0 1156.5,0 1156.5,-19"/>
<text text-anchor="middle" x="1107.5" y="-7" font-family="Helvetica,sans-Serif" font-size="10.00">PriorityClassifier</text>
</a>
</g>
</g>
<!-- IPacketClassifier&#45;&gt;PriorityClassifier -->
<g id="edge10" class="edge">
<title>IPacketClassifier&#45;&gt;PriorityClassifier</title>
<path fill="none" stroke="black" stroke-dasharray="5,2" d="M840.53,-55.28C899.82,-45.33 999.02,-28.69 1058.36,-18.74"/>
</g>
<!-- StreamClassifier -->
<g id="node12" class="node">
<title>StreamClassifier</title>
<g id="a_node12"><a xlink:href="inet.protocolelement.redundancy.StreamClassifier.html" xlink:title="Simple Module StreamClassifier" target="_parent">
<polygon fill="#fffcaf" stroke="black" points="1272.5,-19 1174.5,-19 1174.5,0 1272.5,0 1272.5,-19"/>
<text text-anchor="middle" x="1223.5" y="-7" font-family="Helvetica,sans-Serif" font-size="10.00">StreamClassifier</text>
</a>
</g>
</g>
<!-- IPacketClassifier&#45;&gt;StreamClassifier -->
<g id="edge11" class="edge">
<title>IPacketClassifier&#45;&gt;StreamClassifier</title>
<path fill="none" stroke="black" stroke-dasharray="5,2" d="M840.56,-58.09C912.09,-50.11 1049.15,-34.44 1165.5,-19 1168.43,-18.61 1171.43,-18.2 1174.47,-17.78"/>
</g>
<!-- TokenBucketClassifier -->
<g id="node13" class="node">
<title>TokenBucketClassifier</title>
<g id="a_node13"><a xlink:href="inet.queueing.classifier.TokenBucketClassifier.html" xlink:title="Simple Module TokenBucketClassifier" target="_parent">
<polygon fill="#fffcaf" stroke="black" points="1414,-19 1291,-19 1291,0 1414,0 1414,-19"/>
<text text-anchor="middle" x="1352.5" y="-7" font-family="Helvetica,sans-Serif" font-size="10.00">TokenBucketClassifier</text>
</a>
</g>
</g>
<!-- IPacketClassifier&#45;&gt;TokenBucketClassifier -->
<g id="edge12" class="edge">
<title>IPacketClassifier&#45;&gt;TokenBucketClassifier</title>
<path fill="none" stroke="black" stroke-dasharray="5,2" d="M840.58,-59.51C928.87,-52.23 1120.31,-35.96 1281.5,-19 1284.59,-18.68 1287.75,-18.33 1290.94,-17.98"/>
</g>
<!-- WrrClassifier -->
<g id="node14" class="node">
<title>WrrClassifier</title>
<g id="a_node14"><a xlink:href="inet.queueing.classifier.WrrClassifier.html" xlink:title="Simple Module WrrClassifier" target="_parent">
<polygon fill="#fffcaf" stroke="black" points="1512.5,-19 1432.5,-19 1432.5,0 1512.5,0 1512.5,-19"/>
<text text-anchor="middle" x="1472.5" y="-7" font-family="Helvetica,sans-Serif" font-size="10.00">WrrClassifier</text>
</a>
</g>
</g>
<!-- IPacketClassifier&#45;&gt;WrrClassifier -->
<g id="edge13" class="edge">
<title>IPacketClassifier&#45;&gt;WrrClassifier</title>
<path fill="none" stroke="black" stroke-dasharray="5,2" d="M840.83,-61.73C947.47,-57.53 1207.31,-45.29 1423.5,-19 1426.41,-18.65 1429.42,-18.24 1432.44,-17.79"/>
</g>
<!-- IPassivePacketSink -->
<g id="node2" class="node">
<title>IPassivePacketSink</title>
<g id="a_node2"><a xlink:href="inet.queueing.contract.IPassivePacketSink.html" xlink:title="Module Interface IPassivePacketSink" target="_parent">
<polygon fill="#fffcaf" stroke="black" stroke-dasharray="5,2" points="846.5,-129 736.5,-129 736.5,-110 846.5,-110 846.5,-129"/>
<text text-anchor="middle" x="791.5" y="-117" font-family="Helvetica,sans-Serif" font-size="10.00">IPassivePacketSink</text>
</a>
</g>
</g>
<!-- IPassivePacketSink&#45;&gt;IPacketClassifier -->
<g id="edge1" class="edge">
<title>IPassivePacketSink&#45;&gt;IPacketClassifier</title>
<path fill="none" stroke="black" d="M791.5,-109.75C791.5,-99.87 791.5,-83.9 791.5,-74.09"/>
</g>
</g>
</svg>
