<?xml version="1.0" encoding="UTF-8" standalone="no"?>
<!DOCTYPE svg PUBLIC "-//W3C//DTD SVG 1.1//EN"
 "http://www.w3.org/Graphics/SVG/1.1/DTD/svg11.dtd">
<!-- Generated by graphviz version 2.43.0 (0)
 -->
<!-- Title: opp Pages: 1 -->
<svg width="628pt" height="82pt"
 viewBox="0.00 0.00 628.00 82.00" xmlns="http://www.w3.org/2000/svg" xmlns:xlink="http://www.w3.org/1999/xlink">
<g id="graph0" class="graph" transform="scale(1 1) rotate(0) translate(4 78)">
<title>opp</title>
<polygon fill="transparent" stroke="transparent" points="-4,4 -4,-78 624,-78 624,4 -4,4"/>
<!-- MeterTutorialStep -->
<g id="node1" class="node">
<title>MeterTutorialStep</title>
<g id="a_node1"><a xlink:href="inet.tutorials.queueing.MeterTutorialStep.html" xlink:title="Network MeterTutorialStep" target="_parent">
<polygon fill="#9090ff" stroke="black" points="342,-74 239,-74 239,-55 342,-55 342,-74"/>
<text text-anchor="middle" x="290.5" y="-62" font-family="Helvetica,sans-Serif" font-size="10.00">MeterTutorialStep</text>
</a>
</g>
</g>
<!-- ActivePacketSource -->
<g id="node2" class="node">
<title>ActivePacketSource</title>
<g id="a_node2"><a xlink:href="inet.queueing.source.ActivePacketSource.html" xlink:title="Simple Module ActivePacketSource" target="_parent">
<polygon fill="#fffcaf" stroke="black" points="113,-19 0,-19 0,0 113,0 113,-19"/>
<text text-anchor="middle" x="56.5" y="-7" font-family="Helvetica,sans-Serif" font-size="10.00">ActivePacketSource</text>
</a>
</g>
</g>
<!-- MeterTutorialStep&#45;&gt;ActivePacketSource -->
<g id="edge1" class="edge">
<title>MeterTutorialStep&#45;&gt;ActivePacketSource</title>
<path fill="none" stroke="black" d="M252.9,-54.98C212.51,-45.84 148.22,-31.27 104.27,-21.32"/>
<polygon fill="black" stroke="black" points="104.92,-17.88 94.39,-19.08 103.37,-24.7 104.92,-17.88"/>
</g>
<!-- IdealChannel -->
<g id="node3" class="node">
<title>IdealChannel</title>
<g id="a_node3"><a xlink:href="ned.IdealChannel.html" xlink:title="Channel IdealChannel" target="_parent">
<polygon fill="#d0ffd0" stroke="black" points="211.5,-19 131.5,-19 131.5,0 211.5,0 211.5,-19"/>
<text text-anchor="middle" x="171.5" y="-7" font-family="Helvetica,sans-Serif" font-size="10.00">IdealChannel</text>
</a>
</g>
</g>
<!-- MeterTutorialStep&#45;&gt;IdealChannel -->
<g id="edge2" class="edge">
<title>MeterTutorialStep&#45;&gt;IdealChannel</title>
<path fill="none" stroke="black" d="M271.38,-54.98C252.15,-46.42 222.27,-33.11 200.19,-23.28"/>
<polygon fill="black" stroke="black" points="201.53,-20.04 190.97,-19.17 198.68,-26.44 201.53,-20.04"/>
</g>
<!-- StatisticalRateLimiter -->
<g id="node4" class="node">
<title>StatisticalRateLimiter</title>
<g id="a_node4"><a xlink:href="inet.queueing.filter.StatisticalRateLimiter.html" xlink:title="Simple Module StatisticalRateLimiter" target="_parent">
<polygon fill="#fffcaf" stroke="black" points="351.5,-19 229.5,-19 229.5,0 351.5,0 351.5,-19"/>
<text text-anchor="middle" x="290.5" y="-7" font-family="Helvetica,sans-Serif" font-size="10.00">StatisticalRateLimiter</text>
</a>
</g>
</g>
<!-- MeterTutorialStep&#45;&gt;StatisticalRateLimiter -->
<g id="edge3" class="edge">
<title>MeterTutorialStep&#45;&gt;StatisticalRateLimiter</title>
<path fill="none" stroke="black" d="M290.5,-54.75C290.5,-47.8 290.5,-37.85 290.5,-29.13"/>
<polygon fill="black" stroke="black" points="294,-29.09 290.5,-19.09 287,-29.09 294,-29.09"/>
</g>
<!-- PassivePacketSink -->
<g id="node5" class="node">
<title>PassivePacketSink</title>
<g id="a_node5"><a xlink:href="inet.queueing.sink.PassivePacketSink.html" xlink:title="Simple Module PassivePacketSink" target="_parent">
<polygon fill="#fffcaf" stroke="black" points="477,-19 370,-19 370,0 477,0 477,-19"/>
<text text-anchor="middle" x="423.5" y="-7" font-family="Helvetica,sans-Serif" font-size="10.00">PassivePacketSink</text>
</a>
</g>
</g>
<!-- MeterTutorialStep&#45;&gt;PassivePacketSink -->
<g id="edge4" class="edge">
<title>MeterTutorialStep&#45;&gt;PassivePacketSink</title>
<path fill="none" stroke="black" d="M311.87,-54.98C333.65,-46.3 367.66,-32.75 392.42,-22.88"/>
<polygon fill="black" stroke="black" points="393.75,-26.12 401.74,-19.17 391.16,-19.62 393.75,-26.12"/>
</g>
<!-- ExponentialRateMeter -->
<g id="node6" class="node">
<title>ExponentialRateMeter</title>
<g id="a_node6"><a xlink:href="inet.queueing.meter.ExponentialRateMeter.html" xlink:title="Simple Module ExponentialRateMeter" target="_parent">
<polygon fill="#fffcaf" stroke="black" points="620,-19 495,-19 495,0 620,0 620,-19"/>
<text text-anchor="middle" x="557.5" y="-7" font-family="Helvetica,sans-Serif" font-size="10.00">ExponentialRateMeter</text>
</a>
</g>
</g>
<!-- MeterTutorialStep&#45;&gt;ExponentialRateMeter -->
<g id="edge5" class="edge">
<title>MeterTutorialStep&#45;&gt;ExponentialRateMeter</title>
<path fill="none" stroke="black" d="M333.4,-54.98C379.87,-45.76 454.09,-31.03 504.26,-21.07"/>
<polygon fill="black" stroke="black" points="505.14,-24.46 514.27,-19.08 503.78,-17.6 505.14,-24.46"/>
</g>
</g>
</svg>
