<?xml version="1.0" encoding="UTF-8" standalone="no"?>
<!DOCTYPE svg PUBLIC "-//W3C//DTD SVG 1.1//EN"
 "http://www.w3.org/Graphics/SVG/1.1/DTD/svg11.dtd">
<!-- Generated by graphviz version 2.43.0 (0)
 -->
<!-- Title: opp Pages: 1 -->
<svg width="588pt" height="82pt"
 viewBox="0.00 0.00 588.00 82.00" xmlns="http://www.w3.org/2000/svg" xmlns:xlink="http://www.w3.org/1999/xlink">
<g id="graph0" class="graph" transform="scale(1 1) rotate(0) translate(4 78)">
<title>opp</title>
<polygon fill="transparent" stroke="transparent" points="-4,4 -4,-78 584,-78 584,4 -4,4"/>
<!-- TelnetClientApp -->
<g id="node1" class="node">
<title>TelnetClientApp</title>
<g id="a_node1"><a xlink:href="inet.applications.tcpapp.TelnetClientApp.html" xlink:title="Compound Module TelnetClientApp" target="_parent">
<polygon fill="#fff700" stroke="black" points="332.5,-74 239.5,-74 239.5,-55 332.5,-55 332.5,-74"/>
<text text-anchor="middle" x="286" y="-62" font-family="Helvetica,sans-Serif" font-size="10.00">TelnetClientApp</text>
</a>
</g>
</g>
<!-- IPassivePacketSink -->
<g id="node2" class="node">
<title>IPassivePacketSink</title>
<g id="a_node2"><a xlink:href="inet.queueing.contract.IPassivePacketSink.html" xlink:title="Module Interface IPassivePacketSink" target="_parent">
<polygon fill="#fffcaf" stroke="black" stroke-dasharray="5,2" points="110,-19 0,-19 0,0 110,0 110,-19"/>
<text text-anchor="middle" x="55" y="-7" font-family="Helvetica,sans-Serif" font-size="10.00">IPassivePacketSink</text>
</a>
</g>
</g>
<!-- TelnetClientApp&#45;&gt;IPassivePacketSink -->
<g id="edge1" class="edge">
<title>TelnetClientApp&#45;&gt;IPassivePacketSink</title>
<path fill="none" stroke="black" d="M248.89,-54.98C209.01,-45.84 145.54,-31.27 102.16,-21.32"/>
<polygon fill="black" stroke="black" points="102.93,-17.91 92.41,-19.08 101.37,-24.73 102.93,-17.91"/>
</g>
<!-- IPacketScheduler -->
<g id="node3" class="node">
<title>IPacketScheduler</title>
<g id="a_node3"><a xlink:href="inet.queueing.contract.IPacketScheduler.html" xlink:title="Module Interface IPacketScheduler" target="_parent">
<polygon fill="#fffcaf" stroke="black" stroke-dasharray="5,2" points="228,-19 128,-19 128,0 228,0 228,-19"/>
<text text-anchor="middle" x="178" y="-7" font-family="Helvetica,sans-Serif" font-size="10.00">IPacketScheduler</text>
</a>
</g>
</g>
<!-- TelnetClientApp&#45;&gt;IPacketScheduler -->
<g id="edge2" class="edge">
<title>TelnetClientApp&#45;&gt;IPacketScheduler</title>
<path fill="none" stroke="black" d="M268.65,-54.98C251.43,-46.54 224.8,-33.47 204.85,-23.68"/>
<polygon fill="black" stroke="black" points="206.19,-20.43 195.67,-19.17 203.1,-26.72 206.19,-20.43"/>
</g>
<!-- IdealChannel -->
<g id="node4" class="node">
<title>IdealChannel</title>
<g id="a_node4"><a xlink:href="ned.IdealChannel.html" xlink:title="Channel IdealChannel" target="_parent">
<polygon fill="#d0ffd0" stroke="black" points="326,-19 246,-19 246,0 326,0 326,-19"/>
<text text-anchor="middle" x="286" y="-7" font-family="Helvetica,sans-Serif" font-size="10.00">IdealChannel</text>
</a>
</g>
</g>
<!-- TelnetClientApp&#45;&gt;IdealChannel -->
<g id="edge3" class="edge">
<title>TelnetClientApp&#45;&gt;IdealChannel</title>
<path fill="none" stroke="black" d="M286,-54.75C286,-47.8 286,-37.85 286,-29.13"/>
<polygon fill="black" stroke="black" points="289.5,-29.09 286,-19.09 282.5,-29.09 289.5,-29.09"/>
</g>
<!-- IActivePacketSource -->
<g id="node5" class="node">
<title>IActivePacketSource</title>
<g id="a_node5"><a xlink:href="inet.queueing.contract.IActivePacketSource.html" xlink:title="Module Interface IActivePacketSource" target="_parent">
<polygon fill="#fffcaf" stroke="black" stroke-dasharray="5,2" points="460,-19 344,-19 344,0 460,0 460,-19"/>
<text text-anchor="middle" x="402" y="-7" font-family="Helvetica,sans-Serif" font-size="10.00">IActivePacketSource</text>
</a>
</g>
</g>
<!-- TelnetClientApp&#45;&gt;IActivePacketSource -->
<g id="edge4" class="edge">
<title>TelnetClientApp&#45;&gt;IActivePacketSource</title>
<path fill="none" stroke="black" d="M304.64,-54.98C323.3,-46.46 352.25,-33.23 373.74,-23.41"/>
<polygon fill="black" stroke="black" points="375.38,-26.51 383.02,-19.17 372.47,-20.14 375.38,-26.51"/>
</g>
<!-- TcpClientSocketIo -->
<g id="node6" class="node">
<title>TcpClientSocketIo</title>
<g id="a_node6"><a xlink:href="inet.applications.tcpapp.TcpClientSocketIo.html" xlink:title="Simple Module TcpClientSocketIo" target="_parent">
<polygon fill="#fffcaf" stroke="black" points="580,-19 478,-19 478,0 580,0 580,-19"/>
<text text-anchor="middle" x="529" y="-7" font-family="Helvetica,sans-Serif" font-size="10.00">TcpClientSocketIo</text>
</a>
</g>
</g>
<!-- TelnetClientApp&#45;&gt;TcpClientSocketIo -->
<g id="edge5" class="edge">
<title>TelnetClientApp&#45;&gt;TcpClientSocketIo</title>
<path fill="none" stroke="black" d="M325.04,-54.98C367.08,-45.82 434.04,-31.21 479.68,-21.26"/>
<polygon fill="black" stroke="black" points="480.63,-24.63 489.65,-19.08 479.14,-17.79 480.63,-24.63"/>
</g>
</g>
</svg>
