<?xml version="1.0" encoding="UTF-8" standalone="no"?>
<!DOCTYPE svg PUBLIC "-//W3C//DTD SVG 1.1//EN"
 "http://www.w3.org/Graphics/SVG/1.1/DTD/svg11.dtd">
<!-- Generated by graphviz version 2.43.0 (0)
 -->
<!-- Title: opp Pages: 1 -->
<svg width="324pt" height="82pt"
 viewBox="0.00 0.00 323.50 82.00" xmlns="http://www.w3.org/2000/svg" xmlns:xlink="http://www.w3.org/1999/xlink">
<g id="graph0" class="graph" transform="scale(1 1) rotate(0) translate(4 78)">
<title>opp</title>
<polygon fill="transparent" stroke="transparent" points="-4,4 -4,-78 319.5,-78 319.5,4 -4,4"/>
<!-- v3_4_routers_2_areas -->
<g id="node1" class="node">
<title>v3_4_routers_2_areas</title>
<g id="a_node1"><a xlink:href="inet.examples.ospfv3.v3_4_routers_2_areas.v3_4_routers_2_areas.html" xlink:title="Network v3_4_routers_2_areas" target="_parent">
<polygon fill="#9090ff" stroke="black" points="191,-74 68,-74 68,-55 191,-55 191,-74"/>
<text text-anchor="middle" x="129.5" y="-62" font-family="Helvetica,sans-Serif" font-size="10.00">v3_4_routers_2_areas</text>
</a>
</g>
</g>
<!-- Ospfv3Router -->
<g id="node2" class="node">
<title>Ospfv3Router</title>
<g id="a_node2"><a xlink:href="inet.node.ospfv3.Ospfv3Router.html" xlink:title="Compound Module Ospfv3Router" target="_parent">
<polygon fill="#fffcaf" stroke="black" points="83,-19 0,-19 0,0 83,0 83,-19"/>
<text text-anchor="middle" x="41.5" y="-7" font-family="Helvetica,sans-Serif" font-size="10.00">Ospfv3Router</text>
</a>
</g>
</g>
<!-- v3_4_routers_2_areas&#45;&gt;Ospfv3Router -->
<g id="edge1" class="edge">
<title>v3_4_routers_2_areas&#45;&gt;Ospfv3Router</title>
<path fill="none" stroke="black" d="M115.36,-54.98C101.71,-46.77 80.81,-34.18 64.72,-24.49"/>
<polygon fill="black" stroke="black" points="66.27,-21.33 55.9,-19.17 62.66,-27.33 66.27,-21.33"/>
</g>
<!-- Channel -->
<g id="node3" class="node">
<title>Channel</title>
<g id="a_node3"><a xlink:href="inet.examples.ospfv3.v3_4_routers_2_areas.v3_4_routers_2_areas.Channel.html" xlink:title="Channel Channel" target="_parent">
<polygon fill="#d0ffd0" stroke="black" points="157.5,-19 101.5,-19 101.5,0 157.5,0 157.5,-19"/>
<text text-anchor="middle" x="129.5" y="-7" font-family="Helvetica,sans-Serif" font-size="10.00">Channel</text>
</a>
</g>
</g>
<!-- v3_4_routers_2_areas&#45;&gt;Channel -->
<g id="edge2" class="edge">
<title>v3_4_routers_2_areas&#45;&gt;Channel</title>
<path fill="none" stroke="black" d="M129.5,-54.75C129.5,-47.8 129.5,-37.85 129.5,-29.13"/>
<polygon fill="black" stroke="black" points="133,-29.09 129.5,-19.09 126,-29.09 133,-29.09"/>
</g>
<!-- Ipv4NetworkConfigurator -->
<g id="node4" class="node">
<title>Ipv4NetworkConfigurator</title>
<g id="a_node4"><a xlink:href="inet.networklayer.configurator.ipv4.Ipv4NetworkConfigurator.html" xlink:title="Simple Module Ipv4NetworkConfigurator" target="_parent">
<polygon fill="#fffcaf" stroke="black" points="315.5,-19 175.5,-19 175.5,0 315.5,0 315.5,-19"/>
<text text-anchor="middle" x="245.5" y="-7" font-family="Helvetica,sans-Serif" font-size="10.00">Ipv4NetworkConfigurator</text>
</a>
</g>
</g>
<!-- v3_4_routers_2_areas&#45;&gt;Ipv4NetworkConfigurator -->
<g id="edge3" class="edge">
<title>v3_4_routers_2_areas&#45;&gt;Ipv4NetworkConfigurator</title>
<path fill="none" stroke="black" d="M148.14,-54.98C166.8,-46.46 195.75,-33.23 217.24,-23.41"/>
<polygon fill="black" stroke="black" points="218.88,-26.51 226.52,-19.17 215.97,-20.14 218.88,-26.51"/>
</g>
</g>
</svg>
