<?xml version="1.0" encoding="UTF-8" standalone="no"?>
<!DOCTYPE svg PUBLIC "-//W3C//DTD SVG 1.1//EN"
 "http://www.w3.org/Graphics/SVG/1.1/DTD/svg11.dtd">
<!-- Generated by graphviz version 2.43.0 (0)
 -->
<!-- Title: opp Pages: 1 -->
<svg width="679pt" height="82pt"
 viewBox="0.00 0.00 679.00 82.00" xmlns="http://www.w3.org/2000/svg" xmlns:xlink="http://www.w3.org/1999/xlink">
<g id="graph0" class="graph" transform="scale(1 1) rotate(0) translate(4 78)">
<title>opp</title>
<polygon fill="transparent" stroke="transparent" points="-4,4 -4,-78 675,-78 675,4 -4,4"/>
<!-- AnalogModelShowcaseNoiseNetwork -->
<g id="node1" class="node">
<title>AnalogModelShowcaseNoiseNetwork</title>
<g id="a_node1"><a xlink:href="inet.showcases.wireless.analogmodel.AnalogModelShowcaseNoiseNetwork.html" xlink:title="Network AnalogModelShowcaseNoiseNetwork" target="_parent">
<polygon fill="#9090ff" stroke="black" points="511.5,-74 313.5,-74 313.5,-55 511.5,-55 511.5,-74"/>
<text text-anchor="middle" x="412.5" y="-62" font-family="Helvetica,sans-Serif" font-size="10.00">AnalogModelShowcaseNoiseNetwork</text>
</a>
</g>
</g>
<!-- Ieee80211DimensionalRadioMedium -->
<g id="node2" class="node">
<title>Ieee80211DimensionalRadioMedium</title>
<g id="a_node2"><a xlink:href="inet.physicallayer.wireless.ieee80211.packetlevel.Ieee80211DimensionalRadioMedium.html" xlink:title="Compound Module Ieee80211DimensionalRadioMedium" target="_parent">
<polygon fill="#fffcaf" stroke="black" points="197,-19 0,-19 0,0 197,0 197,-19"/>
<text text-anchor="middle" x="98.5" y="-7" font-family="Helvetica,sans-Serif" font-size="10.00">Ieee80211DimensionalRadioMedium</text>
</a>
</g>
</g>
<!-- AnalogModelShowcaseNoiseNetwork&#45;&gt;Ieee80211DimensionalRadioMedium -->
<g id="edge1" class="edge">
<title>AnalogModelShowcaseNoiseNetwork&#45;&gt;Ieee80211DimensionalRadioMedium</title>
<path fill="none" stroke="black" d="M362.05,-54.98C306.74,-45.65 218.03,-30.67 159.02,-20.71"/>
<polygon fill="black" stroke="black" points="159.53,-17.25 149.08,-19.04 158.36,-24.15 159.53,-17.25"/>
</g>
<!-- Ipv4NetworkConfigurator -->
<g id="node3" class="node">
<title>Ipv4NetworkConfigurator</title>
<g id="a_node3"><a xlink:href="inet.networklayer.configurator.ipv4.Ipv4NetworkConfigurator.html" xlink:title="Simple Module Ipv4NetworkConfigurator" target="_parent">
<polygon fill="#fffcaf" stroke="black" points="355.5,-19 215.5,-19 215.5,0 355.5,0 355.5,-19"/>
<text text-anchor="middle" x="285.5" y="-7" font-family="Helvetica,sans-Serif" font-size="10.00">Ipv4NetworkConfigurator</text>
</a>
</g>
</g>
<!-- AnalogModelShowcaseNoiseNetwork&#45;&gt;Ipv4NetworkConfigurator -->
<g id="edge2" class="edge">
<title>AnalogModelShowcaseNoiseNetwork&#45;&gt;Ipv4NetworkConfigurator</title>
<path fill="none" stroke="black" d="M392.1,-54.98C371.48,-46.38 339.39,-32.99 315.81,-23.15"/>
<polygon fill="black" stroke="black" points="316.85,-19.79 306.28,-19.17 314.16,-26.25 316.85,-19.79"/>
</g>
<!-- NoiseSource -->
<g id="node4" class="node">
<title>NoiseSource</title>
<g id="a_node4"><a xlink:href="inet.physicallayer.wireless.noise.NoiseSource.html" xlink:title="Compound Module NoiseSource" target="_parent">
<polygon fill="#fffcaf" stroke="black" points="451,-19 374,-19 374,0 451,0 451,-19"/>
<text text-anchor="middle" x="412.5" y="-7" font-family="Helvetica,sans-Serif" font-size="10.00">NoiseSource</text>
</a>
</g>
</g>
<!-- AnalogModelShowcaseNoiseNetwork&#45;&gt;NoiseSource -->
<g id="edge3" class="edge">
<title>AnalogModelShowcaseNoiseNetwork&#45;&gt;NoiseSource</title>
<path fill="none" stroke="black" d="M412.5,-54.75C412.5,-47.8 412.5,-37.85 412.5,-29.13"/>
<polygon fill="black" stroke="black" points="416,-29.09 412.5,-19.09 409,-29.09 416,-29.09"/>
</g>
<!-- IntegratedVisualizer -->
<g id="node5" class="node">
<title>IntegratedVisualizer</title>
<g id="a_node5"><a xlink:href="inet.visualizer.common.IntegratedVisualizer.html" xlink:title="Compound Module IntegratedVisualizer" target="_parent">
<polygon fill="#fffcaf" stroke="black" points="584,-19 469,-19 469,0 584,0 584,-19"/>
<text text-anchor="middle" x="526.5" y="-7" font-family="Helvetica,sans-Serif" font-size="10.00">IntegratedVisualizer</text>
</a>
</g>
</g>
<!-- AnalogModelShowcaseNoiseNetwork&#45;&gt;IntegratedVisualizer -->
<g id="edge4" class="edge">
<title>AnalogModelShowcaseNoiseNetwork&#45;&gt;IntegratedVisualizer</title>
<path fill="none" stroke="black" d="M430.82,-54.98C449.16,-46.46 477.61,-33.23 498.73,-23.41"/>
<polygon fill="black" stroke="black" points="500.26,-26.56 507.85,-19.17 497.31,-20.21 500.26,-26.56"/>
</g>
<!-- AdhocHost -->
<g id="node6" class="node">
<title>AdhocHost</title>
<g id="a_node6"><a xlink:href="inet.node.inet.AdhocHost.html" xlink:title="Compound Module AdhocHost" target="_parent">
<polygon fill="#fffcaf" stroke="black" points="671,-19 602,-19 602,0 671,0 671,-19"/>
<text text-anchor="middle" x="636.5" y="-7" font-family="Helvetica,sans-Serif" font-size="10.00">AdhocHost</text>
</a>
</g>
</g>
<!-- AnalogModelShowcaseNoiseNetwork&#45;&gt;AdhocHost -->
<g id="edge5" class="edge">
<title>AnalogModelShowcaseNoiseNetwork&#45;&gt;AdhocHost</title>
<path fill="none" stroke="black" d="M448.49,-54.98C487.45,-45.77 549.64,-31.05 591.73,-21.09"/>
<polygon fill="black" stroke="black" points="592.78,-24.44 601.71,-18.73 591.17,-17.63 592.78,-24.44"/>
</g>
</g>
</svg>
