<?xml version="1.0" encoding="UTF-8" standalone="no"?>
<!DOCTYPE svg PUBLIC "-//W3C//DTD SVG 1.1//EN"
 "http://www.w3.org/Graphics/SVG/1.1/DTD/svg11.dtd">
<!-- Generated by graphviz version 2.43.0 (0)
 -->
<!-- Title: opp Pages: 1 -->
<svg width="223pt" height="82pt"
 viewBox="0.00 0.00 223.00 82.00" xmlns="http://www.w3.org/2000/svg" xmlns:xlink="http://www.w3.org/1999/xlink">
<g id="graph0" class="graph" transform="scale(1 1) rotate(0) translate(4 78)">
<title>opp</title>
<polygon fill="transparent" stroke="transparent" points="-4,4 -4,-78 219,-78 219,4 -4,4"/>
<!-- PropagationTimeMeasurementShowcase -->
<g id="node1" class="node">
<title>PropagationTimeMeasurementShowcase</title>
<g id="a_node1"><a xlink:href="inet.showcases.measurement.propagationtime.PropagationTimeMeasurementShowcase.html" xlink:title="Network PropagationTimeMeasurementShowcase" target="_parent">
<polygon fill="#9090ff" stroke="black" points="215,-74 0,-74 0,-55 215,-55 215,-74"/>
<text text-anchor="middle" x="107.5" y="-62" font-family="Helvetica,sans-Serif" font-size="10.00">PropagationTimeMeasurementShowcase</text>
</a>
</g>
</g>
<!-- StandardHost -->
<g id="node2" class="node">
<title>StandardHost</title>
<g id="a_node2"><a xlink:href="inet.node.inet.StandardHost.html" xlink:title="Compound Module StandardHost" target="_parent">
<polygon fill="#fffcaf" stroke="black" points="105,-19 22,-19 22,0 105,0 105,-19"/>
<text text-anchor="middle" x="63.5" y="-7" font-family="Helvetica,sans-Serif" font-size="10.00">StandardHost</text>
</a>
</g>
</g>
<!-- PropagationTimeMeasurementShowcase&#45;&gt;StandardHost -->
<g id="edge1" class="edge">
<title>PropagationTimeMeasurementShowcase&#45;&gt;StandardHost</title>
<path fill="none" stroke="black" d="M100.23,-54.75C93.96,-47.18 84.71,-36.05 77.07,-26.84"/>
<polygon fill="black" stroke="black" points="79.71,-24.55 70.63,-19.09 74.33,-29.02 79.71,-24.55"/>
</g>
<!-- Eth100M -->
<g id="node3" class="node">
<title>Eth100M</title>
<g id="a_node3"><a xlink:href="inet.node.ethernet.Eth100M.html" xlink:title="Channel Eth100M" target="_parent">
<polygon fill="#d0ffd0" stroke="black" points="182,-19 123,-19 123,0 182,0 182,-19"/>
<text text-anchor="middle" x="152.5" y="-7" font-family="Helvetica,sans-Serif" font-size="10.00">Eth100M</text>
</a>
</g>
</g>
<!-- PropagationTimeMeasurementShowcase&#45;&gt;Eth100M -->
<g id="edge2" class="edge">
<title>PropagationTimeMeasurementShowcase&#45;&gt;Eth100M</title>
<path fill="none" stroke="black" d="M114.93,-54.75C121.35,-47.18 130.81,-36.05 138.62,-26.84"/>
<polygon fill="black" stroke="black" points="141.4,-28.98 145.21,-19.09 136.07,-24.45 141.4,-28.98"/>
</g>
</g>
</svg>
