<?xml version="1.0" encoding="UTF-8" standalone="no"?>
<!DOCTYPE svg PUBLIC "-//W3C//DTD SVG 1.1//EN"
 "http://www.w3.org/Graphics/SVG/1.1/DTD/svg11.dtd">
<!-- Generated by graphviz version 2.43.0 (0)
 -->
<!-- Title: opp Pages: 1 -->
<svg width="226pt" height="137pt"
 viewBox="0.00 0.00 226.00 137.00" xmlns="http://www.w3.org/2000/svg" xmlns:xlink="http://www.w3.org/1999/xlink">
<g id="graph0" class="graph" transform="scale(1 1) rotate(0) translate(4 133)">
<title>opp</title>
<polygon fill="transparent" stroke="transparent" points="-4,4 -4,-133 222,-133 222,4 -4,4"/>
<!-- BurstHost -->
<g id="node1" class="node">
<title>BurstHost</title>
<g id="a_node1"><a xlink:href="inet.examples.inet.routerperf.BurstHost.html" xlink:title="Compound Module BurstHost" target="_parent">
<polygon fill="#fff700" stroke="black" points="151.5,-74 86.5,-74 86.5,-55 151.5,-55 151.5,-74"/>
<text text-anchor="middle" x="119" y="-62" font-family="Helvetica,sans-Serif" font-size="10.00">BurstHost</text>
</a>
</g>
</g>
<!-- IIpvxTrafficGenerator -->
<g id="node2" class="node">
<title>IIpvxTrafficGenerator</title>
<g id="a_node2"><a xlink:href="inet.applications.generic.IIpvxTrafficGenerator.html" xlink:title="Module Interface IIpvxTrafficGenerator" target="_parent">
<polygon fill="#fffcaf" stroke="black" stroke-dasharray="5,2" points="120,-19 0,-19 0,0 120,0 120,-19"/>
<text text-anchor="middle" x="60" y="-7" font-family="Helvetica,sans-Serif" font-size="10.00">IIpvxTrafficGenerator</text>
</a>
</g>
</g>
<!-- BurstHost&#45;&gt;IIpvxTrafficGenerator -->
<g id="edge1" class="edge">
<title>BurstHost&#45;&gt;IIpvxTrafficGenerator</title>
<path fill="none" stroke="black" d="M109.52,-54.98C100.8,-47.15 87.66,-35.34 77.1,-25.86"/>
<polygon fill="black" stroke="black" points="79.43,-23.25 69.65,-19.17 74.75,-28.46 79.43,-23.25"/>
</g>
<!-- IdealChannel -->
<g id="node3" class="node">
<title>IdealChannel</title>
<g id="a_node3"><a xlink:href="ned.IdealChannel.html" xlink:title="Channel IdealChannel" target="_parent">
<polygon fill="#d0ffd0" stroke="black" points="218,-19 138,-19 138,0 218,0 218,-19"/>
<text text-anchor="middle" x="178" y="-7" font-family="Helvetica,sans-Serif" font-size="10.00">IdealChannel</text>
</a>
</g>
</g>
<!-- BurstHost&#45;&gt;IdealChannel -->
<g id="edge2" class="edge">
<title>BurstHost&#45;&gt;IdealChannel</title>
<path fill="none" stroke="black" d="M128.48,-54.98C137.2,-47.15 150.34,-35.34 160.9,-25.86"/>
<polygon fill="black" stroke="black" points="163.25,-28.46 168.35,-19.17 158.57,-23.25 163.25,-28.46"/>
</g>
<!-- RouterPerfNetwork -->
<g id="node4" class="node">
<title>RouterPerfNetwork</title>
<g id="a_node4"><a xlink:href="inet.examples.inet.routerperf.RouterPerfNetwork.html" xlink:title="Network RouterPerfNetwork" target="_parent">
<polygon fill="#d0d0ff" stroke="black" points="174,-129 64,-129 64,-110 174,-110 174,-129"/>
<text text-anchor="middle" x="119" y="-117" font-family="Helvetica,sans-Serif" font-size="10.00">RouterPerfNetwork</text>
</a>
</g>
</g>
<!-- RouterPerfNetwork&#45;&gt;BurstHost -->
<g id="edge3" class="edge">
<title>RouterPerfNetwork&#45;&gt;BurstHost</title>
<path fill="none" stroke="black" d="M119,-109.75C119,-102.8 119,-92.85 119,-84.13"/>
<polygon fill="black" stroke="black" points="122.5,-84.09 119,-74.09 115.5,-84.09 122.5,-84.09"/>
</g>
</g>
</svg>
