<?xml version="1.0" encoding="UTF-8" standalone="no"?>
<!DOCTYPE svg PUBLIC "-//W3C//DTD SVG 1.1//EN"
 "http://www.w3.org/Graphics/SVG/1.1/DTD/svg11.dtd">
<!-- Generated by graphviz version 2.43.0 (0)
 -->
<!-- Title: opp Pages: 1 -->
<svg width="574pt" height="82pt"
 viewBox="0.00 0.00 574.00 82.00" xmlns="http://www.w3.org/2000/svg" xmlns:xlink="http://www.w3.org/1999/xlink">
<g id="graph0" class="graph" transform="scale(1 1) rotate(0) translate(4 78)">
<title>opp</title>
<polygon fill="transparent" stroke="transparent" points="-4,4 -4,-78 570,-78 570,4 -4,4"/>
<!-- DHCPShutdownReboot -->
<g id="node1" class="node">
<title>DHCPShutdownReboot</title>
<g id="a_node1"><a xlink:href="inet.examples.dhcp.DHCPShutdownReboot.html" xlink:title="Network DHCPShutdownReboot" target="_parent">
<polygon fill="#9090ff" stroke="black" points="354,-74 227,-74 227,-55 354,-55 354,-74"/>
<text text-anchor="middle" x="290.5" y="-62" font-family="Helvetica,sans-Serif" font-size="10.00">DHCPShutdownReboot</text>
</a>
</g>
</g>
<!-- ScenarioManager -->
<g id="node2" class="node">
<title>ScenarioManager</title>
<g id="a_node2"><a xlink:href="inet.common.scenario.ScenarioManager.html" xlink:title="Simple Module ScenarioManager" target="_parent">
<polygon fill="#fffcaf" stroke="black" points="101,-19 0,-19 0,0 101,0 101,-19"/>
<text text-anchor="middle" x="50.5" y="-7" font-family="Helvetica,sans-Serif" font-size="10.00">ScenarioManager</text>
</a>
</g>
</g>
<!-- DHCPShutdownReboot&#45;&gt;ScenarioManager -->
<g id="edge1" class="edge">
<title>DHCPShutdownReboot&#45;&gt;ScenarioManager</title>
<path fill="none" stroke="black" d="M251.94,-54.98C210.43,-45.82 144.29,-31.21 99.21,-21.26"/>
<polygon fill="black" stroke="black" points="99.88,-17.82 89.36,-19.08 98.37,-24.66 99.88,-17.82"/>
</g>
<!-- StandardHost -->
<g id="node3" class="node">
<title>StandardHost</title>
<g id="a_node3"><a xlink:href="inet.node.inet.StandardHost.html" xlink:title="Compound Module StandardHost" target="_parent">
<polygon fill="#fffcaf" stroke="black" points="202,-19 119,-19 119,0 202,0 202,-19"/>
<text text-anchor="middle" x="160.5" y="-7" font-family="Helvetica,sans-Serif" font-size="10.00">StandardHost</text>
</a>
</g>
</g>
<!-- DHCPShutdownReboot&#45;&gt;StandardHost -->
<g id="edge2" class="edge">
<title>DHCPShutdownReboot&#45;&gt;StandardHost</title>
<path fill="none" stroke="black" d="M269.61,-54.98C248.42,-46.34 215.37,-32.87 191.2,-23.02"/>
<polygon fill="black" stroke="black" points="192.35,-19.7 181.77,-19.17 189.71,-26.19 192.35,-19.7"/>
</g>
<!-- Ipv4NetworkConfigurator -->
<g id="node4" class="node">
<title>Ipv4NetworkConfigurator</title>
<g id="a_node4"><a xlink:href="inet.networklayer.configurator.ipv4.Ipv4NetworkConfigurator.html" xlink:title="Simple Module Ipv4NetworkConfigurator" target="_parent">
<polygon fill="#fffcaf" stroke="black" points="360.5,-19 220.5,-19 220.5,0 360.5,0 360.5,-19"/>
<text text-anchor="middle" x="290.5" y="-7" font-family="Helvetica,sans-Serif" font-size="10.00">Ipv4NetworkConfigurator</text>
</a>
</g>
</g>
<!-- DHCPShutdownReboot&#45;&gt;Ipv4NetworkConfigurator -->
<g id="edge3" class="edge">
<title>DHCPShutdownReboot&#45;&gt;Ipv4NetworkConfigurator</title>
<path fill="none" stroke="black" d="M290.5,-54.75C290.5,-47.8 290.5,-37.85 290.5,-29.13"/>
<polygon fill="black" stroke="black" points="294,-29.09 290.5,-19.09 287,-29.09 294,-29.09"/>
</g>
<!-- Eth10M -->
<g id="node5" class="node">
<title>Eth10M</title>
<g id="a_node5"><a xlink:href="inet.node.ethernet.Eth10M.html" xlink:title="Channel Eth10M" target="_parent">
<polygon fill="#d0ffd0" stroke="black" points="432.5,-19 378.5,-19 378.5,0 432.5,0 432.5,-19"/>
<text text-anchor="middle" x="405.5" y="-7" font-family="Helvetica,sans-Serif" font-size="10.00">Eth10M</text>
</a>
</g>
</g>
<!-- DHCPShutdownReboot&#45;&gt;Eth10M -->
<g id="edge4" class="edge">
<title>DHCPShutdownReboot&#45;&gt;Eth10M</title>
<path fill="none" stroke="black" d="M308.98,-54.98C327.48,-46.46 356.18,-33.23 377.48,-23.41"/>
<polygon fill="black" stroke="black" points="379.07,-26.53 386.69,-19.17 376.14,-20.18 379.07,-26.53"/>
</g>
<!-- IntegratedVisualizer -->
<g id="node6" class="node">
<title>IntegratedVisualizer</title>
<g id="a_node6"><a xlink:href="inet.visualizer.common.IntegratedVisualizer.html" xlink:title="Compound Module IntegratedVisualizer" target="_parent">
<polygon fill="#fffcaf" stroke="black" points="566,-19 451,-19 451,0 566,0 566,-19"/>
<text text-anchor="middle" x="508.5" y="-7" font-family="Helvetica,sans-Serif" font-size="10.00">IntegratedVisualizer</text>
</a>
</g>
</g>
<!-- DHCPShutdownReboot&#45;&gt;IntegratedVisualizer -->
<g id="edge5" class="edge">
<title>DHCPShutdownReboot&#45;&gt;IntegratedVisualizer</title>
<path fill="none" stroke="black" d="M325.53,-54.98C363,-45.87 422.55,-31.4 463.48,-21.45"/>
<polygon fill="black" stroke="black" points="464.31,-24.85 473.2,-19.08 462.66,-18.04 464.31,-24.85"/>
</g>
</g>
</svg>
