<?xml version="1.0" encoding="UTF-8" standalone="no"?>
<!DOCTYPE svg PUBLIC "-//W3C//DTD SVG 1.1//EN"
 "http://www.w3.org/Graphics/SVG/1.1/DTD/svg11.dtd">
<!-- Generated by graphviz version 2.43.0 (0)
 -->
<!-- Title: opp Pages: 1 -->
<svg width="443pt" height="82pt"
 viewBox="0.00 0.00 442.50 82.00" xmlns="http://www.w3.org/2000/svg" xmlns:xlink="http://www.w3.org/1999/xlink">
<g id="graph0" class="graph" transform="scale(1 1) rotate(0) translate(4 78)">
<title>opp</title>
<polygon fill="transparent" stroke="transparent" points="-4,4 -4,-78 438.5,-78 438.5,4 -4,4"/>
<!-- v3_2_routers -->
<g id="node1" class="node">
<title>v3_2_routers</title>
<g id="a_node1"><a xlink:href="inet.examples.ospfv3.v3_2_routers.v3_2_routers.html" xlink:title="Network v3_2_routers" target="_parent">
<polygon fill="#9090ff" stroke="black" points="265.5,-74 185.5,-74 185.5,-55 265.5,-55 265.5,-74"/>
<text text-anchor="middle" x="225.5" y="-62" font-family="Helvetica,sans-Serif" font-size="10.00">v3_2_routers</text>
</a>
</g>
</g>
<!-- ScenarioManager -->
<g id="node2" class="node">
<title>ScenarioManager</title>
<g id="a_node2"><a xlink:href="inet.common.scenario.ScenarioManager.html" xlink:title="Simple Module ScenarioManager" target="_parent">
<polygon fill="#fffcaf" stroke="black" points="101,-19 0,-19 0,0 101,0 101,-19"/>
<text text-anchor="middle" x="50.5" y="-7" font-family="Helvetica,sans-Serif" font-size="10.00">ScenarioManager</text>
</a>
</g>
</g>
<!-- v3_2_routers&#45;&gt;ScenarioManager -->
<g id="edge1" class="edge">
<title>v3_2_routers&#45;&gt;ScenarioManager</title>
<path fill="none" stroke="black" d="M197.38,-54.98C167.88,-46.05 121.31,-31.94 88.53,-22.02"/>
<polygon fill="black" stroke="black" points="89.42,-18.63 78.84,-19.08 87.39,-25.33 89.42,-18.63"/>
</g>
<!-- Ospfv3Router -->
<g id="node3" class="node">
<title>Ospfv3Router</title>
<g id="a_node3"><a xlink:href="inet.node.ospfv3.Ospfv3Router.html" xlink:title="Compound Module Ospfv3Router" target="_parent">
<polygon fill="#fffcaf" stroke="black" points="202,-19 119,-19 119,0 202,0 202,-19"/>
<text text-anchor="middle" x="160.5" y="-7" font-family="Helvetica,sans-Serif" font-size="10.00">Ospfv3Router</text>
</a>
</g>
</g>
<!-- v3_2_routers&#45;&gt;Ospfv3Router -->
<g id="edge2" class="edge">
<title>v3_2_routers&#45;&gt;Ospfv3Router</title>
<path fill="none" stroke="black" d="M215.06,-54.98C205.35,-47.07 190.68,-35.11 179,-25.58"/>
<polygon fill="black" stroke="black" points="181.1,-22.78 171.13,-19.17 176.67,-28.2 181.1,-22.78"/>
</g>
<!-- Ipv4NetworkConfigurator -->
<g id="node4" class="node">
<title>Ipv4NetworkConfigurator</title>
<g id="a_node4"><a xlink:href="inet.networklayer.configurator.ipv4.Ipv4NetworkConfigurator.html" xlink:title="Simple Module Ipv4NetworkConfigurator" target="_parent">
<polygon fill="#fffcaf" stroke="black" points="360.5,-19 220.5,-19 220.5,0 360.5,0 360.5,-19"/>
<text text-anchor="middle" x="290.5" y="-7" font-family="Helvetica,sans-Serif" font-size="10.00">Ipv4NetworkConfigurator</text>
</a>
</g>
</g>
<!-- v3_2_routers&#45;&gt;Ipv4NetworkConfigurator -->
<g id="edge3" class="edge">
<title>v3_2_routers&#45;&gt;Ipv4NetworkConfigurator</title>
<path fill="none" stroke="black" d="M235.94,-54.98C245.65,-47.07 260.32,-35.11 272,-25.58"/>
<polygon fill="black" stroke="black" points="274.33,-28.2 279.87,-19.17 269.9,-22.78 274.33,-28.2"/>
</g>
<!-- Channel -->
<g id="node5" class="node">
<title>Channel</title>
<g id="a_node5"><a xlink:href="inet.examples.ospfv3.v3_2_routers.v3_2_routers.Channel.html" xlink:title="Channel Channel" target="_parent">
<polygon fill="#d0ffd0" stroke="black" points="434.5,-19 378.5,-19 378.5,0 434.5,0 434.5,-19"/>
<text text-anchor="middle" x="406.5" y="-7" font-family="Helvetica,sans-Serif" font-size="10.00">Channel</text>
</a>
</g>
</g>
<!-- v3_2_routers&#45;&gt;Channel -->
<g id="edge4" class="edge">
<title>v3_2_routers&#45;&gt;Channel</title>
<path fill="none" stroke="black" d="M254.58,-54.98C285.46,-45.94 334.41,-31.61 368.37,-21.67"/>
<polygon fill="black" stroke="black" points="369.77,-24.9 378.38,-18.73 367.8,-18.18 369.77,-24.9"/>
</g>
</g>
</svg>
