<?xml version="1.0" encoding="UTF-8" standalone="no"?>
<!DOCTYPE svg PUBLIC "-//W3C//DTD SVG 1.1//EN"
 "http://www.w3.org/Graphics/SVG/1.1/DTD/svg11.dtd">
<!-- Generated by graphviz version 2.43.0 (0)
 -->
<!-- Title: opp Pages: 1 -->
<svg width="588pt" height="82pt"
 viewBox="0.00 0.00 587.50 82.00" xmlns="http://www.w3.org/2000/svg" xmlns:xlink="http://www.w3.org/1999/xlink">
<g id="graph0" class="graph" transform="scale(1 1) rotate(0) translate(4 78)">
<title>opp</title>
<polygon fill="transparent" stroke="transparent" points="-4,4 -4,-78 583.5,-78 583.5,4 -4,4"/>
<!-- ManetprotocolsShowcaseB -->
<g id="node1" class="node">
<title>ManetprotocolsShowcaseB</title>
<g id="a_node1"><a xlink:href="inet.showcases.routing.manet.ManetprotocolsShowcaseB.html" xlink:title="Network ManetprotocolsShowcaseB" target="_parent">
<polygon fill="#9090ff" stroke="black" points="366,-74 218,-74 218,-55 366,-55 366,-74"/>
<text text-anchor="middle" x="292" y="-62" font-family="Helvetica,sans-Serif" font-size="10.00">ManetprotocolsShowcaseB</text>
</a>
</g>
</g>
<!-- IntegratedMultiVisualizer -->
<g id="node2" class="node">
<title>IntegratedMultiVisualizer</title>
<g id="a_node2"><a xlink:href="inet.visualizer.common.IntegratedMultiVisualizer.html" xlink:title="Compound Module IntegratedMultiVisualizer" target="_parent">
<polygon fill="#fffcaf" stroke="black" points="140,-19 0,-19 0,0 140,0 140,-19"/>
<text text-anchor="middle" x="70" y="-7" font-family="Helvetica,sans-Serif" font-size="10.00">IntegratedMultiVisualizer</text>
</a>
</g>
</g>
<!-- ManetprotocolsShowcaseB&#45;&gt;IntegratedMultiVisualizer -->
<g id="edge1" class="edge">
<title>ManetprotocolsShowcaseB&#45;&gt;IntegratedMultiVisualizer</title>
<path fill="none" stroke="black" d="M256.33,-54.98C218.17,-45.87 157.53,-31.4 115.85,-21.45"/>
<polygon fill="black" stroke="black" points="116.49,-18 105.95,-19.08 114.86,-24.81 116.49,-18"/>
</g>
<!-- Ipv4NetworkConfigurator -->
<g id="node3" class="node">
<title>Ipv4NetworkConfigurator</title>
<g id="a_node3"><a xlink:href="inet.networklayer.configurator.ipv4.Ipv4NetworkConfigurator.html" xlink:title="Simple Module Ipv4NetworkConfigurator" target="_parent">
<polygon fill="#fffcaf" stroke="black" points="298,-19 158,-19 158,0 298,0 298,-19"/>
<text text-anchor="middle" x="228" y="-7" font-family="Helvetica,sans-Serif" font-size="10.00">Ipv4NetworkConfigurator</text>
</a>
</g>
</g>
<!-- ManetprotocolsShowcaseB&#45;&gt;Ipv4NetworkConfigurator -->
<g id="edge2" class="edge">
<title>ManetprotocolsShowcaseB&#45;&gt;Ipv4NetworkConfigurator</title>
<path fill="none" stroke="black" d="M281.72,-54.98C272.16,-47.07 257.72,-35.11 246.22,-25.58"/>
<polygon fill="black" stroke="black" points="248.4,-22.85 238.47,-19.17 243.94,-28.24 248.4,-22.85"/>
</g>
<!-- ManetRouter -->
<g id="node4" class="node">
<title>ManetRouter</title>
<g id="a_node4"><a xlink:href="inet.node.inet.ManetRouter.html" xlink:title="Compound Module ManetRouter" target="_parent">
<polygon fill="#fffcaf" stroke="black" points="396,-19 316,-19 316,0 396,0 396,-19"/>
<text text-anchor="middle" x="356" y="-7" font-family="Helvetica,sans-Serif" font-size="10.00">ManetRouter</text>
</a>
</g>
</g>
<!-- ManetprotocolsShowcaseB&#45;&gt;ManetRouter -->
<g id="edge3" class="edge">
<title>ManetprotocolsShowcaseB&#45;&gt;ManetRouter</title>
<path fill="none" stroke="black" d="M302.28,-54.98C311.84,-47.07 326.28,-35.11 337.78,-25.58"/>
<polygon fill="black" stroke="black" points="340.06,-28.24 345.53,-19.17 335.6,-22.85 340.06,-28.24"/>
</g>
<!-- Ieee80211ScalarRadioMedium -->
<g id="node5" class="node">
<title>Ieee80211ScalarRadioMedium</title>
<g id="a_node5"><a xlink:href="inet.physicallayer.wireless.ieee80211.packetlevel.Ieee80211ScalarRadioMedium.html" xlink:title="Compound Module Ieee80211ScalarRadioMedium" target="_parent">
<polygon fill="#fffcaf" stroke="black" points="579.5,-19 414.5,-19 414.5,0 579.5,0 579.5,-19"/>
<text text-anchor="middle" x="497" y="-7" font-family="Helvetica,sans-Serif" font-size="10.00">Ieee80211ScalarRadioMedium</text>
</a>
</g>
</g>
<!-- ManetprotocolsShowcaseB&#45;&gt;Ieee80211ScalarRadioMedium -->
<g id="edge4" class="edge">
<title>ManetprotocolsShowcaseB&#45;&gt;Ieee80211ScalarRadioMedium</title>
<path fill="none" stroke="black" d="M324.94,-54.98C359.95,-45.93 415.47,-31.58 453.93,-21.64"/>
<polygon fill="black" stroke="black" points="455,-24.97 463.81,-19.08 453.25,-18.2 455,-24.97"/>
</g>
</g>
</svg>
