<?xml version="1.0" encoding="UTF-8" standalone="no"?>
<!DOCTYPE svg PUBLIC "-//W3C//DTD SVG 1.1//EN"
 "http://www.w3.org/Graphics/SVG/1.1/DTD/svg11.dtd">
<!-- Generated by graphviz version 2.43.0 (0)
 -->
<!-- Title: opp Pages: 1 -->
<svg width="567pt" height="82pt"
 viewBox="0.00 0.00 566.50 82.00" xmlns="http://www.w3.org/2000/svg" xmlns:xlink="http://www.w3.org/1999/xlink">
<g id="graph0" class="graph" transform="scale(1 1) rotate(0) translate(4 78)">
<title>opp</title>
<polygon fill="transparent" stroke="transparent" points="-4,4 -4,-78 562.5,-78 562.5,4 -4,4"/>
<!-- LayeredApsk -->
<g id="node1" class="node">
<title>LayeredApsk</title>
<g id="a_node1"><a xlink:href="inet.examples.wireless.layeredapsk.LayeredApsk.html" xlink:title="Network LayeredApsk" target="_parent">
<polygon fill="#9090ff" stroke="black" points="334,-74 254,-74 254,-55 334,-55 334,-74"/>
<text text-anchor="middle" x="294" y="-62" font-family="Helvetica,sans-Serif" font-size="10.00">LayeredApsk</text>
</a>
</g>
</g>
<!-- IIntegratedVisualizer -->
<g id="node2" class="node">
<title>IIntegratedVisualizer</title>
<g id="a_node2"><a xlink:href="inet.visualizer.contract.IIntegratedVisualizer.html" xlink:title="Module Interface IIntegratedVisualizer" target="_parent">
<polygon fill="#fffcaf" stroke="black" stroke-dasharray="5,2" points="118,-19 0,-19 0,0 118,0 118,-19"/>
<text text-anchor="middle" x="59" y="-7" font-family="Helvetica,sans-Serif" font-size="10.00">IIntegratedVisualizer</text>
</a>
</g>
</g>
<!-- LayeredApsk&#45;&gt;IIntegratedVisualizer -->
<g id="edge1" class="edge">
<title>LayeredApsk&#45;&gt;IIntegratedVisualizer</title>
<path fill="none" stroke="black" d="M256.24,-54.98C215.68,-45.84 151.11,-31.27 106.97,-21.32"/>
<polygon fill="black" stroke="black" points="107.58,-17.87 97.05,-19.08 106.04,-24.7 107.58,-17.87"/>
</g>
<!-- Ipv4NetworkConfigurator -->
<g id="node3" class="node">
<title>Ipv4NetworkConfigurator</title>
<g id="a_node3"><a xlink:href="inet.networklayer.configurator.ipv4.Ipv4NetworkConfigurator.html" xlink:title="Simple Module Ipv4NetworkConfigurator" target="_parent">
<polygon fill="#fffcaf" stroke="black" points="276,-19 136,-19 136,0 276,0 276,-19"/>
<text text-anchor="middle" x="206" y="-7" font-family="Helvetica,sans-Serif" font-size="10.00">Ipv4NetworkConfigurator</text>
</a>
</g>
</g>
<!-- LayeredApsk&#45;&gt;Ipv4NetworkConfigurator -->
<g id="edge2" class="edge">
<title>LayeredApsk&#45;&gt;Ipv4NetworkConfigurator</title>
<path fill="none" stroke="black" d="M279.86,-54.98C266.21,-46.77 245.31,-34.18 229.22,-24.49"/>
<polygon fill="black" stroke="black" points="230.77,-21.33 220.4,-19.17 227.16,-27.33 230.77,-21.33"/>
</g>
<!-- ApskLayeredScalarRadioMedium -->
<g id="node4" class="node">
<title>ApskLayeredScalarRadioMedium</title>
<g id="a_node4"><a xlink:href="inet.physicallayer.wireless.apsk.bitlevel.ApskLayeredScalarRadioMedium.html" xlink:title="Compound Module ApskLayeredScalarRadioMedium" target="_parent">
<polygon fill="#fffcaf" stroke="black" points="471.5,-19 294.5,-19 294.5,0 471.5,0 471.5,-19"/>
<text text-anchor="middle" x="383" y="-7" font-family="Helvetica,sans-Serif" font-size="10.00">ApskLayeredScalarRadioMedium</text>
</a>
</g>
</g>
<!-- LayeredApsk&#45;&gt;ApskLayeredScalarRadioMedium -->
<g id="edge3" class="edge">
<title>LayeredApsk&#45;&gt;ApskLayeredScalarRadioMedium</title>
<path fill="none" stroke="black" d="M308.3,-54.98C322.1,-46.77 343.24,-34.18 359.51,-24.49"/>
<polygon fill="black" stroke="black" points="361.64,-27.29 368.44,-19.17 358.06,-21.28 361.64,-27.29"/>
</g>
<!-- AdhocHost -->
<g id="node5" class="node">
<title>AdhocHost</title>
<g id="a_node5"><a xlink:href="inet.node.inet.AdhocHost.html" xlink:title="Compound Module AdhocHost" target="_parent">
<polygon fill="#fffcaf" stroke="black" points="558.5,-19 489.5,-19 489.5,0 558.5,0 558.5,-19"/>
<text text-anchor="middle" x="524" y="-7" font-family="Helvetica,sans-Serif" font-size="10.00">AdhocHost</text>
</a>
</g>
</g>
<!-- LayeredApsk&#45;&gt;AdhocHost -->
<g id="edge4" class="edge">
<title>LayeredApsk&#45;&gt;AdhocHost</title>
<path fill="none" stroke="black" d="M330.95,-54.98C371.39,-45.67 436.21,-30.73 479.44,-20.77"/>
<polygon fill="black" stroke="black" points="480.44,-24.13 489.4,-18.47 478.86,-17.31 480.44,-24.13"/>
</g>
</g>
</svg>
