<?xml version="1.0" encoding="UTF-8" standalone="no"?>
<!DOCTYPE svg PUBLIC "-//W3C//DTD SVG 1.1//EN"
 "http://www.w3.org/Graphics/SVG/1.1/DTD/svg11.dtd">
<!-- Generated by graphviz version 2.43.0 (0)
 -->
<!-- Title: opp Pages: 1 -->
<svg width="594pt" height="82pt"
 viewBox="0.00 0.00 594.00 82.00" xmlns="http://www.w3.org/2000/svg" xmlns:xlink="http://www.w3.org/1999/xlink">
<g id="graph0" class="graph" transform="scale(1 1) rotate(0) translate(4 78)">
<title>opp</title>
<polygon fill="transparent" stroke="transparent" points="-4,4 -4,-78 590,-78 590,4 -4,4"/>
<!-- RequestResponseTutorialStep -->
<g id="node1" class="node">
<title>RequestResponseTutorialStep</title>
<g id="a_node1"><a xlink:href="inet.tutorials.queueing.RequestResponseTutorialStep.html" xlink:title="Network RequestResponseTutorialStep" target="_parent">
<polygon fill="#9090ff" stroke="black" points="363,-74 202,-74 202,-55 363,-55 363,-74"/>
<text text-anchor="middle" x="282.5" y="-62" font-family="Helvetica,sans-Serif" font-size="10.00">RequestResponseTutorialStep</text>
</a>
</g>
</g>
<!-- ActivePacketSource -->
<g id="node2" class="node">
<title>ActivePacketSource</title>
<g id="a_node2"><a xlink:href="inet.queueing.source.ActivePacketSource.html" xlink:title="Simple Module ActivePacketSource" target="_parent">
<polygon fill="#fffcaf" stroke="black" points="113,-19 0,-19 0,0 113,0 113,-19"/>
<text text-anchor="middle" x="56.5" y="-7" font-family="Helvetica,sans-Serif" font-size="10.00">ActivePacketSource</text>
</a>
</g>
</g>
<!-- RequestResponseTutorialStep&#45;&gt;ActivePacketSource -->
<g id="edge1" class="edge">
<title>RequestResponseTutorialStep&#45;&gt;ActivePacketSource</title>
<path fill="none" stroke="black" d="M246.19,-54.98C207.26,-45.86 145.34,-31.33 102.9,-21.38"/>
<polygon fill="black" stroke="black" points="103.63,-17.96 93.1,-19.08 102.03,-24.77 103.63,-17.96"/>
</g>
<!-- IdealChannel -->
<g id="node3" class="node">
<title>IdealChannel</title>
<g id="a_node3"><a xlink:href="ned.IdealChannel.html" xlink:title="Channel IdealChannel" target="_parent">
<polygon fill="#d0ffd0" stroke="black" points="211.5,-19 131.5,-19 131.5,0 211.5,0 211.5,-19"/>
<text text-anchor="middle" x="171.5" y="-7" font-family="Helvetica,sans-Serif" font-size="10.00">IdealChannel</text>
</a>
</g>
</g>
<!-- RequestResponseTutorialStep&#45;&gt;IdealChannel -->
<g id="edge2" class="edge">
<title>RequestResponseTutorialStep&#45;&gt;IdealChannel</title>
<path fill="none" stroke="black" d="M264.67,-54.98C246.89,-46.5 219.35,-33.35 198.82,-23.54"/>
<polygon fill="black" stroke="black" points="200.19,-20.32 189.66,-19.17 197.17,-26.64 200.19,-20.32"/>
</g>
<!-- RequestConsumer -->
<g id="node4" class="node">
<title>RequestConsumer</title>
<g id="a_node4"><a xlink:href="inet.queueing.sink.RequestConsumer.html" xlink:title="Compound Module RequestConsumer" target="_parent">
<polygon fill="#fffcaf" stroke="black" points="335.5,-19 229.5,-19 229.5,0 335.5,0 335.5,-19"/>
<text text-anchor="middle" x="282.5" y="-7" font-family="Helvetica,sans-Serif" font-size="10.00">RequestConsumer</text>
</a>
</g>
</g>
<!-- RequestResponseTutorialStep&#45;&gt;RequestConsumer -->
<g id="edge3" class="edge">
<title>RequestResponseTutorialStep&#45;&gt;RequestConsumer</title>
<path fill="none" stroke="black" d="M282.5,-54.75C282.5,-47.8 282.5,-37.85 282.5,-29.13"/>
<polygon fill="black" stroke="black" points="286,-29.09 282.5,-19.09 279,-29.09 286,-29.09"/>
</g>
<!-- ResponseProducer -->
<g id="node5" class="node">
<title>ResponseProducer</title>
<g id="a_node5"><a xlink:href="inet.queueing.source.ResponseProducer.html" xlink:title="Compound Module ResponseProducer" target="_parent">
<polygon fill="#fffcaf" stroke="black" points="461,-19 354,-19 354,0 461,0 461,-19"/>
<text text-anchor="middle" x="407.5" y="-7" font-family="Helvetica,sans-Serif" font-size="10.00">ResponseProducer</text>
</a>
</g>
</g>
<!-- RequestResponseTutorialStep&#45;&gt;ResponseProducer -->
<g id="edge4" class="edge">
<title>RequestResponseTutorialStep&#45;&gt;ResponseProducer</title>
<path fill="none" stroke="black" d="M302.58,-54.98C322.87,-46.38 354.46,-32.99 377.67,-23.15"/>
<polygon fill="black" stroke="black" points="379.21,-26.3 387.05,-19.17 376.48,-19.85 379.21,-26.3"/>
</g>
<!-- PassivePacketSink -->
<g id="node6" class="node">
<title>PassivePacketSink</title>
<g id="a_node6"><a xlink:href="inet.queueing.sink.PassivePacketSink.html" xlink:title="Simple Module PassivePacketSink" target="_parent">
<polygon fill="#fffcaf" stroke="black" points="586,-19 479,-19 479,0 586,0 586,-19"/>
<text text-anchor="middle" x="532.5" y="-7" font-family="Helvetica,sans-Serif" font-size="10.00">PassivePacketSink</text>
</a>
</g>
</g>
<!-- RequestResponseTutorialStep&#45;&gt;PassivePacketSink -->
<g id="edge5" class="edge">
<title>RequestResponseTutorialStep&#45;&gt;PassivePacketSink</title>
<path fill="none" stroke="black" d="M322.67,-54.98C366,-45.8 435.09,-31.15 482.06,-21.19"/>
<polygon fill="black" stroke="black" points="482.96,-24.58 492.02,-19.08 481.51,-17.73 482.96,-24.58"/>
</g>
</g>
</svg>
