<?xml version="1.0" encoding="UTF-8" standalone="no"?>
<!DOCTYPE svg PUBLIC "-//W3C//DTD SVG 1.1//EN"
 "http://www.w3.org/Graphics/SVG/1.1/DTD/svg11.dtd">
<!-- Generated by graphviz version 2.43.0 (0)
 -->
<!-- Title: opp Pages: 1 -->
<svg width="553pt" height="82pt"
 viewBox="0.00 0.00 553.00 82.00" xmlns="http://www.w3.org/2000/svg" xmlns:xlink="http://www.w3.org/1999/xlink">
<g id="graph0" class="graph" transform="scale(1 1) rotate(0) translate(4 78)">
<title>opp</title>
<polygon fill="transparent" stroke="transparent" points="-4,4 -4,-78 549,-78 549,4 -4,4"/>
<!-- PriorityClassifierTutorialStep -->
<g id="node1" class="node">
<title>PriorityClassifierTutorialStep</title>
<g id="a_node1"><a xlink:href="inet.tutorials.queueing.PriorityClassifierTutorialStep.html" xlink:title="Network PriorityClassifierTutorialStep" target="_parent">
<polygon fill="#9090ff" stroke="black" points="347,-74 192,-74 192,-55 347,-55 347,-74"/>
<text text-anchor="middle" x="269.5" y="-62" font-family="Helvetica,sans-Serif" font-size="10.00">PriorityClassifierTutorialStep</text>
</a>
</g>
</g>
<!-- ActivePacketSource -->
<g id="node2" class="node">
<title>ActivePacketSource</title>
<g id="a_node2"><a xlink:href="inet.queueing.source.ActivePacketSource.html" xlink:title="Simple Module ActivePacketSource" target="_parent">
<polygon fill="#fffcaf" stroke="black" points="113,-19 0,-19 0,0 113,0 113,-19"/>
<text text-anchor="middle" x="56.5" y="-7" font-family="Helvetica,sans-Serif" font-size="10.00">ActivePacketSource</text>
</a>
</g>
</g>
<!-- PriorityClassifierTutorialStep&#45;&gt;ActivePacketSource -->
<g id="edge1" class="edge">
<title>PriorityClassifierTutorialStep&#45;&gt;ActivePacketSource</title>
<path fill="none" stroke="black" d="M235.28,-54.98C198.74,-45.89 140.72,-31.46 100.74,-21.51"/>
<polygon fill="black" stroke="black" points="101.54,-18.1 90.99,-19.08 99.85,-24.89 101.54,-18.1"/>
</g>
<!-- IdealChannel -->
<g id="node3" class="node">
<title>IdealChannel</title>
<g id="a_node3"><a xlink:href="ned.IdealChannel.html" xlink:title="Channel IdealChannel" target="_parent">
<polygon fill="#d0ffd0" stroke="black" points="211.5,-19 131.5,-19 131.5,0 211.5,0 211.5,-19"/>
<text text-anchor="middle" x="171.5" y="-7" font-family="Helvetica,sans-Serif" font-size="10.00">IdealChannel</text>
</a>
</g>
</g>
<!-- PriorityClassifierTutorialStep&#45;&gt;IdealChannel -->
<g id="edge2" class="edge">
<title>PriorityClassifierTutorialStep&#45;&gt;IdealChannel</title>
<path fill="none" stroke="black" d="M253.75,-54.98C238.27,-46.61 214.41,-33.7 196.36,-23.95"/>
<polygon fill="black" stroke="black" points="197.99,-20.85 187.53,-19.17 194.66,-27.01 197.99,-20.85"/>
</g>
<!-- PacketQueue -->
<g id="node4" class="node">
<title>PacketQueue</title>
<g id="a_node4"><a xlink:href="inet.queueing.queue.PacketQueue.html" xlink:title="Simple Module PacketQueue" target="_parent">
<polygon fill="#fffcaf" stroke="black" points="309.5,-19 229.5,-19 229.5,0 309.5,0 309.5,-19"/>
<text text-anchor="middle" x="269.5" y="-7" font-family="Helvetica,sans-Serif" font-size="10.00">PacketQueue</text>
</a>
</g>
</g>
<!-- PriorityClassifierTutorialStep&#45;&gt;PacketQueue -->
<g id="edge3" class="edge">
<title>PriorityClassifierTutorialStep&#45;&gt;PacketQueue</title>
<path fill="none" stroke="black" d="M269.5,-54.75C269.5,-47.8 269.5,-37.85 269.5,-29.13"/>
<polygon fill="black" stroke="black" points="273,-29.09 269.5,-19.09 266,-29.09 273,-29.09"/>
</g>
<!-- PriorityClassifier -->
<g id="node5" class="node">
<title>PriorityClassifier</title>
<g id="a_node5"><a xlink:href="inet.queueing.classifier.PriorityClassifier.html" xlink:title="Simple Module PriorityClassifier" target="_parent">
<polygon fill="#fffcaf" stroke="black" points="425.5,-19 327.5,-19 327.5,0 425.5,0 425.5,-19"/>
<text text-anchor="middle" x="376.5" y="-7" font-family="Helvetica,sans-Serif" font-size="10.00">PriorityClassifier</text>
</a>
</g>
</g>
<!-- PriorityClassifierTutorialStep&#45;&gt;PriorityClassifier -->
<g id="edge4" class="edge">
<title>PriorityClassifierTutorialStep&#45;&gt;PriorityClassifier</title>
<path fill="none" stroke="black" d="M286.69,-54.98C303.75,-46.54 330.13,-33.47 349.9,-23.68"/>
<polygon fill="black" stroke="black" points="351.59,-26.75 359,-19.17 348.48,-20.47 351.59,-26.75"/>
</g>
<!-- ActivePacketSink -->
<g id="node6" class="node">
<title>ActivePacketSink</title>
<g id="a_node6"><a xlink:href="inet.queueing.sink.ActivePacketSink.html" xlink:title="Simple Module ActivePacketSink" target="_parent">
<polygon fill="#fffcaf" stroke="black" points="545,-19 444,-19 444,0 545,0 545,-19"/>
<text text-anchor="middle" x="494.5" y="-7" font-family="Helvetica,sans-Serif" font-size="10.00">ActivePacketSink</text>
</a>
</g>
</g>
<!-- PriorityClassifierTutorialStep&#45;&gt;ActivePacketSink -->
<g id="edge5" class="edge">
<title>PriorityClassifierTutorialStep&#45;&gt;ActivePacketSink</title>
<path fill="none" stroke="black" d="M305.65,-54.98C344.41,-45.86 406.05,-31.33 448.3,-21.38"/>
<polygon fill="black" stroke="black" points="449.14,-24.78 458.07,-19.08 447.53,-17.97 449.14,-24.78"/>
</g>
</g>
</svg>
