<?xml version="1.0" encoding="UTF-8" standalone="no"?>
<!DOCTYPE svg PUBLIC "-//W3C//DTD SVG 1.1//EN"
 "http://www.w3.org/Graphics/SVG/1.1/DTD/svg11.dtd">
<!-- Generated by graphviz version 2.43.0 (0)
 -->
<!-- Title: opp Pages: 1 -->
<svg width="201pt" height="82pt"
 viewBox="0.00 0.00 201.00 82.00" xmlns="http://www.w3.org/2000/svg" xmlns:xlink="http://www.w3.org/1999/xlink">
<g id="graph0" class="graph" transform="scale(1 1) rotate(0) translate(4 78)">
<title>opp</title>
<polygon fill="transparent" stroke="transparent" points="-4,4 -4,-78 197,-78 197,4 -4,4"/>
<!-- MulticastFailureProtectionShowcase -->
<g id="node1" class="node">
<title>MulticastFailureProtectionShowcase</title>
<g id="a_node1"><a xlink:href="inet.showcases.tsn.framereplication.multicastfailureprotection.MulticastFailureProtectionShowcase.html" xlink:title="Network MulticastFailureProtectionShowcase" target="_parent">
<polygon fill="#9090ff" stroke="black" points="193,-74 0,-74 0,-55 193,-55 193,-74"/>
<text text-anchor="middle" x="96.5" y="-62" font-family="Helvetica,sans-Serif" font-size="10.00">MulticastFailureProtectionShowcase</text>
</a>
</g>
</g>
<!-- EthernetLink -->
<g id="node2" class="node">
<title>EthernetLink</title>
<g id="a_node2"><a xlink:href="inet.node.ethernet.EthernetLink.html" xlink:title="Channel EthernetLink" target="_parent">
<polygon fill="#d0ffd0" stroke="black" points="90.5,-19 12.5,-19 12.5,0 90.5,0 90.5,-19"/>
<text text-anchor="middle" x="51.5" y="-7" font-family="Helvetica,sans-Serif" font-size="10.00">EthernetLink</text>
</a>
</g>
</g>
<!-- MulticastFailureProtectionShowcase&#45;&gt;EthernetLink -->
<g id="edge1" class="edge">
<title>MulticastFailureProtectionShowcase&#45;&gt;EthernetLink</title>
<path fill="none" stroke="black" d="M89.07,-54.75C82.65,-47.18 73.19,-36.05 65.38,-26.84"/>
<polygon fill="black" stroke="black" points="67.93,-24.45 58.79,-19.09 62.6,-28.98 67.93,-24.45"/>
</g>
<!-- TsnSwitch -->
<g id="node3" class="node">
<title>TsnSwitch</title>
<g id="a_node3"><a xlink:href="inet.node.tsn.TsnSwitch.html" xlink:title="Compound Module TsnSwitch" target="_parent">
<polygon fill="#fffcaf" stroke="black" points="174,-19 109,-19 109,0 174,0 174,-19"/>
<text text-anchor="middle" x="141.5" y="-7" font-family="Helvetica,sans-Serif" font-size="10.00">TsnSwitch</text>
</a>
</g>
</g>
<!-- MulticastFailureProtectionShowcase&#45;&gt;TsnSwitch -->
<g id="edge2" class="edge">
<title>MulticastFailureProtectionShowcase&#45;&gt;TsnSwitch</title>
<path fill="none" stroke="black" d="M103.93,-54.75C110.35,-47.18 119.81,-36.05 127.62,-26.84"/>
<polygon fill="black" stroke="black" points="130.4,-28.98 134.21,-19.09 125.07,-24.45 130.4,-28.98"/>
</g>
</g>
</svg>
