<?xml version="1.0" encoding="UTF-8" standalone="no"?>
<!DOCTYPE svg PUBLIC "-//W3C//DTD SVG 1.1//EN"
 "http://www.w3.org/Graphics/SVG/1.1/DTD/svg11.dtd">
<!-- Generated by graphviz version 2.43.0 (0)
 -->
<!-- Title: opp Pages: 1 -->
<svg width="301pt" height="82pt"
 viewBox="0.00 0.00 300.50 82.00" xmlns="http://www.w3.org/2000/svg" xmlns:xlink="http://www.w3.org/1999/xlink">
<g id="graph0" class="graph" transform="scale(1 1) rotate(0) translate(4 78)">
<title>opp</title>
<polygon fill="transparent" stroke="transparent" points="-4,4 -4,-78 296.5,-78 296.5,4 -4,4"/>
<!-- HubLAN -->
<g id="node1" class="node">
<title>HubLAN</title>
<g id="a_node1"><a xlink:href="inet.examples.ethernet.lans.HubLAN.html" xlink:title="Network HubLAN" target="_parent">
<polygon fill="#9090ff" stroke="black" points="165,-74 109,-74 109,-55 165,-55 165,-74"/>
<text text-anchor="middle" x="137" y="-62" font-family="Helvetica,sans-Serif" font-size="10.00">HubLAN</text>
</a>
</g>
</g>
<!-- EthernetHost -->
<g id="node2" class="node">
<title>EthernetHost</title>
<g id="a_node2"><a xlink:href="inet.node.ethernet.EthernetHost.html" xlink:title="Compound Module EthernetHost" target="_parent">
<polygon fill="#fffcaf" stroke="black" points="80,-19 0,-19 0,0 80,0 80,-19"/>
<text text-anchor="middle" x="40" y="-7" font-family="Helvetica,sans-Serif" font-size="10.00">EthernetHost</text>
</a>
</g>
</g>
<!-- HubLAN&#45;&gt;EthernetHost -->
<g id="edge1" class="edge">
<title>HubLAN&#45;&gt;EthernetHost</title>
<path fill="none" stroke="black" d="M121.42,-54.98C106.23,-46.69 82.9,-33.94 65.1,-24.22"/>
<polygon fill="black" stroke="black" points="66.32,-20.89 55.87,-19.17 62.97,-27.04 66.32,-20.89"/>
</g>
<!-- EthernetHub -->
<g id="node3" class="node">
<title>EthernetHub</title>
<g id="a_node3"><a xlink:href="inet.node.ethernet.EthernetHub.html" xlink:title="Simple Module EthernetHub" target="_parent">
<polygon fill="#fffcaf" stroke="black" points="175.5,-19 98.5,-19 98.5,0 175.5,0 175.5,-19"/>
<text text-anchor="middle" x="137" y="-7" font-family="Helvetica,sans-Serif" font-size="10.00">EthernetHub</text>
</a>
</g>
</g>
<!-- HubLAN&#45;&gt;EthernetHub -->
<g id="edge2" class="edge">
<title>HubLAN&#45;&gt;EthernetHub</title>
<path fill="none" stroke="black" d="M137,-54.75C137,-47.8 137,-37.85 137,-29.13"/>
<polygon fill="black" stroke="black" points="140.5,-29.09 137,-19.09 133.5,-29.09 140.5,-29.09"/>
</g>
<!-- DatarateChannel -->
<g id="node4" class="node">
<title>DatarateChannel</title>
<g id="a_node4"><a xlink:href="ned.DatarateChannel.html" xlink:title="Channel DatarateChannel" target="_parent">
<polygon fill="#d0ffd0" stroke="black" points="292.5,-19 193.5,-19 193.5,0 292.5,0 292.5,-19"/>
<text text-anchor="middle" x="243" y="-7" font-family="Helvetica,sans-Serif" font-size="10.00">DatarateChannel</text>
</a>
</g>
</g>
<!-- HubLAN&#45;&gt;DatarateChannel -->
<g id="edge3" class="edge">
<title>HubLAN&#45;&gt;DatarateChannel</title>
<path fill="none" stroke="black" d="M154.03,-54.98C170.93,-46.54 197.06,-33.47 216.64,-23.68"/>
<polygon fill="black" stroke="black" points="218.28,-26.77 225.66,-19.17 215.15,-20.51 218.28,-26.77"/>
</g>
</g>
</svg>
