<?xml version="1.0" encoding="UTF-8" standalone="no"?>
<!DOCTYPE svg PUBLIC "-//W3C//DTD SVG 1.1//EN"
 "http://www.w3.org/Graphics/SVG/1.1/DTD/svg11.dtd">
<!-- Generated by graphviz version 2.43.0 (0)
 -->
<!-- Title: opp Pages: 1 -->
<svg width="577pt" height="82pt"
 viewBox="0.00 0.00 576.50 82.00" xmlns="http://www.w3.org/2000/svg" xmlns:xlink="http://www.w3.org/1999/xlink">
<g id="graph0" class="graph" transform="scale(1 1) rotate(0) translate(4 78)">
<title>opp</title>
<polygon fill="transparent" stroke="transparent" points="-4,4 -4,-78 572.5,-78 572.5,4 -4,4"/>
<!-- AnalogModelShowcaseDistanceNetwork -->
<g id="node1" class="node">
<title>AnalogModelShowcaseDistanceNetwork</title>
<g id="a_node1"><a xlink:href="inet.showcases.wireless.analogmodel.AnalogModelShowcaseDistanceNetwork.html" xlink:title="Network AnalogModelShowcaseDistanceNetwork" target="_parent">
<polygon fill="#9090ff" stroke="black" points="395.5,-74 182.5,-74 182.5,-55 395.5,-55 395.5,-74"/>
<text text-anchor="middle" x="289" y="-62" font-family="Helvetica,sans-Serif" font-size="10.00">AnalogModelShowcaseDistanceNetwork</text>
</a>
</g>
</g>
<!-- IntegratedMultiVisualizer -->
<g id="node2" class="node">
<title>IntegratedMultiVisualizer</title>
<g id="a_node2"><a xlink:href="inet.visualizer.common.IntegratedMultiVisualizer.html" xlink:title="Compound Module IntegratedMultiVisualizer" target="_parent">
<polygon fill="#fffcaf" stroke="black" points="140,-19 0,-19 0,0 140,0 140,-19"/>
<text text-anchor="middle" x="70" y="-7" font-family="Helvetica,sans-Serif" font-size="10.00">IntegratedMultiVisualizer</text>
</a>
</g>
</g>
<!-- AnalogModelShowcaseDistanceNetwork&#45;&gt;IntegratedMultiVisualizer -->
<g id="edge1" class="edge">
<title>AnalogModelShowcaseDistanceNetwork&#45;&gt;IntegratedMultiVisualizer</title>
<path fill="none" stroke="black" d="M253.81,-54.98C216.17,-45.87 156.34,-31.4 115.23,-21.45"/>
<polygon fill="black" stroke="black" points="116,-18.03 105.46,-19.08 114.36,-24.84 116,-18.03"/>
</g>
<!-- Ipv4NetworkConfigurator -->
<g id="node3" class="node">
<title>Ipv4NetworkConfigurator</title>
<g id="a_node3"><a xlink:href="inet.networklayer.configurator.ipv4.Ipv4NetworkConfigurator.html" xlink:title="Simple Module Ipv4NetworkConfigurator" target="_parent">
<polygon fill="#fffcaf" stroke="black" points="298,-19 158,-19 158,0 298,0 298,-19"/>
<text text-anchor="middle" x="228" y="-7" font-family="Helvetica,sans-Serif" font-size="10.00">Ipv4NetworkConfigurator</text>
</a>
</g>
</g>
<!-- AnalogModelShowcaseDistanceNetwork&#45;&gt;Ipv4NetworkConfigurator -->
<g id="edge2" class="edge">
<title>AnalogModelShowcaseDistanceNetwork&#45;&gt;Ipv4NetworkConfigurator</title>
<path fill="none" stroke="black" d="M279.2,-54.98C270.18,-47.15 256.59,-35.34 245.68,-25.86"/>
<polygon fill="black" stroke="black" points="247.82,-23.09 237.98,-19.17 243.23,-28.37 247.82,-23.09"/>
</g>
<!-- AdhocHost -->
<g id="node4" class="node">
<title>AdhocHost</title>
<g id="a_node4"><a xlink:href="inet.node.inet.AdhocHost.html" xlink:title="Compound Module AdhocHost" target="_parent">
<polygon fill="#fffcaf" stroke="black" points="385.5,-19 316.5,-19 316.5,0 385.5,0 385.5,-19"/>
<text text-anchor="middle" x="351" y="-7" font-family="Helvetica,sans-Serif" font-size="10.00">AdhocHost</text>
</a>
</g>
</g>
<!-- AnalogModelShowcaseDistanceNetwork&#45;&gt;AdhocHost -->
<g id="edge3" class="edge">
<title>AnalogModelShowcaseDistanceNetwork&#45;&gt;AdhocHost</title>
<path fill="none" stroke="black" d="M298.96,-54.98C308.13,-47.15 321.94,-35.34 333.03,-25.86"/>
<polygon fill="black" stroke="black" points="335.53,-28.33 340.86,-19.17 330.98,-23.01 335.53,-28.33"/>
</g>
<!-- Ieee80211ScalarRadioMedium -->
<g id="node5" class="node">
<title>Ieee80211ScalarRadioMedium</title>
<g id="a_node5"><a xlink:href="inet.physicallayer.wireless.ieee80211.packetlevel.Ieee80211ScalarRadioMedium.html" xlink:title="Compound Module Ieee80211ScalarRadioMedium" target="_parent">
<polygon fill="#fffcaf" stroke="black" points="568.5,-19 403.5,-19 403.5,0 568.5,0 568.5,-19"/>
<text text-anchor="middle" x="486" y="-7" font-family="Helvetica,sans-Serif" font-size="10.00">Ieee80211ScalarRadioMedium</text>
</a>
</g>
</g>
<!-- AnalogModelShowcaseDistanceNetwork&#45;&gt;Ieee80211ScalarRadioMedium -->
<g id="edge4" class="edge">
<title>AnalogModelShowcaseDistanceNetwork&#45;&gt;Ieee80211ScalarRadioMedium</title>
<path fill="none" stroke="black" d="M320.65,-54.98C354.16,-45.97 407.2,-31.7 444.14,-21.76"/>
<polygon fill="black" stroke="black" points="445.35,-25.06 454.1,-19.08 443.53,-18.3 445.35,-25.06"/>
</g>
</g>
</svg>
