<?xml version="1.0" encoding="UTF-8" standalone="no"?>
<!DOCTYPE svg PUBLIC "-//W3C//DTD SVG 1.1//EN"
 "http://www.w3.org/Graphics/SVG/1.1/DTD/svg11.dtd">
<!-- Generated by graphviz version 2.43.0 (0)
 -->
<!-- Title: opp Pages: 1 -->
<svg width="338pt" height="82pt"
 viewBox="0.00 0.00 337.50 82.00" xmlns="http://www.w3.org/2000/svg" xmlns:xlink="http://www.w3.org/1999/xlink">
<g id="graph0" class="graph" transform="scale(1 1) rotate(0) translate(4 78)">
<title>opp</title>
<polygon fill="transparent" stroke="transparent" points="-4,4 -4,-78 333.5,-78 333.5,4 -4,4"/>
<!-- TelnetTutorialStep -->
<g id="node1" class="node">
<title>TelnetTutorialStep</title>
<g id="a_node1"><a xlink:href="inet.tutorials.queueing.TelnetTutorialStep.html" xlink:title="Network TelnetTutorialStep" target="_parent">
<polygon fill="#9090ff" stroke="black" points="204,-74 100,-74 100,-55 204,-55 204,-74"/>
<text text-anchor="middle" x="152" y="-62" font-family="Helvetica,sans-Serif" font-size="10.00">TelnetTutorialStep</text>
</a>
</g>
</g>
<!-- IdealChannel -->
<g id="node2" class="node">
<title>IdealChannel</title>
<g id="a_node2"><a xlink:href="ned.IdealChannel.html" xlink:title="Channel IdealChannel" target="_parent">
<polygon fill="#d0ffd0" stroke="black" points="80,-19 0,-19 0,0 80,0 80,-19"/>
<text text-anchor="middle" x="40" y="-7" font-family="Helvetica,sans-Serif" font-size="10.00">IdealChannel</text>
</a>
</g>
</g>
<!-- TelnetTutorialStep&#45;&gt;IdealChannel -->
<g id="edge1" class="edge">
<title>TelnetTutorialStep&#45;&gt;IdealChannel</title>
<path fill="none" stroke="black" d="M134.01,-54.98C116.07,-46.5 88.28,-33.35 67.57,-23.54"/>
<polygon fill="black" stroke="black" points="68.86,-20.28 58.32,-19.17 65.86,-26.61 68.86,-20.28"/>
</g>
<!-- TelnetServerTraffic -->
<g id="node3" class="node">
<title>TelnetServerTraffic</title>
<g id="a_node3"><a xlink:href="inet.tutorials.queueing.TelnetServerTraffic.html" xlink:title="Compound Module TelnetServerTraffic" target="_parent">
<polygon fill="#fffcaf" stroke="black" points="206,-19 98,-19 98,0 206,0 206,-19"/>
<text text-anchor="middle" x="152" y="-7" font-family="Helvetica,sans-Serif" font-size="10.00">TelnetServerTraffic</text>
</a>
</g>
</g>
<!-- TelnetTutorialStep&#45;&gt;TelnetServerTraffic -->
<g id="edge2" class="edge">
<title>TelnetTutorialStep&#45;&gt;TelnetServerTraffic</title>
<path fill="none" stroke="black" d="M152,-54.75C152,-47.8 152,-37.85 152,-29.13"/>
<polygon fill="black" stroke="black" points="155.5,-29.09 152,-19.09 148.5,-29.09 155.5,-29.09"/>
</g>
<!-- TelnetClientTraffic -->
<g id="node4" class="node">
<title>TelnetClientTraffic</title>
<g id="a_node4"><a xlink:href="inet.tutorials.queueing.TelnetClientTraffic.html" xlink:title="Compound Module TelnetClientTraffic" target="_parent">
<polygon fill="#fffcaf" stroke="black" points="329.5,-19 224.5,-19 224.5,0 329.5,0 329.5,-19"/>
<text text-anchor="middle" x="277" y="-7" font-family="Helvetica,sans-Serif" font-size="10.00">TelnetClientTraffic</text>
</a>
</g>
</g>
<!-- TelnetTutorialStep&#45;&gt;TelnetClientTraffic -->
<g id="edge3" class="edge">
<title>TelnetTutorialStep&#45;&gt;TelnetClientTraffic</title>
<path fill="none" stroke="black" d="M172.08,-54.98C192.37,-46.38 223.96,-32.99 247.17,-23.15"/>
<polygon fill="black" stroke="black" points="248.71,-26.3 256.55,-19.17 245.98,-19.85 248.71,-26.3"/>
</g>
</g>
</svg>
