<?xml version="1.0" encoding="UTF-8" standalone="no"?>
<!DOCTYPE svg PUBLIC "-//W3C//DTD SVG 1.1//EN"
 "http://www.w3.org/Graphics/SVG/1.1/DTD/svg11.dtd">
<!-- Generated by graphviz version 2.43.0 (0)
 -->
<!-- Title: opp Pages: 1 -->
<svg width="170pt" height="82pt"
 viewBox="0.00 0.00 169.50 82.00" xmlns="http://www.w3.org/2000/svg" xmlns:xlink="http://www.w3.org/1999/xlink">
<g id="graph0" class="graph" transform="scale(1 1) rotate(0) translate(4 78)">
<title>opp</title>
<polygon fill="transparent" stroke="transparent" points="-4,4 -4,-78 165.5,-78 165.5,4 -4,4"/>
<!-- LoopbackInterface -->
<g id="node1" class="node">
<title>LoopbackInterface</title>
<g id="a_node1"><a xlink:href="inet.linklayer.loopback.LoopbackInterface.html" xlink:title="Compound Module LoopbackInterface" target="_parent">
<polygon fill="#fff700" stroke="black" points="138.5,-74 31.5,-74 31.5,-55 138.5,-55 138.5,-74"/>
<text text-anchor="middle" x="85" y="-62" font-family="Helvetica,sans-Serif" font-size="10.00">LoopbackInterface</text>
</a>
</g>
</g>
<!-- IdealChannel -->
<g id="node2" class="node">
<title>IdealChannel</title>
<g id="a_node2"><a xlink:href="ned.IdealChannel.html" xlink:title="Channel IdealChannel" target="_parent">
<polygon fill="#d0ffd0" stroke="black" points="80,-19 0,-19 0,0 80,0 80,-19"/>
<text text-anchor="middle" x="40" y="-7" font-family="Helvetica,sans-Serif" font-size="10.00">IdealChannel</text>
</a>
</g>
</g>
<!-- LoopbackInterface&#45;&gt;IdealChannel -->
<g id="edge1" class="edge">
<title>LoopbackInterface&#45;&gt;IdealChannel</title>
<path fill="none" stroke="black" d="M77.57,-54.75C71.15,-47.18 61.69,-36.05 53.88,-26.84"/>
<polygon fill="black" stroke="black" points="56.43,-24.45 47.29,-19.09 51.1,-28.98 56.43,-24.45"/>
</g>
<!-- Loopback -->
<g id="node3" class="node">
<title>Loopback</title>
<g id="a_node3"><a xlink:href="inet.linklayer.loopback.Loopback.html" xlink:title="Simple Module Loopback" target="_parent">
<polygon fill="#fffcaf" stroke="black" points="161.5,-19 98.5,-19 98.5,0 161.5,0 161.5,-19"/>
<text text-anchor="middle" x="130" y="-7" font-family="Helvetica,sans-Serif" font-size="10.00">Loopback</text>
</a>
</g>
</g>
<!-- LoopbackInterface&#45;&gt;Loopback -->
<g id="edge2" class="edge">
<title>LoopbackInterface&#45;&gt;Loopback</title>
<path fill="none" stroke="black" d="M92.43,-54.75C98.85,-47.18 108.31,-36.05 116.12,-26.84"/>
<polygon fill="black" stroke="black" points="118.9,-28.98 122.71,-19.09 113.57,-24.45 118.9,-28.98"/>
</g>
</g>
</svg>
