<?xml version="1.0" encoding="UTF-8" standalone="no"?>
<!DOCTYPE svg PUBLIC "-//W3C//DTD SVG 1.1//EN"
 "http://www.w3.org/Graphics/SVG/1.1/DTD/svg11.dtd">
<!-- Generated by graphviz version 2.43.0 (0)
 -->
<!-- Title: opp Pages: 1 -->
<svg width="264pt" height="137pt"
 viewBox="0.00 0.00 263.50 137.00" xmlns="http://www.w3.org/2000/svg" xmlns:xlink="http://www.w3.org/1999/xlink">
<g id="graph0" class="graph" transform="scale(1 1) rotate(0) translate(4 133)">
<title>opp</title>
<polygon fill="transparent" stroke="transparent" points="-4,4 -4,-133 259.5,-133 259.5,4 -4,4"/>
<!-- PacketQueueBase -->
<g id="node1" class="node">
<title>PacketQueueBase</title>
<g id="a_node1"><a xlink:href="inet.queueing.base.PacketQueueBase.html" xlink:title="Simple Module PacketQueueBase" target="_parent">
<polygon fill="#fff700" stroke="black" points="198.5,-74 94.5,-74 94.5,-55 198.5,-55 198.5,-74"/>
<text text-anchor="middle" x="146.5" y="-62" font-family="Helvetica,sans-Serif" font-size="10.00">PacketQueueBase</text>
</a>
</g>
</g>
<!-- CompoundPacketQueueBase -->
<g id="node3" class="node">
<title>CompoundPacketQueueBase</title>
<g id="a_node3"><a xlink:href="inet.queueing.queue.CompoundPacketQueueBase.html" xlink:title="Compound Module CompoundPacketQueueBase" target="_parent">
<polygon fill="#fffcaf" stroke="black" points="157,-19 0,-19 0,0 157,0 157,-19"/>
<text text-anchor="middle" x="78.5" y="-7" font-family="Helvetica,sans-Serif" font-size="10.00">CompoundPacketQueueBase</text>
</a>
</g>
</g>
<!-- PacketQueueBase&#45;&gt;CompoundPacketQueueBase -->
<g id="edge2" class="edge">
<title>PacketQueueBase&#45;&gt;CompoundPacketQueueBase</title>
<path fill="none" stroke="black" d="M135.57,-54.98C122.96,-45.15 102.32,-29.07 89.62,-19.17"/>
</g>
<!-- PacketQueue -->
<g id="node4" class="node">
<title>PacketQueue</title>
<g id="a_node4"><a xlink:href="inet.queueing.queue.PacketQueue.html" xlink:title="Simple Module PacketQueue" target="_parent">
<polygon fill="#fffcaf" stroke="black" points="255.5,-19 175.5,-19 175.5,0 255.5,0 255.5,-19"/>
<text text-anchor="middle" x="215.5" y="-7" font-family="Helvetica,sans-Serif" font-size="10.00">PacketQueue</text>
</a>
</g>
</g>
<!-- PacketQueueBase&#45;&gt;PacketQueue -->
<g id="edge3" class="edge">
<title>PacketQueueBase&#45;&gt;PacketQueue</title>
<path fill="none" stroke="black" d="M157.59,-54.98C170.39,-45.15 191.33,-29.07 204.21,-19.17"/>
</g>
<!-- PacketProcessorBase -->
<g id="node2" class="node">
<title>PacketProcessorBase</title>
<g id="a_node2"><a xlink:href="inet.queueing.base.PacketProcessorBase.html" xlink:title="Simple Module PacketProcessorBase" target="_parent">
<polygon fill="#fffcaf" stroke="black" points="206.5,-129 86.5,-129 86.5,-110 206.5,-110 206.5,-129"/>
<text text-anchor="middle" x="146.5" y="-117" font-family="Helvetica,sans-Serif" font-size="10.00">PacketProcessorBase</text>
</a>
</g>
</g>
<!-- PacketProcessorBase&#45;&gt;PacketQueueBase -->
<g id="edge1" class="edge">
<title>PacketProcessorBase&#45;&gt;PacketQueueBase</title>
<path fill="none" stroke="black" d="M146.5,-109.75C146.5,-99.87 146.5,-83.9 146.5,-74.09"/>
</g>
</g>
</svg>
