<?xml version="1.0" encoding="UTF-8" standalone="no"?>
<!DOCTYPE svg PUBLIC "-//W3C//DTD SVG 1.1//EN"
 "http://www.w3.org/Graphics/SVG/1.1/DTD/svg11.dtd">
<!-- Generated by graphviz version 2.43.0 (0)
 -->
<!-- Title: opp Pages: 1 -->
<svg width="675pt" height="82pt"
 viewBox="0.00 0.00 674.50 82.00" xmlns="http://www.w3.org/2000/svg" xmlns:xlink="http://www.w3.org/1999/xlink">
<g id="graph0" class="graph" transform="scale(1 1) rotate(0) translate(4 78)">
<title>opp</title>
<polygon fill="transparent" stroke="transparent" points="-4,4 -4,-78 670.5,-78 670.5,4 -4,4"/>
<!-- BgpNetwork -->
<g id="node1" class="node">
<title>BgpNetwork</title>
<g id="a_node1"><a xlink:href="inet.examples.bgpv4.BgpAndOspfSimple.BgpNetwork.html" xlink:title="Network BgpNetwork" target="_parent">
<polygon fill="#9090ff" stroke="black" points="319,-74 242,-74 242,-55 319,-55 319,-74"/>
<text text-anchor="middle" x="280.5" y="-62" font-family="Helvetica,sans-Serif" font-size="10.00">BgpNetwork</text>
</a>
</g>
</g>
<!-- OspfRouter -->
<g id="node2" class="node">
<title>OspfRouter</title>
<g id="a_node2"><a xlink:href="inet.node.ospfv2.OspfRouter.html" xlink:title="Compound Module OspfRouter" target="_parent">
<polygon fill="#fffcaf" stroke="black" points="71,-19 0,-19 0,0 71,0 71,-19"/>
<text text-anchor="middle" x="35.5" y="-7" font-family="Helvetica,sans-Serif" font-size="10.00">OspfRouter</text>
</a>
</g>
</g>
<!-- BgpNetwork&#45;&gt;OspfRouter -->
<g id="edge1" class="edge">
<title>BgpNetwork&#45;&gt;OspfRouter</title>
<path fill="none" stroke="black" d="M241.95,-55.16C198.35,-45.73 127.42,-30.38 81.1,-20.37"/>
<polygon fill="black" stroke="black" points="81.56,-16.88 71.04,-18.19 80.08,-23.72 81.56,-16.88"/>
</g>
<!-- StandardHost -->
<g id="node3" class="node">
<title>StandardHost</title>
<g id="a_node3"><a xlink:href="inet.node.inet.StandardHost.html" xlink:title="Compound Module StandardHost" target="_parent">
<polygon fill="#fffcaf" stroke="black" points="172,-19 89,-19 89,0 172,0 172,-19"/>
<text text-anchor="middle" x="130.5" y="-7" font-family="Helvetica,sans-Serif" font-size="10.00">StandardHost</text>
</a>
</g>
</g>
<!-- BgpNetwork&#45;&gt;StandardHost -->
<g id="edge2" class="edge">
<title>BgpNetwork&#45;&gt;StandardHost</title>
<path fill="none" stroke="black" d="M256.4,-54.98C231.62,-46.23 192.8,-32.51 164.81,-22.62"/>
<polygon fill="black" stroke="black" points="165.63,-19.2 155.04,-19.17 163.3,-25.8 165.63,-19.2"/>
</g>
<!-- LINK_100 -->
<g id="node4" class="node">
<title>LINK_100</title>
<g id="a_node4"><a xlink:href="inet.examples.bgpv4.BgpAndOspfSimple.BgpNetwork.LINK_100.html" xlink:title="Channel LINK_100" target="_parent">
<polygon fill="#d0ffd0" stroke="black" points="252.5,-19 190.5,-19 190.5,0 252.5,0 252.5,-19"/>
<text text-anchor="middle" x="221.5" y="-7" font-family="Helvetica,sans-Serif" font-size="10.00">LINK_100</text>
</a>
</g>
</g>
<!-- BgpNetwork&#45;&gt;LINK_100 -->
<g id="edge3" class="edge">
<title>BgpNetwork&#45;&gt;LINK_100</title>
<path fill="none" stroke="black" d="M271.02,-54.98C262.3,-47.15 249.16,-35.34 238.6,-25.86"/>
<polygon fill="black" stroke="black" points="240.93,-23.25 231.15,-19.17 236.25,-28.46 240.93,-23.25"/>
</g>
<!-- Ipv4NetworkConfigurator -->
<g id="node5" class="node">
<title>Ipv4NetworkConfigurator</title>
<g id="a_node5"><a xlink:href="inet.networklayer.configurator.ipv4.Ipv4NetworkConfigurator.html" xlink:title="Simple Module Ipv4NetworkConfigurator" target="_parent">
<polygon fill="#fffcaf" stroke="black" points="410.5,-19 270.5,-19 270.5,0 410.5,0 410.5,-19"/>
<text text-anchor="middle" x="340.5" y="-7" font-family="Helvetica,sans-Serif" font-size="10.00">Ipv4NetworkConfigurator</text>
</a>
</g>
</g>
<!-- BgpNetwork&#45;&gt;Ipv4NetworkConfigurator -->
<g id="edge4" class="edge">
<title>BgpNetwork&#45;&gt;Ipv4NetworkConfigurator</title>
<path fill="none" stroke="black" d="M290.14,-54.98C299.01,-47.15 312.37,-35.34 323.11,-25.86"/>
<polygon fill="black" stroke="black" points="325.51,-28.41 330.68,-19.17 320.87,-23.17 325.51,-28.41"/>
</g>
<!-- IntegratedCanvasVisualizer -->
<g id="node6" class="node">
<title>IntegratedCanvasVisualizer</title>
<g id="a_node6"><a xlink:href="inet.visualizer.canvas.integrated.IntegratedCanvasVisualizer.html" xlink:title="Compound Module IntegratedCanvasVisualizer" target="_parent">
<polygon fill="#fffcaf" stroke="black" points="580,-19 429,-19 429,0 580,0 580,-19"/>
<text text-anchor="middle" x="504.5" y="-7" font-family="Helvetica,sans-Serif" font-size="10.00">IntegratedCanvasVisualizer</text>
</a>
</g>
</g>
<!-- BgpNetwork&#45;&gt;IntegratedCanvasVisualizer -->
<g id="edge5" class="edge">
<title>BgpNetwork&#45;&gt;IntegratedCanvasVisualizer</title>
<path fill="none" stroke="black" d="M316.49,-54.98C354.99,-45.87 416.19,-31.4 458.24,-21.45"/>
<polygon fill="black" stroke="black" points="459.3,-24.79 468.23,-19.08 457.69,-17.98 459.3,-24.79"/>
</g>
<!-- BgpRouter -->
<g id="node7" class="node">
<title>BgpRouter</title>
<g id="a_node7"><a xlink:href="inet.node.bgp.BgpRouter.html" xlink:title="Compound Module BgpRouter" target="_parent">
<polygon fill="#fffcaf" stroke="black" points="666.5,-19 598.5,-19 598.5,0 666.5,0 666.5,-19"/>
<text text-anchor="middle" x="632.5" y="-7" font-family="Helvetica,sans-Serif" font-size="10.00">BgpRouter</text>
</a>
</g>
</g>
<!-- BgpNetwork&#45;&gt;BgpRouter -->
<g id="edge6" class="edge">
<title>BgpNetwork&#45;&gt;BgpRouter</title>
<path fill="none" stroke="black" d="M319.14,-58.59C375.91,-51.24 485.41,-36.51 588.33,-19.13"/>
<polygon fill="black" stroke="black" points="588.99,-22.56 598.26,-17.44 587.82,-15.66 588.99,-22.56"/>
</g>
</g>
</svg>
