<?xml version="1.0" encoding="UTF-8" standalone="no"?>
<!DOCTYPE svg PUBLIC "-//W3C//DTD SVG 1.1//EN"
 "http://www.w3.org/Graphics/SVG/1.1/DTD/svg11.dtd">
<!-- Generated by graphviz version 2.43.0 (0)
 -->
<!-- Title: opp Pages: 1 -->
<svg width="421pt" height="82pt"
 viewBox="0.00 0.00 420.50 82.00" xmlns="http://www.w3.org/2000/svg" xmlns:xlink="http://www.w3.org/1999/xlink">
<g id="graph0" class="graph" transform="scale(1 1) rotate(0) translate(4 78)">
<title>opp</title>
<polygon fill="transparent" stroke="transparent" points="-4,4 -4,-78 416.5,-78 416.5,4 -4,4"/>
<!-- NClientsPPP -->
<g id="node1" class="node">
<title>NClientsPPP</title>
<g id="a_node1"><a xlink:href="inet.examples.ipv6.nclients.NClientsPPP.html" xlink:title="Network NClientsPPP" target="_parent">
<polygon fill="#9090ff" stroke="black" points="202.5,-74 126.5,-74 126.5,-55 202.5,-55 202.5,-74"/>
<text text-anchor="middle" x="164.5" y="-62" font-family="Helvetica,sans-Serif" font-size="10.00">NClientsPPP</text>
</a>
</g>
</g>
<!-- fiberline -->
<g id="node2" class="node">
<title>fiberline</title>
<g id="a_node2"><a xlink:href="inet.examples.ipv6.nclients.NClientsPPP.fiberline.html" xlink:title="Channel fiberline" target="_parent">
<polygon fill="#d0ffd0" stroke="black" points="57,-19 0,-19 0,0 57,0 57,-19"/>
<text text-anchor="middle" x="28.5" y="-7" font-family="Helvetica,sans-Serif" font-size="10.00">fiberline</text>
</a>
</g>
</g>
<!-- NClientsPPP&#45;&gt;fiberline -->
<g id="edge1" class="edge">
<title>NClientsPPP&#45;&gt;fiberline</title>
<path fill="none" stroke="black" d="M142.65,-54.98C120.38,-46.3 85.6,-32.75 60.28,-22.88"/>
<polygon fill="black" stroke="black" points="61.34,-19.54 50.75,-19.17 58.79,-26.06 61.34,-19.54"/>
</g>
<!-- StandardHost6 -->
<g id="node3" class="node">
<title>StandardHost6</title>
<g id="a_node3"><a xlink:href="inet.node.ipv6.StandardHost6.html" xlink:title="Compound Module StandardHost6" target="_parent">
<polygon fill="#fffcaf" stroke="black" points="164,-19 75,-19 75,0 164,0 164,-19"/>
<text text-anchor="middle" x="119.5" y="-7" font-family="Helvetica,sans-Serif" font-size="10.00">StandardHost6</text>
</a>
</g>
</g>
<!-- NClientsPPP&#45;&gt;StandardHost6 -->
<g id="edge2" class="edge">
<title>NClientsPPP&#45;&gt;StandardHost6</title>
<path fill="none" stroke="black" d="M157.07,-54.75C150.65,-47.18 141.19,-36.05 133.38,-26.84"/>
<polygon fill="black" stroke="black" points="135.93,-24.45 126.79,-19.09 130.6,-28.98 135.93,-24.45"/>
</g>
<!-- Router6 -->
<g id="node4" class="node">
<title>Router6</title>
<g id="a_node4"><a xlink:href="inet.node.ipv6.Router6.html" xlink:title="Compound Module Router6" target="_parent">
<polygon fill="#fffcaf" stroke="black" points="237,-19 182,-19 182,0 237,0 237,-19"/>
<text text-anchor="middle" x="209.5" y="-7" font-family="Helvetica,sans-Serif" font-size="10.00">Router6</text>
</a>
</g>
</g>
<!-- NClientsPPP&#45;&gt;Router6 -->
<g id="edge3" class="edge">
<title>NClientsPPP&#45;&gt;Router6</title>
<path fill="none" stroke="black" d="M171.93,-54.75C178.35,-47.18 187.81,-36.05 195.62,-26.84"/>
<polygon fill="black" stroke="black" points="198.4,-28.98 202.21,-19.09 193.07,-24.45 198.4,-28.98"/>
</g>
<!-- Ipv6FlatNetworkConfigurator -->
<g id="node5" class="node">
<title>Ipv6FlatNetworkConfigurator</title>
<g id="a_node5"><a xlink:href="inet.networklayer.configurator.ipv6.Ipv6FlatNetworkConfigurator.html" xlink:title="Simple Module Ipv6FlatNetworkConfigurator" target="_parent">
<polygon fill="#fffcaf" stroke="black" points="412.5,-19 254.5,-19 254.5,0 412.5,0 412.5,-19"/>
<text text-anchor="middle" x="333.5" y="-7" font-family="Helvetica,sans-Serif" font-size="10.00">Ipv6FlatNetworkConfigurator</text>
</a>
</g>
</g>
<!-- NClientsPPP&#45;&gt;Ipv6FlatNetworkConfigurator -->
<g id="edge4" class="edge">
<title>NClientsPPP&#45;&gt;Ipv6FlatNetworkConfigurator</title>
<path fill="none" stroke="black" d="M191.65,-54.98C220.03,-46.09 264.73,-32.07 296.36,-22.15"/>
<polygon fill="black" stroke="black" points="297.64,-25.41 306.13,-19.08 295.55,-18.73 297.64,-25.41"/>
</g>
</g>
</svg>
