<?xml version="1.0" encoding="UTF-8" standalone="no"?>
<!DOCTYPE svg PUBLIC "-//W3C//DTD SVG 1.1//EN"
 "http://www.w3.org/Graphics/SVG/1.1/DTD/svg11.dtd">
<!-- Generated by graphviz version 2.43.0 (0)
 -->
<!-- Title: opp Pages: 1 -->
<svg width="250pt" height="82pt"
 viewBox="0.00 0.00 250.00 82.00" xmlns="http://www.w3.org/2000/svg" xmlns:xlink="http://www.w3.org/1999/xlink">
<g id="graph0" class="graph" transform="scale(1 1) rotate(0) translate(4 78)">
<title>opp</title>
<polygon fill="transparent" stroke="transparent" points="-4,4 -4,-78 246,-78 246,4 -4,4"/>
<!-- PacketDemultiplexer -->
<g id="node1" class="node">
<title>PacketDemultiplexer</title>
<g id="a_node1"><a xlink:href="inet.queueing.common.PacketDemultiplexer.html" xlink:title="Simple Module PacketDemultiplexer" target="_parent">
<polygon fill="#fff700" stroke="black" points="184.5,-19 65.5,-19 65.5,0 184.5,0 184.5,-19"/>
<text text-anchor="middle" x="125" y="-7" font-family="Helvetica,sans-Serif" font-size="10.00">PacketDemultiplexer</text>
</a>
</g>
</g>
<!-- PacketProcessorBase -->
<g id="node2" class="node">
<title>PacketProcessorBase</title>
<g id="a_node2"><a xlink:href="inet.queueing.base.PacketProcessorBase.html" xlink:title="Simple Module PacketProcessorBase" target="_parent">
<polygon fill="#fffcaf" stroke="black" points="120,-74 0,-74 0,-55 120,-55 120,-74"/>
<text text-anchor="middle" x="60" y="-62" font-family="Helvetica,sans-Serif" font-size="10.00">PacketProcessorBase</text>
</a>
</g>
</g>
<!-- PacketProcessorBase&#45;&gt;PacketDemultiplexer -->
<g id="edge1" class="edge">
<title>PacketProcessorBase&#45;&gt;PacketDemultiplexer</title>
<path fill="none" stroke="black" d="M70.44,-54.98C82.5,-45.15 102.23,-29.07 114.37,-19.17"/>
</g>
<!-- IActivePacketSink -->
<g id="node3" class="node">
<title>IActivePacketSink</title>
<g id="a_node3"><a xlink:href="inet.queueing.contract.IActivePacketSink.html" xlink:title="Module Interface IActivePacketSink" target="_parent">
<polygon fill="#fffcaf" stroke="black" stroke-dasharray="5,2" points="242,-74 138,-74 138,-55 242,-55 242,-74"/>
<text text-anchor="middle" x="190" y="-62" font-family="Helvetica,sans-Serif" font-size="10.00">IActivePacketSink</text>
</a>
</g>
</g>
<!-- IActivePacketSink&#45;&gt;PacketDemultiplexer -->
<g id="edge2" class="edge">
<title>IActivePacketSink&#45;&gt;PacketDemultiplexer</title>
<path fill="none" stroke="black" stroke-dasharray="5,2" d="M179.56,-54.98C167.5,-45.15 147.77,-29.07 135.63,-19.17"/>
</g>
</g>
</svg>
