<?xml version="1.0" encoding="UTF-8" standalone="no"?>
<!DOCTYPE svg PUBLIC "-//W3C//DTD SVG 1.1//EN"
 "http://www.w3.org/Graphics/SVG/1.1/DTD/svg11.dtd">
<!-- Generated by graphviz version 2.43.0 (0)
 -->
<!-- Title: opp Pages: 1 -->
<svg width="873pt" height="82pt"
 viewBox="0.00 0.00 872.50 82.00" xmlns="http://www.w3.org/2000/svg" xmlns:xlink="http://www.w3.org/1999/xlink">
<g id="graph0" class="graph" transform="scale(1 1) rotate(0) translate(4 78)">
<title>opp</title>
<polygon fill="transparent" stroke="transparent" points="-4,4 -4,-78 868.5,-78 868.5,4 -4,4"/>
<!-- INetworkConfigurator -->
<g id="node1" class="node">
<title>INetworkConfigurator</title>
<g id="a_node1"><a xlink:href="inet.networklayer.configurator.contract.INetworkConfigurator.html" xlink:title="Module Interface INetworkConfigurator" target="_parent">
<polygon fill="#fff700" stroke="black" stroke-dasharray="5,2" points="521,-74 399,-74 399,-55 521,-55 521,-74"/>
<text text-anchor="middle" x="460" y="-62" font-family="Helvetica,sans-Serif" font-size="10.00">INetworkConfigurator</text>
</a>
</g>
</g>
<!-- FailureProtectionConfigurator -->
<g id="node2" class="node">
<title>FailureProtectionConfigurator</title>
<g id="a_node2"><a xlink:href="inet.linklayer.configurator.FailureProtectionConfigurator.html" xlink:title="Simple Module FailureProtectionConfigurator" target="_parent">
<polygon fill="#fffcaf" stroke="black" points="160,-19 0,-19 0,0 160,0 160,-19"/>
<text text-anchor="middle" x="80" y="-7" font-family="Helvetica,sans-Serif" font-size="10.00">FailureProtectionConfigurator</text>
</a>
</g>
</g>
<!-- INetworkConfigurator&#45;&gt;FailureProtectionConfigurator -->
<g id="edge1" class="edge">
<title>INetworkConfigurator&#45;&gt;FailureProtectionConfigurator</title>
<path fill="none" stroke="black" stroke-dasharray="5,2" d="M398.95,-54.98C328.14,-45.11 212.09,-28.92 141.22,-19.04"/>
</g>
<!-- MacForwardingTableConfigurator -->
<g id="node3" class="node">
<title>MacForwardingTableConfigurator</title>
<g id="a_node3"><a xlink:href="inet.linklayer.configurator.MacForwardingTableConfigurator.html" xlink:title="Simple Module MacForwardingTableConfigurator" target="_parent">
<polygon fill="#fffcaf" stroke="black" points="355.5,-19 178.5,-19 178.5,0 355.5,0 355.5,-19"/>
<text text-anchor="middle" x="267" y="-7" font-family="Helvetica,sans-Serif" font-size="10.00">MacForwardingTableConfigurator</text>
</a>
</g>
</g>
<!-- INetworkConfigurator&#45;&gt;MacForwardingTableConfigurator -->
<g id="edge2" class="edge">
<title>INetworkConfigurator&#45;&gt;MacForwardingTableConfigurator</title>
<path fill="none" stroke="black" stroke-dasharray="5,2" d="M428.99,-54.98C393.08,-45.12 334.26,-28.97 298.25,-19.08"/>
</g>
<!-- StreamRedundancyConfigurator -->
<g id="node4" class="node">
<title>StreamRedundancyConfigurator</title>
<g id="a_node4"><a xlink:href="inet.linklayer.configurator.StreamRedundancyConfigurator.html" xlink:title="Simple Module StreamRedundancyConfigurator" target="_parent">
<polygon fill="#fffcaf" stroke="black" points="546.5,-19 373.5,-19 373.5,0 546.5,0 546.5,-19"/>
<text text-anchor="middle" x="460" y="-7" font-family="Helvetica,sans-Serif" font-size="10.00">StreamRedundancyConfigurator</text>
</a>
</g>
</g>
<!-- INetworkConfigurator&#45;&gt;StreamRedundancyConfigurator -->
<g id="edge3" class="edge">
<title>INetworkConfigurator&#45;&gt;StreamRedundancyConfigurator</title>
<path fill="none" stroke="black" stroke-dasharray="5,2" d="M460,-54.75C460,-44.87 460,-28.9 460,-19.09"/>
</g>
<!-- IGateScheduleConfigurator -->
<g id="node5" class="node">
<title>IGateScheduleConfigurator</title>
<g id="a_node5"><a xlink:href="inet.linklayer.configurator.gatescheduling.contract.IGateScheduleConfigurator.html" xlink:title="Module Interface IGateScheduleConfigurator" target="_parent">
<polygon fill="#fffcaf" stroke="black" stroke-dasharray="5,2" points="713,-19 565,-19 565,0 713,0 713,-19"/>
<text text-anchor="middle" x="639" y="-7" font-family="Helvetica,sans-Serif" font-size="10.00">IGateScheduleConfigurator</text>
</a>
</g>
</g>
<!-- INetworkConfigurator&#45;&gt;IGateScheduleConfigurator -->
<g id="edge4" class="edge">
<title>INetworkConfigurator&#45;&gt;IGateScheduleConfigurator</title>
<path fill="none" stroke="black" d="M488.76,-54.98C522.06,-45.12 576.62,-28.97 610.02,-19.08"/>
</g>
<!-- IL3NetworkConfigurator -->
<g id="node6" class="node">
<title>IL3NetworkConfigurator</title>
<g id="a_node6"><a xlink:href="inet.networklayer.configurator.contract.IL3NetworkConfigurator.html" xlink:title="Module Interface IL3NetworkConfigurator" target="_parent">
<polygon fill="#fffcaf" stroke="black" stroke-dasharray="5,2" points="864.5,-19 731.5,-19 731.5,0 864.5,0 864.5,-19"/>
<text text-anchor="middle" x="798" y="-7" font-family="Helvetica,sans-Serif" font-size="10.00">IL3NetworkConfigurator</text>
</a>
</g>
</g>
<!-- INetworkConfigurator&#45;&gt;IL3NetworkConfigurator -->
<g id="edge5" class="edge">
<title>INetworkConfigurator&#45;&gt;IL3NetworkConfigurator</title>
<path fill="none" stroke="black" d="M514.31,-54.98C577.29,-45.11 680.51,-28.92 743.55,-19.04"/>
</g>
</g>
</svg>
