<?xml version="1.0" encoding="UTF-8" standalone="no"?>
<!DOCTYPE svg PUBLIC "-//W3C//DTD SVG 1.1//EN"
 "http://www.w3.org/Graphics/SVG/1.1/DTD/svg11.dtd">
<!-- Generated by graphviz version 2.43.0 (0)
 -->
<!-- Title: opp Pages: 1 -->
<svg width="794pt" height="82pt"
 viewBox="0.00 0.00 793.50 82.00" xmlns="http://www.w3.org/2000/svg" xmlns:xlink="http://www.w3.org/1999/xlink">
<g id="graph0" class="graph" transform="scale(1 1) rotate(0) translate(4 78)">
<title>opp</title>
<polygon fill="transparent" stroke="transparent" points="-4,4 -4,-78 789.5,-78 789.5,4 -4,4"/>
<!-- SpectrumShowcaseSpectrumFigureSpectrogramNetwork -->
<g id="node1" class="node">
<title>SpectrumShowcaseSpectrumFigureSpectrogramNetwork</title>
<g id="a_node1"><a xlink:href="inet.showcases.visualizer.canvas.spectrum.SpectrumShowcaseSpectrumFigureSpectrogramNetwork.html" xlink:title="Network SpectrumShowcaseSpectrumFigureSpectrogramNetwork" target="_parent">
<polygon fill="#9090ff" stroke="black" points="641,-74 350,-74 350,-55 641,-55 641,-74"/>
<text text-anchor="middle" x="495.5" y="-62" font-family="Helvetica,sans-Serif" font-size="10.00">SpectrumShowcaseSpectrumFigureSpectrogramNetwork</text>
</a>
</g>
</g>
<!-- Ieee80211DimensionalRadioMedium -->
<g id="node2" class="node">
<title>Ieee80211DimensionalRadioMedium</title>
<g id="a_node2"><a xlink:href="inet.physicallayer.wireless.ieee80211.packetlevel.Ieee80211DimensionalRadioMedium.html" xlink:title="Compound Module Ieee80211DimensionalRadioMedium" target="_parent">
<polygon fill="#fffcaf" stroke="black" points="197,-19 0,-19 0,0 197,0 197,-19"/>
<text text-anchor="middle" x="98.5" y="-7" font-family="Helvetica,sans-Serif" font-size="10.00">Ieee80211DimensionalRadioMedium</text>
</a>
</g>
</g>
<!-- SpectrumShowcaseSpectrumFigureSpectrogramNetwork&#45;&gt;Ieee80211DimensionalRadioMedium -->
<g id="edge1" class="edge">
<title>SpectrumShowcaseSpectrumFigureSpectrogramNetwork&#45;&gt;Ieee80211DimensionalRadioMedium</title>
<path fill="none" stroke="black" d="M431.72,-54.98C361.06,-45.55 247.3,-30.36 172.71,-20.41"/>
<polygon fill="black" stroke="black" points="172.83,-16.89 162.46,-19.04 171.9,-23.83 172.83,-16.89"/>
</g>
<!-- PhysicalEnvironment -->
<g id="node3" class="node">
<title>PhysicalEnvironment</title>
<g id="a_node3"><a xlink:href="inet.environment.common.PhysicalEnvironment.html" xlink:title="Compound Module PhysicalEnvironment" target="_parent">
<polygon fill="#fffcaf" stroke="black" points="334,-19 215,-19 215,0 334,0 334,-19"/>
<text text-anchor="middle" x="274.5" y="-7" font-family="Helvetica,sans-Serif" font-size="10.00">PhysicalEnvironment</text>
</a>
</g>
</g>
<!-- SpectrumShowcaseSpectrumFigureSpectrogramNetwork&#45;&gt;PhysicalEnvironment -->
<g id="edge2" class="edge">
<title>SpectrumShowcaseSpectrumFigureSpectrogramNetwork&#45;&gt;PhysicalEnvironment</title>
<path fill="none" stroke="black" d="M459.99,-54.98C422.01,-45.87 361.63,-31.4 320.14,-21.45"/>
<polygon fill="black" stroke="black" points="320.83,-18.01 310.29,-19.08 319.19,-24.82 320.83,-18.01"/>
</g>
<!-- Ipv4NetworkConfigurator -->
<g id="node4" class="node">
<title>Ipv4NetworkConfigurator</title>
<g id="a_node4"><a xlink:href="inet.networklayer.configurator.ipv4.Ipv4NetworkConfigurator.html" xlink:title="Simple Module Ipv4NetworkConfigurator" target="_parent">
<polygon fill="#fffcaf" stroke="black" points="492.5,-19 352.5,-19 352.5,0 492.5,0 492.5,-19"/>
<text text-anchor="middle" x="422.5" y="-7" font-family="Helvetica,sans-Serif" font-size="10.00">Ipv4NetworkConfigurator</text>
</a>
</g>
</g>
<!-- SpectrumShowcaseSpectrumFigureSpectrogramNetwork&#45;&gt;Ipv4NetworkConfigurator -->
<g id="edge3" class="edge">
<title>SpectrumShowcaseSpectrumFigureSpectrogramNetwork&#45;&gt;Ipv4NetworkConfigurator</title>
<path fill="none" stroke="black" d="M483.77,-54.98C472.77,-47 456.08,-34.88 442.9,-25.31"/>
<polygon fill="black" stroke="black" points="444.59,-22.21 434.44,-19.17 440.48,-27.88 444.59,-22.21"/>
</g>
<!-- IntegratedVisualizer -->
<g id="node5" class="node">
<title>IntegratedVisualizer</title>
<g id="a_node5"><a xlink:href="inet.visualizer.common.IntegratedVisualizer.html" xlink:title="Compound Module IntegratedVisualizer" target="_parent">
<polygon fill="#fffcaf" stroke="black" points="626,-19 511,-19 511,0 626,0 626,-19"/>
<text text-anchor="middle" x="568.5" y="-7" font-family="Helvetica,sans-Serif" font-size="10.00">IntegratedVisualizer</text>
</a>
</g>
</g>
<!-- SpectrumShowcaseSpectrumFigureSpectrogramNetwork&#45;&gt;IntegratedVisualizer -->
<g id="edge4" class="edge">
<title>SpectrumShowcaseSpectrumFigureSpectrogramNetwork&#45;&gt;IntegratedVisualizer</title>
<path fill="none" stroke="black" d="M507.23,-54.98C518.23,-47 534.92,-34.88 548.1,-25.31"/>
<polygon fill="black" stroke="black" points="550.52,-27.88 556.56,-19.17 546.41,-22.21 550.52,-27.88"/>
</g>
<!-- AdhocHost -->
<g id="node6" class="node">
<title>AdhocHost</title>
<g id="a_node6"><a xlink:href="inet.node.inet.AdhocHost.html" xlink:title="Compound Module AdhocHost" target="_parent">
<polygon fill="#fffcaf" stroke="black" points="713,-19 644,-19 644,0 713,0 713,-19"/>
<text text-anchor="middle" x="678.5" y="-7" font-family="Helvetica,sans-Serif" font-size="10.00">AdhocHost</text>
</a>
</g>
</g>
<!-- SpectrumShowcaseSpectrumFigureSpectrogramNetwork&#45;&gt;AdhocHost -->
<g id="edge5" class="edge">
<title>SpectrumShowcaseSpectrumFigureSpectrogramNetwork&#45;&gt;AdhocHost</title>
<path fill="none" stroke="black" d="M524.9,-54.98C555.89,-46.01 604.88,-31.82 639.17,-21.89"/>
<polygon fill="black" stroke="black" points="640.24,-25.23 648.87,-19.08 638.29,-18.5 640.24,-25.23"/>
</g>
<!-- Probe -->
<g id="node7" class="node">
<title>Probe</title>
<g id="a_node7"><a xlink:href="inet.node.wireless.Probe.html" xlink:title="Compound Module Probe" target="_parent">
<polygon fill="#fffcaf" stroke="black" points="785.5,-19 731.5,-19 731.5,0 785.5,0 785.5,-19"/>
<text text-anchor="middle" x="758.5" y="-7" font-family="Helvetica,sans-Serif" font-size="10.00">Probe</text>
</a>
</g>
</g>
<!-- SpectrumShowcaseSpectrumFigureSpectrogramNetwork&#45;&gt;Probe -->
<g id="edge6" class="edge">
<title>SpectrumShowcaseSpectrumFigureSpectrogramNetwork&#45;&gt;Probe</title>
<path fill="none" stroke="black" d="M541.69,-54.98C585.48,-46.79 653.35,-33.77 721.37,-19.18"/>
<polygon fill="black" stroke="black" points="722.36,-22.55 731.4,-17.02 720.89,-15.7 722.36,-22.55"/>
</g>
</g>
</svg>
