<?xml version="1.0" encoding="UTF-8" standalone="no"?>
<!DOCTYPE svg PUBLIC "-//W3C//DTD SVG 1.1//EN"
 "http://www.w3.org/Graphics/SVG/1.1/DTD/svg11.dtd">
<!-- Generated by graphviz version 2.43.0 (0)
 -->
<!-- Title: opp Pages: 1 -->
<svg width="430pt" height="137pt"
 viewBox="0.00 0.00 429.50 137.00" xmlns="http://www.w3.org/2000/svg" xmlns:xlink="http://www.w3.org/1999/xlink">
<g id="graph0" class="graph" transform="scale(1 1) rotate(0) translate(4 133)">
<title>opp</title>
<polygon fill="transparent" stroke="transparent" points="-4,4 -4,-133 425.5,-133 425.5,4 -4,4"/>
<!-- PacketMarkerBase -->
<g id="node1" class="node">
<title>PacketMarkerBase</title>
<g id="a_node1"><a xlink:href="inet.queueing.base.PacketMarkerBase.html" xlink:title="Simple Module PacketMarkerBase" target="_parent">
<polygon fill="#fff700" stroke="black" points="239.5,-74 132.5,-74 132.5,-55 239.5,-55 239.5,-74"/>
<text text-anchor="middle" x="186" y="-62" font-family="Helvetica,sans-Serif" font-size="10.00">PacketMarkerBase</text>
</a>
</g>
</g>
<!-- EcnMarker -->
<g id="node3" class="node">
<title>EcnMarker</title>
<g id="a_node3"><a xlink:href="inet.queueing.marker.EcnMarker.html" xlink:title="Simple Module EcnMarker" target="_parent">
<polygon fill="#fffcaf" stroke="black" points="68,-19 0,-19 0,0 68,0 68,-19"/>
<text text-anchor="middle" x="34" y="-7" font-family="Helvetica,sans-Serif" font-size="10.00">EcnMarker</text>
</a>
</g>
</g>
<!-- PacketMarkerBase&#45;&gt;EcnMarker -->
<g id="edge2" class="edge">
<title>PacketMarkerBase&#45;&gt;EcnMarker</title>
<path fill="none" stroke="black" d="M161.58,-54.98C133.3,-45.12 86.97,-28.97 58.61,-19.08"/>
</g>
<!-- PacketLabeler -->
<g id="node4" class="node">
<title>PacketLabeler</title>
<g id="a_node4"><a xlink:href="inet.queueing.marker.PacketLabeler.html" xlink:title="Simple Module PacketLabeler" target="_parent">
<polygon fill="#fffcaf" stroke="black" points="171.5,-19 86.5,-19 86.5,0 171.5,0 171.5,-19"/>
<text text-anchor="middle" x="129" y="-7" font-family="Helvetica,sans-Serif" font-size="10.00">PacketLabeler</text>
</a>
</g>
</g>
<!-- PacketMarkerBase&#45;&gt;PacketLabeler -->
<g id="edge3" class="edge">
<title>PacketMarkerBase&#45;&gt;PacketLabeler</title>
<path fill="none" stroke="black" d="M176.84,-54.98C166.27,-45.15 148.97,-29.07 138.32,-19.17"/>
</g>
<!-- PacketLabelerBase -->
<g id="node5" class="node">
<title>PacketLabelerBase</title>
<g id="a_node5"><a xlink:href="inet.queueing.base.PacketLabelerBase.html" xlink:title="Simple Module PacketLabelerBase" target="_parent">
<polygon fill="#fffcaf" stroke="black" points="298.5,-19 189.5,-19 189.5,0 298.5,0 298.5,-19"/>
<text text-anchor="middle" x="244" y="-7" font-family="Helvetica,sans-Serif" font-size="10.00">PacketLabelerBase</text>
</a>
</g>
</g>
<!-- PacketMarkerBase&#45;&gt;PacketLabelerBase -->
<g id="edge4" class="edge">
<title>PacketMarkerBase&#45;&gt;PacketLabelerBase</title>
<path fill="none" stroke="black" d="M195.32,-54.98C206.08,-45.15 223.68,-29.07 234.51,-19.17"/>
</g>
<!-- PacketTaggerBase -->
<g id="node6" class="node">
<title>PacketTaggerBase</title>
<g id="a_node6"><a xlink:href="inet.queueing.base.PacketTaggerBase.html" xlink:title="Simple Module PacketTaggerBase" target="_parent">
<polygon fill="#fffcaf" stroke="black" points="421.5,-19 316.5,-19 316.5,0 421.5,0 421.5,-19"/>
<text text-anchor="middle" x="369" y="-7" font-family="Helvetica,sans-Serif" font-size="10.00">PacketTaggerBase</text>
</a>
</g>
</g>
<!-- PacketMarkerBase&#45;&gt;PacketTaggerBase -->
<g id="edge5" class="edge">
<title>PacketMarkerBase&#45;&gt;PacketTaggerBase</title>
<path fill="none" stroke="black" d="M215.4,-54.98C249.45,-45.12 305.22,-28.97 339.37,-19.08"/>
</g>
<!-- PacketFlowBase -->
<g id="node2" class="node">
<title>PacketFlowBase</title>
<g id="a_node2"><a xlink:href="inet.queueing.base.PacketFlowBase.html" xlink:title="Simple Module PacketFlowBase" target="_parent">
<polygon fill="#fffcaf" stroke="black" points="234,-129 138,-129 138,-110 234,-110 234,-129"/>
<text text-anchor="middle" x="186" y="-117" font-family="Helvetica,sans-Serif" font-size="10.00">PacketFlowBase</text>
</a>
</g>
</g>
<!-- PacketFlowBase&#45;&gt;PacketMarkerBase -->
<g id="edge1" class="edge">
<title>PacketFlowBase&#45;&gt;PacketMarkerBase</title>
<path fill="none" stroke="black" d="M186,-109.75C186,-99.87 186,-83.9 186,-74.09"/>
</g>
</g>
</svg>
