<?xml version="1.0" encoding="UTF-8" standalone="no"?>
<!DOCTYPE svg PUBLIC "-//W3C//DTD SVG 1.1//EN"
 "http://www.w3.org/Graphics/SVG/1.1/DTD/svg11.dtd">
<!-- Generated by graphviz version 2.43.0 (0)
 -->
<!-- Title: opp Pages: 1 -->
<svg width="369pt" height="82pt"
 viewBox="0.00 0.00 368.50 82.00" xmlns="http://www.w3.org/2000/svg" xmlns:xlink="http://www.w3.org/1999/xlink">
<g id="graph0" class="graph" transform="scale(1 1) rotate(0) translate(4 78)">
<title>opp</title>
<polygon fill="transparent" stroke="transparent" points="-4,4 -4,-78 364.5,-78 364.5,4 -4,4"/>
<!-- CrosstalkShowcaseBaseNetwork -->
<g id="node1" class="node">
<title>CrosstalkShowcaseBaseNetwork</title>
<g id="a_node1"><a xlink:href="inet.showcases.wireless.crosstalk.CrosstalkShowcaseBaseNetwork.html" xlink:title="Network CrosstalkShowcaseBaseNetwork" target="_parent">
<polygon fill="#9090ff" stroke="black" points="304,-74 128,-74 128,-55 304,-55 304,-74"/>
<text text-anchor="middle" x="216" y="-62" font-family="Helvetica,sans-Serif" font-size="10.00">CrosstalkShowcaseBaseNetwork</text>
</a>
</g>
</g>
<!-- Ipv4NetworkConfigurator -->
<g id="node2" class="node">
<title>Ipv4NetworkConfigurator</title>
<g id="a_node2"><a xlink:href="inet.networklayer.configurator.ipv4.Ipv4NetworkConfigurator.html" xlink:title="Simple Module Ipv4NetworkConfigurator" target="_parent">
<polygon fill="#fffcaf" stroke="black" points="140,-19 0,-19 0,0 140,0 140,-19"/>
<text text-anchor="middle" x="70" y="-7" font-family="Helvetica,sans-Serif" font-size="10.00">Ipv4NetworkConfigurator</text>
</a>
</g>
</g>
<!-- CrosstalkShowcaseBaseNetwork&#45;&gt;Ipv4NetworkConfigurator -->
<g id="edge1" class="edge">
<title>CrosstalkShowcaseBaseNetwork&#45;&gt;Ipv4NetworkConfigurator</title>
<path fill="none" stroke="black" d="M192.54,-54.98C168.42,-46.23 130.63,-32.51 103.4,-22.62"/>
<polygon fill="black" stroke="black" points="104.48,-19.29 93.88,-19.17 102.09,-25.87 104.48,-19.29"/>
</g>
<!-- IntegratedVisualizer -->
<g id="node3" class="node">
<title>IntegratedVisualizer</title>
<g id="a_node3"><a xlink:href="inet.visualizer.common.IntegratedVisualizer.html" xlink:title="Compound Module IntegratedVisualizer" target="_parent">
<polygon fill="#fffcaf" stroke="black" points="273.5,-19 158.5,-19 158.5,0 273.5,0 273.5,-19"/>
<text text-anchor="middle" x="216" y="-7" font-family="Helvetica,sans-Serif" font-size="10.00">IntegratedVisualizer</text>
</a>
</g>
</g>
<!-- CrosstalkShowcaseBaseNetwork&#45;&gt;IntegratedVisualizer -->
<g id="edge2" class="edge">
<title>CrosstalkShowcaseBaseNetwork&#45;&gt;IntegratedVisualizer</title>
<path fill="none" stroke="black" d="M216,-54.75C216,-47.8 216,-37.85 216,-29.13"/>
<polygon fill="black" stroke="black" points="219.5,-29.09 216,-19.09 212.5,-29.09 219.5,-29.09"/>
</g>
<!-- AdhocHost -->
<g id="node4" class="node">
<title>AdhocHost</title>
<g id="a_node4"><a xlink:href="inet.node.inet.AdhocHost.html" xlink:title="Compound Module AdhocHost" target="_parent">
<polygon fill="#fffcaf" stroke="black" points="360.5,-19 291.5,-19 291.5,0 360.5,0 360.5,-19"/>
<text text-anchor="middle" x="326" y="-7" font-family="Helvetica,sans-Serif" font-size="10.00">AdhocHost</text>
</a>
</g>
</g>
<!-- CrosstalkShowcaseBaseNetwork&#45;&gt;AdhocHost -->
<g id="edge3" class="edge">
<title>CrosstalkShowcaseBaseNetwork&#45;&gt;AdhocHost</title>
<path fill="none" stroke="black" d="M233.67,-54.98C251.29,-46.5 278.58,-33.35 298.93,-23.54"/>
<polygon fill="black" stroke="black" points="300.52,-26.66 308.01,-19.17 297.48,-20.36 300.52,-26.66"/>
</g>
</g>
</svg>
