<?xml version="1.0" encoding="UTF-8" standalone="no"?>
<!DOCTYPE svg PUBLIC "-//W3C//DTD SVG 1.1//EN"
 "http://www.w3.org/Graphics/SVG/1.1/DTD/svg11.dtd">
<!-- Generated by graphviz version 2.43.0 (0)
 -->
<!-- Title: opp Pages: 1 -->
<svg width="780pt" height="82pt"
 viewBox="0.00 0.00 780.00 82.00" xmlns="http://www.w3.org/2000/svg" xmlns:xlink="http://www.w3.org/1999/xlink">
<g id="graph0" class="graph" transform="scale(1 1) rotate(0) translate(4 78)">
<title>opp</title>
<polygon fill="transparent" stroke="transparent" points="-4,4 -4,-78 776,-78 776,4 -4,4"/>
<!-- DSQueue2 -->
<g id="node1" class="node">
<title>DSQueue2</title>
<g id="a_node1"><a xlink:href="inet.examples.diffserv.onedomain.DSQueue2.html" xlink:title="Compound Module DSQueue2" target="_parent">
<polygon fill="#fff700" stroke="black" points="445,-74 377,-74 377,-55 445,-55 445,-74"/>
<text text-anchor="middle" x="411" y="-62" font-family="Helvetica,sans-Serif" font-size="10.00">DSQueue2</text>
</a>
</g>
</g>
<!-- BehaviorAggregateClassifier -->
<g id="node2" class="node">
<title>BehaviorAggregateClassifier</title>
<g id="a_node2"><a xlink:href="inet.networklayer.diffserv.BehaviorAggregateClassifier.html" xlink:title="Simple Module BehaviorAggregateClassifier" target="_parent">
<polygon fill="#fffcaf" stroke="black" points="156,-19 0,-19 0,0 156,0 156,-19"/>
<text text-anchor="middle" x="78" y="-7" font-family="Helvetica,sans-Serif" font-size="10.00">BehaviorAggregateClassifier</text>
</a>
</g>
</g>
<!-- DSQueue2&#45;&gt;BehaviorAggregateClassifier -->
<g id="edge1" class="edge">
<title>DSQueue2&#45;&gt;BehaviorAggregateClassifier</title>
<path fill="none" stroke="black" d="M376.93,-58.08C321.63,-49.28 211.49,-31.75 141.45,-20.6"/>
<polygon fill="black" stroke="black" points="141.84,-17.12 131.42,-19 140.74,-24.03 141.84,-17.12"/>
</g>
<!-- IdealChannel -->
<g id="node3" class="node">
<title>IdealChannel</title>
<g id="a_node3"><a xlink:href="ned.IdealChannel.html" xlink:title="Channel IdealChannel" target="_parent">
<polygon fill="#d0ffd0" stroke="black" points="254,-19 174,-19 174,0 254,0 254,-19"/>
<text text-anchor="middle" x="214" y="-7" font-family="Helvetica,sans-Serif" font-size="10.00">IdealChannel</text>
</a>
</g>
</g>
<!-- DSQueue2&#45;&gt;IdealChannel -->
<g id="edge2" class="edge">
<title>DSQueue2&#45;&gt;IdealChannel</title>
<path fill="none" stroke="black" d="M379.35,-54.98C345.84,-45.97 292.8,-31.7 255.86,-21.76"/>
<polygon fill="black" stroke="black" points="256.47,-18.3 245.9,-19.08 254.65,-25.06 256.47,-18.3"/>
</g>
<!-- PacketQueue -->
<g id="node4" class="node">
<title>PacketQueue</title>
<g id="a_node4"><a xlink:href="inet.queueing.queue.PacketQueue.html" xlink:title="Simple Module PacketQueue" target="_parent">
<polygon fill="#fffcaf" stroke="black" points="352,-19 272,-19 272,0 352,0 352,-19"/>
<text text-anchor="middle" x="312" y="-7" font-family="Helvetica,sans-Serif" font-size="10.00">PacketQueue</text>
</a>
</g>
</g>
<!-- DSQueue2&#45;&gt;PacketQueue -->
<g id="edge3" class="edge">
<title>DSQueue2&#45;&gt;PacketQueue</title>
<path fill="none" stroke="black" d="M395.09,-54.98C379.45,-46.61 355.34,-33.7 337.12,-23.95"/>
<polygon fill="black" stroke="black" points="338.66,-20.8 328.2,-19.17 335.36,-26.98 338.66,-20.8"/>
</g>
<!-- WrrScheduler -->
<g id="node5" class="node">
<title>WrrScheduler</title>
<g id="a_node5"><a xlink:href="inet.queueing.scheduler.WrrScheduler.html" xlink:title="Simple Module WrrScheduler" target="_parent">
<polygon fill="#fffcaf" stroke="black" points="452,-19 370,-19 370,0 452,0 452,-19"/>
<text text-anchor="middle" x="411" y="-7" font-family="Helvetica,sans-Serif" font-size="10.00">WrrScheduler</text>
</a>
</g>
</g>
<!-- DSQueue2&#45;&gt;WrrScheduler -->
<g id="edge4" class="edge">
<title>DSQueue2&#45;&gt;WrrScheduler</title>
<path fill="none" stroke="black" d="M411,-54.75C411,-47.8 411,-37.85 411,-29.13"/>
<polygon fill="black" stroke="black" points="414.5,-29.09 411,-19.09 407.5,-29.09 414.5,-29.09"/>
</g>
<!-- RedDropper -->
<g id="node6" class="node">
<title>RedDropper</title>
<g id="a_node6"><a xlink:href="inet.queueing.filter.RedDropper.html" xlink:title="Simple Module RedDropper" target="_parent">
<polygon fill="#fffcaf" stroke="black" points="544,-19 470,-19 470,0 544,0 544,-19"/>
<text text-anchor="middle" x="507" y="-7" font-family="Helvetica,sans-Serif" font-size="10.00">RedDropper</text>
</a>
</g>
</g>
<!-- DSQueue2&#45;&gt;RedDropper -->
<g id="edge5" class="edge">
<title>DSQueue2&#45;&gt;RedDropper</title>
<path fill="none" stroke="black" d="M426.42,-54.98C441.45,-46.69 464.54,-33.94 482.16,-24.22"/>
<polygon fill="black" stroke="black" points="484.23,-27.07 491.3,-19.17 480.85,-20.94 484.23,-27.07"/>
</g>
<!-- PacketMultiplexer -->
<g id="node7" class="node">
<title>PacketMultiplexer</title>
<g id="a_node7"><a xlink:href="inet.queueing.common.PacketMultiplexer.html" xlink:title="Simple Module PacketMultiplexer" target="_parent">
<polygon fill="#fffcaf" stroke="black" points="666,-19 562,-19 562,0 666,0 666,-19"/>
<text text-anchor="middle" x="614" y="-7" font-family="Helvetica,sans-Serif" font-size="10.00">PacketMultiplexer</text>
</a>
</g>
</g>
<!-- DSQueue2&#45;&gt;PacketMultiplexer -->
<g id="edge6" class="edge">
<title>DSQueue2&#45;&gt;PacketMultiplexer</title>
<path fill="none" stroke="black" d="M443.62,-54.98C478.29,-45.93 533.26,-31.58 571.35,-21.64"/>
<polygon fill="black" stroke="black" points="572.34,-24.99 581.13,-19.08 570.57,-18.22 572.34,-24.99"/>
</g>
<!-- DropTailQueue -->
<g id="node8" class="node">
<title>DropTailQueue</title>
<g id="a_node8"><a xlink:href="inet.queueing.queue.DropTailQueue.html" xlink:title="Simple Module DropTailQueue" target="_parent">
<polygon fill="#fffcaf" stroke="black" points="772,-19 684,-19 684,0 772,0 772,-19"/>
<text text-anchor="middle" x="728" y="-7" font-family="Helvetica,sans-Serif" font-size="10.00">DropTailQueue</text>
</a>
</g>
</g>
<!-- DSQueue2&#45;&gt;DropTailQueue -->
<g id="edge7" class="edge">
<title>DSQueue2&#45;&gt;DropTailQueue</title>
<path fill="none" stroke="black" d="M445.23,-57.78C500.09,-48.61 608.18,-30.53 673.67,-19.58"/>
<polygon fill="black" stroke="black" points="674.52,-22.99 683.8,-17.89 673.36,-16.09 674.52,-22.99"/>
</g>
</g>
</svg>
