<?xml version="1.0" encoding="UTF-8" standalone="no"?>
<!DOCTYPE svg PUBLIC "-//W3C//DTD SVG 1.1//EN"
 "http://www.w3.org/Graphics/SVG/1.1/DTD/svg11.dtd">
<!-- Generated by graphviz version 2.43.0 (0)
 -->
<!-- Title: opp Pages: 1 -->
<svg width="453pt" height="82pt"
 viewBox="0.00 0.00 453.00 82.00" xmlns="http://www.w3.org/2000/svg" xmlns:xlink="http://www.w3.org/1999/xlink">
<g id="graph0" class="graph" transform="scale(1 1) rotate(0) translate(4 78)">
<title>opp</title>
<polygon fill="transparent" stroke="transparent" points="-4,4 -4,-78 449,-78 449,4 -4,4"/>
<!-- DataLinkVisualizerEnablingWiredShowcase -->
<g id="node1" class="node">
<title>DataLinkVisualizerEnablingWiredShowcase</title>
<g id="a_node1"><a xlink:href="inet.showcases.visualizer.canvas.datalinkactivity.DataLinkVisualizerEnablingWiredShowcase.html" xlink:title="Network DataLinkVisualizerEnablingWiredShowcase" target="_parent">
<polygon fill="#9090ff" stroke="black" points="356,-74 129,-74 129,-55 356,-55 356,-74"/>
<text text-anchor="middle" x="242.5" y="-62" font-family="Helvetica,sans-Serif" font-size="10.00">DataLinkVisualizerEnablingWiredShowcase</text>
</a>
</g>
</g>
<!-- StandardHost -->
<g id="node2" class="node">
<title>StandardHost</title>
<g id="a_node2"><a xlink:href="inet.node.inet.StandardHost.html" xlink:title="Compound Module StandardHost" target="_parent">
<polygon fill="#fffcaf" stroke="black" points="83,-19 0,-19 0,0 83,0 83,-19"/>
<text text-anchor="middle" x="41.5" y="-7" font-family="Helvetica,sans-Serif" font-size="10.00">StandardHost</text>
</a>
</g>
</g>
<!-- DataLinkVisualizerEnablingWiredShowcase&#45;&gt;StandardHost -->
<g id="edge1" class="edge">
<title>DataLinkVisualizerEnablingWiredShowcase&#45;&gt;StandardHost</title>
<path fill="none" stroke="black" d="M210.21,-54.98C175.88,-45.93 121.44,-31.58 83.73,-21.64"/>
<polygon fill="black" stroke="black" points="84.61,-18.25 74.05,-19.08 82.82,-25.02 84.61,-18.25"/>
</g>
<!-- Ipv4NetworkConfigurator -->
<g id="node3" class="node">
<title>Ipv4NetworkConfigurator</title>
<g id="a_node3"><a xlink:href="inet.networklayer.configurator.ipv4.Ipv4NetworkConfigurator.html" xlink:title="Simple Module Ipv4NetworkConfigurator" target="_parent">
<polygon fill="#fffcaf" stroke="black" points="241.5,-19 101.5,-19 101.5,0 241.5,0 241.5,-19"/>
<text text-anchor="middle" x="171.5" y="-7" font-family="Helvetica,sans-Serif" font-size="10.00">Ipv4NetworkConfigurator</text>
</a>
</g>
</g>
<!-- DataLinkVisualizerEnablingWiredShowcase&#45;&gt;Ipv4NetworkConfigurator -->
<g id="edge2" class="edge">
<title>DataLinkVisualizerEnablingWiredShowcase&#45;&gt;Ipv4NetworkConfigurator</title>
<path fill="none" stroke="black" d="M231.09,-54.98C220.39,-47 204.16,-34.88 191.34,-25.31"/>
<polygon fill="black" stroke="black" points="193.22,-22.35 183.11,-19.17 189.03,-27.96 193.22,-22.35"/>
</g>
<!-- DataLinkVisualizer -->
<g id="node4" class="node">
<title>DataLinkVisualizer</title>
<g id="a_node4"><a xlink:href="inet.visualizer.common.DataLinkVisualizer.html" xlink:title="Compound Module DataLinkVisualizer" target="_parent">
<polygon fill="#fffcaf" stroke="black" points="367.5,-19 259.5,-19 259.5,0 367.5,0 367.5,-19"/>
<text text-anchor="middle" x="313.5" y="-7" font-family="Helvetica,sans-Serif" font-size="10.00">DataLinkVisualizer</text>
</a>
</g>
</g>
<!-- DataLinkVisualizerEnablingWiredShowcase&#45;&gt;DataLinkVisualizer -->
<g id="edge3" class="edge">
<title>DataLinkVisualizerEnablingWiredShowcase&#45;&gt;DataLinkVisualizer</title>
<path fill="none" stroke="black" d="M253.91,-54.98C264.61,-47 280.84,-34.88 293.66,-25.31"/>
<polygon fill="black" stroke="black" points="295.97,-27.96 301.89,-19.17 291.78,-22.35 295.97,-27.96"/>
</g>
<!-- Eth100M -->
<g id="node5" class="node">
<title>Eth100M</title>
<g id="a_node5"><a xlink:href="inet.node.ethernet.Eth100M.html" xlink:title="Channel Eth100M" target="_parent">
<polygon fill="#d0ffd0" stroke="black" points="445,-19 386,-19 386,0 445,0 445,-19"/>
<text text-anchor="middle" x="415.5" y="-7" font-family="Helvetica,sans-Serif" font-size="10.00">Eth100M</text>
</a>
</g>
</g>
<!-- DataLinkVisualizerEnablingWiredShowcase&#45;&gt;Eth100M -->
<g id="edge4" class="edge">
<title>DataLinkVisualizerEnablingWiredShowcase&#45;&gt;Eth100M</title>
<path fill="none" stroke="black" d="M270.3,-54.98C299.47,-46.05 345.5,-31.94 377.9,-22.02"/>
<polygon fill="black" stroke="black" points="378.95,-25.36 387.49,-19.08 376.9,-18.66 378.95,-25.36"/>
</g>
</g>
</svg>
