<?xml version="1.0" encoding="UTF-8" standalone="no"?>
<!DOCTYPE svg PUBLIC "-//W3C//DTD SVG 1.1//EN"
 "http://www.w3.org/Graphics/SVG/1.1/DTD/svg11.dtd">
<!-- Generated by graphviz version 2.43.0 (0)
 -->
<!-- Title: opp Pages: 1 -->
<svg width="722pt" height="137pt"
 viewBox="0.00 0.00 722.00 137.00" xmlns="http://www.w3.org/2000/svg" xmlns:xlink="http://www.w3.org/1999/xlink">
<g id="graph0" class="graph" transform="scale(1 1) rotate(0) translate(4 133)">
<title>opp</title>
<polygon fill="transparent" stroke="transparent" points="-4,4 -4,-133 718,-133 718,4 -4,4"/>
<!-- IPv4LargeLAN -->
<g id="node1" class="node">
<title>IPv4LargeLAN</title>
<g id="a_node1"><a xlink:href="inet.examples.inet.ipv4largenet.IPv4LargeLAN.html" xlink:title="Compound Module IPv4LargeLAN" target="_parent">
<polygon fill="#fff700" stroke="black" points="399.5,-74 314.5,-74 314.5,-55 399.5,-55 399.5,-74"/>
<text text-anchor="middle" x="357" y="-62" font-family="Helvetica,sans-Serif" font-size="10.00">IPv4LargeLAN</text>
</a>
</g>
</g>
<!-- IdealChannel -->
<g id="node2" class="node">
<title>IdealChannel</title>
<g id="a_node2"><a xlink:href="ned.IdealChannel.html" xlink:title="Channel IdealChannel" target="_parent">
<polygon fill="#d0ffd0" stroke="black" points="80,-19 0,-19 0,0 80,0 80,-19"/>
<text text-anchor="middle" x="40" y="-7" font-family="Helvetica,sans-Serif" font-size="10.00">IdealChannel</text>
</a>
</g>
</g>
<!-- IPv4LargeLAN&#45;&gt;IdealChannel -->
<g id="edge1" class="edge">
<title>IPv4LargeLAN&#45;&gt;IdealChannel</title>
<path fill="none" stroke="black" d="M314.28,-56.5C263.39,-48.15 175.53,-33.66 90.23,-19.2"/>
<polygon fill="black" stroke="black" points="90.55,-15.7 80.11,-17.48 89.38,-22.61 90.55,-15.7"/>
</g>
<!-- StandardHost -->
<g id="node3" class="node">
<title>StandardHost</title>
<g id="a_node3"><a xlink:href="inet.node.inet.StandardHost.html" xlink:title="Compound Module StandardHost" target="_parent">
<polygon fill="#fffcaf" stroke="black" points="181.5,-19 98.5,-19 98.5,0 181.5,0 181.5,-19"/>
<text text-anchor="middle" x="140" y="-7" font-family="Helvetica,sans-Serif" font-size="10.00">StandardHost</text>
</a>
</g>
</g>
<!-- IPv4LargeLAN&#45;&gt;StandardHost -->
<g id="edge2" class="edge">
<title>IPv4LargeLAN&#45;&gt;StandardHost</title>
<path fill="none" stroke="black" d="M322.14,-54.98C284.91,-45.89 225.8,-31.46 185.07,-21.51"/>
<polygon fill="black" stroke="black" points="185.68,-18.05 175.14,-19.08 184.02,-24.85 185.68,-18.05"/>
</g>
<!-- cabletobus -->
<g id="node4" class="node">
<title>cabletobus</title>
<g id="a_node4"><a xlink:href="inet.examples.inet.ipv4largenet.IPv4LargeLAN.cabletobus.html" xlink:title="Channel cabletobus" target="_parent">
<polygon fill="#d0ffd0" stroke="black" points="270,-19 200,-19 200,0 270,0 270,-19"/>
<text text-anchor="middle" x="235" y="-7" font-family="Helvetica,sans-Serif" font-size="10.00">cabletobus</text>
</a>
</g>
</g>
<!-- IPv4LargeLAN&#45;&gt;cabletobus -->
<g id="edge3" class="edge">
<title>IPv4LargeLAN&#45;&gt;cabletobus</title>
<path fill="none" stroke="black" d="M337.4,-54.98C317.68,-46.42 287.05,-33.11 264.42,-23.28"/>
<polygon fill="black" stroke="black" points="265.52,-19.94 254.96,-19.17 262.74,-26.37 265.52,-19.94"/>
</g>
<!-- Router -->
<g id="node5" class="node">
<title>Router</title>
<g id="a_node5"><a xlink:href="inet.node.inet.Router.html" xlink:title="Compound Module Router" target="_parent">
<polygon fill="#fffcaf" stroke="black" points="342,-19 288,-19 288,0 342,0 342,-19"/>
<text text-anchor="middle" x="315" y="-7" font-family="Helvetica,sans-Serif" font-size="10.00">Router</text>
</a>
</g>
</g>
<!-- IPv4LargeLAN&#45;&gt;Router -->
<g id="edge4" class="edge">
<title>IPv4LargeLAN&#45;&gt;Router</title>
<path fill="none" stroke="black" d="M350.06,-54.75C344.13,-47.26 335.43,-36.28 328.18,-27.13"/>
<polygon fill="black" stroke="black" points="330.76,-24.75 321.81,-19.09 325.27,-29.1 330.76,-24.75"/>
</g>
<!-- EthernetHub -->
<g id="node6" class="node">
<title>EthernetHub</title>
<g id="a_node6"><a xlink:href="inet.node.ethernet.EthernetHub.html" xlink:title="Simple Module EthernetHub" target="_parent">
<polygon fill="#fffcaf" stroke="black" points="437.5,-19 360.5,-19 360.5,0 437.5,0 437.5,-19"/>
<text text-anchor="middle" x="399" y="-7" font-family="Helvetica,sans-Serif" font-size="10.00">EthernetHub</text>
</a>
</g>
</g>
<!-- IPv4LargeLAN&#45;&gt;EthernetHub -->
<g id="edge5" class="edge">
<title>IPv4LargeLAN&#45;&gt;EthernetHub</title>
<path fill="none" stroke="black" d="M363.94,-54.75C369.87,-47.26 378.57,-36.28 385.82,-27.13"/>
<polygon fill="black" stroke="black" points="388.73,-29.1 392.19,-19.09 383.24,-24.75 388.73,-29.1"/>
</g>
<!-- WireJunction -->
<g id="node7" class="node">
<title>WireJunction</title>
<g id="a_node7"><a xlink:href="inet.physicallayer.wired.common.WireJunction.html" xlink:title="Simple Module WireJunction" target="_parent">
<polygon fill="#fffcaf" stroke="black" points="534,-19 456,-19 456,0 534,0 534,-19"/>
<text text-anchor="middle" x="495" y="-7" font-family="Helvetica,sans-Serif" font-size="10.00">WireJunction</text>
</a>
</g>
</g>
<!-- IPv4LargeLAN&#45;&gt;WireJunction -->
<g id="edge6" class="edge">
<title>IPv4LargeLAN&#45;&gt;WireJunction</title>
<path fill="none" stroke="black" d="M379.17,-54.98C401.77,-46.3 437.06,-32.75 462.75,-22.88"/>
<polygon fill="black" stroke="black" points="464.34,-26.02 472.42,-19.17 461.83,-19.49 464.34,-26.02"/>
</g>
<!-- cable -->
<g id="node8" class="node">
<title>cable</title>
<g id="a_node8"><a xlink:href="inet.examples.inet.ipv4largenet.cable.html" xlink:title="Channel cable" target="_parent">
<polygon fill="#d0ffd0" stroke="black" points="606,-19 552,-19 552,0 606,0 606,-19"/>
<text text-anchor="middle" x="579" y="-7" font-family="Helvetica,sans-Serif" font-size="10.00">cable</text>
</a>
</g>
</g>
<!-- IPv4LargeLAN&#45;&gt;cable -->
<g id="edge7" class="edge">
<title>IPv4LargeLAN&#45;&gt;cable</title>
<path fill="none" stroke="black" d="M392.67,-54.98C433.57,-45.22 500.31,-29.29 541.83,-19.37"/>
<polygon fill="black" stroke="black" points="542.9,-22.72 551.82,-16.99 541.28,-15.91 542.9,-22.72"/>
</g>
<!-- EthernetSwitch -->
<g id="node9" class="node">
<title>EthernetSwitch</title>
<g id="a_node9"><a xlink:href="inet.node.ethernet.EthernetSwitch.html" xlink:title="Compound Module EthernetSwitch" target="_parent">
<polygon fill="#fffcaf" stroke="black" points="714,-19 624,-19 624,0 714,0 714,-19"/>
<text text-anchor="middle" x="669" y="-7" font-family="Helvetica,sans-Serif" font-size="10.00">EthernetSwitch</text>
</a>
</g>
</g>
<!-- IPv4LargeLAN&#45;&gt;EthernetSwitch -->
<g id="edge8" class="edge">
<title>IPv4LargeLAN&#45;&gt;EthernetSwitch</title>
<path fill="none" stroke="black" d="M399.73,-56.24C455.38,-46.79 552.75,-30.25 613.9,-19.86"/>
<polygon fill="black" stroke="black" points="614.48,-23.31 623.76,-18.19 613.31,-16.41 614.48,-23.31"/>
</g>
<!-- IPv4LargeNet -->
<g id="node10" class="node">
<title>IPv4LargeNet</title>
<g id="a_node10"><a xlink:href="inet.examples.inet.ipv4largenet.IPv4LargeNet.html" xlink:title="Network IPv4LargeNet" target="_parent">
<polygon fill="#d0d0ff" stroke="black" points="398,-129 316,-129 316,-110 398,-110 398,-129"/>
<text text-anchor="middle" x="357" y="-117" font-family="Helvetica,sans-Serif" font-size="10.00">IPv4LargeNet</text>
</a>
</g>
</g>
<!-- IPv4LargeNet&#45;&gt;IPv4LargeLAN -->
<g id="edge9" class="edge">
<title>IPv4LargeNet&#45;&gt;IPv4LargeLAN</title>
<path fill="none" stroke="black" d="M357,-109.75C357,-102.8 357,-92.85 357,-84.13"/>
<polygon fill="black" stroke="black" points="360.5,-84.09 357,-74.09 353.5,-84.09 360.5,-84.09"/>
</g>
</g>
</svg>
