<?xml version="1.0" encoding="UTF-8" standalone="no"?>
<!DOCTYPE svg PUBLIC "-//W3C//DTD SVG 1.1//EN"
 "http://www.w3.org/Graphics/SVG/1.1/DTD/svg11.dtd">
<!-- Generated by graphviz version 2.43.0 (0)
 -->
<!-- Title: opp Pages: 1 -->
<svg width="1034pt" height="137pt"
 viewBox="0.00 0.00 1034.00 137.00" xmlns="http://www.w3.org/2000/svg" xmlns:xlink="http://www.w3.org/1999/xlink">
<g id="graph0" class="graph" transform="scale(1 1) rotate(0) translate(4 133)">
<title>opp</title>
<polygon fill="transparent" stroke="transparent" points="-4,4 -4,-133 1030,-133 1030,4 -4,4"/>
<!-- ClientHost7 -->
<g id="node1" class="node">
<title>ClientHost7</title>
<g id="a_node1"><a xlink:href="inet.tutorials.protocol.ClientHost7.html" xlink:title="Compound Module ClientHost7" target="_parent">
<polygon fill="#fff700" stroke="black" points="504,-74 430,-74 430,-55 504,-55 504,-74"/>
<text text-anchor="middle" x="467" y="-62" font-family="Helvetica,sans-Serif" font-size="10.00">ClientHost7</text>
</a>
</g>
</g>
<!-- Resending -->
<g id="node2" class="node">
<title>Resending</title>
<g id="a_node2"><a xlink:href="inet.protocolelement.acknowledgement.Resending.html" xlink:title="Simple Module Resending" target="_parent">
<polygon fill="#fffcaf" stroke="black" points="68,-19 0,-19 0,0 68,0 68,-19"/>
<text text-anchor="middle" x="34" y="-7" font-family="Helvetica,sans-Serif" font-size="10.00">Resending</text>
</a>
</g>
</g>
<!-- ClientHost7&#45;&gt;Resending -->
<g id="edge1" class="edge">
<title>ClientHost7&#45;&gt;Resending</title>
<path fill="none" stroke="black" d="M429.76,-60.27C361.91,-54.17 213.43,-39.79 78.34,-19.09"/>
<polygon fill="black" stroke="black" points="78.64,-15.6 68.22,-17.53 77.57,-22.52 78.64,-15.6"/>
</g>
<!-- ActivePacketSource -->
<g id="node3" class="node">
<title>ActivePacketSource</title>
<g id="a_node3"><a xlink:href="inet.queueing.source.ActivePacketSource.html" xlink:title="Simple Module ActivePacketSource" target="_parent">
<polygon fill="#fffcaf" stroke="black" points="199.5,-19 86.5,-19 86.5,0 199.5,0 199.5,-19"/>
<text text-anchor="middle" x="143" y="-7" font-family="Helvetica,sans-Serif" font-size="10.00">ActivePacketSource</text>
</a>
</g>
</g>
<!-- ClientHost7&#45;&gt;ActivePacketSource -->
<g id="edge2" class="edge">
<title>ClientHost7&#45;&gt;ActivePacketSource</title>
<path fill="none" stroke="black" d="M429.83,-57.42C374.97,-48.45 271.64,-31.54 205.14,-20.66"/>
<polygon fill="black" stroke="black" points="205.63,-17.2 195.2,-19.04 204.5,-24.11 205.63,-17.2"/>
</g>
<!-- IdealChannel -->
<g id="node4" class="node">
<title>IdealChannel</title>
<g id="a_node4"><a xlink:href="ned.IdealChannel.html" xlink:title="Channel IdealChannel" target="_parent">
<polygon fill="#d0ffd0" stroke="black" points="298,-19 218,-19 218,0 298,0 298,-19"/>
<text text-anchor="middle" x="258" y="-7" font-family="Helvetica,sans-Serif" font-size="10.00">IdealChannel</text>
</a>
</g>
</g>
<!-- ClientHost7&#45;&gt;IdealChannel -->
<g id="edge3" class="edge">
<title>ClientHost7&#45;&gt;IdealChannel</title>
<path fill="none" stroke="black" d="M433.42,-54.98C397.65,-45.91 340.88,-31.52 301.66,-21.57"/>
<polygon fill="black" stroke="black" points="302.4,-18.15 291.84,-19.08 300.68,-24.93 302.4,-18.15"/>
</g>
<!-- PacketQueue -->
<g id="node5" class="node">
<title>PacketQueue</title>
<g id="a_node5"><a xlink:href="inet.queueing.queue.PacketQueue.html" xlink:title="Simple Module PacketQueue" target="_parent">
<polygon fill="#fffcaf" stroke="black" points="396,-19 316,-19 316,0 396,0 396,-19"/>
<text text-anchor="middle" x="356" y="-7" font-family="Helvetica,sans-Serif" font-size="10.00">PacketQueue</text>
</a>
</g>
</g>
<!-- ClientHost7&#45;&gt;PacketQueue -->
<g id="edge4" class="edge">
<title>ClientHost7&#45;&gt;PacketQueue</title>
<path fill="none" stroke="black" d="M449.17,-54.98C431.39,-46.5 403.85,-33.35 383.32,-23.54"/>
<polygon fill="black" stroke="black" points="384.69,-20.32 374.16,-19.17 381.67,-26.64 384.69,-20.32"/>
</g>
<!-- FcsHeaderInserter -->
<g id="node6" class="node">
<title>FcsHeaderInserter</title>
<g id="a_node6"><a xlink:href="inet.protocolelement.checksum.FcsHeaderInserter.html" xlink:title="Simple Module FcsHeaderInserter" target="_parent">
<polygon fill="#fffcaf" stroke="black" points="520,-19 414,-19 414,0 520,0 520,-19"/>
<text text-anchor="middle" x="467" y="-7" font-family="Helvetica,sans-Serif" font-size="10.00">FcsHeaderInserter</text>
</a>
</g>
</g>
<!-- ClientHost7&#45;&gt;FcsHeaderInserter -->
<g id="edge5" class="edge">
<title>ClientHost7&#45;&gt;FcsHeaderInserter</title>
<path fill="none" stroke="black" d="M467,-54.75C467,-47.8 467,-37.85 467,-29.13"/>
<polygon fill="black" stroke="black" points="470.5,-29.09 467,-19.09 463.5,-29.09 470.5,-29.09"/>
</g>
<!-- SequenceNumbering -->
<g id="node7" class="node">
<title>SequenceNumbering</title>
<g id="a_node7"><a xlink:href="inet.protocolelement.ordering.SequenceNumbering.html" xlink:title="Simple Module SequenceNumbering" target="_parent">
<polygon fill="#fffcaf" stroke="black" points="656,-19 538,-19 538,0 656,0 656,-19"/>
<text text-anchor="middle" x="597" y="-7" font-family="Helvetica,sans-Serif" font-size="10.00">SequenceNumbering</text>
</a>
</g>
</g>
<!-- ClientHost7&#45;&gt;SequenceNumbering -->
<g id="edge6" class="edge">
<title>ClientHost7&#45;&gt;SequenceNumbering</title>
<path fill="none" stroke="black" d="M487.89,-54.98C509.08,-46.34 542.13,-32.87 566.3,-23.02"/>
<polygon fill="black" stroke="black" points="567.79,-26.19 575.73,-19.17 565.15,-19.7 567.79,-26.19"/>
</g>
<!-- InterpacketGapInserter -->
<g id="node8" class="node">
<title>InterpacketGapInserter</title>
<g id="a_node8"><a xlink:href="inet.protocolelement.common.InterpacketGapInserter.html" xlink:title="Simple Module InterpacketGapInserter" target="_parent">
<polygon fill="#fffcaf" stroke="black" points="802,-19 674,-19 674,0 802,0 802,-19"/>
<text text-anchor="middle" x="738" y="-7" font-family="Helvetica,sans-Serif" font-size="10.00">InterpacketGapInserter</text>
</a>
</g>
</g>
<!-- ClientHost7&#45;&gt;InterpacketGapInserter -->
<g id="edge7" class="edge">
<title>ClientHost7&#45;&gt;InterpacketGapInserter</title>
<path fill="none" stroke="black" d="M504.11,-56.24C550.69,-47.13 630.91,-31.44 684.21,-21.02"/>
<polygon fill="black" stroke="black" points="685.02,-24.43 694.17,-19.07 683.68,-17.56 685.02,-24.43"/>
</g>
<!-- PacketTransmitter -->
<g id="node9" class="node">
<title>PacketTransmitter</title>
<g id="a_node9"><a xlink:href="inet.protocolelement.transceiver.PacketTransmitter.html" xlink:title="Simple Module PacketTransmitter" target="_parent">
<polygon fill="#fffcaf" stroke="black" points="925.5,-19 820.5,-19 820.5,0 925.5,0 925.5,-19"/>
<text text-anchor="middle" x="873" y="-7" font-family="Helvetica,sans-Serif" font-size="10.00">PacketTransmitter</text>
</a>
</g>
</g>
<!-- ClientHost7&#45;&gt;PacketTransmitter -->
<g id="edge8" class="edge">
<title>ClientHost7&#45;&gt;PacketTransmitter</title>
<path fill="none" stroke="black" d="M504.17,-58.79C565.55,-50.98 692.2,-34.79 810.3,-19.08"/>
<polygon fill="black" stroke="black" points="810.79,-22.55 820.24,-17.76 809.86,-15.61 810.79,-22.55"/>
</g>
<!-- InstantServer -->
<g id="node10" class="node">
<title>InstantServer</title>
<g id="a_node10"><a xlink:href="inet.queueing.server.InstantServer.html" xlink:title="Simple Module InstantServer" target="_parent">
<polygon fill="#fffcaf" stroke="black" points="1026,-19 944,-19 944,0 1026,0 1026,-19"/>
<text text-anchor="middle" x="985" y="-7" font-family="Helvetica,sans-Serif" font-size="10.00">InstantServer</text>
</a>
</g>
</g>
<!-- ClientHost7&#45;&gt;InstantServer -->
<g id="edge9" class="edge">
<title>ClientHost7&#45;&gt;InstantServer</title>
<path fill="none" stroke="black" d="M504.11,-60.9C581.79,-55.27 767.38,-40.76 933.43,-19.11"/>
<polygon fill="black" stroke="black" points="934.38,-22.52 943.84,-17.74 933.46,-15.58 934.38,-22.52"/>
</g>
<!-- Network7 -->
<g id="node11" class="node">
<title>Network7</title>
<g id="a_node11"><a xlink:href="inet.tutorials.protocol.Network7.html" xlink:title="Network Network7" target="_parent">
<polygon fill="#d0d0ff" stroke="black" points="499,-129 435,-129 435,-110 499,-110 499,-129"/>
<text text-anchor="middle" x="467" y="-117" font-family="Helvetica,sans-Serif" font-size="10.00">Network7</text>
</a>
</g>
</g>
<!-- Network7&#45;&gt;ClientHost7 -->
<g id="edge10" class="edge">
<title>Network7&#45;&gt;ClientHost7</title>
<path fill="none" stroke="black" d="M467,-109.75C467,-102.8 467,-92.85 467,-84.13"/>
<polygon fill="black" stroke="black" points="470.5,-84.09 467,-74.09 463.5,-84.09 470.5,-84.09"/>
</g>
</g>
</svg>
