<?xml version="1.0" encoding="UTF-8" standalone="no"?>
<!DOCTYPE svg PUBLIC "-//W3C//DTD SVG 1.1//EN"
 "http://www.w3.org/Graphics/SVG/1.1/DTD/svg11.dtd">
<!-- Generated by graphviz version 2.43.0 (0)
 -->
<!-- Title: opp Pages: 1 -->
<svg width="699pt" height="82pt"
 viewBox="0.00 0.00 698.50 82.00" xmlns="http://www.w3.org/2000/svg" xmlns:xlink="http://www.w3.org/1999/xlink">
<g id="graph0" class="graph" transform="scale(1 1) rotate(0) translate(4 78)">
<title>opp</title>
<polygon fill="transparent" stroke="transparent" points="-4,4 -4,-78 694.5,-78 694.5,4 -4,4"/>
<!-- HiddenNodeShowcase -->
<g id="node1" class="node">
<title>HiddenNodeShowcase</title>
<g id="a_node1"><a xlink:href="inet.showcases.wireless.hiddennode.HiddenNodeShowcase.html" xlink:title="Network HiddenNodeShowcase" target="_parent">
<polygon fill="#9090ff" stroke="black" points="365.5,-74 240.5,-74 240.5,-55 365.5,-55 365.5,-74"/>
<text text-anchor="middle" x="303" y="-62" font-family="Helvetica,sans-Serif" font-size="10.00">HiddenNodeShowcase</text>
</a>
</g>
</g>
<!-- UnitDiskRadioMedium -->
<g id="node2" class="node">
<title>UnitDiskRadioMedium</title>
<g id="a_node2"><a xlink:href="inet.physicallayer.wireless.unitdisk.UnitDiskRadioMedium.html" xlink:title="Compound Module UnitDiskRadioMedium" target="_parent">
<polygon fill="#fffcaf" stroke="black" points="126,-19 0,-19 0,0 126,0 126,-19"/>
<text text-anchor="middle" x="63" y="-7" font-family="Helvetica,sans-Serif" font-size="10.00">UnitDiskRadioMedium</text>
</a>
</g>
</g>
<!-- HiddenNodeShowcase&#45;&gt;UnitDiskRadioMedium -->
<g id="edge1" class="edge">
<title>HiddenNodeShowcase&#45;&gt;UnitDiskRadioMedium</title>
<path fill="none" stroke="black" d="M264.44,-54.98C222.93,-45.82 156.79,-31.21 111.71,-21.26"/>
<polygon fill="black" stroke="black" points="112.38,-17.82 101.86,-19.08 110.87,-24.66 112.38,-17.82"/>
</g>
<!-- WirelessHost -->
<g id="node3" class="node">
<title>WirelessHost</title>
<g id="a_node3"><a xlink:href="inet.node.inet.WirelessHost.html" xlink:title="Compound Module WirelessHost" target="_parent">
<polygon fill="#fffcaf" stroke="black" points="225.5,-19 144.5,-19 144.5,0 225.5,0 225.5,-19"/>
<text text-anchor="middle" x="185" y="-7" font-family="Helvetica,sans-Serif" font-size="10.00">WirelessHost</text>
</a>
</g>
</g>
<!-- HiddenNodeShowcase&#45;&gt;WirelessHost -->
<g id="edge2" class="edge">
<title>HiddenNodeShowcase&#45;&gt;WirelessHost</title>
<path fill="none" stroke="black" d="M284.04,-54.98C264.97,-46.42 235.34,-33.11 213.45,-23.28"/>
<polygon fill="black" stroke="black" points="214.86,-20.07 204.3,-19.17 211.99,-26.46 214.86,-20.07"/>
</g>
<!-- PhysicalEnvironment -->
<g id="node4" class="node">
<title>PhysicalEnvironment</title>
<g id="a_node4"><a xlink:href="inet.environment.common.PhysicalEnvironment.html" xlink:title="Compound Module PhysicalEnvironment" target="_parent">
<polygon fill="#fffcaf" stroke="black" points="362.5,-19 243.5,-19 243.5,0 362.5,0 362.5,-19"/>
<text text-anchor="middle" x="303" y="-7" font-family="Helvetica,sans-Serif" font-size="10.00">PhysicalEnvironment</text>
</a>
</g>
</g>
<!-- HiddenNodeShowcase&#45;&gt;PhysicalEnvironment -->
<g id="edge3" class="edge">
<title>HiddenNodeShowcase&#45;&gt;PhysicalEnvironment</title>
<path fill="none" stroke="black" d="M303,-54.75C303,-47.8 303,-37.85 303,-29.13"/>
<polygon fill="black" stroke="black" points="306.5,-29.09 303,-19.09 299.5,-29.09 306.5,-29.09"/>
</g>
<!-- Ipv4NetworkConfigurator -->
<g id="node5" class="node">
<title>Ipv4NetworkConfigurator</title>
<g id="a_node5"><a xlink:href="inet.networklayer.configurator.ipv4.Ipv4NetworkConfigurator.html" xlink:title="Simple Module Ipv4NetworkConfigurator" target="_parent">
<polygon fill="#fffcaf" stroke="black" points="521,-19 381,-19 381,0 521,0 521,-19"/>
<text text-anchor="middle" x="451" y="-7" font-family="Helvetica,sans-Serif" font-size="10.00">Ipv4NetworkConfigurator</text>
</a>
</g>
</g>
<!-- HiddenNodeShowcase&#45;&gt;Ipv4NetworkConfigurator -->
<g id="edge4" class="edge">
<title>HiddenNodeShowcase&#45;&gt;Ipv4NetworkConfigurator</title>
<path fill="none" stroke="black" d="M326.78,-54.98C351.23,-46.23 389.53,-32.51 417.15,-22.62"/>
<polygon fill="black" stroke="black" points="418.55,-25.84 426.79,-19.17 416.19,-19.25 418.55,-25.84"/>
</g>
<!-- IntegratedCanvasVisualizer -->
<g id="node6" class="node">
<title>IntegratedCanvasVisualizer</title>
<g id="a_node6"><a xlink:href="inet.visualizer.canvas.integrated.IntegratedCanvasVisualizer.html" xlink:title="Compound Module IntegratedCanvasVisualizer" target="_parent">
<polygon fill="#fffcaf" stroke="black" points="690.5,-19 539.5,-19 539.5,0 690.5,0 690.5,-19"/>
<text text-anchor="middle" x="615" y="-7" font-family="Helvetica,sans-Serif" font-size="10.00">IntegratedCanvasVisualizer</text>
</a>
</g>
</g>
<!-- HiddenNodeShowcase&#45;&gt;IntegratedCanvasVisualizer -->
<g id="edge5" class="edge">
<title>HiddenNodeShowcase&#45;&gt;IntegratedCanvasVisualizer</title>
<path fill="none" stroke="black" d="M353.13,-54.98C408.09,-45.65 496.23,-30.67 554.87,-20.71"/>
<polygon fill="black" stroke="black" points="555.47,-24.16 564.74,-19.04 554.29,-17.26 555.47,-24.16"/>
</g>
</g>
</svg>
