<?xml version="1.0" encoding="UTF-8" standalone="no"?>
<!DOCTYPE svg PUBLIC "-//W3C//DTD SVG 1.1//EN"
 "http://www.w3.org/Graphics/SVG/1.1/DTD/svg11.dtd">
<!-- Generated by graphviz version 2.43.0 (0)
 -->
<!-- Title: opp Pages: 1 -->
<svg width="912pt" height="82pt"
 viewBox="0.00 0.00 911.50 82.00" xmlns="http://www.w3.org/2000/svg" xmlns:xlink="http://www.w3.org/1999/xlink">
<g id="graph0" class="graph" transform="scale(1 1) rotate(0) translate(4 78)">
<title>opp</title>
<polygon fill="transparent" stroke="transparent" points="-4,4 -4,-78 907.5,-78 907.5,4 -4,4"/>
<!-- WiredAndWirelessHostsWithAP -->
<g id="node1" class="node">
<title>WiredAndWirelessHostsWithAP</title>
<g id="a_node1"><a xlink:href="inet.examples.wireless.wiredandwirelesshostswithap.WiredAndWirelessHostsWithAP.html" xlink:title="Network WiredAndWirelessHostsWithAP" target="_parent">
<polygon fill="#9090ff" stroke="black" points="485.5,-74 316.5,-74 316.5,-55 485.5,-55 485.5,-74"/>
<text text-anchor="middle" x="401" y="-62" font-family="Helvetica,sans-Serif" font-size="10.00">WiredAndWirelessHostsWithAP</text>
</a>
</g>
</g>
<!-- IIntegratedVisualizer -->
<g id="node2" class="node">
<title>IIntegratedVisualizer</title>
<g id="a_node2"><a xlink:href="inet.visualizer.contract.IIntegratedVisualizer.html" xlink:title="Module Interface IIntegratedVisualizer" target="_parent">
<polygon fill="#fffcaf" stroke="black" stroke-dasharray="5,2" points="118,-19 0,-19 0,0 118,0 118,-19"/>
<text text-anchor="middle" x="59" y="-7" font-family="Helvetica,sans-Serif" font-size="10.00">IIntegratedVisualizer</text>
</a>
</g>
</g>
<!-- WiredAndWirelessHostsWithAP&#45;&gt;IIntegratedVisualizer -->
<g id="edge1" class="edge">
<title>WiredAndWirelessHostsWithAP&#45;&gt;IIntegratedVisualizer</title>
<path fill="none" stroke="black" d="M346.05,-54.98C285.56,-45.61 188.39,-30.55 124.12,-20.59"/>
<polygon fill="black" stroke="black" points="124.51,-17.11 114.1,-19.04 123.44,-24.03 124.51,-17.11"/>
</g>
<!-- StandardHost -->
<g id="node3" class="node">
<title>StandardHost</title>
<g id="a_node3"><a xlink:href="inet.node.inet.StandardHost.html" xlink:title="Compound Module StandardHost" target="_parent">
<polygon fill="#fffcaf" stroke="black" points="219.5,-19 136.5,-19 136.5,0 219.5,0 219.5,-19"/>
<text text-anchor="middle" x="178" y="-7" font-family="Helvetica,sans-Serif" font-size="10.00">StandardHost</text>
</a>
</g>
</g>
<!-- WiredAndWirelessHostsWithAP&#45;&gt;StandardHost -->
<g id="edge2" class="edge">
<title>WiredAndWirelessHostsWithAP&#45;&gt;StandardHost</title>
<path fill="none" stroke="black" d="M365.17,-54.98C326.84,-45.87 265.92,-31.4 224.05,-21.45"/>
<polygon fill="black" stroke="black" points="224.65,-17.99 214.11,-19.08 223.03,-24.8 224.65,-17.99"/>
</g>
<!-- AccessPoint -->
<g id="node4" class="node">
<title>AccessPoint</title>
<g id="a_node4"><a xlink:href="inet.node.wireless.AccessPoint.html" xlink:title="Compound Module AccessPoint" target="_parent">
<polygon fill="#fffcaf" stroke="black" points="312.5,-19 237.5,-19 237.5,0 312.5,0 312.5,-19"/>
<text text-anchor="middle" x="275" y="-7" font-family="Helvetica,sans-Serif" font-size="10.00">AccessPoint</text>
</a>
</g>
</g>
<!-- WiredAndWirelessHostsWithAP&#45;&gt;AccessPoint -->
<g id="edge3" class="edge">
<title>WiredAndWirelessHostsWithAP&#45;&gt;AccessPoint</title>
<path fill="none" stroke="black" d="M380.76,-54.98C360.3,-46.38 328.47,-32.99 305.07,-23.15"/>
<polygon fill="black" stroke="black" points="306.19,-19.82 295.61,-19.17 303.47,-26.27 306.19,-19.82"/>
</g>
<!-- Router -->
<g id="node5" class="node">
<title>Router</title>
<g id="a_node5"><a xlink:href="inet.node.inet.Router.html" xlink:title="Compound Module Router" target="_parent">
<polygon fill="#fffcaf" stroke="black" points="385,-19 331,-19 331,0 385,0 385,-19"/>
<text text-anchor="middle" x="358" y="-7" font-family="Helvetica,sans-Serif" font-size="10.00">Router</text>
</a>
</g>
</g>
<!-- WiredAndWirelessHostsWithAP&#45;&gt;Router -->
<g id="edge4" class="edge">
<title>WiredAndWirelessHostsWithAP&#45;&gt;Router</title>
<path fill="none" stroke="black" d="M393.9,-54.75C387.83,-47.26 378.91,-36.28 371.49,-27.13"/>
<polygon fill="black" stroke="black" points="373.99,-24.65 364.97,-19.09 368.55,-29.06 373.99,-24.65"/>
</g>
<!-- WirelessHost -->
<g id="node6" class="node">
<title>WirelessHost</title>
<g id="a_node6"><a xlink:href="inet.node.inet.WirelessHost.html" xlink:title="Compound Module WirelessHost" target="_parent">
<polygon fill="#fffcaf" stroke="black" points="484.5,-19 403.5,-19 403.5,0 484.5,0 484.5,-19"/>
<text text-anchor="middle" x="444" y="-7" font-family="Helvetica,sans-Serif" font-size="10.00">WirelessHost</text>
</a>
</g>
</g>
<!-- WiredAndWirelessHostsWithAP&#45;&gt;WirelessHost -->
<g id="edge5" class="edge">
<title>WiredAndWirelessHostsWithAP&#45;&gt;WirelessHost</title>
<path fill="none" stroke="black" d="M408.1,-54.75C414.17,-47.26 423.09,-36.28 430.51,-27.13"/>
<polygon fill="black" stroke="black" points="433.45,-29.06 437.03,-19.09 428.01,-24.65 433.45,-29.06"/>
</g>
<!-- Ipv4NetworkConfigurator -->
<g id="node7" class="node">
<title>Ipv4NetworkConfigurator</title>
<g id="a_node7"><a xlink:href="inet.networklayer.configurator.ipv4.Ipv4NetworkConfigurator.html" xlink:title="Simple Module Ipv4NetworkConfigurator" target="_parent">
<polygon fill="#fffcaf" stroke="black" points="643,-19 503,-19 503,0 643,0 643,-19"/>
<text text-anchor="middle" x="573" y="-7" font-family="Helvetica,sans-Serif" font-size="10.00">Ipv4NetworkConfigurator</text>
</a>
</g>
</g>
<!-- WiredAndWirelessHostsWithAP&#45;&gt;Ipv4NetworkConfigurator -->
<g id="edge6" class="edge">
<title>WiredAndWirelessHostsWithAP&#45;&gt;Ipv4NetworkConfigurator</title>
<path fill="none" stroke="black" d="M428.63,-54.98C457.51,-46.09 503.01,-32.07 535.2,-22.15"/>
<polygon fill="black" stroke="black" points="536.62,-25.37 545.15,-19.08 534.56,-18.68 536.62,-25.37"/>
</g>
<!-- Ieee80211ScalarRadioMedium -->
<g id="node8" class="node">
<title>Ieee80211ScalarRadioMedium</title>
<g id="a_node8"><a xlink:href="inet.physicallayer.wireless.ieee80211.packetlevel.Ieee80211ScalarRadioMedium.html" xlink:title="Compound Module Ieee80211ScalarRadioMedium" target="_parent">
<polygon fill="#fffcaf" stroke="black" points="826.5,-19 661.5,-19 661.5,0 826.5,0 826.5,-19"/>
<text text-anchor="middle" x="744" y="-7" font-family="Helvetica,sans-Serif" font-size="10.00">Ieee80211ScalarRadioMedium</text>
</a>
</g>
</g>
<!-- WiredAndWirelessHostsWithAP&#45;&gt;Ieee80211ScalarRadioMedium -->
<g id="edge7" class="edge">
<title>WiredAndWirelessHostsWithAP&#45;&gt;Ieee80211ScalarRadioMedium</title>
<path fill="none" stroke="black" d="M456.11,-54.98C516.78,-45.61 614.24,-30.55 678.69,-20.59"/>
<polygon fill="black" stroke="black" points="679.4,-24.02 688.74,-19.04 678.33,-17.11 679.4,-24.02"/>
</g>
<!-- Eth100M -->
<g id="node9" class="node">
<title>Eth100M</title>
<g id="a_node9"><a xlink:href="inet.node.ethernet.Eth100M.html" xlink:title="Channel Eth100M" target="_parent">
<polygon fill="#d0ffd0" stroke="black" points="903.5,-19 844.5,-19 844.5,0 903.5,0 903.5,-19"/>
<text text-anchor="middle" x="874" y="-7" font-family="Helvetica,sans-Serif" font-size="10.00">Eth100M</text>
</a>
</g>
</g>
<!-- WiredAndWirelessHostsWithAP&#45;&gt;Eth100M -->
<g id="edge8" class="edge">
<title>WiredAndWirelessHostsWithAP&#45;&gt;Eth100M</title>
<path fill="none" stroke="black" d="M485.59,-57.82C571.21,-51.39 707.56,-39.31 833.95,-19.17"/>
<polygon fill="black" stroke="black" points="834.88,-22.57 844.19,-17.52 833.76,-15.66 834.88,-22.57"/>
</g>
</g>
</svg>
