<?xml version="1.0" encoding="UTF-8" standalone="no"?>
<!DOCTYPE svg PUBLIC "-//W3C//DTD SVG 1.1//EN"
 "http://www.w3.org/Graphics/SVG/1.1/DTD/svg11.dtd">
<!-- Generated by graphviz version 2.43.0 (0)
 -->
<!-- Title: opp Pages: 1 -->
<svg width="252pt" height="82pt"
 viewBox="0.00 0.00 252.00 82.00" xmlns="http://www.w3.org/2000/svg" xmlns:xlink="http://www.w3.org/1999/xlink">
<g id="graph0" class="graph" transform="scale(1 1) rotate(0) translate(4 78)">
<title>opp</title>
<polygon fill="transparent" stroke="transparent" points="-4,4 -4,-78 248,-78 248,4 -4,4"/>
<!-- PacketHistory -->
<g id="node1" class="node">
<title>PacketHistory</title>
<g id="a_node1"><a xlink:href="inet.queueing.common.PacketHistory.html" xlink:title="Compound Module PacketHistory" target="_parent">
<polygon fill="#fff700" stroke="black" points="162,-19 78,-19 78,0 162,0 162,-19"/>
<text text-anchor="middle" x="120" y="-7" font-family="Helvetica,sans-Serif" font-size="10.00">PacketHistory</text>
</a>
</g>
</g>
<!-- IPassivePacketSink -->
<g id="node2" class="node">
<title>IPassivePacketSink</title>
<g id="a_node2"><a xlink:href="inet.queueing.contract.IPassivePacketSink.html" xlink:title="Module Interface IPassivePacketSink" target="_parent">
<polygon fill="#fffcaf" stroke="black" stroke-dasharray="5,2" points="110,-74 0,-74 0,-55 110,-55 110,-74"/>
<text text-anchor="middle" x="55" y="-62" font-family="Helvetica,sans-Serif" font-size="10.00">IPassivePacketSink</text>
</a>
</g>
</g>
<!-- IPassivePacketSink&#45;&gt;PacketHistory -->
<g id="edge1" class="edge">
<title>IPassivePacketSink&#45;&gt;PacketHistory</title>
<path fill="none" stroke="black" stroke-dasharray="5,2" d="M65.44,-54.98C77.5,-45.15 97.23,-29.07 109.37,-19.17"/>
</g>
<!-- IActivePacketSource -->
<g id="node3" class="node">
<title>IActivePacketSource</title>
<g id="a_node3"><a xlink:href="inet.queueing.contract.IActivePacketSource.html" xlink:title="Module Interface IActivePacketSource" target="_parent">
<polygon fill="#fffcaf" stroke="black" stroke-dasharray="5,2" points="244,-74 128,-74 128,-55 244,-55 244,-74"/>
<text text-anchor="middle" x="186" y="-62" font-family="Helvetica,sans-Serif" font-size="10.00">IActivePacketSource</text>
</a>
</g>
</g>
<!-- IActivePacketSource&#45;&gt;PacketHistory -->
<g id="edge2" class="edge">
<title>IActivePacketSource&#45;&gt;PacketHistory</title>
<path fill="none" stroke="black" stroke-dasharray="5,2" d="M175.4,-54.98C163.15,-45.15 143.12,-29.07 130.8,-19.17"/>
</g>
</g>
</svg>
