<?xml version="1.0" encoding="UTF-8" standalone="no"?>
<!DOCTYPE svg PUBLIC "-//W3C//DTD SVG 1.1//EN"
 "http://www.w3.org/Graphics/SVG/1.1/DTD/svg11.dtd">
<!-- Generated by graphviz version 2.43.0 (0)
 -->
<!-- Title: opp Pages: 1 -->
<svg width="286pt" height="82pt"
 viewBox="0.00 0.00 286.00 82.00" xmlns="http://www.w3.org/2000/svg" xmlns:xlink="http://www.w3.org/1999/xlink">
<g id="graph0" class="graph" transform="scale(1 1) rotate(0) translate(4 78)">
<title>opp</title>
<polygon fill="transparent" stroke="transparent" points="-4,4 -4,-78 282,-78 282,4 -4,4"/>
<!-- StreamRelayLayer -->
<g id="node1" class="node">
<title>StreamRelayLayer</title>
<g id="a_node1"><a xlink:href="inet.protocolelement.redundancy.StreamRelayLayer.html" xlink:title="Compound Module StreamRelayLayer" target="_parent">
<polygon fill="#fff700" stroke="black" points="194.5,-74 87.5,-74 87.5,-55 194.5,-55 194.5,-74"/>
<text text-anchor="middle" x="141" y="-62" font-family="Helvetica,sans-Serif" font-size="10.00">StreamRelayLayer</text>
</a>
</g>
</g>
<!-- IdealChannel -->
<g id="node2" class="node">
<title>IdealChannel</title>
<g id="a_node2"><a xlink:href="ned.IdealChannel.html" xlink:title="Channel IdealChannel" target="_parent">
<polygon fill="#d0ffd0" stroke="black" points="80,-19 0,-19 0,0 80,0 80,-19"/>
<text text-anchor="middle" x="40" y="-7" font-family="Helvetica,sans-Serif" font-size="10.00">IdealChannel</text>
</a>
</g>
</g>
<!-- StreamRelayLayer&#45;&gt;IdealChannel -->
<g id="edge1" class="edge">
<title>StreamRelayLayer&#45;&gt;IdealChannel</title>
<path fill="none" stroke="black" d="M124.77,-54.98C108.82,-46.61 84.22,-33.7 65.62,-23.95"/>
<polygon fill="black" stroke="black" points="67,-20.72 56.52,-19.17 63.75,-26.92 67,-20.72"/>
</g>
<!-- IPacketPusher -->
<g id="node3" class="node">
<title>IPacketPusher</title>
<g id="a_node3"><a xlink:href="inet.queueing.contract.IPacketPusher.html" xlink:title="Module Interface IPacketPusher" target="_parent">
<polygon fill="#fffcaf" stroke="black" stroke-dasharray="5,2" points="183.5,-19 98.5,-19 98.5,0 183.5,0 183.5,-19"/>
<text text-anchor="middle" x="141" y="-7" font-family="Helvetica,sans-Serif" font-size="10.00">IPacketPusher</text>
</a>
</g>
</g>
<!-- StreamRelayLayer&#45;&gt;IPacketPusher -->
<g id="edge2" class="edge">
<title>StreamRelayLayer&#45;&gt;IPacketPusher</title>
<path fill="none" stroke="black" d="M141,-54.75C141,-47.8 141,-37.85 141,-29.13"/>
<polygon fill="black" stroke="black" points="144.5,-29.09 141,-19.09 137.5,-29.09 144.5,-29.09"/>
</g>
<!-- IPacketFilter -->
<g id="node4" class="node">
<title>IPacketFilter</title>
<g id="a_node4"><a xlink:href="inet.queueing.contract.IPacketFilter.html" xlink:title="Module Interface IPacketFilter" target="_parent">
<polygon fill="#fffcaf" stroke="black" stroke-dasharray="5,2" points="278,-19 202,-19 202,0 278,0 278,-19"/>
<text text-anchor="middle" x="240" y="-7" font-family="Helvetica,sans-Serif" font-size="10.00">IPacketFilter</text>
</a>
</g>
</g>
<!-- StreamRelayLayer&#45;&gt;IPacketFilter -->
<g id="edge3" class="edge">
<title>StreamRelayLayer&#45;&gt;IPacketFilter</title>
<path fill="none" stroke="black" d="M156.91,-54.98C172.55,-46.61 196.66,-33.7 214.88,-23.95"/>
<polygon fill="black" stroke="black" points="216.64,-26.98 223.8,-19.17 213.34,-20.8 216.64,-26.98"/>
</g>
</g>
</svg>
