<?xml version="1.0" encoding="UTF-8" standalone="no"?>
<!DOCTYPE svg PUBLIC "-//W3C//DTD SVG 1.1//EN"
 "http://www.w3.org/Graphics/SVG/1.1/DTD/svg11.dtd">
<!-- Generated by graphviz version 2.43.0 (0)
 -->
<!-- Title: opp Pages: 1 -->
<svg width="282pt" height="137pt"
 viewBox="0.00 0.00 282.00 137.00" xmlns="http://www.w3.org/2000/svg" xmlns:xlink="http://www.w3.org/1999/xlink">
<g id="graph0" class="graph" transform="scale(1 1) rotate(0) translate(4 133)">
<title>opp</title>
<polygon fill="transparent" stroke="transparent" points="-4,4 -4,-133 278,-133 278,4 -4,4"/>
<!-- PacketSinkBase -->
<g id="node1" class="node">
<title>PacketSinkBase</title>
<g id="a_node1"><a xlink:href="inet.queueing.base.PacketSinkBase.html" xlink:title="Simple Module PacketSinkBase" target="_parent">
<polygon fill="#fff700" stroke="black" points="182.5,-74 88.5,-74 88.5,-55 182.5,-55 182.5,-74"/>
<text text-anchor="middle" x="135.5" y="-62" font-family="Helvetica,sans-Serif" font-size="10.00">PacketSinkBase</text>
</a>
</g>
</g>
<!-- ActivePacketSinkBase -->
<g id="node3" class="node">
<title>ActivePacketSinkBase</title>
<g id="a_node3"><a xlink:href="inet.queueing.base.ActivePacketSinkBase.html" xlink:title="Simple Module ActivePacketSinkBase" target="_parent">
<polygon fill="#fffcaf" stroke="black" points="125,-19 0,-19 0,0 125,0 125,-19"/>
<text text-anchor="middle" x="62.5" y="-7" font-family="Helvetica,sans-Serif" font-size="10.00">ActivePacketSinkBase</text>
</a>
</g>
</g>
<!-- PacketSinkBase&#45;&gt;ActivePacketSinkBase -->
<g id="edge2" class="edge">
<title>PacketSinkBase&#45;&gt;ActivePacketSinkBase</title>
<path fill="none" stroke="black" d="M123.77,-54.98C110.23,-45.15 88.07,-29.07 74.44,-19.17"/>
</g>
<!-- PassivePacketSinkBase -->
<g id="node4" class="node">
<title>PassivePacketSinkBase</title>
<g id="a_node4"><a xlink:href="inet.queueing.base.PassivePacketSinkBase.html" xlink:title="Simple Module PassivePacketSinkBase" target="_parent">
<polygon fill="#fffcaf" stroke="black" points="274,-19 143,-19 143,0 274,0 274,-19"/>
<text text-anchor="middle" x="208.5" y="-7" font-family="Helvetica,sans-Serif" font-size="10.00">PassivePacketSinkBase</text>
</a>
</g>
</g>
<!-- PacketSinkBase&#45;&gt;PassivePacketSinkBase -->
<g id="edge3" class="edge">
<title>PacketSinkBase&#45;&gt;PassivePacketSinkBase</title>
<path fill="none" stroke="black" d="M147.23,-54.98C160.77,-45.15 182.93,-29.07 196.56,-19.17"/>
</g>
<!-- PacketProcessorBase -->
<g id="node2" class="node">
<title>PacketProcessorBase</title>
<g id="a_node2"><a xlink:href="inet.queueing.base.PacketProcessorBase.html" xlink:title="Simple Module PacketProcessorBase" target="_parent">
<polygon fill="#fffcaf" stroke="black" points="195.5,-129 75.5,-129 75.5,-110 195.5,-110 195.5,-129"/>
<text text-anchor="middle" x="135.5" y="-117" font-family="Helvetica,sans-Serif" font-size="10.00">PacketProcessorBase</text>
</a>
</g>
</g>
<!-- PacketProcessorBase&#45;&gt;PacketSinkBase -->
<g id="edge1" class="edge">
<title>PacketProcessorBase&#45;&gt;PacketSinkBase</title>
<path fill="none" stroke="black" d="M135.5,-109.75C135.5,-99.87 135.5,-83.9 135.5,-74.09"/>
</g>
</g>
</svg>
