<?xml version="1.0" encoding="UTF-8" standalone="no"?>
<!DOCTYPE svg PUBLIC "-//W3C//DTD SVG 1.1//EN"
 "http://www.w3.org/Graphics/SVG/1.1/DTD/svg11.dtd">
<!-- Generated by graphviz version 2.43.0 (0)
 -->
<!-- Title: opp Pages: 1 -->
<svg width="440pt" height="82pt"
 viewBox="0.00 0.00 439.50 82.00" xmlns="http://www.w3.org/2000/svg" xmlns:xlink="http://www.w3.org/1999/xlink">
<g id="graph0" class="graph" transform="scale(1 1) rotate(0) translate(4 78)">
<title>opp</title>
<polygon fill="transparent" stroke="transparent" points="-4,4 -4,-78 435.5,-78 435.5,4 -4,4"/>
<!-- pimDMFinal -->
<g id="node1" class="node">
<title>pimDMFinal</title>
<g id="a_node1"><a xlink:href="inet.examples.pim.dm.basic.pimDMFinal.html" xlink:title="Network pimDMFinal" target="_parent">
<polygon fill="#9090ff" stroke="black" points="256,-74 182,-74 182,-55 256,-55 256,-74"/>
<text text-anchor="middle" x="219" y="-62" font-family="Helvetica,sans-Serif" font-size="10.00">pimDMFinal</text>
</a>
</g>
</g>
<!-- MulticastRouter -->
<g id="node2" class="node">
<title>MulticastRouter</title>
<g id="a_node2"><a xlink:href="inet.node.inet.MulticastRouter.html" xlink:title="Compound Module MulticastRouter" target="_parent">
<polygon fill="#fffcaf" stroke="black" points="94,-19 0,-19 0,0 94,0 94,-19"/>
<text text-anchor="middle" x="47" y="-7" font-family="Helvetica,sans-Serif" font-size="10.00">MulticastRouter</text>
</a>
</g>
</g>
<!-- pimDMFinal&#45;&gt;MulticastRouter -->
<g id="edge1" class="edge">
<title>pimDMFinal&#45;&gt;MulticastRouter</title>
<path fill="none" stroke="black" d="M191.37,-54.98C162.49,-46.09 116.99,-32.07 84.8,-22.15"/>
<polygon fill="black" stroke="black" points="85.44,-18.68 74.85,-19.08 83.38,-25.37 85.44,-18.68"/>
</g>
<!-- StandardHost -->
<g id="node3" class="node">
<title>StandardHost</title>
<g id="a_node3"><a xlink:href="inet.node.inet.StandardHost.html" xlink:title="Compound Module StandardHost" target="_parent">
<polygon fill="#fffcaf" stroke="black" points="195.5,-19 112.5,-19 112.5,0 195.5,0 195.5,-19"/>
<text text-anchor="middle" x="154" y="-7" font-family="Helvetica,sans-Serif" font-size="10.00">StandardHost</text>
</a>
</g>
</g>
<!-- pimDMFinal&#45;&gt;StandardHost -->
<g id="edge2" class="edge">
<title>pimDMFinal&#45;&gt;StandardHost</title>
<path fill="none" stroke="black" d="M208.56,-54.98C198.85,-47.07 184.18,-35.11 172.5,-25.58"/>
<polygon fill="black" stroke="black" points="174.6,-22.78 164.63,-19.17 170.17,-28.2 174.6,-22.78"/>
</g>
<!-- Ipv4NetworkConfigurator -->
<g id="node4" class="node">
<title>Ipv4NetworkConfigurator</title>
<g id="a_node4"><a xlink:href="inet.networklayer.configurator.ipv4.Ipv4NetworkConfigurator.html" xlink:title="Simple Module Ipv4NetworkConfigurator" target="_parent">
<polygon fill="#fffcaf" stroke="black" points="354,-19 214,-19 214,0 354,0 354,-19"/>
<text text-anchor="middle" x="284" y="-7" font-family="Helvetica,sans-Serif" font-size="10.00">Ipv4NetworkConfigurator</text>
</a>
</g>
</g>
<!-- pimDMFinal&#45;&gt;Ipv4NetworkConfigurator -->
<g id="edge3" class="edge">
<title>pimDMFinal&#45;&gt;Ipv4NetworkConfigurator</title>
<path fill="none" stroke="black" d="M229.44,-54.98C239.15,-47.07 253.82,-35.11 265.5,-25.58"/>
<polygon fill="black" stroke="black" points="267.83,-28.2 273.37,-19.17 263.4,-22.78 267.83,-28.2"/>
</g>
<!-- Eth100M -->
<g id="node5" class="node">
<title>Eth100M</title>
<g id="a_node5"><a xlink:href="inet.node.ethernet.Eth100M.html" xlink:title="Channel Eth100M" target="_parent">
<polygon fill="#d0ffd0" stroke="black" points="431.5,-19 372.5,-19 372.5,0 431.5,0 431.5,-19"/>
<text text-anchor="middle" x="402" y="-7" font-family="Helvetica,sans-Serif" font-size="10.00">Eth100M</text>
</a>
</g>
</g>
<!-- pimDMFinal&#45;&gt;Eth100M -->
<g id="edge4" class="edge">
<title>pimDMFinal&#45;&gt;Eth100M</title>
<path fill="none" stroke="black" d="M248.4,-54.98C279.39,-46.01 328.38,-31.82 362.67,-21.89"/>
<polygon fill="black" stroke="black" points="363.74,-25.23 372.37,-19.08 361.79,-18.5 363.74,-25.23"/>
</g>
</g>
</svg>
