<?xml version="1.0" encoding="UTF-8" standalone="no"?>
<!DOCTYPE svg PUBLIC "-//W3C//DTD SVG 1.1//EN"
 "http://www.w3.org/Graphics/SVG/1.1/DTD/svg11.dtd">
<!-- Generated by graphviz version 2.43.0 (0)
 -->
<!-- Title: opp Pages: 1 -->
<svg width="236pt" height="82pt"
 viewBox="0.00 0.00 236.00 82.00" xmlns="http://www.w3.org/2000/svg" xmlns:xlink="http://www.w3.org/1999/xlink">
<g id="graph0" class="graph" transform="scale(1 1) rotate(0) translate(4 78)">
<title>opp</title>
<polygon fill="transparent" stroke="transparent" points="-4,4 -4,-78 232,-78 232,4 -4,4"/>
<!-- PacketDelayer -->
<g id="node1" class="node">
<title>PacketDelayer</title>
<g id="a_node1"><a xlink:href="inet.queueing.common.PacketDelayer.html" xlink:title="Simple Module PacketDelayer" target="_parent">
<polygon fill="#fff700" stroke="black" points="164.5,-19 77.5,-19 77.5,0 164.5,0 164.5,-19"/>
<text text-anchor="middle" x="121" y="-7" font-family="Helvetica,sans-Serif" font-size="10.00">PacketDelayer</text>
</a>
</g>
</g>
<!-- PacketProcessorBase -->
<g id="node2" class="node">
<title>PacketProcessorBase</title>
<g id="a_node2"><a xlink:href="inet.queueing.base.PacketProcessorBase.html" xlink:title="Simple Module PacketProcessorBase" target="_parent">
<polygon fill="#fffcaf" stroke="black" points="120,-74 0,-74 0,-55 120,-55 120,-74"/>
<text text-anchor="middle" x="60" y="-62" font-family="Helvetica,sans-Serif" font-size="10.00">PacketProcessorBase</text>
</a>
</g>
</g>
<!-- PacketProcessorBase&#45;&gt;PacketDelayer -->
<g id="edge1" class="edge">
<title>PacketProcessorBase&#45;&gt;PacketDelayer</title>
<path fill="none" stroke="black" d="M69.8,-54.98C81.12,-45.15 99.63,-29.07 111.02,-19.17"/>
</g>
<!-- IPacketDelayer -->
<g id="node3" class="node">
<title>IPacketDelayer</title>
<g id="a_node3"><a xlink:href="inet.queueing.contract.IPacketDelayer.html" xlink:title="Module Interface IPacketDelayer" target="_parent">
<polygon fill="#fffcaf" stroke="black" stroke-dasharray="5,2" points="228,-74 138,-74 138,-55 228,-55 228,-74"/>
<text text-anchor="middle" x="183" y="-62" font-family="Helvetica,sans-Serif" font-size="10.00">IPacketDelayer</text>
</a>
</g>
</g>
<!-- IPacketDelayer&#45;&gt;PacketDelayer -->
<g id="edge2" class="edge">
<title>IPacketDelayer&#45;&gt;PacketDelayer</title>
<path fill="none" stroke="black" stroke-dasharray="5,2" d="M173.04,-54.98C161.54,-45.15 142.72,-29.07 131.14,-19.17"/>
</g>
</g>
</svg>
