<?xml version="1.0" encoding="UTF-8" standalone="no"?>
<!DOCTYPE svg PUBLIC "-//W3C//DTD SVG 1.1//EN"
 "http://www.w3.org/Graphics/SVG/1.1/DTD/svg11.dtd">
<!-- Generated by graphviz version 2.43.0 (0)
 -->
<!-- Title: opp Pages: 1 -->
<svg width="212pt" height="137pt"
 viewBox="0.00 0.00 211.50 137.00" xmlns="http://www.w3.org/2000/svg" xmlns:xlink="http://www.w3.org/1999/xlink">
<g id="graph0" class="graph" transform="scale(1 1) rotate(0) translate(4 133)">
<title>opp</title>
<polygon fill="transparent" stroke="transparent" points="-4,4 -4,-133 207.5,-133 207.5,4 -4,4"/>
<!-- PacketBuffer -->
<g id="node1" class="node">
<title>PacketBuffer</title>
<g id="a_node1"><a xlink:href="inet.queueing.buffer.PacketBuffer.html" xlink:title="Simple Module PacketBuffer" target="_parent">
<polygon fill="#fff700" stroke="black" points="146,-74 67,-74 67,-55 146,-55 146,-74"/>
<text text-anchor="middle" x="106.5" y="-62" font-family="Helvetica,sans-Serif" font-size="10.00">PacketBuffer</text>
</a>
</g>
</g>
<!-- PriorityBuffer -->
<g id="node4" class="node">
<title>PriorityBuffer</title>
<g id="a_node4"><a xlink:href="inet.queueing.buffer.PriorityBuffer.html" xlink:title="Simple Module PriorityBuffer" target="_parent">
<polygon fill="#fffcaf" stroke="black" points="147.5,-19 65.5,-19 65.5,0 147.5,0 147.5,-19"/>
<text text-anchor="middle" x="106.5" y="-7" font-family="Helvetica,sans-Serif" font-size="10.00">PriorityBuffer</text>
</a>
</g>
</g>
<!-- PacketBuffer&#45;&gt;PriorityBuffer -->
<g id="edge3" class="edge">
<title>PacketBuffer&#45;&gt;PriorityBuffer</title>
<path fill="none" stroke="black" d="M106.5,-54.75C106.5,-44.87 106.5,-28.9 106.5,-19.09"/>
</g>
<!-- PacketBufferBase -->
<g id="node2" class="node">
<title>PacketBufferBase</title>
<g id="a_node2"><a xlink:href="inet.queueing.base.PacketBufferBase.html" xlink:title="Simple Module PacketBufferBase" target="_parent">
<polygon fill="#fffcaf" stroke="black" points="103,-129 0,-129 0,-110 103,-110 103,-129"/>
<text text-anchor="middle" x="51.5" y="-117" font-family="Helvetica,sans-Serif" font-size="10.00">PacketBufferBase</text>
</a>
</g>
</g>
<!-- PacketBufferBase&#45;&gt;PacketBuffer -->
<g id="edge1" class="edge">
<title>PacketBufferBase&#45;&gt;PacketBuffer</title>
<path fill="none" stroke="black" d="M60.58,-109.75C70.83,-99.87 87.41,-83.9 97.59,-74.09"/>
</g>
<!-- IPacketBuffer -->
<g id="node3" class="node">
<title>IPacketBuffer</title>
<g id="a_node3"><a xlink:href="inet.queueing.contract.IPacketBuffer.html" xlink:title="Module Interface IPacketBuffer" target="_parent">
<polygon fill="#fffcaf" stroke="black" stroke-dasharray="5,2" points="203.5,-129 121.5,-129 121.5,-110 203.5,-110 203.5,-129"/>
<text text-anchor="middle" x="162.5" y="-117" font-family="Helvetica,sans-Serif" font-size="10.00">IPacketBuffer</text>
</a>
</g>
</g>
<!-- IPacketBuffer&#45;&gt;PacketBuffer -->
<g id="edge2" class="edge">
<title>IPacketBuffer&#45;&gt;PacketBuffer</title>
<path fill="none" stroke="black" stroke-dasharray="5,2" d="M153.5,-109.98C143.11,-100.15 126.12,-84.07 115.66,-74.17"/>
</g>
</g>
</svg>
