<?xml version="1.0" encoding="UTF-8" standalone="no"?>
<!DOCTYPE svg PUBLIC "-//W3C//DTD SVG 1.1//EN"
 "http://www.w3.org/Graphics/SVG/1.1/DTD/svg11.dtd">
<!-- Generated by graphviz version 2.43.0 (0)
 -->
<!-- Title: opp Pages: 1 -->
<svg width="284pt" height="82pt"
 viewBox="0.00 0.00 284.00 82.00" xmlns="http://www.w3.org/2000/svg" xmlns:xlink="http://www.w3.org/1999/xlink">
<g id="graph0" class="graph" transform="scale(1 1) rotate(0) translate(4 78)">
<title>opp</title>
<polygon fill="transparent" stroke="transparent" points="-4,4 -4,-78 280,-78 280,4 -4,4"/>
<!-- EthernetFragmentingMacLayer -->
<g id="node1" class="node">
<title>EthernetFragmentingMacLayer</title>
<g id="a_node1"><a xlink:href="inet.linklayer.ethernet.modular.EthernetFragmentingMacLayer.html" xlink:title="Compound Module EthernetFragmentingMacLayer" target="_parent">
<polygon fill="#fff700" stroke="black" points="196.5,-74 29.5,-74 29.5,-55 196.5,-55 196.5,-74"/>
<text text-anchor="middle" x="113" y="-62" font-family="Helvetica,sans-Serif" font-size="10.00">EthernetFragmentingMacLayer</text>
</a>
</g>
</g>
<!-- IdealChannel -->
<g id="node2" class="node">
<title>IdealChannel</title>
<g id="a_node2"><a xlink:href="ned.IdealChannel.html" xlink:title="Channel IdealChannel" target="_parent">
<polygon fill="#d0ffd0" stroke="black" points="80,-19 0,-19 0,0 80,0 80,-19"/>
<text text-anchor="middle" x="40" y="-7" font-family="Helvetica,sans-Serif" font-size="10.00">IdealChannel</text>
</a>
</g>
</g>
<!-- EthernetFragmentingMacLayer&#45;&gt;IdealChannel -->
<g id="edge1" class="edge">
<title>EthernetFragmentingMacLayer&#45;&gt;IdealChannel</title>
<path fill="none" stroke="black" d="M101.27,-54.98C90.27,-47 73.58,-34.88 60.4,-25.31"/>
<polygon fill="black" stroke="black" points="62.09,-22.21 51.94,-19.17 57.98,-27.88 62.09,-22.21"/>
</g>
<!-- FragmentTagBasedDefragmenter -->
<g id="node3" class="node">
<title>FragmentTagBasedDefragmenter</title>
<g id="a_node3"><a xlink:href="inet.protocolelement.fragmentation.FragmentTagBasedDefragmenter.html" xlink:title="Simple Module FragmentTagBasedDefragmenter" target="_parent">
<polygon fill="#fffcaf" stroke="black" points="276,-19 98,-19 98,0 276,0 276,-19"/>
<text text-anchor="middle" x="187" y="-7" font-family="Helvetica,sans-Serif" font-size="10.00">FragmentTagBasedDefragmenter</text>
</a>
</g>
</g>
<!-- EthernetFragmentingMacLayer&#45;&gt;FragmentTagBasedDefragmenter -->
<g id="edge2" class="edge">
<title>EthernetFragmentingMacLayer&#45;&gt;FragmentTagBasedDefragmenter</title>
<path fill="none" stroke="black" d="M124.89,-54.98C136.15,-46.92 153.29,-34.65 166.71,-25.03"/>
<polygon fill="black" stroke="black" points="168.8,-27.84 174.89,-19.17 164.73,-22.15 168.8,-27.84"/>
</g>
</g>
</svg>
