<?xml version="1.0" encoding="UTF-8" standalone="no"?>
<!DOCTYPE svg PUBLIC "-//W3C//DTD SVG 1.1//EN"
 "http://www.w3.org/Graphics/SVG/1.1/DTD/svg11.dtd">
<!-- Generated by graphviz version 2.43.0 (0)
 -->
<!-- Title: opp Pages: 1 -->
<svg width="490pt" height="82pt"
 viewBox="0.00 0.00 489.50 82.00" xmlns="http://www.w3.org/2000/svg" xmlns:xlink="http://www.w3.org/1999/xlink">
<g id="graph0" class="graph" transform="scale(1 1) rotate(0) translate(4 78)">
<title>opp</title>
<polygon fill="transparent" stroke="transparent" points="-4,4 -4,-78 485.5,-78 485.5,4 -4,4"/>
<!-- TestRadioScaling -->
<g id="node1" class="node">
<title>TestRadioScaling</title>
<g id="a_node1"><a xlink:href="inet.examples.wireless.scaling.TestRadioScaling.html" xlink:title="Network TestRadioScaling" target="_parent">
<polygon fill="#9090ff" stroke="black" points="290.5,-74 191.5,-74 191.5,-55 290.5,-55 290.5,-74"/>
<text text-anchor="middle" x="241" y="-62" font-family="Helvetica,sans-Serif" font-size="10.00">TestRadioScaling</text>
</a>
</g>
</g>
<!-- IIntegratedVisualizer -->
<g id="node2" class="node">
<title>IIntegratedVisualizer</title>
<g id="a_node2"><a xlink:href="inet.visualizer.contract.IIntegratedVisualizer.html" xlink:title="Module Interface IIntegratedVisualizer" target="_parent">
<polygon fill="#fffcaf" stroke="black" stroke-dasharray="5,2" points="118,-19 0,-19 0,0 118,0 118,-19"/>
<text text-anchor="middle" x="59" y="-7" font-family="Helvetica,sans-Serif" font-size="10.00">IIntegratedVisualizer</text>
</a>
</g>
</g>
<!-- TestRadioScaling&#45;&gt;IIntegratedVisualizer -->
<g id="edge1" class="edge">
<title>TestRadioScaling&#45;&gt;IIntegratedVisualizer</title>
<path fill="none" stroke="black" d="M211.76,-54.98C180.94,-46.01 132.22,-31.82 98.11,-21.89"/>
<polygon fill="black" stroke="black" points="99.05,-18.52 88.47,-19.08 97.09,-25.24 99.05,-18.52"/>
</g>
<!-- WirelessHost -->
<g id="node3" class="node">
<title>WirelessHost</title>
<g id="a_node3"><a xlink:href="inet.node.inet.WirelessHost.html" xlink:title="Compound Module WirelessHost" target="_parent">
<polygon fill="#fffcaf" stroke="black" points="217.5,-19 136.5,-19 136.5,0 217.5,0 217.5,-19"/>
<text text-anchor="middle" x="177" y="-7" font-family="Helvetica,sans-Serif" font-size="10.00">WirelessHost</text>
</a>
</g>
</g>
<!-- TestRadioScaling&#45;&gt;WirelessHost -->
<g id="edge2" class="edge">
<title>TestRadioScaling&#45;&gt;WirelessHost</title>
<path fill="none" stroke="black" d="M230.72,-54.98C221.16,-47.07 206.72,-35.11 195.22,-25.58"/>
<polygon fill="black" stroke="black" points="197.4,-22.85 187.47,-19.17 192.94,-28.24 197.4,-22.85"/>
</g>
<!-- Ipv4NetworkConfigurator -->
<g id="node4" class="node">
<title>Ipv4NetworkConfigurator</title>
<g id="a_node4"><a xlink:href="inet.networklayer.configurator.ipv4.Ipv4NetworkConfigurator.html" xlink:title="Simple Module Ipv4NetworkConfigurator" target="_parent">
<polygon fill="#fffcaf" stroke="black" points="376,-19 236,-19 236,0 376,0 376,-19"/>
<text text-anchor="middle" x="306" y="-7" font-family="Helvetica,sans-Serif" font-size="10.00">Ipv4NetworkConfigurator</text>
</a>
</g>
</g>
<!-- TestRadioScaling&#45;&gt;Ipv4NetworkConfigurator -->
<g id="edge3" class="edge">
<title>TestRadioScaling&#45;&gt;Ipv4NetworkConfigurator</title>
<path fill="none" stroke="black" d="M251.44,-54.98C261.15,-47.07 275.82,-35.11 287.5,-25.58"/>
<polygon fill="black" stroke="black" points="289.83,-28.2 295.37,-19.17 285.4,-22.78 289.83,-28.2"/>
</g>
<!-- IRadioMedium -->
<g id="node5" class="node">
<title>IRadioMedium</title>
<g id="a_node5"><a xlink:href="inet.physicallayer.wireless.common.contract.packetlevel.IRadioMedium.html" xlink:title="Module Interface IRadioMedium" target="_parent">
<polygon fill="#fffcaf" stroke="black" stroke-dasharray="5,2" points="481.5,-19 394.5,-19 394.5,0 481.5,0 481.5,-19"/>
<text text-anchor="middle" x="438" y="-7" font-family="Helvetica,sans-Serif" font-size="10.00">IRadioMedium</text>
</a>
</g>
</g>
<!-- TestRadioScaling&#45;&gt;IRadioMedium -->
<g id="edge4" class="edge">
<title>TestRadioScaling&#45;&gt;IRadioMedium</title>
<path fill="none" stroke="black" d="M272.65,-54.98C306.16,-45.97 359.2,-31.7 396.14,-21.76"/>
<polygon fill="black" stroke="black" points="397.35,-25.06 406.1,-19.08 395.53,-18.3 397.35,-25.06"/>
</g>
</g>
</svg>
