<?xml version="1.0" encoding="UTF-8" standalone="no"?>
<!DOCTYPE svg PUBLIC "-//W3C//DTD SVG 1.1//EN"
 "http://www.w3.org/Graphics/SVG/1.1/DTD/svg11.dtd">
<!-- Generated by graphviz version 2.43.0 (0)
 -->
<!-- Title: opp Pages: 1 -->
<svg width="288pt" height="82pt"
 viewBox="0.00 0.00 287.50 82.00" xmlns="http://www.w3.org/2000/svg" xmlns:xlink="http://www.w3.org/1999/xlink">
<g id="graph0" class="graph" transform="scale(1 1) rotate(0) translate(4 78)">
<title>opp</title>
<polygon fill="transparent" stroke="transparent" points="-4,4 -4,-78 283.5,-78 283.5,4 -4,4"/>
<!-- PacketHistory -->
<g id="node1" class="node">
<title>PacketHistory</title>
<g id="a_node1"><a xlink:href="inet.queueing.common.PacketHistory.html" xlink:title="Compound Module PacketHistory" target="_parent">
<polygon fill="#fff700" stroke="black" points="180,-74 96,-74 96,-55 180,-55 180,-74"/>
<text text-anchor="middle" x="138" y="-62" font-family="Helvetica,sans-Serif" font-size="10.00">PacketHistory</text>
</a>
</g>
</g>
<!-- IdealChannel -->
<g id="node2" class="node">
<title>IdealChannel</title>
<g id="a_node2"><a xlink:href="ned.IdealChannel.html" xlink:title="Channel IdealChannel" target="_parent">
<polygon fill="#d0ffd0" stroke="black" points="80,-19 0,-19 0,0 80,0 80,-19"/>
<text text-anchor="middle" x="40" y="-7" font-family="Helvetica,sans-Serif" font-size="10.00">IdealChannel</text>
</a>
</g>
</g>
<!-- PacketHistory&#45;&gt;IdealChannel -->
<g id="edge1" class="edge">
<title>PacketHistory&#45;&gt;IdealChannel</title>
<path fill="none" stroke="black" d="M122.25,-54.98C106.77,-46.61 82.91,-33.7 64.86,-23.95"/>
<polygon fill="black" stroke="black" points="66.49,-20.85 56.03,-19.17 63.16,-27.01 66.49,-20.85"/>
</g>
<!-- PacketCloner -->
<g id="node3" class="node">
<title>PacketCloner</title>
<g id="a_node3"><a xlink:href="inet.queueing.common.PacketCloner.html" xlink:title="Simple Module PacketCloner" target="_parent">
<polygon fill="#fffcaf" stroke="black" points="178,-19 98,-19 98,0 178,0 178,-19"/>
<text text-anchor="middle" x="138" y="-7" font-family="Helvetica,sans-Serif" font-size="10.00">PacketCloner</text>
</a>
</g>
</g>
<!-- PacketHistory&#45;&gt;PacketCloner -->
<g id="edge2" class="edge">
<title>PacketHistory&#45;&gt;PacketCloner</title>
<path fill="none" stroke="black" d="M138,-54.75C138,-47.8 138,-37.85 138,-29.13"/>
<polygon fill="black" stroke="black" points="141.5,-29.09 138,-19.09 134.5,-29.09 141.5,-29.09"/>
</g>
<!-- IPacketQueue -->
<g id="node4" class="node">
<title>IPacketQueue</title>
<g id="a_node4"><a xlink:href="inet.queueing.contract.IPacketQueue.html" xlink:title="Module Interface IPacketQueue" target="_parent">
<polygon fill="#fffcaf" stroke="black" stroke-dasharray="5,2" points="279.5,-19 196.5,-19 196.5,0 279.5,0 279.5,-19"/>
<text text-anchor="middle" x="238" y="-7" font-family="Helvetica,sans-Serif" font-size="10.00">IPacketQueue</text>
</a>
</g>
</g>
<!-- PacketHistory&#45;&gt;IPacketQueue -->
<g id="edge3" class="edge">
<title>PacketHistory&#45;&gt;IPacketQueue</title>
<path fill="none" stroke="black" d="M154.07,-54.98C169.86,-46.61 194.22,-33.7 212.63,-23.95"/>
<polygon fill="black" stroke="black" points="214.44,-26.95 221.64,-19.17 211.17,-20.76 214.44,-26.95"/>
</g>
</g>
</svg>
