<?xml version="1.0" encoding="UTF-8" standalone="no"?>
<!DOCTYPE svg PUBLIC "-//W3C//DTD SVG 1.1//EN"
 "http://www.w3.org/Graphics/SVG/1.1/DTD/svg11.dtd">
<!-- Generated by graphviz version 2.43.0 (0)
 -->
<!-- Title: opp Pages: 1 -->
<svg width="693pt" height="82pt"
 viewBox="0.00 0.00 692.50 82.00" xmlns="http://www.w3.org/2000/svg" xmlns:xlink="http://www.w3.org/1999/xlink">
<g id="graph0" class="graph" transform="scale(1 1) rotate(0) translate(4 78)">
<title>opp</title>
<polygon fill="transparent" stroke="transparent" points="-4,4 -4,-78 688.5,-78 688.5,4 -4,4"/>
<!-- ObstacleTest -->
<g id="node1" class="node">
<title>ObstacleTest</title>
<g id="a_node1"><a xlink:href="inet.examples.wireless.obstacle.ObstacleTest.html" xlink:title="Network ObstacleTest" target="_parent">
<polygon fill="#9090ff" stroke="black" points="383.5,-74 304.5,-74 304.5,-55 383.5,-55 383.5,-74"/>
<text text-anchor="middle" x="344" y="-62" font-family="Helvetica,sans-Serif" font-size="10.00">ObstacleTest</text>
</a>
</g>
</g>
<!-- IIntegratedVisualizer -->
<g id="node2" class="node">
<title>IIntegratedVisualizer</title>
<g id="a_node2"><a xlink:href="inet.visualizer.contract.IIntegratedVisualizer.html" xlink:title="Module Interface IIntegratedVisualizer" target="_parent">
<polygon fill="#fffcaf" stroke="black" stroke-dasharray="5,2" points="118,-19 0,-19 0,0 118,0 118,-19"/>
<text text-anchor="middle" x="59" y="-7" font-family="Helvetica,sans-Serif" font-size="10.00">IIntegratedVisualizer</text>
</a>
</g>
</g>
<!-- ObstacleTest&#45;&gt;IIntegratedVisualizer -->
<g id="edge1" class="edge">
<title>ObstacleTest&#45;&gt;IIntegratedVisualizer</title>
<path fill="none" stroke="black" d="M304.37,-56.13C255.13,-46.97 170.79,-31.29 114.97,-20.91"/>
<polygon fill="black" stroke="black" points="115.36,-17.42 104.89,-19.03 114.08,-24.3 115.36,-17.42"/>
</g>
<!-- PhysicalEnvironment -->
<g id="node3" class="node">
<title>PhysicalEnvironment</title>
<g id="a_node3"><a xlink:href="inet.environment.common.PhysicalEnvironment.html" xlink:title="Compound Module PhysicalEnvironment" target="_parent">
<polygon fill="#fffcaf" stroke="black" points="255.5,-19 136.5,-19 136.5,0 255.5,0 255.5,-19"/>
<text text-anchor="middle" x="196" y="-7" font-family="Helvetica,sans-Serif" font-size="10.00">PhysicalEnvironment</text>
</a>
</g>
</g>
<!-- ObstacleTest&#45;&gt;PhysicalEnvironment -->
<g id="edge2" class="edge">
<title>ObstacleTest&#45;&gt;PhysicalEnvironment</title>
<path fill="none" stroke="black" d="M320.22,-54.98C295.77,-46.23 257.47,-32.51 229.85,-22.62"/>
<polygon fill="black" stroke="black" points="230.81,-19.25 220.21,-19.17 228.45,-25.84 230.81,-19.25"/>
</g>
<!-- Ipv4NetworkConfigurator -->
<g id="node4" class="node">
<title>Ipv4NetworkConfigurator</title>
<g id="a_node4"><a xlink:href="inet.networklayer.configurator.ipv4.Ipv4NetworkConfigurator.html" xlink:title="Simple Module Ipv4NetworkConfigurator" target="_parent">
<polygon fill="#fffcaf" stroke="black" points="414,-19 274,-19 274,0 414,0 414,-19"/>
<text text-anchor="middle" x="344" y="-7" font-family="Helvetica,sans-Serif" font-size="10.00">Ipv4NetworkConfigurator</text>
</a>
</g>
</g>
<!-- ObstacleTest&#45;&gt;Ipv4NetworkConfigurator -->
<g id="edge3" class="edge">
<title>ObstacleTest&#45;&gt;Ipv4NetworkConfigurator</title>
<path fill="none" stroke="black" d="M344,-54.75C344,-47.8 344,-37.85 344,-29.13"/>
<polygon fill="black" stroke="black" points="347.5,-29.09 344,-19.09 340.5,-29.09 347.5,-29.09"/>
</g>
<!-- AdhocHost -->
<g id="node5" class="node">
<title>AdhocHost</title>
<g id="a_node5"><a xlink:href="inet.node.inet.AdhocHost.html" xlink:title="Compound Module AdhocHost" target="_parent">
<polygon fill="#fffcaf" stroke="black" points="501.5,-19 432.5,-19 432.5,0 501.5,0 501.5,-19"/>
<text text-anchor="middle" x="467" y="-7" font-family="Helvetica,sans-Serif" font-size="10.00">AdhocHost</text>
</a>
</g>
</g>
<!-- ObstacleTest&#45;&gt;AdhocHost -->
<g id="edge4" class="edge">
<title>ObstacleTest&#45;&gt;AdhocHost</title>
<path fill="none" stroke="black" d="M363.76,-54.98C383.73,-46.38 414.8,-32.99 437.65,-23.15"/>
<polygon fill="black" stroke="black" points="439.08,-26.34 446.88,-19.17 436.31,-19.91 439.08,-26.34"/>
</g>
<!-- Ieee80211ScalarRadioMedium -->
<g id="node6" class="node">
<title>Ieee80211ScalarRadioMedium</title>
<g id="a_node6"><a xlink:href="inet.physicallayer.wireless.ieee80211.packetlevel.Ieee80211ScalarRadioMedium.html" xlink:title="Compound Module Ieee80211ScalarRadioMedium" target="_parent">
<polygon fill="#fffcaf" stroke="black" points="684.5,-19 519.5,-19 519.5,0 684.5,0 684.5,-19"/>
<text text-anchor="middle" x="602" y="-7" font-family="Helvetica,sans-Serif" font-size="10.00">Ieee80211ScalarRadioMedium</text>
</a>
</g>
</g>
<!-- ObstacleTest&#45;&gt;Ieee80211ScalarRadioMedium -->
<g id="edge5" class="edge">
<title>ObstacleTest&#45;&gt;Ieee80211ScalarRadioMedium</title>
<path fill="none" stroke="black" d="M383.75,-55.33C428.48,-46.15 501.31,-31.19 550.4,-21.1"/>
<polygon fill="black" stroke="black" points="551.41,-24.47 560.5,-19.03 550,-17.61 551.41,-24.47"/>
</g>
</g>
</svg>
