<?xml version="1.0" encoding="UTF-8" standalone="no"?>
<!DOCTYPE svg PUBLIC "-//W3C//DTD SVG 1.1//EN"
 "http://www.w3.org/Graphics/SVG/1.1/DTD/svg11.dtd">
<!-- Generated by graphviz version 2.43.0 (0)
 -->
<!-- Title: opp Pages: 1 -->
<svg width="295pt" height="82pt"
 viewBox="0.00 0.00 295.00 82.00" xmlns="http://www.w3.org/2000/svg" xmlns:xlink="http://www.w3.org/1999/xlink">
<g id="graph0" class="graph" transform="scale(1 1) rotate(0) translate(4 78)">
<title>opp</title>
<polygon fill="transparent" stroke="transparent" points="-4,4 -4,-78 291,-78 291,4 -4,4"/>
<!-- Network4 -->
<g id="node1" class="node">
<title>Network4</title>
<g id="a_node1"><a xlink:href="inet.tutorials.protocol.Network4.html" xlink:title="Network Network4" target="_parent">
<polygon fill="#9090ff" stroke="black" points="186.5,-74 122.5,-74 122.5,-55 186.5,-55 186.5,-74"/>
<text text-anchor="middle" x="154.5" y="-62" font-family="Helvetica,sans-Serif" font-size="10.00">Network4</text>
</a>
</g>
</g>
<!-- DatarateChannel -->
<g id="node2" class="node">
<title>DatarateChannel</title>
<g id="a_node2"><a xlink:href="ned.DatarateChannel.html" xlink:title="Channel DatarateChannel" target="_parent">
<polygon fill="#d0ffd0" stroke="black" points="99,-19 0,-19 0,0 99,0 99,-19"/>
<text text-anchor="middle" x="49.5" y="-7" font-family="Helvetica,sans-Serif" font-size="10.00">DatarateChannel</text>
</a>
</g>
</g>
<!-- Network4&#45;&gt;DatarateChannel -->
<g id="edge1" class="edge">
<title>Network4&#45;&gt;DatarateChannel</title>
<path fill="none" stroke="black" d="M137.63,-54.98C120.89,-46.54 95,-33.47 75.61,-23.68"/>
<polygon fill="black" stroke="black" points="77.18,-20.55 66.68,-19.17 74.03,-26.8 77.18,-20.55"/>
</g>
<!-- ClientHost4 -->
<g id="node3" class="node">
<title>ClientHost4</title>
<g id="a_node3"><a xlink:href="inet.tutorials.protocol.ClientHost4.html" xlink:title="Compound Module ClientHost4" target="_parent">
<polygon fill="#fffcaf" stroke="black" points="191.5,-19 117.5,-19 117.5,0 191.5,0 191.5,-19"/>
<text text-anchor="middle" x="154.5" y="-7" font-family="Helvetica,sans-Serif" font-size="10.00">ClientHost4</text>
</a>
</g>
</g>
<!-- Network4&#45;&gt;ClientHost4 -->
<g id="edge2" class="edge">
<title>Network4&#45;&gt;ClientHost4</title>
<path fill="none" stroke="black" d="M154.5,-54.75C154.5,-47.8 154.5,-37.85 154.5,-29.13"/>
<polygon fill="black" stroke="black" points="158,-29.09 154.5,-19.09 151,-29.09 158,-29.09"/>
</g>
<!-- ServerHost4 -->
<g id="node4" class="node">
<title>ServerHost4</title>
<g id="a_node4"><a xlink:href="inet.tutorials.protocol.ServerHost4.html" xlink:title="Compound Module ServerHost4" target="_parent">
<polygon fill="#fffcaf" stroke="black" points="287,-19 210,-19 210,0 287,0 287,-19"/>
<text text-anchor="middle" x="248.5" y="-7" font-family="Helvetica,sans-Serif" font-size="10.00">ServerHost4</text>
</a>
</g>
</g>
<!-- Network4&#45;&gt;ServerHost4 -->
<g id="edge3" class="edge">
<title>Network4&#45;&gt;ServerHost4</title>
<path fill="none" stroke="black" d="M169.6,-54.98C184.32,-46.69 206.92,-33.94 224.17,-24.22"/>
<polygon fill="black" stroke="black" points="226.13,-27.13 233.12,-19.17 222.69,-21.03 226.13,-27.13"/>
</g>
</g>
</svg>
