<?xml version="1.0" encoding="UTF-8" standalone="no"?>
<!DOCTYPE svg PUBLIC "-//W3C//DTD SVG 1.1//EN"
 "http://www.w3.org/Graphics/SVG/1.1/DTD/svg11.dtd">
<!-- Generated by graphviz version 2.43.0 (0)
 -->
<!-- Title: opp Pages: 1 -->
<svg width="524pt" height="137pt"
 viewBox="0.00 0.00 523.50 137.00" xmlns="http://www.w3.org/2000/svg" xmlns:xlink="http://www.w3.org/1999/xlink">
<g id="graph0" class="graph" transform="scale(1 1) rotate(0) translate(4 133)">
<title>opp</title>
<polygon fill="transparent" stroke="transparent" points="-4,4 -4,-133 519.5,-133 519.5,4 -4,4"/>
<!-- PriorityQueue -->
<g id="node1" class="node">
<title>PriorityQueue</title>
<g id="a_node1"><a xlink:href="inet.queueing.queue.PriorityQueue.html" xlink:title="Compound Module PriorityQueue" target="_parent">
<polygon fill="#fff700" stroke="black" points="306.5,-74 223.5,-74 223.5,-55 306.5,-55 306.5,-74"/>
<text text-anchor="middle" x="265" y="-62" font-family="Helvetica,sans-Serif" font-size="10.00">PriorityQueue</text>
</a>
</g>
</g>
<!-- IPacketScheduler -->
<g id="node2" class="node">
<title>IPacketScheduler</title>
<g id="a_node2"><a xlink:href="inet.queueing.contract.IPacketScheduler.html" xlink:title="Module Interface IPacketScheduler" target="_parent">
<polygon fill="#fffcaf" stroke="black" stroke-dasharray="5,2" points="100,-19 0,-19 0,0 100,0 100,-19"/>
<text text-anchor="middle" x="50" y="-7" font-family="Helvetica,sans-Serif" font-size="10.00">IPacketScheduler</text>
</a>
</g>
</g>
<!-- PriorityQueue&#45;&gt;IPacketScheduler -->
<g id="edge1" class="edge">
<title>PriorityQueue&#45;&gt;IPacketScheduler</title>
<path fill="none" stroke="black" d="M230.46,-54.98C193.58,-45.89 135.01,-31.46 94.66,-21.51"/>
<polygon fill="black" stroke="black" points="95.36,-18.08 84.81,-19.08 93.69,-24.87 95.36,-18.08"/>
</g>
<!-- IdealChannel -->
<g id="node3" class="node">
<title>IdealChannel</title>
<g id="a_node3"><a xlink:href="ned.IdealChannel.html" xlink:title="Channel IdealChannel" target="_parent">
<polygon fill="#d0ffd0" stroke="black" points="198,-19 118,-19 118,0 198,0 198,-19"/>
<text text-anchor="middle" x="158" y="-7" font-family="Helvetica,sans-Serif" font-size="10.00">IdealChannel</text>
</a>
</g>
</g>
<!-- PriorityQueue&#45;&gt;IdealChannel -->
<g id="edge2" class="edge">
<title>PriorityQueue&#45;&gt;IdealChannel</title>
<path fill="none" stroke="black" d="M247.81,-54.98C230.75,-46.54 204.37,-33.47 184.6,-23.68"/>
<polygon fill="black" stroke="black" points="186.02,-20.47 175.5,-19.17 182.91,-26.75 186.02,-20.47"/>
</g>
<!-- IPacketClassifier -->
<g id="node4" class="node">
<title>IPacketClassifier</title>
<g id="a_node4"><a xlink:href="inet.queueing.contract.IPacketClassifier.html" xlink:title="Module Interface IPacketClassifier" target="_parent">
<polygon fill="#fffcaf" stroke="black" stroke-dasharray="5,2" points="314,-19 216,-19 216,0 314,0 314,-19"/>
<text text-anchor="middle" x="265" y="-7" font-family="Helvetica,sans-Serif" font-size="10.00">IPacketClassifier</text>
</a>
</g>
</g>
<!-- PriorityQueue&#45;&gt;IPacketClassifier -->
<g id="edge3" class="edge">
<title>PriorityQueue&#45;&gt;IPacketClassifier</title>
<path fill="none" stroke="black" d="M265,-54.75C265,-47.8 265,-37.85 265,-29.13"/>
<polygon fill="black" stroke="black" points="268.5,-29.09 265,-19.09 261.5,-29.09 268.5,-29.09"/>
</g>
<!-- IPacketBuffer -->
<g id="node5" class="node">
<title>IPacketBuffer</title>
<g id="a_node5"><a xlink:href="inet.queueing.contract.IPacketBuffer.html" xlink:title="Module Interface IPacketBuffer" target="_parent">
<polygon fill="#fffcaf" stroke="black" stroke-dasharray="5,2" points="414,-19 332,-19 332,0 414,0 414,-19"/>
<text text-anchor="middle" x="373" y="-7" font-family="Helvetica,sans-Serif" font-size="10.00">IPacketBuffer</text>
</a>
</g>
</g>
<!-- PriorityQueue&#45;&gt;IPacketBuffer -->
<g id="edge4" class="edge">
<title>PriorityQueue&#45;&gt;IPacketBuffer</title>
<path fill="none" stroke="black" d="M282.35,-54.98C299.57,-46.54 326.2,-33.47 346.15,-23.68"/>
<polygon fill="black" stroke="black" points="347.9,-26.72 355.33,-19.17 344.81,-20.43 347.9,-26.72"/>
</g>
<!-- IPacketQueue -->
<g id="node6" class="node">
<title>IPacketQueue</title>
<g id="a_node6"><a xlink:href="inet.queueing.contract.IPacketQueue.html" xlink:title="Module Interface IPacketQueue" target="_parent">
<polygon fill="#fffcaf" stroke="black" stroke-dasharray="5,2" points="515.5,-19 432.5,-19 432.5,0 515.5,0 515.5,-19"/>
<text text-anchor="middle" x="474" y="-7" font-family="Helvetica,sans-Serif" font-size="10.00">IPacketQueue</text>
</a>
</g>
</g>
<!-- PriorityQueue&#45;&gt;IPacketQueue -->
<g id="edge5" class="edge">
<title>PriorityQueue&#45;&gt;IPacketQueue</title>
<path fill="none" stroke="black" d="M298.58,-54.98C334.35,-45.91 391.12,-31.52 430.34,-21.57"/>
<polygon fill="black" stroke="black" points="431.32,-24.93 440.16,-19.08 429.6,-18.15 431.32,-24.93"/>
</g>
<!-- PriorityQueueTutorialStep -->
<g id="node7" class="node">
<title>PriorityQueueTutorialStep</title>
<g id="a_node7"><a xlink:href="inet.tutorials.queueing.PriorityQueueTutorialStep.html" xlink:title="Network PriorityQueueTutorialStep" target="_parent">
<polygon fill="#d0d0ff" stroke="black" points="335.5,-129 194.5,-129 194.5,-110 335.5,-110 335.5,-129"/>
<text text-anchor="middle" x="265" y="-117" font-family="Helvetica,sans-Serif" font-size="10.00">PriorityQueueTutorialStep</text>
</a>
</g>
</g>
<!-- PriorityQueueTutorialStep&#45;&gt;PriorityQueue -->
<g id="edge6" class="edge">
<title>PriorityQueueTutorialStep&#45;&gt;PriorityQueue</title>
<path fill="none" stroke="black" d="M265,-109.75C265,-102.8 265,-92.85 265,-84.13"/>
<polygon fill="black" stroke="black" points="268.5,-84.09 265,-74.09 261.5,-84.09 268.5,-84.09"/>
</g>
</g>
</svg>
