<?xml version="1.0" encoding="UTF-8" standalone="no"?>
<!DOCTYPE svg PUBLIC "-//W3C//DTD SVG 1.1//EN"
 "http://www.w3.org/Graphics/SVG/1.1/DTD/svg11.dtd">
<!-- Generated by graphviz version 2.43.0 (0)
 -->
<!-- Title: opp Pages: 1 -->
<svg width="308pt" height="82pt"
 viewBox="0.00 0.00 308.00 82.00" xmlns="http://www.w3.org/2000/svg" xmlns:xlink="http://www.w3.org/1999/xlink">
<g id="graph0" class="graph" transform="scale(1 1) rotate(0) translate(4 78)">
<title>opp</title>
<polygon fill="transparent" stroke="transparent" points="-4,4 -4,-78 304,-78 304,4 -4,4"/>
<!-- TC1 -->
<g id="node1" class="node">
<title>TC1</title>
<g id="a_node1"><a xlink:href="inet.examples.diffserv.onedomain.TC1.html" xlink:title="Compound Module TC1" target="_parent">
<polygon fill="#fff700" stroke="black" points="180,-74 126,-74 126,-55 180,-55 180,-74"/>
<text text-anchor="middle" x="153" y="-62" font-family="Helvetica,sans-Serif" font-size="10.00">TC1</text>
</a>
</g>
</g>
<!-- IdealChannel -->
<g id="node2" class="node">
<title>IdealChannel</title>
<g id="a_node2"><a xlink:href="ned.IdealChannel.html" xlink:title="Channel IdealChannel" target="_parent">
<polygon fill="#d0ffd0" stroke="black" points="80,-19 0,-19 0,0 80,0 80,-19"/>
<text text-anchor="middle" x="40" y="-7" font-family="Helvetica,sans-Serif" font-size="10.00">IdealChannel</text>
</a>
</g>
</g>
<!-- TC1&#45;&gt;IdealChannel -->
<g id="edge1" class="edge">
<title>TC1&#45;&gt;IdealChannel</title>
<path fill="none" stroke="black" d="M134.84,-54.98C116.75,-46.5 88.72,-33.35 67.81,-23.54"/>
<polygon fill="black" stroke="black" points="69.03,-20.25 58.49,-19.17 66.05,-26.59 69.03,-20.25"/>
</g>
<!-- MultiFieldClassifier -->
<g id="node3" class="node">
<title>MultiFieldClassifier</title>
<g id="a_node3"><a xlink:href="inet.networklayer.diffserv.MultiFieldClassifier.html" xlink:title="Simple Module MultiFieldClassifier" target="_parent">
<polygon fill="#fffcaf" stroke="black" points="208,-19 98,-19 98,0 208,0 208,-19"/>
<text text-anchor="middle" x="153" y="-7" font-family="Helvetica,sans-Serif" font-size="10.00">MultiFieldClassifier</text>
</a>
</g>
</g>
<!-- TC1&#45;&gt;MultiFieldClassifier -->
<g id="edge2" class="edge">
<title>TC1&#45;&gt;MultiFieldClassifier</title>
<path fill="none" stroke="black" d="M153,-54.75C153,-47.8 153,-37.85 153,-29.13"/>
<polygon fill="black" stroke="black" points="156.5,-29.09 153,-19.09 149.5,-29.09 156.5,-29.09"/>
</g>
<!-- DscpMarker -->
<g id="node4" class="node">
<title>DscpMarker</title>
<g id="a_node4"><a xlink:href="inet.networklayer.diffserv.DscpMarker.html" xlink:title="Simple Module DscpMarker" target="_parent">
<polygon fill="#fffcaf" stroke="black" points="300,-19 226,-19 226,0 300,0 300,-19"/>
<text text-anchor="middle" x="263" y="-7" font-family="Helvetica,sans-Serif" font-size="10.00">DscpMarker</text>
</a>
</g>
</g>
<!-- TC1&#45;&gt;DscpMarker -->
<g id="edge3" class="edge">
<title>TC1&#45;&gt;DscpMarker</title>
<path fill="none" stroke="black" d="M170.67,-54.98C188.29,-46.5 215.58,-33.35 235.93,-23.54"/>
<polygon fill="black" stroke="black" points="237.52,-26.66 245.01,-19.17 234.48,-20.36 237.52,-26.66"/>
</g>
</g>
</svg>
