<?xml version="1.0" encoding="UTF-8" standalone="no"?>
<!DOCTYPE svg PUBLIC "-//W3C//DTD SVG 1.1//EN"
 "http://www.w3.org/Graphics/SVG/1.1/DTD/svg11.dtd">
<!-- Generated by graphviz version 2.43.0 (0)
 -->
<!-- Title: opp Pages: 1 -->
<svg width="663pt" height="137pt"
 viewBox="0.00 0.00 663.00 137.00" xmlns="http://www.w3.org/2000/svg" xmlns:xlink="http://www.w3.org/1999/xlink">
<g id="graph0" class="graph" transform="scale(1 1) rotate(0) translate(4 133)">
<title>opp</title>
<polygon fill="transparent" stroke="transparent" points="-4,4 -4,-133 659,-133 659,4 -4,4"/>
<!-- IPacketGate -->
<g id="node1" class="node">
<title>IPacketGate</title>
<g id="a_node1"><a xlink:href="inet.queueing.contract.IPacketGate.html" xlink:title="Module Interface IPacketGate" target="_parent">
<polygon fill="#fff700" stroke="black" stroke-dasharray="5,2" points="389,-74 314,-74 314,-55 389,-55 389,-74"/>
<text text-anchor="middle" x="351.5" y="-62" font-family="Helvetica,sans-Serif" font-size="10.00">IPacketGate</text>
</a>
</g>
</g>
<!-- CreditBasedGate -->
<g id="node4" class="node">
<title>CreditBasedGate</title>
<g id="a_node4"><a xlink:href="inet.queueing.gate.CreditBasedGate.html" xlink:title="Simple Module CreditBasedGate" target="_parent">
<polygon fill="#fffcaf" stroke="black" points="99,-19 0,-19 0,0 99,0 99,-19"/>
<text text-anchor="middle" x="49.5" y="-7" font-family="Helvetica,sans-Serif" font-size="10.00">CreditBasedGate</text>
</a>
</g>
</g>
<!-- IPacketGate&#45;&gt;CreditBasedGate -->
<g id="edge3" class="edge">
<title>IPacketGate&#45;&gt;CreditBasedGate</title>
<path fill="none" stroke="black" stroke-dasharray="5,2" d="M313.86,-56.89C259.31,-47.32 158.24,-29.58 98.12,-19.03"/>
</g>
<!-- EligibilityTimeGate -->
<g id="node5" class="node">
<title>EligibilityTimeGate</title>
<g id="a_node5"><a xlink:href="inet.protocolelement.shaper.EligibilityTimeGate.html" xlink:title="Simple Module EligibilityTimeGate" target="_parent">
<polygon fill="#fffcaf" stroke="black" points="227.5,-19 117.5,-19 117.5,0 227.5,0 227.5,-19"/>
<text text-anchor="middle" x="172.5" y="-7" font-family="Helvetica,sans-Serif" font-size="10.00">EligibilityTimeGate</text>
</a>
</g>
</g>
<!-- IPacketGate&#45;&gt;EligibilityTimeGate -->
<g id="edge4" class="edge">
<title>IPacketGate&#45;&gt;EligibilityTimeGate</title>
<path fill="none" stroke="black" stroke-dasharray="5,2" d="M322.74,-54.98C289.44,-45.12 234.88,-28.97 201.48,-19.08"/>
</g>
<!-- InteractiveGate -->
<g id="node6" class="node">
<title>InteractiveGate</title>
<g id="a_node6"><a xlink:href="inet.queueing.gate.InteractiveGate.html" xlink:title="Simple Module InteractiveGate" target="_parent">
<polygon fill="#fffcaf" stroke="black" points="337.5,-19 245.5,-19 245.5,0 337.5,0 337.5,-19"/>
<text text-anchor="middle" x="291.5" y="-7" font-family="Helvetica,sans-Serif" font-size="10.00">InteractiveGate</text>
</a>
</g>
</g>
<!-- IPacketGate&#45;&gt;InteractiveGate -->
<g id="edge5" class="edge">
<title>IPacketGate&#45;&gt;InteractiveGate</title>
<path fill="none" stroke="black" stroke-dasharray="5,2" d="M341.86,-54.98C330.73,-45.15 312.52,-29.07 301.32,-19.17"/>
</g>
<!-- OmittedPacketGate -->
<g id="node7" class="node">
<title>OmittedPacketGate</title>
<g id="a_node7"><a xlink:href="inet.queueing.gate.OmittedPacketGate.html" xlink:title="Compound Module OmittedPacketGate" target="_parent">
<polygon fill="#fffcaf" stroke="black" points="467.5,-19 355.5,-19 355.5,0 467.5,0 467.5,-19"/>
<text text-anchor="middle" x="411.5" y="-7" font-family="Helvetica,sans-Serif" font-size="10.00">OmittedPacketGate</text>
</a>
</g>
</g>
<!-- IPacketGate&#45;&gt;OmittedPacketGate -->
<g id="edge6" class="edge">
<title>IPacketGate&#45;&gt;OmittedPacketGate</title>
<path fill="none" stroke="black" stroke-dasharray="5,2" d="M361.14,-54.98C372.27,-45.15 390.48,-29.07 401.68,-19.17"/>
</g>
<!-- PacketGate -->
<g id="node8" class="node">
<title>PacketGate</title>
<g id="a_node8"><a xlink:href="inet.queueing.gate.PacketGate.html" xlink:title="Simple Module PacketGate" target="_parent">
<polygon fill="#fffcaf" stroke="black" points="557.5,-19 485.5,-19 485.5,0 557.5,0 557.5,-19"/>
<text text-anchor="middle" x="521.5" y="-7" font-family="Helvetica,sans-Serif" font-size="10.00">PacketGate</text>
</a>
</g>
</g>
<!-- IPacketGate&#45;&gt;PacketGate -->
<g id="edge7" class="edge">
<title>IPacketGate&#45;&gt;PacketGate</title>
<path fill="none" stroke="black" stroke-dasharray="5,2" d="M378.81,-54.98C410.44,-45.12 462.25,-28.97 493.97,-19.08"/>
</g>
<!-- PeriodicGate -->
<g id="node9" class="node">
<title>PeriodicGate</title>
<g id="a_node9"><a xlink:href="inet.queueing.gate.PeriodicGate.html" xlink:title="Simple Module PeriodicGate" target="_parent">
<polygon fill="#fffcaf" stroke="black" points="655,-19 576,-19 576,0 655,0 655,-19"/>
<text text-anchor="middle" x="615.5" y="-7" font-family="Helvetica,sans-Serif" font-size="10.00">PeriodicGate</text>
</a>
</g>
</g>
<!-- IPacketGate&#45;&gt;PeriodicGate -->
<g id="edge8" class="edge">
<title>IPacketGate&#45;&gt;PeriodicGate</title>
<path fill="none" stroke="black" stroke-dasharray="5,2" d="M389.04,-55.96C438.58,-46.02 525.4,-28.59 575.93,-18.44"/>
</g>
<!-- IPacketSink -->
<g id="node2" class="node">
<title>IPacketSink</title>
<g id="a_node2"><a xlink:href="inet.queueing.contract.IPacketSink.html" xlink:title="Module Interface IPacketSink" target="_parent">
<polygon fill="#fffcaf" stroke="black" stroke-dasharray="5,2" points="340,-129 267,-129 267,-110 340,-110 340,-129"/>
<text text-anchor="middle" x="303.5" y="-117" font-family="Helvetica,sans-Serif" font-size="10.00">IPacketSink</text>
</a>
</g>
</g>
<!-- IPacketSink&#45;&gt;IPacketGate -->
<g id="edge1" class="edge">
<title>IPacketSink&#45;&gt;IPacketGate</title>
<path fill="none" stroke="black" d="M311.43,-109.75C320.37,-99.87 334.84,-83.9 343.72,-74.09"/>
</g>
<!-- IPacketSource -->
<g id="node3" class="node">
<title>IPacketSource</title>
<g id="a_node3"><a xlink:href="inet.queueing.contract.IPacketSource.html" xlink:title="Module Interface IPacketSource" target="_parent">
<polygon fill="#fffcaf" stroke="black" stroke-dasharray="5,2" points="443,-129 358,-129 358,-110 443,-110 443,-129"/>
<text text-anchor="middle" x="400.5" y="-117" font-family="Helvetica,sans-Serif" font-size="10.00">IPacketSource</text>
</a>
</g>
</g>
<!-- IPacketSource&#45;&gt;IPacketGate -->
<g id="edge2" class="edge">
<title>IPacketSource&#45;&gt;IPacketGate</title>
<path fill="none" stroke="black" d="M392.41,-109.75C383.28,-99.87 368.51,-83.9 359.44,-74.09"/>
</g>
</g>
</svg>
