<?xml version="1.0" encoding="UTF-8" standalone="no"?>
<!DOCTYPE svg PUBLIC "-//W3C//DTD SVG 1.1//EN"
 "http://www.w3.org/Graphics/SVG/1.1/DTD/svg11.dtd">
<!-- Generated by graphviz version 2.43.0 (0)
 -->
<!-- Title: opp Pages: 1 -->
<svg width="374pt" height="82pt"
 viewBox="0.00 0.00 373.50 82.00" xmlns="http://www.w3.org/2000/svg" xmlns:xlink="http://www.w3.org/1999/xlink">
<g id="graph0" class="graph" transform="scale(1 1) rotate(0) translate(4 78)">
<title>opp</title>
<polygon fill="transparent" stroke="transparent" points="-4,4 -4,-78 369.5,-78 369.5,4 -4,4"/>
<!-- OpenStreetMapExample -->
<g id="node1" class="node">
<title>OpenStreetMapExample</title>
<g id="a_node1"><a xlink:href="inet.examples.openstreetmap.OpenStreetMapExample.html" xlink:title="Network OpenStreetMapExample" target="_parent">
<polygon fill="#9090ff" stroke="black" points="239,-74 104,-74 104,-55 239,-55 239,-74"/>
<text text-anchor="middle" x="171.5" y="-62" font-family="Helvetica,sans-Serif" font-size="10.00">OpenStreetMapExample</text>
</a>
</g>
</g>
<!-- IntegratedCanvasVisualizer -->
<g id="node2" class="node">
<title>IntegratedCanvasVisualizer</title>
<g id="a_node2"><a xlink:href="inet.visualizer.canvas.integrated.IntegratedCanvasVisualizer.html" xlink:title="Compound Module IntegratedCanvasVisualizer" target="_parent">
<polygon fill="#fffcaf" stroke="black" points="151,-19 0,-19 0,0 151,0 151,-19"/>
<text text-anchor="middle" x="75.5" y="-7" font-family="Helvetica,sans-Serif" font-size="10.00">IntegratedCanvasVisualizer</text>
</a>
</g>
</g>
<!-- OpenStreetMapExample&#45;&gt;IntegratedCanvasVisualizer -->
<g id="edge1" class="edge">
<title>OpenStreetMapExample&#45;&gt;IntegratedCanvasVisualizer</title>
<path fill="none" stroke="black" d="M156.08,-54.98C141.05,-46.69 117.96,-33.94 100.34,-24.22"/>
<polygon fill="black" stroke="black" points="101.65,-20.94 91.2,-19.17 98.27,-27.07 101.65,-20.94"/>
</g>
<!-- SimpleGeographicCoordinateSystem -->
<g id="node3" class="node">
<title>SimpleGeographicCoordinateSystem</title>
<g id="a_node3"><a xlink:href="inet.common.geometry.common.SimpleGeographicCoordinateSystem.html" xlink:title="Simple Module SimpleGeographicCoordinateSystem" target="_parent">
<polygon fill="#fffcaf" stroke="black" points="365.5,-19 169.5,-19 169.5,0 365.5,0 365.5,-19"/>
<text text-anchor="middle" x="267.5" y="-7" font-family="Helvetica,sans-Serif" font-size="10.00">SimpleGeographicCoordinateSystem</text>
</a>
</g>
</g>
<!-- OpenStreetMapExample&#45;&gt;SimpleGeographicCoordinateSystem -->
<g id="edge2" class="edge">
<title>OpenStreetMapExample&#45;&gt;SimpleGeographicCoordinateSystem</title>
<path fill="none" stroke="black" d="M186.92,-54.98C201.95,-46.69 225.04,-33.94 242.66,-24.22"/>
<polygon fill="black" stroke="black" points="244.73,-27.07 251.8,-19.17 241.35,-20.94 244.73,-27.07"/>
</g>
</g>
</svg>
