<?xml version="1.0" encoding="UTF-8" standalone="no"?>
<!DOCTYPE svg PUBLIC "-//W3C//DTD SVG 1.1//EN"
 "http://www.w3.org/Graphics/SVG/1.1/DTD/svg11.dtd">
<!-- Generated by graphviz version 2.43.0 (0)
 -->
<!-- Title: opp Pages: 1 -->
<svg width="479pt" height="82pt"
 viewBox="0.00 0.00 479.00 82.00" xmlns="http://www.w3.org/2000/svg" xmlns:xlink="http://www.w3.org/1999/xlink">
<g id="graph0" class="graph" transform="scale(1 1) rotate(0) translate(4 78)">
<title>opp</title>
<polygon fill="transparent" stroke="transparent" points="-4,4 -4,-78 475,-78 475,4 -4,4"/>
<!-- NetworkPathSimpleShowcase -->
<g id="node1" class="node">
<title>NetworkPathSimpleShowcase</title>
<g id="a_node1"><a xlink:href="inet.showcases.visualizer.canvas.networkpathactivity.NetworkPathSimpleShowcase.html" xlink:title="Network NetworkPathSimpleShowcase" target="_parent">
<polygon fill="#9090ff" stroke="black" points="329.5,-74 167.5,-74 167.5,-55 329.5,-55 329.5,-74"/>
<text text-anchor="middle" x="248.5" y="-62" font-family="Helvetica,sans-Serif" font-size="10.00">NetworkPathSimpleShowcase</text>
</a>
</g>
</g>
<!-- StandardHost -->
<g id="node2" class="node">
<title>StandardHost</title>
<g id="a_node2"><a xlink:href="inet.node.inet.StandardHost.html" xlink:title="Compound Module StandardHost" target="_parent">
<polygon fill="#fffcaf" stroke="black" points="83,-19 0,-19 0,0 83,0 83,-19"/>
<text text-anchor="middle" x="41.5" y="-7" font-family="Helvetica,sans-Serif" font-size="10.00">StandardHost</text>
</a>
</g>
</g>
<!-- NetworkPathSimpleShowcase&#45;&gt;StandardHost -->
<g id="edge1" class="edge">
<title>NetworkPathSimpleShowcase&#45;&gt;StandardHost</title>
<path fill="none" stroke="black" d="M215.24,-54.98C179.89,-45.93 123.83,-31.58 84.99,-21.64"/>
<polygon fill="black" stroke="black" points="85.57,-18.17 75.02,-19.08 83.84,-24.95 85.57,-18.17"/>
</g>
<!-- Ipv4NetworkConfigurator -->
<g id="node3" class="node">
<title>Ipv4NetworkConfigurator</title>
<g id="a_node3"><a xlink:href="inet.networklayer.configurator.ipv4.Ipv4NetworkConfigurator.html" xlink:title="Simple Module Ipv4NetworkConfigurator" target="_parent">
<polygon fill="#fffcaf" stroke="black" points="241.5,-19 101.5,-19 101.5,0 241.5,0 241.5,-19"/>
<text text-anchor="middle" x="171.5" y="-7" font-family="Helvetica,sans-Serif" font-size="10.00">Ipv4NetworkConfigurator</text>
</a>
</g>
</g>
<!-- NetworkPathSimpleShowcase&#45;&gt;Ipv4NetworkConfigurator -->
<g id="edge2" class="edge">
<title>NetworkPathSimpleShowcase&#45;&gt;Ipv4NetworkConfigurator</title>
<path fill="none" stroke="black" d="M236.13,-54.98C224.41,-46.92 206.58,-34.65 192.61,-25.03"/>
<polygon fill="black" stroke="black" points="194.32,-21.96 184.1,-19.17 190.35,-27.72 194.32,-21.96"/>
</g>
<!-- NetworkRouteVisualizer -->
<g id="node4" class="node">
<title>NetworkRouteVisualizer</title>
<g id="a_node4"><a xlink:href="inet.visualizer.common.NetworkRouteVisualizer.html" xlink:title="Compound Module NetworkRouteVisualizer" target="_parent">
<polygon fill="#fffcaf" stroke="black" points="393.5,-19 259.5,-19 259.5,0 393.5,0 393.5,-19"/>
<text text-anchor="middle" x="326.5" y="-7" font-family="Helvetica,sans-Serif" font-size="10.00">NetworkRouteVisualizer</text>
</a>
</g>
</g>
<!-- NetworkPathSimpleShowcase&#45;&gt;NetworkRouteVisualizer -->
<g id="edge3" class="edge">
<title>NetworkPathSimpleShowcase&#45;&gt;NetworkRouteVisualizer</title>
<path fill="none" stroke="black" d="M261.03,-54.98C272.9,-46.92 290.96,-34.65 305.11,-25.03"/>
<polygon fill="black" stroke="black" points="307.44,-27.69 313.74,-19.17 303.5,-21.9 307.44,-27.69"/>
</g>
<!-- Eth100M -->
<g id="node5" class="node">
<title>Eth100M</title>
<g id="a_node5"><a xlink:href="inet.node.ethernet.Eth100M.html" xlink:title="Channel Eth100M" target="_parent">
<polygon fill="#d0ffd0" stroke="black" points="471,-19 412,-19 412,0 471,0 471,-19"/>
<text text-anchor="middle" x="441.5" y="-7" font-family="Helvetica,sans-Serif" font-size="10.00">Eth100M</text>
</a>
</g>
</g>
<!-- NetworkPathSimpleShowcase&#45;&gt;Eth100M -->
<g id="edge4" class="edge">
<title>NetworkPathSimpleShowcase&#45;&gt;Eth100M</title>
<path fill="none" stroke="black" d="M279.51,-54.98C312.82,-45.84 365.84,-31.28 402.09,-21.32"/>
<polygon fill="black" stroke="black" points="403.12,-24.67 411.84,-18.65 401.27,-17.92 403.12,-24.67"/>
</g>
</g>
</svg>
