<?xml version="1.0" encoding="UTF-8" standalone="no"?>
<!DOCTYPE svg PUBLIC "-//W3C//DTD SVG 1.1//EN"
 "http://www.w3.org/Graphics/SVG/1.1/DTD/svg11.dtd">
<!-- Generated by graphviz version 2.43.0 (0)
 -->
<!-- Title: opp Pages: 1 -->
<svg width="257pt" height="137pt"
 viewBox="0.00 0.00 256.50 137.00" xmlns="http://www.w3.org/2000/svg" xmlns:xlink="http://www.w3.org/1999/xlink">
<g id="graph0" class="graph" transform="scale(1 1) rotate(0) translate(4 133)">
<title>opp</title>
<polygon fill="transparent" stroke="transparent" points="-4,4 -4,-133 252.5,-133 252.5,4 -4,4"/>
<!-- PacketClassifier -->
<g id="node1" class="node">
<title>PacketClassifier</title>
<g id="a_node1"><a xlink:href="inet.queueing.classifier.PacketClassifier.html" xlink:title="Simple Module PacketClassifier" target="_parent">
<polygon fill="#fff700" stroke="black" points="170,-74 75,-74 75,-55 170,-55 170,-74"/>
<text text-anchor="middle" x="122.5" y="-62" font-family="Helvetica,sans-Serif" font-size="10.00">PacketClassifier</text>
</a>
</g>
</g>
<!-- DynamicClassifier -->
<g id="node4" class="node">
<title>DynamicClassifier</title>
<g id="a_node4"><a xlink:href="inet.queueing.classifier.DynamicClassifier.html" xlink:title="Simple Module DynamicClassifier" target="_parent">
<polygon fill="#fffcaf" stroke="black" points="110.5,-19 4.5,-19 4.5,0 110.5,0 110.5,-19"/>
<text text-anchor="middle" x="57.5" y="-7" font-family="Helvetica,sans-Serif" font-size="10.00">DynamicClassifier</text>
</a>
</g>
</g>
<!-- PacketClassifier&#45;&gt;DynamicClassifier -->
<g id="edge3" class="edge">
<title>PacketClassifier&#45;&gt;DynamicClassifier</title>
<path fill="none" stroke="black" d="M112.06,-54.98C100,-45.15 80.27,-29.07 68.13,-19.17"/>
</g>
<!-- UserPriorityClassifier -->
<g id="node5" class="node">
<title>UserPriorityClassifier</title>
<g id="a_node5"><a xlink:href="inet.queueing.classifier.UserPriorityClassifier.html" xlink:title="Simple Module UserPriorityClassifier" target="_parent">
<polygon fill="#fffcaf" stroke="black" points="248.5,-19 128.5,-19 128.5,0 248.5,0 248.5,-19"/>
<text text-anchor="middle" x="188.5" y="-7" font-family="Helvetica,sans-Serif" font-size="10.00">UserPriorityClassifier</text>
</a>
</g>
</g>
<!-- PacketClassifier&#45;&gt;UserPriorityClassifier -->
<g id="edge4" class="edge">
<title>PacketClassifier&#45;&gt;UserPriorityClassifier</title>
<path fill="none" stroke="black" d="M133.1,-54.98C145.35,-45.15 165.38,-29.07 177.7,-19.17"/>
</g>
<!-- PacketClassifierBase -->
<g id="node2" class="node">
<title>PacketClassifierBase</title>
<g id="a_node2"><a xlink:href="inet.queueing.base.PacketClassifierBase.html" xlink:title="Simple Module PacketClassifierBase" target="_parent">
<polygon fill="#fffcaf" stroke="black" points="119,-129 0,-129 0,-110 119,-110 119,-129"/>
<text text-anchor="middle" x="59.5" y="-117" font-family="Helvetica,sans-Serif" font-size="10.00">PacketClassifierBase</text>
</a>
</g>
</g>
<!-- PacketClassifierBase&#45;&gt;PacketClassifier -->
<g id="edge1" class="edge">
<title>PacketClassifierBase&#45;&gt;PacketClassifier</title>
<path fill="none" stroke="black" d="M69.62,-109.98C81.31,-100.15 100.43,-84.07 112.19,-74.17"/>
</g>
<!-- IPacketClassifier -->
<g id="node3" class="node">
<title>IPacketClassifier</title>
<g id="a_node3"><a xlink:href="inet.queueing.contract.IPacketClassifier.html" xlink:title="Module Interface IPacketClassifier" target="_parent">
<polygon fill="#fffcaf" stroke="black" stroke-dasharray="5,2" points="235.5,-129 137.5,-129 137.5,-110 235.5,-110 235.5,-129"/>
<text text-anchor="middle" x="186.5" y="-117" font-family="Helvetica,sans-Serif" font-size="10.00">IPacketClassifier</text>
</a>
</g>
</g>
<!-- IPacketClassifier&#45;&gt;PacketClassifier -->
<g id="edge2" class="edge">
<title>IPacketClassifier&#45;&gt;PacketClassifier</title>
<path fill="none" stroke="black" stroke-dasharray="5,2" d="M176.22,-109.98C164.34,-100.15 144.92,-84.07 132.97,-74.17"/>
</g>
</g>
</svg>
