<?xml version="1.0" encoding="UTF-8" standalone="no"?>
<!DOCTYPE svg PUBLIC "-//W3C//DTD SVG 1.1//EN"
 "http://www.w3.org/Graphics/SVG/1.1/DTD/svg11.dtd">
<!-- Generated by graphviz version 2.43.0 (0)
 -->
<!-- Title: opp Pages: 1 -->
<svg width="1660pt" height="82pt"
 viewBox="0.00 0.00 1660.00 82.00" xmlns="http://www.w3.org/2000/svg" xmlns:xlink="http://www.w3.org/1999/xlink">
<g id="graph0" class="graph" transform="scale(1 1) rotate(0) translate(4 78)">
<title>opp</title>
<polygon fill="transparent" stroke="transparent" points="-4,4 -4,-78 1656,-78 1656,4 -4,4"/>
<!-- LinkLayerNodeBase -->
<g id="node1" class="node">
<title>LinkLayerNodeBase</title>
<g id="a_node1"><a xlink:href="inet.node.base.LinkLayerNodeBase.html" xlink:title="Compound Module LinkLayerNodeBase" target="_parent">
<polygon fill="#fff700" stroke="black" points="867.5,-74 754.5,-74 754.5,-55 867.5,-55 867.5,-74"/>
<text text-anchor="middle" x="811" y="-62" font-family="Helvetica,sans-Serif" font-size="10.00">LinkLayerNodeBase</text>
</a>
</g>
</g>
<!-- InterfaceTable -->
<g id="node2" class="node">
<title>InterfaceTable</title>
<g id="a_node2"><a xlink:href="inet.networklayer.common.InterfaceTable.html" xlink:title="Simple Module InterfaceTable" target="_parent">
<polygon fill="#fffcaf" stroke="black" points="86,-19 0,-19 0,0 86,0 86,-19"/>
<text text-anchor="middle" x="43" y="-7" font-family="Helvetica,sans-Serif" font-size="10.00">InterfaceTable</text>
</a>
</g>
</g>
<!-- LinkLayerNodeBase&#45;&gt;InterfaceTable -->
<g id="edge1" class="edge">
<title>LinkLayerNodeBase&#45;&gt;InterfaceTable</title>
<path fill="none" stroke="black" d="M754.21,-61.9C634.47,-58.11 347.14,-46.81 96.12,-19.01"/>
<polygon fill="black" stroke="black" points="96.41,-15.52 86.08,-17.88 95.63,-22.47 96.41,-15.52"/>
</g>
<!-- ILoopbackInterface -->
<g id="node3" class="node">
<title>ILoopbackInterface</title>
<g id="a_node3"><a xlink:href="inet.linklayer.contract.ILoopbackInterface.html" xlink:title="Module Interface ILoopbackInterface" target="_parent">
<polygon fill="#fffcaf" stroke="black" stroke-dasharray="5,2" points="214,-19 104,-19 104,0 214,0 214,-19"/>
<text text-anchor="middle" x="159" y="-7" font-family="Helvetica,sans-Serif" font-size="10.00">ILoopbackInterface</text>
</a>
</g>
</g>
<!-- LinkLayerNodeBase&#45;&gt;ILoopbackInterface -->
<g id="edge2" class="edge">
<title>LinkLayerNodeBase&#45;&gt;ILoopbackInterface</title>
<path fill="none" stroke="black" d="M754.14,-60.27C650.82,-54.16 425.14,-39.75 224.28,-19.08"/>
<polygon fill="black" stroke="black" points="224.44,-15.57 214.13,-18.02 223.72,-22.54 224.44,-15.57"/>
</g>
<!-- IdealChannel -->
<g id="node4" class="node">
<title>IdealChannel</title>
<g id="a_node4"><a xlink:href="ned.IdealChannel.html" xlink:title="Channel IdealChannel" target="_parent">
<polygon fill="#d0ffd0" stroke="black" points="312,-19 232,-19 232,0 312,0 312,-19"/>
<text text-anchor="middle" x="272" y="-7" font-family="Helvetica,sans-Serif" font-size="10.00">IdealChannel</text>
</a>
</g>
</g>
<!-- LinkLayerNodeBase&#45;&gt;IdealChannel -->
<g id="edge3" class="edge">
<title>LinkLayerNodeBase&#45;&gt;IdealChannel</title>
<path fill="none" stroke="black" d="M754.25,-59.85C664.67,-53.76 484.82,-40.18 322.26,-19.06"/>
<polygon fill="black" stroke="black" points="322.44,-15.55 312.07,-17.72 321.53,-22.5 322.44,-15.55"/>
</g>
<!-- IEthernetLayer -->
<g id="node5" class="node">
<title>IEthernetLayer</title>
<g id="a_node5"><a xlink:href="inet.linklayer.ethernet.contract.IEthernetLayer.html" xlink:title="Module Interface IEthernetLayer" target="_parent">
<polygon fill="#fffcaf" stroke="black" stroke-dasharray="5,2" points="418,-19 330,-19 330,0 418,0 418,-19"/>
<text text-anchor="middle" x="374" y="-7" font-family="Helvetica,sans-Serif" font-size="10.00">IEthernetLayer</text>
</a>
</g>
</g>
<!-- LinkLayerNodeBase&#45;&gt;IEthernetLayer -->
<g id="edge4" class="edge">
<title>LinkLayerNodeBase&#45;&gt;IEthernetLayer</title>
<path fill="none" stroke="black" d="M754.3,-57.71C681.34,-50.09 550.42,-35.82 428.49,-19.15"/>
<polygon fill="black" stroke="black" points="428.61,-15.64 418.22,-17.74 427.65,-22.57 428.61,-15.64"/>
</g>
<!-- IPppInterface -->
<g id="node6" class="node">
<title>IPppInterface</title>
<g id="a_node6"><a xlink:href="inet.linklayer.contract.IPppInterface.html" xlink:title="Module Interface IPppInterface" target="_parent">
<polygon fill="#fffcaf" stroke="black" stroke-dasharray="5,2" points="517.5,-19 436.5,-19 436.5,0 517.5,0 517.5,-19"/>
<text text-anchor="middle" x="477" y="-7" font-family="Helvetica,sans-Serif" font-size="10.00">IPppInterface</text>
</a>
</g>
</g>
<!-- LinkLayerNodeBase&#45;&gt;IPppInterface -->
<g id="edge5" class="edge">
<title>LinkLayerNodeBase&#45;&gt;IPppInterface</title>
<path fill="none" stroke="black" d="M755.19,-54.97C700.08,-46.51 613.11,-33.01 527.78,-19.11"/>
<polygon fill="black" stroke="black" points="528.08,-15.61 517.65,-17.46 526.96,-22.52 528.08,-15.61"/>
</g>
<!-- IEthernetInterface -->
<g id="node7" class="node">
<title>IEthernetInterface</title>
<g id="a_node7"><a xlink:href="inet.linklayer.contract.IEthernetInterface.html" xlink:title="Module Interface IEthernetInterface" target="_parent">
<polygon fill="#fffcaf" stroke="black" stroke-dasharray="5,2" points="640,-19 536,-19 536,0 640,0 640,-19"/>
<text text-anchor="middle" x="588" y="-7" font-family="Helvetica,sans-Serif" font-size="10.00">IEthernetInterface</text>
</a>
</g>
</g>
<!-- LinkLayerNodeBase&#45;&gt;IEthernetInterface -->
<g id="edge6" class="edge">
<title>LinkLayerNodeBase&#45;&gt;IEthernetInterface</title>
<path fill="none" stroke="black" d="M775.17,-54.98C736.84,-45.87 675.92,-31.4 634.05,-21.45"/>
<polygon fill="black" stroke="black" points="634.65,-17.99 624.11,-19.08 633.03,-24.8 634.65,-17.99"/>
</g>
<!-- IVirtualInterface -->
<g id="node8" class="node">
<title>IVirtualInterface</title>
<g id="a_node8"><a xlink:href="inet.linklayer.contract.IVirtualInterface.html" xlink:title="Module Interface IVirtualInterface" target="_parent">
<polygon fill="#fffcaf" stroke="black" stroke-dasharray="5,2" points="753.5,-19 658.5,-19 658.5,0 753.5,0 753.5,-19"/>
<text text-anchor="middle" x="706" y="-7" font-family="Helvetica,sans-Serif" font-size="10.00">IVirtualInterface</text>
</a>
</g>
</g>
<!-- LinkLayerNodeBase&#45;&gt;IVirtualInterface -->
<g id="edge7" class="edge">
<title>LinkLayerNodeBase&#45;&gt;IVirtualInterface</title>
<path fill="none" stroke="black" d="M794.13,-54.98C777.39,-46.54 751.5,-33.47 732.11,-23.68"/>
<polygon fill="black" stroke="black" points="733.68,-20.55 723.18,-19.17 730.53,-26.8 733.68,-20.55"/>
</g>
<!-- IIeee8022Llc -->
<g id="node9" class="node">
<title>IIeee8022Llc</title>
<g id="a_node9"><a xlink:href="inet.linklayer.ieee8022.IIeee8022Llc.html" xlink:title="Module Interface IIeee8022Llc" target="_parent">
<polygon fill="#fffcaf" stroke="black" stroke-dasharray="5,2" points="850,-19 772,-19 772,0 850,0 850,-19"/>
<text text-anchor="middle" x="811" y="-7" font-family="Helvetica,sans-Serif" font-size="10.00">IIeee8022Llc</text>
</a>
</g>
</g>
<!-- LinkLayerNodeBase&#45;&gt;IIeee8022Llc -->
<g id="edge8" class="edge">
<title>LinkLayerNodeBase&#45;&gt;IIeee8022Llc</title>
<path fill="none" stroke="black" d="M811,-54.75C811,-47.8 811,-37.85 811,-29.13"/>
<polygon fill="black" stroke="black" points="814.5,-29.09 811,-19.09 807.5,-29.09 814.5,-29.09"/>
</g>
<!-- IWirelessInterface -->
<g id="node10" class="node">
<title>IWirelessInterface</title>
<g id="a_node10"><a xlink:href="inet.linklayer.contract.IWirelessInterface.html" xlink:title="Module Interface IWirelessInterface" target="_parent">
<polygon fill="#fffcaf" stroke="black" stroke-dasharray="5,2" points="973.5,-19 868.5,-19 868.5,0 973.5,0 973.5,-19"/>
<text text-anchor="middle" x="921" y="-7" font-family="Helvetica,sans-Serif" font-size="10.00">IWirelessInterface</text>
</a>
</g>
</g>
<!-- LinkLayerNodeBase&#45;&gt;IWirelessInterface -->
<g id="edge9" class="edge">
<title>LinkLayerNodeBase&#45;&gt;IWirelessInterface</title>
<path fill="none" stroke="black" d="M828.67,-54.98C846.29,-46.5 873.58,-33.35 893.93,-23.54"/>
<polygon fill="black" stroke="black" points="895.52,-26.66 903.01,-19.17 892.48,-20.36 895.52,-26.66"/>
</g>
<!-- MessageDispatcher -->
<g id="node11" class="node">
<title>MessageDispatcher</title>
<g id="a_node11"><a xlink:href="inet.common.MessageDispatcher.html" xlink:title="Simple Module MessageDispatcher" target="_parent">
<polygon fill="#fffcaf" stroke="black" points="1104.5,-19 991.5,-19 991.5,0 1104.5,0 1104.5,-19"/>
<text text-anchor="middle" x="1048" y="-7" font-family="Helvetica,sans-Serif" font-size="10.00">MessageDispatcher</text>
</a>
</g>
</g>
<!-- LinkLayerNodeBase&#45;&gt;MessageDispatcher -->
<g id="edge10" class="edge">
<title>LinkLayerNodeBase&#45;&gt;MessageDispatcher</title>
<path fill="none" stroke="black" d="M849.08,-54.98C889.99,-45.84 955.11,-31.27 999.62,-21.32"/>
<polygon fill="black" stroke="black" points="1000.63,-24.68 1009.62,-19.08 999.1,-17.85 1000.63,-24.68"/>
</g>
<!-- ITunnelInterface -->
<g id="node12" class="node">
<title>ITunnelInterface</title>
<g id="a_node12"><a xlink:href="inet.linklayer.contract.ITunnelInterface.html" xlink:title="Module Interface ITunnelInterface" target="_parent">
<polygon fill="#fffcaf" stroke="black" stroke-dasharray="5,2" points="1217.5,-19 1122.5,-19 1122.5,0 1217.5,0 1217.5,-19"/>
<text text-anchor="middle" x="1170" y="-7" font-family="Helvetica,sans-Serif" font-size="10.00">ITunnelInterface</text>
</a>
</g>
</g>
<!-- LinkLayerNodeBase&#45;&gt;ITunnelInterface -->
<g id="edge11" class="edge">
<title>LinkLayerNodeBase&#45;&gt;ITunnelInterface</title>
<path fill="none" stroke="black" d="M867.69,-55.26C926.44,-46.7 1021.2,-32.84 1112.39,-19.23"/>
<polygon fill="black" stroke="black" points="1112.97,-22.69 1122.34,-17.75 1111.94,-15.76 1112.97,-22.69"/>
</g>
<!-- IIeee8021rLayer -->
<g id="node13" class="node">
<title>IIeee8021rLayer</title>
<g id="a_node13"><a xlink:href="inet.linklayer.ieee8021r.IIeee8021rLayer.html" xlink:title="Module Interface IIeee8021rLayer" target="_parent">
<polygon fill="#fffcaf" stroke="black" stroke-dasharray="5,2" points="1330.5,-19 1235.5,-19 1235.5,0 1330.5,0 1330.5,-19"/>
<text text-anchor="middle" x="1283" y="-7" font-family="Helvetica,sans-Serif" font-size="10.00">IIeee8021rLayer</text>
</a>
</g>
</g>
<!-- LinkLayerNodeBase&#45;&gt;IIeee8021rLayer -->
<g id="edge12" class="edge">
<title>LinkLayerNodeBase&#45;&gt;IIeee8021rLayer</title>
<path fill="none" stroke="black" d="M867.61,-58.24C945.79,-50.8 1091.45,-36.31 1225.33,-19.17"/>
<polygon fill="black" stroke="black" points="1225.89,-22.63 1235.36,-17.88 1225,-15.68 1225.89,-22.63"/>
</g>
<!-- PcapRecorder -->
<g id="node14" class="node">
<title>PcapRecorder</title>
<g id="a_node14"><a xlink:href="inet.common.packet.recorder.PcapRecorder.html" xlink:title="Simple Module PcapRecorder" target="_parent">
<polygon fill="#fffcaf" stroke="black" points="1431.5,-19 1348.5,-19 1348.5,0 1431.5,0 1431.5,-19"/>
<text text-anchor="middle" x="1390" y="-7" font-family="Helvetica,sans-Serif" font-size="10.00">PcapRecorder</text>
</a>
</g>
</g>
<!-- LinkLayerNodeBase&#45;&gt;PcapRecorder -->
<g id="edge13" class="edge">
<title>LinkLayerNodeBase&#45;&gt;PcapRecorder</title>
<path fill="none" stroke="black" d="M867.53,-60.32C962.68,-54.62 1161.03,-41.25 1338.27,-19.12"/>
<polygon fill="black" stroke="black" points="1338.81,-22.58 1348.3,-17.86 1337.94,-15.64 1338.81,-22.58"/>
</g>
<!-- IProtocolLayer -->
<g id="node15" class="node">
<title>IProtocolLayer</title>
<g id="a_node15"><a xlink:href="inet.protocolelement.contract.IProtocolLayer.html" xlink:title="Module Interface IProtocolLayer" target="_parent">
<polygon fill="#fffcaf" stroke="black" stroke-dasharray="5,2" points="1536,-19 1450,-19 1450,0 1536,0 1536,-19"/>
<text text-anchor="middle" x="1493" y="-7" font-family="Helvetica,sans-Serif" font-size="10.00">IProtocolLayer</text>
</a>
</g>
</g>
<!-- LinkLayerNodeBase&#45;&gt;IProtocolLayer -->
<g id="edge14" class="edge">
<title>LinkLayerNodeBase&#45;&gt;IProtocolLayer</title>
<path fill="none" stroke="black" d="M867.63,-61.24C976.5,-56.52 1222.67,-44 1439.92,-19.02"/>
<polygon fill="black" stroke="black" points="1440.38,-22.49 1449.91,-17.85 1439.58,-15.53 1440.38,-22.49"/>
</g>
<!-- IIeee8021qLayer -->
<g id="node16" class="node">
<title>IIeee8021qLayer</title>
<g id="a_node16"><a xlink:href="inet.linklayer.ieee8021q.IIeee8021qLayer.html" xlink:title="Module Interface IIeee8021qLayer" target="_parent">
<polygon fill="#fffcaf" stroke="black" stroke-dasharray="5,2" points="1652,-19 1554,-19 1554,0 1652,0 1652,-19"/>
<text text-anchor="middle" x="1603" y="-7" font-family="Helvetica,sans-Serif" font-size="10.00">IIeee8021qLayer</text>
</a>
</g>
</g>
<!-- LinkLayerNodeBase&#45;&gt;IIeee8021qLayer -->
<g id="edge15" class="edge">
<title>LinkLayerNodeBase&#45;&gt;IIeee8021qLayer</title>
<path fill="none" stroke="black" d="M867.77,-61.7C989.66,-57.49 1285.61,-45.34 1544.04,-19"/>
<polygon fill="black" stroke="black" points="1544.4,-22.49 1553.99,-17.98 1543.68,-15.52 1544.4,-22.49"/>
</g>
</g>
</svg>
