<?xml version="1.0" encoding="UTF-8" standalone="no"?>
<!DOCTYPE svg PUBLIC "-//W3C//DTD SVG 1.1//EN"
 "http://www.w3.org/Graphics/SVG/1.1/DTD/svg11.dtd">
<!-- Generated by graphviz version 2.43.0 (0)
 -->
<!-- Title: opp Pages: 1 -->
<svg width="1375pt" height="82pt"
 viewBox="0.00 0.00 1374.50 82.00" xmlns="http://www.w3.org/2000/svg" xmlns:xlink="http://www.w3.org/1999/xlink">
<g id="graph0" class="graph" transform="scale(1 1) rotate(0) translate(4 78)">
<title>opp</title>
<polygon fill="transparent" stroke="transparent" points="-4,4 -4,-78 1370.5,-78 1370.5,4 -4,4"/>
<!-- Ieee8022LlcLayer -->
<g id="node1" class="node">
<title>Ieee8022LlcLayer</title>
<g id="a_node1"><a xlink:href="inet.linklayer.ieee8022.Ieee8022LlcLayer.html" xlink:title="Compound Module Ieee8022LlcLayer" target="_parent">
<polygon fill="#fff700" stroke="black" points="719,-74 617,-74 617,-55 719,-55 719,-74"/>
<text text-anchor="middle" x="668" y="-62" font-family="Helvetica,sans-Serif" font-size="10.00">Ieee8022LlcLayer</text>
</a>
</g>
</g>
<!-- IdealChannel -->
<g id="node2" class="node">
<title>IdealChannel</title>
<g id="a_node2"><a xlink:href="ned.IdealChannel.html" xlink:title="Channel IdealChannel" target="_parent">
<polygon fill="#d0ffd0" stroke="black" points="80,-19 0,-19 0,0 80,0 80,-19"/>
<text text-anchor="middle" x="40" y="-7" font-family="Helvetica,sans-Serif" font-size="10.00">IdealChannel</text>
</a>
</g>
</g>
<!-- Ieee8022LlcLayer&#45;&gt;IdealChannel -->
<g id="edge1" class="edge">
<title>Ieee8022LlcLayer&#45;&gt;IdealChannel</title>
<path fill="none" stroke="black" d="M616.72,-61.2C517.19,-56.38 290.76,-43.67 90.2,-19.03"/>
<polygon fill="black" stroke="black" points="90.42,-15.53 80.06,-17.77 89.56,-22.47 90.42,-15.53"/>
</g>
<!-- MessageDispatcher -->
<g id="node3" class="node">
<title>MessageDispatcher</title>
<g id="a_node3"><a xlink:href="inet.common.MessageDispatcher.html" xlink:title="Simple Module MessageDispatcher" target="_parent">
<polygon fill="#fffcaf" stroke="black" points="211.5,-19 98.5,-19 98.5,0 211.5,0 211.5,-19"/>
<text text-anchor="middle" x="155" y="-7" font-family="Helvetica,sans-Serif" font-size="10.00">MessageDispatcher</text>
</a>
</g>
</g>
<!-- Ieee8022LlcLayer&#45;&gt;MessageDispatcher -->
<g id="edge2" class="edge">
<title>Ieee8022LlcLayer&#45;&gt;MessageDispatcher</title>
<path fill="none" stroke="black" d="M616.88,-58.94C535.51,-51.57 371.24,-36.23 221.97,-19.2"/>
<polygon fill="black" stroke="black" points="222.04,-15.68 211.71,-18.02 221.24,-22.64 222.04,-15.68"/>
</g>
<!-- ProtocolChecker -->
<g id="node4" class="node">
<title>ProtocolChecker</title>
<g id="a_node4"><a xlink:href="inet.protocolelement.common.ProtocolChecker.html" xlink:title="Simple Module ProtocolChecker" target="_parent">
<polygon fill="#fffcaf" stroke="black" points="324.5,-19 229.5,-19 229.5,0 324.5,0 324.5,-19"/>
<text text-anchor="middle" x="277" y="-7" font-family="Helvetica,sans-Serif" font-size="10.00">ProtocolChecker</text>
</a>
</g>
</g>
<!-- Ieee8022LlcLayer&#45;&gt;ProtocolChecker -->
<g id="edge3" class="edge">
<title>Ieee8022LlcLayer&#45;&gt;ProtocolChecker</title>
<path fill="none" stroke="black" d="M616.75,-56.92C553.16,-48.71 441.11,-34.05 334.54,-19.06"/>
<polygon fill="black" stroke="black" points="334.97,-15.58 324.58,-17.65 333.99,-22.51 334.97,-15.58"/>
</g>
<!-- IPacketClassifier -->
<g id="node5" class="node">
<title>IPacketClassifier</title>
<g id="a_node5"><a xlink:href="inet.queueing.contract.IPacketClassifier.html" xlink:title="Module Interface IPacketClassifier" target="_parent">
<polygon fill="#fffcaf" stroke="black" stroke-dasharray="5,2" points="441,-19 343,-19 343,0 441,0 441,-19"/>
<text text-anchor="middle" x="392" y="-7" font-family="Helvetica,sans-Serif" font-size="10.00">IPacketClassifier</text>
</a>
</g>
</g>
<!-- Ieee8022LlcLayer&#45;&gt;IPacketClassifier -->
<g id="edge4" class="edge">
<title>Ieee8022LlcLayer&#45;&gt;IPacketClassifier</title>
<path fill="none" stroke="black" d="M623.66,-54.98C575.51,-45.74 498.58,-30.97 446.71,-21.01"/>
<polygon fill="black" stroke="black" points="447.17,-17.53 436.69,-19.08 445.85,-24.41 447.17,-17.53"/>
</g>
<!-- IIeee8022SnapChecker -->
<g id="node6" class="node">
<title>IIeee8022SnapChecker</title>
<g id="a_node6"><a xlink:href="inet.linklayer.ieee8022.IIeee8022SnapChecker.html" xlink:title="Module Interface IIeee8022SnapChecker" target="_parent">
<polygon fill="#fffcaf" stroke="black" stroke-dasharray="5,2" points="587,-19 459,-19 459,0 587,0 587,-19"/>
<text text-anchor="middle" x="523" y="-7" font-family="Helvetica,sans-Serif" font-size="10.00">IIeee8022SnapChecker</text>
</a>
</g>
</g>
<!-- Ieee8022LlcLayer&#45;&gt;IIeee8022SnapChecker -->
<g id="edge5" class="edge">
<title>Ieee8022LlcLayer&#45;&gt;IIeee8022SnapChecker</title>
<path fill="none" stroke="black" d="M644.7,-54.98C620.75,-46.23 583.22,-32.51 556.17,-22.62"/>
<polygon fill="black" stroke="black" points="557.31,-19.32 546.72,-19.17 554.91,-25.89 557.31,-19.32"/>
</g>
<!-- IIeee8022SnapInserter -->
<g id="node7" class="node">
<title>IIeee8022SnapInserter</title>
<g id="a_node7"><a xlink:href="inet.linklayer.ieee8022.IIeee8022SnapInserter.html" xlink:title="Module Interface IIeee8022SnapInserter" target="_parent">
<polygon fill="#fffcaf" stroke="black" stroke-dasharray="5,2" points="731,-19 605,-19 605,0 731,0 731,-19"/>
<text text-anchor="middle" x="668" y="-7" font-family="Helvetica,sans-Serif" font-size="10.00">IIeee8022SnapInserter</text>
</a>
</g>
</g>
<!-- Ieee8022LlcLayer&#45;&gt;IIeee8022SnapInserter -->
<g id="edge6" class="edge">
<title>Ieee8022LlcLayer&#45;&gt;IIeee8022SnapInserter</title>
<path fill="none" stroke="black" d="M668,-54.75C668,-47.8 668,-37.85 668,-29.13"/>
<polygon fill="black" stroke="black" points="671.5,-29.09 668,-19.09 664.5,-29.09 671.5,-29.09"/>
</g>
<!-- PacketMultiplexer -->
<g id="node8" class="node">
<title>PacketMultiplexer</title>
<g id="a_node8"><a xlink:href="inet.queueing.common.PacketMultiplexer.html" xlink:title="Simple Module PacketMultiplexer" target="_parent">
<polygon fill="#fffcaf" stroke="black" points="853,-19 749,-19 749,0 853,0 853,-19"/>
<text text-anchor="middle" x="801" y="-7" font-family="Helvetica,sans-Serif" font-size="10.00">PacketMultiplexer</text>
</a>
</g>
</g>
<!-- Ieee8022LlcLayer&#45;&gt;PacketMultiplexer -->
<g id="edge7" class="edge">
<title>Ieee8022LlcLayer&#45;&gt;PacketMultiplexer</title>
<path fill="none" stroke="black" d="M689.37,-54.98C711.15,-46.3 745.16,-32.75 769.92,-22.88"/>
<polygon fill="black" stroke="black" points="771.25,-26.12 779.24,-19.17 768.66,-19.62 771.25,-26.12"/>
</g>
<!-- IIeee8022LlcInserter -->
<g id="node9" class="node">
<title>IIeee8022LlcInserter</title>
<g id="a_node9"><a xlink:href="inet.linklayer.ieee8022.IIeee8022LlcInserter.html" xlink:title="Module Interface IIeee8022LlcInserter" target="_parent">
<polygon fill="#fffcaf" stroke="black" stroke-dasharray="5,2" points="987,-19 871,-19 871,0 987,0 987,-19"/>
<text text-anchor="middle" x="929" y="-7" font-family="Helvetica,sans-Serif" font-size="10.00">IIeee8022LlcInserter</text>
</a>
</g>
</g>
<!-- Ieee8022LlcLayer&#45;&gt;IIeee8022LlcInserter -->
<g id="edge8" class="edge">
<title>Ieee8022LlcLayer&#45;&gt;IIeee8022LlcInserter</title>
<path fill="none" stroke="black" d="M709.93,-54.98C755.27,-45.78 827.61,-31.09 876.65,-21.13"/>
<polygon fill="black" stroke="black" points="877.63,-24.5 886.74,-19.08 876.24,-17.64 877.63,-24.5"/>
</g>
<!-- Ieee8022LlcSocketTable -->
<g id="node10" class="node">
<title>Ieee8022LlcSocketTable</title>
<g id="a_node10"><a xlink:href="inet.linklayer.ieee8022.Ieee8022LlcSocketTable.html" xlink:title="Simple Module Ieee8022LlcSocketTable" target="_parent">
<polygon fill="#fffcaf" stroke="black" points="1138.5,-19 1005.5,-19 1005.5,0 1138.5,0 1138.5,-19"/>
<text text-anchor="middle" x="1072" y="-7" font-family="Helvetica,sans-Serif" font-size="10.00">Ieee8022LlcSocketTable</text>
</a>
</g>
</g>
<!-- Ieee8022LlcLayer&#45;&gt;Ieee8022LlcSocketTable -->
<g id="edge9" class="edge">
<title>Ieee8022LlcLayer&#45;&gt;Ieee8022LlcSocketTable</title>
<path fill="none" stroke="black" d="M719.17,-56.79C789.31,-47.59 915.84,-30.99 996.78,-20.37"/>
<polygon fill="black" stroke="black" points="997.45,-23.81 1006.91,-19.04 996.54,-16.87 997.45,-23.81"/>
</g>
<!-- IPacketFlow -->
<g id="node11" class="node">
<title>IPacketFlow</title>
<g id="a_node11"><a xlink:href="inet.queueing.contract.IPacketFlow.html" xlink:title="Module Interface IPacketFlow" target="_parent">
<polygon fill="#fffcaf" stroke="black" stroke-dasharray="5,2" points="1231.5,-19 1156.5,-19 1156.5,0 1231.5,0 1231.5,-19"/>
<text text-anchor="middle" x="1194" y="-7" font-family="Helvetica,sans-Serif" font-size="10.00">IPacketFlow</text>
</a>
</g>
</g>
<!-- Ieee8022LlcLayer&#45;&gt;IPacketFlow -->
<g id="edge10" class="edge">
<title>Ieee8022LlcLayer&#45;&gt;IPacketFlow</title>
<path fill="none" stroke="black" d="M719.32,-60.27C805.52,-54.51 985.01,-41.09 1146.28,-19.13"/>
<polygon fill="black" stroke="black" points="1146.96,-22.57 1156.39,-17.74 1146.01,-15.63 1146.96,-22.57"/>
</g>
<!-- IIeee8022LlcChecker -->
<g id="node12" class="node">
<title>IIeee8022LlcChecker</title>
<g id="a_node12"><a xlink:href="inet.linklayer.ieee8022.IIeee8022LlcChecker.html" xlink:title="Module Interface IIeee8022LlcChecker" target="_parent">
<polygon fill="#fffcaf" stroke="black" stroke-dasharray="5,2" points="1366.5,-19 1249.5,-19 1249.5,0 1366.5,0 1366.5,-19"/>
<text text-anchor="middle" x="1308" y="-7" font-family="Helvetica,sans-Serif" font-size="10.00">IIeee8022LlcChecker</text>
</a>
</g>
</g>
<!-- Ieee8022LlcLayer&#45;&gt;IIeee8022LlcChecker -->
<g id="edge11" class="edge">
<title>Ieee8022LlcLayer&#45;&gt;IIeee8022LlcChecker</title>
<path fill="none" stroke="black" d="M719.05,-60.37C817.59,-54.15 1041.1,-39.16 1239.18,-19.14"/>
<polygon fill="black" stroke="black" points="1239.6,-22.62 1249.19,-18.13 1238.89,-15.66 1239.6,-22.62"/>
</g>
</g>
</svg>
