<?xml version="1.0" encoding="UTF-8" standalone="no"?>
<!DOCTYPE svg PUBLIC "-//W3C//DTD SVG 1.1//EN"
 "http://www.w3.org/Graphics/SVG/1.1/DTD/svg11.dtd">
<!-- Generated by graphviz version 2.43.0 (0)
 -->
<!-- Title: opp Pages: 1 -->
<svg width="534pt" height="82pt"
 viewBox="0.00 0.00 534.00 82.00" xmlns="http://www.w3.org/2000/svg" xmlns:xlink="http://www.w3.org/1999/xlink">
<g id="graph0" class="graph" transform="scale(1 1) rotate(0) translate(4 78)">
<title>opp</title>
<polygon fill="transparent" stroke="transparent" points="-4,4 -4,-78 530,-78 530,4 -4,4"/>
<!-- HandoverShowcase -->
<g id="node1" class="node">
<title>HandoverShowcase</title>
<g id="a_node1"><a xlink:href="inet.showcases.wireless.handover.HandoverShowcase.html" xlink:title="Network HandoverShowcase" target="_parent">
<polygon fill="#9090ff" stroke="black" points="257,-74 144,-74 144,-55 257,-55 257,-74"/>
<text text-anchor="middle" x="200.5" y="-62" font-family="Helvetica,sans-Serif" font-size="10.00">HandoverShowcase</text>
</a>
</g>
</g>
<!-- AccessPoint -->
<g id="node2" class="node">
<title>AccessPoint</title>
<g id="a_node2"><a xlink:href="inet.node.wireless.AccessPoint.html" xlink:title="Compound Module AccessPoint" target="_parent">
<polygon fill="#fffcaf" stroke="black" points="75,-19 0,-19 0,0 75,0 75,-19"/>
<text text-anchor="middle" x="37.5" y="-7" font-family="Helvetica,sans-Serif" font-size="10.00">AccessPoint</text>
</a>
</g>
</g>
<!-- HandoverShowcase&#45;&gt;AccessPoint -->
<g id="edge1" class="edge">
<title>HandoverShowcase&#45;&gt;AccessPoint</title>
<path fill="none" stroke="black" d="M174.31,-54.98C147.06,-46.13 104.2,-32.19 73.72,-22.28"/>
<polygon fill="black" stroke="black" points="74.49,-18.85 63.89,-19.08 72.32,-25.5 74.49,-18.85"/>
</g>
<!-- WirelessHost -->
<g id="node3" class="node">
<title>WirelessHost</title>
<g id="a_node3"><a xlink:href="inet.node.inet.WirelessHost.html" xlink:title="Compound Module WirelessHost" target="_parent">
<polygon fill="#fffcaf" stroke="black" points="174,-19 93,-19 93,0 174,0 174,-19"/>
<text text-anchor="middle" x="133.5" y="-7" font-family="Helvetica,sans-Serif" font-size="10.00">WirelessHost</text>
</a>
</g>
</g>
<!-- HandoverShowcase&#45;&gt;WirelessHost -->
<g id="edge2" class="edge">
<title>HandoverShowcase&#45;&gt;WirelessHost</title>
<path fill="none" stroke="black" d="M189.74,-54.98C179.73,-47.07 164.61,-35.11 152.57,-25.58"/>
<polygon fill="black" stroke="black" points="154.47,-22.63 144.46,-19.17 150.13,-28.12 154.47,-22.63"/>
</g>
<!-- IntegratedCanvasVisualizer -->
<g id="node4" class="node">
<title>IntegratedCanvasVisualizer</title>
<g id="a_node4"><a xlink:href="inet.visualizer.canvas.integrated.IntegratedCanvasVisualizer.html" xlink:title="Compound Module IntegratedCanvasVisualizer" target="_parent">
<polygon fill="#fffcaf" stroke="black" points="343,-19 192,-19 192,0 343,0 343,-19"/>
<text text-anchor="middle" x="267.5" y="-7" font-family="Helvetica,sans-Serif" font-size="10.00">IntegratedCanvasVisualizer</text>
</a>
</g>
</g>
<!-- HandoverShowcase&#45;&gt;IntegratedCanvasVisualizer -->
<g id="edge3" class="edge">
<title>HandoverShowcase&#45;&gt;IntegratedCanvasVisualizer</title>
<path fill="none" stroke="black" d="M211.26,-54.98C221.27,-47.07 236.39,-35.11 248.43,-25.58"/>
<polygon fill="black" stroke="black" points="250.87,-28.12 256.54,-19.17 246.53,-22.63 250.87,-28.12"/>
</g>
<!-- Ieee80211ScalarRadioMedium -->
<g id="node5" class="node">
<title>Ieee80211ScalarRadioMedium</title>
<g id="a_node5"><a xlink:href="inet.physicallayer.wireless.ieee80211.packetlevel.Ieee80211ScalarRadioMedium.html" xlink:title="Compound Module Ieee80211ScalarRadioMedium" target="_parent">
<polygon fill="#fffcaf" stroke="black" points="526,-19 361,-19 361,0 526,0 526,-19"/>
<text text-anchor="middle" x="443.5" y="-7" font-family="Helvetica,sans-Serif" font-size="10.00">Ieee80211ScalarRadioMedium</text>
</a>
</g>
</g>
<!-- HandoverShowcase&#45;&gt;Ieee80211ScalarRadioMedium -->
<g id="edge4" class="edge">
<title>HandoverShowcase&#45;&gt;Ieee80211ScalarRadioMedium</title>
<path fill="none" stroke="black" d="M239.54,-54.98C281.58,-45.82 348.54,-31.21 394.18,-21.26"/>
<polygon fill="black" stroke="black" points="395.13,-24.63 404.15,-19.08 393.64,-17.79 395.13,-24.63"/>
</g>
</g>
</svg>
