<?xml version="1.0" encoding="UTF-8" standalone="no"?>
<!DOCTYPE svg PUBLIC "-//W3C//DTD SVG 1.1//EN"
 "http://www.w3.org/Graphics/SVG/1.1/DTD/svg11.dtd">
<!-- Generated by graphviz version 2.43.0 (0)
 -->
<!-- Title: opp Pages: 1 -->
<svg width="552pt" height="82pt"
 viewBox="0.00 0.00 551.50 82.00" xmlns="http://www.w3.org/2000/svg" xmlns:xlink="http://www.w3.org/1999/xlink">
<g id="graph0" class="graph" transform="scale(1 1) rotate(0) translate(4 78)">
<title>opp</title>
<polygon fill="transparent" stroke="transparent" points="-4,4 -4,-78 547.5,-78 547.5,4 -4,4"/>
<!-- PacketDropArpResolutionFailedShowcase -->
<g id="node1" class="node">
<title>PacketDropArpResolutionFailedShowcase</title>
<g id="a_node1"><a xlink:href="inet.showcases.visualizer.canvas.packetdrop.PacketDropArpResolutionFailedShowcase.html" xlink:title="Network PacketDropArpResolutionFailedShowcase" target="_parent">
<polygon fill="#9090ff" stroke="black" points="380,-74 162,-74 162,-55 380,-55 380,-74"/>
<text text-anchor="middle" x="271" y="-62" font-family="Helvetica,sans-Serif" font-size="10.00">PacketDropArpResolutionFailedShowcase</text>
</a>
</g>
</g>
<!-- Ipv4NetworkConfigurator -->
<g id="node2" class="node">
<title>Ipv4NetworkConfigurator</title>
<g id="a_node2"><a xlink:href="inet.networklayer.configurator.ipv4.Ipv4NetworkConfigurator.html" xlink:title="Simple Module Ipv4NetworkConfigurator" target="_parent">
<polygon fill="#fffcaf" stroke="black" points="140,-19 0,-19 0,0 140,0 140,-19"/>
<text text-anchor="middle" x="70" y="-7" font-family="Helvetica,sans-Serif" font-size="10.00">Ipv4NetworkConfigurator</text>
</a>
</g>
</g>
<!-- PacketDropArpResolutionFailedShowcase&#45;&gt;Ipv4NetworkConfigurator -->
<g id="edge1" class="edge">
<title>PacketDropArpResolutionFailedShowcase&#45;&gt;Ipv4NetworkConfigurator</title>
<path fill="none" stroke="black" d="M238.71,-54.98C204.38,-45.93 149.94,-31.58 112.23,-21.64"/>
<polygon fill="black" stroke="black" points="113.11,-18.25 102.55,-19.08 111.32,-25.02 113.11,-18.25"/>
</g>
<!-- IntegratedVisualizer -->
<g id="node3" class="node">
<title>IntegratedVisualizer</title>
<g id="a_node3"><a xlink:href="inet.visualizer.common.IntegratedVisualizer.html" xlink:title="Compound Module IntegratedVisualizer" target="_parent">
<polygon fill="#fffcaf" stroke="black" points="273.5,-19 158.5,-19 158.5,0 273.5,0 273.5,-19"/>
<text text-anchor="middle" x="216" y="-7" font-family="Helvetica,sans-Serif" font-size="10.00">IntegratedVisualizer</text>
</a>
</g>
</g>
<!-- PacketDropArpResolutionFailedShowcase&#45;&gt;IntegratedVisualizer -->
<g id="edge2" class="edge">
<title>PacketDropArpResolutionFailedShowcase&#45;&gt;IntegratedVisualizer</title>
<path fill="none" stroke="black" d="M261.92,-54.75C253.91,-47.03 242.04,-35.6 232.38,-26.28"/>
<polygon fill="black" stroke="black" points="234.54,-23.51 224.91,-19.09 229.69,-28.55 234.54,-23.51"/>
</g>
<!-- AdhocHost -->
<g id="node4" class="node">
<title>AdhocHost</title>
<g id="a_node4"><a xlink:href="inet.node.inet.AdhocHost.html" xlink:title="Compound Module AdhocHost" target="_parent">
<polygon fill="#fffcaf" stroke="black" points="360.5,-19 291.5,-19 291.5,0 360.5,0 360.5,-19"/>
<text text-anchor="middle" x="326" y="-7" font-family="Helvetica,sans-Serif" font-size="10.00">AdhocHost</text>
</a>
</g>
</g>
<!-- PacketDropArpResolutionFailedShowcase&#45;&gt;AdhocHost -->
<g id="edge3" class="edge">
<title>PacketDropArpResolutionFailedShowcase&#45;&gt;AdhocHost</title>
<path fill="none" stroke="black" d="M280.08,-54.75C288.09,-47.03 299.96,-35.6 309.62,-26.28"/>
<polygon fill="black" stroke="black" points="312.31,-28.55 317.09,-19.09 307.46,-23.51 312.31,-28.55"/>
</g>
<!-- Ieee80211ScalarRadioMedium -->
<g id="node5" class="node">
<title>Ieee80211ScalarRadioMedium</title>
<g id="a_node5"><a xlink:href="inet.physicallayer.wireless.ieee80211.packetlevel.Ieee80211ScalarRadioMedium.html" xlink:title="Compound Module Ieee80211ScalarRadioMedium" target="_parent">
<polygon fill="#fffcaf" stroke="black" points="543.5,-19 378.5,-19 378.5,0 543.5,0 543.5,-19"/>
<text text-anchor="middle" x="461" y="-7" font-family="Helvetica,sans-Serif" font-size="10.00">Ieee80211ScalarRadioMedium</text>
</a>
</g>
</g>
<!-- PacketDropArpResolutionFailedShowcase&#45;&gt;Ieee80211ScalarRadioMedium -->
<g id="edge4" class="edge">
<title>PacketDropArpResolutionFailedShowcase&#45;&gt;Ieee80211ScalarRadioMedium</title>
<path fill="none" stroke="black" d="M301.53,-54.98C333.7,-46.01 384.56,-31.82 420.17,-21.89"/>
<polygon fill="black" stroke="black" points="421.54,-25.14 430.23,-19.08 419.66,-18.4 421.54,-25.14"/>
</g>
</g>
</svg>
