<?xml version="1.0" encoding="UTF-8" standalone="no"?>
<!DOCTYPE svg PUBLIC "-//W3C//DTD SVG 1.1//EN"
 "http://www.w3.org/Graphics/SVG/1.1/DTD/svg11.dtd">
<!-- Generated by graphviz version 2.43.0 (0)
 -->
<!-- Title: opp Pages: 1 -->
<svg width="555pt" height="82pt"
 viewBox="0.00 0.00 554.50 82.00" xmlns="http://www.w3.org/2000/svg" xmlns:xlink="http://www.w3.org/1999/xlink">
<g id="graph0" class="graph" transform="scale(1 1) rotate(0) translate(4 78)">
<title>opp</title>
<polygon fill="transparent" stroke="transparent" points="-4,4 -4,-78 550.5,-78 550.5,4 -4,4"/>
<!-- ErrorRateTest -->
<g id="node1" class="node">
<title>ErrorRateTest</title>
<g id="a_node1"><a xlink:href="inet.examples.wireless.errorrate.ErrorRateTest.html" xlink:title="Network ErrorRateTest" target="_parent">
<polygon fill="#9090ff" stroke="black" points="308,-74 226,-74 226,-55 308,-55 308,-74"/>
<text text-anchor="middle" x="267" y="-62" font-family="Helvetica,sans-Serif" font-size="10.00">ErrorRateTest</text>
</a>
</g>
</g>
<!-- IIntegratedVisualizer -->
<g id="node2" class="node">
<title>IIntegratedVisualizer</title>
<g id="a_node2"><a xlink:href="inet.visualizer.contract.IIntegratedVisualizer.html" xlink:title="Module Interface IIntegratedVisualizer" target="_parent">
<polygon fill="#fffcaf" stroke="black" stroke-dasharray="5,2" points="118,-19 0,-19 0,0 118,0 118,-19"/>
<text text-anchor="middle" x="59" y="-7" font-family="Helvetica,sans-Serif" font-size="10.00">IIntegratedVisualizer</text>
</a>
</g>
</g>
<!-- ErrorRateTest&#45;&gt;IIntegratedVisualizer -->
<g id="edge1" class="edge">
<title>ErrorRateTest&#45;&gt;IIntegratedVisualizer</title>
<path fill="none" stroke="black" d="M233.58,-54.98C198.06,-45.93 141.73,-31.58 102.7,-21.64"/>
<polygon fill="black" stroke="black" points="103.24,-18.16 92.68,-19.08 101.51,-24.94 103.24,-18.16"/>
</g>
<!-- Ipv4NetworkConfigurator -->
<g id="node3" class="node">
<title>Ipv4NetworkConfigurator</title>
<g id="a_node3"><a xlink:href="inet.networklayer.configurator.ipv4.Ipv4NetworkConfigurator.html" xlink:title="Simple Module Ipv4NetworkConfigurator" target="_parent">
<polygon fill="#fffcaf" stroke="black" points="276,-19 136,-19 136,0 276,0 276,-19"/>
<text text-anchor="middle" x="206" y="-7" font-family="Helvetica,sans-Serif" font-size="10.00">Ipv4NetworkConfigurator</text>
</a>
</g>
</g>
<!-- ErrorRateTest&#45;&gt;Ipv4NetworkConfigurator -->
<g id="edge2" class="edge">
<title>ErrorRateTest&#45;&gt;Ipv4NetworkConfigurator</title>
<path fill="none" stroke="black" d="M257.2,-54.98C248.18,-47.15 234.59,-35.34 223.68,-25.86"/>
<polygon fill="black" stroke="black" points="225.82,-23.09 215.98,-19.17 221.23,-28.37 225.82,-23.09"/>
</g>
<!-- AdhocHost -->
<g id="node4" class="node">
<title>AdhocHost</title>
<g id="a_node4"><a xlink:href="inet.node.inet.AdhocHost.html" xlink:title="Compound Module AdhocHost" target="_parent">
<polygon fill="#fffcaf" stroke="black" points="363.5,-19 294.5,-19 294.5,0 363.5,0 363.5,-19"/>
<text text-anchor="middle" x="329" y="-7" font-family="Helvetica,sans-Serif" font-size="10.00">AdhocHost</text>
</a>
</g>
</g>
<!-- ErrorRateTest&#45;&gt;AdhocHost -->
<g id="edge3" class="edge">
<title>ErrorRateTest&#45;&gt;AdhocHost</title>
<path fill="none" stroke="black" d="M276.96,-54.98C286.13,-47.15 299.94,-35.34 311.03,-25.86"/>
<polygon fill="black" stroke="black" points="313.53,-28.33 318.86,-19.17 308.98,-23.01 313.53,-28.33"/>
</g>
<!-- Ieee80211ScalarRadioMedium -->
<g id="node5" class="node">
<title>Ieee80211ScalarRadioMedium</title>
<g id="a_node5"><a xlink:href="inet.physicallayer.wireless.ieee80211.packetlevel.Ieee80211ScalarRadioMedium.html" xlink:title="Compound Module Ieee80211ScalarRadioMedium" target="_parent">
<polygon fill="#fffcaf" stroke="black" points="546.5,-19 381.5,-19 381.5,0 546.5,0 546.5,-19"/>
<text text-anchor="middle" x="464" y="-7" font-family="Helvetica,sans-Serif" font-size="10.00">Ieee80211ScalarRadioMedium</text>
</a>
</g>
</g>
<!-- ErrorRateTest&#45;&gt;Ieee80211ScalarRadioMedium -->
<g id="edge4" class="edge">
<title>ErrorRateTest&#45;&gt;Ieee80211ScalarRadioMedium</title>
<path fill="none" stroke="black" d="M298.65,-54.98C332.16,-45.97 385.2,-31.7 422.14,-21.76"/>
<polygon fill="black" stroke="black" points="423.35,-25.06 432.1,-19.08 421.53,-18.3 423.35,-25.06"/>
</g>
</g>
</svg>
