<?xml version="1.0" encoding="UTF-8" standalone="no"?>
<!DOCTYPE svg PUBLIC "-//W3C//DTD SVG 1.1//EN"
 "http://www.w3.org/Graphics/SVG/1.1/DTD/svg11.dtd">
<!-- Generated by graphviz version 2.43.0 (0)
 -->
<!-- Title: opp Pages: 1 -->
<svg width="320pt" height="137pt"
 viewBox="0.00 0.00 319.50 137.00" xmlns="http://www.w3.org/2000/svg" xmlns:xlink="http://www.w3.org/1999/xlink">
<g id="graph0" class="graph" transform="scale(1 1) rotate(0) translate(4 133)">
<title>opp</title>
<polygon fill="transparent" stroke="transparent" points="-4,4 -4,-133 315.5,-133 315.5,4 -4,4"/>
<!-- ICcEnergyStorage -->
<g id="node1" class="node">
<title>ICcEnergyStorage</title>
<g id="a_node1"><a xlink:href="inet.power.contract.ICcEnergyStorage.html" xlink:title="Module Interface ICcEnergyStorage" target="_parent">
<polygon fill="#fff700" stroke="black" stroke-dasharray="5,2" points="204,-74 101,-74 101,-55 204,-55 204,-74"/>
<text text-anchor="middle" x="152.5" y="-62" font-family="Helvetica,sans-Serif" font-size="10.00">ICcEnergyStorage</text>
</a>
</g>
</g>
<!-- CcEnergyStorageBase -->
<g id="node5" class="node">
<title>CcEnergyStorageBase</title>
<g id="a_node5"><a xlink:href="inet.power.base.CcEnergyStorageBase.html" xlink:title="Simple Module CcEnergyStorageBase" target="_parent">
<polygon fill="#fffcaf" stroke="black" points="214.5,-19 90.5,-19 90.5,0 214.5,0 214.5,-19"/>
<text text-anchor="middle" x="152.5" y="-7" font-family="Helvetica,sans-Serif" font-size="10.00">CcEnergyStorageBase</text>
</a>
</g>
</g>
<!-- ICcEnergyStorage&#45;&gt;CcEnergyStorageBase -->
<g id="edge4" class="edge">
<title>ICcEnergyStorage&#45;&gt;CcEnergyStorageBase</title>
<path fill="none" stroke="black" stroke-dasharray="5,2" d="M152.5,-54.75C152.5,-44.87 152.5,-28.9 152.5,-19.09"/>
</g>
<!-- IEnergyStorage -->
<g id="node2" class="node">
<title>IEnergyStorage</title>
<g id="a_node2"><a xlink:href="inet.power.contract.IEnergyStorage.html" xlink:title="Module Interface IEnergyStorage" target="_parent">
<polygon fill="#fffcaf" stroke="black" stroke-dasharray="5,2" points="91,-129 0,-129 0,-110 91,-110 91,-129"/>
<text text-anchor="middle" x="45.5" y="-117" font-family="Helvetica,sans-Serif" font-size="10.00">IEnergyStorage</text>
</a>
</g>
</g>
<!-- IEnergyStorage&#45;&gt;ICcEnergyStorage -->
<g id="edge1" class="edge">
<title>IEnergyStorage&#45;&gt;ICcEnergyStorage</title>
<path fill="none" stroke="black" d="M62.69,-109.98C82.54,-100.15 115.02,-84.07 135,-74.17"/>
</g>
<!-- ICcEnergySink -->
<g id="node3" class="node">
<title>ICcEnergySink</title>
<g id="a_node3"><a xlink:href="inet.power.contract.ICcEnergySink.html" xlink:title="Module Interface ICcEnergySink" target="_parent">
<polygon fill="#fffcaf" stroke="black" stroke-dasharray="5,2" points="195.5,-129 109.5,-129 109.5,-110 195.5,-110 195.5,-129"/>
<text text-anchor="middle" x="152.5" y="-117" font-family="Helvetica,sans-Serif" font-size="10.00">ICcEnergySink</text>
</a>
</g>
</g>
<!-- ICcEnergySink&#45;&gt;ICcEnergyStorage -->
<g id="edge2" class="edge">
<title>ICcEnergySink&#45;&gt;ICcEnergyStorage</title>
<path fill="none" stroke="black" d="M152.5,-109.75C152.5,-99.87 152.5,-83.9 152.5,-74.09"/>
</g>
<!-- ICcEnergySource -->
<g id="node4" class="node">
<title>ICcEnergySource</title>
<g id="a_node4"><a xlink:href="inet.power.contract.ICcEnergySource.html" xlink:title="Module Interface ICcEnergySource" target="_parent">
<polygon fill="#fffcaf" stroke="black" stroke-dasharray="5,2" points="311.5,-129 213.5,-129 213.5,-110 311.5,-110 311.5,-129"/>
<text text-anchor="middle" x="262.5" y="-117" font-family="Helvetica,sans-Serif" font-size="10.00">ICcEnergySource</text>
</a>
</g>
</g>
<!-- ICcEnergySource&#45;&gt;ICcEnergyStorage -->
<g id="edge3" class="edge">
<title>ICcEnergySource&#45;&gt;ICcEnergyStorage</title>
<path fill="none" stroke="black" d="M244.83,-109.98C224.42,-100.15 191.04,-84.07 170.49,-74.17"/>
</g>
</g>
</svg>
