<?xml version="1.0" encoding="UTF-8" standalone="no"?>
<!DOCTYPE svg PUBLIC "-//W3C//DTD SVG 1.1//EN"
 "http://www.w3.org/Graphics/SVG/1.1/DTD/svg11.dtd">
<!-- Generated by graphviz version 2.43.0 (0)
 -->
<!-- Title: opp Pages: 1 -->
<svg width="675pt" height="82pt"
 viewBox="0.00 0.00 674.50 82.00" xmlns="http://www.w3.org/2000/svg" xmlns:xlink="http://www.w3.org/1999/xlink">
<g id="graph0" class="graph" transform="scale(1 1) rotate(0) translate(4 78)">
<title>opp</title>
<polygon fill="transparent" stroke="transparent" points="-4,4 -4,-78 670.5,-78 670.5,4 -4,4"/>
<!-- DynamicRadioNetwork -->
<g id="node1" class="node">
<title>DynamicRadioNetwork</title>
<g id="a_node1"><a xlink:href="inet.examples.wireless.dynamic.DynamicRadioNetwork.html" xlink:title="Network DynamicRadioNetwork" target="_parent">
<polygon fill="#9090ff" stroke="black" points="390.5,-74 261.5,-74 261.5,-55 390.5,-55 390.5,-74"/>
<text text-anchor="middle" x="326" y="-62" font-family="Helvetica,sans-Serif" font-size="10.00">DynamicRadioNetwork</text>
</a>
</g>
</g>
<!-- IIntegratedVisualizer -->
<g id="node2" class="node">
<title>IIntegratedVisualizer</title>
<g id="a_node2"><a xlink:href="inet.visualizer.contract.IIntegratedVisualizer.html" xlink:title="Module Interface IIntegratedVisualizer" target="_parent">
<polygon fill="#fffcaf" stroke="black" stroke-dasharray="5,2" points="118,-19 0,-19 0,0 118,0 118,-19"/>
<text text-anchor="middle" x="59" y="-7" font-family="Helvetica,sans-Serif" font-size="10.00">IIntegratedVisualizer</text>
</a>
</g>
</g>
<!-- DynamicRadioNetwork&#45;&gt;IIntegratedVisualizer -->
<g id="edge1" class="edge">
<title>DynamicRadioNetwork&#45;&gt;IIntegratedVisualizer</title>
<path fill="none" stroke="black" d="M283.1,-54.98C236.63,-45.76 162.41,-31.03 112.24,-21.07"/>
<polygon fill="black" stroke="black" points="112.72,-17.6 102.23,-19.08 111.36,-24.46 112.72,-17.6"/>
</g>
<!-- ScenarioManager -->
<g id="node3" class="node">
<title>ScenarioManager</title>
<g id="a_node3"><a xlink:href="inet.common.scenario.ScenarioManager.html" xlink:title="Simple Module ScenarioManager" target="_parent">
<polygon fill="#fffcaf" stroke="black" points="237.5,-19 136.5,-19 136.5,0 237.5,0 237.5,-19"/>
<text text-anchor="middle" x="187" y="-7" font-family="Helvetica,sans-Serif" font-size="10.00">ScenarioManager</text>
</a>
</g>
</g>
<!-- DynamicRadioNetwork&#45;&gt;ScenarioManager -->
<g id="edge2" class="edge">
<title>DynamicRadioNetwork&#45;&gt;ScenarioManager</title>
<path fill="none" stroke="black" d="M303.67,-54.98C280.8,-46.27 245.04,-32.63 219.14,-22.75"/>
<polygon fill="black" stroke="black" points="220.33,-19.46 209.74,-19.17 217.84,-26 220.33,-19.46"/>
</g>
<!-- Ipv4NetworkConfigurator -->
<g id="node4" class="node">
<title>Ipv4NetworkConfigurator</title>
<g id="a_node4"><a xlink:href="inet.networklayer.configurator.ipv4.Ipv4NetworkConfigurator.html" xlink:title="Simple Module Ipv4NetworkConfigurator" target="_parent">
<polygon fill="#fffcaf" stroke="black" points="396,-19 256,-19 256,0 396,0 396,-19"/>
<text text-anchor="middle" x="326" y="-7" font-family="Helvetica,sans-Serif" font-size="10.00">Ipv4NetworkConfigurator</text>
</a>
</g>
</g>
<!-- DynamicRadioNetwork&#45;&gt;Ipv4NetworkConfigurator -->
<g id="edge3" class="edge">
<title>DynamicRadioNetwork&#45;&gt;Ipv4NetworkConfigurator</title>
<path fill="none" stroke="black" d="M326,-54.75C326,-47.8 326,-37.85 326,-29.13"/>
<polygon fill="black" stroke="black" points="329.5,-29.09 326,-19.09 322.5,-29.09 329.5,-29.09"/>
</g>
<!-- AdhocHost -->
<g id="node5" class="node">
<title>AdhocHost</title>
<g id="a_node5"><a xlink:href="inet.node.inet.AdhocHost.html" xlink:title="Compound Module AdhocHost" target="_parent">
<polygon fill="#fffcaf" stroke="black" points="483.5,-19 414.5,-19 414.5,0 483.5,0 483.5,-19"/>
<text text-anchor="middle" x="449" y="-7" font-family="Helvetica,sans-Serif" font-size="10.00">AdhocHost</text>
</a>
</g>
</g>
<!-- DynamicRadioNetwork&#45;&gt;AdhocHost -->
<g id="edge4" class="edge">
<title>DynamicRadioNetwork&#45;&gt;AdhocHost</title>
<path fill="none" stroke="black" d="M345.76,-54.98C365.73,-46.38 396.8,-32.99 419.65,-23.15"/>
<polygon fill="black" stroke="black" points="421.08,-26.34 428.88,-19.17 418.31,-19.91 421.08,-26.34"/>
</g>
<!-- Ieee80211ScalarRadioMedium -->
<g id="node6" class="node">
<title>Ieee80211ScalarRadioMedium</title>
<g id="a_node6"><a xlink:href="inet.physicallayer.wireless.ieee80211.packetlevel.Ieee80211ScalarRadioMedium.html" xlink:title="Compound Module Ieee80211ScalarRadioMedium" target="_parent">
<polygon fill="#fffcaf" stroke="black" points="666.5,-19 501.5,-19 501.5,0 666.5,0 666.5,-19"/>
<text text-anchor="middle" x="584" y="-7" font-family="Helvetica,sans-Serif" font-size="10.00">Ieee80211ScalarRadioMedium</text>
</a>
</g>
</g>
<!-- DynamicRadioNetwork&#45;&gt;Ieee80211ScalarRadioMedium -->
<g id="edge5" class="edge">
<title>DynamicRadioNetwork&#45;&gt;Ieee80211ScalarRadioMedium</title>
<path fill="none" stroke="black" d="M367.45,-54.98C412.27,-45.78 483.77,-31.09 532.25,-21.13"/>
<polygon fill="black" stroke="black" points="533.13,-24.52 542.22,-19.08 531.72,-17.67 533.13,-24.52"/>
</g>
</g>
</svg>
