<?xml version="1.0" encoding="UTF-8" standalone="no"?>
<!DOCTYPE svg PUBLIC "-//W3C//DTD SVG 1.1//EN"
 "http://www.w3.org/Graphics/SVG/1.1/DTD/svg11.dtd">
<!-- Generated by graphviz version 2.43.0 (0)
 -->
<!-- Title: opp Pages: 1 -->
<svg width="1619pt" height="137pt"
 viewBox="0.00 0.00 1619.00 137.00" xmlns="http://www.w3.org/2000/svg" xmlns:xlink="http://www.w3.org/1999/xlink">
<g id="graph0" class="graph" transform="scale(1 1) rotate(0) translate(4 133)">
<title>opp</title>
<polygon fill="transparent" stroke="transparent" points="-4,4 -4,-133 1615,-133 1615,4 -4,4"/>
<!-- CompoundPacketQueueBase -->
<g id="node1" class="node">
<title>CompoundPacketQueueBase</title>
<g id="a_node1"><a xlink:href="inet.queueing.queue.CompoundPacketQueueBase.html" xlink:title="Compound Module CompoundPacketQueueBase" target="_parent">
<polygon fill="#fff700" stroke="black" points="875.5,-74 718.5,-74 718.5,-55 875.5,-55 875.5,-74"/>
<text text-anchor="middle" x="797" y="-62" font-family="Helvetica,sans-Serif" font-size="10.00">CompoundPacketQueueBase</text>
</a>
</g>
</g>
<!-- CompoundPendingQueue -->
<g id="node4" class="node">
<title>CompoundPendingQueue</title>
<g id="a_node4"><a xlink:href="inet.linklayer.ieee80211.mac.queue.CompoundPendingQueue.html" xlink:title="Compound Module CompoundPendingQueue" target="_parent">
<polygon fill="#fffcaf" stroke="black" points="140,-19 0,-19 0,0 140,0 140,-19"/>
<text text-anchor="middle" x="70" y="-7" font-family="Helvetica,sans-Serif" font-size="10.00">CompoundPendingQueue</text>
</a>
</g>
</g>
<!-- CompoundPacketQueueBase&#45;&gt;CompoundPendingQueue -->
<g id="edge3" class="edge">
<title>CompoundPacketQueueBase&#45;&gt;CompoundPendingQueue</title>
<path fill="none" stroke="black" d="M718.37,-59.08C596.37,-52.01 354.14,-37.07 149,-19 146.11,-18.75 143.17,-18.48 140.2,-18.2"/>
</g>
<!-- DiffservQueue -->
<g id="node5" class="node">
<title>DiffservQueue</title>
<g id="a_node5"><a xlink:href="inet.networklayer.diffserv.DiffservQueue.html" xlink:title="Compound Module DiffservQueue" target="_parent">
<polygon fill="#fffcaf" stroke="black" points="245.5,-19 158.5,-19 158.5,0 245.5,0 245.5,-19"/>
<text text-anchor="middle" x="202" y="-7" font-family="Helvetica,sans-Serif" font-size="10.00">DiffservQueue</text>
</a>
</g>
</g>
<!-- CompoundPacketQueueBase&#45;&gt;DiffservQueue -->
<g id="edge4" class="edge">
<title>CompoundPacketQueueBase&#45;&gt;DiffservQueue</title>
<path fill="none" stroke="black" d="M718.27,-58.95C612.63,-52.4 419.26,-38.89 255,-19 251.95,-18.63 248.8,-18.21 245.64,-17.77"/>
</g>
<!-- DSQueue1 -->
<g id="node6" class="node">
<title>DSQueue1</title>
<g id="a_node6"><a xlink:href="inet.examples.diffserv.onedomain.DSQueue1.html" xlink:title="Compound Module DSQueue1" target="_parent">
<polygon fill="#fffcaf" stroke="black" points="332,-19 264,-19 264,0 332,0 332,-19"/>
<text text-anchor="middle" x="298" y="-7" font-family="Helvetica,sans-Serif" font-size="10.00">DSQueue1</text>
</a>
</g>
</g>
<!-- CompoundPacketQueueBase&#45;&gt;DSQueue1 -->
<g id="edge5" class="edge">
<title>CompoundPacketQueueBase&#45;&gt;DSQueue1</title>
<path fill="none" stroke="black" d="M718.45,-58.18C627.35,-51.47 472.81,-38.41 341,-19 338.14,-18.58 335.18,-18.1 332.22,-17.58"/>
</g>
<!-- DSQueue2 -->
<g id="node7" class="node">
<title>DSQueue2</title>
<g id="a_node7"><a xlink:href="inet.examples.diffserv.onedomain.DSQueue2.html" xlink:title="Compound Module DSQueue2" target="_parent">
<polygon fill="#fffcaf" stroke="black" points="418,-19 350,-19 350,0 418,0 418,-19"/>
<text text-anchor="middle" x="384" y="-7" font-family="Helvetica,sans-Serif" font-size="10.00">DSQueue2</text>
</a>
</g>
</g>
<!-- CompoundPacketQueueBase&#45;&gt;DSQueue2 -->
<g id="edge6" class="edge">
<title>CompoundPacketQueueBase&#45;&gt;DSQueue2</title>
<path fill="none" stroke="black" d="M718.45,-55.79C643.38,-48.01 527.16,-34.9 427,-19 424.14,-18.55 421.19,-18.04 418.23,-17.51"/>
</g>
<!-- EthernetQosQueue -->
<g id="node8" class="node">
<title>EthernetQosQueue</title>
<g id="a_node8"><a xlink:href="inet.linklayer.ethernet.common.EthernetQosQueue.html" xlink:title="Compound Module EthernetQosQueue" target="_parent">
<polygon fill="#fffcaf" stroke="black" points="544,-19 436,-19 436,0 544,0 544,-19"/>
<text text-anchor="middle" x="490" y="-7" font-family="Helvetica,sans-Serif" font-size="10.00">EthernetQosQueue</text>
</a>
</g>
</g>
<!-- CompoundPacketQueueBase&#45;&gt;EthernetQosQueue -->
<g id="edge7" class="edge">
<title>CompoundPacketQueueBase&#45;&gt;EthernetQosQueue</title>
<path fill="none" stroke="black" d="M747.68,-54.98C690.47,-45.11 596.72,-28.92 539.46,-19.04"/>
</g>
<!-- EthernetQosRedQueue -->
<g id="node9" class="node">
<title>EthernetQosRedQueue</title>
<g id="a_node9"><a xlink:href="inet.linklayer.ethernet.common.EthernetQosRedQueue.html" xlink:title="Compound Module EthernetQosRedQueue" target="_parent">
<polygon fill="#fffcaf" stroke="black" points="689.5,-19 562.5,-19 562.5,0 689.5,0 689.5,-19"/>
<text text-anchor="middle" x="626" y="-7" font-family="Helvetica,sans-Serif" font-size="10.00">EthernetQosRedQueue</text>
</a>
</g>
</g>
<!-- CompoundPacketQueueBase&#45;&gt;EthernetQosRedQueue -->
<g id="edge8" class="edge">
<title>CompoundPacketQueueBase&#45;&gt;EthernetQosRedQueue</title>
<path fill="none" stroke="black" d="M769.53,-54.98C737.71,-45.12 685.6,-28.97 653.69,-19.08"/>
</g>
<!-- ExampleCompoundPriorityQueue -->
<g id="node10" class="node">
<title>ExampleCompoundPriorityQueue</title>
<g id="a_node10"><a xlink:href="inet.tutorials.queueing.ExampleCompoundPriorityQueue.html" xlink:title="Compound Module ExampleCompoundPriorityQueue" target="_parent">
<polygon fill="#fffcaf" stroke="black" points="886.5,-19 707.5,-19 707.5,0 886.5,0 886.5,-19"/>
<text text-anchor="middle" x="797" y="-7" font-family="Helvetica,sans-Serif" font-size="10.00">ExampleCompoundPriorityQueue</text>
</a>
</g>
</g>
<!-- CompoundPacketQueueBase&#45;&gt;ExampleCompoundPriorityQueue -->
<g id="edge9" class="edge">
<title>CompoundPacketQueueBase&#45;&gt;ExampleCompoundPriorityQueue</title>
<path fill="none" stroke="black" d="M797,-54.75C797,-44.87 797,-28.9 797,-19.09"/>
</g>
<!-- GatingPriorityQueue -->
<g id="node11" class="node">
<title>GatingPriorityQueue</title>
<g id="a_node11"><a xlink:href="inet.queueing.queue.GatingPriorityQueue.html" xlink:title="Compound Module GatingPriorityQueue" target="_parent">
<polygon fill="#fffcaf" stroke="black" points="1021,-19 905,-19 905,0 1021,0 1021,-19"/>
<text text-anchor="middle" x="963" y="-7" font-family="Helvetica,sans-Serif" font-size="10.00">GatingPriorityQueue</text>
</a>
</g>
</g>
<!-- CompoundPacketQueueBase&#45;&gt;GatingPriorityQueue -->
<g id="edge10" class="edge">
<title>CompoundPacketQueueBase&#45;&gt;GatingPriorityQueue</title>
<path fill="none" stroke="black" d="M823.67,-54.98C854.56,-45.12 905.15,-28.97 936.12,-19.08"/>
</g>
<!-- Ieee8021qTimeAwareShaper -->
<g id="node12" class="node">
<title>Ieee8021qTimeAwareShaper</title>
<g id="a_node12"><a xlink:href="inet.linklayer.ieee8021q.Ieee8021qTimeAwareShaper.html" xlink:title="Compound Module Ieee8021qTimeAwareShaper" target="_parent">
<polygon fill="#fffcaf" stroke="black" points="1195,-19 1039,-19 1039,0 1195,0 1195,-19"/>
<text text-anchor="middle" x="1117" y="-7" font-family="Helvetica,sans-Serif" font-size="10.00">Ieee8021qTimeAwareShaper</text>
</a>
</g>
</g>
<!-- CompoundPacketQueueBase&#45;&gt;Ieee8021qTimeAwareShaper -->
<g id="edge11" class="edge">
<title>CompoundPacketQueueBase&#45;&gt;Ieee8021qTimeAwareShaper</title>
<path fill="none" stroke="black" d="M848.41,-54.98C908.04,-45.11 1005.76,-28.92 1065.45,-19.04"/>
</g>
<!-- PriorityQueue -->
<g id="node13" class="node">
<title>PriorityQueue</title>
<g id="a_node13"><a xlink:href="inet.queueing.queue.PriorityQueue.html" xlink:title="Compound Module PriorityQueue" target="_parent">
<polygon fill="#fffcaf" stroke="black" points="1296.5,-19 1213.5,-19 1213.5,0 1296.5,0 1296.5,-19"/>
<text text-anchor="middle" x="1255" y="-7" font-family="Helvetica,sans-Serif" font-size="10.00">PriorityQueue</text>
</a>
</g>
</g>
<!-- CompoundPacketQueueBase&#45;&gt;PriorityQueue -->
<g id="edge12" class="edge">
<title>CompoundPacketQueueBase&#45;&gt;PriorityQueue</title>
<path fill="none" stroke="black" d="M875.57,-56.23C957.65,-48.33 1090.1,-34.71 1204,-19 1207.02,-18.58 1210.14,-18.13 1213.28,-17.65"/>
</g>
<!-- PriorityShaper -->
<g id="node14" class="node">
<title>PriorityShaper</title>
<g id="a_node14"><a xlink:href="inet.queueing.shaper.PriorityShaper.html" xlink:title="Compound Module PriorityShaper" target="_parent">
<polygon fill="#fffcaf" stroke="black" points="1401,-19 1315,-19 1315,0 1401,0 1401,-19"/>
<text text-anchor="middle" x="1358" y="-7" font-family="Helvetica,sans-Serif" font-size="10.00">PriorityShaper</text>
</a>
</g>
</g>
<!-- CompoundPacketQueueBase&#45;&gt;PriorityShaper -->
<g id="edge13" class="edge">
<title>CompoundPacketQueueBase&#45;&gt;PriorityShaper</title>
<path fill="none" stroke="black" d="M875.67,-58.46C975.85,-51.61 1154.17,-38.02 1306,-19 1308.9,-18.64 1311.9,-18.23 1314.91,-17.8"/>
</g>
<!-- RedDropperQueue -->
<g id="node15" class="node">
<title>RedDropperQueue</title>
<g id="a_node15"><a xlink:href="inet.queueing.queue.RedDropperQueue.html" xlink:title="Compound Module RedDropperQueue" target="_parent">
<polygon fill="#fffcaf" stroke="black" points="1525,-19 1419,-19 1419,0 1525,0 1525,-19"/>
<text text-anchor="middle" x="1472" y="-7" font-family="Helvetica,sans-Serif" font-size="10.00">RedDropperQueue</text>
</a>
</g>
</g>
<!-- CompoundPacketQueueBase&#45;&gt;RedDropperQueue -->
<g id="edge14" class="edge">
<title>CompoundPacketQueueBase&#45;&gt;RedDropperQueue</title>
<path fill="none" stroke="black" d="M875.52,-59.41C992.27,-52.96 1218.45,-39.06 1410,-19 1412.92,-18.69 1415.91,-18.36 1418.93,-18"/>
</g>
<!-- REDQueue -->
<g id="node16" class="node">
<title>REDQueue</title>
<g id="a_node16"><a xlink:href="inet.examples.inet.netperfmeter.REDQueue.html" xlink:title="Compound Module REDQueue" target="_parent">
<polygon fill="#fffcaf" stroke="black" points="1611,-19 1543,-19 1543,0 1611,0 1611,-19"/>
<text text-anchor="middle" x="1577" y="-7" font-family="Helvetica,sans-Serif" font-size="10.00">REDQueue</text>
</a>
</g>
</g>
<!-- CompoundPacketQueueBase&#45;&gt;REDQueue -->
<g id="edge15" class="edge">
<title>CompoundPacketQueueBase&#45;&gt;REDQueue</title>
<path fill="none" stroke="black" d="M875.59,-62.23C1010.69,-59.27 1295.45,-49.64 1534,-19 1536.87,-18.63 1539.83,-18.19 1542.8,-17.69"/>
</g>
<!-- PacketQueueBase -->
<g id="node2" class="node">
<title>PacketQueueBase</title>
<g id="a_node2"><a xlink:href="inet.queueing.base.PacketQueueBase.html" xlink:title="Simple Module PacketQueueBase" target="_parent">
<polygon fill="#fffcaf" stroke="black" points="793,-129 689,-129 689,-110 793,-110 793,-129"/>
<text text-anchor="middle" x="741" y="-117" font-family="Helvetica,sans-Serif" font-size="10.00">PacketQueueBase</text>
</a>
</g>
</g>
<!-- PacketQueueBase&#45;&gt;CompoundPacketQueueBase -->
<g id="edge1" class="edge">
<title>PacketQueueBase&#45;&gt;CompoundPacketQueueBase</title>
<path fill="none" stroke="black" d="M750,-109.98C760.39,-100.15 777.38,-84.07 787.84,-74.17"/>
</g>
<!-- IPacketQueue -->
<g id="node3" class="node">
<title>IPacketQueue</title>
<g id="a_node3"><a xlink:href="inet.queueing.contract.IPacketQueue.html" xlink:title="Module Interface IPacketQueue" target="_parent">
<polygon fill="#fffcaf" stroke="black" stroke-dasharray="5,2" points="894.5,-129 811.5,-129 811.5,-110 894.5,-110 894.5,-129"/>
<text text-anchor="middle" x="853" y="-117" font-family="Helvetica,sans-Serif" font-size="10.00">IPacketQueue</text>
</a>
</g>
</g>
<!-- IPacketQueue&#45;&gt;CompoundPacketQueueBase -->
<g id="edge2" class="edge">
<title>IPacketQueue&#45;&gt;CompoundPacketQueueBase</title>
<path fill="none" stroke="black" stroke-dasharray="5,2" d="M844,-109.98C833.61,-100.15 816.62,-84.07 806.16,-74.17"/>
</g>
</g>
</svg>
