<?xml version="1.0" encoding="UTF-8" standalone="no"?>
<!DOCTYPE svg PUBLIC "-//W3C//DTD SVG 1.1//EN"
 "http://www.w3.org/Graphics/SVG/1.1/DTD/svg11.dtd">
<!-- Generated by graphviz version 2.43.0 (0)
 -->
<!-- Title: opp Pages: 1 -->
<svg width="511pt" height="82pt"
 viewBox="0.00 0.00 511.00 82.00" xmlns="http://www.w3.org/2000/svg" xmlns:xlink="http://www.w3.org/1999/xlink">
<g id="graph0" class="graph" transform="scale(1 1) rotate(0) translate(4 78)">
<title>opp</title>
<polygon fill="transparent" stroke="transparent" points="-4,4 -4,-78 507,-78 507,4 -4,4"/>
<!-- Tunnel -->
<g id="node1" class="node">
<title>Tunnel</title>
<g id="a_node1"><a xlink:href="inet.examples.inet.tunnel.Tunnel.html" xlink:title="Network Tunnel" target="_parent">
<polygon fill="#9090ff" stroke="black" points="270.5,-74 216.5,-74 216.5,-55 270.5,-55 270.5,-74"/>
<text text-anchor="middle" x="243.5" y="-62" font-family="Helvetica,sans-Serif" font-size="10.00">Tunnel</text>
</a>
</g>
</g>
<!-- StandardHost -->
<g id="node2" class="node">
<title>StandardHost</title>
<g id="a_node2"><a xlink:href="inet.node.inet.StandardHost.html" xlink:title="Compound Module StandardHost" target="_parent">
<polygon fill="#fffcaf" stroke="black" points="83,-19 0,-19 0,0 83,0 83,-19"/>
<text text-anchor="middle" x="41.5" y="-7" font-family="Helvetica,sans-Serif" font-size="10.00">StandardHost</text>
</a>
</g>
</g>
<!-- Tunnel&#45;&gt;StandardHost -->
<g id="edge1" class="edge">
<title>Tunnel&#45;&gt;StandardHost</title>
<path fill="none" stroke="black" d="M216.26,-56.35C182.21,-47.42 123.56,-32.03 83.68,-21.57"/>
<polygon fill="black" stroke="black" points="84.54,-18.17 73.98,-19.02 82.76,-24.94 84.54,-18.17"/>
</g>
<!-- Router -->
<g id="node3" class="node">
<title>Router</title>
<g id="a_node3"><a xlink:href="inet.node.inet.Router.html" xlink:title="Compound Module Router" target="_parent">
<polygon fill="#fffcaf" stroke="black" points="155.5,-19 101.5,-19 101.5,0 155.5,0 155.5,-19"/>
<text text-anchor="middle" x="128.5" y="-7" font-family="Helvetica,sans-Serif" font-size="10.00">Router</text>
</a>
</g>
</g>
<!-- Tunnel&#45;&gt;Router -->
<g id="edge2" class="edge">
<title>Tunnel&#45;&gt;Router</title>
<path fill="none" stroke="black" d="M225.02,-54.98C206.52,-46.46 177.82,-33.23 156.52,-23.41"/>
<polygon fill="black" stroke="black" points="157.86,-20.18 147.31,-19.17 154.93,-26.53 157.86,-20.18"/>
</g>
<!-- Ipv4NetworkConfigurator -->
<g id="node4" class="node">
<title>Ipv4NetworkConfigurator</title>
<g id="a_node4"><a xlink:href="inet.networklayer.configurator.ipv4.Ipv4NetworkConfigurator.html" xlink:title="Simple Module Ipv4NetworkConfigurator" target="_parent">
<polygon fill="#fffcaf" stroke="black" points="313.5,-19 173.5,-19 173.5,0 313.5,0 313.5,-19"/>
<text text-anchor="middle" x="243.5" y="-7" font-family="Helvetica,sans-Serif" font-size="10.00">Ipv4NetworkConfigurator</text>
</a>
</g>
</g>
<!-- Tunnel&#45;&gt;Ipv4NetworkConfigurator -->
<g id="edge3" class="edge">
<title>Tunnel&#45;&gt;Ipv4NetworkConfigurator</title>
<path fill="none" stroke="black" d="M243.5,-54.75C243.5,-47.8 243.5,-37.85 243.5,-29.13"/>
<polygon fill="black" stroke="black" points="247,-29.09 243.5,-19.09 240,-29.09 247,-29.09"/>
</g>
<!-- Eth1G -->
<g id="node5" class="node">
<title>Eth1G</title>
<g id="a_node5"><a xlink:href="inet.node.ethernet.Eth1G.html" xlink:title="Channel Eth1G" target="_parent">
<polygon fill="#d0ffd0" stroke="black" points="385.5,-19 331.5,-19 331.5,0 385.5,0 385.5,-19"/>
<text text-anchor="middle" x="358.5" y="-7" font-family="Helvetica,sans-Serif" font-size="10.00">Eth1G</text>
</a>
</g>
</g>
<!-- Tunnel&#45;&gt;Eth1G -->
<g id="edge4" class="edge">
<title>Tunnel&#45;&gt;Eth1G</title>
<path fill="none" stroke="black" d="M261.98,-54.98C280.48,-46.46 309.18,-33.23 330.48,-23.41"/>
<polygon fill="black" stroke="black" points="332.07,-26.53 339.69,-19.17 329.14,-20.18 332.07,-26.53"/>
</g>
<!-- DatarateChannel -->
<g id="node6" class="node">
<title>DatarateChannel</title>
<g id="a_node6"><a xlink:href="ned.DatarateChannel.html" xlink:title="Channel DatarateChannel" target="_parent">
<polygon fill="#d0ffd0" stroke="black" points="503,-19 404,-19 404,0 503,0 503,-19"/>
<text text-anchor="middle" x="453.5" y="-7" font-family="Helvetica,sans-Serif" font-size="10.00">DatarateChannel</text>
</a>
</g>
</g>
<!-- Tunnel&#45;&gt;DatarateChannel -->
<g id="edge5" class="edge">
<title>Tunnel&#45;&gt;DatarateChannel</title>
<path fill="none" stroke="black" d="M270.52,-56.68C305.73,-47.79 367.72,-32.15 409.69,-21.56"/>
<polygon fill="black" stroke="black" points="410.8,-24.89 419.64,-19.05 409.08,-18.1 410.8,-24.89"/>
</g>
</g>
</svg>
