<?xml version="1.0" encoding="UTF-8" standalone="no"?>
<!DOCTYPE svg PUBLIC "-//W3C//DTD SVG 1.1//EN"
 "http://www.w3.org/Graphics/SVG/1.1/DTD/svg11.dtd">
<!-- Generated by graphviz version 2.43.0 (0)
 -->
<!-- Title: opp Pages: 1 -->
<svg width="431pt" height="82pt"
 viewBox="0.00 0.00 431.00 82.00" xmlns="http://www.w3.org/2000/svg" xmlns:xlink="http://www.w3.org/1999/xlink">
<g id="graph0" class="graph" transform="scale(1 1) rotate(0) translate(4 78)">
<title>opp</title>
<polygon fill="transparent" stroke="transparent" points="-4,4 -4,-78 427,-78 427,4 -4,4"/>
<!-- ClientApp -->
<g id="node1" class="node">
<title>ClientApp</title>
<g id="a_node1"><a xlink:href="inet.tutorials.protocol.ClientApp.html" xlink:title="Compound Module ClientApp" target="_parent">
<polygon fill="#fff700" stroke="black" points="249.5,-74 185.5,-74 185.5,-55 249.5,-55 249.5,-74"/>
<text text-anchor="middle" x="217.5" y="-62" font-family="Helvetica,sans-Serif" font-size="10.00">ClientApp</text>
</a>
</g>
</g>
<!-- SendToL3Address -->
<g id="node2" class="node">
<title>SendToL3Address</title>
<g id="a_node2"><a xlink:href="inet.protocolelement.selectivity.SendToL3Address.html" xlink:title="Simple Module SendToL3Address" target="_parent">
<polygon fill="#fffcaf" stroke="black" points="101,-19 0,-19 0,0 101,0 101,-19"/>
<text text-anchor="middle" x="50.5" y="-7" font-family="Helvetica,sans-Serif" font-size="10.00">SendToL3Address</text>
</a>
</g>
</g>
<!-- ClientApp&#45;&gt;SendToL3Address -->
<g id="edge1" class="edge">
<title>ClientApp&#45;&gt;SendToL3Address</title>
<path fill="none" stroke="black" d="M190.67,-54.98C162.63,-46.09 118.45,-32.07 87.2,-22.15"/>
<polygon fill="black" stroke="black" points="88.13,-18.77 77.54,-19.08 86.01,-25.44 88.13,-18.77"/>
</g>
<!-- IdealChannel -->
<g id="node3" class="node">
<title>IdealChannel</title>
<g id="a_node3"><a xlink:href="ned.IdealChannel.html" xlink:title="Channel IdealChannel" target="_parent">
<polygon fill="#d0ffd0" stroke="black" points="199.5,-19 119.5,-19 119.5,0 199.5,0 199.5,-19"/>
<text text-anchor="middle" x="159.5" y="-7" font-family="Helvetica,sans-Serif" font-size="10.00">IdealChannel</text>
</a>
</g>
</g>
<!-- ClientApp&#45;&gt;IdealChannel -->
<g id="edge2" class="edge">
<title>ClientApp&#45;&gt;IdealChannel</title>
<path fill="none" stroke="black" d="M208.18,-54.98C199.69,-47.23 186.94,-35.58 176.62,-26.14"/>
<polygon fill="black" stroke="black" points="178.73,-23.33 168.99,-19.17 174.01,-28.5 178.73,-23.33"/>
</g>
<!-- IActivePacketSource -->
<g id="node4" class="node">
<title>IActivePacketSource</title>
<g id="a_node4"><a xlink:href="inet.queueing.contract.IActivePacketSource.html" xlink:title="Module Interface IActivePacketSource" target="_parent">
<polygon fill="#fffcaf" stroke="black" stroke-dasharray="5,2" points="333.5,-19 217.5,-19 217.5,0 333.5,0 333.5,-19"/>
<text text-anchor="middle" x="275.5" y="-7" font-family="Helvetica,sans-Serif" font-size="10.00">IActivePacketSource</text>
</a>
</g>
</g>
<!-- ClientApp&#45;&gt;IActivePacketSource -->
<g id="edge3" class="edge">
<title>ClientApp&#45;&gt;IActivePacketSource</title>
<path fill="none" stroke="black" d="M226.82,-54.98C235.31,-47.23 248.06,-35.58 258.38,-26.14"/>
<polygon fill="black" stroke="black" points="260.99,-28.5 266.01,-19.17 256.27,-23.33 260.99,-28.5"/>
</g>
<!-- SendToPort -->
<g id="node5" class="node">
<title>SendToPort</title>
<g id="a_node5"><a xlink:href="inet.protocolelement.selectivity.SendToPort.html" xlink:title="Simple Module SendToPort" target="_parent">
<polygon fill="#fffcaf" stroke="black" points="423,-19 352,-19 352,0 423,0 423,-19"/>
<text text-anchor="middle" x="387.5" y="-7" font-family="Helvetica,sans-Serif" font-size="10.00">SendToPort</text>
</a>
</g>
</g>
<!-- ClientApp&#45;&gt;SendToPort -->
<g id="edge4" class="edge">
<title>ClientApp&#45;&gt;SendToPort</title>
<path fill="none" stroke="black" d="M244.81,-54.98C273.35,-46.09 318.33,-32.07 350.14,-22.15"/>
<polygon fill="black" stroke="black" points="351.47,-25.4 359.97,-19.08 349.38,-18.72 351.47,-25.4"/>
</g>
</g>
</svg>
