<?xml version="1.0" encoding="UTF-8" standalone="no"?>
<!DOCTYPE svg PUBLIC "-//W3C//DTD SVG 1.1//EN"
 "http://www.w3.org/Graphics/SVG/1.1/DTD/svg11.dtd">
<!-- Generated by graphviz version 2.43.0 (0)
 -->
<!-- Title: opp Pages: 1 -->
<svg width="238pt" height="82pt"
 viewBox="0.00 0.00 237.50 82.00" xmlns="http://www.w3.org/2000/svg" xmlns:xlink="http://www.w3.org/1999/xlink">
<g id="graph0" class="graph" transform="scale(1 1) rotate(0) translate(4 78)">
<title>opp</title>
<polygon fill="transparent" stroke="transparent" points="-4,4 -4,-78 233.5,-78 233.5,4 -4,4"/>
<!-- OscillatorBase -->
<g id="node1" class="node">
<title>OscillatorBase</title>
<g id="a_node1"><a xlink:href="inet.clock.base.OscillatorBase.html" xlink:title="Simple Module OscillatorBase" target="_parent">
<polygon fill="#fff700" stroke="black" points="167.5,-74 80.5,-74 80.5,-55 167.5,-55 167.5,-74"/>
<text text-anchor="middle" x="124" y="-62" font-family="Helvetica,sans-Serif" font-size="10.00">OscillatorBase</text>
</a>
</g>
</g>
<!-- DriftingOscillatorBase -->
<g id="node2" class="node">
<title>DriftingOscillatorBase</title>
<g id="a_node2"><a xlink:href="inet.clock.base.DriftingOscillatorBase.html" xlink:title="Simple Module DriftingOscillatorBase" target="_parent">
<polygon fill="#fffcaf" stroke="black" points="124,-19 0,-19 0,0 124,0 124,-19"/>
<text text-anchor="middle" x="62" y="-7" font-family="Helvetica,sans-Serif" font-size="10.00">DriftingOscillatorBase</text>
</a>
</g>
</g>
<!-- OscillatorBase&#45;&gt;DriftingOscillatorBase -->
<g id="edge1" class="edge">
<title>OscillatorBase&#45;&gt;DriftingOscillatorBase</title>
<path fill="none" stroke="black" d="M114.04,-54.98C102.54,-45.15 83.72,-29.07 72.14,-19.17"/>
</g>
<!-- IdealOscillator -->
<g id="node3" class="node">
<title>IdealOscillator</title>
<g id="a_node3"><a xlink:href="inet.clock.oscillator.IdealOscillator.html" xlink:title="Simple Module IdealOscillator" target="_parent">
<polygon fill="#fffcaf" stroke="black" points="229.5,-19 142.5,-19 142.5,0 229.5,0 229.5,-19"/>
<text text-anchor="middle" x="186" y="-7" font-family="Helvetica,sans-Serif" font-size="10.00">IdealOscillator</text>
</a>
</g>
</g>
<!-- OscillatorBase&#45;&gt;IdealOscillator -->
<g id="edge2" class="edge">
<title>OscillatorBase&#45;&gt;IdealOscillator</title>
<path fill="none" stroke="black" d="M133.96,-54.98C145.46,-45.15 164.28,-29.07 175.86,-19.17"/>
</g>
</g>
</svg>
