<?xml version="1.0" encoding="UTF-8" standalone="no"?>
<!DOCTYPE svg PUBLIC "-//W3C//DTD SVG 1.1//EN"
 "http://www.w3.org/Graphics/SVG/1.1/DTD/svg11.dtd">
<!-- Generated by graphviz version 2.43.0 (0)
 -->
<!-- Title: opp Pages: 1 -->
<svg width="449pt" height="137pt"
 viewBox="0.00 0.00 448.50 137.00" xmlns="http://www.w3.org/2000/svg" xmlns:xlink="http://www.w3.org/1999/xlink">
<g id="graph0" class="graph" transform="scale(1 1) rotate(0) translate(4 133)">
<title>opp</title>
<polygon fill="transparent" stroke="transparent" points="-4,4 -4,-133 444.5,-133 444.5,4 -4,4"/>
<!-- ServerHost5 -->
<g id="node1" class="node">
<title>ServerHost5</title>
<g id="a_node1"><a xlink:href="inet.tutorials.protocol.ServerHost5.html" xlink:title="Compound Module ServerHost5" target="_parent">
<polygon fill="#fff700" stroke="black" points="241.5,-74 164.5,-74 164.5,-55 241.5,-55 241.5,-74"/>
<text text-anchor="middle" x="203" y="-62" font-family="Helvetica,sans-Serif" font-size="10.00">ServerHost5</text>
</a>
</g>
</g>
<!-- IdealChannel -->
<g id="node2" class="node">
<title>IdealChannel</title>
<g id="a_node2"><a xlink:href="ned.IdealChannel.html" xlink:title="Channel IdealChannel" target="_parent">
<polygon fill="#d0ffd0" stroke="black" points="80,-19 0,-19 0,0 80,0 80,-19"/>
<text text-anchor="middle" x="40" y="-7" font-family="Helvetica,sans-Serif" font-size="10.00">IdealChannel</text>
</a>
</g>
</g>
<!-- ServerHost5&#45;&gt;IdealChannel -->
<g id="edge1" class="edge">
<title>ServerHost5&#45;&gt;IdealChannel</title>
<path fill="none" stroke="black" d="M176.81,-54.98C149.56,-46.13 106.7,-32.19 76.22,-22.28"/>
<polygon fill="black" stroke="black" points="76.99,-18.85 66.39,-19.08 74.82,-25.5 76.99,-18.85"/>
</g>
<!-- PacketReceiver -->
<g id="node3" class="node">
<title>PacketReceiver</title>
<g id="a_node3"><a xlink:href="inet.protocolelement.transceiver.PacketReceiver.html" xlink:title="Simple Module PacketReceiver" target="_parent">
<polygon fill="#fffcaf" stroke="black" points="190,-19 98,-19 98,0 190,0 190,-19"/>
<text text-anchor="middle" x="144" y="-7" font-family="Helvetica,sans-Serif" font-size="10.00">PacketReceiver</text>
</a>
</g>
</g>
<!-- ServerHost5&#45;&gt;PacketReceiver -->
<g id="edge2" class="edge">
<title>ServerHost5&#45;&gt;PacketReceiver</title>
<path fill="none" stroke="black" d="M193.52,-54.98C184.8,-47.15 171.66,-35.34 161.1,-25.86"/>
<polygon fill="black" stroke="black" points="163.43,-23.25 153.65,-19.17 158.75,-28.46 163.43,-23.25"/>
</g>
<!-- PassivePacketSink -->
<g id="node4" class="node">
<title>PassivePacketSink</title>
<g id="a_node4"><a xlink:href="inet.queueing.sink.PassivePacketSink.html" xlink:title="Simple Module PassivePacketSink" target="_parent">
<polygon fill="#fffcaf" stroke="black" points="315.5,-19 208.5,-19 208.5,0 315.5,0 315.5,-19"/>
<text text-anchor="middle" x="262" y="-7" font-family="Helvetica,sans-Serif" font-size="10.00">PassivePacketSink</text>
</a>
</g>
</g>
<!-- ServerHost5&#45;&gt;PassivePacketSink -->
<g id="edge3" class="edge">
<title>ServerHost5&#45;&gt;PassivePacketSink</title>
<path fill="none" stroke="black" d="M212.48,-54.98C221.2,-47.15 234.34,-35.34 244.9,-25.86"/>
<polygon fill="black" stroke="black" points="247.25,-28.46 252.35,-19.17 242.57,-23.25 247.25,-28.46"/>
</g>
<!-- FcsHeaderChecker -->
<g id="node5" class="node">
<title>FcsHeaderChecker</title>
<g id="a_node5"><a xlink:href="inet.protocolelement.checksum.FcsHeaderChecker.html" xlink:title="Simple Module FcsHeaderChecker" target="_parent">
<polygon fill="#fffcaf" stroke="black" points="440.5,-19 333.5,-19 333.5,0 440.5,0 440.5,-19"/>
<text text-anchor="middle" x="387" y="-7" font-family="Helvetica,sans-Serif" font-size="10.00">FcsHeaderChecker</text>
</a>
</g>
</g>
<!-- ServerHost5&#45;&gt;FcsHeaderChecker -->
<g id="edge4" class="edge">
<title>ServerHost5&#45;&gt;FcsHeaderChecker</title>
<path fill="none" stroke="black" d="M232.56,-54.98C263.72,-46.01 312.97,-31.82 347.46,-21.89"/>
<polygon fill="black" stroke="black" points="348.57,-25.21 357.21,-19.08 346.63,-18.49 348.57,-25.21"/>
</g>
<!-- Network5 -->
<g id="node6" class="node">
<title>Network5</title>
<g id="a_node6"><a xlink:href="inet.tutorials.protocol.Network5.html" xlink:title="Network Network5" target="_parent">
<polygon fill="#d0d0ff" stroke="black" points="235,-129 171,-129 171,-110 235,-110 235,-129"/>
<text text-anchor="middle" x="203" y="-117" font-family="Helvetica,sans-Serif" font-size="10.00">Network5</text>
</a>
</g>
</g>
<!-- Network5&#45;&gt;ServerHost5 -->
<g id="edge5" class="edge">
<title>Network5&#45;&gt;ServerHost5</title>
<path fill="none" stroke="black" d="M203,-109.75C203,-102.8 203,-92.85 203,-84.13"/>
<polygon fill="black" stroke="black" points="206.5,-84.09 203,-74.09 199.5,-84.09 206.5,-84.09"/>
</g>
</g>
</svg>
