<?xml version="1.0" encoding="UTF-8" standalone="no"?>
<!DOCTYPE svg PUBLIC "-//W3C//DTD SVG 1.1//EN"
 "http://www.w3.org/Graphics/SVG/1.1/DTD/svg11.dtd">
<!-- Generated by graphviz version 2.43.0 (0)
 -->
<!-- Title: opp Pages: 1 -->
<svg width="382pt" height="137pt"
 viewBox="0.00 0.00 382.00 137.00" xmlns="http://www.w3.org/2000/svg" xmlns:xlink="http://www.w3.org/1999/xlink">
<g id="graph0" class="graph" transform="scale(1 1) rotate(0) translate(4 133)">
<title>opp</title>
<polygon fill="transparent" stroke="transparent" points="-4,4 -4,-133 378,-133 378,4 -4,4"/>
<!-- RtpHost -->
<g id="node1" class="node">
<title>RtpHost</title>
<g id="a_node1"><a xlink:href="inet.node.rtp.RtpHost.html" xlink:title="Compound Module RtpHost" target="_parent">
<polygon fill="#fff700" stroke="black" points="219,-74 163,-74 163,-55 219,-55 219,-74"/>
<text text-anchor="middle" x="191" y="-62" font-family="Helvetica,sans-Serif" font-size="10.00">RtpHost</text>
</a>
</g>
</g>
<!-- RtpApplication -->
<g id="node2" class="node">
<title>RtpApplication</title>
<g id="a_node2"><a xlink:href="inet.applications.rtpapp.RtpApplication.html" xlink:title="Simple Module RtpApplication" target="_parent">
<polygon fill="#fffcaf" stroke="black" points="104,-19 16,-19 16,0 104,0 104,-19"/>
<text text-anchor="middle" x="60" y="-7" font-family="Helvetica,sans-Serif" font-size="10.00">RtpApplication</text>
</a>
</g>
</g>
<!-- RtpHost&#45;&gt;RtpApplication -->
<g id="edge1" class="edge">
<title>RtpHost&#45;&gt;RtpApplication</title>
<path fill="none" stroke="black" d="M169.95,-54.98C148.59,-46.34 115.3,-32.87 90.94,-23.02"/>
<polygon fill="black" stroke="black" points="92.01,-19.68 81.43,-19.17 89.39,-26.17 92.01,-19.68"/>
</g>
<!-- Rtcp -->
<g id="node3" class="node">
<title>Rtcp</title>
<g id="a_node3"><a xlink:href="inet.transportlayer.rtp.Rtcp.html" xlink:title="Simple Module Rtcp" target="_parent">
<polygon fill="#fffcaf" stroke="black" points="176,-19 122,-19 122,0 176,0 176,-19"/>
<text text-anchor="middle" x="149" y="-7" font-family="Helvetica,sans-Serif" font-size="10.00">Rtcp</text>
</a>
</g>
</g>
<!-- RtpHost&#45;&gt;Rtcp -->
<g id="edge2" class="edge">
<title>RtpHost&#45;&gt;Rtcp</title>
<path fill="none" stroke="black" d="M184.06,-54.75C178.13,-47.26 169.43,-36.28 162.18,-27.13"/>
<polygon fill="black" stroke="black" points="164.76,-24.75 155.81,-19.09 159.27,-29.1 164.76,-24.75"/>
</g>
<!-- IdealChannel -->
<g id="node4" class="node">
<title>IdealChannel</title>
<g id="a_node4"><a xlink:href="ned.IdealChannel.html" xlink:title="Channel IdealChannel" target="_parent">
<polygon fill="#d0ffd0" stroke="black" points="274,-19 194,-19 194,0 274,0 274,-19"/>
<text text-anchor="middle" x="234" y="-7" font-family="Helvetica,sans-Serif" font-size="10.00">IdealChannel</text>
</a>
</g>
</g>
<!-- RtpHost&#45;&gt;IdealChannel -->
<g id="edge3" class="edge">
<title>RtpHost&#45;&gt;IdealChannel</title>
<path fill="none" stroke="black" d="M198.1,-54.75C204.17,-47.26 213.09,-36.28 220.51,-27.13"/>
<polygon fill="black" stroke="black" points="223.45,-29.06 227.03,-19.09 218.01,-24.65 223.45,-29.06"/>
</g>
<!-- Rtp -->
<g id="node5" class="node">
<title>Rtp</title>
<g id="a_node5"><a xlink:href="inet.transportlayer.rtp.Rtp.html" xlink:title="Simple Module Rtp" target="_parent">
<polygon fill="#fffcaf" stroke="black" points="346,-19 292,-19 292,0 346,0 346,-19"/>
<text text-anchor="middle" x="319" y="-7" font-family="Helvetica,sans-Serif" font-size="10.00">Rtp</text>
</a>
</g>
</g>
<!-- RtpHost&#45;&gt;Rtp -->
<g id="edge4" class="edge">
<title>RtpHost&#45;&gt;Rtp</title>
<path fill="none" stroke="black" d="M211.57,-54.98C232.43,-46.34 264.97,-32.87 288.77,-23.02"/>
<polygon fill="black" stroke="black" points="290.16,-26.23 298.06,-19.17 287.48,-19.76 290.16,-26.23"/>
</g>
<!-- RTPMulticast1 -->
<g id="node6" class="node">
<title>RTPMulticast1</title>
<g id="a_node6"><a xlink:href="inet.examples.rtp.multicast1.RTPMulticast1.html" xlink:title="Network RTPMulticast1" target="_parent">
<polygon fill="#d0d0ff" stroke="black" points="86,-129 0,-129 0,-110 86,-110 86,-129"/>
<text text-anchor="middle" x="43" y="-117" font-family="Helvetica,sans-Serif" font-size="10.00">RTPMulticast1</text>
</a>
</g>
</g>
<!-- RTPMulticast1&#45;&gt;RtpHost -->
<g id="edge5" class="edge">
<title>RTPMulticast1&#45;&gt;RtpHost</title>
<path fill="none" stroke="black" d="M66.78,-109.98C91.23,-101.23 129.53,-87.51 157.15,-77.62"/>
<polygon fill="black" stroke="black" points="158.55,-80.84 166.79,-74.17 156.19,-74.25 158.55,-80.84"/>
</g>
<!-- RTPNetwork -->
<g id="node7" class="node">
<title>RTPNetwork</title>
<g id="a_node7"><a xlink:href="inet.examples.rtp.unicast.RTPNetwork.html" xlink:title="Network RTPNetwork" target="_parent">
<polygon fill="#d0d0ff" stroke="black" points="181.5,-129 104.5,-129 104.5,-110 181.5,-110 181.5,-129"/>
<text text-anchor="middle" x="143" y="-117" font-family="Helvetica,sans-Serif" font-size="10.00">RTPNetwork</text>
</a>
</g>
</g>
<!-- RTPNetwork&#45;&gt;RtpHost -->
<g id="edge6" class="edge">
<title>RTPNetwork&#45;&gt;RtpHost</title>
<path fill="none" stroke="black" d="M150.93,-109.75C157.85,-102.11 168.07,-90.82 176.45,-81.56"/>
<polygon fill="black" stroke="black" points="179.1,-83.85 183.22,-74.09 173.91,-79.15 179.1,-83.85"/>
</g>
<!-- RTPUnicast1 -->
<g id="node8" class="node">
<title>RTPUnicast1</title>
<g id="a_node8"><a xlink:href="inet.examples.rtp.unicast1.RTPUnicast1.html" xlink:title="Network RTPUnicast1" target="_parent">
<polygon fill="#d0d0ff" stroke="black" points="278,-129 200,-129 200,-110 278,-110 278,-129"/>
<text text-anchor="middle" x="239" y="-117" font-family="Helvetica,sans-Serif" font-size="10.00">RTPUnicast1</text>
</a>
</g>
</g>
<!-- RTPUnicast1&#45;&gt;RtpHost -->
<g id="edge7" class="edge">
<title>RTPUnicast1&#45;&gt;RtpHost</title>
<path fill="none" stroke="black" d="M231.07,-109.75C224.15,-102.11 213.93,-90.82 205.55,-81.56"/>
<polygon fill="black" stroke="black" points="208.09,-79.15 198.78,-74.09 202.9,-83.85 208.09,-79.15"/>
</g>
<!-- RTPUnicast2 -->
<g id="node9" class="node">
<title>RTPUnicast2</title>
<g id="a_node9"><a xlink:href="inet.examples.rtp.unicast2.RTPUnicast2.html" xlink:title="Network RTPUnicast2" target="_parent">
<polygon fill="#d0d0ff" stroke="black" points="374,-129 296,-129 296,-110 374,-110 374,-129"/>
<text text-anchor="middle" x="335" y="-117" font-family="Helvetica,sans-Serif" font-size="10.00">RTPUnicast2</text>
</a>
</g>
</g>
<!-- RTPUnicast2&#45;&gt;RtpHost -->
<g id="edge8" class="edge">
<title>RTPUnicast2&#45;&gt;RtpHost</title>
<path fill="none" stroke="black" d="M311.86,-109.98C288.18,-101.27 251.13,-87.63 224.29,-77.75"/>
<polygon fill="black" stroke="black" points="225.15,-74.34 214.56,-74.17 222.73,-80.91 225.15,-74.34"/>
</g>
</g>
</svg>
