<?xml version="1.0" encoding="UTF-8" standalone="no"?>
<!DOCTYPE svg PUBLIC "-//W3C//DTD SVG 1.1//EN"
 "http://www.w3.org/Graphics/SVG/1.1/DTD/svg11.dtd">
<!-- Generated by graphviz version 2.43.0 (0)
 -->
<!-- Title: opp Pages: 1 -->
<svg width="542pt" height="137pt"
 viewBox="0.00 0.00 541.50 137.00" xmlns="http://www.w3.org/2000/svg" xmlns:xlink="http://www.w3.org/1999/xlink">
<g id="graph0" class="graph" transform="scale(1 1) rotate(0) translate(4 133)">
<title>opp</title>
<polygon fill="transparent" stroke="transparent" points="-4,4 -4,-133 537.5,-133 537.5,4 -4,4"/>
<!-- ClientHost3 -->
<g id="node1" class="node">
<title>ClientHost3</title>
<g id="a_node1"><a xlink:href="inet.tutorials.protocol.ClientHost3.html" xlink:title="Compound Module ClientHost3" target="_parent">
<polygon fill="#fff700" stroke="black" points="306.5,-74 232.5,-74 232.5,-55 306.5,-55 306.5,-74"/>
<text text-anchor="middle" x="269.5" y="-62" font-family="Helvetica,sans-Serif" font-size="10.00">ClientHost3</text>
</a>
</g>
</g>
<!-- ActivePacketSource -->
<g id="node2" class="node">
<title>ActivePacketSource</title>
<g id="a_node2"><a xlink:href="inet.queueing.source.ActivePacketSource.html" xlink:title="Simple Module ActivePacketSource" target="_parent">
<polygon fill="#fffcaf" stroke="black" points="113,-19 0,-19 0,0 113,0 113,-19"/>
<text text-anchor="middle" x="56.5" y="-7" font-family="Helvetica,sans-Serif" font-size="10.00">ActivePacketSource</text>
</a>
</g>
</g>
<!-- ClientHost3&#45;&gt;ActivePacketSource -->
<g id="edge1" class="edge">
<title>ClientHost3&#45;&gt;ActivePacketSource</title>
<path fill="none" stroke="black" d="M235.28,-54.98C198.74,-45.89 140.72,-31.46 100.74,-21.51"/>
<polygon fill="black" stroke="black" points="101.54,-18.1 90.99,-19.08 99.85,-24.89 101.54,-18.1"/>
</g>
<!-- IdealChannel -->
<g id="node3" class="node">
<title>IdealChannel</title>
<g id="a_node3"><a xlink:href="ned.IdealChannel.html" xlink:title="Channel IdealChannel" target="_parent">
<polygon fill="#d0ffd0" stroke="black" points="211.5,-19 131.5,-19 131.5,0 211.5,0 211.5,-19"/>
<text text-anchor="middle" x="171.5" y="-7" font-family="Helvetica,sans-Serif" font-size="10.00">IdealChannel</text>
</a>
</g>
</g>
<!-- ClientHost3&#45;&gt;IdealChannel -->
<g id="edge2" class="edge">
<title>ClientHost3&#45;&gt;IdealChannel</title>
<path fill="none" stroke="black" d="M253.75,-54.98C238.27,-46.61 214.41,-33.7 196.36,-23.95"/>
<polygon fill="black" stroke="black" points="197.99,-20.85 187.53,-19.17 194.66,-27.01 197.99,-20.85"/>
</g>
<!-- PacketQueue -->
<g id="node4" class="node">
<title>PacketQueue</title>
<g id="a_node4"><a xlink:href="inet.queueing.queue.PacketQueue.html" xlink:title="Simple Module PacketQueue" target="_parent">
<polygon fill="#fffcaf" stroke="black" points="309.5,-19 229.5,-19 229.5,0 309.5,0 309.5,-19"/>
<text text-anchor="middle" x="269.5" y="-7" font-family="Helvetica,sans-Serif" font-size="10.00">PacketQueue</text>
</a>
</g>
</g>
<!-- ClientHost3&#45;&gt;PacketQueue -->
<g id="edge3" class="edge">
<title>ClientHost3&#45;&gt;PacketQueue</title>
<path fill="none" stroke="black" d="M269.5,-54.75C269.5,-47.8 269.5,-37.85 269.5,-29.13"/>
<polygon fill="black" stroke="black" points="273,-29.09 269.5,-19.09 266,-29.09 273,-29.09"/>
</g>
<!-- PacketTransmitter -->
<g id="node5" class="node">
<title>PacketTransmitter</title>
<g id="a_node5"><a xlink:href="inet.protocolelement.transceiver.PacketTransmitter.html" xlink:title="Simple Module PacketTransmitter" target="_parent">
<polygon fill="#fffcaf" stroke="black" points="433,-19 328,-19 328,0 433,0 433,-19"/>
<text text-anchor="middle" x="380.5" y="-7" font-family="Helvetica,sans-Serif" font-size="10.00">PacketTransmitter</text>
</a>
</g>
</g>
<!-- ClientHost3&#45;&gt;PacketTransmitter -->
<g id="edge4" class="edge">
<title>ClientHost3&#45;&gt;PacketTransmitter</title>
<path fill="none" stroke="black" d="M287.33,-54.98C305.11,-46.5 332.65,-33.35 353.18,-23.54"/>
<polygon fill="black" stroke="black" points="354.83,-26.64 362.34,-19.17 351.81,-20.32 354.83,-26.64"/>
</g>
<!-- InstantServer -->
<g id="node6" class="node">
<title>InstantServer</title>
<g id="a_node6"><a xlink:href="inet.queueing.server.InstantServer.html" xlink:title="Simple Module InstantServer" target="_parent">
<polygon fill="#fffcaf" stroke="black" points="533.5,-19 451.5,-19 451.5,0 533.5,0 533.5,-19"/>
<text text-anchor="middle" x="492.5" y="-7" font-family="Helvetica,sans-Serif" font-size="10.00">InstantServer</text>
</a>
</g>
</g>
<!-- ClientHost3&#45;&gt;InstantServer -->
<g id="edge5" class="edge">
<title>ClientHost3&#45;&gt;InstantServer</title>
<path fill="none" stroke="black" d="M305.33,-54.98C343.66,-45.87 404.58,-31.4 446.45,-21.45"/>
<polygon fill="black" stroke="black" points="447.47,-24.8 456.39,-19.08 445.85,-17.99 447.47,-24.8"/>
</g>
<!-- Network3 -->
<g id="node7" class="node">
<title>Network3</title>
<g id="a_node7"><a xlink:href="inet.tutorials.protocol.Network3.html" xlink:title="Network Network3" target="_parent">
<polygon fill="#d0d0ff" stroke="black" points="301.5,-129 237.5,-129 237.5,-110 301.5,-110 301.5,-129"/>
<text text-anchor="middle" x="269.5" y="-117" font-family="Helvetica,sans-Serif" font-size="10.00">Network3</text>
</a>
</g>
</g>
<!-- Network3&#45;&gt;ClientHost3 -->
<g id="edge6" class="edge">
<title>Network3&#45;&gt;ClientHost3</title>
<path fill="none" stroke="black" d="M269.5,-109.75C269.5,-102.8 269.5,-92.85 269.5,-84.13"/>
<polygon fill="black" stroke="black" points="273,-84.09 269.5,-74.09 266,-84.09 273,-84.09"/>
</g>
</g>
</svg>
