<?xml version="1.0" encoding="UTF-8" standalone="no"?>
<!DOCTYPE svg PUBLIC "-//W3C//DTD SVG 1.1//EN"
 "http://www.w3.org/Graphics/SVG/1.1/DTD/svg11.dtd">
<!-- Generated by graphviz version 2.43.0 (0)
 -->
<!-- Title: opp Pages: 1 -->
<svg width="240pt" height="137pt"
 viewBox="0.00 0.00 239.50 137.00" xmlns="http://www.w3.org/2000/svg" xmlns:xlink="http://www.w3.org/1999/xlink">
<g id="graph0" class="graph" transform="scale(1 1) rotate(0) translate(4 133)">
<title>opp</title>
<polygon fill="transparent" stroke="transparent" points="-4,4 -4,-133 235.5,-133 235.5,4 -4,4"/>
<!-- NoiseSource -->
<g id="node1" class="node">
<title>NoiseSource</title>
<g id="a_node1"><a xlink:href="inet.physicallayer.wireless.noise.NoiseSource.html" xlink:title="Compound Module NoiseSource" target="_parent">
<polygon fill="#fff700" stroke="black" points="154,-74 77,-74 77,-55 154,-55 154,-74"/>
<text text-anchor="middle" x="115.5" y="-62" font-family="Helvetica,sans-Serif" font-size="10.00">NoiseSource</text>
</a>
</g>
</g>
<!-- IMobility -->
<g id="node2" class="node">
<title>IMobility</title>
<g id="a_node2"><a xlink:href="inet.mobility.contract.IMobility.html" xlink:title="Module Interface IMobility" target="_parent">
<polygon fill="#fffcaf" stroke="black" stroke-dasharray="5,2" points="59,-19 0,-19 0,0 59,0 59,-19"/>
<text text-anchor="middle" x="29.5" y="-7" font-family="Helvetica,sans-Serif" font-size="10.00">IMobility</text>
</a>
</g>
</g>
<!-- NoiseSource&#45;&gt;IMobility -->
<g id="edge1" class="edge">
<title>NoiseSource&#45;&gt;IMobility</title>
<path fill="none" stroke="black" d="M101.68,-54.98C88.35,-46.77 67.92,-34.18 52.19,-24.49"/>
<polygon fill="black" stroke="black" points="53.92,-21.44 43.57,-19.17 50.25,-27.4 53.92,-21.44"/>
</g>
<!-- ITransmitter -->
<g id="node3" class="node">
<title>ITransmitter</title>
<g id="a_node3"><a xlink:href="inet.physicallayer.wireless.common.contract.packetlevel.ITransmitter.html" xlink:title="Module Interface ITransmitter" target="_parent">
<polygon fill="#fffcaf" stroke="black" stroke-dasharray="5,2" points="153.5,-19 77.5,-19 77.5,0 153.5,0 153.5,-19"/>
<text text-anchor="middle" x="115.5" y="-7" font-family="Helvetica,sans-Serif" font-size="10.00">ITransmitter</text>
</a>
</g>
</g>
<!-- NoiseSource&#45;&gt;ITransmitter -->
<g id="edge2" class="edge">
<title>NoiseSource&#45;&gt;ITransmitter</title>
<path fill="none" stroke="black" d="M115.5,-54.75C115.5,-47.8 115.5,-37.85 115.5,-29.13"/>
<polygon fill="black" stroke="black" points="119,-29.09 115.5,-19.09 112,-29.09 119,-29.09"/>
</g>
<!-- IAntenna -->
<g id="node4" class="node">
<title>IAntenna</title>
<g id="a_node4"><a xlink:href="inet.physicallayer.wireless.common.contract.packetlevel.IAntenna.html" xlink:title="Module Interface IAntenna" target="_parent">
<polygon fill="#fffcaf" stroke="black" stroke-dasharray="5,2" points="231.5,-19 171.5,-19 171.5,0 231.5,0 231.5,-19"/>
<text text-anchor="middle" x="201.5" y="-7" font-family="Helvetica,sans-Serif" font-size="10.00">IAntenna</text>
</a>
</g>
</g>
<!-- NoiseSource&#45;&gt;IAntenna -->
<g id="edge3" class="edge">
<title>NoiseSource&#45;&gt;IAntenna</title>
<path fill="none" stroke="black" d="M129.32,-54.98C142.65,-46.77 163.08,-34.18 178.81,-24.49"/>
<polygon fill="black" stroke="black" points="180.75,-27.4 187.43,-19.17 177.08,-21.44 180.75,-27.4"/>
</g>
<!-- AnalogModelShowcaseNoiseNetwork -->
<g id="node5" class="node">
<title>AnalogModelShowcaseNoiseNetwork</title>
<g id="a_node5"><a xlink:href="inet.showcases.wireless.analogmodel.AnalogModelShowcaseNoiseNetwork.html" xlink:title="Network AnalogModelShowcaseNoiseNetwork" target="_parent">
<polygon fill="#d0d0ff" stroke="black" points="214.5,-129 16.5,-129 16.5,-110 214.5,-110 214.5,-129"/>
<text text-anchor="middle" x="115.5" y="-117" font-family="Helvetica,sans-Serif" font-size="10.00">AnalogModelShowcaseNoiseNetwork</text>
</a>
</g>
</g>
<!-- AnalogModelShowcaseNoiseNetwork&#45;&gt;NoiseSource -->
<g id="edge4" class="edge">
<title>AnalogModelShowcaseNoiseNetwork&#45;&gt;NoiseSource</title>
<path fill="none" stroke="black" d="M115.5,-109.75C115.5,-102.8 115.5,-92.85 115.5,-84.13"/>
<polygon fill="black" stroke="black" points="119,-84.09 115.5,-74.09 112,-84.09 119,-84.09"/>
</g>
</g>
</svg>
