<?xml version="1.0" encoding="UTF-8" standalone="no"?>
<!DOCTYPE svg PUBLIC "-//W3C//DTD SVG 1.1//EN"
 "http://www.w3.org/Graphics/SVG/1.1/DTD/svg11.dtd">
<!-- Generated by graphviz version 2.43.0 (0)
 -->
<!-- Title: opp Pages: 1 -->
<svg width="2356pt" height="137pt"
 viewBox="0.00 0.00 2356.00 137.00" xmlns="http://www.w3.org/2000/svg" xmlns:xlink="http://www.w3.org/1999/xlink">
<g id="graph0" class="graph" transform="scale(1 1) rotate(0) translate(4 133)">
<title>opp</title>
<polygon fill="transparent" stroke="transparent" points="-4,4 -4,-133 2352,-133 2352,4 -4,4"/>
<!-- TsnNetworkBase -->
<g id="node1" class="node">
<title>TsnNetworkBase</title>
<g id="a_node1"><a xlink:href="inet.networks.base.TsnNetworkBase.html" xlink:title="Network TsnNetworkBase" target="_parent">
<polygon fill="#9090ff" stroke="black" points="1229,-74 1131,-74 1131,-55 1229,-55 1229,-74"/>
<text text-anchor="middle" x="1180" y="-62" font-family="Helvetica,sans-Serif" font-size="10.00">TsnNetworkBase</text>
</a>
</g>
</g>
<!-- AutomaticFailureProtectionShowcase -->
<g id="node3" class="node">
<title>AutomaticFailureProtectionShowcase</title>
<g id="a_node3"><a xlink:href="inet.showcases.tsn.framereplication.automaticfailureprotection.AutomaticFailureProtectionShowcase.html" xlink:title="Network AutomaticFailureProtectionShowcase" target="_parent">
<polygon fill="#d0d0ff" stroke="black" points="198,-19 0,-19 0,0 198,0 198,-19"/>
<text text-anchor="middle" x="99" y="-7" font-family="Helvetica,sans-Serif" font-size="10.00">AutomaticFailureProtectionShowcase</text>
</a>
</g>
</g>
<!-- TsnNetworkBase&#45;&gt;AutomaticFailureProtectionShowcase -->
<g id="edge2" class="edge">
<title>TsnNetworkBase&#45;&gt;AutomaticFailureProtectionShowcase</title>
<path fill="none" stroke="black" d="M1130.86,-61.82C988.1,-56.83 561,-41.02 207,-19 204.09,-18.82 201.14,-18.63 198.16,-18.43"/>
</g>
<!-- AutomaticMultipathConfigurationShowcase -->
<g id="node4" class="node">
<title>AutomaticMultipathConfigurationShowcase</title>
<g id="a_node4"><a xlink:href="inet.showcases.tsn.framereplication.automaticmultipathconfiguration.AutomaticMultipathConfigurationShowcase.html" xlink:title="Network AutomaticMultipathConfigurationShowcase" target="_parent">
<polygon fill="#d0d0ff" stroke="black" points="444,-19 216,-19 216,0 444,0 444,-19"/>
<text text-anchor="middle" x="330" y="-7" font-family="Helvetica,sans-Serif" font-size="10.00">AutomaticMultipathConfigurationShowcase</text>
</a>
</g>
</g>
<!-- TsnNetworkBase&#45;&gt;AutomaticMultipathConfigurationShowcase -->
<g id="edge3" class="edge">
<title>TsnNetworkBase&#45;&gt;AutomaticMultipathConfigurationShowcase</title>
<path fill="none" stroke="black" d="M1130.63,-60.61C1013.18,-53.71 707.89,-35.61 453,-19 450.12,-18.81 447.19,-18.62 444.25,-18.43"/>
</g>
<!-- CutthroughSwitchingShowcase -->
<g id="node5" class="node">
<title>CutthroughSwitchingShowcase</title>
<g id="a_node5"><a xlink:href="inet.showcases.tsn.cutthroughswitching.CutthroughSwitchingShowcase.html" xlink:title="Network CutthroughSwitchingShowcase" target="_parent">
<polygon fill="#d0d0ff" stroke="black" points="629.5,-19 462.5,-19 462.5,0 629.5,0 629.5,-19"/>
<text text-anchor="middle" x="546" y="-7" font-family="Helvetica,sans-Serif" font-size="10.00">CutthroughSwitchingShowcase</text>
</a>
</g>
</g>
<!-- TsnNetworkBase&#45;&gt;CutthroughSwitchingShowcase -->
<g id="edge4" class="edge">
<title>TsnNetworkBase&#45;&gt;CutthroughSwitchingShowcase</title>
<path fill="none" stroke="black" d="M1130.66,-59.62C1035.41,-52.09 819.53,-34.84 638,-19 635.28,-18.76 632.52,-18.52 629.73,-18.27"/>
</g>
<!-- FrerAndTasShowcase -->
<g id="node6" class="node">
<title>FrerAndTasShowcase</title>
<g id="a_node6"><a xlink:href="inet.showcases.tsn.combiningfeatures.frerandtas.FrerAndTasShowcase.html" xlink:title="Network FrerAndTasShowcase" target="_parent">
<polygon fill="#d0d0ff" stroke="black" points="766.5,-19 647.5,-19 647.5,0 766.5,0 766.5,-19"/>
<text text-anchor="middle" x="707" y="-7" font-family="Helvetica,sans-Serif" font-size="10.00">FrerAndTasShowcase</text>
</a>
</g>
</g>
<!-- TsnNetworkBase&#45;&gt;FrerAndTasShowcase -->
<g id="edge5" class="edge">
<title>TsnNetworkBase&#45;&gt;FrerAndTasShowcase</title>
<path fill="none" stroke="black" d="M1130.72,-58.33C1054.45,-50.26 903.21,-34.06 775,-19 772.28,-18.68 769.5,-18.35 766.7,-18.01"/>
</g>
<!-- GptpAndTasShowcase -->
<g id="node7" class="node">
<title>GptpAndTasShowcase</title>
<g id="a_node7"><a xlink:href="inet.showcases.tsn.combiningfeatures.gptpandtas.GptpAndTasShowcase.html" xlink:title="Network GptpAndTasShowcase" target="_parent">
<polygon fill="#d0d0ff" stroke="black" points="907.5,-19 784.5,-19 784.5,0 907.5,0 907.5,-19"/>
<text text-anchor="middle" x="846" y="-7" font-family="Helvetica,sans-Serif" font-size="10.00">GptpAndTasShowcase</text>
</a>
</g>
</g>
<!-- TsnNetworkBase&#45;&gt;GptpAndTasShowcase -->
<g id="edge6" class="edge">
<title>TsnNetworkBase&#45;&gt;GptpAndTasShowcase</title>
<path fill="none" stroke="black" d="M1130.72,-55.68C1068.93,-45.88 963.4,-29.13 899.64,-19.01"/>
</g>
<!-- InVehicleNetworkShowcase -->
<g id="node8" class="node">
<title>InVehicleNetworkShowcase</title>
<g id="a_node8"><a xlink:href="inet.showcases.tsn.combiningfeatures.invehicle.InVehicleNetworkShowcase.html" xlink:title="Network InVehicleNetworkShowcase" target="_parent">
<polygon fill="#d0d0ff" stroke="black" points="1078,-19 926,-19 926,0 1078,0 1078,-19"/>
<text text-anchor="middle" x="1002" y="-7" font-family="Helvetica,sans-Serif" font-size="10.00">InVehicleNetworkShowcase</text>
</a>
</g>
</g>
<!-- TsnNetworkBase&#45;&gt;InVehicleNetworkShowcase -->
<g id="edge7" class="edge">
<title>TsnNetworkBase&#45;&gt;InVehicleNetworkShowcase</title>
<path fill="none" stroke="black" d="M1151.4,-54.98C1118.28,-45.12 1064.04,-28.97 1030.82,-19.08"/>
</g>
<!-- ManualConfigurationShowcase -->
<g id="node9" class="node">
<title>ManualConfigurationShowcase</title>
<g id="a_node9"><a xlink:href="inet.showcases.tsn.framereplication.manualconfiguration.ManualConfigurationShowcase.html" xlink:title="Network ManualConfigurationShowcase" target="_parent">
<polygon fill="#d0d0ff" stroke="black" points="1263.5,-19 1096.5,-19 1096.5,0 1263.5,0 1263.5,-19"/>
<text text-anchor="middle" x="1180" y="-7" font-family="Helvetica,sans-Serif" font-size="10.00">ManualConfigurationShowcase</text>
</a>
</g>
</g>
<!-- TsnNetworkBase&#45;&gt;ManualConfigurationShowcase -->
<g id="edge8" class="edge">
<title>TsnNetworkBase&#45;&gt;ManualConfigurationShowcase</title>
<path fill="none" stroke="black" d="M1180,-54.75C1180,-44.87 1180,-28.9 1180,-19.09"/>
</g>
<!-- MulticastFailureProtectionShowcase -->
<g id="node10" class="node">
<title>MulticastFailureProtectionShowcase</title>
<g id="a_node10"><a xlink:href="inet.showcases.tsn.framereplication.multicastfailureprotection.MulticastFailureProtectionShowcase.html" xlink:title="Network MulticastFailureProtectionShowcase" target="_parent">
<polygon fill="#d0d0ff" stroke="black" points="1474.5,-19 1281.5,-19 1281.5,0 1474.5,0 1474.5,-19"/>
<text text-anchor="middle" x="1378" y="-7" font-family="Helvetica,sans-Serif" font-size="10.00">MulticastFailureProtectionShowcase</text>
</a>
</g>
</g>
<!-- TsnNetworkBase&#45;&gt;MulticastFailureProtectionShowcase -->
<g id="edge9" class="edge">
<title>TsnNetworkBase&#45;&gt;MulticastFailureProtectionShowcase</title>
<path fill="none" stroke="black" d="M1211.81,-54.98C1248.65,-45.12 1308.99,-28.97 1345.94,-19.08"/>
</g>
<!-- OneMasterClockGptpShowcase -->
<g id="node11" class="node">
<title>OneMasterClockGptpShowcase</title>
<g id="a_node11"><a xlink:href="inet.showcases.tsn.timesynchronization.gptp.OneMasterClockGptpShowcase.html" xlink:title="Network OneMasterClockGptpShowcase" target="_parent">
<polygon fill="#d0d0ff" stroke="black" points="1661.5,-19 1492.5,-19 1492.5,0 1661.5,0 1661.5,-19"/>
<text text-anchor="middle" x="1577" y="-7" font-family="Helvetica,sans-Serif" font-size="10.00">OneMasterClockGptpShowcase</text>
</a>
</g>
</g>
<!-- TsnNetworkBase&#45;&gt;OneMasterClockGptpShowcase -->
<g id="edge10" class="edge">
<title>TsnNetworkBase&#45;&gt;OneMasterClockGptpShowcase</title>
<path fill="none" stroke="black" d="M1229.08,-56.95C1300.75,-47.38 1434.13,-29.57 1513.29,-19.01"/>
</g>
<!-- TsnDumbbellNetwork -->
<g id="node12" class="node">
<title>TsnDumbbellNetwork</title>
<g id="a_node12"><a xlink:href="inet.networks.tsn.TsnDumbbellNetwork.html" xlink:title="Network TsnDumbbellNetwork" target="_parent">
<polygon fill="#d0d0ff" stroke="black" points="1800.5,-19 1679.5,-19 1679.5,0 1800.5,0 1800.5,-19"/>
<text text-anchor="middle" x="1740" y="-7" font-family="Helvetica,sans-Serif" font-size="10.00">TsnDumbbellNetwork</text>
</a>
</g>
</g>
<!-- TsnNetworkBase&#45;&gt;TsnDumbbellNetwork -->
<g id="edge11" class="edge">
<title>TsnNetworkBase&#45;&gt;TsnDumbbellNetwork</title>
<path fill="none" stroke="black" d="M1229.18,-59.57C1317.66,-52.38 1509.51,-36.26 1671,-19 1673.76,-18.7 1676.58,-18.39 1679.43,-18.07"/>
</g>
<!-- TsnLinearNetwork -->
<g id="node13" class="node">
<title>TsnLinearNetwork</title>
<g id="a_node13"><a xlink:href="inet.networks.tsn.TsnLinearNetwork.html" xlink:title="Network TsnLinearNetwork" target="_parent">
<polygon fill="#d0d0ff" stroke="black" points="1923,-19 1819,-19 1819,0 1923,0 1923,-19"/>
<text text-anchor="middle" x="1871" y="-7" font-family="Helvetica,sans-Serif" font-size="10.00">TsnLinearNetwork</text>
</a>
</g>
</g>
<!-- TsnNetworkBase&#45;&gt;TsnLinearNetwork -->
<g id="edge12" class="edge">
<title>TsnNetworkBase&#45;&gt;TsnLinearNetwork</title>
<path fill="none" stroke="black" d="M1229.11,-61.17C1335.29,-55.88 1594.08,-41.64 1810,-19 1812.87,-18.7 1815.82,-18.37 1818.79,-18.01"/>
</g>
<!-- TwoMasterClocksRingGptpShowcase -->
<g id="node14" class="node">
<title>TwoMasterClocksRingGptpShowcase</title>
<g id="a_node14"><a xlink:href="inet.showcases.tsn.timesynchronization.gptp.TwoMasterClocksRingGptpShowcase.html" xlink:title="Network TwoMasterClocksRingGptpShowcase" target="_parent">
<polygon fill="#d0d0ff" stroke="black" points="2136.5,-19 1941.5,-19 1941.5,0 2136.5,0 2136.5,-19"/>
<text text-anchor="middle" x="2039" y="-7" font-family="Helvetica,sans-Serif" font-size="10.00">TwoMasterClocksRingGptpShowcase</text>
</a>
</g>
</g>
<!-- TsnNetworkBase&#45;&gt;TwoMasterClocksRingGptpShowcase -->
<g id="edge13" class="edge">
<title>TsnNetworkBase&#45;&gt;TwoMasterClocksRingGptpShowcase</title>
<path fill="none" stroke="black" d="M1229.29,-60.93C1349.48,-54.58 1667.14,-37.35 1932,-19 1935.07,-18.79 1938.18,-18.57 1941.33,-18.34"/>
</g>
<!-- TwoMasterClocksTreeGptpShowcase -->
<g id="node15" class="node">
<title>TwoMasterClocksTreeGptpShowcase</title>
<g id="a_node15"><a xlink:href="inet.showcases.tsn.timesynchronization.gptp.TwoMasterClocksTreeGptpShowcase.html" xlink:title="Network TwoMasterClocksTreeGptpShowcase" target="_parent">
<polygon fill="#d0d0ff" stroke="black" points="2348,-19 2154,-19 2154,0 2348,0 2348,-19"/>
<text text-anchor="middle" x="2251" y="-7" font-family="Helvetica,sans-Serif" font-size="10.00">TwoMasterClocksTreeGptpShowcase</text>
</a>
</g>
</g>
<!-- TsnNetworkBase&#45;&gt;TwoMasterClocksTreeGptpShowcase -->
<g id="edge14" class="edge">
<title>TsnNetworkBase&#45;&gt;TwoMasterClocksTreeGptpShowcase</title>
<path fill="none" stroke="black" d="M1229.04,-61.84C1371.04,-56.92 1794.78,-41.3 2146,-19 2148.56,-18.84 2151.15,-18.67 2153.76,-18.49"/>
</g>
<!-- WiredNetworkBase -->
<g id="node2" class="node">
<title>WiredNetworkBase</title>
<g id="a_node2"><a xlink:href="inet.networks.base.WiredNetworkBase.html" xlink:title="Network WiredNetworkBase" target="_parent">
<polygon fill="#d0d0ff" stroke="black" points="1235,-129 1125,-129 1125,-110 1235,-110 1235,-129"/>
<text text-anchor="middle" x="1180" y="-117" font-family="Helvetica,sans-Serif" font-size="10.00">WiredNetworkBase</text>
</a>
</g>
</g>
<!-- WiredNetworkBase&#45;&gt;TsnNetworkBase -->
<g id="edge1" class="edge">
<title>WiredNetworkBase&#45;&gt;TsnNetworkBase</title>
<path fill="none" stroke="black" d="M1180,-109.75C1180,-99.87 1180,-83.9 1180,-74.09"/>
</g>
</g>
</svg>
