<?xml version="1.0" encoding="UTF-8" standalone="no"?>
<!DOCTYPE svg PUBLIC "-//W3C//DTD SVG 1.1//EN"
 "http://www.w3.org/Graphics/SVG/1.1/DTD/svg11.dtd">
<!-- Generated by graphviz version 2.43.0 (0)
 -->
<!-- Title: opp Pages: 1 -->
<svg width="1092pt" height="82pt"
 viewBox="0.00 0.00 1091.50 82.00" xmlns="http://www.w3.org/2000/svg" xmlns:xlink="http://www.w3.org/1999/xlink">
<g id="graph0" class="graph" transform="scale(1 1) rotate(0) translate(4 78)">
<title>opp</title>
<polygon fill="transparent" stroke="transparent" points="-4,4 -4,-78 1087.5,-78 1087.5,4 -4,4"/>
<!-- PeekingUnderTheHoodShowcase -->
<g id="node1" class="node">
<title>PeekingUnderTheHoodShowcase</title>
<g id="a_node1"><a xlink:href="inet.showcases.tsn.trafficshaping.underthehood.PeekingUnderTheHoodShowcase.html" xlink:title="Network PeekingUnderTheHoodShowcase" target="_parent">
<polygon fill="#9090ff" stroke="black" points="622,-74 445,-74 445,-55 622,-55 622,-74"/>
<text text-anchor="middle" x="533.5" y="-62" font-family="Helvetica,sans-Serif" font-size="10.00">PeekingUnderTheHoodShowcase</text>
</a>
</g>
</g>
<!-- ActivePacketSource -->
<g id="node2" class="node">
<title>ActivePacketSource</title>
<g id="a_node2"><a xlink:href="inet.queueing.source.ActivePacketSource.html" xlink:title="Simple Module ActivePacketSource" target="_parent">
<polygon fill="#fffcaf" stroke="black" points="113,-19 0,-19 0,0 113,0 113,-19"/>
<text text-anchor="middle" x="56.5" y="-7" font-family="Helvetica,sans-Serif" font-size="10.00">ActivePacketSource</text>
</a>
</g>
</g>
<!-- PeekingUnderTheHoodShowcase&#45;&gt;ActivePacketSource -->
<g id="edge1" class="edge">
<title>PeekingUnderTheHoodShowcase&#45;&gt;ActivePacketSource</title>
<path fill="none" stroke="black" d="M450,-54.96C369.2,-46.58 242.96,-33.19 123.11,-19.05"/>
<polygon fill="black" stroke="black" points="123.36,-15.55 113.02,-17.85 122.54,-22.51 123.36,-15.55"/>
</g>
<!-- IdealChannel -->
<g id="node3" class="node">
<title>IdealChannel</title>
<g id="a_node3"><a xlink:href="ned.IdealChannel.html" xlink:title="Channel IdealChannel" target="_parent">
<polygon fill="#d0ffd0" stroke="black" points="211.5,-19 131.5,-19 131.5,0 211.5,0 211.5,-19"/>
<text text-anchor="middle" x="171.5" y="-7" font-family="Helvetica,sans-Serif" font-size="10.00">IdealChannel</text>
</a>
</g>
</g>
<!-- PeekingUnderTheHoodShowcase&#45;&gt;IdealChannel -->
<g id="edge2" class="edge">
<title>PeekingUnderTheHoodShowcase&#45;&gt;IdealChannel</title>
<path fill="none" stroke="black" d="M469.57,-54.99C408.48,-46.73 313.53,-33.55 221.63,-19.14"/>
<polygon fill="black" stroke="black" points="222.02,-15.66 211.59,-17.56 220.93,-22.57 222.02,-15.66"/>
</g>
<!-- EligibilityTimeGate -->
<g id="node4" class="node">
<title>EligibilityTimeGate</title>
<g id="a_node4"><a xlink:href="inet.protocolelement.shaper.EligibilityTimeGate.html" xlink:title="Simple Module EligibilityTimeGate" target="_parent">
<polygon fill="#fffcaf" stroke="black" points="339.5,-19 229.5,-19 229.5,0 339.5,0 339.5,-19"/>
<text text-anchor="middle" x="284.5" y="-7" font-family="Helvetica,sans-Serif" font-size="10.00">EligibilityTimeGate</text>
</a>
</g>
</g>
<!-- PeekingUnderTheHoodShowcase&#45;&gt;EligibilityTimeGate -->
<g id="edge3" class="edge">
<title>PeekingUnderTheHoodShowcase&#45;&gt;EligibilityTimeGate</title>
<path fill="none" stroke="black" d="M493.49,-54.98C450.33,-45.8 381.52,-31.15 334.74,-21.19"/>
<polygon fill="black" stroke="black" points="335.33,-17.74 324.82,-19.08 333.87,-24.59 335.33,-17.74"/>
</g>
<!-- EligibilityTimeQueue -->
<g id="node5" class="node">
<title>EligibilityTimeQueue</title>
<g id="a_node5"><a xlink:href="inet.protocolelement.shaper.EligibilityTimeQueue.html" xlink:title="Simple Module EligibilityTimeQueue" target="_parent">
<polygon fill="#fffcaf" stroke="black" points="475.5,-19 357.5,-19 357.5,0 475.5,0 475.5,-19"/>
<text text-anchor="middle" x="416.5" y="-7" font-family="Helvetica,sans-Serif" font-size="10.00">EligibilityTimeQueue</text>
</a>
</g>
</g>
<!-- PeekingUnderTheHoodShowcase&#45;&gt;EligibilityTimeQueue -->
<g id="edge4" class="edge">
<title>PeekingUnderTheHoodShowcase&#45;&gt;EligibilityTimeQueue</title>
<path fill="none" stroke="black" d="M514.7,-54.98C495.88,-46.46 466.68,-33.23 445,-23.41"/>
<polygon fill="black" stroke="black" points="446.19,-20.11 435.64,-19.17 443.3,-26.48 446.19,-20.11"/>
</g>
<!-- PacketServer -->
<g id="node6" class="node">
<title>PacketServer</title>
<g id="a_node6"><a xlink:href="inet.queueing.server.PacketServer.html" xlink:title="Simple Module PacketServer" target="_parent">
<polygon fill="#fffcaf" stroke="black" points="573.5,-19 493.5,-19 493.5,0 573.5,0 573.5,-19"/>
<text text-anchor="middle" x="533.5" y="-7" font-family="Helvetica,sans-Serif" font-size="10.00">PacketServer</text>
</a>
</g>
</g>
<!-- PeekingUnderTheHoodShowcase&#45;&gt;PacketServer -->
<g id="edge5" class="edge">
<title>PeekingUnderTheHoodShowcase&#45;&gt;PacketServer</title>
<path fill="none" stroke="black" d="M533.5,-54.75C533.5,-47.8 533.5,-37.85 533.5,-29.13"/>
<polygon fill="black" stroke="black" points="537,-29.09 533.5,-19.09 530,-29.09 537,-29.09"/>
</g>
<!-- PassivePacketSink -->
<g id="node7" class="node">
<title>PassivePacketSink</title>
<g id="a_node7"><a xlink:href="inet.queueing.sink.PassivePacketSink.html" xlink:title="Simple Module PassivePacketSink" target="_parent">
<polygon fill="#fffcaf" stroke="black" points="699,-19 592,-19 592,0 699,0 699,-19"/>
<text text-anchor="middle" x="645.5" y="-7" font-family="Helvetica,sans-Serif" font-size="10.00">PassivePacketSink</text>
</a>
</g>
</g>
<!-- PeekingUnderTheHoodShowcase&#45;&gt;PassivePacketSink -->
<g id="edge6" class="edge">
<title>PeekingUnderTheHoodShowcase&#45;&gt;PassivePacketSink</title>
<path fill="none" stroke="black" d="M551.49,-54.98C569.43,-46.5 597.22,-33.35 617.93,-23.54"/>
<polygon fill="black" stroke="black" points="619.64,-26.61 627.18,-19.17 616.64,-20.28 619.64,-26.61"/>
</g>
<!-- PacketMultiplexer -->
<g id="node8" class="node">
<title>PacketMultiplexer</title>
<g id="a_node8"><a xlink:href="inet.queueing.common.PacketMultiplexer.html" xlink:title="Simple Module PacketMultiplexer" target="_parent">
<polygon fill="#fffcaf" stroke="black" points="821.5,-19 717.5,-19 717.5,0 821.5,0 821.5,-19"/>
<text text-anchor="middle" x="769.5" y="-7" font-family="Helvetica,sans-Serif" font-size="10.00">PacketMultiplexer</text>
</a>
</g>
</g>
<!-- PeekingUnderTheHoodShowcase&#45;&gt;PacketMultiplexer -->
<g id="edge7" class="edge">
<title>PeekingUnderTheHoodShowcase&#45;&gt;PacketMultiplexer</title>
<path fill="none" stroke="black" d="M571.42,-54.98C612.15,-45.84 677,-31.27 721.32,-21.32"/>
<polygon fill="black" stroke="black" points="722.3,-24.69 731.29,-19.08 720.76,-17.86 722.3,-24.69"/>
</g>
<!-- EligibilityTimeMeter -->
<g id="node9" class="node">
<title>EligibilityTimeMeter</title>
<g id="a_node9"><a xlink:href="inet.protocolelement.shaper.EligibilityTimeMeter.html" xlink:title="Simple Module EligibilityTimeMeter" target="_parent">
<polygon fill="#fffcaf" stroke="black" points="955,-19 840,-19 840,0 955,0 955,-19"/>
<text text-anchor="middle" x="897.5" y="-7" font-family="Helvetica,sans-Serif" font-size="10.00">EligibilityTimeMeter</text>
</a>
</g>
</g>
<!-- PeekingUnderTheHoodShowcase&#45;&gt;EligibilityTimeMeter -->
<g id="edge8" class="edge">
<title>PeekingUnderTheHoodShowcase&#45;&gt;EligibilityTimeMeter</title>
<path fill="none" stroke="black" d="M591.98,-54.98C656.78,-45.55 761.14,-30.35 829.53,-20.4"/>
<polygon fill="black" stroke="black" points="830.37,-23.81 839.76,-18.91 829.36,-16.88 830.37,-23.81"/>
</g>
<!-- EligibilityTimeFilter -->
<g id="node10" class="node">
<title>EligibilityTimeFilter</title>
<g id="a_node10"><a xlink:href="inet.protocolelement.shaper.EligibilityTimeFilter.html" xlink:title="Simple Module EligibilityTimeFilter" target="_parent">
<polygon fill="#fffcaf" stroke="black" points="1083.5,-19 973.5,-19 973.5,0 1083.5,0 1083.5,-19"/>
<text text-anchor="middle" x="1028.5" y="-7" font-family="Helvetica,sans-Serif" font-size="10.00">EligibilityTimeFilter</text>
</a>
</g>
</g>
<!-- PeekingUnderTheHoodShowcase&#45;&gt;EligibilityTimeFilter -->
<g id="edge9" class="edge">
<title>PeekingUnderTheHoodShowcase&#45;&gt;EligibilityTimeFilter</title>
<path fill="none" stroke="black" d="M622.32,-55.09C707.22,-46.88 839.1,-33.67 963.28,-19.11"/>
<polygon fill="black" stroke="black" points="963.83,-22.57 973.35,-17.93 963.01,-15.62 963.83,-22.57"/>
</g>
</g>
</svg>
