<?xml version="1.0" encoding="UTF-8" standalone="no"?>
<!DOCTYPE svg PUBLIC "-//W3C//DTD SVG 1.1//EN"
 "http://www.w3.org/Graphics/SVG/1.1/DTD/svg11.dtd">
<!-- Generated by graphviz version 2.43.0 (0)
 -->
<!-- Title: opp Pages: 1 -->
<svg width="631pt" height="82pt"
 viewBox="0.00 0.00 630.50 82.00" xmlns="http://www.w3.org/2000/svg" xmlns:xlink="http://www.w3.org/1999/xlink">
<g id="graph0" class="graph" transform="scale(1 1) rotate(0) translate(4 78)">
<title>opp</title>
<polygon fill="transparent" stroke="transparent" points="-4,4 -4,-78 626.5,-78 626.5,4 -4,4"/>
<!-- LargeNet -->
<g id="node1" class="node">
<title>LargeNet</title>
<g id="a_node1"><a xlink:href="inet.examples.ethernet.lans.LargeNet.html" xlink:title="Network LargeNet" target="_parent">
<polygon fill="#9090ff" stroke="black" points="334,-74 273,-74 273,-55 334,-55 334,-74"/>
<text text-anchor="middle" x="303.5" y="-62" font-family="Helvetica,sans-Serif" font-size="10.00">LargeNet</text>
</a>
</g>
</g>
<!-- cabletoserver -->
<g id="node2" class="node">
<title>cabletoserver</title>
<g id="a_node2"><a xlink:href="inet.examples.ethernet.lans.LargeNet.cabletoserver.html" xlink:title="Channel cabletoserver" target="_parent">
<polygon fill="#d0ffd0" stroke="black" points="83,-19 0,-19 0,0 83,0 83,-19"/>
<text text-anchor="middle" x="41.5" y="-7" font-family="Helvetica,sans-Serif" font-size="10.00">cabletoserver</text>
</a>
</g>
</g>
<!-- LargeNet&#45;&gt;cabletoserver -->
<g id="edge1" class="edge">
<title>LargeNet&#45;&gt;cabletoserver</title>
<path fill="none" stroke="black" d="M272.93,-57.32C228.8,-48.39 146.67,-31.77 93.06,-20.93"/>
<polygon fill="black" stroke="black" points="93.56,-17.46 83.06,-18.91 92.17,-24.32 93.56,-17.46"/>
</g>
<!-- EthernetHost -->
<g id="node3" class="node">
<title>EthernetHost</title>
<g id="a_node3"><a xlink:href="inet.node.ethernet.EthernetHost.html" xlink:title="Compound Module EthernetHost" target="_parent">
<polygon fill="#fffcaf" stroke="black" points="181.5,-19 101.5,-19 101.5,0 181.5,0 181.5,-19"/>
<text text-anchor="middle" x="141.5" y="-7" font-family="Helvetica,sans-Serif" font-size="10.00">EthernetHost</text>
</a>
</g>
</g>
<!-- LargeNet&#45;&gt;EthernetHost -->
<g id="edge2" class="edge">
<title>LargeNet&#45;&gt;EthernetHost</title>
<path fill="none" stroke="black" d="M277.47,-54.98C250.39,-46.13 207.79,-32.19 177.49,-22.28"/>
<polygon fill="black" stroke="black" points="178.32,-18.87 167.73,-19.08 176.15,-25.52 178.32,-18.87"/>
</g>
<!-- cable -->
<g id="node4" class="node">
<title>cable</title>
<g id="a_node4"><a xlink:href="inet.examples.ethernet.lans.cable.html" xlink:title="Channel cable" target="_parent">
<polygon fill="#d0ffd0" stroke="black" points="253.5,-19 199.5,-19 199.5,0 253.5,0 253.5,-19"/>
<text text-anchor="middle" x="226.5" y="-7" font-family="Helvetica,sans-Serif" font-size="10.00">cable</text>
</a>
</g>
</g>
<!-- LargeNet&#45;&gt;cable -->
<g id="edge3" class="edge">
<title>LargeNet&#45;&gt;cable</title>
<path fill="none" stroke="black" d="M291.13,-54.98C279.41,-46.92 261.58,-34.65 247.61,-25.03"/>
<polygon fill="black" stroke="black" points="249.32,-21.96 239.1,-19.17 245.35,-27.72 249.32,-21.96"/>
</g>
<!-- LargeLAN -->
<g id="node5" class="node">
<title>LargeLAN</title>
<g id="a_node5"><a xlink:href="inet.examples.ethernet.lans.LargeLAN.html" xlink:title="Compound Module LargeLAN" target="_parent">
<polygon fill="#fffcaf" stroke="black" points="335.5,-19 271.5,-19 271.5,0 335.5,0 335.5,-19"/>
<text text-anchor="middle" x="303.5" y="-7" font-family="Helvetica,sans-Serif" font-size="10.00">LargeLAN</text>
</a>
</g>
</g>
<!-- LargeNet&#45;&gt;LargeLAN -->
<g id="edge4" class="edge">
<title>LargeNet&#45;&gt;LargeLAN</title>
<path fill="none" stroke="black" d="M303.5,-54.75C303.5,-47.8 303.5,-37.85 303.5,-29.13"/>
<polygon fill="black" stroke="black" points="307,-29.09 303.5,-19.09 300,-29.09 307,-29.09"/>
</g>
<!-- MediumLAN -->
<g id="node6" class="node">
<title>MediumLAN</title>
<g id="a_node6"><a xlink:href="inet.examples.ethernet.lans.MediumLAN.html" xlink:title="Compound Module MediumLAN" target="_parent">
<polygon fill="#fffcaf" stroke="black" points="431,-19 354,-19 354,0 431,0 431,-19"/>
<text text-anchor="middle" x="392.5" y="-7" font-family="Helvetica,sans-Serif" font-size="10.00">MediumLAN</text>
</a>
</g>
</g>
<!-- LargeNet&#45;&gt;MediumLAN -->
<g id="edge5" class="edge">
<title>LargeNet&#45;&gt;MediumLAN</title>
<path fill="none" stroke="black" d="M317.8,-54.98C331.6,-46.77 352.74,-34.18 369.01,-24.49"/>
<polygon fill="black" stroke="black" points="371.14,-27.29 377.94,-19.17 367.56,-21.28 371.14,-27.29"/>
</g>
<!-- SmallLAN -->
<g id="node7" class="node">
<title>SmallLAN</title>
<g id="a_node7"><a xlink:href="inet.examples.ethernet.lans.SmallLAN.html" xlink:title="Compound Module SmallLAN" target="_parent">
<polygon fill="#fffcaf" stroke="black" points="514,-19 449,-19 449,0 514,0 514,-19"/>
<text text-anchor="middle" x="481.5" y="-7" font-family="Helvetica,sans-Serif" font-size="10.00">SmallLAN</text>
</a>
</g>
</g>
<!-- LargeNet&#45;&gt;SmallLAN -->
<g id="edge6" class="edge">
<title>LargeNet&#45;&gt;SmallLAN</title>
<path fill="none" stroke="black" d="M332.1,-54.98C362.11,-46.05 409.48,-31.94 442.82,-22.02"/>
<polygon fill="black" stroke="black" points="444.09,-25.29 452.68,-19.08 442.09,-18.58 444.09,-25.29"/>
</g>
<!-- EthernetSwitch -->
<g id="node8" class="node">
<title>EthernetSwitch</title>
<g id="a_node8"><a xlink:href="inet.node.ethernet.EthernetSwitch.html" xlink:title="Compound Module EthernetSwitch" target="_parent">
<polygon fill="#fffcaf" stroke="black" points="622.5,-19 532.5,-19 532.5,0 622.5,0 622.5,-19"/>
<text text-anchor="middle" x="577.5" y="-7" font-family="Helvetica,sans-Serif" font-size="10.00">EthernetSwitch</text>
</a>
</g>
</g>
<!-- LargeNet&#45;&gt;EthernetSwitch -->
<g id="edge7" class="edge">
<title>LargeNet&#45;&gt;EthernetSwitch</title>
<path fill="none" stroke="black" d="M334.13,-57.57C379.98,-48.71 467.09,-31.86 523.69,-20.91"/>
<polygon fill="black" stroke="black" points="524.39,-24.34 533.55,-19 523.06,-17.46 524.39,-24.34"/>
</g>
</g>
</svg>
