<?xml version="1.0" encoding="UTF-8" standalone="no"?>
<!DOCTYPE svg PUBLIC "-//W3C//DTD SVG 1.1//EN"
 "http://www.w3.org/Graphics/SVG/1.1/DTD/svg11.dtd">
<!-- Generated by graphviz version 2.43.0 (0)
 -->
<!-- Title: opp Pages: 1 -->
<svg width="328pt" height="137pt"
 viewBox="0.00 0.00 327.50 137.00" xmlns="http://www.w3.org/2000/svg" xmlns:xlink="http://www.w3.org/1999/xlink">
<g id="graph0" class="graph" transform="scale(1 1) rotate(0) translate(4 133)">
<title>opp</title>
<polygon fill="transparent" stroke="transparent" points="-4,4 -4,-133 323.5,-133 323.5,4 -4,4"/>
<!-- L3NetworkConfiguratorBase -->
<g id="node1" class="node">
<title>L3NetworkConfiguratorBase</title>
<g id="a_node1"><a xlink:href="inet.networklayer.configurator.base.L3NetworkConfiguratorBase.html" xlink:title="Simple Module L3NetworkConfiguratorBase" target="_parent">
<polygon fill="#fff700" stroke="black" points="231,-74 77,-74 77,-55 231,-55 231,-74"/>
<text text-anchor="middle" x="154" y="-62" font-family="Helvetica,sans-Serif" font-size="10.00">L3NetworkConfiguratorBase</text>
</a>
</g>
</g>
<!-- Ipv4NetworkConfigurator -->
<g id="node3" class="node">
<title>Ipv4NetworkConfigurator</title>
<g id="a_node3"><a xlink:href="inet.networklayer.configurator.ipv4.Ipv4NetworkConfigurator.html" xlink:title="Simple Module Ipv4NetworkConfigurator" target="_parent">
<polygon fill="#fffcaf" stroke="black" points="140,-19 0,-19 0,0 140,0 140,-19"/>
<text text-anchor="middle" x="70" y="-7" font-family="Helvetica,sans-Serif" font-size="10.00">Ipv4NetworkConfigurator</text>
</a>
</g>
</g>
<!-- L3NetworkConfiguratorBase&#45;&gt;Ipv4NetworkConfigurator -->
<g id="edge2" class="edge">
<title>L3NetworkConfiguratorBase&#45;&gt;Ipv4NetworkConfigurator</title>
<path fill="none" stroke="black" d="M140.5,-54.98C124.92,-45.15 99.43,-29.07 83.74,-19.17"/>
</g>
<!-- NextHopNetworkConfigurator -->
<g id="node4" class="node">
<title>NextHopNetworkConfigurator</title>
<g id="a_node4"><a xlink:href="inet.networklayer.configurator.nexthop.NextHopNetworkConfigurator.html" xlink:title="Simple Module NextHopNetworkConfigurator" target="_parent">
<polygon fill="#fffcaf" stroke="black" points="319.5,-19 158.5,-19 158.5,0 319.5,0 319.5,-19"/>
<text text-anchor="middle" x="239" y="-7" font-family="Helvetica,sans-Serif" font-size="10.00">NextHopNetworkConfigurator</text>
</a>
</g>
</g>
<!-- L3NetworkConfiguratorBase&#45;&gt;NextHopNetworkConfigurator -->
<g id="edge3" class="edge">
<title>L3NetworkConfiguratorBase&#45;&gt;NextHopNetworkConfigurator</title>
<path fill="none" stroke="black" d="M167.66,-54.98C183.42,-45.15 209.22,-29.07 225.09,-19.17"/>
</g>
<!-- IL3NetworkConfigurator -->
<g id="node2" class="node">
<title>IL3NetworkConfigurator</title>
<g id="a_node2"><a xlink:href="inet.networklayer.configurator.contract.IL3NetworkConfigurator.html" xlink:title="Module Interface IL3NetworkConfigurator" target="_parent">
<polygon fill="#fffcaf" stroke="black" stroke-dasharray="5,2" points="220.5,-129 87.5,-129 87.5,-110 220.5,-110 220.5,-129"/>
<text text-anchor="middle" x="154" y="-117" font-family="Helvetica,sans-Serif" font-size="10.00">IL3NetworkConfigurator</text>
</a>
</g>
</g>
<!-- IL3NetworkConfigurator&#45;&gt;L3NetworkConfiguratorBase -->
<g id="edge1" class="edge">
<title>IL3NetworkConfigurator&#45;&gt;L3NetworkConfiguratorBase</title>
<path fill="none" stroke="black" stroke-dasharray="5,2" d="M154,-109.75C154,-99.87 154,-83.9 154,-74.09"/>
</g>
</g>
</svg>
