<?xml version="1.0" encoding="UTF-8" standalone="no"?>
<!DOCTYPE svg PUBLIC "-//W3C//DTD SVG 1.1//EN"
 "http://www.w3.org/Graphics/SVG/1.1/DTD/svg11.dtd">
<!-- Generated by graphviz version 2.43.0 (0)
 -->
<!-- Title: opp Pages: 1 -->
<svg width="557pt" height="137pt"
 viewBox="0.00 0.00 556.50 137.00" xmlns="http://www.w3.org/2000/svg" xmlns:xlink="http://www.w3.org/1999/xlink">
<g id="graph0" class="graph" transform="scale(1 1) rotate(0) translate(4 133)">
<title>opp</title>
<polygon fill="transparent" stroke="transparent" points="-4,4 -4,-133 552.5,-133 552.5,4 -4,4"/>
<!-- ThroughputServer -->
<g id="node1" class="node">
<title>ThroughputServer</title>
<g id="a_node1"><a xlink:href="inet.examples.wireless.testnewmac.ThroughputServer.html" xlink:title="Compound Module ThroughputServer" target="_parent">
<polygon fill="#fff700" stroke="black" points="300,-74 196,-74 196,-55 300,-55 300,-74"/>
<text text-anchor="middle" x="248" y="-62" font-family="Helvetica,sans-Serif" font-size="10.00">ThroughputServer</text>
</a>
</g>
</g>
<!-- InterfaceTable -->
<g id="node2" class="node">
<title>InterfaceTable</title>
<g id="a_node2"><a xlink:href="inet.networklayer.common.InterfaceTable.html" xlink:title="Simple Module InterfaceTable" target="_parent">
<polygon fill="#fffcaf" stroke="black" points="86,-19 0,-19 0,0 86,0 86,-19"/>
<text text-anchor="middle" x="43" y="-7" font-family="Helvetica,sans-Serif" font-size="10.00">InterfaceTable</text>
</a>
</g>
</g>
<!-- ThroughputServer&#45;&gt;InterfaceTable -->
<g id="edge1" class="edge">
<title>ThroughputServer&#45;&gt;InterfaceTable</title>
<path fill="none" stroke="black" d="M215.06,-54.98C180.05,-45.93 124.53,-31.58 86.07,-21.64"/>
<polygon fill="black" stroke="black" points="86.75,-18.2 76.19,-19.08 85,-24.97 86.75,-18.2"/>
</g>
<!-- IdealChannel -->
<g id="node3" class="node">
<title>IdealChannel</title>
<g id="a_node3"><a xlink:href="ned.IdealChannel.html" xlink:title="Channel IdealChannel" target="_parent">
<polygon fill="#d0ffd0" stroke="black" points="184,-19 104,-19 104,0 184,0 184,-19"/>
<text text-anchor="middle" x="144" y="-7" font-family="Helvetica,sans-Serif" font-size="10.00">IdealChannel</text>
</a>
</g>
</g>
<!-- ThroughputServer&#45;&gt;IdealChannel -->
<g id="edge2" class="edge">
<title>ThroughputServer&#45;&gt;IdealChannel</title>
<path fill="none" stroke="black" d="M231.29,-54.98C214.79,-46.57 189.3,-33.59 170.12,-23.81"/>
<polygon fill="black" stroke="black" points="171.51,-20.59 161.01,-19.17 168.33,-26.83 171.51,-20.59"/>
</g>
<!-- EtherAppServer -->
<g id="node4" class="node">
<title>EtherAppServer</title>
<g id="a_node4"><a xlink:href="inet.applications.ethernet.EtherAppServer.html" xlink:title="Simple Module EtherAppServer" target="_parent">
<polygon fill="#fffcaf" stroke="black" points="294,-19 202,-19 202,0 294,0 294,-19"/>
<text text-anchor="middle" x="248" y="-7" font-family="Helvetica,sans-Serif" font-size="10.00">EtherAppServer</text>
</a>
</g>
</g>
<!-- ThroughputServer&#45;&gt;EtherAppServer -->
<g id="edge3" class="edge">
<title>ThroughputServer&#45;&gt;EtherAppServer</title>
<path fill="none" stroke="black" d="M248,-54.75C248,-47.8 248,-37.85 248,-29.13"/>
<polygon fill="black" stroke="black" points="251.5,-29.09 248,-19.09 244.5,-29.09 251.5,-29.09"/>
</g>
<!-- StationaryMobility -->
<g id="node5" class="node">
<title>StationaryMobility</title>
<g id="a_node5"><a xlink:href="inet.mobility.static.StationaryMobility.html" xlink:title="Simple Module StationaryMobility" target="_parent">
<polygon fill="#fffcaf" stroke="black" points="419.5,-19 312.5,-19 312.5,0 419.5,0 419.5,-19"/>
<text text-anchor="middle" x="366" y="-7" font-family="Helvetica,sans-Serif" font-size="10.00">StationaryMobility</text>
</a>
</g>
</g>
<!-- ThroughputServer&#45;&gt;StationaryMobility -->
<g id="edge4" class="edge">
<title>ThroughputServer&#45;&gt;StationaryMobility</title>
<path fill="none" stroke="black" d="M266.96,-54.98C286.03,-46.42 315.66,-33.11 337.55,-23.28"/>
<polygon fill="black" stroke="black" points="339.01,-26.46 346.7,-19.17 336.14,-20.07 339.01,-26.46"/>
</g>
<!-- Ieee80211Interface -->
<g id="node6" class="node">
<title>Ieee80211Interface</title>
<g id="a_node6"><a xlink:href="inet.linklayer.ieee80211.Ieee80211Interface.html" xlink:title="Compound Module Ieee80211Interface" target="_parent">
<polygon fill="#fffcaf" stroke="black" points="548.5,-19 437.5,-19 437.5,0 548.5,0 548.5,-19"/>
<text text-anchor="middle" x="493" y="-7" font-family="Helvetica,sans-Serif" font-size="10.00">Ieee80211Interface</text>
</a>
</g>
</g>
<!-- ThroughputServer&#45;&gt;Ieee80211Interface -->
<g id="edge5" class="edge">
<title>ThroughputServer&#45;&gt;Ieee80211Interface</title>
<path fill="none" stroke="black" d="M287.36,-54.98C329.74,-45.82 397.26,-31.21 443.28,-21.26"/>
<polygon fill="black" stroke="black" points="444.29,-24.62 453.33,-19.08 442.81,-17.78 444.29,-24.62"/>
</g>
<!-- Throughput -->
<g id="node7" class="node">
<title>Throughput</title>
<g id="a_node7"><a xlink:href="inet.examples.wireless.testnewmac.Throughput.html" xlink:title="Network Throughput" target="_parent">
<polygon fill="#d0d0ff" stroke="black" points="284,-129 212,-129 212,-110 284,-110 284,-129"/>
<text text-anchor="middle" x="248" y="-117" font-family="Helvetica,sans-Serif" font-size="10.00">Throughput</text>
</a>
</g>
</g>
<!-- Throughput&#45;&gt;ThroughputServer -->
<g id="edge6" class="edge">
<title>Throughput&#45;&gt;ThroughputServer</title>
<path fill="none" stroke="black" d="M248,-109.75C248,-102.8 248,-92.85 248,-84.13"/>
<polygon fill="black" stroke="black" points="251.5,-84.09 248,-74.09 244.5,-84.09 251.5,-84.09"/>
</g>
</g>
</svg>
