<?xml version="1.0" encoding="UTF-8" standalone="no"?>
<!DOCTYPE svg PUBLIC "-//W3C//DTD SVG 1.1//EN"
 "http://www.w3.org/Graphics/SVG/1.1/DTD/svg11.dtd">
<!-- Generated by graphviz version 2.43.0 (0)
 -->
<!-- Title: opp Pages: 1 -->
<svg width="425pt" height="137pt"
 viewBox="0.00 0.00 425.00 137.00" xmlns="http://www.w3.org/2000/svg" xmlns:xlink="http://www.w3.org/1999/xlink">
<g id="graph0" class="graph" transform="scale(1 1) rotate(0) translate(4 133)">
<title>opp</title>
<polygon fill="transparent" stroke="transparent" points="-4,4 -4,-133 421,-133 421,4 -4,4"/>
<!-- OSPF_Area3 -->
<g id="node1" class="node">
<title>OSPF_Area3</title>
<g id="a_node1"><a xlink:href="inet.examples.ospfv2.fulltest.OSPF_Area3.html" xlink:title="Compound Module OSPF_Area3" target="_parent">
<polygon fill="#fff700" stroke="black" points="244,-74 168,-74 168,-55 244,-55 244,-74"/>
<text text-anchor="middle" x="206" y="-62" font-family="Helvetica,sans-Serif" font-size="10.00">OSPF_Area3</text>
</a>
</g>
</g>
<!-- C -->
<g id="node2" class="node">
<title>C</title>
<g id="a_node2"><a xlink:href="inet.examples.ospfv2.fulltest.C.html" xlink:title="Channel C" target="_parent">
<polygon fill="#d0ffd0" stroke="black" points="54,-19 0,-19 0,0 54,0 54,-19"/>
<text text-anchor="middle" x="27" y="-7" font-family="Helvetica,sans-Serif" font-size="10.00">C</text>
</a>
</g>
</g>
<!-- OSPF_Area3&#45;&gt;C -->
<g id="edge1" class="edge">
<title>OSPF_Area3&#45;&gt;C</title>
<path fill="none" stroke="black" d="M177.24,-54.98C146.52,-45.89 97.72,-31.44 64.12,-21.49"/>
<polygon fill="black" stroke="black" points="64.8,-18.04 54.22,-18.56 62.82,-24.76 64.8,-18.04"/>
</g>
<!-- IdealChannel -->
<g id="node3" class="node">
<title>IdealChannel</title>
<g id="a_node3"><a xlink:href="ned.IdealChannel.html" xlink:title="Channel IdealChannel" target="_parent">
<polygon fill="#d0ffd0" stroke="black" points="152,-19 72,-19 72,0 152,0 152,-19"/>
<text text-anchor="middle" x="112" y="-7" font-family="Helvetica,sans-Serif" font-size="10.00">IdealChannel</text>
</a>
</g>
</g>
<!-- OSPF_Area3&#45;&gt;IdealChannel -->
<g id="edge2" class="edge">
<title>OSPF_Area3&#45;&gt;IdealChannel</title>
<path fill="none" stroke="black" d="M190.9,-54.98C176.18,-46.69 153.58,-33.94 136.33,-24.22"/>
<polygon fill="black" stroke="black" points="137.81,-21.03 127.38,-19.17 134.37,-27.13 137.81,-21.03"/>
</g>
<!-- OspfRouter -->
<g id="node4" class="node">
<title>OspfRouter</title>
<g id="a_node4"><a xlink:href="inet.node.ospfv2.OspfRouter.html" xlink:title="Compound Module OspfRouter" target="_parent">
<polygon fill="#fffcaf" stroke="black" points="241.5,-19 170.5,-19 170.5,0 241.5,0 241.5,-19"/>
<text text-anchor="middle" x="206" y="-7" font-family="Helvetica,sans-Serif" font-size="10.00">OspfRouter</text>
</a>
</g>
</g>
<!-- OSPF_Area3&#45;&gt;OspfRouter -->
<g id="edge3" class="edge">
<title>OSPF_Area3&#45;&gt;OspfRouter</title>
<path fill="none" stroke="black" d="M206,-54.75C206,-47.8 206,-37.85 206,-29.13"/>
<polygon fill="black" stroke="black" points="209.5,-29.09 206,-19.09 202.5,-29.09 209.5,-29.09"/>
</g>
<!-- StandardHost -->
<g id="node5" class="node">
<title>StandardHost</title>
<g id="a_node5"><a xlink:href="inet.node.inet.StandardHost.html" xlink:title="Compound Module StandardHost" target="_parent">
<polygon fill="#fffcaf" stroke="black" points="342.5,-19 259.5,-19 259.5,0 342.5,0 342.5,-19"/>
<text text-anchor="middle" x="301" y="-7" font-family="Helvetica,sans-Serif" font-size="10.00">StandardHost</text>
</a>
</g>
</g>
<!-- OSPF_Area3&#45;&gt;StandardHost -->
<g id="edge4" class="edge">
<title>OSPF_Area3&#45;&gt;StandardHost</title>
<path fill="none" stroke="black" d="M221.26,-54.98C236.13,-46.69 258.98,-33.94 276.42,-24.22"/>
<polygon fill="black" stroke="black" points="278.43,-27.1 285.46,-19.17 275.02,-20.99 278.43,-27.1"/>
</g>
<!-- OspfLan -->
<g id="node6" class="node">
<title>OspfLan</title>
<g id="a_node6"><a xlink:href="inet.examples.ospfv2.fulltest.OspfLan.html" xlink:title="Compound Module OspfLan" target="_parent">
<polygon fill="#fffcaf" stroke="black" points="417,-19 361,-19 361,0 417,0 417,-19"/>
<text text-anchor="middle" x="389" y="-7" font-family="Helvetica,sans-Serif" font-size="10.00">OspfLan</text>
</a>
</g>
</g>
<!-- OSPF_Area3&#45;&gt;OspfLan -->
<g id="edge5" class="edge">
<title>OSPF_Area3&#45;&gt;OspfLan</title>
<path fill="none" stroke="black" d="M235.4,-54.98C266.85,-45.88 316.83,-31.4 351.19,-21.45"/>
<polygon fill="black" stroke="black" points="352.24,-24.79 360.87,-18.65 350.29,-18.07 352.24,-24.79"/>
</g>
<!-- OSPF_RFC2328_Fig6 -->
<g id="node7" class="node">
<title>OSPF_RFC2328_Fig6</title>
<g id="a_node7"><a xlink:href="inet.examples.ospfv2.fulltest.OSPF_RFC2328_Fig6.html" xlink:title="Network OSPF_RFC2328_Fig6" target="_parent">
<polygon fill="#d0d0ff" stroke="black" points="264,-129 148,-129 148,-110 264,-110 264,-129"/>
<text text-anchor="middle" x="206" y="-117" font-family="Helvetica,sans-Serif" font-size="10.00">OSPF_RFC2328_Fig6</text>
</a>
</g>
</g>
<!-- OSPF_RFC2328_Fig6&#45;&gt;OSPF_Area3 -->
<g id="edge6" class="edge">
<title>OSPF_RFC2328_Fig6&#45;&gt;OSPF_Area3</title>
<path fill="none" stroke="black" d="M206,-109.75C206,-102.8 206,-92.85 206,-84.13"/>
<polygon fill="black" stroke="black" points="209.5,-84.09 206,-74.09 202.5,-84.09 209.5,-84.09"/>
</g>
</g>
</svg>
