<?xml version="1.0" encoding="UTF-8" standalone="no"?>
<!DOCTYPE svg PUBLIC "-//W3C//DTD SVG 1.1//EN"
 "http://www.w3.org/Graphics/SVG/1.1/DTD/svg11.dtd">
<!-- Generated by graphviz version 2.43.0 (0)
 -->
<!-- Title: opp Pages: 1 -->
<svg width="1295pt" height="137pt"
 viewBox="0.00 0.00 1295.00 137.00" xmlns="http://www.w3.org/2000/svg" xmlns:xlink="http://www.w3.org/1999/xlink">
<g id="graph0" class="graph" transform="scale(1 1) rotate(0) translate(4 133)">
<title>opp</title>
<polygon fill="transparent" stroke="transparent" points="-4,4 -4,-133 1291,-133 1291,4 -4,4"/>
<!-- RsvpMplsRouter -->
<g id="node1" class="node">
<title>RsvpMplsRouter</title>
<g id="a_node1"><a xlink:href="inet.node.mpls.RsvpMplsRouter.html" xlink:title="Compound Module RsvpMplsRouter" target="_parent">
<polygon fill="#fff700" stroke="black" points="669,-74 573,-74 573,-55 669,-55 669,-74"/>
<text text-anchor="middle" x="621" y="-62" font-family="Helvetica,sans-Serif" font-size="10.00">RsvpMplsRouter</text>
</a>
</g>
</g>
<!-- InterfaceTable -->
<g id="node2" class="node">
<title>InterfaceTable</title>
<g id="a_node2"><a xlink:href="inet.networklayer.common.InterfaceTable.html" xlink:title="Simple Module InterfaceTable" target="_parent">
<polygon fill="#fffcaf" stroke="black" points="86,-19 0,-19 0,0 86,0 86,-19"/>
<text text-anchor="middle" x="43" y="-7" font-family="Helvetica,sans-Serif" font-size="10.00">InterfaceTable</text>
</a>
</g>
</g>
<!-- RsvpMplsRouter&#45;&gt;InterfaceTable -->
<g id="edge1" class="edge">
<title>RsvpMplsRouter&#45;&gt;InterfaceTable</title>
<path fill="none" stroke="black" d="M572.64,-60.67C481.49,-55.06 277.84,-41.22 96.1,-19.04"/>
<polygon fill="black" stroke="black" points="96.45,-15.56 86.09,-17.81 95.59,-22.5 96.45,-15.56"/>
</g>
<!-- ILoopbackInterface -->
<g id="node3" class="node">
<title>ILoopbackInterface</title>
<g id="a_node3"><a xlink:href="inet.linklayer.contract.ILoopbackInterface.html" xlink:title="Module Interface ILoopbackInterface" target="_parent">
<polygon fill="#fffcaf" stroke="black" stroke-dasharray="5,2" points="214,-19 104,-19 104,0 214,0 214,-19"/>
<text text-anchor="middle" x="159" y="-7" font-family="Helvetica,sans-Serif" font-size="10.00">ILoopbackInterface</text>
</a>
</g>
</g>
<!-- RsvpMplsRouter&#45;&gt;ILoopbackInterface -->
<g id="edge2" class="edge">
<title>RsvpMplsRouter&#45;&gt;ILoopbackInterface</title>
<path fill="none" stroke="black" d="M572.87,-58.44C499.9,-50.71 356.63,-35.24 224.46,-19.16"/>
<polygon fill="black" stroke="black" points="224.5,-15.64 214.15,-17.9 223.65,-22.58 224.5,-15.64"/>
</g>
<!-- IdealChannel -->
<g id="node4" class="node">
<title>IdealChannel</title>
<g id="a_node4"><a xlink:href="ned.IdealChannel.html" xlink:title="Channel IdealChannel" target="_parent">
<polygon fill="#d0ffd0" stroke="black" points="312,-19 232,-19 232,0 312,0 312,-19"/>
<text text-anchor="middle" x="272" y="-7" font-family="Helvetica,sans-Serif" font-size="10.00">IdealChannel</text>
</a>
</g>
</g>
<!-- RsvpMplsRouter&#45;&gt;IdealChannel -->
<g id="edge3" class="edge">
<title>RsvpMplsRouter&#45;&gt;IdealChannel</title>
<path fill="none" stroke="black" d="M572.88,-56.73C515.61,-48.6 416.81,-34.3 322.13,-19.15"/>
<polygon fill="black" stroke="black" points="322.53,-15.67 312.1,-17.54 321.42,-22.58 322.53,-15.67"/>
</g>
<!-- IPppInterface -->
<g id="node5" class="node">
<title>IPppInterface</title>
<g id="a_node5"><a xlink:href="inet.linklayer.contract.IPppInterface.html" xlink:title="Module Interface IPppInterface" target="_parent">
<polygon fill="#fffcaf" stroke="black" stroke-dasharray="5,2" points="411.5,-19 330.5,-19 330.5,0 411.5,0 411.5,-19"/>
<text text-anchor="middle" x="371" y="-7" font-family="Helvetica,sans-Serif" font-size="10.00">IPppInterface</text>
</a>
</g>
</g>
<!-- RsvpMplsRouter&#45;&gt;IPppInterface -->
<g id="edge4" class="edge">
<title>RsvpMplsRouter&#45;&gt;IPppInterface</title>
<path fill="none" stroke="black" d="M580.83,-54.98C537.5,-45.8 468.41,-31.15 421.44,-21.19"/>
<polygon fill="black" stroke="black" points="421.99,-17.73 411.48,-19.08 420.54,-24.58 421.99,-17.73"/>
</g>
<!-- Mpls -->
<g id="node6" class="node">
<title>Mpls</title>
<g id="a_node6"><a xlink:href="inet.networklayer.mpls.Mpls.html" xlink:title="Simple Module Mpls" target="_parent">
<polygon fill="#fffcaf" stroke="black" points="484,-19 430,-19 430,0 484,0 484,-19"/>
<text text-anchor="middle" x="457" y="-7" font-family="Helvetica,sans-Serif" font-size="10.00">Mpls</text>
</a>
</g>
</g>
<!-- RsvpMplsRouter&#45;&gt;Mpls -->
<g id="edge5" class="edge">
<title>RsvpMplsRouter&#45;&gt;Mpls</title>
<path fill="none" stroke="black" d="M594.65,-54.98C567.24,-46.13 524.11,-32.19 493.44,-22.28"/>
<polygon fill="black" stroke="black" points="494.15,-18.83 483.56,-19.08 492,-25.49 494.15,-18.83"/>
</g>
<!-- NodeStatus -->
<g id="node7" class="node">
<title>NodeStatus</title>
<g id="a_node7"><a xlink:href="inet.common.lifecycle.NodeStatus.html" xlink:title="Simple Module NodeStatus" target="_parent">
<polygon fill="#fffcaf" stroke="black" points="575.5,-19 502.5,-19 502.5,0 575.5,0 575.5,-19"/>
<text text-anchor="middle" x="539" y="-7" font-family="Helvetica,sans-Serif" font-size="10.00">NodeStatus</text>
</a>
</g>
</g>
<!-- RsvpMplsRouter&#45;&gt;NodeStatus -->
<g id="edge6" class="edge">
<title>RsvpMplsRouter&#45;&gt;NodeStatus</title>
<path fill="none" stroke="black" d="M607.83,-54.98C595.23,-46.84 576,-34.41 561.06,-24.76"/>
<polygon fill="black" stroke="black" points="562.71,-21.66 552.41,-19.17 558.91,-27.54 562.71,-21.66"/>
</g>
<!-- RsvpTe -->
<g id="node8" class="node">
<title>RsvpTe</title>
<g id="a_node8"><a xlink:href="inet.networklayer.rsvpte.RsvpTe.html" xlink:title="Simple Module RsvpTe" target="_parent">
<polygon fill="#fffcaf" stroke="black" points="648,-19 594,-19 594,0 648,0 648,-19"/>
<text text-anchor="middle" x="621" y="-7" font-family="Helvetica,sans-Serif" font-size="10.00">RsvpTe</text>
</a>
</g>
</g>
<!-- RsvpMplsRouter&#45;&gt;RsvpTe -->
<g id="edge7" class="edge">
<title>RsvpMplsRouter&#45;&gt;RsvpTe</title>
<path fill="none" stroke="black" d="M621,-54.75C621,-47.8 621,-37.85 621,-29.13"/>
<polygon fill="black" stroke="black" points="624.5,-29.09 621,-19.09 617.5,-29.09 624.5,-29.09"/>
</g>
<!-- IIngressClassifier -->
<g id="node9" class="node">
<title>IIngressClassifier</title>
<g id="a_node9"><a xlink:href="inet.networklayer.mpls.IIngressClassifier.html" xlink:title="Module Interface IIngressClassifier" target="_parent">
<polygon fill="#fffcaf" stroke="black" stroke-dasharray="5,2" points="767.5,-19 666.5,-19 666.5,0 767.5,0 767.5,-19"/>
<text text-anchor="middle" x="717" y="-7" font-family="Helvetica,sans-Serif" font-size="10.00">IIngressClassifier</text>
</a>
</g>
</g>
<!-- RsvpMplsRouter&#45;&gt;IIngressClassifier -->
<g id="edge8" class="edge">
<title>RsvpMplsRouter&#45;&gt;IIngressClassifier</title>
<path fill="none" stroke="black" d="M636.42,-54.98C651.45,-46.69 674.54,-33.94 692.16,-24.22"/>
<polygon fill="black" stroke="black" points="694.23,-27.07 701.3,-19.17 690.85,-20.94 694.23,-27.07"/>
</g>
<!-- MessageDispatcher -->
<g id="node10" class="node">
<title>MessageDispatcher</title>
<g id="a_node10"><a xlink:href="inet.common.MessageDispatcher.html" xlink:title="Simple Module MessageDispatcher" target="_parent">
<polygon fill="#fffcaf" stroke="black" points="898.5,-19 785.5,-19 785.5,0 898.5,0 898.5,-19"/>
<text text-anchor="middle" x="842" y="-7" font-family="Helvetica,sans-Serif" font-size="10.00">MessageDispatcher</text>
</a>
</g>
</g>
<!-- RsvpMplsRouter&#45;&gt;MessageDispatcher -->
<g id="edge9" class="edge">
<title>RsvpMplsRouter&#45;&gt;MessageDispatcher</title>
<path fill="none" stroke="black" d="M656.51,-54.98C694.49,-45.87 754.87,-31.4 796.36,-21.45"/>
<polygon fill="black" stroke="black" points="797.31,-24.82 806.21,-19.08 795.67,-18.01 797.31,-24.82"/>
</g>
<!-- Ipv4NetworkLayer -->
<g id="node11" class="node">
<title>Ipv4NetworkLayer</title>
<g id="a_node11"><a xlink:href="inet.networklayer.ipv4.Ipv4NetworkLayer.html" xlink:title="Compound Module Ipv4NetworkLayer" target="_parent">
<polygon fill="#fffcaf" stroke="black" points="1023,-19 917,-19 917,0 1023,0 1023,-19"/>
<text text-anchor="middle" x="970" y="-7" font-family="Helvetica,sans-Serif" font-size="10.00">Ipv4NetworkLayer</text>
</a>
</g>
</g>
<!-- RsvpMplsRouter&#45;&gt;Ipv4NetworkLayer -->
<g id="edge10" class="edge">
<title>RsvpMplsRouter&#45;&gt;Ipv4NetworkLayer</title>
<path fill="none" stroke="black" d="M669.16,-56.19C730.97,-46.8 838.35,-30.49 906.71,-20.11"/>
<polygon fill="black" stroke="black" points="907.55,-23.52 916.91,-18.56 906.5,-16.6 907.55,-23.52"/>
</g>
<!-- LinkStateRouting -->
<g id="node12" class="node">
<title>LinkStateRouting</title>
<g id="a_node12"><a xlink:href="inet.networklayer.ted.LinkStateRouting.html" xlink:title="Simple Module LinkStateRouting" target="_parent">
<polygon fill="#fffcaf" stroke="black" points="1141,-19 1041,-19 1041,0 1141,0 1141,-19"/>
<text text-anchor="middle" x="1091" y="-7" font-family="Helvetica,sans-Serif" font-size="10.00">LinkStateRouting</text>
</a>
</g>
</g>
<!-- RsvpMplsRouter&#45;&gt;LinkStateRouting -->
<g id="edge11" class="edge">
<title>RsvpMplsRouter&#45;&gt;LinkStateRouting</title>
<path fill="none" stroke="black" d="M669.15,-58.84C744.1,-51.47 893.46,-36.29 1030.54,-19.15"/>
<polygon fill="black" stroke="black" points="1031.32,-22.57 1040.8,-17.85 1030.45,-15.63 1031.32,-22.57"/>
</g>
<!-- LibTable -->
<g id="node13" class="node">
<title>LibTable</title>
<g id="a_node13"><a xlink:href="inet.networklayer.mpls.LibTable.html" xlink:title="Simple Module LibTable" target="_parent">
<polygon fill="#fffcaf" stroke="black" points="1215,-19 1159,-19 1159,0 1215,0 1215,-19"/>
<text text-anchor="middle" x="1187" y="-7" font-family="Helvetica,sans-Serif" font-size="10.00">LibTable</text>
</a>
</g>
</g>
<!-- RsvpMplsRouter&#45;&gt;LibTable -->
<g id="edge12" class="edge">
<title>RsvpMplsRouter&#45;&gt;LibTable</title>
<path fill="none" stroke="black" d="M669.05,-61.74C760.6,-57.9 966.41,-46.88 1148.76,-18.97"/>
<polygon fill="black" stroke="black" points="1149.45,-22.4 1158.8,-17.41 1148.38,-15.49 1149.45,-22.4"/>
</g>
<!-- Ted -->
<g id="node14" class="node">
<title>Ted</title>
<g id="a_node14"><a xlink:href="inet.networklayer.ted.Ted.html" xlink:title="Simple Module Ted" target="_parent">
<polygon fill="#fffcaf" stroke="black" points="1287,-19 1233,-19 1233,0 1287,0 1287,-19"/>
<text text-anchor="middle" x="1260" y="-7" font-family="Helvetica,sans-Serif" font-size="10.00">Ted</text>
</a>
</g>
</g>
<!-- RsvpMplsRouter&#45;&gt;Ted -->
<g id="edge13" class="edge">
<title>RsvpMplsRouter&#45;&gt;Ted</title>
<path fill="none" stroke="black" d="M669.36,-62.52C770.48,-59.92 1011.66,-50.8 1222.93,-18.9"/>
<polygon fill="black" stroke="black" points="1223.61,-22.34 1232.96,-17.37 1222.55,-15.42 1223.61,-22.34"/>
</g>
<!-- R37 -->
<g id="node15" class="node">
<title>R37</title>
<g id="a_node15"><a xlink:href="inet.examples.mpls.net37.R37.html" xlink:title="Network R37" target="_parent">
<polygon fill="#d0d0ff" stroke="black" points="501,-129 447,-129 447,-110 501,-110 501,-129"/>
<text text-anchor="middle" x="474" y="-117" font-family="Helvetica,sans-Serif" font-size="10.00">R37</text>
</a>
</g>
</g>
<!-- R37&#45;&gt;RsvpMplsRouter -->
<g id="edge14" class="edge">
<title>R37&#45;&gt;RsvpMplsRouter</title>
<path fill="none" stroke="black" d="M497.62,-109.98C521.9,-101.23 559.95,-87.51 587.37,-77.62"/>
<polygon fill="black" stroke="black" points="588.73,-80.85 596.95,-74.17 586.36,-74.27 588.73,-80.85"/>
</g>
<!-- R37orig -->
<g id="node16" class="node">
<title>R37orig</title>
<g id="a_node16"><a xlink:href="inet.examples.mpls.net37.R37orig.html" xlink:title="Network R37orig" target="_parent">
<polygon fill="#d0d0ff" stroke="black" points="573,-129 519,-129 519,-110 573,-110 573,-129"/>
<text text-anchor="middle" x="546" y="-117" font-family="Helvetica,sans-Serif" font-size="10.00">R37orig</text>
</a>
</g>
</g>
<!-- R37orig&#45;&gt;RsvpMplsRouter -->
<g id="edge15" class="edge">
<title>R37orig&#45;&gt;RsvpMplsRouter</title>
<path fill="none" stroke="black" d="M558.05,-109.98C569.46,-101.92 586.83,-89.65 600.43,-80.03"/>
<polygon fill="black" stroke="black" points="602.58,-82.8 608.73,-74.17 598.54,-77.08 602.58,-82.8"/>
</g>
<!-- RSVPTE4 -->
<g id="node17" class="node">
<title>RSVPTE4</title>
<g id="a_node17"><a xlink:href="inet.examples.mpls.testte_tunnel.RSVPTE4.html" xlink:title="Network RSVPTE4" target="_parent">
<polygon fill="#d0d0ff" stroke="black" points="651,-129 591,-129 591,-110 651,-110 651,-129"/>
<text text-anchor="middle" x="621" y="-117" font-family="Helvetica,sans-Serif" font-size="10.00">RSVPTE4</text>
</a>
</g>
</g>
<!-- RSVPTE4&#45;&gt;RsvpMplsRouter -->
<g id="edge16" class="edge">
<title>RSVPTE4&#45;&gt;RsvpMplsRouter</title>
<path fill="none" stroke="black" d="M600.33,-109.75C594.1,-102.49 592.47,-91.95 595.44,-82.98"/>
<polygon fill="black" stroke="black" points="598.59,-84.52 600.48,-74.09 592.5,-81.07 598.59,-84.52"/>
</g>
<!-- RSVPTE4&#45;&gt;RsvpMplsRouter -->
<g id="edge17" class="edge">
<title>RSVPTE4&#45;&gt;RsvpMplsRouter</title>
<path fill="none" stroke="black" d="M610.67,-109.75C607.65,-102.72 606.79,-92.62 608.08,-83.84"/>
<polygon fill="black" stroke="black" points="611.49,-84.66 610.74,-74.09 604.74,-82.82 611.49,-84.66"/>
</g>
<!-- RSVPTE4&#45;&gt;RsvpMplsRouter -->
<g id="edge18" class="edge">
<title>RSVPTE4&#45;&gt;RsvpMplsRouter</title>
<path fill="none" stroke="black" d="M621,-109.75C621,-102.8 621,-92.85 621,-84.13"/>
<polygon fill="black" stroke="black" points="624.5,-84.09 621,-74.09 617.5,-84.09 624.5,-84.09"/>
</g>
<!-- RSVPTE4&#45;&gt;RsvpMplsRouter -->
<g id="edge19" class="edge">
<title>RSVPTE4&#45;&gt;RsvpMplsRouter</title>
<path fill="none" stroke="black" d="M631.33,-109.75C634.35,-102.72 635.21,-92.62 633.92,-83.84"/>
<polygon fill="black" stroke="black" points="637.26,-82.82 631.26,-74.09 630.51,-84.66 637.26,-82.82"/>
</g>
<!-- RSVPTE4&#45;&gt;RsvpMplsRouter -->
<g id="edge20" class="edge">
<title>RSVPTE4&#45;&gt;RsvpMplsRouter</title>
<path fill="none" stroke="black" d="M641.67,-109.75C647.9,-102.49 649.53,-91.95 646.56,-82.98"/>
<polygon fill="black" stroke="black" points="649.5,-81.07 641.52,-74.09 643.41,-84.52 649.5,-81.07"/>
</g>
</g>
</svg>
