<?xml version="1.0" encoding="UTF-8" standalone="no"?>
<!DOCTYPE svg PUBLIC "-//W3C//DTD SVG 1.1//EN"
 "http://www.w3.org/Graphics/SVG/1.1/DTD/svg11.dtd">
<!-- Generated by graphviz version 2.43.0 (0)
 -->
<!-- Title: opp Pages: 1 -->
<svg width="556pt" height="82pt"
 viewBox="0.00 0.00 555.50 82.00" xmlns="http://www.w3.org/2000/svg" xmlns:xlink="http://www.w3.org/1999/xlink">
<g id="graph0" class="graph" transform="scale(1 1) rotate(0) translate(4 78)">
<title>opp</title>
<polygon fill="transparent" stroke="transparent" points="-4,4 -4,-78 551.5,-78 551.5,4 -4,4"/>
<!-- MulticastNetwork -->
<g id="node1" class="node">
<title>MulticastNetwork</title>
<g id="a_node1"><a xlink:href="inet.examples.inet.multicast.MulticastNetwork.html" xlink:title="Network MulticastNetwork" target="_parent">
<polygon fill="#9090ff" stroke="black" points="313,-74 210,-74 210,-55 313,-55 313,-74"/>
<text text-anchor="middle" x="261.5" y="-62" font-family="Helvetica,sans-Serif" font-size="10.00">MulticastNetwork</text>
</a>
</g>
</g>
<!-- StandardHost -->
<g id="node2" class="node">
<title>StandardHost</title>
<g id="a_node2"><a xlink:href="inet.node.inet.StandardHost.html" xlink:title="Compound Module StandardHost" target="_parent">
<polygon fill="#fffcaf" stroke="black" points="83,-19 0,-19 0,0 83,0 83,-19"/>
<text text-anchor="middle" x="41.5" y="-7" font-family="Helvetica,sans-Serif" font-size="10.00">StandardHost</text>
</a>
</g>
</g>
<!-- MulticastNetwork&#45;&gt;StandardHost -->
<g id="edge1" class="edge">
<title>MulticastNetwork&#45;&gt;StandardHost</title>
<path fill="none" stroke="black" d="M226.15,-54.98C188.34,-45.87 128.24,-31.4 86.93,-21.45"/>
<polygon fill="black" stroke="black" points="87.67,-18.02 77.12,-19.08 86.03,-24.83 87.67,-18.02"/>
</g>
<!-- ethernet -->
<g id="node3" class="node">
<title>ethernet</title>
<g id="a_node3"><a xlink:href="inet.examples.inet.multicast.MulticastNetwork.ethernet.html" xlink:title="Channel ethernet" target="_parent">
<polygon fill="#d0ffd0" stroke="black" points="159.5,-19 101.5,-19 101.5,0 159.5,0 159.5,-19"/>
<text text-anchor="middle" x="130.5" y="-7" font-family="Helvetica,sans-Serif" font-size="10.00">ethernet</text>
</a>
</g>
</g>
<!-- MulticastNetwork&#45;&gt;ethernet -->
<g id="edge2" class="edge">
<title>MulticastNetwork&#45;&gt;ethernet</title>
<path fill="none" stroke="black" d="M240.45,-54.98C219.09,-46.34 185.8,-32.87 161.44,-23.02"/>
<polygon fill="black" stroke="black" points="162.51,-19.68 151.93,-19.17 159.89,-26.17 162.51,-19.68"/>
</g>
<!-- Router -->
<g id="node4" class="node">
<title>Router</title>
<g id="a_node4"><a xlink:href="inet.node.inet.Router.html" xlink:title="Compound Module Router" target="_parent">
<polygon fill="#fffcaf" stroke="black" points="231.5,-19 177.5,-19 177.5,0 231.5,0 231.5,-19"/>
<text text-anchor="middle" x="204.5" y="-7" font-family="Helvetica,sans-Serif" font-size="10.00">Router</text>
</a>
</g>
</g>
<!-- MulticastNetwork&#45;&gt;Router -->
<g id="edge3" class="edge">
<title>MulticastNetwork&#45;&gt;Router</title>
<path fill="none" stroke="black" d="M252.34,-54.98C244,-47.23 231.47,-35.58 221.32,-26.14"/>
<polygon fill="black" stroke="black" points="223.53,-23.42 213.82,-19.17 218.76,-28.54 223.53,-23.42"/>
</g>
<!-- Ipv4NetworkConfigurator -->
<g id="node5" class="node">
<title>Ipv4NetworkConfigurator</title>
<g id="a_node5"><a xlink:href="inet.networklayer.configurator.ipv4.Ipv4NetworkConfigurator.html" xlink:title="Simple Module Ipv4NetworkConfigurator" target="_parent">
<polygon fill="#fffcaf" stroke="black" points="389.5,-19 249.5,-19 249.5,0 389.5,0 389.5,-19"/>
<text text-anchor="middle" x="319.5" y="-7" font-family="Helvetica,sans-Serif" font-size="10.00">Ipv4NetworkConfigurator</text>
</a>
</g>
</g>
<!-- MulticastNetwork&#45;&gt;Ipv4NetworkConfigurator -->
<g id="edge4" class="edge">
<title>MulticastNetwork&#45;&gt;Ipv4NetworkConfigurator</title>
<path fill="none" stroke="black" d="M270.82,-54.98C279.31,-47.23 292.06,-35.58 302.38,-26.14"/>
<polygon fill="black" stroke="black" points="304.99,-28.5 310.01,-19.17 300.27,-23.33 304.99,-28.5"/>
</g>
<!-- fiberrouter -->
<g id="node6" class="node">
<title>fiberrouter</title>
<g id="a_node6"><a xlink:href="inet.examples.inet.multicast.MulticastNetwork.fiberrouter.html" xlink:title="Channel fiberrouter" target="_parent">
<polygon fill="#d0ffd0" stroke="black" points="475.5,-19 407.5,-19 407.5,0 475.5,0 475.5,-19"/>
<text text-anchor="middle" x="441.5" y="-7" font-family="Helvetica,sans-Serif" font-size="10.00">fiberrouter</text>
</a>
</g>
</g>
<!-- MulticastNetwork&#45;&gt;fiberrouter -->
<g id="edge5" class="edge">
<title>MulticastNetwork&#45;&gt;fiberrouter</title>
<path fill="none" stroke="black" d="M290.42,-54.98C320.77,-46.05 368.67,-31.94 402.38,-22.02"/>
<polygon fill="black" stroke="black" points="403.75,-25.26 412.35,-19.08 401.77,-18.55 403.75,-25.26"/>
</g>
<!-- dialup -->
<g id="node7" class="node">
<title>dialup</title>
<g id="a_node7"><a xlink:href="inet.examples.inet.multicast.MulticastNetwork.dialup.html" xlink:title="Channel dialup" target="_parent">
<polygon fill="#d0ffd0" stroke="black" points="547.5,-19 493.5,-19 493.5,0 547.5,0 547.5,-19"/>
<text text-anchor="middle" x="520.5" y="-7" font-family="Helvetica,sans-Serif" font-size="10.00">dialup</text>
</a>
</g>
</g>
<!-- MulticastNetwork&#45;&gt;dialup -->
<g id="edge6" class="edge">
<title>MulticastNetwork&#45;&gt;dialup</title>
<path fill="none" stroke="black" d="M306.87,-54.93C349.88,-46.69 416.55,-33.65 483.52,-19.16"/>
<polygon fill="black" stroke="black" points="484.37,-22.55 493.4,-17.01 482.88,-15.71 484.37,-22.55"/>
</g>
</g>
</svg>
