<?xml version="1.0" encoding="UTF-8" standalone="no"?>
<!DOCTYPE svg PUBLIC "-//W3C//DTD SVG 1.1//EN"
 "http://www.w3.org/Graphics/SVG/1.1/DTD/svg11.dtd">
<!-- Generated by graphviz version 2.43.0 (0)
 -->
<!-- Title: opp Pages: 1 -->
<svg width="440pt" height="82pt"
 viewBox="0.00 0.00 440.00 82.00" xmlns="http://www.w3.org/2000/svg" xmlns:xlink="http://www.w3.org/1999/xlink">
<g id="graph0" class="graph" transform="scale(1 1) rotate(0) translate(4 78)">
<title>opp</title>
<polygon fill="transparent" stroke="transparent" points="-4,4 -4,-78 436,-78 436,4 -4,4"/>
<!-- PriorityQueueTutorialStep -->
<g id="node1" class="node">
<title>PriorityQueueTutorialStep</title>
<g id="a_node1"><a xlink:href="inet.tutorials.queueing.PriorityQueueTutorialStep.html" xlink:title="Network PriorityQueueTutorialStep" target="_parent">
<polygon fill="#9090ff" stroke="black" points="292,-74 151,-74 151,-55 292,-55 292,-74"/>
<text text-anchor="middle" x="221.5" y="-62" font-family="Helvetica,sans-Serif" font-size="10.00">PriorityQueueTutorialStep</text>
</a>
</g>
</g>
<!-- ActivePacketSource -->
<g id="node2" class="node">
<title>ActivePacketSource</title>
<g id="a_node2"><a xlink:href="inet.queueing.source.ActivePacketSource.html" xlink:title="Simple Module ActivePacketSource" target="_parent">
<polygon fill="#fffcaf" stroke="black" points="113,-19 0,-19 0,0 113,0 113,-19"/>
<text text-anchor="middle" x="56.5" y="-7" font-family="Helvetica,sans-Serif" font-size="10.00">ActivePacketSource</text>
</a>
</g>
</g>
<!-- PriorityQueueTutorialStep&#45;&gt;ActivePacketSource -->
<g id="edge1" class="edge">
<title>PriorityQueueTutorialStep&#45;&gt;ActivePacketSource</title>
<path fill="none" stroke="black" d="M194.99,-54.98C167.29,-46.09 123.64,-32.07 92.76,-22.15"/>
<polygon fill="black" stroke="black" points="93.81,-18.81 83.22,-19.08 91.67,-25.47 93.81,-18.81"/>
</g>
<!-- IdealChannel -->
<g id="node3" class="node">
<title>IdealChannel</title>
<g id="a_node3"><a xlink:href="ned.IdealChannel.html" xlink:title="Channel IdealChannel" target="_parent">
<polygon fill="#d0ffd0" stroke="black" points="211.5,-19 131.5,-19 131.5,0 211.5,0 211.5,-19"/>
<text text-anchor="middle" x="171.5" y="-7" font-family="Helvetica,sans-Serif" font-size="10.00">IdealChannel</text>
</a>
</g>
</g>
<!-- PriorityQueueTutorialStep&#45;&gt;IdealChannel -->
<g id="edge2" class="edge">
<title>PriorityQueueTutorialStep&#45;&gt;IdealChannel</title>
<path fill="none" stroke="black" d="M213.24,-54.75C206.04,-47.11 195.39,-35.82 186.65,-26.56"/>
<polygon fill="black" stroke="black" points="189.01,-23.96 179.6,-19.09 183.92,-28.76 189.01,-23.96"/>
</g>
<!-- PriorityQueue -->
<g id="node4" class="node">
<title>PriorityQueue</title>
<g id="a_node4"><a xlink:href="inet.queueing.queue.PriorityQueue.html" xlink:title="Compound Module PriorityQueue" target="_parent">
<polygon fill="#fffcaf" stroke="black" points="313,-19 230,-19 230,0 313,0 313,-19"/>
<text text-anchor="middle" x="271.5" y="-7" font-family="Helvetica,sans-Serif" font-size="10.00">PriorityQueue</text>
</a>
</g>
</g>
<!-- PriorityQueueTutorialStep&#45;&gt;PriorityQueue -->
<g id="edge3" class="edge">
<title>PriorityQueueTutorialStep&#45;&gt;PriorityQueue</title>
<path fill="none" stroke="black" d="M229.76,-54.75C236.96,-47.11 247.61,-35.82 256.35,-26.56"/>
<polygon fill="black" stroke="black" points="259.08,-28.76 263.4,-19.09 253.99,-23.96 259.08,-28.76"/>
</g>
<!-- ActivePacketSink -->
<g id="node5" class="node">
<title>ActivePacketSink</title>
<g id="a_node5"><a xlink:href="inet.queueing.sink.ActivePacketSink.html" xlink:title="Simple Module ActivePacketSink" target="_parent">
<polygon fill="#fffcaf" stroke="black" points="432,-19 331,-19 331,0 432,0 432,-19"/>
<text text-anchor="middle" x="381.5" y="-7" font-family="Helvetica,sans-Serif" font-size="10.00">ActivePacketSink</text>
</a>
</g>
</g>
<!-- PriorityQueueTutorialStep&#45;&gt;ActivePacketSink -->
<g id="edge4" class="edge">
<title>PriorityQueueTutorialStep&#45;&gt;ActivePacketSink</title>
<path fill="none" stroke="black" d="M247.21,-54.98C273.95,-46.13 316.03,-32.19 345.95,-22.28"/>
<polygon fill="black" stroke="black" points="347.2,-25.55 355.59,-19.08 345,-18.9 347.2,-25.55"/>
</g>
</g>
</svg>
