<?xml version="1.0" encoding="UTF-8" standalone="no"?>
<!DOCTYPE svg PUBLIC "-//W3C//DTD SVG 1.1//EN"
 "http://www.w3.org/Graphics/SVG/1.1/DTD/svg11.dtd">
<!-- Generated by graphviz version 2.43.0 (0)
 -->
<!-- Title: opp Pages: 1 -->
<svg width="928pt" height="137pt"
 viewBox="0.00 0.00 928.00 137.00" xmlns="http://www.w3.org/2000/svg" xmlns:xlink="http://www.w3.org/1999/xlink">
<g id="graph0" class="graph" transform="scale(1 1) rotate(0) translate(4 133)">
<title>opp</title>
<polygon fill="transparent" stroke="transparent" points="-4,4 -4,-133 924,-133 924,4 -4,4"/>
<!-- BGPRouterSimple -->
<g id="node1" class="node">
<title>BGPRouterSimple</title>
<g id="a_node1"><a xlink:href="inet.examples.bgpv4.BgpOpen.BGPRouterSimple.html" xlink:title="Compound Module BGPRouterSimple" target="_parent">
<polygon fill="#fff700" stroke="black" points="544.5,-74 441.5,-74 441.5,-55 544.5,-55 544.5,-74"/>
<text text-anchor="middle" x="493" y="-62" font-family="Helvetica,sans-Serif" font-size="10.00">BGPRouterSimple</text>
</a>
</g>
</g>
<!-- InterfaceTable -->
<g id="node2" class="node">
<title>InterfaceTable</title>
<g id="a_node2"><a xlink:href="inet.networklayer.common.InterfaceTable.html" xlink:title="Simple Module InterfaceTable" target="_parent">
<polygon fill="#fffcaf" stroke="black" points="86,-19 0,-19 0,0 86,0 86,-19"/>
<text text-anchor="middle" x="43" y="-7" font-family="Helvetica,sans-Serif" font-size="10.00">InterfaceTable</text>
</a>
</g>
</g>
<!-- BGPRouterSimple&#45;&gt;InterfaceTable -->
<g id="edge1" class="edge">
<title>BGPRouterSimple&#45;&gt;InterfaceTable</title>
<path fill="none" stroke="black" d="M441.38,-58.57C367.31,-51.31 226.37,-36.81 96.25,-19.11"/>
<polygon fill="black" stroke="black" points="96.49,-15.61 86.1,-17.72 95.54,-22.54 96.49,-15.61"/>
</g>
<!-- IdealChannel -->
<g id="node3" class="node">
<title>IdealChannel</title>
<g id="a_node3"><a xlink:href="ned.IdealChannel.html" xlink:title="Channel IdealChannel" target="_parent">
<polygon fill="#d0ffd0" stroke="black" points="184,-19 104,-19 104,0 184,0 184,-19"/>
<text text-anchor="middle" x="144" y="-7" font-family="Helvetica,sans-Serif" font-size="10.00">IdealChannel</text>
</a>
</g>
</g>
<!-- BGPRouterSimple&#45;&gt;IdealChannel -->
<g id="edge2" class="edge">
<title>BGPRouterSimple&#45;&gt;IdealChannel</title>
<path fill="none" stroke="black" d="M441.45,-56.24C383.74,-48.04 287.16,-34.04 194.24,-19.17"/>
<polygon fill="black" stroke="black" points="194.53,-15.67 184.1,-17.54 193.42,-22.58 194.53,-15.67"/>
</g>
<!-- Ipv4RoutingTable -->
<g id="node4" class="node">
<title>Ipv4RoutingTable</title>
<g id="a_node4"><a xlink:href="inet.networklayer.ipv4.Ipv4RoutingTable.html" xlink:title="Simple Module Ipv4RoutingTable" target="_parent">
<polygon fill="#fffcaf" stroke="black" points="303.5,-19 202.5,-19 202.5,0 303.5,0 303.5,-19"/>
<text text-anchor="middle" x="253" y="-7" font-family="Helvetica,sans-Serif" font-size="10.00">Ipv4RoutingTable</text>
</a>
</g>
</g>
<!-- BGPRouterSimple&#45;&gt;Ipv4RoutingTable -->
<g id="edge3" class="edge">
<title>BGPRouterSimple&#45;&gt;Ipv4RoutingTable</title>
<path fill="none" stroke="black" d="M454.44,-54.98C412.93,-45.82 346.79,-31.21 301.71,-21.26"/>
<polygon fill="black" stroke="black" points="302.38,-17.82 291.86,-19.08 300.87,-24.66 302.38,-17.82"/>
</g>
<!-- MessageDispatcher -->
<g id="node5" class="node">
<title>MessageDispatcher</title>
<g id="a_node5"><a xlink:href="inet.common.MessageDispatcher.html" xlink:title="Simple Module MessageDispatcher" target="_parent">
<polygon fill="#fffcaf" stroke="black" points="434.5,-19 321.5,-19 321.5,0 434.5,0 434.5,-19"/>
<text text-anchor="middle" x="378" y="-7" font-family="Helvetica,sans-Serif" font-size="10.00">MessageDispatcher</text>
</a>
</g>
</g>
<!-- BGPRouterSimple&#45;&gt;MessageDispatcher -->
<g id="edge4" class="edge">
<title>BGPRouterSimple&#45;&gt;MessageDispatcher</title>
<path fill="none" stroke="black" d="M474.52,-54.98C456.02,-46.46 427.32,-33.23 406.02,-23.41"/>
<polygon fill="black" stroke="black" points="407.36,-20.18 396.81,-19.17 404.43,-26.53 407.36,-20.18"/>
</g>
<!-- IPppInterface -->
<g id="node6" class="node">
<title>IPppInterface</title>
<g id="a_node6"><a xlink:href="inet.linklayer.contract.IPppInterface.html" xlink:title="Module Interface IPppInterface" target="_parent">
<polygon fill="#fffcaf" stroke="black" stroke-dasharray="5,2" points="533.5,-19 452.5,-19 452.5,0 533.5,0 533.5,-19"/>
<text text-anchor="middle" x="493" y="-7" font-family="Helvetica,sans-Serif" font-size="10.00">IPppInterface</text>
</a>
</g>
</g>
<!-- BGPRouterSimple&#45;&gt;IPppInterface -->
<g id="edge5" class="edge">
<title>BGPRouterSimple&#45;&gt;IPppInterface</title>
<path fill="none" stroke="black" d="M493,-54.75C493,-47.8 493,-37.85 493,-29.13"/>
<polygon fill="black" stroke="black" points="496.5,-29.09 493,-19.09 489.5,-29.09 496.5,-29.09"/>
</g>
<!-- Ipv4NetworkLayer -->
<g id="node7" class="node">
<title>Ipv4NetworkLayer</title>
<g id="a_node7"><a xlink:href="inet.networklayer.ipv4.Ipv4NetworkLayer.html" xlink:title="Compound Module Ipv4NetworkLayer" target="_parent">
<polygon fill="#fffcaf" stroke="black" points="658,-19 552,-19 552,0 658,0 658,-19"/>
<text text-anchor="middle" x="605" y="-7" font-family="Helvetica,sans-Serif" font-size="10.00">Ipv4NetworkLayer</text>
</a>
</g>
</g>
<!-- BGPRouterSimple&#45;&gt;Ipv4NetworkLayer -->
<g id="edge6" class="edge">
<title>BGPRouterSimple&#45;&gt;Ipv4NetworkLayer</title>
<path fill="none" stroke="black" d="M510.99,-54.98C528.93,-46.5 556.72,-33.35 577.43,-23.54"/>
<polygon fill="black" stroke="black" points="579.14,-26.61 586.68,-19.17 576.14,-20.28 579.14,-26.61"/>
</g>
<!-- Bgp -->
<g id="node8" class="node">
<title>Bgp</title>
<g id="a_node8"><a xlink:href="inet.routing.bgpv4.Bgp.html" xlink:title="Simple Module Bgp" target="_parent">
<polygon fill="#fffcaf" stroke="black" points="730,-19 676,-19 676,0 730,0 730,-19"/>
<text text-anchor="middle" x="703" y="-7" font-family="Helvetica,sans-Serif" font-size="10.00">Bgp</text>
</a>
</g>
</g>
<!-- BGPRouterSimple&#45;&gt;Bgp -->
<g id="edge7" class="edge">
<title>BGPRouterSimple&#45;&gt;Bgp</title>
<path fill="none" stroke="black" d="M526.74,-54.98C564.82,-45.37 626.57,-29.79 665.95,-19.85"/>
<polygon fill="black" stroke="black" points="666.86,-23.23 675.7,-17.39 665.15,-16.44 666.86,-23.23"/>
</g>
<!-- MessageChecker -->
<g id="node9" class="node">
<title>MessageChecker</title>
<g id="a_node9"><a xlink:href="inet.common.misc.MessageChecker.html" xlink:title="Simple Module MessageChecker" target="_parent">
<polygon fill="#fffcaf" stroke="black" points="847.5,-19 748.5,-19 748.5,0 847.5,0 847.5,-19"/>
<text text-anchor="middle" x="798" y="-7" font-family="Helvetica,sans-Serif" font-size="10.00">MessageChecker</text>
</a>
</g>
</g>
<!-- BGPRouterSimple&#45;&gt;MessageChecker -->
<g id="edge8" class="edge">
<title>BGPRouterSimple&#45;&gt;MessageChecker</title>
<path fill="none" stroke="black" d="M542,-54.98C595.62,-45.67 681.54,-30.74 738.86,-20.78"/>
<polygon fill="black" stroke="black" points="739.61,-24.2 748.87,-19.04 738.41,-17.3 739.61,-24.2"/>
</g>
<!-- ITcp -->
<g id="node10" class="node">
<title>ITcp</title>
<g id="a_node10"><a xlink:href="inet.transportlayer.contract.ITcp.html" xlink:title="Module Interface ITcp" target="_parent">
<polygon fill="#fffcaf" stroke="black" stroke-dasharray="5,2" points="920,-19 866,-19 866,0 920,0 920,-19"/>
<text text-anchor="middle" x="893" y="-7" font-family="Helvetica,sans-Serif" font-size="10.00">ITcp</text>
</a>
</g>
</g>
<!-- BGPRouterSimple&#45;&gt;ITcp -->
<g id="edge9" class="edge">
<title>BGPRouterSimple&#45;&gt;ITcp</title>
<path fill="none" stroke="black" d="M544.51,-59.01C613.27,-52.61 739,-39.53 855.76,-19.04"/>
<polygon fill="black" stroke="black" points="856.71,-22.42 865.94,-17.23 855.48,-15.53 856.71,-22.42"/>
</g>
<!-- BgpNetwork -->
<g id="node11" class="node">
<title>BgpNetwork</title>
<g id="a_node11"><a xlink:href="inet.examples.bgpv4.BgpOpen.BgpNetwork.html" xlink:title="Network BgpNetwork" target="_parent">
<polygon fill="#d0d0ff" stroke="black" points="531.5,-129 454.5,-129 454.5,-110 531.5,-110 531.5,-129"/>
<text text-anchor="middle" x="493" y="-117" font-family="Helvetica,sans-Serif" font-size="10.00">BgpNetwork</text>
</a>
</g>
</g>
<!-- BgpNetwork&#45;&gt;BGPRouterSimple -->
<g id="edge10" class="edge">
<title>BgpNetwork&#45;&gt;BGPRouterSimple</title>
<path fill="none" stroke="black" d="M493,-109.75C493,-102.8 493,-92.85 493,-84.13"/>
<polygon fill="black" stroke="black" points="496.5,-84.09 493,-74.09 489.5,-84.09 496.5,-84.09"/>
</g>
</g>
</svg>
