<?xml version="1.0" encoding="UTF-8" standalone="no"?>
<!DOCTYPE svg PUBLIC "-//W3C//DTD SVG 1.1//EN"
 "http://www.w3.org/Graphics/SVG/1.1/DTD/svg11.dtd">
<!-- Generated by graphviz version 2.43.0 (0)
 -->
<!-- Title: opp Pages: 1 -->
<svg width="530pt" height="82pt"
 viewBox="0.00 0.00 529.50 82.00" xmlns="http://www.w3.org/2000/svg" xmlns:xlink="http://www.w3.org/1999/xlink">
<g id="graph0" class="graph" transform="scale(1 1) rotate(0) translate(4 78)">
<title>opp</title>
<polygon fill="transparent" stroke="transparent" points="-4,4 -4,-78 525.5,-78 525.5,4 -4,4"/>
<!-- DynamicTest -->
<g id="node1" class="node">
<title>DynamicTest</title>
<g id="a_node1"><a xlink:href="inet.examples.ospfv2.dynamictest.DynamicTest.html" xlink:title="Network DynamicTest" target="_parent">
<polygon fill="#9090ff" stroke="black" points="295.5,-74 215.5,-74 215.5,-55 295.5,-55 295.5,-74"/>
<text text-anchor="middle" x="255.5" y="-62" font-family="Helvetica,sans-Serif" font-size="10.00">DynamicTest</text>
</a>
</g>
</g>
<!-- ScenarioManager -->
<g id="node2" class="node">
<title>ScenarioManager</title>
<g id="a_node2"><a xlink:href="inet.common.scenario.ScenarioManager.html" xlink:title="Simple Module ScenarioManager" target="_parent">
<polygon fill="#fffcaf" stroke="black" points="101,-19 0,-19 0,0 101,0 101,-19"/>
<text text-anchor="middle" x="50.5" y="-7" font-family="Helvetica,sans-Serif" font-size="10.00">ScenarioManager</text>
</a>
</g>
</g>
<!-- DynamicTest&#45;&gt;ScenarioManager -->
<g id="edge1" class="edge">
<title>DynamicTest&#45;&gt;ScenarioManager</title>
<path fill="none" stroke="black" d="M222.56,-54.98C187.55,-45.93 132.03,-31.58 93.57,-21.64"/>
<polygon fill="black" stroke="black" points="94.25,-18.2 83.69,-19.08 92.5,-24.97 94.25,-18.2"/>
</g>
<!-- StandardHost -->
<g id="node3" class="node">
<title>StandardHost</title>
<g id="a_node3"><a xlink:href="inet.node.inet.StandardHost.html" xlink:title="Compound Module StandardHost" target="_parent">
<polygon fill="#fffcaf" stroke="black" points="202,-19 119,-19 119,0 202,0 202,-19"/>
<text text-anchor="middle" x="160.5" y="-7" font-family="Helvetica,sans-Serif" font-size="10.00">StandardHost</text>
</a>
</g>
</g>
<!-- DynamicTest&#45;&gt;StandardHost -->
<g id="edge2" class="edge">
<title>DynamicTest&#45;&gt;StandardHost</title>
<path fill="none" stroke="black" d="M240.24,-54.98C225.37,-46.69 202.52,-33.94 185.08,-24.22"/>
<polygon fill="black" stroke="black" points="186.48,-20.99 176.04,-19.17 183.07,-27.1 186.48,-20.99"/>
</g>
<!-- OspfRouter -->
<g id="node4" class="node">
<title>OspfRouter</title>
<g id="a_node4"><a xlink:href="inet.node.ospfv2.OspfRouter.html" xlink:title="Compound Module OspfRouter" target="_parent">
<polygon fill="#fffcaf" stroke="black" points="291,-19 220,-19 220,0 291,0 291,-19"/>
<text text-anchor="middle" x="255.5" y="-7" font-family="Helvetica,sans-Serif" font-size="10.00">OspfRouter</text>
</a>
</g>
</g>
<!-- DynamicTest&#45;&gt;OspfRouter -->
<g id="edge3" class="edge">
<title>DynamicTest&#45;&gt;OspfRouter</title>
<path fill="none" stroke="black" d="M255.5,-54.75C255.5,-47.8 255.5,-37.85 255.5,-29.13"/>
<polygon fill="black" stroke="black" points="259,-29.09 255.5,-19.09 252,-29.09 259,-29.09"/>
</g>
<!-- Ipv4NetworkConfigurator -->
<g id="node5" class="node">
<title>Ipv4NetworkConfigurator</title>
<g id="a_node5"><a xlink:href="inet.networklayer.configurator.ipv4.Ipv4NetworkConfigurator.html" xlink:title="Simple Module Ipv4NetworkConfigurator" target="_parent">
<polygon fill="#fffcaf" stroke="black" points="449.5,-19 309.5,-19 309.5,0 449.5,0 449.5,-19"/>
<text text-anchor="middle" x="379.5" y="-7" font-family="Helvetica,sans-Serif" font-size="10.00">Ipv4NetworkConfigurator</text>
</a>
</g>
</g>
<!-- DynamicTest&#45;&gt;Ipv4NetworkConfigurator -->
<g id="edge4" class="edge">
<title>DynamicTest&#45;&gt;Ipv4NetworkConfigurator</title>
<path fill="none" stroke="black" d="M275.42,-54.98C295.55,-46.38 326.88,-32.99 349.91,-23.15"/>
<polygon fill="black" stroke="black" points="351.4,-26.32 359.21,-19.17 348.64,-19.88 351.4,-26.32"/>
</g>
<!-- C -->
<g id="node6" class="node">
<title>C</title>
<g id="a_node6"><a xlink:href="inet.examples.ospfv2.dynamictest.DynamicTest.C.html" xlink:title="Channel C" target="_parent">
<polygon fill="#d0ffd0" stroke="black" points="521.5,-19 467.5,-19 467.5,0 521.5,0 521.5,-19"/>
<text text-anchor="middle" x="494.5" y="-7" font-family="Helvetica,sans-Serif" font-size="10.00">C</text>
</a>
</g>
</g>
<!-- DynamicTest&#45;&gt;C -->
<g id="edge5" class="edge">
<title>DynamicTest&#45;&gt;C</title>
<path fill="none" stroke="black" d="M295.22,-54.99C334.09,-46.62 395.25,-33.33 457.4,-19.22"/>
<polygon fill="black" stroke="black" points="458.41,-22.58 467.38,-16.95 456.86,-15.76 458.41,-22.58"/>
</g>
</g>
</svg>
