<?xml version="1.0" encoding="UTF-8" standalone="no"?>
<!DOCTYPE svg PUBLIC "-//W3C//DTD SVG 1.1//EN"
 "http://www.w3.org/Graphics/SVG/1.1/DTD/svg11.dtd">
<!-- Generated by graphviz version 2.43.0 (0)
 -->
<!-- Title: opp Pages: 1 -->
<svg width="194pt" height="137pt"
 viewBox="0.00 0.00 193.50 137.00" xmlns="http://www.w3.org/2000/svg" xmlns:xlink="http://www.w3.org/1999/xlink">
<g id="graph0" class="graph" transform="scale(1 1) rotate(0) translate(4 133)">
<title>opp</title>
<polygon fill="transparent" stroke="transparent" points="-4,4 -4,-133 189.5,-133 189.5,4 -4,4"/>
<!-- ExampleCable -->
<g id="node1" class="node">
<title>ExampleCable</title>
<g id="a_node1"><a xlink:href="inet.tutorials.queueing.ExampleCable.html" xlink:title="Compound Module ExampleCable" target="_parent">
<polygon fill="#fff700" stroke="black" points="134.5,-74 47.5,-74 47.5,-55 134.5,-55 134.5,-74"/>
<text text-anchor="middle" x="91" y="-62" font-family="Helvetica,sans-Serif" font-size="10.00">ExampleCable</text>
</a>
</g>
</g>
<!-- IdealChannel -->
<g id="node2" class="node">
<title>IdealChannel</title>
<g id="a_node2"><a xlink:href="ned.IdealChannel.html" xlink:title="Channel IdealChannel" target="_parent">
<polygon fill="#d0ffd0" stroke="black" points="80,-19 0,-19 0,0 80,0 80,-19"/>
<text text-anchor="middle" x="40" y="-7" font-family="Helvetica,sans-Serif" font-size="10.00">IdealChannel</text>
</a>
</g>
</g>
<!-- ExampleCable&#45;&gt;IdealChannel -->
<g id="edge1" class="edge">
<title>ExampleCable&#45;&gt;IdealChannel</title>
<path fill="none" stroke="black" d="M82.58,-54.75C75.23,-47.11 64.37,-35.82 55.46,-26.56"/>
<polygon fill="black" stroke="black" points="57.72,-23.87 48.26,-19.09 52.68,-28.72 57.72,-23.87"/>
</g>
<!-- PacketDelayer -->
<g id="node3" class="node">
<title>PacketDelayer</title>
<g id="a_node3"><a xlink:href="inet.queueing.common.PacketDelayer.html" xlink:title="Simple Module PacketDelayer" target="_parent">
<polygon fill="#fffcaf" stroke="black" points="185.5,-19 98.5,-19 98.5,0 185.5,0 185.5,-19"/>
<text text-anchor="middle" x="142" y="-7" font-family="Helvetica,sans-Serif" font-size="10.00">PacketDelayer</text>
</a>
</g>
</g>
<!-- ExampleCable&#45;&gt;PacketDelayer -->
<g id="edge2" class="edge">
<title>ExampleCable&#45;&gt;PacketDelayer</title>
<path fill="none" stroke="black" d="M99.42,-54.75C106.77,-47.11 117.63,-35.82 126.54,-26.56"/>
<polygon fill="black" stroke="black" points="129.32,-28.72 133.74,-19.09 124.28,-23.87 129.32,-28.72"/>
</g>
<!-- ExampleNetworkTutorialStep -->
<g id="node4" class="node">
<title>ExampleNetworkTutorialStep</title>
<g id="a_node4"><a xlink:href="inet.tutorials.queueing.ExampleNetworkTutorialStep.html" xlink:title="Network ExampleNetworkTutorialStep" target="_parent">
<polygon fill="#d0d0ff" stroke="black" points="170,-129 12,-129 12,-110 170,-110 170,-129"/>
<text text-anchor="middle" x="91" y="-117" font-family="Helvetica,sans-Serif" font-size="10.00">ExampleNetworkTutorialStep</text>
</a>
</g>
</g>
<!-- ExampleNetworkTutorialStep&#45;&gt;ExampleCable -->
<g id="edge3" class="edge">
<title>ExampleNetworkTutorialStep&#45;&gt;ExampleCable</title>
<path fill="none" stroke="black" d="M91,-109.75C91,-102.8 91,-92.85 91,-84.13"/>
<polygon fill="black" stroke="black" points="94.5,-84.09 91,-74.09 87.5,-84.09 94.5,-84.09"/>
</g>
</g>
</svg>
