<?xml version="1.0" encoding="UTF-8" standalone="no"?>
<!DOCTYPE svg PUBLIC "-//W3C//DTD SVG 1.1//EN"
 "http://www.w3.org/Graphics/SVG/1.1/DTD/svg11.dtd">
<!-- Generated by graphviz version 2.43.0 (0)
 -->
<!-- Title: opp Pages: 1 -->
<svg width="638pt" height="82pt"
 viewBox="0.00 0.00 637.50 82.00" xmlns="http://www.w3.org/2000/svg" xmlns:xlink="http://www.w3.org/1999/xlink">
<g id="graph0" class="graph" transform="scale(1 1) rotate(0) translate(4 78)">
<title>opp</title>
<polygon fill="transparent" stroke="transparent" points="-4,4 -4,-78 633.5,-78 633.5,4 -4,4"/>
<!-- SimpleTest -->
<g id="node1" class="node">
<title>SimpleTest</title>
<g id="a_node1"><a xlink:href="inet.examples.ospfv2.simpletest.SimpleTest.html" xlink:title="Network SimpleTest" target="_parent">
<polygon fill="#9090ff" stroke="black" points="352.5,-74 282.5,-74 282.5,-55 352.5,-55 352.5,-74"/>
<text text-anchor="middle" x="317.5" y="-62" font-family="Helvetica,sans-Serif" font-size="10.00">SimpleTest</text>
</a>
</g>
</g>
<!-- ScenarioManager -->
<g id="node2" class="node">
<title>ScenarioManager</title>
<g id="a_node2"><a xlink:href="inet.common.scenario.ScenarioManager.html" xlink:title="Simple Module ScenarioManager" target="_parent">
<polygon fill="#fffcaf" stroke="black" points="101,-19 0,-19 0,0 101,0 101,-19"/>
<text text-anchor="middle" x="50.5" y="-7" font-family="Helvetica,sans-Serif" font-size="10.00">ScenarioManager</text>
</a>
</g>
</g>
<!-- SimpleTest&#45;&gt;ScenarioManager -->
<g id="edge1" class="edge">
<title>SimpleTest&#45;&gt;ScenarioManager</title>
<path fill="none" stroke="black" d="M282.32,-56.52C236.69,-47.46 156.67,-31.58 103.63,-21.05"/>
<polygon fill="black" stroke="black" points="104.21,-17.59 93.72,-19.08 102.85,-24.46 104.21,-17.59"/>
</g>
<!-- StandardHost -->
<g id="node3" class="node">
<title>StandardHost</title>
<g id="a_node3"><a xlink:href="inet.node.inet.StandardHost.html" xlink:title="Compound Module StandardHost" target="_parent">
<polygon fill="#fffcaf" stroke="black" points="202,-19 119,-19 119,0 202,0 202,-19"/>
<text text-anchor="middle" x="160.5" y="-7" font-family="Helvetica,sans-Serif" font-size="10.00">StandardHost</text>
</a>
</g>
</g>
<!-- SimpleTest&#45;&gt;StandardHost -->
<g id="edge2" class="edge">
<title>SimpleTest&#45;&gt;StandardHost</title>
<path fill="none" stroke="black" d="M292.28,-54.98C266.14,-46.16 225.1,-32.31 195.77,-22.41"/>
<polygon fill="black" stroke="black" points="196.52,-18.96 185.92,-19.08 194.28,-25.6 196.52,-18.96"/>
</g>
<!-- OspfRouter -->
<g id="node4" class="node">
<title>OspfRouter</title>
<g id="a_node4"><a xlink:href="inet.node.ospfv2.OspfRouter.html" xlink:title="Compound Module OspfRouter" target="_parent">
<polygon fill="#fffcaf" stroke="black" points="291,-19 220,-19 220,0 291,0 291,-19"/>
<text text-anchor="middle" x="255.5" y="-7" font-family="Helvetica,sans-Serif" font-size="10.00">OspfRouter</text>
</a>
</g>
</g>
<!-- SimpleTest&#45;&gt;OspfRouter -->
<g id="edge3" class="edge">
<title>SimpleTest&#45;&gt;OspfRouter</title>
<path fill="none" stroke="black" d="M307.54,-54.98C298.37,-47.15 284.56,-35.34 273.47,-25.86"/>
<polygon fill="black" stroke="black" points="275.52,-23.01 265.64,-19.17 270.97,-28.33 275.52,-23.01"/>
</g>
<!-- Ipv4NetworkConfigurator -->
<g id="node5" class="node">
<title>Ipv4NetworkConfigurator</title>
<g id="a_node5"><a xlink:href="inet.networklayer.configurator.ipv4.Ipv4NetworkConfigurator.html" xlink:title="Simple Module Ipv4NetworkConfigurator" target="_parent">
<polygon fill="#fffcaf" stroke="black" points="449.5,-19 309.5,-19 309.5,0 449.5,0 449.5,-19"/>
<text text-anchor="middle" x="379.5" y="-7" font-family="Helvetica,sans-Serif" font-size="10.00">Ipv4NetworkConfigurator</text>
</a>
</g>
</g>
<!-- SimpleTest&#45;&gt;Ipv4NetworkConfigurator -->
<g id="edge4" class="edge">
<title>SimpleTest&#45;&gt;Ipv4NetworkConfigurator</title>
<path fill="none" stroke="black" d="M327.46,-54.98C336.63,-47.15 350.44,-35.34 361.53,-25.86"/>
<polygon fill="black" stroke="black" points="364.03,-28.33 369.36,-19.17 359.48,-23.01 364.03,-28.33"/>
</g>
<!-- C -->
<g id="node6" class="node">
<title>C</title>
<g id="a_node6"><a xlink:href="inet.examples.ospfv2.simpletest.SimpleTest.C.html" xlink:title="Channel C" target="_parent">
<polygon fill="#d0ffd0" stroke="black" points="521.5,-19 467.5,-19 467.5,0 521.5,0 521.5,-19"/>
<text text-anchor="middle" x="494.5" y="-7" font-family="Helvetica,sans-Serif" font-size="10.00">C</text>
</a>
</g>
</g>
<!-- SimpleTest&#45;&gt;C -->
<g id="edge5" class="edge">
<title>SimpleTest&#45;&gt;C</title>
<path fill="none" stroke="black" d="M345.94,-54.98C376.23,-45.92 424.28,-31.53 457.5,-21.58"/>
<polygon fill="black" stroke="black" points="458.72,-24.87 467.3,-18.65 456.71,-18.16 458.72,-24.87"/>
</g>
<!-- EthernetSwitch -->
<g id="node7" class="node">
<title>EthernetSwitch</title>
<g id="a_node7"><a xlink:href="inet.node.ethernet.EthernetSwitch.html" xlink:title="Compound Module EthernetSwitch" target="_parent">
<polygon fill="#fffcaf" stroke="black" points="629.5,-19 539.5,-19 539.5,0 629.5,0 629.5,-19"/>
<text text-anchor="middle" x="584.5" y="-7" font-family="Helvetica,sans-Serif" font-size="10.00">EthernetSwitch</text>
</a>
</g>
</g>
<!-- SimpleTest&#45;&gt;EthernetSwitch -->
<g id="edge6" class="edge">
<title>SimpleTest&#45;&gt;EthernetSwitch</title>
<path fill="none" stroke="black" d="M352.68,-56.52C398.31,-47.46 478.33,-31.58 531.37,-21.05"/>
<polygon fill="black" stroke="black" points="532.15,-24.46 541.28,-19.08 530.79,-17.59 532.15,-24.46"/>
</g>
</g>
</svg>
