<?xml version="1.0" encoding="UTF-8" standalone="no"?>
<!DOCTYPE svg PUBLIC "-//W3C//DTD SVG 1.1//EN"
 "http://www.w3.org/Graphics/SVG/1.1/DTD/svg11.dtd">
<!-- Generated by graphviz version 2.43.0 (0)
 -->
<!-- Title: opp Pages: 1 -->
<svg width="293pt" height="82pt"
 viewBox="0.00 0.00 292.50 82.00" xmlns="http://www.w3.org/2000/svg" xmlns:xlink="http://www.w3.org/1999/xlink">
<g id="graph0" class="graph" transform="scale(1 1) rotate(0) translate(4 78)">
<title>opp</title>
<polygon fill="transparent" stroke="transparent" points="-4,4 -4,-78 288.5,-78 288.5,4 -4,4"/>
<!-- ShortcutMac -->
<g id="node1" class="node">
<title>ShortcutMac</title>
<g id="a_node1"><a xlink:href="inet.linklayer.shortcut.ShortcutMac.html" xlink:title="Simple Module ShortcutMac" target="_parent">
<polygon fill="#fff700" stroke="black" points="191,-19 114,-19 114,0 191,0 191,-19"/>
<text text-anchor="middle" x="152.5" y="-7" font-family="Helvetica,sans-Serif" font-size="10.00">ShortcutMac</text>
</a>
</g>
</g>
<!-- MacProtocolBase -->
<g id="node2" class="node">
<title>MacProtocolBase</title>
<g id="a_node2"><a xlink:href="inet.linklayer.base.MacProtocolBase.html" xlink:title="Simple Module MacProtocolBase" target="_parent">
<polygon fill="#fffcaf" stroke="black" points="101,-74 0,-74 0,-55 101,-55 101,-74"/>
<text text-anchor="middle" x="50.5" y="-62" font-family="Helvetica,sans-Serif" font-size="10.00">MacProtocolBase</text>
</a>
</g>
</g>
<!-- MacProtocolBase&#45;&gt;ShortcutMac -->
<g id="edge1" class="edge">
<title>MacProtocolBase&#45;&gt;ShortcutMac</title>
<path fill="none" stroke="black" d="M66.89,-54.98C85.81,-45.15 116.77,-29.07 135.81,-19.17"/>
</g>
<!-- ILinkLayer -->
<g id="node3" class="node">
<title>ILinkLayer</title>
<g id="a_node3"><a xlink:href="inet.linklayer.contract.ILinkLayer.html" xlink:title="Module Interface ILinkLayer" target="_parent">
<polygon fill="#fffcaf" stroke="black" stroke-dasharray="5,2" points="186,-74 119,-74 119,-55 186,-55 186,-74"/>
<text text-anchor="middle" x="152.5" y="-62" font-family="Helvetica,sans-Serif" font-size="10.00">ILinkLayer</text>
</a>
</g>
</g>
<!-- ILinkLayer&#45;&gt;ShortcutMac -->
<g id="edge2" class="edge">
<title>ILinkLayer&#45;&gt;ShortcutMac</title>
<path fill="none" stroke="black" stroke-dasharray="5,2" d="M152.5,-54.75C152.5,-44.87 152.5,-28.9 152.5,-19.09"/>
</g>
<!-- IMacProtocol -->
<g id="node4" class="node">
<title>IMacProtocol</title>
<g id="a_node4"><a xlink:href="inet.linklayer.contract.IMacProtocol.html" xlink:title="Module Interface IMacProtocol" target="_parent">
<polygon fill="#fffcaf" stroke="black" stroke-dasharray="5,2" points="284.5,-74 204.5,-74 204.5,-55 284.5,-55 284.5,-74"/>
<text text-anchor="middle" x="244.5" y="-62" font-family="Helvetica,sans-Serif" font-size="10.00">IMacProtocol</text>
</a>
</g>
</g>
<!-- IMacProtocol&#45;&gt;ShortcutMac -->
<g id="edge3" class="edge">
<title>IMacProtocol&#45;&gt;ShortcutMac</title>
<path fill="none" stroke="black" stroke-dasharray="5,2" d="M229.72,-54.98C212.65,-45.15 184.73,-29.07 167.55,-19.17"/>
</g>
</g>
</svg>
