<?xml version="1.0" encoding="UTF-8" standalone="no"?>
<!DOCTYPE svg PUBLIC "-//W3C//DTD SVG 1.1//EN"
 "http://www.w3.org/Graphics/SVG/1.1/DTD/svg11.dtd">
<!-- Generated by graphviz version 2.43.0 (0)
 -->
<!-- Title: opp Pages: 1 -->
<svg width="681pt" height="82pt"
 viewBox="0.00 0.00 681.00 82.00" xmlns="http://www.w3.org/2000/svg" xmlns:xlink="http://www.w3.org/1999/xlink">
<g id="graph0" class="graph" transform="scale(1 1) rotate(0) translate(4 78)">
<title>opp</title>
<polygon fill="transparent" stroke="transparent" points="-4,4 -4,-78 677,-78 677,4 -4,4"/>
<!-- GPSRNetworkRandom -->
<g id="node1" class="node">
<title>GPSRNetworkRandom</title>
<g id="a_node1"><a xlink:href="inet.examples.manetrouting.gpsr.GPSRNetworkRandom.html" xlink:title="Network GPSRNetworkRandom" target="_parent">
<polygon fill="#9090ff" stroke="black" points="402,-74 277,-74 277,-55 402,-55 402,-74"/>
<text text-anchor="middle" x="339.5" y="-62" font-family="Helvetica,sans-Serif" font-size="10.00">GPSRNetworkRandom</text>
</a>
</g>
</g>
<!-- ScenarioManager -->
<g id="node2" class="node">
<title>ScenarioManager</title>
<g id="a_node2"><a xlink:href="inet.common.scenario.ScenarioManager.html" xlink:title="Simple Module ScenarioManager" target="_parent">
<polygon fill="#fffcaf" stroke="black" points="101,-19 0,-19 0,0 101,0 101,-19"/>
<text text-anchor="middle" x="50.5" y="-7" font-family="Helvetica,sans-Serif" font-size="10.00">ScenarioManager</text>
</a>
</g>
</g>
<!-- GPSRNetworkRandom&#45;&gt;ScenarioManager -->
<g id="edge1" class="edge">
<title>GPSRNetworkRandom&#45;&gt;ScenarioManager</title>
<path fill="none" stroke="black" d="M293.07,-54.98C242.55,-45.72 161.76,-30.9 107.45,-20.94"/>
<polygon fill="black" stroke="black" points="107.76,-17.44 97.3,-19.08 106.5,-24.33 107.76,-17.44"/>
</g>
<!-- Ipv4NetworkConfigurator -->
<g id="node3" class="node">
<title>Ipv4NetworkConfigurator</title>
<g id="a_node3"><a xlink:href="inet.networklayer.configurator.ipv4.Ipv4NetworkConfigurator.html" xlink:title="Simple Module Ipv4NetworkConfigurator" target="_parent">
<polygon fill="#fffcaf" stroke="black" points="259.5,-19 119.5,-19 119.5,0 259.5,0 259.5,-19"/>
<text text-anchor="middle" x="189.5" y="-7" font-family="Helvetica,sans-Serif" font-size="10.00">Ipv4NetworkConfigurator</text>
</a>
</g>
</g>
<!-- GPSRNetworkRandom&#45;&gt;Ipv4NetworkConfigurator -->
<g id="edge2" class="edge">
<title>GPSRNetworkRandom&#45;&gt;Ipv4NetworkConfigurator</title>
<path fill="none" stroke="black" d="M315.4,-54.98C290.62,-46.23 251.8,-32.51 223.81,-22.62"/>
<polygon fill="black" stroke="black" points="224.63,-19.2 214.04,-19.17 222.3,-25.8 224.63,-19.2"/>
</g>
<!-- RoutingTableRecorder -->
<g id="node4" class="node">
<title>RoutingTableRecorder</title>
<g id="a_node4"><a xlink:href="inet.networklayer.ipv4.RoutingTableRecorder.html" xlink:title="Simple Module RoutingTableRecorder" target="_parent">
<polygon fill="#fffcaf" stroke="black" points="401,-19 278,-19 278,0 401,0 401,-19"/>
<text text-anchor="middle" x="339.5" y="-7" font-family="Helvetica,sans-Serif" font-size="10.00">RoutingTableRecorder</text>
</a>
</g>
</g>
<!-- GPSRNetworkRandom&#45;&gt;RoutingTableRecorder -->
<g id="edge3" class="edge">
<title>GPSRNetworkRandom&#45;&gt;RoutingTableRecorder</title>
<path fill="none" stroke="black" d="M339.5,-54.75C339.5,-47.8 339.5,-37.85 339.5,-29.13"/>
<polygon fill="black" stroke="black" points="343,-29.09 339.5,-19.09 336,-29.09 343,-29.09"/>
</g>
<!-- GpsrRouter -->
<g id="node5" class="node">
<title>GpsrRouter</title>
<g id="a_node5"><a xlink:href="inet.node.gpsr.GpsrRouter.html" xlink:title="Compound Module GpsrRouter" target="_parent">
<polygon fill="#fffcaf" stroke="black" points="490,-19 419,-19 419,0 490,0 490,-19"/>
<text text-anchor="middle" x="454.5" y="-7" font-family="Helvetica,sans-Serif" font-size="10.00">GpsrRouter</text>
</a>
</g>
</g>
<!-- GPSRNetworkRandom&#45;&gt;GpsrRouter -->
<g id="edge4" class="edge">
<title>GPSRNetworkRandom&#45;&gt;GpsrRouter</title>
<path fill="none" stroke="black" d="M357.98,-54.98C376.48,-46.46 405.18,-33.23 426.48,-23.41"/>
<polygon fill="black" stroke="black" points="428.07,-26.53 435.69,-19.17 425.14,-20.18 428.07,-26.53"/>
</g>
<!-- Ieee80211ScalarRadioMedium -->
<g id="node6" class="node">
<title>Ieee80211ScalarRadioMedium</title>
<g id="a_node6"><a xlink:href="inet.physicallayer.wireless.ieee80211.packetlevel.Ieee80211ScalarRadioMedium.html" xlink:title="Compound Module Ieee80211ScalarRadioMedium" target="_parent">
<polygon fill="#fffcaf" stroke="black" points="673,-19 508,-19 508,0 673,0 673,-19"/>
<text text-anchor="middle" x="590.5" y="-7" font-family="Helvetica,sans-Serif" font-size="10.00">Ieee80211ScalarRadioMedium</text>
</a>
</g>
</g>
<!-- GPSRNetworkRandom&#45;&gt;Ieee80211ScalarRadioMedium -->
<g id="edge5" class="edge">
<title>GPSRNetworkRandom&#45;&gt;Ieee80211ScalarRadioMedium</title>
<path fill="none" stroke="black" d="M379.83,-54.98C423.34,-45.8 492.7,-31.15 539.85,-21.19"/>
<polygon fill="black" stroke="black" points="540.8,-24.57 549.86,-19.08 539.35,-17.72 540.8,-24.57"/>
</g>
</g>
</svg>
