<?xml version="1.0" encoding="UTF-8" standalone="no"?>
<!DOCTYPE svg PUBLIC "-//W3C//DTD SVG 1.1//EN"
 "http://www.w3.org/Graphics/SVG/1.1/DTD/svg11.dtd">
<!-- Generated by graphviz version 2.43.0 (0)
 -->
<!-- Title: opp Pages: 1 -->
<svg width="465pt" height="137pt"
 viewBox="0.00 0.00 465.00 137.00" xmlns="http://www.w3.org/2000/svg" xmlns:xlink="http://www.w3.org/1999/xlink">
<g id="graph0" class="graph" transform="scale(1 1) rotate(0) translate(4 133)">
<title>opp</title>
<polygon fill="transparent" stroke="transparent" points="-4,4 -4,-133 461,-133 461,4 -4,4"/>
<!-- PacketQueue -->
<g id="node1" class="node">
<title>PacketQueue</title>
<g id="a_node1"><a xlink:href="inet.queueing.queue.PacketQueue.html" xlink:title="Simple Module PacketQueue" target="_parent">
<polygon fill="#fff700" stroke="black" points="259.5,-74 179.5,-74 179.5,-55 259.5,-55 259.5,-74"/>
<text text-anchor="middle" x="219.5" y="-62" font-family="Helvetica,sans-Serif" font-size="10.00">PacketQueue</text>
</a>
</g>
</g>
<!-- DropHeadQueue -->
<g id="node4" class="node">
<title>DropHeadQueue</title>
<g id="a_node4"><a xlink:href="inet.queueing.queue.DropHeadQueue.html" xlink:title="Simple Module DropHeadQueue" target="_parent">
<polygon fill="#fffcaf" stroke="black" points="97,-19 0,-19 0,0 97,0 97,-19"/>
<text text-anchor="middle" x="48.5" y="-7" font-family="Helvetica,sans-Serif" font-size="10.00">DropHeadQueue</text>
</a>
</g>
</g>
<!-- PacketQueue&#45;&gt;DropHeadQueue -->
<g id="edge3" class="edge">
<title>PacketQueue&#45;&gt;DropHeadQueue</title>
<path fill="none" stroke="black" d="M192.03,-54.98C160.21,-45.12 108.1,-28.97 76.19,-19.08"/>
</g>
<!-- DropTailQueue -->
<g id="node5" class="node">
<title>DropTailQueue</title>
<g id="a_node5"><a xlink:href="inet.queueing.queue.DropTailQueue.html" xlink:title="Simple Module DropTailQueue" target="_parent">
<polygon fill="#fffcaf" stroke="black" points="203.5,-19 115.5,-19 115.5,0 203.5,0 203.5,-19"/>
<text text-anchor="middle" x="159.5" y="-7" font-family="Helvetica,sans-Serif" font-size="10.00">DropTailQueue</text>
</a>
</g>
</g>
<!-- PacketQueue&#45;&gt;DropTailQueue -->
<g id="edge4" class="edge">
<title>PacketQueue&#45;&gt;DropTailQueue</title>
<path fill="none" stroke="black" d="M209.86,-54.98C198.73,-45.15 180.52,-29.07 169.32,-19.17"/>
</g>
<!-- EligibilityTimeQueue -->
<g id="node6" class="node">
<title>EligibilityTimeQueue</title>
<g id="a_node6"><a xlink:href="inet.protocolelement.shaper.EligibilityTimeQueue.html" xlink:title="Simple Module EligibilityTimeQueue" target="_parent">
<polygon fill="#fffcaf" stroke="black" points="339.5,-19 221.5,-19 221.5,0 339.5,0 339.5,-19"/>
<text text-anchor="middle" x="280.5" y="-7" font-family="Helvetica,sans-Serif" font-size="10.00">EligibilityTimeQueue</text>
</a>
</g>
</g>
<!-- PacketQueue&#45;&gt;EligibilityTimeQueue -->
<g id="edge5" class="edge">
<title>PacketQueue&#45;&gt;EligibilityTimeQueue</title>
<path fill="none" stroke="black" d="M229.3,-54.98C240.62,-45.15 259.13,-29.07 270.52,-19.17"/>
</g>
<!-- InProgressQueue -->
<g id="node7" class="node">
<title>InProgressQueue</title>
<g id="a_node7"><a xlink:href="inet.queueing.queue.InProgressQueue.html" xlink:title="Simple Module InProgressQueue" target="_parent">
<polygon fill="#fffcaf" stroke="black" points="457,-19 358,-19 358,0 457,0 457,-19"/>
<text text-anchor="middle" x="407.5" y="-7" font-family="Helvetica,sans-Serif" font-size="10.00">InProgressQueue</text>
</a>
</g>
</g>
<!-- PacketQueue&#45;&gt;InProgressQueue -->
<g id="edge6" class="edge">
<title>PacketQueue&#45;&gt;InProgressQueue</title>
<path fill="none" stroke="black" d="M249.71,-54.98C284.68,-45.12 341.98,-28.97 377.06,-19.08"/>
</g>
<!-- PacketQueueBase -->
<g id="node2" class="node">
<title>PacketQueueBase</title>
<g id="a_node2"><a xlink:href="inet.queueing.base.PacketQueueBase.html" xlink:title="Simple Module PacketQueueBase" target="_parent">
<polygon fill="#fffcaf" stroke="black" points="215.5,-129 111.5,-129 111.5,-110 215.5,-110 215.5,-129"/>
<text text-anchor="middle" x="163.5" y="-117" font-family="Helvetica,sans-Serif" font-size="10.00">PacketQueueBase</text>
</a>
</g>
</g>
<!-- PacketQueueBase&#45;&gt;PacketQueue -->
<g id="edge1" class="edge">
<title>PacketQueueBase&#45;&gt;PacketQueue</title>
<path fill="none" stroke="black" d="M172.5,-109.98C182.89,-100.15 199.88,-84.07 210.34,-74.17"/>
</g>
<!-- IPacketQueue -->
<g id="node3" class="node">
<title>IPacketQueue</title>
<g id="a_node3"><a xlink:href="inet.queueing.contract.IPacketQueue.html" xlink:title="Module Interface IPacketQueue" target="_parent">
<polygon fill="#fffcaf" stroke="black" stroke-dasharray="5,2" points="317,-129 234,-129 234,-110 317,-110 317,-129"/>
<text text-anchor="middle" x="275.5" y="-117" font-family="Helvetica,sans-Serif" font-size="10.00">IPacketQueue</text>
</a>
</g>
</g>
<!-- IPacketQueue&#45;&gt;PacketQueue -->
<g id="edge2" class="edge">
<title>IPacketQueue&#45;&gt;PacketQueue</title>
<path fill="none" stroke="black" stroke-dasharray="5,2" d="M266.5,-109.98C256.11,-100.15 239.12,-84.07 228.66,-74.17"/>
</g>
</g>
</svg>
