<?xml version="1.0" encoding="UTF-8" standalone="no"?>
<!DOCTYPE svg PUBLIC "-//W3C//DTD SVG 1.1//EN"
 "http://www.w3.org/Graphics/SVG/1.1/DTD/svg11.dtd">
<!-- Generated by graphviz version 2.43.0 (0)
 -->
<!-- Title: opp Pages: 1 -->
<svg width="897pt" height="82pt"
 viewBox="0.00 0.00 897.00 82.00" xmlns="http://www.w3.org/2000/svg" xmlns:xlink="http://www.w3.org/1999/xlink">
<g id="graph0" class="graph" transform="scale(1 1) rotate(0) translate(4 78)">
<title>opp</title>
<polygon fill="transparent" stroke="transparent" points="-4,4 -4,-78 893,-78 893,4 -4,4"/>
<!-- EthernetPreemptingPhyLayer -->
<g id="node1" class="node">
<title>EthernetPreemptingPhyLayer</title>
<g id="a_node1"><a xlink:href="inet.physicallayer.wired.ethernet.EthernetPreemptingPhyLayer.html" xlink:title="Compound Module EthernetPreemptingPhyLayer" target="_parent">
<polygon fill="#fff700" stroke="black" points="536,-74 377,-74 377,-55 536,-55 536,-74"/>
<text text-anchor="middle" x="456.5" y="-62" font-family="Helvetica,sans-Serif" font-size="10.00">EthernetPreemptingPhyLayer</text>
</a>
</g>
</g>
<!-- PacketClassifier -->
<g id="node2" class="node">
<title>PacketClassifier</title>
<g id="a_node2"><a xlink:href="inet.queueing.classifier.PacketClassifier.html" xlink:title="Simple Module PacketClassifier" target="_parent">
<polygon fill="#fffcaf" stroke="black" points="95,-19 0,-19 0,0 95,0 95,-19"/>
<text text-anchor="middle" x="47.5" y="-7" font-family="Helvetica,sans-Serif" font-size="10.00">PacketClassifier</text>
</a>
</g>
</g>
<!-- EthernetPreemptingPhyLayer&#45;&gt;PacketClassifier -->
<g id="edge1" class="edge">
<title>EthernetPreemptingPhyLayer&#45;&gt;PacketClassifier</title>
<path fill="none" stroke="black" d="M385.31,-54.97C316.39,-46.61 208.67,-33.25 105.08,-19.05"/>
<polygon fill="black" stroke="black" points="105.46,-15.57 95.07,-17.68 104.5,-22.51 105.46,-15.57"/>
</g>
<!-- IdealChannel -->
<g id="node3" class="node">
<title>IdealChannel</title>
<g id="a_node3"><a xlink:href="ned.IdealChannel.html" xlink:title="Channel IdealChannel" target="_parent">
<polygon fill="#d0ffd0" stroke="black" points="193.5,-19 113.5,-19 113.5,0 193.5,0 193.5,-19"/>
<text text-anchor="middle" x="153.5" y="-7" font-family="Helvetica,sans-Serif" font-size="10.00">IdealChannel</text>
</a>
</g>
</g>
<!-- EthernetPreemptingPhyLayer&#45;&gt;IdealChannel -->
<g id="edge2" class="edge">
<title>EthernetPreemptingPhyLayer&#45;&gt;IdealChannel</title>
<path fill="none" stroke="black" d="M407.82,-54.98C351.91,-45.21 260.63,-29.24 203.98,-19.33"/>
<polygon fill="black" stroke="black" points="204.28,-15.83 193.82,-17.55 203.07,-22.72 204.28,-15.83"/>
</g>
<!-- IPacketReceiver -->
<g id="node4" class="node">
<title>IPacketReceiver</title>
<g id="a_node4"><a xlink:href="inet.protocolelement.transceiver.contract.IPacketReceiver.html" xlink:title="Module Interface IPacketReceiver" target="_parent">
<polygon fill="#fffcaf" stroke="black" stroke-dasharray="5,2" points="307,-19 212,-19 212,0 307,0 307,-19"/>
<text text-anchor="middle" x="259.5" y="-7" font-family="Helvetica,sans-Serif" font-size="10.00">IPacketReceiver</text>
</a>
</g>
</g>
<!-- EthernetPreemptingPhyLayer&#45;&gt;IPacketReceiver -->
<g id="edge3" class="edge">
<title>EthernetPreemptingPhyLayer&#45;&gt;IPacketReceiver</title>
<path fill="none" stroke="black" d="M424.85,-54.98C391.34,-45.97 338.3,-31.7 301.36,-21.76"/>
<polygon fill="black" stroke="black" points="301.97,-18.3 291.4,-19.08 300.15,-25.06 301.97,-18.3"/>
</g>
<!-- InterpacketGapInserter -->
<g id="node5" class="node">
<title>InterpacketGapInserter</title>
<g id="a_node5"><a xlink:href="inet.protocolelement.common.InterpacketGapInserter.html" xlink:title="Simple Module InterpacketGapInserter" target="_parent">
<polygon fill="#fffcaf" stroke="black" points="453.5,-19 325.5,-19 325.5,0 453.5,0 453.5,-19"/>
<text text-anchor="middle" x="389.5" y="-7" font-family="Helvetica,sans-Serif" font-size="10.00">InterpacketGapInserter</text>
</a>
</g>
</g>
<!-- EthernetPreemptingPhyLayer&#45;&gt;InterpacketGapInserter -->
<g id="edge4" class="edge">
<title>EthernetPreemptingPhyLayer&#45;&gt;InterpacketGapInserter</title>
<path fill="none" stroke="black" d="M445.74,-54.98C435.73,-47.07 420.61,-35.11 408.57,-25.58"/>
<polygon fill="black" stroke="black" points="410.47,-22.63 400.46,-19.17 406.13,-28.12 410.47,-22.63"/>
</g>
<!-- PacketMultiplexer -->
<g id="node6" class="node">
<title>PacketMultiplexer</title>
<g id="a_node6"><a xlink:href="inet.queueing.common.PacketMultiplexer.html" xlink:title="Simple Module PacketMultiplexer" target="_parent">
<polygon fill="#fffcaf" stroke="black" points="575.5,-19 471.5,-19 471.5,0 575.5,0 575.5,-19"/>
<text text-anchor="middle" x="523.5" y="-7" font-family="Helvetica,sans-Serif" font-size="10.00">PacketMultiplexer</text>
</a>
</g>
</g>
<!-- EthernetPreemptingPhyLayer&#45;&gt;PacketMultiplexer -->
<g id="edge5" class="edge">
<title>EthernetPreemptingPhyLayer&#45;&gt;PacketMultiplexer</title>
<path fill="none" stroke="black" d="M467.26,-54.98C477.27,-47.07 492.39,-35.11 504.43,-25.58"/>
<polygon fill="black" stroke="black" points="506.87,-28.12 512.54,-19.17 502.53,-22.63 506.87,-28.12"/>
</g>
<!-- IPacketFilter -->
<g id="node7" class="node">
<title>IPacketFilter</title>
<g id="a_node7"><a xlink:href="inet.queueing.contract.IPacketFilter.html" xlink:title="Module Interface IPacketFilter" target="_parent">
<polygon fill="#fffcaf" stroke="black" stroke-dasharray="5,2" points="669.5,-19 593.5,-19 593.5,0 669.5,0 669.5,-19"/>
<text text-anchor="middle" x="631.5" y="-7" font-family="Helvetica,sans-Serif" font-size="10.00">IPacketFilter</text>
</a>
</g>
</g>
<!-- EthernetPreemptingPhyLayer&#45;&gt;IPacketFilter -->
<g id="edge6" class="edge">
<title>EthernetPreemptingPhyLayer&#45;&gt;IPacketFilter</title>
<path fill="none" stroke="black" d="M484.62,-54.98C514.12,-46.05 560.69,-31.94 593.47,-22.02"/>
<polygon fill="black" stroke="black" points="594.61,-25.33 603.16,-19.08 592.58,-18.63 594.61,-25.33"/>
</g>
<!-- IPacketTransmitter -->
<g id="node8" class="node">
<title>IPacketTransmitter</title>
<g id="a_node8"><a xlink:href="inet.protocolelement.transceiver.contract.IPacketTransmitter.html" xlink:title="Module Interface IPacketTransmitter" target="_parent">
<polygon fill="#fffcaf" stroke="black" stroke-dasharray="5,2" points="795.5,-19 687.5,-19 687.5,0 795.5,0 795.5,-19"/>
<text text-anchor="middle" x="741.5" y="-7" font-family="Helvetica,sans-Serif" font-size="10.00">IPacketTransmitter</text>
</a>
</g>
</g>
<!-- EthernetPreemptingPhyLayer&#45;&gt;IPacketTransmitter -->
<g id="edge7" class="edge">
<title>EthernetPreemptingPhyLayer&#45;&gt;IPacketTransmitter</title>
<path fill="none" stroke="black" d="M502.29,-54.98C552.11,-45.72 631.78,-30.9 685.34,-20.94"/>
<polygon fill="black" stroke="black" points="686.16,-24.35 695.35,-19.08 684.88,-17.47 686.16,-24.35"/>
</g>
<!-- IPacketFlow -->
<g id="node9" class="node">
<title>IPacketFlow</title>
<g id="a_node9"><a xlink:href="inet.queueing.contract.IPacketFlow.html" xlink:title="Module Interface IPacketFlow" target="_parent">
<polygon fill="#fffcaf" stroke="black" stroke-dasharray="5,2" points="889,-19 814,-19 814,0 889,0 889,-19"/>
<text text-anchor="middle" x="851.5" y="-7" font-family="Helvetica,sans-Serif" font-size="10.00">IPacketFlow</text>
</a>
</g>
</g>
<!-- EthernetPreemptingPhyLayer&#45;&gt;IPacketFlow -->
<g id="edge8" class="edge">
<title>EthernetPreemptingPhyLayer&#45;&gt;IPacketFlow</title>
<path fill="none" stroke="black" d="M532.01,-54.99C600.33,-47.02 703.95,-34.29 803.85,-19.03"/>
<polygon fill="black" stroke="black" points="804.47,-22.47 813.82,-17.49 803.4,-15.55 804.47,-22.47"/>
</g>
</g>
</svg>
