<?xml version="1.0" encoding="UTF-8" standalone="no"?>
<!DOCTYPE svg PUBLIC "-//W3C//DTD SVG 1.1//EN"
 "http://www.w3.org/Graphics/SVG/1.1/DTD/svg11.dtd">
<!-- Generated by graphviz version 2.43.0 (0)
 -->
<!-- Title: opp Pages: 1 -->
<svg width="397pt" height="82pt"
 viewBox="0.00 0.00 396.50 82.00" xmlns="http://www.w3.org/2000/svg" xmlns:xlink="http://www.w3.org/1999/xlink">
<g id="graph0" class="graph" transform="scale(1 1) rotate(0) translate(4 78)">
<title>opp</title>
<polygon fill="transparent" stroke="transparent" points="-4,4 -4,-78 392.5,-78 392.5,4 -4,4"/>
<!-- Scenario -->
<g id="node1" class="node">
<title>Scenario</title>
<g id="a_node1"><a xlink:href="inet.examples.adhoc.hostautoconf.Scenario.html" xlink:title="Network Scenario" target="_parent">
<polygon fill="#9090ff" stroke="black" points="200.5,-74 141.5,-74 141.5,-55 200.5,-55 200.5,-74"/>
<text text-anchor="middle" x="171" y="-62" font-family="Helvetica,sans-Serif" font-size="10.00">Scenario</text>
</a>
</g>
</g>
<!-- IIntegratedVisualizer -->
<g id="node2" class="node">
<title>IIntegratedVisualizer</title>
<g id="a_node2"><a xlink:href="inet.visualizer.contract.IIntegratedVisualizer.html" xlink:title="Module Interface IIntegratedVisualizer" target="_parent">
<polygon fill="#fffcaf" stroke="black" stroke-dasharray="5,2" points="118,-19 0,-19 0,0 118,0 118,-19"/>
<text text-anchor="middle" x="59" y="-7" font-family="Helvetica,sans-Serif" font-size="10.00">IIntegratedVisualizer</text>
</a>
</g>
</g>
<!-- Scenario&#45;&gt;IIntegratedVisualizer -->
<g id="edge1" class="edge">
<title>Scenario&#45;&gt;IIntegratedVisualizer</title>
<path fill="none" stroke="black" d="M153.01,-54.98C135.07,-46.5 107.28,-33.35 86.57,-23.54"/>
<polygon fill="black" stroke="black" points="87.86,-20.28 77.32,-19.17 84.86,-26.61 87.86,-20.28"/>
</g>
<!-- AdhocHost -->
<g id="node3" class="node">
<title>AdhocHost</title>
<g id="a_node3"><a xlink:href="inet.node.inet.AdhocHost.html" xlink:title="Compound Module AdhocHost" target="_parent">
<polygon fill="#fffcaf" stroke="black" points="205.5,-19 136.5,-19 136.5,0 205.5,0 205.5,-19"/>
<text text-anchor="middle" x="171" y="-7" font-family="Helvetica,sans-Serif" font-size="10.00">AdhocHost</text>
</a>
</g>
</g>
<!-- Scenario&#45;&gt;AdhocHost -->
<g id="edge2" class="edge">
<title>Scenario&#45;&gt;AdhocHost</title>
<path fill="none" stroke="black" d="M171,-54.75C171,-47.8 171,-37.85 171,-29.13"/>
<polygon fill="black" stroke="black" points="174.5,-29.09 171,-19.09 167.5,-29.09 174.5,-29.09"/>
</g>
<!-- Ieee80211ScalarRadioMedium -->
<g id="node4" class="node">
<title>Ieee80211ScalarRadioMedium</title>
<g id="a_node4"><a xlink:href="inet.physicallayer.wireless.ieee80211.packetlevel.Ieee80211ScalarRadioMedium.html" xlink:title="Compound Module Ieee80211ScalarRadioMedium" target="_parent">
<polygon fill="#fffcaf" stroke="black" points="388.5,-19 223.5,-19 223.5,0 388.5,0 388.5,-19"/>
<text text-anchor="middle" x="306" y="-7" font-family="Helvetica,sans-Serif" font-size="10.00">Ieee80211ScalarRadioMedium</text>
</a>
</g>
</g>
<!-- Scenario&#45;&gt;Ieee80211ScalarRadioMedium -->
<g id="edge3" class="edge">
<title>Scenario&#45;&gt;Ieee80211ScalarRadioMedium</title>
<path fill="none" stroke="black" d="M192.69,-54.98C214.8,-46.3 249.32,-32.75 274.45,-22.88"/>
<polygon fill="black" stroke="black" points="275.89,-26.08 283.92,-19.17 273.33,-19.57 275.89,-26.08"/>
</g>
</g>
</svg>
