<?xml version="1.0" encoding="UTF-8" standalone="no"?>
<!DOCTYPE svg PUBLIC "-//W3C//DTD SVG 1.1//EN"
 "http://www.w3.org/Graphics/SVG/1.1/DTD/svg11.dtd">
<!-- Generated by graphviz version 2.43.0 (0)
 -->
<!-- Title: opp Pages: 1 -->
<svg width="673pt" height="82pt"
 viewBox="0.00 0.00 672.50 82.00" xmlns="http://www.w3.org/2000/svg" xmlns:xlink="http://www.w3.org/1999/xlink">
<g id="graph0" class="graph" transform="scale(1 1) rotate(0) translate(4 78)">
<title>opp</title>
<polygon fill="transparent" stroke="transparent" points="-4,4 -4,-78 668.5,-78 668.5,4 -4,4"/>
<!-- NextHopNetworkLayer -->
<g id="node1" class="node">
<title>NextHopNetworkLayer</title>
<g id="a_node1"><a xlink:href="inet.networklayer.nexthop.NextHopNetworkLayer.html" xlink:title="Compound Module NextHopNetworkLayer" target="_parent">
<polygon fill="#fff700" stroke="black" points="393,-74 265,-74 265,-55 393,-55 393,-74"/>
<text text-anchor="middle" x="329" y="-62" font-family="Helvetica,sans-Serif" font-size="10.00">NextHopNetworkLayer</text>
</a>
</g>
</g>
<!-- IdealChannel -->
<g id="node2" class="node">
<title>IdealChannel</title>
<g id="a_node2"><a xlink:href="ned.IdealChannel.html" xlink:title="Channel IdealChannel" target="_parent">
<polygon fill="#d0ffd0" stroke="black" points="80,-19 0,-19 0,0 80,0 80,-19"/>
<text text-anchor="middle" x="40" y="-7" font-family="Helvetica,sans-Serif" font-size="10.00">IdealChannel</text>
</a>
</g>
</g>
<!-- NextHopNetworkLayer&#45;&gt;IdealChannel -->
<g id="edge1" class="edge">
<title>NextHopNetworkLayer&#45;&gt;IdealChannel</title>
<path fill="none" stroke="black" d="M282.57,-54.98C229.95,-45.34 144.5,-29.66 90.32,-19.73"/>
<polygon fill="black" stroke="black" points="90.73,-16.24 80.26,-17.88 89.46,-23.13 90.73,-16.24"/>
</g>
<!-- MessageDispatcher -->
<g id="node3" class="node">
<title>MessageDispatcher</title>
<g id="a_node3"><a xlink:href="inet.common.MessageDispatcher.html" xlink:title="Simple Module MessageDispatcher" target="_parent">
<polygon fill="#fffcaf" stroke="black" points="211.5,-19 98.5,-19 98.5,0 211.5,0 211.5,-19"/>
<text text-anchor="middle" x="155" y="-7" font-family="Helvetica,sans-Serif" font-size="10.00">MessageDispatcher</text>
</a>
</g>
</g>
<!-- NextHopNetworkLayer&#45;&gt;MessageDispatcher -->
<g id="edge2" class="edge">
<title>NextHopNetworkLayer&#45;&gt;MessageDispatcher</title>
<path fill="none" stroke="black" d="M301.04,-54.98C271.7,-46.05 225.4,-31.94 192.81,-22.02"/>
<polygon fill="black" stroke="black" points="193.76,-18.65 183.18,-19.08 191.72,-25.34 193.76,-18.65"/>
</g>
<!-- EchoProtocol -->
<g id="node4" class="node">
<title>EchoProtocol</title>
<g id="a_node4"><a xlink:href="inet.networklayer.common.EchoProtocol.html" xlink:title="Simple Module EchoProtocol" target="_parent">
<polygon fill="#fffcaf" stroke="black" points="310,-19 230,-19 230,0 310,0 310,-19"/>
<text text-anchor="middle" x="270" y="-7" font-family="Helvetica,sans-Serif" font-size="10.00">EchoProtocol</text>
</a>
</g>
</g>
<!-- NextHopNetworkLayer&#45;&gt;EchoProtocol -->
<g id="edge3" class="edge">
<title>NextHopNetworkLayer&#45;&gt;EchoProtocol</title>
<path fill="none" stroke="black" d="M319.52,-54.98C310.8,-47.15 297.66,-35.34 287.1,-25.86"/>
<polygon fill="black" stroke="black" points="289.43,-23.25 279.65,-19.17 284.75,-28.46 289.43,-23.25"/>
</g>
<!-- NextHopRoutingTable -->
<g id="node5" class="node">
<title>NextHopRoutingTable</title>
<g id="a_node5"><a xlink:href="inet.networklayer.nexthop.NextHopRoutingTable.html" xlink:title="Simple Module NextHopRoutingTable" target="_parent">
<polygon fill="#fffcaf" stroke="black" points="450,-19 328,-19 328,0 450,0 450,-19"/>
<text text-anchor="middle" x="389" y="-7" font-family="Helvetica,sans-Serif" font-size="10.00">NextHopRoutingTable</text>
</a>
</g>
</g>
<!-- NextHopNetworkLayer&#45;&gt;NextHopRoutingTable -->
<g id="edge4" class="edge">
<title>NextHopNetworkLayer&#45;&gt;NextHopRoutingTable</title>
<path fill="none" stroke="black" d="M338.64,-54.98C347.51,-47.15 360.87,-35.34 371.61,-25.86"/>
<polygon fill="black" stroke="black" points="374.01,-28.41 379.18,-19.17 369.37,-23.17 374.01,-28.41"/>
</g>
<!-- GlobalArp -->
<g id="node6" class="node">
<title>GlobalArp</title>
<g id="a_node6"><a xlink:href="inet.networklayer.arp.ipv4.GlobalArp.html" xlink:title="Simple Module GlobalArp" target="_parent">
<polygon fill="#fffcaf" stroke="black" points="533.5,-19 468.5,-19 468.5,0 533.5,0 533.5,-19"/>
<text text-anchor="middle" x="501" y="-7" font-family="Helvetica,sans-Serif" font-size="10.00">GlobalArp</text>
</a>
</g>
</g>
<!-- NextHopNetworkLayer&#45;&gt;GlobalArp -->
<g id="edge5" class="edge">
<title>NextHopNetworkLayer&#45;&gt;GlobalArp</title>
<path fill="none" stroke="black" d="M356.63,-54.98C385.51,-46.09 431.01,-32.07 463.2,-22.15"/>
<polygon fill="black" stroke="black" points="464.62,-25.37 473.15,-19.08 462.56,-18.68 464.62,-25.37"/>
</g>
<!-- NextHopForwarding -->
<g id="node7" class="node">
<title>NextHopForwarding</title>
<g id="a_node7"><a xlink:href="inet.networklayer.nexthop.NextHopForwarding.html" xlink:title="Simple Module NextHopForwarding" target="_parent">
<polygon fill="#fffcaf" stroke="black" points="664.5,-19 551.5,-19 551.5,0 664.5,0 664.5,-19"/>
<text text-anchor="middle" x="608" y="-7" font-family="Helvetica,sans-Serif" font-size="10.00">NextHopForwarding</text>
</a>
</g>
</g>
<!-- NextHopNetworkLayer&#45;&gt;NextHopForwarding -->
<g id="edge6" class="edge">
<title>NextHopNetworkLayer&#45;&gt;NextHopForwarding</title>
<path fill="none" stroke="black" d="M373.83,-54.98C422.49,-45.74 500.26,-30.97 552.69,-21.01"/>
<polygon fill="black" stroke="black" points="553.65,-24.39 562.82,-19.08 552.34,-17.51 553.65,-24.39"/>
</g>
</g>
</svg>
