<?xml version="1.0" encoding="UTF-8" standalone="no"?>
<!DOCTYPE svg PUBLIC "-//W3C//DTD SVG 1.1//EN"
 "http://www.w3.org/Graphics/SVG/1.1/DTD/svg11.dtd">
<!-- Generated by graphviz version 2.43.0 (0)
 -->
<!-- Title: opp Pages: 1 -->
<svg width="562pt" height="82pt"
 viewBox="0.00 0.00 561.50 82.00" xmlns="http://www.w3.org/2000/svg" xmlns:xlink="http://www.w3.org/1999/xlink">
<g id="graph0" class="graph" transform="scale(1 1) rotate(0) translate(4 78)">
<title>opp</title>
<polygon fill="transparent" stroke="transparent" points="-4,4 -4,-78 557.5,-78 557.5,4 -4,4"/>
<!-- EthernetApp -->
<g id="node1" class="node">
<title>EthernetApp</title>
<g id="a_node1"><a xlink:href="inet.applications.ethernet.EthernetApp.html" xlink:title="Compound Module EthernetApp" target="_parent">
<polygon fill="#fff700" stroke="black" points="314.5,-74 237.5,-74 237.5,-55 314.5,-55 314.5,-74"/>
<text text-anchor="middle" x="276" y="-62" font-family="Helvetica,sans-Serif" font-size="10.00">EthernetApp</text>
</a>
</g>
</g>
<!-- IPassivePacketSink -->
<g id="node2" class="node">
<title>IPassivePacketSink</title>
<g id="a_node2"><a xlink:href="inet.queueing.contract.IPassivePacketSink.html" xlink:title="Module Interface IPassivePacketSink" target="_parent">
<polygon fill="#fffcaf" stroke="black" stroke-dasharray="5,2" points="110,-19 0,-19 0,0 110,0 110,-19"/>
<text text-anchor="middle" x="55" y="-7" font-family="Helvetica,sans-Serif" font-size="10.00">IPassivePacketSink</text>
</a>
</g>
</g>
<!-- EthernetApp&#45;&gt;IPassivePacketSink -->
<g id="edge1" class="edge">
<title>EthernetApp&#45;&gt;IPassivePacketSink</title>
<path fill="none" stroke="black" d="M240.49,-54.98C202.51,-45.87 142.13,-31.4 100.64,-21.45"/>
<polygon fill="black" stroke="black" points="101.33,-18.01 90.79,-19.08 99.69,-24.82 101.33,-18.01"/>
</g>
<!-- IdealChannel -->
<g id="node3" class="node">
<title>IdealChannel</title>
<g id="a_node3"><a xlink:href="ned.IdealChannel.html" xlink:title="Channel IdealChannel" target="_parent">
<polygon fill="#d0ffd0" stroke="black" points="208,-19 128,-19 128,0 208,0 208,-19"/>
<text text-anchor="middle" x="168" y="-7" font-family="Helvetica,sans-Serif" font-size="10.00">IdealChannel</text>
</a>
</g>
</g>
<!-- EthernetApp&#45;&gt;IdealChannel -->
<g id="edge2" class="edge">
<title>EthernetApp&#45;&gt;IdealChannel</title>
<path fill="none" stroke="black" d="M258.65,-54.98C241.43,-46.54 214.8,-33.47 194.85,-23.68"/>
<polygon fill="black" stroke="black" points="196.19,-20.43 185.67,-19.17 193.1,-26.72 196.19,-20.43"/>
</g>
<!-- EthernetSocketIo -->
<g id="node4" class="node">
<title>EthernetSocketIo</title>
<g id="a_node4"><a xlink:href="inet.applications.ethernet.EthernetSocketIo.html" xlink:title="Simple Module EthernetSocketIo" target="_parent">
<polygon fill="#fffcaf" stroke="black" points="325.5,-19 226.5,-19 226.5,0 325.5,0 325.5,-19"/>
<text text-anchor="middle" x="276" y="-7" font-family="Helvetica,sans-Serif" font-size="10.00">EthernetSocketIo</text>
</a>
</g>
</g>
<!-- EthernetApp&#45;&gt;EthernetSocketIo -->
<g id="edge3" class="edge">
<title>EthernetApp&#45;&gt;EthernetSocketIo</title>
<path fill="none" stroke="black" d="M276,-54.75C276,-47.8 276,-37.85 276,-29.13"/>
<polygon fill="black" stroke="black" points="279.5,-29.09 276,-19.09 272.5,-29.09 279.5,-29.09"/>
</g>
<!-- IActivePacketSource -->
<g id="node5" class="node">
<title>IActivePacketSource</title>
<g id="a_node5"><a xlink:href="inet.queueing.contract.IActivePacketSource.html" xlink:title="Module Interface IActivePacketSource" target="_parent">
<polygon fill="#fffcaf" stroke="black" stroke-dasharray="5,2" points="460,-19 344,-19 344,0 460,0 460,-19"/>
<text text-anchor="middle" x="402" y="-7" font-family="Helvetica,sans-Serif" font-size="10.00">IActivePacketSource</text>
</a>
</g>
</g>
<!-- EthernetApp&#45;&gt;IActivePacketSource -->
<g id="edge4" class="edge">
<title>EthernetApp&#45;&gt;IActivePacketSource</title>
<path fill="none" stroke="black" d="M296.24,-54.98C316.7,-46.38 348.53,-32.99 371.93,-23.15"/>
<polygon fill="black" stroke="black" points="373.53,-26.27 381.39,-19.17 370.81,-19.82 373.53,-26.27"/>
</g>
<!-- IPacketFlow -->
<g id="node6" class="node">
<title>IPacketFlow</title>
<g id="a_node6"><a xlink:href="inet.queueing.contract.IPacketFlow.html" xlink:title="Module Interface IPacketFlow" target="_parent">
<polygon fill="#fffcaf" stroke="black" stroke-dasharray="5,2" points="553.5,-19 478.5,-19 478.5,0 553.5,0 553.5,-19"/>
<text text-anchor="middle" x="516" y="-7" font-family="Helvetica,sans-Serif" font-size="10.00">IPacketFlow</text>
</a>
</g>
</g>
<!-- EthernetApp&#45;&gt;IPacketFlow -->
<g id="edge5" class="edge">
<title>EthernetApp&#45;&gt;IPacketFlow</title>
<path fill="none" stroke="black" d="M314.56,-54.98C356.44,-45.74 423.39,-30.95 468.49,-20.99"/>
<polygon fill="black" stroke="black" points="469.32,-24.39 478.33,-18.82 467.81,-17.56 469.32,-24.39"/>
</g>
</g>
</svg>
