<?xml version="1.0" encoding="UTF-8" standalone="no"?>
<!DOCTYPE svg PUBLIC "-//W3C//DTD SVG 1.1//EN"
 "http://www.w3.org/Graphics/SVG/1.1/DTD/svg11.dtd">
<!-- Generated by graphviz version 2.43.0 (0)
 -->
<!-- Title: opp Pages: 1 -->
<svg width="374pt" height="82pt"
 viewBox="0.00 0.00 374.00 82.00" xmlns="http://www.w3.org/2000/svg" xmlns:xlink="http://www.w3.org/1999/xlink">
<g id="graph0" class="graph" transform="scale(1 1) rotate(0) translate(4 78)">
<title>opp</title>
<polygon fill="transparent" stroke="transparent" points="-4,4 -4,-78 370,-78 370,4 -4,4"/>
<!-- Ipv4hook -->
<g id="node1" class="node">
<title>Ipv4hook</title>
<g id="a_node1"><a xlink:href="inet.examples.inet.ipv4hook.Ipv4hook.html" xlink:title="Network Ipv4hook" target="_parent">
<polygon fill="#9090ff" stroke="black" points="240,-74 178,-74 178,-55 240,-55 240,-74"/>
<text text-anchor="middle" x="209" y="-62" font-family="Helvetica,sans-Serif" font-size="10.00">Ipv4hook</text>
</a>
</g>
</g>
<!-- MyRouter -->
<g id="node2" class="node">
<title>MyRouter</title>
<g id="a_node2"><a xlink:href="inet.examples.inet.ipv4hook.MyRouter.html" xlink:title="Compound Module MyRouter" target="_parent">
<polygon fill="#fffcaf" stroke="black" points="64,-19 0,-19 0,0 64,0 64,-19"/>
<text text-anchor="middle" x="32" y="-7" font-family="Helvetica,sans-Serif" font-size="10.00">MyRouter</text>
</a>
</g>
</g>
<!-- Ipv4hook&#45;&gt;MyRouter -->
<g id="edge1" class="edge">
<title>Ipv4hook&#45;&gt;MyRouter</title>
<path fill="none" stroke="black" d="M180.56,-54.98C150.72,-46.05 103.62,-31.94 70.47,-22.02"/>
<polygon fill="black" stroke="black" points="71.24,-18.6 60.66,-19.08 69.24,-25.3 71.24,-18.6"/>
</g>
<!-- Ipv4NetworkConfigurator -->
<g id="node3" class="node">
<title>Ipv4NetworkConfigurator</title>
<g id="a_node3"><a xlink:href="inet.networklayer.configurator.ipv4.Ipv4NetworkConfigurator.html" xlink:title="Simple Module Ipv4NetworkConfigurator" target="_parent">
<polygon fill="#fffcaf" stroke="black" points="222,-19 82,-19 82,0 222,0 222,-19"/>
<text text-anchor="middle" x="152" y="-7" font-family="Helvetica,sans-Serif" font-size="10.00">Ipv4NetworkConfigurator</text>
</a>
</g>
</g>
<!-- Ipv4hook&#45;&gt;Ipv4NetworkConfigurator -->
<g id="edge2" class="edge">
<title>Ipv4hook&#45;&gt;Ipv4NetworkConfigurator</title>
<path fill="none" stroke="black" d="M199.84,-54.98C191.5,-47.23 178.97,-35.58 168.82,-26.14"/>
<polygon fill="black" stroke="black" points="171.03,-23.42 161.32,-19.17 166.26,-28.54 171.03,-23.42"/>
</g>
<!-- MyHost -->
<g id="node4" class="node">
<title>MyHost</title>
<g id="a_node4"><a xlink:href="inet.examples.inet.ipv4hook.MyHost.html" xlink:title="Compound Module MyHost" target="_parent">
<polygon fill="#fffcaf" stroke="black" points="294,-19 240,-19 240,0 294,0 294,-19"/>
<text text-anchor="middle" x="267" y="-7" font-family="Helvetica,sans-Serif" font-size="10.00">MyHost</text>
</a>
</g>
</g>
<!-- Ipv4hook&#45;&gt;MyHost -->
<g id="edge3" class="edge">
<title>Ipv4hook&#45;&gt;MyHost</title>
<path fill="none" stroke="black" d="M218.32,-54.98C226.81,-47.23 239.56,-35.58 249.88,-26.14"/>
<polygon fill="black" stroke="black" points="252.49,-28.5 257.51,-19.17 247.77,-23.33 252.49,-28.5"/>
</g>
<!-- C -->
<g id="node5" class="node">
<title>C</title>
<g id="a_node5"><a xlink:href="inet.examples.inet.ipv4hook.Ipv4hook.C.html" xlink:title="Channel C" target="_parent">
<polygon fill="#d0ffd0" stroke="black" points="366,-19 312,-19 312,0 366,0 366,-19"/>
<text text-anchor="middle" x="339" y="-7" font-family="Helvetica,sans-Serif" font-size="10.00">C</text>
</a>
</g>
</g>
<!-- Ipv4hook&#45;&gt;C -->
<g id="edge4" class="edge">
<title>Ipv4hook&#45;&gt;C</title>
<path fill="none" stroke="black" d="M229.89,-54.98C251.08,-46.34 284.13,-32.87 308.3,-23.02"/>
<polygon fill="black" stroke="black" points="309.79,-26.19 317.73,-19.17 307.15,-19.7 309.79,-26.19"/>
</g>
</g>
</svg>
