<?xml version="1.0" encoding="UTF-8" standalone="no"?>
<!DOCTYPE svg PUBLIC "-//W3C//DTD SVG 1.1//EN"
 "http://www.w3.org/Graphics/SVG/1.1/DTD/svg11.dtd">
<!-- Generated by graphviz version 2.43.0 (0)
 -->
<!-- Title: opp Pages: 1 -->
<svg width="441pt" height="82pt"
 viewBox="0.00 0.00 440.50 82.00" xmlns="http://www.w3.org/2000/svg" xmlns:xlink="http://www.w3.org/1999/xlink">
<g id="graph0" class="graph" transform="scale(1 1) rotate(0) translate(4 78)">
<title>opp</title>
<polygon fill="transparent" stroke="transparent" points="-4,4 -4,-78 436.5,-78 436.5,4 -4,4"/>
<!-- NClientsEth -->
<g id="node1" class="node">
<title>NClientsEth</title>
<g id="a_node1"><a xlink:href="inet.examples.ipv6.ipv6nclients.NClientsEth.html" xlink:title="Network NClientsEth" target="_parent">
<polygon fill="#9090ff" stroke="black" points="224.5,-74 150.5,-74 150.5,-55 224.5,-55 224.5,-74"/>
<text text-anchor="middle" x="187.5" y="-62" font-family="Helvetica,sans-Serif" font-size="10.00">NClientsEth</text>
</a>
</g>
</g>
<!-- StandardHost6 -->
<g id="node2" class="node">
<title>StandardHost6</title>
<g id="a_node2"><a xlink:href="inet.node.ipv6.StandardHost6.html" xlink:title="Compound Module StandardHost6" target="_parent">
<polygon fill="#fffcaf" stroke="black" points="89,-19 0,-19 0,0 89,0 89,-19"/>
<text text-anchor="middle" x="44.5" y="-7" font-family="Helvetica,sans-Serif" font-size="10.00">StandardHost6</text>
</a>
</g>
</g>
<!-- NClientsEth&#45;&gt;StandardHost6 -->
<g id="edge1" class="edge">
<title>NClientsEth&#45;&gt;StandardHost6</title>
<path fill="none" stroke="black" d="M164.52,-54.98C141,-46.27 104.21,-32.63 77.56,-22.75"/>
<polygon fill="black" stroke="black" points="78.49,-19.36 67.89,-19.17 76.05,-25.93 78.49,-19.36"/>
</g>
<!-- ethernetline -->
<g id="node3" class="node">
<title>ethernetline</title>
<g id="a_node3"><a xlink:href="inet.examples.ipv6.ipv6nclients.NClientsEth.ethernetline.html" xlink:title="Channel ethernetline" target="_parent">
<polygon fill="#d0ffd0" stroke="black" points="183.5,-19 107.5,-19 107.5,0 183.5,0 183.5,-19"/>
<text text-anchor="middle" x="145.5" y="-7" font-family="Helvetica,sans-Serif" font-size="10.00">ethernetline</text>
</a>
</g>
</g>
<!-- NClientsEth&#45;&gt;ethernetline -->
<g id="edge2" class="edge">
<title>NClientsEth&#45;&gt;ethernetline</title>
<path fill="none" stroke="black" d="M180.56,-54.75C174.63,-47.26 165.93,-36.28 158.68,-27.13"/>
<polygon fill="black" stroke="black" points="161.26,-24.75 152.31,-19.09 155.77,-29.1 161.26,-24.75"/>
</g>
<!-- Router6 -->
<g id="node4" class="node">
<title>Router6</title>
<g id="a_node4"><a xlink:href="inet.node.ipv6.Router6.html" xlink:title="Compound Module Router6" target="_parent">
<polygon fill="#fffcaf" stroke="black" points="257,-19 202,-19 202,0 257,0 257,-19"/>
<text text-anchor="middle" x="229.5" y="-7" font-family="Helvetica,sans-Serif" font-size="10.00">Router6</text>
</a>
</g>
</g>
<!-- NClientsEth&#45;&gt;Router6 -->
<g id="edge3" class="edge">
<title>NClientsEth&#45;&gt;Router6</title>
<path fill="none" stroke="black" d="M194.44,-54.75C200.37,-47.26 209.07,-36.28 216.32,-27.13"/>
<polygon fill="black" stroke="black" points="219.23,-29.1 222.69,-19.09 213.74,-24.75 219.23,-29.1"/>
</g>
<!-- Ipv6FlatNetworkConfigurator -->
<g id="node5" class="node">
<title>Ipv6FlatNetworkConfigurator</title>
<g id="a_node5"><a xlink:href="inet.networklayer.configurator.ipv6.Ipv6FlatNetworkConfigurator.html" xlink:title="Simple Module Ipv6FlatNetworkConfigurator" target="_parent">
<polygon fill="#fffcaf" stroke="black" points="432.5,-19 274.5,-19 274.5,0 432.5,0 432.5,-19"/>
<text text-anchor="middle" x="353.5" y="-7" font-family="Helvetica,sans-Serif" font-size="10.00">Ipv6FlatNetworkConfigurator</text>
</a>
</g>
</g>
<!-- NClientsEth&#45;&gt;Ipv6FlatNetworkConfigurator -->
<g id="edge4" class="edge">
<title>NClientsEth&#45;&gt;Ipv6FlatNetworkConfigurator</title>
<path fill="none" stroke="black" d="M214.17,-54.98C242.04,-46.09 285.95,-32.07 317.02,-22.15"/>
<polygon fill="black" stroke="black" points="318.16,-25.46 326.62,-19.08 316.03,-18.79 318.16,-25.46"/>
</g>
</g>
</svg>
