<?xml version="1.0" encoding="UTF-8" standalone="no"?>
<!DOCTYPE svg PUBLIC "-//W3C//DTD SVG 1.1//EN"
 "http://www.w3.org/Graphics/SVG/1.1/DTD/svg11.dtd">
<!-- Generated by graphviz version 2.43.0 (0)
 -->
<!-- Title: opp Pages: 1 -->
<svg width="278pt" height="137pt"
 viewBox="0.00 0.00 278.00 137.00" xmlns="http://www.w3.org/2000/svg" xmlns:xlink="http://www.w3.org/1999/xlink">
<g id="graph0" class="graph" transform="scale(1 1) rotate(0) translate(4 133)">
<title>opp</title>
<polygon fill="transparent" stroke="transparent" points="-4,4 -4,-133 274,-133 274,4 -4,4"/>
<!-- PacketTransmitterBase -->
<g id="node1" class="node">
<title>PacketTransmitterBase</title>
<g id="a_node1"><a xlink:href="inet.protocolelement.transceiver.base.PacketTransmitterBase.html" xlink:title="Simple Module PacketTransmitterBase" target="_parent">
<polygon fill="#fff700" stroke="black" points="189,-74 60,-74 60,-55 189,-55 189,-74"/>
<text text-anchor="middle" x="124.5" y="-62" font-family="Helvetica,sans-Serif" font-size="10.00">PacketTransmitterBase</text>
</a>
</g>
</g>
<!-- PacketTransmitter -->
<g id="node3" class="node">
<title>PacketTransmitter</title>
<g id="a_node3"><a xlink:href="inet.protocolelement.transceiver.PacketTransmitter.html" xlink:title="Simple Module PacketTransmitter" target="_parent">
<polygon fill="#fffcaf" stroke="black" points="105,-19 0,-19 0,0 105,0 105,-19"/>
<text text-anchor="middle" x="52.5" y="-7" font-family="Helvetica,sans-Serif" font-size="10.00">PacketTransmitter</text>
</a>
</g>
</g>
<!-- PacketTransmitterBase&#45;&gt;PacketTransmitter -->
<g id="edge2" class="edge">
<title>PacketTransmitterBase&#45;&gt;PacketTransmitter</title>
<path fill="none" stroke="black" d="M112.93,-54.98C99.58,-45.15 77.72,-29.07 64.28,-19.17"/>
</g>
<!-- StreamingTransmitterBase -->
<g id="node4" class="node">
<title>StreamingTransmitterBase</title>
<g id="a_node4"><a xlink:href="inet.protocolelement.transceiver.base.StreamingTransmitterBase.html" xlink:title="Simple Module StreamingTransmitterBase" target="_parent">
<polygon fill="#fffcaf" stroke="black" points="270,-19 123,-19 123,0 270,0 270,-19"/>
<text text-anchor="middle" x="196.5" y="-7" font-family="Helvetica,sans-Serif" font-size="10.00">StreamingTransmitterBase</text>
</a>
</g>
</g>
<!-- PacketTransmitterBase&#45;&gt;StreamingTransmitterBase -->
<g id="edge3" class="edge">
<title>PacketTransmitterBase&#45;&gt;StreamingTransmitterBase</title>
<path fill="none" stroke="black" d="M136.07,-54.98C149.42,-45.15 171.28,-29.07 184.72,-19.17"/>
</g>
<!-- PacketProcessorBase -->
<g id="node2" class="node">
<title>PacketProcessorBase</title>
<g id="a_node2"><a xlink:href="inet.queueing.base.PacketProcessorBase.html" xlink:title="Simple Module PacketProcessorBase" target="_parent">
<polygon fill="#fffcaf" stroke="black" points="184.5,-129 64.5,-129 64.5,-110 184.5,-110 184.5,-129"/>
<text text-anchor="middle" x="124.5" y="-117" font-family="Helvetica,sans-Serif" font-size="10.00">PacketProcessorBase</text>
</a>
</g>
</g>
<!-- PacketProcessorBase&#45;&gt;PacketTransmitterBase -->
<g id="edge1" class="edge">
<title>PacketProcessorBase&#45;&gt;PacketTransmitterBase</title>
<path fill="none" stroke="black" d="M124.5,-109.75C124.5,-99.87 124.5,-83.9 124.5,-74.09"/>
</g>
</g>
</svg>
