<?xml version="1.0" encoding="UTF-8" standalone="no"?>
<!DOCTYPE svg PUBLIC "-//W3C//DTD SVG 1.1//EN"
 "http://www.w3.org/Graphics/SVG/1.1/DTD/svg11.dtd">
<!-- Generated by graphviz version 2.43.0 (0)
 -->
<!-- Title: opp Pages: 1 -->
<svg width="244pt" height="82pt"
 viewBox="0.00 0.00 243.50 82.00" xmlns="http://www.w3.org/2000/svg" xmlns:xlink="http://www.w3.org/1999/xlink">
<g id="graph0" class="graph" transform="scale(1 1) rotate(0) translate(4 78)">
<title>opp</title>
<polygon fill="transparent" stroke="transparent" points="-4,4 -4,-78 239.5,-78 239.5,4 -4,4"/>
<!-- PcpTrafficClassClassifier -->
<g id="node1" class="node">
<title>PcpTrafficClassClassifier</title>
<g id="a_node1"><a xlink:href="inet.linklayer.ieee8021q.PcpTrafficClassClassifier.html" xlink:title="Compound Module PcpTrafficClassClassifier" target="_parent">
<polygon fill="#fff700" stroke="black" points="191,-19 54,-19 54,0 191,0 191,-19"/>
<text text-anchor="middle" x="122.5" y="-7" font-family="Helvetica,sans-Serif" font-size="10.00">PcpTrafficClassClassifier</text>
</a>
</g>
</g>
<!-- PacketClassifierBase -->
<g id="node2" class="node">
<title>PacketClassifierBase</title>
<g id="a_node2"><a xlink:href="inet.queueing.base.PacketClassifierBase.html" xlink:title="Simple Module PacketClassifierBase" target="_parent">
<polygon fill="#fffcaf" stroke="black" points="119,-74 0,-74 0,-55 119,-55 119,-74"/>
<text text-anchor="middle" x="59.5" y="-62" font-family="Helvetica,sans-Serif" font-size="10.00">PacketClassifierBase</text>
</a>
</g>
</g>
<!-- PacketClassifierBase&#45;&gt;PcpTrafficClassClassifier -->
<g id="edge1" class="edge">
<title>PacketClassifierBase&#45;&gt;PcpTrafficClassClassifier</title>
<path fill="none" stroke="black" d="M69.62,-54.98C81.31,-45.15 100.43,-29.07 112.19,-19.17"/>
</g>
<!-- IPacketClassifier -->
<g id="node3" class="node">
<title>IPacketClassifier</title>
<g id="a_node3"><a xlink:href="inet.queueing.contract.IPacketClassifier.html" xlink:title="Module Interface IPacketClassifier" target="_parent">
<polygon fill="#fffcaf" stroke="black" stroke-dasharray="5,2" points="235.5,-74 137.5,-74 137.5,-55 235.5,-55 235.5,-74"/>
<text text-anchor="middle" x="186.5" y="-62" font-family="Helvetica,sans-Serif" font-size="10.00">IPacketClassifier</text>
</a>
</g>
</g>
<!-- IPacketClassifier&#45;&gt;PcpTrafficClassClassifier -->
<g id="edge2" class="edge">
<title>IPacketClassifier&#45;&gt;PcpTrafficClassClassifier</title>
<path fill="none" stroke="black" stroke-dasharray="5,2" d="M176.22,-54.98C164.34,-45.15 144.92,-29.07 132.97,-19.17"/>
</g>
</g>
</svg>
