<?xml version="1.0" encoding="UTF-8" standalone="no"?>
<!DOCTYPE svg PUBLIC "-//W3C//DTD SVG 1.1//EN"
 "http://www.w3.org/Graphics/SVG/1.1/DTD/svg11.dtd">
<!-- Generated by graphviz version 2.43.0 (0)
 -->
<!-- Title: opp Pages: 1 -->
<svg width="435pt" height="82pt"
 viewBox="0.00 0.00 435.00 82.00" xmlns="http://www.w3.org/2000/svg" xmlns:xlink="http://www.w3.org/1999/xlink">
<g id="graph0" class="graph" transform="scale(1 1) rotate(0) translate(4 78)">
<title>opp</title>
<polygon fill="transparent" stroke="transparent" points="-4,4 -4,-78 431,-78 431,4 -4,4"/>
<!-- VlanExample -->
<g id="node1" class="node">
<title>VlanExample</title>
<g id="a_node1"><a xlink:href="inet.examples.ethernet.vlan.VlanExample.html" xlink:title="Network VlanExample" target="_parent">
<polygon fill="#9090ff" stroke="black" points="278,-74 197,-74 197,-55 278,-55 278,-74"/>
<text text-anchor="middle" x="237.5" y="-62" font-family="Helvetica,sans-Serif" font-size="10.00">VlanExample</text>
</a>
</g>
</g>
<!-- StandardHost -->
<g id="node2" class="node">
<title>StandardHost</title>
<g id="a_node2"><a xlink:href="inet.node.inet.StandardHost.html" xlink:title="Compound Module StandardHost" target="_parent">
<polygon fill="#fffcaf" stroke="black" points="83,-19 0,-19 0,0 83,0 83,-19"/>
<text text-anchor="middle" x="41.5" y="-7" font-family="Helvetica,sans-Serif" font-size="10.00">StandardHost</text>
</a>
</g>
</g>
<!-- VlanExample&#45;&gt;StandardHost -->
<g id="edge1" class="edge">
<title>VlanExample&#45;&gt;StandardHost</title>
<path fill="none" stroke="black" d="M206.01,-54.98C172.68,-45.97 119.9,-31.7 83.15,-21.76"/>
<polygon fill="black" stroke="black" points="83.8,-18.31 73.24,-19.08 81.98,-25.07 83.8,-18.31"/>
</g>
<!-- Ipv4NetworkConfigurator -->
<g id="node3" class="node">
<title>Ipv4NetworkConfigurator</title>
<g id="a_node3"><a xlink:href="inet.networklayer.configurator.ipv4.Ipv4NetworkConfigurator.html" xlink:title="Simple Module Ipv4NetworkConfigurator" target="_parent">
<polygon fill="#fffcaf" stroke="black" points="241.5,-19 101.5,-19 101.5,0 241.5,0 241.5,-19"/>
<text text-anchor="middle" x="171.5" y="-7" font-family="Helvetica,sans-Serif" font-size="10.00">Ipv4NetworkConfigurator</text>
</a>
</g>
</g>
<!-- VlanExample&#45;&gt;Ipv4NetworkConfigurator -->
<g id="edge2" class="edge">
<title>VlanExample&#45;&gt;Ipv4NetworkConfigurator</title>
<path fill="none" stroke="black" d="M226.9,-54.98C217.04,-47.07 202.15,-35.11 190.28,-25.58"/>
<polygon fill="black" stroke="black" points="192.29,-22.7 182.3,-19.17 187.9,-28.16 192.29,-22.7"/>
</g>
<!-- EthernetSwitch -->
<g id="node4" class="node">
<title>EthernetSwitch</title>
<g id="a_node4"><a xlink:href="inet.node.ethernet.EthernetSwitch.html" xlink:title="Compound Module EthernetSwitch" target="_parent">
<polygon fill="#fffcaf" stroke="black" points="349.5,-19 259.5,-19 259.5,0 349.5,0 349.5,-19"/>
<text text-anchor="middle" x="304.5" y="-7" font-family="Helvetica,sans-Serif" font-size="10.00">EthernetSwitch</text>
</a>
</g>
</g>
<!-- VlanExample&#45;&gt;EthernetSwitch -->
<g id="edge3" class="edge">
<title>VlanExample&#45;&gt;EthernetSwitch</title>
<path fill="none" stroke="black" d="M248.26,-54.98C258.27,-47.07 273.39,-35.11 285.43,-25.58"/>
<polygon fill="black" stroke="black" points="287.87,-28.12 293.54,-19.17 283.53,-22.63 287.87,-28.12"/>
</g>
<!-- Eth100M -->
<g id="node5" class="node">
<title>Eth100M</title>
<g id="a_node5"><a xlink:href="inet.node.ethernet.Eth100M.html" xlink:title="Channel Eth100M" target="_parent">
<polygon fill="#d0ffd0" stroke="black" points="427,-19 368,-19 368,0 427,0 427,-19"/>
<text text-anchor="middle" x="397.5" y="-7" font-family="Helvetica,sans-Serif" font-size="10.00">Eth100M</text>
</a>
</g>
</g>
<!-- VlanExample&#45;&gt;Eth100M -->
<g id="edge4" class="edge">
<title>VlanExample&#45;&gt;Eth100M</title>
<path fill="none" stroke="black" d="M263.21,-54.98C289.95,-46.13 332.03,-32.19 361.95,-22.28"/>
<polygon fill="black" stroke="black" points="363.2,-25.55 371.59,-19.08 361,-18.9 363.2,-25.55"/>
</g>
</g>
</svg>
