<?xml version="1.0" encoding="UTF-8" standalone="no"?>
<!DOCTYPE svg PUBLIC "-//W3C//DTD SVG 1.1//EN"
 "http://www.w3.org/Graphics/SVG/1.1/DTD/svg11.dtd">
<!-- Generated by graphviz version 2.43.0 (0)
 -->
<!-- Title: opp Pages: 1 -->
<svg width="506pt" height="82pt"
 viewBox="0.00 0.00 506.00 82.00" xmlns="http://www.w3.org/2000/svg" xmlns:xlink="http://www.w3.org/1999/xlink">
<g id="graph0" class="graph" transform="scale(1 1) rotate(0) translate(4 78)">
<title>opp</title>
<polygon fill="transparent" stroke="transparent" points="-4,4 -4,-78 502,-78 502,4 -4,4"/>
<!-- OSPF_BackboneAndTwoStubsTest -->
<g id="node1" class="node">
<title>OSPF_BackboneAndTwoStubsTest</title>
<g id="a_node1"><a xlink:href="inet.examples.ospfv2.areatests.OSPF_BackboneAndTwoStubsTest.html" xlink:title="Network OSPF_BackboneAndTwoStubsTest" target="_parent">
<polygon fill="#9090ff" stroke="black" points="368,-74 189,-74 189,-55 368,-55 368,-74"/>
<text text-anchor="middle" x="278.5" y="-62" font-family="Helvetica,sans-Serif" font-size="10.00">OSPF_BackboneAndTwoStubsTest</text>
</a>
</g>
</g>
<!-- ScenarioManager -->
<g id="node2" class="node">
<title>ScenarioManager</title>
<g id="a_node2"><a xlink:href="inet.common.scenario.ScenarioManager.html" xlink:title="Simple Module ScenarioManager" target="_parent">
<polygon fill="#fffcaf" stroke="black" points="101,-19 0,-19 0,0 101,0 101,-19"/>
<text text-anchor="middle" x="50.5" y="-7" font-family="Helvetica,sans-Serif" font-size="10.00">ScenarioManager</text>
</a>
</g>
</g>
<!-- OSPF_BackboneAndTwoStubsTest&#45;&gt;ScenarioManager -->
<g id="edge1" class="edge">
<title>OSPF_BackboneAndTwoStubsTest&#45;&gt;ScenarioManager</title>
<path fill="none" stroke="black" d="M241.87,-54.98C202.59,-45.86 140.13,-31.33 97.31,-21.38"/>
<polygon fill="black" stroke="black" points="97.95,-17.94 87.42,-19.08 96.37,-24.76 97.95,-17.94"/>
</g>
<!-- OspfRouter -->
<g id="node3" class="node">
<title>OspfRouter</title>
<g id="a_node3"><a xlink:href="inet.node.ospfv2.OspfRouter.html" xlink:title="Compound Module OspfRouter" target="_parent">
<polygon fill="#fffcaf" stroke="black" points="190,-19 119,-19 119,0 190,0 190,-19"/>
<text text-anchor="middle" x="154.5" y="-7" font-family="Helvetica,sans-Serif" font-size="10.00">OspfRouter</text>
</a>
</g>
</g>
<!-- OSPF_BackboneAndTwoStubsTest&#45;&gt;OspfRouter -->
<g id="edge2" class="edge">
<title>OSPF_BackboneAndTwoStubsTest&#45;&gt;OspfRouter</title>
<path fill="none" stroke="black" d="M258.58,-54.98C238.45,-46.38 207.12,-32.99 184.09,-23.15"/>
<polygon fill="black" stroke="black" points="185.36,-19.88 174.79,-19.17 182.6,-26.32 185.36,-19.88"/>
</g>
<!-- Ipv4NetworkConfigurator -->
<g id="node4" class="node">
<title>Ipv4NetworkConfigurator</title>
<g id="a_node4"><a xlink:href="inet.networklayer.configurator.ipv4.Ipv4NetworkConfigurator.html" xlink:title="Simple Module Ipv4NetworkConfigurator" target="_parent">
<polygon fill="#fffcaf" stroke="black" points="348.5,-19 208.5,-19 208.5,0 348.5,0 348.5,-19"/>
<text text-anchor="middle" x="278.5" y="-7" font-family="Helvetica,sans-Serif" font-size="10.00">Ipv4NetworkConfigurator</text>
</a>
</g>
</g>
<!-- OSPF_BackboneAndTwoStubsTest&#45;&gt;Ipv4NetworkConfigurator -->
<g id="edge3" class="edge">
<title>OSPF_BackboneAndTwoStubsTest&#45;&gt;Ipv4NetworkConfigurator</title>
<path fill="none" stroke="black" d="M278.5,-54.75C278.5,-47.8 278.5,-37.85 278.5,-29.13"/>
<polygon fill="black" stroke="black" points="282,-29.09 278.5,-19.09 275,-29.09 282,-29.09"/>
</g>
<!-- C -->
<g id="node5" class="node">
<title>C</title>
<g id="a_node5"><a xlink:href="inet.examples.ospfv2.areatests.OSPF_BackboneAndTwoStubsTest.C.html" xlink:title="Channel C" target="_parent">
<polygon fill="#d0ffd0" stroke="black" points="420.5,-19 366.5,-19 366.5,0 420.5,0 420.5,-19"/>
<text text-anchor="middle" x="393.5" y="-7" font-family="Helvetica,sans-Serif" font-size="10.00">C</text>
</a>
</g>
</g>
<!-- OSPF_BackboneAndTwoStubsTest&#45;&gt;C -->
<g id="edge4" class="edge">
<title>OSPF_BackboneAndTwoStubsTest&#45;&gt;C</title>
<path fill="none" stroke="black" d="M296.98,-54.98C315.48,-46.46 344.18,-33.23 365.48,-23.41"/>
<polygon fill="black" stroke="black" points="367.07,-26.53 374.69,-19.17 364.14,-20.18 367.07,-26.53"/>
</g>
<!-- TestArea -->
<g id="node6" class="node">
<title>TestArea</title>
<g id="a_node6"><a xlink:href="inet.examples.ospfv2.areatests.TestArea.html" xlink:title="Compound Module TestArea" target="_parent">
<polygon fill="#fffcaf" stroke="black" points="498,-19 439,-19 439,0 498,0 498,-19"/>
<text text-anchor="middle" x="468.5" y="-7" font-family="Helvetica,sans-Serif" font-size="10.00">TestArea</text>
</a>
</g>
</g>
<!-- OSPF_BackboneAndTwoStubsTest&#45;&gt;TestArea -->
<g id="edge5" class="edge">
<title>OSPF_BackboneAndTwoStubsTest&#45;&gt;TestArea</title>
<path fill="none" stroke="black" d="M309.03,-54.98C341.58,-45.9 393.27,-31.49 428.93,-21.54"/>
<polygon fill="black" stroke="black" points="430.29,-24.79 438.99,-18.73 428.41,-18.05 430.29,-24.79"/>
</g>
</g>
</svg>
