<?xml version="1.0" encoding="UTF-8" standalone="no"?>
<!DOCTYPE svg PUBLIC "-//W3C//DTD SVG 1.1//EN"
 "http://www.w3.org/Graphics/SVG/1.1/DTD/svg11.dtd">
<!-- Generated by graphviz version 2.43.0 (0)
 -->
<!-- Title: opp Pages: 1 -->
<svg width="1821pt" height="82pt"
 viewBox="0.00 0.00 1820.50 82.00" xmlns="http://www.w3.org/2000/svg" xmlns:xlink="http://www.w3.org/1999/xlink">
<g id="graph0" class="graph" transform="scale(1 1) rotate(0) translate(4 78)">
<title>opp</title>
<polygon fill="transparent" stroke="transparent" points="-4,4 -4,-78 1816.5,-78 1816.5,4 -4,4"/>
<!-- NetworkInterface -->
<g id="node1" class="node">
<title>NetworkInterface</title>
<g id="a_node1"><a xlink:href="inet.networklayer.common.NetworkInterface.html" xlink:title="Compound Module NetworkInterface" target="_parent">
<polygon fill="#fff700" stroke="black" points="1061,-74 960,-74 960,-55 1061,-55 1061,-74"/>
<text text-anchor="middle" x="1010.5" y="-62" font-family="Helvetica,sans-Serif" font-size="10.00">NetworkInterface</text>
</a>
</g>
</g>
<!-- AckingWirelessInterface -->
<g id="node2" class="node">
<title>AckingWirelessInterface</title>
<g id="a_node2"><a xlink:href="inet.linklayer.acking.AckingWirelessInterface.html" xlink:title="Compound Module AckingWirelessInterface" target="_parent">
<polygon fill="#fffcaf" stroke="black" points="135,-19 0,-19 0,0 135,0 135,-19"/>
<text text-anchor="middle" x="67.5" y="-7" font-family="Helvetica,sans-Serif" font-size="10.00">AckingWirelessInterface</text>
</a>
</g>
</g>
<!-- NetworkInterface&#45;&gt;AckingWirelessInterface -->
<g id="edge1" class="edge">
<title>NetworkInterface&#45;&gt;AckingWirelessInterface</title>
<path fill="none" stroke="black" d="M959.61,-61.96C825.78,-57.67 452.95,-44.22 143.5,-19 140.72,-18.77 137.89,-18.53 135.02,-18.27"/>
</g>
<!-- EthernetCutthroughInterface -->
<g id="node3" class="node">
<title>EthernetCutthroughInterface</title>
<g id="a_node3"><a xlink:href="inet.linklayer.ethernet.modular.EthernetCutthroughInterface.html" xlink:title="Compound Module EthernetCutthroughInterface" target="_parent">
<polygon fill="#fffcaf" stroke="black" points="308,-19 153,-19 153,0 308,0 308,-19"/>
<text text-anchor="middle" x="230.5" y="-7" font-family="Helvetica,sans-Serif" font-size="10.00">EthernetCutthroughInterface</text>
</a>
</g>
</g>
<!-- NetworkInterface&#45;&gt;EthernetCutthroughInterface -->
<g id="edge2" class="edge">
<title>NetworkInterface&#45;&gt;EthernetCutthroughInterface</title>
<path fill="none" stroke="black" d="M959.95,-60.86C845.38,-54.74 557.17,-38.6 316.5,-19 313.81,-18.78 311.07,-18.55 308.3,-18.31"/>
</g>
<!-- EthernetInterface -->
<g id="node4" class="node">
<title>EthernetInterface</title>
<g id="a_node4"><a xlink:href="inet.linklayer.ethernet.EthernetInterface.html" xlink:title="Compound Module EthernetInterface" target="_parent">
<polygon fill="#fffcaf" stroke="black" points="427,-19 326,-19 326,0 427,0 427,-19"/>
<text text-anchor="middle" x="376.5" y="-7" font-family="Helvetica,sans-Serif" font-size="10.00">EthernetInterface</text>
</a>
</g>
</g>
<!-- NetworkInterface&#45;&gt;EthernetInterface -->
<g id="edge3" class="edge">
<title>NetworkInterface&#45;&gt;EthernetInterface</title>
<path fill="none" stroke="black" d="M959.63,-60.69C859.23,-54.9 628.56,-40.35 435.5,-19 432.72,-18.69 429.88,-18.36 427,-18"/>
</g>
<!-- Ieee80211Interface -->
<g id="node5" class="node">
<title>Ieee80211Interface</title>
<g id="a_node5"><a xlink:href="inet.linklayer.ieee80211.Ieee80211Interface.html" xlink:title="Compound Module Ieee80211Interface" target="_parent">
<polygon fill="#fffcaf" stroke="black" points="556,-19 445,-19 445,0 556,0 556,-19"/>
<text text-anchor="middle" x="500.5" y="-7" font-family="Helvetica,sans-Serif" font-size="10.00">Ieee80211Interface</text>
</a>
</g>
</g>
<!-- NetworkInterface&#45;&gt;Ieee80211Interface -->
<g id="edge4" class="edge">
<title>NetworkInterface&#45;&gt;Ieee80211Interface</title>
<path fill="none" stroke="black" d="M959.73,-58.93C877.04,-51.37 708.19,-35.46 565.5,-19 562.45,-18.65 559.32,-18.28 556.16,-17.89"/>
</g>
<!-- Ieee802154NarrowbandInterface -->
<g id="node6" class="node">
<title>Ieee802154NarrowbandInterface</title>
<g id="a_node6"><a xlink:href="inet.linklayer.ieee802154.Ieee802154NarrowbandInterface.html" xlink:title="Compound Module Ieee802154NarrowbandInterface" target="_parent">
<polygon fill="#fffcaf" stroke="black" points="750.5,-19 574.5,-19 574.5,0 750.5,0 750.5,-19"/>
<text text-anchor="middle" x="662.5" y="-7" font-family="Helvetica,sans-Serif" font-size="10.00">Ieee802154NarrowbandInterface</text>
</a>
</g>
</g>
<!-- NetworkInterface&#45;&gt;Ieee802154NarrowbandInterface -->
<g id="edge5" class="edge">
<title>NetworkInterface&#45;&gt;Ieee802154NarrowbandInterface</title>
<path fill="none" stroke="black" d="M959.9,-55.79C895.62,-46 785.04,-29.16 718.35,-19.01"/>
</g>
<!-- Ieee802154UwbIrInterface -->
<g id="node7" class="node">
<title>Ieee802154UwbIrInterface</title>
<g id="a_node7"><a xlink:href="inet.linklayer.ieee802154.Ieee802154UwbIrInterface.html" xlink:title="Compound Module Ieee802154UwbIrInterface" target="_parent">
<polygon fill="#fffcaf" stroke="black" points="914.5,-19 768.5,-19 768.5,0 914.5,0 914.5,-19"/>
<text text-anchor="middle" x="841.5" y="-7" font-family="Helvetica,sans-Serif" font-size="10.00">Ieee802154UwbIrInterface</text>
</a>
</g>
</g>
<!-- NetworkInterface&#45;&gt;Ieee802154UwbIrInterface -->
<g id="edge6" class="edge">
<title>NetworkInterface&#45;&gt;Ieee802154UwbIrInterface</title>
<path fill="none" stroke="black" d="M983.35,-54.98C951.9,-45.12 900.4,-28.97 868.87,-19.08"/>
</g>
<!-- Interface -->
<g id="node8" class="node">
<title>Interface</title>
<g id="a_node8"><a xlink:href="inet.tutorials.protocol.Interface.html" xlink:title="Compound Module Interface" target="_parent">
<polygon fill="#fffcaf" stroke="black" points="992.5,-19 932.5,-19 932.5,0 992.5,0 992.5,-19"/>
<text text-anchor="middle" x="962.5" y="-7" font-family="Helvetica,sans-Serif" font-size="10.00">Interface</text>
</a>
</g>
</g>
<!-- NetworkInterface&#45;&gt;Interface -->
<g id="edge7" class="edge">
<title>NetworkInterface&#45;&gt;Interface</title>
<path fill="none" stroke="black" d="M1002.57,-54.75C993.63,-44.87 979.16,-28.9 970.28,-19.09"/>
</g>
<!-- InterfaceService -->
<g id="node9" class="node">
<title>InterfaceService</title>
<g id="a_node9"><a xlink:href="inet.protocolelement.service.InterfaceService.html" xlink:title="Compound Module InterfaceService" target="_parent">
<polygon fill="#fffcaf" stroke="black" points="1106.5,-19 1010.5,-19 1010.5,0 1106.5,0 1106.5,-19"/>
<text text-anchor="middle" x="1058.5" y="-7" font-family="Helvetica,sans-Serif" font-size="10.00">InterfaceService</text>
</a>
</g>
</g>
<!-- NetworkInterface&#45;&gt;InterfaceService -->
<g id="edge8" class="edge">
<title>NetworkInterface&#45;&gt;InterfaceService</title>
<path fill="none" stroke="black" d="M1018.43,-54.75C1027.37,-44.87 1041.84,-28.9 1050.72,-19.09"/>
</g>
<!-- LayeredEthernetInterface -->
<g id="node10" class="node">
<title>LayeredEthernetInterface</title>
<g id="a_node10"><a xlink:href="inet.linklayer.ethernet.LayeredEthernetInterface.html" xlink:title="Compound Module LayeredEthernetInterface" target="_parent">
<polygon fill="#fffcaf" stroke="black" points="1264.5,-19 1124.5,-19 1124.5,0 1264.5,0 1264.5,-19"/>
<text text-anchor="middle" x="1194.5" y="-7" font-family="Helvetica,sans-Serif" font-size="10.00">LayeredEthernetInterface</text>
</a>
</g>
</g>
<!-- NetworkInterface&#45;&gt;LayeredEthernetInterface -->
<g id="edge9" class="edge">
<title>NetworkInterface&#45;&gt;LayeredEthernetInterface</title>
<path fill="none" stroke="black" d="M1040.06,-54.98C1074.3,-45.12 1130.37,-28.97 1164.71,-19.08"/>
</g>
<!-- LoopbackInterface -->
<g id="node11" class="node">
<title>LoopbackInterface</title>
<g id="a_node11"><a xlink:href="inet.linklayer.loopback.LoopbackInterface.html" xlink:title="Compound Module LoopbackInterface" target="_parent">
<polygon fill="#fffcaf" stroke="black" points="1390,-19 1283,-19 1283,0 1390,0 1390,-19"/>
<text text-anchor="middle" x="1336.5" y="-7" font-family="Helvetica,sans-Serif" font-size="10.00">LoopbackInterface</text>
</a>
</g>
</g>
<!-- NetworkInterface&#45;&gt;LoopbackInterface -->
<g id="edge10" class="edge">
<title>NetworkInterface&#45;&gt;LoopbackInterface</title>
<path fill="none" stroke="black" d="M1061.08,-55.28C1121.71,-45.42 1222.79,-28.99 1284.18,-19.01"/>
</g>
<!-- PppInterface -->
<g id="node12" class="node">
<title>PppInterface</title>
<g id="a_node12"><a xlink:href="inet.linklayer.ppp.PppInterface.html" xlink:title="Compound Module PppInterface" target="_parent">
<polygon fill="#fffcaf" stroke="black" points="1486.5,-19 1408.5,-19 1408.5,0 1486.5,0 1486.5,-19"/>
<text text-anchor="middle" x="1447.5" y="-7" font-family="Helvetica,sans-Serif" font-size="10.00">PppInterface</text>
</a>
</g>
</g>
<!-- NetworkInterface&#45;&gt;PppInterface -->
<g id="edge11" class="edge">
<title>NetworkInterface&#45;&gt;PppInterface</title>
<path fill="none" stroke="black" d="M1061.29,-58.69C1135.69,-51.43 1278.59,-36.6 1399.5,-19 1402.43,-18.57 1405.46,-18.1 1408.5,-17.61"/>
</g>
<!-- TunInterface -->
<g id="node13" class="node">
<title>TunInterface</title>
<g id="a_node13"><a xlink:href="inet.linklayer.tun.TunInterface.html" xlink:title="Compound Module TunInterface" target="_parent">
<polygon fill="#fffcaf" stroke="black" points="1582,-19 1505,-19 1505,0 1582,0 1582,-19"/>
<text text-anchor="middle" x="1543.5" y="-7" font-family="Helvetica,sans-Serif" font-size="10.00">TunInterface</text>
</a>
</g>
</g>
<!-- NetworkInterface&#45;&gt;TunInterface -->
<g id="edge12" class="edge">
<title>NetworkInterface&#45;&gt;TunInterface</title>
<path fill="none" stroke="black" d="M1061.28,-60.25C1149.74,-54.27 1337.74,-40.17 1495.5,-19 1498.52,-18.59 1501.64,-18.14 1504.77,-17.65"/>
</g>
<!-- VirtualInterface -->
<g id="node14" class="node">
<title>VirtualInterface</title>
<g id="a_node14"><a xlink:href="inet.linklayer.virtual.VirtualInterface.html" xlink:title="Compound Module VirtualInterface" target="_parent">
<polygon fill="#fffcaf" stroke="black" points="1692.5,-19 1600.5,-19 1600.5,0 1692.5,0 1692.5,-19"/>
<text text-anchor="middle" x="1646.5" y="-7" font-family="Helvetica,sans-Serif" font-size="10.00">VirtualInterface</text>
</a>
</g>
</g>
<!-- NetworkInterface&#45;&gt;VirtualInterface -->
<g id="edge13" class="edge">
<title>NetworkInterface&#45;&gt;VirtualInterface</title>
<path fill="none" stroke="black" d="M1061.14,-60.93C1162.21,-55.52 1396.03,-41.56 1591.5,-19 1594.38,-18.67 1597.34,-18.3 1600.32,-17.9"/>
</g>
<!-- WirelessInterface -->
<g id="node15" class="node">
<title>WirelessInterface</title>
<g id="a_node15"><a xlink:href="inet.linklayer.common.WirelessInterface.html" xlink:title="Compound Module WirelessInterface" target="_parent">
<polygon fill="#fffcaf" stroke="black" points="1812.5,-19 1710.5,-19 1710.5,0 1812.5,0 1812.5,-19"/>
<text text-anchor="middle" x="1761.5" y="-7" font-family="Helvetica,sans-Serif" font-size="10.00">WirelessInterface</text>
</a>
</g>
</g>
<!-- NetworkInterface&#45;&gt;WirelessInterface -->
<g id="edge14" class="edge">
<title>NetworkInterface&#45;&gt;WirelessInterface</title>
<path fill="none" stroke="black" d="M1061.33,-61.56C1175.83,-56.89 1462.63,-43.57 1701.5,-19 1704.43,-18.7 1707.44,-18.36 1710.47,-18"/>
</g>
</g>
</svg>
