<?xml version="1.0" encoding="UTF-8" standalone="no"?>
<!DOCTYPE svg PUBLIC "-//W3C//DTD SVG 1.1//EN"
 "http://www.w3.org/Graphics/SVG/1.1/DTD/svg11.dtd">
<!-- Generated by graphviz version 2.43.0 (0)
 -->
<!-- Title: opp Pages: 1 -->
<svg width="222pt" height="82pt"
 viewBox="0.00 0.00 221.50 82.00" xmlns="http://www.w3.org/2000/svg" xmlns:xlink="http://www.w3.org/1999/xlink">
<g id="graph0" class="graph" transform="scale(1 1) rotate(0) translate(4 78)">
<title>opp</title>
<polygon fill="transparent" stroke="transparent" points="-4,4 -4,-78 217.5,-78 217.5,4 -4,4"/>
<!-- PreemptableStreamer -->
<g id="node1" class="node">
<title>PreemptableStreamer</title>
<g id="a_node1"><a xlink:href="inet.protocolelement.common.PreemptableStreamer.html" xlink:title="Simple Module PreemptableStreamer" target="_parent">
<polygon fill="#fff700" stroke="black" points="180,-19 56,-19 56,0 180,0 180,-19"/>
<text text-anchor="middle" x="118" y="-7" font-family="Helvetica,sans-Serif" font-size="10.00">PreemptableStreamer</text>
</a>
</g>
</g>
<!-- PacketProcessorBase -->
<g id="node2" class="node">
<title>PacketProcessorBase</title>
<g id="a_node2"><a xlink:href="inet.queueing.base.PacketProcessorBase.html" xlink:title="Simple Module PacketProcessorBase" target="_parent">
<polygon fill="#fffcaf" stroke="black" points="120,-74 0,-74 0,-55 120,-55 120,-74"/>
<text text-anchor="middle" x="60" y="-62" font-family="Helvetica,sans-Serif" font-size="10.00">PacketProcessorBase</text>
</a>
</g>
</g>
<!-- PacketProcessorBase&#45;&gt;PreemptableStreamer -->
<g id="edge1" class="edge">
<title>PacketProcessorBase&#45;&gt;PreemptableStreamer</title>
<path fill="none" stroke="black" d="M69.32,-54.98C80.08,-45.15 97.68,-29.07 108.51,-19.17"/>
</g>
<!-- IPacketFlow -->
<g id="node3" class="node">
<title>IPacketFlow</title>
<g id="a_node3"><a xlink:href="inet.queueing.contract.IPacketFlow.html" xlink:title="Module Interface IPacketFlow" target="_parent">
<polygon fill="#fffcaf" stroke="black" stroke-dasharray="5,2" points="213.5,-74 138.5,-74 138.5,-55 213.5,-55 213.5,-74"/>
<text text-anchor="middle" x="176" y="-62" font-family="Helvetica,sans-Serif" font-size="10.00">IPacketFlow</text>
</a>
</g>
</g>
<!-- IPacketFlow&#45;&gt;PreemptableStreamer -->
<g id="edge2" class="edge">
<title>IPacketFlow&#45;&gt;PreemptableStreamer</title>
<path fill="none" stroke="black" stroke-dasharray="5,2" d="M166.68,-54.98C155.92,-45.15 138.32,-29.07 127.49,-19.17"/>
</g>
</g>
</svg>
