<?xml version="1.0" encoding="UTF-8" standalone="no"?>
<!DOCTYPE svg PUBLIC "-//W3C//DTD SVG 1.1//EN"
 "http://www.w3.org/Graphics/SVG/1.1/DTD/svg11.dtd">
<!-- Generated by graphviz version 2.43.0 (0)
 -->
<!-- Title: opp Pages: 1 -->
<svg width="220pt" height="137pt"
 viewBox="0.00 0.00 219.50 137.00" xmlns="http://www.w3.org/2000/svg" xmlns:xlink="http://www.w3.org/1999/xlink">
<g id="graph0" class="graph" transform="scale(1 1) rotate(0) translate(4 133)">
<title>opp</title>
<polygon fill="transparent" stroke="transparent" points="-4,4 -4,-133 215.5,-133 215.5,4 -4,4"/>
<!-- ClientHost1 -->
<g id="node1" class="node">
<title>ClientHost1</title>
<g id="a_node1"><a xlink:href="inet.tutorials.protocol.ClientHost1.html" xlink:title="Compound Module ClientHost1" target="_parent">
<polygon fill="#fff700" stroke="black" points="150.5,-74 76.5,-74 76.5,-55 150.5,-55 150.5,-74"/>
<text text-anchor="middle" x="113.5" y="-62" font-family="Helvetica,sans-Serif" font-size="10.00">ClientHost1</text>
</a>
</g>
</g>
<!-- ActivePacketSource -->
<g id="node2" class="node">
<title>ActivePacketSource</title>
<g id="a_node2"><a xlink:href="inet.queueing.source.ActivePacketSource.html" xlink:title="Simple Module ActivePacketSource" target="_parent">
<polygon fill="#fffcaf" stroke="black" points="113,-19 0,-19 0,0 113,0 113,-19"/>
<text text-anchor="middle" x="56.5" y="-7" font-family="Helvetica,sans-Serif" font-size="10.00">ActivePacketSource</text>
</a>
</g>
</g>
<!-- ClientHost1&#45;&gt;ActivePacketSource -->
<g id="edge1" class="edge">
<title>ClientHost1&#45;&gt;ActivePacketSource</title>
<path fill="none" stroke="black" d="M104.34,-54.98C96,-47.23 83.47,-35.58 73.32,-26.14"/>
<polygon fill="black" stroke="black" points="75.53,-23.42 65.82,-19.17 70.76,-28.54 75.53,-23.42"/>
</g>
<!-- IdealChannel -->
<g id="node3" class="node">
<title>IdealChannel</title>
<g id="a_node3"><a xlink:href="ned.IdealChannel.html" xlink:title="Channel IdealChannel" target="_parent">
<polygon fill="#d0ffd0" stroke="black" points="211.5,-19 131.5,-19 131.5,0 211.5,0 211.5,-19"/>
<text text-anchor="middle" x="171.5" y="-7" font-family="Helvetica,sans-Serif" font-size="10.00">IdealChannel</text>
</a>
</g>
</g>
<!-- ClientHost1&#45;&gt;IdealChannel -->
<g id="edge2" class="edge">
<title>ClientHost1&#45;&gt;IdealChannel</title>
<path fill="none" stroke="black" d="M122.82,-54.98C131.31,-47.23 144.06,-35.58 154.38,-26.14"/>
<polygon fill="black" stroke="black" points="156.99,-28.5 162.01,-19.17 152.27,-23.33 156.99,-28.5"/>
</g>
<!-- Network1 -->
<g id="node4" class="node">
<title>Network1</title>
<g id="a_node4"><a xlink:href="inet.tutorials.protocol.Network1.html" xlink:title="Network Network1" target="_parent">
<polygon fill="#d0d0ff" stroke="black" points="145.5,-129 81.5,-129 81.5,-110 145.5,-110 145.5,-129"/>
<text text-anchor="middle" x="113.5" y="-117" font-family="Helvetica,sans-Serif" font-size="10.00">Network1</text>
</a>
</g>
</g>
<!-- Network1&#45;&gt;ClientHost1 -->
<g id="edge3" class="edge">
<title>Network1&#45;&gt;ClientHost1</title>
<path fill="none" stroke="black" d="M113.5,-109.75C113.5,-102.8 113.5,-92.85 113.5,-84.13"/>
<polygon fill="black" stroke="black" points="117,-84.09 113.5,-74.09 110,-84.09 117,-84.09"/>
</g>
</g>
</svg>
