<?xml version="1.0" encoding="UTF-8" standalone="no"?>
<!DOCTYPE svg PUBLIC "-//W3C//DTD SVG 1.1//EN"
 "http://www.w3.org/Graphics/SVG/1.1/DTD/svg11.dtd">
<!-- Generated by graphviz version 2.43.0 (0)
 -->
<!-- Title: opp Pages: 1 -->
<svg width="416pt" height="82pt"
 viewBox="0.00 0.00 415.50 82.00" xmlns="http://www.w3.org/2000/svg" xmlns:xlink="http://www.w3.org/1999/xlink">
<g id="graph0" class="graph" transform="scale(1 1) rotate(0) translate(4 78)">
<title>opp</title>
<polygon fill="transparent" stroke="transparent" points="-4,4 -4,-78 411.5,-78 411.5,4 -4,4"/>
<!-- NClients -->
<g id="node1" class="node">
<title>NClients</title>
<g id="a_node1"><a xlink:href="inet.examples.sctp.nclients.NClients.html" xlink:title="Network NClients" target="_parent">
<polygon fill="#9090ff" stroke="black" points="198.5,-74 140.5,-74 140.5,-55 198.5,-55 198.5,-74"/>
<text text-anchor="middle" x="169.5" y="-62" font-family="Helvetica,sans-Serif" font-size="10.00">NClients</text>
</a>
</g>
</g>
<!-- StandardHost -->
<g id="node2" class="node">
<title>StandardHost</title>
<g id="a_node2"><a xlink:href="inet.node.inet.StandardHost.html" xlink:title="Compound Module StandardHost" target="_parent">
<polygon fill="#fffcaf" stroke="black" points="83,-19 0,-19 0,0 83,0 83,-19"/>
<text text-anchor="middle" x="41.5" y="-7" font-family="Helvetica,sans-Serif" font-size="10.00">StandardHost</text>
</a>
</g>
</g>
<!-- NClients&#45;&gt;StandardHost -->
<g id="edge1" class="edge">
<title>NClients&#45;&gt;StandardHost</title>
<path fill="none" stroke="black" d="M148.93,-54.98C128.07,-46.34 95.53,-32.87 71.73,-23.02"/>
<polygon fill="black" stroke="black" points="73.02,-19.76 62.44,-19.17 70.34,-26.23 73.02,-19.76"/>
</g>
<!-- Router -->
<g id="node3" class="node">
<title>Router</title>
<g id="a_node3"><a xlink:href="inet.node.inet.Router.html" xlink:title="Compound Module Router" target="_parent">
<polygon fill="#fffcaf" stroke="black" points="155.5,-19 101.5,-19 101.5,0 155.5,0 155.5,-19"/>
<text text-anchor="middle" x="128.5" y="-7" font-family="Helvetica,sans-Serif" font-size="10.00">Router</text>
</a>
</g>
</g>
<!-- NClients&#45;&gt;Router -->
<g id="edge2" class="edge">
<title>NClients&#45;&gt;Router</title>
<path fill="none" stroke="black" d="M162.73,-54.75C156.94,-47.26 148.44,-36.28 141.36,-27.13"/>
<polygon fill="black" stroke="black" points="144.03,-24.86 135.14,-19.09 138.49,-29.14 144.03,-24.86"/>
</g>
<!-- ethernetline -->
<g id="node4" class="node">
<title>ethernetline</title>
<g id="a_node4"><a xlink:href="inet.examples.sctp.nclients.NClients.ethernetline.html" xlink:title="Channel ethernetline" target="_parent">
<polygon fill="#d0ffd0" stroke="black" points="249.5,-19 173.5,-19 173.5,0 249.5,0 249.5,-19"/>
<text text-anchor="middle" x="211.5" y="-7" font-family="Helvetica,sans-Serif" font-size="10.00">ethernetline</text>
</a>
</g>
</g>
<!-- NClients&#45;&gt;ethernetline -->
<g id="edge3" class="edge">
<title>NClients&#45;&gt;ethernetline</title>
<path fill="none" stroke="black" d="M176.44,-54.75C182.37,-47.26 191.07,-36.28 198.32,-27.13"/>
<polygon fill="black" stroke="black" points="201.23,-29.1 204.69,-19.09 195.74,-24.75 201.23,-29.1"/>
</g>
<!-- Ipv4NetworkConfigurator -->
<g id="node5" class="node">
<title>Ipv4NetworkConfigurator</title>
<g id="a_node5"><a xlink:href="inet.networklayer.configurator.ipv4.Ipv4NetworkConfigurator.html" xlink:title="Simple Module Ipv4NetworkConfigurator" target="_parent">
<polygon fill="#fffcaf" stroke="black" points="407.5,-19 267.5,-19 267.5,0 407.5,0 407.5,-19"/>
<text text-anchor="middle" x="337.5" y="-7" font-family="Helvetica,sans-Serif" font-size="10.00">Ipv4NetworkConfigurator</text>
</a>
</g>
</g>
<!-- NClients&#45;&gt;Ipv4NetworkConfigurator -->
<g id="edge4" class="edge">
<title>NClients&#45;&gt;Ipv4NetworkConfigurator</title>
<path fill="none" stroke="black" d="M196.49,-54.98C224.7,-46.09 269.14,-32.07 300.58,-22.15"/>
<polygon fill="black" stroke="black" points="301.81,-25.43 310.3,-19.08 299.71,-18.75 301.81,-25.43"/>
</g>
</g>
</svg>
