<?xml version="1.0" encoding="UTF-8" standalone="no"?>
<!DOCTYPE svg PUBLIC "-//W3C//DTD SVG 1.1//EN"
 "http://www.w3.org/Graphics/SVG/1.1/DTD/svg11.dtd">
<!-- Generated by graphviz version 2.43.0 (0)
 -->
<!-- Title: opp Pages: 1 -->
<svg width="513pt" height="82pt"
 viewBox="0.00 0.00 513.00 82.00" xmlns="http://www.w3.org/2000/svg" xmlns:xlink="http://www.w3.org/1999/xlink">
<g id="graph0" class="graph" transform="scale(1 1) rotate(0) translate(4 78)">
<title>opp</title>
<polygon fill="transparent" stroke="transparent" points="-4,4 -4,-78 509,-78 509,4 -4,4"/>
<!-- WirelessInterface -->
<g id="node1" class="node">
<title>WirelessInterface</title>
<g id="a_node1"><a xlink:href="inet.linklayer.common.WirelessInterface.html" xlink:title="Compound Module WirelessInterface" target="_parent">
<polygon fill="#fff700" stroke="black" points="289,-74 187,-74 187,-55 289,-55 289,-74"/>
<text text-anchor="middle" x="238" y="-62" font-family="Helvetica,sans-Serif" font-size="10.00">WirelessInterface</text>
</a>
</g>
</g>
<!-- IRadio -->
<g id="node2" class="node">
<title>IRadio</title>
<g id="a_node2"><a xlink:href="inet.physicallayer.wireless.common.contract.packetlevel.IRadio.html" xlink:title="Module Interface IRadio" target="_parent">
<polygon fill="#fffcaf" stroke="black" stroke-dasharray="5,2" points="54,-19 0,-19 0,0 54,0 54,-19"/>
<text text-anchor="middle" x="27" y="-7" font-family="Helvetica,sans-Serif" font-size="10.00">IRadio</text>
</a>
</g>
</g>
<!-- WirelessInterface&#45;&gt;IRadio -->
<g id="edge1" class="edge">
<title>WirelessInterface&#45;&gt;IRadio</title>
<path fill="none" stroke="black" d="M204.1,-54.98C165.73,-45.35 103.45,-29.7 63.89,-19.77"/>
<polygon fill="black" stroke="black" points="64.66,-16.35 54.11,-17.31 62.95,-23.14 64.66,-16.35"/>
</g>
<!-- IdealChannel -->
<g id="node3" class="node">
<title>IdealChannel</title>
<g id="a_node3"><a xlink:href="ned.IdealChannel.html" xlink:title="Channel IdealChannel" target="_parent">
<polygon fill="#d0ffd0" stroke="black" points="152,-19 72,-19 72,0 152,0 152,-19"/>
<text text-anchor="middle" x="112" y="-7" font-family="Helvetica,sans-Serif" font-size="10.00">IdealChannel</text>
</a>
</g>
</g>
<!-- WirelessInterface&#45;&gt;IdealChannel -->
<g id="edge2" class="edge">
<title>WirelessInterface&#45;&gt;IdealChannel</title>
<path fill="none" stroke="black" d="M217.76,-54.98C197.3,-46.38 165.47,-32.99 142.07,-23.15"/>
<polygon fill="black" stroke="black" points="143.19,-19.82 132.61,-19.17 140.47,-26.27 143.19,-19.82"/>
</g>
<!-- IIeee8021dQosClassifier -->
<g id="node4" class="node">
<title>IIeee8021dQosClassifier</title>
<g id="a_node4"><a xlink:href="inet.linklayer.common.IIeee8021dQosClassifier.html" xlink:title="Module Interface IIeee8021dQosClassifier" target="_parent">
<polygon fill="#fffcaf" stroke="black" stroke-dasharray="5,2" points="305.5,-19 170.5,-19 170.5,0 305.5,0 305.5,-19"/>
<text text-anchor="middle" x="238" y="-7" font-family="Helvetica,sans-Serif" font-size="10.00">IIeee8021dQosClassifier</text>
</a>
</g>
</g>
<!-- WirelessInterface&#45;&gt;IIeee8021dQosClassifier -->
<g id="edge3" class="edge">
<title>WirelessInterface&#45;&gt;IIeee8021dQosClassifier</title>
<path fill="none" stroke="black" d="M238,-54.75C238,-47.8 238,-37.85 238,-29.13"/>
<polygon fill="black" stroke="black" points="241.5,-29.09 238,-19.09 234.5,-29.09 241.5,-29.09"/>
</g>
<!-- IPacketQueue -->
<g id="node5" class="node">
<title>IPacketQueue</title>
<g id="a_node5"><a xlink:href="inet.queueing.contract.IPacketQueue.html" xlink:title="Module Interface IPacketQueue" target="_parent">
<polygon fill="#fffcaf" stroke="black" stroke-dasharray="5,2" points="406.5,-19 323.5,-19 323.5,0 406.5,0 406.5,-19"/>
<text text-anchor="middle" x="365" y="-7" font-family="Helvetica,sans-Serif" font-size="10.00">IPacketQueue</text>
</a>
</g>
</g>
<!-- WirelessInterface&#45;&gt;IPacketQueue -->
<g id="edge4" class="edge">
<title>WirelessInterface&#45;&gt;IPacketQueue</title>
<path fill="none" stroke="black" d="M258.4,-54.98C279.02,-46.38 311.11,-32.99 334.69,-23.15"/>
<polygon fill="black" stroke="black" points="336.34,-26.25 344.22,-19.17 333.65,-19.79 336.34,-26.25"/>
</g>
<!-- IMacProtocol -->
<g id="node6" class="node">
<title>IMacProtocol</title>
<g id="a_node6"><a xlink:href="inet.linklayer.contract.IMacProtocol.html" xlink:title="Module Interface IMacProtocol" target="_parent">
<polygon fill="#fffcaf" stroke="black" stroke-dasharray="5,2" points="505,-19 425,-19 425,0 505,0 505,-19"/>
<text text-anchor="middle" x="465" y="-7" font-family="Helvetica,sans-Serif" font-size="10.00">IMacProtocol</text>
</a>
</g>
</g>
<!-- WirelessInterface&#45;&gt;IMacProtocol -->
<g id="edge5" class="edge">
<title>WirelessInterface&#45;&gt;IMacProtocol</title>
<path fill="none" stroke="black" d="M274.47,-54.98C313.57,-45.86 375.77,-31.33 418.39,-21.38"/>
<polygon fill="black" stroke="black" points="419.3,-24.76 428.24,-19.08 417.71,-17.95 419.3,-24.76"/>
</g>
</g>
</svg>
