<?xml version="1.0" encoding="UTF-8" standalone="no"?>
<!DOCTYPE svg PUBLIC "-//W3C//DTD SVG 1.1//EN"
 "http://www.w3.org/Graphics/SVG/1.1/DTD/svg11.dtd">
<!-- Generated by graphviz version 2.43.0 (0)
 -->
<!-- Title: opp Pages: 1 -->
<svg width="262pt" height="137pt"
 viewBox="0.00 0.00 262.00 137.00" xmlns="http://www.w3.org/2000/svg" xmlns:xlink="http://www.w3.org/1999/xlink">
<g id="graph0" class="graph" transform="scale(1 1) rotate(0) translate(4 133)">
<title>opp</title>
<polygon fill="transparent" stroke="transparent" points="-4,4 -4,-133 258,-133 258,4 -4,4"/>
<!-- IPv4SmallLAN -->
<g id="node1" class="node">
<title>IPv4SmallLAN</title>
<g id="a_node1"><a xlink:href="inet.examples.inet.ipv4largenet.IPv4SmallLAN.html" xlink:title="Compound Module IPv4SmallLAN" target="_parent">
<polygon fill="#fff700" stroke="black" points="183,-74 97,-74 97,-55 183,-55 183,-74"/>
<text text-anchor="middle" x="140" y="-62" font-family="Helvetica,sans-Serif" font-size="10.00">IPv4SmallLAN</text>
</a>
</g>
</g>
<!-- IdealChannel -->
<g id="node2" class="node">
<title>IdealChannel</title>
<g id="a_node2"><a xlink:href="ned.IdealChannel.html" xlink:title="Channel IdealChannel" target="_parent">
<polygon fill="#d0ffd0" stroke="black" points="80,-19 0,-19 0,0 80,0 80,-19"/>
<text text-anchor="middle" x="40" y="-7" font-family="Helvetica,sans-Serif" font-size="10.00">IdealChannel</text>
</a>
</g>
</g>
<!-- IPv4SmallLAN&#45;&gt;IdealChannel -->
<g id="edge1" class="edge">
<title>IPv4SmallLAN&#45;&gt;IdealChannel</title>
<path fill="none" stroke="black" d="M123.93,-54.98C108.14,-46.61 83.78,-33.7 65.37,-23.95"/>
<polygon fill="black" stroke="black" points="66.83,-20.76 56.36,-19.17 63.56,-26.95 66.83,-20.76"/>
</g>
<!-- StandardHost -->
<g id="node3" class="node">
<title>StandardHost</title>
<g id="a_node3"><a xlink:href="inet.node.inet.StandardHost.html" xlink:title="Compound Module StandardHost" target="_parent">
<polygon fill="#fffcaf" stroke="black" points="181.5,-19 98.5,-19 98.5,0 181.5,0 181.5,-19"/>
<text text-anchor="middle" x="140" y="-7" font-family="Helvetica,sans-Serif" font-size="10.00">StandardHost</text>
</a>
</g>
</g>
<!-- IPv4SmallLAN&#45;&gt;StandardHost -->
<g id="edge2" class="edge">
<title>IPv4SmallLAN&#45;&gt;StandardHost</title>
<path fill="none" stroke="black" d="M140,-54.75C140,-47.8 140,-37.85 140,-29.13"/>
<polygon fill="black" stroke="black" points="143.5,-29.09 140,-19.09 136.5,-29.09 143.5,-29.09"/>
</g>
<!-- Router -->
<g id="node4" class="node">
<title>Router</title>
<g id="a_node4"><a xlink:href="inet.node.inet.Router.html" xlink:title="Compound Module Router" target="_parent">
<polygon fill="#fffcaf" stroke="black" points="254,-19 200,-19 200,0 254,0 254,-19"/>
<text text-anchor="middle" x="227" y="-7" font-family="Helvetica,sans-Serif" font-size="10.00">Router</text>
</a>
</g>
</g>
<!-- IPv4SmallLAN&#45;&gt;Router -->
<g id="edge3" class="edge">
<title>IPv4SmallLAN&#45;&gt;Router</title>
<path fill="none" stroke="black" d="M153.98,-54.98C167.47,-46.77 188.13,-34.18 204.04,-24.49"/>
<polygon fill="black" stroke="black" points="206.05,-27.36 212.77,-19.17 202.41,-21.38 206.05,-27.36"/>
</g>
<!-- IPv4LargeNet -->
<g id="node5" class="node">
<title>IPv4LargeNet</title>
<g id="a_node5"><a xlink:href="inet.examples.inet.ipv4largenet.IPv4LargeNet.html" xlink:title="Network IPv4LargeNet" target="_parent">
<polygon fill="#d0d0ff" stroke="black" points="181,-129 99,-129 99,-110 181,-110 181,-129"/>
<text text-anchor="middle" x="140" y="-117" font-family="Helvetica,sans-Serif" font-size="10.00">IPv4LargeNet</text>
</a>
</g>
</g>
<!-- IPv4LargeNet&#45;&gt;IPv4SmallLAN -->
<g id="edge4" class="edge">
<title>IPv4LargeNet&#45;&gt;IPv4SmallLAN</title>
<path fill="none" stroke="black" d="M140,-109.75C140,-102.8 140,-92.85 140,-84.13"/>
<polygon fill="black" stroke="black" points="143.5,-84.09 140,-74.09 136.5,-84.09 143.5,-84.09"/>
</g>
</g>
</svg>
