<?xml version="1.0" encoding="UTF-8" standalone="no"?>
<!DOCTYPE svg PUBLIC "-//W3C//DTD SVG 1.1//EN"
 "http://www.w3.org/Graphics/SVG/1.1/DTD/svg11.dtd">
<!-- Generated by graphviz version 2.43.0 (0)
 -->
<!-- Title: opp Pages: 1 -->
<svg width="839pt" height="82pt"
 viewBox="0.00 0.00 838.50 82.00" xmlns="http://www.w3.org/2000/svg" xmlns:xlink="http://www.w3.org/1999/xlink">
<g id="graph0" class="graph" transform="scale(1 1) rotate(0) translate(4 78)">
<title>opp</title>
<polygon fill="transparent" stroke="transparent" points="-4,4 -4,-78 834.5,-78 834.5,4 -4,4"/>
<!-- WirelessNetWith2DHCP -->
<g id="node1" class="node">
<title>WirelessNetWith2DHCP</title>
<g id="a_node1"><a xlink:href="inet.examples.dhcp.WirelessNetWith2DHCP.html" xlink:title="Network WirelessNetWith2DHCP" target="_parent">
<polygon fill="#9090ff" stroke="black" points="437,-74 305,-74 305,-55 437,-55 437,-74"/>
<text text-anchor="middle" x="371" y="-62" font-family="Helvetica,sans-Serif" font-size="10.00">WirelessNetWith2DHCP</text>
</a>
</g>
</g>
<!-- IIntegratedVisualizer -->
<g id="node2" class="node">
<title>IIntegratedVisualizer</title>
<g id="a_node2"><a xlink:href="inet.visualizer.contract.IIntegratedVisualizer.html" xlink:title="Module Interface IIntegratedVisualizer" target="_parent">
<polygon fill="#fffcaf" stroke="black" stroke-dasharray="5,2" points="118,-19 0,-19 0,0 118,0 118,-19"/>
<text text-anchor="middle" x="59" y="-7" font-family="Helvetica,sans-Serif" font-size="10.00">IIntegratedVisualizer</text>
</a>
</g>
</g>
<!-- WirelessNetWith2DHCP&#45;&gt;IIntegratedVisualizer -->
<g id="edge1" class="edge">
<title>WirelessNetWith2DHCP&#45;&gt;IIntegratedVisualizer</title>
<path fill="none" stroke="black" d="M320.87,-54.98C265.91,-45.65 177.77,-30.67 119.13,-20.71"/>
<polygon fill="black" stroke="black" points="119.71,-17.26 109.26,-19.04 118.53,-24.16 119.71,-17.26"/>
</g>
<!-- StandardHost -->
<g id="node3" class="node">
<title>StandardHost</title>
<g id="a_node3"><a xlink:href="inet.node.inet.StandardHost.html" xlink:title="Compound Module StandardHost" target="_parent">
<polygon fill="#fffcaf" stroke="black" points="219.5,-19 136.5,-19 136.5,0 219.5,0 219.5,-19"/>
<text text-anchor="middle" x="178" y="-7" font-family="Helvetica,sans-Serif" font-size="10.00">StandardHost</text>
</a>
</g>
</g>
<!-- WirelessNetWith2DHCP&#45;&gt;StandardHost -->
<g id="edge2" class="edge">
<title>WirelessNetWith2DHCP&#45;&gt;StandardHost</title>
<path fill="none" stroke="black" d="M339.99,-54.98C307.17,-45.97 255.2,-31.7 219.01,-21.76"/>
<polygon fill="black" stroke="black" points="219.82,-18.36 209.25,-19.08 217.97,-25.11 219.82,-18.36"/>
</g>
<!-- AccessPoint -->
<g id="node4" class="node">
<title>AccessPoint</title>
<g id="a_node4"><a xlink:href="inet.node.wireless.AccessPoint.html" xlink:title="Compound Module AccessPoint" target="_parent">
<polygon fill="#fffcaf" stroke="black" points="312.5,-19 237.5,-19 237.5,0 312.5,0 312.5,-19"/>
<text text-anchor="middle" x="275" y="-7" font-family="Helvetica,sans-Serif" font-size="10.00">AccessPoint</text>
</a>
</g>
</g>
<!-- WirelessNetWith2DHCP&#45;&gt;AccessPoint -->
<g id="edge3" class="edge">
<title>WirelessNetWith2DHCP&#45;&gt;AccessPoint</title>
<path fill="none" stroke="black" d="M355.58,-54.98C340.55,-46.69 317.46,-33.94 299.84,-24.22"/>
<polygon fill="black" stroke="black" points="301.15,-20.94 290.7,-19.17 297.77,-27.07 301.15,-20.94"/>
</g>
<!-- WirelessHost -->
<g id="node5" class="node">
<title>WirelessHost</title>
<g id="a_node5"><a xlink:href="inet.node.inet.WirelessHost.html" xlink:title="Compound Module WirelessHost" target="_parent">
<polygon fill="#fffcaf" stroke="black" points="411.5,-19 330.5,-19 330.5,0 411.5,0 411.5,-19"/>
<text text-anchor="middle" x="371" y="-7" font-family="Helvetica,sans-Serif" font-size="10.00">WirelessHost</text>
</a>
</g>
</g>
<!-- WirelessNetWith2DHCP&#45;&gt;WirelessHost -->
<g id="edge4" class="edge">
<title>WirelessNetWith2DHCP&#45;&gt;WirelessHost</title>
<path fill="none" stroke="black" d="M371,-54.75C371,-47.8 371,-37.85 371,-29.13"/>
<polygon fill="black" stroke="black" points="374.5,-29.09 371,-19.09 367.5,-29.09 374.5,-29.09"/>
</g>
<!-- Ipv4NetworkConfigurator -->
<g id="node6" class="node">
<title>Ipv4NetworkConfigurator</title>
<g id="a_node6"><a xlink:href="inet.networklayer.configurator.ipv4.Ipv4NetworkConfigurator.html" xlink:title="Simple Module Ipv4NetworkConfigurator" target="_parent">
<polygon fill="#fffcaf" stroke="black" points="570,-19 430,-19 430,0 570,0 570,-19"/>
<text text-anchor="middle" x="500" y="-7" font-family="Helvetica,sans-Serif" font-size="10.00">Ipv4NetworkConfigurator</text>
</a>
</g>
</g>
<!-- WirelessNetWith2DHCP&#45;&gt;Ipv4NetworkConfigurator -->
<g id="edge5" class="edge">
<title>WirelessNetWith2DHCP&#45;&gt;Ipv4NetworkConfigurator</title>
<path fill="none" stroke="black" d="M391.73,-54.98C412.76,-46.34 445.55,-32.87 469.54,-23.02"/>
<polygon fill="black" stroke="black" points="470.98,-26.21 478.9,-19.17 468.32,-19.73 470.98,-26.21"/>
</g>
<!-- Ieee80211ScalarRadioMedium -->
<g id="node7" class="node">
<title>Ieee80211ScalarRadioMedium</title>
<g id="a_node7"><a xlink:href="inet.physicallayer.wireless.ieee80211.packetlevel.Ieee80211ScalarRadioMedium.html" xlink:title="Compound Module Ieee80211ScalarRadioMedium" target="_parent">
<polygon fill="#fffcaf" stroke="black" points="753.5,-19 588.5,-19 588.5,0 753.5,0 753.5,-19"/>
<text text-anchor="middle" x="671" y="-7" font-family="Helvetica,sans-Serif" font-size="10.00">Ieee80211ScalarRadioMedium</text>
</a>
</g>
</g>
<!-- WirelessNetWith2DHCP&#45;&gt;Ieee80211ScalarRadioMedium -->
<g id="edge6" class="edge">
<title>WirelessNetWith2DHCP&#45;&gt;Ieee80211ScalarRadioMedium</title>
<path fill="none" stroke="black" d="M419.2,-54.98C471.75,-45.7 555.85,-30.84 612.23,-20.88"/>
<polygon fill="black" stroke="black" points="613.18,-24.27 622.42,-19.08 611.97,-17.38 613.18,-24.27"/>
</g>
<!-- Eth100M -->
<g id="node8" class="node">
<title>Eth100M</title>
<g id="a_node8"><a xlink:href="inet.node.ethernet.Eth100M.html" xlink:title="Channel Eth100M" target="_parent">
<polygon fill="#d0ffd0" stroke="black" points="830.5,-19 771.5,-19 771.5,0 830.5,0 830.5,-19"/>
<text text-anchor="middle" x="801" y="-7" font-family="Helvetica,sans-Serif" font-size="10.00">Eth100M</text>
</a>
</g>
</g>
<!-- WirelessNetWith2DHCP&#45;&gt;Eth100M -->
<g id="edge7" class="edge">
<title>WirelessNetWith2DHCP&#45;&gt;Eth100M</title>
<path fill="none" stroke="black" d="M437.19,-58.16C513.23,-51.54 641.91,-38.85 761.16,-19.16"/>
<polygon fill="black" stroke="black" points="761.9,-22.59 771.19,-17.48 760.75,-15.68 761.9,-22.59"/>
</g>
</g>
</svg>
