<?xml version="1.0" encoding="UTF-8" standalone="no"?>
<!DOCTYPE svg PUBLIC "-//W3C//DTD SVG 1.1//EN"
 "http://www.w3.org/Graphics/SVG/1.1/DTD/svg11.dtd">
<!-- Generated by graphviz version 2.43.0 (0)
 -->
<!-- Title: opp Pages: 1 -->
<svg width="586pt" height="82pt"
 viewBox="0.00 0.00 586.00 82.00" xmlns="http://www.w3.org/2000/svg" xmlns:xlink="http://www.w3.org/1999/xlink">
<g id="graph0" class="graph" transform="scale(1 1) rotate(0) translate(4 78)">
<title>opp</title>
<polygon fill="transparent" stroke="transparent" points="-4,4 -4,-78 582,-78 582,4 -4,4"/>
<!-- DSQueue1 -->
<g id="node1" class="node">
<title>DSQueue1</title>
<g id="a_node1"><a xlink:href="inet.examples.diffserv.onedomain.DSQueue1.html" xlink:title="Compound Module DSQueue1" target="_parent">
<polygon fill="#fff700" stroke="black" points="347,-74 279,-74 279,-55 347,-55 347,-74"/>
<text text-anchor="middle" x="313" y="-62" font-family="Helvetica,sans-Serif" font-size="10.00">DSQueue1</text>
</a>
</g>
</g>
<!-- BehaviorAggregateClassifier -->
<g id="node2" class="node">
<title>BehaviorAggregateClassifier</title>
<g id="a_node2"><a xlink:href="inet.networklayer.diffserv.BehaviorAggregateClassifier.html" xlink:title="Simple Module BehaviorAggregateClassifier" target="_parent">
<polygon fill="#fffcaf" stroke="black" points="156,-19 0,-19 0,0 156,0 156,-19"/>
<text text-anchor="middle" x="78" y="-7" font-family="Helvetica,sans-Serif" font-size="10.00">BehaviorAggregateClassifier</text>
</a>
</g>
</g>
<!-- DSQueue1&#45;&gt;BehaviorAggregateClassifier -->
<g id="edge1" class="edge">
<title>DSQueue1&#45;&gt;BehaviorAggregateClassifier</title>
<path fill="none" stroke="black" d="M278.83,-55.79C238.47,-46.69 171.1,-31.5 125.63,-21.24"/>
<polygon fill="black" stroke="black" points="126.24,-17.79 115.72,-19.01 124.7,-24.62 126.24,-17.79"/>
</g>
<!-- IdealChannel -->
<g id="node3" class="node">
<title>IdealChannel</title>
<g id="a_node3"><a xlink:href="ned.IdealChannel.html" xlink:title="Channel IdealChannel" target="_parent">
<polygon fill="#d0ffd0" stroke="black" points="254,-19 174,-19 174,0 254,0 254,-19"/>
<text text-anchor="middle" x="214" y="-7" font-family="Helvetica,sans-Serif" font-size="10.00">IdealChannel</text>
</a>
</g>
</g>
<!-- DSQueue1&#45;&gt;IdealChannel -->
<g id="edge2" class="edge">
<title>DSQueue1&#45;&gt;IdealChannel</title>
<path fill="none" stroke="black" d="M297.09,-54.98C281.45,-46.61 257.34,-33.7 239.12,-23.95"/>
<polygon fill="black" stroke="black" points="240.66,-20.8 230.2,-19.17 237.36,-26.98 240.66,-20.8"/>
</g>
<!-- WrrScheduler -->
<g id="node4" class="node">
<title>WrrScheduler</title>
<g id="a_node4"><a xlink:href="inet.queueing.scheduler.WrrScheduler.html" xlink:title="Simple Module WrrScheduler" target="_parent">
<polygon fill="#fffcaf" stroke="black" points="354,-19 272,-19 272,0 354,0 354,-19"/>
<text text-anchor="middle" x="313" y="-7" font-family="Helvetica,sans-Serif" font-size="10.00">WrrScheduler</text>
</a>
</g>
</g>
<!-- DSQueue1&#45;&gt;WrrScheduler -->
<g id="edge3" class="edge">
<title>DSQueue1&#45;&gt;WrrScheduler</title>
<path fill="none" stroke="black" d="M313,-54.75C313,-47.8 313,-37.85 313,-29.13"/>
<polygon fill="black" stroke="black" points="316.5,-29.09 313,-19.09 309.5,-29.09 316.5,-29.09"/>
</g>
<!-- PriorityScheduler -->
<g id="node5" class="node">
<title>PriorityScheduler</title>
<g id="a_node5"><a xlink:href="inet.queueing.scheduler.PriorityScheduler.html" xlink:title="Simple Module PriorityScheduler" target="_parent">
<polygon fill="#fffcaf" stroke="black" points="472,-19 372,-19 372,0 472,0 472,-19"/>
<text text-anchor="middle" x="422" y="-7" font-family="Helvetica,sans-Serif" font-size="10.00">PriorityScheduler</text>
</a>
</g>
</g>
<!-- DSQueue1&#45;&gt;PriorityScheduler -->
<g id="edge4" class="edge">
<title>DSQueue1&#45;&gt;PriorityScheduler</title>
<path fill="none" stroke="black" d="M330.51,-54.98C347.97,-46.5 375.01,-33.35 395.17,-23.54"/>
<polygon fill="black" stroke="black" points="396.71,-26.69 404.17,-19.17 393.64,-20.4 396.71,-26.69"/>
</g>
<!-- DropTailQueue -->
<g id="node6" class="node">
<title>DropTailQueue</title>
<g id="a_node6"><a xlink:href="inet.queueing.queue.DropTailQueue.html" xlink:title="Simple Module DropTailQueue" target="_parent">
<polygon fill="#fffcaf" stroke="black" points="578,-19 490,-19 490,0 578,0 578,-19"/>
<text text-anchor="middle" x="534" y="-7" font-family="Helvetica,sans-Serif" font-size="10.00">DropTailQueue</text>
</a>
</g>
</g>
<!-- DSQueue1&#45;&gt;DropTailQueue -->
<g id="edge5" class="edge">
<title>DSQueue1&#45;&gt;DropTailQueue</title>
<path fill="none" stroke="black" d="M347.05,-55.33C384.97,-46.24 446.44,-31.5 488.47,-21.42"/>
<polygon fill="black" stroke="black" points="489.54,-24.76 498.45,-19.03 487.91,-17.95 489.54,-24.76"/>
</g>
</g>
</svg>
