<?xml version="1.0" encoding="UTF-8" standalone="no"?>
<!DOCTYPE svg PUBLIC "-//W3C//DTD SVG 1.1//EN"
 "http://www.w3.org/Graphics/SVG/1.1/DTD/svg11.dtd">
<!-- Generated by graphviz version 2.43.0 (0)
 -->
<!-- Title: opp Pages: 1 -->
<svg width="520pt" height="82pt"
 viewBox="0.00 0.00 519.50 82.00" xmlns="http://www.w3.org/2000/svg" xmlns:xlink="http://www.w3.org/1999/xlink">
<g id="graph0" class="graph" transform="scale(1 1) rotate(0) translate(4 78)">
<title>opp</title>
<polygon fill="transparent" stroke="transparent" points="-4,4 -4,-78 515.5,-78 515.5,4 -4,4"/>
<!-- BgpNetwork -->
<g id="node1" class="node">
<title>BgpNetwork</title>
<g id="a_node1"><a xlink:href="inet.examples.bgpv4.BgpOpen.BgpNetwork.html" xlink:title="Network BgpNetwork" target="_parent">
<polygon fill="#9090ff" stroke="black" points="312,-74 235,-74 235,-55 312,-55 312,-74"/>
<text text-anchor="middle" x="273.5" y="-62" font-family="Helvetica,sans-Serif" font-size="10.00">BgpNetwork</text>
</a>
</g>
</g>
<!-- BGPRouterSimple -->
<g id="node2" class="node">
<title>BGPRouterSimple</title>
<g id="a_node2"><a xlink:href="inet.examples.bgpv4.BgpOpen.BGPRouterSimple.html" xlink:title="Compound Module BGPRouterSimple" target="_parent">
<polygon fill="#fffcaf" stroke="black" points="103,-19 0,-19 0,0 103,0 103,-19"/>
<text text-anchor="middle" x="51.5" y="-7" font-family="Helvetica,sans-Serif" font-size="10.00">BGPRouterSimple</text>
</a>
</g>
</g>
<!-- BgpNetwork&#45;&gt;BGPRouterSimple -->
<g id="edge1" class="edge">
<title>BgpNetwork&#45;&gt;BGPRouterSimple</title>
<path fill="none" stroke="black" d="M237.83,-54.98C199.67,-45.87 139.03,-31.4 97.35,-21.45"/>
<polygon fill="black" stroke="black" points="97.99,-18 87.45,-19.08 96.36,-24.81 97.99,-18"/>
</g>
<!-- Ipv4NetworkConfigurator -->
<g id="node3" class="node">
<title>Ipv4NetworkConfigurator</title>
<g id="a_node3"><a xlink:href="inet.networklayer.configurator.ipv4.Ipv4NetworkConfigurator.html" xlink:title="Simple Module Ipv4NetworkConfigurator" target="_parent">
<polygon fill="#fffcaf" stroke="black" points="261.5,-19 121.5,-19 121.5,0 261.5,0 261.5,-19"/>
<text text-anchor="middle" x="191.5" y="-7" font-family="Helvetica,sans-Serif" font-size="10.00">Ipv4NetworkConfigurator</text>
</a>
</g>
</g>
<!-- BgpNetwork&#45;&gt;Ipv4NetworkConfigurator -->
<g id="edge2" class="edge">
<title>BgpNetwork&#45;&gt;Ipv4NetworkConfigurator</title>
<path fill="none" stroke="black" d="M260.33,-54.98C247.73,-46.84 228.5,-34.41 213.56,-24.76"/>
<polygon fill="black" stroke="black" points="215.21,-21.66 204.91,-19.17 211.41,-27.54 215.21,-21.66"/>
</g>
<!-- IntegratedCanvasVisualizer -->
<g id="node4" class="node">
<title>IntegratedCanvasVisualizer</title>
<g id="a_node4"><a xlink:href="inet.visualizer.canvas.integrated.IntegratedCanvasVisualizer.html" xlink:title="Compound Module IntegratedCanvasVisualizer" target="_parent">
<polygon fill="#fffcaf" stroke="black" points="431,-19 280,-19 280,0 431,0 431,-19"/>
<text text-anchor="middle" x="355.5" y="-7" font-family="Helvetica,sans-Serif" font-size="10.00">IntegratedCanvasVisualizer</text>
</a>
</g>
</g>
<!-- BgpNetwork&#45;&gt;IntegratedCanvasVisualizer -->
<g id="edge3" class="edge">
<title>BgpNetwork&#45;&gt;IntegratedCanvasVisualizer</title>
<path fill="none" stroke="black" d="M286.67,-54.98C299.27,-46.84 318.5,-34.41 333.44,-24.76"/>
<polygon fill="black" stroke="black" points="335.59,-27.54 342.09,-19.17 331.79,-21.66 335.59,-27.54"/>
</g>
<!-- LINK_100 -->
<g id="node5" class="node">
<title>LINK_100</title>
<g id="a_node5"><a xlink:href="inet.examples.bgpv4.BgpOpen.BgpNetwork.LINK_100.html" xlink:title="Channel LINK_100" target="_parent">
<polygon fill="#d0ffd0" stroke="black" points="511.5,-19 449.5,-19 449.5,0 511.5,0 511.5,-19"/>
<text text-anchor="middle" x="480.5" y="-7" font-family="Helvetica,sans-Serif" font-size="10.00">LINK_100</text>
</a>
</g>
</g>
<!-- BgpNetwork&#45;&gt;LINK_100 -->
<g id="edge4" class="edge">
<title>BgpNetwork&#45;&gt;LINK_100</title>
<path fill="none" stroke="black" d="M306.76,-54.98C342.85,-45.74 400.51,-30.98 439.41,-21.02"/>
<polygon fill="black" stroke="black" points="440.54,-24.35 449.36,-18.47 438.8,-17.56 440.54,-24.35"/>
</g>
</g>
</svg>
