<?xml version="1.0" encoding="UTF-8" standalone="no"?>
<!DOCTYPE svg PUBLIC "-//W3C//DTD SVG 1.1//EN"
 "http://www.w3.org/Graphics/SVG/1.1/DTD/svg11.dtd">
<!-- Generated by graphviz version 2.43.0 (0)
 -->
<!-- Title: opp Pages: 1 -->
<svg width="689pt" height="82pt"
 viewBox="0.00 0.00 689.00 82.00" xmlns="http://www.w3.org/2000/svg" xmlns:xlink="http://www.w3.org/1999/xlink">
<g id="graph0" class="graph" transform="scale(1 1) rotate(0) translate(4 78)">
<title>opp</title>
<polygon fill="transparent" stroke="transparent" points="-4,4 -4,-78 685,-78 685,4 -4,4"/>
<!-- MediumActivityInterferingSignalsShowcase -->
<g id="node1" class="node">
<title>MediumActivityInterferingSignalsShowcase</title>
<g id="a_node1"><a xlink:href="inet.showcases.visualizer.canvas.radiomediumactivity.MediumActivityInterferingSignalsShowcase.html" xlink:title="Network MediumActivityInterferingSignalsShowcase" target="_parent">
<polygon fill="#9090ff" stroke="black" points="468,-74 239,-74 239,-55 468,-55 468,-74"/>
<text text-anchor="middle" x="353.5" y="-62" font-family="Helvetica,sans-Serif" font-size="10.00">MediumActivityInterferingSignalsShowcase</text>
</a>
</g>
</g>
<!-- PhysicalEnvironment -->
<g id="node2" class="node">
<title>PhysicalEnvironment</title>
<g id="a_node2"><a xlink:href="inet.environment.common.PhysicalEnvironment.html" xlink:title="Compound Module PhysicalEnvironment" target="_parent">
<polygon fill="#fffcaf" stroke="black" points="119,-19 0,-19 0,0 119,0 119,-19"/>
<text text-anchor="middle" x="59.5" y="-7" font-family="Helvetica,sans-Serif" font-size="10.00">PhysicalEnvironment</text>
</a>
</g>
</g>
<!-- MediumActivityInterferingSignalsShowcase&#45;&gt;PhysicalEnvironment -->
<g id="edge1" class="edge">
<title>MediumActivityInterferingSignalsShowcase&#45;&gt;PhysicalEnvironment</title>
<path fill="none" stroke="black" d="M306.26,-54.98C254.77,-45.7 172.34,-30.84 117.09,-20.88"/>
<polygon fill="black" stroke="black" points="117.57,-17.41 107.11,-19.08 116.33,-24.3 117.57,-17.41"/>
</g>
<!-- Ipv4NetworkConfigurator -->
<g id="node3" class="node">
<title>Ipv4NetworkConfigurator</title>
<g id="a_node3"><a xlink:href="inet.networklayer.configurator.ipv4.Ipv4NetworkConfigurator.html" xlink:title="Simple Module Ipv4NetworkConfigurator" target="_parent">
<polygon fill="#fffcaf" stroke="black" points="277.5,-19 137.5,-19 137.5,0 277.5,0 277.5,-19"/>
<text text-anchor="middle" x="207.5" y="-7" font-family="Helvetica,sans-Serif" font-size="10.00">Ipv4NetworkConfigurator</text>
</a>
</g>
</g>
<!-- MediumActivityInterferingSignalsShowcase&#45;&gt;Ipv4NetworkConfigurator -->
<g id="edge2" class="edge">
<title>MediumActivityInterferingSignalsShowcase&#45;&gt;Ipv4NetworkConfigurator</title>
<path fill="none" stroke="black" d="M330.04,-54.98C305.92,-46.23 268.13,-32.51 240.9,-22.62"/>
<polygon fill="black" stroke="black" points="241.98,-19.29 231.38,-19.17 239.59,-25.87 241.98,-19.29"/>
</g>
<!-- IntegratedVisualizer -->
<g id="node4" class="node">
<title>IntegratedVisualizer</title>
<g id="a_node4"><a xlink:href="inet.visualizer.common.IntegratedVisualizer.html" xlink:title="Compound Module IntegratedVisualizer" target="_parent">
<polygon fill="#fffcaf" stroke="black" points="411,-19 296,-19 296,0 411,0 411,-19"/>
<text text-anchor="middle" x="353.5" y="-7" font-family="Helvetica,sans-Serif" font-size="10.00">IntegratedVisualizer</text>
</a>
</g>
</g>
<!-- MediumActivityInterferingSignalsShowcase&#45;&gt;IntegratedVisualizer -->
<g id="edge3" class="edge">
<title>MediumActivityInterferingSignalsShowcase&#45;&gt;IntegratedVisualizer</title>
<path fill="none" stroke="black" d="M353.5,-54.75C353.5,-47.8 353.5,-37.85 353.5,-29.13"/>
<polygon fill="black" stroke="black" points="357,-29.09 353.5,-19.09 350,-29.09 357,-29.09"/>
</g>
<!-- AdhocHost -->
<g id="node5" class="node">
<title>AdhocHost</title>
<g id="a_node5"><a xlink:href="inet.node.inet.AdhocHost.html" xlink:title="Compound Module AdhocHost" target="_parent">
<polygon fill="#fffcaf" stroke="black" points="498,-19 429,-19 429,0 498,0 498,-19"/>
<text text-anchor="middle" x="463.5" y="-7" font-family="Helvetica,sans-Serif" font-size="10.00">AdhocHost</text>
</a>
</g>
</g>
<!-- MediumActivityInterferingSignalsShowcase&#45;&gt;AdhocHost -->
<g id="edge4" class="edge">
<title>MediumActivityInterferingSignalsShowcase&#45;&gt;AdhocHost</title>
<path fill="none" stroke="black" d="M371.17,-54.98C388.79,-46.5 416.08,-33.35 436.43,-23.54"/>
<polygon fill="black" stroke="black" points="438.02,-26.66 445.51,-19.17 434.98,-20.36 438.02,-26.66"/>
</g>
<!-- Ieee80211ScalarRadioMedium -->
<g id="node6" class="node">
<title>Ieee80211ScalarRadioMedium</title>
<g id="a_node6"><a xlink:href="inet.physicallayer.wireless.ieee80211.packetlevel.Ieee80211ScalarRadioMedium.html" xlink:title="Compound Module Ieee80211ScalarRadioMedium" target="_parent">
<polygon fill="#fffcaf" stroke="black" points="681,-19 516,-19 516,0 681,0 681,-19"/>
<text text-anchor="middle" x="598.5" y="-7" font-family="Helvetica,sans-Serif" font-size="10.00">Ieee80211ScalarRadioMedium</text>
</a>
</g>
</g>
<!-- MediumActivityInterferingSignalsShowcase&#45;&gt;Ieee80211ScalarRadioMedium -->
<g id="edge5" class="edge">
<title>MediumActivityInterferingSignalsShowcase&#45;&gt;Ieee80211ScalarRadioMedium</title>
<path fill="none" stroke="black" d="M392.86,-54.98C435.24,-45.82 502.76,-31.21 548.78,-21.26"/>
<polygon fill="black" stroke="black" points="549.79,-24.62 558.83,-19.08 548.31,-17.78 549.79,-24.62"/>
</g>
</g>
</svg>
