<?xml version="1.0" encoding="UTF-8" standalone="no"?>
<!DOCTYPE svg PUBLIC "-//W3C//DTD SVG 1.1//EN"
 "http://www.w3.org/Graphics/SVG/1.1/DTD/svg11.dtd">
<!-- Generated by graphviz version 2.43.0 (0)
 -->
<!-- Title: opp Pages: 1 -->
<svg width="694pt" height="82pt"
 viewBox="0.00 0.00 693.50 82.00" xmlns="http://www.w3.org/2000/svg" xmlns:xlink="http://www.w3.org/1999/xlink">
<g id="graph0" class="graph" transform="scale(1 1) rotate(0) translate(4 78)">
<title>opp</title>
<polygon fill="transparent" stroke="transparent" points="-4,4 -4,-78 689.5,-78 689.5,4 -4,4"/>
<!-- Node -->
<g id="node1" class="node">
<title>Node</title>
<g id="a_node1"><a xlink:href="inet.tutorials.protocol.Node.html" xlink:title="Compound Module Node" target="_parent">
<polygon fill="#fff700" stroke="black" points="364,-74 310,-74 310,-55 364,-55 364,-74"/>
<text text-anchor="middle" x="337" y="-62" font-family="Helvetica,sans-Serif" font-size="10.00">Node</text>
</a>
</g>
</g>
<!-- InterfaceTable -->
<g id="node2" class="node">
<title>InterfaceTable</title>
<g id="a_node2"><a xlink:href="inet.networklayer.common.InterfaceTable.html" xlink:title="Simple Module InterfaceTable" target="_parent">
<polygon fill="#fffcaf" stroke="black" points="86,-19 0,-19 0,0 86,0 86,-19"/>
<text text-anchor="middle" x="43" y="-7" font-family="Helvetica,sans-Serif" font-size="10.00">InterfaceTable</text>
</a>
</g>
</g>
<!-- Node&#45;&gt;InterfaceTable -->
<g id="edge1" class="edge">
<title>Node&#45;&gt;InterfaceTable</title>
<path fill="none" stroke="black" d="M309.87,-58.61C261.39,-49.87 159.1,-31.43 96.19,-20.09"/>
<polygon fill="black" stroke="black" points="96.53,-16.59 86.06,-18.26 95.29,-23.48 96.53,-16.59"/>
</g>
<!-- Interface -->
<g id="node3" class="node">
<title>Interface</title>
<g id="a_node3"><a xlink:href="inet.tutorials.protocol.Interface.html" xlink:title="Compound Module Interface" target="_parent">
<polygon fill="#fffcaf" stroke="black" points="164,-19 104,-19 104,0 164,0 164,-19"/>
<text text-anchor="middle" x="134" y="-7" font-family="Helvetica,sans-Serif" font-size="10.00">Interface</text>
</a>
</g>
</g>
<!-- Node&#45;&gt;Interface -->
<g id="edge2" class="edge">
<title>Node&#45;&gt;Interface</title>
<path fill="none" stroke="black" d="M309.62,-56.35C274.7,-47.24 214.05,-31.4 173.96,-20.93"/>
<polygon fill="black" stroke="black" points="174.8,-17.54 164.24,-18.4 173.04,-24.31 174.8,-17.54"/>
</g>
<!-- IdealChannel -->
<g id="node4" class="node">
<title>IdealChannel</title>
<g id="a_node4"><a xlink:href="ned.IdealChannel.html" xlink:title="Channel IdealChannel" target="_parent">
<polygon fill="#d0ffd0" stroke="black" points="262,-19 182,-19 182,0 262,0 262,-19"/>
<text text-anchor="middle" x="222" y="-7" font-family="Helvetica,sans-Serif" font-size="10.00">IdealChannel</text>
</a>
</g>
</g>
<!-- Node&#45;&gt;IdealChannel -->
<g id="edge3" class="edge">
<title>Node&#45;&gt;IdealChannel</title>
<path fill="none" stroke="black" d="M318.52,-54.98C300.02,-46.46 271.32,-33.23 250.02,-23.41"/>
<polygon fill="black" stroke="black" points="251.36,-20.18 240.81,-19.17 248.43,-26.53 251.36,-20.18"/>
</g>
<!-- MessageDispatcher -->
<g id="node5" class="node">
<title>MessageDispatcher</title>
<g id="a_node5"><a xlink:href="inet.common.MessageDispatcher.html" xlink:title="Simple Module MessageDispatcher" target="_parent">
<polygon fill="#fffcaf" stroke="black" points="393.5,-19 280.5,-19 280.5,0 393.5,0 393.5,-19"/>
<text text-anchor="middle" x="337" y="-7" font-family="Helvetica,sans-Serif" font-size="10.00">MessageDispatcher</text>
</a>
</g>
</g>
<!-- Node&#45;&gt;MessageDispatcher -->
<g id="edge4" class="edge">
<title>Node&#45;&gt;MessageDispatcher</title>
<path fill="none" stroke="black" d="M337,-54.75C337,-47.8 337,-37.85 337,-29.13"/>
<polygon fill="black" stroke="black" points="340.5,-29.09 337,-19.09 333.5,-29.09 340.5,-29.09"/>
</g>
<!-- DataService -->
<g id="node6" class="node">
<title>DataService</title>
<g id="a_node6"><a xlink:href="inet.tutorials.protocol.DataService.html" xlink:title="Compound Module DataService" target="_parent">
<polygon fill="#fffcaf" stroke="black" points="488,-19 412,-19 412,0 488,0 488,-19"/>
<text text-anchor="middle" x="450" y="-7" font-family="Helvetica,sans-Serif" font-size="10.00">DataService</text>
</a>
</g>
</g>
<!-- Node&#45;&gt;DataService -->
<g id="edge5" class="edge">
<title>Node&#45;&gt;DataService</title>
<path fill="none" stroke="black" d="M355.16,-54.98C373.25,-46.5 401.28,-33.35 422.19,-23.54"/>
<polygon fill="black" stroke="black" points="423.95,-26.59 431.51,-19.17 420.97,-20.25 423.95,-26.59"/>
</g>
<!-- IApp -->
<g id="node7" class="node">
<title>IApp</title>
<g id="a_node7"><a xlink:href="inet.tutorials.protocol.IApp.html" xlink:title="Module Interface IApp" target="_parent">
<polygon fill="#fffcaf" stroke="black" stroke-dasharray="5,2" points="560,-19 506,-19 506,0 560,0 560,-19"/>
<text text-anchor="middle" x="533" y="-7" font-family="Helvetica,sans-Serif" font-size="10.00">IApp</text>
</a>
</g>
</g>
<!-- Node&#45;&gt;IApp -->
<g id="edge6" class="edge">
<title>Node&#45;&gt;IApp</title>
<path fill="none" stroke="black" d="M364.25,-56.13C398.63,-46.84 457.87,-30.82 496.23,-20.44"/>
<polygon fill="black" stroke="black" points="497.24,-23.8 505.98,-17.81 495.41,-17.04 497.24,-23.8"/>
</g>
<!-- ForwardingService -->
<g id="node8" class="node">
<title>ForwardingService</title>
<g id="a_node8"><a xlink:href="inet.tutorials.protocol.ForwardingService.html" xlink:title="Compound Module ForwardingService" target="_parent">
<polygon fill="#fffcaf" stroke="black" points="685.5,-19 578.5,-19 578.5,0 685.5,0 685.5,-19"/>
<text text-anchor="middle" x="632" y="-7" font-family="Helvetica,sans-Serif" font-size="10.00">ForwardingService</text>
</a>
</g>
</g>
<!-- Node&#45;&gt;ForwardingService -->
<g id="edge7" class="edge">
<title>Node&#45;&gt;ForwardingService</title>
<path fill="none" stroke="black" d="M364.22,-58.61C411.88,-50.05 511.38,-32.17 574.75,-20.78"/>
<polygon fill="black" stroke="black" points="575.38,-24.23 584.6,-19.02 574.14,-17.34 575.38,-24.23"/>
</g>
</g>
</svg>
