<?xml version="1.0" encoding="UTF-8" standalone="no"?>
<!DOCTYPE svg PUBLIC "-//W3C//DTD SVG 1.1//EN"
 "http://www.w3.org/Graphics/SVG/1.1/DTD/svg11.dtd">
<!-- Generated by graphviz version 2.43.0 (0)
 -->
<!-- Title: opp Pages: 1 -->
<svg width="370pt" height="82pt"
 viewBox="0.00 0.00 370.00 82.00" xmlns="http://www.w3.org/2000/svg" xmlns:xlink="http://www.w3.org/1999/xlink">
<g id="graph0" class="graph" transform="scale(1 1) rotate(0) translate(4 78)">
<title>opp</title>
<polygon fill="transparent" stroke="transparent" points="-4,4 -4,-78 366,-78 366,4 -4,4"/>
<!-- RTPMulticast1 -->
<g id="node1" class="node">
<title>RTPMulticast1</title>
<g id="a_node1"><a xlink:href="inet.examples.rtp.multicast1.RTPMulticast1.html" xlink:title="Network RTPMulticast1" target="_parent">
<polygon fill="#9090ff" stroke="black" points="203,-74 117,-74 117,-55 203,-55 203,-74"/>
<text text-anchor="middle" x="160" y="-62" font-family="Helvetica,sans-Serif" font-size="10.00">RTPMulticast1</text>
</a>
</g>
</g>
<!-- ethernet -->
<g id="node2" class="node">
<title>ethernet</title>
<g id="a_node2"><a xlink:href="inet.examples.rtp.multicast1.RTPMulticast1.ethernet.html" xlink:title="Channel ethernet" target="_parent">
<polygon fill="#d0ffd0" stroke="black" points="58,-19 0,-19 0,0 58,0 58,-19"/>
<text text-anchor="middle" x="29" y="-7" font-family="Helvetica,sans-Serif" font-size="10.00">ethernet</text>
</a>
</g>
</g>
<!-- RTPMulticast1&#45;&gt;ethernet -->
<g id="edge1" class="edge">
<title>RTPMulticast1&#45;&gt;ethernet</title>
<path fill="none" stroke="black" d="M138.95,-54.98C117.59,-46.34 84.3,-32.87 59.94,-23.02"/>
<polygon fill="black" stroke="black" points="61.01,-19.68 50.43,-19.17 58.39,-26.17 61.01,-19.68"/>
</g>
<!-- Router -->
<g id="node3" class="node">
<title>Router</title>
<g id="a_node3"><a xlink:href="inet.node.inet.Router.html" xlink:title="Compound Module Router" target="_parent">
<polygon fill="#fffcaf" stroke="black" points="130,-19 76,-19 76,0 130,0 130,-19"/>
<text text-anchor="middle" x="103" y="-7" font-family="Helvetica,sans-Serif" font-size="10.00">Router</text>
</a>
</g>
</g>
<!-- RTPMulticast1&#45;&gt;Router -->
<g id="edge2" class="edge">
<title>RTPMulticast1&#45;&gt;Router</title>
<path fill="none" stroke="black" d="M150.84,-54.98C142.5,-47.23 129.97,-35.58 119.82,-26.14"/>
<polygon fill="black" stroke="black" points="122.03,-23.42 112.32,-19.17 117.26,-28.54 122.03,-23.42"/>
</g>
<!-- Ipv4NetworkConfigurator -->
<g id="node4" class="node">
<title>Ipv4NetworkConfigurator</title>
<g id="a_node4"><a xlink:href="inet.networklayer.configurator.ipv4.Ipv4NetworkConfigurator.html" xlink:title="Simple Module Ipv4NetworkConfigurator" target="_parent">
<polygon fill="#fffcaf" stroke="black" points="288,-19 148,-19 148,0 288,0 288,-19"/>
<text text-anchor="middle" x="218" y="-7" font-family="Helvetica,sans-Serif" font-size="10.00">Ipv4NetworkConfigurator</text>
</a>
</g>
</g>
<!-- RTPMulticast1&#45;&gt;Ipv4NetworkConfigurator -->
<g id="edge3" class="edge">
<title>RTPMulticast1&#45;&gt;Ipv4NetworkConfigurator</title>
<path fill="none" stroke="black" d="M169.32,-54.98C177.81,-47.23 190.56,-35.58 200.88,-26.14"/>
<polygon fill="black" stroke="black" points="203.49,-28.5 208.51,-19.17 198.77,-23.33 203.49,-28.5"/>
</g>
<!-- RtpHost -->
<g id="node5" class="node">
<title>RtpHost</title>
<g id="a_node5"><a xlink:href="inet.node.rtp.RtpHost.html" xlink:title="Compound Module RtpHost" target="_parent">
<polygon fill="#fffcaf" stroke="black" points="362,-19 306,-19 306,0 362,0 362,-19"/>
<text text-anchor="middle" x="334" y="-7" font-family="Helvetica,sans-Serif" font-size="10.00">RtpHost</text>
</a>
</g>
</g>
<!-- RTPMulticast1&#45;&gt;RtpHost -->
<g id="edge4" class="edge">
<title>RTPMulticast1&#45;&gt;RtpHost</title>
<path fill="none" stroke="black" d="M187.96,-54.98C217.3,-46.05 263.6,-31.94 296.19,-22.02"/>
<polygon fill="black" stroke="black" points="297.28,-25.34 305.82,-19.08 295.24,-18.65 297.28,-25.34"/>
</g>
</g>
</svg>
