<?xml version="1.0" encoding="UTF-8" standalone="no"?>
<!DOCTYPE svg PUBLIC "-//W3C//DTD SVG 1.1//EN"
 "http://www.w3.org/Graphics/SVG/1.1/DTD/svg11.dtd">
<!-- Generated by graphviz version 2.43.0 (0)
 -->
<!-- Title: opp Pages: 1 -->
<svg width="459pt" height="137pt"
 viewBox="0.00 0.00 459.00 137.00" xmlns="http://www.w3.org/2000/svg" xmlns:xlink="http://www.w3.org/1999/xlink">
<g id="graph0" class="graph" transform="scale(1 1) rotate(0) translate(4 133)">
<title>opp</title>
<polygon fill="transparent" stroke="transparent" points="-4,4 -4,-133 455,-133 455,4 -4,4"/>
<!-- TwoNetsArea -->
<g id="node1" class="node">
<title>TwoNetsArea</title>
<g id="a_node1"><a xlink:href="inet.examples.ospfv2.areas.TwoNetsArea.html" xlink:title="Compound Module TwoNetsArea" target="_parent">
<polygon fill="#fff700" stroke="black" points="269,-74 189,-74 189,-55 269,-55 269,-74"/>
<text text-anchor="middle" x="229" y="-62" font-family="Helvetica,sans-Serif" font-size="10.00">TwoNetsArea</text>
</a>
</g>
</g>
<!-- IdealChannel -->
<g id="node2" class="node">
<title>IdealChannel</title>
<g id="a_node2"><a xlink:href="ned.IdealChannel.html" xlink:title="Channel IdealChannel" target="_parent">
<polygon fill="#d0ffd0" stroke="black" points="80,-19 0,-19 0,0 80,0 80,-19"/>
<text text-anchor="middle" x="40" y="-7" font-family="Helvetica,sans-Serif" font-size="10.00">IdealChannel</text>
</a>
</g>
</g>
<!-- TwoNetsArea&#45;&gt;IdealChannel -->
<g id="edge1" class="edge">
<title>TwoNetsArea&#45;&gt;IdealChannel</title>
<path fill="none" stroke="black" d="M198.63,-54.98C166.63,-46.01 116.04,-31.82 80.62,-21.89"/>
<polygon fill="black" stroke="black" points="81.18,-18.41 70.6,-19.08 79.29,-25.15 81.18,-18.41"/>
</g>
<!-- OspfRouter -->
<g id="node3" class="node">
<title>OspfRouter</title>
<g id="a_node3"><a xlink:href="inet.node.ospfv2.OspfRouter.html" xlink:title="Compound Module OspfRouter" target="_parent">
<polygon fill="#fffcaf" stroke="black" points="169.5,-19 98.5,-19 98.5,0 169.5,0 169.5,-19"/>
<text text-anchor="middle" x="134" y="-7" font-family="Helvetica,sans-Serif" font-size="10.00">OspfRouter</text>
</a>
</g>
</g>
<!-- TwoNetsArea&#45;&gt;OspfRouter -->
<g id="edge2" class="edge">
<title>TwoNetsArea&#45;&gt;OspfRouter</title>
<path fill="none" stroke="black" d="M213.74,-54.98C198.87,-46.69 176.02,-33.94 158.58,-24.22"/>
<polygon fill="black" stroke="black" points="159.98,-20.99 149.54,-19.17 156.57,-27.1 159.98,-20.99"/>
</g>
<!-- StandardHost -->
<g id="node4" class="node">
<title>StandardHost</title>
<g id="a_node4"><a xlink:href="inet.node.inet.StandardHost.html" xlink:title="Compound Module StandardHost" target="_parent">
<polygon fill="#fffcaf" stroke="black" points="270.5,-19 187.5,-19 187.5,0 270.5,0 270.5,-19"/>
<text text-anchor="middle" x="229" y="-7" font-family="Helvetica,sans-Serif" font-size="10.00">StandardHost</text>
</a>
</g>
</g>
<!-- TwoNetsArea&#45;&gt;StandardHost -->
<g id="edge3" class="edge">
<title>TwoNetsArea&#45;&gt;StandardHost</title>
<path fill="none" stroke="black" d="M229,-54.75C229,-47.8 229,-37.85 229,-29.13"/>
<polygon fill="black" stroke="black" points="232.5,-29.09 229,-19.09 225.5,-29.09 232.5,-29.09"/>
</g>
<!-- C -->
<g id="node5" class="node">
<title>C</title>
<g id="a_node5"><a xlink:href="inet.examples.ospfv2.areas.TwoNetsArea.C.html" xlink:title="Channel C" target="_parent">
<polygon fill="#d0ffd0" stroke="black" points="343,-19 289,-19 289,0 343,0 343,-19"/>
<text text-anchor="middle" x="316" y="-7" font-family="Helvetica,sans-Serif" font-size="10.00">C</text>
</a>
</g>
</g>
<!-- TwoNetsArea&#45;&gt;C -->
<g id="edge4" class="edge">
<title>TwoNetsArea&#45;&gt;C</title>
<path fill="none" stroke="black" d="M242.98,-54.98C256.47,-46.77 277.13,-34.18 293.04,-24.49"/>
<polygon fill="black" stroke="black" points="295.05,-27.36 301.77,-19.17 291.41,-21.38 295.05,-27.36"/>
</g>
<!-- EthernetSwitch -->
<g id="node6" class="node">
<title>EthernetSwitch</title>
<g id="a_node6"><a xlink:href="inet.node.ethernet.EthernetSwitch.html" xlink:title="Compound Module EthernetSwitch" target="_parent">
<polygon fill="#fffcaf" stroke="black" points="451,-19 361,-19 361,0 451,0 451,-19"/>
<text text-anchor="middle" x="406" y="-7" font-family="Helvetica,sans-Serif" font-size="10.00">EthernetSwitch</text>
</a>
</g>
</g>
<!-- TwoNetsArea&#45;&gt;EthernetSwitch -->
<g id="edge5" class="edge">
<title>TwoNetsArea&#45;&gt;EthernetSwitch</title>
<path fill="none" stroke="black" d="M257.44,-54.98C287.28,-46.05 334.38,-31.94 367.53,-22.02"/>
<polygon fill="black" stroke="black" points="368.76,-25.3 377.34,-19.08 366.76,-18.6 368.76,-25.3"/>
</g>
<!-- OSPF_AreaTest -->
<g id="node7" class="node">
<title>OSPF_AreaTest</title>
<g id="a_node7"><a xlink:href="inet.examples.ospfv2.areas.OSPF_AreaTest.html" xlink:title="Network OSPF_AreaTest" target="_parent">
<polygon fill="#d0d0ff" stroke="black" points="273.5,-129 184.5,-129 184.5,-110 273.5,-110 273.5,-129"/>
<text text-anchor="middle" x="229" y="-117" font-family="Helvetica,sans-Serif" font-size="10.00">OSPF_AreaTest</text>
</a>
</g>
</g>
<!-- OSPF_AreaTest&#45;&gt;TwoNetsArea -->
<g id="edge6" class="edge">
<title>OSPF_AreaTest&#45;&gt;TwoNetsArea</title>
<path fill="none" stroke="black" d="M229,-109.75C229,-102.8 229,-92.85 229,-84.13"/>
<polygon fill="black" stroke="black" points="232.5,-84.09 229,-74.09 225.5,-84.09 232.5,-84.09"/>
</g>
</g>
</svg>
