<?xml version="1.0" encoding="UTF-8" standalone="no"?>
<!DOCTYPE svg PUBLIC "-//W3C//DTD SVG 1.1//EN"
 "http://www.w3.org/Graphics/SVG/1.1/DTD/svg11.dtd">
<!-- Generated by graphviz version 2.43.0 (0)
 -->
<!-- Title: opp Pages: 1 -->
<svg width="749pt" height="82pt"
 viewBox="0.00 0.00 749.00 82.00" xmlns="http://www.w3.org/2000/svg" xmlns:xlink="http://www.w3.org/1999/xlink">
<g id="graph0" class="graph" transform="scale(1 1) rotate(0) translate(4 78)">
<title>opp</title>
<polygon fill="transparent" stroke="transparent" points="-4,4 -4,-78 745,-78 745,4 -4,4"/>
<!-- ConfiguratorA -->
<g id="node1" class="node">
<title>ConfiguratorA</title>
<g id="a_node1"><a xlink:href="inet.tutorials.configurator.ConfiguratorA.html" xlink:title="Network ConfiguratorA" target="_parent">
<polygon fill="#9090ff" stroke="black" points="400.5,-74 316.5,-74 316.5,-55 400.5,-55 400.5,-74"/>
<text text-anchor="middle" x="358.5" y="-62" font-family="Helvetica,sans-Serif" font-size="10.00">ConfiguratorA</text>
</a>
</g>
</g>
<!-- StandardHost -->
<g id="node2" class="node">
<title>StandardHost</title>
<g id="a_node2"><a xlink:href="inet.node.inet.StandardHost.html" xlink:title="Compound Module StandardHost" target="_parent">
<polygon fill="#fffcaf" stroke="black" points="83,-19 0,-19 0,0 83,0 83,-19"/>
<text text-anchor="middle" x="41.5" y="-7" font-family="Helvetica,sans-Serif" font-size="10.00">StandardHost</text>
</a>
</g>
</g>
<!-- ConfiguratorA&#45;&gt;StandardHost -->
<g id="edge1" class="edge">
<title>ConfiguratorA&#45;&gt;StandardHost</title>
<path fill="none" stroke="black" d="M316.4,-56.46C258.73,-46.82 155.23,-29.52 93.01,-19.11"/>
<polygon fill="black" stroke="black" points="93.45,-15.64 83.01,-17.44 92.3,-22.54 93.45,-15.64"/>
</g>
<!-- Router -->
<g id="node3" class="node">
<title>Router</title>
<g id="a_node3"><a xlink:href="inet.node.inet.Router.html" xlink:title="Compound Module Router" target="_parent">
<polygon fill="#fffcaf" stroke="black" points="155.5,-19 101.5,-19 101.5,0 155.5,0 155.5,-19"/>
<text text-anchor="middle" x="128.5" y="-7" font-family="Helvetica,sans-Serif" font-size="10.00">Router</text>
</a>
</g>
</g>
<!-- ConfiguratorA&#45;&gt;Router -->
<g id="edge2" class="edge">
<title>ConfiguratorA&#45;&gt;Router</title>
<path fill="none" stroke="black" d="M320.93,-54.96C283.9,-46.52 225.43,-33.15 165.62,-19.25"/>
<polygon fill="black" stroke="black" points="166.16,-15.78 155.62,-16.92 164.57,-22.6 166.16,-15.78"/>
</g>
<!-- Ipv4NetworkConfigurator -->
<g id="node4" class="node">
<title>Ipv4NetworkConfigurator</title>
<g id="a_node4"><a xlink:href="inet.networklayer.configurator.ipv4.Ipv4NetworkConfigurator.html" xlink:title="Simple Module Ipv4NetworkConfigurator" target="_parent">
<polygon fill="#fffcaf" stroke="black" points="313.5,-19 173.5,-19 173.5,0 313.5,0 313.5,-19"/>
<text text-anchor="middle" x="243.5" y="-7" font-family="Helvetica,sans-Serif" font-size="10.00">Ipv4NetworkConfigurator</text>
</a>
</g>
</g>
<!-- ConfiguratorA&#45;&gt;Ipv4NetworkConfigurator -->
<g id="edge3" class="edge">
<title>ConfiguratorA&#45;&gt;Ipv4NetworkConfigurator</title>
<path fill="none" stroke="black" d="M340.02,-54.98C321.52,-46.46 292.82,-33.23 271.52,-23.41"/>
<polygon fill="black" stroke="black" points="272.86,-20.18 262.31,-19.17 269.93,-26.53 272.86,-20.18"/>
</g>
<!-- Eth10M -->
<g id="node5" class="node">
<title>Eth10M</title>
<g id="a_node5"><a xlink:href="inet.node.ethernet.Eth10M.html" xlink:title="Channel Eth10M" target="_parent">
<polygon fill="#d0ffd0" stroke="black" points="385.5,-19 331.5,-19 331.5,0 385.5,0 385.5,-19"/>
<text text-anchor="middle" x="358.5" y="-7" font-family="Helvetica,sans-Serif" font-size="10.00">Eth10M</text>
</a>
</g>
</g>
<!-- ConfiguratorA&#45;&gt;Eth10M -->
<g id="edge4" class="edge">
<title>ConfiguratorA&#45;&gt;Eth10M</title>
<path fill="none" stroke="black" d="M358.5,-54.75C358.5,-47.8 358.5,-37.85 358.5,-29.13"/>
<polygon fill="black" stroke="black" points="362,-29.09 358.5,-19.09 355,-29.09 362,-29.09"/>
</g>
<!-- IntegratedCanvasVisualizer -->
<g id="node6" class="node">
<title>IntegratedCanvasVisualizer</title>
<g id="a_node6"><a xlink:href="inet.visualizer.canvas.integrated.IntegratedCanvasVisualizer.html" xlink:title="Compound Module IntegratedCanvasVisualizer" target="_parent">
<polygon fill="#fffcaf" stroke="black" points="555,-19 404,-19 404,0 555,0 555,-19"/>
<text text-anchor="middle" x="479.5" y="-7" font-family="Helvetica,sans-Serif" font-size="10.00">IntegratedCanvasVisualizer</text>
</a>
</g>
</g>
<!-- ConfiguratorA&#45;&gt;IntegratedCanvasVisualizer -->
<g id="edge5" class="edge">
<title>ConfiguratorA&#45;&gt;IntegratedCanvasVisualizer</title>
<path fill="none" stroke="black" d="M377.94,-54.98C397.49,-46.42 427.88,-33.11 450.32,-23.28"/>
<polygon fill="black" stroke="black" points="451.95,-26.39 459.71,-19.17 449.14,-19.98 451.95,-26.39"/>
</g>
<!-- EthernetSwitch -->
<g id="node7" class="node">
<title>EthernetSwitch</title>
<g id="a_node7"><a xlink:href="inet.node.ethernet.EthernetSwitch.html" xlink:title="Compound Module EthernetSwitch" target="_parent">
<polygon fill="#fffcaf" stroke="black" points="663.5,-19 573.5,-19 573.5,0 663.5,0 663.5,-19"/>
<text text-anchor="middle" x="618.5" y="-7" font-family="Helvetica,sans-Serif" font-size="10.00">EthernetSwitch</text>
</a>
</g>
</g>
<!-- ConfiguratorA&#45;&gt;EthernetSwitch -->
<g id="edge6" class="edge">
<title>ConfiguratorA&#45;&gt;EthernetSwitch</title>
<path fill="none" stroke="black" d="M400.27,-54.98C445.44,-45.78 517.5,-31.09 566.35,-21.13"/>
<polygon fill="black" stroke="black" points="567.3,-24.51 576.4,-19.08 565.9,-17.65 567.3,-24.51"/>
</g>
<!-- Eth100M -->
<g id="node8" class="node">
<title>Eth100M</title>
<g id="a_node8"><a xlink:href="inet.node.ethernet.Eth100M.html" xlink:title="Channel Eth100M" target="_parent">
<polygon fill="#d0ffd0" stroke="black" points="741,-19 682,-19 682,0 741,0 741,-19"/>
<text text-anchor="middle" x="711.5" y="-7" font-family="Helvetica,sans-Serif" font-size="10.00">Eth100M</text>
</a>
</g>
</g>
<!-- ConfiguratorA&#45;&gt;Eth100M -->
<g id="edge7" class="edge">
<title>ConfiguratorA&#45;&gt;Eth100M</title>
<path fill="none" stroke="black" d="M400.56,-58.54C459.06,-51.42 568.52,-37.31 671.76,-19.01"/>
<polygon fill="black" stroke="black" points="672.51,-22.43 681.73,-17.22 671.27,-15.54 672.51,-22.43"/>
</g>
</g>
</svg>
