<?xml version="1.0" encoding="UTF-8" standalone="no"?>
<!DOCTYPE svg PUBLIC "-//W3C//DTD SVG 1.1//EN"
 "http://www.w3.org/Graphics/SVG/1.1/DTD/svg11.dtd">
<!-- Generated by graphviz version 2.43.0 (0)
 -->
<!-- Title: opp Pages: 1 -->
<svg width="610pt" height="82pt"
 viewBox="0.00 0.00 609.50 82.00" xmlns="http://www.w3.org/2000/svg" xmlns:xlink="http://www.w3.org/1999/xlink">
<g id="graph0" class="graph" transform="scale(1 1) rotate(0) translate(4 78)">
<title>opp</title>
<polygon fill="transparent" stroke="transparent" points="-4,4 -4,-78 605.5,-78 605.5,4 -4,4"/>
<!-- MixedLAN -->
<g id="node1" class="node">
<title>MixedLAN</title>
<g id="a_node1"><a xlink:href="inet.examples.ethernet.lans.MixedLAN.html" xlink:title="Network MixedLAN" target="_parent">
<polygon fill="#9090ff" stroke="black" points="338.5,-74 271.5,-74 271.5,-55 338.5,-55 338.5,-74"/>
<text text-anchor="middle" x="305" y="-62" font-family="Helvetica,sans-Serif" font-size="10.00">MixedLAN</text>
</a>
</g>
</g>
<!-- EthernetHost -->
<g id="node2" class="node">
<title>EthernetHost</title>
<g id="a_node2"><a xlink:href="inet.node.ethernet.EthernetHost.html" xlink:title="Compound Module EthernetHost" target="_parent">
<polygon fill="#fffcaf" stroke="black" points="80,-19 0,-19 0,0 80,0 80,-19"/>
<text text-anchor="middle" x="40" y="-7" font-family="Helvetica,sans-Serif" font-size="10.00">EthernetHost</text>
</a>
</g>
</g>
<!-- MixedLAN&#45;&gt;EthernetHost -->
<g id="edge1" class="edge">
<title>MixedLAN&#45;&gt;EthernetHost</title>
<path fill="none" stroke="black" d="M271.44,-56.79C225.64,-47.63 143.22,-31.14 90.1,-20.52"/>
<polygon fill="black" stroke="black" points="90.7,-17.07 80.21,-18.54 89.33,-23.93 90.7,-17.07"/>
</g>
<!-- EthernetHub -->
<g id="node3" class="node">
<title>EthernetHub</title>
<g id="a_node3"><a xlink:href="inet.node.ethernet.EthernetHub.html" xlink:title="Simple Module EthernetHub" target="_parent">
<polygon fill="#fffcaf" stroke="black" points="175.5,-19 98.5,-19 98.5,0 175.5,0 175.5,-19"/>
<text text-anchor="middle" x="137" y="-7" font-family="Helvetica,sans-Serif" font-size="10.00">EthernetHub</text>
</a>
</g>
</g>
<!-- MixedLAN&#45;&gt;EthernetHub -->
<g id="edge2" class="edge">
<title>MixedLAN&#45;&gt;EthernetHub</title>
<path fill="none" stroke="black" d="M278.01,-54.98C249.8,-46.09 205.36,-32.07 173.92,-22.15"/>
<polygon fill="black" stroke="black" points="174.79,-18.75 164.2,-19.08 172.69,-25.43 174.79,-18.75"/>
</g>
<!-- Eth10M -->
<g id="node4" class="node">
<title>Eth10M</title>
<g id="a_node4"><a xlink:href="inet.node.ethernet.Eth10M.html" xlink:title="Channel Eth10M" target="_parent">
<polygon fill="#d0ffd0" stroke="black" points="248,-19 194,-19 194,0 248,0 248,-19"/>
<text text-anchor="middle" x="221" y="-7" font-family="Helvetica,sans-Serif" font-size="10.00">Eth10M</text>
</a>
</g>
</g>
<!-- MixedLAN&#45;&gt;Eth10M -->
<g id="edge3" class="edge">
<title>MixedLAN&#45;&gt;Eth10M</title>
<path fill="none" stroke="black" d="M291.5,-54.98C278.6,-46.84 258.9,-34.41 243.6,-24.76"/>
<polygon fill="black" stroke="black" points="245.07,-21.55 234.74,-19.17 241.33,-27.47 245.07,-21.55"/>
</g>
<!-- WireJunction -->
<g id="node5" class="node">
<title>WireJunction</title>
<g id="a_node5"><a xlink:href="inet.physicallayer.wired.common.WireJunction.html" xlink:title="Simple Module WireJunction" target="_parent">
<polygon fill="#fffcaf" stroke="black" points="344,-19 266,-19 266,0 344,0 344,-19"/>
<text text-anchor="middle" x="305" y="-7" font-family="Helvetica,sans-Serif" font-size="10.00">WireJunction</text>
</a>
</g>
</g>
<!-- MixedLAN&#45;&gt;WireJunction -->
<g id="edge4" class="edge">
<title>MixedLAN&#45;&gt;WireJunction</title>
<path fill="none" stroke="black" d="M305,-54.75C305,-47.8 305,-37.85 305,-29.13"/>
<polygon fill="black" stroke="black" points="308.5,-29.09 305,-19.09 301.5,-29.09 308.5,-29.09"/>
</g>
<!-- C -->
<g id="node6" class="node">
<title>C</title>
<g id="a_node6"><a xlink:href="inet.examples.ethernet.lans.MixedLAN.C.html" xlink:title="Channel C" target="_parent">
<polygon fill="#d0ffd0" stroke="black" points="416,-19 362,-19 362,0 416,0 416,-19"/>
<text text-anchor="middle" x="389" y="-7" font-family="Helvetica,sans-Serif" font-size="10.00">C</text>
</a>
</g>
</g>
<!-- MixedLAN&#45;&gt;C -->
<g id="edge5" class="edge">
<title>MixedLAN&#45;&gt;C</title>
<path fill="none" stroke="black" d="M318.5,-54.98C331.4,-46.84 351.1,-34.41 366.4,-24.76"/>
<polygon fill="black" stroke="black" points="368.67,-27.47 375.26,-19.17 364.93,-21.55 368.67,-27.47"/>
</g>
<!-- EthernetSwitch -->
<g id="node7" class="node">
<title>EthernetSwitch</title>
<g id="a_node7"><a xlink:href="inet.node.ethernet.EthernetSwitch.html" xlink:title="Compound Module EthernetSwitch" target="_parent">
<polygon fill="#fffcaf" stroke="black" points="524,-19 434,-19 434,0 524,0 524,-19"/>
<text text-anchor="middle" x="479" y="-7" font-family="Helvetica,sans-Serif" font-size="10.00">EthernetSwitch</text>
</a>
</g>
</g>
<!-- MixedLAN&#45;&gt;EthernetSwitch -->
<g id="edge6" class="edge">
<title>MixedLAN&#45;&gt;EthernetSwitch</title>
<path fill="none" stroke="black" d="M332.96,-54.98C362.3,-46.05 408.6,-31.94 441.19,-22.02"/>
<polygon fill="black" stroke="black" points="442.28,-25.34 450.82,-19.08 440.24,-18.65 442.28,-25.34"/>
</g>
<!-- Eth100M -->
<g id="node8" class="node">
<title>Eth100M</title>
<g id="a_node8"><a xlink:href="inet.node.ethernet.Eth100M.html" xlink:title="Channel Eth100M" target="_parent">
<polygon fill="#d0ffd0" stroke="black" points="601.5,-19 542.5,-19 542.5,0 601.5,0 601.5,-19"/>
<text text-anchor="middle" x="572" y="-7" font-family="Helvetica,sans-Serif" font-size="10.00">Eth100M</text>
</a>
</g>
</g>
<!-- MixedLAN&#45;&gt;Eth100M -->
<g id="edge7" class="edge">
<title>MixedLAN&#45;&gt;Eth100M</title>
<path fill="none" stroke="black" d="M338.66,-57.17C381.27,-49.1 457.19,-34.55 532.12,-19.14"/>
<polygon fill="black" stroke="black" points="533.12,-22.51 542.2,-17.06 531.7,-15.66 533.12,-22.51"/>
</g>
</g>
</svg>
