<?xml version="1.0" encoding="UTF-8" standalone="no"?>
<!DOCTYPE svg PUBLIC "-//W3C//DTD SVG 1.1//EN"
 "http://www.w3.org/Graphics/SVG/1.1/DTD/svg11.dtd">
<!-- Generated by graphviz version 2.43.0 (0)
 -->
<!-- Title: opp Pages: 1 -->
<svg width="1705pt" height="137pt"
 viewBox="0.00 0.00 1705.00 137.00" xmlns="http://www.w3.org/2000/svg" xmlns:xlink="http://www.w3.org/1999/xlink">
<g id="graph0" class="graph" transform="scale(1 1) rotate(0) translate(4 133)">
<title>opp</title>
<polygon fill="transparent" stroke="transparent" points="-4,4 -4,-133 1701,-133 1701,4 -4,4"/>
<!-- SenderHost -->
<g id="node1" class="node">
<title>SenderHost</title>
<g id="a_node1"><a xlink:href="inet.tutorials.protocol.SenderHost.html" xlink:title="Compound Module SenderHost" target="_parent">
<polygon fill="#fff700" stroke="black" points="927.5,-74 854.5,-74 854.5,-55 927.5,-55 927.5,-74"/>
<text text-anchor="middle" x="891" y="-62" font-family="Helvetica,sans-Serif" font-size="10.00">SenderHost</text>
</a>
</g>
</g>
<!-- IdealChannel -->
<g id="node2" class="node">
<title>IdealChannel</title>
<g id="a_node2"><a xlink:href="ned.IdealChannel.html" xlink:title="Channel IdealChannel" target="_parent">
<polygon fill="#d0ffd0" stroke="black" points="80,-19 0,-19 0,0 80,0 80,-19"/>
<text text-anchor="middle" x="40" y="-7" font-family="Helvetica,sans-Serif" font-size="10.00">IdealChannel</text>
</a>
</g>
</g>
<!-- SenderHost&#45;&gt;IdealChannel -->
<g id="edge1" class="edge">
<title>SenderHost&#45;&gt;IdealChannel</title>
<path fill="none" stroke="black" d="M854.1,-62.98C741.26,-61.06 390.72,-52.7 90.27,-19"/>
<polygon fill="black" stroke="black" points="90.39,-15.49 80.06,-17.84 89.6,-22.44 90.39,-15.49"/>
</g>
<!-- FcsHeaderInserter -->
<g id="node3" class="node">
<title>FcsHeaderInserter</title>
<g id="a_node3"><a xlink:href="inet.protocolelement.checksum.FcsHeaderInserter.html" xlink:title="Simple Module FcsHeaderInserter" target="_parent">
<polygon fill="#fffcaf" stroke="black" points="204,-19 98,-19 98,0 204,0 204,-19"/>
<text text-anchor="middle" x="151" y="-7" font-family="Helvetica,sans-Serif" font-size="10.00">FcsHeaderInserter</text>
</a>
</g>
</g>
<!-- SenderHost&#45;&gt;FcsHeaderInserter -->
<g id="edge2" class="edge">
<title>SenderHost&#45;&gt;FcsHeaderInserter</title>
<path fill="none" stroke="black" d="M854.18,-62C753.47,-57.7 464.86,-44.08 214.1,-19.04"/>
<polygon fill="black" stroke="black" points="214.37,-15.55 204.07,-18.03 213.67,-22.51 214.37,-15.55"/>
</g>
<!-- InterpacketGapInserter -->
<g id="node4" class="node">
<title>InterpacketGapInserter</title>
<g id="a_node4"><a xlink:href="inet.protocolelement.common.InterpacketGapInserter.html" xlink:title="Simple Module InterpacketGapInserter" target="_parent">
<polygon fill="#fffcaf" stroke="black" points="350,-19 222,-19 222,0 350,0 350,-19"/>
<text text-anchor="middle" x="286" y="-7" font-family="Helvetica,sans-Serif" font-size="10.00">InterpacketGapInserter</text>
</a>
</g>
</g>
<!-- SenderHost&#45;&gt;InterpacketGapInserter -->
<g id="edge3" class="edge">
<title>SenderHost&#45;&gt;InterpacketGapInserter</title>
<path fill="none" stroke="black" d="M854.2,-60.84C769.2,-54.59 552.41,-38.16 360.09,-19.08"/>
<polygon fill="black" stroke="black" points="360.38,-15.59 350.08,-18.08 359.68,-22.56 360.38,-15.59"/>
</g>
<!-- PacketTagger -->
<g id="node5" class="node">
<title>PacketTagger</title>
<g id="a_node5"><a xlink:href="inet.queueing.marker.PacketTagger.html" xlink:title="Simple Module PacketTagger" target="_parent">
<polygon fill="#fffcaf" stroke="black" points="449.5,-19 368.5,-19 368.5,0 449.5,0 449.5,-19"/>
<text text-anchor="middle" x="409" y="-7" font-family="Helvetica,sans-Serif" font-size="10.00">PacketTagger</text>
</a>
</g>
</g>
<!-- SenderHost&#45;&gt;PacketTagger -->
<g id="edge4" class="edge">
<title>SenderHost&#45;&gt;PacketTagger</title>
<path fill="none" stroke="black" d="M854.4,-60.6C781.3,-54.63 611.84,-39.84 459.61,-19.14"/>
<polygon fill="black" stroke="black" points="459.99,-15.66 449.61,-17.77 459.04,-22.59 459.99,-15.66"/>
</g>
<!-- InProgressQueue -->
<g id="node6" class="node">
<title>InProgressQueue</title>
<g id="a_node6"><a xlink:href="inet.queueing.queue.InProgressQueue.html" xlink:title="Simple Module InProgressQueue" target="_parent">
<polygon fill="#fffcaf" stroke="black" points="566.5,-19 467.5,-19 467.5,0 566.5,0 566.5,-19"/>
<text text-anchor="middle" x="517" y="-7" font-family="Helvetica,sans-Serif" font-size="10.00">InProgressQueue</text>
</a>
</g>
</g>
<!-- SenderHost&#45;&gt;InProgressQueue -->
<g id="edge5" class="edge">
<title>SenderHost&#45;&gt;InProgressQueue</title>
<path fill="none" stroke="black" d="M854.14,-58.33C797.1,-50.31 683.74,-34.36 576.59,-19.08"/>
<polygon fill="black" stroke="black" points="576.97,-15.6 566.57,-17.65 575.98,-22.53 576.97,-15.6"/>
</g>
<!-- FragmentNumberHeaderBasedDefragmenter -->
<g id="node7" class="node">
<title>FragmentNumberHeaderBasedDefragmenter</title>
<g id="a_node7"><a xlink:href="inet.protocolelement.fragmentation.FragmentNumberHeaderBasedDefragmenter.html" xlink:title="Simple Module FragmentNumberHeaderBasedDefragmenter" target="_parent">
<polygon fill="#fffcaf" stroke="black" points="821,-19 585,-19 585,0 821,0 821,-19"/>
<text text-anchor="middle" x="703" y="-7" font-family="Helvetica,sans-Serif" font-size="10.00">FragmentNumberHeaderBasedDefragmenter</text>
</a>
</g>
</g>
<!-- SenderHost&#45;&gt;FragmentNumberHeaderBasedDefragmenter -->
<g id="edge6" class="edge">
<title>SenderHost&#45;&gt;FragmentNumberHeaderBasedDefragmenter</title>
<path fill="none" stroke="black" d="M860.79,-54.98C828.96,-46.01 778.64,-31.82 743.4,-21.89"/>
<polygon fill="black" stroke="black" points="744.02,-18.43 733.44,-19.08 742.12,-25.16 744.02,-18.43"/>
</g>
<!-- PreemptingServer -->
<g id="node8" class="node">
<title>PreemptingServer</title>
<g id="a_node8"><a xlink:href="inet.queueing.server.PreemptingServer.html" xlink:title="Simple Module PreemptingServer" target="_parent">
<polygon fill="#fffcaf" stroke="black" points="943,-19 839,-19 839,0 943,0 943,-19"/>
<text text-anchor="middle" x="891" y="-7" font-family="Helvetica,sans-Serif" font-size="10.00">PreemptingServer</text>
</a>
</g>
</g>
<!-- SenderHost&#45;&gt;PreemptingServer -->
<g id="edge7" class="edge">
<title>SenderHost&#45;&gt;PreemptingServer</title>
<path fill="none" stroke="black" d="M891,-54.75C891,-47.8 891,-37.85 891,-29.13"/>
<polygon fill="black" stroke="black" points="894.5,-29.09 891,-19.09 887.5,-29.09 894.5,-29.09"/>
</g>
<!-- ActivePacketSource -->
<g id="node9" class="node">
<title>ActivePacketSource</title>
<g id="a_node9"><a xlink:href="inet.queueing.source.ActivePacketSource.html" xlink:title="Simple Module ActivePacketSource" target="_parent">
<polygon fill="#fffcaf" stroke="black" points="1074.5,-19 961.5,-19 961.5,0 1074.5,0 1074.5,-19"/>
<text text-anchor="middle" x="1018" y="-7" font-family="Helvetica,sans-Serif" font-size="10.00">ActivePacketSource</text>
</a>
</g>
</g>
<!-- SenderHost&#45;&gt;ActivePacketSource -->
<g id="edge8" class="edge">
<title>SenderHost&#45;&gt;ActivePacketSource</title>
<path fill="none" stroke="black" d="M911.4,-54.98C932.02,-46.38 964.11,-32.99 987.69,-23.15"/>
<polygon fill="black" stroke="black" points="989.34,-26.25 997.22,-19.17 986.65,-19.79 989.34,-26.25"/>
</g>
<!-- PacketQueue -->
<g id="node10" class="node">
<title>PacketQueue</title>
<g id="a_node10"><a xlink:href="inet.queueing.queue.PacketQueue.html" xlink:title="Simple Module PacketQueue" target="_parent">
<polygon fill="#fffcaf" stroke="black" points="1173,-19 1093,-19 1093,0 1173,0 1173,-19"/>
<text text-anchor="middle" x="1133" y="-7" font-family="Helvetica,sans-Serif" font-size="10.00">PacketQueue</text>
</a>
</g>
</g>
<!-- SenderHost&#45;&gt;PacketQueue -->
<g id="edge9" class="edge">
<title>SenderHost&#45;&gt;PacketQueue</title>
<path fill="none" stroke="black" d="M927.75,-55.45C969.51,-46.3 1037.85,-31.34 1084.09,-21.21"/>
<polygon fill="black" stroke="black" points="1084.87,-24.62 1093.89,-19.07 1083.37,-17.79 1084.87,-24.62"/>
</g>
<!-- SequenceNumbering -->
<g id="node11" class="node">
<title>SequenceNumbering</title>
<g id="a_node11"><a xlink:href="inet.protocolelement.ordering.SequenceNumbering.html" xlink:title="Simple Module SequenceNumbering" target="_parent">
<polygon fill="#fffcaf" stroke="black" points="1309,-19 1191,-19 1191,0 1309,0 1309,-19"/>
<text text-anchor="middle" x="1250" y="-7" font-family="Helvetica,sans-Serif" font-size="10.00">SequenceNumbering</text>
</a>
</g>
</g>
<!-- SenderHost&#45;&gt;SequenceNumbering -->
<g id="edge10" class="edge">
<title>SenderHost&#45;&gt;SequenceNumbering</title>
<path fill="none" stroke="black" d="M927.73,-58.08C987.47,-49.26 1106.57,-31.67 1182.06,-20.53"/>
<polygon fill="black" stroke="black" points="1183.03,-23.92 1192.41,-19 1182.01,-17 1183.03,-23.92"/>
</g>
<!-- StreamThroughTransmitter -->
<g id="node12" class="node">
<title>StreamThroughTransmitter</title>
<g id="a_node12"><a xlink:href="inet.protocolelement.transceiver.StreamThroughTransmitter.html" xlink:title="Simple Module StreamThroughTransmitter" target="_parent">
<polygon fill="#fffcaf" stroke="black" points="1475,-19 1327,-19 1327,0 1475,0 1475,-19"/>
<text text-anchor="middle" x="1401" y="-7" font-family="Helvetica,sans-Serif" font-size="10.00">StreamThroughTransmitter</text>
</a>
</g>
</g>
<!-- SenderHost&#45;&gt;StreamThroughTransmitter -->
<g id="edge11" class="edge">
<title>SenderHost&#45;&gt;StreamThroughTransmitter</title>
<path fill="none" stroke="black" d="M927.68,-59.69C1008.6,-51.28 1204.19,-30.95 1316.99,-19.23"/>
<polygon fill="black" stroke="black" points="1317.38,-22.71 1326.97,-18.19 1316.66,-15.75 1317.38,-22.71"/>
</g>
<!-- InstantServer -->
<g id="node13" class="node">
<title>InstantServer</title>
<g id="a_node13"><a xlink:href="inet.queueing.server.InstantServer.html" xlink:title="Simple Module InstantServer" target="_parent">
<polygon fill="#fffcaf" stroke="black" points="1575,-19 1493,-19 1493,0 1575,0 1575,-19"/>
<text text-anchor="middle" x="1534" y="-7" font-family="Helvetica,sans-Serif" font-size="10.00">InstantServer</text>
</a>
</g>
</g>
<!-- SenderHost&#45;&gt;InstantServer -->
<g id="edge12" class="edge">
<title>SenderHost&#45;&gt;InstantServer</title>
<path fill="none" stroke="black" d="M927.56,-61.95C1019.24,-57.8 1266.54,-45.04 1482.89,-19.02"/>
<polygon fill="black" stroke="black" points="1483.34,-22.49 1492.84,-17.81 1482.49,-15.54 1483.34,-22.49"/>
</g>
<!-- PacketMultiplexer -->
<g id="node14" class="node">
<title>PacketMultiplexer</title>
<g id="a_node14"><a xlink:href="inet.queueing.common.PacketMultiplexer.html" xlink:title="Simple Module PacketMultiplexer" target="_parent">
<polygon fill="#fffcaf" stroke="black" points="1697,-19 1593,-19 1593,0 1697,0 1697,-19"/>
<text text-anchor="middle" x="1645" y="-7" font-family="Helvetica,sans-Serif" font-size="10.00">PacketMultiplexer</text>
</a>
</g>
</g>
<!-- SenderHost&#45;&gt;PacketMultiplexer -->
<g id="edge13" class="edge">
<title>SenderHost&#45;&gt;PacketMultiplexer</title>
<path fill="none" stroke="black" d="M927.52,-62.11C1029.42,-58.04 1325.67,-44.8 1582.51,-19.07"/>
<polygon fill="black" stroke="black" points="1583.19,-22.52 1592.79,-18.04 1582.49,-15.56 1583.19,-22.52"/>
</g>
<!-- Network90 -->
<g id="node15" class="node">
<title>Network90</title>
<g id="a_node15"><a xlink:href="inet.tutorials.protocol.Network90.html" xlink:title="Network Network90" target="_parent">
<polygon fill="#d0d0ff" stroke="black" points="926,-129 856,-129 856,-110 926,-110 926,-129"/>
<text text-anchor="middle" x="891" y="-117" font-family="Helvetica,sans-Serif" font-size="10.00">Network90</text>
</a>
</g>
</g>
<!-- Network90&#45;&gt;SenderHost -->
<g id="edge14" class="edge">
<title>Network90&#45;&gt;SenderHost</title>
<path fill="none" stroke="black" d="M891,-109.75C891,-102.8 891,-92.85 891,-84.13"/>
<polygon fill="black" stroke="black" points="894.5,-84.09 891,-74.09 887.5,-84.09 894.5,-84.09"/>
</g>
</g>
</svg>
