<?xml version="1.0" encoding="UTF-8" standalone="no"?>
<!DOCTYPE svg PUBLIC "-//W3C//DTD SVG 1.1//EN"
 "http://www.w3.org/Graphics/SVG/1.1/DTD/svg11.dtd">
<!-- Generated by graphviz version 2.43.0 (0)
 -->
<!-- Title: opp Pages: 1 -->
<svg width="605pt" height="82pt"
 viewBox="0.00 0.00 605.00 82.00" xmlns="http://www.w3.org/2000/svg" xmlns:xlink="http://www.w3.org/1999/xlink">
<g id="graph0" class="graph" transform="scale(1 1) rotate(0) translate(4 78)">
<title>opp</title>
<polygon fill="transparent" stroke="transparent" points="-4,4 -4,-78 601,-78 601,4 -4,4"/>
<!-- TokenBucketTutorialStep -->
<g id="node1" class="node">
<title>TokenBucketTutorialStep</title>
<g id="a_node1"><a xlink:href="inet.tutorials.queueing.TokenBucketTutorialStep.html" xlink:title="Network TokenBucketTutorialStep" target="_parent">
<polygon fill="#9090ff" stroke="black" points="336,-74 201,-74 201,-55 336,-55 336,-74"/>
<text text-anchor="middle" x="268.5" y="-62" font-family="Helvetica,sans-Serif" font-size="10.00">TokenBucketTutorialStep</text>
</a>
</g>
</g>
<!-- ActivePacketSource -->
<g id="node2" class="node">
<title>ActivePacketSource</title>
<g id="a_node2"><a xlink:href="inet.queueing.source.ActivePacketSource.html" xlink:title="Simple Module ActivePacketSource" target="_parent">
<polygon fill="#fffcaf" stroke="black" points="113,-19 0,-19 0,0 113,0 113,-19"/>
<text text-anchor="middle" x="56.5" y="-7" font-family="Helvetica,sans-Serif" font-size="10.00">ActivePacketSource</text>
</a>
</g>
</g>
<!-- TokenBucketTutorialStep&#45;&gt;ActivePacketSource -->
<g id="edge1" class="edge">
<title>TokenBucketTutorialStep&#45;&gt;ActivePacketSource</title>
<path fill="none" stroke="black" d="M234.44,-54.98C198.08,-45.89 140.33,-31.46 100.53,-21.51"/>
<polygon fill="black" stroke="black" points="101.38,-18.11 90.83,-19.08 99.68,-24.9 101.38,-18.11"/>
</g>
<!-- IdealChannel -->
<g id="node3" class="node">
<title>IdealChannel</title>
<g id="a_node3"><a xlink:href="ned.IdealChannel.html" xlink:title="Channel IdealChannel" target="_parent">
<polygon fill="#d0ffd0" stroke="black" points="211.5,-19 131.5,-19 131.5,0 211.5,0 211.5,-19"/>
<text text-anchor="middle" x="171.5" y="-7" font-family="Helvetica,sans-Serif" font-size="10.00">IdealChannel</text>
</a>
</g>
</g>
<!-- TokenBucketTutorialStep&#45;&gt;IdealChannel -->
<g id="edge2" class="edge">
<title>TokenBucketTutorialStep&#45;&gt;IdealChannel</title>
<path fill="none" stroke="black" d="M252.92,-54.98C237.73,-46.69 214.4,-33.94 196.6,-24.22"/>
<polygon fill="black" stroke="black" points="197.82,-20.89 187.37,-19.17 194.47,-27.04 197.82,-20.89"/>
</g>
<!-- TokenBucket -->
<g id="node4" class="node">
<title>TokenBucket</title>
<g id="a_node4"><a xlink:href="inet.queueing.shaper.TokenBucket.html" xlink:title="Compound Module TokenBucket" target="_parent">
<polygon fill="#fffcaf" stroke="black" points="307,-19 230,-19 230,0 307,0 307,-19"/>
<text text-anchor="middle" x="268.5" y="-7" font-family="Helvetica,sans-Serif" font-size="10.00">TokenBucket</text>
</a>
</g>
</g>
<!-- TokenBucketTutorialStep&#45;&gt;TokenBucket -->
<g id="edge3" class="edge">
<title>TokenBucketTutorialStep&#45;&gt;TokenBucket</title>
<path fill="none" stroke="black" d="M268.5,-54.75C268.5,-47.8 268.5,-37.85 268.5,-29.13"/>
<polygon fill="black" stroke="black" points="272,-29.09 268.5,-19.09 265,-29.09 272,-29.09"/>
</g>
<!-- PassivePacketSink -->
<g id="node5" class="node">
<title>PassivePacketSink</title>
<g id="a_node5"><a xlink:href="inet.queueing.sink.PassivePacketSink.html" xlink:title="Simple Module PassivePacketSink" target="_parent">
<polygon fill="#fffcaf" stroke="black" points="432,-19 325,-19 325,0 432,0 432,-19"/>
<text text-anchor="middle" x="378.5" y="-7" font-family="Helvetica,sans-Serif" font-size="10.00">PassivePacketSink</text>
</a>
</g>
</g>
<!-- TokenBucketTutorialStep&#45;&gt;PassivePacketSink -->
<g id="edge4" class="edge">
<title>TokenBucketTutorialStep&#45;&gt;PassivePacketSink</title>
<path fill="none" stroke="black" d="M286.17,-54.98C303.79,-46.5 331.08,-33.35 351.43,-23.54"/>
<polygon fill="black" stroke="black" points="353.02,-26.66 360.51,-19.17 349.98,-20.36 353.02,-26.66"/>
</g>
<!-- TimeBasedTokenGenerator -->
<g id="node6" class="node">
<title>TimeBasedTokenGenerator</title>
<g id="a_node6"><a xlink:href="inet.queueing.tokengenerator.TimeBasedTokenGenerator.html" xlink:title="Simple Module TimeBasedTokenGenerator" target="_parent">
<polygon fill="#fffcaf" stroke="black" points="597,-19 450,-19 450,0 597,0 597,-19"/>
<text text-anchor="middle" x="523.5" y="-7" font-family="Helvetica,sans-Serif" font-size="10.00">TimeBasedTokenGenerator</text>
</a>
</g>
</g>
<!-- TokenBucketTutorialStep&#45;&gt;TimeBasedTokenGenerator -->
<g id="edge5" class="edge">
<title>TokenBucketTutorialStep&#45;&gt;TimeBasedTokenGenerator</title>
<path fill="none" stroke="black" d="M309.47,-54.98C353.76,-45.78 424.44,-31.09 472.35,-21.13"/>
<polygon fill="black" stroke="black" points="473.13,-24.54 482.21,-19.08 471.71,-17.69 473.13,-24.54"/>
</g>
</g>
</svg>
