<?xml version="1.0" encoding="UTF-8" standalone="no"?>
<!DOCTYPE svg PUBLIC "-//W3C//DTD SVG 1.1//EN"
 "http://www.w3.org/Graphics/SVG/1.1/DTD/svg11.dtd">
<!-- Generated by graphviz version 2.43.0 (0)
 -->
<!-- Title: opp Pages: 1 -->
<svg width="418pt" height="82pt"
 viewBox="0.00 0.00 417.50 82.00" xmlns="http://www.w3.org/2000/svg" xmlns:xlink="http://www.w3.org/1999/xlink">
<g id="graph0" class="graph" transform="scale(1 1) rotate(0) translate(4 78)">
<title>opp</title>
<polygon fill="transparent" stroke="transparent" points="-4,4 -4,-78 413.5,-78 413.5,4 -4,4"/>
<!-- BulkTransfer6 -->
<g id="node1" class="node">
<title>BulkTransfer6</title>
<g id="a_node1"><a xlink:href="inet.examples.ipv6.ipv6bulk.BulkTransfer6.html" xlink:title="Network BulkTransfer6" target="_parent">
<polygon fill="#9090ff" stroke="black" points="238.5,-74 154.5,-74 154.5,-55 238.5,-55 238.5,-74"/>
<text text-anchor="middle" x="196.5" y="-62" font-family="Helvetica,sans-Serif" font-size="10.00">BulkTransfer6</text>
</a>
</g>
</g>
<!-- StandardHost6 -->
<g id="node2" class="node">
<title>StandardHost6</title>
<g id="a_node2"><a xlink:href="inet.node.ipv6.StandardHost6.html" xlink:title="Compound Module StandardHost6" target="_parent">
<polygon fill="#fffcaf" stroke="black" points="89,-19 0,-19 0,0 89,0 89,-19"/>
<text text-anchor="middle" x="44.5" y="-7" font-family="Helvetica,sans-Serif" font-size="10.00">StandardHost6</text>
</a>
</g>
</g>
<!-- BulkTransfer6&#45;&gt;StandardHost6 -->
<g id="edge1" class="edge">
<title>BulkTransfer6&#45;&gt;StandardHost6</title>
<path fill="none" stroke="black" d="M172.08,-54.98C146.78,-46.16 107.05,-32.31 78.64,-22.41"/>
<polygon fill="black" stroke="black" points="79.71,-19.07 69.11,-19.08 77.4,-25.68 79.71,-19.07"/>
</g>
<!-- Router6 -->
<g id="node3" class="node">
<title>Router6</title>
<g id="a_node3"><a xlink:href="inet.node.ipv6.Router6.html" xlink:title="Compound Module Router6" target="_parent">
<polygon fill="#fffcaf" stroke="black" points="162,-19 107,-19 107,0 162,0 162,-19"/>
<text text-anchor="middle" x="134.5" y="-7" font-family="Helvetica,sans-Serif" font-size="10.00">Router6</text>
</a>
</g>
</g>
<!-- BulkTransfer6&#45;&gt;Router6 -->
<g id="edge2" class="edge">
<title>BulkTransfer6&#45;&gt;Router6</title>
<path fill="none" stroke="black" d="M186.54,-54.98C177.37,-47.15 163.56,-35.34 152.47,-25.86"/>
<polygon fill="black" stroke="black" points="154.52,-23.01 144.64,-19.17 149.97,-28.33 154.52,-23.01"/>
</g>
<!-- Ipv6FlatNetworkConfigurator -->
<g id="node4" class="node">
<title>Ipv6FlatNetworkConfigurator</title>
<g id="a_node4"><a xlink:href="inet.networklayer.configurator.ipv6.Ipv6FlatNetworkConfigurator.html" xlink:title="Simple Module Ipv6FlatNetworkConfigurator" target="_parent">
<polygon fill="#fffcaf" stroke="black" points="337.5,-19 179.5,-19 179.5,0 337.5,0 337.5,-19"/>
<text text-anchor="middle" x="258.5" y="-7" font-family="Helvetica,sans-Serif" font-size="10.00">Ipv6FlatNetworkConfigurator</text>
</a>
</g>
</g>
<!-- BulkTransfer6&#45;&gt;Ipv6FlatNetworkConfigurator -->
<g id="edge3" class="edge">
<title>BulkTransfer6&#45;&gt;Ipv6FlatNetworkConfigurator</title>
<path fill="none" stroke="black" d="M206.46,-54.98C215.63,-47.15 229.44,-35.34 240.53,-25.86"/>
<polygon fill="black" stroke="black" points="243.03,-28.33 248.36,-19.17 238.48,-23.01 243.03,-28.33"/>
</g>
<!-- C -->
<g id="node5" class="node">
<title>C</title>
<g id="a_node5"><a xlink:href="inet.examples.ipv6.ipv6bulk.BulkTransfer6.C.html" xlink:title="Channel C" target="_parent">
<polygon fill="#d0ffd0" stroke="black" points="409.5,-19 355.5,-19 355.5,0 409.5,0 409.5,-19"/>
<text text-anchor="middle" x="382.5" y="-7" font-family="Helvetica,sans-Serif" font-size="10.00">C</text>
</a>
</g>
</g>
<!-- BulkTransfer6&#45;&gt;C -->
<g id="edge4" class="edge">
<title>BulkTransfer6&#45;&gt;C</title>
<path fill="none" stroke="black" d="M226.38,-54.98C258.82,-45.74 310.64,-30.98 345.59,-21.02"/>
<polygon fill="black" stroke="black" points="346.75,-24.33 355.41,-18.22 344.84,-17.59 346.75,-24.33"/>
</g>
</g>
</svg>
