<?xml version="1.0" encoding="UTF-8" standalone="no"?>
<!DOCTYPE svg PUBLIC "-//W3C//DTD SVG 1.1//EN"
 "http://www.w3.org/Graphics/SVG/1.1/DTD/svg11.dtd">
<!-- Generated by graphviz version 2.43.0 (0)
 -->
<!-- Title: opp Pages: 1 -->
<svg width="671pt" height="137pt"
 viewBox="0.00 0.00 670.50 137.00" xmlns="http://www.w3.org/2000/svg" xmlns:xlink="http://www.w3.org/1999/xlink">
<g id="graph0" class="graph" transform="scale(1 1) rotate(0) translate(4 133)">
<title>opp</title>
<polygon fill="transparent" stroke="transparent" points="-4,4 -4,-133 666.5,-133 666.5,4 -4,4"/>
<!-- Edcaf -->
<g id="node1" class="node">
<title>Edcaf</title>
<g id="a_node1"><a xlink:href="inet.linklayer.ieee80211.mac.channelaccess.Edcaf.html" xlink:title="Compound Module Edcaf" target="_parent">
<polygon fill="#fff700" stroke="black" points="325.5,-74 271.5,-74 271.5,-55 325.5,-55 325.5,-74"/>
<text text-anchor="middle" x="298.5" y="-62" font-family="Helvetica,sans-Serif" font-size="10.00">Edcaf</text>
</a>
</g>
</g>
<!-- IContention -->
<g id="node2" class="node">
<title>IContention</title>
<g id="a_node2"><a xlink:href="inet.linklayer.ieee80211.mac.contract.IContention.html" xlink:title="Module Interface IContention" target="_parent">
<polygon fill="#fffcaf" stroke="black" stroke-dasharray="5,2" points="73,-19 0,-19 0,0 73,0 73,-19"/>
<text text-anchor="middle" x="36.5" y="-7" font-family="Helvetica,sans-Serif" font-size="10.00">IContention</text>
</a>
</g>
</g>
<!-- Edcaf&#45;&gt;IContention -->
<g id="edge1" class="edge">
<title>Edcaf&#45;&gt;IContention</title>
<path fill="none" stroke="black" d="M271.45,-58.03C227.02,-49.04 138.05,-31.04 83.25,-19.96"/>
<polygon fill="black" stroke="black" points="83.93,-16.52 73.44,-17.97 82.54,-23.39 83.93,-16.52"/>
</g>
<!-- QosAckHandler -->
<g id="node3" class="node">
<title>QosAckHandler</title>
<g id="a_node3"><a xlink:href="inet.linklayer.ieee80211.mac.originator.QosAckHandler.html" xlink:title="Simple Module QosAckHandler" target="_parent">
<polygon fill="#fffcaf" stroke="black" points="183.5,-19 91.5,-19 91.5,0 183.5,0 183.5,-19"/>
<text text-anchor="middle" x="137.5" y="-7" font-family="Helvetica,sans-Serif" font-size="10.00">QosAckHandler</text>
</a>
</g>
</g>
<!-- Edcaf&#45;&gt;QosAckHandler -->
<g id="edge2" class="edge">
<title>Edcaf&#45;&gt;QosAckHandler</title>
<path fill="none" stroke="black" d="M272.63,-54.98C245.72,-46.13 203.38,-32.19 173.27,-22.28"/>
<polygon fill="black" stroke="black" points="174.16,-18.88 163.57,-19.08 171.97,-25.53 174.16,-18.88"/>
</g>
<!-- TxopProcedure -->
<g id="node4" class="node">
<title>TxopProcedure</title>
<g id="a_node4"><a xlink:href="inet.linklayer.ieee80211.mac.originator.TxopProcedure.html" xlink:title="Simple Module TxopProcedure" target="_parent">
<polygon fill="#fffcaf" stroke="black" points="291,-19 202,-19 202,0 291,0 291,-19"/>
<text text-anchor="middle" x="246.5" y="-7" font-family="Helvetica,sans-Serif" font-size="10.00">TxopProcedure</text>
</a>
</g>
</g>
<!-- Edcaf&#45;&gt;TxopProcedure -->
<g id="edge3" class="edge">
<title>Edcaf&#45;&gt;TxopProcedure</title>
<path fill="none" stroke="black" d="M289.91,-54.75C282.34,-47.03 271.12,-35.6 261.99,-26.28"/>
<polygon fill="black" stroke="black" points="264.43,-23.78 254.93,-19.09 259.43,-28.68 264.43,-23.78"/>
</g>
<!-- IPacketQueue -->
<g id="node5" class="node">
<title>IPacketQueue</title>
<g id="a_node5"><a xlink:href="inet.queueing.contract.IPacketQueue.html" xlink:title="Module Interface IPacketQueue" target="_parent">
<polygon fill="#fffcaf" stroke="black" stroke-dasharray="5,2" points="392,-19 309,-19 309,0 392,0 392,-19"/>
<text text-anchor="middle" x="350.5" y="-7" font-family="Helvetica,sans-Serif" font-size="10.00">IPacketQueue</text>
</a>
</g>
</g>
<!-- Edcaf&#45;&gt;IPacketQueue -->
<g id="edge4" class="edge">
<title>Edcaf&#45;&gt;IPacketQueue</title>
<path fill="none" stroke="black" d="M307.09,-54.75C314.66,-47.03 325.88,-35.6 335.01,-26.28"/>
<polygon fill="black" stroke="black" points="337.57,-28.68 342.07,-19.09 332.57,-23.78 337.57,-28.68"/>
</g>
<!-- InProgressFrames -->
<g id="node6" class="node">
<title>InProgressFrames</title>
<g id="a_node6"><a xlink:href="inet.linklayer.ieee80211.mac.queue.InProgressFrames.html" xlink:title="Simple Module InProgressFrames" target="_parent">
<polygon fill="#fffcaf" stroke="black" points="514.5,-19 410.5,-19 410.5,0 514.5,0 514.5,-19"/>
<text text-anchor="middle" x="462.5" y="-7" font-family="Helvetica,sans-Serif" font-size="10.00">InProgressFrames</text>
</a>
</g>
</g>
<!-- Edcaf&#45;&gt;InProgressFrames -->
<g id="edge5" class="edge">
<title>Edcaf&#45;&gt;InProgressFrames</title>
<path fill="none" stroke="black" d="M324.85,-54.98C352.26,-46.13 395.39,-32.19 426.06,-22.28"/>
<polygon fill="black" stroke="black" points="427.5,-25.49 435.94,-19.08 425.35,-18.83 427.5,-25.49"/>
</g>
<!-- QosRecoveryProcedure -->
<g id="node7" class="node">
<title>QosRecoveryProcedure</title>
<g id="a_node7"><a xlink:href="inet.linklayer.ieee80211.mac.originator.QosRecoveryProcedure.html" xlink:title="Simple Module QosRecoveryProcedure" target="_parent">
<polygon fill="#fffcaf" stroke="black" points="662.5,-19 532.5,-19 532.5,0 662.5,0 662.5,-19"/>
<text text-anchor="middle" x="597.5" y="-7" font-family="Helvetica,sans-Serif" font-size="10.00">QosRecoveryProcedure</text>
</a>
</g>
</g>
<!-- Edcaf&#45;&gt;QosRecoveryProcedure -->
<g id="edge6" class="edge">
<title>Edcaf&#45;&gt;QosRecoveryProcedure</title>
<path fill="none" stroke="black" d="M325.56,-58.7C373.66,-50.18 475.03,-32.21 539.51,-20.78"/>
<polygon fill="black" stroke="black" points="540.29,-24.2 549.52,-19 539.07,-17.3 540.29,-24.2"/>
</g>
<!-- Edca -->
<g id="node8" class="node">
<title>Edca</title>
<g id="a_node8"><a xlink:href="inet.linklayer.ieee80211.mac.channelaccess.Edca.html" xlink:title="Compound Module Edca" target="_parent">
<polygon fill="#fffcaf" stroke="black" points="325.5,-129 271.5,-129 271.5,-110 325.5,-110 325.5,-129"/>
<text text-anchor="middle" x="298.5" y="-117" font-family="Helvetica,sans-Serif" font-size="10.00">Edca</text>
</a>
</g>
</g>
<!-- Edca&#45;&gt;Edcaf -->
<g id="edge7" class="edge">
<title>Edca&#45;&gt;Edcaf</title>
<path fill="none" stroke="black" d="M298.5,-109.75C298.5,-102.8 298.5,-92.85 298.5,-84.13"/>
<polygon fill="black" stroke="black" points="302,-84.09 298.5,-74.09 295,-84.09 302,-84.09"/>
</g>
</g>
</svg>
