<?xml version="1.0" encoding="UTF-8" standalone="no"?>
<!DOCTYPE svg PUBLIC "-//W3C//DTD SVG 1.1//EN"
 "http://www.w3.org/Graphics/SVG/1.1/DTD/svg11.dtd">
<!-- Generated by graphviz version 2.43.0 (0)
 -->
<!-- Title: opp Pages: 1 -->
<svg width="5516pt" height="137pt"
 viewBox="0.00 0.00 5516.00 137.00" xmlns="http://www.w3.org/2000/svg" xmlns:xlink="http://www.w3.org/1999/xlink">
<g id="graph0" class="graph" transform="scale(1 1) rotate(0) translate(4 133)">
<title>opp</title>
<polygon fill="transparent" stroke="transparent" points="-4,4 -4,-133 5512,-133 5512,4 -4,4"/>
<!-- PacketFlowBase -->
<g id="node1" class="node">
<title>PacketFlowBase</title>
<g id="a_node1"><a xlink:href="inet.queueing.base.PacketFlowBase.html" xlink:title="Simple Module PacketFlowBase" target="_parent">
<polygon fill="#fff700" stroke="black" points="3158,-74 3062,-74 3062,-55 3158,-55 3158,-74"/>
<text text-anchor="middle" x="3110" y="-62" font-family="Helvetica,sans-Serif" font-size="10.00">PacketFlowBase</text>
</a>
</g>
</g>
<!-- CrcInserterBase -->
<g id="node3" class="node">
<title>CrcInserterBase</title>
<g id="a_node3"><a xlink:href="inet.protocolelement.checksum.base.CrcInserterBase.html" xlink:title="Simple Module CrcInserterBase" target="_parent">
<polygon fill="#fffcaf" stroke="black" points="94,-19 0,-19 0,0 94,0 94,-19"/>
<text text-anchor="middle" x="47" y="-7" font-family="Helvetica,sans-Serif" font-size="10.00">CrcInserterBase</text>
</a>
</g>
</g>
<!-- PacketFlowBase&#45;&gt;CrcInserterBase -->
<g id="edge2" class="edge">
<title>PacketFlowBase&#45;&gt;CrcInserterBase</title>
<path fill="none" stroke="black" d="M3061.77,-63.69C2724.31,-64.85 712.43,-69.53 103,-19 100.16,-18.76 97.24,-18.47 94.3,-18.14"/>
</g>
<!-- EthernetAddressInserter -->
<g id="node4" class="node">
<title>EthernetAddressInserter</title>
<g id="a_node4"><a xlink:href="inet.linklayer.ethernet.modular.EthernetAddressInserter.html" xlink:title="Simple Module EthernetAddressInserter" target="_parent">
<polygon fill="#fffcaf" stroke="black" points="246,-19 112,-19 112,0 246,0 246,-19"/>
<text text-anchor="middle" x="179" y="-7" font-family="Helvetica,sans-Serif" font-size="10.00">EthernetAddressInserter</text>
</a>
</g>
</g>
<!-- PacketFlowBase&#45;&gt;EthernetAddressInserter -->
<g id="edge3" class="edge">
<title>PacketFlowBase&#45;&gt;EthernetAddressInserter</title>
<path fill="none" stroke="black" d="M3061.89,-63.38C2734.78,-62.49 833.05,-55.75 255,-19 252.09,-18.81 249.11,-18.6 246.11,-18.36"/>
</g>
<!-- EthernetFcsInserter -->
<g id="node5" class="node">
<title>EthernetFcsInserter</title>
<g id="a_node5"><a xlink:href="inet.linklayer.ethernet.modular.EthernetFcsInserter.html" xlink:title="Simple Module EthernetFcsInserter" target="_parent">
<polygon fill="#fffcaf" stroke="black" points="376,-19 264,-19 264,0 376,0 376,-19"/>
<text text-anchor="middle" x="320" y="-7" font-family="Helvetica,sans-Serif" font-size="10.00">EthernetFcsInserter</text>
</a>
</g>
</g>
<!-- PacketFlowBase&#45;&gt;EthernetFcsInserter -->
<g id="edge4" class="edge">
<title>PacketFlowBase&#45;&gt;EthernetFcsInserter</title>
<path fill="none" stroke="black" d="M3061.79,-63.46C2743.07,-63.11 935.04,-59.32 385,-19 382.16,-18.79 379.26,-18.54 376.33,-18.26"/>
</g>
<!-- EthernetFragmentFcsInserter -->
<g id="node6" class="node">
<title>EthernetFragmentFcsInserter</title>
<g id="a_node6"><a xlink:href="inet.linklayer.ethernet.modular.EthernetFragmentFcsInserter.html" xlink:title="Simple Module EthernetFragmentFcsInserter" target="_parent">
<polygon fill="#fffcaf" stroke="black" points="552,-19 394,-19 394,0 552,0 552,-19"/>
<text text-anchor="middle" x="473" y="-7" font-family="Helvetica,sans-Serif" font-size="10.00">EthernetFragmentFcsInserter</text>
</a>
</g>
</g>
<!-- PacketFlowBase&#45;&gt;EthernetFragmentFcsInserter -->
<g id="edge5" class="edge">
<title>PacketFlowBase&#45;&gt;EthernetFragmentFcsInserter</title>
<path fill="none" stroke="black" d="M3061.98,-63.19C2755.86,-61.11 1073.6,-48.52 560,-19 557.42,-18.85 554.81,-18.69 552.17,-18.51"/>
</g>
<!-- EthernetFragmentPhyHeaderInserter -->
<g id="node7" class="node">
<title>EthernetFragmentPhyHeaderInserter</title>
<g id="a_node7"><a xlink:href="inet.physicallayer.wired.ethernet.EthernetFragmentPhyHeaderInserter.html" xlink:title="Simple Module EthernetFragmentPhyHeaderInserter" target="_parent">
<polygon fill="#fffcaf" stroke="black" points="764.5,-19 569.5,-19 569.5,0 764.5,0 764.5,-19"/>
<text text-anchor="middle" x="667" y="-7" font-family="Helvetica,sans-Serif" font-size="10.00">EthernetFragmentPhyHeaderInserter</text>
</a>
</g>
</g>
<!-- PacketFlowBase&#45;&gt;EthernetFragmentPhyHeaderInserter -->
<g id="edge6" class="edge">
<title>PacketFlowBase&#45;&gt;EthernetFragmentPhyHeaderInserter</title>
<path fill="none" stroke="black" d="M3061.84,-63.67C2817.72,-64.32 1692.54,-64.58 773,-19 770.23,-18.86 767.43,-18.71 764.6,-18.55"/>
</g>
<!-- EthernetMacHeaderInserter -->
<g id="node8" class="node">
<title>EthernetMacHeaderInserter</title>
<g id="a_node8"><a xlink:href="inet.linklayer.ethernet.modular.EthernetMacHeaderInserter.html" xlink:title="Simple Module EthernetMacHeaderInserter" target="_parent">
<polygon fill="#fffcaf" stroke="black" points="933.5,-19 782.5,-19 782.5,0 933.5,0 933.5,-19"/>
<text text-anchor="middle" x="858" y="-7" font-family="Helvetica,sans-Serif" font-size="10.00">EthernetMacHeaderInserter</text>
</a>
</g>
</g>
<!-- PacketFlowBase&#45;&gt;EthernetMacHeaderInserter -->
<g id="edge7" class="edge">
<title>PacketFlowBase&#45;&gt;EthernetMacHeaderInserter</title>
<path fill="none" stroke="black" d="M3061.74,-63.04C2782.82,-60.29 1374.61,-45.29 942,-19 939.22,-18.83 936.39,-18.64 933.53,-18.43"/>
</g>
<!-- EthernetPhyHeaderInserter -->
<g id="node9" class="node">
<title>EthernetPhyHeaderInserter</title>
<g id="a_node9"><a xlink:href="inet.physicallayer.wired.ethernet.EthernetPhyHeaderInserter.html" xlink:title="Simple Module EthernetPhyHeaderInserter" target="_parent">
<polygon fill="#fffcaf" stroke="black" points="1100.5,-19 951.5,-19 951.5,0 1100.5,0 1100.5,-19"/>
<text text-anchor="middle" x="1026" y="-7" font-family="Helvetica,sans-Serif" font-size="10.00">EthernetPhyHeaderInserter</text>
</a>
</g>
</g>
<!-- PacketFlowBase&#45;&gt;EthernetPhyHeaderInserter -->
<g id="edge8" class="edge">
<title>PacketFlowBase&#45;&gt;EthernetPhyHeaderInserter</title>
<path fill="none" stroke="black" d="M3061.96,-63.82C2839.61,-65.02 1888.23,-66.96 1110,-19 1106.93,-18.81 1103.79,-18.6 1100.63,-18.36"/>
</g>
<!-- EthernetSocketCommandProcessor -->
<g id="node10" class="node">
<title>EthernetSocketCommandProcessor</title>
<g id="a_node10"><a xlink:href="inet.linklayer.ethernet.modular.EthernetSocketCommandProcessor.html" xlink:title="Simple Module EthernetSocketCommandProcessor" target="_parent">
<polygon fill="#fffcaf" stroke="black" points="1307,-19 1119,-19 1119,0 1307,0 1307,-19"/>
<text text-anchor="middle" x="1213" y="-7" font-family="Helvetica,sans-Serif" font-size="10.00">EthernetSocketCommandProcessor</text>
</a>
</g>
</g>
<!-- PacketFlowBase&#45;&gt;EthernetSocketCommandProcessor -->
<g id="edge9" class="edge">
<title>PacketFlowBase&#45;&gt;EthernetSocketCommandProcessor</title>
<path fill="none" stroke="black" d="M3061.79,-63.32C2853.31,-62.34 2008.6,-56.14 1316,-19 1313.04,-18.84 1310.04,-18.67 1307.01,-18.48"/>
</g>
<!-- EthernetTypeOrLengthInserter -->
<g id="node11" class="node">
<title>EthernetTypeOrLengthInserter</title>
<g id="a_node11"><a xlink:href="inet.linklayer.ethernet.modular.EthernetTypeOrLengthInserter.html" xlink:title="Simple Module EthernetTypeOrLengthInserter" target="_parent">
<polygon fill="#fffcaf" stroke="black" points="1487,-19 1325,-19 1325,0 1487,0 1487,-19"/>
<text text-anchor="middle" x="1406" y="-7" font-family="Helvetica,sans-Serif" font-size="10.00">EthernetTypeOrLengthInserter</text>
</a>
</g>
</g>
<!-- PacketFlowBase&#45;&gt;EthernetTypeOrLengthInserter -->
<g id="edge10" class="edge">
<title>PacketFlowBase&#45;&gt;EthernetTypeOrLengthInserter</title>
<path fill="none" stroke="black" d="M3061.75,-63.34C2866.22,-62.45 2113.65,-56.64 1496,-19 1493.18,-18.83 1490.31,-18.64 1487.42,-18.43"/>
</g>
<!-- FcsInserterBase -->
<g id="node12" class="node">
<title>FcsInserterBase</title>
<g id="a_node12"><a xlink:href="inet.protocolelement.checksum.base.FcsInserterBase.html" xlink:title="Simple Module FcsInserterBase" target="_parent">
<polygon fill="#fffcaf" stroke="black" points="1600.5,-19 1505.5,-19 1505.5,0 1600.5,0 1600.5,-19"/>
<text text-anchor="middle" x="1553" y="-7" font-family="Helvetica,sans-Serif" font-size="10.00">FcsInserterBase</text>
</a>
</g>
</g>
<!-- PacketFlowBase&#45;&gt;FcsInserterBase -->
<g id="edge11" class="edge">
<title>PacketFlowBase&#45;&gt;FcsInserterBase</title>
<path fill="none" stroke="black" d="M3061.78,-62.86C2838.19,-59.75 1900.94,-45.39 1609,-19 1606.26,-18.75 1603.45,-18.46 1600.61,-18.13"/>
</g>
<!-- FlowMeasurementRecorder -->
<g id="node13" class="node">
<title>FlowMeasurementRecorder</title>
<g id="a_node13"><a xlink:href="inet.queueing.flow.FlowMeasurementRecorder.html" xlink:title="Simple Module FlowMeasurementRecorder" target="_parent">
<polygon fill="#fffcaf" stroke="black" points="1769.5,-19 1618.5,-19 1618.5,0 1769.5,0 1769.5,-19"/>
<text text-anchor="middle" x="1694" y="-7" font-family="Helvetica,sans-Serif" font-size="10.00">FlowMeasurementRecorder</text>
</a>
</g>
</g>
<!-- PacketFlowBase&#45;&gt;FlowMeasurementRecorder -->
<g id="edge12" class="edge">
<title>PacketFlowBase&#45;&gt;FlowMeasurementRecorder</title>
<path fill="none" stroke="black" d="M3061.89,-63.04C2888.58,-61.15 2279.89,-52.38 1779,-19 1775.89,-18.79 1772.72,-18.56 1769.52,-18.31"/>
</g>
<!-- FlowMeasurementStarter -->
<g id="node14" class="node">
<title>FlowMeasurementStarter</title>
<g id="a_node14"><a xlink:href="inet.queueing.flow.FlowMeasurementStarter.html" xlink:title="Simple Module FlowMeasurementStarter" target="_parent">
<polygon fill="#fffcaf" stroke="black" points="1928,-19 1788,-19 1788,0 1928,0 1928,-19"/>
<text text-anchor="middle" x="1858" y="-7" font-family="Helvetica,sans-Serif" font-size="10.00">FlowMeasurementStarter</text>
</a>
</g>
</g>
<!-- PacketFlowBase&#45;&gt;FlowMeasurementStarter -->
<g id="edge13" class="edge">
<title>PacketFlowBase&#45;&gt;FlowMeasurementStarter</title>
<path fill="none" stroke="black" d="M3061.89,-62.87C2901.87,-60.52 2372.98,-50.69 1937,-19 1934.11,-18.79 1931.16,-18.56 1928.19,-18.31"/>
</g>
<!-- FragmentNumberHeaderInserter -->
<g id="node15" class="node">
<title>FragmentNumberHeaderInserter</title>
<g id="a_node15"><a xlink:href="inet.protocolelement.fragmentation.FragmentNumberHeaderInserter.html" xlink:title="Simple Module FragmentNumberHeaderInserter" target="_parent">
<polygon fill="#fffcaf" stroke="black" points="2121.5,-19 1946.5,-19 1946.5,0 2121.5,0 2121.5,-19"/>
<text text-anchor="middle" x="2034" y="-7" font-family="Helvetica,sans-Serif" font-size="10.00">FragmentNumberHeaderInserter</text>
</a>
</g>
</g>
<!-- PacketFlowBase&#45;&gt;FragmentNumberHeaderInserter -->
<g id="edge14" class="edge">
<title>PacketFlowBase&#45;&gt;FragmentNumberHeaderInserter</title>
<path fill="none" stroke="black" d="M3061.78,-62.04C2919.24,-57.58 2487.5,-42.93 2130,-19 2127.25,-18.82 2124.45,-18.62 2121.62,-18.41"/>
</g>
<!-- Ieee8021aeTagEpdHeaderInserter -->
<g id="node16" class="node">
<title>Ieee8021aeTagEpdHeaderInserter</title>
<g id="a_node16"><a xlink:href="inet.linklayer.ieee8021ae.Ieee8021aeTagEpdHeaderInserter.html" xlink:title="Simple Module Ieee8021aeTagEpdHeaderInserter" target="_parent">
<polygon fill="#fffcaf" stroke="black" points="2320.5,-19 2139.5,-19 2139.5,0 2320.5,0 2320.5,-19"/>
<text text-anchor="middle" x="2230" y="-7" font-family="Helvetica,sans-Serif" font-size="10.00">Ieee8021aeTagEpdHeaderInserter</text>
</a>
</g>
</g>
<!-- PacketFlowBase&#45;&gt;Ieee8021aeTagEpdHeaderInserter -->
<g id="edge15" class="edge">
<title>PacketFlowBase&#45;&gt;Ieee8021aeTagEpdHeaderInserter</title>
<path fill="none" stroke="black" d="M3061.98,-61.24C2939.65,-55.4 2606.37,-38.8 2329,-19 2326.25,-18.8 2323.45,-18.6 2320.63,-18.39"/>
</g>
<!-- Ieee8021qSocketCommandProcessor -->
<g id="node17" class="node">
<title>Ieee8021qSocketCommandProcessor</title>
<g id="a_node17"><a xlink:href="inet.linklayer.ieee8021q.Ieee8021qSocketCommandProcessor.html" xlink:title="Simple Module Ieee8021qSocketCommandProcessor" target="_parent">
<polygon fill="#fffcaf" stroke="black" points="2535.5,-19 2338.5,-19 2338.5,0 2535.5,0 2535.5,-19"/>
<text text-anchor="middle" x="2437" y="-7" font-family="Helvetica,sans-Serif" font-size="10.00">Ieee8021qSocketCommandProcessor</text>
</a>
</g>
</g>
<!-- PacketFlowBase&#45;&gt;Ieee8021qSocketCommandProcessor -->
<g id="edge16" class="edge">
<title>PacketFlowBase&#45;&gt;Ieee8021qSocketCommandProcessor</title>
<path fill="none" stroke="black" d="M3061.92,-59.73C2964.3,-52.08 2735.85,-34.16 2544,-19 2541.21,-18.78 2538.39,-18.56 2535.53,-18.33"/>
</g>
<!-- Ieee8021qTagEpdHeaderInserter -->
<g id="node18" class="node">
<title>Ieee8021qTagEpdHeaderInserter</title>
<g id="a_node18"><a xlink:href="inet.linklayer.ieee8021q.Ieee8021qTagEpdHeaderInserter.html" xlink:title="Simple Module Ieee8021qTagEpdHeaderInserter" target="_parent">
<polygon fill="#fffcaf" stroke="black" points="2728.5,-19 2553.5,-19 2553.5,0 2728.5,0 2728.5,-19"/>
<text text-anchor="middle" x="2641" y="-7" font-family="Helvetica,sans-Serif" font-size="10.00">Ieee8021qTagEpdHeaderInserter</text>
</a>
</g>
</g>
<!-- PacketFlowBase&#45;&gt;Ieee8021qTagEpdHeaderInserter -->
<g id="edge17" class="edge">
<title>PacketFlowBase&#45;&gt;Ieee8021qTagEpdHeaderInserter</title>
<path fill="none" stroke="black" d="M3061.58,-58.03C2979.78,-48.78 2813.68,-30.01 2716.49,-19.03"/>
</g>
<!-- Ieee8021qTagTpidHeaderInserter -->
<g id="node19" class="node">
<title>Ieee8021qTagTpidHeaderInserter</title>
<g id="a_node19"><a xlink:href="inet.linklayer.ieee8021q.Ieee8021qTagTpidHeaderInserter.html" xlink:title="Simple Module Ieee8021qTagTpidHeaderInserter" target="_parent">
<polygon fill="#fffcaf" stroke="black" points="2925,-19 2747,-19 2747,0 2925,0 2925,-19"/>
<text text-anchor="middle" x="2836" y="-7" font-family="Helvetica,sans-Serif" font-size="10.00">Ieee8021qTagTpidHeaderInserter</text>
</a>
</g>
</g>
<!-- PacketFlowBase&#45;&gt;Ieee8021qTagTpidHeaderInserter -->
<g id="edge18" class="edge">
<title>PacketFlowBase&#45;&gt;Ieee8021qTagTpidHeaderInserter</title>
<path fill="none" stroke="black" d="M3065.98,-54.98C3015,-45.12 2931.49,-28.97 2880.37,-19.08"/>
</g>
<!-- Ieee8021rTagEpdHeaderInserter -->
<g id="node20" class="node">
<title>Ieee8021rTagEpdHeaderInserter</title>
<g id="a_node20"><a xlink:href="inet.linklayer.ieee8021r.Ieee8021rTagEpdHeaderInserter.html" xlink:title="Simple Module Ieee8021rTagEpdHeaderInserter" target="_parent">
<polygon fill="#fffcaf" stroke="black" points="3116.5,-19 2943.5,-19 2943.5,0 3116.5,0 3116.5,-19"/>
<text text-anchor="middle" x="3030" y="-7" font-family="Helvetica,sans-Serif" font-size="10.00">Ieee8021rTagEpdHeaderInserter</text>
</a>
</g>
</g>
<!-- PacketFlowBase&#45;&gt;Ieee8021rTagEpdHeaderInserter -->
<g id="edge19" class="edge">
<title>PacketFlowBase&#45;&gt;Ieee8021rTagEpdHeaderInserter</title>
<path fill="none" stroke="black" d="M3097.15,-54.98C3082.31,-45.15 3058.03,-29.07 3043.09,-19.17"/>
</g>
<!-- Ieee8022LlcInserter -->
<g id="node21" class="node">
<title>Ieee8022LlcInserter</title>
<g id="a_node21"><a xlink:href="inet.linklayer.ieee8022.Ieee8022LlcInserter.html" xlink:title="Simple Module Ieee8022LlcInserter" target="_parent">
<polygon fill="#fffcaf" stroke="black" points="3247.5,-19 3134.5,-19 3134.5,0 3247.5,0 3247.5,-19"/>
<text text-anchor="middle" x="3191" y="-7" font-family="Helvetica,sans-Serif" font-size="10.00">Ieee8022LlcInserter</text>
</a>
</g>
</g>
<!-- PacketFlowBase&#45;&gt;Ieee8022LlcInserter -->
<g id="edge20" class="edge">
<title>PacketFlowBase&#45;&gt;Ieee8022LlcInserter</title>
<path fill="none" stroke="black" d="M3123.01,-54.98C3138.04,-45.15 3162.62,-29.07 3177.75,-19.17"/>
</g>
<!-- Ieee8022LlcSocketCommandProcessor -->
<g id="node22" class="node">
<title>Ieee8022LlcSocketCommandProcessor</title>
<g id="a_node22"><a xlink:href="inet.linklayer.ieee8022.Ieee8022LlcSocketCommandProcessor.html" xlink:title="Simple Module Ieee8022LlcSocketCommandProcessor" target="_parent">
<polygon fill="#fffcaf" stroke="black" points="3470.5,-19 3265.5,-19 3265.5,0 3470.5,0 3470.5,-19"/>
<text text-anchor="middle" x="3368" y="-7" font-family="Helvetica,sans-Serif" font-size="10.00">Ieee8022LlcSocketCommandProcessor</text>
</a>
</g>
</g>
<!-- PacketFlowBase&#45;&gt;Ieee8022LlcSocketCommandProcessor -->
<g id="edge21" class="edge">
<title>PacketFlowBase&#45;&gt;Ieee8022LlcSocketCommandProcessor</title>
<path fill="none" stroke="black" d="M3151.45,-54.98C3199.46,-45.12 3278.08,-28.97 3326.22,-19.08"/>
</g>
<!-- Ieee8022LlcSocketPacketProcessor -->
<g id="node23" class="node">
<title>Ieee8022LlcSocketPacketProcessor</title>
<g id="a_node23"><a xlink:href="inet.linklayer.ieee8022.Ieee8022LlcSocketPacketProcessor.html" xlink:title="Simple Module Ieee8022LlcSocketPacketProcessor" target="_parent">
<polygon fill="#fffcaf" stroke="black" points="3675.5,-19 3488.5,-19 3488.5,0 3675.5,0 3675.5,-19"/>
<text text-anchor="middle" x="3582" y="-7" font-family="Helvetica,sans-Serif" font-size="10.00">Ieee8022LlcSocketPacketProcessor</text>
</a>
</g>
</g>
<!-- PacketFlowBase&#45;&gt;Ieee8022LlcSocketPacketProcessor -->
<g id="edge22" class="edge">
<title>PacketFlowBase&#45;&gt;Ieee8022LlcSocketPacketProcessor</title>
<path fill="none" stroke="black" d="M3158.29,-58.08C3240.53,-48.84 3408.33,-30 3506.29,-19"/>
</g>
<!-- Ieee8022SnapInserter -->
<g id="node24" class="node">
<title>Ieee8022SnapInserter</title>
<g id="a_node24"><a xlink:href="inet.linklayer.ieee8022.Ieee8022SnapInserter.html" xlink:title="Simple Module Ieee8022SnapInserter" target="_parent">
<polygon fill="#fffcaf" stroke="black" points="3816.5,-19 3693.5,-19 3693.5,0 3816.5,0 3816.5,-19"/>
<text text-anchor="middle" x="3755" y="-7" font-family="Helvetica,sans-Serif" font-size="10.00">Ieee8022SnapInserter</text>
</a>
</g>
</g>
<!-- PacketFlowBase&#45;&gt;Ieee8022SnapInserter -->
<g id="edge23" class="edge">
<title>PacketFlowBase&#45;&gt;Ieee8022SnapInserter</title>
<path fill="none" stroke="black" d="M3158.15,-60.49C3257,-54.14 3489.97,-38.38 3685,-19 3687.68,-18.73 3690.42,-18.45 3693.18,-18.15"/>
</g>
<!-- PacketDeserializer -->
<g id="node25" class="node">
<title>PacketDeserializer</title>
<g id="a_node25"><a xlink:href="inet.protocolelement.common.PacketDeserializer.html" xlink:title="Simple Module PacketDeserializer" target="_parent">
<polygon fill="#fffcaf" stroke="black" points="3941.5,-19 3834.5,-19 3834.5,0 3941.5,0 3941.5,-19"/>
<text text-anchor="middle" x="3888" y="-7" font-family="Helvetica,sans-Serif" font-size="10.00">PacketDeserializer</text>
</a>
</g>
</g>
<!-- PacketFlowBase&#45;&gt;PacketDeserializer -->
<g id="edge24" class="edge">
<title>PacketFlowBase&#45;&gt;PacketDeserializer</title>
<path fill="none" stroke="black" d="M3158.29,-61.74C3273.84,-57.25 3575.34,-43.94 3826,-19 3828.7,-18.73 3831.47,-18.43 3834.26,-18.12"/>
</g>
<!-- PacketDirectionReverser -->
<g id="node26" class="node">
<title>PacketDirectionReverser</title>
<g id="a_node26"><a xlink:href="inet.linklayer.ethernet.common.PacketDirectionReverser.html" xlink:title="Simple Module PacketDirectionReverser" target="_parent">
<polygon fill="#fffcaf" stroke="black" points="4096.5,-19 3959.5,-19 3959.5,0 4096.5,0 4096.5,-19"/>
<text text-anchor="middle" x="4028" y="-7" font-family="Helvetica,sans-Serif" font-size="10.00">PacketDirectionReverser</text>
</a>
</g>
</g>
<!-- PacketFlowBase&#45;&gt;PacketDirectionReverser -->
<g id="edge25" class="edge">
<title>PacketFlowBase&#45;&gt;PacketDirectionReverser</title>
<path fill="none" stroke="black" d="M3158.42,-61.91C3287.41,-57.45 3650.07,-43.55 3951,-19 3953.68,-18.78 3956.41,-18.54 3959.17,-18.29"/>
</g>
<!-- PacketEmitter -->
<g id="node27" class="node">
<title>PacketEmitter</title>
<g id="a_node27"><a xlink:href="inet.protocolelement.common.PacketEmitter.html" xlink:title="Simple Module PacketEmitter" target="_parent">
<polygon fill="#fffcaf" stroke="black" points="4199.5,-19 4114.5,-19 4114.5,0 4199.5,0 4199.5,-19"/>
<text text-anchor="middle" x="4157" y="-7" font-family="Helvetica,sans-Serif" font-size="10.00">PacketEmitter</text>
</a>
</g>
</g>
<!-- PacketFlowBase&#45;&gt;PacketEmitter -->
<g id="edge26" class="edge">
<title>PacketFlowBase&#45;&gt;PacketEmitter</title>
<path fill="none" stroke="black" d="M3158.09,-63.4C3302.21,-62.67 3743,-57.22 4106,-19 4108.77,-18.71 4111.61,-18.36 4114.48,-17.98"/>
</g>
<!-- PacketGateBase -->
<g id="node28" class="node">
<title>PacketGateBase</title>
<g id="a_node28"><a xlink:href="inet.queueing.base.PacketGateBase.html" xlink:title="Simple Module PacketGateBase" target="_parent">
<polygon fill="#fffcaf" stroke="black" points="4314,-19 4218,-19 4218,0 4314,0 4314,-19"/>
<text text-anchor="middle" x="4266" y="-7" font-family="Helvetica,sans-Serif" font-size="10.00">PacketGateBase</text>
</a>
</g>
</g>
<!-- PacketFlowBase&#45;&gt;PacketGateBase -->
<g id="edge27" class="edge">
<title>PacketFlowBase&#45;&gt;PacketGateBase</title>
<path fill="none" stroke="black" d="M3158.06,-63.4C3311.58,-62.67 3803.83,-57.3 4209,-19 4211.89,-18.73 4214.85,-18.41 4217.84,-18.05"/>
</g>
<!-- PacketMarkerBase -->
<g id="node29" class="node">
<title>PacketMarkerBase</title>
<g id="a_node29"><a xlink:href="inet.queueing.base.PacketMarkerBase.html" xlink:title="Simple Module PacketMarkerBase" target="_parent">
<polygon fill="#fffcaf" stroke="black" points="4439.5,-19 4332.5,-19 4332.5,0 4439.5,0 4439.5,-19"/>
<text text-anchor="middle" x="4386" y="-7" font-family="Helvetica,sans-Serif" font-size="10.00">PacketMarkerBase</text>
</a>
</g>
</g>
<!-- PacketFlowBase&#45;&gt;PacketMarkerBase -->
<g id="edge28" class="edge">
<title>PacketFlowBase&#45;&gt;PacketMarkerBase</title>
<path fill="none" stroke="black" d="M3158.07,-63.42C3321.55,-62.78 3871.05,-57.69 4323,-19 4326.08,-18.74 4329.24,-18.43 4332.42,-18.09"/>
</g>
<!-- PacketMeterBase -->
<g id="node30" class="node">
<title>PacketMeterBase</title>
<g id="a_node30"><a xlink:href="inet.queueing.base.PacketMeterBase.html" xlink:title="Simple Module PacketMeterBase" target="_parent">
<polygon fill="#fffcaf" stroke="black" points="4558.5,-19 4457.5,-19 4457.5,0 4558.5,0 4558.5,-19"/>
<text text-anchor="middle" x="4508" y="-7" font-family="Helvetica,sans-Serif" font-size="10.00">PacketMeterBase</text>
</a>
</g>
</g>
<!-- PacketFlowBase&#45;&gt;PacketMeterBase -->
<g id="edge29" class="edge">
<title>PacketFlowBase&#45;&gt;PacketMeterBase</title>
<path fill="none" stroke="black" d="M3158.15,-63.81C3332.3,-64.52 3945.65,-63.49 4449,-19 4451.68,-18.76 4454.42,-18.49 4457.19,-18.18"/>
</g>
<!-- PacketSerializer -->
<g id="node31" class="node">
<title>PacketSerializer</title>
<g id="a_node31"><a xlink:href="inet.protocolelement.common.PacketSerializer.html" xlink:title="Simple Module PacketSerializer" target="_parent">
<polygon fill="#fffcaf" stroke="black" points="4671.5,-19 4576.5,-19 4576.5,0 4671.5,0 4671.5,-19"/>
<text text-anchor="middle" x="4624" y="-7" font-family="Helvetica,sans-Serif" font-size="10.00">PacketSerializer</text>
</a>
</g>
</g>
<!-- PacketFlowBase&#45;&gt;PacketSerializer -->
<g id="edge30" class="edge">
<title>PacketFlowBase&#45;&gt;PacketSerializer</title>
<path fill="none" stroke="black" d="M3158.3,-62.81C3378.07,-59.53 4285.06,-44.7 4568,-19 4570.74,-18.75 4573.55,-18.45 4576.39,-18.12"/>
</g>
<!-- PaddingInserter -->
<g id="node32" class="node">
<title>PaddingInserter</title>
<g id="a_node32"><a xlink:href="inet.protocolelement.common.PaddingInserter.html" xlink:title="Simple Module PaddingInserter" target="_parent">
<polygon fill="#fffcaf" stroke="black" points="4782.5,-19 4689.5,-19 4689.5,0 4782.5,0 4782.5,-19"/>
<text text-anchor="middle" x="4736" y="-7" font-family="Helvetica,sans-Serif" font-size="10.00">PaddingInserter</text>
</a>
</g>
</g>
<!-- PacketFlowBase&#45;&gt;PaddingInserter -->
<g id="edge31" class="edge">
<title>PacketFlowBase&#45;&gt;PaddingInserter</title>
<path fill="none" stroke="black" d="M3158.16,-62.95C3387.94,-60.19 4374.46,-46.92 4681,-19 4683.69,-18.75 4686.46,-18.46 4689.24,-18.13"/>
</g>
<!-- RelayInterfaceLearner -->
<g id="node33" class="node">
<title>RelayInterfaceLearner</title>
<g id="a_node33"><a xlink:href="inet.linklayer.ethernet.common.RelayInterfaceLearner.html" xlink:title="Simple Module RelayInterfaceLearner" target="_parent">
<polygon fill="#fffcaf" stroke="black" points="4925.5,-19 4800.5,-19 4800.5,0 4925.5,0 4925.5,-19"/>
<text text-anchor="middle" x="4863" y="-7" font-family="Helvetica,sans-Serif" font-size="10.00">RelayInterfaceLearner</text>
</a>
</g>
</g>
<!-- PacketFlowBase&#45;&gt;RelayInterfaceLearner -->
<g id="edge32" class="edge">
<title>PacketFlowBase&#45;&gt;RelayInterfaceLearner</title>
<path fill="none" stroke="black" d="M3158.25,-63.86C3358.87,-65 4146.68,-66.06 4792,-19 4794.72,-18.8 4797.5,-18.57 4800.31,-18.32"/>
</g>
<!-- SequenceNumbering -->
<g id="node34" class="node">
<title>SequenceNumbering</title>
<g id="a_node34"><a xlink:href="inet.protocolelement.ordering.SequenceNumbering.html" xlink:title="Simple Module SequenceNumbering" target="_parent">
<polygon fill="#fffcaf" stroke="black" points="5062,-19 4944,-19 4944,0 5062,0 5062,-19"/>
<text text-anchor="middle" x="5003" y="-7" font-family="Helvetica,sans-Serif" font-size="10.00">SequenceNumbering</text>
</a>
</g>
</g>
<!-- PacketFlowBase&#45;&gt;SequenceNumbering -->
<g id="edge33" class="edge">
<title>PacketFlowBase&#45;&gt;SequenceNumbering</title>
<path fill="none" stroke="black" d="M3158.2,-62.98C3409.85,-60.15 4574.89,-45.83 4935,-19 4937.85,-18.79 4940.76,-18.54 4943.7,-18.27"/>
</g>
<!-- StreamDecoder -->
<g id="node35" class="node">
<title>StreamDecoder</title>
<g id="a_node35"><a xlink:href="inet.protocolelement.redundancy.StreamDecoder.html" xlink:title="Simple Module StreamDecoder" target="_parent">
<polygon fill="#fffcaf" stroke="black" points="5172,-19 5080,-19 5080,0 5172,0 5172,-19"/>
<text text-anchor="middle" x="5126" y="-7" font-family="Helvetica,sans-Serif" font-size="10.00">StreamDecoder</text>
</a>
</g>
</g>
<!-- PacketFlowBase&#45;&gt;StreamDecoder -->
<g id="edge34" class="edge">
<title>PacketFlowBase&#45;&gt;StreamDecoder</title>
<path fill="none" stroke="black" d="M3158.31,-63.26C3421.28,-61.83 4682.8,-53.25 5071,-19 5073.89,-18.75 5076.85,-18.43 5079.84,-18.08"/>
</g>
<!-- StreamEncoder -->
<g id="node36" class="node">
<title>StreamEncoder</title>
<g id="a_node36"><a xlink:href="inet.protocolelement.redundancy.StreamEncoder.html" xlink:title="Simple Module StreamEncoder" target="_parent">
<polygon fill="#fffcaf" stroke="black" points="5281.5,-19 5190.5,-19 5190.5,0 5281.5,0 5281.5,-19"/>
<text text-anchor="middle" x="5236" y="-7" font-family="Helvetica,sans-Serif" font-size="10.00">StreamEncoder</text>
</a>
</g>
</g>
<!-- PacketFlowBase&#45;&gt;StreamEncoder -->
<g id="edge35" class="edge">
<title>PacketFlowBase&#45;&gt;StreamEncoder</title>
<path fill="none" stroke="black" d="M3158.32,-63.33C3430,-62.23 4769.67,-55.05 5181,-19 5184.08,-18.73 5187.25,-18.39 5190.44,-18.01"/>
</g>
<!-- StreamIdentifier -->
<g id="node37" class="node">
<title>StreamIdentifier</title>
<g id="a_node37"><a xlink:href="inet.protocolelement.redundancy.StreamIdentifier.html" xlink:title="Simple Module StreamIdentifier" target="_parent">
<polygon fill="#fffcaf" stroke="black" points="5396,-19 5300,-19 5300,0 5396,0 5396,-19"/>
<text text-anchor="middle" x="5348" y="-7" font-family="Helvetica,sans-Serif" font-size="10.00">StreamIdentifier</text>
</a>
</g>
</g>
<!-- PacketFlowBase&#45;&gt;StreamIdentifier -->
<g id="edge36" class="edge">
<title>PacketFlowBase&#45;&gt;StreamIdentifier</title>
<path fill="none" stroke="black" d="M3158.12,-63.35C3437.75,-62.38 4856.3,-55.7 5291,-19 5293.89,-18.76 5296.86,-18.46 5299.85,-18.12"/>
</g>
<!-- VlanReqMapper -->
<g id="node38" class="node">
<title>VlanReqMapper</title>
<g id="a_node38"><a xlink:href="inet.linklayer.vlan.VlanReqMapper.html" xlink:title="Simple Module VlanReqMapper" target="_parent">
<polygon fill="#fffcaf" stroke="black" points="5508,-19 5414,-19 5414,0 5508,0 5508,-19"/>
<text text-anchor="middle" x="5461" y="-7" font-family="Helvetica,sans-Serif" font-size="10.00">VlanReqMapper</text>
</a>
</g>
</g>
<!-- PacketFlowBase&#45;&gt;VlanReqMapper -->
<g id="edge37" class="edge">
<title>PacketFlowBase&#45;&gt;VlanReqMapper</title>
<path fill="none" stroke="black" d="M3158.26,-63.43C3446.78,-62.87 4946.38,-58.08 5405,-19 5407.94,-18.75 5410.96,-18.44 5414,-18.09"/>
</g>
<!-- PacketProcessorBase -->
<g id="node2" class="node">
<title>PacketProcessorBase</title>
<g id="a_node2"><a xlink:href="inet.queueing.base.PacketProcessorBase.html" xlink:title="Simple Module PacketProcessorBase" target="_parent">
<polygon fill="#fffcaf" stroke="black" points="3170,-129 3050,-129 3050,-110 3170,-110 3170,-129"/>
<text text-anchor="middle" x="3110" y="-117" font-family="Helvetica,sans-Serif" font-size="10.00">PacketProcessorBase</text>
</a>
</g>
</g>
<!-- PacketProcessorBase&#45;&gt;PacketFlowBase -->
<g id="edge1" class="edge">
<title>PacketProcessorBase&#45;&gt;PacketFlowBase</title>
<path fill="none" stroke="black" d="M3110,-109.75C3110,-99.87 3110,-83.9 3110,-74.09"/>
</g>
</g>
</svg>
