<?xml version="1.0" encoding="UTF-8" standalone="no"?>
<!DOCTYPE svg PUBLIC "-//W3C//DTD SVG 1.1//EN"
 "http://www.w3.org/Graphics/SVG/1.1/DTD/svg11.dtd">
<!-- Generated by graphviz version 2.43.0 (0)
 -->
<!-- Title: opp Pages: 1 -->
<svg width="445pt" height="82pt"
 viewBox="0.00 0.00 444.50 82.00" xmlns="http://www.w3.org/2000/svg" xmlns:xlink="http://www.w3.org/1999/xlink">
<g id="graph0" class="graph" transform="scale(1 1) rotate(0) translate(4 78)">
<title>opp</title>
<polygon fill="transparent" stroke="transparent" points="-4,4 -4,-78 440.5,-78 440.5,4 -4,4"/>
<!-- WrrSchedulerTutorialStep -->
<g id="node1" class="node">
<title>WrrSchedulerTutorialStep</title>
<g id="a_node1"><a xlink:href="inet.tutorials.queueing.WrrSchedulerTutorialStep.html" xlink:title="Network WrrSchedulerTutorialStep" target="_parent">
<polygon fill="#9090ff" stroke="black" points="268,-74 128,-74 128,-55 268,-55 268,-74"/>
<text text-anchor="middle" x="198" y="-62" font-family="Helvetica,sans-Serif" font-size="10.00">WrrSchedulerTutorialStep</text>
</a>
</g>
</g>
<!-- IdealChannel -->
<g id="node2" class="node">
<title>IdealChannel</title>
<g id="a_node2"><a xlink:href="ned.IdealChannel.html" xlink:title="Channel IdealChannel" target="_parent">
<polygon fill="#d0ffd0" stroke="black" points="80,-19 0,-19 0,0 80,0 80,-19"/>
<text text-anchor="middle" x="40" y="-7" font-family="Helvetica,sans-Serif" font-size="10.00">IdealChannel</text>
</a>
</g>
</g>
<!-- WrrSchedulerTutorialStep&#45;&gt;IdealChannel -->
<g id="edge1" class="edge">
<title>WrrSchedulerTutorialStep&#45;&gt;IdealChannel</title>
<path fill="none" stroke="black" d="M172.61,-54.98C146.2,-46.13 104.65,-32.19 75.11,-22.28"/>
<polygon fill="black" stroke="black" points="76.18,-18.94 65.58,-19.08 73.95,-25.58 76.18,-18.94"/>
</g>
<!-- WrrScheduler -->
<g id="node3" class="node">
<title>WrrScheduler</title>
<g id="a_node3"><a xlink:href="inet.queueing.scheduler.WrrScheduler.html" xlink:title="Simple Module WrrScheduler" target="_parent">
<polygon fill="#fffcaf" stroke="black" points="180,-19 98,-19 98,0 180,0 180,-19"/>
<text text-anchor="middle" x="139" y="-7" font-family="Helvetica,sans-Serif" font-size="10.00">WrrScheduler</text>
</a>
</g>
</g>
<!-- WrrSchedulerTutorialStep&#45;&gt;WrrScheduler -->
<g id="edge2" class="edge">
<title>WrrSchedulerTutorialStep&#45;&gt;WrrScheduler</title>
<path fill="none" stroke="black" d="M188.52,-54.98C179.8,-47.15 166.66,-35.34 156.1,-25.86"/>
<polygon fill="black" stroke="black" points="158.43,-23.25 148.65,-19.17 153.75,-28.46 158.43,-23.25"/>
</g>
<!-- PassivePacketSource -->
<g id="node4" class="node">
<title>PassivePacketSource</title>
<g id="a_node4"><a xlink:href="inet.queueing.source.PassivePacketSource.html" xlink:title="Simple Module PassivePacketSource" target="_parent">
<polygon fill="#fffcaf" stroke="black" points="317.5,-19 198.5,-19 198.5,0 317.5,0 317.5,-19"/>
<text text-anchor="middle" x="258" y="-7" font-family="Helvetica,sans-Serif" font-size="10.00">PassivePacketSource</text>
</a>
</g>
</g>
<!-- WrrSchedulerTutorialStep&#45;&gt;PassivePacketSource -->
<g id="edge3" class="edge">
<title>WrrSchedulerTutorialStep&#45;&gt;PassivePacketSource</title>
<path fill="none" stroke="black" d="M207.64,-54.98C216.51,-47.15 229.87,-35.34 240.61,-25.86"/>
<polygon fill="black" stroke="black" points="243.01,-28.41 248.18,-19.17 238.37,-23.17 243.01,-28.41"/>
</g>
<!-- ActivePacketSink -->
<g id="node5" class="node">
<title>ActivePacketSink</title>
<g id="a_node5"><a xlink:href="inet.queueing.sink.ActivePacketSink.html" xlink:title="Simple Module ActivePacketSink" target="_parent">
<polygon fill="#fffcaf" stroke="black" points="436.5,-19 335.5,-19 335.5,0 436.5,0 436.5,-19"/>
<text text-anchor="middle" x="386" y="-7" font-family="Helvetica,sans-Serif" font-size="10.00">ActivePacketSink</text>
</a>
</g>
</g>
<!-- WrrSchedulerTutorialStep&#45;&gt;ActivePacketSink -->
<g id="edge4" class="edge">
<title>WrrSchedulerTutorialStep&#45;&gt;ActivePacketSink</title>
<path fill="none" stroke="black" d="M228.21,-54.98C260.04,-46.01 310.36,-31.82 345.6,-21.89"/>
<polygon fill="black" stroke="black" points="346.88,-25.16 355.56,-19.08 344.98,-18.43 346.88,-25.16"/>
</g>
</g>
</svg>
