<?xml version="1.0" encoding="UTF-8" standalone="no"?>
<!DOCTYPE svg PUBLIC "-//W3C//DTD SVG 1.1//EN"
 "http://www.w3.org/Graphics/SVG/1.1/DTD/svg11.dtd">
<!-- Generated by graphviz version 2.43.0 (0)
 -->
<!-- Title: opp Pages: 1 -->
<svg width="1795pt" height="82pt"
 viewBox="0.00 0.00 1795.00 82.00" xmlns="http://www.w3.org/2000/svg" xmlns:xlink="http://www.w3.org/1999/xlink">
<g id="graph0" class="graph" transform="scale(1 1) rotate(0) translate(4 78)">
<title>opp</title>
<polygon fill="transparent" stroke="transparent" points="-4,4 -4,-78 1791,-78 1791,4 -4,4"/>
<!-- Hcf -->
<g id="node1" class="node">
<title>Hcf</title>
<g id="a_node1"><a xlink:href="inet.linklayer.ieee80211.mac.coordinationfunction.Hcf.html" xlink:title="Compound Module Hcf" target="_parent">
<polygon fill="#fff700" stroke="black" points="813.5,-74 759.5,-74 759.5,-55 813.5,-55 813.5,-74"/>
<text text-anchor="middle" x="786.5" y="-62" font-family="Helvetica,sans-Serif" font-size="10.00">Hcf</text>
</a>
</g>
</g>
<!-- OriginatorQosAckPolicy -->
<g id="node2" class="node">
<title>OriginatorQosAckPolicy</title>
<g id="a_node2"><a xlink:href="inet.linklayer.ieee80211.mac.originator.OriginatorQosAckPolicy.html" xlink:title="Simple Module OriginatorQosAckPolicy" target="_parent">
<polygon fill="#fffcaf" stroke="black" points="131,-19 0,-19 0,0 131,0 131,-19"/>
<text text-anchor="middle" x="65.5" y="-7" font-family="Helvetica,sans-Serif" font-size="10.00">OriginatorQosAckPolicy</text>
</a>
</g>
</g>
<!-- Hcf&#45;&gt;OriginatorQosAckPolicy -->
<g id="edge1" class="edge">
<title>Hcf&#45;&gt;OriginatorQosAckPolicy</title>
<path fill="none" stroke="black" d="M759.34,-62.08C671.56,-57.39 387.35,-41.46 141.45,-19.14"/>
<polygon fill="black" stroke="black" points="141.53,-15.63 131.25,-18.21 140.89,-22.61 141.53,-15.63"/>
</g>
<!-- RecipientBlockAckAgreementPolicy -->
<g id="node3" class="node">
<title>RecipientBlockAckAgreementPolicy</title>
<g id="a_node3"><a xlink:href="inet.linklayer.ieee80211.mac.blockack.RecipientBlockAckAgreementPolicy.html" xlink:title="Simple Module RecipientBlockAckAgreementPolicy" target="_parent">
<polygon fill="#fffcaf" stroke="black" points="340,-19 149,-19 149,0 340,0 340,-19"/>
<text text-anchor="middle" x="244.5" y="-7" font-family="Helvetica,sans-Serif" font-size="10.00">RecipientBlockAckAgreementPolicy</text>
</a>
</g>
</g>
<!-- Hcf&#45;&gt;RecipientBlockAckAgreementPolicy -->
<g id="edge2" class="edge">
<title>Hcf&#45;&gt;RecipientBlockAckAgreementPolicy</title>
<path fill="none" stroke="black" d="M759.25,-60.84C683.7,-53.45 468.76,-32.43 341.79,-20.01"/>
<polygon fill="black" stroke="black" points="341.96,-16.51 331.67,-19.02 341.28,-23.48 341.96,-16.51"/>
</g>
<!-- RecipientQosAckPolicy -->
<g id="node4" class="node">
<title>RecipientQosAckPolicy</title>
<g id="a_node4"><a xlink:href="inet.linklayer.ieee80211.mac.recipient.RecipientQosAckPolicy.html" xlink:title="Simple Module RecipientQosAckPolicy" target="_parent">
<polygon fill="#fffcaf" stroke="black" points="486.5,-19 358.5,-19 358.5,0 486.5,0 486.5,-19"/>
<text text-anchor="middle" x="422.5" y="-7" font-family="Helvetica,sans-Serif" font-size="10.00">RecipientQosAckPolicy</text>
</a>
</g>
</g>
<!-- Hcf&#45;&gt;RecipientQosAckPolicy -->
<g id="edge3" class="edge">
<title>Hcf&#45;&gt;RecipientQosAckPolicy</title>
<path fill="none" stroke="black" d="M759.44,-59.56C703.19,-51.37 572.15,-32.29 491.06,-20.48"/>
<polygon fill="black" stroke="black" points="491.34,-16.99 480.94,-19.01 490.33,-23.91 491.34,-16.99"/>
</g>
<!-- Edca -->
<g id="node5" class="node">
<title>Edca</title>
<g id="a_node5"><a xlink:href="inet.linklayer.ieee80211.mac.channelaccess.Edca.html" xlink:title="Compound Module Edca" target="_parent">
<polygon fill="#fffcaf" stroke="black" points="558.5,-19 504.5,-19 504.5,0 558.5,0 558.5,-19"/>
<text text-anchor="middle" x="531.5" y="-7" font-family="Helvetica,sans-Serif" font-size="10.00">Edca</text>
</a>
</g>
</g>
<!-- Hcf&#45;&gt;Edca -->
<g id="edge4" class="edge">
<title>Hcf&#45;&gt;Edca</title>
<path fill="none" stroke="black" d="M759.47,-58.29C719.84,-50.59 643.41,-35.51 568.66,-19.2"/>
<polygon fill="black" stroke="black" points="569.12,-15.72 558.61,-17 567.62,-22.56 569.12,-15.72"/>
</g>
<!-- QosRtsPolicy -->
<g id="node6" class="node">
<title>QosRtsPolicy</title>
<g id="a_node6"><a xlink:href="inet.linklayer.ieee80211.mac.originator.QosRtsPolicy.html" xlink:title="Simple Module QosRtsPolicy" target="_parent">
<polygon fill="#fffcaf" stroke="black" points="656.5,-19 576.5,-19 576.5,0 656.5,0 656.5,-19"/>
<text text-anchor="middle" x="616.5" y="-7" font-family="Helvetica,sans-Serif" font-size="10.00">QosRtsPolicy</text>
</a>
</g>
</g>
<!-- Hcf&#45;&gt;QosRtsPolicy -->
<g id="edge5" class="edge">
<title>Hcf&#45;&gt;QosRtsPolicy</title>
<path fill="none" stroke="black" d="M759.19,-54.98C730.65,-46.09 685.67,-32.07 653.86,-22.15"/>
<polygon fill="black" stroke="black" points="654.62,-18.72 644.03,-19.08 652.53,-25.4 654.62,-18.72"/>
</g>
<!-- Hcca -->
<g id="node7" class="node">
<title>Hcca</title>
<g id="a_node7"><a xlink:href="inet.linklayer.ieee80211.mac.channelaccess.Hcca.html" xlink:title="Simple Module Hcca" target="_parent">
<polygon fill="#fffcaf" stroke="black" points="728.5,-19 674.5,-19 674.5,0 728.5,0 728.5,-19"/>
<text text-anchor="middle" x="701.5" y="-7" font-family="Helvetica,sans-Serif" font-size="10.00">Hcca</text>
</a>
</g>
</g>
<!-- Hcf&#45;&gt;Hcca -->
<g id="edge6" class="edge">
<title>Hcf&#45;&gt;Hcca</title>
<path fill="none" stroke="black" d="M772.84,-54.98C759.66,-46.77 739.47,-34.18 723.93,-24.49"/>
<polygon fill="black" stroke="black" points="725.74,-21.49 715.41,-19.17 722.04,-27.43 725.74,-21.49"/>
</g>
<!-- QosCtsPolicy -->
<g id="node8" class="node">
<title>QosCtsPolicy</title>
<g id="a_node8"><a xlink:href="inet.linklayer.ieee80211.mac.recipient.QosCtsPolicy.html" xlink:title="Simple Module QosCtsPolicy" target="_parent">
<polygon fill="#fffcaf" stroke="black" points="826.5,-19 746.5,-19 746.5,0 826.5,0 826.5,-19"/>
<text text-anchor="middle" x="786.5" y="-7" font-family="Helvetica,sans-Serif" font-size="10.00">QosCtsPolicy</text>
</a>
</g>
</g>
<!-- Hcf&#45;&gt;QosCtsPolicy -->
<g id="edge7" class="edge">
<title>Hcf&#45;&gt;QosCtsPolicy</title>
<path fill="none" stroke="black" d="M786.5,-54.75C786.5,-47.8 786.5,-37.85 786.5,-29.13"/>
<polygon fill="black" stroke="black" points="790,-29.09 786.5,-19.09 783,-29.09 790,-29.09"/>
</g>
<!-- SingleProtectionMechanism -->
<g id="node9" class="node">
<title>SingleProtectionMechanism</title>
<g id="a_node9"><a xlink:href="inet.linklayer.ieee80211.mac.protectionmechanism.SingleProtectionMechanism.html" xlink:title="Simple Module SingleProtectionMechanism" target="_parent">
<polygon fill="#fffcaf" stroke="black" points="996.5,-19 844.5,-19 844.5,0 996.5,0 996.5,-19"/>
<text text-anchor="middle" x="920.5" y="-7" font-family="Helvetica,sans-Serif" font-size="10.00">SingleProtectionMechanism</text>
</a>
</g>
</g>
<!-- Hcf&#45;&gt;SingleProtectionMechanism -->
<g id="edge8" class="edge">
<title>Hcf&#45;&gt;SingleProtectionMechanism</title>
<path fill="none" stroke="black" d="M808.03,-54.98C829.97,-46.3 864.24,-32.75 889.19,-22.88"/>
<polygon fill="black" stroke="black" points="890.57,-26.1 898.58,-19.17 887.99,-19.59 890.57,-26.1"/>
</g>
<!-- RecipientQosMacDataService -->
<g id="node10" class="node">
<title>RecipientQosMacDataService</title>
<g id="a_node10"><a xlink:href="inet.linklayer.ieee80211.mac.recipient.RecipientQosMacDataService.html" xlink:title="Compound Module RecipientQosMacDataService" target="_parent">
<polygon fill="#fffcaf" stroke="black" points="1176,-19 1015,-19 1015,0 1176,0 1176,-19"/>
<text text-anchor="middle" x="1095.5" y="-7" font-family="Helvetica,sans-Serif" font-size="10.00">RecipientQosMacDataService</text>
</a>
</g>
</g>
<!-- Hcf&#45;&gt;RecipientQosMacDataService -->
<g id="edge9" class="edge">
<title>Hcf&#45;&gt;RecipientQosMacDataService</title>
<path fill="none" stroke="black" d="M813.65,-58.84C863.1,-50.36 968.9,-32.21 1035.88,-20.73"/>
<polygon fill="black" stroke="black" points="1036.61,-24.15 1045.88,-19.01 1035.43,-17.25 1036.61,-24.15"/>
</g>
<!-- QosRateSelection -->
<g id="node11" class="node">
<title>QosRateSelection</title>
<g id="a_node11"><a xlink:href="inet.linklayer.ieee80211.mac.rateselection.QosRateSelection.html" xlink:title="Simple Module QosRateSelection" target="_parent">
<polygon fill="#fffcaf" stroke="black" points="1297,-19 1194,-19 1194,0 1297,0 1297,-19"/>
<text text-anchor="middle" x="1245.5" y="-7" font-family="Helvetica,sans-Serif" font-size="10.00">QosRateSelection</text>
</a>
</g>
</g>
<!-- Hcf&#45;&gt;QosRateSelection -->
<g id="edge10" class="edge">
<title>Hcf&#45;&gt;QosRateSelection</title>
<path fill="none" stroke="black" d="M813.63,-60.76C876.7,-54.31 1038.34,-37.46 1183.8,-19.18"/>
<polygon fill="black" stroke="black" points="1184.32,-22.65 1193.8,-17.92 1183.44,-15.7 1184.32,-22.65"/>
</g>
<!-- OriginatorQosMacDataService -->
<g id="node12" class="node">
<title>OriginatorQosMacDataService</title>
<g id="a_node12"><a xlink:href="inet.linklayer.ieee80211.mac.originator.OriginatorQosMacDataService.html" xlink:title="Compound Module OriginatorQosMacDataService" target="_parent">
<polygon fill="#fffcaf" stroke="black" points="1479.5,-19 1315.5,-19 1315.5,0 1479.5,0 1479.5,-19"/>
<text text-anchor="middle" x="1397.5" y="-7" font-family="Helvetica,sans-Serif" font-size="10.00">OriginatorQosMacDataService</text>
</a>
</g>
</g>
<!-- Hcf&#45;&gt;OriginatorQosMacDataService -->
<g id="edge11" class="edge">
<title>Hcf&#45;&gt;OriginatorQosMacDataService</title>
<path fill="none" stroke="black" d="M813.57,-61.26C889.34,-54.97 1110.16,-36.52 1305.02,-19.13"/>
<polygon fill="black" stroke="black" points="1305.51,-22.6 1315.16,-18.22 1304.89,-15.62 1305.51,-22.6"/>
</g>
<!-- OriginatorBlockAckAgreementPolicy -->
<g id="node13" class="node">
<title>OriginatorBlockAckAgreementPolicy</title>
<g id="a_node13"><a xlink:href="inet.linklayer.ieee80211.mac.blockack.OriginatorBlockAckAgreementPolicy.html" xlink:title="Simple Module OriginatorBlockAckAgreementPolicy" target="_parent">
<polygon fill="#fffcaf" stroke="black" points="1691.5,-19 1497.5,-19 1497.5,0 1691.5,0 1691.5,-19"/>
<text text-anchor="middle" x="1594.5" y="-7" font-family="Helvetica,sans-Serif" font-size="10.00">OriginatorBlockAckAgreementPolicy</text>
</a>
</g>
</g>
<!-- Hcf&#45;&gt;OriginatorBlockAckAgreementPolicy -->
<g id="edge12" class="edge">
<title>Hcf&#45;&gt;OriginatorBlockAckAgreementPolicy</title>
<path fill="none" stroke="black" d="M813.61,-61.94C906.07,-56.61 1217.65,-38.34 1487.09,-19.09"/>
<polygon fill="black" stroke="black" points="1487.73,-22.55 1497.46,-18.35 1487.23,-15.57 1487.73,-22.55"/>
</g>
<!-- IRateControl -->
<g id="node14" class="node">
<title>IRateControl</title>
<g id="a_node14"><a xlink:href="inet.linklayer.ieee80211.mac.contract.IRateControl.html" xlink:title="Module Interface IRateControl" target="_parent">
<polygon fill="#fffcaf" stroke="black" stroke-dasharray="5,2" points="1787,-19 1710,-19 1710,0 1787,0 1787,-19"/>
<text text-anchor="middle" x="1748.5" y="-7" font-family="Helvetica,sans-Serif" font-size="10.00">IRateControl</text>
</a>
</g>
</g>
<!-- Hcf&#45;&gt;IRateControl -->
<g id="edge13" class="edge">
<title>Hcf&#45;&gt;IRateControl</title>
<path fill="none" stroke="black" d="M813.52,-63.43C922.91,-62.89 1343.69,-58.31 1699.8,-18.91"/>
<polygon fill="black" stroke="black" points="1700.24,-22.38 1709.79,-17.79 1699.46,-15.42 1700.24,-22.38"/>
</g>
</g>
</svg>
