<?xml version="1.0" encoding="UTF-8" standalone="no"?>
<!DOCTYPE svg PUBLIC "-//W3C//DTD SVG 1.1//EN"
 "http://www.w3.org/Graphics/SVG/1.1/DTD/svg11.dtd">
<!-- Generated by graphviz version 2.43.0 (0)
 -->
<!-- Title: opp Pages: 1 -->
<svg width="567pt" height="82pt"
 viewBox="0.00 0.00 566.50 82.00" xmlns="http://www.w3.org/2000/svg" xmlns:xlink="http://www.w3.org/1999/xlink">
<g id="graph0" class="graph" transform="scale(1 1) rotate(0) translate(4 78)">
<title>opp</title>
<polygon fill="transparent" stroke="transparent" points="-4,4 -4,-78 562.5,-78 562.5,4 -4,4"/>
<!-- Pim -->
<g id="node1" class="node">
<title>Pim</title>
<g id="a_node1"><a xlink:href="inet.routing.pim.Pim.html" xlink:title="Compound Module Pim" target="_parent">
<polygon fill="#fff700" stroke="black" points="297,-74 243,-74 243,-55 297,-55 297,-74"/>
<text text-anchor="middle" x="270" y="-62" font-family="Helvetica,sans-Serif" font-size="10.00">Pim</text>
</a>
</g>
</g>
<!-- IdealChannel -->
<g id="node2" class="node">
<title>IdealChannel</title>
<g id="a_node2"><a xlink:href="ned.IdealChannel.html" xlink:title="Channel IdealChannel" target="_parent">
<polygon fill="#d0ffd0" stroke="black" points="80,-19 0,-19 0,0 80,0 80,-19"/>
<text text-anchor="middle" x="40" y="-7" font-family="Helvetica,sans-Serif" font-size="10.00">IdealChannel</text>
</a>
</g>
</g>
<!-- Pim&#45;&gt;IdealChannel -->
<g id="edge1" class="edge">
<title>Pim&#45;&gt;IdealChannel</title>
<path fill="none" stroke="black" d="M242.71,-57.21C204.36,-48.37 133.95,-32.15 87.05,-21.34"/>
<polygon fill="black" stroke="black" points="87.66,-17.89 77.13,-19.05 86.08,-24.71 87.66,-17.89"/>
</g>
<!-- PimDm -->
<g id="node3" class="node">
<title>PimDm</title>
<g id="a_node3"><a xlink:href="inet.routing.pim.modes.PimDm.html" xlink:title="Simple Module PimDm" target="_parent">
<polygon fill="#fffcaf" stroke="black" points="152,-19 98,-19 98,0 152,0 152,-19"/>
<text text-anchor="middle" x="125" y="-7" font-family="Helvetica,sans-Serif" font-size="10.00">PimDm</text>
</a>
</g>
</g>
<!-- Pim&#45;&gt;PimDm -->
<g id="edge2" class="edge">
<title>Pim&#45;&gt;PimDm</title>
<path fill="none" stroke="black" d="M246.7,-54.98C222.75,-46.23 185.22,-32.51 158.17,-22.62"/>
<polygon fill="black" stroke="black" points="159.31,-19.32 148.72,-19.17 156.91,-25.89 159.31,-19.32"/>
</g>
<!-- PimInterfaceTable -->
<g id="node4" class="node">
<title>PimInterfaceTable</title>
<g id="a_node4"><a xlink:href="inet.routing.pim.tables.PimInterfaceTable.html" xlink:title="Simple Module PimInterfaceTable" target="_parent">
<polygon fill="#fffcaf" stroke="black" points="274,-19 170,-19 170,0 274,0 274,-19"/>
<text text-anchor="middle" x="222" y="-7" font-family="Helvetica,sans-Serif" font-size="10.00">PimInterfaceTable</text>
</a>
</g>
</g>
<!-- Pim&#45;&gt;PimInterfaceTable -->
<g id="edge3" class="edge">
<title>Pim&#45;&gt;PimInterfaceTable</title>
<path fill="none" stroke="black" d="M262.07,-54.75C255.15,-47.11 244.93,-35.82 236.55,-26.56"/>
<polygon fill="black" stroke="black" points="239.09,-24.15 229.78,-19.09 233.9,-28.85 239.09,-24.15"/>
</g>
<!-- PimSm -->
<g id="node5" class="node">
<title>PimSm</title>
<g id="a_node5"><a xlink:href="inet.routing.pim.modes.PimSm.html" xlink:title="Simple Module PimSm" target="_parent">
<polygon fill="#fffcaf" stroke="black" points="346,-19 292,-19 292,0 346,0 346,-19"/>
<text text-anchor="middle" x="319" y="-7" font-family="Helvetica,sans-Serif" font-size="10.00">PimSm</text>
</a>
</g>
</g>
<!-- Pim&#45;&gt;PimSm -->
<g id="edge4" class="edge">
<title>Pim&#45;&gt;PimSm</title>
<path fill="none" stroke="black" d="M278.09,-54.75C285.16,-47.11 295.59,-35.82 304.15,-26.56"/>
<polygon fill="black" stroke="black" points="306.84,-28.81 311.06,-19.09 301.7,-24.06 306.84,-28.81"/>
</g>
<!-- PimSplitter -->
<g id="node6" class="node">
<title>PimSplitter</title>
<g id="a_node6"><a xlink:href="inet.routing.pim.PimSplitter.html" xlink:title="Simple Module PimSplitter" target="_parent">
<polygon fill="#fffcaf" stroke="black" points="435.5,-19 364.5,-19 364.5,0 435.5,0 435.5,-19"/>
<text text-anchor="middle" x="400" y="-7" font-family="Helvetica,sans-Serif" font-size="10.00">PimSplitter</text>
</a>
</g>
</g>
<!-- Pim&#45;&gt;PimSplitter -->
<g id="edge5" class="edge">
<title>Pim&#45;&gt;PimSplitter</title>
<path fill="none" stroke="black" d="M290.89,-54.98C312.08,-46.34 345.13,-32.87 369.3,-23.02"/>
<polygon fill="black" stroke="black" points="370.79,-26.19 378.73,-19.17 368.15,-19.7 370.79,-26.19"/>
</g>
<!-- PimNeighborTable -->
<g id="node7" class="node">
<title>PimNeighborTable</title>
<g id="a_node7"><a xlink:href="inet.routing.pim.tables.PimNeighborTable.html" xlink:title="Simple Module PimNeighborTable" target="_parent">
<polygon fill="#fffcaf" stroke="black" points="558.5,-19 453.5,-19 453.5,0 558.5,0 558.5,-19"/>
<text text-anchor="middle" x="506" y="-7" font-family="Helvetica,sans-Serif" font-size="10.00">PimNeighborTable</text>
</a>
</g>
</g>
<!-- Pim&#45;&gt;PimNeighborTable -->
<g id="edge6" class="edge">
<title>Pim&#45;&gt;PimNeighborTable</title>
<path fill="none" stroke="black" d="M297.07,-57.42C336.29,-48.61 409.53,-32.17 458.03,-21.27"/>
<polygon fill="black" stroke="black" points="458.99,-24.64 467.98,-19.04 457.46,-17.81 458.99,-24.64"/>
</g>
</g>
</svg>
