<?xml version="1.0" encoding="UTF-8" standalone="no"?>
<!DOCTYPE svg PUBLIC "-//W3C//DTD SVG 1.1//EN"
 "http://www.w3.org/Graphics/SVG/1.1/DTD/svg11.dtd">
<!-- Generated by graphviz version 2.43.0 (0)
 -->
<!-- Title: opp Pages: 1 -->
<svg width="645pt" height="82pt"
 viewBox="0.00 0.00 644.50 82.00" xmlns="http://www.w3.org/2000/svg" xmlns:xlink="http://www.w3.org/1999/xlink">
<g id="graph0" class="graph" transform="scale(1 1) rotate(0) translate(4 78)">
<title>opp</title>
<polygon fill="transparent" stroke="transparent" points="-4,4 -4,-78 640.5,-78 640.5,4 -4,4"/>
<!-- Throughput -->
<g id="node1" class="node">
<title>Throughput</title>
<g id="a_node1"><a xlink:href="inet.examples.wireless.hosttohost.Throughput.html" xlink:title="Network Throughput" target="_parent">
<polygon fill="#9090ff" stroke="black" points="318,-74 246,-74 246,-55 318,-55 318,-74"/>
<text text-anchor="middle" x="282" y="-62" font-family="Helvetica,sans-Serif" font-size="10.00">Throughput</text>
</a>
</g>
</g>
<!-- IIntegratedVisualizer -->
<g id="node2" class="node">
<title>IIntegratedVisualizer</title>
<g id="a_node2"><a xlink:href="inet.visualizer.contract.IIntegratedVisualizer.html" xlink:title="Module Interface IIntegratedVisualizer" target="_parent">
<polygon fill="#fffcaf" stroke="black" stroke-dasharray="5,2" points="118,-19 0,-19 0,0 118,0 118,-19"/>
<text text-anchor="middle" x="59" y="-7" font-family="Helvetica,sans-Serif" font-size="10.00">IIntegratedVisualizer</text>
</a>
</g>
</g>
<!-- Throughput&#45;&gt;IIntegratedVisualizer -->
<g id="edge1" class="edge">
<title>Throughput&#45;&gt;IIntegratedVisualizer</title>
<path fill="none" stroke="black" d="M246.17,-54.98C207.84,-45.87 146.92,-31.4 105.05,-21.45"/>
<polygon fill="black" stroke="black" points="105.65,-17.99 95.11,-19.08 104.03,-24.8 105.65,-17.99"/>
</g>
<!-- AccessPoint -->
<g id="node3" class="node">
<title>AccessPoint</title>
<g id="a_node3"><a xlink:href="inet.node.wireless.AccessPoint.html" xlink:title="Compound Module AccessPoint" target="_parent">
<polygon fill="#fffcaf" stroke="black" points="211.5,-19 136.5,-19 136.5,0 211.5,0 211.5,-19"/>
<text text-anchor="middle" x="174" y="-7" font-family="Helvetica,sans-Serif" font-size="10.00">AccessPoint</text>
</a>
</g>
</g>
<!-- Throughput&#45;&gt;AccessPoint -->
<g id="edge2" class="edge">
<title>Throughput&#45;&gt;AccessPoint</title>
<path fill="none" stroke="black" d="M264.65,-54.98C247.43,-46.54 220.8,-33.47 200.85,-23.68"/>
<polygon fill="black" stroke="black" points="202.19,-20.43 191.67,-19.17 199.1,-26.72 202.19,-20.43"/>
</g>
<!-- ThroughputServer -->
<g id="node4" class="node">
<title>ThroughputServer</title>
<g id="a_node4"><a xlink:href="inet.examples.wireless.hosttohost.ThroughputServer.html" xlink:title="Compound Module ThroughputServer" target="_parent">
<polygon fill="#fffcaf" stroke="black" points="334,-19 230,-19 230,0 334,0 334,-19"/>
<text text-anchor="middle" x="282" y="-7" font-family="Helvetica,sans-Serif" font-size="10.00">ThroughputServer</text>
</a>
</g>
</g>
<!-- Throughput&#45;&gt;ThroughputServer -->
<g id="edge3" class="edge">
<title>Throughput&#45;&gt;ThroughputServer</title>
<path fill="none" stroke="black" d="M282,-54.75C282,-47.8 282,-37.85 282,-29.13"/>
<polygon fill="black" stroke="black" points="285.5,-29.09 282,-19.09 278.5,-29.09 285.5,-29.09"/>
</g>
<!-- ThroughputClient -->
<g id="node5" class="node">
<title>ThroughputClient</title>
<g id="a_node5"><a xlink:href="inet.examples.wireless.hosttohost.ThroughputClient.html" xlink:title="Compound Module ThroughputClient" target="_parent">
<polygon fill="#fffcaf" stroke="black" points="453.5,-19 352.5,-19 352.5,0 453.5,0 453.5,-19"/>
<text text-anchor="middle" x="403" y="-7" font-family="Helvetica,sans-Serif" font-size="10.00">ThroughputClient</text>
</a>
</g>
</g>
<!-- Throughput&#45;&gt;ThroughputClient -->
<g id="edge4" class="edge">
<title>Throughput&#45;&gt;ThroughputClient</title>
<path fill="none" stroke="black" d="M301.44,-54.98C320.99,-46.42 351.38,-33.11 373.82,-23.28"/>
<polygon fill="black" stroke="black" points="375.45,-26.39 383.21,-19.17 372.64,-19.98 375.45,-26.39"/>
</g>
<!-- Ieee80211ScalarRadioMedium -->
<g id="node6" class="node">
<title>Ieee80211ScalarRadioMedium</title>
<g id="a_node6"><a xlink:href="inet.physicallayer.wireless.ieee80211.packetlevel.Ieee80211ScalarRadioMedium.html" xlink:title="Compound Module Ieee80211ScalarRadioMedium" target="_parent">
<polygon fill="#fffcaf" stroke="black" points="636.5,-19 471.5,-19 471.5,0 636.5,0 636.5,-19"/>
<text text-anchor="middle" x="554" y="-7" font-family="Helvetica,sans-Serif" font-size="10.00">Ieee80211ScalarRadioMedium</text>
</a>
</g>
</g>
<!-- Throughput&#45;&gt;Ieee80211ScalarRadioMedium -->
<g id="edge5" class="edge">
<title>Throughput&#45;&gt;Ieee80211ScalarRadioMedium</title>
<path fill="none" stroke="black" d="M318.12,-56.46C364.69,-47.39 446.07,-31.53 500,-21.02"/>
<polygon fill="black" stroke="black" points="500.92,-24.41 510.07,-19.06 499.58,-17.54 500.92,-24.41"/>
</g>
</g>
</svg>
