<?xml version="1.0" encoding="UTF-8" standalone="no"?>
<!DOCTYPE svg PUBLIC "-//W3C//DTD SVG 1.1//EN"
 "http://www.w3.org/Graphics/SVG/1.1/DTD/svg11.dtd">
<!-- Generated by graphviz version 2.43.0 (0)
 -->
<!-- Title: opp Pages: 1 -->
<svg width="324pt" height="137pt"
 viewBox="0.00 0.00 324.00 137.00" xmlns="http://www.w3.org/2000/svg" xmlns:xlink="http://www.w3.org/1999/xlink">
<g id="graph0" class="graph" transform="scale(1 1) rotate(0) translate(4 133)">
<title>opp</title>
<polygon fill="transparent" stroke="transparent" points="-4,4 -4,-133 320,-133 320,4 -4,4"/>
<!-- OSPF_Area2 -->
<g id="node1" class="node">
<title>OSPF_Area2</title>
<g id="a_node1"><a xlink:href="inet.examples.ospfv2.fulltest.OSPF_Area2.html" xlink:title="Compound Module OSPF_Area2" target="_parent">
<polygon fill="#fff700" stroke="black" points="197,-74 121,-74 121,-55 197,-55 197,-74"/>
<text text-anchor="middle" x="159" y="-62" font-family="Helvetica,sans-Serif" font-size="10.00">OSPF_Area2</text>
</a>
</g>
</g>
<!-- C -->
<g id="node2" class="node">
<title>C</title>
<g id="a_node2"><a xlink:href="inet.examples.ospfv2.fulltest.C.html" xlink:title="Channel C" target="_parent">
<polygon fill="#d0ffd0" stroke="black" points="54,-19 0,-19 0,0 54,0 54,-19"/>
<text text-anchor="middle" x="27" y="-7" font-family="Helvetica,sans-Serif" font-size="10.00">C</text>
</a>
</g>
</g>
<!-- OSPF_Area2&#45;&gt;C -->
<g id="edge1" class="edge">
<title>OSPF_Area2&#45;&gt;C</title>
<path fill="none" stroke="black" d="M137.79,-54.98C116.27,-46.34 82.72,-32.87 58.17,-23.02"/>
<polygon fill="black" stroke="black" points="59.18,-19.65 48.59,-19.17 56.57,-26.14 59.18,-19.65"/>
</g>
<!-- IdealChannel -->
<g id="node3" class="node">
<title>IdealChannel</title>
<g id="a_node3"><a xlink:href="ned.IdealChannel.html" xlink:title="Channel IdealChannel" target="_parent">
<polygon fill="#d0ffd0" stroke="black" points="152,-19 72,-19 72,0 152,0 152,-19"/>
<text text-anchor="middle" x="112" y="-7" font-family="Helvetica,sans-Serif" font-size="10.00">IdealChannel</text>
</a>
</g>
</g>
<!-- OSPF_Area2&#45;&gt;IdealChannel -->
<g id="edge2" class="edge">
<title>OSPF_Area2&#45;&gt;IdealChannel</title>
<path fill="none" stroke="black" d="M151.24,-54.75C144.53,-47.18 134.66,-36.05 126.49,-26.84"/>
<polygon fill="black" stroke="black" points="128.87,-24.25 119.62,-19.09 123.63,-28.89 128.87,-24.25"/>
</g>
<!-- OspfRouter -->
<g id="node4" class="node">
<title>OspfRouter</title>
<g id="a_node4"><a xlink:href="inet.node.ospfv2.OspfRouter.html" xlink:title="Compound Module OspfRouter" target="_parent">
<polygon fill="#fffcaf" stroke="black" points="241.5,-19 170.5,-19 170.5,0 241.5,0 241.5,-19"/>
<text text-anchor="middle" x="206" y="-7" font-family="Helvetica,sans-Serif" font-size="10.00">OspfRouter</text>
</a>
</g>
</g>
<!-- OSPF_Area2&#45;&gt;OspfRouter -->
<g id="edge3" class="edge">
<title>OSPF_Area2&#45;&gt;OspfRouter</title>
<path fill="none" stroke="black" d="M166.76,-54.75C173.47,-47.18 183.34,-36.05 191.51,-26.84"/>
<polygon fill="black" stroke="black" points="194.37,-28.89 198.38,-19.09 189.13,-24.25 194.37,-28.89"/>
</g>
<!-- OspfLan -->
<g id="node5" class="node">
<title>OspfLan</title>
<g id="a_node5"><a xlink:href="inet.examples.ospfv2.fulltest.OspfLan.html" xlink:title="Compound Module OspfLan" target="_parent">
<polygon fill="#fffcaf" stroke="black" points="316,-19 260,-19 260,0 316,0 316,-19"/>
<text text-anchor="middle" x="288" y="-7" font-family="Helvetica,sans-Serif" font-size="10.00">OspfLan</text>
</a>
</g>
</g>
<!-- OSPF_Area2&#45;&gt;OspfLan -->
<g id="edge4" class="edge">
<title>OSPF_Area2&#45;&gt;OspfLan</title>
<path fill="none" stroke="black" d="M179.73,-54.98C200.76,-46.34 233.55,-32.87 257.54,-23.02"/>
<polygon fill="black" stroke="black" points="258.98,-26.21 266.9,-19.17 256.32,-19.73 258.98,-26.21"/>
</g>
<!-- OSPF_RFC2328_Fig6 -->
<g id="node6" class="node">
<title>OSPF_RFC2328_Fig6</title>
<g id="a_node6"><a xlink:href="inet.examples.ospfv2.fulltest.OSPF_RFC2328_Fig6.html" xlink:title="Network OSPF_RFC2328_Fig6" target="_parent">
<polygon fill="#d0d0ff" stroke="black" points="217,-129 101,-129 101,-110 217,-110 217,-129"/>
<text text-anchor="middle" x="159" y="-117" font-family="Helvetica,sans-Serif" font-size="10.00">OSPF_RFC2328_Fig6</text>
</a>
</g>
</g>
<!-- OSPF_RFC2328_Fig6&#45;&gt;OSPF_Area2 -->
<g id="edge5" class="edge">
<title>OSPF_RFC2328_Fig6&#45;&gt;OSPF_Area2</title>
<path fill="none" stroke="black" d="M159,-109.75C159,-102.8 159,-92.85 159,-84.13"/>
<polygon fill="black" stroke="black" points="162.5,-84.09 159,-74.09 155.5,-84.09 162.5,-84.09"/>
</g>
</g>
</svg>
