<?xml version="1.0" encoding="UTF-8" standalone="no"?>
<!DOCTYPE svg PUBLIC "-//W3C//DTD SVG 1.1//EN"
 "http://www.w3.org/Graphics/SVG/1.1/DTD/svg11.dtd">
<!-- Generated by graphviz version 2.43.0 (0)
 -->
<!-- Title: opp Pages: 1 -->
<svg width="578pt" height="82pt"
 viewBox="0.00 0.00 577.50 82.00" xmlns="http://www.w3.org/2000/svg" xmlns:xlink="http://www.w3.org/1999/xlink">
<g id="graph0" class="graph" transform="scale(1 1) rotate(0) translate(4 78)">
<title>opp</title>
<polygon fill="transparent" stroke="transparent" points="-4,4 -4,-78 573.5,-78 573.5,4 -4,4"/>
<!-- ARPTest -->
<g id="node1" class="node">
<title>ARPTest</title>
<g id="a_node1"><a xlink:href="inet.examples.ethernet.arptest.ARPTest.html" xlink:title="Network ARPTest" target="_parent">
<polygon fill="#9090ff" stroke="black" points="285.5,-74 229.5,-74 229.5,-55 285.5,-55 285.5,-74"/>
<text text-anchor="middle" x="257.5" y="-62" font-family="Helvetica,sans-Serif" font-size="10.00">ARPTest</text>
</a>
</g>
</g>
<!-- StandardHost -->
<g id="node2" class="node">
<title>StandardHost</title>
<g id="a_node2"><a xlink:href="inet.node.inet.StandardHost.html" xlink:title="Compound Module StandardHost" target="_parent">
<polygon fill="#fffcaf" stroke="black" points="83,-19 0,-19 0,0 83,0 83,-19"/>
<text text-anchor="middle" x="41.5" y="-7" font-family="Helvetica,sans-Serif" font-size="10.00">StandardHost</text>
</a>
</g>
</g>
<!-- ARPTest&#45;&gt;StandardHost -->
<g id="edge1" class="edge">
<title>ARPTest&#45;&gt;StandardHost</title>
<path fill="none" stroke="black" d="M229.26,-56.57C192.84,-47.64 129.09,-31.99 86.09,-21.44"/>
<polygon fill="black" stroke="black" points="86.72,-17.99 76.17,-19.01 85.05,-24.79 86.72,-17.99"/>
</g>
<!-- Router -->
<g id="node3" class="node">
<title>Router</title>
<g id="a_node3"><a xlink:href="inet.node.inet.Router.html" xlink:title="Compound Module Router" target="_parent">
<polygon fill="#fffcaf" stroke="black" points="155.5,-19 101.5,-19 101.5,0 155.5,0 155.5,-19"/>
<text text-anchor="middle" x="128.5" y="-7" font-family="Helvetica,sans-Serif" font-size="10.00">Router</text>
</a>
</g>
</g>
<!-- ARPTest&#45;&gt;Router -->
<g id="edge2" class="edge">
<title>ARPTest&#45;&gt;Router</title>
<path fill="none" stroke="black" d="M236.77,-54.98C215.74,-46.34 182.95,-32.87 158.96,-23.02"/>
<polygon fill="black" stroke="black" points="160.18,-19.73 149.6,-19.17 157.52,-26.21 160.18,-19.73"/>
</g>
<!-- ethline -->
<g id="node4" class="node">
<title>ethline</title>
<g id="a_node4"><a xlink:href="inet.examples.ethernet.arptest.ARPTest.ethline.html" xlink:title="Channel ethline" target="_parent">
<polygon fill="#d0ffd0" stroke="black" points="227.5,-19 173.5,-19 173.5,0 227.5,0 227.5,-19"/>
<text text-anchor="middle" x="200.5" y="-7" font-family="Helvetica,sans-Serif" font-size="10.00">ethline</text>
</a>
</g>
</g>
<!-- ARPTest&#45;&gt;ethline -->
<g id="edge3" class="edge">
<title>ARPTest&#45;&gt;ethline</title>
<path fill="none" stroke="black" d="M248.34,-54.98C240,-47.23 227.47,-35.58 217.32,-26.14"/>
<polygon fill="black" stroke="black" points="219.53,-23.42 209.82,-19.17 214.76,-28.54 219.53,-23.42"/>
</g>
<!-- Ipv4NetworkConfigurator -->
<g id="node5" class="node">
<title>Ipv4NetworkConfigurator</title>
<g id="a_node5"><a xlink:href="inet.networklayer.configurator.ipv4.Ipv4NetworkConfigurator.html" xlink:title="Simple Module Ipv4NetworkConfigurator" target="_parent">
<polygon fill="#fffcaf" stroke="black" points="385.5,-19 245.5,-19 245.5,0 385.5,0 385.5,-19"/>
<text text-anchor="middle" x="315.5" y="-7" font-family="Helvetica,sans-Serif" font-size="10.00">Ipv4NetworkConfigurator</text>
</a>
</g>
</g>
<!-- ARPTest&#45;&gt;Ipv4NetworkConfigurator -->
<g id="edge4" class="edge">
<title>ARPTest&#45;&gt;Ipv4NetworkConfigurator</title>
<path fill="none" stroke="black" d="M266.82,-54.98C275.31,-47.23 288.06,-35.58 298.38,-26.14"/>
<polygon fill="black" stroke="black" points="300.99,-28.5 306.01,-19.17 296.27,-23.33 300.99,-28.5"/>
</g>
<!-- fiberline -->
<g id="node6" class="node">
<title>fiberline</title>
<g id="a_node6"><a xlink:href="inet.examples.ethernet.arptest.ARPTest.fiberline.html" xlink:title="Channel fiberline" target="_parent">
<polygon fill="#d0ffd0" stroke="black" points="461,-19 404,-19 404,0 461,0 461,-19"/>
<text text-anchor="middle" x="432.5" y="-7" font-family="Helvetica,sans-Serif" font-size="10.00">fiberline</text>
</a>
</g>
</g>
<!-- ARPTest&#45;&gt;fiberline -->
<g id="edge5" class="edge">
<title>ARPTest&#45;&gt;fiberline</title>
<path fill="none" stroke="black" d="M285.62,-54.98C315.12,-46.05 361.69,-31.94 394.47,-22.02"/>
<polygon fill="black" stroke="black" points="395.61,-25.33 404.16,-19.08 393.58,-18.63 395.61,-25.33"/>
</g>
<!-- EthernetSwitch -->
<g id="node7" class="node">
<title>EthernetSwitch</title>
<g id="a_node7"><a xlink:href="inet.node.ethernet.EthernetSwitch.html" xlink:title="Compound Module EthernetSwitch" target="_parent">
<polygon fill="#fffcaf" stroke="black" points="569.5,-19 479.5,-19 479.5,0 569.5,0 569.5,-19"/>
<text text-anchor="middle" x="524.5" y="-7" font-family="Helvetica,sans-Serif" font-size="10.00">EthernetSwitch</text>
</a>
</g>
</g>
<!-- ARPTest&#45;&gt;EthernetSwitch -->
<g id="edge6" class="edge">
<title>ARPTest&#45;&gt;EthernetSwitch</title>
<path fill="none" stroke="black" d="M285.57,-57.93C329.56,-49.2 415.48,-32.14 471.4,-21.04"/>
<polygon fill="black" stroke="black" points="472.35,-24.42 481.48,-19.04 470.99,-17.55 472.35,-24.42"/>
</g>
</g>
</svg>
