<?xml version="1.0" encoding="UTF-8" standalone="no"?>
<!DOCTYPE svg PUBLIC "-//W3C//DTD SVG 1.1//EN"
 "http://www.w3.org/Graphics/SVG/1.1/DTD/svg11.dtd">
<!-- Generated by graphviz version 2.43.0 (0)
 -->
<!-- Title: opp Pages: 1 -->
<svg width="643pt" height="82pt"
 viewBox="0.00 0.00 642.50 82.00" xmlns="http://www.w3.org/2000/svg" xmlns:xlink="http://www.w3.org/1999/xlink">
<g id="graph0" class="graph" transform="scale(1 1) rotate(0) translate(4 78)">
<title>opp</title>
<polygon fill="transparent" stroke="transparent" points="-4,4 -4,-78 638.5,-78 638.5,4 -4,4"/>
<!-- NClients -->
<g id="node1" class="node">
<title>NClients</title>
<g id="a_node1"><a xlink:href="inet.examples.inet.shutdownrestart.NClients.html" xlink:title="Network NClients" target="_parent">
<polygon fill="#9090ff" stroke="black" points="333.5,-74 275.5,-74 275.5,-55 333.5,-55 333.5,-74"/>
<text text-anchor="middle" x="304.5" y="-62" font-family="Helvetica,sans-Serif" font-size="10.00">NClients</text>
</a>
</g>
</g>
<!-- ScenarioManager -->
<g id="node2" class="node">
<title>ScenarioManager</title>
<g id="a_node2"><a xlink:href="inet.common.scenario.ScenarioManager.html" xlink:title="Simple Module ScenarioManager" target="_parent">
<polygon fill="#fffcaf" stroke="black" points="101,-19 0,-19 0,0 101,0 101,-19"/>
<text text-anchor="middle" x="50.5" y="-7" font-family="Helvetica,sans-Serif" font-size="10.00">ScenarioManager</text>
</a>
</g>
</g>
<!-- NClients&#45;&gt;ScenarioManager -->
<g id="edge1" class="edge">
<title>NClients&#45;&gt;ScenarioManager</title>
<path fill="none" stroke="black" d="M275.36,-57.42C232.97,-48.57 153.67,-32.03 101.48,-21.14"/>
<polygon fill="black" stroke="black" points="101.92,-17.65 91.42,-19.04 100.49,-24.51 101.92,-17.65"/>
</g>
<!-- StandardHost -->
<g id="node3" class="node">
<title>StandardHost</title>
<g id="a_node3"><a xlink:href="inet.node.inet.StandardHost.html" xlink:title="Compound Module StandardHost" target="_parent">
<polygon fill="#fffcaf" stroke="black" points="202,-19 119,-19 119,0 202,0 202,-19"/>
<text text-anchor="middle" x="160.5" y="-7" font-family="Helvetica,sans-Serif" font-size="10.00">StandardHost</text>
</a>
</g>
</g>
<!-- NClients&#45;&gt;StandardHost -->
<g id="edge2" class="edge">
<title>NClients&#45;&gt;StandardHost</title>
<path fill="none" stroke="black" d="M281.36,-54.98C257.68,-46.27 220.63,-32.63 193.79,-22.75"/>
<polygon fill="black" stroke="black" points="194.65,-19.34 184.06,-19.17 192.23,-25.91 194.65,-19.34"/>
</g>
<!-- Router -->
<g id="node4" class="node">
<title>Router</title>
<g id="a_node4"><a xlink:href="inet.node.inet.Router.html" xlink:title="Compound Module Router" target="_parent">
<polygon fill="#fffcaf" stroke="black" points="274.5,-19 220.5,-19 220.5,0 274.5,0 274.5,-19"/>
<text text-anchor="middle" x="247.5" y="-7" font-family="Helvetica,sans-Serif" font-size="10.00">Router</text>
</a>
</g>
</g>
<!-- NClients&#45;&gt;Router -->
<g id="edge3" class="edge">
<title>NClients&#45;&gt;Router</title>
<path fill="none" stroke="black" d="M295.34,-54.98C287,-47.23 274.47,-35.58 264.32,-26.14"/>
<polygon fill="black" stroke="black" points="266.53,-23.42 256.82,-19.17 261.76,-28.54 266.53,-23.42"/>
</g>
<!-- Ipv4NetworkConfigurator -->
<g id="node5" class="node">
<title>Ipv4NetworkConfigurator</title>
<g id="a_node5"><a xlink:href="inet.networklayer.configurator.ipv4.Ipv4NetworkConfigurator.html" xlink:title="Simple Module Ipv4NetworkConfigurator" target="_parent">
<polygon fill="#fffcaf" stroke="black" points="432.5,-19 292.5,-19 292.5,0 432.5,0 432.5,-19"/>
<text text-anchor="middle" x="362.5" y="-7" font-family="Helvetica,sans-Serif" font-size="10.00">Ipv4NetworkConfigurator</text>
</a>
</g>
</g>
<!-- NClients&#45;&gt;Ipv4NetworkConfigurator -->
<g id="edge4" class="edge">
<title>NClients&#45;&gt;Ipv4NetworkConfigurator</title>
<path fill="none" stroke="black" d="M313.82,-54.98C322.31,-47.23 335.06,-35.58 345.38,-26.14"/>
<polygon fill="black" stroke="black" points="347.99,-28.5 353.01,-19.17 343.27,-23.33 347.99,-28.5"/>
</g>
<!-- ethernetline -->
<g id="node6" class="node">
<title>ethernetline</title>
<g id="a_node6"><a xlink:href="inet.examples.inet.shutdownrestart.NClients.ethernetline.html" xlink:title="Channel ethernetline" target="_parent">
<polygon fill="#d0ffd0" stroke="black" points="526.5,-19 450.5,-19 450.5,0 526.5,0 526.5,-19"/>
<text text-anchor="middle" x="488.5" y="-7" font-family="Helvetica,sans-Serif" font-size="10.00">ethernetline</text>
</a>
</g>
</g>
<!-- NClients&#45;&gt;ethernetline -->
<g id="edge5" class="edge">
<title>NClients&#45;&gt;ethernetline</title>
<path fill="none" stroke="black" d="M333.66,-55.1C364.83,-46.12 414.44,-31.83 449.08,-21.85"/>
<polygon fill="black" stroke="black" points="450.23,-25.17 458.87,-19.03 448.29,-18.44 450.23,-25.17"/>
</g>
<!-- EthernetSwitch -->
<g id="node7" class="node">
<title>EthernetSwitch</title>
<g id="a_node7"><a xlink:href="inet.node.ethernet.EthernetSwitch.html" xlink:title="Compound Module EthernetSwitch" target="_parent">
<polygon fill="#fffcaf" stroke="black" points="634.5,-19 544.5,-19 544.5,0 634.5,0 634.5,-19"/>
<text text-anchor="middle" x="589.5" y="-7" font-family="Helvetica,sans-Serif" font-size="10.00">EthernetSwitch</text>
</a>
</g>
</g>
<!-- NClients&#45;&gt;EthernetSwitch -->
<g id="edge6" class="edge">
<title>NClients&#45;&gt;EthernetSwitch</title>
<path fill="none" stroke="black" d="M333.66,-58.08C380.73,-49.32 474.24,-31.93 534.23,-20.78"/>
<polygon fill="black" stroke="black" points="535.1,-24.18 544.29,-18.91 533.82,-17.3 535.1,-24.18"/>
</g>
</g>
</svg>
