<?xml version="1.0" encoding="UTF-8" standalone="no"?>
<!DOCTYPE svg PUBLIC "-//W3C//DTD SVG 1.1//EN"
 "http://www.w3.org/Graphics/SVG/1.1/DTD/svg11.dtd">
<!-- Generated by graphviz version 2.43.0 (0)
 -->
<!-- Title: opp Pages: 1 -->
<svg width="3489pt" height="82pt"
 viewBox="0.00 0.00 3488.50 82.00" xmlns="http://www.w3.org/2000/svg" xmlns:xlink="http://www.w3.org/1999/xlink">
<g id="graph0" class="graph" transform="scale(1 1) rotate(0) translate(4 78)">
<title>opp</title>
<polygon fill="transparent" stroke="transparent" points="-4,4 -4,-78 3484.5,-78 3484.5,4 -4,4"/>
<!-- PacketProcessorBase -->
<g id="node1" class="node">
<title>PacketProcessorBase</title>
<g id="a_node1"><a xlink:href="inet.queueing.base.PacketProcessorBase.html" xlink:title="Simple Module PacketProcessorBase" target="_parent">
<polygon fill="#fff700" stroke="black" points="1767,-74 1647,-74 1647,-55 1767,-55 1767,-74"/>
<text text-anchor="middle" x="1707" y="-62" font-family="Helvetica,sans-Serif" font-size="10.00">PacketProcessorBase</text>
</a>
</g>
</g>
<!-- DscpMarker -->
<g id="node2" class="node">
<title>DscpMarker</title>
<g id="a_node2"><a xlink:href="inet.networklayer.diffserv.DscpMarker.html" xlink:title="Simple Module DscpMarker" target="_parent">
<polygon fill="#fffcaf" stroke="black" points="74,-19 0,-19 0,0 74,0 74,-19"/>
<text text-anchor="middle" x="37" y="-7" font-family="Helvetica,sans-Serif" font-size="10.00">DscpMarker</text>
</a>
</g>
</g>
<!-- PacketProcessorBase&#45;&gt;DscpMarker -->
<g id="edge1" class="edge">
<title>PacketProcessorBase&#45;&gt;DscpMarker</title>
<path fill="none" stroke="black" d="M1646.88,-63.1C1391.45,-61.23 395.05,-51.9 83,-19 80.09,-18.69 77.09,-18.3 74.08,-17.86"/>
</g>
<!-- EmptyPacketSource -->
<g id="node3" class="node">
<title>EmptyPacketSource</title>
<g id="a_node3"><a xlink:href="inet.queueing.source.EmptyPacketSource.html" xlink:title="Simple Module EmptyPacketSource" target="_parent">
<polygon fill="#fffcaf" stroke="black" points="205.5,-19 92.5,-19 92.5,0 205.5,0 205.5,-19"/>
<text text-anchor="middle" x="149" y="-7" font-family="Helvetica,sans-Serif" font-size="10.00">EmptyPacketSource</text>
</a>
</g>
</g>
<!-- PacketProcessorBase&#45;&gt;EmptyPacketSource -->
<g id="edge2" class="edge">
<title>PacketProcessorBase&#45;&gt;EmptyPacketSource</title>
<path fill="none" stroke="black" d="M1646.84,-63.82C1444.49,-64.46 770.1,-62.92 215,-19 212.01,-18.76 208.94,-18.49 205.84,-18.18"/>
</g>
<!-- InterpacketGapInserter -->
<g id="node4" class="node">
<title>InterpacketGapInserter</title>
<g id="a_node4"><a xlink:href="inet.protocolelement.common.InterpacketGapInserter.html" xlink:title="Simple Module InterpacketGapInserter" target="_parent">
<polygon fill="#fffcaf" stroke="black" points="352,-19 224,-19 224,0 352,0 352,-19"/>
<text text-anchor="middle" x="288" y="-7" font-family="Helvetica,sans-Serif" font-size="10.00">InterpacketGapInserter</text>
</a>
</g>
</g>
<!-- PacketProcessorBase&#45;&gt;InterpacketGapInserter -->
<g id="edge3" class="edge">
<title>PacketProcessorBase&#45;&gt;InterpacketGapInserter</title>
<path fill="none" stroke="black" d="M1646.87,-63.29C1457.52,-62.23 856.76,-55.99 361,-19 358.07,-18.78 355.08,-18.53 352.07,-18.26"/>
</g>
<!-- MessageDispatcher -->
<g id="node5" class="node">
<title>MessageDispatcher</title>
<g id="a_node5"><a xlink:href="inet.common.MessageDispatcher.html" xlink:title="Simple Module MessageDispatcher" target="_parent">
<polygon fill="#fffcaf" stroke="black" points="483.5,-19 370.5,-19 370.5,0 483.5,0 483.5,-19"/>
<text text-anchor="middle" x="427" y="-7" font-family="Helvetica,sans-Serif" font-size="10.00">MessageDispatcher</text>
</a>
</g>
</g>
<!-- PacketProcessorBase&#45;&gt;MessageDispatcher -->
<g id="edge4" class="edge">
<title>PacketProcessorBase&#45;&gt;MessageDispatcher</title>
<path fill="none" stroke="black" d="M1646.83,-63.28C1469.61,-62.22 934.25,-55.93 492,-19 489.28,-18.77 486.5,-18.51 483.69,-18.23"/>
</g>
<!-- PacketBufferBase -->
<g id="node6" class="node">
<title>PacketBufferBase</title>
<g id="a_node6"><a xlink:href="inet.queueing.base.PacketBufferBase.html" xlink:title="Simple Module PacketBufferBase" target="_parent">
<polygon fill="#fffcaf" stroke="black" points="604.5,-19 501.5,-19 501.5,0 604.5,0 604.5,-19"/>
<text text-anchor="middle" x="553" y="-7" font-family="Helvetica,sans-Serif" font-size="10.00">PacketBufferBase</text>
</a>
</g>
</g>
<!-- PacketProcessorBase&#45;&gt;PacketBufferBase -->
<g id="edge5" class="edge">
<title>PacketProcessorBase&#45;&gt;PacketBufferBase</title>
<path fill="none" stroke="black" d="M1646.97,-63.17C1481.73,-61.79 1006.28,-54.77 613,-19 610.28,-18.75 607.49,-18.47 604.67,-18.15"/>
</g>
<!-- PacketClassifierBase -->
<g id="node7" class="node">
<title>PacketClassifierBase</title>
<g id="a_node7"><a xlink:href="inet.queueing.base.PacketClassifierBase.html" xlink:title="Simple Module PacketClassifierBase" target="_parent">
<polygon fill="#fffcaf" stroke="black" points="741.5,-19 622.5,-19 622.5,0 741.5,0 741.5,-19"/>
<text text-anchor="middle" x="682" y="-7" font-family="Helvetica,sans-Serif" font-size="10.00">PacketClassifierBase</text>
</a>
</g>
</g>
<!-- PacketProcessorBase&#45;&gt;PacketClassifierBase -->
<g id="edge6" class="edge">
<title>PacketProcessorBase&#45;&gt;PacketClassifierBase</title>
<path fill="none" stroke="black" d="M1646.77,-62.29C1495.77,-58.9 1088.95,-47.64 751,-19 747.99,-18.75 744.92,-18.46 741.81,-18.15"/>
</g>
<!-- PacketCloner -->
<g id="node8" class="node">
<title>PacketCloner</title>
<g id="a_node8"><a xlink:href="inet.queueing.common.PacketCloner.html" xlink:title="Simple Module PacketCloner" target="_parent">
<polygon fill="#fffcaf" stroke="black" points="840,-19 760,-19 760,0 840,0 840,-19"/>
<text text-anchor="middle" x="800" y="-7" font-family="Helvetica,sans-Serif" font-size="10.00">PacketCloner</text>
</a>
</g>
</g>
<!-- PacketProcessorBase&#45;&gt;PacketCloner -->
<g id="edge7" class="edge">
<title>PacketProcessorBase&#45;&gt;PacketCloner</title>
<path fill="none" stroke="black" d="M1646.99,-62.86C1506.84,-60.82 1147.31,-52.49 849,-19 846.08,-18.67 843.08,-18.28 840.06,-17.85"/>
</g>
<!-- PacketDelayer -->
<g id="node9" class="node">
<title>PacketDelayer</title>
<g id="a_node9"><a xlink:href="inet.queueing.common.PacketDelayer.html" xlink:title="Simple Module PacketDelayer" target="_parent">
<polygon fill="#fffcaf" stroke="black" points="945.5,-19 858.5,-19 858.5,0 945.5,0 945.5,-19"/>
<text text-anchor="middle" x="902" y="-7" font-family="Helvetica,sans-Serif" font-size="10.00">PacketDelayer</text>
</a>
</g>
</g>
<!-- PacketProcessorBase&#45;&gt;PacketDelayer -->
<g id="edge8" class="edge">
<title>PacketProcessorBase&#45;&gt;PacketDelayer</title>
<path fill="none" stroke="black" d="M1646.79,-62.05C1518.88,-58.5 1210.74,-47.49 954,-19 951.27,-18.7 948.47,-18.35 945.65,-17.97"/>
</g>
<!-- PacketDemultiplexer -->
<g id="node10" class="node">
<title>PacketDemultiplexer</title>
<g id="a_node10"><a xlink:href="inet.queueing.common.PacketDemultiplexer.html" xlink:title="Simple Module PacketDemultiplexer" target="_parent">
<polygon fill="#fffcaf" stroke="black" points="1082.5,-19 963.5,-19 963.5,0 1082.5,0 1082.5,-19"/>
<text text-anchor="middle" x="1023" y="-7" font-family="Helvetica,sans-Serif" font-size="10.00">PacketDemultiplexer</text>
</a>
</g>
</g>
<!-- PacketProcessorBase&#45;&gt;PacketDemultiplexer -->
<g id="edge9" class="edge">
<title>PacketProcessorBase&#45;&gt;PacketDemultiplexer</title>
<path fill="none" stroke="black" d="M1646.58,-60.19C1536.13,-53.89 1294.28,-39.03 1091,-19 1088.28,-18.73 1085.49,-18.44 1082.68,-18.14"/>
</g>
<!-- PacketDestreamer -->
<g id="node11" class="node">
<title>PacketDestreamer</title>
<g id="a_node11"><a xlink:href="inet.protocolelement.common.PacketDestreamer.html" xlink:title="Simple Module PacketDestreamer" target="_parent">
<polygon fill="#fffcaf" stroke="black" points="1207.5,-19 1100.5,-19 1100.5,0 1207.5,0 1207.5,-19"/>
<text text-anchor="middle" x="1154" y="-7" font-family="Helvetica,sans-Serif" font-size="10.00">PacketDestreamer</text>
</a>
</g>
</g>
<!-- PacketProcessorBase&#45;&gt;PacketDestreamer -->
<g id="edge10" class="edge">
<title>PacketProcessorBase&#45;&gt;PacketDestreamer</title>
<path fill="none" stroke="black" d="M1646.82,-58.94C1554.15,-51.72 1370.99,-36.64 1216,-19 1213.3,-18.69 1210.54,-18.36 1207.75,-18.02"/>
</g>
<!-- PacketDuplicatorBase -->
<g id="node12" class="node">
<title>PacketDuplicatorBase</title>
<g id="a_node12"><a xlink:href="inet.queueing.base.PacketDuplicatorBase.html" xlink:title="Simple Module PacketDuplicatorBase" target="_parent">
<polygon fill="#fffcaf" stroke="black" points="1348.5,-19 1225.5,-19 1225.5,0 1348.5,0 1348.5,-19"/>
<text text-anchor="middle" x="1287" y="-7" font-family="Helvetica,sans-Serif" font-size="10.00">PacketDuplicatorBase</text>
</a>
</g>
</g>
<!-- PacketProcessorBase&#45;&gt;PacketDuplicatorBase -->
<g id="edge11" class="edge">
<title>PacketProcessorBase&#45;&gt;PacketDuplicatorBase</title>
<path fill="none" stroke="black" d="M1646.82,-55.91C1567.55,-45.9 1428.84,-28.4 1348.77,-18.3"/>
</g>
<!-- PacketFilterBase -->
<g id="node13" class="node">
<title>PacketFilterBase</title>
<g id="a_node13"><a xlink:href="inet.queueing.base.PacketFilterBase.html" xlink:title="Simple Module PacketFilterBase" target="_parent">
<polygon fill="#fffcaf" stroke="black" points="1463.5,-19 1366.5,-19 1366.5,0 1463.5,0 1463.5,-19"/>
<text text-anchor="middle" x="1415" y="-7" font-family="Helvetica,sans-Serif" font-size="10.00">PacketFilterBase</text>
</a>
</g>
</g>
<!-- PacketProcessorBase&#45;&gt;PacketFilterBase -->
<g id="edge12" class="edge">
<title>PacketProcessorBase&#45;&gt;PacketFilterBase</title>
<path fill="none" stroke="black" d="M1660.09,-54.98C1605.76,-45.12 1516.77,-28.97 1462.28,-19.08"/>
</g>
<!-- PacketFlowBase -->
<g id="node14" class="node">
<title>PacketFlowBase</title>
<g id="a_node14"><a xlink:href="inet.queueing.base.PacketFlowBase.html" xlink:title="Simple Module PacketFlowBase" target="_parent">
<polygon fill="#fffcaf" stroke="black" points="1578,-19 1482,-19 1482,0 1578,0 1578,-19"/>
<text text-anchor="middle" x="1530" y="-7" font-family="Helvetica,sans-Serif" font-size="10.00">PacketFlowBase</text>
</a>
</g>
</g>
<!-- PacketProcessorBase&#45;&gt;PacketFlowBase -->
<g id="edge13" class="edge">
<title>PacketProcessorBase&#45;&gt;PacketFlowBase</title>
<path fill="none" stroke="black" d="M1678.56,-54.98C1645.63,-45.12 1591.69,-28.97 1558.66,-19.08"/>
</g>
<!-- PacketMeterBase -->
<g id="node15" class="node">
<title>PacketMeterBase</title>
<g id="a_node15"><a xlink:href="inet.networklayer.diffserv.PacketMeterBase.html" xlink:title="Simple Module PacketMeterBase" target="_parent">
<polygon fill="#fffcaf" stroke="black" points="1697.5,-19 1596.5,-19 1596.5,0 1697.5,0 1697.5,-19"/>
<text text-anchor="middle" x="1647" y="-7" font-family="Helvetica,sans-Serif" font-size="10.00">PacketMeterBase</text>
</a>
</g>
</g>
<!-- PacketProcessorBase&#45;&gt;PacketMeterBase -->
<g id="edge14" class="edge">
<title>PacketProcessorBase&#45;&gt;PacketMeterBase</title>
<path fill="none" stroke="black" d="M1697.36,-54.98C1686.23,-45.15 1668.02,-29.07 1656.82,-19.17"/>
</g>
<!-- PacketMultiplexer -->
<g id="node16" class="node">
<title>PacketMultiplexer</title>
<g id="a_node16"><a xlink:href="inet.queueing.common.PacketMultiplexer.html" xlink:title="Simple Module PacketMultiplexer" target="_parent">
<polygon fill="#fffcaf" stroke="black" points="1820,-19 1716,-19 1716,0 1820,0 1820,-19"/>
<text text-anchor="middle" x="1768" y="-7" font-family="Helvetica,sans-Serif" font-size="10.00">PacketMultiplexer</text>
</a>
</g>
</g>
<!-- PacketProcessorBase&#45;&gt;PacketMultiplexer -->
<g id="edge15" class="edge">
<title>PacketProcessorBase&#45;&gt;PacketMultiplexer</title>
<path fill="none" stroke="black" d="M1716.8,-54.98C1728.12,-45.15 1746.63,-29.07 1758.02,-19.17"/>
</g>
<!-- PacketPullerBase -->
<g id="node17" class="node">
<title>PacketPullerBase</title>
<g id="a_node17"><a xlink:href="inet.queueing.base.PacketPullerBase.html" xlink:title="Simple Module PacketPullerBase" target="_parent">
<polygon fill="#fffcaf" stroke="black" points="1939.5,-19 1838.5,-19 1838.5,0 1939.5,0 1939.5,-19"/>
<text text-anchor="middle" x="1889" y="-7" font-family="Helvetica,sans-Serif" font-size="10.00">PacketPullerBase</text>
</a>
</g>
</g>
<!-- PacketProcessorBase&#45;&gt;PacketPullerBase -->
<g id="edge16" class="edge">
<title>PacketProcessorBase&#45;&gt;PacketPullerBase</title>
<path fill="none" stroke="black" d="M1736.24,-54.98C1770.1,-45.12 1825.57,-28.97 1859.53,-19.08"/>
</g>
<!-- PacketPusherBase -->
<g id="node18" class="node">
<title>PacketPusherBase</title>
<g id="a_node18"><a xlink:href="inet.queueing.base.PacketPusherBase.html" xlink:title="Simple Module PacketPusherBase" target="_parent">
<polygon fill="#fffcaf" stroke="black" points="2064,-19 1958,-19 1958,0 2064,0 2064,-19"/>
<text text-anchor="middle" x="2011" y="-7" font-family="Helvetica,sans-Serif" font-size="10.00">PacketPusherBase</text>
</a>
</g>
</g>
<!-- PacketProcessorBase&#45;&gt;PacketPusherBase -->
<g id="edge17" class="edge">
<title>PacketProcessorBase&#45;&gt;PacketPusherBase</title>
<path fill="none" stroke="black" d="M1755.84,-54.98C1812.49,-45.11 1905.33,-28.92 1962.03,-19.04"/>
</g>
<!-- PacketQueueBase -->
<g id="node19" class="node">
<title>PacketQueueBase</title>
<g id="a_node19"><a xlink:href="inet.queueing.base.PacketQueueBase.html" xlink:title="Simple Module PacketQueueBase" target="_parent">
<polygon fill="#fffcaf" stroke="black" points="2186,-19 2082,-19 2082,0 2186,0 2186,-19"/>
<text text-anchor="middle" x="2134" y="-7" font-family="Helvetica,sans-Serif" font-size="10.00">PacketQueueBase</text>
</a>
</g>
</g>
<!-- PacketProcessorBase&#45;&gt;PacketQueueBase -->
<g id="edge18" class="edge">
<title>PacketProcessorBase&#45;&gt;PacketQueueBase</title>
<path fill="none" stroke="black" d="M1767.27,-56.5C1839.85,-47.99 1965.42,-33.03 2073,-19 2075.86,-18.63 2078.8,-18.24 2081.76,-17.84"/>
</g>
<!-- PacketReceiverBase -->
<g id="node20" class="node">
<title>PacketReceiverBase</title>
<g id="a_node20"><a xlink:href="inet.protocolelement.transceiver.base.PacketReceiverBase.html" xlink:title="Simple Module PacketReceiverBase" target="_parent">
<polygon fill="#fffcaf" stroke="black" points="2320,-19 2204,-19 2204,0 2320,0 2320,-19"/>
<text text-anchor="middle" x="2262" y="-7" font-family="Helvetica,sans-Serif" font-size="10.00">PacketReceiverBase</text>
</a>
</g>
</g>
<!-- PacketProcessorBase&#45;&gt;PacketReceiverBase -->
<g id="edge19" class="edge">
<title>PacketProcessorBase&#45;&gt;PacketReceiverBase</title>
<path fill="none" stroke="black" d="M1767.17,-58.7C1859.36,-51.19 2041.08,-35.78 2195,-19 2197.91,-18.68 2200.9,-18.35 2203.91,-18"/>
</g>
<!-- PacketSchedulerBase -->
<g id="node21" class="node">
<title>PacketSchedulerBase</title>
<g id="a_node21"><a xlink:href="inet.queueing.base.PacketSchedulerBase.html" xlink:title="Simple Module PacketSchedulerBase" target="_parent">
<polygon fill="#fffcaf" stroke="black" points="2459.5,-19 2338.5,-19 2338.5,0 2459.5,0 2459.5,-19"/>
<text text-anchor="middle" x="2399" y="-7" font-family="Helvetica,sans-Serif" font-size="10.00">PacketSchedulerBase</text>
</a>
</g>
</g>
<!-- PacketProcessorBase&#45;&gt;PacketSchedulerBase -->
<g id="edge20" class="edge">
<title>PacketProcessorBase&#45;&gt;PacketSchedulerBase</title>
<path fill="none" stroke="black" d="M1767.13,-60.19C1878.24,-53.85 2123.17,-38.85 2329,-19 2332.05,-18.71 2335.17,-18.39 2338.31,-18.06"/>
</g>
<!-- PacketSendToPush -->
<g id="node22" class="node">
<title>PacketSendToPush</title>
<g id="a_node22"><a xlink:href="inet.queueing.common.PacketSendToPush.html" xlink:title="Simple Module PacketSendToPush" target="_parent">
<polygon fill="#fffcaf" stroke="black" points="2584.5,-19 2477.5,-19 2477.5,0 2584.5,0 2584.5,-19"/>
<text text-anchor="middle" x="2531" y="-7" font-family="Helvetica,sans-Serif" font-size="10.00">PacketSendToPush</text>
</a>
</g>
</g>
<!-- PacketProcessorBase&#45;&gt;PacketSendToPush -->
<g id="edge21" class="edge">
<title>PacketProcessorBase&#45;&gt;PacketSendToPush</title>
<path fill="none" stroke="black" d="M1767.38,-61.57C1896.42,-57.1 2208.52,-44.42 2469,-19 2471.7,-18.74 2474.47,-18.44 2477.26,-18.13"/>
</g>
<!-- PacketServerBase -->
<g id="node23" class="node">
<title>PacketServerBase</title>
<g id="a_node23"><a xlink:href="inet.queueing.base.PacketServerBase.html" xlink:title="Simple Module PacketServerBase" target="_parent">
<polygon fill="#fffcaf" stroke="black" points="2707,-19 2603,-19 2603,0 2707,0 2707,-19"/>
<text text-anchor="middle" x="2655" y="-7" font-family="Helvetica,sans-Serif" font-size="10.00">PacketServerBase</text>
</a>
</g>
</g>
<!-- PacketProcessorBase&#45;&gt;PacketServerBase -->
<g id="edge22" class="edge">
<title>PacketProcessorBase&#45;&gt;PacketServerBase</title>
<path fill="none" stroke="black" d="M1767.09,-62.32C1910.46,-59.09 2283.73,-48.34 2594,-19 2596.87,-18.73 2599.82,-18.42 2602.79,-18.08"/>
</g>
<!-- PacketSinkBase -->
<g id="node24" class="node">
<title>PacketSinkBase</title>
<g id="a_node24"><a xlink:href="inet.queueing.base.PacketSinkBase.html" xlink:title="Simple Module PacketSinkBase" target="_parent">
<polygon fill="#fffcaf" stroke="black" points="2819,-19 2725,-19 2725,0 2819,0 2819,-19"/>
<text text-anchor="middle" x="2772" y="-7" font-family="Helvetica,sans-Serif" font-size="10.00">PacketSinkBase</text>
</a>
</g>
</g>
<!-- PacketProcessorBase&#45;&gt;PacketSinkBase -->
<g id="edge23" class="edge">
<title>PacketProcessorBase&#45;&gt;PacketSinkBase</title>
<path fill="none" stroke="black" d="M1767.15,-63.08C1923.8,-61.5 2357.16,-54.05 2716,-19 2718.94,-18.71 2721.95,-18.38 2724.99,-18.01"/>
</g>
<!-- PacketSourceBase -->
<g id="node25" class="node">
<title>PacketSourceBase</title>
<g id="a_node25"><a xlink:href="inet.queueing.base.PacketSourceBase.html" xlink:title="Simple Module PacketSourceBase" target="_parent">
<polygon fill="#fffcaf" stroke="black" points="2943,-19 2837,-19 2837,0 2943,0 2943,-19"/>
<text text-anchor="middle" x="2890" y="-7" font-family="Helvetica,sans-Serif" font-size="10.00">PacketSourceBase</text>
</a>
</g>
</g>
<!-- PacketProcessorBase&#45;&gt;PacketSourceBase -->
<g id="edge24" class="edge">
<title>PacketProcessorBase&#45;&gt;PacketSourceBase</title>
<path fill="none" stroke="black" d="M1767.28,-63.15C1935.46,-61.74 2423.96,-54.63 2828,-19 2830.92,-18.74 2833.92,-18.44 2836.94,-18.12"/>
</g>
<!-- PacketStreamer -->
<g id="node26" class="node">
<title>PacketStreamer</title>
<g id="a_node26"><a xlink:href="inet.protocolelement.common.PacketStreamer.html" xlink:title="Simple Module PacketStreamer" target="_parent">
<polygon fill="#fffcaf" stroke="black" points="3055,-19 2961,-19 2961,0 3055,0 3055,-19"/>
<text text-anchor="middle" x="3008" y="-7" font-family="Helvetica,sans-Serif" font-size="10.00">PacketStreamer</text>
</a>
</g>
</g>
<!-- PacketProcessorBase&#45;&gt;PacketStreamer -->
<g id="edge25" class="edge">
<title>PacketProcessorBase&#45;&gt;PacketStreamer</title>
<path fill="none" stroke="black" d="M1767.08,-63.8C1947.14,-64.16 2497.89,-61.44 2952,-19 2954.94,-18.73 2957.96,-18.4 2960.99,-18.04"/>
</g>
<!-- PacketTransmitterBase -->
<g id="node27" class="node">
<title>PacketTransmitterBase</title>
<g id="a_node27"><a xlink:href="inet.protocolelement.transceiver.base.PacketTransmitterBase.html" xlink:title="Simple Module PacketTransmitterBase" target="_parent">
<polygon fill="#fffcaf" stroke="black" points="3202.5,-19 3073.5,-19 3073.5,0 3202.5,0 3202.5,-19"/>
<text text-anchor="middle" x="3138" y="-7" font-family="Helvetica,sans-Serif" font-size="10.00">PacketTransmitterBase</text>
</a>
</g>
</g>
<!-- PacketProcessorBase&#45;&gt;PacketTransmitterBase -->
<g id="edge26" class="edge">
<title>PacketProcessorBase&#45;&gt;PacketTransmitterBase</title>
<path fill="none" stroke="black" d="M1767.28,-63.28C1957.8,-62.19 2563.87,-55.86 3064,-19 3067.1,-18.77 3070.26,-18.51 3073.46,-18.23"/>
</g>
<!-- PreemptableStreamer -->
<g id="node28" class="node">
<title>PreemptableStreamer</title>
<g id="a_node28"><a xlink:href="inet.protocolelement.common.PreemptableStreamer.html" xlink:title="Simple Module PreemptableStreamer" target="_parent">
<polygon fill="#fffcaf" stroke="black" points="3345,-19 3221,-19 3221,0 3345,0 3345,-19"/>
<text text-anchor="middle" x="3283" y="-7" font-family="Helvetica,sans-Serif" font-size="10.00">PreemptableStreamer</text>
</a>
</g>
</g>
<!-- PacketProcessorBase&#45;&gt;PreemptableStreamer -->
<g id="edge27" class="edge">
<title>PacketProcessorBase&#45;&gt;PreemptableStreamer</title>
<path fill="none" stroke="black" d="M1767.32,-63.65C1970.95,-63.76 2651.55,-60.75 3212,-19 3214.85,-18.79 3217.76,-18.55 3220.69,-18.28"/>
</g>
<!-- TokenGeneratorBase -->
<g id="node29" class="node">
<title>TokenGeneratorBase</title>
<g id="a_node29"><a xlink:href="inet.queueing.base.TokenGeneratorBase.html" xlink:title="Simple Module TokenGeneratorBase" target="_parent">
<polygon fill="#fffcaf" stroke="black" points="3480.5,-19 3363.5,-19 3363.5,0 3480.5,0 3480.5,-19"/>
<text text-anchor="middle" x="3422" y="-7" font-family="Helvetica,sans-Serif" font-size="10.00">TokenGeneratorBase</text>
</a>
</g>
</g>
<!-- PacketProcessorBase&#45;&gt;TokenGeneratorBase -->
<g id="edge28" class="edge">
<title>PacketProcessorBase&#45;&gt;TokenGeneratorBase</title>
<path fill="none" stroke="black" d="M1767.31,-63.99C1982.88,-65.27 2735.42,-65.91 3354,-19 3357.08,-18.77 3360.24,-18.49 3363.43,-18.19"/>
</g>
</g>
</svg>
