<?xml version="1.0" encoding="UTF-8" standalone="no"?>
<!DOCTYPE svg PUBLIC "-//W3C//DTD SVG 1.1//EN"
 "http://www.w3.org/Graphics/SVG/1.1/DTD/svg11.dtd">
<!-- Generated by graphviz version 2.43.0 (0)
 -->
<!-- Title: opp Pages: 1 -->
<svg width="510pt" height="82pt"
 viewBox="0.00 0.00 510.00 82.00" xmlns="http://www.w3.org/2000/svg" xmlns:xlink="http://www.w3.org/1999/xlink">
<g id="graph0" class="graph" transform="scale(1 1) rotate(0) translate(4 78)">
<title>opp</title>
<polygon fill="transparent" stroke="transparent" points="-4,4 -4,-78 506,-78 506,4 -4,4"/>
<!-- EarthCloud -->
<g id="node1" class="node">
<title>EarthCloud</title>
<g id="a_node1"><a xlink:href="inet.examples.internetcloud.earthcloud.EarthCloud.html" xlink:title="Network EarthCloud" target="_parent">
<polygon fill="#9090ff" stroke="black" points="281.5,-74 211.5,-74 211.5,-55 281.5,-55 281.5,-74"/>
<text text-anchor="middle" x="246.5" y="-62" font-family="Helvetica,sans-Serif" font-size="10.00">EarthCloud</text>
</a>
</g>
</g>
<!-- InternetCloud -->
<g id="node2" class="node">
<title>InternetCloud</title>
<g id="a_node2"><a xlink:href="inet.node.internetcloud.InternetCloud.html" xlink:title="Compound Module InternetCloud" target="_parent">
<polygon fill="#fffcaf" stroke="black" points="83,-19 0,-19 0,0 83,0 83,-19"/>
<text text-anchor="middle" x="41.5" y="-7" font-family="Helvetica,sans-Serif" font-size="10.00">InternetCloud</text>
</a>
</g>
</g>
<!-- EarthCloud&#45;&gt;InternetCloud -->
<g id="edge1" class="edge">
<title>EarthCloud&#45;&gt;InternetCloud</title>
<path fill="none" stroke="black" d="M213.56,-54.98C178.55,-45.93 123.03,-31.58 84.57,-21.64"/>
<polygon fill="black" stroke="black" points="85.25,-18.2 74.69,-19.08 83.5,-24.97 85.25,-18.2"/>
</g>
<!-- Ipv4NetworkConfigurator -->
<g id="node3" class="node">
<title>Ipv4NetworkConfigurator</title>
<g id="a_node3"><a xlink:href="inet.networklayer.configurator.ipv4.Ipv4NetworkConfigurator.html" xlink:title="Simple Module Ipv4NetworkConfigurator" target="_parent">
<polygon fill="#fffcaf" stroke="black" points="241.5,-19 101.5,-19 101.5,0 241.5,0 241.5,-19"/>
<text text-anchor="middle" x="171.5" y="-7" font-family="Helvetica,sans-Serif" font-size="10.00">Ipv4NetworkConfigurator</text>
</a>
</g>
</g>
<!-- EarthCloud&#45;&gt;Ipv4NetworkConfigurator -->
<g id="edge2" class="edge">
<title>EarthCloud&#45;&gt;Ipv4NetworkConfigurator</title>
<path fill="none" stroke="black" d="M234.45,-54.98C223.04,-46.92 205.67,-34.65 192.07,-25.03"/>
<polygon fill="black" stroke="black" points="193.96,-22.08 183.77,-19.17 189.92,-27.8 193.96,-22.08"/>
</g>
<!-- SimpleContinentCloud -->
<g id="node4" class="node">
<title>SimpleContinentCloud</title>
<g id="a_node4"><a xlink:href="inet.examples.internetcloud.earthcloud.SimpleContinentCloud.html" xlink:title="Network SimpleContinentCloud" target="_parent">
<polygon fill="#d0d0ff" stroke="black" points="385,-19 260,-19 260,0 385,0 385,-19"/>
<text text-anchor="middle" x="322.5" y="-7" font-family="Helvetica,sans-Serif" font-size="10.00">SimpleContinentCloud</text>
</a>
</g>
</g>
<!-- EarthCloud&#45;&gt;SimpleContinentCloud -->
<g id="edge3" class="edge">
<title>EarthCloud&#45;&gt;SimpleContinentCloud</title>
<path fill="none" stroke="black" d="M258.71,-54.98C270.28,-46.92 287.88,-34.65 301.66,-25.03"/>
<polygon fill="black" stroke="black" points="303.87,-27.76 310.07,-19.17 299.86,-22.02 303.87,-27.76"/>
</g>
<!-- DatarateChannel -->
<g id="node5" class="node">
<title>DatarateChannel</title>
<g id="a_node5"><a xlink:href="ned.DatarateChannel.html" xlink:title="Channel DatarateChannel" target="_parent">
<polygon fill="#d0ffd0" stroke="black" points="502,-19 403,-19 403,0 502,0 502,-19"/>
<text text-anchor="middle" x="452.5" y="-7" font-family="Helvetica,sans-Serif" font-size="10.00">DatarateChannel</text>
</a>
</g>
</g>
<!-- EarthCloud&#45;&gt;DatarateChannel -->
<g id="edge4" class="edge">
<title>EarthCloud&#45;&gt;DatarateChannel</title>
<path fill="none" stroke="black" d="M279.6,-54.98C314.78,-45.93 370.57,-31.58 409.22,-21.64"/>
<polygon fill="black" stroke="black" points="410.33,-24.96 419.14,-19.08 408.59,-18.18 410.33,-24.96"/>
</g>
</g>
</svg>
