<?xml version="1.0" encoding="UTF-8" standalone="no"?>
<!DOCTYPE svg PUBLIC "-//W3C//DTD SVG 1.1//EN"
 "http://www.w3.org/Graphics/SVG/1.1/DTD/svg11.dtd">
<!-- Generated by graphviz version 2.43.0 (0)
 -->
<!-- Title: opp Pages: 1 -->
<svg width="308pt" height="82pt"
 viewBox="0.00 0.00 308.00 82.00" xmlns="http://www.w3.org/2000/svg" xmlns:xlink="http://www.w3.org/1999/xlink">
<g id="graph0" class="graph" transform="scale(1 1) rotate(0) translate(4 78)">
<title>opp</title>
<polygon fill="transparent" stroke="transparent" points="-4,4 -4,-78 304,-78 304,4 -4,4"/>
<!-- Ieee8021qLayer -->
<g id="node1" class="node">
<title>Ieee8021qLayer</title>
<g id="a_node1"><a xlink:href="inet.linklayer.ieee8021q.Ieee8021qLayer.html" xlink:title="Compound Module Ieee8021qLayer" target="_parent">
<polygon fill="#fff700" stroke="black" points="188.5,-74 93.5,-74 93.5,-55 188.5,-55 188.5,-74"/>
<text text-anchor="middle" x="141" y="-62" font-family="Helvetica,sans-Serif" font-size="10.00">Ieee8021qLayer</text>
</a>
</g>
</g>
<!-- IdealChannel -->
<g id="node2" class="node">
<title>IdealChannel</title>
<g id="a_node2"><a xlink:href="ned.IdealChannel.html" xlink:title="Channel IdealChannel" target="_parent">
<polygon fill="#d0ffd0" stroke="black" points="80,-19 0,-19 0,0 80,0 80,-19"/>
<text text-anchor="middle" x="40" y="-7" font-family="Helvetica,sans-Serif" font-size="10.00">IdealChannel</text>
</a>
</g>
</g>
<!-- Ieee8021qLayer&#45;&gt;IdealChannel -->
<g id="edge1" class="edge">
<title>Ieee8021qLayer&#45;&gt;IdealChannel</title>
<path fill="none" stroke="black" d="M124.77,-54.98C108.82,-46.61 84.22,-33.7 65.62,-23.95"/>
<polygon fill="black" stroke="black" points="67,-20.72 56.52,-19.17 63.75,-26.92 67,-20.72"/>
</g>
<!-- IProtocolLayer -->
<g id="node3" class="node">
<title>IProtocolLayer</title>
<g id="a_node3"><a xlink:href="inet.protocolelement.contract.IProtocolLayer.html" xlink:title="Module Interface IProtocolLayer" target="_parent">
<polygon fill="#fffcaf" stroke="black" stroke-dasharray="5,2" points="184,-19 98,-19 98,0 184,0 184,-19"/>
<text text-anchor="middle" x="141" y="-7" font-family="Helvetica,sans-Serif" font-size="10.00">IProtocolLayer</text>
</a>
</g>
</g>
<!-- Ieee8021qLayer&#45;&gt;IProtocolLayer -->
<g id="edge2" class="edge">
<title>Ieee8021qLayer&#45;&gt;IProtocolLayer</title>
<path fill="none" stroke="black" d="M141,-54.75C141,-47.8 141,-37.85 141,-29.13"/>
<polygon fill="black" stroke="black" points="144.5,-29.09 141,-19.09 137.5,-29.09 144.5,-29.09"/>
</g>
<!-- IIeee8021qLayer -->
<g id="node4" class="node">
<title>IIeee8021qLayer</title>
<g id="a_node4"><a xlink:href="inet.linklayer.ieee8021q.IIeee8021qLayer.html" xlink:title="Module Interface IIeee8021qLayer" target="_parent">
<polygon fill="#fffcaf" stroke="black" stroke-dasharray="5,2" points="300,-19 202,-19 202,0 300,0 300,-19"/>
<text text-anchor="middle" x="251" y="-7" font-family="Helvetica,sans-Serif" font-size="10.00">IIeee8021qLayer</text>
</a>
</g>
</g>
<!-- Ieee8021qLayer&#45;&gt;IIeee8021qLayer -->
<g id="edge3" class="edge">
<title>Ieee8021qLayer&#45;&gt;IIeee8021qLayer</title>
<path fill="none" stroke="black" d="M158.67,-54.98C176.29,-46.5 203.58,-33.35 223.93,-23.54"/>
<polygon fill="black" stroke="black" points="225.52,-26.66 233.01,-19.17 222.48,-20.36 225.52,-26.66"/>
</g>
</g>
</svg>
