<?xml version="1.0" encoding="UTF-8" standalone="no"?>
<!DOCTYPE svg PUBLIC "-//W3C//DTD SVG 1.1//EN"
 "http://www.w3.org/Graphics/SVG/1.1/DTD/svg11.dtd">
<!-- Generated by graphviz version 2.43.0 (0)
 -->
<!-- Title: opp Pages: 1 -->
<svg width="476pt" height="82pt"
 viewBox="0.00 0.00 476.00 82.00" xmlns="http://www.w3.org/2000/svg" xmlns:xlink="http://www.w3.org/1999/xlink">
<g id="graph0" class="graph" transform="scale(1 1) rotate(0) translate(4 78)">
<title>opp</title>
<polygon fill="transparent" stroke="transparent" points="-4,4 -4,-78 472,-78 472,4 -4,4"/>
<!-- multi -->
<g id="node1" class="node">
<title>multi</title>
<g id="a_node1"><a xlink:href="inet.examples.sctp.multihomed.multi.html" xlink:title="Network multi" target="_parent">
<polygon fill="#9090ff" stroke="black" points="232.5,-74 178.5,-74 178.5,-55 232.5,-55 232.5,-74"/>
<text text-anchor="middle" x="205.5" y="-62" font-family="Helvetica,sans-Serif" font-size="10.00">multi</text>
</a>
</g>
</g>
<!-- ppp1line -->
<g id="node2" class="node">
<title>ppp1line</title>
<g id="a_node2"><a xlink:href="inet.examples.sctp.multihomed.multi.ppp1line.html" xlink:title="Channel ppp1line" target="_parent">
<polygon fill="#d0ffd0" stroke="black" points="59,-19 0,-19 0,0 59,0 59,-19"/>
<text text-anchor="middle" x="29.5" y="-7" font-family="Helvetica,sans-Serif" font-size="10.00">ppp1line</text>
</a>
</g>
</g>
<!-- multi&#45;&gt;ppp1line -->
<g id="edge1" class="edge">
<title>multi&#45;&gt;ppp1line</title>
<path fill="none" stroke="black" d="M178.39,-55.33C148.76,-46.41 101.08,-32.06 67.68,-22"/>
<polygon fill="black" stroke="black" points="68.4,-18.56 57.81,-19.03 66.38,-25.26 68.4,-18.56"/>
</g>
<!-- StandardHost -->
<g id="node3" class="node">
<title>StandardHost</title>
<g id="a_node3"><a xlink:href="inet.node.inet.StandardHost.html" xlink:title="Compound Module StandardHost" target="_parent">
<polygon fill="#fffcaf" stroke="black" points="160,-19 77,-19 77,0 160,0 160,-19"/>
<text text-anchor="middle" x="118.5" y="-7" font-family="Helvetica,sans-Serif" font-size="10.00">StandardHost</text>
</a>
</g>
</g>
<!-- multi&#45;&gt;StandardHost -->
<g id="edge2" class="edge">
<title>multi&#45;&gt;StandardHost</title>
<path fill="none" stroke="black" d="M191.52,-54.98C178.03,-46.77 157.37,-34.18 141.46,-24.49"/>
<polygon fill="black" stroke="black" points="143.09,-21.38 132.73,-19.17 139.45,-27.36 143.09,-21.38"/>
</g>
<!-- Router -->
<g id="node4" class="node">
<title>Router</title>
<g id="a_node4"><a xlink:href="inet.node.inet.Router.html" xlink:title="Compound Module Router" target="_parent">
<polygon fill="#fffcaf" stroke="black" points="232.5,-19 178.5,-19 178.5,0 232.5,0 232.5,-19"/>
<text text-anchor="middle" x="205.5" y="-7" font-family="Helvetica,sans-Serif" font-size="10.00">Router</text>
</a>
</g>
</g>
<!-- multi&#45;&gt;Router -->
<g id="edge3" class="edge">
<title>multi&#45;&gt;Router</title>
<path fill="none" stroke="black" d="M205.5,-54.75C205.5,-47.8 205.5,-37.85 205.5,-29.13"/>
<polygon fill="black" stroke="black" points="209,-29.09 205.5,-19.09 202,-29.09 209,-29.09"/>
</g>
<!-- Ipv4NetworkConfigurator -->
<g id="node5" class="node">
<title>Ipv4NetworkConfigurator</title>
<g id="a_node5"><a xlink:href="inet.networklayer.configurator.ipv4.Ipv4NetworkConfigurator.html" xlink:title="Simple Module Ipv4NetworkConfigurator" target="_parent">
<polygon fill="#fffcaf" stroke="black" points="390.5,-19 250.5,-19 250.5,0 390.5,0 390.5,-19"/>
<text text-anchor="middle" x="320.5" y="-7" font-family="Helvetica,sans-Serif" font-size="10.00">Ipv4NetworkConfigurator</text>
</a>
</g>
</g>
<!-- multi&#45;&gt;Ipv4NetworkConfigurator -->
<g id="edge4" class="edge">
<title>multi&#45;&gt;Ipv4NetworkConfigurator</title>
<path fill="none" stroke="black" d="M223.98,-54.98C242.48,-46.46 271.18,-33.23 292.48,-23.41"/>
<polygon fill="black" stroke="black" points="294.07,-26.53 301.69,-19.17 291.14,-20.18 294.07,-26.53"/>
</g>
<!-- ppp2line -->
<g id="node6" class="node">
<title>ppp2line</title>
<g id="a_node6"><a xlink:href="inet.examples.sctp.multihomed.multi.ppp2line.html" xlink:title="Channel ppp2line" target="_parent">
<polygon fill="#d0ffd0" stroke="black" points="468,-19 409,-19 409,0 468,0 468,-19"/>
<text text-anchor="middle" x="438.5" y="-7" font-family="Helvetica,sans-Serif" font-size="10.00">ppp2line</text>
</a>
</g>
</g>
<!-- multi&#45;&gt;ppp2line -->
<g id="edge5" class="edge">
<title>multi&#45;&gt;ppp2line</title>
<path fill="none" stroke="black" d="M232.68,-57.32C273.73,-47.98 351.74,-30.24 399.04,-19.48"/>
<polygon fill="black" stroke="black" points="399.95,-22.86 408.93,-17.23 398.4,-16.03 399.95,-22.86"/>
</g>
</g>
</svg>
