<?xml version="1.0" encoding="UTF-8" standalone="no"?>
<!DOCTYPE svg PUBLIC "-//W3C//DTD SVG 1.1//EN"
 "http://www.w3.org/Graphics/SVG/1.1/DTD/svg11.dtd">
<!-- Generated by graphviz version 2.43.0 (0)
 -->
<!-- Title: opp Pages: 1 -->
<svg width="292pt" height="82pt"
 viewBox="0.00 0.00 292.00 82.00" xmlns="http://www.w3.org/2000/svg" xmlns:xlink="http://www.w3.org/1999/xlink">
<g id="graph0" class="graph" transform="scale(1 1) rotate(0) translate(4 78)">
<title>opp</title>
<polygon fill="transparent" stroke="transparent" points="-4,4 -4,-78 288,-78 288,4 -4,4"/>
<!-- Hierarchical -->
<g id="node1" class="node">
<title>Hierarchical</title>
<g id="a_node1"><a xlink:href="inet.examples.inet.hierarchical.Hierarchical.html" xlink:title="Network Hierarchical" target="_parent">
<polygon fill="#9090ff" stroke="black" points="136.5,-74 61.5,-74 61.5,-55 136.5,-55 136.5,-74"/>
<text text-anchor="middle" x="99" y="-62" font-family="Helvetica,sans-Serif" font-size="10.00">Hierarchical</text>
</a>
</g>
</g>
<!-- Area -->
<g id="node2" class="node">
<title>Area</title>
<g id="a_node2"><a xlink:href="inet.examples.inet.hierarchical.Hierarchical.Area.html" xlink:title="Compound Module Area" target="_parent">
<polygon fill="#fffcaf" stroke="black" points="54,-19 0,-19 0,0 54,0 54,-19"/>
<text text-anchor="middle" x="27" y="-7" font-family="Helvetica,sans-Serif" font-size="10.00">Area</text>
</a>
</g>
</g>
<!-- Hierarchical&#45;&gt;Area -->
<g id="edge1" class="edge">
<title>Hierarchical&#45;&gt;Area</title>
<path fill="none" stroke="black" d="M87.43,-54.98C76.58,-47 60.12,-34.88 47.12,-25.31"/>
<polygon fill="black" stroke="black" points="48.91,-22.28 38.78,-19.17 44.76,-27.92 48.91,-22.28"/>
</g>
<!-- Router -->
<g id="node3" class="node">
<title>Router</title>
<g id="a_node3"><a xlink:href="inet.node.inet.Router.html" xlink:title="Compound Module Router" target="_parent">
<polygon fill="#fffcaf" stroke="black" points="126,-19 72,-19 72,0 126,0 126,-19"/>
<text text-anchor="middle" x="99" y="-7" font-family="Helvetica,sans-Serif" font-size="10.00">Router</text>
</a>
</g>
</g>
<!-- Hierarchical&#45;&gt;Router -->
<g id="edge2" class="edge">
<title>Hierarchical&#45;&gt;Router</title>
<path fill="none" stroke="black" d="M99,-54.75C99,-47.8 99,-37.85 99,-29.13"/>
<polygon fill="black" stroke="black" points="102.5,-29.09 99,-19.09 95.5,-29.09 102.5,-29.09"/>
</g>
<!-- Ipv4NetworkConfigurator -->
<g id="node4" class="node">
<title>Ipv4NetworkConfigurator</title>
<g id="a_node4"><a xlink:href="inet.networklayer.configurator.ipv4.Ipv4NetworkConfigurator.html" xlink:title="Simple Module Ipv4NetworkConfigurator" target="_parent">
<polygon fill="#fffcaf" stroke="black" points="284,-19 144,-19 144,0 284,0 284,-19"/>
<text text-anchor="middle" x="214" y="-7" font-family="Helvetica,sans-Serif" font-size="10.00">Ipv4NetworkConfigurator</text>
</a>
</g>
</g>
<!-- Hierarchical&#45;&gt;Ipv4NetworkConfigurator -->
<g id="edge3" class="edge">
<title>Hierarchical&#45;&gt;Ipv4NetworkConfigurator</title>
<path fill="none" stroke="black" d="M117.48,-54.98C135.98,-46.46 164.68,-33.23 185.98,-23.41"/>
<polygon fill="black" stroke="black" points="187.57,-26.53 195.19,-19.17 184.64,-20.18 187.57,-26.53"/>
</g>
</g>
</svg>
