<?xml version="1.0" encoding="UTF-8" standalone="no"?>
<!DOCTYPE svg PUBLIC "-//W3C//DTD SVG 1.1//EN"
 "http://www.w3.org/Graphics/SVG/1.1/DTD/svg11.dtd">
<!-- Generated by graphviz version 2.43.0 (0)
 -->
<!-- Title: opp Pages: 1 -->
<svg width="327pt" height="82pt"
 viewBox="0.00 0.00 327.00 82.00" xmlns="http://www.w3.org/2000/svg" xmlns:xlink="http://www.w3.org/1999/xlink">
<g id="graph0" class="graph" transform="scale(1 1) rotate(0) translate(4 78)">
<title>opp</title>
<polygon fill="transparent" stroke="transparent" points="-4,4 -4,-78 323,-78 323,4 -4,4"/>
<!-- HiddenNode -->
<g id="node1" class="node">
<title>HiddenNode</title>
<g id="a_node1"><a xlink:href="inet.examples.wireless.hiddennode.HiddenNode.html" xlink:title="Network HiddenNode" target="_parent">
<polygon fill="#9090ff" stroke="black" points="147,-74 70,-74 70,-55 147,-55 147,-74"/>
<text text-anchor="middle" x="108.5" y="-62" font-family="Helvetica,sans-Serif" font-size="10.00">HiddenNode</text>
</a>
</g>
</g>
<!-- SinkNode -->
<g id="node2" class="node">
<title>SinkNode</title>
<g id="a_node2"><a xlink:href="inet.examples.wireless.hiddennode.SinkNode.html" xlink:title="Compound Module SinkNode" target="_parent">
<polygon fill="#fffcaf" stroke="black" points="63,-19 0,-19 0,0 63,0 63,-19"/>
<text text-anchor="middle" x="31.5" y="-7" font-family="Helvetica,sans-Serif" font-size="10.00">SinkNode</text>
</a>
</g>
</g>
<!-- HiddenNode&#45;&gt;SinkNode -->
<g id="edge1" class="edge">
<title>HiddenNode&#45;&gt;SinkNode</title>
<path fill="none" stroke="black" d="M96.13,-54.98C84.41,-46.92 66.58,-34.65 52.61,-25.03"/>
<polygon fill="black" stroke="black" points="54.32,-21.96 44.1,-19.17 50.35,-27.72 54.32,-21.96"/>
</g>
<!-- Node -->
<g id="node3" class="node">
<title>Node</title>
<g id="a_node3"><a xlink:href="inet.examples.wireless.hiddennode.Node.html" xlink:title="Compound Module Node" target="_parent">
<polygon fill="#fffcaf" stroke="black" points="135.5,-19 81.5,-19 81.5,0 135.5,0 135.5,-19"/>
<text text-anchor="middle" x="108.5" y="-7" font-family="Helvetica,sans-Serif" font-size="10.00">Node</text>
</a>
</g>
</g>
<!-- HiddenNode&#45;&gt;Node -->
<g id="edge2" class="edge">
<title>HiddenNode&#45;&gt;Node</title>
<path fill="none" stroke="black" d="M108.5,-54.75C108.5,-47.8 108.5,-37.85 108.5,-29.13"/>
<polygon fill="black" stroke="black" points="112,-29.09 108.5,-19.09 105,-29.09 112,-29.09"/>
</g>
<!-- Ieee80211ScalarRadioMedium -->
<g id="node4" class="node">
<title>Ieee80211ScalarRadioMedium</title>
<g id="a_node4"><a xlink:href="inet.physicallayer.wireless.ieee80211.packetlevel.Ieee80211ScalarRadioMedium.html" xlink:title="Compound Module Ieee80211ScalarRadioMedium" target="_parent">
<polygon fill="#fffcaf" stroke="black" points="319,-19 154,-19 154,0 319,0 319,-19"/>
<text text-anchor="middle" x="236.5" y="-7" font-family="Helvetica,sans-Serif" font-size="10.00">Ieee80211ScalarRadioMedium</text>
</a>
</g>
</g>
<!-- HiddenNode&#45;&gt;Ieee80211ScalarRadioMedium -->
<g id="edge3" class="edge">
<title>HiddenNode&#45;&gt;Ieee80211ScalarRadioMedium</title>
<path fill="none" stroke="black" d="M129.07,-54.98C149.93,-46.34 182.47,-32.87 206.27,-23.02"/>
<polygon fill="black" stroke="black" points="207.66,-26.23 215.56,-19.17 204.98,-19.76 207.66,-26.23"/>
</g>
</g>
</svg>
