<?xml version="1.0" encoding="UTF-8" standalone="no"?>
<!DOCTYPE svg PUBLIC "-//W3C//DTD SVG 1.1//EN"
 "http://www.w3.org/Graphics/SVG/1.1/DTD/svg11.dtd">
<!-- Generated by graphviz version 2.43.0 (0)
 -->
<!-- Title: opp Pages: 1 -->
<svg width="357pt" height="137pt"
 viewBox="0.00 0.00 356.50 137.00" xmlns="http://www.w3.org/2000/svg" xmlns:xlink="http://www.w3.org/1999/xlink">
<g id="graph0" class="graph" transform="scale(1 1) rotate(0) translate(4 133)">
<title>opp</title>
<polygon fill="transparent" stroke="transparent" points="-4,4 -4,-133 352.5,-133 352.5,4 -4,4"/>
<!-- Edca -->
<g id="node1" class="node">
<title>Edca</title>
<g id="a_node1"><a xlink:href="inet.linklayer.ieee80211.mac.channelaccess.Edca.html" xlink:title="Compound Module Edca" target="_parent">
<polygon fill="#fff700" stroke="black" points="182,-74 128,-74 128,-55 182,-55 182,-74"/>
<text text-anchor="middle" x="155" y="-62" font-family="Helvetica,sans-Serif" font-size="10.00">Edca</text>
</a>
</g>
</g>
<!-- ICollisionController -->
<g id="node2" class="node">
<title>ICollisionController</title>
<g id="a_node2"><a xlink:href="inet.linklayer.ieee80211.mac.contract.ICollisionController.html" xlink:title="Module Interface ICollisionController" target="_parent">
<polygon fill="#fffcaf" stroke="black" stroke-dasharray="5,2" points="110,-19 0,-19 0,0 110,0 110,-19"/>
<text text-anchor="middle" x="55" y="-7" font-family="Helvetica,sans-Serif" font-size="10.00">ICollisionController</text>
</a>
</g>
</g>
<!-- Edca&#45;&gt;ICollisionController -->
<g id="edge1" class="edge">
<title>Edca&#45;&gt;ICollisionController</title>
<path fill="none" stroke="black" d="M138.93,-54.98C123.14,-46.61 98.78,-33.7 80.37,-23.95"/>
<polygon fill="black" stroke="black" points="81.83,-20.76 71.36,-19.17 78.56,-26.95 81.83,-20.76"/>
</g>
<!-- Edcaf -->
<g id="node3" class="node">
<title>Edcaf</title>
<g id="a_node3"><a xlink:href="inet.linklayer.ieee80211.mac.channelaccess.Edcaf.html" xlink:title="Compound Module Edcaf" target="_parent">
<polygon fill="#fffcaf" stroke="black" points="182,-19 128,-19 128,0 182,0 182,-19"/>
<text text-anchor="middle" x="155" y="-7" font-family="Helvetica,sans-Serif" font-size="10.00">Edcaf</text>
</a>
</g>
</g>
<!-- Edca&#45;&gt;Edcaf -->
<g id="edge2" class="edge">
<title>Edca&#45;&gt;Edcaf</title>
<path fill="none" stroke="black" d="M155,-54.75C155,-47.8 155,-37.85 155,-29.13"/>
<polygon fill="black" stroke="black" points="158.5,-29.09 155,-19.09 151.5,-29.09 158.5,-29.09"/>
</g>
<!-- NonQosRecoveryProcedure -->
<g id="node4" class="node">
<title>NonQosRecoveryProcedure</title>
<g id="a_node4"><a xlink:href="inet.linklayer.ieee80211.mac.originator.NonQosRecoveryProcedure.html" xlink:title="Simple Module NonQosRecoveryProcedure" target="_parent">
<polygon fill="#fffcaf" stroke="black" points="348.5,-19 199.5,-19 199.5,0 348.5,0 348.5,-19"/>
<text text-anchor="middle" x="274" y="-7" font-family="Helvetica,sans-Serif" font-size="10.00">NonQosRecoveryProcedure</text>
</a>
</g>
</g>
<!-- Edca&#45;&gt;NonQosRecoveryProcedure -->
<g id="edge3" class="edge">
<title>Edca&#45;&gt;NonQosRecoveryProcedure</title>
<path fill="none" stroke="black" d="M174.12,-54.98C193.35,-46.42 223.23,-33.11 245.31,-23.28"/>
<polygon fill="black" stroke="black" points="246.82,-26.44 254.53,-19.17 243.97,-20.04 246.82,-26.44"/>
</g>
<!-- Hcf -->
<g id="node5" class="node">
<title>Hcf</title>
<g id="a_node5"><a xlink:href="inet.linklayer.ieee80211.mac.coordinationfunction.Hcf.html" xlink:title="Compound Module Hcf" target="_parent">
<polygon fill="#fffcaf" stroke="black" points="182,-129 128,-129 128,-110 182,-110 182,-129"/>
<text text-anchor="middle" x="155" y="-117" font-family="Helvetica,sans-Serif" font-size="10.00">Hcf</text>
</a>
</g>
</g>
<!-- Hcf&#45;&gt;Edca -->
<g id="edge4" class="edge">
<title>Hcf&#45;&gt;Edca</title>
<path fill="none" stroke="black" d="M155,-109.75C155,-102.8 155,-92.85 155,-84.13"/>
<polygon fill="black" stroke="black" points="158.5,-84.09 155,-74.09 151.5,-84.09 158.5,-84.09"/>
</g>
</g>
</svg>
