<?xml version="1.0" encoding="UTF-8" standalone="no"?>
<!DOCTYPE svg PUBLIC "-//W3C//DTD SVG 1.1//EN"
 "http://www.w3.org/Graphics/SVG/1.1/DTD/svg11.dtd">
<!-- Generated by graphviz version 2.43.0 (0)
 -->
<!-- Title: opp Pages: 1 -->
<svg width="968pt" height="137pt"
 viewBox="0.00 0.00 968.00 137.00" xmlns="http://www.w3.org/2000/svg" xmlns:xlink="http://www.w3.org/1999/xlink">
<g id="graph0" class="graph" transform="scale(1 1) rotate(0) translate(4 133)">
<title>opp</title>
<polygon fill="transparent" stroke="transparent" points="-4,4 -4,-133 964,-133 964,4 -4,4"/>
<!-- TelnetServerTraffic -->
<g id="node1" class="node">
<title>TelnetServerTraffic</title>
<g id="a_node1"><a xlink:href="inet.tutorials.queueing.TelnetServerTraffic.html" xlink:title="Compound Module TelnetServerTraffic" target="_parent">
<polygon fill="#fff700" stroke="black" points="484,-74 376,-74 376,-55 484,-55 484,-74"/>
<text text-anchor="middle" x="430" y="-62" font-family="Helvetica,sans-Serif" font-size="10.00">TelnetServerTraffic</text>
</a>
</g>
</g>
<!-- IPassivePacketSink -->
<g id="node2" class="node">
<title>IPassivePacketSink</title>
<g id="a_node2"><a xlink:href="inet.queueing.contract.IPassivePacketSink.html" xlink:title="Module Interface IPassivePacketSink" target="_parent">
<polygon fill="#fffcaf" stroke="black" stroke-dasharray="5,2" points="110,-19 0,-19 0,0 110,0 110,-19"/>
<text text-anchor="middle" x="55" y="-7" font-family="Helvetica,sans-Serif" font-size="10.00">IPassivePacketSink</text>
</a>
</g>
</g>
<!-- TelnetServerTraffic&#45;&gt;IPassivePacketSink -->
<g id="edge1" class="edge">
<title>TelnetServerTraffic&#45;&gt;IPassivePacketSink</title>
<path fill="none" stroke="black" d="M375.87,-55.85C308.17,-46.28 192.36,-29.91 119.95,-19.68"/>
<polygon fill="black" stroke="black" points="120.42,-16.21 110.03,-18.28 119.44,-23.14 120.42,-16.21"/>
</g>
<!-- IdealChannel -->
<g id="node3" class="node">
<title>IdealChannel</title>
<g id="a_node3"><a xlink:href="ned.IdealChannel.html" xlink:title="Channel IdealChannel" target="_parent">
<polygon fill="#d0ffd0" stroke="black" points="208,-19 128,-19 128,0 208,0 208,-19"/>
<text text-anchor="middle" x="168" y="-7" font-family="Helvetica,sans-Serif" font-size="10.00">IdealChannel</text>
</a>
</g>
</g>
<!-- TelnetServerTraffic&#45;&gt;IdealChannel -->
<g id="edge2" class="edge">
<title>TelnetServerTraffic&#45;&gt;IdealChannel</title>
<path fill="none" stroke="black" d="M387.91,-54.98C341.62,-45.62 267.31,-30.59 218.07,-20.63"/>
<polygon fill="black" stroke="black" points="218.76,-17.2 208.27,-18.65 217.38,-24.06 218.76,-17.2"/>
</g>
<!-- IPacketServer -->
<g id="node4" class="node">
<title>IPacketServer</title>
<g id="a_node4"><a xlink:href="inet.queueing.contract.IPacketServer.html" xlink:title="Module Interface IPacketServer" target="_parent">
<polygon fill="#fffcaf" stroke="black" stroke-dasharray="5,2" points="309.5,-19 226.5,-19 226.5,0 309.5,0 309.5,-19"/>
<text text-anchor="middle" x="268" y="-7" font-family="Helvetica,sans-Serif" font-size="10.00">IPacketServer</text>
</a>
</g>
</g>
<!-- TelnetServerTraffic&#45;&gt;IPacketServer -->
<g id="edge3" class="edge">
<title>TelnetServerTraffic&#45;&gt;IPacketServer</title>
<path fill="none" stroke="black" d="M403.97,-54.98C376.89,-46.13 334.29,-32.19 303.99,-22.28"/>
<polygon fill="black" stroke="black" points="304.82,-18.87 294.23,-19.08 302.65,-25.52 304.82,-18.87"/>
</g>
<!-- IPacketClassifier -->
<g id="node5" class="node">
<title>IPacketClassifier</title>
<g id="a_node5"><a xlink:href="inet.queueing.contract.IPacketClassifier.html" xlink:title="Module Interface IPacketClassifier" target="_parent">
<polygon fill="#fffcaf" stroke="black" stroke-dasharray="5,2" points="426,-19 328,-19 328,0 426,0 426,-19"/>
<text text-anchor="middle" x="377" y="-7" font-family="Helvetica,sans-Serif" font-size="10.00">IPacketClassifier</text>
</a>
</g>
</g>
<!-- TelnetServerTraffic&#45;&gt;IPacketClassifier -->
<g id="edge4" class="edge">
<title>TelnetServerTraffic&#45;&gt;IPacketClassifier</title>
<path fill="none" stroke="black" d="M421.25,-54.75C413.53,-47.03 402.1,-35.6 392.78,-26.28"/>
<polygon fill="black" stroke="black" points="395.14,-23.69 385.59,-19.09 390.19,-28.64 395.14,-23.69"/>
</g>
<!-- PacketCloner -->
<g id="node6" class="node">
<title>PacketCloner</title>
<g id="a_node6"><a xlink:href="inet.queueing.common.PacketCloner.html" xlink:title="Simple Module PacketCloner" target="_parent">
<polygon fill="#fffcaf" stroke="black" points="524,-19 444,-19 444,0 524,0 524,-19"/>
<text text-anchor="middle" x="484" y="-7" font-family="Helvetica,sans-Serif" font-size="10.00">PacketCloner</text>
</a>
</g>
</g>
<!-- TelnetServerTraffic&#45;&gt;PacketCloner -->
<g id="edge5" class="edge">
<title>TelnetServerTraffic&#45;&gt;PacketCloner</title>
<path fill="none" stroke="black" d="M438.92,-54.75C446.78,-47.03 458.43,-35.6 467.92,-26.28"/>
<polygon fill="black" stroke="black" points="470.56,-28.59 475.25,-19.09 465.66,-23.6 470.56,-28.59"/>
</g>
<!-- PacketBasedTokenGenerator -->
<g id="node7" class="node">
<title>PacketBasedTokenGenerator</title>
<g id="a_node7"><a xlink:href="inet.queueing.tokengenerator.PacketBasedTokenGenerator.html" xlink:title="Simple Module PacketBasedTokenGenerator" target="_parent">
<polygon fill="#fffcaf" stroke="black" points="697.5,-19 542.5,-19 542.5,0 697.5,0 697.5,-19"/>
<text text-anchor="middle" x="620" y="-7" font-family="Helvetica,sans-Serif" font-size="10.00">PacketBasedTokenGenerator</text>
</a>
</g>
</g>
<!-- TelnetServerTraffic&#45;&gt;PacketBasedTokenGenerator -->
<g id="edge6" class="edge">
<title>TelnetServerTraffic&#45;&gt;PacketBasedTokenGenerator</title>
<path fill="none" stroke="black" d="M460.53,-54.98C492.7,-46.01 543.56,-31.82 579.17,-21.89"/>
<polygon fill="black" stroke="black" points="580.54,-25.14 589.23,-19.08 578.66,-18.4 580.54,-25.14"/>
</g>
<!-- PacketMultiplexer -->
<g id="node8" class="node">
<title>PacketMultiplexer</title>
<g id="a_node8"><a xlink:href="inet.queueing.common.PacketMultiplexer.html" xlink:title="Simple Module PacketMultiplexer" target="_parent">
<polygon fill="#fffcaf" stroke="black" points="820,-19 716,-19 716,0 820,0 820,-19"/>
<text text-anchor="middle" x="768" y="-7" font-family="Helvetica,sans-Serif" font-size="10.00">PacketMultiplexer</text>
</a>
</g>
</g>
<!-- TelnetServerTraffic&#45;&gt;PacketMultiplexer -->
<g id="edge7" class="edge">
<title>TelnetServerTraffic&#45;&gt;PacketMultiplexer</title>
<path fill="none" stroke="black" d="M484.31,-54.98C544.8,-45.5 642.41,-30.19 705.89,-20.24"/>
<polygon fill="black" stroke="black" points="706.44,-23.7 715.77,-18.69 705.35,-16.78 706.44,-23.7"/>
</g>
<!-- IPassivePacketSource -->
<g id="node9" class="node">
<title>IPassivePacketSource</title>
<g id="a_node9"><a xlink:href="inet.queueing.contract.IPassivePacketSource.html" xlink:title="Module Interface IPassivePacketSource" target="_parent">
<polygon fill="#fffcaf" stroke="black" stroke-dasharray="5,2" points="960,-19 838,-19 838,0 960,0 960,-19"/>
<text text-anchor="middle" x="899" y="-7" font-family="Helvetica,sans-Serif" font-size="10.00">IPassivePacketSource</text>
</a>
</g>
</g>
<!-- TelnetServerTraffic&#45;&gt;IPassivePacketSource -->
<g id="edge8" class="edge">
<title>TelnetServerTraffic&#45;&gt;IPassivePacketSource</title>
<path fill="none" stroke="black" d="M484.23,-57.62C559.05,-49.47 698.46,-34.16 827.83,-19.13"/>
<polygon fill="black" stroke="black" points="828.39,-22.58 837.92,-17.95 827.58,-15.63 828.39,-22.58"/>
</g>
<!-- TelnetTutorialStep -->
<g id="node10" class="node">
<title>TelnetTutorialStep</title>
<g id="a_node10"><a xlink:href="inet.tutorials.queueing.TelnetTutorialStep.html" xlink:title="Network TelnetTutorialStep" target="_parent">
<polygon fill="#d0d0ff" stroke="black" points="482,-129 378,-129 378,-110 482,-110 482,-129"/>
<text text-anchor="middle" x="430" y="-117" font-family="Helvetica,sans-Serif" font-size="10.00">TelnetTutorialStep</text>
</a>
</g>
</g>
<!-- TelnetTutorialStep&#45;&gt;TelnetServerTraffic -->
<g id="edge9" class="edge">
<title>TelnetTutorialStep&#45;&gt;TelnetServerTraffic</title>
<path fill="none" stroke="black" d="M430,-109.75C430,-102.8 430,-92.85 430,-84.13"/>
<polygon fill="black" stroke="black" points="433.5,-84.09 430,-74.09 426.5,-84.09 433.5,-84.09"/>
</g>
</g>
</svg>
