<?xml version="1.0" encoding="UTF-8" standalone="no"?>
<!DOCTYPE svg PUBLIC "-//W3C//DTD SVG 1.1//EN"
 "http://www.w3.org/Graphics/SVG/1.1/DTD/svg11.dtd">
<!-- Generated by graphviz version 2.43.0 (0)
 -->
<!-- Title: opp Pages: 1 -->
<svg width="446pt" height="82pt"
 viewBox="0.00 0.00 445.50 82.00" xmlns="http://www.w3.org/2000/svg" xmlns:xlink="http://www.w3.org/1999/xlink">
<g id="graph0" class="graph" transform="scale(1 1) rotate(0) translate(4 78)">
<title>opp</title>
<polygon fill="transparent" stroke="transparent" points="-4,4 -4,-78 441.5,-78 441.5,4 -4,4"/>
<!-- DropTailQueueTutorialStep -->
<g id="node1" class="node">
<title>DropTailQueueTutorialStep</title>
<g id="a_node1"><a xlink:href="inet.tutorials.queueing.DropTailQueueTutorialStep.html" xlink:title="Network DropTailQueueTutorialStep" target="_parent">
<polygon fill="#9090ff" stroke="black" points="298.5,-74 152.5,-74 152.5,-55 298.5,-55 298.5,-74"/>
<text text-anchor="middle" x="225.5" y="-62" font-family="Helvetica,sans-Serif" font-size="10.00">DropTailQueueTutorialStep</text>
</a>
</g>
</g>
<!-- ActivePacketSource -->
<g id="node2" class="node">
<title>ActivePacketSource</title>
<g id="a_node2"><a xlink:href="inet.queueing.source.ActivePacketSource.html" xlink:title="Simple Module ActivePacketSource" target="_parent">
<polygon fill="#fffcaf" stroke="black" points="113,-19 0,-19 0,0 113,0 113,-19"/>
<text text-anchor="middle" x="56.5" y="-7" font-family="Helvetica,sans-Serif" font-size="10.00">ActivePacketSource</text>
</a>
</g>
</g>
<!-- DropTailQueueTutorialStep&#45;&gt;ActivePacketSource -->
<g id="edge1" class="edge">
<title>DropTailQueueTutorialStep&#45;&gt;ActivePacketSource</title>
<path fill="none" stroke="black" d="M198.35,-54.98C169.97,-46.09 125.27,-32.07 93.64,-22.15"/>
<polygon fill="black" stroke="black" points="94.45,-18.73 83.87,-19.08 92.36,-25.41 94.45,-18.73"/>
</g>
<!-- IdealChannel -->
<g id="node3" class="node">
<title>IdealChannel</title>
<g id="a_node3"><a xlink:href="ned.IdealChannel.html" xlink:title="Channel IdealChannel" target="_parent">
<polygon fill="#d0ffd0" stroke="black" points="211.5,-19 131.5,-19 131.5,0 211.5,0 211.5,-19"/>
<text text-anchor="middle" x="171.5" y="-7" font-family="Helvetica,sans-Serif" font-size="10.00">IdealChannel</text>
</a>
</g>
</g>
<!-- DropTailQueueTutorialStep&#45;&gt;IdealChannel -->
<g id="edge2" class="edge">
<title>DropTailQueueTutorialStep&#45;&gt;IdealChannel</title>
<path fill="none" stroke="black" d="M216.58,-54.75C208.72,-47.03 197.07,-35.6 187.58,-26.28"/>
<polygon fill="black" stroke="black" points="189.84,-23.6 180.25,-19.09 184.94,-28.59 189.84,-23.6"/>
</g>
<!-- ActivePacketSink -->
<g id="node4" class="node">
<title>ActivePacketSink</title>
<g id="a_node4"><a xlink:href="inet.queueing.sink.ActivePacketSink.html" xlink:title="Simple Module ActivePacketSink" target="_parent">
<polygon fill="#fffcaf" stroke="black" points="331,-19 230,-19 230,0 331,0 331,-19"/>
<text text-anchor="middle" x="280.5" y="-7" font-family="Helvetica,sans-Serif" font-size="10.00">ActivePacketSink</text>
</a>
</g>
</g>
<!-- DropTailQueueTutorialStep&#45;&gt;ActivePacketSink -->
<g id="edge3" class="edge">
<title>DropTailQueueTutorialStep&#45;&gt;ActivePacketSink</title>
<path fill="none" stroke="black" d="M234.58,-54.75C242.59,-47.03 254.46,-35.6 264.12,-26.28"/>
<polygon fill="black" stroke="black" points="266.81,-28.55 271.59,-19.09 261.96,-23.51 266.81,-28.55"/>
</g>
<!-- DropTailQueue -->
<g id="node5" class="node">
<title>DropTailQueue</title>
<g id="a_node5"><a xlink:href="inet.queueing.queue.DropTailQueue.html" xlink:title="Simple Module DropTailQueue" target="_parent">
<polygon fill="#fffcaf" stroke="black" points="437.5,-19 349.5,-19 349.5,0 437.5,0 437.5,-19"/>
<text text-anchor="middle" x="393.5" y="-7" font-family="Helvetica,sans-Serif" font-size="10.00">DropTailQueue</text>
</a>
</g>
</g>
<!-- DropTailQueueTutorialStep&#45;&gt;DropTailQueue -->
<g id="edge4" class="edge">
<title>DropTailQueueTutorialStep&#45;&gt;DropTailQueue</title>
<path fill="none" stroke="black" d="M252.49,-54.98C280.7,-46.09 325.14,-32.07 356.58,-22.15"/>
<polygon fill="black" stroke="black" points="357.81,-25.43 366.3,-19.08 355.71,-18.75 357.81,-25.43"/>
</g>
</g>
</svg>
