<?xml version="1.0" encoding="UTF-8" standalone="no"?>
<!DOCTYPE svg PUBLIC "-//W3C//DTD SVG 1.1//EN"
 "http://www.w3.org/Graphics/SVG/1.1/DTD/svg11.dtd">
<!-- Generated by graphviz version 2.43.0 (0)
 -->
<!-- Title: opp Pages: 1 -->
<svg width="450pt" height="82pt"
 viewBox="0.00 0.00 450.00 82.00" xmlns="http://www.w3.org/2000/svg" xmlns:xlink="http://www.w3.org/1999/xlink">
<g id="graph0" class="graph" transform="scale(1 1) rotate(0) translate(4 78)">
<title>opp</title>
<polygon fill="transparent" stroke="transparent" points="-4,4 -4,-78 446,-78 446,4 -4,4"/>
<!-- DelayerTutorialStep -->
<g id="node1" class="node">
<title>DelayerTutorialStep</title>
<g id="a_node1"><a xlink:href="inet.tutorials.queueing.DelayerTutorialStep.html" xlink:title="Network DelayerTutorialStep" target="_parent">
<polygon fill="#9090ff" stroke="black" points="284,-74 171,-74 171,-55 284,-55 284,-74"/>
<text text-anchor="middle" x="227.5" y="-62" font-family="Helvetica,sans-Serif" font-size="10.00">DelayerTutorialStep</text>
</a>
</g>
</g>
<!-- ActivePacketSource -->
<g id="node2" class="node">
<title>ActivePacketSource</title>
<g id="a_node2"><a xlink:href="inet.queueing.source.ActivePacketSource.html" xlink:title="Simple Module ActivePacketSource" target="_parent">
<polygon fill="#fffcaf" stroke="black" points="113,-19 0,-19 0,0 113,0 113,-19"/>
<text text-anchor="middle" x="56.5" y="-7" font-family="Helvetica,sans-Serif" font-size="10.00">ActivePacketSource</text>
</a>
</g>
</g>
<!-- DelayerTutorialStep&#45;&gt;ActivePacketSource -->
<g id="edge1" class="edge">
<title>DelayerTutorialStep&#45;&gt;ActivePacketSource</title>
<path fill="none" stroke="black" d="M200.03,-54.98C171.32,-46.09 126.08,-32.07 94.08,-22.15"/>
<polygon fill="black" stroke="black" points="94.78,-18.7 84.19,-19.08 92.7,-25.39 94.78,-18.7"/>
</g>
<!-- IdealChannel -->
<g id="node3" class="node">
<title>IdealChannel</title>
<g id="a_node3"><a xlink:href="ned.IdealChannel.html" xlink:title="Channel IdealChannel" target="_parent">
<polygon fill="#d0ffd0" stroke="black" points="211.5,-19 131.5,-19 131.5,0 211.5,0 211.5,-19"/>
<text text-anchor="middle" x="171.5" y="-7" font-family="Helvetica,sans-Serif" font-size="10.00">IdealChannel</text>
</a>
</g>
</g>
<!-- DelayerTutorialStep&#45;&gt;IdealChannel -->
<g id="edge2" class="edge">
<title>DelayerTutorialStep&#45;&gt;IdealChannel</title>
<path fill="none" stroke="black" d="M218.5,-54.98C210.31,-47.23 197.99,-35.58 188.03,-26.14"/>
<polygon fill="black" stroke="black" points="190.33,-23.5 180.66,-19.17 185.52,-28.59 190.33,-23.5"/>
</g>
<!-- PassivePacketSink -->
<g id="node4" class="node">
<title>PassivePacketSink</title>
<g id="a_node4"><a xlink:href="inet.queueing.sink.PassivePacketSink.html" xlink:title="Simple Module PassivePacketSink" target="_parent">
<polygon fill="#fffcaf" stroke="black" points="337,-19 230,-19 230,0 337,0 337,-19"/>
<text text-anchor="middle" x="283.5" y="-7" font-family="Helvetica,sans-Serif" font-size="10.00">PassivePacketSink</text>
</a>
</g>
</g>
<!-- DelayerTutorialStep&#45;&gt;PassivePacketSink -->
<g id="edge3" class="edge">
<title>DelayerTutorialStep&#45;&gt;PassivePacketSink</title>
<path fill="none" stroke="black" d="M236.5,-54.98C244.69,-47.23 257.01,-35.58 266.97,-26.14"/>
<polygon fill="black" stroke="black" points="269.48,-28.59 274.34,-19.17 264.67,-23.5 269.48,-28.59"/>
</g>
<!-- PacketDelayer -->
<g id="node5" class="node">
<title>PacketDelayer</title>
<g id="a_node5"><a xlink:href="inet.queueing.common.PacketDelayer.html" xlink:title="Simple Module PacketDelayer" target="_parent">
<polygon fill="#fffcaf" stroke="black" points="442,-19 355,-19 355,0 442,0 442,-19"/>
<text text-anchor="middle" x="398.5" y="-7" font-family="Helvetica,sans-Serif" font-size="10.00">PacketDelayer</text>
</a>
</g>
</g>
<!-- DelayerTutorialStep&#45;&gt;PacketDelayer -->
<g id="edge4" class="edge">
<title>DelayerTutorialStep&#45;&gt;PacketDelayer</title>
<path fill="none" stroke="black" d="M254.97,-54.98C283.68,-46.09 328.92,-32.07 360.92,-22.15"/>
<polygon fill="black" stroke="black" points="362.3,-25.39 370.81,-19.08 360.22,-18.7 362.3,-25.39"/>
</g>
</g>
</svg>
