<?xml version="1.0" encoding="UTF-8" standalone="no"?>
<!DOCTYPE svg PUBLIC "-//W3C//DTD SVG 1.1//EN"
 "http://www.w3.org/Graphics/SVG/1.1/DTD/svg11.dtd">
<!-- Generated by graphviz version 2.43.0 (0)
 -->
<!-- Title: opp Pages: 1 -->
<svg width="513pt" height="82pt"
 viewBox="0.00 0.00 512.50 82.00" xmlns="http://www.w3.org/2000/svg" xmlns:xlink="http://www.w3.org/1999/xlink">
<g id="graph0" class="graph" transform="scale(1 1) rotate(0) translate(4 78)">
<title>opp</title>
<polygon fill="transparent" stroke="transparent" points="-4,4 -4,-78 508.5,-78 508.5,4 -4,4"/>
<!-- MixedNetwork -->
<g id="node1" class="node">
<title>MixedNetwork</title>
<g id="a_node1"><a xlink:href="inet.examples.rip.mixednetwork.MixedNetwork.html" xlink:title="Network MixedNetwork" target="_parent">
<polygon fill="#9090ff" stroke="black" points="291.5,-74 203.5,-74 203.5,-55 291.5,-55 291.5,-74"/>
<text text-anchor="middle" x="247.5" y="-62" font-family="Helvetica,sans-Serif" font-size="10.00">MixedNetwork</text>
</a>
</g>
</g>
<!-- ScenarioManager -->
<g id="node2" class="node">
<title>ScenarioManager</title>
<g id="a_node2"><a xlink:href="inet.common.scenario.ScenarioManager.html" xlink:title="Simple Module ScenarioManager" target="_parent">
<polygon fill="#fffcaf" stroke="black" points="101,-19 0,-19 0,0 101,0 101,-19"/>
<text text-anchor="middle" x="50.5" y="-7" font-family="Helvetica,sans-Serif" font-size="10.00">ScenarioManager</text>
</a>
</g>
</g>
<!-- MixedNetwork&#45;&gt;ScenarioManager -->
<g id="edge1" class="edge">
<title>MixedNetwork&#45;&gt;ScenarioManager</title>
<path fill="none" stroke="black" d="M215.85,-54.98C182.34,-45.97 129.3,-31.7 92.36,-21.76"/>
<polygon fill="black" stroke="black" points="92.97,-18.3 82.4,-19.08 91.15,-25.06 92.97,-18.3"/>
</g>
<!-- StandardHost -->
<g id="node3" class="node">
<title>StandardHost</title>
<g id="a_node3"><a xlink:href="inet.node.inet.StandardHost.html" xlink:title="Compound Module StandardHost" target="_parent">
<polygon fill="#fffcaf" stroke="black" points="202,-19 119,-19 119,0 202,0 202,-19"/>
<text text-anchor="middle" x="160.5" y="-7" font-family="Helvetica,sans-Serif" font-size="10.00">StandardHost</text>
</a>
</g>
</g>
<!-- MixedNetwork&#45;&gt;StandardHost -->
<g id="edge2" class="edge">
<title>MixedNetwork&#45;&gt;StandardHost</title>
<path fill="none" stroke="black" d="M233.52,-54.98C220.03,-46.77 199.37,-34.18 183.46,-24.49"/>
<polygon fill="black" stroke="black" points="185.09,-21.38 174.73,-19.17 181.45,-27.36 185.09,-21.38"/>
</g>
<!-- Router -->
<g id="node4" class="node">
<title>Router</title>
<g id="a_node4"><a xlink:href="inet.node.inet.Router.html" xlink:title="Compound Module Router" target="_parent">
<polygon fill="#fffcaf" stroke="black" points="274.5,-19 220.5,-19 220.5,0 274.5,0 274.5,-19"/>
<text text-anchor="middle" x="247.5" y="-7" font-family="Helvetica,sans-Serif" font-size="10.00">Router</text>
</a>
</g>
</g>
<!-- MixedNetwork&#45;&gt;Router -->
<g id="edge3" class="edge">
<title>MixedNetwork&#45;&gt;Router</title>
<path fill="none" stroke="black" d="M247.5,-54.75C247.5,-47.8 247.5,-37.85 247.5,-29.13"/>
<polygon fill="black" stroke="black" points="251,-29.09 247.5,-19.09 244,-29.09 251,-29.09"/>
</g>
<!-- C -->
<g id="node5" class="node">
<title>C</title>
<g id="a_node5"><a xlink:href="inet.examples.rip.mixednetwork.MixedNetwork.C.html" xlink:title="Channel C" target="_parent">
<polygon fill="#d0ffd0" stroke="black" points="346.5,-19 292.5,-19 292.5,0 346.5,0 346.5,-19"/>
<text text-anchor="middle" x="319.5" y="-7" font-family="Helvetica,sans-Serif" font-size="10.00">C</text>
</a>
</g>
</g>
<!-- MixedNetwork&#45;&gt;C -->
<g id="edge4" class="edge">
<title>MixedNetwork&#45;&gt;C</title>
<path fill="none" stroke="black" d="M259.07,-54.98C269.92,-47 286.38,-34.88 299.38,-25.31"/>
<polygon fill="black" stroke="black" points="301.74,-27.92 307.72,-19.17 297.59,-22.28 301.74,-27.92"/>
</g>
<!-- Ipv4NetworkConfigurator -->
<g id="node6" class="node">
<title>Ipv4NetworkConfigurator</title>
<g id="a_node6"><a xlink:href="inet.networklayer.configurator.ipv4.Ipv4NetworkConfigurator.html" xlink:title="Simple Module Ipv4NetworkConfigurator" target="_parent">
<polygon fill="#fffcaf" stroke="black" points="504.5,-19 364.5,-19 364.5,0 504.5,0 504.5,-19"/>
<text text-anchor="middle" x="434.5" y="-7" font-family="Helvetica,sans-Serif" font-size="10.00">Ipv4NetworkConfigurator</text>
</a>
</g>
</g>
<!-- MixedNetwork&#45;&gt;Ipv4NetworkConfigurator -->
<g id="edge5" class="edge">
<title>MixedNetwork&#45;&gt;Ipv4NetworkConfigurator</title>
<path fill="none" stroke="black" d="M277.54,-54.98C309.21,-46.01 359.27,-31.82 394.31,-21.89"/>
<polygon fill="black" stroke="black" points="395.55,-25.18 404.22,-19.08 393.64,-18.44 395.55,-25.18"/>
</g>
</g>
</svg>
