<?xml version="1.0" encoding="UTF-8" standalone="no"?>
<!DOCTYPE svg PUBLIC "-//W3C//DTD SVG 1.1//EN"
 "http://www.w3.org/Graphics/SVG/1.1/DTD/svg11.dtd">
<!-- Generated by graphviz version 2.43.0 (0)
 -->
<!-- Title: opp Pages: 1 -->
<svg width="562pt" height="82pt"
 viewBox="0.00 0.00 561.50 82.00" xmlns="http://www.w3.org/2000/svg" xmlns:xlink="http://www.w3.org/1999/xlink">
<g id="graph0" class="graph" transform="scale(1 1) rotate(0) translate(4 78)">
<title>opp</title>
<polygon fill="transparent" stroke="transparent" points="-4,4 -4,-78 557.5,-78 557.5,4 -4,4"/>
<!-- GPSRNetworkManual -->
<g id="node1" class="node">
<title>GPSRNetworkManual</title>
<g id="a_node1"><a xlink:href="inet.examples.manetrouting.gpsr.GPSRNetworkManual.html" xlink:title="Network GPSRNetworkManual" target="_parent">
<polygon fill="#9090ff" stroke="black" points="337,-74 217,-74 217,-55 337,-55 337,-74"/>
<text text-anchor="middle" x="277" y="-62" font-family="Helvetica,sans-Serif" font-size="10.00">GPSRNetworkManual</text>
</a>
</g>
</g>
<!-- Ipv4NetworkConfigurator -->
<g id="node2" class="node">
<title>Ipv4NetworkConfigurator</title>
<g id="a_node2"><a xlink:href="inet.networklayer.configurator.ipv4.Ipv4NetworkConfigurator.html" xlink:title="Simple Module Ipv4NetworkConfigurator" target="_parent">
<polygon fill="#fffcaf" stroke="black" points="140,-19 0,-19 0,0 140,0 140,-19"/>
<text text-anchor="middle" x="70" y="-7" font-family="Helvetica,sans-Serif" font-size="10.00">Ipv4NetworkConfigurator</text>
</a>
</g>
</g>
<!-- GPSRNetworkManual&#45;&gt;Ipv4NetworkConfigurator -->
<g id="edge1" class="edge">
<title>GPSRNetworkManual&#45;&gt;Ipv4NetworkConfigurator</title>
<path fill="none" stroke="black" d="M243.74,-54.98C208.39,-45.93 152.33,-31.58 113.49,-21.64"/>
<polygon fill="black" stroke="black" points="114.07,-18.17 103.52,-19.08 112.34,-24.95 114.07,-18.17"/>
</g>
<!-- RoutingTableRecorder -->
<g id="node3" class="node">
<title>RoutingTableRecorder</title>
<g id="a_node3"><a xlink:href="inet.networklayer.ipv4.RoutingTableRecorder.html" xlink:title="Simple Module RoutingTableRecorder" target="_parent">
<polygon fill="#fffcaf" stroke="black" points="281.5,-19 158.5,-19 158.5,0 281.5,0 281.5,-19"/>
<text text-anchor="middle" x="220" y="-7" font-family="Helvetica,sans-Serif" font-size="10.00">RoutingTableRecorder</text>
</a>
</g>
</g>
<!-- GPSRNetworkManual&#45;&gt;RoutingTableRecorder -->
<g id="edge2" class="edge">
<title>GPSRNetworkManual&#45;&gt;RoutingTableRecorder</title>
<path fill="none" stroke="black" d="M267.84,-54.98C259.5,-47.23 246.97,-35.58 236.82,-26.14"/>
<polygon fill="black" stroke="black" points="239.03,-23.42 229.32,-19.17 234.26,-28.54 239.03,-23.42"/>
</g>
<!-- GpsrRouter -->
<g id="node4" class="node">
<title>GpsrRouter</title>
<g id="a_node4"><a xlink:href="inet.node.gpsr.GpsrRouter.html" xlink:title="Compound Module GpsrRouter" target="_parent">
<polygon fill="#fffcaf" stroke="black" points="370.5,-19 299.5,-19 299.5,0 370.5,0 370.5,-19"/>
<text text-anchor="middle" x="335" y="-7" font-family="Helvetica,sans-Serif" font-size="10.00">GpsrRouter</text>
</a>
</g>
</g>
<!-- GPSRNetworkManual&#45;&gt;GpsrRouter -->
<g id="edge3" class="edge">
<title>GPSRNetworkManual&#45;&gt;GpsrRouter</title>
<path fill="none" stroke="black" d="M286.32,-54.98C294.81,-47.23 307.56,-35.58 317.88,-26.14"/>
<polygon fill="black" stroke="black" points="320.49,-28.5 325.51,-19.17 315.77,-23.33 320.49,-28.5"/>
</g>
<!-- Ieee80211ScalarRadioMedium -->
<g id="node5" class="node">
<title>Ieee80211ScalarRadioMedium</title>
<g id="a_node5"><a xlink:href="inet.physicallayer.wireless.ieee80211.packetlevel.Ieee80211ScalarRadioMedium.html" xlink:title="Compound Module Ieee80211ScalarRadioMedium" target="_parent">
<polygon fill="#fffcaf" stroke="black" points="553.5,-19 388.5,-19 388.5,0 553.5,0 553.5,-19"/>
<text text-anchor="middle" x="471" y="-7" font-family="Helvetica,sans-Serif" font-size="10.00">Ieee80211ScalarRadioMedium</text>
</a>
</g>
</g>
<!-- GPSRNetworkManual&#45;&gt;Ieee80211ScalarRadioMedium -->
<g id="edge4" class="edge">
<title>GPSRNetworkManual&#45;&gt;Ieee80211ScalarRadioMedium</title>
<path fill="none" stroke="black" d="M308.17,-54.98C341.16,-45.97 393.4,-31.7 429.77,-21.76"/>
<polygon fill="black" stroke="black" points="430.86,-25.09 439.59,-19.08 429.02,-18.34 430.86,-25.09"/>
</g>
</g>
</svg>
