<?xml version="1.0" encoding="UTF-8" standalone="no"?>
<!DOCTYPE svg PUBLIC "-//W3C//DTD SVG 1.1//EN"
 "http://www.w3.org/Graphics/SVG/1.1/DTD/svg11.dtd">
<!-- Generated by graphviz version 2.43.0 (0)
 -->
<!-- Title: opp Pages: 1 -->
<svg width="1109pt" height="137pt"
 viewBox="0.00 0.00 1109.00 137.00" xmlns="http://www.w3.org/2000/svg" xmlns:xlink="http://www.w3.org/1999/xlink">
<g id="graph0" class="graph" transform="scale(1 1) rotate(0) translate(4 133)">
<title>opp</title>
<polygon fill="transparent" stroke="transparent" points="-4,4 -4,-133 1105,-133 1105,4 -4,4"/>
<!-- BGPRouterEx -->
<g id="node1" class="node">
<title>BGPRouterEx</title>
<g id="a_node1"><a xlink:href="inet.examples.bgpv4.BgpUpdate.BGPRouterEx.html" xlink:title="Compound Module BGPRouterEx" target="_parent">
<polygon fill="#fff700" stroke="black" points="632.5,-74 551.5,-74 551.5,-55 632.5,-55 632.5,-74"/>
<text text-anchor="middle" x="592" y="-62" font-family="Helvetica,sans-Serif" font-size="10.00">BGPRouterEx</text>
</a>
</g>
</g>
<!-- InterfaceTable -->
<g id="node2" class="node">
<title>InterfaceTable</title>
<g id="a_node2"><a xlink:href="inet.networklayer.common.InterfaceTable.html" xlink:title="Simple Module InterfaceTable" target="_parent">
<polygon fill="#fffcaf" stroke="black" points="86,-19 0,-19 0,0 86,0 86,-19"/>
<text text-anchor="middle" x="43" y="-7" font-family="Helvetica,sans-Serif" font-size="10.00">InterfaceTable</text>
</a>
</g>
</g>
<!-- BGPRouterEx&#45;&gt;InterfaceTable -->
<g id="edge1" class="edge">
<title>BGPRouterEx&#45;&gt;InterfaceTable</title>
<path fill="none" stroke="black" d="M551.31,-60.86C467.94,-55.24 271.55,-40.9 96.28,-19.07"/>
<polygon fill="black" stroke="black" points="96.45,-15.57 86.1,-17.79 95.58,-22.51 96.45,-15.57"/>
</g>
<!-- IdealChannel -->
<g id="node3" class="node">
<title>IdealChannel</title>
<g id="a_node3"><a xlink:href="ned.IdealChannel.html" xlink:title="Channel IdealChannel" target="_parent">
<polygon fill="#d0ffd0" stroke="black" points="184,-19 104,-19 104,0 184,0 184,-19"/>
<text text-anchor="middle" x="144" y="-7" font-family="Helvetica,sans-Serif" font-size="10.00">IdealChannel</text>
</a>
</g>
</g>
<!-- BGPRouterEx&#45;&gt;IdealChannel -->
<g id="edge2" class="edge">
<title>BGPRouterEx&#45;&gt;IdealChannel</title>
<path fill="none" stroke="black" d="M551.4,-59.79C480.92,-53.18 331.14,-38.34 194.33,-19.11"/>
<polygon fill="black" stroke="black" points="194.47,-15.59 184.08,-17.66 193.49,-22.53 194.47,-15.59"/>
</g>
<!-- IEthernetLayer -->
<g id="node4" class="node">
<title>IEthernetLayer</title>
<g id="a_node4"><a xlink:href="inet.linklayer.ethernet.contract.IEthernetLayer.html" xlink:title="Module Interface IEthernetLayer" target="_parent">
<polygon fill="#fffcaf" stroke="black" stroke-dasharray="5,2" points="290,-19 202,-19 202,0 290,0 290,-19"/>
<text text-anchor="middle" x="246" y="-7" font-family="Helvetica,sans-Serif" font-size="10.00">IEthernetLayer</text>
</a>
</g>
</g>
<!-- BGPRouterEx&#45;&gt;IEthernetLayer -->
<g id="edge3" class="edge">
<title>BGPRouterEx&#45;&gt;IEthernetLayer</title>
<path fill="none" stroke="black" d="M551.22,-57.42C496.54,-49.23 396.14,-34.13 300.39,-19.21"/>
<polygon fill="black" stroke="black" points="300.66,-15.71 290.24,-17.62 299.58,-22.62 300.66,-15.71"/>
</g>
<!-- MessageDispatcher -->
<g id="node5" class="node">
<title>MessageDispatcher</title>
<g id="a_node5"><a xlink:href="inet.common.MessageDispatcher.html" xlink:title="Simple Module MessageDispatcher" target="_parent">
<polygon fill="#fffcaf" stroke="black" points="421.5,-19 308.5,-19 308.5,0 421.5,0 421.5,-19"/>
<text text-anchor="middle" x="365" y="-7" font-family="Helvetica,sans-Serif" font-size="10.00">MessageDispatcher</text>
</a>
</g>
</g>
<!-- BGPRouterEx&#45;&gt;MessageDispatcher -->
<g id="edge4" class="edge">
<title>BGPRouterEx&#45;&gt;MessageDispatcher</title>
<path fill="none" stroke="black" d="M555.53,-54.98C516.43,-45.86 454.23,-31.33 411.61,-21.38"/>
<polygon fill="black" stroke="black" points="412.29,-17.95 401.76,-19.08 410.7,-24.76 412.29,-17.95"/>
</g>
<!-- IPppInterface -->
<g id="node6" class="node">
<title>IPppInterface</title>
<g id="a_node6"><a xlink:href="inet.linklayer.contract.IPppInterface.html" xlink:title="Module Interface IPppInterface" target="_parent">
<polygon fill="#fffcaf" stroke="black" stroke-dasharray="5,2" points="520.5,-19 439.5,-19 439.5,0 520.5,0 520.5,-19"/>
<text text-anchor="middle" x="480" y="-7" font-family="Helvetica,sans-Serif" font-size="10.00">IPppInterface</text>
</a>
</g>
</g>
<!-- BGPRouterEx&#45;&gt;IPppInterface -->
<g id="edge5" class="edge">
<title>BGPRouterEx&#45;&gt;IPppInterface</title>
<path fill="none" stroke="black" d="M574.01,-54.98C556.07,-46.5 528.28,-33.35 507.57,-23.54"/>
<polygon fill="black" stroke="black" points="508.86,-20.28 498.32,-19.17 505.86,-26.61 508.86,-20.28"/>
</g>
<!-- Ipv4NetworkLayer -->
<g id="node7" class="node">
<title>Ipv4NetworkLayer</title>
<g id="a_node7"><a xlink:href="inet.networklayer.ipv4.Ipv4NetworkLayer.html" xlink:title="Compound Module Ipv4NetworkLayer" target="_parent">
<polygon fill="#fffcaf" stroke="black" points="645,-19 539,-19 539,0 645,0 645,-19"/>
<text text-anchor="middle" x="592" y="-7" font-family="Helvetica,sans-Serif" font-size="10.00">Ipv4NetworkLayer</text>
</a>
</g>
</g>
<!-- BGPRouterEx&#45;&gt;Ipv4NetworkLayer -->
<g id="edge6" class="edge">
<title>BGPRouterEx&#45;&gt;Ipv4NetworkLayer</title>
<path fill="none" stroke="black" d="M592,-54.75C592,-47.8 592,-37.85 592,-29.13"/>
<polygon fill="black" stroke="black" points="595.5,-29.09 592,-19.09 588.5,-29.09 595.5,-29.09"/>
</g>
<!-- IEthernetInterface -->
<g id="node8" class="node">
<title>IEthernetInterface</title>
<g id="a_node8"><a xlink:href="inet.linklayer.contract.IEthernetInterface.html" xlink:title="Module Interface IEthernetInterface" target="_parent">
<polygon fill="#fffcaf" stroke="black" stroke-dasharray="5,2" points="767,-19 663,-19 663,0 767,0 767,-19"/>
<text text-anchor="middle" x="715" y="-7" font-family="Helvetica,sans-Serif" font-size="10.00">IEthernetInterface</text>
</a>
</g>
</g>
<!-- BGPRouterEx&#45;&gt;IEthernetInterface -->
<g id="edge7" class="edge">
<title>BGPRouterEx&#45;&gt;IEthernetInterface</title>
<path fill="none" stroke="black" d="M611.76,-54.98C631.73,-46.38 662.8,-32.99 685.65,-23.15"/>
<polygon fill="black" stroke="black" points="687.08,-26.34 694.88,-19.17 684.31,-19.91 687.08,-26.34"/>
</g>
<!-- Ospfv2 -->
<g id="node9" class="node">
<title>Ospfv2</title>
<g id="a_node9"><a xlink:href="inet.routing.ospfv2.Ospfv2.html" xlink:title="Simple Module Ospfv2" target="_parent">
<polygon fill="#fffcaf" stroke="black" points="839,-19 785,-19 785,0 839,0 839,-19"/>
<text text-anchor="middle" x="812" y="-7" font-family="Helvetica,sans-Serif" font-size="10.00">Ospfv2</text>
</a>
</g>
</g>
<!-- BGPRouterEx&#45;&gt;Ospfv2 -->
<g id="edge8" class="edge">
<title>BGPRouterEx&#45;&gt;Ospfv2</title>
<path fill="none" stroke="black" d="M627.35,-54.98C667.77,-45.25 733.66,-29.37 774.83,-19.46"/>
<polygon fill="black" stroke="black" points="775.83,-22.81 784.73,-17.07 774.19,-16.01 775.83,-22.81"/>
</g>
<!-- Bgp -->
<g id="node10" class="node">
<title>Bgp</title>
<g id="a_node10"><a xlink:href="inet.routing.bgpv4.Bgp.html" xlink:title="Simple Module Bgp" target="_parent">
<polygon fill="#fffcaf" stroke="black" points="911,-19 857,-19 857,0 911,0 911,-19"/>
<text text-anchor="middle" x="884" y="-7" font-family="Helvetica,sans-Serif" font-size="10.00">Bgp</text>
</a>
</g>
</g>
<!-- BGPRouterEx&#45;&gt;Bgp -->
<g id="edge9" class="edge">
<title>BGPRouterEx&#45;&gt;Bgp</title>
<path fill="none" stroke="black" d="M632.93,-57.16C681.61,-49.45 765.55,-35.61 846.99,-19.1"/>
<polygon fill="black" stroke="black" points="847.81,-22.51 856.91,-17.08 846.41,-15.65 847.81,-22.51"/>
</g>
<!-- MessageChecker -->
<g id="node11" class="node">
<title>MessageChecker</title>
<g id="a_node11"><a xlink:href="inet.common.misc.MessageChecker.html" xlink:title="Simple Module MessageChecker" target="_parent">
<polygon fill="#fffcaf" stroke="black" points="1028.5,-19 929.5,-19 929.5,0 1028.5,0 1028.5,-19"/>
<text text-anchor="middle" x="979" y="-7" font-family="Helvetica,sans-Serif" font-size="10.00">MessageChecker</text>
</a>
</g>
</g>
<!-- BGPRouterEx&#45;&gt;MessageChecker -->
<g id="edge10" class="edge">
<title>BGPRouterEx&#45;&gt;MessageChecker</title>
<path fill="none" stroke="black" d="M632.67,-58.09C692.85,-50.06 809.47,-34.42 919.49,-19.06"/>
<polygon fill="black" stroke="black" points="920.01,-22.52 929.43,-17.67 919.04,-15.59 920.01,-22.52"/>
</g>
<!-- ITcp -->
<g id="node12" class="node">
<title>ITcp</title>
<g id="a_node12"><a xlink:href="inet.transportlayer.contract.ITcp.html" xlink:title="Module Interface ITcp" target="_parent">
<polygon fill="#fffcaf" stroke="black" stroke-dasharray="5,2" points="1101,-19 1047,-19 1047,0 1101,0 1101,-19"/>
<text text-anchor="middle" x="1074" y="-7" font-family="Helvetica,sans-Serif" font-size="10.00">ITcp</text>
</a>
</g>
</g>
<!-- BGPRouterEx&#45;&gt;ITcp -->
<g id="edge11" class="edge">
<title>BGPRouterEx&#45;&gt;ITcp</title>
<path fill="none" stroke="black" d="M632.52,-61.26C709.45,-56.62 882.06,-44.34 1036.79,-18.98"/>
<polygon fill="black" stroke="black" points="1037.66,-22.38 1046.95,-17.29 1036.51,-15.48 1037.66,-22.38"/>
</g>
<!-- BgpNetwork -->
<g id="node13" class="node">
<title>BgpNetwork</title>
<g id="a_node13"><a xlink:href="inet.examples.bgpv4.BgpUpdate.BgpNetwork.html" xlink:title="Network BgpNetwork" target="_parent">
<polygon fill="#d0d0ff" stroke="black" points="630.5,-129 553.5,-129 553.5,-110 630.5,-110 630.5,-129"/>
<text text-anchor="middle" x="592" y="-117" font-family="Helvetica,sans-Serif" font-size="10.00">BgpNetwork</text>
</a>
</g>
</g>
<!-- BgpNetwork&#45;&gt;BGPRouterEx -->
<g id="edge12" class="edge">
<title>BgpNetwork&#45;&gt;BGPRouterEx</title>
<path fill="none" stroke="black" d="M592,-109.75C592,-102.8 592,-92.85 592,-84.13"/>
<polygon fill="black" stroke="black" points="595.5,-84.09 592,-74.09 588.5,-84.09 595.5,-84.09"/>
</g>
</g>
</svg>
