<?xml version="1.0" encoding="UTF-8" standalone="no"?>
<!DOCTYPE svg PUBLIC "-//W3C//DTD SVG 1.1//EN"
 "http://www.w3.org/Graphics/SVG/1.1/DTD/svg11.dtd">
<!-- Generated by graphviz version 2.43.0 (0)
 -->
<!-- Title: opp Pages: 1 -->
<svg width="206pt" height="82pt"
 viewBox="0.00 0.00 205.50 82.00" xmlns="http://www.w3.org/2000/svg" xmlns:xlink="http://www.w3.org/1999/xlink">
<g id="graph0" class="graph" transform="scale(1 1) rotate(0) translate(4 78)">
<title>opp</title>
<polygon fill="transparent" stroke="transparent" points="-4,4 -4,-78 201.5,-78 201.5,4 -4,4"/>
<!-- MoBANNetwork -->
<g id="node1" class="node">
<title>MoBANNetwork</title>
<g id="a_node1"><a xlink:href="inet.examples.mobility.MoBANNetwork.html" xlink:title="Network MoBANNetwork" target="_parent">
<polygon fill="#9090ff" stroke="black" points="154.5,-74 60.5,-74 60.5,-55 154.5,-55 154.5,-74"/>
<text text-anchor="middle" x="107.5" y="-62" font-family="Helvetica,sans-Serif" font-size="10.00">MoBANNetwork</text>
</a>
</g>
</g>
<!-- MoBanCoordinator -->
<g id="node2" class="node">
<title>MoBanCoordinator</title>
<g id="a_node2"><a xlink:href="inet.mobility.group.MoBanCoordinator.html" xlink:title="Simple Module MoBanCoordinator" target="_parent">
<polygon fill="#fffcaf" stroke="black" points="107,-19 0,-19 0,0 107,0 107,-19"/>
<text text-anchor="middle" x="53.5" y="-7" font-family="Helvetica,sans-Serif" font-size="10.00">MoBanCoordinator</text>
</a>
</g>
</g>
<!-- MoBANNetwork&#45;&gt;MoBanCoordinator -->
<g id="edge1" class="edge">
<title>MoBANNetwork&#45;&gt;MoBanCoordinator</title>
<path fill="none" stroke="black" d="M98.58,-54.75C90.72,-47.03 79.07,-35.6 69.58,-26.28"/>
<polygon fill="black" stroke="black" points="71.84,-23.6 62.25,-19.09 66.94,-28.59 71.84,-23.6"/>
</g>
<!-- MobileHost -->
<g id="node3" class="node">
<title>MobileHost</title>
<g id="a_node3"><a xlink:href="inet.examples.mobility.MobileHost.html" xlink:title="Compound Module MobileHost" target="_parent">
<polygon fill="#fffcaf" stroke="black" points="197.5,-19 125.5,-19 125.5,0 197.5,0 197.5,-19"/>
<text text-anchor="middle" x="161.5" y="-7" font-family="Helvetica,sans-Serif" font-size="10.00">MobileHost</text>
</a>
</g>
</g>
<!-- MoBANNetwork&#45;&gt;MobileHost -->
<g id="edge2" class="edge">
<title>MoBANNetwork&#45;&gt;MobileHost</title>
<path fill="none" stroke="black" d="M116.42,-54.75C124.28,-47.03 135.93,-35.6 145.42,-26.28"/>
<polygon fill="black" stroke="black" points="148.06,-28.59 152.75,-19.09 143.16,-23.6 148.06,-28.59"/>
</g>
</g>
</svg>
