<?xml version="1.0" encoding="UTF-8" standalone="no"?>
<!DOCTYPE svg PUBLIC "-//W3C//DTD SVG 1.1//EN"
 "http://www.w3.org/Graphics/SVG/1.1/DTD/svg11.dtd">
<!-- Generated by graphviz version 2.43.0 (0)
 -->
<!-- Title: opp Pages: 1 -->
<svg width="646pt" height="82pt"
 viewBox="0.00 0.00 646.00 82.00" xmlns="http://www.w3.org/2000/svg" xmlns:xlink="http://www.w3.org/1999/xlink">
<g id="graph0" class="graph" transform="scale(1 1) rotate(0) translate(4 78)">
<title>opp</title>
<polygon fill="transparent" stroke="transparent" points="-4,4 -4,-78 642,-78 642,4 -4,4"/>
<!-- AODVNetwork -->
<g id="node1" class="node">
<title>AODVNetwork</title>
<g id="a_node1"><a xlink:href="inet.examples.aodv.AODVNetwork.html" xlink:title="Network AODVNetwork" target="_parent">
<polygon fill="#9090ff" stroke="black" points="377,-74 291,-74 291,-55 377,-55 377,-74"/>
<text text-anchor="middle" x="334" y="-62" font-family="Helvetica,sans-Serif" font-size="10.00">AODVNetwork</text>
</a>
</g>
</g>
<!-- UnitDiskRadioMedium -->
<g id="node2" class="node">
<title>UnitDiskRadioMedium</title>
<g id="a_node2"><a xlink:href="inet.physicallayer.wireless.unitdisk.UnitDiskRadioMedium.html" xlink:title="Compound Module UnitDiskRadioMedium" target="_parent">
<polygon fill="#fffcaf" stroke="black" points="126,-19 0,-19 0,0 126,0 126,-19"/>
<text text-anchor="middle" x="63" y="-7" font-family="Helvetica,sans-Serif" font-size="10.00">UnitDiskRadioMedium</text>
</a>
</g>
</g>
<!-- AODVNetwork&#45;&gt;UnitDiskRadioMedium -->
<g id="edge1" class="edge">
<title>AODVNetwork&#45;&gt;UnitDiskRadioMedium</title>
<path fill="none" stroke="black" d="M290.76,-55.04C243.41,-45.78 167.43,-30.92 116.39,-20.94"/>
<polygon fill="black" stroke="black" points="117.02,-17.5 106.53,-19.01 115.68,-24.37 117.02,-17.5"/>
</g>
<!-- ScenarioManager -->
<g id="node3" class="node">
<title>ScenarioManager</title>
<g id="a_node3"><a xlink:href="inet.common.scenario.ScenarioManager.html" xlink:title="Simple Module ScenarioManager" target="_parent">
<polygon fill="#fffcaf" stroke="black" points="245.5,-19 144.5,-19 144.5,0 245.5,0 245.5,-19"/>
<text text-anchor="middle" x="195" y="-7" font-family="Helvetica,sans-Serif" font-size="10.00">ScenarioManager</text>
</a>
</g>
</g>
<!-- AODVNetwork&#45;&gt;ScenarioManager -->
<g id="edge2" class="edge">
<title>AODVNetwork&#45;&gt;ScenarioManager</title>
<path fill="none" stroke="black" d="M311.67,-54.98C288.8,-46.27 253.04,-32.63 227.14,-22.75"/>
<polygon fill="black" stroke="black" points="228.33,-19.46 217.74,-19.17 225.84,-26 228.33,-19.46"/>
</g>
<!-- Ipv4NetworkConfigurator -->
<g id="node4" class="node">
<title>Ipv4NetworkConfigurator</title>
<g id="a_node4"><a xlink:href="inet.networklayer.configurator.ipv4.Ipv4NetworkConfigurator.html" xlink:title="Simple Module Ipv4NetworkConfigurator" target="_parent">
<polygon fill="#fffcaf" stroke="black" points="404,-19 264,-19 264,0 404,0 404,-19"/>
<text text-anchor="middle" x="334" y="-7" font-family="Helvetica,sans-Serif" font-size="10.00">Ipv4NetworkConfigurator</text>
</a>
</g>
</g>
<!-- AODVNetwork&#45;&gt;Ipv4NetworkConfigurator -->
<g id="edge3" class="edge">
<title>AODVNetwork&#45;&gt;Ipv4NetworkConfigurator</title>
<path fill="none" stroke="black" d="M334,-54.75C334,-47.8 334,-37.85 334,-29.13"/>
<polygon fill="black" stroke="black" points="337.5,-29.09 334,-19.09 330.5,-29.09 337.5,-29.09"/>
</g>
<!-- RoutingTableRecorder -->
<g id="node5" class="node">
<title>RoutingTableRecorder</title>
<g id="a_node5"><a xlink:href="inet.networklayer.ipv4.RoutingTableRecorder.html" xlink:title="Simple Module RoutingTableRecorder" target="_parent">
<polygon fill="#fffcaf" stroke="black" points="545.5,-19 422.5,-19 422.5,0 545.5,0 545.5,-19"/>
<text text-anchor="middle" x="484" y="-7" font-family="Helvetica,sans-Serif" font-size="10.00">RoutingTableRecorder</text>
</a>
</g>
</g>
<!-- AODVNetwork&#45;&gt;RoutingTableRecorder -->
<g id="edge4" class="edge">
<title>AODVNetwork&#45;&gt;RoutingTableRecorder</title>
<path fill="none" stroke="black" d="M358.1,-54.98C382.88,-46.23 421.7,-32.51 449.69,-22.62"/>
<polygon fill="black" stroke="black" points="451.2,-25.8 459.46,-19.17 448.87,-19.2 451.2,-25.8"/>
</g>
<!-- AodvRouter -->
<g id="node6" class="node">
<title>AodvRouter</title>
<g id="a_node6"><a xlink:href="inet.node.aodv.AodvRouter.html" xlink:title="Compound Module AodvRouter" target="_parent">
<polygon fill="#fffcaf" stroke="black" points="638,-19 564,-19 564,0 638,0 638,-19"/>
<text text-anchor="middle" x="601" y="-7" font-family="Helvetica,sans-Serif" font-size="10.00">AodvRouter</text>
</a>
</g>
</g>
<!-- AODVNetwork&#45;&gt;AodvRouter -->
<g id="edge5" class="edge">
<title>AODVNetwork&#45;&gt;AodvRouter</title>
<path fill="none" stroke="black" d="M376.9,-54.98C425.3,-45.38 503.8,-29.79 553.88,-19.85"/>
<polygon fill="black" stroke="black" points="554.68,-23.26 563.81,-17.88 553.32,-16.4 554.68,-23.26"/>
</g>
</g>
</svg>
