<?xml version="1.0" encoding="UTF-8" standalone="no"?>
<!DOCTYPE svg PUBLIC "-//W3C//DTD SVG 1.1//EN"
 "http://www.w3.org/Graphics/SVG/1.1/DTD/svg11.dtd">
<!-- Generated by graphviz version 2.43.0 (0)
 -->
<!-- Title: opp Pages: 1 -->
<svg width="768pt" height="82pt"
 viewBox="0.00 0.00 768.00 82.00" xmlns="http://www.w3.org/2000/svg" xmlns:xlink="http://www.w3.org/1999/xlink">
<g id="graph0" class="graph" transform="scale(1 1) rotate(0) translate(4 78)">
<title>opp</title>
<polygon fill="transparent" stroke="transparent" points="-4,4 -4,-78 764,-78 764,4 -4,4"/>
<!-- LayeredEthernetInterface -->
<g id="node1" class="node">
<title>LayeredEthernetInterface</title>
<g id="a_node1"><a xlink:href="inet.linklayer.ethernet.LayeredEthernetInterface.html" xlink:title="Compound Module LayeredEthernetInterface" target="_parent">
<polygon fill="#fff700" stroke="black" points="440,-74 300,-74 300,-55 440,-55 440,-74"/>
<text text-anchor="middle" x="370" y="-62" font-family="Helvetica,sans-Serif" font-size="10.00">LayeredEthernetInterface</text>
</a>
</g>
</g>
<!-- IdealChannel -->
<g id="node2" class="node">
<title>IdealChannel</title>
<g id="a_node2"><a xlink:href="ned.IdealChannel.html" xlink:title="Channel IdealChannel" target="_parent">
<polygon fill="#d0ffd0" stroke="black" points="80,-19 0,-19 0,0 80,0 80,-19"/>
<text text-anchor="middle" x="40" y="-7" font-family="Helvetica,sans-Serif" font-size="10.00">IdealChannel</text>
</a>
</g>
</g>
<!-- LayeredEthernetInterface&#45;&gt;IdealChannel -->
<g id="edge1" class="edge">
<title>LayeredEthernetInterface&#45;&gt;IdealChannel</title>
<path fill="none" stroke="black" d="M314.78,-55C260.24,-46.55 174.19,-33.07 90.08,-19.16"/>
<polygon fill="black" stroke="black" points="90.54,-15.69 80.1,-17.51 89.4,-22.59 90.54,-15.69"/>
</g>
<!-- ITrafficConditionerLayer -->
<g id="node3" class="node">
<title>ITrafficConditionerLayer</title>
<g id="a_node3"><a xlink:href="inet.protocolelement.trafficconditioner.ITrafficConditionerLayer.html" xlink:title="Module Interface ITrafficConditionerLayer" target="_parent">
<polygon fill="#fffcaf" stroke="black" stroke-dasharray="5,2" points="232,-19 98,-19 98,0 232,0 232,-19"/>
<text text-anchor="middle" x="165" y="-7" font-family="Helvetica,sans-Serif" font-size="10.00">ITrafficConditionerLayer</text>
</a>
</g>
</g>
<!-- LayeredEthernetInterface&#45;&gt;ITrafficConditionerLayer -->
<g id="edge2" class="edge">
<title>LayeredEthernetInterface&#45;&gt;ITrafficConditionerLayer</title>
<path fill="none" stroke="black" d="M337.06,-54.98C302.05,-45.93 246.53,-31.58 208.07,-21.64"/>
<polygon fill="black" stroke="black" points="208.75,-18.2 198.19,-19.08 207,-24.97 208.75,-18.2"/>
</g>
<!-- IEthernetPhyLayer -->
<g id="node4" class="node">
<title>IEthernetPhyLayer</title>
<g id="a_node4"><a xlink:href="inet.physicallayer.wired.ethernet.IEthernetPhyLayer.html" xlink:title="Module Interface IEthernetPhyLayer" target="_parent">
<polygon fill="#fffcaf" stroke="black" stroke-dasharray="5,2" points="356,-19 250,-19 250,0 356,0 356,-19"/>
<text text-anchor="middle" x="303" y="-7" font-family="Helvetica,sans-Serif" font-size="10.00">IEthernetPhyLayer</text>
</a>
</g>
</g>
<!-- LayeredEthernetInterface&#45;&gt;IEthernetPhyLayer -->
<g id="edge3" class="edge">
<title>LayeredEthernetInterface&#45;&gt;IEthernetPhyLayer</title>
<path fill="none" stroke="black" d="M359.24,-54.98C349.23,-47.07 334.11,-35.11 322.07,-25.58"/>
<polygon fill="black" stroke="black" points="323.97,-22.63 313.96,-19.17 319.63,-28.12 323.97,-22.63"/>
</g>
<!-- IProcessingDelayLayer -->
<g id="node5" class="node">
<title>IProcessingDelayLayer</title>
<g id="a_node5"><a xlink:href="inet.protocolelement.processing.IProcessingDelayLayer.html" xlink:title="Module Interface IProcessingDelayLayer" target="_parent">
<polygon fill="#fffcaf" stroke="black" stroke-dasharray="5,2" points="502,-19 374,-19 374,0 502,0 502,-19"/>
<text text-anchor="middle" x="438" y="-7" font-family="Helvetica,sans-Serif" font-size="10.00">IProcessingDelayLayer</text>
</a>
</g>
</g>
<!-- LayeredEthernetInterface&#45;&gt;IProcessingDelayLayer -->
<g id="edge4" class="edge">
<title>LayeredEthernetInterface&#45;&gt;IProcessingDelayLayer</title>
<path fill="none" stroke="black" d="M380.93,-54.98C391.08,-47.07 406.42,-35.11 418.65,-25.58"/>
<polygon fill="black" stroke="black" points="421.14,-28.08 426.88,-19.17 416.84,-22.56 421.14,-28.08"/>
</g>
<!-- IEthernetMacLayer -->
<g id="node6" class="node">
<title>IEthernetMacLayer</title>
<g id="a_node6"><a xlink:href="inet.linklayer.ethernet.contract.IEthernetMacLayer.html" xlink:title="Module Interface IEthernetMacLayer" target="_parent">
<polygon fill="#fffcaf" stroke="black" stroke-dasharray="5,2" points="628,-19 520,-19 520,0 628,0 628,-19"/>
<text text-anchor="middle" x="574" y="-7" font-family="Helvetica,sans-Serif" font-size="10.00">IEthernetMacLayer</text>
</a>
</g>
</g>
<!-- LayeredEthernetInterface&#45;&gt;IEthernetMacLayer -->
<g id="edge5" class="edge">
<title>LayeredEthernetInterface&#45;&gt;IEthernetMacLayer</title>
<path fill="none" stroke="black" d="M402.78,-54.98C437.62,-45.93 492.87,-31.58 531.14,-21.64"/>
<polygon fill="black" stroke="black" points="532.17,-24.98 540.97,-19.08 530.41,-18.21 532.17,-24.98"/>
</g>
<!-- IMeasurementLayer -->
<g id="node7" class="node">
<title>IMeasurementLayer</title>
<g id="a_node7"><a xlink:href="inet.protocolelement.measurement.IMeasurementLayer.html" xlink:title="Module Interface IMeasurementLayer" target="_parent">
<polygon fill="#fffcaf" stroke="black" stroke-dasharray="5,2" points="760,-19 646,-19 646,0 760,0 760,-19"/>
<text text-anchor="middle" x="703" y="-7" font-family="Helvetica,sans-Serif" font-size="10.00">IMeasurementLayer</text>
</a>
</g>
</g>
<!-- LayeredEthernetInterface&#45;&gt;IMeasurementLayer -->
<g id="edge6" class="edge">
<title>LayeredEthernetInterface&#45;&gt;IMeasurementLayer</title>
<path fill="none" stroke="black" d="M423.5,-54.98C482.28,-45.63 576.63,-30.61 639.21,-20.65"/>
<polygon fill="black" stroke="black" points="640.03,-24.07 649.35,-19.04 638.93,-17.15 640.03,-24.07"/>
</g>
</g>
</svg>
