<?xml version="1.0" encoding="UTF-8" standalone="no"?>
<!DOCTYPE svg PUBLIC "-//W3C//DTD SVG 1.1//EN"
 "http://www.w3.org/Graphics/SVG/1.1/DTD/svg11.dtd">
<!-- Generated by graphviz version 2.43.0 (0)
 -->
<!-- Title: opp Pages: 1 -->
<svg width="745pt" height="137pt"
 viewBox="0.00 0.00 744.50 137.00" xmlns="http://www.w3.org/2000/svg" xmlns:xlink="http://www.w3.org/1999/xlink">
<g id="graph0" class="graph" transform="scale(1 1) rotate(0) translate(4 133)">
<title>opp</title>
<polygon fill="transparent" stroke="transparent" points="-4,4 -4,-133 740.5,-133 740.5,4 -4,4"/>
<!-- ReceiverHost -->
<g id="node1" class="node">
<title>ReceiverHost</title>
<g id="a_node1"><a xlink:href="inet.tutorials.protocol.ReceiverHost.html" xlink:title="Compound Module ReceiverHost" target="_parent">
<polygon fill="#fff700" stroke="black" points="417,-74 335,-74 335,-55 417,-55 417,-74"/>
<text text-anchor="middle" x="376" y="-62" font-family="Helvetica,sans-Serif" font-size="10.00">ReceiverHost</text>
</a>
</g>
</g>
<!-- IdealChannel -->
<g id="node2" class="node">
<title>IdealChannel</title>
<g id="a_node2"><a xlink:href="ned.IdealChannel.html" xlink:title="Channel IdealChannel" target="_parent">
<polygon fill="#d0ffd0" stroke="black" points="80,-19 0,-19 0,0 80,0 80,-19"/>
<text text-anchor="middle" x="40" y="-7" font-family="Helvetica,sans-Serif" font-size="10.00">IdealChannel</text>
</a>
</g>
</g>
<!-- ReceiverHost&#45;&gt;IdealChannel -->
<g id="edge1" class="edge">
<title>ReceiverHost&#45;&gt;IdealChannel</title>
<path fill="none" stroke="black" d="M334.61,-57.32C280.71,-49.22 183.27,-34.4 89.99,-19.14"/>
<polygon fill="black" stroke="black" points="90.54,-15.68 80.1,-17.52 89.4,-22.59 90.54,-15.68"/>
</g>
<!-- ContentBasedClassifier -->
<g id="node3" class="node">
<title>ContentBasedClassifier</title>
<g id="a_node3"><a xlink:href="inet.queueing.classifier.ContentBasedClassifier.html" xlink:title="Simple Module ContentBasedClassifier" target="_parent">
<polygon fill="#fffcaf" stroke="black" points="229.5,-19 98.5,-19 98.5,0 229.5,0 229.5,-19"/>
<text text-anchor="middle" x="164" y="-7" font-family="Helvetica,sans-Serif" font-size="10.00">ContentBasedClassifier</text>
</a>
</g>
</g>
<!-- ReceiverHost&#45;&gt;ContentBasedClassifier -->
<g id="edge2" class="edge">
<title>ReceiverHost&#45;&gt;ContentBasedClassifier</title>
<path fill="none" stroke="black" d="M341.94,-54.98C305.58,-45.89 247.83,-31.46 208.03,-21.51"/>
<polygon fill="black" stroke="black" points="208.88,-18.11 198.33,-19.08 207.18,-24.9 208.88,-18.11"/>
</g>
<!-- DynamicDefragmenter -->
<g id="node4" class="node">
<title>DynamicDefragmenter</title>
<g id="a_node4"><a xlink:href="inet.tutorials.protocol.DynamicDefragmenter.html" xlink:title="Compound Module DynamicDefragmenter" target="_parent">
<polygon fill="#fffcaf" stroke="black" points="376,-19 248,-19 248,0 376,0 376,-19"/>
<text text-anchor="middle" x="312" y="-7" font-family="Helvetica,sans-Serif" font-size="10.00">DynamicDefragmenter</text>
</a>
</g>
</g>
<!-- ReceiverHost&#45;&gt;DynamicDefragmenter -->
<g id="edge3" class="edge">
<title>ReceiverHost&#45;&gt;DynamicDefragmenter</title>
<path fill="none" stroke="black" d="M365.72,-54.98C356.16,-47.07 341.72,-35.11 330.22,-25.58"/>
<polygon fill="black" stroke="black" points="332.4,-22.85 322.47,-19.17 327.94,-28.24 332.4,-22.85"/>
</g>
<!-- PacketReceiver -->
<g id="node5" class="node">
<title>PacketReceiver</title>
<g id="a_node5"><a xlink:href="inet.protocolelement.transceiver.PacketReceiver.html" xlink:title="Simple Module PacketReceiver" target="_parent">
<polygon fill="#fffcaf" stroke="black" points="486,-19 394,-19 394,0 486,0 486,-19"/>
<text text-anchor="middle" x="440" y="-7" font-family="Helvetica,sans-Serif" font-size="10.00">PacketReceiver</text>
</a>
</g>
</g>
<!-- ReceiverHost&#45;&gt;PacketReceiver -->
<g id="edge4" class="edge">
<title>ReceiverHost&#45;&gt;PacketReceiver</title>
<path fill="none" stroke="black" d="M386.28,-54.98C395.84,-47.07 410.28,-35.11 421.78,-25.58"/>
<polygon fill="black" stroke="black" points="424.06,-28.24 429.53,-19.17 419.6,-22.85 424.06,-28.24"/>
</g>
<!-- PassivePacketSink -->
<g id="node6" class="node">
<title>PassivePacketSink</title>
<g id="a_node6"><a xlink:href="inet.queueing.sink.PassivePacketSink.html" xlink:title="Simple Module PassivePacketSink" target="_parent">
<polygon fill="#fffcaf" stroke="black" points="611.5,-19 504.5,-19 504.5,0 611.5,0 611.5,-19"/>
<text text-anchor="middle" x="558" y="-7" font-family="Helvetica,sans-Serif" font-size="10.00">PassivePacketSink</text>
</a>
</g>
</g>
<!-- ReceiverHost&#45;&gt;PassivePacketSink -->
<g id="edge5" class="edge">
<title>ReceiverHost&#45;&gt;PassivePacketSink</title>
<path fill="none" stroke="black" d="M405.24,-54.98C436.06,-46.01 484.78,-31.82 518.89,-21.89"/>
<polygon fill="black" stroke="black" points="519.91,-25.24 528.53,-19.08 517.95,-18.52 519.91,-25.24"/>
</g>
<!-- FcsHeaderChecker -->
<g id="node7" class="node">
<title>FcsHeaderChecker</title>
<g id="a_node7"><a xlink:href="inet.protocolelement.checksum.FcsHeaderChecker.html" xlink:title="Simple Module FcsHeaderChecker" target="_parent">
<polygon fill="#fffcaf" stroke="black" points="736.5,-19 629.5,-19 629.5,0 736.5,0 736.5,-19"/>
<text text-anchor="middle" x="683" y="-7" font-family="Helvetica,sans-Serif" font-size="10.00">FcsHeaderChecker</text>
</a>
</g>
</g>
<!-- ReceiverHost&#45;&gt;FcsHeaderChecker -->
<g id="edge6" class="edge">
<title>ReceiverHost&#45;&gt;FcsHeaderChecker</title>
<path fill="none" stroke="black" d="M417.08,-56.41C470.06,-47.26 562.59,-31.29 623.32,-20.8"/>
<polygon fill="black" stroke="black" points="624.27,-24.19 633.53,-19.04 623.08,-17.29 624.27,-24.19"/>
</g>
<!-- Network90 -->
<g id="node8" class="node">
<title>Network90</title>
<g id="a_node8"><a xlink:href="inet.tutorials.protocol.Network90.html" xlink:title="Network Network90" target="_parent">
<polygon fill="#d0d0ff" stroke="black" points="411,-129 341,-129 341,-110 411,-110 411,-129"/>
<text text-anchor="middle" x="376" y="-117" font-family="Helvetica,sans-Serif" font-size="10.00">Network90</text>
</a>
</g>
</g>
<!-- Network90&#45;&gt;ReceiverHost -->
<g id="edge7" class="edge">
<title>Network90&#45;&gt;ReceiverHost</title>
<path fill="none" stroke="black" d="M376,-109.75C376,-102.8 376,-92.85 376,-84.13"/>
<polygon fill="black" stroke="black" points="379.5,-84.09 376,-74.09 372.5,-84.09 379.5,-84.09"/>
</g>
</g>
</svg>
