<?xml version="1.0" encoding="UTF-8" standalone="no"?>
<!DOCTYPE svg PUBLIC "-//W3C//DTD SVG 1.1//EN"
 "http://www.w3.org/Graphics/SVG/1.1/DTD/svg11.dtd">
<!-- Generated by graphviz version 2.43.0 (0)
 -->
<!-- Title: opp Pages: 1 -->
<svg width="458pt" height="82pt"
 viewBox="0.00 0.00 458.00 82.00" xmlns="http://www.w3.org/2000/svg" xmlns:xlink="http://www.w3.org/1999/xlink">
<g id="graph0" class="graph" transform="scale(1 1) rotate(0) translate(4 78)">
<title>opp</title>
<polygon fill="transparent" stroke="transparent" points="-4,4 -4,-78 454,-78 454,4 -4,4"/>
<!-- GenericClassifierTutorialStep -->
<g id="node1" class="node">
<title>GenericClassifierTutorialStep</title>
<g id="a_node1"><a xlink:href="inet.tutorials.queueing.GenericClassifierTutorialStep.html" xlink:title="Network GenericClassifierTutorialStep" target="_parent">
<polygon fill="#9090ff" stroke="black" points="310.5,-74 152.5,-74 152.5,-55 310.5,-55 310.5,-74"/>
<text text-anchor="middle" x="231.5" y="-62" font-family="Helvetica,sans-Serif" font-size="10.00">GenericClassifierTutorialStep</text>
</a>
</g>
</g>
<!-- ActivePacketSource -->
<g id="node2" class="node">
<title>ActivePacketSource</title>
<g id="a_node2"><a xlink:href="inet.queueing.source.ActivePacketSource.html" xlink:title="Simple Module ActivePacketSource" target="_parent">
<polygon fill="#fffcaf" stroke="black" points="113,-19 0,-19 0,0 113,0 113,-19"/>
<text text-anchor="middle" x="56.5" y="-7" font-family="Helvetica,sans-Serif" font-size="10.00">ActivePacketSource</text>
</a>
</g>
</g>
<!-- GenericClassifierTutorialStep&#45;&gt;ActivePacketSource -->
<g id="edge1" class="edge">
<title>GenericClassifierTutorialStep&#45;&gt;ActivePacketSource</title>
<path fill="none" stroke="black" d="M203.38,-54.98C173.88,-46.05 127.31,-31.94 94.53,-22.02"/>
<polygon fill="black" stroke="black" points="95.42,-18.63 84.84,-19.08 93.39,-25.33 95.42,-18.63"/>
</g>
<!-- PacketClassifier -->
<g id="node3" class="node">
<title>PacketClassifier</title>
<g id="a_node3"><a xlink:href="inet.queueing.classifier.PacketClassifier.html" xlink:title="Simple Module PacketClassifier" target="_parent">
<polygon fill="#fffcaf" stroke="black" points="226,-19 131,-19 131,0 226,0 226,-19"/>
<text text-anchor="middle" x="178.5" y="-7" font-family="Helvetica,sans-Serif" font-size="10.00">PacketClassifier</text>
</a>
</g>
</g>
<!-- GenericClassifierTutorialStep&#45;&gt;PacketClassifier -->
<g id="edge2" class="edge">
<title>GenericClassifierTutorialStep&#45;&gt;PacketClassifier</title>
<path fill="none" stroke="black" d="M222.75,-54.75C215.03,-47.03 203.6,-35.6 194.28,-26.28"/>
<polygon fill="black" stroke="black" points="196.64,-23.69 187.09,-19.09 191.69,-28.64 196.64,-23.69"/>
</g>
<!-- IdealChannel -->
<g id="node4" class="node">
<title>IdealChannel</title>
<g id="a_node4"><a xlink:href="ned.IdealChannel.html" xlink:title="Channel IdealChannel" target="_parent">
<polygon fill="#d0ffd0" stroke="black" points="324.5,-19 244.5,-19 244.5,0 324.5,0 324.5,-19"/>
<text text-anchor="middle" x="284.5" y="-7" font-family="Helvetica,sans-Serif" font-size="10.00">IdealChannel</text>
</a>
</g>
</g>
<!-- GenericClassifierTutorialStep&#45;&gt;IdealChannel -->
<g id="edge3" class="edge">
<title>GenericClassifierTutorialStep&#45;&gt;IdealChannel</title>
<path fill="none" stroke="black" d="M240.25,-54.75C247.97,-47.03 259.4,-35.6 268.72,-26.28"/>
<polygon fill="black" stroke="black" points="271.31,-28.64 275.91,-19.09 266.36,-23.69 271.31,-28.64"/>
</g>
<!-- PassivePacketSink -->
<g id="node5" class="node">
<title>PassivePacketSink</title>
<g id="a_node5"><a xlink:href="inet.queueing.sink.PassivePacketSink.html" xlink:title="Simple Module PassivePacketSink" target="_parent">
<polygon fill="#fffcaf" stroke="black" points="450,-19 343,-19 343,0 450,0 450,-19"/>
<text text-anchor="middle" x="396.5" y="-7" font-family="Helvetica,sans-Serif" font-size="10.00">PassivePacketSink</text>
</a>
</g>
</g>
<!-- GenericClassifierTutorialStep&#45;&gt;PassivePacketSink -->
<g id="edge4" class="edge">
<title>GenericClassifierTutorialStep&#45;&gt;PassivePacketSink</title>
<path fill="none" stroke="black" d="M258.01,-54.98C285.71,-46.09 329.36,-32.07 360.24,-22.15"/>
<polygon fill="black" stroke="black" points="361.33,-25.47 369.78,-19.08 359.19,-18.81 361.33,-25.47"/>
</g>
</g>
</svg>
