<?xml version="1.0" encoding="UTF-8" standalone="no"?>
<!DOCTYPE svg PUBLIC "-//W3C//DTD SVG 1.1//EN"
 "http://www.w3.org/Graphics/SVG/1.1/DTD/svg11.dtd">
<!-- Generated by graphviz version 2.43.0 (0)
 -->
<!-- Title: opp Pages: 1 -->
<svg width="222pt" height="82pt"
 viewBox="0.00 0.00 222.00 82.00" xmlns="http://www.w3.org/2000/svg" xmlns:xlink="http://www.w3.org/1999/xlink">
<g id="graph0" class="graph" transform="scale(1 1) rotate(0) translate(4 78)">
<title>opp</title>
<polygon fill="transparent" stroke="transparent" points="-4,4 -4,-78 218,-78 218,4 -4,4"/>
<!-- SourceApp -->
<g id="node1" class="node">
<title>SourceApp</title>
<g id="a_node1"><a xlink:href="inet.applications.common.SourceApp.html" xlink:title="Compound Module SourceApp" target="_parent">
<polygon fill="#fff700" stroke="black" points="132,-74 64,-74 64,-55 132,-55 132,-74"/>
<text text-anchor="middle" x="98" y="-62" font-family="Helvetica,sans-Serif" font-size="10.00">SourceApp</text>
</a>
</g>
</g>
<!-- IdealChannel -->
<g id="node2" class="node">
<title>IdealChannel</title>
<g id="a_node2"><a xlink:href="ned.IdealChannel.html" xlink:title="Channel IdealChannel" target="_parent">
<polygon fill="#d0ffd0" stroke="black" points="80,-19 0,-19 0,0 80,0 80,-19"/>
<text text-anchor="middle" x="40" y="-7" font-family="Helvetica,sans-Serif" font-size="10.00">IdealChannel</text>
</a>
</g>
</g>
<!-- SourceApp&#45;&gt;IdealChannel -->
<g id="edge1" class="edge">
<title>SourceApp&#45;&gt;IdealChannel</title>
<path fill="none" stroke="black" d="M88.68,-54.98C80.19,-47.23 67.44,-35.58 57.12,-26.14"/>
<polygon fill="black" stroke="black" points="59.23,-23.33 49.49,-19.17 54.51,-28.5 59.23,-23.33"/>
</g>
<!-- IActivePacketSource -->
<g id="node3" class="node">
<title>IActivePacketSource</title>
<g id="a_node3"><a xlink:href="inet.queueing.contract.IActivePacketSource.html" xlink:title="Module Interface IActivePacketSource" target="_parent">
<polygon fill="#fffcaf" stroke="black" stroke-dasharray="5,2" points="214,-19 98,-19 98,0 214,0 214,-19"/>
<text text-anchor="middle" x="156" y="-7" font-family="Helvetica,sans-Serif" font-size="10.00">IActivePacketSource</text>
</a>
</g>
</g>
<!-- SourceApp&#45;&gt;IActivePacketSource -->
<g id="edge2" class="edge">
<title>SourceApp&#45;&gt;IActivePacketSource</title>
<path fill="none" stroke="black" d="M107.32,-54.98C115.81,-47.23 128.56,-35.58 138.88,-26.14"/>
<polygon fill="black" stroke="black" points="141.49,-28.5 146.51,-19.17 136.77,-23.33 141.49,-28.5"/>
</g>
</g>
</svg>
