<?xml version="1.0" encoding="UTF-8" standalone="no"?>
<!DOCTYPE svg PUBLIC "-//W3C//DTD SVG 1.1//EN"
 "http://www.w3.org/Graphics/SVG/1.1/DTD/svg11.dtd">
<!-- Generated by graphviz version 2.43.0 (0)
 -->
<!-- Title: opp Pages: 1 -->
<svg width="436pt" height="82pt"
 viewBox="0.00 0.00 435.50 82.00" xmlns="http://www.w3.org/2000/svg" xmlns:xlink="http://www.w3.org/1999/xlink">
<g id="graph0" class="graph" transform="scale(1 1) rotate(0) translate(4 78)">
<title>opp</title>
<polygon fill="transparent" stroke="transparent" points="-4,4 -4,-78 431.5,-78 431.5,4 -4,4"/>
<!-- R37 -->
<g id="node1" class="node">
<title>R37</title>
<g id="a_node1"><a xlink:href="inet.examples.mpls.net37.R37.html" xlink:title="Network R37" target="_parent">
<polygon fill="#9090ff" stroke="black" points="266.5,-74 212.5,-74 212.5,-55 266.5,-55 266.5,-74"/>
<text text-anchor="middle" x="239.5" y="-62" font-family="Helvetica,sans-Serif" font-size="10.00">R37</text>
</a>
</g>
</g>
<!-- StandardHost -->
<g id="node2" class="node">
<title>StandardHost</title>
<g id="a_node2"><a xlink:href="inet.node.inet.StandardHost.html" xlink:title="Compound Module StandardHost" target="_parent">
<polygon fill="#fffcaf" stroke="black" points="83,-19 0,-19 0,0 83,0 83,-19"/>
<text text-anchor="middle" x="41.5" y="-7" font-family="Helvetica,sans-Serif" font-size="10.00">StandardHost</text>
</a>
</g>
</g>
<!-- R37&#45;&gt;StandardHost -->
<g id="edge1" class="edge">
<title>R37&#45;&gt;StandardHost</title>
<path fill="none" stroke="black" d="M212.38,-56.24C179.13,-47.34 122.41,-32.16 83.5,-21.74"/>
<polygon fill="black" stroke="black" points="84.09,-18.28 73.53,-19.07 82.28,-25.04 84.09,-18.28"/>
</g>
<!-- Ipv4NetworkConfigurator -->
<g id="node3" class="node">
<title>Ipv4NetworkConfigurator</title>
<g id="a_node3"><a xlink:href="inet.networklayer.configurator.ipv4.Ipv4NetworkConfigurator.html" xlink:title="Simple Module Ipv4NetworkConfigurator" target="_parent">
<polygon fill="#fffcaf" stroke="black" points="241.5,-19 101.5,-19 101.5,0 241.5,0 241.5,-19"/>
<text text-anchor="middle" x="171.5" y="-7" font-family="Helvetica,sans-Serif" font-size="10.00">Ipv4NetworkConfigurator</text>
</a>
</g>
</g>
<!-- R37&#45;&gt;Ipv4NetworkConfigurator -->
<g id="edge2" class="edge">
<title>R37&#45;&gt;Ipv4NetworkConfigurator</title>
<path fill="none" stroke="black" d="M228.57,-54.98C218.42,-47.07 203.08,-35.11 190.85,-25.58"/>
<polygon fill="black" stroke="black" points="192.66,-22.56 182.62,-19.17 188.36,-28.08 192.66,-22.56"/>
</g>
<!-- RsvpMplsRouter -->
<g id="node4" class="node">
<title>RsvpMplsRouter</title>
<g id="a_node4"><a xlink:href="inet.node.mpls.RsvpMplsRouter.html" xlink:title="Compound Module RsvpMplsRouter" target="_parent">
<polygon fill="#fffcaf" stroke="black" points="355.5,-19 259.5,-19 259.5,0 355.5,0 355.5,-19"/>
<text text-anchor="middle" x="307.5" y="-7" font-family="Helvetica,sans-Serif" font-size="10.00">RsvpMplsRouter</text>
</a>
</g>
</g>
<!-- R37&#45;&gt;RsvpMplsRouter -->
<g id="edge3" class="edge">
<title>R37&#45;&gt;RsvpMplsRouter</title>
<path fill="none" stroke="black" d="M250.43,-54.98C260.58,-47.07 275.92,-35.11 288.15,-25.58"/>
<polygon fill="black" stroke="black" points="290.64,-28.08 296.38,-19.17 286.34,-22.56 290.64,-28.08"/>
</g>
<!-- line -->
<g id="node5" class="node">
<title>line</title>
<g id="a_node5"><a xlink:href="inet.examples.mpls.net37.R37.line.html" xlink:title="Channel line" target="_parent">
<polygon fill="#d0ffd0" stroke="black" points="427.5,-19 373.5,-19 373.5,0 427.5,0 427.5,-19"/>
<text text-anchor="middle" x="400.5" y="-7" font-family="Helvetica,sans-Serif" font-size="10.00">line</text>
</a>
</g>
</g>
<!-- R37&#45;&gt;line -->
<g id="edge4" class="edge">
<title>R37&#45;&gt;line</title>
<path fill="none" stroke="black" d="M265.37,-54.98C292.28,-46.13 334.62,-32.19 364.73,-22.28"/>
<polygon fill="black" stroke="black" points="366.03,-25.53 374.43,-19.08 363.84,-18.88 366.03,-25.53"/>
</g>
</g>
</svg>
