<?xml version="1.0" encoding="UTF-8" standalone="no"?>
<!DOCTYPE svg PUBLIC "-//W3C//DTD SVG 1.1//EN"
 "http://www.w3.org/Graphics/SVG/1.1/DTD/svg11.dtd">
<!-- Generated by graphviz version 2.43.0 (0)
 -->
<!-- Title: opp Pages: 1 -->
<svg width="3950pt" height="137pt"
 viewBox="0.00 0.00 3950.00 137.00" xmlns="http://www.w3.org/2000/svg" xmlns:xlink="http://www.w3.org/1999/xlink">
<g id="graph0" class="graph" transform="scale(1 1) rotate(0) translate(4 133)">
<title>opp</title>
<polygon fill="transparent" stroke="transparent" points="-4,4 -4,-133 3946,-133 3946,4 -4,4"/>
<!-- IntegratedCanvasVisualizer -->
<g id="node1" class="node">
<title>IntegratedCanvasVisualizer</title>
<g id="a_node1"><a xlink:href="inet.visualizer.canvas.integrated.IntegratedCanvasVisualizer.html" xlink:title="Compound Module IntegratedCanvasVisualizer" target="_parent">
<polygon fill="#fff700" stroke="black" points="2005,-74 1854,-74 1854,-55 2005,-55 2005,-74"/>
<text text-anchor="middle" x="1929.5" y="-62" font-family="Helvetica,sans-Serif" font-size="10.00">IntegratedCanvasVisualizer</text>
</a>
</g>
</g>
<!-- ITracingObstacleLossVisualizer -->
<g id="node2" class="node">
<title>ITracingObstacleLossVisualizer</title>
<g id="a_node2"><a xlink:href="inet.visualizer.contract.ITracingObstacleLossVisualizer.html" xlink:title="Module Interface ITracingObstacleLossVisualizer" target="_parent">
<polygon fill="#fffcaf" stroke="black" stroke-dasharray="5,2" points="167,-19 0,-19 0,0 167,0 167,-19"/>
<text text-anchor="middle" x="83.5" y="-7" font-family="Helvetica,sans-Serif" font-size="10.00">ITracingObstacleLossVisualizer</text>
</a>
</g>
</g>
<!-- IntegratedCanvasVisualizer&#45;&gt;ITracingObstacleLossVisualizer -->
<g id="edge1" class="edge">
<title>IntegratedCanvasVisualizer&#45;&gt;ITracingObstacleLossVisualizer</title>
<path fill="none" stroke="black" d="M1853.78,-63.38C1611.35,-62.63 832.39,-57.22 177.34,-19.07"/>
<polygon fill="black" stroke="black" points="177.41,-15.56 167.22,-18.47 177,-22.55 177.41,-15.56"/>
</g>
<!-- IMobilityVisualizer -->
<g id="node3" class="node">
<title>IMobilityVisualizer</title>
<g id="a_node3"><a xlink:href="inet.visualizer.contract.IMobilityVisualizer.html" xlink:title="Module Interface IMobilityVisualizer" target="_parent">
<polygon fill="#fffcaf" stroke="black" stroke-dasharray="5,2" points="292,-19 185,-19 185,0 292,0 292,-19"/>
<text text-anchor="middle" x="238.5" y="-7" font-family="Helvetica,sans-Serif" font-size="10.00">IMobilityVisualizer</text>
</a>
</g>
</g>
<!-- IntegratedCanvasVisualizer&#45;&gt;IMobilityVisualizer -->
<g id="edge2" class="edge">
<title>IntegratedCanvasVisualizer&#45;&gt;IMobilityVisualizer</title>
<path fill="none" stroke="black" d="M1853.75,-62.53C1578.23,-58.82 628.9,-44.53 302.64,-19.06"/>
<polygon fill="black" stroke="black" points="302.48,-15.54 292.23,-18.23 301.92,-22.52 302.48,-15.54"/>
</g>
<!-- IGateScheduleVisualizer -->
<g id="node4" class="node">
<title>IGateScheduleVisualizer</title>
<g id="a_node4"><a xlink:href="inet.visualizer.contract.IGateScheduleVisualizer.html" xlink:title="Module Interface IGateScheduleVisualizer" target="_parent">
<polygon fill="#fffcaf" stroke="black" stroke-dasharray="5,2" points="445,-19 310,-19 310,0 445,0 445,-19"/>
<text text-anchor="middle" x="377.5" y="-7" font-family="Helvetica,sans-Serif" font-size="10.00">IGateScheduleVisualizer</text>
</a>
</g>
</g>
<!-- IntegratedCanvasVisualizer&#45;&gt;IGateScheduleVisualizer -->
<g id="edge3" class="edge">
<title>IntegratedCanvasVisualizer&#45;&gt;IGateScheduleVisualizer</title>
<path fill="none" stroke="black" d="M1853.79,-63.35C1637.39,-62.45 997.46,-56.62 455.06,-18.97"/>
<polygon fill="black" stroke="black" points="455.3,-15.47 445.08,-18.27 454.81,-22.46 455.3,-15.47"/>
</g>
<!-- IInfoVisualizer -->
<g id="node5" class="node">
<title>IInfoVisualizer</title>
<g id="a_node5"><a xlink:href="inet.visualizer.contract.IInfoVisualizer.html" xlink:title="Module Interface IInfoVisualizer" target="_parent">
<polygon fill="#fffcaf" stroke="black" stroke-dasharray="5,2" points="549.5,-19 463.5,-19 463.5,0 549.5,0 549.5,-19"/>
<text text-anchor="middle" x="506.5" y="-7" font-family="Helvetica,sans-Serif" font-size="10.00">IInfoVisualizer</text>
</a>
</g>
</g>
<!-- IntegratedCanvasVisualizer&#45;&gt;IInfoVisualizer -->
<g id="edge4" class="edge">
<title>IntegratedCanvasVisualizer&#45;&gt;IInfoVisualizer</title>
<path fill="none" stroke="black" d="M1853.57,-62.33C1607.53,-58.35 832.86,-44.18 559.85,-18.96"/>
<polygon fill="black" stroke="black" points="559.86,-15.45 549.57,-17.98 559.2,-22.41 559.86,-15.45"/>
</g>
<!-- IStatisticVisualizer -->
<g id="node6" class="node">
<title>IStatisticVisualizer</title>
<g id="a_node6"><a xlink:href="inet.visualizer.contract.IStatisticVisualizer.html" xlink:title="Module Interface IStatisticVisualizer" target="_parent">
<polygon fill="#fffcaf" stroke="black" stroke-dasharray="5,2" points="675,-19 568,-19 568,0 675,0 675,-19"/>
<text text-anchor="middle" x="621.5" y="-7" font-family="Helvetica,sans-Serif" font-size="10.00">IStatisticVisualizer</text>
</a>
</g>
</g>
<!-- IntegratedCanvasVisualizer&#45;&gt;IStatisticVisualizer -->
<g id="edge5" class="edge">
<title>IntegratedCanvasVisualizer&#45;&gt;IStatisticVisualizer</title>
<path fill="none" stroke="black" d="M1853.84,-63.44C1660.77,-62.73 1133.92,-57.21 685.48,-19.08"/>
<polygon fill="black" stroke="black" points="685.49,-15.57 675.23,-18.2 684.9,-22.54 685.49,-15.57"/>
</g>
<!-- IRadioVisualizer -->
<g id="node7" class="node">
<title>IRadioVisualizer</title>
<g id="a_node7"><a xlink:href="inet.visualizer.contract.IRadioVisualizer.html" xlink:title="Module Interface IRadioVisualizer" target="_parent">
<polygon fill="#fffcaf" stroke="black" stroke-dasharray="5,2" points="788,-19 693,-19 693,0 788,0 788,-19"/>
<text text-anchor="middle" x="740.5" y="-7" font-family="Helvetica,sans-Serif" font-size="10.00">IRadioVisualizer</text>
</a>
</g>
</g>
<!-- IntegratedCanvasVisualizer&#45;&gt;IRadioVisualizer -->
<g id="edge6" class="edge">
<title>IntegratedCanvasVisualizer&#45;&gt;IRadioVisualizer</title>
<path fill="none" stroke="black" d="M1853.73,-63.43C1672.8,-62.65 1201.25,-56.89 798.22,-19.05"/>
<polygon fill="black" stroke="black" points="798.4,-15.55 788.11,-18.1 797.74,-22.52 798.4,-15.55"/>
</g>
<!-- IDataLinkVisualizer -->
<g id="node8" class="node">
<title>IDataLinkVisualizer</title>
<g id="a_node8"><a xlink:href="inet.visualizer.contract.IDataLinkVisualizer.html" xlink:title="Module Interface IDataLinkVisualizer" target="_parent">
<polygon fill="#fffcaf" stroke="black" stroke-dasharray="5,2" points="917,-19 806,-19 806,0 917,0 917,-19"/>
<text text-anchor="middle" x="861.5" y="-7" font-family="Helvetica,sans-Serif" font-size="10.00">IDataLinkVisualizer</text>
</a>
</g>
</g>
<!-- IntegratedCanvasVisualizer&#45;&gt;IDataLinkVisualizer -->
<g id="edge7" class="edge">
<title>IntegratedCanvasVisualizer&#45;&gt;IDataLinkVisualizer</title>
<path fill="none" stroke="black" d="M1853.78,-62.41C1687.79,-59.53 1279.24,-49.76 927.45,-19.1"/>
<polygon fill="black" stroke="black" points="927.58,-15.6 917.32,-18.21 926.97,-22.57 927.58,-15.6"/>
</g>
<!-- IIeee80211Visualizer -->
<g id="node9" class="node">
<title>IIeee80211Visualizer</title>
<g id="a_node9"><a xlink:href="inet.visualizer.contract.IIeee80211Visualizer.html" xlink:title="Module Interface IIeee80211Visualizer" target="_parent">
<polygon fill="#fffcaf" stroke="black" stroke-dasharray="5,2" points="1054,-19 935,-19 935,0 1054,0 1054,-19"/>
<text text-anchor="middle" x="994.5" y="-7" font-family="Helvetica,sans-Serif" font-size="10.00">IIeee80211Visualizer</text>
</a>
</g>
</g>
<!-- IntegratedCanvasVisualizer&#45;&gt;IIeee80211Visualizer -->
<g id="edge8" class="edge">
<title>IntegratedCanvasVisualizer&#45;&gt;IIeee80211Visualizer</title>
<path fill="none" stroke="black" d="M1853.99,-61.48C1704.97,-57.09 1362.33,-44.99 1064.31,-19.1"/>
<polygon fill="black" stroke="black" points="1064.44,-15.6 1054.18,-18.21 1063.83,-22.57 1064.44,-15.6"/>
</g>
<!-- IPacketDropVisualizer -->
<g id="node10" class="node">
<title>IPacketDropVisualizer</title>
<g id="a_node10"><a xlink:href="inet.visualizer.contract.IPacketDropVisualizer.html" xlink:title="Module Interface IPacketDropVisualizer" target="_parent">
<polygon fill="#fffcaf" stroke="black" stroke-dasharray="5,2" points="1195,-19 1072,-19 1072,0 1195,0 1195,-19"/>
<text text-anchor="middle" x="1133.5" y="-7" font-family="Helvetica,sans-Serif" font-size="10.00">IPacketDropVisualizer</text>
</a>
</g>
</g>
<!-- IntegratedCanvasVisualizer&#45;&gt;IPacketDropVisualizer -->
<g id="edge9" class="edge">
<title>IntegratedCanvasVisualizer&#45;&gt;IPacketDropVisualizer</title>
<path fill="none" stroke="black" d="M1853.98,-60.31C1723.85,-54.48 1448.74,-40.79 1205.16,-19"/>
<polygon fill="black" stroke="black" points="1205.32,-15.5 1195.05,-18.09 1204.7,-22.47 1205.32,-15.5"/>
</g>
<!-- INetworkConnectionVisualizer -->
<g id="node11" class="node">
<title>INetworkConnectionVisualizer</title>
<g id="a_node11"><a xlink:href="inet.visualizer.contract.INetworkConnectionVisualizer.html" xlink:title="Module Interface INetworkConnectionVisualizer" target="_parent">
<polygon fill="#fffcaf" stroke="black" stroke-dasharray="5,2" points="1377.5,-19 1213.5,-19 1213.5,0 1377.5,0 1377.5,-19"/>
<text text-anchor="middle" x="1295.5" y="-7" font-family="Helvetica,sans-Serif" font-size="10.00">INetworkConnectionVisualizer</text>
</a>
</g>
</g>
<!-- IntegratedCanvasVisualizer&#45;&gt;INetworkConnectionVisualizer -->
<g id="edge10" class="edge">
<title>IntegratedCanvasVisualizer&#45;&gt;INetworkConnectionVisualizer</title>
<path fill="none" stroke="black" d="M1853.93,-57.58C1751.01,-49.46 1560.7,-34.22 1387.88,-19.11"/>
<polygon fill="black" stroke="black" points="1388.1,-15.62 1377.84,-18.23 1387.49,-22.59 1388.1,-15.62"/>
</g>
<!-- IPhysicalLinkVisualizer -->
<g id="node12" class="node">
<title>IPhysicalLinkVisualizer</title>
<g id="a_node12"><a xlink:href="inet.visualizer.contract.IPhysicalLinkVisualizer.html" xlink:title="Module Interface IPhysicalLinkVisualizer" target="_parent">
<polygon fill="#fffcaf" stroke="black" stroke-dasharray="5,2" points="1523.5,-19 1395.5,-19 1395.5,0 1523.5,0 1523.5,-19"/>
<text text-anchor="middle" x="1459.5" y="-7" font-family="Helvetica,sans-Serif" font-size="10.00">IPhysicalLinkVisualizer</text>
</a>
</g>
</g>
<!-- IntegratedCanvasVisualizer&#45;&gt;IPhysicalLinkVisualizer -->
<g id="edge11" class="edge">
<title>IntegratedCanvasVisualizer&#45;&gt;IPhysicalLinkVisualizer</title>
<path fill="none" stroke="black" d="M1853.75,-55.11C1776.12,-46.48 1651.6,-32.59 1533.87,-19.15"/>
<polygon fill="black" stroke="black" points="1533.92,-15.64 1523.59,-17.98 1533.13,-22.59 1533.92,-15.64"/>
</g>
<!-- IStreamRedundancyConfigurationVisualizer -->
<g id="node13" class="node">
<title>IStreamRedundancyConfigurationVisualizer</title>
<g id="a_node13"><a xlink:href="inet.visualizer.contract.IStreamRedundancyConfigurationVisualizer.html" xlink:title="Module Interface IStreamRedundancyConfigurationVisualizer" target="_parent">
<polygon fill="#fffcaf" stroke="black" stroke-dasharray="5,2" points="1771,-19 1542,-19 1542,0 1771,0 1771,-19"/>
<text text-anchor="middle" x="1656.5" y="-7" font-family="Helvetica,sans-Serif" font-size="10.00">IStreamRedundancyConfigurationVisualizer</text>
</a>
</g>
</g>
<!-- IntegratedCanvasVisualizer&#45;&gt;IStreamRedundancyConfigurationVisualizer -->
<g id="edge12" class="edge">
<title>IntegratedCanvasVisualizer&#45;&gt;IStreamRedundancyConfigurationVisualizer</title>
<path fill="none" stroke="black" d="M1885.64,-54.98C1838.02,-45.74 1761.92,-30.97 1710.62,-21.01"/>
<polygon fill="black" stroke="black" points="1711.19,-17.55 1700.71,-19.08 1709.86,-24.42 1711.19,-17.55"/>
</g>
<!-- IRoutingTableVisualizer -->
<g id="node14" class="node">
<title>IRoutingTableVisualizer</title>
<g id="a_node14"><a xlink:href="inet.visualizer.contract.IRoutingTableVisualizer.html" xlink:title="Module Interface IRoutingTableVisualizer" target="_parent">
<polygon fill="#fffcaf" stroke="black" stroke-dasharray="5,2" points="1920,-19 1789,-19 1789,0 1920,0 1920,-19"/>
<text text-anchor="middle" x="1854.5" y="-7" font-family="Helvetica,sans-Serif" font-size="10.00">IRoutingTableVisualizer</text>
</a>
</g>
</g>
<!-- IntegratedCanvasVisualizer&#45;&gt;IRoutingTableVisualizer -->
<g id="edge13" class="edge">
<title>IntegratedCanvasVisualizer&#45;&gt;IRoutingTableVisualizer</title>
<path fill="none" stroke="black" d="M1917.45,-54.98C1906.04,-46.92 1888.67,-34.65 1875.07,-25.03"/>
<polygon fill="black" stroke="black" points="1876.96,-22.08 1866.77,-19.17 1872.92,-27.8 1876.96,-22.08"/>
</g>
<!-- INetworkNodeVisualizer -->
<g id="node15" class="node">
<title>INetworkNodeVisualizer</title>
<g id="a_node15"><a xlink:href="inet.visualizer.contract.INetworkNodeVisualizer.html" xlink:title="Module Interface INetworkNodeVisualizer" target="_parent">
<polygon fill="#fffcaf" stroke="black" stroke-dasharray="5,2" points="2072.5,-19 1938.5,-19 1938.5,0 2072.5,0 2072.5,-19"/>
<text text-anchor="middle" x="2005.5" y="-7" font-family="Helvetica,sans-Serif" font-size="10.00">INetworkNodeVisualizer</text>
</a>
</g>
</g>
<!-- IntegratedCanvasVisualizer&#45;&gt;INetworkNodeVisualizer -->
<g id="edge14" class="edge">
<title>IntegratedCanvasVisualizer&#45;&gt;INetworkNodeVisualizer</title>
<path fill="none" stroke="black" d="M1941.71,-54.98C1953.28,-46.92 1970.88,-34.65 1984.66,-25.03"/>
<polygon fill="black" stroke="black" points="1986.87,-27.76 1993.07,-19.17 1982.86,-22.02 1986.87,-27.76"/>
</g>
<!-- IPacketFlowVisualizer -->
<g id="node16" class="node">
<title>IPacketFlowVisualizer</title>
<g id="a_node16"><a xlink:href="inet.visualizer.contract.IPacketFlowVisualizer.html" xlink:title="Module Interface IPacketFlowVisualizer" target="_parent">
<polygon fill="#fffcaf" stroke="black" stroke-dasharray="5,2" points="2214,-19 2091,-19 2091,0 2214,0 2214,-19"/>
<text text-anchor="middle" x="2152.5" y="-7" font-family="Helvetica,sans-Serif" font-size="10.00">IPacketFlowVisualizer</text>
</a>
</g>
</g>
<!-- IntegratedCanvasVisualizer&#45;&gt;IPacketFlowVisualizer -->
<g id="edge15" class="edge">
<title>IntegratedCanvasVisualizer&#45;&gt;IPacketFlowVisualizer</title>
<path fill="none" stroke="black" d="M1965.33,-54.98C2003.66,-45.87 2064.58,-31.4 2106.45,-21.45"/>
<polygon fill="black" stroke="black" points="2107.47,-24.8 2116.39,-19.08 2105.85,-17.99 2107.47,-24.8"/>
</g>
<!-- IQueueVisualizer -->
<g id="node17" class="node">
<title>IQueueVisualizer</title>
<g id="a_node17"><a xlink:href="inet.visualizer.contract.IQueueVisualizer.html" xlink:title="Module Interface IQueueVisualizer" target="_parent">
<polygon fill="#fffcaf" stroke="black" stroke-dasharray="5,2" points="2331,-19 2232,-19 2232,0 2331,0 2331,-19"/>
<text text-anchor="middle" x="2281.5" y="-7" font-family="Helvetica,sans-Serif" font-size="10.00">IQueueVisualizer</text>
</a>
</g>
</g>
<!-- IntegratedCanvasVisualizer&#45;&gt;IQueueVisualizer -->
<g id="edge16" class="edge">
<title>IntegratedCanvasVisualizer&#45;&gt;IQueueVisualizer</title>
<path fill="none" stroke="black" d="M1986.05,-54.98C2050.62,-45.26 2155.79,-29.43 2221.69,-19.51"/>
<polygon fill="black" stroke="black" points="2222.55,-22.92 2231.91,-17.97 2221.5,-15.99 2222.55,-22.92"/>
</g>
<!-- INetworkRouteVisualizer -->
<g id="node18" class="node">
<title>INetworkRouteVisualizer</title>
<g id="a_node18"><a xlink:href="inet.visualizer.contract.INetworkRouteVisualizer.html" xlink:title="Module Interface INetworkRouteVisualizer" target="_parent">
<polygon fill="#fffcaf" stroke="black" stroke-dasharray="5,2" points="2486,-19 2349,-19 2349,0 2486,0 2486,-19"/>
<text text-anchor="middle" x="2417.5" y="-7" font-family="Helvetica,sans-Serif" font-size="10.00">INetworkRouteVisualizer</text>
</a>
</g>
</g>
<!-- IntegratedCanvasVisualizer&#45;&gt;INetworkRouteVisualizer -->
<g id="edge17" class="edge">
<title>IntegratedCanvasVisualizer&#45;&gt;INetworkRouteVisualizer</title>
<path fill="none" stroke="black" d="M2005.26,-55.35C2085.47,-46.7 2216.11,-32.59 2338.36,-19.23"/>
<polygon fill="black" stroke="black" points="2339.09,-22.67 2348.65,-18.11 2338.33,-15.71 2339.09,-22.67"/>
</g>
<!-- ITransportConnectionVisualizer -->
<g id="node19" class="node">
<title>ITransportConnectionVisualizer</title>
<g id="a_node19"><a xlink:href="inet.visualizer.contract.ITransportConnectionVisualizer.html" xlink:title="Module Interface ITransportConnectionVisualizer" target="_parent">
<polygon fill="#fffcaf" stroke="black" stroke-dasharray="5,2" points="2672.5,-19 2504.5,-19 2504.5,0 2672.5,0 2672.5,-19"/>
<text text-anchor="middle" x="2588.5" y="-7" font-family="Helvetica,sans-Serif" font-size="10.00">ITransportConnectionVisualizer</text>
</a>
</g>
</g>
<!-- IntegratedCanvasVisualizer&#45;&gt;ITransportConnectionVisualizer -->
<g id="edge18" class="edge">
<title>IntegratedCanvasVisualizer&#45;&gt;ITransportConnectionVisualizer</title>
<path fill="none" stroke="black" d="M2005.05,-57.87C2111.64,-49.85 2312.52,-34.49 2494.34,-19.09"/>
<polygon fill="black" stroke="black" points="2494.69,-22.57 2504.35,-18.24 2494.09,-15.6 2494.69,-22.57"/>
</g>
<!-- ILinkBreakVisualizer -->
<g id="node20" class="node">
<title>ILinkBreakVisualizer</title>
<g id="a_node20"><a xlink:href="inet.visualizer.contract.ILinkBreakVisualizer.html" xlink:title="Module Interface ILinkBreakVisualizer" target="_parent">
<polygon fill="#fffcaf" stroke="black" stroke-dasharray="5,2" points="2806.5,-19 2690.5,-19 2690.5,0 2806.5,0 2806.5,-19"/>
<text text-anchor="middle" x="2748.5" y="-7" font-family="Helvetica,sans-Serif" font-size="10.00">ILinkBreakVisualizer</text>
</a>
</g>
</g>
<!-- IntegratedCanvasVisualizer&#45;&gt;ILinkBreakVisualizer -->
<g id="edge19" class="edge">
<title>IntegratedCanvasVisualizer&#45;&gt;ILinkBreakVisualizer</title>
<path fill="none" stroke="black" d="M2005.14,-60.7C2139.06,-55.38 2426.85,-42.3 2680.28,-19.05"/>
<polygon fill="black" stroke="black" points="2680.79,-22.52 2690.42,-18.11 2680.14,-15.55 2680.79,-22.52"/>
</g>
<!-- IMediumVisualizer -->
<g id="node21" class="node">
<title>IMediumVisualizer</title>
<g id="a_node21"><a xlink:href="inet.visualizer.contract.IMediumVisualizer.html" xlink:title="Module Interface IMediumVisualizer" target="_parent">
<polygon fill="#fffcaf" stroke="black" stroke-dasharray="5,2" points="2932,-19 2825,-19 2825,0 2932,0 2932,-19"/>
<text text-anchor="middle" x="2878.5" y="-7" font-family="Helvetica,sans-Serif" font-size="10.00">IMediumVisualizer</text>
</a>
</g>
</g>
<!-- IntegratedCanvasVisualizer&#45;&gt;IMediumVisualizer -->
<g id="edge20" class="edge">
<title>IntegratedCanvasVisualizer&#45;&gt;IMediumVisualizer</title>
<path fill="none" stroke="black" d="M2005.21,-61.84C2156.81,-58.05 2508.59,-46.9 2814.95,-18.96"/>
<polygon fill="black" stroke="black" points="2815.28,-22.44 2824.92,-18.04 2814.64,-15.47 2815.28,-22.44"/>
</g>
<!-- IInterfaceTableVisualizer -->
<g id="node22" class="node">
<title>IInterfaceTableVisualizer</title>
<g id="a_node22"><a xlink:href="inet.visualizer.contract.IInterfaceTableVisualizer.html" xlink:title="Module Interface IInterfaceTableVisualizer" target="_parent">
<polygon fill="#fffcaf" stroke="black" stroke-dasharray="5,2" points="3087,-19 2950,-19 2950,0 3087,0 3087,-19"/>
<text text-anchor="middle" x="3018.5" y="-7" font-family="Helvetica,sans-Serif" font-size="10.00">IInterfaceTableVisualizer</text>
</a>
</g>
</g>
<!-- IntegratedCanvasVisualizer&#45;&gt;IInterfaceTableVisualizer -->
<g id="edge21" class="edge">
<title>IntegratedCanvasVisualizer&#45;&gt;IInterfaceTableVisualizer</title>
<path fill="none" stroke="black" d="M2005.14,-61.88C2171.95,-57.94 2584.18,-46.16 2939.44,-19.11"/>
<polygon fill="black" stroke="black" points="2939.97,-22.58 2949.67,-18.33 2939.44,-15.6 2939.97,-22.58"/>
</g>
<!-- IEnergyStorageVisualizer -->
<g id="node23" class="node">
<title>IEnergyStorageVisualizer</title>
<g id="a_node23"><a xlink:href="inet.visualizer.contract.IEnergyStorageVisualizer.html" xlink:title="Module Interface IEnergyStorageVisualizer" target="_parent">
<polygon fill="#fffcaf" stroke="black" stroke-dasharray="5,2" points="3244,-19 3105,-19 3105,0 3244,0 3244,-19"/>
<text text-anchor="middle" x="3174.5" y="-7" font-family="Helvetica,sans-Serif" font-size="10.00">IEnergyStorageVisualizer</text>
</a>
</g>
</g>
<!-- IntegratedCanvasVisualizer&#45;&gt;IEnergyStorageVisualizer -->
<g id="edge22" class="edge">
<title>IntegratedCanvasVisualizer&#45;&gt;IEnergyStorageVisualizer</title>
<path fill="none" stroke="black" d="M2005.04,-62.46C2189.41,-59.53 2677.32,-49.38 3094.63,-19.09"/>
<polygon fill="black" stroke="black" points="3095.06,-22.56 3104.78,-18.34 3094.55,-15.58 3095.06,-22.56"/>
</g>
<!-- IFailureProtectionConfigurationVisualizer -->
<g id="node24" class="node">
<title>IFailureProtectionConfigurationVisualizer</title>
<g id="a_node24"><a xlink:href="inet.visualizer.contract.IFailureProtectionConfigurationVisualizer.html" xlink:title="Module Interface IFailureProtectionConfigurationVisualizer" target="_parent">
<polygon fill="#fffcaf" stroke="black" stroke-dasharray="5,2" points="3478.5,-19 3262.5,-19 3262.5,0 3478.5,0 3478.5,-19"/>
<text text-anchor="middle" x="3370.5" y="-7" font-family="Helvetica,sans-Serif" font-size="10.00">IFailureProtectionConfigurationVisualizer</text>
</a>
</g>
</g>
<!-- IntegratedCanvasVisualizer&#45;&gt;IFailureProtectionConfigurationVisualizer -->
<g id="edge23" class="edge">
<title>IntegratedCanvasVisualizer&#45;&gt;IFailureProtectionConfigurationVisualizer</title>
<path fill="none" stroke="black" d="M2005.3,-61.99C2206.48,-57.74 2770.88,-44.39 3252.17,-19.05"/>
<polygon fill="black" stroke="black" points="3252.66,-22.53 3262.46,-18.5 3252.29,-15.54 3252.66,-22.53"/>
</g>
<!-- ITransportRouteVisualizer -->
<g id="node25" class="node">
<title>ITransportRouteVisualizer</title>
<g id="a_node25"><a xlink:href="inet.visualizer.contract.ITransportRouteVisualizer.html" xlink:title="Module Interface ITransportRouteVisualizer" target="_parent">
<polygon fill="#fffcaf" stroke="black" stroke-dasharray="5,2" points="3638.5,-19 3496.5,-19 3496.5,0 3638.5,0 3638.5,-19"/>
<text text-anchor="middle" x="3567.5" y="-7" font-family="Helvetica,sans-Serif" font-size="10.00">ITransportRouteVisualizer</text>
</a>
</g>
</g>
<!-- IntegratedCanvasVisualizer&#45;&gt;ITransportRouteVisualizer -->
<g id="edge24" class="edge">
<title>IntegratedCanvasVisualizer&#45;&gt;ITransportRouteVisualizer</title>
<path fill="none" stroke="black" d="M2005.39,-63.41C2229.94,-62.69 2910.8,-57.34 3486.26,-19.02"/>
<polygon fill="black" stroke="black" points="3486.68,-22.5 3496.42,-18.34 3486.21,-15.52 3486.68,-22.5"/>
</g>
<!-- IPhysicalEnvironmentVisualizer -->
<g id="node26" class="node">
<title>IPhysicalEnvironmentVisualizer</title>
<g id="a_node26"><a xlink:href="inet.visualizer.contract.IPhysicalEnvironmentVisualizer.html" xlink:title="Module Interface IPhysicalEnvironmentVisualizer" target="_parent">
<polygon fill="#fffcaf" stroke="black" stroke-dasharray="5,2" points="3826.5,-19 3656.5,-19 3656.5,0 3826.5,0 3826.5,-19"/>
<text text-anchor="middle" x="3741.5" y="-7" font-family="Helvetica,sans-Serif" font-size="10.00">IPhysicalEnvironmentVisualizer</text>
</a>
</g>
</g>
<!-- IntegratedCanvasVisualizer&#45;&gt;IPhysicalEnvironmentVisualizer -->
<g id="edge25" class="edge">
<title>IntegratedCanvasVisualizer&#45;&gt;IPhysicalEnvironmentVisualizer</title>
<path fill="none" stroke="black" d="M2005.35,-63.27C2244.65,-62.19 3005.2,-55.91 3646.09,-19.04"/>
<polygon fill="black" stroke="black" points="3646.68,-22.51 3656.46,-18.44 3646.28,-15.52 3646.68,-22.51"/>
</g>
<!-- ISceneVisualizer -->
<g id="node27" class="node">
<title>ISceneVisualizer</title>
<g id="a_node27"><a xlink:href="inet.visualizer.contract.ISceneVisualizer.html" xlink:title="Module Interface ISceneVisualizer" target="_parent">
<polygon fill="#fffcaf" stroke="black" stroke-dasharray="5,2" points="3942,-19 3845,-19 3845,0 3942,0 3942,-19"/>
<text text-anchor="middle" x="3893.5" y="-7" font-family="Helvetica,sans-Serif" font-size="10.00">ISceneVisualizer</text>
</a>
</g>
</g>
<!-- IntegratedCanvasVisualizer&#45;&gt;ISceneVisualizer -->
<g id="edge26" class="edge">
<title>IntegratedCanvasVisualizer&#45;&gt;ISceneVisualizer</title>
<path fill="none" stroke="black" d="M2005.16,-62.97C2310.07,-60.64 3450.36,-50.07 3834.77,-18.91"/>
<polygon fill="black" stroke="black" points="3835.14,-22.39 3844.82,-18.08 3834.56,-15.41 3835.14,-22.39"/>
</g>
<!-- BgpNetwork -->
<g id="node28" class="node">
<title>BgpNetwork</title>
<g id="a_node28"><a xlink:href="inet.examples.bgpv4.BgpUpdate.BgpNetwork.html" xlink:title="Network BgpNetwork" target="_parent">
<polygon fill="#d0d0ff" stroke="black" points="1470,-129 1393,-129 1393,-110 1470,-110 1470,-129"/>
<text text-anchor="middle" x="1431.5" y="-117" font-family="Helvetica,sans-Serif" font-size="10.00">BgpNetwork</text>
</a>
</g>
</g>
<!-- BgpNetwork&#45;&gt;IntegratedCanvasVisualizer -->
<g id="edge27" class="edge">
<title>BgpNetwork&#45;&gt;IntegratedCanvasVisualizer</title>
<path fill="none" stroke="black" d="M1424.79,-109.96C1568.61,-89.91 1739.39,-75.66 1843.7,-69.27"/>
<polygon fill="black" stroke="black" points="1844.13,-72.75 1853.9,-68.65 1843.71,-65.76 1844.13,-72.75"/>
</g>
<!-- BgpNetwork&#45;&gt;IntegratedCanvasVisualizer -->
<g id="edge28" class="edge">
<title>BgpNetwork&#45;&gt;IntegratedCanvasVisualizer</title>
<path fill="none" stroke="black" d="M1442.79,-109.96C1581.24,-90.65 1744.67,-76.73 1843.72,-70.01"/>
<polygon fill="black" stroke="black" points="1844.25,-73.49 1853.99,-69.33 1843.78,-66.5 1844.25,-73.49"/>
</g>
<!-- BgpNetwork&#45;&gt;IntegratedCanvasVisualizer -->
<g id="edge29" class="edge">
<title>BgpNetwork&#45;&gt;IntegratedCanvasVisualizer</title>
<path fill="none" stroke="black" d="M1460.79,-109.96C1593.46,-91.46 1749.07,-77.9 1843.69,-70.89"/>
<polygon fill="black" stroke="black" points="1844.07,-74.37 1853.78,-70.15 1843.55,-67.39 1844.07,-74.37"/>
</g>
<!-- BgpNetwork&#45;&gt;IntegratedCanvasVisualizer -->
<g id="edge30" class="edge">
<title>BgpNetwork&#45;&gt;IntegratedCanvasVisualizer</title>
<path fill="none" stroke="black" d="M1470.19,-111.25C1473,-110.8 1475.79,-110.38 1478.5,-110 1605.25,-92.32 1752.99,-79.14 1843.89,-71.88"/>
<polygon fill="black" stroke="black" points="1844.18,-75.37 1853.87,-71.09 1843.62,-68.39 1844.18,-75.37"/>
</g>
<!-- BgpNetwork&#45;&gt;IntegratedCanvasVisualizer -->
<g id="edge31" class="edge">
<title>BgpNetwork&#45;&gt;IntegratedCanvasVisualizer</title>
<path fill="none" stroke="black" d="M1470.1,-114.2C1479.14,-112.72 1488.21,-111.16 1496.5,-110 1616.8,-93.21 1756.03,-80.49 1843.66,-73.03"/>
<polygon fill="black" stroke="black" points="1844.15,-76.5 1853.82,-72.17 1843.56,-69.53 1844.15,-76.5"/>
</g>
<!-- BgpNetwork&#45;&gt;IntegratedCanvasVisualizer -->
<g id="edge32" class="edge">
<title>BgpNetwork&#45;&gt;IntegratedCanvasVisualizer</title>
<path fill="none" stroke="black" d="M1470.08,-116.37C1487.41,-114.48 1501.85,-111.76 1514.5,-110 1628.32,-94.12 1759.07,-81.87 1843.7,-74.29"/>
<polygon fill="black" stroke="black" points="1844.14,-77.76 1853.79,-73.38 1843.51,-70.79 1844.14,-77.76"/>
</g>
<!-- BgpNetwork&#45;&gt;IntegratedCanvasVisualizer -->
<g id="edge33" class="edge">
<title>BgpNetwork&#45;&gt;IntegratedCanvasVisualizer</title>
<path fill="none" stroke="black" d="M1470.46,-117.39C1499.53,-115.61 1517.31,-112.12 1532.5,-110 1642.91,-94.59 1769.26,-82.61 1850.93,-74.98"/>
<polygon fill="black" stroke="black" points="1851.52,-78.44 1861.15,-74.02 1850.87,-71.47 1851.52,-78.44"/>
</g>
<!-- CoexistenceShowcase -->
<g id="node29" class="node">
<title>CoexistenceShowcase</title>
<g id="a_node29"><a xlink:href="inet.showcases.wireless.coexistence.CoexistenceShowcase.html" xlink:title="Network CoexistenceShowcase" target="_parent">
<polygon fill="#d0d0ff" stroke="black" points="1613,-129 1488,-129 1488,-110 1613,-110 1613,-129"/>
<text text-anchor="middle" x="1550.5" y="-117" font-family="Helvetica,sans-Serif" font-size="10.00">CoexistenceShowcase</text>
</a>
</g>
</g>
<!-- CoexistenceShowcase&#45;&gt;IntegratedCanvasVisualizer -->
<g id="edge34" class="edge">
<title>CoexistenceShowcase&#45;&gt;IntegratedCanvasVisualizer</title>
<path fill="none" stroke="black" d="M1611.39,-109.98C1678.7,-100.57 1787,-85.43 1858.22,-75.47"/>
<polygon fill="black" stroke="black" points="1859.03,-78.89 1868.44,-74.04 1858.06,-71.96 1859.03,-78.89"/>
</g>
<!-- ConfiguratorA -->
<g id="node30" class="node">
<title>ConfiguratorA</title>
<g id="a_node30"><a xlink:href="inet.tutorials.configurator.ConfiguratorA.html" xlink:title="Network ConfiguratorA" target="_parent">
<polygon fill="#d0d0ff" stroke="black" points="1715.5,-129 1631.5,-129 1631.5,-110 1715.5,-110 1715.5,-129"/>
<text text-anchor="middle" x="1673.5" y="-117" font-family="Helvetica,sans-Serif" font-size="10.00">ConfiguratorA</text>
</a>
</g>
</g>
<!-- ConfiguratorA&#45;&gt;IntegratedCanvasVisualizer -->
<g id="edge35" class="edge">
<title>ConfiguratorA&#45;&gt;IntegratedCanvasVisualizer</title>
<path fill="none" stroke="black" d="M1714.63,-109.98C1759.1,-100.78 1830.05,-86.09 1878.15,-76.13"/>
<polygon fill="black" stroke="black" points="1878.96,-79.54 1888.05,-74.08 1877.54,-72.68 1878.96,-79.54"/>
</g>
<!-- ConfiguratorB -->
<g id="node31" class="node">
<title>ConfiguratorB</title>
<g id="a_node31"><a xlink:href="inet.tutorials.configurator.ConfiguratorB.html" xlink:title="Network ConfiguratorB" target="_parent">
<polygon fill="#d0d0ff" stroke="black" points="1817.5,-129 1733.5,-129 1733.5,-110 1817.5,-110 1817.5,-129"/>
<text text-anchor="middle" x="1775.5" y="-117" font-family="Helvetica,sans-Serif" font-size="10.00">ConfiguratorB</text>
</a>
</g>
</g>
<!-- ConfiguratorB&#45;&gt;IntegratedCanvasVisualizer -->
<g id="edge36" class="edge">
<title>ConfiguratorB&#45;&gt;IntegratedCanvasVisualizer</title>
<path fill="none" stroke="black" d="M1800.24,-109.98C1825.87,-101.16 1866.13,-87.31 1894.91,-77.41"/>
<polygon fill="black" stroke="black" points="1896.25,-80.65 1904.56,-74.08 1893.97,-74.03 1896.25,-80.65"/>
</g>
<!-- ConfiguratorD -->
<g id="node32" class="node">
<title>ConfiguratorD</title>
<g id="a_node32"><a xlink:href="inet.tutorials.configurator.ConfiguratorD.html" xlink:title="Network ConfiguratorD" target="_parent">
<polygon fill="#d0d0ff" stroke="black" points="1921,-129 1836,-129 1836,-110 1921,-110 1921,-129"/>
<text text-anchor="middle" x="1878.5" y="-117" font-family="Helvetica,sans-Serif" font-size="10.00">ConfiguratorD</text>
</a>
</g>
</g>
<!-- ConfiguratorD&#45;&gt;IntegratedCanvasVisualizer -->
<g id="edge37" class="edge">
<title>ConfiguratorD&#45;&gt;IntegratedCanvasVisualizer</title>
<path fill="none" stroke="black" d="M1886.92,-109.75C1894.27,-102.11 1905.13,-90.82 1914.04,-81.56"/>
<polygon fill="black" stroke="black" points="1916.82,-83.72 1921.24,-74.09 1911.78,-78.87 1916.82,-83.72"/>
</g>
<!-- ConfiguratorE -->
<g id="node33" class="node">
<title>ConfiguratorE</title>
<g id="a_node33"><a xlink:href="inet.tutorials.configurator.ConfiguratorE.html" xlink:title="Network ConfiguratorE" target="_parent">
<polygon fill="#d0d0ff" stroke="black" points="2022,-129 1939,-129 1939,-110 2022,-110 2022,-129"/>
<text text-anchor="middle" x="1980.5" y="-117" font-family="Helvetica,sans-Serif" font-size="10.00">ConfiguratorE</text>
</a>
</g>
</g>
<!-- ConfiguratorE&#45;&gt;IntegratedCanvasVisualizer -->
<g id="edge38" class="edge">
<title>ConfiguratorE&#45;&gt;IntegratedCanvasVisualizer</title>
<path fill="none" stroke="black" d="M1972.08,-109.75C1964.73,-102.11 1953.87,-90.82 1944.96,-81.56"/>
<polygon fill="black" stroke="black" points="1947.22,-78.87 1937.76,-74.09 1942.18,-83.72 1947.22,-78.87"/>
</g>
<!-- ErrorRateShowcase -->
<g id="node34" class="node">
<title>ErrorRateShowcase</title>
<g id="a_node34"><a xlink:href="inet.showcases.wireless.errorrate.ErrorRateShowcase.html" xlink:title="Network ErrorRateShowcase" target="_parent">
<polygon fill="#d0d0ff" stroke="black" points="2151,-129 2040,-129 2040,-110 2151,-110 2151,-129"/>
<text text-anchor="middle" x="2095.5" y="-117" font-family="Helvetica,sans-Serif" font-size="10.00">ErrorRateShowcase</text>
</a>
</g>
</g>
<!-- ErrorRateShowcase&#45;&gt;IntegratedCanvasVisualizer -->
<g id="edge39" class="edge">
<title>ErrorRateShowcase&#45;&gt;IntegratedCanvasVisualizer</title>
<path fill="none" stroke="black" d="M2068.83,-109.98C2040.96,-101.09 1997.05,-87.07 1965.98,-77.15"/>
<polygon fill="black" stroke="black" points="1966.97,-73.79 1956.38,-74.08 1964.84,-80.46 1966.97,-73.79"/>
</g>
<!-- FilteringExampleNetwork -->
<g id="node35" class="node">
<title>FilteringExampleNetwork</title>
<g id="a_node35"><a xlink:href="inet.examples.wireless.filtering.FilteringExampleNetwork.html" xlink:title="Network FilteringExampleNetwork" target="_parent">
<polygon fill="#d0d0ff" stroke="black" points="2309.5,-129 2169.5,-129 2169.5,-110 2309.5,-110 2309.5,-129"/>
<text text-anchor="middle" x="2239.5" y="-117" font-family="Helvetica,sans-Serif" font-size="10.00">FilteringExampleNetwork</text>
</a>
</g>
</g>
<!-- FilteringExampleNetwork&#45;&gt;IntegratedCanvasVisualizer -->
<g id="edge40" class="edge">
<title>FilteringExampleNetwork&#45;&gt;IntegratedCanvasVisualizer</title>
<path fill="none" stroke="black" d="M2189.69,-109.98C2135.2,-100.67 2047.87,-85.74 1989.61,-75.78"/>
<polygon fill="black" stroke="black" points="1989.89,-72.27 1979.44,-74.04 1988.71,-79.17 1989.89,-72.27"/>
</g>
<!-- HandoverShowcase -->
<g id="node36" class="node">
<title>HandoverShowcase</title>
<g id="a_node36"><a xlink:href="inet.showcases.wireless.handover.HandoverShowcase.html" xlink:title="Network HandoverShowcase" target="_parent">
<polygon fill="#d0d0ff" stroke="black" points="2441,-129 2328,-129 2328,-110 2441,-110 2441,-129"/>
<text text-anchor="middle" x="2384.5" y="-117" font-family="Helvetica,sans-Serif" font-size="10.00">HandoverShowcase</text>
</a>
</g>
</g>
<!-- HandoverShowcase&#45;&gt;IntegratedCanvasVisualizer -->
<g id="edge41" class="edge">
<title>HandoverShowcase&#45;&gt;IntegratedCanvasVisualizer</title>
<path fill="none" stroke="black" d="M2327.98,-111.17C2324.77,-110.77 2321.6,-110.38 2318.5,-110 2214.37,-97.34 2094.42,-83.77 2015.57,-74.99"/>
<polygon fill="black" stroke="black" points="2015.53,-71.47 2005.2,-73.84 2014.75,-78.42 2015.53,-71.47"/>
</g>
<!-- HiddenNodeShowcase -->
<g id="node37" class="node">
<title>HiddenNodeShowcase</title>
<g id="a_node37"><a xlink:href="inet.showcases.wireless.hiddennode.HiddenNodeShowcase.html" xlink:title="Network HiddenNodeShowcase" target="_parent">
<polygon fill="#d0d0ff" stroke="black" points="2584,-129 2459,-129 2459,-110 2584,-110 2584,-129"/>
<text text-anchor="middle" x="2521.5" y="-117" font-family="Helvetica,sans-Serif" font-size="10.00">HiddenNodeShowcase</text>
</a>
</g>
</g>
<!-- HiddenNodeShowcase&#45;&gt;IntegratedCanvasVisualizer -->
<g id="edge42" class="edge">
<title>HiddenNodeShowcase&#45;&gt;IntegratedCanvasVisualizer</title>
<path fill="none" stroke="black" d="M2458.79,-110.88C2455.99,-110.57 2453.22,-110.28 2450.5,-110 2297.34,-94.3 2118.44,-79.87 2015.14,-71.92"/>
<polygon fill="black" stroke="black" points="2015.31,-68.42 2005.07,-71.15 2014.77,-75.4 2015.31,-68.42"/>
</g>
<!-- Ieee80211LevelofDetailShowcase -->
<g id="node38" class="node">
<title>Ieee80211LevelofDetailShowcase</title>
<g id="a_node38"><a xlink:href="inet.examples.wireless.ieee80211levelofdetail.Ieee80211LevelofDetailShowcase.html" xlink:title="Network Ieee80211LevelofDetailShowcase" target="_parent">
<polygon fill="#d0d0ff" stroke="black" points="2784.5,-129 2602.5,-129 2602.5,-110 2784.5,-110 2784.5,-129"/>
<text text-anchor="middle" x="2693.5" y="-117" font-family="Helvetica,sans-Serif" font-size="10.00">Ieee80211LevelofDetailShowcase</text>
</a>
</g>
</g>
<!-- Ieee80211LevelofDetailShowcase&#45;&gt;IntegratedCanvasVisualizer -->
<g id="edge43" class="edge">
<title>Ieee80211LevelofDetailShowcase&#45;&gt;IntegratedCanvasVisualizer</title>
<path fill="none" stroke="black" d="M2602.49,-110.69C2599.46,-110.46 2596.45,-110.22 2593.5,-110 2385.99,-94.23 2141.77,-78.62 2015.23,-70.75"/>
<polygon fill="black" stroke="black" points="2015.41,-67.26 2005.21,-70.13 2014.98,-74.25 2015.41,-67.26"/>
</g>
<!-- MobileNetwork -->
<g id="node39" class="node">
<title>MobileNetwork</title>
<g id="a_node39"><a xlink:href="inet.examples.mobility.MobileNetwork.html" xlink:title="Network MobileNetwork" target="_parent">
<polygon fill="#d0d0ff" stroke="black" points="2894,-129 2803,-129 2803,-110 2894,-110 2894,-129"/>
<text text-anchor="middle" x="2848.5" y="-117" font-family="Helvetica,sans-Serif" font-size="10.00">MobileNetwork</text>
</a>
</g>
</g>
<!-- MobileNetwork&#45;&gt;IntegratedCanvasVisualizer -->
<g id="edge44" class="edge">
<title>MobileNetwork&#45;&gt;IntegratedCanvasVisualizer</title>
<path fill="none" stroke="black" d="M2802.93,-111.09C2799.74,-110.69 2796.58,-110.32 2793.5,-110 2509.6,-80.83 2171.16,-70.45 2015.54,-67.03"/>
<polygon fill="black" stroke="black" points="2015.18,-63.52 2005.11,-66.81 2015.03,-70.52 2015.18,-63.52"/>
</g>
<!-- MobileNetworkWithEnvironment -->
<g id="node40" class="node">
<title>MobileNetworkWithEnvironment</title>
<g id="a_node40"><a xlink:href="inet.examples.mobility.MobileNetworkWithEnvironment.html" xlink:title="Network MobileNetworkWithEnvironment" target="_parent">
<polygon fill="#d0d0ff" stroke="black" points="3088.5,-129 2912.5,-129 2912.5,-110 3088.5,-110 3088.5,-129"/>
<text text-anchor="middle" x="3000.5" y="-117" font-family="Helvetica,sans-Serif" font-size="10.00">MobileNetworkWithEnvironment</text>
</a>
</g>
</g>
<!-- MobileNetworkWithEnvironment&#45;&gt;IntegratedCanvasVisualizer -->
<g id="edge45" class="edge">
<title>MobileNetworkWithEnvironment&#45;&gt;IntegratedCanvasVisualizer</title>
<path fill="none" stroke="black" d="M2912.48,-110.63C2909.45,-110.41 2906.45,-110.2 2903.5,-110 2575.57,-88.15 2184.8,-73.85 2015.14,-68.21"/>
<polygon fill="black" stroke="black" points="2015.14,-64.71 2005.03,-67.88 2014.9,-71.7 2015.14,-64.71"/>
</g>
<!-- OpenStreetMapExample -->
<g id="node41" class="node">
<title>OpenStreetMapExample</title>
<g id="a_node41"><a xlink:href="inet.examples.openstreetmap.OpenStreetMapExample.html" xlink:title="Network OpenStreetMapExample" target="_parent">
<polygon fill="#d0d0ff" stroke="black" points="3242,-129 3107,-129 3107,-110 3242,-110 3242,-129"/>
<text text-anchor="middle" x="3174.5" y="-117" font-family="Helvetica,sans-Serif" font-size="10.00">OpenStreetMapExample</text>
</a>
</g>
</g>
<!-- OpenStreetMapExample&#45;&gt;IntegratedCanvasVisualizer -->
<g id="edge46" class="edge">
<title>OpenStreetMapExample&#45;&gt;IntegratedCanvasVisualizer</title>
<path fill="none" stroke="black" d="M3106.92,-110.76C3103.74,-110.48 3100.58,-110.23 3097.5,-110 2693.17,-80.02 2208.51,-69.73 2015.2,-66.66"/>
<polygon fill="black" stroke="black" points="2015.16,-63.16 2005.1,-66.5 2015.05,-70.16 2015.16,-63.16"/>
</g>
<!-- PowerConsumptionShowcase -->
<g id="node42" class="node">
<title>PowerConsumptionShowcase</title>
<g id="a_node42"><a xlink:href="inet.showcases.wireless.power.PowerConsumptionShowcase.html" xlink:title="Network PowerConsumptionShowcase" target="_parent">
<polygon fill="#d0d0ff" stroke="black" points="3420.5,-129 3260.5,-129 3260.5,-110 3420.5,-110 3420.5,-129"/>
<text text-anchor="middle" x="3340.5" y="-117" font-family="Helvetica,sans-Serif" font-size="10.00">PowerConsumptionShowcase</text>
</a>
</g>
</g>
<!-- PowerConsumptionShowcase&#45;&gt;IntegratedCanvasVisualizer -->
<g id="edge47" class="edge">
<title>PowerConsumptionShowcase&#45;&gt;IntegratedCanvasVisualizer</title>
<path fill="none" stroke="black" d="M3260.47,-110.62C3257.44,-110.4 3254.44,-110.19 3251.5,-110 2785.61,-79.94 2225.97,-69.56 2015.29,-66.56"/>
<polygon fill="black" stroke="black" points="2015.27,-63.06 2005.22,-66.42 2015.17,-70.06 2015.27,-63.06"/>
</g>
<!-- RateControlShowcase -->
<g id="node43" class="node">
<title>RateControlShowcase</title>
<g id="a_node43"><a xlink:href="inet.showcases.wireless.ratecontrol.RateControlShowcase.html" xlink:title="Network RateControlShowcase" target="_parent">
<polygon fill="#d0d0ff" stroke="black" points="3562,-129 3439,-129 3439,-110 3562,-110 3562,-129"/>
<text text-anchor="middle" x="3500.5" y="-117" font-family="Helvetica,sans-Serif" font-size="10.00">RateControlShowcase</text>
</a>
</g>
</g>
<!-- RateControlShowcase&#45;&gt;IntegratedCanvasVisualizer -->
<g id="edge48" class="edge">
<title>RateControlShowcase&#45;&gt;IntegratedCanvasVisualizer</title>
<path fill="none" stroke="black" d="M3438.96,-110.79C3435.76,-110.5 3432.6,-110.23 3429.5,-110 2892.8,-69.99 2245.55,-65.58 2015.63,-65.36"/>
<polygon fill="black" stroke="black" points="2015.33,-61.86 2005.33,-65.35 2015.32,-68.86 2015.33,-61.86"/>
</g>
</g>
</svg>
