<?xml version="1.0" encoding="UTF-8" standalone="no"?>
<!DOCTYPE svg PUBLIC "-//W3C//DTD SVG 1.1//EN"
 "http://www.w3.org/Graphics/SVG/1.1/DTD/svg11.dtd">
<!-- Generated by graphviz version 2.43.0 (0)
 -->
<!-- Title: opp Pages: 1 -->
<svg width="557pt" height="82pt"
 viewBox="0.00 0.00 557.00 82.00" xmlns="http://www.w3.org/2000/svg" xmlns:xlink="http://www.w3.org/1999/xlink">
<g id="graph0" class="graph" transform="scale(1 1) rotate(0) translate(4 78)">
<title>opp</title>
<polygon fill="transparent" stroke="transparent" points="-4,4 -4,-78 553,-78 553,4 -4,4"/>
<!-- NetworkPathMobileShowcase -->
<g id="node1" class="node">
<title>NetworkPathMobileShowcase</title>
<g id="a_node1"><a xlink:href="inet.showcases.visualizer.canvas.networkpathactivity.NetworkPathMobileShowcase.html" xlink:title="Network NetworkPathMobileShowcase" target="_parent">
<polygon fill="#9090ff" stroke="black" points="375.5,-74 214.5,-74 214.5,-55 375.5,-55 375.5,-74"/>
<text text-anchor="middle" x="295" y="-62" font-family="Helvetica,sans-Serif" font-size="10.00">NetworkPathMobileShowcase</text>
</a>
</g>
</g>
<!-- Ipv4NetworkConfigurator -->
<g id="node2" class="node">
<title>Ipv4NetworkConfigurator</title>
<g id="a_node2"><a xlink:href="inet.networklayer.configurator.ipv4.Ipv4NetworkConfigurator.html" xlink:title="Simple Module Ipv4NetworkConfigurator" target="_parent">
<polygon fill="#fffcaf" stroke="black" points="140,-19 0,-19 0,0 140,0 140,-19"/>
<text text-anchor="middle" x="70" y="-7" font-family="Helvetica,sans-Serif" font-size="10.00">Ipv4NetworkConfigurator</text>
</a>
</g>
</g>
<!-- NetworkPathMobileShowcase&#45;&gt;Ipv4NetworkConfigurator -->
<g id="edge1" class="edge">
<title>NetworkPathMobileShowcase&#45;&gt;Ipv4NetworkConfigurator</title>
<path fill="none" stroke="black" d="M258.85,-54.98C220.09,-45.86 158.45,-31.33 116.2,-21.38"/>
<polygon fill="black" stroke="black" points="116.97,-17.97 106.43,-19.08 115.36,-24.78 116.97,-17.97"/>
</g>
<!-- IntegratedVisualizer -->
<g id="node3" class="node">
<title>IntegratedVisualizer</title>
<g id="a_node3"><a xlink:href="inet.visualizer.common.IntegratedVisualizer.html" xlink:title="Compound Module IntegratedVisualizer" target="_parent">
<polygon fill="#fffcaf" stroke="black" points="273.5,-19 158.5,-19 158.5,0 273.5,0 273.5,-19"/>
<text text-anchor="middle" x="216" y="-7" font-family="Helvetica,sans-Serif" font-size="10.00">IntegratedVisualizer</text>
</a>
</g>
</g>
<!-- NetworkPathMobileShowcase&#45;&gt;IntegratedVisualizer -->
<g id="edge2" class="edge">
<title>NetworkPathMobileShowcase&#45;&gt;IntegratedVisualizer</title>
<path fill="none" stroke="black" d="M282.31,-54.98C270.17,-46.84 251.64,-34.41 237.25,-24.76"/>
<polygon fill="black" stroke="black" points="239.18,-21.84 228.92,-19.17 235.28,-27.65 239.18,-21.84"/>
</g>
<!-- Ieee80211ScalarRadioMedium -->
<g id="node4" class="node">
<title>Ieee80211ScalarRadioMedium</title>
<g id="a_node4"><a xlink:href="inet.physicallayer.wireless.ieee80211.packetlevel.Ieee80211ScalarRadioMedium.html" xlink:title="Compound Module Ieee80211ScalarRadioMedium" target="_parent">
<polygon fill="#fffcaf" stroke="black" points="456.5,-19 291.5,-19 291.5,0 456.5,0 456.5,-19"/>
<text text-anchor="middle" x="374" y="-7" font-family="Helvetica,sans-Serif" font-size="10.00">Ieee80211ScalarRadioMedium</text>
</a>
</g>
</g>
<!-- NetworkPathMobileShowcase&#45;&gt;Ieee80211ScalarRadioMedium -->
<g id="edge3" class="edge">
<title>NetworkPathMobileShowcase&#45;&gt;Ieee80211ScalarRadioMedium</title>
<path fill="none" stroke="black" d="M307.69,-54.98C319.83,-46.84 338.36,-34.41 352.75,-24.76"/>
<polygon fill="black" stroke="black" points="354.72,-27.65 361.08,-19.17 350.82,-21.84 354.72,-27.65"/>
</g>
<!-- AodvRouter -->
<g id="node5" class="node">
<title>AodvRouter</title>
<g id="a_node5"><a xlink:href="inet.node.aodv.AodvRouter.html" xlink:title="Compound Module AodvRouter" target="_parent">
<polygon fill="#fffcaf" stroke="black" points="549,-19 475,-19 475,0 549,0 549,-19"/>
<text text-anchor="middle" x="512" y="-7" font-family="Helvetica,sans-Serif" font-size="10.00">AodvRouter</text>
</a>
</g>
</g>
<!-- NetworkPathMobileShowcase&#45;&gt;AodvRouter -->
<g id="edge4" class="edge">
<title>NetworkPathMobileShowcase&#45;&gt;AodvRouter</title>
<path fill="none" stroke="black" d="M329.86,-54.98C367.09,-45.89 426.2,-31.46 466.93,-21.51"/>
<polygon fill="black" stroke="black" points="467.98,-24.85 476.86,-19.08 466.32,-18.05 467.98,-24.85"/>
</g>
</g>
</svg>
