<?xml version="1.0" encoding="UTF-8" standalone="no"?>
<!DOCTYPE svg PUBLIC "-//W3C//DTD SVG 1.1//EN"
 "http://www.w3.org/Graphics/SVG/1.1/DTD/svg11.dtd">
<!-- Generated by graphviz version 2.43.0 (0)
 -->
<!-- Title: opp Pages: 1 -->
<svg width="435pt" height="82pt"
 viewBox="0.00 0.00 434.50 82.00" xmlns="http://www.w3.org/2000/svg" xmlns:xlink="http://www.w3.org/1999/xlink">
<g id="graph0" class="graph" transform="scale(1 1) rotate(0) translate(4 78)">
<title>opp</title>
<polygon fill="transparent" stroke="transparent" points="-4,4 -4,-78 430.5,-78 430.5,4 -4,4"/>
<!-- Gate2TutorialStep -->
<g id="node1" class="node">
<title>Gate2TutorialStep</title>
<g id="a_node1"><a xlink:href="inet.tutorials.queueing.Gate2TutorialStep.html" xlink:title="Network Gate2TutorialStep" target="_parent">
<polygon fill="#9090ff" stroke="black" points="243,-74 139,-74 139,-55 243,-55 243,-74"/>
<text text-anchor="middle" x="191" y="-62" font-family="Helvetica,sans-Serif" font-size="10.00">Gate2TutorialStep</text>
</a>
</g>
</g>
<!-- IdealChannel -->
<g id="node2" class="node">
<title>IdealChannel</title>
<g id="a_node2"><a xlink:href="ned.IdealChannel.html" xlink:title="Channel IdealChannel" target="_parent">
<polygon fill="#d0ffd0" stroke="black" points="80,-19 0,-19 0,0 80,0 80,-19"/>
<text text-anchor="middle" x="40" y="-7" font-family="Helvetica,sans-Serif" font-size="10.00">IdealChannel</text>
</a>
</g>
</g>
<!-- Gate2TutorialStep&#45;&gt;IdealChannel -->
<g id="edge1" class="edge">
<title>Gate2TutorialStep&#45;&gt;IdealChannel</title>
<path fill="none" stroke="black" d="M166.74,-54.98C141.68,-46.19 102.37,-32.39 74.17,-22.49"/>
<polygon fill="black" stroke="black" points="75.3,-19.18 64.7,-19.17 72.98,-25.78 75.3,-19.18"/>
</g>
<!-- PacketGate -->
<g id="node3" class="node">
<title>PacketGate</title>
<g id="a_node3"><a xlink:href="inet.queueing.gate.PacketGate.html" xlink:title="Simple Module PacketGate" target="_parent">
<polygon fill="#fffcaf" stroke="black" points="170,-19 98,-19 98,0 170,0 170,-19"/>
<text text-anchor="middle" x="134" y="-7" font-family="Helvetica,sans-Serif" font-size="10.00">PacketGate</text>
</a>
</g>
</g>
<!-- Gate2TutorialStep&#45;&gt;PacketGate -->
<g id="edge2" class="edge">
<title>Gate2TutorialStep&#45;&gt;PacketGate</title>
<path fill="none" stroke="black" d="M181.84,-54.98C173.5,-47.23 160.97,-35.58 150.82,-26.14"/>
<polygon fill="black" stroke="black" points="153.03,-23.42 143.32,-19.17 148.26,-28.54 153.03,-23.42"/>
</g>
<!-- PassivePacketSource -->
<g id="node4" class="node">
<title>PassivePacketSource</title>
<g id="a_node4"><a xlink:href="inet.queueing.source.PassivePacketSource.html" xlink:title="Simple Module PassivePacketSource" target="_parent">
<polygon fill="#fffcaf" stroke="black" points="307.5,-19 188.5,-19 188.5,0 307.5,0 307.5,-19"/>
<text text-anchor="middle" x="248" y="-7" font-family="Helvetica,sans-Serif" font-size="10.00">PassivePacketSource</text>
</a>
</g>
</g>
<!-- Gate2TutorialStep&#45;&gt;PassivePacketSource -->
<g id="edge3" class="edge">
<title>Gate2TutorialStep&#45;&gt;PassivePacketSource</title>
<path fill="none" stroke="black" d="M200.16,-54.98C208.5,-47.23 221.03,-35.58 231.18,-26.14"/>
<polygon fill="black" stroke="black" points="233.74,-28.54 238.68,-19.17 228.97,-23.42 233.74,-28.54"/>
</g>
<!-- ActivePacketSink -->
<g id="node5" class="node">
<title>ActivePacketSink</title>
<g id="a_node5"><a xlink:href="inet.queueing.sink.ActivePacketSink.html" xlink:title="Simple Module ActivePacketSink" target="_parent">
<polygon fill="#fffcaf" stroke="black" points="426.5,-19 325.5,-19 325.5,0 426.5,0 426.5,-19"/>
<text text-anchor="middle" x="376" y="-7" font-family="Helvetica,sans-Serif" font-size="10.00">ActivePacketSink</text>
</a>
</g>
</g>
<!-- Gate2TutorialStep&#45;&gt;ActivePacketSink -->
<g id="edge4" class="edge">
<title>Gate2TutorialStep&#45;&gt;ActivePacketSink</title>
<path fill="none" stroke="black" d="M220.72,-54.98C252.05,-46.01 301.57,-31.82 336.24,-21.89"/>
<polygon fill="black" stroke="black" points="337.39,-25.2 346.04,-19.08 335.47,-18.47 337.39,-25.2"/>
</g>
</g>
</svg>
