<?xml version="1.0" encoding="UTF-8" standalone="no"?>
<!DOCTYPE svg PUBLIC "-//W3C//DTD SVG 1.1//EN"
 "http://www.w3.org/Graphics/SVG/1.1/DTD/svg11.dtd">
<!-- Generated by graphviz version 2.43.0 (0)
 -->
<!-- Title: opp Pages: 1 -->
<svg width="176pt" height="82pt"
 viewBox="0.00 0.00 176.00 82.00" xmlns="http://www.w3.org/2000/svg" xmlns:xlink="http://www.w3.org/1999/xlink">
<g id="graph0" class="graph" transform="scale(1 1) rotate(0) translate(4 78)">
<title>opp</title>
<polygon fill="transparent" stroke="transparent" points="-4,4 -4,-78 172,-78 172,4 -4,4"/>
<!-- IPacketSink -->
<g id="node1" class="node">
<title>IPacketSink</title>
<g id="a_node1"><a xlink:href="inet.queueing.contract.IPacketSink.html" xlink:title="Module Interface IPacketSink" target="_parent">
<polygon fill="#fff700" stroke="black" stroke-dasharray="5,2" points="120,-74 47,-74 47,-55 120,-55 120,-74"/>
<text text-anchor="middle" x="83.5" y="-62" font-family="Helvetica,sans-Serif" font-size="10.00">IPacketSink</text>
</a>
</g>
</g>
<!-- IPacketFlow -->
<g id="node2" class="node">
<title>IPacketFlow</title>
<g id="a_node2"><a xlink:href="inet.queueing.contract.IPacketFlow.html" xlink:title="Module Interface IPacketFlow" target="_parent">
<polygon fill="#fffcaf" stroke="black" stroke-dasharray="5,2" points="75,-19 0,-19 0,0 75,0 75,-19"/>
<text text-anchor="middle" x="37.5" y="-7" font-family="Helvetica,sans-Serif" font-size="10.00">IPacketFlow</text>
</a>
</g>
</g>
<!-- IPacketSink&#45;&gt;IPacketFlow -->
<g id="edge1" class="edge">
<title>IPacketSink&#45;&gt;IPacketFlow</title>
<path fill="none" stroke="black" d="M75.9,-54.75C67.33,-44.87 53.47,-28.9 44.95,-19.09"/>
</g>
<!-- IPacketGate -->
<g id="node3" class="node">
<title>IPacketGate</title>
<g id="a_node3"><a xlink:href="inet.queueing.contract.IPacketGate.html" xlink:title="Module Interface IPacketGate" target="_parent">
<polygon fill="#fffcaf" stroke="black" stroke-dasharray="5,2" points="168,-19 93,-19 93,0 168,0 168,-19"/>
<text text-anchor="middle" x="130.5" y="-7" font-family="Helvetica,sans-Serif" font-size="10.00">IPacketGate</text>
</a>
</g>
</g>
<!-- IPacketSink&#45;&gt;IPacketGate -->
<g id="edge2" class="edge">
<title>IPacketSink&#45;&gt;IPacketGate</title>
<path fill="none" stroke="black" d="M91.26,-54.75C100.02,-44.87 114.18,-28.9 122.88,-19.09"/>
</g>
</g>
</svg>
