<?xml version="1.0" encoding="UTF-8" standalone="no"?>
<!DOCTYPE svg PUBLIC "-//W3C//DTD SVG 1.1//EN"
 "http://www.w3.org/Graphics/SVG/1.1/DTD/svg11.dtd">
<!-- Generated by graphviz version 2.43.0 (0)
 -->
<!-- Title: opp Pages: 1 -->
<svg width="252pt" height="137pt"
 viewBox="0.00 0.00 252.00 137.00" xmlns="http://www.w3.org/2000/svg" xmlns:xlink="http://www.w3.org/1999/xlink">
<g id="graph0" class="graph" transform="scale(1 1) rotate(0) translate(4 133)">
<title>opp</title>
<polygon fill="transparent" stroke="transparent" points="-4,4 -4,-133 248,-133 248,4 -4,4"/>
<!-- IPacketPusher -->
<g id="node1" class="node">
<title>IPacketPusher</title>
<g id="a_node1"><a xlink:href="inet.queueing.contract.IPacketPusher.html" xlink:title="Module Interface IPacketPusher" target="_parent">
<polygon fill="#fff700" stroke="black" stroke-dasharray="5,2" points="162.5,-74 77.5,-74 77.5,-55 162.5,-55 162.5,-74"/>
<text text-anchor="middle" x="120" y="-62" font-family="Helvetica,sans-Serif" font-size="10.00">IPacketPusher</text>
</a>
</g>
</g>
<!-- StreamSplitter -->
<g id="node4" class="node">
<title>StreamSplitter</title>
<g id="a_node4"><a xlink:href="inet.protocolelement.redundancy.StreamSplitter.html" xlink:title="Simple Module StreamSplitter" target="_parent">
<polygon fill="#fffcaf" stroke="black" points="163.5,-19 76.5,-19 76.5,0 163.5,0 163.5,-19"/>
<text text-anchor="middle" x="120" y="-7" font-family="Helvetica,sans-Serif" font-size="10.00">StreamSplitter</text>
</a>
</g>
</g>
<!-- IPacketPusher&#45;&gt;StreamSplitter -->
<g id="edge3" class="edge">
<title>IPacketPusher&#45;&gt;StreamSplitter</title>
<path fill="none" stroke="black" stroke-dasharray="5,2" d="M120,-54.75C120,-44.87 120,-28.9 120,-19.09"/>
</g>
<!-- IPassivePacketSink -->
<g id="node2" class="node">
<title>IPassivePacketSink</title>
<g id="a_node2"><a xlink:href="inet.queueing.contract.IPassivePacketSink.html" xlink:title="Module Interface IPassivePacketSink" target="_parent">
<polygon fill="#fffcaf" stroke="black" stroke-dasharray="5,2" points="110,-129 0,-129 0,-110 110,-110 110,-129"/>
<text text-anchor="middle" x="55" y="-117" font-family="Helvetica,sans-Serif" font-size="10.00">IPassivePacketSink</text>
</a>
</g>
</g>
<!-- IPassivePacketSink&#45;&gt;IPacketPusher -->
<g id="edge1" class="edge">
<title>IPassivePacketSink&#45;&gt;IPacketPusher</title>
<path fill="none" stroke="black" d="M65.44,-109.98C77.5,-100.15 97.23,-84.07 109.37,-74.17"/>
</g>
<!-- IActivePacketSource -->
<g id="node3" class="node">
<title>IActivePacketSource</title>
<g id="a_node3"><a xlink:href="inet.queueing.contract.IActivePacketSource.html" xlink:title="Module Interface IActivePacketSource" target="_parent">
<polygon fill="#fffcaf" stroke="black" stroke-dasharray="5,2" points="244,-129 128,-129 128,-110 244,-110 244,-129"/>
<text text-anchor="middle" x="186" y="-117" font-family="Helvetica,sans-Serif" font-size="10.00">IActivePacketSource</text>
</a>
</g>
</g>
<!-- IActivePacketSource&#45;&gt;IPacketPusher -->
<g id="edge2" class="edge">
<title>IActivePacketSource&#45;&gt;IPacketPusher</title>
<path fill="none" stroke="black" d="M175.4,-109.98C163.15,-100.15 143.12,-84.07 130.8,-74.17"/>
</g>
</g>
</svg>
