<?xml version="1.0" encoding="UTF-8" standalone="no"?>
<!DOCTYPE svg PUBLIC "-//W3C//DTD SVG 1.1//EN"
 "http://www.w3.org/Graphics/SVG/1.1/DTD/svg11.dtd">
<!-- Generated by graphviz version 2.43.0 (0)
 -->
<!-- Title: opp Pages: 1 -->
<svg width="209pt" height="137pt"
 viewBox="0.00 0.00 209.00 137.00" xmlns="http://www.w3.org/2000/svg" xmlns:xlink="http://www.w3.org/1999/xlink">
<g id="graph0" class="graph" transform="scale(1 1) rotate(0) translate(4 133)">
<title>opp</title>
<polygon fill="transparent" stroke="transparent" points="-4,4 -4,-133 205,-133 205,4 -4,4"/>
<!-- TransportConnectionVisualizerBase -->
<g id="node1" class="node">
<title>TransportConnectionVisualizerBase</title>
<g id="a_node1"><a xlink:href="inet.visualizer.base.TransportConnectionVisualizerBase.html" xlink:title="Simple Module TransportConnectionVisualizerBase" target="_parent">
<polygon fill="#fff700" stroke="black" points="195,-74 6,-74 6,-55 195,-55 195,-74"/>
<text text-anchor="middle" x="100.5" y="-62" font-family="Helvetica,sans-Serif" font-size="10.00">TransportConnectionVisualizerBase</text>
</a>
</g>
</g>
<!-- TransportConnectionCanvasVisualizer -->
<g id="node3" class="node">
<title>TransportConnectionCanvasVisualizer</title>
<g id="a_node3"><a xlink:href="inet.visualizer.canvas.transportlayer.TransportConnectionCanvasVisualizer.html" xlink:title="Simple Module TransportConnectionCanvasVisualizer" target="_parent">
<polygon fill="#fffcaf" stroke="black" points="201,-19 0,-19 0,0 201,0 201,-19"/>
<text text-anchor="middle" x="100.5" y="-7" font-family="Helvetica,sans-Serif" font-size="10.00">TransportConnectionCanvasVisualizer</text>
</a>
</g>
</g>
<!-- TransportConnectionVisualizerBase&#45;&gt;TransportConnectionCanvasVisualizer -->
<g id="edge2" class="edge">
<title>TransportConnectionVisualizerBase&#45;&gt;TransportConnectionCanvasVisualizer</title>
<path fill="none" stroke="black" d="M100.5,-54.75C100.5,-44.87 100.5,-28.9 100.5,-19.09"/>
</g>
<!-- VisualizerBase -->
<g id="node2" class="node">
<title>VisualizerBase</title>
<g id="a_node2"><a xlink:href="inet.visualizer.base.VisualizerBase.html" xlink:title="Simple Module VisualizerBase" target="_parent">
<polygon fill="#fffcaf" stroke="black" points="145,-129 56,-129 56,-110 145,-110 145,-129"/>
<text text-anchor="middle" x="100.5" y="-117" font-family="Helvetica,sans-Serif" font-size="10.00">VisualizerBase</text>
</a>
</g>
</g>
<!-- VisualizerBase&#45;&gt;TransportConnectionVisualizerBase -->
<g id="edge1" class="edge">
<title>VisualizerBase&#45;&gt;TransportConnectionVisualizerBase</title>
<path fill="none" stroke="black" d="M100.5,-109.75C100.5,-99.87 100.5,-83.9 100.5,-74.09"/>
</g>
</g>
</svg>
