<?xml version="1.0" encoding="UTF-8" standalone="no"?>
<!DOCTYPE svg PUBLIC "-//W3C//DTD SVG 1.1//EN"
 "http://www.w3.org/Graphics/SVG/1.1/DTD/svg11.dtd">
<!-- Generated by graphviz version 2.43.0 (0)
 -->
<!-- Title: opp Pages: 1 -->
<svg width="641pt" height="82pt"
 viewBox="0.00 0.00 641.00 82.00" xmlns="http://www.w3.org/2000/svg" xmlns:xlink="http://www.w3.org/1999/xlink">
<g id="graph0" class="graph" transform="scale(1 1) rotate(0) translate(4 78)">
<title>opp</title>
<polygon fill="transparent" stroke="transparent" points="-4,4 -4,-78 637,-78 637,4 -4,4"/>
<!-- TransportConnectionVisualizationMultipleConnectionsShowcase -->
<g id="node1" class="node">
<title>TransportConnectionVisualizationMultipleConnectionsShowcase</title>
<g id="a_node1"><a xlink:href="inet.showcases.visualizer.canvas.transportconnection.TransportConnectionVisualizationMultipleConnectionsShowcase.html" xlink:title="Network TransportConnectionVisualizationMultipleConnectionsShowcase" target="_parent">
<polygon fill="#9090ff" stroke="black" points="481,-74 152,-74 152,-55 481,-55 481,-74"/>
<text text-anchor="middle" x="316.5" y="-62" font-family="Helvetica,sans-Serif" font-size="10.00">TransportConnectionVisualizationMultipleConnectionsShowcase</text>
</a>
</g>
</g>
<!-- StandardHost -->
<g id="node2" class="node">
<title>StandardHost</title>
<g id="a_node2"><a xlink:href="inet.node.inet.StandardHost.html" xlink:title="Compound Module StandardHost" target="_parent">
<polygon fill="#fffcaf" stroke="black" points="83,-19 0,-19 0,0 83,0 83,-19"/>
<text text-anchor="middle" x="41.5" y="-7" font-family="Helvetica,sans-Serif" font-size="10.00">StandardHost</text>
</a>
</g>
</g>
<!-- TransportConnectionVisualizationMultipleConnectionsShowcase&#45;&gt;StandardHost -->
<g id="edge1" class="edge">
<title>TransportConnectionVisualizationMultipleConnectionsShowcase&#45;&gt;StandardHost</title>
<path fill="none" stroke="black" d="M272.32,-54.98C223.49,-45.58 144.95,-30.44 93.28,-20.48"/>
<polygon fill="black" stroke="black" points="93.8,-17.02 83.32,-18.56 92.48,-23.89 93.8,-17.02"/>
</g>
<!-- Router -->
<g id="node3" class="node">
<title>Router</title>
<g id="a_node3"><a xlink:href="inet.node.inet.Router.html" xlink:title="Compound Module Router" target="_parent">
<polygon fill="#fffcaf" stroke="black" points="155.5,-19 101.5,-19 101.5,0 155.5,0 155.5,-19"/>
<text text-anchor="middle" x="128.5" y="-7" font-family="Helvetica,sans-Serif" font-size="10.00">Router</text>
</a>
</g>
</g>
<!-- TransportConnectionVisualizationMultipleConnectionsShowcase&#45;&gt;Router -->
<g id="edge2" class="edge">
<title>TransportConnectionVisualizationMultipleConnectionsShowcase&#45;&gt;Router</title>
<path fill="none" stroke="black" d="M286.29,-54.98C253.42,-45.72 200.83,-30.89 165.5,-20.93"/>
<polygon fill="black" stroke="black" points="166.15,-17.48 155.58,-18.13 164.25,-24.22 166.15,-17.48"/>
</g>
<!-- Ipv4NetworkConfigurator -->
<g id="node4" class="node">
<title>Ipv4NetworkConfigurator</title>
<g id="a_node4"><a xlink:href="inet.networklayer.configurator.ipv4.Ipv4NetworkConfigurator.html" xlink:title="Simple Module Ipv4NetworkConfigurator" target="_parent">
<polygon fill="#fffcaf" stroke="black" points="313.5,-19 173.5,-19 173.5,0 313.5,0 313.5,-19"/>
<text text-anchor="middle" x="243.5" y="-7" font-family="Helvetica,sans-Serif" font-size="10.00">Ipv4NetworkConfigurator</text>
</a>
</g>
</g>
<!-- TransportConnectionVisualizationMultipleConnectionsShowcase&#45;&gt;Ipv4NetworkConfigurator -->
<g id="edge3" class="edge">
<title>TransportConnectionVisualizationMultipleConnectionsShowcase&#45;&gt;Ipv4NetworkConfigurator</title>
<path fill="none" stroke="black" d="M304.77,-54.98C293.77,-47 277.08,-34.88 263.9,-25.31"/>
<polygon fill="black" stroke="black" points="265.59,-22.21 255.44,-19.17 261.48,-27.88 265.59,-22.21"/>
</g>
<!-- IntegratedVisualizer -->
<g id="node5" class="node">
<title>IntegratedVisualizer</title>
<g id="a_node5"><a xlink:href="inet.visualizer.common.IntegratedVisualizer.html" xlink:title="Compound Module IntegratedVisualizer" target="_parent">
<polygon fill="#fffcaf" stroke="black" points="447,-19 332,-19 332,0 447,0 447,-19"/>
<text text-anchor="middle" x="389.5" y="-7" font-family="Helvetica,sans-Serif" font-size="10.00">IntegratedVisualizer</text>
</a>
</g>
</g>
<!-- TransportConnectionVisualizationMultipleConnectionsShowcase&#45;&gt;IntegratedVisualizer -->
<g id="edge4" class="edge">
<title>TransportConnectionVisualizationMultipleConnectionsShowcase&#45;&gt;IntegratedVisualizer</title>
<path fill="none" stroke="black" d="M328.23,-54.98C339.23,-47 355.92,-34.88 369.1,-25.31"/>
<polygon fill="black" stroke="black" points="371.52,-27.88 377.56,-19.17 367.41,-22.21 371.52,-27.88"/>
</g>
<!-- EthernetSwitch -->
<g id="node6" class="node">
<title>EthernetSwitch</title>
<g id="a_node6"><a xlink:href="inet.node.ethernet.EthernetSwitch.html" xlink:title="Compound Module EthernetSwitch" target="_parent">
<polygon fill="#fffcaf" stroke="black" points="555.5,-19 465.5,-19 465.5,0 555.5,0 555.5,-19"/>
<text text-anchor="middle" x="510.5" y="-7" font-family="Helvetica,sans-Serif" font-size="10.00">EthernetSwitch</text>
</a>
</g>
</g>
<!-- TransportConnectionVisualizationMultipleConnectionsShowcase&#45;&gt;EthernetSwitch -->
<g id="edge5" class="edge">
<title>TransportConnectionVisualizationMultipleConnectionsShowcase&#45;&gt;EthernetSwitch</title>
<path fill="none" stroke="black" d="M347.67,-54.98C380.66,-45.97 432.9,-31.7 469.27,-21.76"/>
<polygon fill="black" stroke="black" points="470.36,-25.09 479.09,-19.08 468.52,-18.34 470.36,-25.09"/>
</g>
<!-- Eth100M -->
<g id="node7" class="node">
<title>Eth100M</title>
<g id="a_node7"><a xlink:href="inet.node.ethernet.Eth100M.html" xlink:title="Channel Eth100M" target="_parent">
<polygon fill="#d0ffd0" stroke="black" points="633,-19 574,-19 574,0 633,0 633,-19"/>
<text text-anchor="middle" x="603.5" y="-7" font-family="Helvetica,sans-Serif" font-size="10.00">Eth100M</text>
</a>
</g>
</g>
<!-- TransportConnectionVisualizationMultipleConnectionsShowcase&#45;&gt;Eth100M -->
<g id="edge6" class="edge">
<title>TransportConnectionVisualizationMultipleConnectionsShowcase&#45;&gt;Eth100M</title>
<path fill="none" stroke="black" d="M367.43,-54.93C415.48,-46.72 489.77,-33.69 563.75,-19.09"/>
<polygon fill="black" stroke="black" points="564.59,-22.49 573.71,-17.11 563.22,-15.62 564.59,-22.49"/>
</g>
</g>
</svg>
