<?xml version="1.0" encoding="UTF-8" standalone="no"?>
<!DOCTYPE svg PUBLIC "-//W3C//DTD SVG 1.1//EN"
 "http://www.w3.org/Graphics/SVG/1.1/DTD/svg11.dtd">
<!-- Generated by graphviz version 2.43.0 (0)
 -->
<!-- Title: opp Pages: 1 -->
<svg width="285pt" height="82pt"
 viewBox="0.00 0.00 284.50 82.00" xmlns="http://www.w3.org/2000/svg" xmlns:xlink="http://www.w3.org/1999/xlink">
<g id="graph0" class="graph" transform="scale(1 1) rotate(0) translate(4 78)">
<title>opp</title>
<polygon fill="transparent" stroke="transparent" points="-4,4 -4,-78 280.5,-78 280.5,4 -4,4"/>
<!-- Network90 -->
<g id="node1" class="node">
<title>Network90</title>
<g id="a_node1"><a xlink:href="inet.tutorials.protocol.Network90.html" xlink:title="Network Network90" target="_parent">
<polygon fill="#9090ff" stroke="black" points="174.5,-74 104.5,-74 104.5,-55 174.5,-55 174.5,-74"/>
<text text-anchor="middle" x="139.5" y="-62" font-family="Helvetica,sans-Serif" font-size="10.00">Network90</text>
</a>
</g>
</g>
<!-- DelayChannel -->
<g id="node2" class="node">
<title>DelayChannel</title>
<g id="a_node2"><a xlink:href="ned.DelayChannel.html" xlink:title="Channel DelayChannel" target="_parent">
<polygon fill="#d0ffd0" stroke="black" points="85,-19 0,-19 0,0 85,0 85,-19"/>
<text text-anchor="middle" x="42.5" y="-7" font-family="Helvetica,sans-Serif" font-size="10.00">DelayChannel</text>
</a>
</g>
</g>
<!-- Network90&#45;&gt;DelayChannel -->
<g id="edge1" class="edge">
<title>Network90&#45;&gt;DelayChannel</title>
<path fill="none" stroke="black" d="M123.92,-54.98C108.73,-46.69 85.4,-33.94 67.6,-24.22"/>
<polygon fill="black" stroke="black" points="68.82,-20.89 58.37,-19.17 65.47,-27.04 68.82,-20.89"/>
</g>
<!-- SenderHost -->
<g id="node3" class="node">
<title>SenderHost</title>
<g id="a_node3"><a xlink:href="inet.tutorials.protocol.SenderHost.html" xlink:title="Compound Module SenderHost" target="_parent">
<polygon fill="#fffcaf" stroke="black" points="176,-19 103,-19 103,0 176,0 176,-19"/>
<text text-anchor="middle" x="139.5" y="-7" font-family="Helvetica,sans-Serif" font-size="10.00">SenderHost</text>
</a>
</g>
</g>
<!-- Network90&#45;&gt;SenderHost -->
<g id="edge2" class="edge">
<title>Network90&#45;&gt;SenderHost</title>
<path fill="none" stroke="black" d="M139.5,-54.75C139.5,-47.8 139.5,-37.85 139.5,-29.13"/>
<polygon fill="black" stroke="black" points="143,-29.09 139.5,-19.09 136,-29.09 143,-29.09"/>
</g>
<!-- ReceiverHost -->
<g id="node4" class="node">
<title>ReceiverHost</title>
<g id="a_node4"><a xlink:href="inet.tutorials.protocol.ReceiverHost.html" xlink:title="Compound Module ReceiverHost" target="_parent">
<polygon fill="#fffcaf" stroke="black" points="276.5,-19 194.5,-19 194.5,0 276.5,0 276.5,-19"/>
<text text-anchor="middle" x="235.5" y="-7" font-family="Helvetica,sans-Serif" font-size="10.00">ReceiverHost</text>
</a>
</g>
</g>
<!-- Network90&#45;&gt;ReceiverHost -->
<g id="edge3" class="edge">
<title>Network90&#45;&gt;ReceiverHost</title>
<path fill="none" stroke="black" d="M154.92,-54.98C169.95,-46.69 193.04,-33.94 210.66,-24.22"/>
<polygon fill="black" stroke="black" points="212.73,-27.07 219.8,-19.17 209.35,-20.94 212.73,-27.07"/>
</g>
</g>
</svg>
