<?xml version="1.0" encoding="UTF-8" standalone="no"?>
<!DOCTYPE svg PUBLIC "-//W3C//DTD SVG 1.1//EN"
 "http://www.w3.org/Graphics/SVG/1.1/DTD/svg11.dtd">
<!-- Generated by graphviz version 2.43.0 (0)
 -->
<!-- Title: opp Pages: 1 -->
<svg width="718pt" height="82pt"
 viewBox="0.00 0.00 718.00 82.00" xmlns="http://www.w3.org/2000/svg" xmlns:xlink="http://www.w3.org/1999/xlink">
<g id="graph0" class="graph" transform="scale(1 1) rotate(0) translate(4 78)">
<title>opp</title>
<polygon fill="transparent" stroke="transparent" points="-4,4 -4,-78 714,-78 714,4 -4,4"/>
<!-- MultiRadioShowcase -->
<g id="node1" class="node">
<title>MultiRadioShowcase</title>
<g id="a_node1"><a xlink:href="inet.showcases.wireless.multiradio.MultiRadioShowcase.html" xlink:title="Network MultiRadioShowcase" target="_parent">
<polygon fill="#9090ff" stroke="black" points="321.5,-74 203.5,-74 203.5,-55 321.5,-55 321.5,-74"/>
<text text-anchor="middle" x="262.5" y="-62" font-family="Helvetica,sans-Serif" font-size="10.00">MultiRadioShowcase</text>
</a>
</g>
</g>
<!-- AccessPoint -->
<g id="node2" class="node">
<title>AccessPoint</title>
<g id="a_node2"><a xlink:href="inet.node.wireless.AccessPoint.html" xlink:title="Compound Module AccessPoint" target="_parent">
<polygon fill="#fffcaf" stroke="black" points="75,-19 0,-19 0,0 75,0 75,-19"/>
<text text-anchor="middle" x="37.5" y="-7" font-family="Helvetica,sans-Serif" font-size="10.00">AccessPoint</text>
</a>
</g>
</g>
<!-- MultiRadioShowcase&#45;&gt;AccessPoint -->
<g id="edge1" class="edge">
<title>MultiRadioShowcase&#45;&gt;AccessPoint</title>
<path fill="none" stroke="black" d="M226.35,-54.98C187.59,-45.86 125.95,-31.33 83.7,-21.38"/>
<polygon fill="black" stroke="black" points="84.47,-17.97 73.93,-19.08 82.86,-24.78 84.47,-17.97"/>
</g>
<!-- WirelessHost -->
<g id="node3" class="node">
<title>WirelessHost</title>
<g id="a_node3"><a xlink:href="inet.node.inet.WirelessHost.html" xlink:title="Compound Module WirelessHost" target="_parent">
<polygon fill="#fffcaf" stroke="black" points="174,-19 93,-19 93,0 174,0 174,-19"/>
<text text-anchor="middle" x="133.5" y="-7" font-family="Helvetica,sans-Serif" font-size="10.00">WirelessHost</text>
</a>
</g>
</g>
<!-- MultiRadioShowcase&#45;&gt;WirelessHost -->
<g id="edge2" class="edge">
<title>MultiRadioShowcase&#45;&gt;WirelessHost</title>
<path fill="none" stroke="black" d="M241.77,-54.98C220.74,-46.34 187.95,-32.87 163.96,-23.02"/>
<polygon fill="black" stroke="black" points="165.18,-19.73 154.6,-19.17 162.52,-26.21 165.18,-19.73"/>
</g>
<!-- Ipv4NetworkConfigurator -->
<g id="node4" class="node">
<title>Ipv4NetworkConfigurator</title>
<g id="a_node4"><a xlink:href="inet.networklayer.configurator.ipv4.Ipv4NetworkConfigurator.html" xlink:title="Simple Module Ipv4NetworkConfigurator" target="_parent">
<polygon fill="#fffcaf" stroke="black" points="332.5,-19 192.5,-19 192.5,0 332.5,0 332.5,-19"/>
<text text-anchor="middle" x="262.5" y="-7" font-family="Helvetica,sans-Serif" font-size="10.00">Ipv4NetworkConfigurator</text>
</a>
</g>
</g>
<!-- MultiRadioShowcase&#45;&gt;Ipv4NetworkConfigurator -->
<g id="edge3" class="edge">
<title>MultiRadioShowcase&#45;&gt;Ipv4NetworkConfigurator</title>
<path fill="none" stroke="black" d="M262.5,-54.75C262.5,-47.8 262.5,-37.85 262.5,-29.13"/>
<polygon fill="black" stroke="black" points="266,-29.09 262.5,-19.09 259,-29.09 266,-29.09"/>
</g>
<!-- IntegratedMultiCanvasVisualizer -->
<g id="node5" class="node">
<title>IntegratedMultiCanvasVisualizer</title>
<g id="a_node5"><a xlink:href="inet.visualizer.canvas.integrated.IntegratedMultiCanvasVisualizer.html" xlink:title="Compound Module IntegratedMultiCanvasVisualizer" target="_parent">
<polygon fill="#fffcaf" stroke="black" points="526.5,-19 350.5,-19 350.5,0 526.5,0 526.5,-19"/>
<text text-anchor="middle" x="438.5" y="-7" font-family="Helvetica,sans-Serif" font-size="10.00">IntegratedMultiCanvasVisualizer</text>
</a>
</g>
</g>
<!-- MultiRadioShowcase&#45;&gt;IntegratedMultiCanvasVisualizer -->
<g id="edge4" class="edge">
<title>MultiRadioShowcase&#45;&gt;IntegratedMultiCanvasVisualizer</title>
<path fill="none" stroke="black" d="M290.78,-54.98C320.45,-46.05 367.29,-31.94 400.25,-22.02"/>
<polygon fill="black" stroke="black" points="401.43,-25.32 410,-19.08 399.42,-18.61 401.43,-25.32"/>
</g>
<!-- Ieee80211ScalarRadioMedium -->
<g id="node6" class="node">
<title>Ieee80211ScalarRadioMedium</title>
<g id="a_node6"><a xlink:href="inet.physicallayer.wireless.ieee80211.packetlevel.Ieee80211ScalarRadioMedium.html" xlink:title="Compound Module Ieee80211ScalarRadioMedium" target="_parent">
<polygon fill="#fffcaf" stroke="black" points="710,-19 545,-19 545,0 710,0 710,-19"/>
<text text-anchor="middle" x="627.5" y="-7" font-family="Helvetica,sans-Serif" font-size="10.00">Ieee80211ScalarRadioMedium</text>
</a>
</g>
</g>
<!-- MultiRadioShowcase&#45;&gt;Ieee80211ScalarRadioMedium -->
<g id="edge5" class="edge">
<title>MultiRadioShowcase&#45;&gt;Ieee80211ScalarRadioMedium</title>
<path fill="none" stroke="black" d="M321.14,-54.98C385.83,-45.59 489.84,-30.49 558.43,-20.53"/>
<polygon fill="black" stroke="black" points="559.31,-23.94 568.7,-19.04 558.3,-17.01 559.31,-23.94"/>
</g>
</g>
</svg>
