<?xml version="1.0" encoding="UTF-8" standalone="no"?>
<!DOCTYPE svg PUBLIC "-//W3C//DTD SVG 1.1//EN"
 "http://www.w3.org/Graphics/SVG/1.1/DTD/svg11.dtd">
<!-- Generated by graphviz version 2.43.0 (0)
 -->
<!-- Title: opp Pages: 1 -->
<svg width="277pt" height="137pt"
 viewBox="0.00 0.00 276.50 137.00" xmlns="http://www.w3.org/2000/svg" xmlns:xlink="http://www.w3.org/1999/xlink">
<g id="graph0" class="graph" transform="scale(1 1) rotate(0) translate(4 133)">
<title>opp</title>
<polygon fill="transparent" stroke="transparent" points="-4,4 -4,-133 272.5,-133 272.5,4 -4,4"/>
<!-- TsnSwitch -->
<g id="node1" class="node">
<title>TsnSwitch</title>
<g id="a_node1"><a xlink:href="inet.node.tsn.TsnSwitch.html" xlink:title="Compound Module TsnSwitch" target="_parent">
<polygon fill="#fff700" stroke="black" points="77.5,-74 12.5,-74 12.5,-55 77.5,-55 77.5,-74"/>
<text text-anchor="middle" x="45" y="-62" font-family="Helvetica,sans-Serif" font-size="10.00">TsnSwitch</text>
</a>
</g>
</g>
<!-- LocalTsnSwitch -->
<g id="node3" class="node">
<title>LocalTsnSwitch</title>
<g id="a_node3"><a xlink:href="inet.showcases.tsn.framereplication.manualconfiguration.LocalTsnSwitch.html" xlink:title="Compound Module LocalTsnSwitch" target="_parent">
<polygon fill="#fffcaf" stroke="black" points="90,-19 0,-19 0,0 90,0 90,-19"/>
<text text-anchor="middle" x="45" y="-7" font-family="Helvetica,sans-Serif" font-size="10.00">LocalTsnSwitch</text>
</a>
</g>
</g>
<!-- TsnSwitch&#45;&gt;LocalTsnSwitch -->
<g id="edge2" class="edge">
<title>TsnSwitch&#45;&gt;LocalTsnSwitch</title>
<path fill="none" stroke="black" d="M29.5,-54.75C23.13,-44.87 23.17,-28.9 29.61,-19.09"/>
</g>
<!-- TsnSwitch&#45;&gt;LocalTsnSwitch -->
<g id="edge3" class="edge">
<title>TsnSwitch&#45;&gt;LocalTsnSwitch</title>
<path fill="none" stroke="black" d="M39.83,-54.75C37.71,-44.87 37.72,-28.9 39.87,-19.09"/>
</g>
<!-- TsnSwitch&#45;&gt;LocalTsnSwitch -->
<g id="edge4" class="edge">
<title>TsnSwitch&#45;&gt;LocalTsnSwitch</title>
<path fill="none" stroke="black" d="M50.17,-54.75C52.29,-44.87 52.28,-28.9 50.13,-19.09"/>
</g>
<!-- TsnSwitch&#45;&gt;LocalTsnSwitch -->
<g id="edge5" class="edge">
<title>TsnSwitch&#45;&gt;LocalTsnSwitch</title>
<path fill="none" stroke="black" d="M60.5,-54.75C66.87,-44.87 66.83,-28.9 60.39,-19.09"/>
</g>
<!-- TsnSwitch1 -->
<g id="node4" class="node">
<title>TsnSwitch1</title>
<g id="a_node4"><a xlink:href="inet.showcases.tsn.gatescheduling.TsnSwitch1.html" xlink:title="Compound Module TsnSwitch1" target="_parent">
<polygon fill="#fffcaf" stroke="black" points="179.5,-19 108.5,-19 108.5,0 179.5,0 179.5,-19"/>
<text text-anchor="middle" x="144" y="-7" font-family="Helvetica,sans-Serif" font-size="10.00">TsnSwitch1</text>
</a>
</g>
</g>
<!-- TsnSwitch&#45;&gt;TsnSwitch1 -->
<g id="edge6" class="edge">
<title>TsnSwitch&#45;&gt;TsnSwitch1</title>
<path fill="none" stroke="black" d="M60.91,-54.98C79.27,-45.15 109.32,-29.07 127.8,-19.17"/>
</g>
<!-- TsnSwitch2 -->
<g id="node5" class="node">
<title>TsnSwitch2</title>
<g id="a_node5"><a xlink:href="inet.showcases.tsn.gatescheduling.TsnSwitch2.html" xlink:title="Compound Module TsnSwitch2" target="_parent">
<polygon fill="#fffcaf" stroke="black" points="268.5,-19 197.5,-19 197.5,0 268.5,0 268.5,-19"/>
<text text-anchor="middle" x="233" y="-7" font-family="Helvetica,sans-Serif" font-size="10.00">TsnSwitch2</text>
</a>
</g>
</g>
<!-- TsnSwitch&#45;&gt;TsnSwitch2 -->
<g id="edge7" class="edge">
<title>TsnSwitch&#45;&gt;TsnSwitch2</title>
<path fill="none" stroke="black" d="M75.21,-54.98C110.18,-45.12 167.48,-28.97 202.56,-19.08"/>
</g>
<!-- EthernetSwitch -->
<g id="node2" class="node">
<title>EthernetSwitch</title>
<g id="a_node2"><a xlink:href="inet.node.ethernet.EthernetSwitch.html" xlink:title="Compound Module EthernetSwitch" target="_parent">
<polygon fill="#fffcaf" stroke="black" points="90,-129 0,-129 0,-110 90,-110 90,-129"/>
<text text-anchor="middle" x="45" y="-117" font-family="Helvetica,sans-Serif" font-size="10.00">EthernetSwitch</text>
</a>
</g>
</g>
<!-- EthernetSwitch&#45;&gt;TsnSwitch -->
<g id="edge1" class="edge">
<title>EthernetSwitch&#45;&gt;TsnSwitch</title>
<path fill="none" stroke="black" d="M45,-109.75C45,-99.87 45,-83.9 45,-74.09"/>
</g>
</g>
</svg>
