<?xml version="1.0" encoding="UTF-8" standalone="no"?>
<!DOCTYPE svg PUBLIC "-//W3C//DTD SVG 1.1//EN"
 "http://www.w3.org/Graphics/SVG/1.1/DTD/svg11.dtd">
<!-- Generated by graphviz version 2.43.0 (0)
 -->
<!-- Title: opp Pages: 1 -->
<svg width="2364pt" height="137pt"
 viewBox="0.00 0.00 2364.00 137.00" xmlns="http://www.w3.org/2000/svg" xmlns:xlink="http://www.w3.org/1999/xlink">
<g id="graph0" class="graph" transform="scale(1 1) rotate(0) translate(4 133)">
<title>opp</title>
<polygon fill="transparent" stroke="transparent" points="-4,4 -4,-133 2360,-133 2360,4 -4,4"/>
<!-- PhysicalEnvironment -->
<g id="node1" class="node">
<title>PhysicalEnvironment</title>
<g id="a_node1"><a xlink:href="inet.environment.common.PhysicalEnvironment.html" xlink:title="Compound Module PhysicalEnvironment" target="_parent">
<polygon fill="#fff700" stroke="black" points="1280,-74 1161,-74 1161,-55 1280,-55 1280,-74"/>
<text text-anchor="middle" x="1220.5" y="-62" font-family="Helvetica,sans-Serif" font-size="10.00">PhysicalEnvironment</text>
</a>
</g>
</g>
<!-- IGround -->
<g id="node2" class="node">
<title>IGround</title>
<g id="a_node2"><a xlink:href="inet.environment.contract.IGround.html" xlink:title="Module Interface IGround" target="_parent">
<polygon fill="#fffcaf" stroke="black" stroke-dasharray="5,2" points="1205,-19 1150,-19 1150,0 1205,0 1205,-19"/>
<text text-anchor="middle" x="1177.5" y="-7" font-family="Helvetica,sans-Serif" font-size="10.00">IGround</text>
</a>
</g>
</g>
<!-- PhysicalEnvironment&#45;&gt;IGround -->
<g id="edge1" class="edge">
<title>PhysicalEnvironment&#45;&gt;IGround</title>
<path fill="none" stroke="black" d="M1213.4,-54.75C1207.33,-47.26 1198.41,-36.28 1190.99,-27.13"/>
<polygon fill="black" stroke="black" points="1193.49,-24.65 1184.47,-19.09 1188.05,-29.06 1193.49,-24.65"/>
</g>
<!-- IObjectCache -->
<g id="node3" class="node">
<title>IObjectCache</title>
<g id="a_node3"><a xlink:href="inet.environment.contract.IObjectCache.html" xlink:title="Module Interface IObjectCache" target="_parent">
<polygon fill="#fffcaf" stroke="black" stroke-dasharray="5,2" points="1304,-19 1223,-19 1223,0 1304,0 1304,-19"/>
<text text-anchor="middle" x="1263.5" y="-7" font-family="Helvetica,sans-Serif" font-size="10.00">IObjectCache</text>
</a>
</g>
</g>
<!-- PhysicalEnvironment&#45;&gt;IObjectCache -->
<g id="edge2" class="edge">
<title>PhysicalEnvironment&#45;&gt;IObjectCache</title>
<path fill="none" stroke="black" d="M1227.6,-54.75C1233.67,-47.26 1242.59,-36.28 1250.01,-27.13"/>
<polygon fill="black" stroke="black" points="1252.95,-29.06 1256.53,-19.09 1247.51,-24.65 1252.95,-29.06"/>
</g>
<!-- ErrorRateShowcase -->
<g id="node4" class="node">
<title>ErrorRateShowcase</title>
<g id="a_node4"><a xlink:href="inet.showcases.wireless.errorrate.ErrorRateShowcase.html" xlink:title="Network ErrorRateShowcase" target="_parent">
<polygon fill="#d0d0ff" stroke="black" points="111,-129 0,-129 0,-110 111,-110 111,-129"/>
<text text-anchor="middle" x="55.5" y="-117" font-family="Helvetica,sans-Serif" font-size="10.00">ErrorRateShowcase</text>
</a>
</g>
</g>
<!-- ErrorRateShowcase&#45;&gt;PhysicalEnvironment -->
<g id="edge3" class="edge">
<title>ErrorRateShowcase&#45;&gt;PhysicalEnvironment</title>
<path fill="none" stroke="black" d="M111.31,-110.78C114.08,-110.49 116.82,-110.23 119.5,-110 508.19,-76.4 976.31,-68.09 1150.64,-66.1"/>
<polygon fill="black" stroke="black" points="1150.74,-69.6 1160.71,-65.99 1150.67,-62.6 1150.74,-69.6"/>
</g>
<!-- HiddenNodeShowcase -->
<g id="node5" class="node">
<title>HiddenNodeShowcase</title>
<g id="a_node5"><a xlink:href="inet.showcases.wireless.hiddennode.HiddenNodeShowcase.html" xlink:title="Network HiddenNodeShowcase" target="_parent">
<polygon fill="#d0d0ff" stroke="black" points="254,-129 129,-129 129,-110 254,-110 254,-129"/>
<text text-anchor="middle" x="191.5" y="-117" font-family="Helvetica,sans-Serif" font-size="10.00">HiddenNodeShowcase</text>
</a>
</g>
</g>
<!-- HiddenNodeShowcase&#45;&gt;PhysicalEnvironment -->
<g id="edge4" class="edge">
<title>HiddenNodeShowcase&#45;&gt;PhysicalEnvironment</title>
<path fill="none" stroke="black" d="M254.19,-110.74C257,-110.48 259.78,-110.23 262.5,-110 594.53,-82.45 992.83,-70.78 1150.92,-67"/>
<polygon fill="black" stroke="black" points="1151.07,-70.5 1160.99,-66.76 1150.91,-63.5 1151.07,-70.5"/>
</g>
<!-- Ieee80211VisualizationSignalLevelsShowcase -->
<g id="node6" class="node">
<title>Ieee80211VisualizationSignalLevelsShowcase</title>
<g id="a_node6"><a xlink:href="inet.showcases.visualizer.canvas.ieee80211.Ieee80211VisualizationSignalLevelsShowcase.html" xlink:title="Network Ieee80211VisualizationSignalLevelsShowcase" target="_parent">
<polygon fill="#d0d0ff" stroke="black" points="513,-129 272,-129 272,-110 513,-110 513,-129"/>
<text text-anchor="middle" x="392.5" y="-117" font-family="Helvetica,sans-Serif" font-size="10.00">Ieee80211VisualizationSignalLevelsShowcase</text>
</a>
</g>
</g>
<!-- Ieee80211VisualizationSignalLevelsShowcase&#45;&gt;PhysicalEnvironment -->
<g id="edge5" class="edge">
<title>Ieee80211VisualizationSignalLevelsShowcase&#45;&gt;PhysicalEnvironment</title>
<path fill="none" stroke="black" d="M513.01,-110.55C515.87,-110.37 518.7,-110.18 521.5,-110 751.65,-95.09 1024.46,-77.85 1150.39,-69.91"/>
<polygon fill="black" stroke="black" points="1150.9,-73.39 1160.66,-69.26 1150.46,-66.4 1150.9,-73.39"/>
</g>
<!-- MediumActivityInterferingSignalsShowcase -->
<g id="node7" class="node">
<title>MediumActivityInterferingSignalsShowcase</title>
<g id="a_node7"><a xlink:href="inet.showcases.visualizer.canvas.radiomediumactivity.MediumActivityInterferingSignalsShowcase.html" xlink:title="Network MediumActivityInterferingSignalsShowcase" target="_parent">
<polygon fill="#d0d0ff" stroke="black" points="760,-129 531,-129 531,-110 760,-110 760,-129"/>
<text text-anchor="middle" x="645.5" y="-117" font-family="Helvetica,sans-Serif" font-size="10.00">MediumActivityInterferingSignalsShowcase</text>
</a>
</g>
</g>
<!-- MediumActivityInterferingSignalsShowcase&#45;&gt;PhysicalEnvironment -->
<g id="edge6" class="edge">
<title>MediumActivityInterferingSignalsShowcase&#45;&gt;PhysicalEnvironment</title>
<path fill="none" stroke="black" d="M737.88,-109.98C853.09,-99.37 1047.46,-81.45 1150.88,-71.92"/>
<polygon fill="black" stroke="black" points="1151.26,-75.4 1160.9,-70.99 1150.62,-68.43 1151.26,-75.4"/>
</g>
<!-- MobileNetworkWithEnvironment -->
<g id="node8" class="node">
<title>MobileNetworkWithEnvironment</title>
<g id="a_node8"><a xlink:href="inet.examples.mobility.MobileNetworkWithEnvironment.html" xlink:title="Network MobileNetworkWithEnvironment" target="_parent">
<polygon fill="#d0d0ff" stroke="black" points="954.5,-129 778.5,-129 778.5,-110 954.5,-110 954.5,-129"/>
<text text-anchor="middle" x="866.5" y="-117" font-family="Helvetica,sans-Serif" font-size="10.00">MobileNetworkWithEnvironment</text>
</a>
</g>
</g>
<!-- MobileNetworkWithEnvironment&#45;&gt;PhysicalEnvironment -->
<g id="edge7" class="edge">
<title>MobileNetworkWithEnvironment&#45;&gt;PhysicalEnvironment</title>
<path fill="none" stroke="black" d="M923.38,-109.98C986.12,-100.59 1086.99,-85.49 1153.51,-75.53"/>
<polygon fill="black" stroke="black" points="1154.1,-78.98 1163.47,-74.04 1153.06,-72.06 1154.1,-78.98"/>
</g>
<!-- ObjectCacheTest -->
<g id="node9" class="node">
<title>ObjectCacheTest</title>
<g id="a_node9"><a xlink:href="inet.examples.objectcache.ObjectCacheTest.html" xlink:title="Network ObjectCacheTest" target="_parent">
<polygon fill="#d0d0ff" stroke="black" points="1070.5,-129 972.5,-129 972.5,-110 1070.5,-110 1070.5,-129"/>
<text text-anchor="middle" x="1021.5" y="-117" font-family="Helvetica,sans-Serif" font-size="10.00">ObjectCacheTest</text>
</a>
</g>
</g>
<!-- ObjectCacheTest&#45;&gt;PhysicalEnvironment -->
<g id="edge8" class="edge">
<title>ObjectCacheTest&#45;&gt;PhysicalEnvironment</title>
<path fill="none" stroke="black" d="M1053.47,-109.98C1087.32,-100.97 1140.9,-86.7 1178.21,-76.76"/>
<polygon fill="black" stroke="black" points="1179.51,-80.04 1188.28,-74.08 1177.71,-73.27 1179.51,-80.04"/>
</g>
<!-- ObstacleIntersectionTest -->
<g id="node10" class="node">
<title>ObstacleIntersectionTest</title>
<g id="a_node10"><a xlink:href="inet.examples.geometry.ObstacleIntersectionTest.html" xlink:title="Network ObstacleIntersectionTest" target="_parent">
<polygon fill="#d0d0ff" stroke="black" points="1226,-129 1089,-129 1089,-110 1226,-110 1226,-129"/>
<text text-anchor="middle" x="1157.5" y="-117" font-family="Helvetica,sans-Serif" font-size="10.00">ObstacleIntersectionTest</text>
</a>
</g>
</g>
<!-- ObstacleIntersectionTest&#45;&gt;PhysicalEnvironment -->
<g id="edge9" class="edge">
<title>ObstacleIntersectionTest&#45;&gt;PhysicalEnvironment</title>
<path fill="none" stroke="black" d="M1167.62,-109.98C1176.94,-102.15 1190.97,-90.34 1202.24,-80.86"/>
<polygon fill="black" stroke="black" points="1204.79,-83.29 1210.19,-74.17 1200.29,-77.93 1204.79,-83.29"/>
</g>
<!-- ObstacleTest -->
<g id="node11" class="node">
<title>ObstacleTest</title>
<g id="a_node11"><a xlink:href="inet.examples.wireless.obstacle.ObstacleTest.html" xlink:title="Network ObstacleTest" target="_parent">
<polygon fill="#d0d0ff" stroke="black" points="1323,-129 1244,-129 1244,-110 1323,-110 1323,-129"/>
<text text-anchor="middle" x="1283.5" y="-117" font-family="Helvetica,sans-Serif" font-size="10.00">ObstacleTest</text>
</a>
</g>
</g>
<!-- ObstacleTest&#45;&gt;PhysicalEnvironment -->
<g id="edge10" class="edge">
<title>ObstacleTest&#45;&gt;PhysicalEnvironment</title>
<path fill="none" stroke="black" d="M1273.38,-109.98C1264.06,-102.15 1250.03,-90.34 1238.76,-80.86"/>
<polygon fill="black" stroke="black" points="1240.71,-77.93 1230.81,-74.17 1236.21,-83.29 1240.71,-77.93"/>
</g>
<!-- PathLossShowcase -->
<g id="node12" class="node">
<title>PathLossShowcase</title>
<g id="a_node12"><a xlink:href="inet.showcases.wireless.pathloss.PathLossShowcase.html" xlink:title="Network PathLossShowcase" target="_parent">
<polygon fill="#d0d0ff" stroke="black" points="1450,-129 1341,-129 1341,-110 1450,-110 1450,-129"/>
<text text-anchor="middle" x="1395.5" y="-117" font-family="Helvetica,sans-Serif" font-size="10.00">PathLossShowcase</text>
</a>
</g>
</g>
<!-- PathLossShowcase&#45;&gt;PhysicalEnvironment -->
<g id="edge11" class="edge">
<title>PathLossShowcase&#45;&gt;PhysicalEnvironment</title>
<path fill="none" stroke="black" d="M1367.38,-109.98C1337.88,-101.05 1291.31,-86.94 1258.53,-77.02"/>
<polygon fill="black" stroke="black" points="1259.42,-73.63 1248.84,-74.08 1257.39,-80.33 1259.42,-73.63"/>
</g>
<!-- RateControlShowcase -->
<g id="node13" class="node">
<title>RateControlShowcase</title>
<g id="a_node13"><a xlink:href="inet.showcases.wireless.ratecontrol.RateControlShowcase.html" xlink:title="Network RateControlShowcase" target="_parent">
<polygon fill="#d0d0ff" stroke="black" points="1591,-129 1468,-129 1468,-110 1591,-110 1591,-129"/>
<text text-anchor="middle" x="1529.5" y="-117" font-family="Helvetica,sans-Serif" font-size="10.00">RateControlShowcase</text>
</a>
</g>
</g>
<!-- RateControlShowcase&#45;&gt;PhysicalEnvironment -->
<g id="edge12" class="edge">
<title>RateControlShowcase&#45;&gt;PhysicalEnvironment</title>
<path fill="none" stroke="black" d="M1479.85,-109.98C1425.54,-100.67 1338.48,-85.74 1280.41,-75.78"/>
<polygon fill="black" stroke="black" points="1280.73,-72.28 1270.28,-74.04 1279.54,-79.18 1280.73,-72.28"/>
</g>
<!-- RateControlTest -->
<g id="node14" class="node">
<title>RateControlTest</title>
<g id="a_node14"><a xlink:href="inet.examples.wireless.ratecontrol.RateControlTest.html" xlink:title="Network RateControlTest" target="_parent">
<polygon fill="#d0d0ff" stroke="black" points="1703.5,-129 1609.5,-129 1609.5,-110 1703.5,-110 1703.5,-129"/>
<text text-anchor="middle" x="1656.5" y="-117" font-family="Helvetica,sans-Serif" font-size="10.00">RateControlTest</text>
</a>
</g>
</g>
<!-- RateControlTest&#45;&gt;PhysicalEnvironment -->
<g id="edge13" class="edge">
<title>RateControlTest&#45;&gt;PhysicalEnvironment</title>
<path fill="none" stroke="black" d="M1609.46,-111.24C1606.43,-110.81 1603.42,-110.39 1600.5,-110 1492.29,-95.46 1366.38,-81.24 1290.11,-72.93"/>
<polygon fill="black" stroke="black" points="1290.46,-69.45 1280.14,-71.85 1289.71,-76.41 1290.46,-69.45"/>
</g>
<!-- SpectrumShowcasePowerDensityMapNetwork -->
<g id="node15" class="node">
<title>SpectrumShowcasePowerDensityMapNetwork</title>
<g id="a_node15"><a xlink:href="inet.showcases.visualizer.canvas.spectrum.SpectrumShowcasePowerDensityMapNetwork.html" xlink:title="Network SpectrumShowcasePowerDensityMapNetwork" target="_parent">
<polygon fill="#d0d0ff" stroke="black" points="1963.5,-129 1721.5,-129 1721.5,-110 1963.5,-110 1963.5,-129"/>
<text text-anchor="middle" x="1842.5" y="-117" font-family="Helvetica,sans-Serif" font-size="10.00">SpectrumShowcasePowerDensityMapNetwork</text>
</a>
</g>
</g>
<!-- SpectrumShowcasePowerDensityMapNetwork&#45;&gt;PhysicalEnvironment -->
<g id="edge14" class="edge">
<title>SpectrumShowcasePowerDensityMapNetwork&#45;&gt;PhysicalEnvironment</title>
<path fill="none" stroke="black" d="M1742.56,-109.98C1615.85,-99.19 1400.64,-80.85 1290.29,-71.45"/>
<polygon fill="black" stroke="black" points="1290.53,-67.95 1280.27,-70.59 1289.93,-74.93 1290.53,-67.95"/>
</g>
<!-- SpectrumShowcaseSpectrumFigureSpectrogramNetwork -->
<g id="node16" class="node">
<title>SpectrumShowcaseSpectrumFigureSpectrogramNetwork</title>
<g id="a_node16"><a xlink:href="inet.showcases.visualizer.canvas.spectrum.SpectrumShowcaseSpectrumFigureSpectrogramNetwork.html" xlink:title="Network SpectrumShowcaseSpectrumFigureSpectrogramNetwork" target="_parent">
<polygon fill="#d0d0ff" stroke="black" points="2273,-129 1982,-129 1982,-110 2273,-110 2273,-129"/>
<text text-anchor="middle" x="2127.5" y="-117" font-family="Helvetica,sans-Serif" font-size="10.00">SpectrumShowcaseSpectrumFigureSpectrogramNetwork</text>
</a>
</g>
</g>
<!-- SpectrumShowcaseSpectrumFigureSpectrogramNetwork&#45;&gt;PhysicalEnvironment -->
<g id="edge15" class="edge">
<title>SpectrumShowcaseSpectrumFigureSpectrogramNetwork&#45;&gt;PhysicalEnvironment</title>
<path fill="none" stroke="black" d="M1982.03,-110C1784.16,-98.44 1437.94,-78.21 1290.35,-69.58"/>
<polygon fill="black" stroke="black" points="1290.26,-66.07 1280.07,-68.98 1289.85,-73.06 1290.26,-66.07"/>
</g>
<!-- WirelessC -->
<g id="node17" class="node">
<title>WirelessC</title>
<g id="a_node17"><a xlink:href="inet.tutorials.wireless.WirelessC.html" xlink:title="Network WirelessC" target="_parent">
<polygon fill="#d0d0ff" stroke="black" points="2356,-129 2291,-129 2291,-110 2356,-110 2356,-129"/>
<text text-anchor="middle" x="2323.5" y="-117" font-family="Helvetica,sans-Serif" font-size="10.00">WirelessC</text>
</a>
</g>
</g>
<!-- WirelessC&#45;&gt;PhysicalEnvironment -->
<g id="edge16" class="edge">
<title>WirelessC&#45;&gt;PhysicalEnvironment</title>
<path fill="none" stroke="black" d="M2290.91,-111.24C2288.07,-110.77 2285.24,-110.34 2282.5,-110 2089.46,-86.11 1494.16,-71.39 1290.03,-66.94"/>
<polygon fill="black" stroke="black" points="1290.1,-63.44 1280.03,-66.72 1289.95,-70.44 1290.1,-63.44"/>
</g>
</g>
</svg>
