<?xml version="1.0" encoding="UTF-8" standalone="no"?>
<!DOCTYPE svg PUBLIC "-//W3C//DTD SVG 1.1//EN"
 "http://www.w3.org/Graphics/SVG/1.1/DTD/svg11.dtd">
<!-- Generated by graphviz version 2.43.0 (0)
 -->
<!-- Title: opp Pages: 1 -->
<svg width="343pt" height="137pt"
 viewBox="0.00 0.00 343.00 137.00" xmlns="http://www.w3.org/2000/svg" xmlns:xlink="http://www.w3.org/1999/xlink">
<g id="graph0" class="graph" transform="scale(1 1) rotate(0) translate(4 133)">
<title>opp</title>
<polygon fill="transparent" stroke="transparent" points="-4,4 -4,-133 339,-133 339,4 -4,4"/>
<!-- ClientHost2 -->
<g id="node1" class="node">
<title>ClientHost2</title>
<g id="a_node1"><a xlink:href="inet.tutorials.protocol.ClientHost2.html" xlink:title="Compound Module ClientHost2" target="_parent">
<polygon fill="#fff700" stroke="black" points="208.5,-74 134.5,-74 134.5,-55 208.5,-55 208.5,-74"/>
<text text-anchor="middle" x="171.5" y="-62" font-family="Helvetica,sans-Serif" font-size="10.00">ClientHost2</text>
</a>
</g>
</g>
<!-- ActivePacketSource -->
<g id="node2" class="node">
<title>ActivePacketSource</title>
<g id="a_node2"><a xlink:href="inet.queueing.source.ActivePacketSource.html" xlink:title="Simple Module ActivePacketSource" target="_parent">
<polygon fill="#fffcaf" stroke="black" points="113,-19 0,-19 0,0 113,0 113,-19"/>
<text text-anchor="middle" x="56.5" y="-7" font-family="Helvetica,sans-Serif" font-size="10.00">ActivePacketSource</text>
</a>
</g>
</g>
<!-- ClientHost2&#45;&gt;ActivePacketSource -->
<g id="edge1" class="edge">
<title>ClientHost2&#45;&gt;ActivePacketSource</title>
<path fill="none" stroke="black" d="M153.02,-54.98C134.52,-46.46 105.82,-33.23 84.52,-23.41"/>
<polygon fill="black" stroke="black" points="85.86,-20.18 75.31,-19.17 82.93,-26.53 85.86,-20.18"/>
</g>
<!-- IdealChannel -->
<g id="node3" class="node">
<title>IdealChannel</title>
<g id="a_node3"><a xlink:href="ned.IdealChannel.html" xlink:title="Channel IdealChannel" target="_parent">
<polygon fill="#d0ffd0" stroke="black" points="211.5,-19 131.5,-19 131.5,0 211.5,0 211.5,-19"/>
<text text-anchor="middle" x="171.5" y="-7" font-family="Helvetica,sans-Serif" font-size="10.00">IdealChannel</text>
</a>
</g>
</g>
<!-- ClientHost2&#45;&gt;IdealChannel -->
<g id="edge2" class="edge">
<title>ClientHost2&#45;&gt;IdealChannel</title>
<path fill="none" stroke="black" d="M171.5,-54.75C171.5,-47.8 171.5,-37.85 171.5,-29.13"/>
<polygon fill="black" stroke="black" points="175,-29.09 171.5,-19.09 168,-29.09 175,-29.09"/>
</g>
<!-- PacketTransmitter -->
<g id="node4" class="node">
<title>PacketTransmitter</title>
<g id="a_node4"><a xlink:href="inet.protocolelement.transceiver.PacketTransmitter.html" xlink:title="Simple Module PacketTransmitter" target="_parent">
<polygon fill="#fffcaf" stroke="black" points="335,-19 230,-19 230,0 335,0 335,-19"/>
<text text-anchor="middle" x="282.5" y="-7" font-family="Helvetica,sans-Serif" font-size="10.00">PacketTransmitter</text>
</a>
</g>
</g>
<!-- ClientHost2&#45;&gt;PacketTransmitter -->
<g id="edge3" class="edge">
<title>ClientHost2&#45;&gt;PacketTransmitter</title>
<path fill="none" stroke="black" d="M189.33,-54.98C207.11,-46.5 234.65,-33.35 255.18,-23.54"/>
<polygon fill="black" stroke="black" points="256.83,-26.64 264.34,-19.17 253.81,-20.32 256.83,-26.64"/>
</g>
<!-- Network2 -->
<g id="node5" class="node">
<title>Network2</title>
<g id="a_node5"><a xlink:href="inet.tutorials.protocol.Network2.html" xlink:title="Network Network2" target="_parent">
<polygon fill="#d0d0ff" stroke="black" points="203.5,-129 139.5,-129 139.5,-110 203.5,-110 203.5,-129"/>
<text text-anchor="middle" x="171.5" y="-117" font-family="Helvetica,sans-Serif" font-size="10.00">Network2</text>
</a>
</g>
</g>
<!-- Network2&#45;&gt;ClientHost2 -->
<g id="edge4" class="edge">
<title>Network2&#45;&gt;ClientHost2</title>
<path fill="none" stroke="black" d="M171.5,-109.75C171.5,-102.8 171.5,-92.85 171.5,-84.13"/>
<polygon fill="black" stroke="black" points="175,-84.09 171.5,-74.09 168,-84.09 175,-84.09"/>
</g>
</g>
</svg>
