<?xml version="1.0" encoding="UTF-8" standalone="no"?>
<!DOCTYPE svg PUBLIC "-//W3C//DTD SVG 1.1//EN"
 "http://www.w3.org/Graphics/SVG/1.1/DTD/svg11.dtd">
<!-- Generated by graphviz version 2.43.0 (0)
 -->
<!-- Title: opp Pages: 1 -->
<svg width="1023pt" height="82pt"
 viewBox="0.00 0.00 1023.00 82.00" xmlns="http://www.w3.org/2000/svg" xmlns:xlink="http://www.w3.org/1999/xlink">
<g id="graph0" class="graph" transform="scale(1 1) rotate(0) translate(4 78)">
<title>opp</title>
<polygon fill="transparent" stroke="transparent" points="-4,4 -4,-78 1019,-78 1019,4 -4,4"/>
<!-- TrafficConditioner -->
<g id="node1" class="node">
<title>TrafficConditioner</title>
<g id="a_node1"><a xlink:href="inet.examples.diffserv.simple_.TrafficConditioner.html" xlink:title="Compound Module TrafficConditioner" target="_parent">
<polygon fill="#fff700" stroke="black" points="610,-74 506,-74 506,-55 610,-55 610,-74"/>
<text text-anchor="middle" x="558" y="-62" font-family="Helvetica,sans-Serif" font-size="10.00">TrafficConditioner</text>
</a>
</g>
</g>
<!-- BehaviorAggregateClassifier -->
<g id="node2" class="node">
<title>BehaviorAggregateClassifier</title>
<g id="a_node2"><a xlink:href="inet.networklayer.diffserv.BehaviorAggregateClassifier.html" xlink:title="Simple Module BehaviorAggregateClassifier" target="_parent">
<polygon fill="#fffcaf" stroke="black" points="156,-19 0,-19 0,0 156,0 156,-19"/>
<text text-anchor="middle" x="78" y="-7" font-family="Helvetica,sans-Serif" font-size="10.00">BehaviorAggregateClassifier</text>
</a>
</g>
</g>
<!-- TrafficConditioner&#45;&gt;BehaviorAggregateClassifier -->
<g id="edge1" class="edge">
<title>TrafficConditioner&#45;&gt;BehaviorAggregateClassifier</title>
<path fill="none" stroke="black" d="M505.72,-57.73C423.85,-48.69 264.51,-31.09 165.11,-20.12"/>
<polygon fill="black" stroke="black" points="165.41,-16.63 155.09,-19.01 164.64,-23.59 165.41,-16.63"/>
</g>
<!-- IdealChannel -->
<g id="node3" class="node">
<title>IdealChannel</title>
<g id="a_node3"><a xlink:href="ned.IdealChannel.html" xlink:title="Channel IdealChannel" target="_parent">
<polygon fill="#d0ffd0" stroke="black" points="254,-19 174,-19 174,0 254,0 254,-19"/>
<text text-anchor="middle" x="214" y="-7" font-family="Helvetica,sans-Serif" font-size="10.00">IdealChannel</text>
</a>
</g>
</g>
<!-- TrafficConditioner&#45;&gt;IdealChannel -->
<g id="edge2" class="edge">
<title>TrafficConditioner&#45;&gt;IdealChannel</title>
<path fill="none" stroke="black" d="M505.99,-56.01C449.09,-47.73 354.91,-33.8 264.02,-19.14"/>
<polygon fill="black" stroke="black" points="264.53,-15.67 254.1,-17.53 263.41,-22.58 264.53,-15.67"/>
</g>
<!-- SingleRateThreeColorMeter -->
<g id="node4" class="node">
<title>SingleRateThreeColorMeter</title>
<g id="a_node4"><a xlink:href="inet.networklayer.diffserv.SingleRateThreeColorMeter.html" xlink:title="Simple Module SingleRateThreeColorMeter" target="_parent">
<polygon fill="#fffcaf" stroke="black" points="423.5,-19 272.5,-19 272.5,0 423.5,0 423.5,-19"/>
<text text-anchor="middle" x="348" y="-7" font-family="Helvetica,sans-Serif" font-size="10.00">SingleRateThreeColorMeter</text>
</a>
</g>
</g>
<!-- TrafficConditioner&#45;&gt;SingleRateThreeColorMeter -->
<g id="edge3" class="edge">
<title>TrafficConditioner&#45;&gt;SingleRateThreeColorMeter</title>
<path fill="none" stroke="black" d="M524.26,-54.98C488.32,-45.91 431.28,-31.52 391.87,-21.57"/>
<polygon fill="black" stroke="black" points="392.56,-18.14 382,-19.08 390.84,-24.92 392.56,-18.14"/>
</g>
<!-- PassivePacketSink -->
<g id="node5" class="node">
<title>PassivePacketSink</title>
<g id="a_node5"><a xlink:href="inet.queueing.sink.PassivePacketSink.html" xlink:title="Simple Module PassivePacketSink" target="_parent">
<polygon fill="#fffcaf" stroke="black" points="548.5,-19 441.5,-19 441.5,0 548.5,0 548.5,-19"/>
<text text-anchor="middle" x="495" y="-7" font-family="Helvetica,sans-Serif" font-size="10.00">PassivePacketSink</text>
</a>
</g>
</g>
<!-- TrafficConditioner&#45;&gt;PassivePacketSink -->
<g id="edge4" class="edge">
<title>TrafficConditioner&#45;&gt;PassivePacketSink</title>
<path fill="none" stroke="black" d="M547.88,-54.98C538.56,-47.15 524.53,-35.34 513.26,-25.86"/>
<polygon fill="black" stroke="black" points="515.21,-22.93 505.31,-19.17 510.71,-28.29 515.21,-22.93"/>
</g>
<!-- MultiFieldClassifier -->
<g id="node6" class="node">
<title>MultiFieldClassifier</title>
<g id="a_node6"><a xlink:href="inet.networklayer.diffserv.MultiFieldClassifier.html" xlink:title="Simple Module MultiFieldClassifier" target="_parent">
<polygon fill="#fffcaf" stroke="black" points="677,-19 567,-19 567,0 677,0 677,-19"/>
<text text-anchor="middle" x="622" y="-7" font-family="Helvetica,sans-Serif" font-size="10.00">MultiFieldClassifier</text>
</a>
</g>
</g>
<!-- TrafficConditioner&#45;&gt;MultiFieldClassifier -->
<g id="edge5" class="edge">
<title>TrafficConditioner&#45;&gt;MultiFieldClassifier</title>
<path fill="none" stroke="black" d="M568.28,-54.98C577.84,-47.07 592.28,-35.11 603.78,-25.58"/>
<polygon fill="black" stroke="black" points="606.06,-28.24 611.53,-19.17 601.6,-22.85 606.06,-28.24"/>
</g>
<!-- PacketMultiplexer -->
<g id="node7" class="node">
<title>PacketMultiplexer</title>
<g id="a_node7"><a xlink:href="inet.queueing.common.PacketMultiplexer.html" xlink:title="Simple Module PacketMultiplexer" target="_parent">
<polygon fill="#fffcaf" stroke="black" points="799,-19 695,-19 695,0 799,0 799,-19"/>
<text text-anchor="middle" x="747" y="-7" font-family="Helvetica,sans-Serif" font-size="10.00">PacketMultiplexer</text>
</a>
</g>
</g>
<!-- TrafficConditioner&#45;&gt;PacketMultiplexer -->
<g id="edge6" class="edge">
<title>TrafficConditioner&#45;&gt;PacketMultiplexer</title>
<path fill="none" stroke="black" d="M588.37,-54.98C620.37,-46.01 670.96,-31.82 706.38,-21.89"/>
<polygon fill="black" stroke="black" points="707.71,-25.15 716.4,-19.08 705.82,-18.41 707.71,-25.15"/>
</g>
<!-- TokenBucketMeter -->
<g id="node8" class="node">
<title>TokenBucketMeter</title>
<g id="a_node8"><a xlink:href="inet.networklayer.diffserv.TokenBucketMeter.html" xlink:title="Simple Module TokenBucketMeter" target="_parent">
<polygon fill="#fffcaf" stroke="black" points="923,-19 817,-19 817,0 923,0 923,-19"/>
<text text-anchor="middle" x="870" y="-7" font-family="Helvetica,sans-Serif" font-size="10.00">TokenBucketMeter</text>
</a>
</g>
</g>
<!-- TrafficConditioner&#45;&gt;TokenBucketMeter -->
<g id="edge7" class="edge">
<title>TrafficConditioner&#45;&gt;TokenBucketMeter</title>
<path fill="none" stroke="black" d="M608.13,-54.98C663.09,-45.65 751.23,-30.67 809.87,-20.71"/>
<polygon fill="black" stroke="black" points="810.47,-24.16 819.74,-19.04 809.29,-17.26 810.47,-24.16"/>
</g>
<!-- DscpMarker -->
<g id="node9" class="node">
<title>DscpMarker</title>
<g id="a_node9"><a xlink:href="inet.networklayer.diffserv.DscpMarker.html" xlink:title="Simple Module DscpMarker" target="_parent">
<polygon fill="#fffcaf" stroke="black" points="1015,-19 941,-19 941,0 1015,0 1015,-19"/>
<text text-anchor="middle" x="978" y="-7" font-family="Helvetica,sans-Serif" font-size="10.00">DscpMarker</text>
</a>
</g>
</g>
<!-- TrafficConditioner&#45;&gt;DscpMarker -->
<g id="edge8" class="edge">
<title>TrafficConditioner&#45;&gt;DscpMarker</title>
<path fill="none" stroke="black" d="M610.18,-58.36C680.61,-51.19 810.24,-37.16 930.74,-19.1"/>
<polygon fill="black" stroke="black" points="931.51,-22.53 940.88,-17.57 930.47,-15.6 931.51,-22.53"/>
</g>
</g>
</svg>
