<?xml version="1.0" encoding="UTF-8" standalone="no"?>
<!DOCTYPE svg PUBLIC "-//W3C//DTD SVG 1.1//EN"
 "http://www.w3.org/Graphics/SVG/1.1/DTD/svg11.dtd">
<!-- Generated by graphviz version 2.43.0 (0)
 -->
<!-- Title: opp Pages: 1 -->
<svg width="462pt" height="137pt"
 viewBox="0.00 0.00 462.00 137.00" xmlns="http://www.w3.org/2000/svg" xmlns:xlink="http://www.w3.org/1999/xlink">
<g id="graph0" class="graph" transform="scale(1 1) rotate(0) translate(4 133)">
<title>opp</title>
<polygon fill="transparent" stroke="transparent" points="-4,4 -4,-133 458,-133 458,4 -4,4"/>
<!-- SmallLAN -->
<g id="node1" class="node">
<title>SmallLAN</title>
<g id="a_node1"><a xlink:href="inet.examples.ethernet.lans.SmallLAN.html" xlink:title="Compound Module SmallLAN" target="_parent">
<polygon fill="#fff700" stroke="black" points="255.5,-74 190.5,-74 190.5,-55 255.5,-55 255.5,-74"/>
<text text-anchor="middle" x="223" y="-62" font-family="Helvetica,sans-Serif" font-size="10.00">SmallLAN</text>
</a>
</g>
</g>
<!-- IdealChannel -->
<g id="node2" class="node">
<title>IdealChannel</title>
<g id="a_node2"><a xlink:href="ned.IdealChannel.html" xlink:title="Channel IdealChannel" target="_parent">
<polygon fill="#d0ffd0" stroke="black" points="80,-19 0,-19 0,0 80,0 80,-19"/>
<text text-anchor="middle" x="40" y="-7" font-family="Helvetica,sans-Serif" font-size="10.00">IdealChannel</text>
</a>
</g>
</g>
<!-- SmallLAN&#45;&gt;IdealChannel -->
<g id="edge1" class="edge">
<title>SmallLAN&#45;&gt;IdealChannel</title>
<path fill="none" stroke="black" d="M193.6,-54.98C162.61,-46.01 113.62,-31.82 79.33,-21.89"/>
<polygon fill="black" stroke="black" points="80.21,-18.5 69.63,-19.08 78.26,-25.23 80.21,-18.5"/>
</g>
<!-- EthernetHost -->
<g id="node3" class="node">
<title>EthernetHost</title>
<g id="a_node3"><a xlink:href="inet.node.ethernet.EthernetHost.html" xlink:title="Compound Module EthernetHost" target="_parent">
<polygon fill="#fffcaf" stroke="black" points="178,-19 98,-19 98,0 178,0 178,-19"/>
<text text-anchor="middle" x="138" y="-7" font-family="Helvetica,sans-Serif" font-size="10.00">EthernetHost</text>
</a>
</g>
</g>
<!-- SmallLAN&#45;&gt;EthernetHost -->
<g id="edge2" class="edge">
<title>SmallLAN&#45;&gt;EthernetHost</title>
<path fill="none" stroke="black" d="M209.34,-54.98C196.16,-46.77 175.97,-34.18 160.43,-24.49"/>
<polygon fill="black" stroke="black" points="162.24,-21.49 151.91,-19.17 158.54,-27.43 162.24,-21.49"/>
</g>
<!-- cable -->
<g id="node4" class="node">
<title>cable</title>
<g id="a_node4"><a xlink:href="inet.examples.ethernet.lans.cable.html" xlink:title="Channel cable" target="_parent">
<polygon fill="#d0ffd0" stroke="black" points="250,-19 196,-19 196,0 250,0 250,-19"/>
<text text-anchor="middle" x="223" y="-7" font-family="Helvetica,sans-Serif" font-size="10.00">cable</text>
</a>
</g>
</g>
<!-- SmallLAN&#45;&gt;cable -->
<g id="edge3" class="edge">
<title>SmallLAN&#45;&gt;cable</title>
<path fill="none" stroke="black" d="M223,-54.75C223,-47.8 223,-37.85 223,-29.13"/>
<polygon fill="black" stroke="black" points="226.5,-29.09 223,-19.09 219.5,-29.09 226.5,-29.09"/>
</g>
<!-- EthernetHub -->
<g id="node5" class="node">
<title>EthernetHub</title>
<g id="a_node5"><a xlink:href="inet.node.ethernet.EthernetHub.html" xlink:title="Simple Module EthernetHub" target="_parent">
<polygon fill="#fffcaf" stroke="black" points="345.5,-19 268.5,-19 268.5,0 345.5,0 345.5,-19"/>
<text text-anchor="middle" x="307" y="-7" font-family="Helvetica,sans-Serif" font-size="10.00">EthernetHub</text>
</a>
</g>
</g>
<!-- SmallLAN&#45;&gt;EthernetHub -->
<g id="edge4" class="edge">
<title>SmallLAN&#45;&gt;EthernetHub</title>
<path fill="none" stroke="black" d="M236.5,-54.98C249.4,-46.84 269.1,-34.41 284.4,-24.76"/>
<polygon fill="black" stroke="black" points="286.67,-27.47 293.26,-19.17 282.93,-21.55 286.67,-27.47"/>
</g>
<!-- EthernetSwitch -->
<g id="node6" class="node">
<title>EthernetSwitch</title>
<g id="a_node6"><a xlink:href="inet.node.ethernet.EthernetSwitch.html" xlink:title="Compound Module EthernetSwitch" target="_parent">
<polygon fill="#fffcaf" stroke="black" points="454,-19 364,-19 364,0 454,0 454,-19"/>
<text text-anchor="middle" x="409" y="-7" font-family="Helvetica,sans-Serif" font-size="10.00">EthernetSwitch</text>
</a>
</g>
</g>
<!-- SmallLAN&#45;&gt;EthernetSwitch -->
<g id="edge5" class="edge">
<title>SmallLAN&#45;&gt;EthernetSwitch</title>
<path fill="none" stroke="black" d="M252.88,-54.98C284.38,-46.01 334.17,-31.82 369.03,-21.89"/>
<polygon fill="black" stroke="black" points="370.22,-25.19 378.88,-19.08 368.31,-18.46 370.22,-25.19"/>
</g>
<!-- LargeNet -->
<g id="node7" class="node">
<title>LargeNet</title>
<g id="a_node7"><a xlink:href="inet.examples.ethernet.lans.LargeNet.html" xlink:title="Network LargeNet" target="_parent">
<polygon fill="#d0d0ff" stroke="black" points="253.5,-129 192.5,-129 192.5,-110 253.5,-110 253.5,-129"/>
<text text-anchor="middle" x="223" y="-117" font-family="Helvetica,sans-Serif" font-size="10.00">LargeNet</text>
</a>
</g>
</g>
<!-- LargeNet&#45;&gt;SmallLAN -->
<g id="edge6" class="edge">
<title>LargeNet&#45;&gt;SmallLAN</title>
<path fill="none" stroke="black" d="M223,-109.75C223,-102.8 223,-92.85 223,-84.13"/>
<polygon fill="black" stroke="black" points="226.5,-84.09 223,-74.09 219.5,-84.09 226.5,-84.09"/>
</g>
</g>
</svg>
