<?xml version="1.0" encoding="UTF-8" standalone="no"?>
<!DOCTYPE svg PUBLIC "-//W3C//DTD SVG 1.1//EN"
 "http://www.w3.org/Graphics/SVG/1.1/DTD/svg11.dtd">
<!-- Generated by graphviz version 2.43.0 (0)
 -->
<!-- Title: opp Pages: 1 -->
<svg width="618pt" height="82pt"
 viewBox="0.00 0.00 617.50 82.00" xmlns="http://www.w3.org/2000/svg" xmlns:xlink="http://www.w3.org/1999/xlink">
<g id="graph0" class="graph" transform="scale(1 1) rotate(0) translate(4 78)">
<title>opp</title>
<polygon fill="transparent" stroke="transparent" points="-4,4 -4,-78 613.5,-78 613.5,4 -4,4"/>
<!-- EthernetLayer -->
<g id="node1" class="node">
<title>EthernetLayer</title>
<g id="a_node1"><a xlink:href="inet.linklayer.ethernet.modular.EthernetLayer.html" xlink:title="Compound Module EthernetLayer" target="_parent">
<polygon fill="#fff700" stroke="black" points="340.5,-74 255.5,-74 255.5,-55 340.5,-55 340.5,-74"/>
<text text-anchor="middle" x="298" y="-62" font-family="Helvetica,sans-Serif" font-size="10.00">EthernetLayer</text>
</a>
</g>
</g>
<!-- IdealChannel -->
<g id="node2" class="node">
<title>IdealChannel</title>
<g id="a_node2"><a xlink:href="ned.IdealChannel.html" xlink:title="Channel IdealChannel" target="_parent">
<polygon fill="#d0ffd0" stroke="black" points="80,-19 0,-19 0,0 80,0 80,-19"/>
<text text-anchor="middle" x="40" y="-7" font-family="Helvetica,sans-Serif" font-size="10.00">IdealChannel</text>
</a>
</g>
</g>
<!-- EthernetLayer&#45;&gt;IdealChannel -->
<g id="edge1" class="edge">
<title>EthernetLayer&#45;&gt;IdealChannel</title>
<path fill="none" stroke="black" d="M256.55,-54.98C211.2,-45.67 138.52,-30.74 90.04,-20.78"/>
<polygon fill="black" stroke="black" points="90.58,-17.32 80.08,-18.73 89.17,-24.17 90.58,-17.32"/>
</g>
<!-- EthernetSocketTable -->
<g id="node3" class="node">
<title>EthernetSocketTable</title>
<g id="a_node3"><a xlink:href="inet.linklayer.ethernet.modular.EthernetSocketTable.html" xlink:title="Simple Module EthernetSocketTable" target="_parent">
<polygon fill="#fffcaf" stroke="black" points="214,-19 98,-19 98,0 214,0 214,-19"/>
<text text-anchor="middle" x="156" y="-7" font-family="Helvetica,sans-Serif" font-size="10.00">EthernetSocketTable</text>
</a>
</g>
</g>
<!-- EthernetLayer&#45;&gt;EthernetSocketTable -->
<g id="edge2" class="edge">
<title>EthernetLayer&#45;&gt;EthernetSocketTable</title>
<path fill="none" stroke="black" d="M275.19,-54.98C251.83,-46.27 215.3,-32.63 188.83,-22.75"/>
<polygon fill="black" stroke="black" points="189.82,-19.39 179.23,-19.17 187.37,-25.95 189.82,-19.39"/>
</g>
<!-- IProtocolHeaderInserter -->
<g id="node4" class="node">
<title>IProtocolHeaderInserter</title>
<g id="a_node4"><a xlink:href="inet.protocolelement.contract.IProtocolHeaderInserter.html" xlink:title="Module Interface IProtocolHeaderInserter" target="_parent">
<polygon fill="#fffcaf" stroke="black" stroke-dasharray="5,2" points="364,-19 232,-19 232,0 364,0 364,-19"/>
<text text-anchor="middle" x="298" y="-7" font-family="Helvetica,sans-Serif" font-size="10.00">IProtocolHeaderInserter</text>
</a>
</g>
</g>
<!-- EthernetLayer&#45;&gt;IProtocolHeaderInserter -->
<g id="edge3" class="edge">
<title>EthernetLayer&#45;&gt;IProtocolHeaderInserter</title>
<path fill="none" stroke="black" d="M298,-54.75C298,-47.8 298,-37.85 298,-29.13"/>
<polygon fill="black" stroke="black" points="301.5,-29.09 298,-19.09 294.5,-29.09 301.5,-29.09"/>
</g>
<!-- IProtocolHeaderChecker -->
<g id="node5" class="node">
<title>IProtocolHeaderChecker</title>
<g id="a_node5"><a xlink:href="inet.protocolelement.contract.IProtocolHeaderChecker.html" xlink:title="Module Interface IProtocolHeaderChecker" target="_parent">
<polygon fill="#fffcaf" stroke="black" stroke-dasharray="5,2" points="516,-19 382,-19 382,0 516,0 516,-19"/>
<text text-anchor="middle" x="449" y="-7" font-family="Helvetica,sans-Serif" font-size="10.00">IProtocolHeaderChecker</text>
</a>
</g>
</g>
<!-- EthernetLayer&#45;&gt;IProtocolHeaderChecker -->
<g id="edge4" class="edge">
<title>EthernetLayer&#45;&gt;IProtocolHeaderChecker</title>
<path fill="none" stroke="black" d="M322.26,-54.98C347.32,-46.19 386.63,-32.39 414.83,-22.49"/>
<polygon fill="black" stroke="black" points="416.02,-25.78 424.3,-19.17 413.7,-19.18 416.02,-25.78"/>
</g>
<!-- IPacketFlow -->
<g id="node6" class="node">
<title>IPacketFlow</title>
<g id="a_node6"><a xlink:href="inet.queueing.contract.IPacketFlow.html" xlink:title="Module Interface IPacketFlow" target="_parent">
<polygon fill="#fffcaf" stroke="black" stroke-dasharray="5,2" points="609.5,-19 534.5,-19 534.5,0 609.5,0 609.5,-19"/>
<text text-anchor="middle" x="572" y="-7" font-family="Helvetica,sans-Serif" font-size="10.00">IPacketFlow</text>
</a>
</g>
</g>
<!-- EthernetLayer&#45;&gt;IPacketFlow -->
<g id="edge5" class="edge">
<title>EthernetLayer&#45;&gt;IPacketFlow</title>
<path fill="none" stroke="black" d="M340.51,-55.28C390.26,-45.65 472.41,-29.76 524.29,-19.73"/>
<polygon fill="black" stroke="black" points="525.09,-23.14 534.24,-17.8 523.76,-16.27 525.09,-23.14"/>
</g>
</g>
</svg>
