<?xml version="1.0" encoding="UTF-8" standalone="no"?>
<!DOCTYPE svg PUBLIC "-//W3C//DTD SVG 1.1//EN"
 "http://www.w3.org/Graphics/SVG/1.1/DTD/svg11.dtd">
<!-- Generated by graphviz version 2.43.0 (0)
 -->
<!-- Title: opp Pages: 1 -->
<svg width="472pt" height="82pt"
 viewBox="0.00 0.00 471.50 82.00" xmlns="http://www.w3.org/2000/svg" xmlns:xlink="http://www.w3.org/1999/xlink">
<g id="graph0" class="graph" transform="scale(1 1) rotate(0) translate(4 78)">
<title>opp</title>
<polygon fill="transparent" stroke="transparent" points="-4,4 -4,-78 467.5,-78 467.5,4 -4,4"/>
<!-- Filter2TutorialStep -->
<g id="node1" class="node">
<title>Filter2TutorialStep</title>
<g id="a_node1"><a xlink:href="inet.tutorials.queueing.Filter2TutorialStep.html" xlink:title="Network Filter2TutorialStep" target="_parent">
<polygon fill="#9090ff" stroke="black" points="271,-74 167,-74 167,-55 271,-55 271,-74"/>
<text text-anchor="middle" x="219" y="-62" font-family="Helvetica,sans-Serif" font-size="10.00">Filter2TutorialStep</text>
</a>
</g>
</g>
<!-- IdealChannel -->
<g id="node2" class="node">
<title>IdealChannel</title>
<g id="a_node2"><a xlink:href="ned.IdealChannel.html" xlink:title="Channel IdealChannel" target="_parent">
<polygon fill="#d0ffd0" stroke="black" points="80,-19 0,-19 0,0 80,0 80,-19"/>
<text text-anchor="middle" x="40" y="-7" font-family="Helvetica,sans-Serif" font-size="10.00">IdealChannel</text>
</a>
</g>
</g>
<!-- Filter2TutorialStep&#45;&gt;IdealChannel -->
<g id="edge1" class="edge">
<title>Filter2TutorialStep&#45;&gt;IdealChannel</title>
<path fill="none" stroke="black" d="M190.24,-54.98C160.06,-46.05 112.43,-31.94 78.9,-22.02"/>
<polygon fill="black" stroke="black" points="79.57,-18.57 68.98,-19.08 77.58,-25.28 79.57,-18.57"/>
</g>
<!-- ContentBasedFilter -->
<g id="node3" class="node">
<title>ContentBasedFilter</title>
<g id="a_node3"><a xlink:href="inet.queueing.filter.ContentBasedFilter.html" xlink:title="Simple Module ContentBasedFilter" target="_parent">
<polygon fill="#fffcaf" stroke="black" points="207.5,-19 98.5,-19 98.5,0 207.5,0 207.5,-19"/>
<text text-anchor="middle" x="153" y="-7" font-family="Helvetica,sans-Serif" font-size="10.00">ContentBasedFilter</text>
</a>
</g>
</g>
<!-- Filter2TutorialStep&#45;&gt;ContentBasedFilter -->
<g id="edge2" class="edge">
<title>Filter2TutorialStep&#45;&gt;ContentBasedFilter</title>
<path fill="none" stroke="black" d="M208.4,-54.98C198.54,-47.07 183.65,-35.11 171.78,-25.58"/>
<polygon fill="black" stroke="black" points="173.79,-22.7 163.8,-19.17 169.4,-28.16 173.79,-22.7"/>
</g>
<!-- PassivePacketSource -->
<g id="node4" class="node">
<title>PassivePacketSource</title>
<g id="a_node4"><a xlink:href="inet.queueing.source.PassivePacketSource.html" xlink:title="Simple Module PassivePacketSource" target="_parent">
<polygon fill="#fffcaf" stroke="black" points="344.5,-19 225.5,-19 225.5,0 344.5,0 344.5,-19"/>
<text text-anchor="middle" x="285" y="-7" font-family="Helvetica,sans-Serif" font-size="10.00">PassivePacketSource</text>
</a>
</g>
</g>
<!-- Filter2TutorialStep&#45;&gt;PassivePacketSource -->
<g id="edge3" class="edge">
<title>Filter2TutorialStep&#45;&gt;PassivePacketSource</title>
<path fill="none" stroke="black" d="M229.6,-54.98C239.46,-47.07 254.35,-35.11 266.22,-25.58"/>
<polygon fill="black" stroke="black" points="268.6,-28.16 274.2,-19.17 264.21,-22.7 268.6,-28.16"/>
</g>
<!-- ActivePacketSink -->
<g id="node5" class="node">
<title>ActivePacketSink</title>
<g id="a_node5"><a xlink:href="inet.queueing.sink.ActivePacketSink.html" xlink:title="Simple Module ActivePacketSink" target="_parent">
<polygon fill="#fffcaf" stroke="black" points="463.5,-19 362.5,-19 362.5,0 463.5,0 463.5,-19"/>
<text text-anchor="middle" x="413" y="-7" font-family="Helvetica,sans-Serif" font-size="10.00">ActivePacketSink</text>
</a>
</g>
</g>
<!-- Filter2TutorialStep&#45;&gt;ActivePacketSink -->
<g id="edge4" class="edge">
<title>Filter2TutorialStep&#45;&gt;ActivePacketSink</title>
<path fill="none" stroke="black" d="M250.17,-54.98C283.16,-45.97 335.4,-31.7 371.77,-21.76"/>
<polygon fill="black" stroke="black" points="372.86,-25.09 381.59,-19.08 371.02,-18.34 372.86,-25.09"/>
</g>
</g>
</svg>
