<?xml version="1.0" encoding="UTF-8" standalone="no"?>
<!DOCTYPE svg PUBLIC "-//W3C//DTD SVG 1.1//EN"
 "http://www.w3.org/Graphics/SVG/1.1/DTD/svg11.dtd">
<!-- Generated by graphviz version 2.43.0 (0)
 -->
<!-- Title: opp Pages: 1 -->
<svg width="780pt" height="82pt"
 viewBox="0.00 0.00 780.00 82.00" xmlns="http://www.w3.org/2000/svg" xmlns:xlink="http://www.w3.org/1999/xlink">
<g id="graph0" class="graph" transform="scale(1 1) rotate(0) translate(4 78)">
<title>opp</title>
<polygon fill="transparent" stroke="transparent" points="-4,4 -4,-78 776,-78 776,4 -4,4"/>
<!-- PacketBasedTokenGeneratorTutorialStep -->
<g id="node1" class="node">
<title>PacketBasedTokenGeneratorTutorialStep</title>
<g id="a_node1"><a xlink:href="inet.tutorials.queueing.PacketBasedTokenGeneratorTutorialStep.html" xlink:title="Network PacketBasedTokenGeneratorTutorialStep" target="_parent">
<polygon fill="#9090ff" stroke="black" points="464,-74 251,-74 251,-55 464,-55 464,-74"/>
<text text-anchor="middle" x="357.5" y="-62" font-family="Helvetica,sans-Serif" font-size="10.00">PacketBasedTokenGeneratorTutorialStep</text>
</a>
</g>
</g>
<!-- ActivePacketSource -->
<g id="node2" class="node">
<title>ActivePacketSource</title>
<g id="a_node2"><a xlink:href="inet.queueing.source.ActivePacketSource.html" xlink:title="Simple Module ActivePacketSource" target="_parent">
<polygon fill="#fffcaf" stroke="black" points="113,-19 0,-19 0,0 113,0 113,-19"/>
<text text-anchor="middle" x="56.5" y="-7" font-family="Helvetica,sans-Serif" font-size="10.00">ActivePacketSource</text>
</a>
</g>
</g>
<!-- PacketBasedTokenGeneratorTutorialStep&#45;&gt;ActivePacketSource -->
<g id="edge1" class="edge">
<title>PacketBasedTokenGeneratorTutorialStep&#45;&gt;ActivePacketSource</title>
<path fill="none" stroke="black" d="M309.14,-54.98C256.31,-45.68 171.68,-30.78 115.11,-20.82"/>
<polygon fill="black" stroke="black" points="115.7,-17.37 105.24,-19.08 114.48,-24.26 115.7,-17.37"/>
</g>
<!-- IdealChannel -->
<g id="node3" class="node">
<title>IdealChannel</title>
<g id="a_node3"><a xlink:href="ned.IdealChannel.html" xlink:title="Channel IdealChannel" target="_parent">
<polygon fill="#d0ffd0" stroke="black" points="211.5,-19 131.5,-19 131.5,0 211.5,0 211.5,-19"/>
<text text-anchor="middle" x="171.5" y="-7" font-family="Helvetica,sans-Serif" font-size="10.00">IdealChannel</text>
</a>
</g>
</g>
<!-- PacketBasedTokenGeneratorTutorialStep&#45;&gt;IdealChannel -->
<g id="edge2" class="edge">
<title>PacketBasedTokenGeneratorTutorialStep&#45;&gt;IdealChannel</title>
<path fill="none" stroke="black" d="M327.62,-54.98C296.12,-46.01 246.33,-31.82 211.47,-21.89"/>
<polygon fill="black" stroke="black" points="212.19,-18.46 201.62,-19.08 210.28,-25.19 212.19,-18.46"/>
</g>
<!-- PassivePacketSink -->
<g id="node4" class="node">
<title>PassivePacketSink</title>
<g id="a_node4"><a xlink:href="inet.queueing.sink.PassivePacketSink.html" xlink:title="Simple Module PassivePacketSink" target="_parent">
<polygon fill="#fffcaf" stroke="black" points="337,-19 230,-19 230,0 337,0 337,-19"/>
<text text-anchor="middle" x="283.5" y="-7" font-family="Helvetica,sans-Serif" font-size="10.00">PassivePacketSink</text>
</a>
</g>
</g>
<!-- PacketBasedTokenGeneratorTutorialStep&#45;&gt;PassivePacketSink -->
<g id="edge3" class="edge">
<title>PacketBasedTokenGeneratorTutorialStep&#45;&gt;PassivePacketSink</title>
<path fill="none" stroke="black" d="M345.61,-54.98C334.35,-46.92 317.21,-34.65 303.79,-25.03"/>
<polygon fill="black" stroke="black" points="305.77,-22.15 295.61,-19.17 301.7,-27.84 305.77,-22.15"/>
</g>
<!-- PacketBasedTokenGenerator -->
<g id="node5" class="node">
<title>PacketBasedTokenGenerator</title>
<g id="a_node5"><a xlink:href="inet.queueing.tokengenerator.PacketBasedTokenGenerator.html" xlink:title="Simple Module PacketBasedTokenGenerator" target="_parent">
<polygon fill="#fffcaf" stroke="black" points="510,-19 355,-19 355,0 510,0 510,-19"/>
<text text-anchor="middle" x="432.5" y="-7" font-family="Helvetica,sans-Serif" font-size="10.00">PacketBasedTokenGenerator</text>
</a>
</g>
</g>
<!-- PacketBasedTokenGeneratorTutorialStep&#45;&gt;PacketBasedTokenGenerator -->
<g id="edge4" class="edge">
<title>PacketBasedTokenGeneratorTutorialStep&#45;&gt;PacketBasedTokenGenerator</title>
<path fill="none" stroke="black" d="M369.55,-54.98C380.96,-46.92 398.33,-34.65 411.93,-25.03"/>
<polygon fill="black" stroke="black" points="414.08,-27.8 420.23,-19.17 410.04,-22.08 414.08,-27.8"/>
</g>
<!-- TokenBasedServer -->
<g id="node6" class="node">
<title>TokenBasedServer</title>
<g id="a_node6"><a xlink:href="inet.queueing.server.TokenBasedServer.html" xlink:title="Simple Module TokenBasedServer" target="_parent">
<polygon fill="#fffcaf" stroke="black" points="634.5,-19 528.5,-19 528.5,0 634.5,0 634.5,-19"/>
<text text-anchor="middle" x="581.5" y="-7" font-family="Helvetica,sans-Serif" font-size="10.00">TokenBasedServer</text>
</a>
</g>
</g>
<!-- PacketBasedTokenGeneratorTutorialStep&#45;&gt;TokenBasedServer -->
<g id="edge5" class="edge">
<title>PacketBasedTokenGeneratorTutorialStep&#45;&gt;TokenBasedServer</title>
<path fill="none" stroke="black" d="M393.49,-54.98C431.99,-45.87 493.19,-31.4 535.24,-21.45"/>
<polygon fill="black" stroke="black" points="536.3,-24.79 545.23,-19.08 534.69,-17.98 536.3,-24.79"/>
</g>
<!-- PassivePacketSource -->
<g id="node7" class="node">
<title>PassivePacketSource</title>
<g id="a_node7"><a xlink:href="inet.queueing.source.PassivePacketSource.html" xlink:title="Simple Module PassivePacketSource" target="_parent">
<polygon fill="#fffcaf" stroke="black" points="772,-19 653,-19 653,0 772,0 772,-19"/>
<text text-anchor="middle" x="712.5" y="-7" font-family="Helvetica,sans-Serif" font-size="10.00">PassivePacketSource</text>
</a>
</g>
</g>
<!-- PacketBasedTokenGeneratorTutorialStep&#45;&gt;PassivePacketSource -->
<g id="edge6" class="edge">
<title>PacketBasedTokenGeneratorTutorialStep&#45;&gt;PassivePacketSource</title>
<path fill="none" stroke="black" d="M414.54,-54.98C477.46,-45.59 578.61,-30.49 645.32,-20.53"/>
<polygon fill="black" stroke="black" points="645.94,-23.98 655.31,-19.04 644.9,-17.05 645.94,-23.98"/>
</g>
</g>
</svg>
