<?xml version="1.0" encoding="UTF-8" standalone="no"?>
<!DOCTYPE svg PUBLIC "-//W3C//DTD SVG 1.1//EN"
 "http://www.w3.org/Graphics/SVG/1.1/DTD/svg11.dtd">
<!-- Generated by graphviz version 2.43.0 (0)
 -->
<!-- Title: opp Pages: 1 -->
<svg width="278pt" height="82pt"
 viewBox="0.00 0.00 278.00 82.00" xmlns="http://www.w3.org/2000/svg" xmlns:xlink="http://www.w3.org/1999/xlink">
<g id="graph0" class="graph" transform="scale(1 1) rotate(0) translate(4 78)">
<title>opp</title>
<polygon fill="transparent" stroke="transparent" points="-4,4 -4,-78 274,-78 274,4 -4,4"/>
<!-- AutomaticFailureProtectionShowcase -->
<g id="node1" class="node">
<title>AutomaticFailureProtectionShowcase</title>
<g id="a_node1"><a xlink:href="inet.showcases.tsn.framereplication.automaticfailureprotection.AutomaticFailureProtectionShowcase.html" xlink:title="Network AutomaticFailureProtectionShowcase" target="_parent">
<polygon fill="#9090ff" stroke="black" points="222,-74 24,-74 24,-55 222,-55 222,-74"/>
<text text-anchor="middle" x="123" y="-62" font-family="Helvetica,sans-Serif" font-size="10.00">AutomaticFailureProtectionShowcase</text>
</a>
</g>
</g>
<!-- TsnDevice -->
<g id="node2" class="node">
<title>TsnDevice</title>
<g id="a_node2"><a xlink:href="inet.node.tsn.TsnDevice.html" xlink:title="Compound Module TsnDevice" target="_parent">
<polygon fill="#fffcaf" stroke="black" points="66,-19 0,-19 0,0 66,0 66,-19"/>
<text text-anchor="middle" x="33" y="-7" font-family="Helvetica,sans-Serif" font-size="10.00">TsnDevice</text>
</a>
</g>
</g>
<!-- AutomaticFailureProtectionShowcase&#45;&gt;TsnDevice -->
<g id="edge1" class="edge">
<title>AutomaticFailureProtectionShowcase&#45;&gt;TsnDevice</title>
<path fill="none" stroke="black" d="M108.54,-54.98C94.58,-46.77 73.21,-34.18 56.75,-24.49"/>
<polygon fill="black" stroke="black" points="58.12,-21.23 47.72,-19.17 54.56,-27.26 58.12,-21.23"/>
</g>
<!-- EthernetLink -->
<g id="node3" class="node">
<title>EthernetLink</title>
<g id="a_node3"><a xlink:href="inet.node.ethernet.EthernetLink.html" xlink:title="Channel EthernetLink" target="_parent">
<polygon fill="#d0ffd0" stroke="black" points="162,-19 84,-19 84,0 162,0 162,-19"/>
<text text-anchor="middle" x="123" y="-7" font-family="Helvetica,sans-Serif" font-size="10.00">EthernetLink</text>
</a>
</g>
</g>
<!-- AutomaticFailureProtectionShowcase&#45;&gt;EthernetLink -->
<g id="edge2" class="edge">
<title>AutomaticFailureProtectionShowcase&#45;&gt;EthernetLink</title>
<path fill="none" stroke="black" d="M123,-54.75C123,-47.8 123,-37.85 123,-29.13"/>
<polygon fill="black" stroke="black" points="126.5,-29.09 123,-19.09 119.5,-29.09 126.5,-29.09"/>
</g>
<!-- LocalTsnSwitch -->
<g id="node4" class="node">
<title>LocalTsnSwitch</title>
<g id="a_node4"><a xlink:href="inet.showcases.tsn.framereplication.automaticfailureprotection.LocalTsnSwitch.html" xlink:title="Compound Module LocalTsnSwitch" target="_parent">
<polygon fill="#fffcaf" stroke="black" points="270,-19 180,-19 180,0 270,0 270,-19"/>
<text text-anchor="middle" x="225" y="-7" font-family="Helvetica,sans-Serif" font-size="10.00">LocalTsnSwitch</text>
</a>
</g>
</g>
<!-- AutomaticFailureProtectionShowcase&#45;&gt;LocalTsnSwitch -->
<g id="edge3" class="edge">
<title>AutomaticFailureProtectionShowcase&#45;&gt;LocalTsnSwitch</title>
<path fill="none" stroke="black" d="M139.39,-54.98C155.57,-46.57 180.57,-33.59 199.38,-23.81"/>
<polygon fill="black" stroke="black" points="201.05,-26.89 208.31,-19.17 197.83,-20.68 201.05,-26.89"/>
</g>
</g>
</svg>
