<?xml version="1.0" encoding="UTF-8" standalone="no"?>
<!DOCTYPE svg PUBLIC "-//W3C//DTD SVG 1.1//EN"
 "http://www.w3.org/Graphics/SVG/1.1/DTD/svg11.dtd">
<!-- Generated by graphviz version 2.43.0 (0)
 -->
<!-- Title: opp Pages: 1 -->
<svg width="594pt" height="82pt"
 viewBox="0.00 0.00 594.00 82.00" xmlns="http://www.w3.org/2000/svg" xmlns:xlink="http://www.w3.org/1999/xlink">
<g id="graph0" class="graph" transform="scale(1 1) rotate(0) translate(4 78)">
<title>opp</title>
<polygon fill="transparent" stroke="transparent" points="-4,4 -4,-78 590,-78 590,4 -4,4"/>
<!-- EthernetMacLayer -->
<g id="node1" class="node">
<title>EthernetMacLayer</title>
<g id="a_node1"><a xlink:href="inet.linklayer.ethernet.modular.EthernetMacLayer.html" xlink:title="Compound Module EthernetMacLayer" target="_parent">
<polygon fill="#fff700" stroke="black" points="339.5,-74 234.5,-74 234.5,-55 339.5,-55 339.5,-74"/>
<text text-anchor="middle" x="287" y="-62" font-family="Helvetica,sans-Serif" font-size="10.00">EthernetMacLayer</text>
</a>
</g>
</g>
<!-- IdealChannel -->
<g id="node2" class="node">
<title>IdealChannel</title>
<g id="a_node2"><a xlink:href="ned.IdealChannel.html" xlink:title="Channel IdealChannel" target="_parent">
<polygon fill="#d0ffd0" stroke="black" points="80,-19 0,-19 0,0 80,0 80,-19"/>
<text text-anchor="middle" x="40" y="-7" font-family="Helvetica,sans-Serif" font-size="10.00">IdealChannel</text>
</a>
</g>
</g>
<!-- EthernetMacLayer&#45;&gt;IdealChannel -->
<g id="edge1" class="edge">
<title>EthernetMacLayer&#45;&gt;IdealChannel</title>
<path fill="none" stroke="black" d="M247.32,-54.98C204.5,-45.8 136.24,-31.15 89.84,-21.19"/>
<polygon fill="black" stroke="black" points="90.51,-17.76 80,-19.08 89.04,-24.6 90.51,-17.76"/>
</g>
<!-- IPacketServer -->
<g id="node3" class="node">
<title>IPacketServer</title>
<g id="a_node3"><a xlink:href="inet.queueing.contract.IPacketServer.html" xlink:title="Module Interface IPacketServer" target="_parent">
<polygon fill="#fffcaf" stroke="black" stroke-dasharray="5,2" points="181.5,-19 98.5,-19 98.5,0 181.5,0 181.5,-19"/>
<text text-anchor="middle" x="140" y="-7" font-family="Helvetica,sans-Serif" font-size="10.00">IPacketServer</text>
</a>
</g>
</g>
<!-- EthernetMacLayer&#45;&gt;IPacketServer -->
<g id="edge2" class="edge">
<title>EthernetMacLayer&#45;&gt;IPacketServer</title>
<path fill="none" stroke="black" d="M263.38,-54.98C239.1,-46.23 201.05,-32.51 173.63,-22.62"/>
<polygon fill="black" stroke="black" points="174.64,-19.27 164.05,-19.17 172.27,-25.85 174.64,-19.27"/>
</g>
<!-- IPacketFilter -->
<g id="node4" class="node">
<title>IPacketFilter</title>
<g id="a_node4"><a xlink:href="inet.queueing.contract.IPacketFilter.html" xlink:title="Module Interface IPacketFilter" target="_parent">
<polygon fill="#fffcaf" stroke="black" stroke-dasharray="5,2" points="276,-19 200,-19 200,0 276,0 276,-19"/>
<text text-anchor="middle" x="238" y="-7" font-family="Helvetica,sans-Serif" font-size="10.00">IPacketFilter</text>
</a>
</g>
</g>
<!-- EthernetMacLayer&#45;&gt;IPacketFilter -->
<g id="edge3" class="edge">
<title>EthernetMacLayer&#45;&gt;IPacketFilter</title>
<path fill="none" stroke="black" d="M278.91,-54.75C271.84,-47.11 261.41,-35.82 252.85,-26.56"/>
<polygon fill="black" stroke="black" points="255.3,-24.06 245.94,-19.09 250.16,-28.81 255.3,-24.06"/>
</g>
<!-- IPacketQueue -->
<g id="node5" class="node">
<title>IPacketQueue</title>
<g id="a_node5"><a xlink:href="inet.queueing.contract.IPacketQueue.html" xlink:title="Module Interface IPacketQueue" target="_parent">
<polygon fill="#fffcaf" stroke="black" stroke-dasharray="5,2" points="377.5,-19 294.5,-19 294.5,0 377.5,0 377.5,-19"/>
<text text-anchor="middle" x="336" y="-7" font-family="Helvetica,sans-Serif" font-size="10.00">IPacketQueue</text>
</a>
</g>
</g>
<!-- EthernetMacLayer&#45;&gt;IPacketQueue -->
<g id="edge4" class="edge">
<title>EthernetMacLayer&#45;&gt;IPacketQueue</title>
<path fill="none" stroke="black" d="M295.09,-54.75C302.16,-47.11 312.59,-35.82 321.15,-26.56"/>
<polygon fill="black" stroke="black" points="323.84,-28.81 328.06,-19.09 318.7,-24.06 323.84,-28.81"/>
</g>
<!-- IPacketFlow -->
<g id="node6" class="node">
<title>IPacketFlow</title>
<g id="a_node6"><a xlink:href="inet.queueing.contract.IPacketFlow.html" xlink:title="Module Interface IPacketFlow" target="_parent">
<polygon fill="#fffcaf" stroke="black" stroke-dasharray="5,2" points="470.5,-19 395.5,-19 395.5,0 470.5,0 470.5,-19"/>
<text text-anchor="middle" x="433" y="-7" font-family="Helvetica,sans-Serif" font-size="10.00">IPacketFlow</text>
</a>
</g>
</g>
<!-- EthernetMacLayer&#45;&gt;IPacketFlow -->
<g id="edge5" class="edge">
<title>EthernetMacLayer&#45;&gt;IPacketFlow</title>
<path fill="none" stroke="black" d="M310.46,-54.98C334.58,-46.23 372.37,-32.51 399.6,-22.62"/>
<polygon fill="black" stroke="black" points="400.91,-25.87 409.12,-19.17 398.52,-19.29 400.91,-25.87"/>
</g>
<!-- IPacketLifeTimer -->
<g id="node7" class="node">
<title>IPacketLifeTimer</title>
<g id="a_node7"><a xlink:href="inet.protocolelement.contract.IPacketLifeTimer.html" xlink:title="Module Interface IPacketLifeTimer" target="_parent">
<polygon fill="#fffcaf" stroke="black" stroke-dasharray="5,2" points="586,-19 488,-19 488,0 586,0 586,-19"/>
<text text-anchor="middle" x="537" y="-7" font-family="Helvetica,sans-Serif" font-size="10.00">IPacketLifeTimer</text>
</a>
</g>
</g>
<!-- EthernetMacLayer&#45;&gt;IPacketLifeTimer -->
<g id="edge6" class="edge">
<title>EthernetMacLayer&#45;&gt;IPacketLifeTimer</title>
<path fill="none" stroke="black" d="M327.17,-54.98C370.5,-45.8 439.59,-31.15 486.56,-21.19"/>
<polygon fill="black" stroke="black" points="487.46,-24.58 496.52,-19.08 486.01,-17.73 487.46,-24.58"/>
</g>
</g>
</svg>
