<?xml version="1.0" encoding="UTF-8" standalone="no"?>
<!DOCTYPE svg PUBLIC "-//W3C//DTD SVG 1.1//EN"
 "http://www.w3.org/Graphics/SVG/1.1/DTD/svg11.dtd">
<!-- Generated by graphviz version 2.43.0 (0)
 -->
<!-- Title: opp Pages: 1 -->
<svg width="433pt" height="82pt"
 viewBox="0.00 0.00 433.00 82.00" xmlns="http://www.w3.org/2000/svg" xmlns:xlink="http://www.w3.org/1999/xlink">
<g id="graph0" class="graph" transform="scale(1 1) rotate(0) translate(4 78)">
<title>opp</title>
<polygon fill="transparent" stroke="transparent" points="-4,4 -4,-78 429,-78 429,4 -4,4"/>
<!-- AntennaOrientation -->
<g id="node1" class="node">
<title>AntennaOrientation</title>
<g id="a_node1"><a xlink:href="inet.showcases.mobility.combining.AntennaOrientation.html" xlink:title="Network AntennaOrientation" target="_parent">
<polygon fill="#9090ff" stroke="black" points="227.5,-74 115.5,-74 115.5,-55 227.5,-55 227.5,-74"/>
<text text-anchor="middle" x="171.5" y="-62" font-family="Helvetica,sans-Serif" font-size="10.00">AntennaOrientation</text>
</a>
</g>
</g>
<!-- StandardHost -->
<g id="node2" class="node">
<title>StandardHost</title>
<g id="a_node2"><a xlink:href="inet.node.inet.StandardHost.html" xlink:title="Compound Module StandardHost" target="_parent">
<polygon fill="#fffcaf" stroke="black" points="83,-19 0,-19 0,0 83,0 83,-19"/>
<text text-anchor="middle" x="41.5" y="-7" font-family="Helvetica,sans-Serif" font-size="10.00">StandardHost</text>
</a>
</g>
</g>
<!-- AntennaOrientation&#45;&gt;StandardHost -->
<g id="edge1" class="edge">
<title>AntennaOrientation&#45;&gt;StandardHost</title>
<path fill="none" stroke="black" d="M150.61,-54.98C129.42,-46.34 96.37,-32.87 72.2,-23.02"/>
<polygon fill="black" stroke="black" points="73.35,-19.7 62.77,-19.17 70.71,-26.19 73.35,-19.7"/>
</g>
<!-- IntegratedMultiVisualizer -->
<g id="node3" class="node">
<title>IntegratedMultiVisualizer</title>
<g id="a_node3"><a xlink:href="inet.visualizer.common.IntegratedMultiVisualizer.html" xlink:title="Compound Module IntegratedMultiVisualizer" target="_parent">
<polygon fill="#fffcaf" stroke="black" points="241.5,-19 101.5,-19 101.5,0 241.5,0 241.5,-19"/>
<text text-anchor="middle" x="171.5" y="-7" font-family="Helvetica,sans-Serif" font-size="10.00">IntegratedMultiVisualizer</text>
</a>
</g>
</g>
<!-- AntennaOrientation&#45;&gt;IntegratedMultiVisualizer -->
<g id="edge2" class="edge">
<title>AntennaOrientation&#45;&gt;IntegratedMultiVisualizer</title>
<path fill="none" stroke="black" d="M171.5,-54.75C171.5,-47.8 171.5,-37.85 171.5,-29.13"/>
<polygon fill="black" stroke="black" points="175,-29.09 171.5,-19.09 168,-29.09 175,-29.09"/>
</g>
<!-- Ieee80211ScalarRadioMedium -->
<g id="node4" class="node">
<title>Ieee80211ScalarRadioMedium</title>
<g id="a_node4"><a xlink:href="inet.physicallayer.wireless.ieee80211.packetlevel.Ieee80211ScalarRadioMedium.html" xlink:title="Compound Module Ieee80211ScalarRadioMedium" target="_parent">
<polygon fill="#fffcaf" stroke="black" points="425,-19 260,-19 260,0 425,0 425,-19"/>
<text text-anchor="middle" x="342.5" y="-7" font-family="Helvetica,sans-Serif" font-size="10.00">Ieee80211ScalarRadioMedium</text>
</a>
</g>
</g>
<!-- AntennaOrientation&#45;&gt;Ieee80211ScalarRadioMedium -->
<g id="edge3" class="edge">
<title>AntennaOrientation&#45;&gt;Ieee80211ScalarRadioMedium</title>
<path fill="none" stroke="black" d="M198.97,-54.98C227.68,-46.09 272.92,-32.07 304.92,-22.15"/>
<polygon fill="black" stroke="black" points="306.3,-25.39 314.81,-19.08 304.22,-18.7 306.3,-25.39"/>
</g>
</g>
</svg>
