<?xml version="1.0" encoding="UTF-8" standalone="no"?>
<!DOCTYPE svg PUBLIC "-//W3C//DTD SVG 1.1//EN"
 "http://www.w3.org/Graphics/SVG/1.1/DTD/svg11.dtd">
<!-- Generated by graphviz version 2.43.0 (0)
 -->
<!-- Title: opp Pages: 1 -->
<svg width="397pt" height="137pt"
 viewBox="0.00 0.00 396.50 137.00" xmlns="http://www.w3.org/2000/svg" xmlns:xlink="http://www.w3.org/1999/xlink">
<g id="graph0" class="graph" transform="scale(1 1) rotate(0) translate(4 133)">
<title>opp</title>
<polygon fill="transparent" stroke="transparent" points="-4,4 -4,-133 392.5,-133 392.5,4 -4,4"/>
<!-- PassivePacketSinkBase -->
<g id="node1" class="node">
<title>PassivePacketSinkBase</title>
<g id="a_node1"><a xlink:href="inet.queueing.base.PassivePacketSinkBase.html" xlink:title="Simple Module PassivePacketSinkBase" target="_parent">
<polygon fill="#fff700" stroke="black" points="244,-74 113,-74 113,-55 244,-55 244,-74"/>
<text text-anchor="middle" x="178.5" y="-62" font-family="Helvetica,sans-Serif" font-size="10.00">PassivePacketSinkBase</text>
</a>
</g>
</g>
<!-- PacketPushToSend -->
<g id="node3" class="node">
<title>PacketPushToSend</title>
<g id="a_node3"><a xlink:href="inet.queueing.common.PacketPushToSend.html" xlink:title="Simple Module PacketPushToSend" target="_parent">
<polygon fill="#fffcaf" stroke="black" points="107,-19 0,-19 0,0 107,0 107,-19"/>
<text text-anchor="middle" x="53.5" y="-7" font-family="Helvetica,sans-Serif" font-size="10.00">PacketPushToSend</text>
</a>
</g>
</g>
<!-- PassivePacketSinkBase&#45;&gt;PacketPushToSend -->
<g id="edge2" class="edge">
<title>PassivePacketSinkBase&#45;&gt;PacketPushToSend</title>
<path fill="none" stroke="black" d="M158.42,-54.98C135.23,-45.15 97.29,-29.07 73.95,-19.17"/>
</g>
<!-- PassivePacketSink -->
<g id="node4" class="node">
<title>PassivePacketSink</title>
<g id="a_node4"><a xlink:href="inet.queueing.sink.PassivePacketSink.html" xlink:title="Simple Module PassivePacketSink" target="_parent">
<polygon fill="#fffcaf" stroke="black" points="232,-19 125,-19 125,0 232,0 232,-19"/>
<text text-anchor="middle" x="178.5" y="-7" font-family="Helvetica,sans-Serif" font-size="10.00">PassivePacketSink</text>
</a>
</g>
</g>
<!-- PassivePacketSinkBase&#45;&gt;PassivePacketSink -->
<g id="edge3" class="edge">
<title>PassivePacketSinkBase&#45;&gt;PassivePacketSink</title>
<path fill="none" stroke="black" d="M178.5,-54.75C178.5,-44.87 178.5,-28.9 178.5,-19.09"/>
</g>
<!-- PcapFilePacketConsumer -->
<g id="node5" class="node">
<title>PcapFilePacketConsumer</title>
<g id="a_node5"><a xlink:href="inet.queueing.sink.PcapFilePacketConsumer.html" xlink:title="Simple Module PcapFilePacketConsumer" target="_parent">
<polygon fill="#fffcaf" stroke="black" points="388.5,-19 250.5,-19 250.5,0 388.5,0 388.5,-19"/>
<text text-anchor="middle" x="319.5" y="-7" font-family="Helvetica,sans-Serif" font-size="10.00">PcapFilePacketConsumer</text>
</a>
</g>
</g>
<!-- PassivePacketSinkBase&#45;&gt;PcapFilePacketConsumer -->
<g id="edge4" class="edge">
<title>PassivePacketSinkBase&#45;&gt;PcapFilePacketConsumer</title>
<path fill="none" stroke="black" d="M201.15,-54.98C227.31,-45.15 270.1,-29.07 296.43,-19.17"/>
</g>
<!-- PacketSinkBase -->
<g id="node2" class="node">
<title>PacketSinkBase</title>
<g id="a_node2"><a xlink:href="inet.queueing.base.PacketSinkBase.html" xlink:title="Simple Module PacketSinkBase" target="_parent">
<polygon fill="#fffcaf" stroke="black" points="225.5,-129 131.5,-129 131.5,-110 225.5,-110 225.5,-129"/>
<text text-anchor="middle" x="178.5" y="-117" font-family="Helvetica,sans-Serif" font-size="10.00">PacketSinkBase</text>
</a>
</g>
</g>
<!-- PacketSinkBase&#45;&gt;PassivePacketSinkBase -->
<g id="edge1" class="edge">
<title>PacketSinkBase&#45;&gt;PassivePacketSinkBase</title>
<path fill="none" stroke="black" d="M178.5,-109.75C178.5,-99.87 178.5,-83.9 178.5,-74.09"/>
</g>
</g>
</svg>
