<?xml version="1.0" encoding="UTF-8" standalone="no"?>
<!DOCTYPE svg PUBLIC "-//W3C//DTD SVG 1.1//EN"
 "http://www.w3.org/Graphics/SVG/1.1/DTD/svg11.dtd">
<!-- Generated by graphviz version 2.43.0 (0)
 -->
<!-- Title: opp Pages: 1 -->
<svg width="737pt" height="82pt"
 viewBox="0.00 0.00 737.00 82.00" xmlns="http://www.w3.org/2000/svg" xmlns:xlink="http://www.w3.org/1999/xlink">
<g id="graph0" class="graph" transform="scale(1 1) rotate(0) translate(4 78)">
<title>opp</title>
<polygon fill="transparent" stroke="transparent" points="-4,4 -4,-78 733,-78 733,4 -4,4"/>
<!-- RateControlShowcase -->
<g id="node1" class="node">
<title>RateControlShowcase</title>
<g id="a_node1"><a xlink:href="inet.showcases.wireless.ratecontrol.RateControlShowcase.html" xlink:title="Network RateControlShowcase" target="_parent">
<polygon fill="#9090ff" stroke="black" points="368,-74 245,-74 245,-55 368,-55 368,-74"/>
<text text-anchor="middle" x="306.5" y="-62" font-family="Helvetica,sans-Serif" font-size="10.00">RateControlShowcase</text>
</a>
</g>
</g>
<!-- WirelessHost -->
<g id="node2" class="node">
<title>WirelessHost</title>
<g id="a_node2"><a xlink:href="inet.node.inet.WirelessHost.html" xlink:title="Compound Module WirelessHost" target="_parent">
<polygon fill="#fffcaf" stroke="black" points="81,-19 0,-19 0,0 81,0 81,-19"/>
<text text-anchor="middle" x="40.5" y="-7" font-family="Helvetica,sans-Serif" font-size="10.00">WirelessHost</text>
</a>
</g>
</g>
<!-- RateControlShowcase&#45;&gt;WirelessHost -->
<g id="edge1" class="edge">
<title>RateControlShowcase&#45;&gt;WirelessHost</title>
<path fill="none" stroke="black" d="M263.76,-54.98C216.77,-45.62 141.32,-30.59 91.34,-20.63"/>
<polygon fill="black" stroke="black" points="91.88,-17.17 81.38,-18.65 90.51,-24.03 91.88,-17.17"/>
</g>
<!-- PhysicalEnvironment -->
<g id="node3" class="node">
<title>PhysicalEnvironment</title>
<g id="a_node3"><a xlink:href="inet.environment.common.PhysicalEnvironment.html" xlink:title="Compound Module PhysicalEnvironment" target="_parent">
<polygon fill="#fffcaf" stroke="black" points="218,-19 99,-19 99,0 218,0 218,-19"/>
<text text-anchor="middle" x="158.5" y="-7" font-family="Helvetica,sans-Serif" font-size="10.00">PhysicalEnvironment</text>
</a>
</g>
</g>
<!-- RateControlShowcase&#45;&gt;PhysicalEnvironment -->
<g id="edge2" class="edge">
<title>RateControlShowcase&#45;&gt;PhysicalEnvironment</title>
<path fill="none" stroke="black" d="M282.72,-54.98C258.27,-46.23 219.97,-32.51 192.35,-22.62"/>
<polygon fill="black" stroke="black" points="193.31,-19.25 182.71,-19.17 190.95,-25.84 193.31,-19.25"/>
</g>
<!-- Ipv4NetworkConfigurator -->
<g id="node4" class="node">
<title>Ipv4NetworkConfigurator</title>
<g id="a_node4"><a xlink:href="inet.networklayer.configurator.ipv4.Ipv4NetworkConfigurator.html" xlink:title="Simple Module Ipv4NetworkConfigurator" target="_parent">
<polygon fill="#fffcaf" stroke="black" points="376.5,-19 236.5,-19 236.5,0 376.5,0 376.5,-19"/>
<text text-anchor="middle" x="306.5" y="-7" font-family="Helvetica,sans-Serif" font-size="10.00">Ipv4NetworkConfigurator</text>
</a>
</g>
</g>
<!-- RateControlShowcase&#45;&gt;Ipv4NetworkConfigurator -->
<g id="edge3" class="edge">
<title>RateControlShowcase&#45;&gt;Ipv4NetworkConfigurator</title>
<path fill="none" stroke="black" d="M306.5,-54.75C306.5,-47.8 306.5,-37.85 306.5,-29.13"/>
<polygon fill="black" stroke="black" points="310,-29.09 306.5,-19.09 303,-29.09 310,-29.09"/>
</g>
<!-- IntegratedCanvasVisualizer -->
<g id="node5" class="node">
<title>IntegratedCanvasVisualizer</title>
<g id="a_node5"><a xlink:href="inet.visualizer.canvas.integrated.IntegratedCanvasVisualizer.html" xlink:title="Compound Module IntegratedCanvasVisualizer" target="_parent">
<polygon fill="#fffcaf" stroke="black" points="546,-19 395,-19 395,0 546,0 546,-19"/>
<text text-anchor="middle" x="470.5" y="-7" font-family="Helvetica,sans-Serif" font-size="10.00">IntegratedCanvasVisualizer</text>
</a>
</g>
</g>
<!-- RateControlShowcase&#45;&gt;IntegratedCanvasVisualizer -->
<g id="edge4" class="edge">
<title>RateControlShowcase&#45;&gt;IntegratedCanvasVisualizer</title>
<path fill="none" stroke="black" d="M332.85,-54.98C360.26,-46.13 403.39,-32.19 434.06,-22.28"/>
<polygon fill="black" stroke="black" points="435.5,-25.49 443.94,-19.08 433.35,-18.83 435.5,-25.49"/>
</g>
<!-- Ieee80211ScalarRadioMedium -->
<g id="node6" class="node">
<title>Ieee80211ScalarRadioMedium</title>
<g id="a_node6"><a xlink:href="inet.physicallayer.wireless.ieee80211.packetlevel.Ieee80211ScalarRadioMedium.html" xlink:title="Compound Module Ieee80211ScalarRadioMedium" target="_parent">
<polygon fill="#fffcaf" stroke="black" points="729,-19 564,-19 564,0 729,0 729,-19"/>
<text text-anchor="middle" x="646.5" y="-7" font-family="Helvetica,sans-Serif" font-size="10.00">Ieee80211ScalarRadioMedium</text>
</a>
</g>
</g>
<!-- RateControlShowcase&#45;&gt;Ieee80211ScalarRadioMedium -->
<g id="edge5" class="edge">
<title>RateControlShowcase&#45;&gt;Ieee80211ScalarRadioMedium</title>
<path fill="none" stroke="black" d="M361.13,-54.98C421.26,-45.61 517.87,-30.55 581.76,-20.59"/>
<polygon fill="black" stroke="black" points="582.39,-24.04 591.73,-19.04 581.31,-17.12 582.39,-24.04"/>
</g>
</g>
</svg>
