<?xml version="1.0" encoding="UTF-8" standalone="no"?>
<!DOCTYPE svg PUBLIC "-//W3C//DTD SVG 1.1//EN"
 "http://www.w3.org/Graphics/SVG/1.1/DTD/svg11.dtd">
<!-- Generated by graphviz version 2.43.0 (0)
 -->
<!-- Title: opp Pages: 1 -->
<svg width="164pt" height="137pt"
 viewBox="0.00 0.00 164.00 137.00" xmlns="http://www.w3.org/2000/svg" xmlns:xlink="http://www.w3.org/1999/xlink">
<g id="graph0" class="graph" transform="scale(1 1) rotate(0) translate(4 133)">
<title>opp</title>
<polygon fill="transparent" stroke="transparent" points="-4,4 -4,-133 160,-133 160,4 -4,4"/>
<!-- PacketDropVisualizerBase -->
<g id="node1" class="node">
<title>PacketDropVisualizerBase</title>
<g id="a_node1"><a xlink:href="inet.visualizer.base.PacketDropVisualizerBase.html" xlink:title="Simple Module PacketDropVisualizerBase" target="_parent">
<polygon fill="#fff700" stroke="black" points="150,-74 6,-74 6,-55 150,-55 150,-74"/>
<text text-anchor="middle" x="78" y="-62" font-family="Helvetica,sans-Serif" font-size="10.00">PacketDropVisualizerBase</text>
</a>
</g>
</g>
<!-- PacketDropCanvasVisualizer -->
<g id="node3" class="node">
<title>PacketDropCanvasVisualizer</title>
<g id="a_node3"><a xlink:href="inet.visualizer.canvas.common.PacketDropCanvasVisualizer.html" xlink:title="Simple Module PacketDropCanvasVisualizer" target="_parent">
<polygon fill="#fffcaf" stroke="black" points="156,-19 0,-19 0,0 156,0 156,-19"/>
<text text-anchor="middle" x="78" y="-7" font-family="Helvetica,sans-Serif" font-size="10.00">PacketDropCanvasVisualizer</text>
</a>
</g>
</g>
<!-- PacketDropVisualizerBase&#45;&gt;PacketDropCanvasVisualizer -->
<g id="edge2" class="edge">
<title>PacketDropVisualizerBase&#45;&gt;PacketDropCanvasVisualizer</title>
<path fill="none" stroke="black" d="M78,-54.75C78,-44.87 78,-28.9 78,-19.09"/>
</g>
<!-- VisualizerBase -->
<g id="node2" class="node">
<title>VisualizerBase</title>
<g id="a_node2"><a xlink:href="inet.visualizer.base.VisualizerBase.html" xlink:title="Simple Module VisualizerBase" target="_parent">
<polygon fill="#fffcaf" stroke="black" points="122.5,-129 33.5,-129 33.5,-110 122.5,-110 122.5,-129"/>
<text text-anchor="middle" x="78" y="-117" font-family="Helvetica,sans-Serif" font-size="10.00">VisualizerBase</text>
</a>
</g>
</g>
<!-- VisualizerBase&#45;&gt;PacketDropVisualizerBase -->
<g id="edge1" class="edge">
<title>VisualizerBase&#45;&gt;PacketDropVisualizerBase</title>
<path fill="none" stroke="black" d="M78,-109.75C78,-99.87 78,-83.9 78,-74.09"/>
</g>
</g>
</svg>
