<?xml version="1.0" encoding="UTF-8" standalone="no"?>
<!DOCTYPE svg PUBLIC "-//W3C//DTD SVG 1.1//EN"
 "http://www.w3.org/Graphics/SVG/1.1/DTD/svg11.dtd">
<!-- Generated by graphviz version 2.43.0 (0)
 -->
<!-- Title: opp Pages: 1 -->
<svg width="133pt" height="137pt"
 viewBox="0.00 0.00 133.00 137.00" xmlns="http://www.w3.org/2000/svg" xmlns:xlink="http://www.w3.org/1999/xlink">
<g id="graph0" class="graph" transform="scale(1 1) rotate(0) translate(4 133)">
<title>opp</title>
<polygon fill="transparent" stroke="transparent" points="-4,4 -4,-133 129,-133 129,4 -4,4"/>
<!-- ActivePacketSinkBase -->
<g id="node1" class="node">
<title>ActivePacketSinkBase</title>
<g id="a_node1"><a xlink:href="inet.queueing.base.ActivePacketSinkBase.html" xlink:title="Simple Module ActivePacketSinkBase" target="_parent">
<polygon fill="#fff700" stroke="black" points="125,-74 0,-74 0,-55 125,-55 125,-74"/>
<text text-anchor="middle" x="62.5" y="-62" font-family="Helvetica,sans-Serif" font-size="10.00">ActivePacketSinkBase</text>
</a>
</g>
</g>
<!-- ActivePacketSink -->
<g id="node3" class="node">
<title>ActivePacketSink</title>
<g id="a_node3"><a xlink:href="inet.queueing.sink.ActivePacketSink.html" xlink:title="Simple Module ActivePacketSink" target="_parent">
<polygon fill="#fffcaf" stroke="black" points="113,-19 12,-19 12,0 113,0 113,-19"/>
<text text-anchor="middle" x="62.5" y="-7" font-family="Helvetica,sans-Serif" font-size="10.00">ActivePacketSink</text>
</a>
</g>
</g>
<!-- ActivePacketSinkBase&#45;&gt;ActivePacketSink -->
<g id="edge2" class="edge">
<title>ActivePacketSinkBase&#45;&gt;ActivePacketSink</title>
<path fill="none" stroke="black" d="M62.5,-54.75C62.5,-44.87 62.5,-28.9 62.5,-19.09"/>
</g>
<!-- PacketSinkBase -->
<g id="node2" class="node">
<title>PacketSinkBase</title>
<g id="a_node2"><a xlink:href="inet.queueing.base.PacketSinkBase.html" xlink:title="Simple Module PacketSinkBase" target="_parent">
<polygon fill="#fffcaf" stroke="black" points="109.5,-129 15.5,-129 15.5,-110 109.5,-110 109.5,-129"/>
<text text-anchor="middle" x="62.5" y="-117" font-family="Helvetica,sans-Serif" font-size="10.00">PacketSinkBase</text>
</a>
</g>
</g>
<!-- PacketSinkBase&#45;&gt;ActivePacketSinkBase -->
<g id="edge1" class="edge">
<title>PacketSinkBase&#45;&gt;ActivePacketSinkBase</title>
<path fill="none" stroke="black" d="M62.5,-109.75C62.5,-99.87 62.5,-83.9 62.5,-74.09"/>
</g>
</g>
</svg>
