<?xml version="1.0" encoding="UTF-8" standalone="no"?>
<!DOCTYPE svg PUBLIC "-//W3C//DTD SVG 1.1//EN"
 "http://www.w3.org/Graphics/SVG/1.1/DTD/svg11.dtd">
<!-- Generated by graphviz version 2.43.0 (0)
 -->
<!-- Title: opp Pages: 1 -->
<svg width="652pt" height="82pt"
 viewBox="0.00 0.00 651.50 82.00" xmlns="http://www.w3.org/2000/svg" xmlns:xlink="http://www.w3.org/1999/xlink">
<g id="graph0" class="graph" transform="scale(1 1) rotate(0) translate(4 78)">
<title>opp</title>
<polygon fill="transparent" stroke="transparent" points="-4,4 -4,-78 647.5,-78 647.5,4 -4,4"/>
<!-- multiple_areas2 -->
<g id="node1" class="node">
<title>multiple_areas2</title>
<g id="a_node1"><a xlink:href="inet.examples.ospfv3.multiple_areas_FINAL.multiple_areas2.html" xlink:title="Network multiple_areas2" target="_parent">
<polygon fill="#9090ff" stroke="black" points="374,-74 279,-74 279,-55 374,-55 374,-74"/>
<text text-anchor="middle" x="326.5" y="-62" font-family="Helvetica,sans-Serif" font-size="10.00">multiple_areas2</text>
</a>
</g>
</g>
<!-- ScenarioManager -->
<g id="node2" class="node">
<title>ScenarioManager</title>
<g id="a_node2"><a xlink:href="inet.common.scenario.ScenarioManager.html" xlink:title="Simple Module ScenarioManager" target="_parent">
<polygon fill="#fffcaf" stroke="black" points="101,-19 0,-19 0,0 101,0 101,-19"/>
<text text-anchor="middle" x="50.5" y="-7" font-family="Helvetica,sans-Serif" font-size="10.00">ScenarioManager</text>
</a>
</g>
</g>
<!-- multiple_areas2&#45;&gt;ScenarioManager -->
<g id="edge1" class="edge">
<title>multiple_areas2&#45;&gt;ScenarioManager</title>
<path fill="none" stroke="black" d="M282.16,-54.98C234.01,-45.74 157.08,-30.97 105.21,-21.01"/>
<polygon fill="black" stroke="black" points="105.67,-17.53 95.19,-19.08 104.35,-24.41 105.67,-17.53"/>
</g>
<!-- StandardHost -->
<g id="node3" class="node">
<title>StandardHost</title>
<g id="a_node3"><a xlink:href="inet.node.inet.StandardHost.html" xlink:title="Compound Module StandardHost" target="_parent">
<polygon fill="#fffcaf" stroke="black" points="202,-19 119,-19 119,0 202,0 202,-19"/>
<text text-anchor="middle" x="160.5" y="-7" font-family="Helvetica,sans-Serif" font-size="10.00">StandardHost</text>
</a>
</g>
</g>
<!-- multiple_areas2&#45;&gt;StandardHost -->
<g id="edge2" class="edge">
<title>multiple_areas2&#45;&gt;StandardHost</title>
<path fill="none" stroke="black" d="M299.83,-54.98C271.96,-46.09 228.05,-32.07 196.98,-22.15"/>
<polygon fill="black" stroke="black" points="197.97,-18.79 187.38,-19.08 195.84,-25.46 197.97,-18.79"/>
</g>
<!-- Ospfv3Router -->
<g id="node4" class="node">
<title>Ospfv3Router</title>
<g id="a_node4"><a xlink:href="inet.node.ospfv3.Ospfv3Router.html" xlink:title="Compound Module Ospfv3Router" target="_parent">
<polygon fill="#fffcaf" stroke="black" points="303,-19 220,-19 220,0 303,0 303,-19"/>
<text text-anchor="middle" x="261.5" y="-7" font-family="Helvetica,sans-Serif" font-size="10.00">Ospfv3Router</text>
</a>
</g>
</g>
<!-- multiple_areas2&#45;&gt;Ospfv3Router -->
<g id="edge3" class="edge">
<title>multiple_areas2&#45;&gt;Ospfv3Router</title>
<path fill="none" stroke="black" d="M316.06,-54.98C306.35,-47.07 291.68,-35.11 280,-25.58"/>
<polygon fill="black" stroke="black" points="282.1,-22.78 272.13,-19.17 277.67,-28.2 282.1,-22.78"/>
</g>
<!-- Ipv4NetworkConfigurator -->
<g id="node5" class="node">
<title>Ipv4NetworkConfigurator</title>
<g id="a_node5"><a xlink:href="inet.networklayer.configurator.ipv4.Ipv4NetworkConfigurator.html" xlink:title="Simple Module Ipv4NetworkConfigurator" target="_parent">
<polygon fill="#fffcaf" stroke="black" points="461.5,-19 321.5,-19 321.5,0 461.5,0 461.5,-19"/>
<text text-anchor="middle" x="391.5" y="-7" font-family="Helvetica,sans-Serif" font-size="10.00">Ipv4NetworkConfigurator</text>
</a>
</g>
</g>
<!-- multiple_areas2&#45;&gt;Ipv4NetworkConfigurator -->
<g id="edge4" class="edge">
<title>multiple_areas2&#45;&gt;Ipv4NetworkConfigurator</title>
<path fill="none" stroke="black" d="M336.94,-54.98C346.65,-47.07 361.32,-35.11 373,-25.58"/>
<polygon fill="black" stroke="black" points="375.33,-28.2 380.87,-19.17 370.9,-22.78 375.33,-28.2"/>
</g>
<!-- Channel -->
<g id="node6" class="node">
<title>Channel</title>
<g id="a_node6"><a xlink:href="inet.examples.ospfv3.multiple_areas_FINAL.multiple_areas2.Channel.html" xlink:title="Channel Channel" target="_parent">
<polygon fill="#d0ffd0" stroke="black" points="535.5,-19 479.5,-19 479.5,0 535.5,0 535.5,-19"/>
<text text-anchor="middle" x="507.5" y="-7" font-family="Helvetica,sans-Serif" font-size="10.00">Channel</text>
</a>
</g>
</g>
<!-- multiple_areas2&#45;&gt;Channel -->
<g id="edge5" class="edge">
<title>multiple_areas2&#45;&gt;Channel</title>
<path fill="none" stroke="black" d="M355.58,-54.98C386.46,-45.94 435.41,-31.61 469.37,-21.67"/>
<polygon fill="black" stroke="black" points="470.77,-24.9 479.38,-18.73 468.8,-18.18 470.77,-24.9"/>
</g>
<!-- EthernetSwitch -->
<g id="node7" class="node">
<title>EthernetSwitch</title>
<g id="a_node7"><a xlink:href="inet.node.ethernet.EthernetSwitch.html" xlink:title="Compound Module EthernetSwitch" target="_parent">
<polygon fill="#fffcaf" stroke="black" points="643.5,-19 553.5,-19 553.5,0 643.5,0 643.5,-19"/>
<text text-anchor="middle" x="598.5" y="-7" font-family="Helvetica,sans-Serif" font-size="10.00">EthernetSwitch</text>
</a>
</g>
</g>
<!-- multiple_areas2&#45;&gt;EthernetSwitch -->
<g id="edge6" class="edge">
<title>multiple_areas2&#45;&gt;EthernetSwitch</title>
<path fill="none" stroke="black" d="M370.2,-54.98C417.65,-45.74 493.47,-30.97 544.58,-21.01"/>
<polygon fill="black" stroke="black" points="545.31,-24.43 554.46,-19.08 543.97,-17.56 545.31,-24.43"/>
</g>
</g>
</svg>
