<?xml version="1.0" encoding="UTF-8" standalone="no"?>
<!DOCTYPE svg PUBLIC "-//W3C//DTD SVG 1.1//EN"
 "http://www.w3.org/Graphics/SVG/1.1/DTD/svg11.dtd">
<!-- Generated by graphviz version 2.43.0 (0)
 -->
<!-- Title: opp Pages: 1 -->
<svg width="562pt" height="82pt"
 viewBox="0.00 0.00 561.50 82.00" xmlns="http://www.w3.org/2000/svg" xmlns:xlink="http://www.w3.org/1999/xlink">
<g id="graph0" class="graph" transform="scale(1 1) rotate(0) translate(4 78)">
<title>opp</title>
<polygon fill="transparent" stroke="transparent" points="-4,4 -4,-78 557.5,-78 557.5,4 -4,4"/>
<!-- Throughput -->
<g id="node1" class="node">
<title>Throughput</title>
<g id="a_node1"><a xlink:href="inet.examples.wireless.throughput.Throughput.html" xlink:title="Network Throughput" target="_parent">
<polygon fill="#9090ff" stroke="black" points="286,-74 214,-74 214,-55 286,-55 286,-74"/>
<text text-anchor="middle" x="250" y="-62" font-family="Helvetica,sans-Serif" font-size="10.00">Throughput</text>
</a>
</g>
</g>
<!-- IIntegratedVisualizer -->
<g id="node2" class="node">
<title>IIntegratedVisualizer</title>
<g id="a_node2"><a xlink:href="inet.visualizer.contract.IIntegratedVisualizer.html" xlink:title="Module Interface IIntegratedVisualizer" target="_parent">
<polygon fill="#fffcaf" stroke="black" stroke-dasharray="5,2" points="118,-19 0,-19 0,0 118,0 118,-19"/>
<text text-anchor="middle" x="59" y="-7" font-family="Helvetica,sans-Serif" font-size="10.00">IIntegratedVisualizer</text>
</a>
</g>
</g>
<!-- Throughput&#45;&gt;IIntegratedVisualizer -->
<g id="edge1" class="edge">
<title>Throughput&#45;&gt;IIntegratedVisualizer</title>
<path fill="none" stroke="black" d="M219.31,-54.98C186.83,-45.97 135.4,-31.7 99.59,-21.76"/>
<polygon fill="black" stroke="black" points="100.5,-18.38 89.93,-19.08 98.63,-25.13 100.5,-18.38"/>
</g>
<!-- ThroughputClient -->
<g id="node3" class="node">
<title>ThroughputClient</title>
<g id="a_node3"><a xlink:href="inet.examples.wireless.throughput.ThroughputClient.html" xlink:title="Compound Module ThroughputClient" target="_parent">
<polygon fill="#fffcaf" stroke="black" points="237.5,-19 136.5,-19 136.5,0 237.5,0 237.5,-19"/>
<text text-anchor="middle" x="187" y="-7" font-family="Helvetica,sans-Serif" font-size="10.00">ThroughputClient</text>
</a>
</g>
</g>
<!-- Throughput&#45;&gt;ThroughputClient -->
<g id="edge2" class="edge">
<title>Throughput&#45;&gt;ThroughputClient</title>
<path fill="none" stroke="black" d="M239.88,-54.98C230.56,-47.15 216.53,-35.34 205.26,-25.86"/>
<polygon fill="black" stroke="black" points="207.21,-22.93 197.31,-19.17 202.71,-28.29 207.21,-22.93"/>
</g>
<!-- WirelessAPWithSink -->
<g id="node4" class="node">
<title>WirelessAPWithSink</title>
<g id="a_node4"><a xlink:href="inet.examples.wireless.throughput.WirelessAPWithSink.html" xlink:title="Compound Module WirelessAPWithSink" target="_parent">
<polygon fill="#fffcaf" stroke="black" points="370.5,-19 255.5,-19 255.5,0 370.5,0 370.5,-19"/>
<text text-anchor="middle" x="313" y="-7" font-family="Helvetica,sans-Serif" font-size="10.00">WirelessAPWithSink</text>
</a>
</g>
</g>
<!-- Throughput&#45;&gt;WirelessAPWithSink -->
<g id="edge3" class="edge">
<title>Throughput&#45;&gt;WirelessAPWithSink</title>
<path fill="none" stroke="black" d="M260.12,-54.98C269.44,-47.15 283.47,-35.34 294.74,-25.86"/>
<polygon fill="black" stroke="black" points="297.29,-28.29 302.69,-19.17 292.79,-22.93 297.29,-28.29"/>
</g>
<!-- Ieee80211ScalarRadioMedium -->
<g id="node5" class="node">
<title>Ieee80211ScalarRadioMedium</title>
<g id="a_node5"><a xlink:href="inet.physicallayer.wireless.ieee80211.packetlevel.Ieee80211ScalarRadioMedium.html" xlink:title="Compound Module Ieee80211ScalarRadioMedium" target="_parent">
<polygon fill="#fffcaf" stroke="black" points="553.5,-19 388.5,-19 388.5,0 553.5,0 553.5,-19"/>
<text text-anchor="middle" x="471" y="-7" font-family="Helvetica,sans-Serif" font-size="10.00">Ieee80211ScalarRadioMedium</text>
</a>
</g>
</g>
<!-- Throughput&#45;&gt;Ieee80211ScalarRadioMedium -->
<g id="edge4" class="edge">
<title>Throughput&#45;&gt;Ieee80211ScalarRadioMedium</title>
<path fill="none" stroke="black" d="M285.51,-54.98C323.49,-45.87 383.87,-31.4 425.36,-21.45"/>
<polygon fill="black" stroke="black" points="426.31,-24.82 435.21,-19.08 424.67,-18.01 426.31,-24.82"/>
</g>
</g>
</svg>
