<?xml version="1.0" encoding="UTF-8" standalone="no"?>
<!DOCTYPE svg PUBLIC "-//W3C//DTD SVG 1.1//EN"
 "http://www.w3.org/Graphics/SVG/1.1/DTD/svg11.dtd">
<!-- Generated by graphviz version 2.43.0 (0)
 -->
<!-- Title: opp Pages: 1 -->
<svg width="540pt" height="82pt"
 viewBox="0.00 0.00 540.00 82.00" xmlns="http://www.w3.org/2000/svg" xmlns:xlink="http://www.w3.org/1999/xlink">
<g id="graph0" class="graph" transform="scale(1 1) rotate(0) translate(4 78)">
<title>opp</title>
<polygon fill="transparent" stroke="transparent" points="-4,4 -4,-78 536,-78 536,4 -4,4"/>
<!-- ApskLayeredReceiver -->
<g id="node1" class="node">
<title>ApskLayeredReceiver</title>
<g id="a_node1"><a xlink:href="inet.physicallayer.wireless.apsk.bitlevel.ApskLayeredReceiver.html" xlink:title="Compound Module ApskLayeredReceiver" target="_parent">
<polygon fill="#fff700" stroke="black" points="307,-74 185,-74 185,-55 307,-55 307,-74"/>
<text text-anchor="middle" x="246" y="-62" font-family="Helvetica,sans-Serif" font-size="10.00">ApskLayeredReceiver</text>
</a>
</g>
</g>
<!-- IPulseFilter -->
<g id="node2" class="node">
<title>IPulseFilter</title>
<g id="a_node2"><a xlink:href="inet.physicallayer.wireless.common.contract.bitlevel.IPulseFilter.html" xlink:title="Module Interface IPulseFilter" target="_parent">
<polygon fill="#fffcaf" stroke="black" stroke-dasharray="5,2" points="70,-19 0,-19 0,0 70,0 70,-19"/>
<text text-anchor="middle" x="35" y="-7" font-family="Helvetica,sans-Serif" font-size="10.00">IPulseFilter</text>
</a>
</g>
</g>
<!-- ApskLayeredReceiver&#45;&gt;IPulseFilter -->
<g id="edge1" class="edge">
<title>ApskLayeredReceiver&#45;&gt;IPulseFilter</title>
<path fill="none" stroke="black" d="M212.1,-54.98C175.98,-45.91 118.68,-31.52 79.08,-21.57"/>
<polygon fill="black" stroke="black" points="79.72,-18.12 69.17,-19.08 78.01,-24.91 79.72,-18.12"/>
</g>
<!-- IDemodulator -->
<g id="node3" class="node">
<title>IDemodulator</title>
<g id="a_node3"><a xlink:href="inet.physicallayer.wireless.common.contract.bitlevel.IDemodulator.html" xlink:title="Module Interface IDemodulator" target="_parent">
<polygon fill="#fffcaf" stroke="black" stroke-dasharray="5,2" points="171.5,-19 88.5,-19 88.5,0 171.5,0 171.5,-19"/>
<text text-anchor="middle" x="130" y="-7" font-family="Helvetica,sans-Serif" font-size="10.00">IDemodulator</text>
</a>
</g>
</g>
<!-- ApskLayeredReceiver&#45;&gt;IDemodulator -->
<g id="edge2" class="edge">
<title>ApskLayeredReceiver&#45;&gt;IDemodulator</title>
<path fill="none" stroke="black" d="M227.36,-54.98C208.7,-46.46 179.75,-33.23 158.26,-23.41"/>
<polygon fill="black" stroke="black" points="159.53,-20.14 148.98,-19.17 156.62,-26.51 159.53,-20.14"/>
</g>
<!-- ILayeredErrorModel -->
<g id="node4" class="node">
<title>ILayeredErrorModel</title>
<g id="a_node4"><a xlink:href="inet.physicallayer.wireless.common.contract.bitlevel.ILayeredErrorModel.html" xlink:title="Module Interface ILayeredErrorModel" target="_parent">
<polygon fill="#fffcaf" stroke="black" stroke-dasharray="5,2" points="302,-19 190,-19 190,0 302,0 302,-19"/>
<text text-anchor="middle" x="246" y="-7" font-family="Helvetica,sans-Serif" font-size="10.00">ILayeredErrorModel</text>
</a>
</g>
</g>
<!-- ApskLayeredReceiver&#45;&gt;ILayeredErrorModel -->
<g id="edge3" class="edge">
<title>ApskLayeredReceiver&#45;&gt;ILayeredErrorModel</title>
<path fill="none" stroke="black" d="M246,-54.75C246,-47.8 246,-37.85 246,-29.13"/>
<polygon fill="black" stroke="black" points="249.5,-29.09 246,-19.09 242.5,-29.09 249.5,-29.09"/>
</g>
<!-- IDecoder -->
<g id="node5" class="node">
<title>IDecoder</title>
<g id="a_node5"><a xlink:href="inet.physicallayer.wireless.common.contract.bitlevel.IDecoder.html" xlink:title="Module Interface IDecoder" target="_parent">
<polygon fill="#fffcaf" stroke="black" stroke-dasharray="5,2" points="380,-19 320,-19 320,0 380,0 380,-19"/>
<text text-anchor="middle" x="350" y="-7" font-family="Helvetica,sans-Serif" font-size="10.00">IDecoder</text>
</a>
</g>
</g>
<!-- ApskLayeredReceiver&#45;&gt;IDecoder -->
<g id="edge4" class="edge">
<title>ApskLayeredReceiver&#45;&gt;IDecoder</title>
<path fill="none" stroke="black" d="M262.71,-54.98C279.21,-46.57 304.7,-33.59 323.88,-23.81"/>
<polygon fill="black" stroke="black" points="325.67,-26.83 332.99,-19.17 322.49,-20.59 325.67,-26.83"/>
</g>
<!-- IAnalogDigitalConverter -->
<g id="node6" class="node">
<title>IAnalogDigitalConverter</title>
<g id="a_node6"><a xlink:href="inet.physicallayer.wireless.common.contract.bitlevel.IAnalogDigitalConverter.html" xlink:title="Module Interface IAnalogDigitalConverter" target="_parent">
<polygon fill="#fffcaf" stroke="black" stroke-dasharray="5,2" points="532,-19 398,-19 398,0 532,0 532,-19"/>
<text text-anchor="middle" x="465" y="-7" font-family="Helvetica,sans-Serif" font-size="10.00">IAnalogDigitalConverter</text>
</a>
</g>
</g>
<!-- ApskLayeredReceiver&#45;&gt;IAnalogDigitalConverter -->
<g id="edge5" class="edge">
<title>ApskLayeredReceiver&#45;&gt;IAnalogDigitalConverter</title>
<path fill="none" stroke="black" d="M281.19,-54.98C318.83,-45.87 378.66,-31.4 419.77,-21.45"/>
<polygon fill="black" stroke="black" points="420.64,-24.84 429.54,-19.08 419,-18.03 420.64,-24.84"/>
</g>
</g>
</svg>
