<?xml version="1.0" encoding="UTF-8" standalone="no"?>
<!DOCTYPE svg PUBLIC "-//W3C//DTD SVG 1.1//EN"
 "http://www.w3.org/Graphics/SVG/1.1/DTD/svg11.dtd">
<!-- Generated by graphviz version 2.43.0 (0)
 -->
<!-- Title: opp Pages: 1 -->
<svg width="725pt" height="82pt"
 viewBox="0.00 0.00 725.00 82.00" xmlns="http://www.w3.org/2000/svg" xmlns:xlink="http://www.w3.org/1999/xlink">
<g id="graph0" class="graph" transform="scale(1 1) rotate(0) translate(4 78)">
<title>opp</title>
<polygon fill="transparent" stroke="transparent" points="-4,4 -4,-78 721,-78 721,4 -4,4"/>
<!-- ErrorRateShowcase -->
<g id="node1" class="node">
<title>ErrorRateShowcase</title>
<g id="a_node1"><a xlink:href="inet.showcases.wireless.errorrate.ErrorRateShowcase.html" xlink:title="Network ErrorRateShowcase" target="_parent">
<polygon fill="#9090ff" stroke="black" points="427,-74 316,-74 316,-55 427,-55 427,-74"/>
<text text-anchor="middle" x="371.5" y="-62" font-family="Helvetica,sans-Serif" font-size="10.00">ErrorRateShowcase</text>
</a>
</g>
</g>
<!-- PhysicalEnvironment -->
<g id="node2" class="node">
<title>PhysicalEnvironment</title>
<g id="a_node2"><a xlink:href="inet.environment.common.PhysicalEnvironment.html" xlink:title="Compound Module PhysicalEnvironment" target="_parent">
<polygon fill="#fffcaf" stroke="black" points="119,-19 0,-19 0,0 119,0 119,-19"/>
<text text-anchor="middle" x="59.5" y="-7" font-family="Helvetica,sans-Serif" font-size="10.00">PhysicalEnvironment</text>
</a>
</g>
</g>
<!-- ErrorRateShowcase&#45;&gt;PhysicalEnvironment -->
<g id="edge1" class="edge">
<title>ErrorRateShowcase&#45;&gt;PhysicalEnvironment</title>
<path fill="none" stroke="black" d="M321.37,-54.98C266.41,-45.65 178.27,-30.67 119.63,-20.71"/>
<polygon fill="black" stroke="black" points="120.21,-17.26 109.76,-19.04 119.03,-24.16 120.21,-17.26"/>
</g>
<!-- Ipv4NetworkConfigurator -->
<g id="node3" class="node">
<title>Ipv4NetworkConfigurator</title>
<g id="a_node3"><a xlink:href="inet.networklayer.configurator.ipv4.Ipv4NetworkConfigurator.html" xlink:title="Simple Module Ipv4NetworkConfigurator" target="_parent">
<polygon fill="#fffcaf" stroke="black" points="277.5,-19 137.5,-19 137.5,0 277.5,0 277.5,-19"/>
<text text-anchor="middle" x="207.5" y="-7" font-family="Helvetica,sans-Serif" font-size="10.00">Ipv4NetworkConfigurator</text>
</a>
</g>
</g>
<!-- ErrorRateShowcase&#45;&gt;Ipv4NetworkConfigurator -->
<g id="edge2" class="edge">
<title>ErrorRateShowcase&#45;&gt;Ipv4NetworkConfigurator</title>
<path fill="none" stroke="black" d="M345.15,-54.98C317.74,-46.13 274.61,-32.19 243.94,-22.28"/>
<polygon fill="black" stroke="black" points="244.65,-18.83 234.06,-19.08 242.5,-25.49 244.65,-18.83"/>
</g>
<!-- IntegratedCanvasVisualizer -->
<g id="node4" class="node">
<title>IntegratedCanvasVisualizer</title>
<g id="a_node4"><a xlink:href="inet.visualizer.canvas.integrated.IntegratedCanvasVisualizer.html" xlink:title="Compound Module IntegratedCanvasVisualizer" target="_parent">
<polygon fill="#fffcaf" stroke="black" points="447,-19 296,-19 296,0 447,0 447,-19"/>
<text text-anchor="middle" x="371.5" y="-7" font-family="Helvetica,sans-Serif" font-size="10.00">IntegratedCanvasVisualizer</text>
</a>
</g>
</g>
<!-- ErrorRateShowcase&#45;&gt;IntegratedCanvasVisualizer -->
<g id="edge3" class="edge">
<title>ErrorRateShowcase&#45;&gt;IntegratedCanvasVisualizer</title>
<path fill="none" stroke="black" d="M371.5,-54.75C371.5,-47.8 371.5,-37.85 371.5,-29.13"/>
<polygon fill="black" stroke="black" points="375,-29.09 371.5,-19.09 368,-29.09 375,-29.09"/>
</g>
<!-- AdhocHost -->
<g id="node5" class="node">
<title>AdhocHost</title>
<g id="a_node5"><a xlink:href="inet.node.inet.AdhocHost.html" xlink:title="Compound Module AdhocHost" target="_parent">
<polygon fill="#fffcaf" stroke="black" points="534,-19 465,-19 465,0 534,0 534,-19"/>
<text text-anchor="middle" x="499.5" y="-7" font-family="Helvetica,sans-Serif" font-size="10.00">AdhocHost</text>
</a>
</g>
</g>
<!-- ErrorRateShowcase&#45;&gt;AdhocHost -->
<g id="edge4" class="edge">
<title>ErrorRateShowcase&#45;&gt;AdhocHost</title>
<path fill="none" stroke="black" d="M392.07,-54.98C412.93,-46.34 445.47,-32.87 469.27,-23.02"/>
<polygon fill="black" stroke="black" points="470.66,-26.23 478.56,-19.17 467.98,-19.76 470.66,-26.23"/>
</g>
<!-- Ieee80211ScalarRadioMedium -->
<g id="node6" class="node">
<title>Ieee80211ScalarRadioMedium</title>
<g id="a_node6"><a xlink:href="inet.physicallayer.wireless.ieee80211.packetlevel.Ieee80211ScalarRadioMedium.html" xlink:title="Compound Module Ieee80211ScalarRadioMedium" target="_parent">
<polygon fill="#fffcaf" stroke="black" points="717,-19 552,-19 552,0 717,0 717,-19"/>
<text text-anchor="middle" x="634.5" y="-7" font-family="Helvetica,sans-Serif" font-size="10.00">Ieee80211ScalarRadioMedium</text>
</a>
</g>
</g>
<!-- ErrorRateShowcase&#45;&gt;Ieee80211ScalarRadioMedium -->
<g id="edge5" class="edge">
<title>ErrorRateShowcase&#45;&gt;Ieee80211ScalarRadioMedium</title>
<path fill="none" stroke="black" d="M413.76,-54.98C459.54,-45.76 532.64,-31.03 582.05,-21.07"/>
<polygon fill="black" stroke="black" points="582.8,-24.49 591.91,-19.08 581.42,-17.63 582.8,-24.49"/>
</g>
</g>
</svg>
