<?xml version="1.0" encoding="UTF-8" standalone="no"?>
<!DOCTYPE svg PUBLIC "-//W3C//DTD SVG 1.1//EN"
 "http://www.w3.org/Graphics/SVG/1.1/DTD/svg11.dtd">
<!-- Generated by graphviz version 2.43.0 (0)
 -->
<!-- Title: opp Pages: 1 -->
<svg width="386pt" height="82pt"
 viewBox="0.00 0.00 385.50 82.00" xmlns="http://www.w3.org/2000/svg" xmlns:xlink="http://www.w3.org/1999/xlink">
<g id="graph0" class="graph" transform="scale(1 1) rotate(0) translate(4 78)">
<title>opp</title>
<polygon fill="transparent" stroke="transparent" points="-4,4 -4,-78 381.5,-78 381.5,4 -4,4"/>
<!-- xMIPv6Support -->
<g id="node1" class="node">
<title>xMIPv6Support</title>
<g id="a_node1"><a xlink:href="inet.networklayer.xmipv6.xMIPv6Support.html" xlink:title="Compound Module xMIPv6Support" target="_parent">
<polygon fill="#fff700" stroke="black" points="251,-74 161,-74 161,-55 251,-55 251,-74"/>
<text text-anchor="middle" x="206" y="-62" font-family="Helvetica,sans-Serif" font-size="10.00">xMIPv6Support</text>
</a>
</g>
</g>
<!-- BindingUpdateList -->
<g id="node2" class="node">
<title>BindingUpdateList</title>
<g id="a_node2"><a xlink:href="inet.networklayer.xmipv6.BindingUpdateList.html" xlink:title="Simple Module BindingUpdateList" target="_parent">
<polygon fill="#fffcaf" stroke="black" points="106,-19 0,-19 0,0 106,0 106,-19"/>
<text text-anchor="middle" x="53" y="-7" font-family="Helvetica,sans-Serif" font-size="10.00">BindingUpdateList</text>
</a>
</g>
</g>
<!-- xMIPv6Support&#45;&gt;BindingUpdateList -->
<g id="edge1" class="edge">
<title>xMIPv6Support&#45;&gt;BindingUpdateList</title>
<path fill="none" stroke="black" d="M181.42,-54.98C155.95,-46.16 115.96,-32.31 87.37,-22.41"/>
<polygon fill="black" stroke="black" points="88.37,-19.05 77.77,-19.08 86.08,-25.66 88.37,-19.05"/>
</g>
<!-- IdealChannel -->
<g id="node3" class="node">
<title>IdealChannel</title>
<g id="a_node3"><a xlink:href="ned.IdealChannel.html" xlink:title="Channel IdealChannel" target="_parent">
<polygon fill="#d0ffd0" stroke="black" points="204,-19 124,-19 124,0 204,0 204,-19"/>
<text text-anchor="middle" x="164" y="-7" font-family="Helvetica,sans-Serif" font-size="10.00">IdealChannel</text>
</a>
</g>
</g>
<!-- xMIPv6Support&#45;&gt;IdealChannel -->
<g id="edge2" class="edge">
<title>xMIPv6Support&#45;&gt;IdealChannel</title>
<path fill="none" stroke="black" d="M199.06,-54.75C193.13,-47.26 184.43,-36.28 177.18,-27.13"/>
<polygon fill="black" stroke="black" points="179.76,-24.75 170.81,-19.09 174.27,-29.1 179.76,-24.75"/>
</g>
<!-- xMIPv6 -->
<g id="node4" class="node">
<title>xMIPv6</title>
<g id="a_node4"><a xlink:href="inet.networklayer.xmipv6.xMIPv6.html" xlink:title="Simple Module xMIPv6" target="_parent">
<polygon fill="#fffcaf" stroke="black" points="276,-19 222,-19 222,0 276,0 276,-19"/>
<text text-anchor="middle" x="249" y="-7" font-family="Helvetica,sans-Serif" font-size="10.00">xMIPv6</text>
</a>
</g>
</g>
<!-- xMIPv6Support&#45;&gt;xMIPv6 -->
<g id="edge3" class="edge">
<title>xMIPv6Support&#45;&gt;xMIPv6</title>
<path fill="none" stroke="black" d="M213.1,-54.75C219.17,-47.26 228.09,-36.28 235.51,-27.13"/>
<polygon fill="black" stroke="black" points="238.45,-29.06 242.03,-19.09 233.01,-24.65 238.45,-29.06"/>
</g>
<!-- BindingCache -->
<g id="node5" class="node">
<title>BindingCache</title>
<g id="a_node5"><a xlink:href="inet.networklayer.xmipv6.BindingCache.html" xlink:title="Simple Module BindingCache" target="_parent">
<polygon fill="#fffcaf" stroke="black" points="377.5,-19 294.5,-19 294.5,0 377.5,0 377.5,-19"/>
<text text-anchor="middle" x="336" y="-7" font-family="Helvetica,sans-Serif" font-size="10.00">BindingCache</text>
</a>
</g>
</g>
<!-- xMIPv6Support&#45;&gt;BindingCache -->
<g id="edge4" class="edge">
<title>xMIPv6Support&#45;&gt;BindingCache</title>
<path fill="none" stroke="black" d="M226.89,-54.98C248.08,-46.34 281.13,-32.87 305.3,-23.02"/>
<polygon fill="black" stroke="black" points="306.79,-26.19 314.73,-19.17 304.15,-19.7 306.79,-26.19"/>
</g>
</g>
</svg>
