<?xml version="1.0" encoding="UTF-8" standalone="no"?>
<!DOCTYPE svg PUBLIC "-//W3C//DTD SVG 1.1//EN"
 "http://www.w3.org/Graphics/SVG/1.1/DTD/svg11.dtd">
<!-- Generated by graphviz version 2.43.0 (0)
 -->
<!-- Title: opp Pages: 1 -->
<svg width="536pt" height="82pt"
 viewBox="0.00 0.00 535.50 82.00" xmlns="http://www.w3.org/2000/svg" xmlns:xlink="http://www.w3.org/1999/xlink">
<g id="graph0" class="graph" transform="scale(1 1) rotate(0) translate(4 78)">
<title>opp</title>
<polygon fill="transparent" stroke="transparent" points="-4,4 -4,-78 531.5,-78 531.5,4 -4,4"/>
<!-- SelectivityService -->
<g id="node1" class="node">
<title>SelectivityService</title>
<g id="a_node1"><a xlink:href="inet.protocolelement.service.SelectivityService.html" xlink:title="Compound Module SelectivityService" target="_parent">
<polygon fill="#fff700" stroke="black" points="305.5,-74 201.5,-74 201.5,-55 305.5,-55 305.5,-74"/>
<text text-anchor="middle" x="253.5" y="-62" font-family="Helvetica,sans-Serif" font-size="10.00">SelectivityService</text>
</a>
</g>
</g>
<!-- SendToL3Address -->
<g id="node2" class="node">
<title>SendToL3Address</title>
<g id="a_node2"><a xlink:href="inet.protocolelement.selectivity.SendToL3Address.html" xlink:title="Simple Module SendToL3Address" target="_parent">
<polygon fill="#fffcaf" stroke="black" points="101,-19 0,-19 0,0 101,0 101,-19"/>
<text text-anchor="middle" x="50.5" y="-7" font-family="Helvetica,sans-Serif" font-size="10.00">SendToL3Address</text>
</a>
</g>
</g>
<!-- SelectivityService&#45;&gt;SendToL3Address -->
<g id="edge1" class="edge">
<title>SelectivityService&#45;&gt;SendToL3Address</title>
<path fill="none" stroke="black" d="M220.88,-54.98C186.21,-45.93 131.24,-31.58 93.15,-21.64"/>
<polygon fill="black" stroke="black" points="93.93,-18.22 83.37,-19.08 92.16,-24.99 93.93,-18.22"/>
</g>
<!-- IdealChannel -->
<g id="node3" class="node">
<title>IdealChannel</title>
<g id="a_node3"><a xlink:href="ned.IdealChannel.html" xlink:title="Channel IdealChannel" target="_parent">
<polygon fill="#d0ffd0" stroke="black" points="199.5,-19 119.5,-19 119.5,0 199.5,0 199.5,-19"/>
<text text-anchor="middle" x="159.5" y="-7" font-family="Helvetica,sans-Serif" font-size="10.00">IdealChannel</text>
</a>
</g>
</g>
<!-- SelectivityService&#45;&gt;IdealChannel -->
<g id="edge2" class="edge">
<title>SelectivityService&#45;&gt;IdealChannel</title>
<path fill="none" stroke="black" d="M238.4,-54.98C223.68,-46.69 201.08,-33.94 183.83,-24.22"/>
<polygon fill="black" stroke="black" points="185.31,-21.03 174.88,-19.17 181.87,-27.13 185.31,-21.03"/>
</g>
<!-- SendToPort -->
<g id="node4" class="node">
<title>SendToPort</title>
<g id="a_node4"><a xlink:href="inet.protocolelement.selectivity.SendToPort.html" xlink:title="Simple Module SendToPort" target="_parent">
<polygon fill="#fffcaf" stroke="black" points="289,-19 218,-19 218,0 289,0 289,-19"/>
<text text-anchor="middle" x="253.5" y="-7" font-family="Helvetica,sans-Serif" font-size="10.00">SendToPort</text>
</a>
</g>
</g>
<!-- SelectivityService&#45;&gt;SendToPort -->
<g id="edge3" class="edge">
<title>SelectivityService&#45;&gt;SendToPort</title>
<path fill="none" stroke="black" d="M253.5,-54.75C253.5,-47.8 253.5,-37.85 253.5,-29.13"/>
<polygon fill="black" stroke="black" points="257,-29.09 253.5,-19.09 250,-29.09 257,-29.09"/>
</g>
<!-- ReceiveAtPort -->
<g id="node5" class="node">
<title>ReceiveAtPort</title>
<g id="a_node5"><a xlink:href="inet.protocolelement.selectivity.ReceiveAtPort.html" xlink:title="Simple Module ReceiveAtPort" target="_parent">
<polygon fill="#fffcaf" stroke="black" points="393.5,-19 307.5,-19 307.5,0 393.5,0 393.5,-19"/>
<text text-anchor="middle" x="350.5" y="-7" font-family="Helvetica,sans-Serif" font-size="10.00">ReceiveAtPort</text>
</a>
</g>
</g>
<!-- SelectivityService&#45;&gt;ReceiveAtPort -->
<g id="edge4" class="edge">
<title>SelectivityService&#45;&gt;ReceiveAtPort</title>
<path fill="none" stroke="black" d="M269.08,-54.98C284.27,-46.69 307.6,-33.94 325.4,-24.22"/>
<polygon fill="black" stroke="black" points="327.53,-27.04 334.63,-19.17 324.18,-20.89 327.53,-27.04"/>
</g>
<!-- ReceiveAtL3Address -->
<g id="node6" class="node">
<title>ReceiveAtL3Address</title>
<g id="a_node6"><a xlink:href="inet.protocolelement.selectivity.ReceiveAtL3Address.html" xlink:title="Simple Module ReceiveAtL3Address" target="_parent">
<polygon fill="#fffcaf" stroke="black" points="527.5,-19 411.5,-19 411.5,0 527.5,0 527.5,-19"/>
<text text-anchor="middle" x="469.5" y="-7" font-family="Helvetica,sans-Serif" font-size="10.00">ReceiveAtL3Address</text>
</a>
</g>
</g>
<!-- SelectivityService&#45;&gt;ReceiveAtL3Address -->
<g id="edge5" class="edge">
<title>SelectivityService&#45;&gt;ReceiveAtL3Address</title>
<path fill="none" stroke="black" d="M288.2,-54.98C325.25,-45.89 384.09,-31.46 424.63,-21.51"/>
<polygon fill="black" stroke="black" points="425.65,-24.86 434.52,-19.08 423.98,-18.07 425.65,-24.86"/>
</g>
</g>
</svg>
