<?xml version="1.0" encoding="UTF-8" standalone="no"?>
<!DOCTYPE svg PUBLIC "-//W3C//DTD SVG 1.1//EN"
 "http://www.w3.org/Graphics/SVG/1.1/DTD/svg11.dtd">
<!-- Generated by graphviz version 2.43.0 (0)
 -->
<!-- Title: opp Pages: 1 -->
<svg width="244pt" height="137pt"
 viewBox="0.00 0.00 243.50 137.00" xmlns="http://www.w3.org/2000/svg" xmlns:xlink="http://www.w3.org/1999/xlink">
<g id="graph0" class="graph" transform="scale(1 1) rotate(0) translate(4 133)">
<title>opp</title>
<polygon fill="transparent" stroke="transparent" points="-4,4 -4,-133 239.5,-133 239.5,4 -4,4"/>
<!-- TokenBucketClassifier -->
<g id="node1" class="node">
<title>TokenBucketClassifier</title>
<g id="a_node1"><a xlink:href="inet.queueing.classifier.TokenBucketClassifier.html" xlink:title="Simple Module TokenBucketClassifier" target="_parent">
<polygon fill="#fff700" stroke="black" points="184,-74 61,-74 61,-55 184,-55 184,-74"/>
<text text-anchor="middle" x="122.5" y="-62" font-family="Helvetica,sans-Serif" font-size="10.00">TokenBucketClassifier</text>
</a>
</g>
</g>
<!-- SingleRateTwoColorClassifier -->
<g id="node4" class="node">
<title>SingleRateTwoColorClassifier</title>
<g id="a_node4"><a xlink:href="inet.queueing.classifier.SingleRateTwoColorClassifier.html" xlink:title="Simple Module SingleRateTwoColorClassifier" target="_parent">
<polygon fill="#fffcaf" stroke="black" points="202,-19 43,-19 43,0 202,0 202,-19"/>
<text text-anchor="middle" x="122.5" y="-7" font-family="Helvetica,sans-Serif" font-size="10.00">SingleRateTwoColorClassifier</text>
</a>
</g>
</g>
<!-- TokenBucketClassifier&#45;&gt;SingleRateTwoColorClassifier -->
<g id="edge3" class="edge">
<title>TokenBucketClassifier&#45;&gt;SingleRateTwoColorClassifier</title>
<path fill="none" stroke="black" d="M122.5,-54.75C122.5,-44.87 122.5,-28.9 122.5,-19.09"/>
</g>
<!-- PacketClassifierBase -->
<g id="node2" class="node">
<title>PacketClassifierBase</title>
<g id="a_node2"><a xlink:href="inet.queueing.base.PacketClassifierBase.html" xlink:title="Simple Module PacketClassifierBase" target="_parent">
<polygon fill="#fffcaf" stroke="black" points="119,-129 0,-129 0,-110 119,-110 119,-129"/>
<text text-anchor="middle" x="59.5" y="-117" font-family="Helvetica,sans-Serif" font-size="10.00">PacketClassifierBase</text>
</a>
</g>
</g>
<!-- PacketClassifierBase&#45;&gt;TokenBucketClassifier -->
<g id="edge1" class="edge">
<title>PacketClassifierBase&#45;&gt;TokenBucketClassifier</title>
<path fill="none" stroke="black" d="M69.62,-109.98C81.31,-100.15 100.43,-84.07 112.19,-74.17"/>
</g>
<!-- IPacketClassifier -->
<g id="node3" class="node">
<title>IPacketClassifier</title>
<g id="a_node3"><a xlink:href="inet.queueing.contract.IPacketClassifier.html" xlink:title="Module Interface IPacketClassifier" target="_parent">
<polygon fill="#fffcaf" stroke="black" stroke-dasharray="5,2" points="235.5,-129 137.5,-129 137.5,-110 235.5,-110 235.5,-129"/>
<text text-anchor="middle" x="186.5" y="-117" font-family="Helvetica,sans-Serif" font-size="10.00">IPacketClassifier</text>
</a>
</g>
</g>
<!-- IPacketClassifier&#45;&gt;TokenBucketClassifier -->
<g id="edge2" class="edge">
<title>IPacketClassifier&#45;&gt;TokenBucketClassifier</title>
<path fill="none" stroke="black" stroke-dasharray="5,2" d="M176.22,-109.98C164.34,-100.15 144.92,-84.07 132.97,-74.17"/>
</g>
</g>
</svg>
