<?xml version="1.0" encoding="UTF-8" standalone="no"?>
<!DOCTYPE svg PUBLIC "-//W3C//DTD SVG 1.1//EN"
 "http://www.w3.org/Graphics/SVG/1.1/DTD/svg11.dtd">
<!-- Generated by graphviz version 2.43.0 (0)
 -->
<!-- Title: opp Pages: 1 -->
<svg width="306pt" height="137pt"
 viewBox="0.00 0.00 306.00 137.00" xmlns="http://www.w3.org/2000/svg" xmlns:xlink="http://www.w3.org/1999/xlink">
<g id="graph0" class="graph" transform="scale(1 1) rotate(0) translate(4 133)">
<title>opp</title>
<polygon fill="transparent" stroke="transparent" points="-4,4 -4,-133 302,-133 302,4 -4,4"/>
<!-- PacketSourceBase -->
<g id="node1" class="node">
<title>PacketSourceBase</title>
<g id="a_node1"><a xlink:href="inet.queueing.base.PacketSourceBase.html" xlink:title="Simple Module PacketSourceBase" target="_parent">
<polygon fill="#fff700" stroke="black" points="200.5,-74 94.5,-74 94.5,-55 200.5,-55 200.5,-74"/>
<text text-anchor="middle" x="147.5" y="-62" font-family="Helvetica,sans-Serif" font-size="10.00">PacketSourceBase</text>
</a>
</g>
</g>
<!-- ActivePacketSourceBase -->
<g id="node3" class="node">
<title>ActivePacketSourceBase</title>
<g id="a_node3"><a xlink:href="inet.queueing.base.ActivePacketSourceBase.html" xlink:title="Simple Module ActivePacketSourceBase" target="_parent">
<polygon fill="#fffcaf" stroke="black" points="137,-19 0,-19 0,0 137,0 137,-19"/>
<text text-anchor="middle" x="68.5" y="-7" font-family="Helvetica,sans-Serif" font-size="10.00">ActivePacketSourceBase</text>
</a>
</g>
</g>
<!-- PacketSourceBase&#45;&gt;ActivePacketSourceBase -->
<g id="edge2" class="edge">
<title>PacketSourceBase&#45;&gt;ActivePacketSourceBase</title>
<path fill="none" stroke="black" d="M134.81,-54.98C120.15,-45.15 96.18,-29.07 81.42,-19.17"/>
</g>
<!-- PassivePacketSourceBase -->
<g id="node4" class="node">
<title>PassivePacketSourceBase</title>
<g id="a_node4"><a xlink:href="inet.queueing.base.PassivePacketSourceBase.html" xlink:title="Simple Module PassivePacketSourceBase" target="_parent">
<polygon fill="#fffcaf" stroke="black" points="298,-19 155,-19 155,0 298,0 298,-19"/>
<text text-anchor="middle" x="226.5" y="-7" font-family="Helvetica,sans-Serif" font-size="10.00">PassivePacketSourceBase</text>
</a>
</g>
</g>
<!-- PacketSourceBase&#45;&gt;PassivePacketSourceBase -->
<g id="edge3" class="edge">
<title>PacketSourceBase&#45;&gt;PassivePacketSourceBase</title>
<path fill="none" stroke="black" d="M160.19,-54.98C174.85,-45.15 198.82,-29.07 213.58,-19.17"/>
</g>
<!-- PacketProcessorBase -->
<g id="node2" class="node">
<title>PacketProcessorBase</title>
<g id="a_node2"><a xlink:href="inet.queueing.base.PacketProcessorBase.html" xlink:title="Simple Module PacketProcessorBase" target="_parent">
<polygon fill="#fffcaf" stroke="black" points="207.5,-129 87.5,-129 87.5,-110 207.5,-110 207.5,-129"/>
<text text-anchor="middle" x="147.5" y="-117" font-family="Helvetica,sans-Serif" font-size="10.00">PacketProcessorBase</text>
</a>
</g>
</g>
<!-- PacketProcessorBase&#45;&gt;PacketSourceBase -->
<g id="edge1" class="edge">
<title>PacketProcessorBase&#45;&gt;PacketSourceBase</title>
<path fill="none" stroke="black" d="M147.5,-109.75C147.5,-99.87 147.5,-83.9 147.5,-74.09"/>
</g>
</g>
</svg>
