<?xml version="1.0" encoding="UTF-8" standalone="no"?>
<!DOCTYPE svg PUBLIC "-//W3C//DTD SVG 1.1//EN"
 "http://www.w3.org/Graphics/SVG/1.1/DTD/svg11.dtd">
<!-- Generated by graphviz version 2.43.0 (0)
 -->
<!-- Title: opp Pages: 1 -->
<svg width="1022pt" height="137pt"
 viewBox="0.00 0.00 1021.50 137.00" xmlns="http://www.w3.org/2000/svg" xmlns:xlink="http://www.w3.org/1999/xlink">
<g id="graph0" class="graph" transform="scale(1 1) rotate(0) translate(4 133)">
<title>opp</title>
<polygon fill="transparent" stroke="transparent" points="-4,4 -4,-133 1017.5,-133 1017.5,4 -4,4"/>
<!-- EthernetHost -->
<g id="node1" class="node">
<title>EthernetHost</title>
<g id="a_node1"><a xlink:href="inet.node.ethernet.EthernetHost.html" xlink:title="Compound Module EthernetHost" target="_parent">
<polygon fill="#fff700" stroke="black" points="532,-74 452,-74 452,-55 532,-55 532,-74"/>
<text text-anchor="middle" x="492" y="-62" font-family="Helvetica,sans-Serif" font-size="10.00">EthernetHost</text>
</a>
</g>
</g>
<!-- InterfaceTable -->
<g id="node2" class="node">
<title>InterfaceTable</title>
<g id="a_node2"><a xlink:href="inet.networklayer.common.InterfaceTable.html" xlink:title="Simple Module InterfaceTable" target="_parent">
<polygon fill="#fffcaf" stroke="black" points="86,-19 0,-19 0,0 86,0 86,-19"/>
<text text-anchor="middle" x="43" y="-7" font-family="Helvetica,sans-Serif" font-size="10.00">InterfaceTable</text>
</a>
</g>
</g>
<!-- EthernetHost&#45;&gt;InterfaceTable -->
<g id="edge1" class="edge">
<title>EthernetHost&#45;&gt;InterfaceTable</title>
<path fill="none" stroke="black" d="M451.91,-59.68C381.93,-52.87 232.72,-37.69 96.32,-19.12"/>
<polygon fill="black" stroke="black" points="96.49,-15.61 86.1,-17.72 95.54,-22.54 96.49,-15.61"/>
</g>
<!-- IdealChannel -->
<g id="node3" class="node">
<title>IdealChannel</title>
<g id="a_node3"><a xlink:href="ned.IdealChannel.html" xlink:title="Channel IdealChannel" target="_parent">
<polygon fill="#d0ffd0" stroke="black" points="184,-19 104,-19 104,0 184,0 184,-19"/>
<text text-anchor="middle" x="144" y="-7" font-family="Helvetica,sans-Serif" font-size="10.00">IdealChannel</text>
</a>
</g>
</g>
<!-- EthernetHost&#45;&gt;IdealChannel -->
<g id="edge2" class="edge">
<title>EthernetHost&#45;&gt;IdealChannel</title>
<path fill="none" stroke="black" d="M451.81,-57.83C396.27,-49.93 292.66,-34.94 194.22,-19.16"/>
<polygon fill="black" stroke="black" points="194.53,-15.67 184.1,-17.54 193.42,-22.58 194.53,-15.67"/>
</g>
<!-- IEthernetLayer -->
<g id="node4" class="node">
<title>IEthernetLayer</title>
<g id="a_node4"><a xlink:href="inet.linklayer.ethernet.contract.IEthernetLayer.html" xlink:title="Module Interface IEthernetLayer" target="_parent">
<polygon fill="#fffcaf" stroke="black" stroke-dasharray="5,2" points="290,-19 202,-19 202,0 290,0 290,-19"/>
<text text-anchor="middle" x="246" y="-7" font-family="Helvetica,sans-Serif" font-size="10.00">IEthernetLayer</text>
</a>
</g>
</g>
<!-- EthernetHost&#45;&gt;IEthernetLayer -->
<g id="edge3" class="edge">
<title>EthernetHost&#45;&gt;IEthernetLayer</title>
<path fill="none" stroke="black" d="M452.48,-54.98C409.83,-45.8 341.85,-31.15 295.64,-21.19"/>
<polygon fill="black" stroke="black" points="296.35,-17.77 285.83,-19.08 294.87,-24.61 296.35,-17.77"/>
</g>
<!-- MessageDispatcher -->
<g id="node5" class="node">
<title>MessageDispatcher</title>
<g id="a_node5"><a xlink:href="inet.common.MessageDispatcher.html" xlink:title="Simple Module MessageDispatcher" target="_parent">
<polygon fill="#fffcaf" stroke="black" points="421.5,-19 308.5,-19 308.5,0 421.5,0 421.5,-19"/>
<text text-anchor="middle" x="365" y="-7" font-family="Helvetica,sans-Serif" font-size="10.00">MessageDispatcher</text>
</a>
</g>
</g>
<!-- EthernetHost&#45;&gt;MessageDispatcher -->
<g id="edge4" class="edge">
<title>EthernetHost&#45;&gt;MessageDispatcher</title>
<path fill="none" stroke="black" d="M471.6,-54.98C450.98,-46.38 418.89,-32.99 395.31,-23.15"/>
<polygon fill="black" stroke="black" points="396.35,-19.79 385.78,-19.17 393.66,-26.25 396.35,-19.79"/>
</g>
<!-- IEthernetInterface -->
<g id="node6" class="node">
<title>IEthernetInterface</title>
<g id="a_node6"><a xlink:href="inet.linklayer.contract.IEthernetInterface.html" xlink:title="Module Interface IEthernetInterface" target="_parent">
<polygon fill="#fffcaf" stroke="black" stroke-dasharray="5,2" points="544,-19 440,-19 440,0 544,0 544,-19"/>
<text text-anchor="middle" x="492" y="-7" font-family="Helvetica,sans-Serif" font-size="10.00">IEthernetInterface</text>
</a>
</g>
</g>
<!-- EthernetHost&#45;&gt;IEthernetInterface -->
<g id="edge5" class="edge">
<title>EthernetHost&#45;&gt;IEthernetInterface</title>
<path fill="none" stroke="black" d="M492,-54.75C492,-47.8 492,-37.85 492,-29.13"/>
<polygon fill="black" stroke="black" points="495.5,-29.09 492,-19.09 488.5,-29.09 495.5,-29.09"/>
</g>
<!-- EtherAppServer -->
<g id="node7" class="node">
<title>EtherAppServer</title>
<g id="a_node7"><a xlink:href="inet.applications.ethernet.EtherAppServer.html" xlink:title="Simple Module EtherAppServer" target="_parent">
<polygon fill="#fffcaf" stroke="black" points="654,-19 562,-19 562,0 654,0 654,-19"/>
<text text-anchor="middle" x="608" y="-7" font-family="Helvetica,sans-Serif" font-size="10.00">EtherAppServer</text>
</a>
</g>
</g>
<!-- EthernetHost&#45;&gt;EtherAppServer -->
<g id="edge6" class="edge">
<title>EthernetHost&#45;&gt;EtherAppServer</title>
<path fill="none" stroke="black" d="M510.64,-54.98C529.3,-46.46 558.25,-33.23 579.74,-23.41"/>
<polygon fill="black" stroke="black" points="581.38,-26.51 589.02,-19.17 578.47,-20.14 581.38,-26.51"/>
</g>
<!-- IIeee8022Llc -->
<g id="node8" class="node">
<title>IIeee8022Llc</title>
<g id="a_node8"><a xlink:href="inet.linklayer.ieee8022.IIeee8022Llc.html" xlink:title="Module Interface IIeee8022Llc" target="_parent">
<polygon fill="#fffcaf" stroke="black" stroke-dasharray="5,2" points="750,-19 672,-19 672,0 750,0 750,-19"/>
<text text-anchor="middle" x="711" y="-7" font-family="Helvetica,sans-Serif" font-size="10.00">IIeee8022Llc</text>
</a>
</g>
</g>
<!-- EthernetHost&#45;&gt;IIeee8022Llc -->
<g id="edge7" class="edge">
<title>EthernetHost&#45;&gt;IIeee8022Llc</title>
<path fill="none" stroke="black" d="M527.19,-54.98C564.83,-45.87 624.66,-31.4 665.77,-21.45"/>
<polygon fill="black" stroke="black" points="666.64,-24.84 675.54,-19.08 665,-18.03 666.64,-24.84"/>
</g>
<!-- NodeStatus -->
<g id="node9" class="node">
<title>NodeStatus</title>
<g id="a_node9"><a xlink:href="inet.common.lifecycle.NodeStatus.html" xlink:title="Simple Module NodeStatus" target="_parent">
<polygon fill="#fffcaf" stroke="black" points="841.5,-19 768.5,-19 768.5,0 841.5,0 841.5,-19"/>
<text text-anchor="middle" x="805" y="-7" font-family="Helvetica,sans-Serif" font-size="10.00">NodeStatus</text>
</a>
</g>
</g>
<!-- EthernetHost&#45;&gt;NodeStatus -->
<g id="edge8" class="edge">
<title>EthernetHost&#45;&gt;NodeStatus</title>
<path fill="none" stroke="black" d="M532.3,-57.01C582.66,-48.85 671.77,-34.25 758.35,-19.09"/>
<polygon fill="black" stroke="black" points="759.11,-22.51 768.35,-17.33 757.9,-15.61 759.11,-22.51"/>
</g>
<!-- EtherAppClient -->
<g id="node10" class="node">
<title>EtherAppClient</title>
<g id="a_node10"><a xlink:href="inet.applications.ethernet.EtherAppClient.html" xlink:title="Simple Module EtherAppClient" target="_parent">
<polygon fill="#fffcaf" stroke="black" points="948.5,-19 859.5,-19 859.5,0 948.5,0 948.5,-19"/>
<text text-anchor="middle" x="904" y="-7" font-family="Helvetica,sans-Serif" font-size="10.00">EtherAppClient</text>
</a>
</g>
</g>
<!-- EthernetHost&#45;&gt;EtherAppClient -->
<g id="edge9" class="edge">
<title>EthernetHost&#45;&gt;EtherAppClient</title>
<path fill="none" stroke="black" d="M532.17,-58.99C596.79,-51.64 728.07,-36.28 849.29,-19.2"/>
<polygon fill="black" stroke="black" points="850.07,-22.63 859.48,-17.76 849.09,-15.69 850.07,-22.63"/>
</g>
<!-- BusLAN -->
<g id="node11" class="node">
<title>BusLAN</title>
<g id="a_node11"><a xlink:href="inet.examples.ethernet.lans.BusLAN.html" xlink:title="Network BusLAN" target="_parent">
<polygon fill="#d0d0ff" stroke="black" points="199.5,-129 144.5,-129 144.5,-110 199.5,-110 199.5,-129"/>
<text text-anchor="middle" x="172" y="-117" font-family="Helvetica,sans-Serif" font-size="10.00">BusLAN</text>
</a>
</g>
</g>
<!-- BusLAN&#45;&gt;EthernetHost -->
<g id="edge10" class="edge">
<title>BusLAN&#45;&gt;EthernetHost</title>
<path fill="none" stroke="black" d="M199.84,-111.89C202.92,-111.22 206.02,-110.58 209,-110 289.91,-94.36 384.63,-80.33 441.4,-72.37"/>
<polygon fill="black" stroke="black" points="442.12,-75.8 451.54,-70.96 441.15,-68.87 442.12,-75.8"/>
</g>
<!-- HubLAN -->
<g id="node12" class="node">
<title>HubLAN</title>
<g id="a_node12"><a xlink:href="inet.examples.ethernet.lans.HubLAN.html" xlink:title="Network HubLAN" target="_parent">
<polygon fill="#d0d0ff" stroke="black" points="274,-129 218,-129 218,-110 274,-110 274,-129"/>
<text text-anchor="middle" x="246" y="-117" font-family="Helvetica,sans-Serif" font-size="10.00">HubLAN</text>
</a>
</g>
</g>
<!-- HubLAN&#45;&gt;EthernetHost -->
<g id="edge11" class="edge">
<title>HubLAN&#45;&gt;EthernetHost</title>
<path fill="none" stroke="black" d="M274.27,-111.96C277.22,-111.29 280.17,-110.63 283,-110 337.32,-97.98 399.73,-84.77 442.1,-75.89"/>
<polygon fill="black" stroke="black" points="442.82,-79.32 451.89,-73.84 441.39,-72.46 442.82,-79.32"/>
</g>
<!-- LargeLAN -->
<g id="node13" class="node">
<title>LargeLAN</title>
<g id="a_node13"><a xlink:href="inet.examples.ethernet.lans.LargeLAN.html" xlink:title="Compound Module LargeLAN" target="_parent">
<polygon fill="#fffcaf" stroke="black" points="356,-129 292,-129 292,-110 356,-110 356,-129"/>
<text text-anchor="middle" x="324" y="-117" font-family="Helvetica,sans-Serif" font-size="10.00">LargeLAN</text>
</a>
</g>
</g>
<!-- LargeLAN&#45;&gt;EthernetHost -->
<g id="edge12" class="edge">
<title>LargeLAN&#45;&gt;EthernetHost</title>
<path fill="none" stroke="black" d="M350.99,-109.98C379.2,-101.09 423.64,-87.07 455.08,-77.15"/>
<polygon fill="black" stroke="black" points="456.31,-80.43 464.8,-74.08 454.21,-73.75 456.31,-80.43"/>
</g>
<!-- LargeNet -->
<g id="node14" class="node">
<title>LargeNet</title>
<g id="a_node14"><a xlink:href="inet.examples.ieee8021d.LargeNet.html" xlink:title="Network LargeNet" target="_parent">
<polygon fill="#d0d0ff" stroke="black" points="435.5,-129 374.5,-129 374.5,-110 435.5,-110 435.5,-129"/>
<text text-anchor="middle" x="405" y="-117" font-family="Helvetica,sans-Serif" font-size="10.00">LargeNet</text>
</a>
</g>
</g>
<!-- LargeNet&#45;&gt;EthernetHost -->
<g id="edge13" class="edge">
<title>LargeNet&#45;&gt;EthernetHost</title>
<path fill="none" stroke="black" d="M413.86,-109.98C425.65,-101.69 446.28,-88.94 463.49,-79.22"/>
<polygon fill="black" stroke="black" points="465.56,-82.07 472.62,-74.17 462.17,-75.94 465.56,-82.07"/>
</g>
<!-- LargeNet&#45;&gt;EthernetHost -->
<g id="edge14" class="edge">
<title>LargeNet&#45;&gt;EthernetHost</title>
<path fill="none" stroke="black" d="M424.09,-109.98C439.11,-101.92 459.59,-89.65 474.24,-80.03"/>
<polygon fill="black" stroke="black" points="476.59,-82.67 482.92,-74.17 472.67,-76.87 476.59,-82.67"/>
</g>
<!-- MediumLAN -->
<g id="node15" class="node">
<title>MediumLAN</title>
<g id="a_node15"><a xlink:href="inet.examples.ethernet.lans.MediumLAN.html" xlink:title="Compound Module MediumLAN" target="_parent">
<polygon fill="#fffcaf" stroke="black" points="530.5,-129 453.5,-129 453.5,-110 530.5,-110 530.5,-129"/>
<text text-anchor="middle" x="492" y="-117" font-family="Helvetica,sans-Serif" font-size="10.00">MediumLAN</text>
</a>
</g>
</g>
<!-- MediumLAN&#45;&gt;EthernetHost -->
<g id="edge15" class="edge">
<title>MediumLAN&#45;&gt;EthernetHost</title>
<path fill="none" stroke="black" d="M492,-109.75C492,-102.8 492,-92.85 492,-84.13"/>
<polygon fill="black" stroke="black" points="495.5,-84.09 492,-74.09 488.5,-84.09 495.5,-84.09"/>
</g>
<!-- MixedLAN -->
<g id="node16" class="node">
<title>MixedLAN</title>
<g id="a_node16"><a xlink:href="inet.examples.ethernet.lans.MixedLAN.html" xlink:title="Network MixedLAN" target="_parent">
<polygon fill="#d0d0ff" stroke="black" points="615.5,-129 548.5,-129 548.5,-110 615.5,-110 615.5,-129"/>
<text text-anchor="middle" x="582" y="-117" font-family="Helvetica,sans-Serif" font-size="10.00">MixedLAN</text>
</a>
</g>
</g>
<!-- MixedLAN&#45;&gt;EthernetHost -->
<g id="edge16" class="edge">
<title>MixedLAN&#45;&gt;EthernetHost</title>
<path fill="none" stroke="black" d="M567.54,-109.98C553.58,-101.77 532.21,-89.18 515.75,-79.49"/>
<polygon fill="black" stroke="black" points="517.12,-76.23 506.72,-74.17 513.56,-82.26 517.12,-76.23"/>
</g>
<!-- SmallLAN -->
<g id="node17" class="node">
<title>SmallLAN</title>
<g id="a_node17"><a xlink:href="inet.examples.ethernet.lans.SmallLAN.html" xlink:title="Compound Module SmallLAN" target="_parent">
<polygon fill="#fffcaf" stroke="black" points="698.5,-129 633.5,-129 633.5,-110 698.5,-110 698.5,-129"/>
<text text-anchor="middle" x="666" y="-117" font-family="Helvetica,sans-Serif" font-size="10.00">SmallLAN</text>
</a>
</g>
</g>
<!-- SmallLAN&#45;&gt;EthernetHost -->
<g id="edge17" class="edge">
<title>SmallLAN&#45;&gt;EthernetHost</title>
<path fill="none" stroke="black" d="M638.04,-109.98C608.7,-101.05 562.4,-86.94 529.81,-77.02"/>
<polygon fill="black" stroke="black" points="530.76,-73.65 520.18,-74.08 528.72,-80.34 530.76,-73.65"/>
</g>
<!-- SwitchedDuplexLAN -->
<g id="node18" class="node">
<title>SwitchedDuplexLAN</title>
<g id="a_node18"><a xlink:href="inet.examples.ethernet.lans.SwitchedDuplexLAN.html" xlink:title="Network SwitchedDuplexLAN" target="_parent">
<polygon fill="#d0d0ff" stroke="black" points="833,-129 717,-129 717,-110 833,-110 833,-129"/>
<text text-anchor="middle" x="775" y="-117" font-family="Helvetica,sans-Serif" font-size="10.00">SwitchedDuplexLAN</text>
</a>
</g>
</g>
<!-- SwitchedDuplexLAN&#45;&gt;EthernetHost -->
<g id="edge18" class="edge">
<title>SwitchedDuplexLAN&#45;&gt;EthernetHost</title>
<path fill="none" stroke="black" d="M729.53,-109.98C678.3,-100.39 595.28,-84.84 542.19,-74.9"/>
<polygon fill="black" stroke="black" points="542.79,-71.45 532.31,-73.05 541.5,-78.33 542.79,-71.45"/>
</g>
<!-- SwitchedLAN -->
<g id="node19" class="node">
<title>SwitchedLAN</title>
<g id="a_node19"><a xlink:href="inet.examples.ethernet.lans.SwitchedLAN.html" xlink:title="Network SwitchedLAN" target="_parent">
<polygon fill="#d0d0ff" stroke="black" points="932.5,-129 851.5,-129 851.5,-110 932.5,-110 932.5,-129"/>
<text text-anchor="middle" x="892" y="-117" font-family="Helvetica,sans-Serif" font-size="10.00">SwitchedLAN</text>
</a>
</g>
</g>
<!-- SwitchedLAN&#45;&gt;EthernetHost -->
<g id="edge19" class="edge">
<title>SwitchedLAN&#45;&gt;EthernetHost</title>
<path fill="none" stroke="black" d="M851.36,-111.45C848.2,-110.94 845.05,-110.45 842,-110 735.53,-94.19 610.31,-79.12 542.25,-71.22"/>
<polygon fill="black" stroke="black" points="542.57,-67.73 532.23,-70.06 541.76,-74.69 542.57,-67.73"/>
</g>
<!-- TwoHosts -->
<g id="node20" class="node">
<title>TwoHosts</title>
<g id="a_node20"><a xlink:href="inet.examples.ethernet.lans.TwoHosts.html" xlink:title="Network TwoHosts" target="_parent">
<polygon fill="#d0d0ff" stroke="black" points="1013.5,-129 950.5,-129 950.5,-110 1013.5,-110 1013.5,-129"/>
<text text-anchor="middle" x="982" y="-117" font-family="Helvetica,sans-Serif" font-size="10.00">TwoHosts</text>
</a>
</g>
</g>
<!-- TwoHosts&#45;&gt;EthernetHost -->
<g id="edge20" class="edge">
<title>TwoHosts&#45;&gt;EthernetHost</title>
<path fill="none" stroke="black" d="M950.18,-111.41C947.42,-110.89 944.67,-110.41 942,-110 797.86,-87.63 625.9,-74.29 542.44,-68.66"/>
<polygon fill="black" stroke="black" points="542.43,-65.15 532.22,-67.98 541.97,-72.13 542.43,-65.15"/>
</g>
</g>
</svg>
