<?xml version="1.0" encoding="UTF-8" standalone="no"?>
<!DOCTYPE svg PUBLIC "-//W3C//DTD SVG 1.1//EN"
 "http://www.w3.org/Graphics/SVG/1.1/DTD/svg11.dtd">
<!-- Generated by graphviz version 2.43.0 (0)
 -->
<!-- Title: opp Pages: 1 -->
<svg width="548pt" height="82pt"
 viewBox="0.00 0.00 547.50 82.00" xmlns="http://www.w3.org/2000/svg" xmlns:xlink="http://www.w3.org/1999/xlink">
<g id="graph0" class="graph" transform="scale(1 1) rotate(0) translate(4 78)">
<title>opp</title>
<polygon fill="transparent" stroke="transparent" points="-4,4 -4,-78 543.5,-78 543.5,4 -4,4"/>
<!-- Network -->
<g id="node1" class="node">
<title>Network</title>
<g id="a_node1"><a xlink:href="inet.examples.pim.dm.assert.Network.html" xlink:title="Network Network" target="_parent">
<polygon fill="#9090ff" stroke="black" points="313,-74 255,-74 255,-55 313,-55 313,-74"/>
<text text-anchor="middle" x="284" y="-62" font-family="Helvetica,sans-Serif" font-size="10.00">Network</text>
</a>
</g>
</g>
<!-- MulticastRouter -->
<g id="node2" class="node">
<title>MulticastRouter</title>
<g id="a_node2"><a xlink:href="inet.node.inet.MulticastRouter.html" xlink:title="Compound Module MulticastRouter" target="_parent">
<polygon fill="#fffcaf" stroke="black" points="94,-19 0,-19 0,0 94,0 94,-19"/>
<text text-anchor="middle" x="47" y="-7" font-family="Helvetica,sans-Serif" font-size="10.00">MulticastRouter</text>
</a>
</g>
</g>
<!-- Network&#45;&gt;MulticastRouter -->
<g id="edge1" class="edge">
<title>Network&#45;&gt;MulticastRouter</title>
<path fill="none" stroke="black" d="M254.94,-57C215.13,-48.1 143.11,-31.99 95.17,-21.27"/>
<polygon fill="black" stroke="black" points="95.85,-17.84 85.33,-19.07 94.32,-24.67 95.85,-17.84"/>
</g>
<!-- StandardHost -->
<g id="node3" class="node">
<title>StandardHost</title>
<g id="a_node3"><a xlink:href="inet.node.inet.StandardHost.html" xlink:title="Compound Module StandardHost" target="_parent">
<polygon fill="#fffcaf" stroke="black" points="195.5,-19 112.5,-19 112.5,0 195.5,0 195.5,-19"/>
<text text-anchor="middle" x="154" y="-7" font-family="Helvetica,sans-Serif" font-size="10.00">StandardHost</text>
</a>
</g>
</g>
<!-- Network&#45;&gt;StandardHost -->
<g id="edge2" class="edge">
<title>Network&#45;&gt;StandardHost</title>
<path fill="none" stroke="black" d="M263.11,-54.98C241.92,-46.34 208.87,-32.87 184.7,-23.02"/>
<polygon fill="black" stroke="black" points="185.85,-19.7 175.27,-19.17 183.21,-26.19 185.85,-19.7"/>
</g>
<!-- Ipv4NetworkConfigurator -->
<g id="node4" class="node">
<title>Ipv4NetworkConfigurator</title>
<g id="a_node4"><a xlink:href="inet.networklayer.configurator.ipv4.Ipv4NetworkConfigurator.html" xlink:title="Simple Module Ipv4NetworkConfigurator" target="_parent">
<polygon fill="#fffcaf" stroke="black" points="354,-19 214,-19 214,0 354,0 354,-19"/>
<text text-anchor="middle" x="284" y="-7" font-family="Helvetica,sans-Serif" font-size="10.00">Ipv4NetworkConfigurator</text>
</a>
</g>
</g>
<!-- Network&#45;&gt;Ipv4NetworkConfigurator -->
<g id="edge3" class="edge">
<title>Network&#45;&gt;Ipv4NetworkConfigurator</title>
<path fill="none" stroke="black" d="M284,-54.75C284,-47.8 284,-37.85 284,-29.13"/>
<polygon fill="black" stroke="black" points="287.5,-29.09 284,-19.09 280.5,-29.09 287.5,-29.09"/>
</g>
<!-- EthernetSwitch -->
<g id="node5" class="node">
<title>EthernetSwitch</title>
<g id="a_node5"><a xlink:href="inet.node.ethernet.EthernetSwitch.html" xlink:title="Compound Module EthernetSwitch" target="_parent">
<polygon fill="#fffcaf" stroke="black" points="462,-19 372,-19 372,0 462,0 462,-19"/>
<text text-anchor="middle" x="417" y="-7" font-family="Helvetica,sans-Serif" font-size="10.00">EthernetSwitch</text>
</a>
</g>
</g>
<!-- Network&#45;&gt;EthernetSwitch -->
<g id="edge4" class="edge">
<title>Network&#45;&gt;EthernetSwitch</title>
<path fill="none" stroke="black" d="M305.37,-54.98C327.15,-46.3 361.16,-32.75 385.92,-22.88"/>
<polygon fill="black" stroke="black" points="387.25,-26.12 395.24,-19.17 384.66,-19.62 387.25,-26.12"/>
</g>
<!-- Eth100M -->
<g id="node6" class="node">
<title>Eth100M</title>
<g id="a_node6"><a xlink:href="inet.node.ethernet.Eth100M.html" xlink:title="Channel Eth100M" target="_parent">
<polygon fill="#d0ffd0" stroke="black" points="539.5,-19 480.5,-19 480.5,0 539.5,0 539.5,-19"/>
<text text-anchor="middle" x="510" y="-7" font-family="Helvetica,sans-Serif" font-size="10.00">Eth100M</text>
</a>
</g>
</g>
<!-- Network&#45;&gt;Eth100M -->
<g id="edge5" class="edge">
<title>Network&#45;&gt;Eth100M</title>
<path fill="none" stroke="black" d="M313.08,-56.68C353.12,-47.29 425.36,-30.35 470.33,-19.8"/>
<polygon fill="black" stroke="black" points="471.37,-23.15 480.31,-17.46 469.78,-16.34 471.37,-23.15"/>
</g>
</g>
</svg>
