<?xml version="1.0" encoding="UTF-8" standalone="no"?>
<!DOCTYPE svg PUBLIC "-//W3C//DTD SVG 1.1//EN"
 "http://www.w3.org/Graphics/SVG/1.1/DTD/svg11.dtd">
<!-- Generated by graphviz version 2.43.0 (0)
 -->
<!-- Title: opp Pages: 1 -->
<svg width="662pt" height="82pt"
 viewBox="0.00 0.00 661.50 82.00" xmlns="http://www.w3.org/2000/svg" xmlns:xlink="http://www.w3.org/1999/xlink">
<g id="graph0" class="graph" transform="scale(1 1) rotate(0) translate(4 78)">
<title>opp</title>
<polygon fill="transparent" stroke="transparent" points="-4,4 -4,-78 657.5,-78 657.5,4 -4,4"/>
<!-- EthernetPhyLayer -->
<g id="node1" class="node">
<title>EthernetPhyLayer</title>
<g id="a_node1"><a xlink:href="inet.physicallayer.wired.ethernet.EthernetPhyLayer.html" xlink:title="Compound Module EthernetPhyLayer" target="_parent">
<polygon fill="#fff700" stroke="black" points="387.5,-74 284.5,-74 284.5,-55 387.5,-55 387.5,-74"/>
<text text-anchor="middle" x="336" y="-62" font-family="Helvetica,sans-Serif" font-size="10.00">EthernetPhyLayer</text>
</a>
</g>
</g>
<!-- IdealChannel -->
<g id="node2" class="node">
<title>IdealChannel</title>
<g id="a_node2"><a xlink:href="ned.IdealChannel.html" xlink:title="Channel IdealChannel" target="_parent">
<polygon fill="#d0ffd0" stroke="black" points="80,-19 0,-19 0,0 80,0 80,-19"/>
<text text-anchor="middle" x="40" y="-7" font-family="Helvetica,sans-Serif" font-size="10.00">IdealChannel</text>
</a>
</g>
</g>
<!-- EthernetPhyLayer&#45;&gt;IdealChannel -->
<g id="edge1" class="edge">
<title>EthernetPhyLayer&#45;&gt;IdealChannel</title>
<path fill="none" stroke="black" d="M288.44,-54.98C234.13,-45.26 145.66,-29.42 90.25,-19.5"/>
<polygon fill="black" stroke="black" points="90.77,-16.03 80.31,-17.72 89.53,-22.93 90.77,-16.03"/>
</g>
<!-- IPacketReceiver -->
<g id="node3" class="node">
<title>IPacketReceiver</title>
<g id="a_node3"><a xlink:href="inet.protocolelement.transceiver.contract.IPacketReceiver.html" xlink:title="Module Interface IPacketReceiver" target="_parent">
<polygon fill="#fffcaf" stroke="black" stroke-dasharray="5,2" points="193.5,-19 98.5,-19 98.5,0 193.5,0 193.5,-19"/>
<text text-anchor="middle" x="146" y="-7" font-family="Helvetica,sans-Serif" font-size="10.00">IPacketReceiver</text>
</a>
</g>
</g>
<!-- EthernetPhyLayer&#45;&gt;IPacketReceiver -->
<g id="edge2" class="edge">
<title>EthernetPhyLayer&#45;&gt;IPacketReceiver</title>
<path fill="none" stroke="black" d="M305.47,-54.98C273.3,-46.01 222.44,-31.82 186.83,-21.89"/>
<polygon fill="black" stroke="black" points="187.34,-18.4 176.77,-19.08 185.46,-25.14 187.34,-18.4"/>
</g>
<!-- InterpacketGapInserter -->
<g id="node4" class="node">
<title>InterpacketGapInserter</title>
<g id="a_node4"><a xlink:href="inet.protocolelement.common.InterpacketGapInserter.html" xlink:title="Simple Module InterpacketGapInserter" target="_parent">
<polygon fill="#fffcaf" stroke="black" points="340,-19 212,-19 212,0 340,0 340,-19"/>
<text text-anchor="middle" x="276" y="-7" font-family="Helvetica,sans-Serif" font-size="10.00">InterpacketGapInserter</text>
</a>
</g>
</g>
<!-- EthernetPhyLayer&#45;&gt;InterpacketGapInserter -->
<g id="edge3" class="edge">
<title>EthernetPhyLayer&#45;&gt;InterpacketGapInserter</title>
<path fill="none" stroke="black" d="M326.36,-54.98C317.49,-47.15 304.13,-35.34 293.39,-25.86"/>
<polygon fill="black" stroke="black" points="295.63,-23.17 285.82,-19.17 290.99,-28.41 295.63,-23.17"/>
</g>
<!-- IPacketFilter -->
<g id="node5" class="node">
<title>IPacketFilter</title>
<g id="a_node5"><a xlink:href="inet.queueing.contract.IPacketFilter.html" xlink:title="Module Interface IPacketFilter" target="_parent">
<polygon fill="#fffcaf" stroke="black" stroke-dasharray="5,2" points="434,-19 358,-19 358,0 434,0 434,-19"/>
<text text-anchor="middle" x="396" y="-7" font-family="Helvetica,sans-Serif" font-size="10.00">IPacketFilter</text>
</a>
</g>
</g>
<!-- EthernetPhyLayer&#45;&gt;IPacketFilter -->
<g id="edge4" class="edge">
<title>EthernetPhyLayer&#45;&gt;IPacketFilter</title>
<path fill="none" stroke="black" d="M345.64,-54.98C354.51,-47.15 367.87,-35.34 378.61,-25.86"/>
<polygon fill="black" stroke="black" points="381.01,-28.41 386.18,-19.17 376.37,-23.17 381.01,-28.41"/>
</g>
<!-- IPacketTransmitter -->
<g id="node6" class="node">
<title>IPacketTransmitter</title>
<g id="a_node6"><a xlink:href="inet.protocolelement.transceiver.contract.IPacketTransmitter.html" xlink:title="Module Interface IPacketTransmitter" target="_parent">
<polygon fill="#fffcaf" stroke="black" stroke-dasharray="5,2" points="560,-19 452,-19 452,0 560,0 560,-19"/>
<text text-anchor="middle" x="506" y="-7" font-family="Helvetica,sans-Serif" font-size="10.00">IPacketTransmitter</text>
</a>
</g>
</g>
<!-- EthernetPhyLayer&#45;&gt;IPacketTransmitter -->
<g id="edge5" class="edge">
<title>EthernetPhyLayer&#45;&gt;IPacketTransmitter</title>
<path fill="none" stroke="black" d="M363.31,-54.98C391.85,-46.09 436.83,-32.07 468.64,-22.15"/>
<polygon fill="black" stroke="black" points="469.97,-25.4 478.47,-19.08 467.88,-18.72 469.97,-25.4"/>
</g>
<!-- IPacketFlow -->
<g id="node7" class="node">
<title>IPacketFlow</title>
<g id="a_node7"><a xlink:href="inet.queueing.contract.IPacketFlow.html" xlink:title="Module Interface IPacketFlow" target="_parent">
<polygon fill="#fffcaf" stroke="black" stroke-dasharray="5,2" points="653.5,-19 578.5,-19 578.5,0 653.5,0 653.5,-19"/>
<text text-anchor="middle" x="616" y="-7" font-family="Helvetica,sans-Serif" font-size="10.00">IPacketFlow</text>
</a>
</g>
</g>
<!-- EthernetPhyLayer&#45;&gt;IPacketFlow -->
<g id="edge6" class="edge">
<title>EthernetPhyLayer&#45;&gt;IPacketFlow</title>
<path fill="none" stroke="black" d="M380.99,-54.98C432.29,-45.27 515.83,-29.46 568.25,-19.54"/>
<polygon fill="black" stroke="black" points="569.13,-22.93 578.31,-17.63 567.83,-16.06 569.13,-22.93"/>
</g>
</g>
</svg>
