<?xml version="1.0" encoding="UTF-8" standalone="no"?>
<!DOCTYPE svg PUBLIC "-//W3C//DTD SVG 1.1//EN"
 "http://www.w3.org/Graphics/SVG/1.1/DTD/svg11.dtd">
<!-- Generated by graphviz version 2.43.0 (0)
 -->
<!-- Title: opp Pages: 1 -->
<svg width="266pt" height="82pt"
 viewBox="0.00 0.00 266.00 82.00" xmlns="http://www.w3.org/2000/svg" xmlns:xlink="http://www.w3.org/1999/xlink">
<g id="graph0" class="graph" transform="scale(1 1) rotate(0) translate(4 78)">
<title>opp</title>
<polygon fill="transparent" stroke="transparent" points="-4,4 -4,-78 262,-78 262,4 -4,4"/>
<!-- EthernetQosRedQueue -->
<g id="node1" class="node">
<title>EthernetQosRedQueue</title>
<g id="a_node1"><a xlink:href="inet.linklayer.ethernet.common.EthernetQosRedQueue.html" xlink:title="Compound Module EthernetQosRedQueue" target="_parent">
<polygon fill="#fff700" stroke="black" points="211,-19 84,-19 84,0 211,0 211,-19"/>
<text text-anchor="middle" x="147.5" y="-7" font-family="Helvetica,sans-Serif" font-size="10.00">EthernetQosRedQueue</text>
</a>
</g>
</g>
<!-- CompoundPacketQueueBase -->
<g id="node2" class="node">
<title>CompoundPacketQueueBase</title>
<g id="a_node2"><a xlink:href="inet.queueing.queue.CompoundPacketQueueBase.html" xlink:title="Compound Module CompoundPacketQueueBase" target="_parent">
<polygon fill="#fffcaf" stroke="black" points="157,-74 0,-74 0,-55 157,-55 157,-74"/>
<text text-anchor="middle" x="78.5" y="-62" font-family="Helvetica,sans-Serif" font-size="10.00">CompoundPacketQueueBase</text>
</a>
</g>
</g>
<!-- CompoundPacketQueueBase&#45;&gt;EthernetQosRedQueue -->
<g id="edge1" class="edge">
<title>CompoundPacketQueueBase&#45;&gt;EthernetQosRedQueue</title>
<path fill="none" stroke="black" d="M89.59,-54.98C102.39,-45.15 123.33,-29.07 136.21,-19.17"/>
</g>
<!-- IPacketQueue -->
<g id="node3" class="node">
<title>IPacketQueue</title>
<g id="a_node3"><a xlink:href="inet.queueing.contract.IPacketQueue.html" xlink:title="Module Interface IPacketQueue" target="_parent">
<polygon fill="#fffcaf" stroke="black" stroke-dasharray="5,2" points="258,-74 175,-74 175,-55 258,-55 258,-74"/>
<text text-anchor="middle" x="216.5" y="-62" font-family="Helvetica,sans-Serif" font-size="10.00">IPacketQueue</text>
</a>
</g>
</g>
<!-- IPacketQueue&#45;&gt;EthernetQosRedQueue -->
<g id="edge2" class="edge">
<title>IPacketQueue&#45;&gt;EthernetQosRedQueue</title>
<path fill="none" stroke="black" stroke-dasharray="5,2" d="M205.41,-54.98C192.61,-45.15 171.67,-29.07 158.79,-19.17"/>
</g>
</g>
</svg>
