<?xml version="1.0" encoding="UTF-8" standalone="no"?>
<!DOCTYPE svg PUBLIC "-//W3C//DTD SVG 1.1//EN"
 "http://www.w3.org/Graphics/SVG/1.1/DTD/svg11.dtd">
<!-- Generated by graphviz version 2.43.0 (0)
 -->
<!-- Title: opp Pages: 1 -->
<svg width="676pt" height="82pt"
 viewBox="0.00 0.00 675.50 82.00" xmlns="http://www.w3.org/2000/svg" xmlns:xlink="http://www.w3.org/1999/xlink">
<g id="graph0" class="graph" transform="scale(1 1) rotate(0) translate(4 78)">
<title>opp</title>
<polygon fill="transparent" stroke="transparent" points="-4,4 -4,-78 671.5,-78 671.5,4 -4,4"/>
<!-- PeekingUnderTheHoodShowcase -->
<g id="node1" class="node">
<title>PeekingUnderTheHoodShowcase</title>
<g id="a_node1"><a xlink:href="inet.showcases.tsn.streamfiltering.underthehood.PeekingUnderTheHoodShowcase.html" xlink:title="Network PeekingUnderTheHoodShowcase" target="_parent">
<polygon fill="#9090ff" stroke="black" points="434,-74 257,-74 257,-55 434,-55 434,-74"/>
<text text-anchor="middle" x="345.5" y="-62" font-family="Helvetica,sans-Serif" font-size="10.00">PeekingUnderTheHoodShowcase</text>
</a>
</g>
</g>
<!-- ActivePacketSource -->
<g id="node2" class="node">
<title>ActivePacketSource</title>
<g id="a_node2"><a xlink:href="inet.queueing.source.ActivePacketSource.html" xlink:title="Simple Module ActivePacketSource" target="_parent">
<polygon fill="#fffcaf" stroke="black" points="113,-19 0,-19 0,0 113,0 113,-19"/>
<text text-anchor="middle" x="56.5" y="-7" font-family="Helvetica,sans-Serif" font-size="10.00">ActivePacketSource</text>
</a>
</g>
</g>
<!-- PeekingUnderTheHoodShowcase&#45;&gt;ActivePacketSource -->
<g id="edge1" class="edge">
<title>PeekingUnderTheHoodShowcase&#45;&gt;ActivePacketSource</title>
<path fill="none" stroke="black" d="M299.07,-54.98C248.55,-45.72 167.76,-30.9 113.45,-20.94"/>
<polygon fill="black" stroke="black" points="113.76,-17.44 103.3,-19.08 112.5,-24.33 113.76,-17.44"/>
</g>
<!-- IdealChannel -->
<g id="node3" class="node">
<title>IdealChannel</title>
<g id="a_node3"><a xlink:href="ned.IdealChannel.html" xlink:title="Channel IdealChannel" target="_parent">
<polygon fill="#d0ffd0" stroke="black" points="211.5,-19 131.5,-19 131.5,0 211.5,0 211.5,-19"/>
<text text-anchor="middle" x="171.5" y="-7" font-family="Helvetica,sans-Serif" font-size="10.00">IdealChannel</text>
</a>
</g>
</g>
<!-- PeekingUnderTheHoodShowcase&#45;&gt;IdealChannel -->
<g id="edge2" class="edge">
<title>PeekingUnderTheHoodShowcase&#45;&gt;IdealChannel</title>
<path fill="none" stroke="black" d="M317.54,-54.98C288.2,-46.05 241.9,-31.94 209.31,-22.02"/>
<polygon fill="black" stroke="black" points="210.26,-18.65 199.68,-19.08 208.22,-25.34 210.26,-18.65"/>
</g>
<!-- PassivePacketSink -->
<g id="node4" class="node">
<title>PassivePacketSink</title>
<g id="a_node4"><a xlink:href="inet.queueing.sink.PassivePacketSink.html" xlink:title="Simple Module PassivePacketSink" target="_parent">
<polygon fill="#fffcaf" stroke="black" points="337,-19 230,-19 230,0 337,0 337,-19"/>
<text text-anchor="middle" x="283.5" y="-7" font-family="Helvetica,sans-Serif" font-size="10.00">PassivePacketSink</text>
</a>
</g>
</g>
<!-- PeekingUnderTheHoodShowcase&#45;&gt;PassivePacketSink -->
<g id="edge3" class="edge">
<title>PeekingUnderTheHoodShowcase&#45;&gt;PassivePacketSink</title>
<path fill="none" stroke="black" d="M335.54,-54.98C326.37,-47.15 312.56,-35.34 301.47,-25.86"/>
<polygon fill="black" stroke="black" points="303.52,-23.01 293.64,-19.17 298.97,-28.33 303.52,-23.01"/>
</g>
<!-- PacketMultiplexer -->
<g id="node5" class="node">
<title>PacketMultiplexer</title>
<g id="a_node5"><a xlink:href="inet.queueing.common.PacketMultiplexer.html" xlink:title="Simple Module PacketMultiplexer" target="_parent">
<polygon fill="#fffcaf" stroke="black" points="459.5,-19 355.5,-19 355.5,0 459.5,0 459.5,-19"/>
<text text-anchor="middle" x="407.5" y="-7" font-family="Helvetica,sans-Serif" font-size="10.00">PacketMultiplexer</text>
</a>
</g>
</g>
<!-- PeekingUnderTheHoodShowcase&#45;&gt;PacketMultiplexer -->
<g id="edge4" class="edge">
<title>PeekingUnderTheHoodShowcase&#45;&gt;PacketMultiplexer</title>
<path fill="none" stroke="black" d="M355.46,-54.98C364.63,-47.15 378.44,-35.34 389.53,-25.86"/>
<polygon fill="black" stroke="black" points="392.03,-28.33 397.36,-19.17 387.48,-23.01 392.03,-28.33"/>
</g>
<!-- StreamIdentifier -->
<g id="node6" class="node">
<title>StreamIdentifier</title>
<g id="a_node6"><a xlink:href="inet.protocolelement.redundancy.StreamIdentifier.html" xlink:title="Simple Module StreamIdentifier" target="_parent">
<polygon fill="#fffcaf" stroke="black" points="573.5,-19 477.5,-19 477.5,0 573.5,0 573.5,-19"/>
<text text-anchor="middle" x="525.5" y="-7" font-family="Helvetica,sans-Serif" font-size="10.00">StreamIdentifier</text>
</a>
</g>
</g>
<!-- PeekingUnderTheHoodShowcase&#45;&gt;StreamIdentifier -->
<g id="edge5" class="edge">
<title>PeekingUnderTheHoodShowcase&#45;&gt;StreamIdentifier</title>
<path fill="none" stroke="black" d="M374.42,-54.98C404.77,-46.05 452.67,-31.94 486.38,-22.02"/>
<polygon fill="black" stroke="black" points="487.75,-25.26 496.35,-19.08 485.77,-18.55 487.75,-25.26"/>
</g>
<!-- IPacketFilter -->
<g id="node7" class="node">
<title>IPacketFilter</title>
<g id="a_node7"><a xlink:href="inet.queueing.contract.IPacketFilter.html" xlink:title="Module Interface IPacketFilter" target="_parent">
<polygon fill="#fffcaf" stroke="black" stroke-dasharray="5,2" points="667.5,-19 591.5,-19 591.5,0 667.5,0 667.5,-19"/>
<text text-anchor="middle" x="629.5" y="-7" font-family="Helvetica,sans-Serif" font-size="10.00">IPacketFilter</text>
</a>
</g>
</g>
<!-- PeekingUnderTheHoodShowcase&#45;&gt;IPacketFilter -->
<g id="edge6" class="edge">
<title>PeekingUnderTheHoodShowcase&#45;&gt;IPacketFilter</title>
<path fill="none" stroke="black" d="M391.13,-54.98C443.28,-45.25 528.25,-29.4 581.4,-19.48"/>
<polygon fill="black" stroke="black" points="582.08,-22.91 591.27,-17.63 580.8,-16.03 582.08,-22.91"/>
</g>
</g>
</svg>
