<?xml version="1.0" encoding="UTF-8" standalone="no"?>
<!DOCTYPE svg PUBLIC "-//W3C//DTD SVG 1.1//EN"
 "http://www.w3.org/Graphics/SVG/1.1/DTD/svg11.dtd">
<!-- Generated by graphviz version 2.43.0 (0)
 -->
<!-- Title: opp Pages: 1 -->
<svg width="446pt" height="82pt"
 viewBox="0.00 0.00 446.00 82.00" xmlns="http://www.w3.org/2000/svg" xmlns:xlink="http://www.w3.org/1999/xlink">
<g id="graph0" class="graph" transform="scale(1 1) rotate(0) translate(4 78)">
<title>opp</title>
<polygon fill="transparent" stroke="transparent" points="-4,4 -4,-78 442,-78 442,4 -4,4"/>
<!-- IActivePacketSink -->
<g id="node1" class="node">
<title>IActivePacketSink</title>
<g id="a_node1"><a xlink:href="inet.queueing.contract.IActivePacketSink.html" xlink:title="Module Interface IActivePacketSink" target="_parent">
<polygon fill="#fff700" stroke="black" stroke-dasharray="5,2" points="289.5,-74 185.5,-74 185.5,-55 289.5,-55 289.5,-74"/>
<text text-anchor="middle" x="237.5" y="-62" font-family="Helvetica,sans-Serif" font-size="10.00">IActivePacketSink</text>
</a>
</g>
</g>
<!-- ActivePacketSink -->
<g id="node2" class="node">
<title>ActivePacketSink</title>
<g id="a_node2"><a xlink:href="inet.queueing.sink.ActivePacketSink.html" xlink:title="Simple Module ActivePacketSink" target="_parent">
<polygon fill="#fffcaf" stroke="black" points="101,-19 0,-19 0,0 101,0 101,-19"/>
<text text-anchor="middle" x="50.5" y="-7" font-family="Helvetica,sans-Serif" font-size="10.00">ActivePacketSink</text>
</a>
</g>
</g>
<!-- IActivePacketSink&#45;&gt;ActivePacketSink -->
<g id="edge1" class="edge">
<title>IActivePacketSink&#45;&gt;ActivePacketSink</title>
<path fill="none" stroke="black" stroke-dasharray="5,2" d="M207.46,-54.98C172.66,-45.12 115.67,-28.97 80.78,-19.08"/>
</g>
<!-- PacketDemultiplexer -->
<g id="node3" class="node">
<title>PacketDemultiplexer</title>
<g id="a_node3"><a xlink:href="inet.queueing.common.PacketDemultiplexer.html" xlink:title="Simple Module PacketDemultiplexer" target="_parent">
<polygon fill="#fffcaf" stroke="black" points="238,-19 119,-19 119,0 238,0 238,-19"/>
<text text-anchor="middle" x="178.5" y="-7" font-family="Helvetica,sans-Serif" font-size="10.00">PacketDemultiplexer</text>
</a>
</g>
</g>
<!-- IActivePacketSink&#45;&gt;PacketDemultiplexer -->
<g id="edge2" class="edge">
<title>IActivePacketSink&#45;&gt;PacketDemultiplexer</title>
<path fill="none" stroke="black" stroke-dasharray="5,2" d="M228.02,-54.98C217.08,-45.15 199.17,-29.07 188.15,-19.17"/>
</g>
<!-- IPacketPuller -->
<g id="node4" class="node">
<title>IPacketPuller</title>
<g id="a_node4"><a xlink:href="inet.queueing.contract.IPacketPuller.html" xlink:title="Module Interface IPacketPuller" target="_parent">
<polygon fill="#fffcaf" stroke="black" stroke-dasharray="5,2" points="336.5,-19 256.5,-19 256.5,0 336.5,0 336.5,-19"/>
<text text-anchor="middle" x="296.5" y="-7" font-family="Helvetica,sans-Serif" font-size="10.00">IPacketPuller</text>
</a>
</g>
</g>
<!-- IActivePacketSink&#45;&gt;IPacketPuller -->
<g id="edge3" class="edge">
<title>IActivePacketSink&#45;&gt;IPacketPuller</title>
<path fill="none" stroke="black" d="M246.98,-54.98C257.92,-45.15 275.83,-29.07 286.85,-19.17"/>
</g>
<!-- IPacketServer -->
<g id="node5" class="node">
<title>IPacketServer</title>
<g id="a_node5"><a xlink:href="inet.queueing.contract.IPacketServer.html" xlink:title="Module Interface IPacketServer" target="_parent">
<polygon fill="#fffcaf" stroke="black" stroke-dasharray="5,2" points="438,-19 355,-19 355,0 438,0 438,-19"/>
<text text-anchor="middle" x="396.5" y="-7" font-family="Helvetica,sans-Serif" font-size="10.00">IPacketServer</text>
</a>
</g>
</g>
<!-- IActivePacketSink&#45;&gt;IPacketServer -->
<g id="edge4" class="edge">
<title>IActivePacketSink&#45;&gt;IPacketServer</title>
<path fill="none" stroke="black" d="M263.05,-54.98C292.63,-45.12 341.09,-28.97 370.75,-19.08"/>
</g>
</g>
</svg>
