<?xml version="1.0" encoding="UTF-8" standalone="no"?>
<!DOCTYPE svg PUBLIC "-//W3C//DTD SVG 1.1//EN"
 "http://www.w3.org/Graphics/SVG/1.1/DTD/svg11.dtd">
<!-- Generated by graphviz version 2.43.0 (0)
 -->
<!-- Title: opp Pages: 1 -->
<svg width="198pt" height="137pt"
 viewBox="0.00 0.00 197.50 137.00" xmlns="http://www.w3.org/2000/svg" xmlns:xlink="http://www.w3.org/1999/xlink">
<g id="graph0" class="graph" transform="scale(1 1) rotate(0) translate(4 133)">
<title>opp</title>
<polygon fill="transparent" stroke="transparent" points="-4,4 -4,-133 193.5,-133 193.5,4 -4,4"/>
<!-- CreditBasedGate -->
<g id="node1" class="node">
<title>CreditBasedGate</title>
<g id="a_node1"><a xlink:href="inet.queueing.gate.CreditBasedGate.html" xlink:title="Simple Module CreditBasedGate" target="_parent">
<polygon fill="#fff700" stroke="black" points="149.5,-74 50.5,-74 50.5,-55 149.5,-55 149.5,-74"/>
<text text-anchor="middle" x="100" y="-62" font-family="Helvetica,sans-Serif" font-size="10.00">CreditBasedGate</text>
</a>
</g>
</g>
<!-- Ieee8021qCreditBasedGate -->
<g id="node4" class="node">
<title>Ieee8021qCreditBasedGate</title>
<g id="a_node4"><a xlink:href="inet.linklayer.ieee8021q.Ieee8021qCreditBasedGate.html" xlink:title="Simple Module Ieee8021qCreditBasedGate" target="_parent">
<polygon fill="#fffcaf" stroke="black" points="175,-19 25,-19 25,0 175,0 175,-19"/>
<text text-anchor="middle" x="100" y="-7" font-family="Helvetica,sans-Serif" font-size="10.00">Ieee8021qCreditBasedGate</text>
</a>
</g>
</g>
<!-- CreditBasedGate&#45;&gt;Ieee8021qCreditBasedGate -->
<g id="edge3" class="edge">
<title>CreditBasedGate&#45;&gt;Ieee8021qCreditBasedGate</title>
<path fill="none" stroke="black" d="M100,-54.75C100,-44.87 100,-28.9 100,-19.09"/>
</g>
<!-- PacketGateBase -->
<g id="node2" class="node">
<title>PacketGateBase</title>
<g id="a_node2"><a xlink:href="inet.queueing.base.PacketGateBase.html" xlink:title="Simple Module PacketGateBase" target="_parent">
<polygon fill="#fffcaf" stroke="black" points="96,-129 0,-129 0,-110 96,-110 96,-129"/>
<text text-anchor="middle" x="48" y="-117" font-family="Helvetica,sans-Serif" font-size="10.00">PacketGateBase</text>
</a>
</g>
</g>
<!-- PacketGateBase&#45;&gt;CreditBasedGate -->
<g id="edge1" class="edge">
<title>PacketGateBase&#45;&gt;CreditBasedGate</title>
<path fill="none" stroke="black" d="M56.59,-109.75C66.28,-99.87 81.95,-83.9 91.57,-74.09"/>
</g>
<!-- IPacketGate -->
<g id="node3" class="node">
<title>IPacketGate</title>
<g id="a_node3"><a xlink:href="inet.queueing.contract.IPacketGate.html" xlink:title="Module Interface IPacketGate" target="_parent">
<polygon fill="#fffcaf" stroke="black" stroke-dasharray="5,2" points="189.5,-129 114.5,-129 114.5,-110 189.5,-110 189.5,-129"/>
<text text-anchor="middle" x="152" y="-117" font-family="Helvetica,sans-Serif" font-size="10.00">IPacketGate</text>
</a>
</g>
</g>
<!-- IPacketGate&#45;&gt;CreditBasedGate -->
<g id="edge2" class="edge">
<title>IPacketGate&#45;&gt;CreditBasedGate</title>
<path fill="none" stroke="black" stroke-dasharray="5,2" d="M143.41,-109.75C133.72,-99.87 118.05,-83.9 108.43,-74.09"/>
</g>
</g>
</svg>
