<?xml version="1.0" encoding="UTF-8" standalone="no"?>
<!DOCTYPE svg PUBLIC "-//W3C//DTD SVG 1.1//EN"
 "http://www.w3.org/Graphics/SVG/1.1/DTD/svg11.dtd">
<!-- Generated by graphviz version 2.43.0 (0)
 -->
<!-- Title: opp Pages: 1 -->
<svg width="536pt" height="137pt"
 viewBox="0.00 0.00 535.50 137.00" xmlns="http://www.w3.org/2000/svg" xmlns:xlink="http://www.w3.org/1999/xlink">
<g id="graph0" class="graph" transform="scale(1 1) rotate(0) translate(4 133)">
<title>opp</title>
<polygon fill="transparent" stroke="transparent" points="-4,4 -4,-133 531.5,-133 531.5,4 -4,4"/>
<!-- RequestConsumer -->
<g id="node1" class="node">
<title>RequestConsumer</title>
<g id="a_node1"><a xlink:href="inet.queueing.sink.RequestConsumer.html" xlink:title="Compound Module RequestConsumer" target="_parent">
<polygon fill="#fff700" stroke="black" points="321,-74 215,-74 215,-55 321,-55 321,-74"/>
<text text-anchor="middle" x="268" y="-62" font-family="Helvetica,sans-Serif" font-size="10.00">RequestConsumer</text>
</a>
</g>
</g>
<!-- IPassivePacketSink -->
<g id="node2" class="node">
<title>IPassivePacketSink</title>
<g id="a_node2"><a xlink:href="inet.queueing.contract.IPassivePacketSink.html" xlink:title="Module Interface IPassivePacketSink" target="_parent">
<polygon fill="#fffcaf" stroke="black" stroke-dasharray="5,2" points="110,-19 0,-19 0,0 110,0 110,-19"/>
<text text-anchor="middle" x="55" y="-7" font-family="Helvetica,sans-Serif" font-size="10.00">IPassivePacketSink</text>
</a>
</g>
</g>
<!-- RequestConsumer&#45;&gt;IPassivePacketSink -->
<g id="edge1" class="edge">
<title>RequestConsumer&#45;&gt;IPassivePacketSink</title>
<path fill="none" stroke="black" d="M233.78,-54.98C197.24,-45.89 139.22,-31.46 99.24,-21.51"/>
<polygon fill="black" stroke="black" points="100.04,-18.1 89.49,-19.08 98.35,-24.89 100.04,-18.1"/>
</g>
<!-- IdealChannel -->
<g id="node3" class="node">
<title>IdealChannel</title>
<g id="a_node3"><a xlink:href="ned.IdealChannel.html" xlink:title="Channel IdealChannel" target="_parent">
<polygon fill="#d0ffd0" stroke="black" points="208,-19 128,-19 128,0 208,0 208,-19"/>
<text text-anchor="middle" x="168" y="-7" font-family="Helvetica,sans-Serif" font-size="10.00">IdealChannel</text>
</a>
</g>
</g>
<!-- RequestConsumer&#45;&gt;IdealChannel -->
<g id="edge2" class="edge">
<title>RequestConsumer&#45;&gt;IdealChannel</title>
<path fill="none" stroke="black" d="M251.93,-54.98C236.14,-46.61 211.78,-33.7 193.37,-23.95"/>
<polygon fill="black" stroke="black" points="194.83,-20.76 184.36,-19.17 191.56,-26.95 194.83,-20.76"/>
</g>
<!-- IPacketServer -->
<g id="node4" class="node">
<title>IPacketServer</title>
<g id="a_node4"><a xlink:href="inet.queueing.contract.IPacketServer.html" xlink:title="Module Interface IPacketServer" target="_parent">
<polygon fill="#fffcaf" stroke="black" stroke-dasharray="5,2" points="309.5,-19 226.5,-19 226.5,0 309.5,0 309.5,-19"/>
<text text-anchor="middle" x="268" y="-7" font-family="Helvetica,sans-Serif" font-size="10.00">IPacketServer</text>
</a>
</g>
</g>
<!-- RequestConsumer&#45;&gt;IPacketServer -->
<g id="edge3" class="edge">
<title>RequestConsumer&#45;&gt;IPacketServer</title>
<path fill="none" stroke="black" d="M268,-54.75C268,-47.8 268,-37.85 268,-29.13"/>
<polygon fill="black" stroke="black" points="271.5,-29.09 268,-19.09 264.5,-29.09 271.5,-29.09"/>
</g>
<!-- IPacketClassifier -->
<g id="node5" class="node">
<title>IPacketClassifier</title>
<g id="a_node5"><a xlink:href="inet.queueing.contract.IPacketClassifier.html" xlink:title="Module Interface IPacketClassifier" target="_parent">
<polygon fill="#fffcaf" stroke="black" stroke-dasharray="5,2" points="426,-19 328,-19 328,0 426,0 426,-19"/>
<text text-anchor="middle" x="377" y="-7" font-family="Helvetica,sans-Serif" font-size="10.00">IPacketClassifier</text>
</a>
</g>
</g>
<!-- RequestConsumer&#45;&gt;IPacketClassifier -->
<g id="edge4" class="edge">
<title>RequestConsumer&#45;&gt;IPacketClassifier</title>
<path fill="none" stroke="black" d="M285.51,-54.98C302.97,-46.5 330.01,-33.35 350.17,-23.54"/>
<polygon fill="black" stroke="black" points="351.71,-26.69 359.17,-19.17 348.64,-20.4 351.71,-26.69"/>
</g>
<!-- IPacketQueue -->
<g id="node6" class="node">
<title>IPacketQueue</title>
<g id="a_node6"><a xlink:href="inet.queueing.contract.IPacketQueue.html" xlink:title="Module Interface IPacketQueue" target="_parent">
<polygon fill="#fffcaf" stroke="black" stroke-dasharray="5,2" points="527.5,-19 444.5,-19 444.5,0 527.5,0 527.5,-19"/>
<text text-anchor="middle" x="486" y="-7" font-family="Helvetica,sans-Serif" font-size="10.00">IPacketQueue</text>
</a>
</g>
</g>
<!-- RequestConsumer&#45;&gt;IPacketQueue -->
<g id="edge5" class="edge">
<title>RequestConsumer&#45;&gt;IPacketQueue</title>
<path fill="none" stroke="black" d="M303.03,-54.98C340.5,-45.87 400.05,-31.4 440.98,-21.45"/>
<polygon fill="black" stroke="black" points="441.81,-24.85 450.7,-19.08 440.16,-18.04 441.81,-24.85"/>
</g>
<!-- RequestResponseTutorialStep -->
<g id="node7" class="node">
<title>RequestResponseTutorialStep</title>
<g id="a_node7"><a xlink:href="inet.tutorials.queueing.RequestResponseTutorialStep.html" xlink:title="Network RequestResponseTutorialStep" target="_parent">
<polygon fill="#d0d0ff" stroke="black" points="348.5,-129 187.5,-129 187.5,-110 348.5,-110 348.5,-129"/>
<text text-anchor="middle" x="268" y="-117" font-family="Helvetica,sans-Serif" font-size="10.00">RequestResponseTutorialStep</text>
</a>
</g>
</g>
<!-- RequestResponseTutorialStep&#45;&gt;RequestConsumer -->
<g id="edge6" class="edge">
<title>RequestResponseTutorialStep&#45;&gt;RequestConsumer</title>
<path fill="none" stroke="black" d="M268,-109.75C268,-102.8 268,-92.85 268,-84.13"/>
<polygon fill="black" stroke="black" points="271.5,-84.09 268,-74.09 264.5,-84.09 271.5,-84.09"/>
</g>
</g>
</svg>
