<?xml version="1.0" encoding="UTF-8" standalone="no"?>
<!DOCTYPE svg PUBLIC "-//W3C//DTD SVG 1.1//EN"
 "http://www.w3.org/Graphics/SVG/1.1/DTD/svg11.dtd">
<!-- Generated by graphviz version 2.43.0 (0)
 -->
<!-- Title: opp Pages: 1 -->
<svg width="827pt" height="82pt"
 viewBox="0.00 0.00 827.00 82.00" xmlns="http://www.w3.org/2000/svg" xmlns:xlink="http://www.w3.org/1999/xlink">
<g id="graph0" class="graph" transform="scale(1 1) rotate(0) translate(4 78)">
<title>opp</title>
<polygon fill="transparent" stroke="transparent" points="-4,4 -4,-78 823,-78 823,4 -4,4"/>
<!-- PcapRecordingShowcase -->
<g id="node1" class="node">
<title>PcapRecordingShowcase</title>
<g id="a_node1"><a xlink:href="inet.showcases.general.pcaprecording.PcapRecordingShowcase.html" xlink:title="Network PcapRecordingShowcase" target="_parent">
<polygon fill="#9090ff" stroke="black" points="470,-74 333,-74 333,-55 470,-55 470,-74"/>
<text text-anchor="middle" x="401.5" y="-62" font-family="Helvetica,sans-Serif" font-size="10.00">PcapRecordingShowcase</text>
</a>
</g>
</g>
<!-- StandardHost -->
<g id="node2" class="node">
<title>StandardHost</title>
<g id="a_node2"><a xlink:href="inet.node.inet.StandardHost.html" xlink:title="Compound Module StandardHost" target="_parent">
<polygon fill="#fffcaf" stroke="black" points="83,-19 0,-19 0,0 83,0 83,-19"/>
<text text-anchor="middle" x="41.5" y="-7" font-family="Helvetica,sans-Serif" font-size="10.00">StandardHost</text>
</a>
</g>
</g>
<!-- PcapRecordingShowcase&#45;&gt;StandardHost -->
<g id="edge1" class="edge">
<title>PcapRecordingShowcase&#45;&gt;StandardHost</title>
<path fill="none" stroke="black" d="M339.59,-54.99C279.36,-46.63 184.98,-33.27 93.25,-19.09"/>
<polygon fill="black" stroke="black" points="93.65,-15.61 83.24,-17.53 92.58,-22.52 93.65,-15.61"/>
</g>
<!-- IntegratedMultiVisualizer -->
<g id="node3" class="node">
<title>IntegratedMultiVisualizer</title>
<g id="a_node3"><a xlink:href="inet.visualizer.common.IntegratedMultiVisualizer.html" xlink:title="Compound Module IntegratedMultiVisualizer" target="_parent">
<polygon fill="#fffcaf" stroke="black" points="241.5,-19 101.5,-19 101.5,0 241.5,0 241.5,-19"/>
<text text-anchor="middle" x="171.5" y="-7" font-family="Helvetica,sans-Serif" font-size="10.00">IntegratedMultiVisualizer</text>
</a>
</g>
</g>
<!-- PcapRecordingShowcase&#45;&gt;IntegratedMultiVisualizer -->
<g id="edge2" class="edge">
<title>PcapRecordingShowcase&#45;&gt;IntegratedMultiVisualizer</title>
<path fill="none" stroke="black" d="M364.55,-54.98C324.93,-45.86 261.91,-31.33 218.73,-21.38"/>
<polygon fill="black" stroke="black" points="219.27,-17.92 208.74,-19.08 217.7,-24.74 219.27,-17.92"/>
</g>
<!-- Router -->
<g id="node4" class="node">
<title>Router</title>
<g id="a_node4"><a xlink:href="inet.node.inet.Router.html" xlink:title="Compound Module Router" target="_parent">
<polygon fill="#fffcaf" stroke="black" points="313.5,-19 259.5,-19 259.5,0 313.5,0 313.5,-19"/>
<text text-anchor="middle" x="286.5" y="-7" font-family="Helvetica,sans-Serif" font-size="10.00">Router</text>
</a>
</g>
</g>
<!-- PcapRecordingShowcase&#45;&gt;Router -->
<g id="edge3" class="edge">
<title>PcapRecordingShowcase&#45;&gt;Router</title>
<path fill="none" stroke="black" d="M383.02,-54.98C364.52,-46.46 335.82,-33.23 314.52,-23.41"/>
<polygon fill="black" stroke="black" points="315.86,-20.18 305.31,-19.17 312.93,-26.53 315.86,-20.18"/>
</g>
<!-- Ipv4NetworkConfigurator -->
<g id="node5" class="node">
<title>Ipv4NetworkConfigurator</title>
<g id="a_node5"><a xlink:href="inet.networklayer.configurator.ipv4.Ipv4NetworkConfigurator.html" xlink:title="Simple Module Ipv4NetworkConfigurator" target="_parent">
<polygon fill="#fffcaf" stroke="black" points="471.5,-19 331.5,-19 331.5,0 471.5,0 471.5,-19"/>
<text text-anchor="middle" x="401.5" y="-7" font-family="Helvetica,sans-Serif" font-size="10.00">Ipv4NetworkConfigurator</text>
</a>
</g>
</g>
<!-- PcapRecordingShowcase&#45;&gt;Ipv4NetworkConfigurator -->
<g id="edge4" class="edge">
<title>PcapRecordingShowcase&#45;&gt;Ipv4NetworkConfigurator</title>
<path fill="none" stroke="black" d="M401.5,-54.75C401.5,-47.8 401.5,-37.85 401.5,-29.13"/>
<polygon fill="black" stroke="black" points="405,-29.09 401.5,-19.09 398,-29.09 405,-29.09"/>
</g>
<!-- AdhocHost -->
<g id="node6" class="node">
<title>AdhocHost</title>
<g id="a_node6"><a xlink:href="inet.node.inet.AdhocHost.html" xlink:title="Compound Module AdhocHost" target="_parent">
<polygon fill="#fffcaf" stroke="black" points="559,-19 490,-19 490,0 559,0 559,-19"/>
<text text-anchor="middle" x="524.5" y="-7" font-family="Helvetica,sans-Serif" font-size="10.00">AdhocHost</text>
</a>
</g>
</g>
<!-- PcapRecordingShowcase&#45;&gt;AdhocHost -->
<g id="edge5" class="edge">
<title>PcapRecordingShowcase&#45;&gt;AdhocHost</title>
<path fill="none" stroke="black" d="M421.26,-54.98C441.23,-46.38 472.3,-32.99 495.15,-23.15"/>
<polygon fill="black" stroke="black" points="496.58,-26.34 504.38,-19.17 493.81,-19.91 496.58,-26.34"/>
</g>
<!-- Ieee80211ScalarRadioMedium -->
<g id="node7" class="node">
<title>Ieee80211ScalarRadioMedium</title>
<g id="a_node7"><a xlink:href="inet.physicallayer.wireless.ieee80211.packetlevel.Ieee80211ScalarRadioMedium.html" xlink:title="Compound Module Ieee80211ScalarRadioMedium" target="_parent">
<polygon fill="#fffcaf" stroke="black" points="742,-19 577,-19 577,0 742,0 742,-19"/>
<text text-anchor="middle" x="659.5" y="-7" font-family="Helvetica,sans-Serif" font-size="10.00">Ieee80211ScalarRadioMedium</text>
</a>
</g>
</g>
<!-- PcapRecordingShowcase&#45;&gt;Ieee80211ScalarRadioMedium -->
<g id="edge6" class="edge">
<title>PcapRecordingShowcase&#45;&gt;Ieee80211ScalarRadioMedium</title>
<path fill="none" stroke="black" d="M442.95,-54.98C487.77,-45.78 559.27,-31.09 607.75,-21.13"/>
<polygon fill="black" stroke="black" points="608.63,-24.52 617.72,-19.08 607.22,-17.67 608.63,-24.52"/>
</g>
<!-- Eth100M -->
<g id="node8" class="node">
<title>Eth100M</title>
<g id="a_node8"><a xlink:href="inet.node.ethernet.Eth100M.html" xlink:title="Channel Eth100M" target="_parent">
<polygon fill="#d0ffd0" stroke="black" points="819,-19 760,-19 760,0 819,0 819,-19"/>
<text text-anchor="middle" x="789.5" y="-7" font-family="Helvetica,sans-Serif" font-size="10.00">Eth100M</text>
</a>
</g>
</g>
<!-- PcapRecordingShowcase&#45;&gt;Eth100M -->
<g id="edge7" class="edge">
<title>PcapRecordingShowcase&#45;&gt;Eth100M</title>
<path fill="none" stroke="black" d="M470.19,-56.69C538.76,-49.45 647.31,-36.82 749.79,-19.17"/>
<polygon fill="black" stroke="black" points="750.43,-22.61 759.68,-17.45 749.23,-15.71 750.43,-22.61"/>
</g>
</g>
</svg>
