<?xml version="1.0" encoding="UTF-8" standalone="no"?>
<!DOCTYPE svg PUBLIC "-//W3C//DTD SVG 1.1//EN"
 "http://www.w3.org/Graphics/SVG/1.1/DTD/svg11.dtd">
<!-- Generated by graphviz version 2.43.0 (0)
 -->
<!-- Title: opp Pages: 1 -->
<svg width="258pt" height="137pt"
 viewBox="0.00 0.00 257.50 137.00" xmlns="http://www.w3.org/2000/svg" xmlns:xlink="http://www.w3.org/1999/xlink">
<g id="graph0" class="graph" transform="scale(1 1) rotate(0) translate(4 133)">
<title>opp</title>
<polygon fill="transparent" stroke="transparent" points="-4,4 -4,-133 253.5,-133 253.5,4 -4,4"/>
<!-- PacketDuplicatorBase -->
<g id="node1" class="node">
<title>PacketDuplicatorBase</title>
<g id="a_node1"><a xlink:href="inet.queueing.base.PacketDuplicatorBase.html" xlink:title="Simple Module PacketDuplicatorBase" target="_parent">
<polygon fill="#fff700" stroke="black" points="194.5,-74 71.5,-74 71.5,-55 194.5,-55 194.5,-74"/>
<text text-anchor="middle" x="133" y="-62" font-family="Helvetica,sans-Serif" font-size="10.00">PacketDuplicatorBase</text>
</a>
</g>
</g>
<!-- OrdinalBasedDuplicator -->
<g id="node3" class="node">
<title>OrdinalBasedDuplicator</title>
<g id="a_node3"><a xlink:href="inet.queueing.common.OrdinalBasedDuplicator.html" xlink:title="Simple Module OrdinalBasedDuplicator" target="_parent">
<polygon fill="#fffcaf" stroke="black" points="132,-19 0,-19 0,0 132,0 132,-19"/>
<text text-anchor="middle" x="66" y="-7" font-family="Helvetica,sans-Serif" font-size="10.00">OrdinalBasedDuplicator</text>
</a>
</g>
</g>
<!-- PacketDuplicatorBase&#45;&gt;OrdinalBasedDuplicator -->
<g id="edge2" class="edge">
<title>PacketDuplicatorBase&#45;&gt;OrdinalBasedDuplicator</title>
<path fill="none" stroke="black" d="M122.24,-54.98C109.81,-45.15 89.47,-29.07 76.96,-19.17"/>
</g>
<!-- PacketDuplicator -->
<g id="node4" class="node">
<title>PacketDuplicator</title>
<g id="a_node4"><a xlink:href="inet.queueing.common.PacketDuplicator.html" xlink:title="Simple Module PacketDuplicator" target="_parent">
<polygon fill="#fffcaf" stroke="black" points="249.5,-19 150.5,-19 150.5,0 249.5,0 249.5,-19"/>
<text text-anchor="middle" x="200" y="-7" font-family="Helvetica,sans-Serif" font-size="10.00">PacketDuplicator</text>
</a>
</g>
</g>
<!-- PacketDuplicatorBase&#45;&gt;PacketDuplicator -->
<g id="edge3" class="edge">
<title>PacketDuplicatorBase&#45;&gt;PacketDuplicator</title>
<path fill="none" stroke="black" d="M143.76,-54.98C156.19,-45.15 176.53,-29.07 189.04,-19.17"/>
</g>
<!-- PacketProcessorBase -->
<g id="node2" class="node">
<title>PacketProcessorBase</title>
<g id="a_node2"><a xlink:href="inet.queueing.base.PacketProcessorBase.html" xlink:title="Simple Module PacketProcessorBase" target="_parent">
<polygon fill="#fffcaf" stroke="black" points="193,-129 73,-129 73,-110 193,-110 193,-129"/>
<text text-anchor="middle" x="133" y="-117" font-family="Helvetica,sans-Serif" font-size="10.00">PacketProcessorBase</text>
</a>
</g>
</g>
<!-- PacketProcessorBase&#45;&gt;PacketDuplicatorBase -->
<g id="edge1" class="edge">
<title>PacketProcessorBase&#45;&gt;PacketDuplicatorBase</title>
<path fill="none" stroke="black" d="M133,-109.75C133,-99.87 133,-83.9 133,-74.09"/>
</g>
</g>
</svg>
