<?xml version="1.0" encoding="UTF-8" standalone="no"?>
<!DOCTYPE svg PUBLIC "-//W3C//DTD SVG 1.1//EN"
 "http://www.w3.org/Graphics/SVG/1.1/DTD/svg11.dtd">
<!-- Generated by graphviz version 2.43.0 (0)
 -->
<!-- Title: opp Pages: 1 -->
<svg width="324pt" height="82pt"
 viewBox="0.00 0.00 323.50 82.00" xmlns="http://www.w3.org/2000/svg" xmlns:xlink="http://www.w3.org/1999/xlink">
<g id="graph0" class="graph" transform="scale(1 1) rotate(0) translate(4 78)">
<title>opp</title>
<polygon fill="transparent" stroke="transparent" points="-4,4 -4,-78 319.5,-78 319.5,4 -4,4"/>
<!-- v3_3_areas -->
<g id="node1" class="node">
<title>v3_3_areas</title>
<g id="a_node1"><a xlink:href="inet.examples.ospfv3.v3_3_areas.v3_3_areas.html" xlink:title="Network v3_3_areas" target="_parent">
<polygon fill="#9090ff" stroke="black" points="207.5,-74 135.5,-74 135.5,-55 207.5,-55 207.5,-74"/>
<text text-anchor="middle" x="171.5" y="-62" font-family="Helvetica,sans-Serif" font-size="10.00">v3_3_areas</text>
</a>
</g>
</g>
<!-- Ospfv3Router -->
<g id="node2" class="node">
<title>Ospfv3Router</title>
<g id="a_node2"><a xlink:href="inet.node.ospfv3.Ospfv3Router.html" xlink:title="Compound Module Ospfv3Router" target="_parent">
<polygon fill="#fffcaf" stroke="black" points="83,-19 0,-19 0,0 83,0 83,-19"/>
<text text-anchor="middle" x="41.5" y="-7" font-family="Helvetica,sans-Serif" font-size="10.00">Ospfv3Router</text>
</a>
</g>
</g>
<!-- v3_3_areas&#45;&gt;Ospfv3Router -->
<g id="edge1" class="edge">
<title>v3_3_areas&#45;&gt;Ospfv3Router</title>
<path fill="none" stroke="black" d="M150.61,-54.98C129.42,-46.34 96.37,-32.87 72.2,-23.02"/>
<polygon fill="black" stroke="black" points="73.35,-19.7 62.77,-19.17 70.71,-26.19 73.35,-19.7"/>
</g>
<!-- Ipv4NetworkConfigurator -->
<g id="node3" class="node">
<title>Ipv4NetworkConfigurator</title>
<g id="a_node3"><a xlink:href="inet.networklayer.configurator.ipv4.Ipv4NetworkConfigurator.html" xlink:title="Simple Module Ipv4NetworkConfigurator" target="_parent">
<polygon fill="#fffcaf" stroke="black" points="241.5,-19 101.5,-19 101.5,0 241.5,0 241.5,-19"/>
<text text-anchor="middle" x="171.5" y="-7" font-family="Helvetica,sans-Serif" font-size="10.00">Ipv4NetworkConfigurator</text>
</a>
</g>
</g>
<!-- v3_3_areas&#45;&gt;Ipv4NetworkConfigurator -->
<g id="edge2" class="edge">
<title>v3_3_areas&#45;&gt;Ipv4NetworkConfigurator</title>
<path fill="none" stroke="black" d="M171.5,-54.75C171.5,-47.8 171.5,-37.85 171.5,-29.13"/>
<polygon fill="black" stroke="black" points="175,-29.09 171.5,-19.09 168,-29.09 175,-29.09"/>
</g>
<!-- Channel -->
<g id="node4" class="node">
<title>Channel</title>
<g id="a_node4"><a xlink:href="inet.examples.ospfv3.v3_3_areas.v3_3_areas.Channel.html" xlink:title="Channel Channel" target="_parent">
<polygon fill="#d0ffd0" stroke="black" points="315.5,-19 259.5,-19 259.5,0 315.5,0 315.5,-19"/>
<text text-anchor="middle" x="287.5" y="-7" font-family="Helvetica,sans-Serif" font-size="10.00">Channel</text>
</a>
</g>
</g>
<!-- v3_3_areas&#45;&gt;Channel -->
<g id="edge3" class="edge">
<title>v3_3_areas&#45;&gt;Channel</title>
<path fill="none" stroke="black" d="M190.14,-54.98C208.8,-46.46 237.75,-33.23 259.24,-23.41"/>
<polygon fill="black" stroke="black" points="260.88,-26.51 268.52,-19.17 257.97,-20.14 260.88,-26.51"/>
</g>
</g>
</svg>
