<?xml version="1.0" encoding="UTF-8" standalone="no"?>
<!DOCTYPE svg PUBLIC "-//W3C//DTD SVG 1.1//EN"
 "http://www.w3.org/Graphics/SVG/1.1/DTD/svg11.dtd">
<!-- Generated by graphviz version 2.43.0 (0)
 -->
<!-- Title: opp Pages: 1 -->
<svg width="272pt" height="82pt"
 viewBox="0.00 0.00 271.50 82.00" xmlns="http://www.w3.org/2000/svg" xmlns:xlink="http://www.w3.org/1999/xlink">
<g id="graph0" class="graph" transform="scale(1 1) rotate(0) translate(4 78)">
<title>opp</title>
<polygon fill="transparent" stroke="transparent" points="-4,4 -4,-78 267.5,-78 267.5,4 -4,4"/>
<!-- ClockDriftShowcase -->
<g id="node1" class="node">
<title>ClockDriftShowcase</title>
<g id="a_node1"><a xlink:href="inet.showcases.tsn.timesynchronization.clockdrift.ClockDriftShowcase.html" xlink:title="Network ClockDriftShowcase" target="_parent">
<polygon fill="#9090ff" stroke="black" points="185.5,-74 71.5,-74 71.5,-55 185.5,-55 185.5,-74"/>
<text text-anchor="middle" x="128.5" y="-62" font-family="Helvetica,sans-Serif" font-size="10.00">ClockDriftShowcase</text>
</a>
</g>
</g>
<!-- StandardHost -->
<g id="node2" class="node">
<title>StandardHost</title>
<g id="a_node2"><a xlink:href="inet.node.inet.StandardHost.html" xlink:title="Compound Module StandardHost" target="_parent">
<polygon fill="#fffcaf" stroke="black" points="83,-19 0,-19 0,0 83,0 83,-19"/>
<text text-anchor="middle" x="41.5" y="-7" font-family="Helvetica,sans-Serif" font-size="10.00">StandardHost</text>
</a>
</g>
</g>
<!-- ClockDriftShowcase&#45;&gt;StandardHost -->
<g id="edge1" class="edge">
<title>ClockDriftShowcase&#45;&gt;StandardHost</title>
<path fill="none" stroke="black" d="M114.52,-54.98C101.03,-46.77 80.37,-34.18 64.46,-24.49"/>
<polygon fill="black" stroke="black" points="66.09,-21.38 55.73,-19.17 62.45,-27.36 66.09,-21.38"/>
</g>
<!-- Eth1G -->
<g id="node3" class="node">
<title>Eth1G</title>
<g id="a_node3"><a xlink:href="inet.node.ethernet.Eth1G.html" xlink:title="Channel Eth1G" target="_parent">
<polygon fill="#d0ffd0" stroke="black" points="155.5,-19 101.5,-19 101.5,0 155.5,0 155.5,-19"/>
<text text-anchor="middle" x="128.5" y="-7" font-family="Helvetica,sans-Serif" font-size="10.00">Eth1G</text>
</a>
</g>
</g>
<!-- ClockDriftShowcase&#45;&gt;Eth1G -->
<g id="edge2" class="edge">
<title>ClockDriftShowcase&#45;&gt;Eth1G</title>
<path fill="none" stroke="black" d="M128.5,-54.75C128.5,-47.8 128.5,-37.85 128.5,-29.13"/>
<polygon fill="black" stroke="black" points="132,-29.09 128.5,-19.09 125,-29.09 132,-29.09"/>
</g>
<!-- EthernetSwitch -->
<g id="node4" class="node">
<title>EthernetSwitch</title>
<g id="a_node4"><a xlink:href="inet.node.ethernet.EthernetSwitch.html" xlink:title="Compound Module EthernetSwitch" target="_parent">
<polygon fill="#fffcaf" stroke="black" points="263.5,-19 173.5,-19 173.5,0 263.5,0 263.5,-19"/>
<text text-anchor="middle" x="218.5" y="-7" font-family="Helvetica,sans-Serif" font-size="10.00">EthernetSwitch</text>
</a>
</g>
</g>
<!-- ClockDriftShowcase&#45;&gt;EthernetSwitch -->
<g id="edge3" class="edge">
<title>ClockDriftShowcase&#45;&gt;EthernetSwitch</title>
<path fill="none" stroke="black" d="M142.96,-54.98C156.92,-46.77 178.29,-34.18 194.75,-24.49"/>
<polygon fill="black" stroke="black" points="196.94,-27.26 203.78,-19.17 193.38,-21.23 196.94,-27.26"/>
</g>
</g>
</svg>
