<?xml version="1.0" encoding="UTF-8" standalone="no"?>
<!DOCTYPE svg PUBLIC "-//W3C//DTD SVG 1.1//EN"
 "http://www.w3.org/Graphics/SVG/1.1/DTD/svg11.dtd">
<!-- Generated by graphviz version 2.43.0 (0)
 -->
<!-- Title: opp Pages: 1 -->
<svg width="538pt" height="137pt"
 viewBox="0.00 0.00 538.00 137.00" xmlns="http://www.w3.org/2000/svg" xmlns:xlink="http://www.w3.org/1999/xlink">
<g id="graph0" class="graph" transform="scale(1 1) rotate(0) translate(4 133)">
<title>opp</title>
<polygon fill="transparent" stroke="transparent" points="-4,4 -4,-133 534,-133 534,4 -4,4"/>
<!-- IPv4MediumLAN -->
<g id="node1" class="node">
<title>IPv4MediumLAN</title>
<g id="a_node1"><a xlink:href="inet.examples.inet.ipv4largenet.IPv4MediumLAN.html" xlink:title="Compound Module IPv4MediumLAN" target="_parent">
<polygon fill="#fff700" stroke="black" points="318,-74 220,-74 220,-55 318,-55 318,-74"/>
<text text-anchor="middle" x="269" y="-62" font-family="Helvetica,sans-Serif" font-size="10.00">IPv4MediumLAN</text>
</a>
</g>
</g>
<!-- IdealChannel -->
<g id="node2" class="node">
<title>IdealChannel</title>
<g id="a_node2"><a xlink:href="ned.IdealChannel.html" xlink:title="Channel IdealChannel" target="_parent">
<polygon fill="#d0ffd0" stroke="black" points="80,-19 0,-19 0,0 80,0 80,-19"/>
<text text-anchor="middle" x="40" y="-7" font-family="Helvetica,sans-Serif" font-size="10.00">IdealChannel</text>
</a>
</g>
</g>
<!-- IPv4MediumLAN&#45;&gt;IdealChannel -->
<g id="edge1" class="edge">
<title>IPv4MediumLAN&#45;&gt;IdealChannel</title>
<path fill="none" stroke="black" d="M232.21,-54.98C192.76,-45.86 130.02,-31.33 87.02,-21.38"/>
<polygon fill="black" stroke="black" points="87.61,-17.93 77.08,-19.08 86.03,-24.75 87.61,-17.93"/>
</g>
<!-- StandardHost -->
<g id="node3" class="node">
<title>StandardHost</title>
<g id="a_node3"><a xlink:href="inet.node.inet.StandardHost.html" xlink:title="Compound Module StandardHost" target="_parent">
<polygon fill="#fffcaf" stroke="black" points="181.5,-19 98.5,-19 98.5,0 181.5,0 181.5,-19"/>
<text text-anchor="middle" x="140" y="-7" font-family="Helvetica,sans-Serif" font-size="10.00">StandardHost</text>
</a>
</g>
</g>
<!-- IPv4MediumLAN&#45;&gt;StandardHost -->
<g id="edge2" class="edge">
<title>IPv4MediumLAN&#45;&gt;StandardHost</title>
<path fill="none" stroke="black" d="M248.27,-54.98C227.24,-46.34 194.45,-32.87 170.46,-23.02"/>
<polygon fill="black" stroke="black" points="171.68,-19.73 161.1,-19.17 169.02,-26.21 171.68,-19.73"/>
</g>
<!-- Router -->
<g id="node4" class="node">
<title>Router</title>
<g id="a_node4"><a xlink:href="inet.node.inet.Router.html" xlink:title="Compound Module Router" target="_parent">
<polygon fill="#fffcaf" stroke="black" points="254,-19 200,-19 200,0 254,0 254,-19"/>
<text text-anchor="middle" x="227" y="-7" font-family="Helvetica,sans-Serif" font-size="10.00">Router</text>
</a>
</g>
</g>
<!-- IPv4MediumLAN&#45;&gt;Router -->
<g id="edge3" class="edge">
<title>IPv4MediumLAN&#45;&gt;Router</title>
<path fill="none" stroke="black" d="M262.06,-54.75C256.13,-47.26 247.43,-36.28 240.18,-27.13"/>
<polygon fill="black" stroke="black" points="242.76,-24.75 233.81,-19.09 237.27,-29.1 242.76,-24.75"/>
</g>
<!-- EthernetHub -->
<g id="node5" class="node">
<title>EthernetHub</title>
<g id="a_node5"><a xlink:href="inet.node.ethernet.EthernetHub.html" xlink:title="Simple Module EthernetHub" target="_parent">
<polygon fill="#fffcaf" stroke="black" points="349.5,-19 272.5,-19 272.5,0 349.5,0 349.5,-19"/>
<text text-anchor="middle" x="311" y="-7" font-family="Helvetica,sans-Serif" font-size="10.00">EthernetHub</text>
</a>
</g>
</g>
<!-- IPv4MediumLAN&#45;&gt;EthernetHub -->
<g id="edge4" class="edge">
<title>IPv4MediumLAN&#45;&gt;EthernetHub</title>
<path fill="none" stroke="black" d="M275.94,-54.75C281.87,-47.26 290.57,-36.28 297.82,-27.13"/>
<polygon fill="black" stroke="black" points="300.73,-29.1 304.19,-19.09 295.24,-24.75 300.73,-29.1"/>
</g>
<!-- cable -->
<g id="node6" class="node">
<title>cable</title>
<g id="a_node6"><a xlink:href="inet.examples.inet.ipv4largenet.cable.html" xlink:title="Channel cable" target="_parent">
<polygon fill="#d0ffd0" stroke="black" points="422,-19 368,-19 368,0 422,0 422,-19"/>
<text text-anchor="middle" x="395" y="-7" font-family="Helvetica,sans-Serif" font-size="10.00">cable</text>
</a>
</g>
</g>
<!-- IPv4MediumLAN&#45;&gt;cable -->
<g id="edge5" class="edge">
<title>IPv4MediumLAN&#45;&gt;cable</title>
<path fill="none" stroke="black" d="M289.24,-54.98C309.7,-46.38 341.53,-32.99 364.93,-23.15"/>
<polygon fill="black" stroke="black" points="366.53,-26.27 374.39,-19.17 363.81,-19.82 366.53,-26.27"/>
</g>
<!-- EthernetSwitch -->
<g id="node7" class="node">
<title>EthernetSwitch</title>
<g id="a_node7"><a xlink:href="inet.node.ethernet.EthernetSwitch.html" xlink:title="Compound Module EthernetSwitch" target="_parent">
<polygon fill="#fffcaf" stroke="black" points="530,-19 440,-19 440,0 530,0 530,-19"/>
<text text-anchor="middle" x="485" y="-7" font-family="Helvetica,sans-Serif" font-size="10.00">EthernetSwitch</text>
</a>
</g>
</g>
<!-- IPv4MediumLAN&#45;&gt;EthernetSwitch -->
<g id="edge6" class="edge">
<title>IPv4MediumLAN&#45;&gt;EthernetSwitch</title>
<path fill="none" stroke="black" d="M303.7,-54.98C340.75,-45.89 399.59,-31.46 440.13,-21.51"/>
<polygon fill="black" stroke="black" points="441.15,-24.86 450.02,-19.08 439.48,-18.07 441.15,-24.86"/>
</g>
<!-- IPv4LargeNet -->
<g id="node8" class="node">
<title>IPv4LargeNet</title>
<g id="a_node8"><a xlink:href="inet.examples.inet.ipv4largenet.IPv4LargeNet.html" xlink:title="Network IPv4LargeNet" target="_parent">
<polygon fill="#d0d0ff" stroke="black" points="310,-129 228,-129 228,-110 310,-110 310,-129"/>
<text text-anchor="middle" x="269" y="-117" font-family="Helvetica,sans-Serif" font-size="10.00">IPv4LargeNet</text>
</a>
</g>
</g>
<!-- IPv4LargeNet&#45;&gt;IPv4MediumLAN -->
<g id="edge7" class="edge">
<title>IPv4LargeNet&#45;&gt;IPv4MediumLAN</title>
<path fill="none" stroke="black" d="M269,-109.75C269,-102.8 269,-92.85 269,-84.13"/>
<polygon fill="black" stroke="black" points="272.5,-84.09 269,-74.09 265.5,-84.09 272.5,-84.09"/>
</g>
</g>
</svg>
