<?xml version="1.0" encoding="UTF-8" standalone="no"?>
<!DOCTYPE svg PUBLIC "-//W3C//DTD SVG 1.1//EN"
 "http://www.w3.org/Graphics/SVG/1.1/DTD/svg11.dtd">
<!-- Generated by graphviz version 2.43.0 (0)
 -->
<!-- Title: opp Pages: 1 -->
<svg width="661pt" height="82pt"
 viewBox="0.00 0.00 660.50 82.00" xmlns="http://www.w3.org/2000/svg" xmlns:xlink="http://www.w3.org/1999/xlink">
<g id="graph0" class="graph" transform="scale(1 1) rotate(0) translate(4 78)">
<title>opp</title>
<polygon fill="transparent" stroke="transparent" points="-4,4 -4,-78 656.5,-78 656.5,4 -4,4"/>
<!-- Lan80211ac -->
<g id="node1" class="node">
<title>Lan80211ac</title>
<g id="a_node1"><a xlink:href="inet.examples.wireless.lan80211ac.Lan80211ac.html" xlink:title="Network Lan80211ac" target="_parent">
<polygon fill="#9090ff" stroke="black" points="307.5,-74 232.5,-74 232.5,-55 307.5,-55 307.5,-74"/>
<text text-anchor="middle" x="270" y="-62" font-family="Helvetica,sans-Serif" font-size="10.00">Lan80211ac</text>
</a>
</g>
</g>
<!-- IIntegratedVisualizer -->
<g id="node2" class="node">
<title>IIntegratedVisualizer</title>
<g id="a_node2"><a xlink:href="inet.visualizer.contract.IIntegratedVisualizer.html" xlink:title="Module Interface IIntegratedVisualizer" target="_parent">
<polygon fill="#fffcaf" stroke="black" stroke-dasharray="5,2" points="118,-19 0,-19 0,0 118,0 118,-19"/>
<text text-anchor="middle" x="59" y="-7" font-family="Helvetica,sans-Serif" font-size="10.00">IIntegratedVisualizer</text>
</a>
</g>
</g>
<!-- Lan80211ac&#45;&gt;IIntegratedVisualizer -->
<g id="edge1" class="edge">
<title>Lan80211ac&#45;&gt;IIntegratedVisualizer</title>
<path fill="none" stroke="black" d="M236.1,-54.98C199.98,-45.91 142.68,-31.52 103.08,-21.57"/>
<polygon fill="black" stroke="black" points="103.72,-18.12 93.17,-19.08 102.01,-24.91 103.72,-18.12"/>
</g>
<!-- AccessPoint -->
<g id="node3" class="node">
<title>AccessPoint</title>
<g id="a_node3"><a xlink:href="inet.node.wireless.AccessPoint.html" xlink:title="Compound Module AccessPoint" target="_parent">
<polygon fill="#fffcaf" stroke="black" points="211.5,-19 136.5,-19 136.5,0 211.5,0 211.5,-19"/>
<text text-anchor="middle" x="174" y="-7" font-family="Helvetica,sans-Serif" font-size="10.00">AccessPoint</text>
</a>
</g>
</g>
<!-- Lan80211ac&#45;&gt;AccessPoint -->
<g id="edge2" class="edge">
<title>Lan80211ac&#45;&gt;AccessPoint</title>
<path fill="none" stroke="black" d="M254.58,-54.98C239.55,-46.69 216.46,-33.94 198.84,-24.22"/>
<polygon fill="black" stroke="black" points="200.15,-20.94 189.7,-19.17 196.77,-27.07 200.15,-20.94"/>
</g>
<!-- WirelessHost -->
<g id="node4" class="node">
<title>WirelessHost</title>
<g id="a_node4"><a xlink:href="inet.node.inet.WirelessHost.html" xlink:title="Compound Module WirelessHost" target="_parent">
<polygon fill="#fffcaf" stroke="black" points="310.5,-19 229.5,-19 229.5,0 310.5,0 310.5,-19"/>
<text text-anchor="middle" x="270" y="-7" font-family="Helvetica,sans-Serif" font-size="10.00">WirelessHost</text>
</a>
</g>
</g>
<!-- Lan80211ac&#45;&gt;WirelessHost -->
<g id="edge3" class="edge">
<title>Lan80211ac&#45;&gt;WirelessHost</title>
<path fill="none" stroke="black" d="M270,-54.75C270,-47.8 270,-37.85 270,-29.13"/>
<polygon fill="black" stroke="black" points="273.5,-29.09 270,-19.09 266.5,-29.09 273.5,-29.09"/>
</g>
<!-- Ipv4NetworkConfigurator -->
<g id="node5" class="node">
<title>Ipv4NetworkConfigurator</title>
<g id="a_node5"><a xlink:href="inet.networklayer.configurator.ipv4.Ipv4NetworkConfigurator.html" xlink:title="Simple Module Ipv4NetworkConfigurator" target="_parent">
<polygon fill="#fffcaf" stroke="black" points="469,-19 329,-19 329,0 469,0 469,-19"/>
<text text-anchor="middle" x="399" y="-7" font-family="Helvetica,sans-Serif" font-size="10.00">Ipv4NetworkConfigurator</text>
</a>
</g>
</g>
<!-- Lan80211ac&#45;&gt;Ipv4NetworkConfigurator -->
<g id="edge4" class="edge">
<title>Lan80211ac&#45;&gt;Ipv4NetworkConfigurator</title>
<path fill="none" stroke="black" d="M290.73,-54.98C311.76,-46.34 344.55,-32.87 368.54,-23.02"/>
<polygon fill="black" stroke="black" points="369.98,-26.21 377.9,-19.17 367.32,-19.73 369.98,-26.21"/>
</g>
<!-- Ieee80211ScalarRadioMedium -->
<g id="node6" class="node">
<title>Ieee80211ScalarRadioMedium</title>
<g id="a_node6"><a xlink:href="inet.physicallayer.wireless.ieee80211.packetlevel.Ieee80211ScalarRadioMedium.html" xlink:title="Compound Module Ieee80211ScalarRadioMedium" target="_parent">
<polygon fill="#fffcaf" stroke="black" points="652.5,-19 487.5,-19 487.5,0 652.5,0 652.5,-19"/>
<text text-anchor="middle" x="570" y="-7" font-family="Helvetica,sans-Serif" font-size="10.00">Ieee80211ScalarRadioMedium</text>
</a>
</g>
</g>
<!-- Lan80211ac&#45;&gt;Ieee80211ScalarRadioMedium -->
<g id="edge5" class="edge">
<title>Lan80211ac&#45;&gt;Ieee80211ScalarRadioMedium</title>
<path fill="none" stroke="black" d="M307.69,-56.84C359.02,-47.77 451.38,-31.46 511.68,-20.8"/>
<polygon fill="black" stroke="black" points="512.57,-24.2 521.81,-19.01 511.36,-17.31 512.57,-24.2"/>
</g>
</g>
</svg>
