<?xml version="1.0" encoding="UTF-8" standalone="no"?>
<!DOCTYPE svg PUBLIC "-//W3C//DTD SVG 1.1//EN"
 "http://www.w3.org/Graphics/SVG/1.1/DTD/svg11.dtd">
<!-- Generated by graphviz version 2.43.0 (0)
 -->
<!-- Title: opp Pages: 1 -->
<svg width="306pt" height="82pt"
 viewBox="0.00 0.00 306.00 82.00" xmlns="http://www.w3.org/2000/svg" xmlns:xlink="http://www.w3.org/1999/xlink">
<g id="graph0" class="graph" transform="scale(1 1) rotate(0) translate(4 78)">
<title>opp</title>
<polygon fill="transparent" stroke="transparent" points="-4,4 -4,-78 302,-78 302,4 -4,4"/>
<!-- Ieee8021rLayer -->
<g id="node1" class="node">
<title>Ieee8021rLayer</title>
<g id="a_node1"><a xlink:href="inet.linklayer.ieee8021r.Ieee8021rLayer.html" xlink:title="Compound Module Ieee8021rLayer" target="_parent">
<polygon fill="#fff700" stroke="black" points="192,-74 100,-74 100,-55 192,-55 192,-74"/>
<text text-anchor="middle" x="146" y="-62" font-family="Helvetica,sans-Serif" font-size="10.00">Ieee8021rLayer</text>
</a>
</g>
</g>
<!-- IdealChannel -->
<g id="node2" class="node">
<title>IdealChannel</title>
<g id="a_node2"><a xlink:href="ned.IdealChannel.html" xlink:title="Channel IdealChannel" target="_parent">
<polygon fill="#d0ffd0" stroke="black" points="80,-19 0,-19 0,0 80,0 80,-19"/>
<text text-anchor="middle" x="40" y="-7" font-family="Helvetica,sans-Serif" font-size="10.00">IdealChannel</text>
</a>
</g>
</g>
<!-- Ieee8021rLayer&#45;&gt;IdealChannel -->
<g id="edge1" class="edge">
<title>Ieee8021rLayer&#45;&gt;IdealChannel</title>
<path fill="none" stroke="black" d="M128.97,-54.98C112.07,-46.54 85.94,-33.47 66.36,-23.68"/>
<polygon fill="black" stroke="black" points="67.85,-20.51 57.34,-19.17 64.72,-26.77 67.85,-20.51"/>
</g>
<!-- IIeee8021rLayer -->
<g id="node3" class="node">
<title>IIeee8021rLayer</title>
<g id="a_node3"><a xlink:href="inet.linklayer.ieee8021r.IIeee8021rLayer.html" xlink:title="Module Interface IIeee8021rLayer" target="_parent">
<polygon fill="#fffcaf" stroke="black" stroke-dasharray="5,2" points="193.5,-19 98.5,-19 98.5,0 193.5,0 193.5,-19"/>
<text text-anchor="middle" x="146" y="-7" font-family="Helvetica,sans-Serif" font-size="10.00">IIeee8021rLayer</text>
</a>
</g>
</g>
<!-- Ieee8021rLayer&#45;&gt;IIeee8021rLayer -->
<g id="edge2" class="edge">
<title>Ieee8021rLayer&#45;&gt;IIeee8021rLayer</title>
<path fill="none" stroke="black" d="M146,-54.75C146,-47.8 146,-37.85 146,-29.13"/>
<polygon fill="black" stroke="black" points="149.5,-29.09 146,-19.09 142.5,-29.09 149.5,-29.09"/>
</g>
<!-- IProtocolLayer -->
<g id="node4" class="node">
<title>IProtocolLayer</title>
<g id="a_node4"><a xlink:href="inet.protocolelement.contract.IProtocolLayer.html" xlink:title="Module Interface IProtocolLayer" target="_parent">
<polygon fill="#fffcaf" stroke="black" stroke-dasharray="5,2" points="298,-19 212,-19 212,0 298,0 298,-19"/>
<text text-anchor="middle" x="255" y="-7" font-family="Helvetica,sans-Serif" font-size="10.00">IProtocolLayer</text>
</a>
</g>
</g>
<!-- Ieee8021rLayer&#45;&gt;IProtocolLayer -->
<g id="edge3" class="edge">
<title>Ieee8021rLayer&#45;&gt;IProtocolLayer</title>
<path fill="none" stroke="black" d="M163.51,-54.98C180.97,-46.5 208.01,-33.35 228.17,-23.54"/>
<polygon fill="black" stroke="black" points="229.71,-26.69 237.17,-19.17 226.64,-20.4 229.71,-26.69"/>
</g>
</g>
</svg>
