<?xml version="1.0" encoding="UTF-8" standalone="no"?>
<!DOCTYPE svg PUBLIC "-//W3C//DTD SVG 1.1//EN"
 "http://www.w3.org/Graphics/SVG/1.1/DTD/svg11.dtd">
<!-- Generated by graphviz version 2.43.0 (0)
 -->
<!-- Title: opp Pages: 1 -->
<svg width="418pt" height="82pt"
 viewBox="0.00 0.00 417.50 82.00" xmlns="http://www.w3.org/2000/svg" xmlns:xlink="http://www.w3.org/1999/xlink">
<g id="graph0" class="graph" transform="scale(1 1) rotate(0) translate(4 78)">
<title>opp</title>
<polygon fill="transparent" stroke="transparent" points="-4,4 -4,-78 413.5,-78 413.5,4 -4,4"/>
<!-- CompoundPendingQueue -->
<g id="node1" class="node">
<title>CompoundPendingQueue</title>
<g id="a_node1"><a xlink:href="inet.linklayer.ieee80211.mac.queue.CompoundPendingQueue.html" xlink:title="Compound Module CompoundPendingQueue" target="_parent">
<polygon fill="#fff700" stroke="black" points="272.5,-74 132.5,-74 132.5,-55 272.5,-55 272.5,-74"/>
<text text-anchor="middle" x="202.5" y="-62" font-family="Helvetica,sans-Serif" font-size="10.00">CompoundPendingQueue</text>
</a>
</g>
</g>
<!-- PacketClassifier -->
<g id="node2" class="node">
<title>PacketClassifier</title>
<g id="a_node2"><a xlink:href="inet.queueing.classifier.PacketClassifier.html" xlink:title="Simple Module PacketClassifier" target="_parent">
<polygon fill="#fffcaf" stroke="black" points="95,-19 0,-19 0,0 95,0 95,-19"/>
<text text-anchor="middle" x="47.5" y="-7" font-family="Helvetica,sans-Serif" font-size="10.00">PacketClassifier</text>
</a>
</g>
</g>
<!-- CompoundPendingQueue&#45;&gt;PacketClassifier -->
<g id="edge1" class="edge">
<title>CompoundPendingQueue&#45;&gt;PacketClassifier</title>
<path fill="none" stroke="black" d="M177.6,-54.98C151.8,-46.16 111.28,-32.31 82.32,-22.41"/>
<polygon fill="black" stroke="black" points="83.19,-19.01 72.6,-19.08 80.93,-25.63 83.19,-19.01"/>
</g>
<!-- IdealChannel -->
<g id="node3" class="node">
<title>IdealChannel</title>
<g id="a_node3"><a xlink:href="ned.IdealChannel.html" xlink:title="Channel IdealChannel" target="_parent">
<polygon fill="#d0ffd0" stroke="black" points="193.5,-19 113.5,-19 113.5,0 193.5,0 193.5,-19"/>
<text text-anchor="middle" x="153.5" y="-7" font-family="Helvetica,sans-Serif" font-size="10.00">IdealChannel</text>
</a>
</g>
</g>
<!-- CompoundPendingQueue&#45;&gt;IdealChannel -->
<g id="edge2" class="edge">
<title>CompoundPendingQueue&#45;&gt;IdealChannel</title>
<path fill="none" stroke="black" d="M194.41,-54.75C187.34,-47.11 176.91,-35.82 168.35,-26.56"/>
<polygon fill="black" stroke="black" points="170.8,-24.06 161.44,-19.09 165.66,-28.81 170.8,-24.06"/>
</g>
<!-- PacketQueue -->
<g id="node4" class="node">
<title>PacketQueue</title>
<g id="a_node4"><a xlink:href="inet.queueing.queue.PacketQueue.html" xlink:title="Simple Module PacketQueue" target="_parent">
<polygon fill="#fffcaf" stroke="black" points="291.5,-19 211.5,-19 211.5,0 291.5,0 291.5,-19"/>
<text text-anchor="middle" x="251.5" y="-7" font-family="Helvetica,sans-Serif" font-size="10.00">PacketQueue</text>
</a>
</g>
</g>
<!-- CompoundPendingQueue&#45;&gt;PacketQueue -->
<g id="edge3" class="edge">
<title>CompoundPendingQueue&#45;&gt;PacketQueue</title>
<path fill="none" stroke="black" d="M210.59,-54.75C217.66,-47.11 228.09,-35.82 236.65,-26.56"/>
<polygon fill="black" stroke="black" points="239.34,-28.81 243.56,-19.09 234.2,-24.06 239.34,-28.81"/>
</g>
<!-- PriorityScheduler -->
<g id="node5" class="node">
<title>PriorityScheduler</title>
<g id="a_node5"><a xlink:href="inet.queueing.scheduler.PriorityScheduler.html" xlink:title="Simple Module PriorityScheduler" target="_parent">
<polygon fill="#fffcaf" stroke="black" points="409.5,-19 309.5,-19 309.5,0 409.5,0 409.5,-19"/>
<text text-anchor="middle" x="359.5" y="-7" font-family="Helvetica,sans-Serif" font-size="10.00">PriorityScheduler</text>
</a>
</g>
</g>
<!-- CompoundPendingQueue&#45;&gt;PriorityScheduler -->
<g id="edge4" class="edge">
<title>CompoundPendingQueue&#45;&gt;PriorityScheduler</title>
<path fill="none" stroke="black" d="M227.72,-54.98C253.86,-46.16 294.9,-32.31 324.23,-22.41"/>
<polygon fill="black" stroke="black" points="325.72,-25.6 334.08,-19.08 323.48,-18.96 325.72,-25.6"/>
</g>
</g>
</svg>
