<?xml version="1.0" encoding="UTF-8" standalone="no"?>
<!DOCTYPE svg PUBLIC "-//W3C//DTD SVG 1.1//EN"
 "http://www.w3.org/Graphics/SVG/1.1/DTD/svg11.dtd">
<!-- Generated by graphviz version 2.43.0 (0)
 -->
<!-- Title: opp Pages: 1 -->
<svg width="298pt" height="82pt"
 viewBox="0.00 0.00 298.00 82.00" xmlns="http://www.w3.org/2000/svg" xmlns:xlink="http://www.w3.org/1999/xlink">
<g id="graph0" class="graph" transform="scale(1 1) rotate(0) translate(4 78)">
<title>opp</title>
<polygon fill="transparent" stroke="transparent" points="-4,4 -4,-78 294,-78 294,4 -4,4"/>
<!-- Ieee8021rTagEpdHeaderInserter -->
<g id="node1" class="node">
<title>Ieee8021rTagEpdHeaderInserter</title>
<g id="a_node1"><a xlink:href="inet.linklayer.ieee8021r.Ieee8021rTagEpdHeaderInserter.html" xlink:title="Simple Module Ieee8021rTagEpdHeaderInserter" target="_parent">
<polygon fill="#fff700" stroke="black" points="211.5,-19 38.5,-19 38.5,0 211.5,0 211.5,-19"/>
<text text-anchor="middle" x="125" y="-7" font-family="Helvetica,sans-Serif" font-size="10.00">Ieee8021rTagEpdHeaderInserter</text>
</a>
</g>
</g>
<!-- PacketFlowBase -->
<g id="node2" class="node">
<title>PacketFlowBase</title>
<g id="a_node2"><a xlink:href="inet.queueing.base.PacketFlowBase.html" xlink:title="Simple Module PacketFlowBase" target="_parent">
<polygon fill="#fffcaf" stroke="black" points="96,-74 0,-74 0,-55 96,-55 96,-74"/>
<text text-anchor="middle" x="48" y="-62" font-family="Helvetica,sans-Serif" font-size="10.00">PacketFlowBase</text>
</a>
</g>
</g>
<!-- PacketFlowBase&#45;&gt;Ieee8021rTagEpdHeaderInserter -->
<g id="edge1" class="edge">
<title>PacketFlowBase&#45;&gt;Ieee8021rTagEpdHeaderInserter</title>
<path fill="none" stroke="black" d="M60.37,-54.98C74.66,-45.15 98.02,-29.07 112.4,-19.17"/>
</g>
<!-- IIeee8021rTagEpdHeaderInserter -->
<g id="node3" class="node">
<title>IIeee8021rTagEpdHeaderInserter</title>
<g id="a_node3"><a xlink:href="inet.linklayer.ieee8021r.IIeee8021rTagEpdHeaderInserter.html" xlink:title="Module Interface IIeee8021rTagEpdHeaderInserter" target="_parent">
<polygon fill="#fffcaf" stroke="black" stroke-dasharray="5,2" points="290,-74 114,-74 114,-55 290,-55 290,-74"/>
<text text-anchor="middle" x="202" y="-62" font-family="Helvetica,sans-Serif" font-size="10.00">IIeee8021rTagEpdHeaderInserter</text>
</a>
</g>
</g>
<!-- IIeee8021rTagEpdHeaderInserter&#45;&gt;Ieee8021rTagEpdHeaderInserter -->
<g id="edge2" class="edge">
<title>IIeee8021rTagEpdHeaderInserter&#45;&gt;Ieee8021rTagEpdHeaderInserter</title>
<path fill="none" stroke="black" stroke-dasharray="5,2" d="M189.63,-54.98C175.34,-45.15 151.98,-29.07 137.6,-19.17"/>
</g>
</g>
</svg>
