<?xml version="1.0" encoding="UTF-8" standalone="no"?>
<!DOCTYPE svg PUBLIC "-//W3C//DTD SVG 1.1//EN"
 "http://www.w3.org/Graphics/SVG/1.1/DTD/svg11.dtd">
<!-- Generated by graphviz version 2.43.0 (0)
 -->
<!-- Title: opp Pages: 1 -->
<svg width="594pt" height="82pt"
 viewBox="0.00 0.00 593.50 82.00" xmlns="http://www.w3.org/2000/svg" xmlns:xlink="http://www.w3.org/1999/xlink">
<g id="graph0" class="graph" transform="scale(1 1) rotate(0) translate(4 78)">
<title>opp</title>
<polygon fill="transparent" stroke="transparent" points="-4,4 -4,-78 589.5,-78 589.5,4 -4,4"/>
<!-- Layered80211 -->
<g id="node1" class="node">
<title>Layered80211</title>
<g id="a_node1"><a xlink:href="inet.examples.wireless.layered80211.Layered80211.html" xlink:title="Network Layered80211" target="_parent">
<polygon fill="#9090ff" stroke="black" points="376,-74 290,-74 290,-55 376,-55 376,-74"/>
<text text-anchor="middle" x="333" y="-62" font-family="Helvetica,sans-Serif" font-size="10.00">Layered80211</text>
</a>
</g>
</g>
<!-- IIntegratedVisualizer -->
<g id="node2" class="node">
<title>IIntegratedVisualizer</title>
<g id="a_node2"><a xlink:href="inet.visualizer.contract.IIntegratedVisualizer.html" xlink:title="Module Interface IIntegratedVisualizer" target="_parent">
<polygon fill="#fffcaf" stroke="black" stroke-dasharray="5,2" points="118,-19 0,-19 0,0 118,0 118,-19"/>
<text text-anchor="middle" x="59" y="-7" font-family="Helvetica,sans-Serif" font-size="10.00">IIntegratedVisualizer</text>
</a>
</g>
</g>
<!-- Layered80211&#45;&gt;IIntegratedVisualizer -->
<g id="edge1" class="edge">
<title>Layered80211&#45;&gt;IIntegratedVisualizer</title>
<path fill="none" stroke="black" d="M289.89,-55.16C242.13,-45.92 165.05,-31.01 113.23,-20.99"/>
<polygon fill="black" stroke="black" points="113.71,-17.52 103.22,-19.05 112.38,-24.39 113.71,-17.52"/>
</g>
<!-- Ieee80211LayeredScalarRadioMedium -->
<g id="node3" class="node">
<title>Ieee80211LayeredScalarRadioMedium</title>
<g id="a_node3"><a xlink:href="inet.physicallayer.wireless.ieee80211.bitlevel.Ieee80211LayeredScalarRadioMedium.html" xlink:title="Compound Module Ieee80211LayeredScalarRadioMedium" target="_parent">
<polygon fill="#fffcaf" stroke="black" points="340,-19 136,-19 136,0 340,0 340,-19"/>
<text text-anchor="middle" x="238" y="-7" font-family="Helvetica,sans-Serif" font-size="10.00">Ieee80211LayeredScalarRadioMedium</text>
</a>
</g>
</g>
<!-- Layered80211&#45;&gt;Ieee80211LayeredScalarRadioMedium -->
<g id="edge2" class="edge">
<title>Layered80211&#45;&gt;Ieee80211LayeredScalarRadioMedium</title>
<path fill="none" stroke="black" d="M317.74,-54.98C302.87,-46.69 280.02,-33.94 262.58,-24.22"/>
<polygon fill="black" stroke="black" points="263.98,-20.99 253.54,-19.17 260.57,-27.1 263.98,-20.99"/>
</g>
<!-- Ipv4NetworkConfigurator -->
<g id="node4" class="node">
<title>Ipv4NetworkConfigurator</title>
<g id="a_node4"><a xlink:href="inet.networklayer.configurator.ipv4.Ipv4NetworkConfigurator.html" xlink:title="Simple Module Ipv4NetworkConfigurator" target="_parent">
<polygon fill="#fffcaf" stroke="black" points="498,-19 358,-19 358,0 498,0 498,-19"/>
<text text-anchor="middle" x="428" y="-7" font-family="Helvetica,sans-Serif" font-size="10.00">Ipv4NetworkConfigurator</text>
</a>
</g>
</g>
<!-- Layered80211&#45;&gt;Ipv4NetworkConfigurator -->
<g id="edge3" class="edge">
<title>Layered80211&#45;&gt;Ipv4NetworkConfigurator</title>
<path fill="none" stroke="black" d="M348.26,-54.98C363.13,-46.69 385.98,-33.94 403.42,-24.22"/>
<polygon fill="black" stroke="black" points="405.43,-27.1 412.46,-19.17 402.02,-20.99 405.43,-27.1"/>
</g>
<!-- AdhocHost -->
<g id="node5" class="node">
<title>AdhocHost</title>
<g id="a_node5"><a xlink:href="inet.node.inet.AdhocHost.html" xlink:title="Compound Module AdhocHost" target="_parent">
<polygon fill="#fffcaf" stroke="black" points="585.5,-19 516.5,-19 516.5,0 585.5,0 585.5,-19"/>
<text text-anchor="middle" x="551" y="-7" font-family="Helvetica,sans-Serif" font-size="10.00">AdhocHost</text>
</a>
</g>
</g>
<!-- Layered80211&#45;&gt;AdhocHost -->
<g id="edge4" class="edge">
<title>Layered80211&#45;&gt;AdhocHost</title>
<path fill="none" stroke="black" d="M368.03,-54.98C405.64,-45.84 465.51,-31.29 506.45,-21.33"/>
<polygon fill="black" stroke="black" points="507.53,-24.67 516.42,-18.91 505.88,-17.87 507.53,-24.67"/>
</g>
</g>
</svg>
