<?xml version="1.0" encoding="UTF-8" standalone="no"?>
<!DOCTYPE svg PUBLIC "-//W3C//DTD SVG 1.1//EN"
 "http://www.w3.org/Graphics/SVG/1.1/DTD/svg11.dtd">
<!-- Generated by graphviz version 2.43.0 (0)
 -->
<!-- Title: opp Pages: 1 -->
<svg width="278pt" height="82pt"
 viewBox="0.00 0.00 278.00 82.00" xmlns="http://www.w3.org/2000/svg" xmlns:xlink="http://www.w3.org/1999/xlink">
<g id="graph0" class="graph" transform="scale(1 1) rotate(0) translate(4 78)">
<title>opp</title>
<polygon fill="transparent" stroke="transparent" points="-4,4 -4,-78 274,-78 274,4 -4,4"/>
<!-- AutomaticMultipathConfigurationShowcase -->
<g id="node1" class="node">
<title>AutomaticMultipathConfigurationShowcase</title>
<g id="a_node1"><a xlink:href="inet.showcases.tsn.framereplication.automaticmultipathconfiguration.AutomaticMultipathConfigurationShowcase.html" xlink:title="Network AutomaticMultipathConfigurationShowcase" target="_parent">
<polygon fill="#9090ff" stroke="black" points="243,-74 15,-74 15,-55 243,-55 243,-74"/>
<text text-anchor="middle" x="129" y="-62" font-family="Helvetica,sans-Serif" font-size="10.00">AutomaticMultipathConfigurationShowcase</text>
</a>
</g>
</g>
<!-- TsnDevice -->
<g id="node2" class="node">
<title>TsnDevice</title>
<g id="a_node2"><a xlink:href="inet.node.tsn.TsnDevice.html" xlink:title="Compound Module TsnDevice" target="_parent">
<polygon fill="#fffcaf" stroke="black" points="66,-19 0,-19 0,0 66,0 66,-19"/>
<text text-anchor="middle" x="33" y="-7" font-family="Helvetica,sans-Serif" font-size="10.00">TsnDevice</text>
</a>
</g>
</g>
<!-- AutomaticMultipathConfigurationShowcase&#45;&gt;TsnDevice -->
<g id="edge1" class="edge">
<title>AutomaticMultipathConfigurationShowcase&#45;&gt;TsnDevice</title>
<path fill="none" stroke="black" d="M113.58,-54.98C98.55,-46.69 75.46,-33.94 57.84,-24.22"/>
<polygon fill="black" stroke="black" points="59.15,-20.94 48.7,-19.17 55.77,-27.07 59.15,-20.94"/>
</g>
<!-- LocalTsnSwitch -->
<g id="node3" class="node">
<title>LocalTsnSwitch</title>
<g id="a_node3"><a xlink:href="inet.showcases.tsn.framereplication.automaticmultipathconfiguration.LocalTsnSwitch.html" xlink:title="Compound Module LocalTsnSwitch" target="_parent">
<polygon fill="#fffcaf" stroke="black" points="174,-19 84,-19 84,0 174,0 174,-19"/>
<text text-anchor="middle" x="129" y="-7" font-family="Helvetica,sans-Serif" font-size="10.00">LocalTsnSwitch</text>
</a>
</g>
</g>
<!-- AutomaticMultipathConfigurationShowcase&#45;&gt;LocalTsnSwitch -->
<g id="edge2" class="edge">
<title>AutomaticMultipathConfigurationShowcase&#45;&gt;LocalTsnSwitch</title>
<path fill="none" stroke="black" d="M129,-54.75C129,-47.8 129,-37.85 129,-29.13"/>
<polygon fill="black" stroke="black" points="132.5,-29.09 129,-19.09 125.5,-29.09 132.5,-29.09"/>
</g>
<!-- EthernetLink -->
<g id="node4" class="node">
<title>EthernetLink</title>
<g id="a_node4"><a xlink:href="inet.node.ethernet.EthernetLink.html" xlink:title="Channel EthernetLink" target="_parent">
<polygon fill="#d0ffd0" stroke="black" points="270,-19 192,-19 192,0 270,0 270,-19"/>
<text text-anchor="middle" x="231" y="-7" font-family="Helvetica,sans-Serif" font-size="10.00">EthernetLink</text>
</a>
</g>
</g>
<!-- AutomaticMultipathConfigurationShowcase&#45;&gt;EthernetLink -->
<g id="edge3" class="edge">
<title>AutomaticMultipathConfigurationShowcase&#45;&gt;EthernetLink</title>
<path fill="none" stroke="black" d="M145.39,-54.98C161.57,-46.57 186.57,-33.59 205.38,-23.81"/>
<polygon fill="black" stroke="black" points="207.05,-26.89 214.31,-19.17 203.83,-20.68 207.05,-26.89"/>
</g>
</g>
</svg>
