<?xml version="1.0" encoding="UTF-8" standalone="no"?>
<!DOCTYPE svg PUBLIC "-//W3C//DTD SVG 1.1//EN"
 "http://www.w3.org/Graphics/SVG/1.1/DTD/svg11.dtd">
<!-- Generated by graphviz version 2.43.0 (0)
 -->
<!-- Title: opp Pages: 1 -->
<svg width="564pt" height="82pt"
 viewBox="0.00 0.00 563.50 82.00" xmlns="http://www.w3.org/2000/svg" xmlns:xlink="http://www.w3.org/1999/xlink">
<g id="graph0" class="graph" transform="scale(1 1) rotate(0) translate(4 78)">
<title>opp</title>
<polygon fill="transparent" stroke="transparent" points="-4,4 -4,-78 559.5,-78 559.5,4 -4,4"/>
<!-- TcpClientApp -->
<g id="node1" class="node">
<title>TcpClientApp</title>
<g id="a_node1"><a xlink:href="inet.applications.tcpapp.TcpClientApp.html" xlink:title="Compound Module TcpClientApp" target="_parent">
<polygon fill="#fff700" stroke="black" points="324,-74 244,-74 244,-55 324,-55 324,-74"/>
<text text-anchor="middle" x="284" y="-62" font-family="Helvetica,sans-Serif" font-size="10.00">TcpClientApp</text>
</a>
</g>
</g>
<!-- IPassivePacketSink -->
<g id="node2" class="node">
<title>IPassivePacketSink</title>
<g id="a_node2"><a xlink:href="inet.queueing.contract.IPassivePacketSink.html" xlink:title="Module Interface IPassivePacketSink" target="_parent">
<polygon fill="#fffcaf" stroke="black" stroke-dasharray="5,2" points="110,-19 0,-19 0,0 110,0 110,-19"/>
<text text-anchor="middle" x="55" y="-7" font-family="Helvetica,sans-Serif" font-size="10.00">IPassivePacketSink</text>
</a>
</g>
</g>
<!-- TcpClientApp&#45;&gt;IPassivePacketSink -->
<g id="edge1" class="edge">
<title>TcpClientApp&#45;&gt;IPassivePacketSink</title>
<path fill="none" stroke="black" d="M247.21,-54.98C207.76,-45.86 145.02,-31.33 102.02,-21.38"/>
<polygon fill="black" stroke="black" points="102.61,-17.93 92.08,-19.08 101.03,-24.75 102.61,-17.93"/>
</g>
<!-- IdealChannel -->
<g id="node3" class="node">
<title>IdealChannel</title>
<g id="a_node3"><a xlink:href="ned.IdealChannel.html" xlink:title="Channel IdealChannel" target="_parent">
<polygon fill="#d0ffd0" stroke="black" points="208,-19 128,-19 128,0 208,0 208,-19"/>
<text text-anchor="middle" x="168" y="-7" font-family="Helvetica,sans-Serif" font-size="10.00">IdealChannel</text>
</a>
</g>
</g>
<!-- TcpClientApp&#45;&gt;IdealChannel -->
<g id="edge2" class="edge">
<title>TcpClientApp&#45;&gt;IdealChannel</title>
<path fill="none" stroke="black" d="M265.36,-54.98C246.7,-46.46 217.75,-33.23 196.26,-23.41"/>
<polygon fill="black" stroke="black" points="197.53,-20.14 186.98,-19.17 194.62,-26.51 197.53,-20.14"/>
</g>
<!-- IActivePacketSource -->
<g id="node4" class="node">
<title>IActivePacketSource</title>
<g id="a_node4"><a xlink:href="inet.queueing.contract.IActivePacketSource.html" xlink:title="Module Interface IActivePacketSource" target="_parent">
<polygon fill="#fffcaf" stroke="black" stroke-dasharray="5,2" points="342,-19 226,-19 226,0 342,0 342,-19"/>
<text text-anchor="middle" x="284" y="-7" font-family="Helvetica,sans-Serif" font-size="10.00">IActivePacketSource</text>
</a>
</g>
</g>
<!-- TcpClientApp&#45;&gt;IActivePacketSource -->
<g id="edge3" class="edge">
<title>TcpClientApp&#45;&gt;IActivePacketSource</title>
<path fill="none" stroke="black" d="M284,-54.75C284,-47.8 284,-37.85 284,-29.13"/>
<polygon fill="black" stroke="black" points="287.5,-29.09 284,-19.09 280.5,-29.09 287.5,-29.09"/>
</g>
<!-- TcpClientSocketIo -->
<g id="node5" class="node">
<title>TcpClientSocketIo</title>
<g id="a_node5"><a xlink:href="inet.applications.tcpapp.TcpClientSocketIo.html" xlink:title="Simple Module TcpClientSocketIo" target="_parent">
<polygon fill="#fffcaf" stroke="black" points="462,-19 360,-19 360,0 462,0 462,-19"/>
<text text-anchor="middle" x="411" y="-7" font-family="Helvetica,sans-Serif" font-size="10.00">TcpClientSocketIo</text>
</a>
</g>
</g>
<!-- TcpClientApp&#45;&gt;TcpClientSocketIo -->
<g id="edge4" class="edge">
<title>TcpClientApp&#45;&gt;TcpClientSocketIo</title>
<path fill="none" stroke="black" d="M304.4,-54.98C325.02,-46.38 357.11,-32.99 380.69,-23.15"/>
<polygon fill="black" stroke="black" points="382.34,-26.25 390.22,-19.17 379.65,-19.79 382.34,-26.25"/>
</g>
<!-- IPacketFlow -->
<g id="node6" class="node">
<title>IPacketFlow</title>
<g id="a_node6"><a xlink:href="inet.queueing.contract.IPacketFlow.html" xlink:title="Module Interface IPacketFlow" target="_parent">
<polygon fill="#fffcaf" stroke="black" stroke-dasharray="5,2" points="555.5,-19 480.5,-19 480.5,0 555.5,0 555.5,-19"/>
<text text-anchor="middle" x="518" y="-7" font-family="Helvetica,sans-Serif" font-size="10.00">IPacketFlow</text>
</a>
</g>
</g>
<!-- TcpClientApp&#45;&gt;IPacketFlow -->
<g id="edge5" class="edge">
<title>TcpClientApp&#45;&gt;IPacketFlow</title>
<path fill="none" stroke="black" d="M321.6,-54.98C362.11,-45.81 426.67,-31.19 470.62,-21.23"/>
<polygon fill="black" stroke="black" points="471.52,-24.62 480.5,-18.99 469.97,-17.79 471.52,-24.62"/>
</g>
</g>
</svg>
