<?xml version="1.0" encoding="UTF-8" standalone="no"?>
<!DOCTYPE svg PUBLIC "-//W3C//DTD SVG 1.1//EN"
 "http://www.w3.org/Graphics/SVG/1.1/DTD/svg11.dtd">
<!-- Generated by graphviz version 2.43.0 (0)
 -->
<!-- Title: opp Pages: 1 -->
<svg width="518pt" height="82pt"
 viewBox="0.00 0.00 518.00 82.00" xmlns="http://www.w3.org/2000/svg" xmlns:xlink="http://www.w3.org/1999/xlink">
<g id="graph0" class="graph" transform="scale(1 1) rotate(0) translate(4 78)">
<title>opp</title>
<polygon fill="transparent" stroke="transparent" points="-4,4 -4,-78 514,-78 514,4 -4,4"/>
<!-- MultiPacketPolicing -->
<g id="node1" class="node">
<title>MultiPacketPolicing</title>
<g id="a_node1"><a xlink:href="inet.queueing.policing.MultiPacketPolicing.html" xlink:title="Compound Module MultiPacketPolicing" target="_parent">
<polygon fill="#fff700" stroke="black" points="301,-74 189,-74 189,-55 301,-55 301,-74"/>
<text text-anchor="middle" x="245" y="-62" font-family="Helvetica,sans-Serif" font-size="10.00">MultiPacketPolicing</text>
</a>
</g>
</g>
<!-- IdealChannel -->
<g id="node2" class="node">
<title>IdealChannel</title>
<g id="a_node2"><a xlink:href="ned.IdealChannel.html" xlink:title="Channel IdealChannel" target="_parent">
<polygon fill="#d0ffd0" stroke="black" points="80,-19 0,-19 0,0 80,0 80,-19"/>
<text text-anchor="middle" x="40" y="-7" font-family="Helvetica,sans-Serif" font-size="10.00">IdealChannel</text>
</a>
</g>
</g>
<!-- MultiPacketPolicing&#45;&gt;IdealChannel -->
<g id="edge1" class="edge">
<title>MultiPacketPolicing&#45;&gt;IdealChannel</title>
<path fill="none" stroke="black" d="M212.06,-54.98C177.05,-45.93 121.53,-31.58 83.07,-21.64"/>
<polygon fill="black" stroke="black" points="83.75,-18.2 73.19,-19.08 82,-24.97 83.75,-18.2"/>
</g>
<!-- IPacketMeter -->
<g id="node3" class="node">
<title>IPacketMeter</title>
<g id="a_node3"><a xlink:href="inet.queueing.contract.IPacketMeter.html" xlink:title="Module Interface IPacketMeter" target="_parent">
<polygon fill="#fffcaf" stroke="black" stroke-dasharray="5,2" points="178,-19 98,-19 98,0 178,0 178,-19"/>
<text text-anchor="middle" x="138" y="-7" font-family="Helvetica,sans-Serif" font-size="10.00">IPacketMeter</text>
</a>
</g>
</g>
<!-- MultiPacketPolicing&#45;&gt;IPacketMeter -->
<g id="edge2" class="edge">
<title>MultiPacketPolicing&#45;&gt;IPacketMeter</title>
<path fill="none" stroke="black" d="M227.81,-54.98C210.75,-46.54 184.37,-33.47 164.6,-23.68"/>
<polygon fill="black" stroke="black" points="166.02,-20.47 155.5,-19.17 162.91,-26.75 166.02,-20.47"/>
</g>
<!-- IPacketClassifier -->
<g id="node4" class="node">
<title>IPacketClassifier</title>
<g id="a_node4"><a xlink:href="inet.queueing.contract.IPacketClassifier.html" xlink:title="Module Interface IPacketClassifier" target="_parent">
<polygon fill="#fffcaf" stroke="black" stroke-dasharray="5,2" points="294,-19 196,-19 196,0 294,0 294,-19"/>
<text text-anchor="middle" x="245" y="-7" font-family="Helvetica,sans-Serif" font-size="10.00">IPacketClassifier</text>
</a>
</g>
</g>
<!-- MultiPacketPolicing&#45;&gt;IPacketClassifier -->
<g id="edge3" class="edge">
<title>MultiPacketPolicing&#45;&gt;IPacketClassifier</title>
<path fill="none" stroke="black" d="M245,-54.75C245,-47.8 245,-37.85 245,-29.13"/>
<polygon fill="black" stroke="black" points="248.5,-29.09 245,-19.09 241.5,-29.09 248.5,-29.09"/>
</g>
<!-- PacketMultiplexer -->
<g id="node5" class="node">
<title>PacketMultiplexer</title>
<g id="a_node5"><a xlink:href="inet.queueing.common.PacketMultiplexer.html" xlink:title="Simple Module PacketMultiplexer" target="_parent">
<polygon fill="#fffcaf" stroke="black" points="416,-19 312,-19 312,0 416,0 416,-19"/>
<text text-anchor="middle" x="364" y="-7" font-family="Helvetica,sans-Serif" font-size="10.00">PacketMultiplexer</text>
</a>
</g>
</g>
<!-- MultiPacketPolicing&#45;&gt;PacketMultiplexer -->
<g id="edge4" class="edge">
<title>MultiPacketPolicing&#45;&gt;PacketMultiplexer</title>
<path fill="none" stroke="black" d="M264.12,-54.98C283.35,-46.42 313.23,-33.11 335.31,-23.28"/>
<polygon fill="black" stroke="black" points="336.82,-26.44 344.53,-19.17 333.97,-20.04 336.82,-26.44"/>
</g>
<!-- IPacketFilter -->
<g id="node6" class="node">
<title>IPacketFilter</title>
<g id="a_node6"><a xlink:href="inet.queueing.contract.IPacketFilter.html" xlink:title="Module Interface IPacketFilter" target="_parent">
<polygon fill="#fffcaf" stroke="black" stroke-dasharray="5,2" points="510,-19 434,-19 434,0 510,0 510,-19"/>
<text text-anchor="middle" x="472" y="-7" font-family="Helvetica,sans-Serif" font-size="10.00">IPacketFilter</text>
</a>
</g>
</g>
<!-- MultiPacketPolicing&#45;&gt;IPacketFilter -->
<g id="edge5" class="edge">
<title>MultiPacketPolicing&#45;&gt;IPacketFilter</title>
<path fill="none" stroke="black" d="M281.47,-54.98C320.57,-45.86 382.77,-31.33 425.39,-21.38"/>
<polygon fill="black" stroke="black" points="426.3,-24.76 435.24,-19.08 424.71,-17.95 426.3,-24.76"/>
</g>
</g>
</svg>
