<?xml version="1.0" encoding="UTF-8" standalone="no"?>
<!DOCTYPE svg PUBLIC "-//W3C//DTD SVG 1.1//EN"
 "http://www.w3.org/Graphics/SVG/1.1/DTD/svg11.dtd">
<!-- Generated by graphviz version 2.43.0 (0)
 -->
<!-- Title: opp Pages: 1 -->
<svg width="1712pt" height="137pt"
 viewBox="0.00 0.00 1712.00 137.00" xmlns="http://www.w3.org/2000/svg" xmlns:xlink="http://www.w3.org/1999/xlink">
<g id="graph0" class="graph" transform="scale(1 1) rotate(0) translate(4 133)">
<title>opp</title>
<polygon fill="transparent" stroke="transparent" points="-4,4 -4,-133 1708,-133 1708,4 -4,4"/>
<!-- TsnDevice -->
<g id="node1" class="node">
<title>TsnDevice</title>
<g id="a_node1"><a xlink:href="inet.node.tsn.TsnDevice.html" xlink:title="Compound Module TsnDevice" target="_parent">
<polygon fill="#fff700" stroke="black" points="879,-74 813,-74 813,-55 879,-55 879,-74"/>
<text text-anchor="middle" x="846" y="-62" font-family="Helvetica,sans-Serif" font-size="10.00">TsnDevice</text>
</a>
</g>
</g>
<!-- IApp -->
<g id="node2" class="node">
<title>IApp</title>
<g id="a_node2"><a xlink:href="inet.applications.contract.IApp.html" xlink:title="Module Interface IApp" target="_parent">
<polygon fill="#fffcaf" stroke="black" stroke-dasharray="5,2" points="873,-19 819,-19 819,0 873,0 873,-19"/>
<text text-anchor="middle" x="846" y="-7" font-family="Helvetica,sans-Serif" font-size="10.00">IApp</text>
</a>
</g>
</g>
<!-- TsnDevice&#45;&gt;IApp -->
<g id="edge1" class="edge">
<title>TsnDevice&#45;&gt;IApp</title>
<path fill="none" stroke="black" d="M846,-54.75C846,-47.8 846,-37.85 846,-29.13"/>
<polygon fill="black" stroke="black" points="849.5,-29.09 846,-19.09 842.5,-29.09 849.5,-29.09"/>
</g>
<!-- AutomaticFailureProtectionShowcase -->
<g id="node3" class="node">
<title>AutomaticFailureProtectionShowcase</title>
<g id="a_node3"><a xlink:href="inet.showcases.tsn.framereplication.automaticfailureprotection.AutomaticFailureProtectionShowcase.html" xlink:title="Network AutomaticFailureProtectionShowcase" target="_parent">
<polygon fill="#d0d0ff" stroke="black" points="198,-129 0,-129 0,-110 198,-110 198,-129"/>
<text text-anchor="middle" x="99" y="-117" font-family="Helvetica,sans-Serif" font-size="10.00">AutomaticFailureProtectionShowcase</text>
</a>
</g>
</g>
<!-- AutomaticFailureProtectionShowcase&#45;&gt;TsnDevice -->
<g id="edge2" class="edge">
<title>AutomaticFailureProtectionShowcase&#45;&gt;TsnDevice</title>
<path fill="none" stroke="black" d="M198.16,-110.66C201.14,-110.44 204.09,-110.22 207,-110 431.09,-93.38 699.52,-75.27 802.69,-68.38"/>
<polygon fill="black" stroke="black" points="802.99,-71.87 812.73,-67.71 802.52,-64.88 802.99,-71.87"/>
</g>
<!-- AutomaticMultipathConfigurationShowcase -->
<g id="node4" class="node">
<title>AutomaticMultipathConfigurationShowcase</title>
<g id="a_node4"><a xlink:href="inet.showcases.tsn.framereplication.automaticmultipathconfiguration.AutomaticMultipathConfigurationShowcase.html" xlink:title="Network AutomaticMultipathConfigurationShowcase" target="_parent">
<polygon fill="#d0d0ff" stroke="black" points="444,-129 216,-129 216,-110 444,-110 444,-129"/>
<text text-anchor="middle" x="330" y="-117" font-family="Helvetica,sans-Serif" font-size="10.00">AutomaticMultipathConfigurationShowcase</text>
</a>
</g>
</g>
<!-- AutomaticMultipathConfigurationShowcase&#45;&gt;TsnDevice -->
<g id="edge3" class="edge">
<title>AutomaticMultipathConfigurationShowcase&#45;&gt;TsnDevice</title>
<path fill="none" stroke="black" d="M412.9,-109.98C523.94,-98.58 716.89,-78.76 802.7,-69.95"/>
<polygon fill="black" stroke="black" points="803.28,-73.41 812.87,-68.9 802.56,-66.44 803.28,-73.41"/>
</g>
<!-- CutthroughSwitchingShowcase -->
<g id="node5" class="node">
<title>CutthroughSwitchingShowcase</title>
<g id="a_node5"><a xlink:href="inet.showcases.tsn.cutthroughswitching.CutthroughSwitchingShowcase.html" xlink:title="Network CutthroughSwitchingShowcase" target="_parent">
<polygon fill="#d0d0ff" stroke="black" points="629.5,-129 462.5,-129 462.5,-110 629.5,-110 629.5,-129"/>
<text text-anchor="middle" x="546" y="-117" font-family="Helvetica,sans-Serif" font-size="10.00">CutthroughSwitchingShowcase</text>
</a>
</g>
</g>
<!-- CutthroughSwitchingShowcase&#45;&gt;TsnDevice -->
<g id="edge4" class="edge">
<title>CutthroughSwitchingShowcase&#45;&gt;TsnDevice</title>
<path fill="none" stroke="black" d="M594.2,-109.98C651.77,-99.81 747.23,-82.95 802.6,-73.17"/>
<polygon fill="black" stroke="black" points="803.54,-76.56 812.78,-71.37 802.32,-69.66 803.54,-76.56"/>
</g>
<!-- FrerAndTasShowcase -->
<g id="node6" class="node">
<title>FrerAndTasShowcase</title>
<g id="a_node6"><a xlink:href="inet.showcases.tsn.combiningfeatures.frerandtas.FrerAndTasShowcase.html" xlink:title="Network FrerAndTasShowcase" target="_parent">
<polygon fill="#d0d0ff" stroke="black" points="766.5,-129 647.5,-129 647.5,-110 766.5,-110 766.5,-129"/>
<text text-anchor="middle" x="707" y="-117" font-family="Helvetica,sans-Serif" font-size="10.00">FrerAndTasShowcase</text>
</a>
</g>
</g>
<!-- FrerAndTasShowcase&#45;&gt;TsnDevice -->
<g id="edge5" class="edge">
<title>FrerAndTasShowcase&#45;&gt;TsnDevice</title>
<path fill="none" stroke="black" d="M729.33,-109.98C752.2,-101.27 787.96,-87.63 813.86,-77.75"/>
<polygon fill="black" stroke="black" points="815.16,-81 823.26,-74.17 812.67,-74.46 815.16,-81"/>
</g>
<!-- GptpAndTasShowcase -->
<g id="node7" class="node">
<title>GptpAndTasShowcase</title>
<g id="a_node7"><a xlink:href="inet.showcases.tsn.combiningfeatures.gptpandtas.GptpAndTasShowcase.html" xlink:title="Network GptpAndTasShowcase" target="_parent">
<polygon fill="#d0d0ff" stroke="black" points="907.5,-129 784.5,-129 784.5,-110 907.5,-110 907.5,-129"/>
<text text-anchor="middle" x="846" y="-117" font-family="Helvetica,sans-Serif" font-size="10.00">GptpAndTasShowcase</text>
</a>
</g>
</g>
<!-- GptpAndTasShowcase&#45;&gt;TsnDevice -->
<g id="edge6" class="edge">
<title>GptpAndTasShowcase&#45;&gt;TsnDevice</title>
<path fill="none" stroke="black" d="M846,-109.75C846,-102.8 846,-92.85 846,-84.13"/>
<polygon fill="black" stroke="black" points="849.5,-84.09 846,-74.09 842.5,-84.09 849.5,-84.09"/>
</g>
<!-- ManualConfigurationShowcase -->
<g id="node8" class="node">
<title>ManualConfigurationShowcase</title>
<g id="a_node8"><a xlink:href="inet.showcases.tsn.framereplication.manualconfiguration.ManualConfigurationShowcase.html" xlink:title="Network ManualConfigurationShowcase" target="_parent">
<polygon fill="#d0d0ff" stroke="black" points="1092.5,-129 925.5,-129 925.5,-110 1092.5,-110 1092.5,-129"/>
<text text-anchor="middle" x="1009" y="-117" font-family="Helvetica,sans-Serif" font-size="10.00">ManualConfigurationShowcase</text>
</a>
</g>
</g>
<!-- ManualConfigurationShowcase&#45;&gt;TsnDevice -->
<g id="edge7" class="edge">
<title>ManualConfigurationShowcase&#45;&gt;TsnDevice</title>
<path fill="none" stroke="black" d="M982.81,-109.98C955.56,-101.13 912.7,-87.19 882.22,-77.28"/>
<polygon fill="black" stroke="black" points="882.99,-73.85 872.39,-74.08 880.82,-80.5 882.99,-73.85"/>
</g>
<!-- OneMasterClockGptpShowcase -->
<g id="node9" class="node">
<title>OneMasterClockGptpShowcase</title>
<g id="a_node9"><a xlink:href="inet.showcases.tsn.timesynchronization.gptp.OneMasterClockGptpShowcase.html" xlink:title="Network OneMasterClockGptpShowcase" target="_parent">
<polygon fill="#d0d0ff" stroke="black" points="1279.5,-129 1110.5,-129 1110.5,-110 1279.5,-110 1279.5,-129"/>
<text text-anchor="middle" x="1195" y="-117" font-family="Helvetica,sans-Serif" font-size="10.00">OneMasterClockGptpShowcase</text>
</a>
</g>
</g>
<!-- OneMasterClockGptpShowcase&#45;&gt;TsnDevice -->
<g id="edge8" class="edge">
<title>OneMasterClockGptpShowcase&#45;&gt;TsnDevice</title>
<path fill="none" stroke="black" d="M1138.93,-109.98C1069.39,-99.42 952.33,-81.65 889.3,-72.08"/>
<polygon fill="black" stroke="black" points="889.71,-68.6 879.3,-70.56 888.66,-75.52 889.71,-68.6"/>
</g>
<!-- TwoMasterClocksRingGptpShowcase -->
<g id="node10" class="node">
<title>TwoMasterClocksRingGptpShowcase</title>
<g id="a_node10"><a xlink:href="inet.showcases.tsn.timesynchronization.gptp.TwoMasterClocksRingGptpShowcase.html" xlink:title="Network TwoMasterClocksRingGptpShowcase" target="_parent">
<polygon fill="#d0d0ff" stroke="black" points="1492.5,-129 1297.5,-129 1297.5,-110 1492.5,-110 1492.5,-129"/>
<text text-anchor="middle" x="1395" y="-117" font-family="Helvetica,sans-Serif" font-size="10.00">TwoMasterClocksRingGptpShowcase</text>
</a>
</g>
</g>
<!-- TwoMasterClocksRingGptpShowcase&#45;&gt;TsnDevice -->
<g id="edge9" class="edge">
<title>TwoMasterClocksRingGptpShowcase&#45;&gt;TsnDevice</title>
<path fill="none" stroke="black" d="M1306.79,-109.98C1187.4,-98.46 978.98,-78.34 889.18,-69.67"/>
<polygon fill="black" stroke="black" points="889.38,-66.17 879.09,-68.69 888.7,-73.14 889.38,-66.17"/>
</g>
<!-- TwoMasterClocksTreeGptpShowcase -->
<g id="node11" class="node">
<title>TwoMasterClocksTreeGptpShowcase</title>
<g id="a_node11"><a xlink:href="inet.showcases.tsn.timesynchronization.gptp.TwoMasterClocksTreeGptpShowcase.html" xlink:title="Network TwoMasterClocksTreeGptpShowcase" target="_parent">
<polygon fill="#d0d0ff" stroke="black" points="1704,-129 1510,-129 1510,-110 1704,-110 1704,-129"/>
<text text-anchor="middle" x="1607" y="-117" font-family="Helvetica,sans-Serif" font-size="10.00">TwoMasterClocksTreeGptpShowcase</text>
</a>
</g>
</g>
<!-- TwoMasterClocksTreeGptpShowcase&#45;&gt;TsnDevice -->
<g id="edge10" class="edge">
<title>TwoMasterClocksTreeGptpShowcase&#45;&gt;TsnDevice</title>
<path fill="none" stroke="black" d="M1509.75,-110.58C1507.14,-110.38 1504.55,-110.19 1502,-110 1271.16,-92.83 994.41,-74.94 889.33,-68.24"/>
<polygon fill="black" stroke="black" points="889.32,-64.74 879.12,-67.59 888.88,-71.72 889.32,-64.74"/>
</g>
</g>
</svg>
