<?xml version="1.0" encoding="UTF-8" standalone="no"?>
<!DOCTYPE svg PUBLIC "-//W3C//DTD SVG 1.1//EN"
 "http://www.w3.org/Graphics/SVG/1.1/DTD/svg11.dtd">
<!-- Generated by graphviz version 2.43.0 (0)
 -->
<!-- Title: opp Pages: 1 -->
<svg width="526pt" height="137pt"
 viewBox="0.00 0.00 526.00 137.00" xmlns="http://www.w3.org/2000/svg" xmlns:xlink="http://www.w3.org/1999/xlink">
<g id="graph0" class="graph" transform="scale(1 1) rotate(0) translate(4 133)">
<title>opp</title>
<polygon fill="transparent" stroke="transparent" points="-4,4 -4,-133 522,-133 522,4 -4,4"/>
<!-- TransportRouteVisualizer -->
<g id="node1" class="node">
<title>TransportRouteVisualizer</title>
<g id="a_node1"><a xlink:href="inet.visualizer.common.TransportRouteVisualizer.html" xlink:title="Compound Module TransportRouteVisualizer" target="_parent">
<polygon fill="#fff700" stroke="black" points="325,-74 186,-74 186,-55 325,-55 325,-74"/>
<text text-anchor="middle" x="255.5" y="-62" font-family="Helvetica,sans-Serif" font-size="10.00">TransportRouteVisualizer</text>
</a>
</g>
</g>
<!-- ITransportRouteVisualizer -->
<g id="node2" class="node">
<title>ITransportRouteVisualizer</title>
<g id="a_node2"><a xlink:href="inet.visualizer.contract.ITransportRouteVisualizer.html" xlink:title="Module Interface ITransportRouteVisualizer" target="_parent">
<polygon fill="#fffcaf" stroke="black" stroke-dasharray="5,2" points="326.5,-19 184.5,-19 184.5,0 326.5,0 326.5,-19"/>
<text text-anchor="middle" x="255.5" y="-7" font-family="Helvetica,sans-Serif" font-size="10.00">ITransportRouteVisualizer</text>
</a>
</g>
</g>
<!-- TransportRouteVisualizer&#45;&gt;ITransportRouteVisualizer -->
<g id="edge1" class="edge">
<title>TransportRouteVisualizer&#45;&gt;ITransportRouteVisualizer</title>
<path fill="none" stroke="black" d="M255.5,-54.75C255.5,-47.8 255.5,-37.85 255.5,-29.13"/>
<polygon fill="black" stroke="black" points="259,-29.09 255.5,-19.09 252,-29.09 259,-29.09"/>
</g>
<!-- TransportPathVisualizerSimpleWiredShowcase -->
<g id="node3" class="node">
<title>TransportPathVisualizerSimpleWiredShowcase</title>
<g id="a_node3"><a xlink:href="inet.showcases.visualizer.canvas.transportpathactivity.TransportPathVisualizerSimpleWiredShowcase.html" xlink:title="Network TransportPathVisualizerSimpleWiredShowcase" target="_parent">
<polygon fill="#d0d0ff" stroke="black" points="243,-129 0,-129 0,-110 243,-110 243,-129"/>
<text text-anchor="middle" x="121.5" y="-117" font-family="Helvetica,sans-Serif" font-size="10.00">TransportPathVisualizerSimpleWiredShowcase</text>
</a>
</g>
</g>
<!-- TransportPathVisualizerSimpleWiredShowcase&#45;&gt;TransportRouteVisualizer -->
<g id="edge2" class="edge">
<title>TransportPathVisualizerSimpleWiredShowcase&#45;&gt;TransportRouteVisualizer</title>
<path fill="none" stroke="black" d="M143.03,-109.98C164.97,-101.3 199.24,-87.75 224.19,-77.88"/>
<polygon fill="black" stroke="black" points="225.57,-81.1 233.58,-74.17 222.99,-74.59 225.57,-81.1"/>
</g>
<!-- TransportPathVisualizerSimpleWirelessShowcase -->
<g id="node4" class="node">
<title>TransportPathVisualizerSimpleWirelessShowcase</title>
<g id="a_node4"><a xlink:href="inet.showcases.visualizer.canvas.transportpathactivity.TransportPathVisualizerSimpleWirelessShowcase.html" xlink:title="Network TransportPathVisualizerSimpleWirelessShowcase" target="_parent">
<polygon fill="#d0d0ff" stroke="black" points="518,-129 261,-129 261,-110 518,-110 518,-129"/>
<text text-anchor="middle" x="389.5" y="-117" font-family="Helvetica,sans-Serif" font-size="10.00">TransportPathVisualizerSimpleWirelessShowcase</text>
</a>
</g>
</g>
<!-- TransportPathVisualizerSimpleWirelessShowcase&#45;&gt;TransportRouteVisualizer -->
<g id="edge3" class="edge">
<title>TransportPathVisualizerSimpleWirelessShowcase&#45;&gt;TransportRouteVisualizer</title>
<path fill="none" stroke="black" d="M367.97,-109.98C346.03,-101.3 311.76,-87.75 286.81,-77.88"/>
<polygon fill="black" stroke="black" points="288.01,-74.59 277.42,-74.17 285.43,-81.1 288.01,-74.59"/>
</g>
</g>
</svg>
