<?xml version="1.0" encoding="UTF-8" standalone="no"?>
<!DOCTYPE svg PUBLIC "-//W3C//DTD SVG 1.1//EN"
 "http://www.w3.org/Graphics/SVG/1.1/DTD/svg11.dtd">
<!-- Generated by graphviz version 2.43.0 (0)
 -->
<!-- Title: opp Pages: 1 -->
<svg width="3144pt" height="137pt"
 viewBox="0.00 0.00 3144.00 137.00" xmlns="http://www.w3.org/2000/svg" xmlns:xlink="http://www.w3.org/1999/xlink">
<g id="graph0" class="graph" transform="scale(1 1) rotate(0) translate(4 133)">
<title>opp</title>
<polygon fill="transparent" stroke="transparent" points="-4,4 -4,-133 3140,-133 3140,4 -4,4"/>
<!-- WiredNetworkBase -->
<g id="node1" class="node">
<title>WiredNetworkBase</title>
<g id="a_node1"><a xlink:href="inet.networks.base.WiredNetworkBase.html" xlink:title="Network WiredNetworkBase" target="_parent">
<polygon fill="#9090ff" stroke="black" points="1644,-74 1534,-74 1534,-55 1644,-55 1644,-74"/>
<text text-anchor="middle" x="1589" y="-62" font-family="Helvetica,sans-Serif" font-size="10.00">WiredNetworkBase</text>
</a>
</g>
</g>
<!-- ChannelThroughputMeasurementShowcase -->
<g id="node3" class="node">
<title>ChannelThroughputMeasurementShowcase</title>
<g id="a_node3"><a xlink:href="inet.showcases.measurement.throughput.ChannelThroughputMeasurementShowcase.html" xlink:title="Network ChannelThroughputMeasurementShowcase" target="_parent">
<polygon fill="#d0d0ff" stroke="black" points="228,-19 0,-19 0,0 228,0 228,-19"/>
<text text-anchor="middle" x="114" y="-7" font-family="Helvetica,sans-Serif" font-size="10.00">ChannelThroughputMeasurementShowcase</text>
</a>
</g>
</g>
<!-- WiredNetworkBase&#45;&gt;ChannelThroughputMeasurementShowcase -->
<g id="edge2" class="edge">
<title>WiredNetworkBase&#45;&gt;ChannelThroughputMeasurementShowcase</title>
<path fill="none" stroke="black" d="M1533.92,-62.4C1350.01,-58.58 740.39,-44.67 237,-19 234.11,-18.85 231.19,-18.7 228.24,-18.54"/>
</g>
<!-- ChannelUtilizationMeasurementShowcase -->
<g id="node4" class="node">
<title>ChannelUtilizationMeasurementShowcase</title>
<g id="a_node4"><a xlink:href="inet.showcases.measurement.utilization.ChannelUtilizationMeasurementShowcase.html" xlink:title="Network ChannelUtilizationMeasurementShowcase" target="_parent">
<polygon fill="#d0d0ff" stroke="black" points="469.5,-19 246.5,-19 246.5,0 469.5,0 469.5,-19"/>
<text text-anchor="middle" x="358" y="-7" font-family="Helvetica,sans-Serif" font-size="10.00">ChannelUtilizationMeasurementShowcase</text>
</a>
</g>
</g>
<!-- WiredNetworkBase&#45;&gt;ChannelUtilizationMeasurementShowcase -->
<g id="edge3" class="edge">
<title>WiredNetworkBase&#45;&gt;ChannelUtilizationMeasurementShowcase</title>
<path fill="none" stroke="black" d="M1533.82,-61.88C1371.84,-56.98 883.64,-41.32 479,-19 475.95,-18.83 472.86,-18.66 469.74,-18.47"/>
</g>
<!-- ClockDriftShowcase -->
<g id="node5" class="node">
<title>ClockDriftShowcase</title>
<g id="a_node5"><a xlink:href="inet.showcases.tsn.timesynchronization.clockdrift.ClockDriftShowcase.html" xlink:title="Network ClockDriftShowcase" target="_parent">
<polygon fill="#d0d0ff" stroke="black" points="602,-19 488,-19 488,0 602,0 602,-19"/>
<text text-anchor="middle" x="545" y="-7" font-family="Helvetica,sans-Serif" font-size="10.00">ClockDriftShowcase</text>
</a>
</g>
</g>
<!-- WiredNetworkBase&#45;&gt;ClockDriftShowcase -->
<g id="edge4" class="edge">
<title>WiredNetworkBase&#45;&gt;ClockDriftShowcase</title>
<path fill="none" stroke="black" d="M1533.75,-62.58C1384.62,-59.77 961.51,-49.49 611,-19 608.12,-18.75 605.18,-18.47 602.21,-18.16"/>
</g>
<!-- DataRateMeasurementShowcase -->
<g id="node6" class="node">
<title>DataRateMeasurementShowcase</title>
<g id="a_node6"><a xlink:href="inet.showcases.measurement.datarate.DataRateMeasurementShowcase.html" xlink:title="Network DataRateMeasurementShowcase" target="_parent">
<polygon fill="#d0d0ff" stroke="black" points="799.5,-19 620.5,-19 620.5,0 799.5,0 799.5,-19"/>
<text text-anchor="middle" x="710" y="-7" font-family="Helvetica,sans-Serif" font-size="10.00">DataRateMeasurementShowcase</text>
</a>
</g>
</g>
<!-- WiredNetworkBase&#45;&gt;DataRateMeasurementShowcase -->
<g id="edge5" class="edge">
<title>WiredNetworkBase&#45;&gt;DataRateMeasurementShowcase</title>
<path fill="none" stroke="black" d="M1533.57,-60.91C1405.65,-54.8 1079.94,-38.54 808,-19 805.27,-18.8 802.51,-18.6 799.71,-18.39"/>
</g>
<!-- DumbbellNetwork -->
<g id="node7" class="node">
<title>DumbbellNetwork</title>
<g id="a_node7"><a xlink:href="inet.networks.ethernet.DumbbellNetwork.html" xlink:title="Network DumbbellNetwork" target="_parent">
<polygon fill="#d0d0ff" stroke="black" points="922.5,-19 817.5,-19 817.5,0 922.5,0 922.5,-19"/>
<text text-anchor="middle" x="870" y="-7" font-family="Helvetica,sans-Serif" font-size="10.00">DumbbellNetwork</text>
</a>
</g>
</g>
<!-- WiredNetworkBase&#45;&gt;DumbbellNetwork -->
<g id="edge6" class="edge">
<title>WiredNetworkBase&#45;&gt;DumbbellNetwork</title>
<path fill="none" stroke="black" d="M1533.95,-61.05C1420.93,-55.74 1154.63,-41.77 932,-19 928.97,-18.69 925.87,-18.35 922.74,-17.98"/>
</g>
<!-- EndToEndDelayMeasurementShowcase -->
<g id="node8" class="node">
<title>EndToEndDelayMeasurementShowcase</title>
<g id="a_node8"><a xlink:href="inet.showcases.measurement.endtoenddelay.EndToEndDelayMeasurementShowcase.html" xlink:title="Network EndToEndDelayMeasurementShowcase" target="_parent">
<polygon fill="#d0d0ff" stroke="black" points="1149,-19 941,-19 941,0 1149,0 1149,-19"/>
<text text-anchor="middle" x="1045" y="-7" font-family="Helvetica,sans-Serif" font-size="10.00">EndToEndDelayMeasurementShowcase</text>
</a>
</g>
</g>
<!-- WiredNetworkBase&#45;&gt;EndToEndDelayMeasurementShowcase -->
<g id="edge7" class="edge">
<title>WiredNetworkBase&#45;&gt;EndToEndDelayMeasurementShowcase</title>
<path fill="none" stroke="black" d="M1533.84,-58.13C1439.3,-48.92 1245.58,-30.04 1132.45,-19.02"/>
</g>
<!-- FlowMeasurementShowcase -->
<g id="node9" class="node">
<title>FlowMeasurementShowcase</title>
<g id="a_node9"><a xlink:href="inet.showcases.measurement.flow.FlowMeasurementShowcase.html" xlink:title="Network FlowMeasurementShowcase" target="_parent">
<polygon fill="#d0d0ff" stroke="black" points="1323,-19 1167,-19 1167,0 1323,0 1323,-19"/>
<text text-anchor="middle" x="1245" y="-7" font-family="Helvetica,sans-Serif" font-size="10.00">FlowMeasurementShowcase</text>
</a>
</g>
</g>
<!-- WiredNetworkBase&#45;&gt;FlowMeasurementShowcase -->
<g id="edge8" class="edge">
<title>WiredNetworkBase&#45;&gt;FlowMeasurementShowcase</title>
<path fill="none" stroke="black" d="M1533.73,-54.98C1469.63,-45.11 1364.58,-28.92 1300.42,-19.04"/>
</g>
<!-- FramePreemptionShowcase -->
<g id="node10" class="node">
<title>FramePreemptionShowcase</title>
<g id="a_node10"><a xlink:href="inet.showcases.tsn.framepreemption.FramePreemptionShowcase.html" xlink:title="Network FramePreemptionShowcase" target="_parent">
<polygon fill="#d0d0ff" stroke="black" points="1493,-19 1341,-19 1341,0 1493,0 1493,-19"/>
<text text-anchor="middle" x="1417" y="-7" font-family="Helvetica,sans-Serif" font-size="10.00">FramePreemptionShowcase</text>
</a>
</g>
</g>
<!-- WiredNetworkBase&#45;&gt;FramePreemptionShowcase -->
<g id="edge9" class="edge">
<title>WiredNetworkBase&#45;&gt;FramePreemptionShowcase</title>
<path fill="none" stroke="black" d="M1561.37,-54.98C1529.36,-45.12 1476.95,-28.97 1444.85,-19.08"/>
</g>
<!-- JitterMeasurementShowcase -->
<g id="node11" class="node">
<title>JitterMeasurementShowcase</title>
<g id="a_node11"><a xlink:href="inet.showcases.measurement.jitter.JitterMeasurementShowcase.html" xlink:title="Network JitterMeasurementShowcase" target="_parent">
<polygon fill="#d0d0ff" stroke="black" points="1667,-19 1511,-19 1511,0 1667,0 1667,-19"/>
<text text-anchor="middle" x="1589" y="-7" font-family="Helvetica,sans-Serif" font-size="10.00">JitterMeasurementShowcase</text>
</a>
</g>
</g>
<!-- WiredNetworkBase&#45;&gt;JitterMeasurementShowcase -->
<g id="edge10" class="edge">
<title>WiredNetworkBase&#45;&gt;JitterMeasurementShowcase</title>
<path fill="none" stroke="black" d="M1589,-54.75C1589,-44.87 1589,-28.9 1589,-19.09"/>
</g>
<!-- LinearNetwork -->
<g id="node12" class="node">
<title>LinearNetwork</title>
<g id="a_node12"><a xlink:href="inet.networks.ethernet.LinearNetwork.html" xlink:title="Network LinearNetwork" target="_parent">
<polygon fill="#d0d0ff" stroke="black" points="1773,-19 1685,-19 1685,0 1773,0 1773,-19"/>
<text text-anchor="middle" x="1729" y="-7" font-family="Helvetica,sans-Serif" font-size="10.00">LinearNetwork</text>
</a>
</g>
</g>
<!-- WiredNetworkBase&#45;&gt;LinearNetwork -->
<g id="edge11" class="edge">
<title>WiredNetworkBase&#45;&gt;LinearNetwork</title>
<path fill="none" stroke="black" d="M1611.49,-54.98C1637.46,-45.15 1679.95,-29.07 1706.1,-19.17"/>
</g>
<!-- MeasurementRelationshipsShowcase -->
<g id="node13" class="node">
<title>MeasurementRelationshipsShowcase</title>
<g id="a_node13"><a xlink:href="inet.showcases.measurement.relationships.MeasurementRelationshipsShowcase.html" xlink:title="Network MeasurementRelationshipsShowcase" target="_parent">
<polygon fill="#d0d0ff" stroke="black" points="1990.5,-19 1791.5,-19 1791.5,0 1990.5,0 1990.5,-19"/>
<text text-anchor="middle" x="1891" y="-7" font-family="Helvetica,sans-Serif" font-size="10.00">MeasurementRelationshipsShowcase</text>
</a>
</g>
</g>
<!-- WiredNetworkBase&#45;&gt;MeasurementRelationshipsShowcase -->
<g id="edge12" class="edge">
<title>WiredNetworkBase&#45;&gt;MeasurementRelationshipsShowcase</title>
<path fill="none" stroke="black" d="M1637.52,-54.98C1693.79,-45.11 1786.02,-28.92 1842.35,-19.04"/>
</g>
<!-- PropagationTimeMeasurementShowcase -->
<g id="node14" class="node">
<title>PropagationTimeMeasurementShowcase</title>
<g id="a_node14"><a xlink:href="inet.showcases.measurement.propagationtime.PropagationTimeMeasurementShowcase.html" xlink:title="Network PropagationTimeMeasurementShowcase" target="_parent">
<polygon fill="#d0d0ff" stroke="black" points="2223.5,-19 2008.5,-19 2008.5,0 2223.5,0 2223.5,-19"/>
<text text-anchor="middle" x="2116" y="-7" font-family="Helvetica,sans-Serif" font-size="10.00">PropagationTimeMeasurementShowcase</text>
</a>
</g>
</g>
<!-- WiredNetworkBase&#45;&gt;PropagationTimeMeasurementShowcase -->
<g id="edge13" class="edge">
<title>WiredNetworkBase&#45;&gt;PropagationTimeMeasurementShowcase</title>
<path fill="none" stroke="black" d="M1644.4,-57.93C1736.63,-48.65 1922.25,-29.99 2031.08,-19.04"/>
</g>
<!-- QueueingTimeMeasurementShowcase -->
<g id="node15" class="node">
<title>QueueingTimeMeasurementShowcase</title>
<g id="a_node15"><a xlink:href="inet.showcases.measurement.queueingtime.QueueingTimeMeasurementShowcase.html" xlink:title="Network QueueingTimeMeasurementShowcase" target="_parent">
<polygon fill="#d0d0ff" stroke="black" points="2444.5,-19 2241.5,-19 2241.5,0 2444.5,0 2444.5,-19"/>
<text text-anchor="middle" x="2343" y="-7" font-family="Helvetica,sans-Serif" font-size="10.00">QueueingTimeMeasurementShowcase</text>
</a>
</g>
</g>
<!-- WiredNetworkBase&#45;&gt;QueueingTimeMeasurementShowcase -->
<g id="edge14" class="edge">
<title>WiredNetworkBase&#45;&gt;QueueingTimeMeasurementShowcase</title>
<path fill="none" stroke="black" d="M1644.14,-59.84C1755.47,-52.42 2015.04,-34.95 2233,-19 2235.77,-18.8 2238.58,-18.59 2241.41,-18.38"/>
</g>
<!-- ResidenceTimeMeasurementShowcase -->
<g id="node16" class="node">
<title>ResidenceTimeMeasurementShowcase</title>
<g id="a_node16"><a xlink:href="inet.showcases.measurement.residencetime.ResidenceTimeMeasurementShowcase.html" xlink:title="Network ResidenceTimeMeasurementShowcase" target="_parent">
<polygon fill="#d0d0ff" stroke="black" points="2669.5,-19 2462.5,-19 2462.5,0 2669.5,0 2669.5,-19"/>
<text text-anchor="middle" x="2566" y="-7" font-family="Helvetica,sans-Serif" font-size="10.00">ResidenceTimeMeasurementShowcase</text>
</a>
</g>
</g>
<!-- WiredNetworkBase&#45;&gt;ResidenceTimeMeasurementShowcase -->
<g id="edge15" class="edge">
<title>WiredNetworkBase&#45;&gt;ResidenceTimeMeasurementShowcase</title>
<path fill="none" stroke="black" d="M1644.18,-61.13C1781.25,-55.13 2148.24,-38.46 2454,-19 2456.72,-18.83 2459.49,-18.65 2462.27,-18.46"/>
</g>
<!-- TimingExample -->
<g id="node17" class="node">
<title>TimingExample</title>
<g id="a_node17"><a xlink:href="inet.examples.timing.TimingExample.html" xlink:title="Network TimingExample" target="_parent">
<polygon fill="#d0d0ff" stroke="black" points="2780,-19 2688,-19 2688,0 2780,0 2780,-19"/>
<text text-anchor="middle" x="2734" y="-7" font-family="Helvetica,sans-Serif" font-size="10.00">TimingExample</text>
</a>
</g>
</g>
<!-- WiredNetworkBase&#45;&gt;TimingExample -->
<g id="edge16" class="edge">
<title>WiredNetworkBase&#45;&gt;TimingExample</title>
<path fill="none" stroke="black" d="M1644.16,-63.44C1804.41,-62.78 2283.62,-57.5 2679,-19 2681.88,-18.72 2684.85,-18.39 2687.83,-18.02"/>
</g>
<!-- TransmissionTimeMeasurementShowcase -->
<g id="node18" class="node">
<title>TransmissionTimeMeasurementShowcase</title>
<g id="a_node18"><a xlink:href="inet.showcases.measurement.transmissiontime.TransmissionTimeMeasurementShowcase.html" xlink:title="Network TransmissionTimeMeasurementShowcase" target="_parent">
<polygon fill="#d0d0ff" stroke="black" points="3019.5,-19 2798.5,-19 2798.5,0 3019.5,0 3019.5,-19"/>
<text text-anchor="middle" x="2909" y="-7" font-family="Helvetica,sans-Serif" font-size="10.00">TransmissionTimeMeasurementShowcase</text>
</a>
</g>
</g>
<!-- WiredNetworkBase&#45;&gt;TransmissionTimeMeasurementShowcase -->
<g id="edge17" class="edge">
<title>WiredNetworkBase&#45;&gt;TransmissionTimeMeasurementShowcase</title>
<path fill="none" stroke="black" d="M1644.05,-62.12C1814.34,-57.7 2347.67,-42.81 2789,-19 2792.02,-18.84 2795.09,-18.66 2798.18,-18.49"/>
</g>
<!-- TsnNetworkBase -->
<g id="node19" class="node">
<title>TsnNetworkBase</title>
<g id="a_node19"><a xlink:href="inet.networks.base.TsnNetworkBase.html" xlink:title="Network TsnNetworkBase" target="_parent">
<polygon fill="#d0d0ff" stroke="black" points="3136,-19 3038,-19 3038,0 3136,0 3136,-19"/>
<text text-anchor="middle" x="3087" y="-7" font-family="Helvetica,sans-Serif" font-size="10.00">TsnNetworkBase</text>
</a>
</g>
</g>
<!-- WiredNetworkBase&#45;&gt;TsnNetworkBase -->
<g id="edge18" class="edge">
<title>WiredNetworkBase&#45;&gt;TsnNetworkBase</title>
<path fill="none" stroke="black" d="M1644.21,-62.64C1873.63,-58.94 2752.6,-43.44 3029,-19 3031.94,-18.74 3034.96,-18.43 3038,-18.08"/>
</g>
<!-- NetworkBase -->
<g id="node2" class="node">
<title>NetworkBase</title>
<g id="a_node2"><a xlink:href="inet.networks.base.NetworkBase.html" xlink:title="Network NetworkBase" target="_parent">
<polygon fill="#d0d0ff" stroke="black" points="1630,-129 1548,-129 1548,-110 1630,-110 1630,-129"/>
<text text-anchor="middle" x="1589" y="-117" font-family="Helvetica,sans-Serif" font-size="10.00">NetworkBase</text>
</a>
</g>
</g>
<!-- NetworkBase&#45;&gt;WiredNetworkBase -->
<g id="edge1" class="edge">
<title>NetworkBase&#45;&gt;WiredNetworkBase</title>
<path fill="none" stroke="black" d="M1589,-109.75C1589,-99.87 1589,-83.9 1589,-74.09"/>
</g>
</g>
</svg>
