<?xml version="1.0" encoding="UTF-8" standalone="no"?>
<!DOCTYPE svg PUBLIC "-//W3C//DTD SVG 1.1//EN"
 "http://www.w3.org/Graphics/SVG/1.1/DTD/svg11.dtd">
<!-- Generated by graphviz version 2.43.0 (0)
 -->
<!-- Title: opp Pages: 1 -->
<svg width="648pt" height="82pt"
 viewBox="0.00 0.00 648.00 82.00" xmlns="http://www.w3.org/2000/svg" xmlns:xlink="http://www.w3.org/1999/xlink">
<g id="graph0" class="graph" transform="scale(1 1) rotate(0) translate(4 78)">
<title>opp</title>
<polygon fill="transparent" stroke="transparent" points="-4,4 -4,-78 644,-78 644,4 -4,4"/>
<!-- Ieee802154Showcase -->
<g id="node1" class="node">
<title>Ieee802154Showcase</title>
<g id="a_node1"><a xlink:href="inet.showcases.wireless.ieee802154.Ieee802154Showcase.html" xlink:title="Network Ieee802154Showcase" target="_parent">
<polygon fill="#9090ff" stroke="black" points="320,-74 198,-74 198,-55 320,-55 320,-74"/>
<text text-anchor="middle" x="259" y="-62" font-family="Helvetica,sans-Serif" font-size="10.00">Ieee802154Showcase</text>
</a>
</g>
</g>
<!-- IntegratedMultiVisualizer -->
<g id="node2" class="node">
<title>IntegratedMultiVisualizer</title>
<g id="a_node2"><a xlink:href="inet.visualizer.common.IntegratedMultiVisualizer.html" xlink:title="Compound Module IntegratedMultiVisualizer" target="_parent">
<polygon fill="#fffcaf" stroke="black" points="140,-19 0,-19 0,0 140,0 140,-19"/>
<text text-anchor="middle" x="70" y="-7" font-family="Helvetica,sans-Serif" font-size="10.00">IntegratedMultiVisualizer</text>
</a>
</g>
</g>
<!-- Ieee802154Showcase&#45;&gt;IntegratedMultiVisualizer -->
<g id="edge1" class="edge">
<title>Ieee802154Showcase&#45;&gt;IntegratedMultiVisualizer</title>
<path fill="none" stroke="black" d="M228.63,-54.98C196.63,-46.01 146.04,-31.82 110.62,-21.89"/>
<polygon fill="black" stroke="black" points="111.18,-18.41 100.6,-19.08 109.29,-25.15 111.18,-18.41"/>
</g>
<!-- SensorNode -->
<g id="node3" class="node">
<title>SensorNode</title>
<g id="a_node3"><a xlink:href="inet.node.inet.SensorNode.html" xlink:title="Compound Module SensorNode" target="_parent">
<polygon fill="#fffcaf" stroke="black" points="233.5,-19 158.5,-19 158.5,0 233.5,0 233.5,-19"/>
<text text-anchor="middle" x="196" y="-7" font-family="Helvetica,sans-Serif" font-size="10.00">SensorNode</text>
</a>
</g>
</g>
<!-- Ieee802154Showcase&#45;&gt;SensorNode -->
<g id="edge2" class="edge">
<title>Ieee802154Showcase&#45;&gt;SensorNode</title>
<path fill="none" stroke="black" d="M248.88,-54.98C239.56,-47.15 225.53,-35.34 214.26,-25.86"/>
<polygon fill="black" stroke="black" points="216.21,-22.93 206.31,-19.17 211.71,-28.29 216.21,-22.93"/>
</g>
<!-- Ipv4NetworkConfigurator -->
<g id="node4" class="node">
<title>Ipv4NetworkConfigurator</title>
<g id="a_node4"><a xlink:href="inet.networklayer.configurator.ipv4.Ipv4NetworkConfigurator.html" xlink:title="Simple Module Ipv4NetworkConfigurator" target="_parent">
<polygon fill="#fffcaf" stroke="black" points="392,-19 252,-19 252,0 392,0 392,-19"/>
<text text-anchor="middle" x="322" y="-7" font-family="Helvetica,sans-Serif" font-size="10.00">Ipv4NetworkConfigurator</text>
</a>
</g>
</g>
<!-- Ieee802154Showcase&#45;&gt;Ipv4NetworkConfigurator -->
<g id="edge3" class="edge">
<title>Ieee802154Showcase&#45;&gt;Ipv4NetworkConfigurator</title>
<path fill="none" stroke="black" d="M269.12,-54.98C278.44,-47.15 292.47,-35.34 303.74,-25.86"/>
<polygon fill="black" stroke="black" points="306.29,-28.29 311.69,-19.17 301.79,-22.93 306.29,-28.29"/>
</g>
<!-- Ieee802154NarrowbandScalarRadioMedium -->
<g id="node5" class="node">
<title>Ieee802154NarrowbandScalarRadioMedium</title>
<g id="a_node5"><a xlink:href="inet.physicallayer.wireless.ieee802154.packetlevel.Ieee802154NarrowbandScalarRadioMedium.html" xlink:title="Compound Module Ieee802154NarrowbandScalarRadioMedium" target="_parent">
<polygon fill="#fffcaf" stroke="black" points="640,-19 410,-19 410,0 640,0 640,-19"/>
<text text-anchor="middle" x="525" y="-7" font-family="Helvetica,sans-Serif" font-size="10.00">Ieee802154NarrowbandScalarRadioMedium</text>
</a>
</g>
</g>
<!-- Ieee802154Showcase&#45;&gt;Ieee802154NarrowbandScalarRadioMedium -->
<g id="edge4" class="edge">
<title>Ieee802154Showcase&#45;&gt;Ieee802154NarrowbandScalarRadioMedium</title>
<path fill="none" stroke="black" d="M301.74,-54.98C348.04,-45.76 421.98,-31.03 471.96,-21.07"/>
<polygon fill="black" stroke="black" points="472.8,-24.47 481.93,-19.08 471.44,-17.6 472.8,-24.47"/>
</g>
</g>
</svg>
