<?xml version="1.0" encoding="UTF-8" standalone="no"?>
<!DOCTYPE svg PUBLIC "-//W3C//DTD SVG 1.1//EN"
 "http://www.w3.org/Graphics/SVG/1.1/DTD/svg11.dtd">
<!-- Generated by graphviz version 2.43.0 (0)
 -->
<!-- Title: opp Pages: 1 -->
<svg width="484pt" height="82pt"
 viewBox="0.00 0.00 484.00 82.00" xmlns="http://www.w3.org/2000/svg" xmlns:xlink="http://www.w3.org/1999/xlink">
<g id="graph0" class="graph" transform="scale(1 1) rotate(0) translate(4 78)">
<title>opp</title>
<polygon fill="transparent" stroke="transparent" points="-4,4 -4,-78 480,-78 480,4 -4,4"/>
<!-- TransportPathVisualizerSimpleWiredShowcase -->
<g id="node1" class="node">
<title>TransportPathVisualizerSimpleWiredShowcase</title>
<g id="a_node1"><a xlink:href="inet.showcases.visualizer.canvas.transportpathactivity.TransportPathVisualizerSimpleWiredShowcase.html" xlink:title="Network TransportPathVisualizerSimpleWiredShowcase" target="_parent">
<polygon fill="#9090ff" stroke="black" points="385,-74 142,-74 142,-55 385,-55 385,-74"/>
<text text-anchor="middle" x="263.5" y="-62" font-family="Helvetica,sans-Serif" font-size="10.00">TransportPathVisualizerSimpleWiredShowcase</text>
</a>
</g>
</g>
<!-- TransportRouteVisualizer -->
<g id="node2" class="node">
<title>TransportRouteVisualizer</title>
<g id="a_node2"><a xlink:href="inet.visualizer.common.TransportRouteVisualizer.html" xlink:title="Compound Module TransportRouteVisualizer" target="_parent">
<polygon fill="#fffcaf" stroke="black" points="139,-19 0,-19 0,0 139,0 139,-19"/>
<text text-anchor="middle" x="69.5" y="-7" font-family="Helvetica,sans-Serif" font-size="10.00">TransportRouteVisualizer</text>
</a>
</g>
</g>
<!-- TransportPathVisualizerSimpleWiredShowcase&#45;&gt;TransportRouteVisualizer -->
<g id="edge1" class="edge">
<title>TransportPathVisualizerSimpleWiredShowcase&#45;&gt;TransportRouteVisualizer</title>
<path fill="none" stroke="black" d="M232.33,-54.98C199.34,-45.97 147.1,-31.7 110.73,-21.76"/>
<polygon fill="black" stroke="black" points="111.48,-18.34 100.91,-19.08 109.64,-25.09 111.48,-18.34"/>
</g>
<!-- StandardHost -->
<g id="node3" class="node">
<title>StandardHost</title>
<g id="a_node3"><a xlink:href="inet.node.inet.StandardHost.html" xlink:title="Compound Module StandardHost" target="_parent">
<polygon fill="#fffcaf" stroke="black" points="240,-19 157,-19 157,0 240,0 240,-19"/>
<text text-anchor="middle" x="198.5" y="-7" font-family="Helvetica,sans-Serif" font-size="10.00">StandardHost</text>
</a>
</g>
</g>
<!-- TransportPathVisualizerSimpleWiredShowcase&#45;&gt;StandardHost -->
<g id="edge2" class="edge">
<title>TransportPathVisualizerSimpleWiredShowcase&#45;&gt;StandardHost</title>
<path fill="none" stroke="black" d="M253.06,-54.98C243.35,-47.07 228.68,-35.11 217,-25.58"/>
<polygon fill="black" stroke="black" points="219.1,-22.78 209.13,-19.17 214.67,-28.2 219.1,-22.78"/>
</g>
<!-- Ipv4NetworkConfigurator -->
<g id="node4" class="node">
<title>Ipv4NetworkConfigurator</title>
<g id="a_node4"><a xlink:href="inet.networklayer.configurator.ipv4.Ipv4NetworkConfigurator.html" xlink:title="Simple Module Ipv4NetworkConfigurator" target="_parent">
<polygon fill="#fffcaf" stroke="black" points="398.5,-19 258.5,-19 258.5,0 398.5,0 398.5,-19"/>
<text text-anchor="middle" x="328.5" y="-7" font-family="Helvetica,sans-Serif" font-size="10.00">Ipv4NetworkConfigurator</text>
</a>
</g>
</g>
<!-- TransportPathVisualizerSimpleWiredShowcase&#45;&gt;Ipv4NetworkConfigurator -->
<g id="edge3" class="edge">
<title>TransportPathVisualizerSimpleWiredShowcase&#45;&gt;Ipv4NetworkConfigurator</title>
<path fill="none" stroke="black" d="M273.94,-54.98C283.65,-47.07 298.32,-35.11 310,-25.58"/>
<polygon fill="black" stroke="black" points="312.33,-28.2 317.87,-19.17 307.9,-22.78 312.33,-28.2"/>
</g>
<!-- Eth100M -->
<g id="node5" class="node">
<title>Eth100M</title>
<g id="a_node5"><a xlink:href="inet.node.ethernet.Eth100M.html" xlink:title="Channel Eth100M" target="_parent">
<polygon fill="#d0ffd0" stroke="black" points="476,-19 417,-19 417,0 476,0 476,-19"/>
<text text-anchor="middle" x="446.5" y="-7" font-family="Helvetica,sans-Serif" font-size="10.00">Eth100M</text>
</a>
</g>
</g>
<!-- TransportPathVisualizerSimpleWiredShowcase&#45;&gt;Eth100M -->
<g id="edge4" class="edge">
<title>TransportPathVisualizerSimpleWiredShowcase&#45;&gt;Eth100M</title>
<path fill="none" stroke="black" d="M292.9,-54.98C323.89,-46.01 372.88,-31.82 407.17,-21.89"/>
<polygon fill="black" stroke="black" points="408.24,-25.23 416.87,-19.08 406.29,-18.5 408.24,-25.23"/>
</g>
</g>
</svg>
