<?xml version="1.0" encoding="UTF-8" standalone="no"?>
<!DOCTYPE svg PUBLIC "-//W3C//DTD SVG 1.1//EN"
 "http://www.w3.org/Graphics/SVG/1.1/DTD/svg11.dtd">
<!-- Generated by graphviz version 2.43.0 (0)
 -->
<!-- Title: opp Pages: 1 -->
<svg width="1823pt" height="137pt"
 viewBox="0.00 0.00 1823.00 137.00" xmlns="http://www.w3.org/2000/svg" xmlns:xlink="http://www.w3.org/1999/xlink">
<g id="graph0" class="graph" transform="scale(1 1) rotate(0) translate(4 133)">
<title>opp</title>
<polygon fill="transparent" stroke="transparent" points="-4,4 -4,-133 1819,-133 1819,4 -4,4"/>
<!-- PacketClassifierBase -->
<g id="node1" class="node">
<title>PacketClassifierBase</title>
<g id="a_node1"><a xlink:href="inet.queueing.base.PacketClassifierBase.html" xlink:title="Simple Module PacketClassifierBase" target="_parent">
<polygon fill="#fff700" stroke="black" points="1030.5,-74 911.5,-74 911.5,-55 1030.5,-55 1030.5,-74"/>
<text text-anchor="middle" x="971" y="-62" font-family="Helvetica,sans-Serif" font-size="10.00">PacketClassifierBase</text>
</a>
</g>
</g>
<!-- BehaviorAggregateClassifier -->
<g id="node3" class="node">
<title>BehaviorAggregateClassifier</title>
<g id="a_node3"><a xlink:href="inet.networklayer.diffserv.BehaviorAggregateClassifier.html" xlink:title="Simple Module BehaviorAggregateClassifier" target="_parent">
<polygon fill="#fffcaf" stroke="black" points="156,-19 0,-19 0,0 156,0 156,-19"/>
<text text-anchor="middle" x="78" y="-7" font-family="Helvetica,sans-Serif" font-size="10.00">BehaviorAggregateClassifier</text>
</a>
</g>
</g>
<!-- PacketClassifierBase&#45;&gt;BehaviorAggregateClassifier -->
<g id="edge2" class="edge">
<title>PacketClassifierBase&#45;&gt;BehaviorAggregateClassifier</title>
<path fill="none" stroke="black" d="M911.29,-61.07C777.54,-55.43 443.77,-40.3 165,-19 162.12,-18.78 159.2,-18.55 156.24,-18.3"/>
</g>
<!-- ContentBasedClassifier -->
<g id="node4" class="node">
<title>ContentBasedClassifier</title>
<g id="a_node4"><a xlink:href="inet.queueing.classifier.ContentBasedClassifier.html" xlink:title="Simple Module ContentBasedClassifier" target="_parent">
<polygon fill="#fffcaf" stroke="black" points="305.5,-19 174.5,-19 174.5,0 305.5,0 305.5,-19"/>
<text text-anchor="middle" x="240" y="-7" font-family="Helvetica,sans-Serif" font-size="10.00">ContentBasedClassifier</text>
</a>
</g>
</g>
<!-- PacketClassifierBase&#45;&gt;ContentBasedClassifier -->
<g id="edge3" class="edge">
<title>PacketClassifierBase&#45;&gt;ContentBasedClassifier</title>
<path fill="none" stroke="black" d="M911.23,-60.35C795.85,-54.07 534.41,-38.87 315,-19 312,-18.73 308.93,-18.44 305.83,-18.13"/>
</g>
<!-- EthernetFrameClassifier -->
<g id="node5" class="node">
<title>EthernetFrameClassifier</title>
<g id="a_node5"><a xlink:href="inet.linklayer.ethernet.common.EthernetFrameClassifier.html" xlink:title="Simple Module EthernetFrameClassifier" target="_parent">
<polygon fill="#fffcaf" stroke="black" points="458,-19 324,-19 324,0 458,0 458,-19"/>
<text text-anchor="middle" x="391" y="-7" font-family="Helvetica,sans-Serif" font-size="10.00">EthernetFrameClassifier</text>
</a>
</g>
</g>
<!-- PacketClassifierBase&#45;&gt;EthernetFrameClassifier -->
<g id="edge4" class="edge">
<title>PacketClassifierBase&#45;&gt;EthernetFrameClassifier</title>
<path fill="none" stroke="black" d="M911.22,-58.68C816.8,-50.95 627.39,-35.05 467,-19 464.09,-18.71 461.13,-18.41 458.13,-18.09"/>
</g>
<!-- LabelClassifier -->
<g id="node6" class="node">
<title>LabelClassifier</title>
<g id="a_node6"><a xlink:href="inet.queueing.classifier.LabelClassifier.html" xlink:title="Simple Module LabelClassifier" target="_parent">
<polygon fill="#fffcaf" stroke="black" points="565.5,-19 476.5,-19 476.5,0 565.5,0 565.5,-19"/>
<text text-anchor="middle" x="521" y="-7" font-family="Helvetica,sans-Serif" font-size="10.00">LabelClassifier</text>
</a>
</g>
</g>
<!-- PacketClassifierBase&#45;&gt;LabelClassifier -->
<g id="edge5" class="edge">
<title>PacketClassifierBase&#45;&gt;LabelClassifier</title>
<path fill="none" stroke="black" d="M911.37,-57.71C833.6,-49.95 693.4,-35.26 574,-19 571.23,-18.62 568.38,-18.22 565.51,-17.8"/>
</g>
<!-- MarkovClassifier -->
<g id="node7" class="node">
<title>MarkovClassifier</title>
<g id="a_node7"><a xlink:href="inet.queueing.classifier.MarkovClassifier.html" xlink:title="Simple Module MarkovClassifier" target="_parent">
<polygon fill="#fffcaf" stroke="black" points="681,-19 583,-19 583,0 681,0 681,-19"/>
<text text-anchor="middle" x="632" y="-7" font-family="Helvetica,sans-Serif" font-size="10.00">MarkovClassifier</text>
</a>
</g>
</g>
<!-- PacketClassifierBase&#45;&gt;MarkovClassifier -->
<g id="edge6" class="edge">
<title>PacketClassifierBase&#45;&gt;MarkovClassifier</title>
<path fill="none" stroke="black" d="M916.53,-54.98C851.49,-44.82 743.67,-27.96 681.1,-18.18"/>
</g>
<!-- MultiFieldClassifier -->
<g id="node8" class="node">
<title>MultiFieldClassifier</title>
<g id="a_node8"><a xlink:href="inet.networklayer.diffserv.MultiFieldClassifier.html" xlink:title="Simple Module MultiFieldClassifier" target="_parent">
<polygon fill="#fffcaf" stroke="black" points="809,-19 699,-19 699,0 809,0 809,-19"/>
<text text-anchor="middle" x="754" y="-7" font-family="Helvetica,sans-Serif" font-size="10.00">MultiFieldClassifier</text>
</a>
</g>
</g>
<!-- PacketClassifierBase&#45;&gt;MultiFieldClassifier -->
<g id="edge7" class="edge">
<title>PacketClassifierBase&#45;&gt;MultiFieldClassifier</title>
<path fill="none" stroke="black" d="M936.14,-54.98C895.76,-45.12 829.63,-28.97 789.14,-19.08"/>
</g>
<!-- MultiTokenBucketClassifier -->
<g id="node9" class="node">
<title>MultiTokenBucketClassifier</title>
<g id="a_node9"><a xlink:href="inet.queueing.classifier.MultiTokenBucketClassifier.html" xlink:title="Simple Module MultiTokenBucketClassifier" target="_parent">
<polygon fill="#fffcaf" stroke="black" points="975,-19 827,-19 827,0 975,0 975,-19"/>
<text text-anchor="middle" x="901" y="-7" font-family="Helvetica,sans-Serif" font-size="10.00">MultiTokenBucketClassifier</text>
</a>
</g>
</g>
<!-- PacketClassifierBase&#45;&gt;MultiTokenBucketClassifier -->
<g id="edge8" class="edge">
<title>PacketClassifierBase&#45;&gt;MultiTokenBucketClassifier</title>
<path fill="none" stroke="black" d="M959.75,-54.98C946.77,-45.15 925.52,-29.07 912.45,-19.17"/>
</g>
<!-- PacketClassifier -->
<g id="node10" class="node">
<title>PacketClassifier</title>
<g id="a_node10"><a xlink:href="inet.queueing.classifier.PacketClassifier.html" xlink:title="Simple Module PacketClassifier" target="_parent">
<polygon fill="#fffcaf" stroke="black" points="1088.5,-19 993.5,-19 993.5,0 1088.5,0 1088.5,-19"/>
<text text-anchor="middle" x="1041" y="-7" font-family="Helvetica,sans-Serif" font-size="10.00">PacketClassifier</text>
</a>
</g>
</g>
<!-- PacketClassifierBase&#45;&gt;PacketClassifier -->
<g id="edge9" class="edge">
<title>PacketClassifierBase&#45;&gt;PacketClassifier</title>
<path fill="none" stroke="black" d="M982.25,-54.98C995.23,-45.15 1016.48,-29.07 1029.55,-19.17"/>
</g>
<!-- PcpClassifier -->
<g id="node11" class="node">
<title>PcpClassifier</title>
<g id="a_node11"><a xlink:href="inet.linklayer.ieee8021q.PcpClassifier.html" xlink:title="Simple Module PcpClassifier" target="_parent">
<polygon fill="#fffcaf" stroke="black" points="1187,-19 1107,-19 1107,0 1187,0 1187,-19"/>
<text text-anchor="middle" x="1147" y="-7" font-family="Helvetica,sans-Serif" font-size="10.00">PcpClassifier</text>
</a>
</g>
</g>
<!-- PacketClassifierBase&#45;&gt;PcpClassifier -->
<g id="edge10" class="edge">
<title>PacketClassifierBase&#45;&gt;PcpClassifier</title>
<path fill="none" stroke="black" d="M999.28,-54.98C1032.02,-45.12 1085.66,-28.97 1118.5,-19.08"/>
</g>
<!-- PcpTrafficClassClassifier -->
<g id="node12" class="node">
<title>PcpTrafficClassClassifier</title>
<g id="a_node12"><a xlink:href="inet.linklayer.ieee8021q.PcpTrafficClassClassifier.html" xlink:title="Compound Module PcpTrafficClassClassifier" target="_parent">
<polygon fill="#fffcaf" stroke="black" points="1342.5,-19 1205.5,-19 1205.5,0 1342.5,0 1342.5,-19"/>
<text text-anchor="middle" x="1274" y="-7" font-family="Helvetica,sans-Serif" font-size="10.00">PcpTrafficClassClassifier</text>
</a>
</g>
</g>
<!-- PacketClassifierBase&#45;&gt;PcpTrafficClassClassifier -->
<g id="edge11" class="edge">
<title>PacketClassifierBase&#45;&gt;PcpTrafficClassClassifier</title>
<path fill="none" stroke="black" d="M1019.68,-54.98C1076.14,-45.11 1168.67,-28.92 1225.19,-19.04"/>
</g>
<!-- PriorityClassifier -->
<g id="node13" class="node">
<title>PriorityClassifier</title>
<g id="a_node13"><a xlink:href="inet.queueing.classifier.PriorityClassifier.html" xlink:title="Simple Module PriorityClassifier" target="_parent">
<polygon fill="#fffcaf" stroke="black" points="1459,-19 1361,-19 1361,0 1459,0 1459,-19"/>
<text text-anchor="middle" x="1410" y="-7" font-family="Helvetica,sans-Serif" font-size="10.00">PriorityClassifier</text>
</a>
</g>
</g>
<!-- PacketClassifierBase&#45;&gt;PriorityClassifier -->
<g id="edge12" class="edge">
<title>PacketClassifierBase&#45;&gt;PriorityClassifier</title>
<path fill="none" stroke="black" d="M1030.79,-57.06C1105.87,-48.86 1238.6,-33.93 1352,-19 1354.93,-18.61 1357.93,-18.21 1360.97,-17.79"/>
</g>
<!-- StreamClassifier -->
<g id="node14" class="node">
<title>StreamClassifier</title>
<g id="a_node14"><a xlink:href="inet.protocolelement.redundancy.StreamClassifier.html" xlink:title="Simple Module StreamClassifier" target="_parent">
<polygon fill="#fffcaf" stroke="black" points="1575,-19 1477,-19 1477,0 1575,0 1575,-19"/>
<text text-anchor="middle" x="1526" y="-7" font-family="Helvetica,sans-Serif" font-size="10.00">StreamClassifier</text>
</a>
</g>
</g>
<!-- PacketClassifierBase&#45;&gt;StreamClassifier -->
<g id="edge13" class="edge">
<title>PacketClassifierBase&#45;&gt;StreamClassifier</title>
<path fill="none" stroke="black" d="M1030.78,-59.24C1124.24,-52.33 1310.56,-37.57 1468,-19 1470.93,-18.65 1473.94,-18.28 1476.98,-17.88"/>
</g>
<!-- TokenBucketClassifier -->
<g id="node15" class="node">
<title>TokenBucketClassifier</title>
<g id="a_node15"><a xlink:href="inet.queueing.classifier.TokenBucketClassifier.html" xlink:title="Simple Module TokenBucketClassifier" target="_parent">
<polygon fill="#fffcaf" stroke="black" points="1716.5,-19 1593.5,-19 1593.5,0 1716.5,0 1716.5,-19"/>
<text text-anchor="middle" x="1655" y="-7" font-family="Helvetica,sans-Serif" font-size="10.00">TokenBucketClassifier</text>
</a>
</g>
</g>
<!-- PacketClassifierBase&#45;&gt;TokenBucketClassifier -->
<g id="edge14" class="edge">
<title>PacketClassifierBase&#45;&gt;TokenBucketClassifier</title>
<path fill="none" stroke="black" d="M1030.68,-60.1C1140.38,-53.63 1381.4,-38.47 1584,-19 1587.09,-18.7 1590.25,-18.38 1593.45,-18.05"/>
</g>
<!-- WrrClassifier -->
<g id="node16" class="node">
<title>WrrClassifier</title>
<g id="a_node16"><a xlink:href="inet.queueing.classifier.WrrClassifier.html" xlink:title="Simple Module WrrClassifier" target="_parent">
<polygon fill="#fffcaf" stroke="black" points="1815,-19 1735,-19 1735,0 1815,0 1815,-19"/>
<text text-anchor="middle" x="1775" y="-7" font-family="Helvetica,sans-Serif" font-size="10.00">WrrClassifier</text>
</a>
</g>
</g>
<!-- PacketClassifierBase&#45;&gt;WrrClassifier -->
<g id="edge15" class="edge">
<title>PacketClassifierBase&#45;&gt;WrrClassifier</title>
<path fill="none" stroke="black" d="M1030.9,-62.27C1158.9,-59.12 1468.4,-48.84 1726,-19 1728.92,-18.66 1731.92,-18.26 1734.94,-17.83"/>
</g>
<!-- PacketProcessorBase -->
<g id="node2" class="node">
<title>PacketProcessorBase</title>
<g id="a_node2"><a xlink:href="inet.queueing.base.PacketProcessorBase.html" xlink:title="Simple Module PacketProcessorBase" target="_parent">
<polygon fill="#fffcaf" stroke="black" points="1031,-129 911,-129 911,-110 1031,-110 1031,-129"/>
<text text-anchor="middle" x="971" y="-117" font-family="Helvetica,sans-Serif" font-size="10.00">PacketProcessorBase</text>
</a>
</g>
</g>
<!-- PacketProcessorBase&#45;&gt;PacketClassifierBase -->
<g id="edge1" class="edge">
<title>PacketProcessorBase&#45;&gt;PacketClassifierBase</title>
<path fill="none" stroke="black" d="M971,-109.75C971,-99.87 971,-83.9 971,-74.09"/>
</g>
</g>
</svg>
