<?xml version="1.0" encoding="UTF-8" standalone="no"?>
<!DOCTYPE svg PUBLIC "-//W3C//DTD SVG 1.1//EN"
 "http://www.w3.org/Graphics/SVG/1.1/DTD/svg11.dtd">
<!-- Generated by graphviz version 2.43.0 (0)
 -->
<!-- Title: opp Pages: 1 -->
<svg width="224pt" height="82pt"
 viewBox="0.00 0.00 224.00 82.00" xmlns="http://www.w3.org/2000/svg" xmlns:xlink="http://www.w3.org/1999/xlink">
<g id="graph0" class="graph" transform="scale(1 1) rotate(0) translate(4 78)">
<title>opp</title>
<polygon fill="transparent" stroke="transparent" points="-4,4 -4,-78 220,-78 220,4 -4,4"/>
<!-- MobilityShowcase -->
<g id="node1" class="node">
<title>MobilityShowcase</title>
<g id="a_node1"><a xlink:href="inet.showcases.mobility.combining.MobilityShowcase.html" xlink:title="Network MobilityShowcase" target="_parent">
<polygon fill="#9090ff" stroke="black" points="152,-74 47,-74 47,-55 152,-55 152,-74"/>
<text text-anchor="middle" x="99.5" y="-62" font-family="Helvetica,sans-Serif" font-size="10.00">MobilityShowcase</text>
</a>
</g>
</g>
<!-- StandardHost -->
<g id="node2" class="node">
<title>StandardHost</title>
<g id="a_node2"><a xlink:href="inet.node.inet.StandardHost.html" xlink:title="Compound Module StandardHost" target="_parent">
<polygon fill="#fffcaf" stroke="black" points="83,-19 0,-19 0,0 83,0 83,-19"/>
<text text-anchor="middle" x="41.5" y="-7" font-family="Helvetica,sans-Serif" font-size="10.00">StandardHost</text>
</a>
</g>
</g>
<!-- MobilityShowcase&#45;&gt;StandardHost -->
<g id="edge1" class="edge">
<title>MobilityShowcase&#45;&gt;StandardHost</title>
<path fill="none" stroke="black" d="M90.18,-54.98C81.69,-47.23 68.94,-35.58 58.62,-26.14"/>
<polygon fill="black" stroke="black" points="60.73,-23.33 50.99,-19.17 56.01,-28.5 60.73,-23.33"/>
</g>
<!-- IntegratedVisualizer -->
<g id="node3" class="node">
<title>IntegratedVisualizer</title>
<g id="a_node3"><a xlink:href="inet.visualizer.common.IntegratedVisualizer.html" xlink:title="Compound Module IntegratedVisualizer" target="_parent">
<polygon fill="#fffcaf" stroke="black" points="216,-19 101,-19 101,0 216,0 216,-19"/>
<text text-anchor="middle" x="158.5" y="-7" font-family="Helvetica,sans-Serif" font-size="10.00">IntegratedVisualizer</text>
</a>
</g>
</g>
<!-- MobilityShowcase&#45;&gt;IntegratedVisualizer -->
<g id="edge2" class="edge">
<title>MobilityShowcase&#45;&gt;IntegratedVisualizer</title>
<path fill="none" stroke="black" d="M108.98,-54.98C117.7,-47.15 130.84,-35.34 141.4,-25.86"/>
<polygon fill="black" stroke="black" points="143.75,-28.46 148.85,-19.17 139.07,-23.25 143.75,-28.46"/>
</g>
</g>
</svg>
