<?xml version="1.0" encoding="UTF-8" standalone="no"?>
<!DOCTYPE svg PUBLIC "-//W3C//DTD SVG 1.1//EN"
 "http://www.w3.org/Graphics/SVG/1.1/DTD/svg11.dtd">
<!-- Generated by graphviz version 2.43.0 (0)
 -->
<!-- Title: opp Pages: 1 -->
<svg width="480pt" height="82pt"
 viewBox="0.00 0.00 480.00 82.00" xmlns="http://www.w3.org/2000/svg" xmlns:xlink="http://www.w3.org/1999/xlink">
<g id="graph0" class="graph" transform="scale(1 1) rotate(0) translate(4 78)">
<title>opp</title>
<polygon fill="transparent" stroke="transparent" points="-4,4 -4,-78 476,-78 476,4 -4,4"/>
<!-- ContentBasedTaggerTutorialStep -->
<g id="node1" class="node">
<title>ContentBasedTaggerTutorialStep</title>
<g id="a_node1"><a xlink:href="inet.tutorials.queueing.ContentBasedTaggerTutorialStep.html" xlink:title="Network ContentBasedTaggerTutorialStep" target="_parent">
<polygon fill="#9090ff" stroke="black" points="317,-74 142,-74 142,-55 317,-55 317,-74"/>
<text text-anchor="middle" x="229.5" y="-62" font-family="Helvetica,sans-Serif" font-size="10.00">ContentBasedTaggerTutorialStep</text>
</a>
</g>
</g>
<!-- ActivePacketSource -->
<g id="node2" class="node">
<title>ActivePacketSource</title>
<g id="a_node2"><a xlink:href="inet.queueing.source.ActivePacketSource.html" xlink:title="Simple Module ActivePacketSource" target="_parent">
<polygon fill="#fffcaf" stroke="black" points="113,-19 0,-19 0,0 113,0 113,-19"/>
<text text-anchor="middle" x="56.5" y="-7" font-family="Helvetica,sans-Serif" font-size="10.00">ActivePacketSource</text>
</a>
</g>
</g>
<!-- ContentBasedTaggerTutorialStep&#45;&gt;ActivePacketSource -->
<g id="edge1" class="edge">
<title>ContentBasedTaggerTutorialStep&#45;&gt;ActivePacketSource</title>
<path fill="none" stroke="black" d="M201.7,-54.98C172.53,-46.05 126.5,-31.94 94.1,-22.02"/>
<polygon fill="black" stroke="black" points="95.1,-18.66 84.51,-19.08 93.05,-25.36 95.1,-18.66"/>
</g>
<!-- IdealChannel -->
<g id="node3" class="node">
<title>IdealChannel</title>
<g id="a_node3"><a xlink:href="ned.IdealChannel.html" xlink:title="Channel IdealChannel" target="_parent">
<polygon fill="#d0ffd0" stroke="black" points="211.5,-19 131.5,-19 131.5,0 211.5,0 211.5,-19"/>
<text text-anchor="middle" x="171.5" y="-7" font-family="Helvetica,sans-Serif" font-size="10.00">IdealChannel</text>
</a>
</g>
</g>
<!-- ContentBasedTaggerTutorialStep&#45;&gt;IdealChannel -->
<g id="edge2" class="edge">
<title>ContentBasedTaggerTutorialStep&#45;&gt;IdealChannel</title>
<path fill="none" stroke="black" d="M220.18,-54.98C211.69,-47.23 198.94,-35.58 188.62,-26.14"/>
<polygon fill="black" stroke="black" points="190.73,-23.33 180.99,-19.17 186.01,-28.5 190.73,-23.33"/>
</g>
<!-- ContentBasedTagger -->
<g id="node4" class="node">
<title>ContentBasedTagger</title>
<g id="a_node4"><a xlink:href="inet.queueing.marker.ContentBasedTagger.html" xlink:title="Simple Module ContentBasedTagger" target="_parent">
<polygon fill="#fffcaf" stroke="black" points="347,-19 230,-19 230,0 347,0 347,-19"/>
<text text-anchor="middle" x="288.5" y="-7" font-family="Helvetica,sans-Serif" font-size="10.00">ContentBasedTagger</text>
</a>
</g>
</g>
<!-- ContentBasedTaggerTutorialStep&#45;&gt;ContentBasedTagger -->
<g id="edge3" class="edge">
<title>ContentBasedTaggerTutorialStep&#45;&gt;ContentBasedTagger</title>
<path fill="none" stroke="black" d="M238.98,-54.98C247.7,-47.15 260.84,-35.34 271.4,-25.86"/>
<polygon fill="black" stroke="black" points="273.75,-28.46 278.85,-19.17 269.07,-23.25 273.75,-28.46"/>
</g>
<!-- PassivePacketSink -->
<g id="node5" class="node">
<title>PassivePacketSink</title>
<g id="a_node5"><a xlink:href="inet.queueing.sink.PassivePacketSink.html" xlink:title="Simple Module PassivePacketSink" target="_parent">
<polygon fill="#fffcaf" stroke="black" points="472,-19 365,-19 365,0 472,0 472,-19"/>
<text text-anchor="middle" x="418.5" y="-7" font-family="Helvetica,sans-Serif" font-size="10.00">PassivePacketSink</text>
</a>
</g>
</g>
<!-- ContentBasedTaggerTutorialStep&#45;&gt;PassivePacketSink -->
<g id="edge4" class="edge">
<title>ContentBasedTaggerTutorialStep&#45;&gt;PassivePacketSink</title>
<path fill="none" stroke="black" d="M259.87,-54.98C291.87,-46.01 342.46,-31.82 377.88,-21.89"/>
<polygon fill="black" stroke="black" points="379.21,-25.15 387.9,-19.08 377.32,-18.41 379.21,-25.15"/>
</g>
</g>
</svg>
