<?xml version="1.0" encoding="UTF-8" standalone="no"?>
<!DOCTYPE svg PUBLIC "-//W3C//DTD SVG 1.1//EN"
 "http://www.w3.org/Graphics/SVG/1.1/DTD/svg11.dtd">
<!-- Generated by graphviz version 2.43.0 (0)
 -->
<!-- Title: opp Pages: 1 -->
<svg width="594pt" height="82pt"
 viewBox="0.00 0.00 593.50 82.00" xmlns="http://www.w3.org/2000/svg" xmlns:xlink="http://www.w3.org/1999/xlink">
<g id="graph0" class="graph" transform="scale(1 1) rotate(0) translate(4 78)">
<title>opp</title>
<polygon fill="transparent" stroke="transparent" points="-4,4 -4,-78 589.5,-78 589.5,4 -4,4"/>
<!-- ConfiguratorD -->
<g id="node1" class="node">
<title>ConfiguratorD</title>
<g id="a_node1"><a xlink:href="inet.tutorials.configurator.ConfiguratorD.html" xlink:title="Network ConfiguratorD" target="_parent">
<polygon fill="#9090ff" stroke="black" points="341.5,-74 256.5,-74 256.5,-55 341.5,-55 341.5,-74"/>
<text text-anchor="middle" x="299" y="-62" font-family="Helvetica,sans-Serif" font-size="10.00">ConfiguratorD</text>
</a>
</g>
</g>
<!-- Ipv4NetworkConfigurator -->
<g id="node2" class="node">
<title>Ipv4NetworkConfigurator</title>
<g id="a_node2"><a xlink:href="inet.networklayer.configurator.ipv4.Ipv4NetworkConfigurator.html" xlink:title="Simple Module Ipv4NetworkConfigurator" target="_parent">
<polygon fill="#fffcaf" stroke="black" points="140,-19 0,-19 0,0 140,0 140,-19"/>
<text text-anchor="middle" x="70" y="-7" font-family="Helvetica,sans-Serif" font-size="10.00">Ipv4NetworkConfigurator</text>
</a>
</g>
</g>
<!-- ConfiguratorD&#45;&gt;Ipv4NetworkConfigurator -->
<g id="edge1" class="edge">
<title>ConfiguratorD&#45;&gt;Ipv4NetworkConfigurator</title>
<path fill="none" stroke="black" d="M262.21,-54.98C222.76,-45.86 160.02,-31.33 117.02,-21.38"/>
<polygon fill="black" stroke="black" points="117.61,-17.93 107.08,-19.08 116.03,-24.75 117.61,-17.93"/>
</g>
<!-- IntegratedCanvasVisualizer -->
<g id="node3" class="node">
<title>IntegratedCanvasVisualizer</title>
<g id="a_node3"><a xlink:href="inet.visualizer.canvas.integrated.IntegratedCanvasVisualizer.html" xlink:title="Compound Module IntegratedCanvasVisualizer" target="_parent">
<polygon fill="#fffcaf" stroke="black" points="309.5,-19 158.5,-19 158.5,0 309.5,0 309.5,-19"/>
<text text-anchor="middle" x="234" y="-7" font-family="Helvetica,sans-Serif" font-size="10.00">IntegratedCanvasVisualizer</text>
</a>
</g>
</g>
<!-- ConfiguratorD&#45;&gt;IntegratedCanvasVisualizer -->
<g id="edge2" class="edge">
<title>ConfiguratorD&#45;&gt;IntegratedCanvasVisualizer</title>
<path fill="none" stroke="black" d="M288.56,-54.98C278.85,-47.07 264.18,-35.11 252.5,-25.58"/>
<polygon fill="black" stroke="black" points="254.6,-22.78 244.63,-19.17 250.17,-28.2 254.6,-22.78"/>
</g>
<!-- AodvRouter -->
<g id="node4" class="node">
<title>AodvRouter</title>
<g id="a_node4"><a xlink:href="inet.node.aodv.AodvRouter.html" xlink:title="Compound Module AodvRouter" target="_parent">
<polygon fill="#fffcaf" stroke="black" points="402,-19 328,-19 328,0 402,0 402,-19"/>
<text text-anchor="middle" x="365" y="-7" font-family="Helvetica,sans-Serif" font-size="10.00">AodvRouter</text>
</a>
</g>
</g>
<!-- ConfiguratorD&#45;&gt;AodvRouter -->
<g id="edge3" class="edge">
<title>ConfiguratorD&#45;&gt;AodvRouter</title>
<path fill="none" stroke="black" d="M309.6,-54.98C319.46,-47.07 334.35,-35.11 346.22,-25.58"/>
<polygon fill="black" stroke="black" points="348.6,-28.16 354.2,-19.17 344.21,-22.7 348.6,-28.16"/>
</g>
<!-- Ieee80211ScalarRadioMedium -->
<g id="node5" class="node">
<title>Ieee80211ScalarRadioMedium</title>
<g id="a_node5"><a xlink:href="inet.physicallayer.wireless.ieee80211.packetlevel.Ieee80211ScalarRadioMedium.html" xlink:title="Compound Module Ieee80211ScalarRadioMedium" target="_parent">
<polygon fill="#fffcaf" stroke="black" points="585.5,-19 420.5,-19 420.5,0 585.5,0 585.5,-19"/>
<text text-anchor="middle" x="503" y="-7" font-family="Helvetica,sans-Serif" font-size="10.00">Ieee80211ScalarRadioMedium</text>
</a>
</g>
</g>
<!-- ConfiguratorD&#45;&gt;Ieee80211ScalarRadioMedium -->
<g id="edge4" class="edge">
<title>ConfiguratorD&#45;&gt;Ieee80211ScalarRadioMedium</title>
<path fill="none" stroke="black" d="M331.78,-54.98C366.62,-45.93 421.87,-31.58 460.14,-21.64"/>
<polygon fill="black" stroke="black" points="461.17,-24.98 469.97,-19.08 459.41,-18.21 461.17,-24.98"/>
</g>
</g>
</svg>
