<?xml version="1.0" encoding="UTF-8" standalone="no"?>
<!DOCTYPE svg PUBLIC "-//W3C//DTD SVG 1.1//EN"
 "http://www.w3.org/Graphics/SVG/1.1/DTD/svg11.dtd">
<!-- Generated by graphviz version 2.43.0 (0)
 -->
<!-- Title: opp Pages: 1 -->
<svg width="588pt" height="82pt"
 viewBox="0.00 0.00 588.00 82.00" xmlns="http://www.w3.org/2000/svg" xmlns:xlink="http://www.w3.org/1999/xlink">
<g id="graph0" class="graph" transform="scale(1 1) rotate(0) translate(4 78)">
<title>opp</title>
<polygon fill="transparent" stroke="transparent" points="-4,4 -4,-78 584,-78 584,4 -4,4"/>
<!-- ManetprotocolsShowcaseA -->
<g id="node1" class="node">
<title>ManetprotocolsShowcaseA</title>
<g id="a_node1"><a xlink:href="inet.showcases.routing.manet.ManetprotocolsShowcaseA.html" xlink:title="Network ManetprotocolsShowcaseA" target="_parent">
<polygon fill="#9090ff" stroke="black" points="387,-74 239,-74 239,-55 387,-55 387,-74"/>
<text text-anchor="middle" x="313" y="-62" font-family="Helvetica,sans-Serif" font-size="10.00">ManetprotocolsShowcaseA</text>
</a>
</g>
</g>
<!-- IntegratedMultiVisualizer -->
<g id="node2" class="node">
<title>IntegratedMultiVisualizer</title>
<g id="a_node2"><a xlink:href="inet.visualizer.common.IntegratedMultiVisualizer.html" xlink:title="Compound Module IntegratedMultiVisualizer" target="_parent">
<polygon fill="#fffcaf" stroke="black" points="140,-19 0,-19 0,0 140,0 140,-19"/>
<text text-anchor="middle" x="70" y="-7" font-family="Helvetica,sans-Serif" font-size="10.00">IntegratedMultiVisualizer</text>
</a>
</g>
</g>
<!-- ManetprotocolsShowcaseA&#45;&gt;IntegratedMultiVisualizer -->
<g id="edge1" class="edge">
<title>ManetprotocolsShowcaseA&#45;&gt;IntegratedMultiVisualizer</title>
<path fill="none" stroke="black" d="M273.96,-54.98C231.92,-45.82 164.96,-31.21 119.32,-21.26"/>
<polygon fill="black" stroke="black" points="119.86,-17.79 109.35,-19.08 118.37,-24.63 119.86,-17.79"/>
</g>
<!-- Ipv4NetworkConfigurator -->
<g id="node3" class="node">
<title>Ipv4NetworkConfigurator</title>
<g id="a_node3"><a xlink:href="inet.networklayer.configurator.ipv4.Ipv4NetworkConfigurator.html" xlink:title="Simple Module Ipv4NetworkConfigurator" target="_parent">
<polygon fill="#fffcaf" stroke="black" points="298,-19 158,-19 158,0 298,0 298,-19"/>
<text text-anchor="middle" x="228" y="-7" font-family="Helvetica,sans-Serif" font-size="10.00">Ipv4NetworkConfigurator</text>
</a>
</g>
</g>
<!-- ManetprotocolsShowcaseA&#45;&gt;Ipv4NetworkConfigurator -->
<g id="edge2" class="edge">
<title>ManetprotocolsShowcaseA&#45;&gt;Ipv4NetworkConfigurator</title>
<path fill="none" stroke="black" d="M299.34,-54.98C286.16,-46.77 265.97,-34.18 250.43,-24.49"/>
<polygon fill="black" stroke="black" points="252.24,-21.49 241.91,-19.17 248.54,-27.43 252.24,-21.49"/>
</g>
<!-- Ieee80211ScalarRadioMedium -->
<g id="node4" class="node">
<title>Ieee80211ScalarRadioMedium</title>
<g id="a_node4"><a xlink:href="inet.physicallayer.wireless.ieee80211.packetlevel.Ieee80211ScalarRadioMedium.html" xlink:title="Compound Module Ieee80211ScalarRadioMedium" target="_parent">
<polygon fill="#fffcaf" stroke="black" points="481.5,-19 316.5,-19 316.5,0 481.5,0 481.5,-19"/>
<text text-anchor="middle" x="399" y="-7" font-family="Helvetica,sans-Serif" font-size="10.00">Ieee80211ScalarRadioMedium</text>
</a>
</g>
</g>
<!-- ManetprotocolsShowcaseA&#45;&gt;Ieee80211ScalarRadioMedium -->
<g id="edge3" class="edge">
<title>ManetprotocolsShowcaseA&#45;&gt;Ieee80211ScalarRadioMedium</title>
<path fill="none" stroke="black" d="M326.82,-54.98C340.15,-46.77 360.58,-34.18 376.31,-24.49"/>
<polygon fill="black" stroke="black" points="378.25,-27.4 384.93,-19.17 374.58,-21.44 378.25,-27.4"/>
</g>
<!-- ManetRouter -->
<g id="node5" class="node">
<title>ManetRouter</title>
<g id="a_node5"><a xlink:href="inet.node.inet.ManetRouter.html" xlink:title="Compound Module ManetRouter" target="_parent">
<polygon fill="#fffcaf" stroke="black" points="580,-19 500,-19 500,0 580,0 580,-19"/>
<text text-anchor="middle" x="540" y="-7" font-family="Helvetica,sans-Serif" font-size="10.00">ManetRouter</text>
</a>
</g>
</g>
<!-- ManetprotocolsShowcaseA&#45;&gt;ManetRouter -->
<g id="edge4" class="edge">
<title>ManetprotocolsShowcaseA&#45;&gt;ManetRouter</title>
<path fill="none" stroke="black" d="M349.47,-54.98C388.57,-45.86 450.77,-31.33 493.39,-21.38"/>
<polygon fill="black" stroke="black" points="494.3,-24.76 503.24,-19.08 492.71,-17.95 494.3,-24.76"/>
</g>
</g>
</svg>
