<?xml version="1.0" encoding="UTF-8" standalone="no"?>
<!DOCTYPE svg PUBLIC "-//W3C//DTD SVG 1.1//EN"
 "http://www.w3.org/Graphics/SVG/1.1/DTD/svg11.dtd">
<!-- Generated by graphviz version 2.43.0 (0)
 -->
<!-- Title: opp Pages: 1 -->
<svg width="715pt" height="137pt"
 viewBox="0.00 0.00 715.00 137.00" xmlns="http://www.w3.org/2000/svg" xmlns:xlink="http://www.w3.org/1999/xlink">
<g id="graph0" class="graph" transform="scale(1 1) rotate(0) translate(4 133)">
<title>opp</title>
<polygon fill="transparent" stroke="transparent" points="-4,4 -4,-133 711,-133 711,4 -4,4"/>
<!-- NarrowbandTransmitterBase -->
<g id="node1" class="node">
<title>NarrowbandTransmitterBase</title>
<g id="a_node1"><a xlink:href="inet.physicallayer.wireless.common.base.packetlevel.NarrowbandTransmitterBase.html" xlink:title="Compound Module NarrowbandTransmitterBase" target="_parent">
<polygon fill="#fff700" stroke="black" points="387.5,-74 231.5,-74 231.5,-55 387.5,-55 387.5,-74"/>
<text text-anchor="middle" x="309.5" y="-62" font-family="Helvetica,sans-Serif" font-size="10.00">NarrowbandTransmitterBase</text>
</a>
</g>
</g>
<!-- ApskScalarTransmitter -->
<g id="node3" class="node">
<title>ApskScalarTransmitter</title>
<g id="a_node3"><a xlink:href="inet.physicallayer.wireless.apsk.packetlevel.ApskScalarTransmitter.html" xlink:title="Compound Module ApskScalarTransmitter" target="_parent">
<polygon fill="#fffcaf" stroke="black" points="127,-19 0,-19 0,0 127,0 127,-19"/>
<text text-anchor="middle" x="63.5" y="-7" font-family="Helvetica,sans-Serif" font-size="10.00">ApskScalarTransmitter</text>
</a>
</g>
</g>
<!-- NarrowbandTransmitterBase&#45;&gt;ApskScalarTransmitter -->
<g id="edge2" class="edge">
<title>NarrowbandTransmitterBase&#45;&gt;ApskScalarTransmitter</title>
<path fill="none" stroke="black" d="M269.98,-54.98C224.21,-45.12 149.24,-28.97 103.33,-19.08"/>
</g>
<!-- DimensionalTransmitterBase -->
<g id="node4" class="node">
<title>DimensionalTransmitterBase</title>
<g id="a_node4"><a xlink:href="inet.physicallayer.wireless.common.base.packetlevel.DimensionalTransmitterBase.html" xlink:title="Compound Module DimensionalTransmitterBase" target="_parent">
<polygon fill="#fffcaf" stroke="black" points="303.5,-19 145.5,-19 145.5,0 303.5,0 303.5,-19"/>
<text text-anchor="middle" x="224.5" y="-7" font-family="Helvetica,sans-Serif" font-size="10.00">DimensionalTransmitterBase</text>
</a>
</g>
</g>
<!-- NarrowbandTransmitterBase&#45;&gt;DimensionalTransmitterBase -->
<g id="edge3" class="edge">
<title>NarrowbandTransmitterBase&#45;&gt;DimensionalTransmitterBase</title>
<path fill="none" stroke="black" d="M295.84,-54.98C280.08,-45.15 254.28,-29.07 238.41,-19.17"/>
</g>
<!-- Ieee80211TransmitterBase -->
<g id="node5" class="node">
<title>Ieee80211TransmitterBase</title>
<g id="a_node5"><a xlink:href="inet.physicallayer.wireless.ieee80211.packetlevel.Ieee80211TransmitterBase.html" xlink:title="Compound Module Ieee80211TransmitterBase" target="_parent">
<polygon fill="#fffcaf" stroke="black" points="469.5,-19 321.5,-19 321.5,0 469.5,0 469.5,-19"/>
<text text-anchor="middle" x="395.5" y="-7" font-family="Helvetica,sans-Serif" font-size="10.00">Ieee80211TransmitterBase</text>
</a>
</g>
</g>
<!-- NarrowbandTransmitterBase&#45;&gt;Ieee80211TransmitterBase -->
<g id="edge4" class="edge">
<title>NarrowbandTransmitterBase&#45;&gt;Ieee80211TransmitterBase</title>
<path fill="none" stroke="black" d="M323.32,-54.98C339.27,-45.15 365.37,-29.07 381.43,-19.17"/>
</g>
<!-- Ieee802154NarrowbandScalarTransmitter -->
<g id="node6" class="node">
<title>Ieee802154NarrowbandScalarTransmitter</title>
<g id="a_node6"><a xlink:href="inet.physicallayer.wireless.ieee802154.packetlevel.Ieee802154NarrowbandScalarTransmitter.html" xlink:title="Compound Module Ieee802154NarrowbandScalarTransmitter" target="_parent">
<polygon fill="#fffcaf" stroke="black" points="707,-19 488,-19 488,0 707,0 707,-19"/>
<text text-anchor="middle" x="597.5" y="-7" font-family="Helvetica,sans-Serif" font-size="10.00">Ieee802154NarrowbandScalarTransmitter</text>
</a>
</g>
</g>
<!-- NarrowbandTransmitterBase&#45;&gt;Ieee802154NarrowbandScalarTransmitter -->
<g id="edge5" class="edge">
<title>NarrowbandTransmitterBase&#45;&gt;Ieee802154NarrowbandScalarTransmitter</title>
<path fill="none" stroke="black" d="M355.77,-54.98C409.36,-45.12 497.13,-28.97 550.87,-19.08"/>
</g>
<!-- ITransmitter -->
<g id="node2" class="node">
<title>ITransmitter</title>
<g id="a_node2"><a xlink:href="inet.physicallayer.wireless.common.contract.packetlevel.ITransmitter.html" xlink:title="Module Interface ITransmitter" target="_parent">
<polygon fill="#fffcaf" stroke="black" stroke-dasharray="5,2" points="347.5,-129 271.5,-129 271.5,-110 347.5,-110 347.5,-129"/>
<text text-anchor="middle" x="309.5" y="-117" font-family="Helvetica,sans-Serif" font-size="10.00">ITransmitter</text>
</a>
</g>
</g>
<!-- ITransmitter&#45;&gt;NarrowbandTransmitterBase -->
<g id="edge1" class="edge">
<title>ITransmitter&#45;&gt;NarrowbandTransmitterBase</title>
<path fill="none" stroke="black" stroke-dasharray="5,2" d="M309.5,-109.75C309.5,-99.87 309.5,-83.9 309.5,-74.09"/>
</g>
</g>
</svg>
