<?xml version="1.0" encoding="UTF-8" standalone="no"?>
<!DOCTYPE svg PUBLIC "-//W3C//DTD SVG 1.1//EN"
 "http://www.w3.org/Graphics/SVG/1.1/DTD/svg11.dtd">
<!-- Generated by graphviz version 2.43.0 (0)
 -->
<!-- Title: opp Pages: 1 -->
<svg width="710pt" height="82pt"
 viewBox="0.00 0.00 710.00 82.00" xmlns="http://www.w3.org/2000/svg" xmlns:xlink="http://www.w3.org/1999/xlink">
<g id="graph0" class="graph" transform="scale(1 1) rotate(0) translate(4 78)">
<title>opp</title>
<polygon fill="transparent" stroke="transparent" points="-4,4 -4,-78 706,-78 706,4 -4,4"/>
<!-- SensorNetworkShowcaseB -->
<g id="node1" class="node">
<title>SensorNetworkShowcaseB</title>
<g id="a_node1"><a xlink:href="inet.showcases.wireless.sensornetwork.SensorNetworkShowcaseB.html" xlink:title="Network SensorNetworkShowcaseB" target="_parent">
<polygon fill="#9090ff" stroke="black" points="410.5,-74 264.5,-74 264.5,-55 410.5,-55 410.5,-74"/>
<text text-anchor="middle" x="337.5" y="-62" font-family="Helvetica,sans-Serif" font-size="10.00">SensorNetworkShowcaseB</text>
</a>
</g>
</g>
<!-- StandardHost -->
<g id="node2" class="node">
<title>StandardHost</title>
<g id="a_node2"><a xlink:href="inet.node.inet.StandardHost.html" xlink:title="Compound Module StandardHost" target="_parent">
<polygon fill="#fffcaf" stroke="black" points="83,-19 0,-19 0,0 83,0 83,-19"/>
<text text-anchor="middle" x="41.5" y="-7" font-family="Helvetica,sans-Serif" font-size="10.00">StandardHost</text>
</a>
</g>
</g>
<!-- SensorNetworkShowcaseB&#45;&gt;StandardHost -->
<g id="edge1" class="edge">
<title>SensorNetworkShowcaseB&#45;&gt;StandardHost</title>
<path fill="none" stroke="black" d="M289.94,-54.98C236.1,-45.34 148.66,-29.69 93.17,-19.75"/>
<polygon fill="black" stroke="black" points="93.66,-16.28 83.2,-17.97 92.43,-23.17 93.66,-16.28"/>
</g>
<!-- SensorNode -->
<g id="node3" class="node">
<title>SensorNode</title>
<g id="a_node3"><a xlink:href="inet.node.inet.SensorNode.html" xlink:title="Compound Module SensorNode" target="_parent">
<polygon fill="#fffcaf" stroke="black" points="176,-19 101,-19 101,0 176,0 176,-19"/>
<text text-anchor="middle" x="138.5" y="-7" font-family="Helvetica,sans-Serif" font-size="10.00">SensorNode</text>
</a>
</g>
</g>
<!-- SensorNetworkShowcaseB&#45;&gt;SensorNode -->
<g id="edge2" class="edge">
<title>SensorNetworkShowcaseB&#45;&gt;SensorNode</title>
<path fill="none" stroke="black" d="M305.53,-54.98C271.68,-45.97 218.1,-31.7 180.79,-21.76"/>
<polygon fill="black" stroke="black" points="181.29,-18.27 170.72,-19.08 179.49,-25.04 181.29,-18.27"/>
</g>
<!-- Ipv4NetworkConfigurator -->
<g id="node4" class="node">
<title>Ipv4NetworkConfigurator</title>
<g id="a_node4"><a xlink:href="inet.networklayer.configurator.ipv4.Ipv4NetworkConfigurator.html" xlink:title="Simple Module Ipv4NetworkConfigurator" target="_parent">
<polygon fill="#fffcaf" stroke="black" points="334.5,-19 194.5,-19 194.5,0 334.5,0 334.5,-19"/>
<text text-anchor="middle" x="264.5" y="-7" font-family="Helvetica,sans-Serif" font-size="10.00">Ipv4NetworkConfigurator</text>
</a>
</g>
</g>
<!-- SensorNetworkShowcaseB&#45;&gt;Ipv4NetworkConfigurator -->
<g id="edge3" class="edge">
<title>SensorNetworkShowcaseB&#45;&gt;Ipv4NetworkConfigurator</title>
<path fill="none" stroke="black" d="M325.77,-54.98C314.77,-47 298.08,-34.88 284.9,-25.31"/>
<polygon fill="black" stroke="black" points="286.59,-22.21 276.44,-19.17 282.48,-27.88 286.59,-22.21"/>
</g>
<!-- IntegratedVisualizer -->
<g id="node5" class="node">
<title>IntegratedVisualizer</title>
<g id="a_node5"><a xlink:href="inet.visualizer.common.IntegratedVisualizer.html" xlink:title="Compound Module IntegratedVisualizer" target="_parent">
<polygon fill="#fffcaf" stroke="black" points="468,-19 353,-19 353,0 468,0 468,-19"/>
<text text-anchor="middle" x="410.5" y="-7" font-family="Helvetica,sans-Serif" font-size="10.00">IntegratedVisualizer</text>
</a>
</g>
</g>
<!-- SensorNetworkShowcaseB&#45;&gt;IntegratedVisualizer -->
<g id="edge4" class="edge">
<title>SensorNetworkShowcaseB&#45;&gt;IntegratedVisualizer</title>
<path fill="none" stroke="black" d="M349.23,-54.98C360.23,-47 376.92,-34.88 390.1,-25.31"/>
<polygon fill="black" stroke="black" points="392.52,-27.88 398.56,-19.17 388.41,-22.21 392.52,-27.88"/>
</g>
<!-- ApskScalarRadioMedium -->
<g id="node6" class="node">
<title>ApskScalarRadioMedium</title>
<g id="a_node6"><a xlink:href="inet.physicallayer.wireless.apsk.packetlevel.ApskScalarRadioMedium.html" xlink:title="Compound Module ApskScalarRadioMedium" target="_parent">
<polygon fill="#fffcaf" stroke="black" points="624.5,-19 486.5,-19 486.5,0 624.5,0 624.5,-19"/>
<text text-anchor="middle" x="555.5" y="-7" font-family="Helvetica,sans-Serif" font-size="10.00">ApskScalarRadioMedium</text>
</a>
</g>
</g>
<!-- SensorNetworkShowcaseB&#45;&gt;ApskScalarRadioMedium -->
<g id="edge5" class="edge">
<title>SensorNetworkShowcaseB&#45;&gt;ApskScalarRadioMedium</title>
<path fill="none" stroke="black" d="M372.53,-54.98C410,-45.87 469.55,-31.4 510.48,-21.45"/>
<polygon fill="black" stroke="black" points="511.31,-24.85 520.2,-19.08 509.66,-18.04 511.31,-24.85"/>
</g>
<!-- Eth100M -->
<g id="node7" class="node">
<title>Eth100M</title>
<g id="a_node7"><a xlink:href="inet.node.ethernet.Eth100M.html" xlink:title="Channel Eth100M" target="_parent">
<polygon fill="#d0ffd0" stroke="black" points="702,-19 643,-19 643,0 702,0 702,-19"/>
<text text-anchor="middle" x="672.5" y="-7" font-family="Helvetica,sans-Serif" font-size="10.00">Eth100M</text>
</a>
</g>
</g>
<!-- SensorNetworkShowcaseB&#45;&gt;Eth100M -->
<g id="edge6" class="edge">
<title>SensorNetworkShowcaseB&#45;&gt;Eth100M</title>
<path fill="none" stroke="black" d="M402.37,-54.99C460.25,-47.11 547.51,-34.55 632.87,-19.01"/>
<polygon fill="black" stroke="black" points="633.53,-22.45 642.73,-17.2 632.26,-15.56 633.53,-22.45"/>
</g>
</g>
</svg>
