<?xml version="1.0" encoding="UTF-8" standalone="no"?>
<!DOCTYPE svg PUBLIC "-//W3C//DTD SVG 1.1//EN"
 "http://www.w3.org/Graphics/SVG/1.1/DTD/svg11.dtd">
<!-- Generated by graphviz version 2.43.0 (0)
 -->
<!-- Title: opp Pages: 1 -->
<svg width="665pt" height="82pt"
 viewBox="0.00 0.00 665.00 82.00" xmlns="http://www.w3.org/2000/svg" xmlns:xlink="http://www.w3.org/1999/xlink">
<g id="graph0" class="graph" transform="scale(1 1) rotate(0) translate(4 78)">
<title>opp</title>
<polygon fill="transparent" stroke="transparent" points="-4,4 -4,-78 661,-78 661,4 -4,4"/>
<!-- DynamicTest -->
<g id="node1" class="node">
<title>DynamicTest</title>
<g id="a_node1"><a xlink:href="inet.examples.rip.dynamictest.DynamicTest.html" xlink:title="Network DynamicTest" target="_parent">
<polygon fill="#9090ff" stroke="black" points="326.5,-74 246.5,-74 246.5,-55 326.5,-55 326.5,-74"/>
<text text-anchor="middle" x="286.5" y="-62" font-family="Helvetica,sans-Serif" font-size="10.00">DynamicTest</text>
</a>
</g>
</g>
<!-- RipRouter -->
<g id="node2" class="node">
<title>RipRouter</title>
<g id="a_node2"><a xlink:href="inet.node.rip.RipRouter.html" xlink:title="Compound Module RipRouter" target="_parent">
<polygon fill="#fffcaf" stroke="black" points="65,-19 0,-19 0,0 65,0 65,-19"/>
<text text-anchor="middle" x="32.5" y="-7" font-family="Helvetica,sans-Serif" font-size="10.00">RipRouter</text>
</a>
</g>
</g>
<!-- DynamicTest&#45;&gt;RipRouter -->
<g id="edge1" class="edge">
<title>DynamicTest&#45;&gt;RipRouter</title>
<path fill="none" stroke="black" d="M246.25,-55.1C199.6,-45.37 123.02,-29.39 75.3,-19.43"/>
<polygon fill="black" stroke="black" points="75.79,-15.96 65.29,-17.34 74.36,-22.81 75.79,-15.96"/>
</g>
<!-- ScenarioManager -->
<g id="node3" class="node">
<title>ScenarioManager</title>
<g id="a_node3"><a xlink:href="inet.common.scenario.ScenarioManager.html" xlink:title="Simple Module ScenarioManager" target="_parent">
<polygon fill="#fffcaf" stroke="black" points="184,-19 83,-19 83,0 184,0 184,-19"/>
<text text-anchor="middle" x="133.5" y="-7" font-family="Helvetica,sans-Serif" font-size="10.00">ScenarioManager</text>
</a>
</g>
</g>
<!-- DynamicTest&#45;&gt;ScenarioManager -->
<g id="edge2" class="edge">
<title>DynamicTest&#45;&gt;ScenarioManager</title>
<path fill="none" stroke="black" d="M261.92,-54.98C236.45,-46.16 196.46,-32.31 167.87,-22.41"/>
<polygon fill="black" stroke="black" points="168.87,-19.05 158.27,-19.08 166.58,-25.66 168.87,-19.05"/>
</g>
<!-- StandardHost -->
<g id="node4" class="node">
<title>StandardHost</title>
<g id="a_node4"><a xlink:href="inet.node.inet.StandardHost.html" xlink:title="Compound Module StandardHost" target="_parent">
<polygon fill="#fffcaf" stroke="black" points="285,-19 202,-19 202,0 285,0 285,-19"/>
<text text-anchor="middle" x="243.5" y="-7" font-family="Helvetica,sans-Serif" font-size="10.00">StandardHost</text>
</a>
</g>
</g>
<!-- DynamicTest&#45;&gt;StandardHost -->
<g id="edge3" class="edge">
<title>DynamicTest&#45;&gt;StandardHost</title>
<path fill="none" stroke="black" d="M279.4,-54.75C273.33,-47.26 264.41,-36.28 256.99,-27.13"/>
<polygon fill="black" stroke="black" points="259.49,-24.65 250.47,-19.09 254.05,-29.06 259.49,-24.65"/>
</g>
<!-- C -->
<g id="node5" class="node">
<title>C</title>
<g id="a_node5"><a xlink:href="inet.examples.rip.dynamictest.DynamicTest.C.html" xlink:title="Channel C" target="_parent">
<polygon fill="#d0ffd0" stroke="black" points="357.5,-19 303.5,-19 303.5,0 357.5,0 357.5,-19"/>
<text text-anchor="middle" x="330.5" y="-7" font-family="Helvetica,sans-Serif" font-size="10.00">C</text>
</a>
</g>
</g>
<!-- DynamicTest&#45;&gt;C -->
<g id="edge4" class="edge">
<title>DynamicTest&#45;&gt;C</title>
<path fill="none" stroke="black" d="M293.77,-54.75C300.04,-47.18 309.29,-36.05 316.93,-26.84"/>
<polygon fill="black" stroke="black" points="319.67,-29.02 323.37,-19.09 314.29,-24.55 319.67,-29.02"/>
</g>
<!-- Ipv4NetworkConfigurator -->
<g id="node6" class="node">
<title>Ipv4NetworkConfigurator</title>
<g id="a_node6"><a xlink:href="inet.networklayer.configurator.ipv4.Ipv4NetworkConfigurator.html" xlink:title="Simple Module Ipv4NetworkConfigurator" target="_parent">
<polygon fill="#fffcaf" stroke="black" points="515.5,-19 375.5,-19 375.5,0 515.5,0 515.5,-19"/>
<text text-anchor="middle" x="445.5" y="-7" font-family="Helvetica,sans-Serif" font-size="10.00">Ipv4NetworkConfigurator</text>
</a>
</g>
</g>
<!-- DynamicTest&#45;&gt;Ipv4NetworkConfigurator -->
<g id="edge5" class="edge">
<title>DynamicTest&#45;&gt;Ipv4NetworkConfigurator</title>
<path fill="none" stroke="black" d="M312.05,-54.98C338.62,-46.13 380.44,-32.19 410.17,-22.28"/>
<polygon fill="black" stroke="black" points="411.37,-25.56 419.75,-19.08 409.16,-18.92 411.37,-25.56"/>
</g>
<!-- RoutingTableRecorder -->
<g id="node7" class="node">
<title>RoutingTableRecorder</title>
<g id="a_node7"><a xlink:href="inet.networklayer.ipv4.RoutingTableRecorder.html" xlink:title="Simple Module RoutingTableRecorder" target="_parent">
<polygon fill="#fffcaf" stroke="black" points="657,-19 534,-19 534,0 657,0 657,-19"/>
<text text-anchor="middle" x="595.5" y="-7" font-family="Helvetica,sans-Serif" font-size="10.00">RoutingTableRecorder</text>
</a>
</g>
</g>
<!-- DynamicTest&#45;&gt;RoutingTableRecorder -->
<g id="edge6" class="edge">
<title>DynamicTest&#45;&gt;RoutingTableRecorder</title>
<path fill="none" stroke="black" d="M326.58,-56.63C379.79,-47.5 474.2,-31.31 535.81,-20.74"/>
<polygon fill="black" stroke="black" points="536.52,-24.17 545.78,-19.03 535.34,-17.27 536.52,-24.17"/>
</g>
</g>
</svg>
