<?xml version="1.0" encoding="UTF-8" standalone="no"?>
<!DOCTYPE svg PUBLIC "-//W3C//DTD SVG 1.1//EN"
 "http://www.w3.org/Graphics/SVG/1.1/DTD/svg11.dtd">
<!-- Generated by graphviz version 2.43.0 (0)
 -->
<!-- Title: opp Pages: 1 -->
<svg width="2771pt" height="137pt"
 viewBox="0.00 0.00 2770.50 137.00" xmlns="http://www.w3.org/2000/svg" xmlns:xlink="http://www.w3.org/1999/xlink">
<g id="graph0" class="graph" transform="scale(1 1) rotate(0) translate(4 133)">
<title>opp</title>
<polygon fill="transparent" stroke="transparent" points="-4,4 -4,-133 2766.5,-133 2766.5,4 -4,4"/>
<!-- IPacketFilter -->
<g id="node1" class="node">
<title>IPacketFilter</title>
<g id="a_node1"><a xlink:href="inet.queueing.contract.IPacketFilter.html" xlink:title="Module Interface IPacketFilter" target="_parent">
<polygon fill="#fff700" stroke="black" stroke-dasharray="5,2" points="1599.5,-74 1523.5,-74 1523.5,-55 1599.5,-55 1599.5,-74"/>
<text text-anchor="middle" x="1561.5" y="-62" font-family="Helvetica,sans-Serif" font-size="10.00">IPacketFilter</text>
</a>
</g>
</g>
<!-- ContentBasedFilter -->
<g id="node3" class="node">
<title>ContentBasedFilter</title>
<g id="a_node3"><a xlink:href="inet.queueing.filter.ContentBasedFilter.html" xlink:title="Simple Module ContentBasedFilter" target="_parent">
<polygon fill="#fffcaf" stroke="black" points="109,-19 0,-19 0,0 109,0 109,-19"/>
<text text-anchor="middle" x="54.5" y="-7" font-family="Helvetica,sans-Serif" font-size="10.00">ContentBasedFilter</text>
</a>
</g>
</g>
<!-- IPacketFilter&#45;&gt;ContentBasedFilter -->
<g id="edge2" class="edge">
<title>IPacketFilter&#45;&gt;ContentBasedFilter</title>
<path fill="none" stroke="black" stroke-dasharray="5,2" d="M1523.24,-63.74C1356.31,-64.49 675.26,-64.44 118.5,-19 115.48,-18.75 112.39,-18.47 109.27,-18.15"/>
</g>
<!-- DualIeee8021qFilter -->
<g id="node4" class="node">
<title>DualIeee8021qFilter</title>
<g id="a_node4"><a xlink:href="inet.linklayer.ieee8021q.DualIeee8021qFilter.html" xlink:title="Compound Module DualIeee8021qFilter" target="_parent">
<polygon fill="#fffcaf" stroke="black" points="241.5,-19 127.5,-19 127.5,0 241.5,0 241.5,-19"/>
<text text-anchor="middle" x="184.5" y="-7" font-family="Helvetica,sans-Serif" font-size="10.00">DualIeee8021qFilter</text>
</a>
</g>
</g>
<!-- IPacketFilter&#45;&gt;DualIeee8021qFilter -->
<g id="edge3" class="edge">
<title>IPacketFilter&#45;&gt;DualIeee8021qFilter</title>
<path fill="none" stroke="black" stroke-dasharray="5,2" d="M1523.35,-63.52C1366.08,-63.31 752.71,-59.77 250.5,-19 247.62,-18.77 244.68,-18.5 241.7,-18.2"/>
</g>
<!-- EligibilityTimeFilter -->
<g id="node5" class="node">
<title>EligibilityTimeFilter</title>
<g id="a_node5"><a xlink:href="inet.protocolelement.shaper.EligibilityTimeFilter.html" xlink:title="Simple Module EligibilityTimeFilter" target="_parent">
<polygon fill="#fffcaf" stroke="black" points="369.5,-19 259.5,-19 259.5,0 369.5,0 369.5,-19"/>
<text text-anchor="middle" x="314.5" y="-7" font-family="Helvetica,sans-Serif" font-size="10.00">EligibilityTimeFilter</text>
</a>
</g>
</g>
<!-- IPacketFilter&#45;&gt;EligibilityTimeFilter -->
<g id="edge4" class="edge">
<title>IPacketFilter&#45;&gt;EligibilityTimeFilter</title>
<path fill="none" stroke="black" stroke-dasharray="5,2" d="M1523.37,-63.37C1375.76,-62.61 827.75,-57.2 378.5,-19 375.6,-18.75 372.62,-18.47 369.62,-18.16"/>
</g>
<!-- EthernetAddressChecker -->
<g id="node6" class="node">
<title>EthernetAddressChecker</title>
<g id="a_node6"><a xlink:href="inet.linklayer.ethernet.modular.EthernetAddressChecker.html" xlink:title="Simple Module EthernetAddressChecker" target="_parent">
<polygon fill="#fffcaf" stroke="black" points="523.5,-19 387.5,-19 387.5,0 523.5,0 523.5,-19"/>
<text text-anchor="middle" x="455.5" y="-7" font-family="Helvetica,sans-Serif" font-size="10.00">EthernetAddressChecker</text>
</a>
</g>
</g>
<!-- IPacketFilter&#45;&gt;EthernetAddressChecker -->
<g id="edge5" class="edge">
<title>IPacketFilter&#45;&gt;EthernetAddressChecker</title>
<path fill="none" stroke="black" stroke-dasharray="5,2" d="M1523.13,-62.76C1387.57,-59.97 918.5,-48.62 532.5,-19 529.68,-18.78 526.81,-18.55 523.91,-18.29"/>
</g>
<!-- EthernetFcsChecker -->
<g id="node7" class="node">
<title>EthernetFcsChecker</title>
<g id="a_node7"><a xlink:href="inet.linklayer.ethernet.modular.EthernetFcsChecker.html" xlink:title="Simple Module EthernetFcsChecker" target="_parent">
<polygon fill="#fffcaf" stroke="black" points="655,-19 542,-19 542,0 655,0 655,-19"/>
<text text-anchor="middle" x="598.5" y="-7" font-family="Helvetica,sans-Serif" font-size="10.00">EthernetFcsChecker</text>
</a>
</g>
</g>
<!-- IPacketFilter&#45;&gt;EthernetFcsChecker -->
<g id="edge6" class="edge">
<title>IPacketFilter&#45;&gt;EthernetFcsChecker</title>
<path fill="none" stroke="black" stroke-dasharray="5,2" d="M1523.39,-62.68C1399.43,-59.78 996.47,-48.57 664.5,-19 661.51,-18.73 658.44,-18.43 655.35,-18.11"/>
</g>
<!-- EthernetFragmentFcsChecker -->
<g id="node8" class="node">
<title>EthernetFragmentFcsChecker</title>
<g id="a_node8"><a xlink:href="inet.linklayer.ethernet.modular.EthernetFragmentFcsChecker.html" xlink:title="Simple Module EthernetFragmentFcsChecker" target="_parent">
<polygon fill="#fffcaf" stroke="black" points="833.5,-19 673.5,-19 673.5,0 833.5,0 833.5,-19"/>
<text text-anchor="middle" x="753.5" y="-7" font-family="Helvetica,sans-Serif" font-size="10.00">EthernetFragmentFcsChecker</text>
</a>
</g>
</g>
<!-- IPacketFilter&#45;&gt;EthernetFragmentFcsChecker -->
<g id="edge7" class="edge">
<title>IPacketFilter&#45;&gt;EthernetFragmentFcsChecker</title>
<path fill="none" stroke="black" stroke-dasharray="5,2" d="M1523.27,-61.58C1415.91,-56.11 1102.46,-39.45 842.5,-19 839.56,-18.77 836.57,-18.52 833.54,-18.27"/>
</g>
<!-- EthernetFragmentPhyHeaderChecker -->
<g id="node9" class="node">
<title>EthernetFragmentPhyHeaderChecker</title>
<g id="a_node9"><a xlink:href="inet.physicallayer.wired.ethernet.EthernetFragmentPhyHeaderChecker.html" xlink:title="Simple Module EthernetFragmentPhyHeaderChecker" target="_parent">
<polygon fill="#fffcaf" stroke="black" points="1049,-19 852,-19 852,0 1049,0 1049,-19"/>
<text text-anchor="middle" x="950.5" y="-7" font-family="Helvetica,sans-Serif" font-size="10.00">EthernetFragmentPhyHeaderChecker</text>
</a>
</g>
</g>
<!-- IPacketFilter&#45;&gt;EthernetFragmentPhyHeaderChecker -->
<g id="edge8" class="edge">
<title>IPacketFilter&#45;&gt;EthernetFragmentPhyHeaderChecker</title>
<path fill="none" stroke="black" stroke-dasharray="5,2" d="M1523.28,-60.18C1429.55,-52.05 1185.96,-30.92 1048.54,-19"/>
</g>
<!-- EthernetPhyHeaderChecker -->
<g id="node10" class="node">
<title>EthernetPhyHeaderChecker</title>
<g id="a_node10"><a xlink:href="inet.physicallayer.wired.ethernet.EthernetPhyHeaderChecker.html" xlink:title="Simple Module EthernetPhyHeaderChecker" target="_parent">
<polygon fill="#fffcaf" stroke="black" points="1217.5,-19 1067.5,-19 1067.5,0 1217.5,0 1217.5,-19"/>
<text text-anchor="middle" x="1142.5" y="-7" font-family="Helvetica,sans-Serif" font-size="10.00">EthernetPhyHeaderChecker</text>
</a>
</g>
</g>
<!-- IPacketFilter&#45;&gt;EthernetPhyHeaderChecker -->
<g id="edge9" class="edge">
<title>IPacketFilter&#45;&gt;EthernetPhyHeaderChecker</title>
<path fill="none" stroke="black" stroke-dasharray="5,2" d="M1523.21,-58.66C1452.09,-49.66 1298.82,-30.27 1209.96,-19.03"/>
</g>
<!-- EthernetTypeOrLengthChecker -->
<g id="node11" class="node">
<title>EthernetTypeOrLengthChecker</title>
<g id="a_node11"><a xlink:href="inet.linklayer.ethernet.modular.EthernetTypeOrLengthChecker.html" xlink:title="Simple Module EthernetTypeOrLengthChecker" target="_parent">
<polygon fill="#fffcaf" stroke="black" points="1399.5,-19 1235.5,-19 1235.5,0 1399.5,0 1399.5,-19"/>
<text text-anchor="middle" x="1317.5" y="-7" font-family="Helvetica,sans-Serif" font-size="10.00">EthernetTypeOrLengthChecker</text>
</a>
</g>
</g>
<!-- IPacketFilter&#45;&gt;EthernetTypeOrLengthChecker -->
<g id="edge10" class="edge">
<title>IPacketFilter&#45;&gt;EthernetTypeOrLengthChecker</title>
<path fill="none" stroke="black" stroke-dasharray="5,2" d="M1523.38,-55.22C1478.07,-45.38 1402.86,-29.04 1356.97,-19.07"/>
</g>
<!-- Ieee8021qFilter -->
<g id="node12" class="node">
<title>Ieee8021qFilter</title>
<g id="a_node12"><a xlink:href="inet.linklayer.ieee8021q.Ieee8021qFilter.html" xlink:title="Compound Module Ieee8021qFilter" target="_parent">
<polygon fill="#fffcaf" stroke="black" points="1509.5,-19 1417.5,-19 1417.5,0 1509.5,0 1509.5,-19"/>
<text text-anchor="middle" x="1463.5" y="-7" font-family="Helvetica,sans-Serif" font-size="10.00">Ieee8021qFilter</text>
</a>
</g>
</g>
<!-- IPacketFilter&#45;&gt;Ieee8021qFilter -->
<g id="edge11" class="edge">
<title>IPacketFilter&#45;&gt;Ieee8021qFilter</title>
<path fill="none" stroke="black" stroke-dasharray="5,2" d="M1545.75,-54.98C1527.57,-45.15 1497.83,-29.07 1479.53,-19.17"/>
</g>
<!-- LabelFilter -->
<g id="node13" class="node">
<title>LabelFilter</title>
<g id="a_node13"><a xlink:href="inet.queueing.filter.LabelFilter.html" xlink:title="Simple Module LabelFilter" target="_parent">
<polygon fill="#fffcaf" stroke="black" points="1595,-19 1528,-19 1528,0 1595,0 1595,-19"/>
<text text-anchor="middle" x="1561.5" y="-7" font-family="Helvetica,sans-Serif" font-size="10.00">LabelFilter</text>
</a>
</g>
</g>
<!-- IPacketFilter&#45;&gt;LabelFilter -->
<g id="edge12" class="edge">
<title>IPacketFilter&#45;&gt;LabelFilter</title>
<path fill="none" stroke="black" stroke-dasharray="5,2" d="M1561.5,-54.75C1561.5,-44.87 1561.5,-28.9 1561.5,-19.09"/>
</g>
<!-- MultiPacketFilter -->
<g id="node14" class="node">
<title>MultiPacketFilter</title>
<g id="a_node14"><a xlink:href="inet.queueing.filter.MultiPacketFilter.html" xlink:title="Compound Module MultiPacketFilter" target="_parent">
<polygon fill="#fffcaf" stroke="black" points="1711.5,-19 1613.5,-19 1613.5,0 1711.5,0 1711.5,-19"/>
<text text-anchor="middle" x="1662.5" y="-7" font-family="Helvetica,sans-Serif" font-size="10.00">MultiPacketFilter</text>
</a>
</g>
</g>
<!-- IPacketFilter&#45;&gt;MultiPacketFilter -->
<g id="edge13" class="edge">
<title>IPacketFilter&#45;&gt;MultiPacketFilter</title>
<path fill="none" stroke="black" stroke-dasharray="5,2" d="M1577.73,-54.98C1596.46,-45.15 1627.12,-29.07 1645.98,-19.17"/>
</g>
<!-- OmittedPacketFilter -->
<g id="node15" class="node">
<title>OmittedPacketFilter</title>
<g id="a_node15"><a xlink:href="inet.queueing.filter.OmittedPacketFilter.html" xlink:title="Compound Module OmittedPacketFilter" target="_parent">
<polygon fill="#fffcaf" stroke="black" points="1843,-19 1730,-19 1730,0 1843,0 1843,-19"/>
<text text-anchor="middle" x="1786.5" y="-7" font-family="Helvetica,sans-Serif" font-size="10.00">OmittedPacketFilter</text>
</a>
</g>
</g>
<!-- IPacketFilter&#45;&gt;OmittedPacketFilter -->
<g id="edge14" class="edge">
<title>IPacketFilter&#45;&gt;OmittedPacketFilter</title>
<path fill="none" stroke="black" stroke-dasharray="5,2" d="M1597.65,-54.98C1639.51,-45.12 1708.08,-28.97 1750.07,-19.08"/>
</g>
<!-- PacketFilter -->
<g id="node16" class="node">
<title>PacketFilter</title>
<g id="a_node16"><a xlink:href="inet.queueing.filter.PacketFilter.html" xlink:title="Simple Module PacketFilter" target="_parent">
<polygon fill="#fffcaf" stroke="black" points="1934,-19 1861,-19 1861,0 1934,0 1934,-19"/>
<text text-anchor="middle" x="1897.5" y="-7" font-family="Helvetica,sans-Serif" font-size="10.00">PacketFilter</text>
</a>
</g>
</g>
<!-- IPacketFilter&#45;&gt;PacketFilter -->
<g id="edge15" class="edge">
<title>IPacketFilter&#45;&gt;PacketFilter</title>
<path fill="none" stroke="black" stroke-dasharray="5,2" d="M1599.7,-58.09C1655.39,-50.11 1762.07,-34.45 1852.5,-19 1855.16,-18.54 1857.92,-18.06 1860.68,-17.56"/>
</g>
<!-- SimpleIeee8021qFilter -->
<g id="node17" class="node">
<title>SimpleIeee8021qFilter</title>
<g id="a_node17"><a xlink:href="inet.linklayer.ieee8021q.SimpleIeee8021qFilter.html" xlink:title="Compound Module SimpleIeee8021qFilter" target="_parent">
<polygon fill="#fffcaf" stroke="black" points="2077,-19 1952,-19 1952,0 2077,0 2077,-19"/>
<text text-anchor="middle" x="2014.5" y="-7" font-family="Helvetica,sans-Serif" font-size="10.00">SimpleIeee8021qFilter</text>
</a>
</g>
</g>
<!-- IPacketFilter&#45;&gt;SimpleIeee8021qFilter -->
<g id="edge16" class="edge">
<title>IPacketFilter&#45;&gt;SimpleIeee8021qFilter</title>
<path fill="none" stroke="black" stroke-dasharray="5,2" d="M1599.73,-59.09C1668.51,-51.14 1817.68,-33.86 1943.5,-19 1946.21,-18.68 1948.98,-18.35 1951.78,-18.02"/>
</g>
<!-- StatisticalRateLimiter -->
<g id="node18" class="node">
<title>StatisticalRateLimiter</title>
<g id="a_node18"><a xlink:href="inet.queueing.filter.StatisticalRateLimiter.html" xlink:title="Simple Module StatisticalRateLimiter" target="_parent">
<polygon fill="#fffcaf" stroke="black" points="2217.5,-19 2095.5,-19 2095.5,0 2217.5,0 2217.5,-19"/>
<text text-anchor="middle" x="2156.5" y="-7" font-family="Helvetica,sans-Serif" font-size="10.00">StatisticalRateLimiter</text>
</a>
</g>
</g>
<!-- IPacketFilter&#45;&gt;StatisticalRateLimiter -->
<g id="edge17" class="edge">
<title>IPacketFilter&#45;&gt;StatisticalRateLimiter</title>
<path fill="none" stroke="black" stroke-dasharray="5,2" d="M1599.75,-60.74C1686.45,-54.37 1904.52,-37.76 2086.5,-19 2089.42,-18.7 2092.41,-18.38 2095.43,-18.05"/>
</g>
<!-- StreamFilter -->
<g id="node19" class="node">
<title>StreamFilter</title>
<g id="a_node19"><a xlink:href="inet.protocolelement.redundancy.StreamFilter.html" xlink:title="Simple Module StreamFilter" target="_parent">
<polygon fill="#fffcaf" stroke="black" points="2311.5,-19 2235.5,-19 2235.5,0 2311.5,0 2311.5,-19"/>
<text text-anchor="middle" x="2273.5" y="-7" font-family="Helvetica,sans-Serif" font-size="10.00">StreamFilter</text>
</a>
</g>
</g>
<!-- IPacketFilter&#45;&gt;StreamFilter -->
<g id="edge18" class="edge">
<title>IPacketFilter&#45;&gt;StreamFilter</title>
<path fill="none" stroke="black" stroke-dasharray="5,2" d="M1599.5,-62.45C1701.4,-59.31 1989.07,-48.32 2226.5,-19 2229.38,-18.64 2232.35,-18.23 2235.34,-17.77"/>
</g>
<!-- StreamMerger -->
<g id="node20" class="node">
<title>StreamMerger</title>
<g id="a_node20"><a xlink:href="inet.protocolelement.redundancy.StreamMerger.html" xlink:title="Simple Module StreamMerger" target="_parent">
<polygon fill="#fffcaf" stroke="black" points="2415.5,-19 2329.5,-19 2329.5,0 2415.5,0 2415.5,-19"/>
<text text-anchor="middle" x="2372.5" y="-7" font-family="Helvetica,sans-Serif" font-size="10.00">StreamMerger</text>
</a>
</g>
</g>
<!-- IPacketFilter&#45;&gt;StreamMerger -->
<g id="edge19" class="edge">
<title>IPacketFilter&#45;&gt;StreamMerger</title>
<path fill="none" stroke="black" stroke-dasharray="5,2" d="M1599.53,-62.66C1710.75,-59.91 2044.99,-49.51 2320.5,-19 2323.41,-18.68 2326.4,-18.3 2329.42,-17.89"/>
</g>
<!-- VlanIndFilter -->
<g id="node21" class="node">
<title>VlanIndFilter</title>
<g id="a_node21"><a xlink:href="inet.linklayer.vlan.VlanIndFilter.html" xlink:title="Simple Module VlanIndFilter" target="_parent">
<polygon fill="#fffcaf" stroke="black" points="2511,-19 2434,-19 2434,0 2511,0 2511,-19"/>
<text text-anchor="middle" x="2472.5" y="-7" font-family="Helvetica,sans-Serif" font-size="10.00">VlanIndFilter</text>
</a>
</g>
</g>
<!-- IPacketFilter&#45;&gt;VlanIndFilter -->
<g id="edge20" class="edge">
<title>IPacketFilter&#45;&gt;VlanIndFilter</title>
<path fill="none" stroke="black" stroke-dasharray="5,2" d="M1599.92,-63.21C1721.31,-61.94 2107.37,-55.12 2424.5,-19 2427.53,-18.66 2430.65,-18.24 2433.79,-17.78"/>
</g>
<!-- VlanReqFilter -->
<g id="node22" class="node">
<title>VlanReqFilter</title>
<g id="a_node22"><a xlink:href="inet.linklayer.vlan.VlanReqFilter.html" xlink:title="Simple Module VlanReqFilter" target="_parent">
<polygon fill="#fffcaf" stroke="black" points="2610,-19 2529,-19 2529,0 2610,0 2610,-19"/>
<text text-anchor="middle" x="2569.5" y="-7" font-family="Helvetica,sans-Serif" font-size="10.00">VlanReqFilter</text>
</a>
</g>
</g>
<!-- IPacketFilter&#45;&gt;VlanReqFilter -->
<g id="edge21" class="edge">
<title>IPacketFilter&#45;&gt;VlanReqFilter</title>
<path fill="none" stroke="black" stroke-dasharray="5,2" d="M1599.55,-63.44C1728.97,-62.89 2163.87,-58.05 2520.5,-19 2523.25,-18.7 2526.07,-18.34 2528.91,-17.94"/>
</g>
<!-- IProtocolHeaderChecker -->
<g id="node23" class="node">
<title>IProtocolHeaderChecker</title>
<g id="a_node23"><a xlink:href="inet.protocolelement.contract.IProtocolHeaderChecker.html" xlink:title="Module Interface IProtocolHeaderChecker" target="_parent">
<polygon fill="#fffcaf" stroke="black" stroke-dasharray="5,2" points="2762.5,-19 2628.5,-19 2628.5,0 2762.5,0 2762.5,-19"/>
<text text-anchor="middle" x="2695.5" y="-7" font-family="Helvetica,sans-Serif" font-size="10.00">IProtocolHeaderChecker</text>
</a>
</g>
</g>
<!-- IPacketFilter&#45;&gt;IProtocolHeaderChecker -->
<g id="edge22" class="edge">
<title>IPacketFilter&#45;&gt;IProtocolHeaderChecker</title>
<path fill="none" stroke="black" d="M1599.51,-62.85C1737,-60.31 2221.28,-49.61 2619.5,-19 2622.41,-18.78 2625.39,-18.53 2628.39,-18.26"/>
</g>
<!-- IPacketFlow -->
<g id="node2" class="node">
<title>IPacketFlow</title>
<g id="a_node2"><a xlink:href="inet.queueing.contract.IPacketFlow.html" xlink:title="Module Interface IPacketFlow" target="_parent">
<polygon fill="#fffcaf" stroke="black" stroke-dasharray="5,2" points="1599,-129 1524,-129 1524,-110 1599,-110 1599,-129"/>
<text text-anchor="middle" x="1561.5" y="-117" font-family="Helvetica,sans-Serif" font-size="10.00">IPacketFlow</text>
</a>
</g>
</g>
<!-- IPacketFlow&#45;&gt;IPacketFilter -->
<g id="edge1" class="edge">
<title>IPacketFlow&#45;&gt;IPacketFilter</title>
<path fill="none" stroke="black" d="M1561.5,-109.75C1561.5,-99.87 1561.5,-83.9 1561.5,-74.09"/>
</g>
</g>
</svg>
