<?xml version="1.0" encoding="UTF-8" standalone="no"?>
<!DOCTYPE svg PUBLIC "-//W3C//DTD SVG 1.1//EN"
 "http://www.w3.org/Graphics/SVG/1.1/DTD/svg11.dtd">
<!-- Generated by graphviz version 2.43.0 (0)
 -->
<!-- Title: opp Pages: 1 -->
<svg width="248pt" height="82pt"
 viewBox="0.00 0.00 247.50 82.00" xmlns="http://www.w3.org/2000/svg" xmlns:xlink="http://www.w3.org/1999/xlink">
<g id="graph0" class="graph" transform="scale(1 1) rotate(0) translate(4 78)">
<title>opp</title>
<polygon fill="transparent" stroke="transparent" points="-4,4 -4,-78 243.5,-78 243.5,4 -4,4"/>
<!-- WrrScheduler -->
<g id="node1" class="node">
<title>WrrScheduler</title>
<g id="a_node1"><a xlink:href="inet.queueing.scheduler.WrrScheduler.html" xlink:title="Simple Module WrrScheduler" target="_parent">
<polygon fill="#fff700" stroke="black" points="165.5,-19 83.5,-19 83.5,0 165.5,0 165.5,-19"/>
<text text-anchor="middle" x="124.5" y="-7" font-family="Helvetica,sans-Serif" font-size="10.00">WrrScheduler</text>
</a>
</g>
</g>
<!-- PacketSchedulerBase -->
<g id="node2" class="node">
<title>PacketSchedulerBase</title>
<g id="a_node2"><a xlink:href="inet.queueing.base.PacketSchedulerBase.html" xlink:title="Simple Module PacketSchedulerBase" target="_parent">
<polygon fill="#fffcaf" stroke="black" points="121,-74 0,-74 0,-55 121,-55 121,-74"/>
<text text-anchor="middle" x="60.5" y="-62" font-family="Helvetica,sans-Serif" font-size="10.00">PacketSchedulerBase</text>
</a>
</g>
</g>
<!-- PacketSchedulerBase&#45;&gt;WrrScheduler -->
<g id="edge1" class="edge">
<title>PacketSchedulerBase&#45;&gt;WrrScheduler</title>
<path fill="none" stroke="black" d="M70.78,-54.98C82.66,-45.15 102.08,-29.07 114.03,-19.17"/>
</g>
<!-- IPacketScheduler -->
<g id="node3" class="node">
<title>IPacketScheduler</title>
<g id="a_node3"><a xlink:href="inet.queueing.contract.IPacketScheduler.html" xlink:title="Module Interface IPacketScheduler" target="_parent">
<polygon fill="#fffcaf" stroke="black" stroke-dasharray="5,2" points="239.5,-74 139.5,-74 139.5,-55 239.5,-55 239.5,-74"/>
<text text-anchor="middle" x="189.5" y="-62" font-family="Helvetica,sans-Serif" font-size="10.00">IPacketScheduler</text>
</a>
</g>
</g>
<!-- IPacketScheduler&#45;&gt;WrrScheduler -->
<g id="edge2" class="edge">
<title>IPacketScheduler&#45;&gt;WrrScheduler</title>
<path fill="none" stroke="black" stroke-dasharray="5,2" d="M179.06,-54.98C167,-45.15 147.27,-29.07 135.13,-19.17"/>
</g>
</g>
</svg>
