<?xml version="1.0" encoding="UTF-8" standalone="no"?>
<!DOCTYPE svg PUBLIC "-//W3C//DTD SVG 1.1//EN"
 "http://www.w3.org/Graphics/SVG/1.1/DTD/svg11.dtd">
<!-- Generated by graphviz version 2.43.0 (0)
 -->
<!-- Title: opp Pages: 1 -->
<svg width="392pt" height="82pt"
 viewBox="0.00 0.00 391.50 82.00" xmlns="http://www.w3.org/2000/svg" xmlns:xlink="http://www.w3.org/1999/xlink">
<g id="graph0" class="graph" transform="scale(1 1) rotate(0) translate(4 78)">
<title>opp</title>
<polygon fill="transparent" stroke="transparent" points="-4,4 -4,-78 387.5,-78 387.5,4 -4,4"/>
<!-- CorruptionModeExample -->
<g id="node1" class="node">
<title>CorruptionModeExample</title>
<g id="a_node1"><a xlink:href="inet.examples.wireless.corruptionmode.CorruptionModeExample.html" xlink:title="Network CorruptionModeExample" target="_parent">
<polygon fill="#9090ff" stroke="black" points="295.5,-74 158.5,-74 158.5,-55 295.5,-55 295.5,-74"/>
<text text-anchor="middle" x="227" y="-62" font-family="Helvetica,sans-Serif" font-size="10.00">CorruptionModeExample</text>
</a>
</g>
</g>
<!-- Ipv4NetworkConfigurator -->
<g id="node2" class="node">
<title>Ipv4NetworkConfigurator</title>
<g id="a_node2"><a xlink:href="inet.networklayer.configurator.ipv4.Ipv4NetworkConfigurator.html" xlink:title="Simple Module Ipv4NetworkConfigurator" target="_parent">
<polygon fill="#fffcaf" stroke="black" points="140,-19 0,-19 0,0 140,0 140,-19"/>
<text text-anchor="middle" x="70" y="-7" font-family="Helvetica,sans-Serif" font-size="10.00">Ipv4NetworkConfigurator</text>
</a>
</g>
</g>
<!-- CorruptionModeExample&#45;&gt;Ipv4NetworkConfigurator -->
<g id="edge1" class="edge">
<title>CorruptionModeExample&#45;&gt;Ipv4NetworkConfigurator</title>
<path fill="none" stroke="black" d="M201.78,-54.98C175.64,-46.16 134.6,-32.31 105.27,-22.41"/>
<polygon fill="black" stroke="black" points="106.02,-18.96 95.42,-19.08 103.78,-25.6 106.02,-18.96"/>
</g>
<!-- ApskScalarRadioMedium -->
<g id="node3" class="node">
<title>ApskScalarRadioMedium</title>
<g id="a_node3"><a xlink:href="inet.physicallayer.wireless.apsk.packetlevel.ApskScalarRadioMedium.html" xlink:title="Compound Module ApskScalarRadioMedium" target="_parent">
<polygon fill="#fffcaf" stroke="black" points="296,-19 158,-19 158,0 296,0 296,-19"/>
<text text-anchor="middle" x="227" y="-7" font-family="Helvetica,sans-Serif" font-size="10.00">ApskScalarRadioMedium</text>
</a>
</g>
</g>
<!-- CorruptionModeExample&#45;&gt;ApskScalarRadioMedium -->
<g id="edge2" class="edge">
<title>CorruptionModeExample&#45;&gt;ApskScalarRadioMedium</title>
<path fill="none" stroke="black" d="M227,-54.75C227,-47.8 227,-37.85 227,-29.13"/>
<polygon fill="black" stroke="black" points="230.5,-29.09 227,-19.09 223.5,-29.09 230.5,-29.09"/>
</g>
<!-- AdhocHost -->
<g id="node4" class="node">
<title>AdhocHost</title>
<g id="a_node4"><a xlink:href="inet.node.inet.AdhocHost.html" xlink:title="Compound Module AdhocHost" target="_parent">
<polygon fill="#fffcaf" stroke="black" points="383.5,-19 314.5,-19 314.5,0 383.5,0 383.5,-19"/>
<text text-anchor="middle" x="349" y="-7" font-family="Helvetica,sans-Serif" font-size="10.00">AdhocHost</text>
</a>
</g>
</g>
<!-- CorruptionModeExample&#45;&gt;AdhocHost -->
<g id="edge3" class="edge">
<title>CorruptionModeExample&#45;&gt;AdhocHost</title>
<path fill="none" stroke="black" d="M246.6,-54.98C266.32,-46.42 296.95,-33.11 319.58,-23.28"/>
<polygon fill="black" stroke="black" points="321.26,-26.37 329.04,-19.17 318.48,-19.94 321.26,-26.37"/>
</g>
</g>
</svg>
