<?xml version="1.0" encoding="UTF-8" standalone="no"?>
<!DOCTYPE svg PUBLIC "-//W3C//DTD SVG 1.1//EN"
 "http://www.w3.org/Graphics/SVG/1.1/DTD/svg11.dtd">
<!-- Generated by graphviz version 2.43.0 (0)
 -->
<!-- Title: opp Pages: 1 -->
<svg width="1319pt" height="137pt"
 viewBox="0.00 0.00 1319.00 137.00" xmlns="http://www.w3.org/2000/svg" xmlns:xlink="http://www.w3.org/1999/xlink">
<g id="graph0" class="graph" transform="scale(1 1) rotate(0) translate(4 133)">
<title>opp</title>
<polygon fill="transparent" stroke="transparent" points="-4,4 -4,-133 1315,-133 1315,4 -4,4"/>
<!-- LdpMplsRouter -->
<g id="node1" class="node">
<title>LdpMplsRouter</title>
<g id="a_node1"><a xlink:href="inet.node.mpls.LdpMplsRouter.html" xlink:title="Compound Module LdpMplsRouter" target="_parent">
<polygon fill="#fff700" stroke="black" points="710.5,-74 621.5,-74 621.5,-55 710.5,-55 710.5,-74"/>
<text text-anchor="middle" x="666" y="-62" font-family="Helvetica,sans-Serif" font-size="10.00">LdpMplsRouter</text>
</a>
</g>
</g>
<!-- InterfaceTable -->
<g id="node2" class="node">
<title>InterfaceTable</title>
<g id="a_node2"><a xlink:href="inet.networklayer.common.InterfaceTable.html" xlink:title="Simple Module InterfaceTable" target="_parent">
<polygon fill="#fffcaf" stroke="black" points="86,-19 0,-19 0,0 86,0 86,-19"/>
<text text-anchor="middle" x="43" y="-7" font-family="Helvetica,sans-Serif" font-size="10.00">InterfaceTable</text>
</a>
</g>
</g>
<!-- LdpMplsRouter&#45;&gt;InterfaceTable -->
<g id="edge1" class="edge">
<title>LdpMplsRouter&#45;&gt;InterfaceTable</title>
<path fill="none" stroke="black" d="M621.45,-61.31C526.74,-56.37 298.22,-43 96.29,-19.05"/>
<polygon fill="black" stroke="black" points="96.44,-15.54 86.09,-17.83 95.6,-22.5 96.44,-15.54"/>
</g>
<!-- ILoopbackInterface -->
<g id="node3" class="node">
<title>ILoopbackInterface</title>
<g id="a_node3"><a xlink:href="inet.linklayer.contract.ILoopbackInterface.html" xlink:title="Module Interface ILoopbackInterface" target="_parent">
<polygon fill="#fffcaf" stroke="black" stroke-dasharray="5,2" points="214,-19 104,-19 104,0 214,0 214,-19"/>
<text text-anchor="middle" x="159" y="-7" font-family="Helvetica,sans-Serif" font-size="10.00">ILoopbackInterface</text>
</a>
</g>
</g>
<!-- LdpMplsRouter&#45;&gt;ILoopbackInterface -->
<g id="edge2" class="edge">
<title>LdpMplsRouter&#45;&gt;ILoopbackInterface</title>
<path fill="none" stroke="black" d="M621.3,-59.49C543.05,-52.35 375.88,-36.66 224.12,-19.1"/>
<polygon fill="black" stroke="black" points="224.48,-15.62 214.14,-17.94 223.67,-22.57 224.48,-15.62"/>
</g>
<!-- IdealChannel -->
<g id="node4" class="node">
<title>IdealChannel</title>
<g id="a_node4"><a xlink:href="ned.IdealChannel.html" xlink:title="Channel IdealChannel" target="_parent">
<polygon fill="#d0ffd0" stroke="black" points="312,-19 232,-19 232,0 312,0 312,-19"/>
<text text-anchor="middle" x="272" y="-7" font-family="Helvetica,sans-Serif" font-size="10.00">IdealChannel</text>
</a>
</g>
</g>
<!-- LdpMplsRouter&#45;&gt;IdealChannel -->
<g id="edge3" class="edge">
<title>LdpMplsRouter&#45;&gt;IdealChannel</title>
<path fill="none" stroke="black" d="M621.25,-58.36C557.25,-50.87 435.62,-36.11 322,-19.09"/>
<polygon fill="black" stroke="black" points="322.5,-15.63 312.09,-17.6 321.46,-22.55 322.5,-15.63"/>
</g>
<!-- IPppInterface -->
<g id="node5" class="node">
<title>IPppInterface</title>
<g id="a_node5"><a xlink:href="inet.linklayer.contract.IPppInterface.html" xlink:title="Module Interface IPppInterface" target="_parent">
<polygon fill="#fffcaf" stroke="black" stroke-dasharray="5,2" points="411.5,-19 330.5,-19 330.5,0 411.5,0 411.5,-19"/>
<text text-anchor="middle" x="371" y="-7" font-family="Helvetica,sans-Serif" font-size="10.00">IPppInterface</text>
</a>
</g>
</g>
<!-- LdpMplsRouter&#45;&gt;IPppInterface -->
<g id="edge4" class="edge">
<title>LdpMplsRouter&#45;&gt;IPppInterface</title>
<path fill="none" stroke="black" d="M621.2,-55.45C567.63,-45.83 478.2,-29.76 422.02,-19.67"/>
<polygon fill="black" stroke="black" points="422.4,-16.18 411.94,-17.86 421.16,-23.07 422.4,-16.18"/>
</g>
<!-- Ldp -->
<g id="node6" class="node">
<title>Ldp</title>
<g id="a_node6"><a xlink:href="inet.networklayer.ldp.Ldp.html" xlink:title="Simple Module Ldp" target="_parent">
<polygon fill="#fffcaf" stroke="black" points="484,-19 430,-19 430,0 484,0 484,-19"/>
<text text-anchor="middle" x="457" y="-7" font-family="Helvetica,sans-Serif" font-size="10.00">Ldp</text>
</a>
</g>
</g>
<!-- LdpMplsRouter&#45;&gt;Ldp -->
<g id="edge5" class="edge">
<title>LdpMplsRouter&#45;&gt;Ldp</title>
<path fill="none" stroke="black" d="M632.42,-54.98C594.53,-45.37 533.07,-29.79 493.87,-19.85"/>
<polygon fill="black" stroke="black" points="494.72,-16.46 484.17,-17.39 493,-23.24 494.72,-16.46"/>
</g>
<!-- Mpls -->
<g id="node7" class="node">
<title>Mpls</title>
<g id="a_node7"><a xlink:href="inet.networklayer.mpls.Mpls.html" xlink:title="Simple Module Mpls" target="_parent">
<polygon fill="#fffcaf" stroke="black" points="556,-19 502,-19 502,0 556,0 556,-19"/>
<text text-anchor="middle" x="529" y="-7" font-family="Helvetica,sans-Serif" font-size="10.00">Mpls</text>
</a>
</g>
</g>
<!-- LdpMplsRouter&#45;&gt;Mpls -->
<g id="edge6" class="edge">
<title>LdpMplsRouter&#45;&gt;Mpls</title>
<path fill="none" stroke="black" d="M643.99,-54.98C621.55,-46.3 586.52,-32.75 561.01,-22.88"/>
<polygon fill="black" stroke="black" points="562,-19.51 551.41,-19.17 559.48,-26.04 562,-19.51"/>
</g>
<!-- NodeStatus -->
<g id="node8" class="node">
<title>NodeStatus</title>
<g id="a_node8"><a xlink:href="inet.common.lifecycle.NodeStatus.html" xlink:title="Simple Module NodeStatus" target="_parent">
<polygon fill="#fffcaf" stroke="black" points="647.5,-19 574.5,-19 574.5,0 647.5,0 647.5,-19"/>
<text text-anchor="middle" x="611" y="-7" font-family="Helvetica,sans-Serif" font-size="10.00">NodeStatus</text>
</a>
</g>
</g>
<!-- LdpMplsRouter&#45;&gt;NodeStatus -->
<g id="edge7" class="edge">
<title>LdpMplsRouter&#45;&gt;NodeStatus</title>
<path fill="none" stroke="black" d="M656.92,-54.75C648.91,-47.03 637.04,-35.6 627.38,-26.28"/>
<polygon fill="black" stroke="black" points="629.54,-23.51 619.91,-19.09 624.69,-28.55 629.54,-23.51"/>
</g>
<!-- MessageDispatcher -->
<g id="node9" class="node">
<title>MessageDispatcher</title>
<g id="a_node9"><a xlink:href="inet.common.MessageDispatcher.html" xlink:title="Simple Module MessageDispatcher" target="_parent">
<polygon fill="#fffcaf" stroke="black" points="778.5,-19 665.5,-19 665.5,0 778.5,0 778.5,-19"/>
<text text-anchor="middle" x="722" y="-7" font-family="Helvetica,sans-Serif" font-size="10.00">MessageDispatcher</text>
</a>
</g>
</g>
<!-- LdpMplsRouter&#45;&gt;MessageDispatcher -->
<g id="edge8" class="edge">
<title>LdpMplsRouter&#45;&gt;MessageDispatcher</title>
<path fill="none" stroke="black" d="M675,-54.98C683.19,-47.23 695.51,-35.58 705.47,-26.14"/>
<polygon fill="black" stroke="black" points="707.98,-28.59 712.84,-19.17 703.17,-23.5 707.98,-28.59"/>
</g>
<!-- IUdp -->
<g id="node10" class="node">
<title>IUdp</title>
<g id="a_node10"><a xlink:href="inet.transportlayer.contract.IUdp.html" xlink:title="Module Interface IUdp" target="_parent">
<polygon fill="#fffcaf" stroke="black" stroke-dasharray="5,2" points="851,-19 797,-19 797,0 851,0 851,-19"/>
<text text-anchor="middle" x="824" y="-7" font-family="Helvetica,sans-Serif" font-size="10.00">IUdp</text>
</a>
</g>
</g>
<!-- LdpMplsRouter&#45;&gt;IUdp -->
<g id="edge9" class="edge">
<title>LdpMplsRouter&#45;&gt;IUdp</title>
<path fill="none" stroke="black" d="M691.39,-54.98C717.8,-46.13 759.35,-32.19 788.89,-22.28"/>
<polygon fill="black" stroke="black" points="790.05,-25.58 798.42,-19.08 787.82,-18.94 790.05,-25.58"/>
</g>
<!-- Ipv4NetworkLayer -->
<g id="node11" class="node">
<title>Ipv4NetworkLayer</title>
<g id="a_node11"><a xlink:href="inet.networklayer.ipv4.Ipv4NetworkLayer.html" xlink:title="Compound Module Ipv4NetworkLayer" target="_parent">
<polygon fill="#fffcaf" stroke="black" points="975,-19 869,-19 869,0 975,0 975,-19"/>
<text text-anchor="middle" x="922" y="-7" font-family="Helvetica,sans-Serif" font-size="10.00">Ipv4NetworkLayer</text>
</a>
</g>
</g>
<!-- LdpMplsRouter&#45;&gt;Ipv4NetworkLayer -->
<g id="edge10" class="edge">
<title>LdpMplsRouter&#45;&gt;Ipv4NetworkLayer</title>
<path fill="none" stroke="black" d="M707.13,-54.98C751.6,-45.78 822.55,-31.09 870.65,-21.13"/>
<polygon fill="black" stroke="black" points="871.46,-24.54 880.55,-19.08 870.04,-17.68 871.46,-24.54"/>
</g>
<!-- LinkStateRouting -->
<g id="node12" class="node">
<title>LinkStateRouting</title>
<g id="a_node12"><a xlink:href="inet.networklayer.ted.LinkStateRouting.html" xlink:title="Simple Module LinkStateRouting" target="_parent">
<polygon fill="#fffcaf" stroke="black" points="1093,-19 993,-19 993,0 1093,0 1093,-19"/>
<text text-anchor="middle" x="1043" y="-7" font-family="Helvetica,sans-Serif" font-size="10.00">LinkStateRouting</text>
</a>
</g>
</g>
<!-- LdpMplsRouter&#45;&gt;LinkStateRouting -->
<g id="edge11" class="edge">
<title>LdpMplsRouter&#45;&gt;LinkStateRouting</title>
<path fill="none" stroke="black" d="M710.51,-57.33C770.09,-49.06 879.35,-33.84 982.8,-19.17"/>
<polygon fill="black" stroke="black" points="983.38,-22.62 992.79,-17.75 982.4,-15.69 983.38,-22.62"/>
</g>
<!-- LibTable -->
<g id="node13" class="node">
<title>LibTable</title>
<g id="a_node13"><a xlink:href="inet.networklayer.mpls.LibTable.html" xlink:title="Simple Module LibTable" target="_parent">
<polygon fill="#fffcaf" stroke="black" points="1167,-19 1111,-19 1111,0 1167,0 1167,-19"/>
<text text-anchor="middle" x="1139" y="-7" font-family="Helvetica,sans-Serif" font-size="10.00">LibTable</text>
</a>
</g>
</g>
<!-- LdpMplsRouter&#45;&gt;LibTable -->
<g id="edge12" class="edge">
<title>LdpMplsRouter&#45;&gt;LibTable</title>
<path fill="none" stroke="black" d="M710.81,-60.77C788.31,-55.64 952.53,-43.03 1100.61,-19.03"/>
<polygon fill="black" stroke="black" points="1101.49,-22.43 1110.79,-17.36 1100.35,-15.53 1101.49,-22.43"/>
</g>
<!-- Ted -->
<g id="node14" class="node">
<title>Ted</title>
<g id="a_node14"><a xlink:href="inet.networklayer.ted.Ted.html" xlink:title="Simple Module Ted" target="_parent">
<polygon fill="#fffcaf" stroke="black" points="1239,-19 1185,-19 1185,0 1239,0 1239,-19"/>
<text text-anchor="middle" x="1212" y="-7" font-family="Helvetica,sans-Serif" font-size="10.00">Ted</text>
</a>
</g>
</g>
<!-- LdpMplsRouter&#45;&gt;Ted -->
<g id="edge13" class="edge">
<title>LdpMplsRouter&#45;&gt;Ted</title>
<path fill="none" stroke="black" d="M710.61,-61.78C797.95,-57.95 997.73,-46.87 1174.93,-18.93"/>
<polygon fill="black" stroke="black" points="1175.64,-22.36 1184.96,-17.33 1174.53,-15.45 1175.64,-22.36"/>
</g>
<!-- ITcp -->
<g id="node15" class="node">
<title>ITcp</title>
<g id="a_node15"><a xlink:href="inet.transportlayer.contract.ITcp.html" xlink:title="Module Interface ITcp" target="_parent">
<polygon fill="#fffcaf" stroke="black" stroke-dasharray="5,2" points="1311,-19 1257,-19 1257,0 1311,0 1311,-19"/>
<text text-anchor="middle" x="1284" y="-7" font-family="Helvetica,sans-Serif" font-size="10.00">ITcp</text>
</a>
</g>
</g>
<!-- LdpMplsRouter&#45;&gt;ITcp -->
<g id="edge14" class="edge">
<title>LdpMplsRouter&#45;&gt;ITcp</title>
<path fill="none" stroke="black" d="M710.81,-62.45C807.21,-59.67 1041.52,-50.19 1246.9,-18.91"/>
<polygon fill="black" stroke="black" points="1247.61,-22.34 1256.96,-17.36 1246.55,-15.43 1247.61,-22.34"/>
</g>
<!-- LDPTEST -->
<g id="node16" class="node">
<title>LDPTEST</title>
<g id="a_node16"><a xlink:href="inet.examples.mpls.ldp.LDPTEST.html" xlink:title="Network LDPTEST" target="_parent">
<polygon fill="#d0d0ff" stroke="black" points="695.5,-129 636.5,-129 636.5,-110 695.5,-110 695.5,-129"/>
<text text-anchor="middle" x="666" y="-117" font-family="Helvetica,sans-Serif" font-size="10.00">LDPTEST</text>
</a>
</g>
</g>
<!-- LDPTEST&#45;&gt;LdpMplsRouter -->
<g id="edge15" class="edge">
<title>LDPTEST&#45;&gt;LdpMplsRouter</title>
<path fill="none" stroke="black" d="M666,-109.75C666,-102.8 666,-92.85 666,-84.13"/>
<polygon fill="black" stroke="black" points="669.5,-84.09 666,-74.09 662.5,-84.09 669.5,-84.09"/>
</g>
</g>
</svg>
