<?xml version="1.0" encoding="UTF-8" standalone="no"?>
<!DOCTYPE svg PUBLIC "-//W3C//DTD SVG 1.1//EN"
 "http://www.w3.org/Graphics/SVG/1.1/DTD/svg11.dtd">
<!-- Generated by graphviz version 2.43.0 (0)
 -->
<!-- Title: opp Pages: 1 -->
<svg width="449pt" height="82pt"
 viewBox="0.00 0.00 448.50 82.00" xmlns="http://www.w3.org/2000/svg" xmlns:xlink="http://www.w3.org/1999/xlink">
<g id="graph0" class="graph" transform="scale(1 1) rotate(0) translate(4 78)">
<title>opp</title>
<polygon fill="transparent" stroke="transparent" points="-4,4 -4,-78 444.5,-78 444.5,4 -4,4"/>
<!-- ServerTutorialStep -->
<g id="node1" class="node">
<title>ServerTutorialStep</title>
<g id="a_node1"><a xlink:href="inet.tutorials.queueing.ServerTutorialStep.html" xlink:title="Network ServerTutorialStep" target="_parent">
<polygon fill="#9090ff" stroke="black" points="247,-74 141,-74 141,-55 247,-55 247,-74"/>
<text text-anchor="middle" x="194" y="-62" font-family="Helvetica,sans-Serif" font-size="10.00">ServerTutorialStep</text>
</a>
</g>
</g>
<!-- IdealChannel -->
<g id="node2" class="node">
<title>IdealChannel</title>
<g id="a_node2"><a xlink:href="ned.IdealChannel.html" xlink:title="Channel IdealChannel" target="_parent">
<polygon fill="#d0ffd0" stroke="black" points="80,-19 0,-19 0,0 80,0 80,-19"/>
<text text-anchor="middle" x="40" y="-7" font-family="Helvetica,sans-Serif" font-size="10.00">IdealChannel</text>
</a>
</g>
</g>
<!-- ServerTutorialStep&#45;&gt;IdealChannel -->
<g id="edge1" class="edge">
<title>ServerTutorialStep&#45;&gt;IdealChannel</title>
<path fill="none" stroke="black" d="M169.26,-54.98C143.63,-46.16 103.37,-32.31 74.59,-22.41"/>
<polygon fill="black" stroke="black" points="75.53,-19.03 64.94,-19.08 73.25,-25.65 75.53,-19.03"/>
</g>
<!-- PacketServer -->
<g id="node3" class="node">
<title>PacketServer</title>
<g id="a_node3"><a xlink:href="inet.queueing.server.PacketServer.html" xlink:title="Simple Module PacketServer" target="_parent">
<polygon fill="#fffcaf" stroke="black" points="178,-19 98,-19 98,0 178,0 178,-19"/>
<text text-anchor="middle" x="138" y="-7" font-family="Helvetica,sans-Serif" font-size="10.00">PacketServer</text>
</a>
</g>
</g>
<!-- ServerTutorialStep&#45;&gt;PacketServer -->
<g id="edge2" class="edge">
<title>ServerTutorialStep&#45;&gt;PacketServer</title>
<path fill="none" stroke="black" d="M185,-54.98C176.81,-47.23 164.49,-35.58 154.53,-26.14"/>
<polygon fill="black" stroke="black" points="156.83,-23.5 147.16,-19.17 152.02,-28.59 156.83,-23.5"/>
</g>
<!-- PassivePacketSink -->
<g id="node4" class="node">
<title>PassivePacketSink</title>
<g id="a_node4"><a xlink:href="inet.queueing.sink.PassivePacketSink.html" xlink:title="Simple Module PassivePacketSink" target="_parent">
<polygon fill="#fffcaf" stroke="black" points="303.5,-19 196.5,-19 196.5,0 303.5,0 303.5,-19"/>
<text text-anchor="middle" x="250" y="-7" font-family="Helvetica,sans-Serif" font-size="10.00">PassivePacketSink</text>
</a>
</g>
</g>
<!-- ServerTutorialStep&#45;&gt;PassivePacketSink -->
<g id="edge3" class="edge">
<title>ServerTutorialStep&#45;&gt;PassivePacketSink</title>
<path fill="none" stroke="black" d="M203,-54.98C211.19,-47.23 223.51,-35.58 233.47,-26.14"/>
<polygon fill="black" stroke="black" points="235.98,-28.59 240.84,-19.17 231.17,-23.5 235.98,-28.59"/>
</g>
<!-- PassivePacketSource -->
<g id="node5" class="node">
<title>PassivePacketSource</title>
<g id="a_node5"><a xlink:href="inet.queueing.source.PassivePacketSource.html" xlink:title="Simple Module PassivePacketSource" target="_parent">
<polygon fill="#fffcaf" stroke="black" points="440.5,-19 321.5,-19 321.5,0 440.5,0 440.5,-19"/>
<text text-anchor="middle" x="381" y="-7" font-family="Helvetica,sans-Serif" font-size="10.00">PassivePacketSource</text>
</a>
</g>
</g>
<!-- ServerTutorialStep&#45;&gt;PassivePacketSource -->
<g id="edge4" class="edge">
<title>ServerTutorialStep&#45;&gt;PassivePacketSource</title>
<path fill="none" stroke="black" d="M224.04,-54.98C255.71,-46.01 305.77,-31.82 340.81,-21.89"/>
<polygon fill="black" stroke="black" points="342.05,-25.18 350.72,-19.08 340.14,-18.44 342.05,-25.18"/>
</g>
</g>
</svg>
