<?xml version="1.0" encoding="UTF-8" standalone="no"?>
<!DOCTYPE svg PUBLIC "-//W3C//DTD SVG 1.1//EN"
 "http://www.w3.org/Graphics/SVG/1.1/DTD/svg11.dtd">
<!-- Generated by graphviz version 2.43.0 (0)
 -->
<!-- Title: opp Pages: 1 -->
<svg width="580pt" height="137pt"
 viewBox="0.00 0.00 579.50 137.00" xmlns="http://www.w3.org/2000/svg" xmlns:xlink="http://www.w3.org/1999/xlink">
<g id="graph0" class="graph" transform="scale(1 1) rotate(0) translate(4 133)">
<title>opp</title>
<polygon fill="transparent" stroke="transparent" points="-4,4 -4,-133 575.5,-133 575.5,4 -4,4"/>
<!-- MobileHost -->
<g id="node1" class="node">
<title>MobileHost</title>
<g id="a_node1"><a xlink:href="inet.examples.mobility.MobileHost.html" xlink:title="Compound Module MobileHost" target="_parent">
<polygon fill="#fff700" stroke="black" points="270,-74 198,-74 198,-55 270,-55 270,-74"/>
<text text-anchor="middle" x="234" y="-62" font-family="Helvetica,sans-Serif" font-size="10.00">MobileHost</text>
</a>
</g>
</g>
<!-- IMobility -->
<g id="node2" class="node">
<title>IMobility</title>
<g id="a_node2"><a xlink:href="inet.mobility.contract.IMobility.html" xlink:title="Module Interface IMobility" target="_parent">
<polygon fill="#fffcaf" stroke="black" stroke-dasharray="5,2" points="263.5,-19 204.5,-19 204.5,0 263.5,0 263.5,-19"/>
<text text-anchor="middle" x="234" y="-7" font-family="Helvetica,sans-Serif" font-size="10.00">IMobility</text>
</a>
</g>
</g>
<!-- MobileHost&#45;&gt;IMobility -->
<g id="edge1" class="edge">
<title>MobileHost&#45;&gt;IMobility</title>
<path fill="none" stroke="black" d="M234,-54.75C234,-47.8 234,-37.85 234,-29.13"/>
<polygon fill="black" stroke="black" points="237.5,-29.09 234,-19.09 230.5,-29.09 237.5,-29.09"/>
</g>
<!-- MoBANNetwork -->
<g id="node3" class="node">
<title>MoBANNetwork</title>
<g id="a_node3"><a xlink:href="inet.examples.mobility.MoBANNetwork.html" xlink:title="Network MoBANNetwork" target="_parent">
<polygon fill="#d0d0ff" stroke="black" points="94,-129 0,-129 0,-110 94,-110 94,-129"/>
<text text-anchor="middle" x="47" y="-117" font-family="Helvetica,sans-Serif" font-size="10.00">MoBANNetwork</text>
</a>
</g>
</g>
<!-- MoBANNetwork&#45;&gt;MobileHost -->
<g id="edge2" class="edge">
<title>MoBANNetwork&#45;&gt;MobileHost</title>
<path fill="none" stroke="black" d="M77.04,-109.98C108.71,-101.01 158.77,-86.82 193.81,-76.89"/>
<polygon fill="black" stroke="black" points="195.05,-80.18 203.72,-74.08 193.14,-73.44 195.05,-80.18"/>
</g>
<!-- MobileNetwork -->
<g id="node4" class="node">
<title>MobileNetwork</title>
<g id="a_node4"><a xlink:href="inet.examples.mobility.MobileNetwork.html" xlink:title="Network MobileNetwork" target="_parent">
<polygon fill="#d0d0ff" stroke="black" points="203.5,-129 112.5,-129 112.5,-110 203.5,-110 203.5,-129"/>
<text text-anchor="middle" x="158" y="-117" font-family="Helvetica,sans-Serif" font-size="10.00">MobileNetwork</text>
</a>
</g>
</g>
<!-- MobileNetwork&#45;&gt;MobileHost -->
<g id="edge3" class="edge">
<title>MobileNetwork&#45;&gt;MobileHost</title>
<path fill="none" stroke="black" d="M170.21,-109.98C181.78,-101.92 199.38,-89.65 213.16,-80.03"/>
<polygon fill="black" stroke="black" points="215.37,-82.76 221.57,-74.17 211.36,-77.02 215.37,-82.76"/>
</g>
<!-- MobileNetworkWithEnvironment -->
<g id="node5" class="node">
<title>MobileNetworkWithEnvironment</title>
<g id="a_node5"><a xlink:href="inet.examples.mobility.MobileNetworkWithEnvironment.html" xlink:title="Network MobileNetworkWithEnvironment" target="_parent">
<polygon fill="#d0d0ff" stroke="black" points="398,-129 222,-129 222,-110 398,-110 398,-129"/>
<text text-anchor="middle" x="310" y="-117" font-family="Helvetica,sans-Serif" font-size="10.00">MobileNetworkWithEnvironment</text>
</a>
</g>
</g>
<!-- MobileNetworkWithEnvironment&#45;&gt;MobileHost -->
<g id="edge4" class="edge">
<title>MobileNetworkWithEnvironment&#45;&gt;MobileHost</title>
<path fill="none" stroke="black" d="M297.79,-109.98C286.22,-101.92 268.62,-89.65 254.84,-80.03"/>
<polygon fill="black" stroke="black" points="256.64,-77.02 246.43,-74.17 252.63,-82.76 256.64,-77.02"/>
</g>
<!-- MobileNetworkWithScenario -->
<g id="node6" class="node">
<title>MobileNetworkWithScenario</title>
<g id="a_node6"><a xlink:href="inet.examples.mobility.MobileNetworkWithScenario.html" xlink:title="Network MobileNetworkWithScenario" target="_parent">
<polygon fill="#d0d0ff" stroke="black" points="571.5,-129 416.5,-129 416.5,-110 571.5,-110 571.5,-129"/>
<text text-anchor="middle" x="494" y="-117" font-family="Helvetica,sans-Serif" font-size="10.00">MobileNetworkWithScenario</text>
</a>
</g>
</g>
<!-- MobileNetworkWithScenario&#45;&gt;MobileHost -->
<g id="edge5" class="edge">
<title>MobileNetworkWithScenario&#45;&gt;MobileHost</title>
<path fill="none" stroke="black" d="M452.23,-109.98C405.19,-100.4 328.97,-84.86 280.19,-74.92"/>
<polygon fill="black" stroke="black" points="280.72,-71.45 270.22,-72.88 279.32,-78.31 280.72,-71.45"/>
</g>
</g>
</svg>
