<?xml version="1.0" encoding="UTF-8" standalone="no"?>
<!DOCTYPE svg PUBLIC "-//W3C//DTD SVG 1.1//EN"
 "http://www.w3.org/Graphics/SVG/1.1/DTD/svg11.dtd">
<!-- Generated by graphviz version 2.43.0 (0)
 -->
<!-- Title: opp Pages: 1 -->
<svg width="474pt" height="82pt"
 viewBox="0.00 0.00 473.50 82.00" xmlns="http://www.w3.org/2000/svg" xmlns:xlink="http://www.w3.org/1999/xlink">
<g id="graph0" class="graph" transform="scale(1 1) rotate(0) translate(4 78)">
<title>opp</title>
<polygon fill="transparent" stroke="transparent" points="-4,4 -4,-78 469.5,-78 469.5,4 -4,4"/>
<!-- RegressionTestingTutorialWireless -->
<g id="node1" class="node">
<title>RegressionTestingTutorialWireless</title>
<g id="a_node1"><a xlink:href="inet.tutorials.fingerprint.RegressionTestingTutorialWireless.html" xlink:title="Network RegressionTestingTutorialWireless" target="_parent">
<polygon fill="#9090ff" stroke="black" points="366.5,-74 183.5,-74 183.5,-55 366.5,-55 366.5,-74"/>
<text text-anchor="middle" x="275" y="-62" font-family="Helvetica,sans-Serif" font-size="10.00">RegressionTestingTutorialWireless</text>
</a>
</g>
</g>
<!-- Ipv4NetworkConfigurator -->
<g id="node2" class="node">
<title>Ipv4NetworkConfigurator</title>
<g id="a_node2"><a xlink:href="inet.networklayer.configurator.ipv4.Ipv4NetworkConfigurator.html" xlink:title="Simple Module Ipv4NetworkConfigurator" target="_parent">
<polygon fill="#fffcaf" stroke="black" points="140,-19 0,-19 0,0 140,0 140,-19"/>
<text text-anchor="middle" x="70" y="-7" font-family="Helvetica,sans-Serif" font-size="10.00">Ipv4NetworkConfigurator</text>
</a>
</g>
</g>
<!-- RegressionTestingTutorialWireless&#45;&gt;Ipv4NetworkConfigurator -->
<g id="edge1" class="edge">
<title>RegressionTestingTutorialWireless&#45;&gt;Ipv4NetworkConfigurator</title>
<path fill="none" stroke="black" d="M242.06,-54.98C207.05,-45.93 151.53,-31.58 113.07,-21.64"/>
<polygon fill="black" stroke="black" points="113.75,-18.2 103.19,-19.08 112,-24.97 113.75,-18.2"/>
</g>
<!-- IntegratedVisualizer -->
<g id="node3" class="node">
<title>IntegratedVisualizer</title>
<g id="a_node3"><a xlink:href="inet.visualizer.common.IntegratedVisualizer.html" xlink:title="Compound Module IntegratedVisualizer" target="_parent">
<polygon fill="#fffcaf" stroke="black" points="273.5,-19 158.5,-19 158.5,0 273.5,0 273.5,-19"/>
<text text-anchor="middle" x="216" y="-7" font-family="Helvetica,sans-Serif" font-size="10.00">IntegratedVisualizer</text>
</a>
</g>
</g>
<!-- RegressionTestingTutorialWireless&#45;&gt;IntegratedVisualizer -->
<g id="edge2" class="edge">
<title>RegressionTestingTutorialWireless&#45;&gt;IntegratedVisualizer</title>
<path fill="none" stroke="black" d="M265.52,-54.98C256.8,-47.15 243.66,-35.34 233.1,-25.86"/>
<polygon fill="black" stroke="black" points="235.43,-23.25 225.65,-19.17 230.75,-28.46 235.43,-23.25"/>
</g>
<!-- IRadioMedium -->
<g id="node4" class="node">
<title>IRadioMedium</title>
<g id="a_node4"><a xlink:href="inet.physicallayer.wireless.common.contract.packetlevel.IRadioMedium.html" xlink:title="Module Interface IRadioMedium" target="_parent">
<polygon fill="#fffcaf" stroke="black" stroke-dasharray="5,2" points="378.5,-19 291.5,-19 291.5,0 378.5,0 378.5,-19"/>
<text text-anchor="middle" x="335" y="-7" font-family="Helvetica,sans-Serif" font-size="10.00">IRadioMedium</text>
</a>
</g>
</g>
<!-- RegressionTestingTutorialWireless&#45;&gt;IRadioMedium -->
<g id="edge3" class="edge">
<title>RegressionTestingTutorialWireless&#45;&gt;IRadioMedium</title>
<path fill="none" stroke="black" d="M284.64,-54.98C293.51,-47.15 306.87,-35.34 317.61,-25.86"/>
<polygon fill="black" stroke="black" points="320.01,-28.41 325.18,-19.17 315.37,-23.17 320.01,-28.41"/>
</g>
<!-- AdhocHost -->
<g id="node5" class="node">
<title>AdhocHost</title>
<g id="a_node5"><a xlink:href="inet.node.inet.AdhocHost.html" xlink:title="Compound Module AdhocHost" target="_parent">
<polygon fill="#fffcaf" stroke="black" points="465.5,-19 396.5,-19 396.5,0 465.5,0 465.5,-19"/>
<text text-anchor="middle" x="431" y="-7" font-family="Helvetica,sans-Serif" font-size="10.00">AdhocHost</text>
</a>
</g>
</g>
<!-- RegressionTestingTutorialWireless&#45;&gt;AdhocHost -->
<g id="edge4" class="edge">
<title>RegressionTestingTutorialWireless&#45;&gt;AdhocHost</title>
<path fill="none" stroke="black" d="M300.06,-54.98C326.03,-46.16 366.81,-32.31 395.96,-22.41"/>
<polygon fill="black" stroke="black" points="397.4,-25.61 405.74,-19.08 395.15,-18.99 397.4,-25.61"/>
</g>
</g>
</svg>
