<?xml version="1.0" encoding="UTF-8" standalone="no"?>
<!DOCTYPE svg PUBLIC "-//W3C//DTD SVG 1.1//EN"
 "http://www.w3.org/Graphics/SVG/1.1/DTD/svg11.dtd">
<!-- Generated by graphviz version 2.43.0 (0)
 -->
<!-- Title: opp Pages: 1 -->
<svg width="510pt" height="82pt"
 viewBox="0.00 0.00 509.50 82.00" xmlns="http://www.w3.org/2000/svg" xmlns:xlink="http://www.w3.org/1999/xlink">
<g id="graph0" class="graph" transform="scale(1 1) rotate(0) translate(4 78)">
<title>opp</title>
<polygon fill="transparent" stroke="transparent" points="-4,4 -4,-78 505.5,-78 505.5,4 -4,4"/>
<!-- Ieee80211LevelofDetailShowcase -->
<g id="node1" class="node">
<title>Ieee80211LevelofDetailShowcase</title>
<g id="a_node1"><a xlink:href="inet.examples.wireless.ieee80211levelofdetail.Ieee80211LevelofDetailShowcase.html" xlink:title="Network Ieee80211LevelofDetailShowcase" target="_parent">
<polygon fill="#9090ff" stroke="black" points="393,-74 211,-74 211,-55 393,-55 393,-74"/>
<text text-anchor="middle" x="302" y="-62" font-family="Helvetica,sans-Serif" font-size="10.00">Ieee80211LevelofDetailShowcase</text>
</a>
</g>
</g>
<!-- Ipv4NetworkConfigurator -->
<g id="node2" class="node">
<title>Ipv4NetworkConfigurator</title>
<g id="a_node2"><a xlink:href="inet.networklayer.configurator.ipv4.Ipv4NetworkConfigurator.html" xlink:title="Simple Module Ipv4NetworkConfigurator" target="_parent">
<polygon fill="#fffcaf" stroke="black" points="140,-19 0,-19 0,0 140,0 140,-19"/>
<text text-anchor="middle" x="70" y="-7" font-family="Helvetica,sans-Serif" font-size="10.00">Ipv4NetworkConfigurator</text>
</a>
</g>
</g>
<!-- Ieee80211LevelofDetailShowcase&#45;&gt;Ipv4NetworkConfigurator -->
<g id="edge1" class="edge">
<title>Ieee80211LevelofDetailShowcase&#45;&gt;Ipv4NetworkConfigurator</title>
<path fill="none" stroke="black" d="M264.73,-54.98C224.68,-45.84 160.93,-31.27 117.36,-21.32"/>
<polygon fill="black" stroke="black" points="118.1,-17.9 107.57,-19.08 116.54,-24.72 118.1,-17.9"/>
</g>
<!-- IntegratedCanvasVisualizer -->
<g id="node3" class="node">
<title>IntegratedCanvasVisualizer</title>
<g id="a_node3"><a xlink:href="inet.visualizer.canvas.integrated.IntegratedCanvasVisualizer.html" xlink:title="Compound Module IntegratedCanvasVisualizer" target="_parent">
<polygon fill="#fffcaf" stroke="black" points="309.5,-19 158.5,-19 158.5,0 309.5,0 309.5,-19"/>
<text text-anchor="middle" x="234" y="-7" font-family="Helvetica,sans-Serif" font-size="10.00">IntegratedCanvasVisualizer</text>
</a>
</g>
</g>
<!-- Ieee80211LevelofDetailShowcase&#45;&gt;IntegratedCanvasVisualizer -->
<g id="edge2" class="edge">
<title>Ieee80211LevelofDetailShowcase&#45;&gt;IntegratedCanvasVisualizer</title>
<path fill="none" stroke="black" d="M291.07,-54.98C280.92,-47.07 265.58,-35.11 253.35,-25.58"/>
<polygon fill="black" stroke="black" points="255.16,-22.56 245.12,-19.17 250.86,-28.08 255.16,-22.56"/>
</g>
<!-- IRadioMedium -->
<g id="node4" class="node">
<title>IRadioMedium</title>
<g id="a_node4"><a xlink:href="inet.physicallayer.wireless.common.contract.packetlevel.IRadioMedium.html" xlink:title="Module Interface IRadioMedium" target="_parent">
<polygon fill="#fffcaf" stroke="black" stroke-dasharray="5,2" points="414.5,-19 327.5,-19 327.5,0 414.5,0 414.5,-19"/>
<text text-anchor="middle" x="371" y="-7" font-family="Helvetica,sans-Serif" font-size="10.00">IRadioMedium</text>
</a>
</g>
</g>
<!-- Ieee80211LevelofDetailShowcase&#45;&gt;IRadioMedium -->
<g id="edge3" class="edge">
<title>Ieee80211LevelofDetailShowcase&#45;&gt;IRadioMedium</title>
<path fill="none" stroke="black" d="M313.09,-54.98C323.49,-47 339.26,-34.88 351.72,-25.31"/>
<polygon fill="black" stroke="black" points="353.91,-28.04 359.71,-19.17 349.65,-22.49 353.91,-28.04"/>
</g>
<!-- AdhocHost -->
<g id="node5" class="node">
<title>AdhocHost</title>
<g id="a_node5"><a xlink:href="inet.node.inet.AdhocHost.html" xlink:title="Compound Module AdhocHost" target="_parent">
<polygon fill="#fffcaf" stroke="black" points="501.5,-19 432.5,-19 432.5,0 501.5,0 501.5,-19"/>
<text text-anchor="middle" x="467" y="-7" font-family="Helvetica,sans-Serif" font-size="10.00">AdhocHost</text>
</a>
</g>
</g>
<!-- Ieee80211LevelofDetailShowcase&#45;&gt;AdhocHost -->
<g id="edge4" class="edge">
<title>Ieee80211LevelofDetailShowcase&#45;&gt;AdhocHost</title>
<path fill="none" stroke="black" d="M328.51,-54.98C356.21,-46.09 399.86,-32.07 430.74,-22.15"/>
<polygon fill="black" stroke="black" points="431.83,-25.47 440.28,-19.08 429.69,-18.81 431.83,-25.47"/>
</g>
</g>
</svg>
