<?xml version="1.0" encoding="UTF-8" standalone="no"?>
<!DOCTYPE svg PUBLIC "-//W3C//DTD SVG 1.1//EN"
 "http://www.w3.org/Graphics/SVG/1.1/DTD/svg11.dtd">
<!-- Generated by graphviz version 2.43.0 (0)
 -->
<!-- Title: opp Pages: 1 -->
<svg width="276pt" height="82pt"
 viewBox="0.00 0.00 275.50 82.00" xmlns="http://www.w3.org/2000/svg" xmlns:xlink="http://www.w3.org/1999/xlink">
<g id="graph0" class="graph" transform="scale(1 1) rotate(0) translate(4 78)">
<title>opp</title>
<polygon fill="transparent" stroke="transparent" points="-4,4 -4,-78 271.5,-78 271.5,4 -4,4"/>
<!-- VlanPolicyLayer -->
<g id="node1" class="node">
<title>VlanPolicyLayer</title>
<g id="a_node1"><a xlink:href="inet.linklayer.vlan.VlanPolicyLayer.html" xlink:title="Compound Module VlanPolicyLayer" target="_parent">
<polygon fill="#fff700" stroke="black" points="183.5,-74 88.5,-74 88.5,-55 183.5,-55 183.5,-74"/>
<text text-anchor="middle" x="136" y="-62" font-family="Helvetica,sans-Serif" font-size="10.00">VlanPolicyLayer</text>
</a>
</g>
</g>
<!-- IdealChannel -->
<g id="node2" class="node">
<title>IdealChannel</title>
<g id="a_node2"><a xlink:href="ned.IdealChannel.html" xlink:title="Channel IdealChannel" target="_parent">
<polygon fill="#d0ffd0" stroke="black" points="80,-19 0,-19 0,0 80,0 80,-19"/>
<text text-anchor="middle" x="40" y="-7" font-family="Helvetica,sans-Serif" font-size="10.00">IdealChannel</text>
</a>
</g>
</g>
<!-- VlanPolicyLayer&#45;&gt;IdealChannel -->
<g id="edge1" class="edge">
<title>VlanPolicyLayer&#45;&gt;IdealChannel</title>
<path fill="none" stroke="black" d="M120.58,-54.98C105.55,-46.69 82.46,-33.94 64.84,-24.22"/>
<polygon fill="black" stroke="black" points="66.15,-20.94 55.7,-19.17 62.77,-27.07 66.15,-20.94"/>
</g>
<!-- IPacketFilter -->
<g id="node3" class="node">
<title>IPacketFilter</title>
<g id="a_node3"><a xlink:href="inet.queueing.contract.IPacketFilter.html" xlink:title="Module Interface IPacketFilter" target="_parent">
<polygon fill="#fffcaf" stroke="black" stroke-dasharray="5,2" points="174,-19 98,-19 98,0 174,0 174,-19"/>
<text text-anchor="middle" x="136" y="-7" font-family="Helvetica,sans-Serif" font-size="10.00">IPacketFilter</text>
</a>
</g>
</g>
<!-- VlanPolicyLayer&#45;&gt;IPacketFilter -->
<g id="edge2" class="edge">
<title>VlanPolicyLayer&#45;&gt;IPacketFilter</title>
<path fill="none" stroke="black" d="M136,-54.75C136,-47.8 136,-37.85 136,-29.13"/>
<polygon fill="black" stroke="black" points="139.5,-29.09 136,-19.09 132.5,-29.09 139.5,-29.09"/>
</g>
<!-- IPacketFlow -->
<g id="node4" class="node">
<title>IPacketFlow</title>
<g id="a_node4"><a xlink:href="inet.queueing.contract.IPacketFlow.html" xlink:title="Module Interface IPacketFlow" target="_parent">
<polygon fill="#fffcaf" stroke="black" stroke-dasharray="5,2" points="267.5,-19 192.5,-19 192.5,0 267.5,0 267.5,-19"/>
<text text-anchor="middle" x="230" y="-7" font-family="Helvetica,sans-Serif" font-size="10.00">IPacketFlow</text>
</a>
</g>
</g>
<!-- VlanPolicyLayer&#45;&gt;IPacketFlow -->
<g id="edge3" class="edge">
<title>VlanPolicyLayer&#45;&gt;IPacketFlow</title>
<path fill="none" stroke="black" d="M151.1,-54.98C165.82,-46.69 188.42,-33.94 205.67,-24.22"/>
<polygon fill="black" stroke="black" points="207.63,-27.13 214.62,-19.17 204.19,-21.03 207.63,-27.13"/>
</g>
</g>
</svg>
