<?xml version="1.0" encoding="UTF-8" standalone="no"?>
<!DOCTYPE svg PUBLIC "-//W3C//DTD SVG 1.1//EN"
 "http://www.w3.org/Graphics/SVG/1.1/DTD/svg11.dtd">
<!-- Generated by graphviz version 2.43.0 (0)
 -->
<!-- Title: opp Pages: 1 -->
<svg width="295pt" height="82pt"
 viewBox="0.00 0.00 295.00 82.00" xmlns="http://www.w3.org/2000/svg" xmlns:xlink="http://www.w3.org/1999/xlink">
<g id="graph0" class="graph" transform="scale(1 1) rotate(0) translate(4 78)">
<title>opp</title>
<polygon fill="transparent" stroke="transparent" points="-4,4 -4,-78 291,-78 291,4 -4,4"/>
<!-- Network7 -->
<g id="node1" class="node">
<title>Network7</title>
<g id="a_node1"><a xlink:href="inet.tutorials.protocol.Network7.html" xlink:title="Network Network7" target="_parent">
<polygon fill="#9090ff" stroke="black" points="164.5,-74 100.5,-74 100.5,-55 164.5,-55 164.5,-74"/>
<text text-anchor="middle" x="132.5" y="-62" font-family="Helvetica,sans-Serif" font-size="10.00">Network7</text>
</a>
</g>
</g>
<!-- ServerHost7 -->
<g id="node2" class="node">
<title>ServerHost7</title>
<g id="a_node2"><a xlink:href="inet.tutorials.protocol.ServerHost7.html" xlink:title="Compound Module ServerHost7" target="_parent">
<polygon fill="#fffcaf" stroke="black" points="77,-19 0,-19 0,0 77,0 77,-19"/>
<text text-anchor="middle" x="38.5" y="-7" font-family="Helvetica,sans-Serif" font-size="10.00">ServerHost7</text>
</a>
</g>
</g>
<!-- Network7&#45;&gt;ServerHost7 -->
<g id="edge1" class="edge">
<title>Network7&#45;&gt;ServerHost7</title>
<path fill="none" stroke="black" d="M117.4,-54.98C102.68,-46.69 80.08,-33.94 62.83,-24.22"/>
<polygon fill="black" stroke="black" points="64.31,-21.03 53.88,-19.17 60.87,-27.13 64.31,-21.03"/>
</g>
<!-- ClientHost7 -->
<g id="node3" class="node">
<title>ClientHost7</title>
<g id="a_node3"><a xlink:href="inet.tutorials.protocol.ClientHost7.html" xlink:title="Compound Module ClientHost7" target="_parent">
<polygon fill="#fffcaf" stroke="black" points="169.5,-19 95.5,-19 95.5,0 169.5,0 169.5,-19"/>
<text text-anchor="middle" x="132.5" y="-7" font-family="Helvetica,sans-Serif" font-size="10.00">ClientHost7</text>
</a>
</g>
</g>
<!-- Network7&#45;&gt;ClientHost7 -->
<g id="edge2" class="edge">
<title>Network7&#45;&gt;ClientHost7</title>
<path fill="none" stroke="black" d="M132.5,-54.75C132.5,-47.8 132.5,-37.85 132.5,-29.13"/>
<polygon fill="black" stroke="black" points="136,-29.09 132.5,-19.09 129,-29.09 136,-29.09"/>
</g>
<!-- DatarateChannel -->
<g id="node4" class="node">
<title>DatarateChannel</title>
<g id="a_node4"><a xlink:href="ned.DatarateChannel.html" xlink:title="Channel DatarateChannel" target="_parent">
<polygon fill="#d0ffd0" stroke="black" points="287,-19 188,-19 188,0 287,0 287,-19"/>
<text text-anchor="middle" x="237.5" y="-7" font-family="Helvetica,sans-Serif" font-size="10.00">DatarateChannel</text>
</a>
</g>
</g>
<!-- Network7&#45;&gt;DatarateChannel -->
<g id="edge3" class="edge">
<title>Network7&#45;&gt;DatarateChannel</title>
<path fill="none" stroke="black" d="M149.37,-54.98C166.11,-46.54 192,-33.47 211.39,-23.68"/>
<polygon fill="black" stroke="black" points="212.97,-26.8 220.32,-19.17 209.82,-20.55 212.97,-26.8"/>
</g>
</g>
</svg>
