<?xml version="1.0" encoding="UTF-8" standalone="no"?>
<!DOCTYPE svg PUBLIC "-//W3C//DTD SVG 1.1//EN"
 "http://www.w3.org/Graphics/SVG/1.1/DTD/svg11.dtd">
<!-- Generated by graphviz version 2.43.0 (0)
 -->
<!-- Title: opp Pages: 1 -->
<svg width="471pt" height="82pt"
 viewBox="0.00 0.00 470.50 82.00" xmlns="http://www.w3.org/2000/svg" xmlns:xlink="http://www.w3.org/1999/xlink">
<g id="graph0" class="graph" transform="scale(1 1) rotate(0) translate(4 78)">
<title>opp</title>
<polygon fill="transparent" stroke="transparent" points="-4,4 -4,-78 466.5,-78 466.5,4 -4,4"/>
<!-- RedMarkerNetwork -->
<g id="node1" class="node">
<title>RedMarkerNetwork</title>
<g id="a_node1"><a xlink:href="inet.examples.inet.redmarker.RedMarkerNetwork.html" xlink:title="Network RedMarkerNetwork" target="_parent">
<polygon fill="#9090ff" stroke="black" points="260.5,-74 150.5,-74 150.5,-55 260.5,-55 260.5,-74"/>
<text text-anchor="middle" x="205.5" y="-62" font-family="Helvetica,sans-Serif" font-size="10.00">RedMarkerNetwork</text>
</a>
</g>
</g>
<!-- StandardHost -->
<g id="node2" class="node">
<title>StandardHost</title>
<g id="a_node2"><a xlink:href="inet.node.inet.StandardHost.html" xlink:title="Compound Module StandardHost" target="_parent">
<polygon fill="#fffcaf" stroke="black" points="83,-19 0,-19 0,0 83,0 83,-19"/>
<text text-anchor="middle" x="41.5" y="-7" font-family="Helvetica,sans-Serif" font-size="10.00">StandardHost</text>
</a>
</g>
</g>
<!-- RedMarkerNetwork&#45;&gt;StandardHost -->
<g id="edge1" class="edge">
<title>RedMarkerNetwork&#45;&gt;StandardHost</title>
<path fill="none" stroke="black" d="M179.15,-54.98C151.74,-46.13 108.61,-32.19 77.94,-22.28"/>
<polygon fill="black" stroke="black" points="78.65,-18.83 68.06,-19.08 76.5,-25.49 78.65,-18.83"/>
</g>
<!-- NormalP -->
<g id="node3" class="node">
<title>NormalP</title>
<g id="a_node3"><a xlink:href="inet.examples.inet.redmarker.NormalP.html" xlink:title="Channel NormalP" target="_parent">
<polygon fill="#d0ffd0" stroke="black" points="160,-19 101,-19 101,0 160,0 160,-19"/>
<text text-anchor="middle" x="130.5" y="-7" font-family="Helvetica,sans-Serif" font-size="10.00">NormalP</text>
</a>
</g>
</g>
<!-- RedMarkerNetwork&#45;&gt;NormalP -->
<g id="edge2" class="edge">
<title>RedMarkerNetwork&#45;&gt;NormalP</title>
<path fill="none" stroke="black" d="M193.45,-54.98C182.04,-46.92 164.67,-34.65 151.07,-25.03"/>
<polygon fill="black" stroke="black" points="152.96,-22.08 142.77,-19.17 148.92,-27.8 152.96,-22.08"/>
</g>
<!-- Router -->
<g id="node4" class="node">
<title>Router</title>
<g id="a_node4"><a xlink:href="inet.node.inet.Router.html" xlink:title="Compound Module Router" target="_parent">
<polygon fill="#fffcaf" stroke="black" points="232.5,-19 178.5,-19 178.5,0 232.5,0 232.5,-19"/>
<text text-anchor="middle" x="205.5" y="-7" font-family="Helvetica,sans-Serif" font-size="10.00">Router</text>
</a>
</g>
</g>
<!-- RedMarkerNetwork&#45;&gt;Router -->
<g id="edge3" class="edge">
<title>RedMarkerNetwork&#45;&gt;Router</title>
<path fill="none" stroke="black" d="M205.5,-54.75C205.5,-47.8 205.5,-37.85 205.5,-29.13"/>
<polygon fill="black" stroke="black" points="209,-29.09 205.5,-19.09 202,-29.09 209,-29.09"/>
</g>
<!-- FastP -->
<g id="node5" class="node">
<title>FastP</title>
<g id="a_node5"><a xlink:href="inet.examples.inet.redmarker.FastP.html" xlink:title="Channel FastP" target="_parent">
<polygon fill="#d0ffd0" stroke="black" points="304.5,-19 250.5,-19 250.5,0 304.5,0 304.5,-19"/>
<text text-anchor="middle" x="277.5" y="-7" font-family="Helvetica,sans-Serif" font-size="10.00">FastP</text>
</a>
</g>
</g>
<!-- RedMarkerNetwork&#45;&gt;FastP -->
<g id="edge4" class="edge">
<title>RedMarkerNetwork&#45;&gt;FastP</title>
<path fill="none" stroke="black" d="M217.07,-54.98C227.92,-47 244.38,-34.88 257.38,-25.31"/>
<polygon fill="black" stroke="black" points="259.74,-27.92 265.72,-19.17 255.59,-22.28 259.74,-27.92"/>
</g>
<!-- Ipv4NetworkConfigurator -->
<g id="node6" class="node">
<title>Ipv4NetworkConfigurator</title>
<g id="a_node6"><a xlink:href="inet.networklayer.configurator.ipv4.Ipv4NetworkConfigurator.html" xlink:title="Simple Module Ipv4NetworkConfigurator" target="_parent">
<polygon fill="#fffcaf" stroke="black" points="462.5,-19 322.5,-19 322.5,0 462.5,0 462.5,-19"/>
<text text-anchor="middle" x="392.5" y="-7" font-family="Helvetica,sans-Serif" font-size="10.00">Ipv4NetworkConfigurator</text>
</a>
</g>
</g>
<!-- RedMarkerNetwork&#45;&gt;Ipv4NetworkConfigurator -->
<g id="edge5" class="edge">
<title>RedMarkerNetwork&#45;&gt;Ipv4NetworkConfigurator</title>
<path fill="none" stroke="black" d="M235.54,-54.98C267.21,-46.01 317.27,-31.82 352.31,-21.89"/>
<polygon fill="black" stroke="black" points="353.55,-25.18 362.22,-19.08 351.64,-18.44 353.55,-25.18"/>
</g>
</g>
</svg>
