<?xml version="1.0" encoding="UTF-8" standalone="no"?>
<!DOCTYPE svg PUBLIC "-//W3C//DTD SVG 1.1//EN"
 "http://www.w3.org/Graphics/SVG/1.1/DTD/svg11.dtd">
<!-- Generated by graphviz version 2.43.0 (0)
 -->
<!-- Title: opp Pages: 1 -->
<svg width="214pt" height="82pt"
 viewBox="0.00 0.00 213.50 82.00" xmlns="http://www.w3.org/2000/svg" xmlns:xlink="http://www.w3.org/1999/xlink">
<g id="graph0" class="graph" transform="scale(1 1) rotate(0) translate(4 78)">
<title>opp</title>
<polygon fill="transparent" stroke="transparent" points="-4,4 -4,-78 209.5,-78 209.5,4 -4,4"/>
<!-- TrafficConditionerLayer -->
<g id="node1" class="node">
<title>TrafficConditionerLayer</title>
<g id="a_node1"><a xlink:href="inet.protocolelement.trafficconditioner.TrafficConditionerLayer.html" xlink:title="Compound Module TrafficConditionerLayer" target="_parent">
<polygon fill="#fff700" stroke="black" points="161.5,-74 30.5,-74 30.5,-55 161.5,-55 161.5,-74"/>
<text text-anchor="middle" x="96" y="-62" font-family="Helvetica,sans-Serif" font-size="10.00">TrafficConditionerLayer</text>
</a>
</g>
</g>
<!-- IdealChannel -->
<g id="node2" class="node">
<title>IdealChannel</title>
<g id="a_node2"><a xlink:href="ned.IdealChannel.html" xlink:title="Channel IdealChannel" target="_parent">
<polygon fill="#d0ffd0" stroke="black" points="80,-19 0,-19 0,0 80,0 80,-19"/>
<text text-anchor="middle" x="40" y="-7" font-family="Helvetica,sans-Serif" font-size="10.00">IdealChannel</text>
</a>
</g>
</g>
<!-- TrafficConditionerLayer&#45;&gt;IdealChannel -->
<g id="edge1" class="edge">
<title>TrafficConditionerLayer&#45;&gt;IdealChannel</title>
<path fill="none" stroke="black" d="M87,-54.98C78.81,-47.23 66.49,-35.58 56.53,-26.14"/>
<polygon fill="black" stroke="black" points="58.83,-23.5 49.16,-19.17 54.02,-28.59 58.83,-23.5"/>
</g>
<!-- ITrafficConditioner -->
<g id="node3" class="node">
<title>ITrafficConditioner</title>
<g id="a_node3"><a xlink:href="inet.queueing.contract.ITrafficConditioner.html" xlink:title="Module Interface ITrafficConditioner" target="_parent">
<polygon fill="#fffcaf" stroke="black" stroke-dasharray="5,2" points="205.5,-19 98.5,-19 98.5,0 205.5,0 205.5,-19"/>
<text text-anchor="middle" x="152" y="-7" font-family="Helvetica,sans-Serif" font-size="10.00">ITrafficConditioner</text>
</a>
</g>
</g>
<!-- TrafficConditionerLayer&#45;&gt;ITrafficConditioner -->
<g id="edge2" class="edge">
<title>TrafficConditionerLayer&#45;&gt;ITrafficConditioner</title>
<path fill="none" stroke="black" d="M105,-54.98C113.19,-47.23 125.51,-35.58 135.47,-26.14"/>
<polygon fill="black" stroke="black" points="137.98,-28.59 142.84,-19.17 133.17,-23.5 137.98,-28.59"/>
</g>
</g>
</svg>
