<?xml version="1.0" encoding="UTF-8" standalone="no"?>
<!DOCTYPE svg PUBLIC "-//W3C//DTD SVG 1.1//EN"
 "http://www.w3.org/Graphics/SVG/1.1/DTD/svg11.dtd">
<!-- Generated by graphviz version 2.43.0 (0)
 -->
<!-- Title: opp Pages: 1 -->
<svg width="548pt" height="82pt"
 viewBox="0.00 0.00 548.00 82.00" xmlns="http://www.w3.org/2000/svg" xmlns:xlink="http://www.w3.org/1999/xlink">
<g id="graph0" class="graph" transform="scale(1 1) rotate(0) translate(4 78)">
<title>opp</title>
<polygon fill="transparent" stroke="transparent" points="-4,4 -4,-78 544,-78 544,4 -4,4"/>
<!-- AnalogModelShowcaseRoutingNetwork -->
<g id="node1" class="node">
<title>AnalogModelShowcaseRoutingNetwork</title>
<g id="a_node1"><a xlink:href="inet.showcases.wireless.analogmodel.AnalogModelShowcaseRoutingNetwork.html" xlink:title="Network AnalogModelShowcaseRoutingNetwork" target="_parent">
<polygon fill="#9090ff" stroke="black" points="397,-74 189,-74 189,-55 397,-55 397,-74"/>
<text text-anchor="middle" x="293" y="-62" font-family="Helvetica,sans-Serif" font-size="10.00">AnalogModelShowcaseRoutingNetwork</text>
</a>
</g>
</g>
<!-- UnitDiskRadioMedium -->
<g id="node2" class="node">
<title>UnitDiskRadioMedium</title>
<g id="a_node2"><a xlink:href="inet.physicallayer.wireless.unitdisk.UnitDiskRadioMedium.html" xlink:title="Compound Module UnitDiskRadioMedium" target="_parent">
<polygon fill="#fffcaf" stroke="black" points="126,-19 0,-19 0,0 126,0 126,-19"/>
<text text-anchor="middle" x="63" y="-7" font-family="Helvetica,sans-Serif" font-size="10.00">UnitDiskRadioMedium</text>
</a>
</g>
</g>
<!-- AnalogModelShowcaseRoutingNetwork&#45;&gt;UnitDiskRadioMedium -->
<g id="edge1" class="edge">
<title>AnalogModelShowcaseRoutingNetwork&#45;&gt;UnitDiskRadioMedium</title>
<path fill="none" stroke="black" d="M256.05,-54.98C216.43,-45.86 153.41,-31.33 110.23,-21.38"/>
<polygon fill="black" stroke="black" points="110.77,-17.92 100.24,-19.08 109.2,-24.74 110.77,-17.92"/>
</g>
<!-- IntegratedMultiVisualizer -->
<g id="node3" class="node">
<title>IntegratedMultiVisualizer</title>
<g id="a_node3"><a xlink:href="inet.visualizer.common.IntegratedMultiVisualizer.html" xlink:title="Compound Module IntegratedMultiVisualizer" target="_parent">
<polygon fill="#fffcaf" stroke="black" points="284,-19 144,-19 144,0 284,0 284,-19"/>
<text text-anchor="middle" x="214" y="-7" font-family="Helvetica,sans-Serif" font-size="10.00">IntegratedMultiVisualizer</text>
</a>
</g>
</g>
<!-- AnalogModelShowcaseRoutingNetwork&#45;&gt;IntegratedMultiVisualizer -->
<g id="edge2" class="edge">
<title>AnalogModelShowcaseRoutingNetwork&#45;&gt;IntegratedMultiVisualizer</title>
<path fill="none" stroke="black" d="M280.31,-54.98C268.17,-46.84 249.64,-34.41 235.25,-24.76"/>
<polygon fill="black" stroke="black" points="237.18,-21.84 226.92,-19.17 233.28,-27.65 237.18,-21.84"/>
</g>
<!-- Ipv4NetworkConfigurator -->
<g id="node4" class="node">
<title>Ipv4NetworkConfigurator</title>
<g id="a_node4"><a xlink:href="inet.networklayer.configurator.ipv4.Ipv4NetworkConfigurator.html" xlink:title="Simple Module Ipv4NetworkConfigurator" target="_parent">
<polygon fill="#fffcaf" stroke="black" points="442,-19 302,-19 302,0 442,0 442,-19"/>
<text text-anchor="middle" x="372" y="-7" font-family="Helvetica,sans-Serif" font-size="10.00">Ipv4NetworkConfigurator</text>
</a>
</g>
</g>
<!-- AnalogModelShowcaseRoutingNetwork&#45;&gt;Ipv4NetworkConfigurator -->
<g id="edge3" class="edge">
<title>AnalogModelShowcaseRoutingNetwork&#45;&gt;Ipv4NetworkConfigurator</title>
<path fill="none" stroke="black" d="M305.69,-54.98C317.83,-46.84 336.36,-34.41 350.75,-24.76"/>
<polygon fill="black" stroke="black" points="352.72,-27.65 359.08,-19.17 348.82,-21.84 352.72,-27.65"/>
</g>
<!-- ManetRouter -->
<g id="node5" class="node">
<title>ManetRouter</title>
<g id="a_node5"><a xlink:href="inet.node.inet.ManetRouter.html" xlink:title="Compound Module ManetRouter" target="_parent">
<polygon fill="#fffcaf" stroke="black" points="540,-19 460,-19 460,0 540,0 540,-19"/>
<text text-anchor="middle" x="500" y="-7" font-family="Helvetica,sans-Serif" font-size="10.00">ManetRouter</text>
</a>
</g>
</g>
<!-- AnalogModelShowcaseRoutingNetwork&#45;&gt;ManetRouter -->
<g id="edge4" class="edge">
<title>AnalogModelShowcaseRoutingNetwork&#45;&gt;ManetRouter</title>
<path fill="none" stroke="black" d="M326.26,-54.98C361.61,-45.93 417.67,-31.58 456.51,-21.64"/>
<polygon fill="black" stroke="black" points="457.66,-24.95 466.48,-19.08 455.93,-18.17 457.66,-24.95"/>
</g>
</g>
</svg>
