<?xml version="1.0" encoding="UTF-8" standalone="no"?>
<!DOCTYPE svg PUBLIC "-//W3C//DTD SVG 1.1//EN"
 "http://www.w3.org/Graphics/SVG/1.1/DTD/svg11.dtd">
<!-- Generated by graphviz version 2.43.0 (0)
 -->
<!-- Title: opp Pages: 1 -->
<svg width="468pt" height="137pt"
 viewBox="0.00 0.00 468.00 137.00" xmlns="http://www.w3.org/2000/svg" xmlns:xlink="http://www.w3.org/1999/xlink">
<g id="graph0" class="graph" transform="scale(1 1) rotate(0) translate(4 133)">
<title>opp</title>
<polygon fill="transparent" stroke="transparent" points="-4,4 -4,-133 464,-133 464,4 -4,4"/>
<!-- TelnetClientTraffic -->
<g id="node1" class="node">
<title>TelnetClientTraffic</title>
<g id="a_node1"><a xlink:href="inet.tutorials.queueing.TelnetClientTraffic.html" xlink:title="Compound Module TelnetClientTraffic" target="_parent">
<polygon fill="#fff700" stroke="black" points="284.5,-74 179.5,-74 179.5,-55 284.5,-55 284.5,-74"/>
<text text-anchor="middle" x="232" y="-62" font-family="Helvetica,sans-Serif" font-size="10.00">TelnetClientTraffic</text>
</a>
</g>
</g>
<!-- IPassivePacketSink -->
<g id="node2" class="node">
<title>IPassivePacketSink</title>
<g id="a_node2"><a xlink:href="inet.queueing.contract.IPassivePacketSink.html" xlink:title="Module Interface IPassivePacketSink" target="_parent">
<polygon fill="#fffcaf" stroke="black" stroke-dasharray="5,2" points="110,-19 0,-19 0,0 110,0 110,-19"/>
<text text-anchor="middle" x="55" y="-7" font-family="Helvetica,sans-Serif" font-size="10.00">IPassivePacketSink</text>
</a>
</g>
</g>
<!-- TelnetClientTraffic&#45;&gt;IPassivePacketSink -->
<g id="edge1" class="edge">
<title>TelnetClientTraffic&#45;&gt;IPassivePacketSink</title>
<path fill="none" stroke="black" d="M203.56,-54.98C173.72,-46.05 126.62,-31.94 93.47,-22.02"/>
<polygon fill="black" stroke="black" points="94.24,-18.6 83.66,-19.08 92.24,-25.3 94.24,-18.6"/>
</g>
<!-- IPacketScheduler -->
<g id="node3" class="node">
<title>IPacketScheduler</title>
<g id="a_node3"><a xlink:href="inet.queueing.contract.IPacketScheduler.html" xlink:title="Module Interface IPacketScheduler" target="_parent">
<polygon fill="#fffcaf" stroke="black" stroke-dasharray="5,2" points="228,-19 128,-19 128,0 228,0 228,-19"/>
<text text-anchor="middle" x="178" y="-7" font-family="Helvetica,sans-Serif" font-size="10.00">IPacketScheduler</text>
</a>
</g>
</g>
<!-- TelnetClientTraffic&#45;&gt;IPacketScheduler -->
<g id="edge2" class="edge">
<title>TelnetClientTraffic&#45;&gt;IPacketScheduler</title>
<path fill="none" stroke="black" d="M223.08,-54.75C215.22,-47.03 203.57,-35.6 194.08,-26.28"/>
<polygon fill="black" stroke="black" points="196.34,-23.6 186.75,-19.09 191.44,-28.59 196.34,-23.6"/>
</g>
<!-- IdealChannel -->
<g id="node4" class="node">
<title>IdealChannel</title>
<g id="a_node4"><a xlink:href="ned.IdealChannel.html" xlink:title="Channel IdealChannel" target="_parent">
<polygon fill="#d0ffd0" stroke="black" points="326,-19 246,-19 246,0 326,0 326,-19"/>
<text text-anchor="middle" x="286" y="-7" font-family="Helvetica,sans-Serif" font-size="10.00">IdealChannel</text>
</a>
</g>
</g>
<!-- TelnetClientTraffic&#45;&gt;IdealChannel -->
<g id="edge3" class="edge">
<title>TelnetClientTraffic&#45;&gt;IdealChannel</title>
<path fill="none" stroke="black" d="M240.92,-54.75C248.78,-47.03 260.43,-35.6 269.92,-26.28"/>
<polygon fill="black" stroke="black" points="272.56,-28.59 277.25,-19.09 267.66,-23.6 272.56,-28.59"/>
</g>
<!-- IActivePacketSource -->
<g id="node5" class="node">
<title>IActivePacketSource</title>
<g id="a_node5"><a xlink:href="inet.queueing.contract.IActivePacketSource.html" xlink:title="Module Interface IActivePacketSource" target="_parent">
<polygon fill="#fffcaf" stroke="black" stroke-dasharray="5,2" points="460,-19 344,-19 344,0 460,0 460,-19"/>
<text text-anchor="middle" x="402" y="-7" font-family="Helvetica,sans-Serif" font-size="10.00">IActivePacketSource</text>
</a>
</g>
</g>
<!-- TelnetClientTraffic&#45;&gt;IActivePacketSource -->
<g id="edge4" class="edge">
<title>TelnetClientTraffic&#45;&gt;IActivePacketSource</title>
<path fill="none" stroke="black" d="M259.31,-54.98C287.85,-46.09 332.83,-32.07 364.64,-22.15"/>
<polygon fill="black" stroke="black" points="365.97,-25.4 374.47,-19.08 363.88,-18.72 365.97,-25.4"/>
</g>
<!-- TelnetTutorialStep -->
<g id="node6" class="node">
<title>TelnetTutorialStep</title>
<g id="a_node6"><a xlink:href="inet.tutorials.queueing.TelnetTutorialStep.html" xlink:title="Network TelnetTutorialStep" target="_parent">
<polygon fill="#d0d0ff" stroke="black" points="284,-129 180,-129 180,-110 284,-110 284,-129"/>
<text text-anchor="middle" x="232" y="-117" font-family="Helvetica,sans-Serif" font-size="10.00">TelnetTutorialStep</text>
</a>
</g>
</g>
<!-- TelnetTutorialStep&#45;&gt;TelnetClientTraffic -->
<g id="edge5" class="edge">
<title>TelnetTutorialStep&#45;&gt;TelnetClientTraffic</title>
<path fill="none" stroke="black" d="M232,-109.75C232,-102.8 232,-92.85 232,-84.13"/>
<polygon fill="black" stroke="black" points="235.5,-84.09 232,-74.09 228.5,-84.09 235.5,-84.09"/>
</g>
</g>
</svg>
