<?xml version="1.0" encoding="UTF-8" standalone="no"?>
<!DOCTYPE svg PUBLIC "-//W3C//DTD SVG 1.1//EN"
 "http://www.w3.org/Graphics/SVG/1.1/DTD/svg11.dtd">
<!-- Generated by graphviz version 2.43.0 (0)
 -->
<!-- Title: opp Pages: 1 -->
<svg width="516pt" height="82pt"
 viewBox="0.00 0.00 515.50 82.00" xmlns="http://www.w3.org/2000/svg" xmlns:xlink="http://www.w3.org/1999/xlink">
<g id="graph0" class="graph" transform="scale(1 1) rotate(0) translate(4 78)">
<title>opp</title>
<polygon fill="transparent" stroke="transparent" points="-4,4 -4,-78 511.5,-78 511.5,4 -4,4"/>
<!-- NClientsEthPpp -->
<g id="node1" class="node">
<title>NClientsEthPpp</title>
<g id="a_node1"><a xlink:href="inet.examples.ipv6.ipv6nclients.NClientsEthPpp.html" xlink:title="Network NClientsEthPpp" target="_parent">
<polygon fill="#9090ff" stroke="black" points="266.5,-74 174.5,-74 174.5,-55 266.5,-55 266.5,-74"/>
<text text-anchor="middle" x="220.5" y="-62" font-family="Helvetica,sans-Serif" font-size="10.00">NClientsEthPpp</text>
</a>
</g>
</g>
<!-- fiberline -->
<g id="node2" class="node">
<title>fiberline</title>
<g id="a_node2"><a xlink:href="inet.examples.ipv6.ipv6nclients.NClientsEthPpp.fiberline.html" xlink:title="Channel fiberline" target="_parent">
<polygon fill="#d0ffd0" stroke="black" points="57,-19 0,-19 0,0 57,0 57,-19"/>
<text text-anchor="middle" x="28.5" y="-7" font-family="Helvetica,sans-Serif" font-size="10.00">fiberline</text>
</a>
</g>
</g>
<!-- NClientsEthPpp&#45;&gt;fiberline -->
<g id="edge1" class="edge">
<title>NClientsEthPpp&#45;&gt;fiberline</title>
<path fill="none" stroke="black" d="M189.65,-54.98C156.22,-45.76 102.84,-31.02 66.76,-21.06"/>
<polygon fill="black" stroke="black" points="67.65,-17.68 57.08,-18.39 65.79,-24.42 67.65,-17.68"/>
</g>
<!-- StandardHost6 -->
<g id="node3" class="node">
<title>StandardHost6</title>
<g id="a_node3"><a xlink:href="inet.node.ipv6.StandardHost6.html" xlink:title="Compound Module StandardHost6" target="_parent">
<polygon fill="#fffcaf" stroke="black" points="164,-19 75,-19 75,0 164,0 164,-19"/>
<text text-anchor="middle" x="119.5" y="-7" font-family="Helvetica,sans-Serif" font-size="10.00">StandardHost6</text>
</a>
</g>
</g>
<!-- NClientsEthPpp&#45;&gt;StandardHost6 -->
<g id="edge2" class="edge">
<title>NClientsEthPpp&#45;&gt;StandardHost6</title>
<path fill="none" stroke="black" d="M204.27,-54.98C188.32,-46.61 163.72,-33.7 145.12,-23.95"/>
<polygon fill="black" stroke="black" points="146.5,-20.72 136.02,-19.17 143.25,-26.92 146.5,-20.72"/>
</g>
<!-- ethernetline -->
<g id="node4" class="node">
<title>ethernetline</title>
<g id="a_node4"><a xlink:href="inet.examples.ipv6.ipv6nclients.NClientsEthPpp.ethernetline.html" xlink:title="Channel ethernetline" target="_parent">
<polygon fill="#d0ffd0" stroke="black" points="258.5,-19 182.5,-19 182.5,0 258.5,0 258.5,-19"/>
<text text-anchor="middle" x="220.5" y="-7" font-family="Helvetica,sans-Serif" font-size="10.00">ethernetline</text>
</a>
</g>
</g>
<!-- NClientsEthPpp&#45;&gt;ethernetline -->
<g id="edge3" class="edge">
<title>NClientsEthPpp&#45;&gt;ethernetline</title>
<path fill="none" stroke="black" d="M220.5,-54.75C220.5,-47.8 220.5,-37.85 220.5,-29.13"/>
<polygon fill="black" stroke="black" points="224,-29.09 220.5,-19.09 217,-29.09 224,-29.09"/>
</g>
<!-- Router6 -->
<g id="node5" class="node">
<title>Router6</title>
<g id="a_node5"><a xlink:href="inet.node.ipv6.Router6.html" xlink:title="Compound Module Router6" target="_parent">
<polygon fill="#fffcaf" stroke="black" points="332,-19 277,-19 277,0 332,0 332,-19"/>
<text text-anchor="middle" x="304.5" y="-7" font-family="Helvetica,sans-Serif" font-size="10.00">Router6</text>
</a>
</g>
</g>
<!-- NClientsEthPpp&#45;&gt;Router6 -->
<g id="edge4" class="edge">
<title>NClientsEthPpp&#45;&gt;Router6</title>
<path fill="none" stroke="black" d="M234,-54.98C246.9,-46.84 266.6,-34.41 281.9,-24.76"/>
<polygon fill="black" stroke="black" points="284.17,-27.47 290.76,-19.17 280.43,-21.55 284.17,-27.47"/>
</g>
<!-- Ipv6FlatNetworkConfigurator -->
<g id="node6" class="node">
<title>Ipv6FlatNetworkConfigurator</title>
<g id="a_node6"><a xlink:href="inet.networklayer.configurator.ipv6.Ipv6FlatNetworkConfigurator.html" xlink:title="Simple Module Ipv6FlatNetworkConfigurator" target="_parent">
<polygon fill="#fffcaf" stroke="black" points="507.5,-19 349.5,-19 349.5,0 507.5,0 507.5,-19"/>
<text text-anchor="middle" x="428.5" y="-7" font-family="Helvetica,sans-Serif" font-size="10.00">Ipv6FlatNetworkConfigurator</text>
</a>
</g>
</g>
<!-- NClientsEthPpp&#45;&gt;Ipv6FlatNetworkConfigurator -->
<g id="edge5" class="edge">
<title>NClientsEthPpp&#45;&gt;Ipv6FlatNetworkConfigurator</title>
<path fill="none" stroke="black" d="M253.92,-54.98C289.44,-45.93 345.77,-31.58 384.8,-21.64"/>
<polygon fill="black" stroke="black" points="385.99,-24.94 394.82,-19.08 384.26,-18.16 385.99,-24.94"/>
</g>
</g>
</svg>
