<?xml version="1.0" encoding="UTF-8" standalone="no"?>
<!DOCTYPE svg PUBLIC "-//W3C//DTD SVG 1.1//EN"
 "http://www.w3.org/Graphics/SVG/1.1/DTD/svg11.dtd">
<!-- Generated by graphviz version 2.43.0 (0)
 -->
<!-- Title: opp Pages: 1 -->
<svg width="741pt" height="82pt"
 viewBox="0.00 0.00 741.00 82.00" xmlns="http://www.w3.org/2000/svg" xmlns:xlink="http://www.w3.org/1999/xlink">
<g id="graph0" class="graph" transform="scale(1 1) rotate(0) translate(4 78)">
<title>opp</title>
<polygon fill="transparent" stroke="transparent" points="-4,4 -4,-78 737,-78 737,4 -4,4"/>
<!-- ManetSensorNetwork -->
<g id="node1" class="node">
<title>ManetSensorNetwork</title>
<g id="a_node1"><a xlink:href="inet.showcases.wireless.sensornetwork.ManetSensorNetwork.html" xlink:title="Network ManetSensorNetwork" target="_parent">
<polygon fill="#9090ff" stroke="black" points="450.5,-74 328.5,-74 328.5,-55 450.5,-55 450.5,-74"/>
<text text-anchor="middle" x="389.5" y="-62" font-family="Helvetica,sans-Serif" font-size="10.00">ManetSensorNetwork</text>
</a>
</g>
</g>
<!-- StandardHost -->
<g id="node2" class="node">
<title>StandardHost</title>
<g id="a_node2"><a xlink:href="inet.node.inet.StandardHost.html" xlink:title="Compound Module StandardHost" target="_parent">
<polygon fill="#fffcaf" stroke="black" points="83,-19 0,-19 0,0 83,0 83,-19"/>
<text text-anchor="middle" x="41.5" y="-7" font-family="Helvetica,sans-Serif" font-size="10.00">StandardHost</text>
</a>
</g>
</g>
<!-- ManetSensorNetwork&#45;&gt;StandardHost -->
<g id="edge1" class="edge">
<title>ManetSensorNetwork&#45;&gt;StandardHost</title>
<path fill="none" stroke="black" d="M330.57,-54.96C272.78,-46.52 181.89,-33.07 93.2,-19.09"/>
<polygon fill="black" stroke="black" points="93.66,-15.62 83.24,-17.51 92.57,-22.53 93.66,-15.62"/>
</g>
<!-- Ipv4NetworkConfigurator -->
<g id="node3" class="node">
<title>Ipv4NetworkConfigurator</title>
<g id="a_node3"><a xlink:href="inet.networklayer.configurator.ipv4.Ipv4NetworkConfigurator.html" xlink:title="Simple Module Ipv4NetworkConfigurator" target="_parent">
<polygon fill="#fffcaf" stroke="black" points="241.5,-19 101.5,-19 101.5,0 241.5,0 241.5,-19"/>
<text text-anchor="middle" x="171.5" y="-7" font-family="Helvetica,sans-Serif" font-size="10.00">Ipv4NetworkConfigurator</text>
</a>
</g>
</g>
<!-- ManetSensorNetwork&#45;&gt;Ipv4NetworkConfigurator -->
<g id="edge2" class="edge">
<title>ManetSensorNetwork&#45;&gt;Ipv4NetworkConfigurator</title>
<path fill="none" stroke="black" d="M354.47,-54.98C317,-45.87 257.45,-31.4 216.52,-21.45"/>
<polygon fill="black" stroke="black" points="217.34,-18.04 206.8,-19.08 215.69,-24.85 217.34,-18.04"/>
</g>
<!-- IntegratedVisualizer -->
<g id="node4" class="node">
<title>IntegratedVisualizer</title>
<g id="a_node4"><a xlink:href="inet.visualizer.common.IntegratedVisualizer.html" xlink:title="Compound Module IntegratedVisualizer" target="_parent">
<polygon fill="#fffcaf" stroke="black" points="375,-19 260,-19 260,0 375,0 375,-19"/>
<text text-anchor="middle" x="317.5" y="-7" font-family="Helvetica,sans-Serif" font-size="10.00">IntegratedVisualizer</text>
</a>
</g>
</g>
<!-- ManetSensorNetwork&#45;&gt;IntegratedVisualizer -->
<g id="edge3" class="edge">
<title>ManetSensorNetwork&#45;&gt;IntegratedVisualizer</title>
<path fill="none" stroke="black" d="M377.93,-54.98C367.08,-47 350.62,-34.88 337.62,-25.31"/>
<polygon fill="black" stroke="black" points="339.41,-22.28 329.28,-19.17 335.26,-27.92 339.41,-22.28"/>
</g>
<!-- ApskScalarRadioMedium -->
<g id="node5" class="node">
<title>ApskScalarRadioMedium</title>
<g id="a_node5"><a xlink:href="inet.physicallayer.wireless.apsk.packetlevel.ApskScalarRadioMedium.html" xlink:title="Compound Module ApskScalarRadioMedium" target="_parent">
<polygon fill="#fffcaf" stroke="black" points="531.5,-19 393.5,-19 393.5,0 531.5,0 531.5,-19"/>
<text text-anchor="middle" x="462.5" y="-7" font-family="Helvetica,sans-Serif" font-size="10.00">ApskScalarRadioMedium</text>
</a>
</g>
</g>
<!-- ManetSensorNetwork&#45;&gt;ApskScalarRadioMedium -->
<g id="edge4" class="edge">
<title>ManetSensorNetwork&#45;&gt;ApskScalarRadioMedium</title>
<path fill="none" stroke="black" d="M401.23,-54.98C412.23,-47 428.92,-34.88 442.1,-25.31"/>
<polygon fill="black" stroke="black" points="444.52,-27.88 450.56,-19.17 440.41,-22.21 444.52,-27.88"/>
</g>
<!-- ManetSensorNode -->
<g id="node6" class="node">
<title>ManetSensorNode</title>
<g id="a_node6"><a xlink:href="inet.showcases.wireless.sensornetwork.ManetSensorNode.html" xlink:title="Compound Module ManetSensorNode" target="_parent">
<polygon fill="#fffcaf" stroke="black" points="655.5,-19 549.5,-19 549.5,0 655.5,0 655.5,-19"/>
<text text-anchor="middle" x="602.5" y="-7" font-family="Helvetica,sans-Serif" font-size="10.00">ManetSensorNode</text>
</a>
</g>
</g>
<!-- ManetSensorNetwork&#45;&gt;ManetSensorNode -->
<g id="edge5" class="edge">
<title>ManetSensorNetwork&#45;&gt;ManetSensorNode</title>
<path fill="none" stroke="black" d="M423.72,-54.98C460.26,-45.89 518.28,-31.46 558.26,-21.51"/>
<polygon fill="black" stroke="black" points="559.15,-24.89 568.01,-19.08 557.46,-18.1 559.15,-24.89"/>
</g>
<!-- Eth100M -->
<g id="node7" class="node">
<title>Eth100M</title>
<g id="a_node7"><a xlink:href="inet.node.ethernet.Eth100M.html" xlink:title="Channel Eth100M" target="_parent">
<polygon fill="#d0ffd0" stroke="black" points="733,-19 674,-19 674,0 733,0 733,-19"/>
<text text-anchor="middle" x="703.5" y="-7" font-family="Helvetica,sans-Serif" font-size="10.00">Eth100M</text>
</a>
</g>
</g>
<!-- ManetSensorNetwork&#45;&gt;Eth100M -->
<g id="edge6" class="edge">
<title>ManetSensorNetwork&#45;&gt;Eth100M</title>
<path fill="none" stroke="black" d="M447.87,-54.99C501.36,-46.98 582.98,-34.23 663.41,-19.12"/>
<polygon fill="black" stroke="black" points="664.55,-22.46 673.72,-17.16 663.25,-15.59 664.55,-22.46"/>
</g>
</g>
</svg>
