<?xml version="1.0" encoding="UTF-8" standalone="no"?>
<!DOCTYPE svg PUBLIC "-//W3C//DTD SVG 1.1//EN"
 "http://www.w3.org/Graphics/SVG/1.1/DTD/svg11.dtd">
<!-- Generated by graphviz version 2.43.0 (0)
 -->
<!-- Title: opp Pages: 1 -->
<svg width="425pt" height="82pt"
 viewBox="0.00 0.00 424.50 82.00" xmlns="http://www.w3.org/2000/svg" xmlns:xlink="http://www.w3.org/1999/xlink">
<g id="graph0" class="graph" transform="scale(1 1) rotate(0) translate(4 78)">
<title>opp</title>
<polygon fill="transparent" stroke="transparent" points="-4,4 -4,-78 420.5,-78 420.5,4 -4,4"/>
<!-- v3_square_2_areas -->
<g id="node1" class="node">
<title>v3_square_2_areas</title>
<g id="a_node1"><a xlink:href="inet.examples.ospfv3.v3_square_2_areas.v3_square_2_areas.html" xlink:title="Network v3_square_2_areas" target="_parent">
<polygon fill="#9090ff" stroke="black" points="262.5,-74 152.5,-74 152.5,-55 262.5,-55 262.5,-74"/>
<text text-anchor="middle" x="207.5" y="-62" font-family="Helvetica,sans-Serif" font-size="10.00">v3_square_2_areas</text>
</a>
</g>
</g>
<!-- StandardHost -->
<g id="node2" class="node">
<title>StandardHost</title>
<g id="a_node2"><a xlink:href="inet.node.inet.StandardHost.html" xlink:title="Compound Module StandardHost" target="_parent">
<polygon fill="#fffcaf" stroke="black" points="83,-19 0,-19 0,0 83,0 83,-19"/>
<text text-anchor="middle" x="41.5" y="-7" font-family="Helvetica,sans-Serif" font-size="10.00">StandardHost</text>
</a>
</g>
</g>
<!-- v3_square_2_areas&#45;&gt;StandardHost -->
<g id="edge1" class="edge">
<title>v3_square_2_areas&#45;&gt;StandardHost</title>
<path fill="none" stroke="black" d="M180.83,-54.98C152.96,-46.09 109.05,-32.07 77.98,-22.15"/>
<polygon fill="black" stroke="black" points="78.97,-18.79 68.38,-19.08 76.84,-25.46 78.97,-18.79"/>
</g>
<!-- Ospfv3Router -->
<g id="node3" class="node">
<title>Ospfv3Router</title>
<g id="a_node3"><a xlink:href="inet.node.ospfv3.Ospfv3Router.html" xlink:title="Compound Module Ospfv3Router" target="_parent">
<polygon fill="#fffcaf" stroke="black" points="184,-19 101,-19 101,0 184,0 184,-19"/>
<text text-anchor="middle" x="142.5" y="-7" font-family="Helvetica,sans-Serif" font-size="10.00">Ospfv3Router</text>
</a>
</g>
</g>
<!-- v3_square_2_areas&#45;&gt;Ospfv3Router -->
<g id="edge2" class="edge">
<title>v3_square_2_areas&#45;&gt;Ospfv3Router</title>
<path fill="none" stroke="black" d="M197.06,-54.98C187.35,-47.07 172.68,-35.11 161,-25.58"/>
<polygon fill="black" stroke="black" points="163.1,-22.78 153.13,-19.17 158.67,-28.2 163.1,-22.78"/>
</g>
<!-- Ipv4NetworkConfigurator -->
<g id="node4" class="node">
<title>Ipv4NetworkConfigurator</title>
<g id="a_node4"><a xlink:href="inet.networklayer.configurator.ipv4.Ipv4NetworkConfigurator.html" xlink:title="Simple Module Ipv4NetworkConfigurator" target="_parent">
<polygon fill="#fffcaf" stroke="black" points="342.5,-19 202.5,-19 202.5,0 342.5,0 342.5,-19"/>
<text text-anchor="middle" x="272.5" y="-7" font-family="Helvetica,sans-Serif" font-size="10.00">Ipv4NetworkConfigurator</text>
</a>
</g>
</g>
<!-- v3_square_2_areas&#45;&gt;Ipv4NetworkConfigurator -->
<g id="edge3" class="edge">
<title>v3_square_2_areas&#45;&gt;Ipv4NetworkConfigurator</title>
<path fill="none" stroke="black" d="M217.94,-54.98C227.65,-47.07 242.32,-35.11 254,-25.58"/>
<polygon fill="black" stroke="black" points="256.33,-28.2 261.87,-19.17 251.9,-22.78 256.33,-28.2"/>
</g>
<!-- Channel -->
<g id="node5" class="node">
<title>Channel</title>
<g id="a_node5"><a xlink:href="inet.examples.ospfv3.v3_square_2_areas.v3_square_2_areas.Channel.html" xlink:title="Channel Channel" target="_parent">
<polygon fill="#d0ffd0" stroke="black" points="416.5,-19 360.5,-19 360.5,0 416.5,0 416.5,-19"/>
<text text-anchor="middle" x="388.5" y="-7" font-family="Helvetica,sans-Serif" font-size="10.00">Channel</text>
</a>
</g>
</g>
<!-- v3_square_2_areas&#45;&gt;Channel -->
<g id="edge4" class="edge">
<title>v3_square_2_areas&#45;&gt;Channel</title>
<path fill="none" stroke="black" d="M236.58,-54.98C267.46,-45.94 316.41,-31.61 350.37,-21.67"/>
<polygon fill="black" stroke="black" points="351.77,-24.9 360.38,-18.73 349.8,-18.18 351.77,-24.9"/>
</g>
</g>
</svg>
