<?xml version="1.0" encoding="UTF-8" standalone="no"?>
<!DOCTYPE svg PUBLIC "-//W3C//DTD SVG 1.1//EN"
 "http://www.w3.org/Graphics/SVG/1.1/DTD/svg11.dtd">
<!-- Generated by graphviz version 2.43.0 (0)
 -->
<!-- Title: opp Pages: 1 -->
<svg width="460pt" height="82pt"
 viewBox="0.00 0.00 460.00 82.00" xmlns="http://www.w3.org/2000/svg" xmlns:xlink="http://www.w3.org/1999/xlink">
<g id="graph0" class="graph" transform="scale(1 1) rotate(0) translate(4 78)">
<title>opp</title>
<polygon fill="transparent" stroke="transparent" points="-4,4 -4,-78 456,-78 456,4 -4,4"/>
<!-- GenericSchedulerTutorialStep -->
<g id="node1" class="node">
<title>GenericSchedulerTutorialStep</title>
<g id="a_node1"><a xlink:href="inet.tutorials.queueing.GenericSchedulerTutorialStep.html" xlink:title="Network GenericSchedulerTutorialStep" target="_parent">
<polygon fill="#9090ff" stroke="black" points="294.5,-74 134.5,-74 134.5,-55 294.5,-55 294.5,-74"/>
<text text-anchor="middle" x="214.5" y="-62" font-family="Helvetica,sans-Serif" font-size="10.00">GenericSchedulerTutorialStep</text>
</a>
</g>
</g>
<!-- PacketScheduler -->
<g id="node2" class="node">
<title>PacketScheduler</title>
<g id="a_node2"><a xlink:href="inet.queueing.scheduler.PacketScheduler.html" xlink:title="Simple Module PacketScheduler" target="_parent">
<polygon fill="#fffcaf" stroke="black" points="97,-19 0,-19 0,0 97,0 97,-19"/>
<text text-anchor="middle" x="48.5" y="-7" font-family="Helvetica,sans-Serif" font-size="10.00">PacketScheduler</text>
</a>
</g>
</g>
<!-- GenericSchedulerTutorialStep&#45;&gt;PacketScheduler -->
<g id="edge1" class="edge">
<title>GenericSchedulerTutorialStep&#45;&gt;PacketScheduler</title>
<path fill="none" stroke="black" d="M187.83,-54.98C159.96,-46.09 116.05,-32.07 84.98,-22.15"/>
<polygon fill="black" stroke="black" points="85.97,-18.79 75.38,-19.08 83.84,-25.46 85.97,-18.79"/>
</g>
<!-- IdealChannel -->
<g id="node3" class="node">
<title>IdealChannel</title>
<g id="a_node3"><a xlink:href="ned.IdealChannel.html" xlink:title="Channel IdealChannel" target="_parent">
<polygon fill="#d0ffd0" stroke="black" points="195.5,-19 115.5,-19 115.5,0 195.5,0 195.5,-19"/>
<text text-anchor="middle" x="155.5" y="-7" font-family="Helvetica,sans-Serif" font-size="10.00">IdealChannel</text>
</a>
</g>
</g>
<!-- GenericSchedulerTutorialStep&#45;&gt;IdealChannel -->
<g id="edge2" class="edge">
<title>GenericSchedulerTutorialStep&#45;&gt;IdealChannel</title>
<path fill="none" stroke="black" d="M205.02,-54.98C196.3,-47.15 183.16,-35.34 172.6,-25.86"/>
<polygon fill="black" stroke="black" points="174.93,-23.25 165.15,-19.17 170.25,-28.46 174.93,-23.25"/>
</g>
<!-- PassivePacketSource -->
<g id="node4" class="node">
<title>PassivePacketSource</title>
<g id="a_node4"><a xlink:href="inet.queueing.source.PassivePacketSource.html" xlink:title="Simple Module PassivePacketSource" target="_parent">
<polygon fill="#fffcaf" stroke="black" points="333,-19 214,-19 214,0 333,0 333,-19"/>
<text text-anchor="middle" x="273.5" y="-7" font-family="Helvetica,sans-Serif" font-size="10.00">PassivePacketSource</text>
</a>
</g>
</g>
<!-- GenericSchedulerTutorialStep&#45;&gt;PassivePacketSource -->
<g id="edge3" class="edge">
<title>GenericSchedulerTutorialStep&#45;&gt;PassivePacketSource</title>
<path fill="none" stroke="black" d="M223.98,-54.98C232.7,-47.15 245.84,-35.34 256.4,-25.86"/>
<polygon fill="black" stroke="black" points="258.75,-28.46 263.85,-19.17 254.07,-23.25 258.75,-28.46"/>
</g>
<!-- ActivePacketSink -->
<g id="node5" class="node">
<title>ActivePacketSink</title>
<g id="a_node5"><a xlink:href="inet.queueing.sink.ActivePacketSink.html" xlink:title="Simple Module ActivePacketSink" target="_parent">
<polygon fill="#fffcaf" stroke="black" points="452,-19 351,-19 351,0 452,0 452,-19"/>
<text text-anchor="middle" x="401.5" y="-7" font-family="Helvetica,sans-Serif" font-size="10.00">ActivePacketSink</text>
</a>
</g>
</g>
<!-- GenericSchedulerTutorialStep&#45;&gt;ActivePacketSink -->
<g id="edge4" class="edge">
<title>GenericSchedulerTutorialStep&#45;&gt;ActivePacketSink</title>
<path fill="none" stroke="black" d="M244.54,-54.98C276.21,-46.01 326.27,-31.82 361.31,-21.89"/>
<polygon fill="black" stroke="black" points="362.55,-25.18 371.22,-19.08 360.64,-18.44 362.55,-25.18"/>
</g>
</g>
</svg>
