<?xml version="1.0" encoding="UTF-8" standalone="no"?>
<!DOCTYPE svg PUBLIC "-//W3C//DTD SVG 1.1//EN"
 "http://www.w3.org/Graphics/SVG/1.1/DTD/svg11.dtd">
<!-- Generated by graphviz version 2.43.0 (0)
 -->
<!-- Title: opp Pages: 1 -->
<svg width="459pt" height="137pt"
 viewBox="0.00 0.00 459.00 137.00" xmlns="http://www.w3.org/2000/svg" xmlns:xlink="http://www.w3.org/1999/xlink">
<g id="graph0" class="graph" transform="scale(1 1) rotate(0) translate(4 133)">
<title>opp</title>
<polygon fill="transparent" stroke="transparent" points="-4,4 -4,-133 455,-133 455,4 -4,4"/>
<!-- OneNetArea -->
<g id="node1" class="node">
<title>OneNetArea</title>
<g id="a_node1"><a xlink:href="inet.examples.ospfv2.areas.OneNetArea.html" xlink:title="Compound Module OneNetArea" target="_parent">
<polygon fill="#fff700" stroke="black" points="250,-74 174,-74 174,-55 250,-55 250,-74"/>
<text text-anchor="middle" x="212" y="-62" font-family="Helvetica,sans-Serif" font-size="10.00">OneNetArea</text>
</a>
</g>
</g>
<!-- C -->
<g id="node2" class="node">
<title>C</title>
<g id="a_node2"><a xlink:href="inet.examples.ospfv2.areas.OneNetArea.C.html" xlink:title="Channel C" target="_parent">
<polygon fill="#d0ffd0" stroke="black" points="54,-19 0,-19 0,0 54,0 54,-19"/>
<text text-anchor="middle" x="27" y="-7" font-family="Helvetica,sans-Serif" font-size="10.00">C</text>
</a>
</g>
</g>
<!-- OneNetArea&#45;&gt;C -->
<g id="edge1" class="edge">
<title>OneNetArea&#45;&gt;C</title>
<path fill="none" stroke="black" d="M182.28,-54.98C150.11,-45.77 98.77,-31.06 64.01,-21.1"/>
<polygon fill="black" stroke="black" points="64.82,-17.69 54.24,-18.3 62.89,-24.42 64.82,-17.69"/>
</g>
<!-- IdealChannel -->
<g id="node3" class="node">
<title>IdealChannel</title>
<g id="a_node3"><a xlink:href="ned.IdealChannel.html" xlink:title="Channel IdealChannel" target="_parent">
<polygon fill="#d0ffd0" stroke="black" points="152,-19 72,-19 72,0 152,0 152,-19"/>
<text text-anchor="middle" x="112" y="-7" font-family="Helvetica,sans-Serif" font-size="10.00">IdealChannel</text>
</a>
</g>
</g>
<!-- OneNetArea&#45;&gt;IdealChannel -->
<g id="edge2" class="edge">
<title>OneNetArea&#45;&gt;IdealChannel</title>
<path fill="none" stroke="black" d="M195.93,-54.98C180.14,-46.61 155.78,-33.7 137.37,-23.95"/>
<polygon fill="black" stroke="black" points="138.83,-20.76 128.36,-19.17 135.56,-26.95 138.83,-20.76"/>
</g>
<!-- StandardHost -->
<g id="node4" class="node">
<title>StandardHost</title>
<g id="a_node4"><a xlink:href="inet.node.inet.StandardHost.html" xlink:title="Compound Module StandardHost" target="_parent">
<polygon fill="#fffcaf" stroke="black" points="253.5,-19 170.5,-19 170.5,0 253.5,0 253.5,-19"/>
<text text-anchor="middle" x="212" y="-7" font-family="Helvetica,sans-Serif" font-size="10.00">StandardHost</text>
</a>
</g>
</g>
<!-- OneNetArea&#45;&gt;StandardHost -->
<g id="edge3" class="edge">
<title>OneNetArea&#45;&gt;StandardHost</title>
<path fill="none" stroke="black" d="M212,-54.75C212,-47.8 212,-37.85 212,-29.13"/>
<polygon fill="black" stroke="black" points="215.5,-29.09 212,-19.09 208.5,-29.09 215.5,-29.09"/>
</g>
<!-- OspfRouter -->
<g id="node5" class="node">
<title>OspfRouter</title>
<g id="a_node5"><a xlink:href="inet.node.ospfv2.OspfRouter.html" xlink:title="Compound Module OspfRouter" target="_parent">
<polygon fill="#fffcaf" stroke="black" points="342.5,-19 271.5,-19 271.5,0 342.5,0 342.5,-19"/>
<text text-anchor="middle" x="307" y="-7" font-family="Helvetica,sans-Serif" font-size="10.00">OspfRouter</text>
</a>
</g>
</g>
<!-- OneNetArea&#45;&gt;OspfRouter -->
<g id="edge4" class="edge">
<title>OneNetArea&#45;&gt;OspfRouter</title>
<path fill="none" stroke="black" d="M227.26,-54.98C242.13,-46.69 264.98,-33.94 282.42,-24.22"/>
<polygon fill="black" stroke="black" points="284.43,-27.1 291.46,-19.17 281.02,-20.99 284.43,-27.1"/>
</g>
<!-- EthernetSwitch -->
<g id="node6" class="node">
<title>EthernetSwitch</title>
<g id="a_node6"><a xlink:href="inet.node.ethernet.EthernetSwitch.html" xlink:title="Compound Module EthernetSwitch" target="_parent">
<polygon fill="#fffcaf" stroke="black" points="451,-19 361,-19 361,0 451,0 451,-19"/>
<text text-anchor="middle" x="406" y="-7" font-family="Helvetica,sans-Serif" font-size="10.00">EthernetSwitch</text>
</a>
</g>
</g>
<!-- OneNetArea&#45;&gt;EthernetSwitch -->
<g id="edge5" class="edge">
<title>OneNetArea&#45;&gt;EthernetSwitch</title>
<path fill="none" stroke="black" d="M243.17,-54.98C276.16,-45.97 328.4,-31.7 364.77,-21.76"/>
<polygon fill="black" stroke="black" points="365.86,-25.09 374.59,-19.08 364.02,-18.34 365.86,-25.09"/>
</g>
<!-- OSPF_AreaTest -->
<g id="node7" class="node">
<title>OSPF_AreaTest</title>
<g id="a_node7"><a xlink:href="inet.examples.ospfv2.areas.OSPF_AreaTest.html" xlink:title="Network OSPF_AreaTest" target="_parent">
<polygon fill="#d0d0ff" stroke="black" points="256.5,-129 167.5,-129 167.5,-110 256.5,-110 256.5,-129"/>
<text text-anchor="middle" x="212" y="-117" font-family="Helvetica,sans-Serif" font-size="10.00">OSPF_AreaTest</text>
</a>
</g>
</g>
<!-- OSPF_AreaTest&#45;&gt;OneNetArea -->
<g id="edge6" class="edge">
<title>OSPF_AreaTest&#45;&gt;OneNetArea</title>
<path fill="none" stroke="black" d="M212,-109.75C212,-102.8 212,-92.85 212,-84.13"/>
<polygon fill="black" stroke="black" points="215.5,-84.09 212,-74.09 208.5,-84.09 215.5,-84.09"/>
</g>
</g>
</svg>
