<?xml version="1.0" encoding="UTF-8" standalone="no"?>
<!DOCTYPE svg PUBLIC "-//W3C//DTD SVG 1.1//EN"
 "http://www.w3.org/Graphics/SVG/1.1/DTD/svg11.dtd">
<!-- Generated by graphviz version 2.43.0 (0)
 -->
<!-- Title: opp Pages: 1 -->
<svg width="721pt" height="82pt"
 viewBox="0.00 0.00 721.00 82.00" xmlns="http://www.w3.org/2000/svg" xmlns:xlink="http://www.w3.org/1999/xlink">
<g id="graph0" class="graph" transform="scale(1 1) rotate(0) translate(4 78)">
<title>opp</title>
<polygon fill="transparent" stroke="transparent" points="-4,4 -4,-78 717,-78 717,4 -4,4"/>
<!-- SpectrumShowcasePowerDensityMapNetwork -->
<g id="node1" class="node">
<title>SpectrumShowcasePowerDensityMapNetwork</title>
<g id="a_node1"><a xlink:href="inet.showcases.visualizer.canvas.spectrum.SpectrumShowcasePowerDensityMapNetwork.html" xlink:title="Network SpectrumShowcasePowerDensityMapNetwork" target="_parent">
<polygon fill="#9090ff" stroke="black" points="543.5,-74 301.5,-74 301.5,-55 543.5,-55 543.5,-74"/>
<text text-anchor="middle" x="422.5" y="-62" font-family="Helvetica,sans-Serif" font-size="10.00">SpectrumShowcasePowerDensityMapNetwork</text>
</a>
</g>
</g>
<!-- Ieee80211DimensionalRadioMedium -->
<g id="node2" class="node">
<title>Ieee80211DimensionalRadioMedium</title>
<g id="a_node2"><a xlink:href="inet.physicallayer.wireless.ieee80211.packetlevel.Ieee80211DimensionalRadioMedium.html" xlink:title="Compound Module Ieee80211DimensionalRadioMedium" target="_parent">
<polygon fill="#fffcaf" stroke="black" points="197,-19 0,-19 0,0 197,0 197,-19"/>
<text text-anchor="middle" x="98.5" y="-7" font-family="Helvetica,sans-Serif" font-size="10.00">Ieee80211DimensionalRadioMedium</text>
</a>
</g>
</g>
<!-- SpectrumShowcasePowerDensityMapNetwork&#45;&gt;Ieee80211DimensionalRadioMedium -->
<g id="edge1" class="edge">
<title>SpectrumShowcasePowerDensityMapNetwork&#45;&gt;Ieee80211DimensionalRadioMedium</title>
<path fill="none" stroke="black" d="M370.44,-54.98C313.26,-45.63 221.46,-30.61 160.57,-20.65"/>
<polygon fill="black" stroke="black" points="161.13,-17.2 150.7,-19.04 160,-24.11 161.13,-17.2"/>
</g>
<!-- PhysicalEnvironment -->
<g id="node3" class="node">
<title>PhysicalEnvironment</title>
<g id="a_node3"><a xlink:href="inet.environment.common.PhysicalEnvironment.html" xlink:title="Compound Module PhysicalEnvironment" target="_parent">
<polygon fill="#fffcaf" stroke="black" points="334,-19 215,-19 215,0 334,0 334,-19"/>
<text text-anchor="middle" x="274.5" y="-7" font-family="Helvetica,sans-Serif" font-size="10.00">PhysicalEnvironment</text>
</a>
</g>
</g>
<!-- SpectrumShowcasePowerDensityMapNetwork&#45;&gt;PhysicalEnvironment -->
<g id="edge2" class="edge">
<title>SpectrumShowcasePowerDensityMapNetwork&#45;&gt;PhysicalEnvironment</title>
<path fill="none" stroke="black" d="M398.72,-54.98C374.27,-46.23 335.97,-32.51 308.35,-22.62"/>
<polygon fill="black" stroke="black" points="309.31,-19.25 298.71,-19.17 306.95,-25.84 309.31,-19.25"/>
</g>
<!-- Ipv4NetworkConfigurator -->
<g id="node4" class="node">
<title>Ipv4NetworkConfigurator</title>
<g id="a_node4"><a xlink:href="inet.networklayer.configurator.ipv4.Ipv4NetworkConfigurator.html" xlink:title="Simple Module Ipv4NetworkConfigurator" target="_parent">
<polygon fill="#fffcaf" stroke="black" points="492.5,-19 352.5,-19 352.5,0 492.5,0 492.5,-19"/>
<text text-anchor="middle" x="422.5" y="-7" font-family="Helvetica,sans-Serif" font-size="10.00">Ipv4NetworkConfigurator</text>
</a>
</g>
</g>
<!-- SpectrumShowcasePowerDensityMapNetwork&#45;&gt;Ipv4NetworkConfigurator -->
<g id="edge3" class="edge">
<title>SpectrumShowcasePowerDensityMapNetwork&#45;&gt;Ipv4NetworkConfigurator</title>
<path fill="none" stroke="black" d="M422.5,-54.75C422.5,-47.8 422.5,-37.85 422.5,-29.13"/>
<polygon fill="black" stroke="black" points="426,-29.09 422.5,-19.09 419,-29.09 426,-29.09"/>
</g>
<!-- IntegratedVisualizer -->
<g id="node5" class="node">
<title>IntegratedVisualizer</title>
<g id="a_node5"><a xlink:href="inet.visualizer.common.IntegratedVisualizer.html" xlink:title="Compound Module IntegratedVisualizer" target="_parent">
<polygon fill="#fffcaf" stroke="black" points="626,-19 511,-19 511,0 626,0 626,-19"/>
<text text-anchor="middle" x="568.5" y="-7" font-family="Helvetica,sans-Serif" font-size="10.00">IntegratedVisualizer</text>
</a>
</g>
</g>
<!-- SpectrumShowcasePowerDensityMapNetwork&#45;&gt;IntegratedVisualizer -->
<g id="edge4" class="edge">
<title>SpectrumShowcasePowerDensityMapNetwork&#45;&gt;IntegratedVisualizer</title>
<path fill="none" stroke="black" d="M445.96,-54.98C470.08,-46.23 507.87,-32.51 535.1,-22.62"/>
<polygon fill="black" stroke="black" points="536.41,-25.87 544.62,-19.17 534.02,-19.29 536.41,-25.87"/>
</g>
<!-- AdhocHost -->
<g id="node6" class="node">
<title>AdhocHost</title>
<g id="a_node6"><a xlink:href="inet.node.inet.AdhocHost.html" xlink:title="Compound Module AdhocHost" target="_parent">
<polygon fill="#fffcaf" stroke="black" points="713,-19 644,-19 644,0 713,0 713,-19"/>
<text text-anchor="middle" x="678.5" y="-7" font-family="Helvetica,sans-Serif" font-size="10.00">AdhocHost</text>
</a>
</g>
</g>
<!-- SpectrumShowcasePowerDensityMapNetwork&#45;&gt;AdhocHost -->
<g id="edge5" class="edge">
<title>SpectrumShowcasePowerDensityMapNetwork&#45;&gt;AdhocHost</title>
<path fill="none" stroke="black" d="M463.63,-54.98C510.21,-45.34 585.85,-29.68 633.84,-19.75"/>
<polygon fill="black" stroke="black" points="634.56,-23.17 643.64,-17.72 633.14,-16.32 634.56,-23.17"/>
</g>
</g>
</svg>
