<?xml version="1.0" encoding="UTF-8" standalone="no"?>
<!DOCTYPE svg PUBLIC "-//W3C//DTD SVG 1.1//EN"
 "http://www.w3.org/Graphics/SVG/1.1/DTD/svg11.dtd">
<!-- Generated by graphviz version 2.43.0 (0)
 -->
<!-- Title: opp Pages: 1 -->
<svg width="379pt" height="82pt"
 viewBox="0.00 0.00 378.50 82.00" xmlns="http://www.w3.org/2000/svg" xmlns:xlink="http://www.w3.org/1999/xlink">
<g id="graph0" class="graph" transform="scale(1 1) rotate(0) translate(4 78)">
<title>opp</title>
<polygon fill="transparent" stroke="transparent" points="-4,4 -4,-78 374.5,-78 374.5,4 -4,4"/>
<!-- NetworkBase -->
<g id="node1" class="node">
<title>NetworkBase</title>
<g id="a_node1"><a xlink:href="inet.networks.base.NetworkBase.html" xlink:title="Network NetworkBase" target="_parent">
<polygon fill="#9090ff" stroke="black" points="219,-74 137,-74 137,-55 219,-55 219,-74"/>
<text text-anchor="middle" x="178" y="-62" font-family="Helvetica,sans-Serif" font-size="10.00">NetworkBase</text>
</a>
</g>
</g>
<!-- IIntegratedVisualizer -->
<g id="node2" class="node">
<title>IIntegratedVisualizer</title>
<g id="a_node2"><a xlink:href="inet.visualizer.contract.IIntegratedVisualizer.html" xlink:title="Module Interface IIntegratedVisualizer" target="_parent">
<polygon fill="#fffcaf" stroke="black" stroke-dasharray="5,2" points="118,-19 0,-19 0,0 118,0 118,-19"/>
<text text-anchor="middle" x="59" y="-7" font-family="Helvetica,sans-Serif" font-size="10.00">IIntegratedVisualizer</text>
</a>
</g>
</g>
<!-- NetworkBase&#45;&gt;IIntegratedVisualizer -->
<g id="edge1" class="edge">
<title>NetworkBase&#45;&gt;IIntegratedVisualizer</title>
<path fill="none" stroke="black" d="M158.88,-54.98C139.65,-46.42 109.77,-33.11 87.69,-23.28"/>
<polygon fill="black" stroke="black" points="89.03,-20.04 78.47,-19.17 86.18,-26.44 89.03,-20.04"/>
</g>
<!-- PcapRecorder -->
<g id="node3" class="node">
<title>PcapRecorder</title>
<g id="a_node3"><a xlink:href="inet.common.packet.recorder.PcapRecorder.html" xlink:title="Simple Module PcapRecorder" target="_parent">
<polygon fill="#fffcaf" stroke="black" points="219.5,-19 136.5,-19 136.5,0 219.5,0 219.5,-19"/>
<text text-anchor="middle" x="178" y="-7" font-family="Helvetica,sans-Serif" font-size="10.00">PcapRecorder</text>
</a>
</g>
</g>
<!-- NetworkBase&#45;&gt;PcapRecorder -->
<g id="edge2" class="edge">
<title>NetworkBase&#45;&gt;PcapRecorder</title>
<path fill="none" stroke="black" d="M178,-54.75C178,-47.8 178,-37.85 178,-29.13"/>
<polygon fill="black" stroke="black" points="181.5,-29.09 178,-19.09 174.5,-29.09 181.5,-29.09"/>
</g>
<!-- IL3NetworkConfigurator -->
<g id="node4" class="node">
<title>IL3NetworkConfigurator</title>
<g id="a_node4"><a xlink:href="inet.networklayer.configurator.contract.IL3NetworkConfigurator.html" xlink:title="Module Interface IL3NetworkConfigurator" target="_parent">
<polygon fill="#fffcaf" stroke="black" stroke-dasharray="5,2" points="370.5,-19 237.5,-19 237.5,0 370.5,0 370.5,-19"/>
<text text-anchor="middle" x="304" y="-7" font-family="Helvetica,sans-Serif" font-size="10.00">IL3NetworkConfigurator</text>
</a>
</g>
</g>
<!-- NetworkBase&#45;&gt;IL3NetworkConfigurator -->
<g id="edge3" class="edge">
<title>NetworkBase&#45;&gt;IL3NetworkConfigurator</title>
<path fill="none" stroke="black" d="M198.24,-54.98C218.7,-46.38 250.53,-32.99 273.93,-23.15"/>
<polygon fill="black" stroke="black" points="275.53,-26.27 283.39,-19.17 272.81,-19.82 275.53,-26.27"/>
</g>
</g>
</svg>
