<?xml version="1.0" encoding="UTF-8" standalone="no"?>
<!DOCTYPE svg PUBLIC "-//W3C//DTD SVG 1.1//EN"
 "http://www.w3.org/Graphics/SVG/1.1/DTD/svg11.dtd">
<!-- Generated by graphviz version 2.43.0 (0)
 -->
<!-- Title: opp Pages: 1 -->
<svg width="428pt" height="82pt"
 viewBox="0.00 0.00 427.50 82.00" xmlns="http://www.w3.org/2000/svg" xmlns:xlink="http://www.w3.org/1999/xlink">
<g id="graph0" class="graph" transform="scale(1 1) rotate(0) translate(4 78)">
<title>opp</title>
<polygon fill="transparent" stroke="transparent" points="-4,4 -4,-78 423.5,-78 423.5,4 -4,4"/>
<!-- MultiRadio -->
<g id="node1" class="node">
<title>MultiRadio</title>
<g id="a_node1"><a xlink:href="inet.examples.manetrouting.multiradio.MultiRadio.html" xlink:title="Network MultiRadio" target="_parent">
<polygon fill="#9090ff" stroke="black" points="231.5,-74 162.5,-74 162.5,-55 231.5,-55 231.5,-74"/>
<text text-anchor="middle" x="197" y="-62" font-family="Helvetica,sans-Serif" font-size="10.00">MultiRadio</text>
</a>
</g>
</g>
<!-- Ipv4NetworkConfigurator -->
<g id="node2" class="node">
<title>Ipv4NetworkConfigurator</title>
<g id="a_node2"><a xlink:href="inet.networklayer.configurator.ipv4.Ipv4NetworkConfigurator.html" xlink:title="Simple Module Ipv4NetworkConfigurator" target="_parent">
<polygon fill="#fffcaf" stroke="black" points="140,-19 0,-19 0,0 140,0 140,-19"/>
<text text-anchor="middle" x="70" y="-7" font-family="Helvetica,sans-Serif" font-size="10.00">Ipv4NetworkConfigurator</text>
</a>
</g>
</g>
<!-- MultiRadio&#45;&gt;Ipv4NetworkConfigurator -->
<g id="edge1" class="edge">
<title>MultiRadio&#45;&gt;Ipv4NetworkConfigurator</title>
<path fill="none" stroke="black" d="M176.6,-54.98C155.98,-46.38 123.89,-32.99 100.31,-23.15"/>
<polygon fill="black" stroke="black" points="101.35,-19.79 90.78,-19.17 98.66,-26.25 101.35,-19.79"/>
</g>
<!-- DymoRouter -->
<g id="node3" class="node">
<title>DymoRouter</title>
<g id="a_node3"><a xlink:href="inet.node.dymo.DymoRouter.html" xlink:title="Compound Module DymoRouter" target="_parent">
<polygon fill="#fffcaf" stroke="black" points="236,-19 158,-19 158,0 236,0 236,-19"/>
<text text-anchor="middle" x="197" y="-7" font-family="Helvetica,sans-Serif" font-size="10.00">DymoRouter</text>
</a>
</g>
</g>
<!-- MultiRadio&#45;&gt;DymoRouter -->
<g id="edge2" class="edge">
<title>MultiRadio&#45;&gt;DymoRouter</title>
<path fill="none" stroke="black" d="M197,-54.75C197,-47.8 197,-37.85 197,-29.13"/>
<polygon fill="black" stroke="black" points="200.5,-29.09 197,-19.09 193.5,-29.09 200.5,-29.09"/>
</g>
<!-- Ieee80211ScalarRadioMedium -->
<g id="node4" class="node">
<title>Ieee80211ScalarRadioMedium</title>
<g id="a_node4"><a xlink:href="inet.physicallayer.wireless.ieee80211.packetlevel.Ieee80211ScalarRadioMedium.html" xlink:title="Compound Module Ieee80211ScalarRadioMedium" target="_parent">
<polygon fill="#fffcaf" stroke="black" points="419.5,-19 254.5,-19 254.5,0 419.5,0 419.5,-19"/>
<text text-anchor="middle" x="337" y="-7" font-family="Helvetica,sans-Serif" font-size="10.00">Ieee80211ScalarRadioMedium</text>
</a>
</g>
</g>
<!-- MultiRadio&#45;&gt;Ieee80211ScalarRadioMedium -->
<g id="edge3" class="edge">
<title>MultiRadio&#45;&gt;Ieee80211ScalarRadioMedium</title>
<path fill="none" stroke="black" d="M219.49,-54.98C242.52,-46.27 278.54,-32.63 304.63,-22.75"/>
<polygon fill="black" stroke="black" points="305.98,-25.98 314.1,-19.17 303.51,-19.44 305.98,-25.98"/>
</g>
</g>
</svg>
