<?xml version="1.0" encoding="UTF-8" standalone="no"?>
<!DOCTYPE svg PUBLIC "-//W3C//DTD SVG 1.1//EN"
 "http://www.w3.org/Graphics/SVG/1.1/DTD/svg11.dtd">
<!-- Generated by graphviz version 2.43.0 (0)
 -->
<!-- Title: opp Pages: 1 -->
<svg width="286pt" height="82pt"
 viewBox="0.00 0.00 285.50 82.00" xmlns="http://www.w3.org/2000/svg" xmlns:xlink="http://www.w3.org/1999/xlink">
<g id="graph0" class="graph" transform="scale(1 1) rotate(0) translate(4 78)">
<title>opp</title>
<polygon fill="transparent" stroke="transparent" points="-4,4 -4,-78 281.5,-78 281.5,4 -4,4"/>
<!-- InVehicleNetworkShowcase -->
<g id="node1" class="node">
<title>InVehicleNetworkShowcase</title>
<g id="a_node1"><a xlink:href="inet.showcases.tsn.combiningfeatures.invehicle.InVehicleNetworkShowcase.html" xlink:title="Network InVehicleNetworkShowcase" target="_parent">
<polygon fill="#9090ff" stroke="black" points="212,-74 60,-74 60,-55 212,-55 212,-74"/>
<text text-anchor="middle" x="136" y="-62" font-family="Helvetica,sans-Serif" font-size="10.00">InVehicleNetworkShowcase</text>
</a>
</g>
</g>
<!-- Eth1G -->
<g id="node2" class="node">
<title>Eth1G</title>
<g id="a_node2"><a xlink:href="inet.showcases.tsn.combiningfeatures.invehicle.InVehicleNetworkShowcase.Eth1G.html" xlink:title="Channel Eth1G" target="_parent">
<polygon fill="#d0ffd0" stroke="black" points="54,-19 0,-19 0,0 54,0 54,-19"/>
<text text-anchor="middle" x="27" y="-7" font-family="Helvetica,sans-Serif" font-size="10.00">Eth1G</text>
</a>
</g>
</g>
<!-- InVehicleNetworkShowcase&#45;&gt;Eth1G -->
<g id="edge1" class="edge">
<title>InVehicleNetworkShowcase&#45;&gt;Eth1G</title>
<path fill="none" stroke="black" d="M118.49,-54.98C101.03,-46.5 73.99,-33.35 53.83,-23.54"/>
<polygon fill="black" stroke="black" points="55.36,-20.4 44.83,-19.17 52.29,-26.69 55.36,-20.4"/>
</g>
<!-- IEthernetNetworkNode -->
<g id="node3" class="node">
<title>IEthernetNetworkNode</title>
<g id="a_node3"><a xlink:href="inet.node.contract.IEthernetNetworkNode.html" xlink:title="Module Interface IEthernetNetworkNode" target="_parent">
<polygon fill="#fffcaf" stroke="black" stroke-dasharray="5,2" points="200,-19 72,-19 72,0 200,0 200,-19"/>
<text text-anchor="middle" x="136" y="-7" font-family="Helvetica,sans-Serif" font-size="10.00">IEthernetNetworkNode</text>
</a>
</g>
</g>
<!-- InVehicleNetworkShowcase&#45;&gt;IEthernetNetworkNode -->
<g id="edge2" class="edge">
<title>InVehicleNetworkShowcase&#45;&gt;IEthernetNetworkNode</title>
<path fill="none" stroke="black" d="M136,-54.75C136,-47.8 136,-37.85 136,-29.13"/>
<polygon fill="black" stroke="black" points="139.5,-29.09 136,-19.09 132.5,-29.09 139.5,-29.09"/>
</g>
<!-- Eth100M -->
<g id="node4" class="node">
<title>Eth100M</title>
<g id="a_node4"><a xlink:href="inet.node.ethernet.Eth100M.html" xlink:title="Channel Eth100M" target="_parent">
<polygon fill="#d0ffd0" stroke="black" points="277.5,-19 218.5,-19 218.5,0 277.5,0 277.5,-19"/>
<text text-anchor="middle" x="248" y="-7" font-family="Helvetica,sans-Serif" font-size="10.00">Eth100M</text>
</a>
</g>
</g>
<!-- InVehicleNetworkShowcase&#45;&gt;Eth100M -->
<g id="edge3" class="edge">
<title>InVehicleNetworkShowcase&#45;&gt;Eth100M</title>
<path fill="none" stroke="black" d="M153.99,-54.98C171.93,-46.5 199.72,-33.35 220.43,-23.54"/>
<polygon fill="black" stroke="black" points="222.14,-26.61 229.68,-19.17 219.14,-20.28 222.14,-26.61"/>
</g>
</g>
</svg>
