<?xml version="1.0" encoding="UTF-8" standalone="no"?>
<!DOCTYPE svg PUBLIC "-//W3C//DTD SVG 1.1//EN"
 "http://www.w3.org/Graphics/SVG/1.1/DTD/svg11.dtd">
<!-- Generated by graphviz version 2.43.0 (0)
 -->
<!-- Title: opp Pages: 1 -->
<svg width="600pt" height="82pt"
 viewBox="0.00 0.00 600.00 82.00" xmlns="http://www.w3.org/2000/svg" xmlns:xlink="http://www.w3.org/1999/xlink">
<g id="graph0" class="graph" transform="scale(1 1) rotate(0) translate(4 78)">
<title>opp</title>
<polygon fill="transparent" stroke="transparent" points="-4,4 -4,-78 596,-78 596,4 -4,4"/>
<!-- RSVPTE4 -->
<g id="node1" class="node">
<title>RSVPTE4</title>
<g id="a_node1"><a xlink:href="inet.examples.mpls.testte_failure2.RSVPTE4.html" xlink:title="Network RSVPTE4" target="_parent">
<polygon fill="#9090ff" stroke="black" points="320.5,-74 260.5,-74 260.5,-55 320.5,-55 320.5,-74"/>
<text text-anchor="middle" x="290.5" y="-62" font-family="Helvetica,sans-Serif" font-size="10.00">RSVPTE4</text>
</a>
</g>
</g>
<!-- ScenarioManager -->
<g id="node2" class="node">
<title>ScenarioManager</title>
<g id="a_node2"><a xlink:href="inet.common.scenario.ScenarioManager.html" xlink:title="Simple Module ScenarioManager" target="_parent">
<polygon fill="#fffcaf" stroke="black" points="101,-19 0,-19 0,0 101,0 101,-19"/>
<text text-anchor="middle" x="50.5" y="-7" font-family="Helvetica,sans-Serif" font-size="10.00">ScenarioManager</text>
</a>
</g>
</g>
<!-- RSVPTE4&#45;&gt;ScenarioManager -->
<g id="edge1" class="edge">
<title>RSVPTE4&#45;&gt;ScenarioManager</title>
<path fill="none" stroke="black" d="M260.1,-56.79C219.6,-47.84 147.44,-31.91 99.27,-21.27"/>
<polygon fill="black" stroke="black" points="99.9,-17.82 89.38,-19.09 98.39,-24.66 99.9,-17.82"/>
</g>
<!-- StandardHost -->
<g id="node3" class="node">
<title>StandardHost</title>
<g id="a_node3"><a xlink:href="inet.node.inet.StandardHost.html" xlink:title="Compound Module StandardHost" target="_parent">
<polygon fill="#fffcaf" stroke="black" points="202,-19 119,-19 119,0 202,0 202,-19"/>
<text text-anchor="middle" x="160.5" y="-7" font-family="Helvetica,sans-Serif" font-size="10.00">StandardHost</text>
</a>
</g>
</g>
<!-- RSVPTE4&#45;&gt;StandardHost -->
<g id="edge2" class="edge">
<title>RSVPTE4&#45;&gt;StandardHost</title>
<path fill="none" stroke="black" d="M269.61,-54.98C248.42,-46.34 215.37,-32.87 191.2,-23.02"/>
<polygon fill="black" stroke="black" points="192.35,-19.7 181.77,-19.17 189.71,-26.19 192.35,-19.7"/>
</g>
<!-- Ipv4NetworkConfigurator -->
<g id="node4" class="node">
<title>Ipv4NetworkConfigurator</title>
<g id="a_node4"><a xlink:href="inet.networklayer.configurator.ipv4.Ipv4NetworkConfigurator.html" xlink:title="Simple Module Ipv4NetworkConfigurator" target="_parent">
<polygon fill="#fffcaf" stroke="black" points="360.5,-19 220.5,-19 220.5,0 360.5,0 360.5,-19"/>
<text text-anchor="middle" x="290.5" y="-7" font-family="Helvetica,sans-Serif" font-size="10.00">Ipv4NetworkConfigurator</text>
</a>
</g>
</g>
<!-- RSVPTE4&#45;&gt;Ipv4NetworkConfigurator -->
<g id="edge3" class="edge">
<title>RSVPTE4&#45;&gt;Ipv4NetworkConfigurator</title>
<path fill="none" stroke="black" d="M290.5,-54.75C290.5,-47.8 290.5,-37.85 290.5,-29.13"/>
<polygon fill="black" stroke="black" points="294,-29.09 290.5,-19.09 287,-29.09 294,-29.09"/>
</g>
<!-- RsvpMplsRouter -->
<g id="node5" class="node">
<title>RsvpMplsRouter</title>
<g id="a_node5"><a xlink:href="inet.node.mpls.RsvpMplsRouter.html" xlink:title="Compound Module RsvpMplsRouter" target="_parent">
<polygon fill="#fffcaf" stroke="black" points="474.5,-19 378.5,-19 378.5,0 474.5,0 474.5,-19"/>
<text text-anchor="middle" x="426.5" y="-7" font-family="Helvetica,sans-Serif" font-size="10.00">RsvpMplsRouter</text>
</a>
</g>
</g>
<!-- RSVPTE4&#45;&gt;RsvpMplsRouter -->
<g id="edge4" class="edge">
<title>RSVPTE4&#45;&gt;RsvpMplsRouter</title>
<path fill="none" stroke="black" d="M312.35,-54.98C334.62,-46.3 369.4,-32.75 394.72,-22.88"/>
<polygon fill="black" stroke="black" points="396.21,-26.06 404.25,-19.17 393.66,-19.54 396.21,-26.06"/>
</g>
<!-- DatarateChannel -->
<g id="node6" class="node">
<title>DatarateChannel</title>
<g id="a_node6"><a xlink:href="ned.DatarateChannel.html" xlink:title="Channel DatarateChannel" target="_parent">
<polygon fill="#d0ffd0" stroke="black" points="592,-19 493,-19 493,0 592,0 592,-19"/>
<text text-anchor="middle" x="542.5" y="-7" font-family="Helvetica,sans-Serif" font-size="10.00">DatarateChannel</text>
</a>
</g>
</g>
<!-- RSVPTE4&#45;&gt;DatarateChannel -->
<g id="edge5" class="edge">
<title>RSVPTE4&#45;&gt;DatarateChannel</title>
<path fill="none" stroke="black" d="M320.9,-57.11C363.36,-48.18 440.97,-31.85 492.14,-21.09"/>
<polygon fill="black" stroke="black" points="492.94,-24.5 502.01,-19.02 491.5,-17.65 492.94,-24.5"/>
</g>
</g>
</svg>
