<?xml version="1.0" encoding="UTF-8" standalone="no"?>
<!DOCTYPE svg PUBLIC "-//W3C//DTD SVG 1.1//EN"
 "http://www.w3.org/Graphics/SVG/1.1/DTD/svg11.dtd">
<!-- Generated by graphviz version 2.43.0 (0)
 -->
<!-- Title: opp Pages: 1 -->
<svg width="660pt" height="137pt"
 viewBox="0.00 0.00 659.50 137.00" xmlns="http://www.w3.org/2000/svg" xmlns:xlink="http://www.w3.org/1999/xlink">
<g id="graph0" class="graph" transform="scale(1 1) rotate(0) translate(4 133)">
<title>opp</title>
<polygon fill="transparent" stroke="transparent" points="-4,4 -4,-133 655.5,-133 655.5,4 -4,4"/>
<!-- ExampleCompoundPriorityQueue -->
<g id="node1" class="node">
<title>ExampleCompoundPriorityQueue</title>
<g id="a_node1"><a xlink:href="inet.tutorials.queueing.ExampleCompoundPriorityQueue.html" xlink:title="Compound Module ExampleCompoundPriorityQueue" target="_parent">
<polygon fill="#fff700" stroke="black" points="415,-74 236,-74 236,-55 415,-55 415,-74"/>
<text text-anchor="middle" x="325.5" y="-62" font-family="Helvetica,sans-Serif" font-size="10.00">ExampleCompoundPriorityQueue</text>
</a>
</g>
</g>
<!-- ActivePacketSource -->
<g id="node2" class="node">
<title>ActivePacketSource</title>
<g id="a_node2"><a xlink:href="inet.queueing.source.ActivePacketSource.html" xlink:title="Simple Module ActivePacketSource" target="_parent">
<polygon fill="#fffcaf" stroke="black" points="113,-19 0,-19 0,0 113,0 113,-19"/>
<text text-anchor="middle" x="56.5" y="-7" font-family="Helvetica,sans-Serif" font-size="10.00">ActivePacketSource</text>
</a>
</g>
</g>
<!-- ExampleCompoundPriorityQueue&#45;&gt;ActivePacketSource -->
<g id="edge1" class="edge">
<title>ExampleCompoundPriorityQueue&#45;&gt;ActivePacketSource</title>
<path fill="none" stroke="black" d="M282.28,-54.98C235.46,-45.76 160.69,-31.03 110.14,-21.07"/>
<polygon fill="black" stroke="black" points="110.55,-17.58 100.06,-19.08 109.19,-24.45 110.55,-17.58"/>
</g>
<!-- IdealChannel -->
<g id="node3" class="node">
<title>IdealChannel</title>
<g id="a_node3"><a xlink:href="ned.IdealChannel.html" xlink:title="Channel IdealChannel" target="_parent">
<polygon fill="#d0ffd0" stroke="black" points="211.5,-19 131.5,-19 131.5,0 211.5,0 211.5,-19"/>
<text text-anchor="middle" x="171.5" y="-7" font-family="Helvetica,sans-Serif" font-size="10.00">IdealChannel</text>
</a>
</g>
</g>
<!-- ExampleCompoundPriorityQueue&#45;&gt;IdealChannel -->
<g id="edge2" class="edge">
<title>ExampleCompoundPriorityQueue&#45;&gt;IdealChannel</title>
<path fill="none" stroke="black" d="M300.76,-54.98C275.13,-46.16 234.87,-32.31 206.09,-22.41"/>
<polygon fill="black" stroke="black" points="207.03,-19.03 196.44,-19.08 204.75,-25.65 207.03,-19.03"/>
</g>
<!-- PacketQueue -->
<g id="node4" class="node">
<title>PacketQueue</title>
<g id="a_node4"><a xlink:href="inet.queueing.queue.PacketQueue.html" xlink:title="Simple Module PacketQueue" target="_parent">
<polygon fill="#fffcaf" stroke="black" points="309.5,-19 229.5,-19 229.5,0 309.5,0 309.5,-19"/>
<text text-anchor="middle" x="269.5" y="-7" font-family="Helvetica,sans-Serif" font-size="10.00">PacketQueue</text>
</a>
</g>
</g>
<!-- ExampleCompoundPriorityQueue&#45;&gt;PacketQueue -->
<g id="edge3" class="edge">
<title>ExampleCompoundPriorityQueue&#45;&gt;PacketQueue</title>
<path fill="none" stroke="black" d="M316.5,-54.98C308.31,-47.23 295.99,-35.58 286.03,-26.14"/>
<polygon fill="black" stroke="black" points="288.33,-23.5 278.66,-19.17 283.52,-28.59 288.33,-23.5"/>
</g>
<!-- PassivePacketSink -->
<g id="node5" class="node">
<title>PassivePacketSink</title>
<g id="a_node5"><a xlink:href="inet.queueing.sink.PassivePacketSink.html" xlink:title="Simple Module PassivePacketSink" target="_parent">
<polygon fill="#fffcaf" stroke="black" points="435,-19 328,-19 328,0 435,0 435,-19"/>
<text text-anchor="middle" x="381.5" y="-7" font-family="Helvetica,sans-Serif" font-size="10.00">PassivePacketSink</text>
</a>
</g>
</g>
<!-- ExampleCompoundPriorityQueue&#45;&gt;PassivePacketSink -->
<g id="edge4" class="edge">
<title>ExampleCompoundPriorityQueue&#45;&gt;PassivePacketSink</title>
<path fill="none" stroke="black" d="M334.5,-54.98C342.69,-47.23 355.01,-35.58 364.97,-26.14"/>
<polygon fill="black" stroke="black" points="367.48,-28.59 372.34,-19.17 362.67,-23.5 367.48,-28.59"/>
</g>
<!-- PriorityScheduler -->
<g id="node6" class="node">
<title>PriorityScheduler</title>
<g id="a_node6"><a xlink:href="inet.queueing.scheduler.PriorityScheduler.html" xlink:title="Simple Module PriorityScheduler" target="_parent">
<polygon fill="#fffcaf" stroke="black" points="553.5,-19 453.5,-19 453.5,0 553.5,0 553.5,-19"/>
<text text-anchor="middle" x="503.5" y="-7" font-family="Helvetica,sans-Serif" font-size="10.00">PriorityScheduler</text>
</a>
</g>
</g>
<!-- ExampleCompoundPriorityQueue&#45;&gt;PriorityScheduler -->
<g id="edge5" class="edge">
<title>ExampleCompoundPriorityQueue&#45;&gt;PriorityScheduler</title>
<path fill="none" stroke="black" d="M354.1,-54.98C384.11,-46.05 431.48,-31.94 464.82,-22.02"/>
<polygon fill="black" stroke="black" points="466.09,-25.29 474.68,-19.08 464.09,-18.58 466.09,-25.29"/>
</g>
<!-- WrrClassifier -->
<g id="node7" class="node">
<title>WrrClassifier</title>
<g id="a_node7"><a xlink:href="inet.queueing.classifier.WrrClassifier.html" xlink:title="Simple Module WrrClassifier" target="_parent">
<polygon fill="#fffcaf" stroke="black" points="651.5,-19 571.5,-19 571.5,0 651.5,0 651.5,-19"/>
<text text-anchor="middle" x="611.5" y="-7" font-family="Helvetica,sans-Serif" font-size="10.00">WrrClassifier</text>
</a>
</g>
</g>
<!-- ExampleCompoundPriorityQueue&#45;&gt;WrrClassifier -->
<g id="edge6" class="edge">
<title>ExampleCompoundPriorityQueue&#45;&gt;WrrClassifier</title>
<path fill="none" stroke="black" d="M371.45,-54.98C423.37,-45.36 507.61,-29.75 561.24,-19.81"/>
<polygon fill="black" stroke="black" points="562.02,-23.23 571.21,-17.97 560.74,-16.35 562.02,-23.23"/>
</g>
<!-- CompoundPacketQueueTutorialStep -->
<g id="node8" class="node">
<title>CompoundPacketQueueTutorialStep</title>
<g id="a_node8"><a xlink:href="inet.tutorials.queueing.CompoundPacketQueueTutorialStep.html" xlink:title="Network CompoundPacketQueueTutorialStep" target="_parent">
<polygon fill="#d0d0ff" stroke="black" points="421,-129 230,-129 230,-110 421,-110 421,-129"/>
<text text-anchor="middle" x="325.5" y="-117" font-family="Helvetica,sans-Serif" font-size="10.00">CompoundPacketQueueTutorialStep</text>
</a>
</g>
</g>
<!-- CompoundPacketQueueTutorialStep&#45;&gt;ExampleCompoundPriorityQueue -->
<g id="edge7" class="edge">
<title>CompoundPacketQueueTutorialStep&#45;&gt;ExampleCompoundPriorityQueue</title>
<path fill="none" stroke="black" d="M325.5,-109.75C325.5,-102.8 325.5,-92.85 325.5,-84.13"/>
<polygon fill="black" stroke="black" points="329,-84.09 325.5,-74.09 322,-84.09 329,-84.09"/>
</g>
</g>
</svg>
