<?xml version="1.0" encoding="UTF-8" standalone="no"?>
<!DOCTYPE svg PUBLIC "-//W3C//DTD SVG 1.1//EN"
 "http://www.w3.org/Graphics/SVG/1.1/DTD/svg11.dtd">
<!-- Generated by graphviz version 2.43.0 (0)
 -->
<!-- Title: opp Pages: 1 -->
<svg width="494pt" height="82pt"
 viewBox="0.00 0.00 494.00 82.00" xmlns="http://www.w3.org/2000/svg" xmlns:xlink="http://www.w3.org/1999/xlink">
<g id="graph0" class="graph" transform="scale(1 1) rotate(0) translate(4 78)">
<title>opp</title>
<polygon fill="transparent" stroke="transparent" points="-4,4 -4,-78 490,-78 490,4 -4,4"/>
<!-- ContentBasedClassifierTutorialStep -->
<g id="node1" class="node">
<title>ContentBasedClassifierTutorialStep</title>
<g id="a_node1"><a xlink:href="inet.tutorials.queueing.ContentBasedClassifierTutorialStep.html" xlink:title="Network ContentBasedClassifierTutorialStep" target="_parent">
<polygon fill="#9090ff" stroke="black" points="327.5,-74 139.5,-74 139.5,-55 327.5,-55 327.5,-74"/>
<text text-anchor="middle" x="233.5" y="-62" font-family="Helvetica,sans-Serif" font-size="10.00">ContentBasedClassifierTutorialStep</text>
</a>
</g>
</g>
<!-- ActivePacketSource -->
<g id="node2" class="node">
<title>ActivePacketSource</title>
<g id="a_node2"><a xlink:href="inet.queueing.source.ActivePacketSource.html" xlink:title="Simple Module ActivePacketSource" target="_parent">
<polygon fill="#fffcaf" stroke="black" points="113,-19 0,-19 0,0 113,0 113,-19"/>
<text text-anchor="middle" x="56.5" y="-7" font-family="Helvetica,sans-Serif" font-size="10.00">ActivePacketSource</text>
</a>
</g>
</g>
<!-- ContentBasedClassifierTutorialStep&#45;&gt;ActivePacketSource -->
<g id="edge1" class="edge">
<title>ContentBasedClassifierTutorialStep&#45;&gt;ActivePacketSource</title>
<path fill="none" stroke="black" d="M205.06,-54.98C175.22,-46.05 128.12,-31.94 94.97,-22.02"/>
<polygon fill="black" stroke="black" points="95.74,-18.6 85.16,-19.08 93.74,-25.3 95.74,-18.6"/>
</g>
<!-- IdealChannel -->
<g id="node3" class="node">
<title>IdealChannel</title>
<g id="a_node3"><a xlink:href="ned.IdealChannel.html" xlink:title="Channel IdealChannel" target="_parent">
<polygon fill="#d0ffd0" stroke="black" points="211.5,-19 131.5,-19 131.5,0 211.5,0 211.5,-19"/>
<text text-anchor="middle" x="171.5" y="-7" font-family="Helvetica,sans-Serif" font-size="10.00">IdealChannel</text>
</a>
</g>
</g>
<!-- ContentBasedClassifierTutorialStep&#45;&gt;IdealChannel -->
<g id="edge2" class="edge">
<title>ContentBasedClassifierTutorialStep&#45;&gt;IdealChannel</title>
<path fill="none" stroke="black" d="M223.54,-54.98C214.37,-47.15 200.56,-35.34 189.47,-25.86"/>
<polygon fill="black" stroke="black" points="191.52,-23.01 181.64,-19.17 186.97,-28.33 191.52,-23.01"/>
</g>
<!-- ContentBasedClassifier -->
<g id="node4" class="node">
<title>ContentBasedClassifier</title>
<g id="a_node4"><a xlink:href="inet.queueing.classifier.ContentBasedClassifier.html" xlink:title="Simple Module ContentBasedClassifier" target="_parent">
<polygon fill="#fffcaf" stroke="black" points="361,-19 230,-19 230,0 361,0 361,-19"/>
<text text-anchor="middle" x="295.5" y="-7" font-family="Helvetica,sans-Serif" font-size="10.00">ContentBasedClassifier</text>
</a>
</g>
</g>
<!-- ContentBasedClassifierTutorialStep&#45;&gt;ContentBasedClassifier -->
<g id="edge3" class="edge">
<title>ContentBasedClassifierTutorialStep&#45;&gt;ContentBasedClassifier</title>
<path fill="none" stroke="black" d="M243.46,-54.98C252.63,-47.15 266.44,-35.34 277.53,-25.86"/>
<polygon fill="black" stroke="black" points="280.03,-28.33 285.36,-19.17 275.48,-23.01 280.03,-28.33"/>
</g>
<!-- PassivePacketSink -->
<g id="node5" class="node">
<title>PassivePacketSink</title>
<g id="a_node5"><a xlink:href="inet.queueing.sink.PassivePacketSink.html" xlink:title="Simple Module PassivePacketSink" target="_parent">
<polygon fill="#fffcaf" stroke="black" points="486,-19 379,-19 379,0 486,0 486,-19"/>
<text text-anchor="middle" x="432.5" y="-7" font-family="Helvetica,sans-Serif" font-size="10.00">PassivePacketSink</text>
</a>
</g>
</g>
<!-- ContentBasedClassifierTutorialStep&#45;&gt;PassivePacketSink -->
<g id="edge4" class="edge">
<title>ContentBasedClassifierTutorialStep&#45;&gt;PassivePacketSink</title>
<path fill="none" stroke="black" d="M265.47,-54.98C299.32,-45.97 352.9,-31.7 390.21,-21.76"/>
<polygon fill="black" stroke="black" points="391.51,-25.04 400.28,-19.08 389.71,-18.27 391.51,-25.04"/>
</g>
</g>
</svg>
