<?xml version="1.0" encoding="UTF-8" standalone="no"?>
<!DOCTYPE svg PUBLIC "-//W3C//DTD SVG 1.1//EN"
 "http://www.w3.org/Graphics/SVG/1.1/DTD/svg11.dtd">
<!-- Generated by graphviz version 2.43.0 (0)
 -->
<!-- Title: opp Pages: 1 -->
<svg width="1450pt" height="82pt"
 viewBox="0.00 0.00 1449.50 82.00" xmlns="http://www.w3.org/2000/svg" xmlns:xlink="http://www.w3.org/1999/xlink">
<g id="graph0" class="graph" transform="scale(1 1) rotate(0) translate(4 78)">
<title>opp</title>
<polygon fill="transparent" stroke="transparent" points="-4,4 -4,-78 1445.5,-78 1445.5,4 -4,4"/>
<!-- Dcf -->
<g id="node1" class="node">
<title>Dcf</title>
<g id="a_node1"><a xlink:href="inet.linklayer.ieee80211.mac.coordinationfunction.Dcf.html" xlink:title="Compound Module Dcf" target="_parent">
<polygon fill="#fff700" stroke="black" points="772,-74 718,-74 718,-55 772,-55 772,-74"/>
<text text-anchor="middle" x="745" y="-62" font-family="Helvetica,sans-Serif" font-size="10.00">Dcf</text>
</a>
</g>
</g>
<!-- Dcaf -->
<g id="node2" class="node">
<title>Dcaf</title>
<g id="a_node2"><a xlink:href="inet.linklayer.ieee80211.mac.channelaccess.Dcaf.html" xlink:title="Compound Module Dcaf" target="_parent">
<polygon fill="#fffcaf" stroke="black" points="54,-19 0,-19 0,0 54,0 54,-19"/>
<text text-anchor="middle" x="27" y="-7" font-family="Helvetica,sans-Serif" font-size="10.00">Dcaf</text>
</a>
</g>
</g>
<!-- Dcf&#45;&gt;Dcaf -->
<g id="edge1" class="edge">
<title>Dcf&#45;&gt;Dcaf</title>
<path fill="none" stroke="black" d="M717.86,-63.35C626.75,-62.5 323.43,-56.93 64.02,-18.88"/>
<polygon fill="black" stroke="black" points="64.44,-15.4 54.03,-17.39 63.41,-22.33 64.44,-15.4"/>
</g>
<!-- CtsPolicy -->
<g id="node3" class="node">
<title>CtsPolicy</title>
<g id="a_node3"><a xlink:href="inet.linklayer.ieee80211.mac.recipient.CtsPolicy.html" xlink:title="Simple Module CtsPolicy" target="_parent">
<polygon fill="#fffcaf" stroke="black" points="134,-19 72,-19 72,0 134,0 134,-19"/>
<text text-anchor="middle" x="103" y="-7" font-family="Helvetica,sans-Serif" font-size="10.00">CtsPolicy</text>
</a>
</g>
</g>
<!-- Dcf&#45;&gt;CtsPolicy -->
<g id="edge2" class="edge">
<title>Dcf&#45;&gt;CtsPolicy</title>
<path fill="none" stroke="black" d="M717.86,-62.8C633.97,-60.38 371.32,-50.71 144.46,-19.01"/>
<polygon fill="black" stroke="black" points="144.76,-15.52 134.37,-17.59 143.78,-22.45 144.76,-15.52"/>
</g>
<!-- RecipientMacDataService -->
<g id="node4" class="node">
<title>RecipientMacDataService</title>
<g id="a_node4"><a xlink:href="inet.linklayer.ieee80211.mac.recipient.RecipientMacDataService.html" xlink:title="Compound Module RecipientMacDataService" target="_parent">
<polygon fill="#fffcaf" stroke="black" points="294,-19 152,-19 152,0 294,0 294,-19"/>
<text text-anchor="middle" x="223" y="-7" font-family="Helvetica,sans-Serif" font-size="10.00">RecipientMacDataService</text>
</a>
</g>
</g>
<!-- Dcf&#45;&gt;RecipientMacDataService -->
<g id="edge3" class="edge">
<title>Dcf&#45;&gt;RecipientMacDataService</title>
<path fill="none" stroke="black" d="M717.83,-60.82C650.05,-54.11 467.76,-36.01 304.34,-19.13"/>
<polygon fill="black" stroke="black" points="304.4,-15.62 294.1,-18.07 303.68,-22.58 304.4,-15.62"/>
</g>
<!-- OriginatorAckPolicy -->
<g id="node5" class="node">
<title>OriginatorAckPolicy</title>
<g id="a_node5"><a xlink:href="inet.linklayer.ieee80211.mac.originator.OriginatorAckPolicy.html" xlink:title="Simple Module OriginatorAckPolicy" target="_parent">
<polygon fill="#fffcaf" stroke="black" points="425.5,-19 312.5,-19 312.5,0 425.5,0 425.5,-19"/>
<text text-anchor="middle" x="369" y="-7" font-family="Helvetica,sans-Serif" font-size="10.00">OriginatorAckPolicy</text>
</a>
</g>
</g>
<!-- Dcf&#45;&gt;OriginatorAckPolicy -->
<g id="edge4" class="edge">
<title>Dcf&#45;&gt;OriginatorAckPolicy</title>
<path fill="none" stroke="black" d="M717.96,-59.69C659.38,-51.43 519.32,-31.69 435.54,-19.88"/>
<polygon fill="black" stroke="black" points="436,-16.41 425.61,-18.48 435.02,-23.34 436,-16.41"/>
</g>
<!-- OriginatorProtectionMechanism -->
<g id="node6" class="node">
<title>OriginatorProtectionMechanism</title>
<g id="a_node6"><a xlink:href="inet.linklayer.ieee80211.mac.protectionmechanism.OriginatorProtectionMechanism.html" xlink:title="Simple Module OriginatorProtectionMechanism" target="_parent">
<polygon fill="#fffcaf" stroke="black" points="614.5,-19 443.5,-19 443.5,0 614.5,0 614.5,-19"/>
<text text-anchor="middle" x="529" y="-7" font-family="Helvetica,sans-Serif" font-size="10.00">OriginatorProtectionMechanism</text>
</a>
</g>
</g>
<!-- Dcf&#45;&gt;OriginatorProtectionMechanism -->
<g id="edge5" class="edge">
<title>Dcf&#45;&gt;OriginatorProtectionMechanism</title>
<path fill="none" stroke="black" d="M717.64,-56.79C681.41,-47.9 617.06,-32.11 573.71,-21.47"/>
<polygon fill="black" stroke="black" points="574.54,-18.07 563.99,-19.09 572.87,-24.87 574.54,-18.07"/>
</g>
<!-- RecipientAckPolicy -->
<g id="node7" class="node">
<title>RecipientAckPolicy</title>
<g id="a_node7"><a xlink:href="inet.linklayer.ieee80211.mac.recipient.RecipientAckPolicy.html" xlink:title="Simple Module RecipientAckPolicy" target="_parent">
<polygon fill="#fffcaf" stroke="black" points="743,-19 633,-19 633,0 743,0 743,-19"/>
<text text-anchor="middle" x="688" y="-7" font-family="Helvetica,sans-Serif" font-size="10.00">RecipientAckPolicy</text>
</a>
</g>
</g>
<!-- Dcf&#45;&gt;RecipientAckPolicy -->
<g id="edge6" class="edge">
<title>Dcf&#45;&gt;RecipientAckPolicy</title>
<path fill="none" stroke="black" d="M735.84,-54.98C727.5,-47.23 714.97,-35.58 704.82,-26.14"/>
<polygon fill="black" stroke="black" points="707.03,-23.42 697.32,-19.17 702.26,-28.54 707.03,-23.42"/>
</g>
<!-- RateSelection -->
<g id="node8" class="node">
<title>RateSelection</title>
<g id="a_node8"><a xlink:href="inet.linklayer.ieee80211.mac.rateselection.RateSelection.html" xlink:title="Simple Module RateSelection" target="_parent">
<polygon fill="#fffcaf" stroke="black" points="845,-19 761,-19 761,0 845,0 845,-19"/>
<text text-anchor="middle" x="803" y="-7" font-family="Helvetica,sans-Serif" font-size="10.00">RateSelection</text>
</a>
</g>
</g>
<!-- Dcf&#45;&gt;RateSelection -->
<g id="edge7" class="edge">
<title>Dcf&#45;&gt;RateSelection</title>
<path fill="none" stroke="black" d="M754.32,-54.98C762.81,-47.23 775.56,-35.58 785.88,-26.14"/>
<polygon fill="black" stroke="black" points="788.49,-28.5 793.51,-19.17 783.77,-23.33 788.49,-28.5"/>
</g>
<!-- AckHandler -->
<g id="node9" class="node">
<title>AckHandler</title>
<g id="a_node9"><a xlink:href="inet.linklayer.ieee80211.mac.originator.AckHandler.html" xlink:title="Simple Module AckHandler" target="_parent">
<polygon fill="#fffcaf" stroke="black" points="936.5,-19 863.5,-19 863.5,0 936.5,0 936.5,-19"/>
<text text-anchor="middle" x="900" y="-7" font-family="Helvetica,sans-Serif" font-size="10.00">AckHandler</text>
</a>
</g>
</g>
<!-- Dcf&#45;&gt;AckHandler -->
<g id="edge8" class="edge">
<title>Dcf&#45;&gt;AckHandler</title>
<path fill="none" stroke="black" d="M769.9,-54.98C795.7,-46.16 836.22,-32.31 865.18,-22.41"/>
<polygon fill="black" stroke="black" points="866.57,-25.63 874.9,-19.08 864.31,-19.01 866.57,-25.63"/>
</g>
<!-- RtsPolicy -->
<g id="node10" class="node">
<title>RtsPolicy</title>
<g id="a_node10"><a xlink:href="inet.linklayer.ieee80211.mac.originator.RtsPolicy.html" xlink:title="Simple Module RtsPolicy" target="_parent">
<polygon fill="#fffcaf" stroke="black" points="1017,-19 955,-19 955,0 1017,0 1017,-19"/>
<text text-anchor="middle" x="986" y="-7" font-family="Helvetica,sans-Serif" font-size="10.00">RtsPolicy</text>
</a>
</g>
</g>
<!-- Dcf&#45;&gt;RtsPolicy -->
<g id="edge9" class="edge">
<title>Dcf&#45;&gt;RtsPolicy</title>
<path fill="none" stroke="black" d="M772.18,-57.52C814.24,-48.27 895.39,-30.43 944.73,-19.58"/>
<polygon fill="black" stroke="black" points="945.73,-22.94 954.75,-17.37 944.23,-16.1 945.73,-22.94"/>
</g>
<!-- NonQosRecoveryProcedure -->
<g id="node11" class="node">
<title>NonQosRecoveryProcedure</title>
<g id="a_node11"><a xlink:href="inet.linklayer.ieee80211.mac.originator.NonQosRecoveryProcedure.html" xlink:title="Simple Module NonQosRecoveryProcedure" target="_parent">
<polygon fill="#fffcaf" stroke="black" points="1183.5,-19 1034.5,-19 1034.5,0 1183.5,0 1183.5,-19"/>
<text text-anchor="middle" x="1109" y="-7" font-family="Helvetica,sans-Serif" font-size="10.00">NonQosRecoveryProcedure</text>
</a>
</g>
</g>
<!-- Dcf&#45;&gt;NonQosRecoveryProcedure -->
<g id="edge10" class="edge">
<title>Dcf&#45;&gt;NonQosRecoveryProcedure</title>
<path fill="none" stroke="black" d="M772.06,-59.56C828.31,-51.37 959.35,-32.29 1040.44,-20.48"/>
<polygon fill="black" stroke="black" points="1041.17,-23.91 1050.56,-19.01 1040.16,-16.99 1041.17,-23.91"/>
</g>
<!-- OriginatorMacDataService -->
<g id="node12" class="node">
<title>OriginatorMacDataService</title>
<g id="a_node12"><a xlink:href="inet.linklayer.ieee80211.mac.originator.OriginatorMacDataService.html" xlink:title="Compound Module OriginatorMacDataService" target="_parent">
<polygon fill="#fffcaf" stroke="black" points="1346.5,-19 1201.5,-19 1201.5,0 1346.5,0 1346.5,-19"/>
<text text-anchor="middle" x="1274" y="-7" font-family="Helvetica,sans-Serif" font-size="10.00">OriginatorMacDataService</text>
</a>
</g>
</g>
<!-- Dcf&#45;&gt;OriginatorMacDataService -->
<g id="edge11" class="edge">
<title>Dcf&#45;&gt;OriginatorMacDataService</title>
<path fill="none" stroke="black" d="M772.02,-60.87C840.31,-54.21 1025.6,-36.06 1190.8,-19.22"/>
<polygon fill="black" stroke="black" points="1191.55,-22.66 1201.14,-18.16 1190.84,-15.7 1191.55,-22.66"/>
</g>
<!-- IRateControl -->
<g id="node13" class="node">
<title>IRateControl</title>
<g id="a_node13"><a xlink:href="inet.linklayer.ieee80211.mac.contract.IRateControl.html" xlink:title="Module Interface IRateControl" target="_parent">
<polygon fill="#fffcaf" stroke="black" stroke-dasharray="5,2" points="1441.5,-19 1364.5,-19 1364.5,0 1441.5,0 1441.5,-19"/>
<text text-anchor="middle" x="1403" y="-7" font-family="Helvetica,sans-Serif" font-size="10.00">IRateControl</text>
</a>
</g>
</g>
<!-- Dcf&#45;&gt;IRateControl -->
<g id="edge12" class="edge">
<title>Dcf&#45;&gt;IRateControl</title>
<path fill="none" stroke="black" d="M772.2,-62.55C856.9,-59.37 1123.54,-47.74 1354.07,-19.12"/>
<polygon fill="black" stroke="black" points="1354.84,-22.55 1364.32,-17.83 1353.96,-15.6 1354.84,-22.55"/>
</g>
</g>
</svg>
