<?xml version="1.0" encoding="UTF-8" standalone="no"?>
<!DOCTYPE svg PUBLIC "-//W3C//DTD SVG 1.1//EN"
 "http://www.w3.org/Graphics/SVG/1.1/DTD/svg11.dtd">
<!-- Generated by graphviz version 2.43.0 (0)
 -->
<!-- Title: opp Pages: 1 -->
<svg width="446pt" height="82pt"
 viewBox="0.00 0.00 445.50 82.00" xmlns="http://www.w3.org/2000/svg" xmlns:xlink="http://www.w3.org/1999/xlink">
<g id="graph0" class="graph" transform="scale(1 1) rotate(0) translate(4 78)">
<title>opp</title>
<polygon fill="transparent" stroke="transparent" points="-4,4 -4,-78 441.5,-78 441.5,4 -4,4"/>
<!-- IPassivePacketSource -->
<g id="node1" class="node">
<title>IPassivePacketSource</title>
<g id="a_node1"><a xlink:href="inet.queueing.contract.IPassivePacketSource.html" xlink:title="Module Interface IPassivePacketSource" target="_parent">
<polygon fill="#fff700" stroke="black" stroke-dasharray="5,2" points="288.5,-74 166.5,-74 166.5,-55 288.5,-55 288.5,-74"/>
<text text-anchor="middle" x="227.5" y="-62" font-family="Helvetica,sans-Serif" font-size="10.00">IPassivePacketSource</text>
</a>
</g>
</g>
<!-- PassivePacketSource -->
<g id="node2" class="node">
<title>PassivePacketSource</title>
<g id="a_node2"><a xlink:href="inet.queueing.source.PassivePacketSource.html" xlink:title="Simple Module PassivePacketSource" target="_parent">
<polygon fill="#fffcaf" stroke="black" points="119,-19 0,-19 0,0 119,0 119,-19"/>
<text text-anchor="middle" x="59.5" y="-7" font-family="Helvetica,sans-Serif" font-size="10.00">PassivePacketSource</text>
</a>
</g>
</g>
<!-- IPassivePacketSource&#45;&gt;PassivePacketSource -->
<g id="edge1" class="edge">
<title>IPassivePacketSource&#45;&gt;PassivePacketSource</title>
<path fill="none" stroke="black" stroke-dasharray="5,2" d="M200.51,-54.98C169.25,-45.12 118.05,-28.97 86.7,-19.08"/>
</g>
<!-- IPacketPuller -->
<g id="node3" class="node">
<title>IPacketPuller</title>
<g id="a_node3"><a xlink:href="inet.queueing.contract.IPacketPuller.html" xlink:title="Module Interface IPacketPuller" target="_parent">
<polygon fill="#fffcaf" stroke="black" stroke-dasharray="5,2" points="217.5,-19 137.5,-19 137.5,0 217.5,0 217.5,-19"/>
<text text-anchor="middle" x="177.5" y="-7" font-family="Helvetica,sans-Serif" font-size="10.00">IPacketPuller</text>
</a>
</g>
</g>
<!-- IPassivePacketSource&#45;&gt;IPacketPuller -->
<g id="edge2" class="edge">
<title>IPassivePacketSource&#45;&gt;IPacketPuller</title>
<path fill="none" stroke="black" d="M219.24,-54.75C209.92,-44.87 194.86,-28.9 185.6,-19.09"/>
</g>
<!-- IPacketQueue -->
<g id="node4" class="node">
<title>IPacketQueue</title>
<g id="a_node4"><a xlink:href="inet.queueing.contract.IPacketQueue.html" xlink:title="Module Interface IPacketQueue" target="_parent">
<polygon fill="#fffcaf" stroke="black" stroke-dasharray="5,2" points="319,-19 236,-19 236,0 319,0 319,-19"/>
<text text-anchor="middle" x="277.5" y="-7" font-family="Helvetica,sans-Serif" font-size="10.00">IPacketQueue</text>
</a>
</g>
</g>
<!-- IPassivePacketSource&#45;&gt;IPacketQueue -->
<g id="edge3" class="edge">
<title>IPassivePacketSource&#45;&gt;IPacketQueue</title>
<path fill="none" stroke="black" d="M235.76,-54.75C245.08,-44.87 260.14,-28.9 269.4,-19.09"/>
</g>
<!-- IPacketScheduler -->
<g id="node5" class="node">
<title>IPacketScheduler</title>
<g id="a_node5"><a xlink:href="inet.queueing.contract.IPacketScheduler.html" xlink:title="Module Interface IPacketScheduler" target="_parent">
<polygon fill="#fffcaf" stroke="black" stroke-dasharray="5,2" points="437.5,-19 337.5,-19 337.5,0 437.5,0 437.5,-19"/>
<text text-anchor="middle" x="387.5" y="-7" font-family="Helvetica,sans-Serif" font-size="10.00">IPacketScheduler</text>
</a>
</g>
</g>
<!-- IPassivePacketSource&#45;&gt;IPacketScheduler -->
<g id="edge4" class="edge">
<title>IPassivePacketSource&#45;&gt;IPacketScheduler</title>
<path fill="none" stroke="black" d="M253.21,-54.98C282.98,-45.12 331.74,-28.97 361.59,-19.08"/>
</g>
</g>
</svg>
