<?xml version="1.0" encoding="UTF-8" standalone="no"?>
<!DOCTYPE svg PUBLIC "-//W3C//DTD SVG 1.1//EN"
 "http://www.w3.org/Graphics/SVG/1.1/DTD/svg11.dtd">
<!-- Generated by graphviz version 2.43.0 (0)
 -->
<!-- Title: opp Pages: 1 -->
<svg width="218pt" height="82pt"
 viewBox="0.00 0.00 217.50 82.00" xmlns="http://www.w3.org/2000/svg" xmlns:xlink="http://www.w3.org/1999/xlink">
<g id="graph0" class="graph" transform="scale(1 1) rotate(0) translate(4 78)">
<title>opp</title>
<polygon fill="transparent" stroke="transparent" points="-4,4 -4,-78 213.5,-78 213.5,4 -4,4"/>
<!-- ContentBasedTagger -->
<g id="node1" class="node">
<title>ContentBasedTagger</title>
<g id="a_node1"><a xlink:href="inet.queueing.marker.ContentBasedTagger.html" xlink:title="Simple Module ContentBasedTagger" target="_parent">
<polygon fill="#fff700" stroke="black" points="168,-19 51,-19 51,0 168,0 168,-19"/>
<text text-anchor="middle" x="109.5" y="-7" font-family="Helvetica,sans-Serif" font-size="10.00">ContentBasedTagger</text>
</a>
</g>
</g>
<!-- PacketTaggerBase -->
<g id="node2" class="node">
<title>PacketTaggerBase</title>
<g id="a_node2"><a xlink:href="inet.queueing.base.PacketTaggerBase.html" xlink:title="Simple Module PacketTaggerBase" target="_parent">
<polygon fill="#fffcaf" stroke="black" points="105,-74 0,-74 0,-55 105,-55 105,-74"/>
<text text-anchor="middle" x="52.5" y="-62" font-family="Helvetica,sans-Serif" font-size="10.00">PacketTaggerBase</text>
</a>
</g>
</g>
<!-- PacketTaggerBase&#45;&gt;ContentBasedTagger -->
<g id="edge1" class="edge">
<title>PacketTaggerBase&#45;&gt;ContentBasedTagger</title>
<path fill="none" stroke="black" d="M61.66,-54.98C72.23,-45.15 89.53,-29.07 100.18,-19.17"/>
</g>
<!-- IPacketMarker -->
<g id="node3" class="node">
<title>IPacketMarker</title>
<g id="a_node3"><a xlink:href="inet.queueing.contract.IPacketMarker.html" xlink:title="Module Interface IPacketMarker" target="_parent">
<polygon fill="#fffcaf" stroke="black" stroke-dasharray="5,2" points="209.5,-74 123.5,-74 123.5,-55 209.5,-55 209.5,-74"/>
<text text-anchor="middle" x="166.5" y="-62" font-family="Helvetica,sans-Serif" font-size="10.00">IPacketMarker</text>
</a>
</g>
</g>
<!-- IPacketMarker&#45;&gt;ContentBasedTagger -->
<g id="edge2" class="edge">
<title>IPacketMarker&#45;&gt;ContentBasedTagger</title>
<path fill="none" stroke="black" stroke-dasharray="5,2" d="M157.34,-54.98C146.77,-45.15 129.47,-29.07 118.82,-19.17"/>
</g>
</g>
</svg>
