<?xml version="1.0" encoding="UTF-8" standalone="no"?>
<!DOCTYPE svg PUBLIC "-//W3C//DTD SVG 1.1//EN"
 "http://www.w3.org/Graphics/SVG/1.1/DTD/svg11.dtd">
<!-- Generated by graphviz version 2.43.0 (0)
 -->
<!-- Title: opp Pages: 1 -->
<svg width="394pt" height="82pt"
 viewBox="0.00 0.00 394.00 82.00" xmlns="http://www.w3.org/2000/svg" xmlns:xlink="http://www.w3.org/1999/xlink">
<g id="graph0" class="graph" transform="scale(1 1) rotate(0) translate(4 78)">
<title>opp</title>
<polygon fill="transparent" stroke="transparent" points="-4,4 -4,-78 390,-78 390,4 -4,4"/>
<!-- BulkTransfer -->
<g id="node1" class="node">
<title>BulkTransfer</title>
<g id="a_node1"><a xlink:href="inet.examples.inet.bulktransfer.BulkTransfer.html" xlink:title="Network BulkTransfer" target="_parent">
<polygon fill="#9090ff" stroke="black" points="196,-74 118,-74 118,-55 196,-55 196,-74"/>
<text text-anchor="middle" x="157" y="-62" font-family="Helvetica,sans-Serif" font-size="10.00">BulkTransfer</text>
</a>
</g>
</g>
<!-- C -->
<g id="node2" class="node">
<title>C</title>
<g id="a_node2"><a xlink:href="inet.examples.inet.bulktransfer.BulkTransfer.C.html" xlink:title="Channel C" target="_parent">
<polygon fill="#d0ffd0" stroke="black" points="54,-19 0,-19 0,0 54,0 54,-19"/>
<text text-anchor="middle" x="27" y="-7" font-family="Helvetica,sans-Serif" font-size="10.00">C</text>
</a>
</g>
</g>
<!-- BulkTransfer&#45;&gt;C -->
<g id="edge1" class="edge">
<title>BulkTransfer&#45;&gt;C</title>
<path fill="none" stroke="black" d="M136.11,-54.98C114.92,-46.34 81.87,-32.87 57.7,-23.02"/>
<polygon fill="black" stroke="black" points="58.85,-19.7 48.27,-19.17 56.21,-26.19 58.85,-19.7"/>
</g>
<!-- StandardHost -->
<g id="node3" class="node">
<title>StandardHost</title>
<g id="a_node3"><a xlink:href="inet.node.inet.StandardHost.html" xlink:title="Compound Module StandardHost" target="_parent">
<polygon fill="#fffcaf" stroke="black" points="155.5,-19 72.5,-19 72.5,0 155.5,0 155.5,-19"/>
<text text-anchor="middle" x="114" y="-7" font-family="Helvetica,sans-Serif" font-size="10.00">StandardHost</text>
</a>
</g>
</g>
<!-- BulkTransfer&#45;&gt;StandardHost -->
<g id="edge2" class="edge">
<title>BulkTransfer&#45;&gt;StandardHost</title>
<path fill="none" stroke="black" d="M149.9,-54.75C143.83,-47.26 134.91,-36.28 127.49,-27.13"/>
<polygon fill="black" stroke="black" points="129.99,-24.65 120.97,-19.09 124.55,-29.06 129.99,-24.65"/>
</g>
<!-- Router -->
<g id="node4" class="node">
<title>Router</title>
<g id="a_node4"><a xlink:href="inet.node.inet.Router.html" xlink:title="Compound Module Router" target="_parent">
<polygon fill="#fffcaf" stroke="black" points="228,-19 174,-19 174,0 228,0 228,-19"/>
<text text-anchor="middle" x="201" y="-7" font-family="Helvetica,sans-Serif" font-size="10.00">Router</text>
</a>
</g>
</g>
<!-- BulkTransfer&#45;&gt;Router -->
<g id="edge3" class="edge">
<title>BulkTransfer&#45;&gt;Router</title>
<path fill="none" stroke="black" d="M164.27,-54.75C170.54,-47.18 179.79,-36.05 187.43,-26.84"/>
<polygon fill="black" stroke="black" points="190.17,-29.02 193.87,-19.09 184.79,-24.55 190.17,-29.02"/>
</g>
<!-- Ipv4NetworkConfigurator -->
<g id="node5" class="node">
<title>Ipv4NetworkConfigurator</title>
<g id="a_node5"><a xlink:href="inet.networklayer.configurator.ipv4.Ipv4NetworkConfigurator.html" xlink:title="Simple Module Ipv4NetworkConfigurator" target="_parent">
<polygon fill="#fffcaf" stroke="black" points="386,-19 246,-19 246,0 386,0 386,-19"/>
<text text-anchor="middle" x="316" y="-7" font-family="Helvetica,sans-Serif" font-size="10.00">Ipv4NetworkConfigurator</text>
</a>
</g>
</g>
<!-- BulkTransfer&#45;&gt;Ipv4NetworkConfigurator -->
<g id="edge4" class="edge">
<title>BulkTransfer&#45;&gt;Ipv4NetworkConfigurator</title>
<path fill="none" stroke="black" d="M182.55,-54.98C209.12,-46.13 250.94,-32.19 280.67,-22.28"/>
<polygon fill="black" stroke="black" points="281.87,-25.56 290.25,-19.08 279.66,-18.92 281.87,-25.56"/>
</g>
</g>
</svg>
