<?xml version="1.0" encoding="UTF-8" standalone="no"?>
<!DOCTYPE svg PUBLIC "-//W3C//DTD SVG 1.1//EN"
 "http://www.w3.org/Graphics/SVG/1.1/DTD/svg11.dtd">
<!-- Generated by graphviz version 2.43.0 (0)
 -->
<!-- Title: opp Pages: 1 -->
<svg width="291pt" height="137pt"
 viewBox="0.00 0.00 290.50 137.00" xmlns="http://www.w3.org/2000/svg" xmlns:xlink="http://www.w3.org/1999/xlink">
<g id="graph0" class="graph" transform="scale(1 1) rotate(0) translate(4 133)">
<title>opp</title>
<polygon fill="transparent" stroke="transparent" points="-4,4 -4,-133 286.5,-133 286.5,4 -4,4"/>
<!-- TokenBucket -->
<g id="node1" class="node">
<title>TokenBucket</title>
<g id="a_node1"><a xlink:href="inet.queueing.shaper.TokenBucket.html" xlink:title="Compound Module TokenBucket" target="_parent">
<polygon fill="#fff700" stroke="black" points="178.5,-74 101.5,-74 101.5,-55 178.5,-55 178.5,-74"/>
<text text-anchor="middle" x="140" y="-62" font-family="Helvetica,sans-Serif" font-size="10.00">TokenBucket</text>
</a>
</g>
</g>
<!-- IdealChannel -->
<g id="node2" class="node">
<title>IdealChannel</title>
<g id="a_node2"><a xlink:href="ned.IdealChannel.html" xlink:title="Channel IdealChannel" target="_parent">
<polygon fill="#d0ffd0" stroke="black" points="80,-19 0,-19 0,0 80,0 80,-19"/>
<text text-anchor="middle" x="40" y="-7" font-family="Helvetica,sans-Serif" font-size="10.00">IdealChannel</text>
</a>
</g>
</g>
<!-- TokenBucket&#45;&gt;IdealChannel -->
<g id="edge1" class="edge">
<title>TokenBucket&#45;&gt;IdealChannel</title>
<path fill="none" stroke="black" d="M123.93,-54.98C108.14,-46.61 83.78,-33.7 65.37,-23.95"/>
<polygon fill="black" stroke="black" points="66.83,-20.76 56.36,-19.17 63.56,-26.95 66.83,-20.76"/>
</g>
<!-- IPacketServer -->
<g id="node3" class="node">
<title>IPacketServer</title>
<g id="a_node3"><a xlink:href="inet.queueing.contract.IPacketServer.html" xlink:title="Module Interface IPacketServer" target="_parent">
<polygon fill="#fffcaf" stroke="black" stroke-dasharray="5,2" points="181.5,-19 98.5,-19 98.5,0 181.5,0 181.5,-19"/>
<text text-anchor="middle" x="140" y="-7" font-family="Helvetica,sans-Serif" font-size="10.00">IPacketServer</text>
</a>
</g>
</g>
<!-- TokenBucket&#45;&gt;IPacketServer -->
<g id="edge2" class="edge">
<title>TokenBucket&#45;&gt;IPacketServer</title>
<path fill="none" stroke="black" d="M140,-54.75C140,-47.8 140,-37.85 140,-29.13"/>
<polygon fill="black" stroke="black" points="143.5,-29.09 140,-19.09 136.5,-29.09 143.5,-29.09"/>
</g>
<!-- IPacketQueue -->
<g id="node4" class="node">
<title>IPacketQueue</title>
<g id="a_node4"><a xlink:href="inet.queueing.contract.IPacketQueue.html" xlink:title="Module Interface IPacketQueue" target="_parent">
<polygon fill="#fffcaf" stroke="black" stroke-dasharray="5,2" points="282.5,-19 199.5,-19 199.5,0 282.5,0 282.5,-19"/>
<text text-anchor="middle" x="241" y="-7" font-family="Helvetica,sans-Serif" font-size="10.00">IPacketQueue</text>
</a>
</g>
</g>
<!-- TokenBucket&#45;&gt;IPacketQueue -->
<g id="edge3" class="edge">
<title>TokenBucket&#45;&gt;IPacketQueue</title>
<path fill="none" stroke="black" d="M156.23,-54.98C172.18,-46.61 196.78,-33.7 215.38,-23.95"/>
<polygon fill="black" stroke="black" points="217.25,-26.92 224.48,-19.17 214,-20.72 217.25,-26.92"/>
</g>
<!-- TokenBucketTutorialStep -->
<g id="node5" class="node">
<title>TokenBucketTutorialStep</title>
<g id="a_node5"><a xlink:href="inet.tutorials.queueing.TokenBucketTutorialStep.html" xlink:title="Network TokenBucketTutorialStep" target="_parent">
<polygon fill="#d0d0ff" stroke="black" points="207.5,-129 72.5,-129 72.5,-110 207.5,-110 207.5,-129"/>
<text text-anchor="middle" x="140" y="-117" font-family="Helvetica,sans-Serif" font-size="10.00">TokenBucketTutorialStep</text>
</a>
</g>
</g>
<!-- TokenBucketTutorialStep&#45;&gt;TokenBucket -->
<g id="edge4" class="edge">
<title>TokenBucketTutorialStep&#45;&gt;TokenBucket</title>
<path fill="none" stroke="black" d="M140,-109.75C140,-102.8 140,-92.85 140,-84.13"/>
<polygon fill="black" stroke="black" points="143.5,-84.09 140,-74.09 136.5,-84.09 143.5,-84.09"/>
</g>
</g>
</svg>
