<?xml version="1.0" encoding="UTF-8" standalone="no"?>
<!DOCTYPE svg PUBLIC "-//W3C//DTD SVG 1.1//EN"
 "http://www.w3.org/Graphics/SVG/1.1/DTD/svg11.dtd">
<!-- Generated by graphviz version 2.43.0 (0)
 -->
<!-- Title: opp Pages: 1 -->
<svg width="558pt" height="82pt"
 viewBox="0.00 0.00 557.50 82.00" xmlns="http://www.w3.org/2000/svg" xmlns:xlink="http://www.w3.org/1999/xlink">
<g id="graph0" class="graph" transform="scale(1 1) rotate(0) translate(4 78)">
<title>opp</title>
<polygon fill="transparent" stroke="transparent" points="-4,4 -4,-78 553.5,-78 553.5,4 -4,4"/>
<!-- RoutingTableVisualizationDynamicShowcase -->
<g id="node1" class="node">
<title>RoutingTableVisualizationDynamicShowcase</title>
<g id="a_node1"><a xlink:href="inet.showcases.visualizer.canvas.routingtable.RoutingTableVisualizationDynamicShowcase.html" xlink:title="Network RoutingTableVisualizationDynamicShowcase" target="_parent">
<polygon fill="#9090ff" stroke="black" points="389.5,-74 154.5,-74 154.5,-55 389.5,-55 389.5,-74"/>
<text text-anchor="middle" x="272" y="-62" font-family="Helvetica,sans-Serif" font-size="10.00">RoutingTableVisualizationDynamicShowcase</text>
</a>
</g>
</g>
<!-- Ipv4NetworkConfigurator -->
<g id="node2" class="node">
<title>Ipv4NetworkConfigurator</title>
<g id="a_node2"><a xlink:href="inet.networklayer.configurator.ipv4.Ipv4NetworkConfigurator.html" xlink:title="Simple Module Ipv4NetworkConfigurator" target="_parent">
<polygon fill="#fffcaf" stroke="black" points="140,-19 0,-19 0,0 140,0 140,-19"/>
<text text-anchor="middle" x="70" y="-7" font-family="Helvetica,sans-Serif" font-size="10.00">Ipv4NetworkConfigurator</text>
</a>
</g>
</g>
<!-- RoutingTableVisualizationDynamicShowcase&#45;&gt;Ipv4NetworkConfigurator -->
<g id="edge1" class="edge">
<title>RoutingTableVisualizationDynamicShowcase&#45;&gt;Ipv4NetworkConfigurator</title>
<path fill="none" stroke="black" d="M239.55,-54.98C205.04,-45.93 150.34,-31.58 112.44,-21.64"/>
<polygon fill="black" stroke="black" points="113.27,-18.23 102.71,-19.08 111.49,-25.01 113.27,-18.23"/>
</g>
<!-- IntegratedVisualizer -->
<g id="node3" class="node">
<title>IntegratedVisualizer</title>
<g id="a_node3"><a xlink:href="inet.visualizer.common.IntegratedVisualizer.html" xlink:title="Compound Module IntegratedVisualizer" target="_parent">
<polygon fill="#fffcaf" stroke="black" points="273.5,-19 158.5,-19 158.5,0 273.5,0 273.5,-19"/>
<text text-anchor="middle" x="216" y="-7" font-family="Helvetica,sans-Serif" font-size="10.00">IntegratedVisualizer</text>
</a>
</g>
</g>
<!-- RoutingTableVisualizationDynamicShowcase&#45;&gt;IntegratedVisualizer -->
<g id="edge2" class="edge">
<title>RoutingTableVisualizationDynamicShowcase&#45;&gt;IntegratedVisualizer</title>
<path fill="none" stroke="black" d="M263,-54.98C254.81,-47.23 242.49,-35.58 232.53,-26.14"/>
<polygon fill="black" stroke="black" points="234.83,-23.5 225.16,-19.17 230.02,-28.59 234.83,-23.5"/>
</g>
<!-- AodvRouter -->
<g id="node4" class="node">
<title>AodvRouter</title>
<g id="a_node4"><a xlink:href="inet.node.aodv.AodvRouter.html" xlink:title="Compound Module AodvRouter" target="_parent">
<polygon fill="#fffcaf" stroke="black" points="366,-19 292,-19 292,0 366,0 366,-19"/>
<text text-anchor="middle" x="329" y="-7" font-family="Helvetica,sans-Serif" font-size="10.00">AodvRouter</text>
</a>
</g>
</g>
<!-- RoutingTableVisualizationDynamicShowcase&#45;&gt;AodvRouter -->
<g id="edge3" class="edge">
<title>RoutingTableVisualizationDynamicShowcase&#45;&gt;AodvRouter</title>
<path fill="none" stroke="black" d="M281.16,-54.98C289.5,-47.23 302.03,-35.58 312.18,-26.14"/>
<polygon fill="black" stroke="black" points="314.74,-28.54 319.68,-19.17 309.97,-23.42 314.74,-28.54"/>
</g>
<!-- Ieee80211ScalarRadioMedium -->
<g id="node5" class="node">
<title>Ieee80211ScalarRadioMedium</title>
<g id="a_node5"><a xlink:href="inet.physicallayer.wireless.ieee80211.packetlevel.Ieee80211ScalarRadioMedium.html" xlink:title="Compound Module Ieee80211ScalarRadioMedium" target="_parent">
<polygon fill="#fffcaf" stroke="black" points="549.5,-19 384.5,-19 384.5,0 549.5,0 549.5,-19"/>
<text text-anchor="middle" x="467" y="-7" font-family="Helvetica,sans-Serif" font-size="10.00">Ieee80211ScalarRadioMedium</text>
</a>
</g>
</g>
<!-- RoutingTableVisualizationDynamicShowcase&#45;&gt;Ieee80211ScalarRadioMedium -->
<g id="edge4" class="edge">
<title>RoutingTableVisualizationDynamicShowcase&#45;&gt;Ieee80211ScalarRadioMedium</title>
<path fill="none" stroke="black" d="M303.33,-54.98C336.49,-45.97 389,-31.7 425.56,-21.76"/>
<polygon fill="black" stroke="black" points="426.69,-25.08 435.42,-19.08 424.86,-18.33 426.69,-25.08"/>
</g>
</g>
</svg>
