<?xml version="1.0" encoding="UTF-8" standalone="no"?>
<!DOCTYPE svg PUBLIC "-//W3C//DTD SVG 1.1//EN"
 "http://www.w3.org/Graphics/SVG/1.1/DTD/svg11.dtd">
<!-- Generated by graphviz version 2.43.0 (0)
 -->
<!-- Title: opp Pages: 1 -->
<svg width="775pt" height="82pt"
 viewBox="0.00 0.00 775.00 82.00" xmlns="http://www.w3.org/2000/svg" xmlns:xlink="http://www.w3.org/1999/xlink">
<g id="graph0" class="graph" transform="scale(1 1) rotate(0) translate(4 78)">
<title>opp</title>
<polygon fill="transparent" stroke="transparent" points="-4,4 -4,-78 771,-78 771,4 -4,4"/>
<!-- WirelessNetWithDHCP -->
<g id="node1" class="node">
<title>WirelessNetWithDHCP</title>
<g id="a_node1"><a xlink:href="inet.examples.dhcp.WirelessNetWithDHCP.html" xlink:title="Network WirelessNetWithDHCP" target="_parent">
<polygon fill="#9090ff" stroke="black" points="370.5,-74 244.5,-74 244.5,-55 370.5,-55 370.5,-74"/>
<text text-anchor="middle" x="307.5" y="-62" font-family="Helvetica,sans-Serif" font-size="10.00">WirelessNetWithDHCP</text>
</a>
</g>
</g>
<!-- StandardHost -->
<g id="node2" class="node">
<title>StandardHost</title>
<g id="a_node2"><a xlink:href="inet.node.inet.StandardHost.html" xlink:title="Compound Module StandardHost" target="_parent">
<polygon fill="#fffcaf" stroke="black" points="83,-19 0,-19 0,0 83,0 83,-19"/>
<text text-anchor="middle" x="41.5" y="-7" font-family="Helvetica,sans-Serif" font-size="10.00">StandardHost</text>
</a>
</g>
</g>
<!-- WirelessNetWithDHCP&#45;&gt;StandardHost -->
<g id="edge1" class="edge">
<title>WirelessNetWithDHCP&#45;&gt;StandardHost</title>
<path fill="none" stroke="black" d="M264.76,-54.98C218.05,-45.68 143.21,-30.76 93.22,-20.8"/>
<polygon fill="black" stroke="black" points="93.75,-17.34 83.25,-18.82 92.38,-24.21 93.75,-17.34"/>
</g>
<!-- AccessPoint -->
<g id="node3" class="node">
<title>AccessPoint</title>
<g id="a_node3"><a xlink:href="inet.node.wireless.AccessPoint.html" xlink:title="Compound Module AccessPoint" target="_parent">
<polygon fill="#fffcaf" stroke="black" points="176,-19 101,-19 101,0 176,0 176,-19"/>
<text text-anchor="middle" x="138.5" y="-7" font-family="Helvetica,sans-Serif" font-size="10.00">AccessPoint</text>
</a>
</g>
</g>
<!-- WirelessNetWithDHCP&#45;&gt;AccessPoint -->
<g id="edge2" class="edge">
<title>WirelessNetWithDHCP&#45;&gt;AccessPoint</title>
<path fill="none" stroke="black" d="M280.35,-54.98C251.97,-46.09 207.27,-32.07 175.64,-22.15"/>
<polygon fill="black" stroke="black" points="176.45,-18.73 165.87,-19.08 174.36,-25.41 176.45,-18.73"/>
</g>
<!-- Router -->
<g id="node4" class="node">
<title>Router</title>
<g id="a_node4"><a xlink:href="inet.node.inet.Router.html" xlink:title="Compound Module Router" target="_parent">
<polygon fill="#fffcaf" stroke="black" points="248.5,-19 194.5,-19 194.5,0 248.5,0 248.5,-19"/>
<text text-anchor="middle" x="221.5" y="-7" font-family="Helvetica,sans-Serif" font-size="10.00">Router</text>
</a>
</g>
</g>
<!-- WirelessNetWithDHCP&#45;&gt;Router -->
<g id="edge3" class="edge">
<title>WirelessNetWithDHCP&#45;&gt;Router</title>
<path fill="none" stroke="black" d="M293.68,-54.98C280.35,-46.77 259.92,-34.18 244.19,-24.49"/>
<polygon fill="black" stroke="black" points="245.92,-21.44 235.57,-19.17 242.25,-27.4 245.92,-21.44"/>
</g>
<!-- WirelessHost -->
<g id="node5" class="node">
<title>WirelessHost</title>
<g id="a_node5"><a xlink:href="inet.node.inet.WirelessHost.html" xlink:title="Compound Module WirelessHost" target="_parent">
<polygon fill="#fffcaf" stroke="black" points="348,-19 267,-19 267,0 348,0 348,-19"/>
<text text-anchor="middle" x="307.5" y="-7" font-family="Helvetica,sans-Serif" font-size="10.00">WirelessHost</text>
</a>
</g>
</g>
<!-- WirelessNetWithDHCP&#45;&gt;WirelessHost -->
<g id="edge4" class="edge">
<title>WirelessNetWithDHCP&#45;&gt;WirelessHost</title>
<path fill="none" stroke="black" d="M307.5,-54.75C307.5,-47.8 307.5,-37.85 307.5,-29.13"/>
<polygon fill="black" stroke="black" points="311,-29.09 307.5,-19.09 304,-29.09 311,-29.09"/>
</g>
<!-- Ipv4NetworkConfigurator -->
<g id="node6" class="node">
<title>Ipv4NetworkConfigurator</title>
<g id="a_node6"><a xlink:href="inet.networklayer.configurator.ipv4.Ipv4NetworkConfigurator.html" xlink:title="Simple Module Ipv4NetworkConfigurator" target="_parent">
<polygon fill="#fffcaf" stroke="black" points="506.5,-19 366.5,-19 366.5,0 506.5,0 506.5,-19"/>
<text text-anchor="middle" x="436.5" y="-7" font-family="Helvetica,sans-Serif" font-size="10.00">Ipv4NetworkConfigurator</text>
</a>
</g>
</g>
<!-- WirelessNetWithDHCP&#45;&gt;Ipv4NetworkConfigurator -->
<g id="edge5" class="edge">
<title>WirelessNetWithDHCP&#45;&gt;Ipv4NetworkConfigurator</title>
<path fill="none" stroke="black" d="M328.23,-54.98C349.26,-46.34 382.05,-32.87 406.04,-23.02"/>
<polygon fill="black" stroke="black" points="407.48,-26.21 415.4,-19.17 404.82,-19.73 407.48,-26.21"/>
</g>
<!-- Ieee80211ScalarRadioMedium -->
<g id="node7" class="node">
<title>Ieee80211ScalarRadioMedium</title>
<g id="a_node7"><a xlink:href="inet.physicallayer.wireless.ieee80211.packetlevel.Ieee80211ScalarRadioMedium.html" xlink:title="Compound Module Ieee80211ScalarRadioMedium" target="_parent">
<polygon fill="#fffcaf" stroke="black" points="690,-19 525,-19 525,0 690,0 690,-19"/>
<text text-anchor="middle" x="607.5" y="-7" font-family="Helvetica,sans-Serif" font-size="10.00">Ieee80211ScalarRadioMedium</text>
</a>
</g>
</g>
<!-- WirelessNetWithDHCP&#45;&gt;Ieee80211ScalarRadioMedium -->
<g id="edge6" class="edge">
<title>WirelessNetWithDHCP&#45;&gt;Ieee80211ScalarRadioMedium</title>
<path fill="none" stroke="black" d="M355.7,-54.98C408.25,-45.7 492.35,-30.84 548.73,-20.88"/>
<polygon fill="black" stroke="black" points="549.68,-24.27 558.92,-19.08 548.47,-17.38 549.68,-24.27"/>
</g>
<!-- Eth100M -->
<g id="node8" class="node">
<title>Eth100M</title>
<g id="a_node8"><a xlink:href="inet.node.ethernet.Eth100M.html" xlink:title="Channel Eth100M" target="_parent">
<polygon fill="#d0ffd0" stroke="black" points="767,-19 708,-19 708,0 767,0 767,-19"/>
<text text-anchor="middle" x="737.5" y="-7" font-family="Helvetica,sans-Serif" font-size="10.00">Eth100M</text>
</a>
</g>
</g>
<!-- WirelessNetWithDHCP&#45;&gt;Eth100M -->
<g id="edge7" class="edge">
<title>WirelessNetWithDHCP&#45;&gt;Eth100M</title>
<path fill="none" stroke="black" d="M370.59,-58.43C446.17,-51.89 576.78,-39.11 697.53,-19.18"/>
<polygon fill="black" stroke="black" points="698.4,-22.59 707.69,-17.48 697.25,-15.68 698.4,-22.59"/>
</g>
</g>
</svg>
