<?xml version="1.0" encoding="UTF-8" standalone="no"?>
<!DOCTYPE svg PUBLIC "-//W3C//DTD SVG 1.1//EN"
 "http://www.w3.org/Graphics/SVG/1.1/DTD/svg11.dtd">
<!-- Generated by graphviz version 2.43.0 (0)
 -->
<!-- Title: opp Pages: 1 -->
<svg width="342pt" height="82pt"
 viewBox="0.00 0.00 342.00 82.00" xmlns="http://www.w3.org/2000/svg" xmlns:xlink="http://www.w3.org/1999/xlink">
<g id="graph0" class="graph" transform="scale(1 1) rotate(0) translate(4 78)">
<title>opp</title>
<polygon fill="transparent" stroke="transparent" points="-4,4 -4,-78 338,-78 338,4 -4,4"/>
<!-- multihomed -->
<g id="node1" class="node">
<title>multihomed</title>
<g id="a_node1"><a xlink:href="inet.examples.sctp.cmttest.multihomed.html" xlink:title="Network multihomed" target="_parent">
<polygon fill="#9090ff" stroke="black" points="219,-74 143,-74 143,-55 219,-55 219,-74"/>
<text text-anchor="middle" x="181" y="-62" font-family="Helvetica,sans-Serif" font-size="10.00">multihomed</text>
</a>
</g>
</g>
<!-- NormalPath -->
<g id="node2" class="node">
<title>NormalPath</title>
<g id="a_node2"><a xlink:href="inet.examples.sctp.cmttest.NormalPath.html" xlink:title="Channel NormalPath" target="_parent">
<polygon fill="#d0ffd0" stroke="black" points="74,-19 0,-19 0,0 74,0 74,-19"/>
<text text-anchor="middle" x="37" y="-7" font-family="Helvetica,sans-Serif" font-size="10.00">NormalPath</text>
</a>
</g>
</g>
<!-- multihomed&#45;&gt;NormalPath -->
<g id="edge1" class="edge">
<title>multihomed&#45;&gt;NormalPath</title>
<path fill="none" stroke="black" d="M157.86,-54.98C134.18,-46.27 97.13,-32.63 70.29,-22.75"/>
<polygon fill="black" stroke="black" points="71.15,-19.34 60.56,-19.17 68.73,-25.91 71.15,-19.34"/>
</g>
<!-- StandardHost -->
<g id="node3" class="node">
<title>StandardHost</title>
<g id="a_node3"><a xlink:href="inet.node.inet.StandardHost.html" xlink:title="Compound Module StandardHost" target="_parent">
<polygon fill="#fffcaf" stroke="black" points="175.5,-19 92.5,-19 92.5,0 175.5,0 175.5,-19"/>
<text text-anchor="middle" x="134" y="-7" font-family="Helvetica,sans-Serif" font-size="10.00">StandardHost</text>
</a>
</g>
</g>
<!-- multihomed&#45;&gt;StandardHost -->
<g id="edge2" class="edge">
<title>multihomed&#45;&gt;StandardHost</title>
<path fill="none" stroke="black" d="M173.24,-54.75C166.53,-47.18 156.66,-36.05 148.49,-26.84"/>
<polygon fill="black" stroke="black" points="150.87,-24.25 141.62,-19.09 145.63,-28.89 150.87,-24.25"/>
</g>
<!-- BottlePath -->
<g id="node4" class="node">
<title>BottlePath</title>
<g id="a_node4"><a xlink:href="inet.examples.sctp.cmttest.BottlePath.html" xlink:title="Channel BottlePath" target="_parent">
<polygon fill="#d0ffd0" stroke="black" points="262,-19 194,-19 194,0 262,0 262,-19"/>
<text text-anchor="middle" x="228" y="-7" font-family="Helvetica,sans-Serif" font-size="10.00">BottlePath</text>
</a>
</g>
</g>
<!-- multihomed&#45;&gt;BottlePath -->
<g id="edge3" class="edge">
<title>multihomed&#45;&gt;BottlePath</title>
<path fill="none" stroke="black" d="M188.76,-54.75C195.47,-47.18 205.34,-36.05 213.51,-26.84"/>
<polygon fill="black" stroke="black" points="216.37,-28.89 220.38,-19.09 211.13,-24.25 216.37,-28.89"/>
</g>
<!-- Router -->
<g id="node5" class="node">
<title>Router</title>
<g id="a_node5"><a xlink:href="inet.node.inet.Router.html" xlink:title="Compound Module Router" target="_parent">
<polygon fill="#fffcaf" stroke="black" points="334,-19 280,-19 280,0 334,0 334,-19"/>
<text text-anchor="middle" x="307" y="-7" font-family="Helvetica,sans-Serif" font-size="10.00">Router</text>
</a>
</g>
</g>
<!-- multihomed&#45;&gt;Router -->
<g id="edge4" class="edge">
<title>multihomed&#45;&gt;Router</title>
<path fill="none" stroke="black" d="M201.24,-54.98C221.7,-46.38 253.53,-32.99 276.93,-23.15"/>
<polygon fill="black" stroke="black" points="278.53,-26.27 286.39,-19.17 275.81,-19.82 278.53,-26.27"/>
</g>
</g>
</svg>
