<?xml version="1.0" encoding="UTF-8" standalone="no"?>
<!DOCTYPE svg PUBLIC "-//W3C//DTD SVG 1.1//EN"
 "http://www.w3.org/Graphics/SVG/1.1/DTD/svg11.dtd">
<!-- Generated by graphviz version 2.43.0 (0)
 -->
<!-- Title: opp Pages: 1 -->
<svg width="783pt" height="82pt"
 viewBox="0.00 0.00 782.50 82.00" xmlns="http://www.w3.org/2000/svg" xmlns:xlink="http://www.w3.org/1999/xlink">
<g id="graph0" class="graph" transform="scale(1 1) rotate(0) translate(4 78)">
<title>opp</title>
<polygon fill="transparent" stroke="transparent" points="-4,4 -4,-78 778.5,-78 778.5,4 -4,4"/>
<!-- BgpNetwork -->
<g id="node1" class="node">
<title>BgpNetwork</title>
<g id="a_node1"><a xlink:href="inet.examples.bgpv4.BgpAndOspf.BgpNetwork.html" xlink:title="Network BgpNetwork" target="_parent">
<polygon fill="#9090ff" stroke="black" points="379,-74 302,-74 302,-55 379,-55 379,-74"/>
<text text-anchor="middle" x="340.5" y="-62" font-family="Helvetica,sans-Serif" font-size="10.00">BgpNetwork</text>
</a>
</g>
</g>
<!-- OspfRouter -->
<g id="node2" class="node">
<title>OspfRouter</title>
<g id="a_node2"><a xlink:href="inet.node.ospfv2.OspfRouter.html" xlink:title="Compound Module OspfRouter" target="_parent">
<polygon fill="#fffcaf" stroke="black" points="71,-19 0,-19 0,0 71,0 71,-19"/>
<text text-anchor="middle" x="35.5" y="-7" font-family="Helvetica,sans-Serif" font-size="10.00">OspfRouter</text>
</a>
</g>
</g>
<!-- BgpNetwork&#45;&gt;OspfRouter -->
<g id="edge1" class="edge">
<title>BgpNetwork&#45;&gt;OspfRouter</title>
<path fill="none" stroke="black" d="M301.98,-57.2C252.96,-49.13 165.41,-34.52 81.03,-19.25"/>
<polygon fill="black" stroke="black" points="81.49,-15.78 71.03,-17.43 80.24,-22.66 81.49,-15.78"/>
</g>
<!-- StandardHost -->
<g id="node3" class="node">
<title>StandardHost</title>
<g id="a_node3"><a xlink:href="inet.node.inet.StandardHost.html" xlink:title="Compound Module StandardHost" target="_parent">
<polygon fill="#fffcaf" stroke="black" points="172,-19 89,-19 89,0 172,0 172,-19"/>
<text text-anchor="middle" x="130.5" y="-7" font-family="Helvetica,sans-Serif" font-size="10.00">StandardHost</text>
</a>
</g>
</g>
<!-- BgpNetwork&#45;&gt;StandardHost -->
<g id="edge2" class="edge">
<title>BgpNetwork&#45;&gt;StandardHost</title>
<path fill="none" stroke="black" d="M306.76,-54.98C270.82,-45.91 213.78,-31.52 174.37,-21.57"/>
<polygon fill="black" stroke="black" points="175.06,-18.14 164.5,-19.08 173.34,-24.92 175.06,-18.14"/>
</g>
<!-- LINK_100 -->
<g id="node4" class="node">
<title>LINK_100</title>
<g id="a_node4"><a xlink:href="inet.examples.bgpv4.BgpAndOspf.BgpNetwork.LINK_100.html" xlink:title="Channel LINK_100" target="_parent">
<polygon fill="#d0ffd0" stroke="black" points="252.5,-19 190.5,-19 190.5,0 252.5,0 252.5,-19"/>
<text text-anchor="middle" x="221.5" y="-7" font-family="Helvetica,sans-Serif" font-size="10.00">LINK_100</text>
</a>
</g>
</g>
<!-- BgpNetwork&#45;&gt;LINK_100 -->
<g id="edge3" class="edge">
<title>BgpNetwork&#45;&gt;LINK_100</title>
<path fill="none" stroke="black" d="M321.38,-54.98C302.15,-46.42 272.27,-33.11 250.19,-23.28"/>
<polygon fill="black" stroke="black" points="251.53,-20.04 240.97,-19.17 248.68,-26.44 251.53,-20.04"/>
</g>
<!-- Ipv4NetworkConfigurator -->
<g id="node5" class="node">
<title>Ipv4NetworkConfigurator</title>
<g id="a_node5"><a xlink:href="inet.networklayer.configurator.ipv4.Ipv4NetworkConfigurator.html" xlink:title="Simple Module Ipv4NetworkConfigurator" target="_parent">
<polygon fill="#fffcaf" stroke="black" points="410.5,-19 270.5,-19 270.5,0 410.5,0 410.5,-19"/>
<text text-anchor="middle" x="340.5" y="-7" font-family="Helvetica,sans-Serif" font-size="10.00">Ipv4NetworkConfigurator</text>
</a>
</g>
</g>
<!-- BgpNetwork&#45;&gt;Ipv4NetworkConfigurator -->
<g id="edge4" class="edge">
<title>BgpNetwork&#45;&gt;Ipv4NetworkConfigurator</title>
<path fill="none" stroke="black" d="M340.5,-54.75C340.5,-47.8 340.5,-37.85 340.5,-29.13"/>
<polygon fill="black" stroke="black" points="344,-29.09 340.5,-19.09 337,-29.09 344,-29.09"/>
</g>
<!-- IntegratedCanvasVisualizer -->
<g id="node6" class="node">
<title>IntegratedCanvasVisualizer</title>
<g id="a_node6"><a xlink:href="inet.visualizer.canvas.integrated.IntegratedCanvasVisualizer.html" xlink:title="Compound Module IntegratedCanvasVisualizer" target="_parent">
<polygon fill="#fffcaf" stroke="black" points="580,-19 429,-19 429,0 580,0 580,-19"/>
<text text-anchor="middle" x="504.5" y="-7" font-family="Helvetica,sans-Serif" font-size="10.00">IntegratedCanvasVisualizer</text>
</a>
</g>
</g>
<!-- BgpNetwork&#45;&gt;IntegratedCanvasVisualizer -->
<g id="edge5" class="edge">
<title>BgpNetwork&#45;&gt;IntegratedCanvasVisualizer</title>
<path fill="none" stroke="black" d="M366.85,-54.98C394.26,-46.13 437.39,-32.19 468.06,-22.28"/>
<polygon fill="black" stroke="black" points="469.5,-25.49 477.94,-19.08 467.35,-18.83 469.5,-25.49"/>
</g>
<!-- BgpRouter -->
<g id="node7" class="node">
<title>BgpRouter</title>
<g id="a_node7"><a xlink:href="inet.node.bgp.BgpRouter.html" xlink:title="Compound Module BgpRouter" target="_parent">
<polygon fill="#fffcaf" stroke="black" points="666.5,-19 598.5,-19 598.5,0 666.5,0 666.5,-19"/>
<text text-anchor="middle" x="632.5" y="-7" font-family="Helvetica,sans-Serif" font-size="10.00">BgpRouter</text>
</a>
</g>
</g>
<!-- BgpNetwork&#45;&gt;BgpRouter -->
<g id="edge6" class="edge">
<title>BgpNetwork&#45;&gt;BgpRouter</title>
<path fill="none" stroke="black" d="M379.36,-56.78C426.37,-48.6 508.21,-34.21 588.02,-19.25"/>
<polygon fill="black" stroke="black" points="589.06,-22.62 598.24,-17.33 587.77,-15.74 589.06,-22.62"/>
</g>
<!-- EthernetSwitch -->
<g id="node8" class="node">
<title>EthernetSwitch</title>
<g id="a_node8"><a xlink:href="inet.node.ethernet.EthernetSwitch.html" xlink:title="Compound Module EthernetSwitch" target="_parent">
<polygon fill="#fffcaf" stroke="black" points="774.5,-19 684.5,-19 684.5,0 774.5,0 774.5,-19"/>
<text text-anchor="middle" x="729.5" y="-7" font-family="Helvetica,sans-Serif" font-size="10.00">EthernetSwitch</text>
</a>
</g>
</g>
<!-- BgpNetwork&#45;&gt;EthernetSwitch -->
<g id="edge7" class="edge">
<title>BgpNetwork&#45;&gt;EthernetSwitch</title>
<path fill="none" stroke="black" d="M379.23,-58.66C439.83,-51.03 561,-35.49 674.21,-19.16"/>
<polygon fill="black" stroke="black" points="675.04,-22.57 684.43,-17.68 674.03,-15.65 675.04,-22.57"/>
</g>
</g>
</svg>
