<?xml version="1.0" encoding="UTF-8" standalone="no"?>
<!DOCTYPE svg PUBLIC "-//W3C//DTD SVG 1.1//EN"
 "http://www.w3.org/Graphics/SVG/1.1/DTD/svg11.dtd">
<!-- Generated by graphviz version 2.43.0 (0)
 -->
<!-- Title: opp Pages: 1 -->
<svg width="1092pt" height="82pt"
 viewBox="0.00 0.00 1092.00 82.00" xmlns="http://www.w3.org/2000/svg" xmlns:xlink="http://www.w3.org/1999/xlink">
<g id="graph0" class="graph" transform="scale(1 1) rotate(0) translate(4 78)">
<title>opp</title>
<polygon fill="transparent" stroke="transparent" points="-4,4 -4,-78 1088,-78 1088,4 -4,4"/>
<!-- TelnetServerConnection -->
<g id="node1" class="node">
<title>TelnetServerConnection</title>
<g id="a_node1"><a xlink:href="inet.applications.tcpapp.TelnetServerConnection.html" xlink:title="Compound Module TelnetServerConnection" target="_parent">
<polygon fill="#fff700" stroke="black" points="567,-74 435,-74 435,-55 567,-55 567,-74"/>
<text text-anchor="middle" x="501" y="-62" font-family="Helvetica,sans-Serif" font-size="10.00">TelnetServerConnection</text>
</a>
</g>
</g>
<!-- IPassivePacketSink -->
<g id="node2" class="node">
<title>IPassivePacketSink</title>
<g id="a_node2"><a xlink:href="inet.queueing.contract.IPassivePacketSink.html" xlink:title="Module Interface IPassivePacketSink" target="_parent">
<polygon fill="#fffcaf" stroke="black" stroke-dasharray="5,2" points="110,-19 0,-19 0,0 110,0 110,-19"/>
<text text-anchor="middle" x="55" y="-7" font-family="Helvetica,sans-Serif" font-size="10.00">IPassivePacketSink</text>
</a>
</g>
</g>
<!-- TelnetServerConnection&#45;&gt;IPassivePacketSink -->
<g id="edge1" class="edge">
<title>TelnetServerConnection&#45;&gt;IPassivePacketSink</title>
<path fill="none" stroke="black" d="M434.71,-56.1C360.65,-47.77 236.9,-33.62 120.32,-19.15"/>
<polygon fill="black" stroke="black" points="120.51,-15.64 110.15,-17.88 119.64,-22.59 120.51,-15.64"/>
</g>
<!-- TcpServerSocketIo -->
<g id="node3" class="node">
<title>TcpServerSocketIo</title>
<g id="a_node3"><a xlink:href="inet.applications.tcpapp.TcpServerSocketIo.html" xlink:title="Simple Module TcpServerSocketIo" target="_parent">
<polygon fill="#fffcaf" stroke="black" points="233.5,-19 128.5,-19 128.5,0 233.5,0 233.5,-19"/>
<text text-anchor="middle" x="181" y="-7" font-family="Helvetica,sans-Serif" font-size="10.00">TcpServerSocketIo</text>
</a>
</g>
</g>
<!-- TelnetServerConnection&#45;&gt;TcpServerSocketIo -->
<g id="edge2" class="edge">
<title>TelnetServerConnection&#45;&gt;TcpServerSocketIo</title>
<path fill="none" stroke="black" d="M449.59,-54.98C393.22,-45.65 302.81,-30.67 242.67,-20.71"/>
<polygon fill="black" stroke="black" points="242.99,-17.22 232.55,-19.04 241.84,-24.13 242.99,-17.22"/>
</g>
<!-- IdealChannel -->
<g id="node4" class="node">
<title>IdealChannel</title>
<g id="a_node4"><a xlink:href="ned.IdealChannel.html" xlink:title="Channel IdealChannel" target="_parent">
<polygon fill="#d0ffd0" stroke="black" points="332,-19 252,-19 252,0 332,0 332,-19"/>
<text text-anchor="middle" x="292" y="-7" font-family="Helvetica,sans-Serif" font-size="10.00">IdealChannel</text>
</a>
</g>
</g>
<!-- TelnetServerConnection&#45;&gt;IdealChannel -->
<g id="edge3" class="edge">
<title>TelnetServerConnection&#45;&gt;IdealChannel</title>
<path fill="none" stroke="black" d="M467.42,-54.98C431.65,-45.91 374.88,-31.52 335.66,-21.57"/>
<polygon fill="black" stroke="black" points="336.4,-18.15 325.84,-19.08 334.68,-24.93 336.4,-18.15"/>
</g>
<!-- IPacketServer -->
<g id="node5" class="node">
<title>IPacketServer</title>
<g id="a_node5"><a xlink:href="inet.queueing.contract.IPacketServer.html" xlink:title="Module Interface IPacketServer" target="_parent">
<polygon fill="#fffcaf" stroke="black" stroke-dasharray="5,2" points="433.5,-19 350.5,-19 350.5,0 433.5,0 433.5,-19"/>
<text text-anchor="middle" x="392" y="-7" font-family="Helvetica,sans-Serif" font-size="10.00">IPacketServer</text>
</a>
</g>
</g>
<!-- TelnetServerConnection&#45;&gt;IPacketServer -->
<g id="edge4" class="edge">
<title>TelnetServerConnection&#45;&gt;IPacketServer</title>
<path fill="none" stroke="black" d="M483.49,-54.98C466.03,-46.5 438.99,-33.35 418.83,-23.54"/>
<polygon fill="black" stroke="black" points="420.36,-20.4 409.83,-19.17 417.29,-26.69 420.36,-20.4"/>
</g>
<!-- IPacketClassifier -->
<g id="node6" class="node">
<title>IPacketClassifier</title>
<g id="a_node6"><a xlink:href="inet.queueing.contract.IPacketClassifier.html" xlink:title="Module Interface IPacketClassifier" target="_parent">
<polygon fill="#fffcaf" stroke="black" stroke-dasharray="5,2" points="550,-19 452,-19 452,0 550,0 550,-19"/>
<text text-anchor="middle" x="501" y="-7" font-family="Helvetica,sans-Serif" font-size="10.00">IPacketClassifier</text>
</a>
</g>
</g>
<!-- TelnetServerConnection&#45;&gt;IPacketClassifier -->
<g id="edge5" class="edge">
<title>TelnetServerConnection&#45;&gt;IPacketClassifier</title>
<path fill="none" stroke="black" d="M501,-54.75C501,-47.8 501,-37.85 501,-29.13"/>
<polygon fill="black" stroke="black" points="504.5,-29.09 501,-19.09 497.5,-29.09 504.5,-29.09"/>
</g>
<!-- PacketCloner -->
<g id="node7" class="node">
<title>PacketCloner</title>
<g id="a_node7"><a xlink:href="inet.queueing.common.PacketCloner.html" xlink:title="Simple Module PacketCloner" target="_parent">
<polygon fill="#fffcaf" stroke="black" points="648,-19 568,-19 568,0 648,0 648,-19"/>
<text text-anchor="middle" x="608" y="-7" font-family="Helvetica,sans-Serif" font-size="10.00">PacketCloner</text>
</a>
</g>
</g>
<!-- TelnetServerConnection&#45;&gt;PacketCloner -->
<g id="edge6" class="edge">
<title>TelnetServerConnection&#45;&gt;PacketCloner</title>
<path fill="none" stroke="black" d="M518.19,-54.98C535.25,-46.54 561.63,-33.47 581.4,-23.68"/>
<polygon fill="black" stroke="black" points="583.09,-26.75 590.5,-19.17 579.98,-20.47 583.09,-26.75"/>
</g>
<!-- PacketBasedTokenGenerator -->
<g id="node8" class="node">
<title>PacketBasedTokenGenerator</title>
<g id="a_node8"><a xlink:href="inet.queueing.tokengenerator.PacketBasedTokenGenerator.html" xlink:title="Simple Module PacketBasedTokenGenerator" target="_parent">
<polygon fill="#fffcaf" stroke="black" points="821.5,-19 666.5,-19 666.5,0 821.5,0 821.5,-19"/>
<text text-anchor="middle" x="744" y="-7" font-family="Helvetica,sans-Serif" font-size="10.00">PacketBasedTokenGenerator</text>
</a>
</g>
</g>
<!-- TelnetServerConnection&#45;&gt;PacketBasedTokenGenerator -->
<g id="edge7" class="edge">
<title>TelnetServerConnection&#45;&gt;PacketBasedTokenGenerator</title>
<path fill="none" stroke="black" d="M540.04,-54.98C582.08,-45.82 649.04,-31.21 694.68,-21.26"/>
<polygon fill="black" stroke="black" points="695.63,-24.63 704.65,-19.08 694.14,-17.79 695.63,-24.63"/>
</g>
<!-- PacketMultiplexer -->
<g id="node9" class="node">
<title>PacketMultiplexer</title>
<g id="a_node9"><a xlink:href="inet.queueing.common.PacketMultiplexer.html" xlink:title="Simple Module PacketMultiplexer" target="_parent">
<polygon fill="#fffcaf" stroke="black" points="944,-19 840,-19 840,0 944,0 944,-19"/>
<text text-anchor="middle" x="892" y="-7" font-family="Helvetica,sans-Serif" font-size="10.00">PacketMultiplexer</text>
</a>
</g>
</g>
<!-- TelnetServerConnection&#45;&gt;PacketMultiplexer -->
<g id="edge8" class="edge">
<title>TelnetServerConnection&#45;&gt;PacketMultiplexer</title>
<path fill="none" stroke="black" d="M564.89,-54.97C629.17,-46.37 731.43,-32.63 829.65,-19.18"/>
<polygon fill="black" stroke="black" points="830.33,-22.62 839.76,-17.79 829.38,-15.69 830.33,-22.62"/>
</g>
<!-- IPassivePacketSource -->
<g id="node10" class="node">
<title>IPassivePacketSource</title>
<g id="a_node10"><a xlink:href="inet.queueing.contract.IPassivePacketSource.html" xlink:title="Module Interface IPassivePacketSource" target="_parent">
<polygon fill="#fffcaf" stroke="black" stroke-dasharray="5,2" points="1084,-19 962,-19 962,0 1084,0 1084,-19"/>
<text text-anchor="middle" x="1023" y="-7" font-family="Helvetica,sans-Serif" font-size="10.00">IPassivePacketSource</text>
</a>
</g>
</g>
<!-- TelnetServerConnection&#45;&gt;IPassivePacketSource -->
<g id="edge9" class="edge">
<title>TelnetServerConnection&#45;&gt;IPassivePacketSource</title>
<path fill="none" stroke="black" d="M567.3,-57.45C653.37,-49.48 808.54,-34.77 951.64,-19.13"/>
<polygon fill="black" stroke="black" points="952.37,-22.57 961.93,-18 951.6,-15.61 952.37,-22.57"/>
</g>
</g>
</svg>
