<?xml version="1.0" encoding="UTF-8" standalone="no"?>
<!DOCTYPE svg PUBLIC "-//W3C//DTD SVG 1.1//EN"
 "http://www.w3.org/Graphics/SVG/1.1/DTD/svg11.dtd">
<!-- Generated by graphviz version 2.43.0 (0)
 -->
<!-- Title: opp Pages: 1 -->
<svg width="1418pt" height="137pt"
 viewBox="0.00 0.00 1417.50 137.00" xmlns="http://www.w3.org/2000/svg" xmlns:xlink="http://www.w3.org/1999/xlink">
<g id="graph0" class="graph" transform="scale(1 1) rotate(0) translate(4 133)">
<title>opp</title>
<polygon fill="transparent" stroke="transparent" points="-4,4 -4,-133 1413.5,-133 1413.5,4 -4,4"/>
<!-- AodvRouter -->
<g id="node1" class="node">
<title>AodvRouter</title>
<g id="a_node1"><a xlink:href="inet.node.aodv.AodvRouter.html" xlink:title="Compound Module AodvRouter" target="_parent">
<polygon fill="#fff700" stroke="black" points="743,-74 669,-74 669,-55 743,-55 743,-74"/>
<text text-anchor="middle" x="706" y="-62" font-family="Helvetica,sans-Serif" font-size="10.00">AodvRouter</text>
</a>
</g>
</g>
<!-- IdealChannel -->
<g id="node2" class="node">
<title>IdealChannel</title>
<g id="a_node2"><a xlink:href="ned.IdealChannel.html" xlink:title="Channel IdealChannel" target="_parent">
<polygon fill="#d0ffd0" stroke="black" points="704,-19 624,-19 624,0 704,0 704,-19"/>
<text text-anchor="middle" x="664" y="-7" font-family="Helvetica,sans-Serif" font-size="10.00">IdealChannel</text>
</a>
</g>
</g>
<!-- AodvRouter&#45;&gt;IdealChannel -->
<g id="edge1" class="edge">
<title>AodvRouter&#45;&gt;IdealChannel</title>
<path fill="none" stroke="black" d="M699.06,-54.75C693.13,-47.26 684.43,-36.28 677.18,-27.13"/>
<polygon fill="black" stroke="black" points="679.76,-24.75 670.81,-19.09 674.27,-29.1 679.76,-24.75"/>
</g>
<!-- Aodv -->
<g id="node3" class="node">
<title>Aodv</title>
<g id="a_node3"><a xlink:href="inet.routing.aodv.Aodv.html" xlink:title="Simple Module Aodv" target="_parent">
<polygon fill="#fffcaf" stroke="black" points="776,-19 722,-19 722,0 776,0 776,-19"/>
<text text-anchor="middle" x="749" y="-7" font-family="Helvetica,sans-Serif" font-size="10.00">Aodv</text>
</a>
</g>
</g>
<!-- AodvRouter&#45;&gt;Aodv -->
<g id="edge2" class="edge">
<title>AodvRouter&#45;&gt;Aodv</title>
<path fill="none" stroke="black" d="M713.1,-54.75C719.17,-47.26 728.09,-36.28 735.51,-27.13"/>
<polygon fill="black" stroke="black" points="738.45,-29.06 742.03,-19.09 733.01,-24.65 738.45,-29.06"/>
</g>
<!-- AODVNetwork -->
<g id="node4" class="node">
<title>AODVNetwork</title>
<g id="a_node4"><a xlink:href="inet.examples.aodv.AODVNetwork.html" xlink:title="Network AODVNetwork" target="_parent">
<polygon fill="#d0d0ff" stroke="black" points="86,-129 0,-129 0,-110 86,-110 86,-129"/>
<text text-anchor="middle" x="43" y="-117" font-family="Helvetica,sans-Serif" font-size="10.00">AODVNetwork</text>
</a>
</g>
</g>
<!-- AODVNetwork&#45;&gt;AodvRouter -->
<g id="edge3" class="edge">
<title>AODVNetwork&#45;&gt;AodvRouter</title>
<path fill="none" stroke="black" d="M86.09,-111.15C89.1,-110.73 92.09,-110.34 95,-110 304.34,-85.32 555.76,-72.18 658.63,-67.51"/>
<polygon fill="black" stroke="black" points="658.86,-71 668.69,-67.05 658.55,-64.01 658.86,-71"/>
</g>
<!-- ConfiguratorD -->
<g id="node5" class="node">
<title>ConfiguratorD</title>
<g id="a_node5"><a xlink:href="inet.tutorials.configurator.ConfiguratorD.html" xlink:title="Network ConfiguratorD" target="_parent">
<polygon fill="#d0d0ff" stroke="black" points="189.5,-129 104.5,-129 104.5,-110 189.5,-110 189.5,-129"/>
<text text-anchor="middle" x="147" y="-117" font-family="Helvetica,sans-Serif" font-size="10.00">ConfiguratorD</text>
</a>
</g>
</g>
<!-- ConfiguratorD&#45;&gt;AodvRouter -->
<g id="edge4" class="edge">
<title>ConfiguratorD&#45;&gt;AodvRouter</title>
<path fill="none" stroke="black" d="M189.53,-111.28C192.73,-110.82 195.91,-110.39 199,-110 367.46,-88.87 568.65,-74.39 658.54,-68.48"/>
<polygon fill="black" stroke="black" points="658.94,-71.96 668.69,-67.82 658.48,-64.98 658.94,-71.96"/>
</g>
<!-- DataLinkVisualizerMobileShowcase -->
<g id="node6" class="node">
<title>DataLinkVisualizerMobileShowcase</title>
<g id="a_node6"><a xlink:href="inet.showcases.visualizer.canvas.datalinkactivity.DataLinkVisualizerMobileShowcase.html" xlink:title="Network DataLinkVisualizerMobileShowcase" target="_parent">
<polygon fill="#d0d0ff" stroke="black" points="398,-129 208,-129 208,-110 398,-110 398,-129"/>
<text text-anchor="middle" x="303" y="-117" font-family="Helvetica,sans-Serif" font-size="10.00">DataLinkVisualizerMobileShowcase</text>
</a>
</g>
</g>
<!-- DataLinkVisualizerMobileShowcase&#45;&gt;AodvRouter -->
<g id="edge5" class="edge">
<title>DataLinkVisualizerMobileShowcase&#45;&gt;AodvRouter</title>
<path fill="none" stroke="black" d="M367.75,-109.98C449.08,-99.29 586.68,-81.19 658.76,-71.71"/>
<polygon fill="black" stroke="black" points="659.44,-75.15 668.9,-70.38 658.53,-68.21 659.44,-75.15"/>
</g>
<!-- FilteringExampleNetwork -->
<g id="node7" class="node">
<title>FilteringExampleNetwork</title>
<g id="a_node7"><a xlink:href="inet.examples.wireless.filtering.FilteringExampleNetwork.html" xlink:title="Network FilteringExampleNetwork" target="_parent">
<polygon fill="#d0d0ff" stroke="black" points="556,-129 416,-129 416,-110 556,-110 556,-129"/>
<text text-anchor="middle" x="486" y="-117" font-family="Helvetica,sans-Serif" font-size="10.00">FilteringExampleNetwork</text>
</a>
</g>
</g>
<!-- FilteringExampleNetwork&#45;&gt;AodvRouter -->
<g id="edge6" class="edge">
<title>FilteringExampleNetwork&#45;&gt;AodvRouter</title>
<path fill="none" stroke="black" d="M521.35,-109.98C559.16,-100.87 619.26,-86.4 660.57,-76.45"/>
<polygon fill="black" stroke="black" points="661.47,-79.83 670.38,-74.08 659.83,-73.02 661.47,-79.83"/>
</g>
<!-- NeighborCacheTest -->
<g id="node8" class="node">
<title>NeighborCacheTest</title>
<g id="a_node8"><a xlink:href="inet.examples.neighborcache.NeighborCacheTest.html" xlink:title="Network NeighborCacheTest" target="_parent">
<polygon fill="#d0d0ff" stroke="black" points="684,-129 574,-129 574,-110 684,-110 684,-129"/>
<text text-anchor="middle" x="629" y="-117" font-family="Helvetica,sans-Serif" font-size="10.00">NeighborCacheTest</text>
</a>
</g>
</g>
<!-- NeighborCacheTest&#45;&gt;AodvRouter -->
<g id="edge7" class="edge">
<title>NeighborCacheTest&#45;&gt;AodvRouter</title>
<path fill="none" stroke="black" d="M641.37,-109.98C653.09,-101.92 670.92,-89.65 684.89,-80.03"/>
<polygon fill="black" stroke="black" points="687.15,-82.72 693.4,-74.17 683.18,-76.96 687.15,-82.72"/>
</g>
<!-- NetworkPathMobileShowcase -->
<g id="node9" class="node">
<title>NetworkPathMobileShowcase</title>
<g id="a_node9"><a xlink:href="inet.showcases.visualizer.canvas.networkpathactivity.NetworkPathMobileShowcase.html" xlink:title="Network NetworkPathMobileShowcase" target="_parent">
<polygon fill="#d0d0ff" stroke="black" points="863.5,-129 702.5,-129 702.5,-110 863.5,-110 863.5,-129"/>
<text text-anchor="middle" x="783" y="-117" font-family="Helvetica,sans-Serif" font-size="10.00">NetworkPathMobileShowcase</text>
</a>
</g>
</g>
<!-- NetworkPathMobileShowcase&#45;&gt;AodvRouter -->
<g id="edge8" class="edge">
<title>NetworkPathMobileShowcase&#45;&gt;AodvRouter</title>
<path fill="none" stroke="black" d="M770.63,-109.98C758.91,-101.92 741.08,-89.65 727.11,-80.03"/>
<polygon fill="black" stroke="black" points="728.82,-76.96 718.6,-74.17 724.85,-82.72 728.82,-76.96"/>
</g>
<!-- RoutingTableVisualizationDynamicShowcase -->
<g id="node10" class="node">
<title>RoutingTableVisualizationDynamicShowcase</title>
<g id="a_node10"><a xlink:href="inet.showcases.visualizer.canvas.routingtable.RoutingTableVisualizationDynamicShowcase.html" xlink:title="Network RoutingTableVisualizationDynamicShowcase" target="_parent">
<polygon fill="#d0d0ff" stroke="black" points="1116.5,-129 881.5,-129 881.5,-110 1116.5,-110 1116.5,-129"/>
<text text-anchor="middle" x="999" y="-117" font-family="Helvetica,sans-Serif" font-size="10.00">RoutingTableVisualizationDynamicShowcase</text>
</a>
</g>
</g>
<!-- RoutingTableVisualizationDynamicShowcase&#45;&gt;AodvRouter -->
<g id="edge9" class="edge">
<title>RoutingTableVisualizationDynamicShowcase&#45;&gt;AodvRouter</title>
<path fill="none" stroke="black" d="M951.92,-109.98C897.37,-100.12 807.98,-83.95 753.32,-74.06"/>
<polygon fill="black" stroke="black" points="753.66,-70.56 743.2,-72.23 752.42,-77.45 753.66,-70.56"/>
</g>
<!-- ShortestPath -->
<g id="node11" class="node">
<title>ShortestPath</title>
<g id="a_node11"><a xlink:href="inet.examples.aodv.ShortestPath.html" xlink:title="Network ShortestPath" target="_parent">
<polygon fill="#d0d0ff" stroke="black" points="1213.5,-129 1134.5,-129 1134.5,-110 1213.5,-110 1213.5,-129"/>
<text text-anchor="middle" x="1174" y="-117" font-family="Helvetica,sans-Serif" font-size="10.00">ShortestPath</text>
</a>
</g>
</g>
<!-- ShortestPath&#45;&gt;AodvRouter -->
<g id="edge10" class="edge">
<title>ShortestPath&#45;&gt;AodvRouter</title>
<path fill="none" stroke="black" d="M1134.48,-111.28C1131.62,-110.82 1128.77,-110.39 1126,-110 991.2,-90.95 831.01,-76.12 753.17,-69.42"/>
<polygon fill="black" stroke="black" points="753.45,-65.93 743.19,-68.56 752.85,-72.9 753.45,-65.93"/>
</g>
<!-- SimpleRREQ -->
<g id="node12" class="node">
<title>SimpleRREQ</title>
<g id="a_node12"><a xlink:href="inet.examples.aodv.SimpleRREQ.html" xlink:title="Network SimpleRREQ" target="_parent">
<polygon fill="#d0d0ff" stroke="black" points="1308.5,-129 1231.5,-129 1231.5,-110 1308.5,-110 1308.5,-129"/>
<text text-anchor="middle" x="1270" y="-117" font-family="Helvetica,sans-Serif" font-size="10.00">SimpleRREQ</text>
</a>
</g>
</g>
<!-- SimpleRREQ&#45;&gt;AodvRouter -->
<g id="edge11" class="edge">
<title>SimpleRREQ&#45;&gt;AodvRouter</title>
<path fill="none" stroke="black" d="M1231.32,-111.21C1228.51,-110.77 1225.71,-110.36 1223,-110 1050.6,-87.04 844.19,-73.4 753.12,-68.08"/>
<polygon fill="black" stroke="black" points="753.3,-64.59 743.12,-67.51 752.9,-71.58 753.3,-64.59"/>
</g>
<!-- SimpleRREQ2 -->
<g id="node13" class="node">
<title>SimpleRREQ2</title>
<g id="a_node13"><a xlink:href="inet.examples.aodv.SimpleRREQ2.html" xlink:title="Network SimpleRREQ2" target="_parent">
<polygon fill="#d0d0ff" stroke="black" points="1409.5,-129 1326.5,-129 1326.5,-110 1409.5,-110 1409.5,-129"/>
<text text-anchor="middle" x="1368" y="-117" font-family="Helvetica,sans-Serif" font-size="10.00">SimpleRREQ2</text>
</a>
</g>
</g>
<!-- SimpleRREQ2&#45;&gt;AodvRouter -->
<g id="edge12" class="edge">
<title>SimpleRREQ2&#45;&gt;AodvRouter</title>
<path fill="none" stroke="black" d="M1326.3,-111.1C1323.5,-110.7 1320.71,-110.33 1318,-110 1108.14,-84.59 855.91,-71.84 753.08,-67.38"/>
<polygon fill="black" stroke="black" points="753.17,-63.88 743.03,-66.95 752.87,-70.88 753.17,-63.88"/>
</g>
</g>
</svg>
