<?xml version="1.0" encoding="UTF-8" standalone="no"?>
<!DOCTYPE svg PUBLIC "-//W3C//DTD SVG 1.1//EN"
 "http://www.w3.org/Graphics/SVG/1.1/DTD/svg11.dtd">
<!-- Generated by graphviz version 2.43.0 (0)
 -->
<!-- Title: opp Pages: 1 -->
<svg width="476pt" height="82pt"
 viewBox="0.00 0.00 475.50 82.00" xmlns="http://www.w3.org/2000/svg" xmlns:xlink="http://www.w3.org/1999/xlink">
<g id="graph0" class="graph" transform="scale(1 1) rotate(0) translate(4 78)">
<title>opp</title>
<polygon fill="transparent" stroke="transparent" points="-4,4 -4,-78 471.5,-78 471.5,4 -4,4"/>
<!-- TokenBasedServerTutorialStep -->
<g id="node1" class="node">
<title>TokenBasedServerTutorialStep</title>
<g id="a_node1"><a xlink:href="inet.tutorials.queueing.TokenBasedServerTutorialStep.html" xlink:title="Network TokenBasedServerTutorialStep" target="_parent">
<polygon fill="#9090ff" stroke="black" points="296,-74 132,-74 132,-55 296,-55 296,-74"/>
<text text-anchor="middle" x="214" y="-62" font-family="Helvetica,sans-Serif" font-size="10.00">TokenBasedServerTutorialStep</text>
</a>
</g>
</g>
<!-- IdealChannel -->
<g id="node2" class="node">
<title>IdealChannel</title>
<g id="a_node2"><a xlink:href="ned.IdealChannel.html" xlink:title="Channel IdealChannel" target="_parent">
<polygon fill="#d0ffd0" stroke="black" points="80,-19 0,-19 0,0 80,0 80,-19"/>
<text text-anchor="middle" x="40" y="-7" font-family="Helvetica,sans-Serif" font-size="10.00">IdealChannel</text>
</a>
</g>
</g>
<!-- TokenBasedServerTutorialStep&#45;&gt;IdealChannel -->
<g id="edge1" class="edge">
<title>TokenBasedServerTutorialStep&#45;&gt;IdealChannel</title>
<path fill="none" stroke="black" d="M186.04,-54.98C156.7,-46.05 110.4,-31.94 77.81,-22.02"/>
<polygon fill="black" stroke="black" points="78.76,-18.65 68.18,-19.08 76.72,-25.34 78.76,-18.65"/>
</g>
<!-- PassivePacketSink -->
<g id="node3" class="node">
<title>PassivePacketSink</title>
<g id="a_node3"><a xlink:href="inet.queueing.sink.PassivePacketSink.html" xlink:title="Simple Module PassivePacketSink" target="_parent">
<polygon fill="#fffcaf" stroke="black" points="205.5,-19 98.5,-19 98.5,0 205.5,0 205.5,-19"/>
<text text-anchor="middle" x="152" y="-7" font-family="Helvetica,sans-Serif" font-size="10.00">PassivePacketSink</text>
</a>
</g>
</g>
<!-- TokenBasedServerTutorialStep&#45;&gt;PassivePacketSink -->
<g id="edge2" class="edge">
<title>TokenBasedServerTutorialStep&#45;&gt;PassivePacketSink</title>
<path fill="none" stroke="black" d="M204.04,-54.98C194.87,-47.15 181.06,-35.34 169.97,-25.86"/>
<polygon fill="black" stroke="black" points="172.02,-23.01 162.14,-19.17 167.47,-28.33 172.02,-23.01"/>
</g>
<!-- TokenBasedServer -->
<g id="node4" class="node">
<title>TokenBasedServer</title>
<g id="a_node4"><a xlink:href="inet.queueing.server.TokenBasedServer.html" xlink:title="Simple Module TokenBasedServer" target="_parent">
<polygon fill="#fffcaf" stroke="black" points="330,-19 224,-19 224,0 330,0 330,-19"/>
<text text-anchor="middle" x="277" y="-7" font-family="Helvetica,sans-Serif" font-size="10.00">TokenBasedServer</text>
</a>
</g>
</g>
<!-- TokenBasedServerTutorialStep&#45;&gt;TokenBasedServer -->
<g id="edge3" class="edge">
<title>TokenBasedServerTutorialStep&#45;&gt;TokenBasedServer</title>
<path fill="none" stroke="black" d="M224.12,-54.98C233.44,-47.15 247.47,-35.34 258.74,-25.86"/>
<polygon fill="black" stroke="black" points="261.29,-28.29 266.69,-19.17 256.79,-22.93 261.29,-28.29"/>
</g>
<!-- PassivePacketSource -->
<g id="node5" class="node">
<title>PassivePacketSource</title>
<g id="a_node5"><a xlink:href="inet.queueing.source.PassivePacketSource.html" xlink:title="Simple Module PassivePacketSource" target="_parent">
<polygon fill="#fffcaf" stroke="black" points="467.5,-19 348.5,-19 348.5,0 467.5,0 467.5,-19"/>
<text text-anchor="middle" x="408" y="-7" font-family="Helvetica,sans-Serif" font-size="10.00">PassivePacketSource</text>
</a>
</g>
</g>
<!-- TokenBasedServerTutorialStep&#45;&gt;PassivePacketSource -->
<g id="edge4" class="edge">
<title>TokenBasedServerTutorialStep&#45;&gt;PassivePacketSource</title>
<path fill="none" stroke="black" d="M245.17,-54.98C278.16,-45.97 330.4,-31.7 366.77,-21.76"/>
<polygon fill="black" stroke="black" points="367.86,-25.09 376.59,-19.08 366.02,-18.34 367.86,-25.09"/>
</g>
</g>
</svg>
