<?xml version="1.0" encoding="UTF-8" standalone="no"?>
<!DOCTYPE svg PUBLIC "-//W3C//DTD SVG 1.1//EN"
 "http://www.w3.org/Graphics/SVG/1.1/DTD/svg11.dtd">
<!-- Generated by graphviz version 2.43.0 (0)
 -->
<!-- Title: opp Pages: 1 -->
<svg width="605pt" height="82pt"
 viewBox="0.00 0.00 605.00 82.00" xmlns="http://www.w3.org/2000/svg" xmlns:xlink="http://www.w3.org/1999/xlink">
<g id="graph0" class="graph" transform="scale(1 1) rotate(0) translate(4 78)">
<title>opp</title>
<polygon fill="transparent" stroke="transparent" points="-4,4 -4,-78 601,-78 601,4 -4,4"/>
<!-- DirectionReverserLayer -->
<g id="node1" class="node">
<title>DirectionReverserLayer</title>
<g id="a_node1"><a xlink:href="inet.linklayer.ethernet.common.DirectionReverserLayer.html" xlink:title="Compound Module DirectionReverserLayer" target="_parent">
<polygon fill="#fff700" stroke="black" points="363.5,-74 232.5,-74 232.5,-55 363.5,-55 363.5,-74"/>
<text text-anchor="middle" x="298" y="-62" font-family="Helvetica,sans-Serif" font-size="10.00">DirectionReverserLayer</text>
</a>
</g>
</g>
<!-- IdealChannel -->
<g id="node2" class="node">
<title>IdealChannel</title>
<g id="a_node2"><a xlink:href="ned.IdealChannel.html" xlink:title="Channel IdealChannel" target="_parent">
<polygon fill="#d0ffd0" stroke="black" points="80,-19 0,-19 0,0 80,0 80,-19"/>
<text text-anchor="middle" x="40" y="-7" font-family="Helvetica,sans-Serif" font-size="10.00">IdealChannel</text>
</a>
</g>
</g>
<!-- DirectionReverserLayer&#45;&gt;IdealChannel -->
<g id="edge1" class="edge">
<title>DirectionReverserLayer&#45;&gt;IdealChannel</title>
<path fill="none" stroke="black" d="M256.55,-54.98C211.2,-45.67 138.52,-30.74 90.04,-20.78"/>
<polygon fill="black" stroke="black" points="90.58,-17.32 80.08,-18.73 89.17,-24.17 90.58,-17.32"/>
</g>
<!-- MessageDispatcher -->
<g id="node3" class="node">
<title>MessageDispatcher</title>
<g id="a_node3"><a xlink:href="inet.common.MessageDispatcher.html" xlink:title="Simple Module MessageDispatcher" target="_parent">
<polygon fill="#fffcaf" stroke="black" points="211.5,-19 98.5,-19 98.5,0 211.5,0 211.5,-19"/>
<text text-anchor="middle" x="155" y="-7" font-family="Helvetica,sans-Serif" font-size="10.00">MessageDispatcher</text>
</a>
</g>
</g>
<!-- DirectionReverserLayer&#45;&gt;MessageDispatcher -->
<g id="edge2" class="edge">
<title>DirectionReverserLayer&#45;&gt;MessageDispatcher</title>
<path fill="none" stroke="black" d="M275.02,-54.98C251.5,-46.27 214.71,-32.63 188.06,-22.75"/>
<polygon fill="black" stroke="black" points="188.99,-19.36 178.39,-19.17 186.55,-25.93 188.99,-19.36"/>
</g>
<!-- PacketDirectionReverser -->
<g id="node4" class="node">
<title>PacketDirectionReverser</title>
<g id="a_node4"><a xlink:href="inet.linklayer.ethernet.common.PacketDirectionReverser.html" xlink:title="Simple Module PacketDirectionReverser" target="_parent">
<polygon fill="#fffcaf" stroke="black" points="366.5,-19 229.5,-19 229.5,0 366.5,0 366.5,-19"/>
<text text-anchor="middle" x="298" y="-7" font-family="Helvetica,sans-Serif" font-size="10.00">PacketDirectionReverser</text>
</a>
</g>
</g>
<!-- DirectionReverserLayer&#45;&gt;PacketDirectionReverser -->
<g id="edge3" class="edge">
<title>DirectionReverserLayer&#45;&gt;PacketDirectionReverser</title>
<path fill="none" stroke="black" d="M298,-54.75C298,-47.8 298,-37.85 298,-29.13"/>
<polygon fill="black" stroke="black" points="301.5,-29.09 298,-19.09 294.5,-29.09 301.5,-29.09"/>
</g>
<!-- PacketMultiplexer -->
<g id="node5" class="node">
<title>PacketMultiplexer</title>
<g id="a_node5"><a xlink:href="inet.queueing.common.PacketMultiplexer.html" xlink:title="Simple Module PacketMultiplexer" target="_parent">
<polygon fill="#fffcaf" stroke="black" points="489,-19 385,-19 385,0 489,0 489,-19"/>
<text text-anchor="middle" x="437" y="-7" font-family="Helvetica,sans-Serif" font-size="10.00">PacketMultiplexer</text>
</a>
</g>
</g>
<!-- DirectionReverserLayer&#45;&gt;PacketMultiplexer -->
<g id="edge4" class="edge">
<title>DirectionReverserLayer&#45;&gt;PacketMultiplexer</title>
<path fill="none" stroke="black" d="M320.33,-54.98C343.2,-46.27 378.96,-32.63 404.86,-22.75"/>
<polygon fill="black" stroke="black" points="406.16,-26 414.26,-19.17 403.67,-19.46 406.16,-26"/>
</g>
<!-- IPacketDelayer -->
<g id="node6" class="node">
<title>IPacketDelayer</title>
<g id="a_node6"><a xlink:href="inet.queueing.contract.IPacketDelayer.html" xlink:title="Module Interface IPacketDelayer" target="_parent">
<polygon fill="#fffcaf" stroke="black" stroke-dasharray="5,2" points="597,-19 507,-19 507,0 597,0 597,-19"/>
<text text-anchor="middle" x="552" y="-7" font-family="Helvetica,sans-Serif" font-size="10.00">IPacketDelayer</text>
</a>
</g>
</g>
<!-- DirectionReverserLayer&#45;&gt;IPacketDelayer -->
<g id="edge5" class="edge">
<title>DirectionReverserLayer&#45;&gt;IPacketDelayer</title>
<path fill="none" stroke="black" d="M338.81,-54.98C382.93,-45.78 453.33,-31.09 501.05,-21.13"/>
<polygon fill="black" stroke="black" points="501.8,-24.55 510.87,-19.08 500.37,-17.7 501.8,-24.55"/>
</g>
</g>
</svg>
