<?xml version="1.0" encoding="UTF-8" standalone="no"?>
<!DOCTYPE svg PUBLIC "-//W3C//DTD SVG 1.1//EN"
 "http://www.w3.org/Graphics/SVG/1.1/DTD/svg11.dtd">
<!-- Generated by graphviz version 2.43.0 (0)
 -->
<!-- Title: opp Pages: 1 -->
<svg width="281pt" height="82pt"
 viewBox="0.00 0.00 280.50 82.00" xmlns="http://www.w3.org/2000/svg" xmlns:xlink="http://www.w3.org/1999/xlink">
<g id="graph0" class="graph" transform="scale(1 1) rotate(0) translate(4 78)">
<title>opp</title>
<polygon fill="transparent" stroke="transparent" points="-4,4 -4,-78 276.5,-78 276.5,4 -4,4"/>
<!-- Network2 -->
<g id="node1" class="node">
<title>Network2</title>
<g id="a_node1"><a xlink:href="inet.tutorials.protocol.Network2.html" xlink:title="Network Network2" target="_parent">
<polygon fill="#9090ff" stroke="black" points="173.5,-74 109.5,-74 109.5,-55 173.5,-55 173.5,-74"/>
<text text-anchor="middle" x="141.5" y="-62" font-family="Helvetica,sans-Serif" font-size="10.00">Network2</text>
</a>
</g>
</g>
<!-- DelayChannel -->
<g id="node2" class="node">
<title>DelayChannel</title>
<g id="a_node2"><a xlink:href="ned.DelayChannel.html" xlink:title="Channel DelayChannel" target="_parent">
<polygon fill="#d0ffd0" stroke="black" points="85,-19 0,-19 0,0 85,0 85,-19"/>
<text text-anchor="middle" x="42.5" y="-7" font-family="Helvetica,sans-Serif" font-size="10.00">DelayChannel</text>
</a>
</g>
</g>
<!-- Network2&#45;&gt;DelayChannel -->
<g id="edge1" class="edge">
<title>Network2&#45;&gt;DelayChannel</title>
<path fill="none" stroke="black" d="M125.59,-54.98C109.95,-46.61 85.84,-33.7 67.62,-23.95"/>
<polygon fill="black" stroke="black" points="69.16,-20.8 58.7,-19.17 65.86,-26.98 69.16,-20.8"/>
</g>
<!-- ServerHost2 -->
<g id="node3" class="node">
<title>ServerHost2</title>
<g id="a_node3"><a xlink:href="inet.tutorials.protocol.ServerHost2.html" xlink:title="Compound Module ServerHost2" target="_parent">
<polygon fill="#fffcaf" stroke="black" points="180,-19 103,-19 103,0 180,0 180,-19"/>
<text text-anchor="middle" x="141.5" y="-7" font-family="Helvetica,sans-Serif" font-size="10.00">ServerHost2</text>
</a>
</g>
</g>
<!-- Network2&#45;&gt;ServerHost2 -->
<g id="edge2" class="edge">
<title>Network2&#45;&gt;ServerHost2</title>
<path fill="none" stroke="black" d="M141.5,-54.75C141.5,-47.8 141.5,-37.85 141.5,-29.13"/>
<polygon fill="black" stroke="black" points="145,-29.09 141.5,-19.09 138,-29.09 145,-29.09"/>
</g>
<!-- ClientHost2 -->
<g id="node4" class="node">
<title>ClientHost2</title>
<g id="a_node4"><a xlink:href="inet.tutorials.protocol.ClientHost2.html" xlink:title="Compound Module ClientHost2" target="_parent">
<polygon fill="#fffcaf" stroke="black" points="272.5,-19 198.5,-19 198.5,0 272.5,0 272.5,-19"/>
<text text-anchor="middle" x="235.5" y="-7" font-family="Helvetica,sans-Serif" font-size="10.00">ClientHost2</text>
</a>
</g>
</g>
<!-- Network2&#45;&gt;ClientHost2 -->
<g id="edge3" class="edge">
<title>Network2&#45;&gt;ClientHost2</title>
<path fill="none" stroke="black" d="M156.6,-54.98C171.32,-46.69 193.92,-33.94 211.17,-24.22"/>
<polygon fill="black" stroke="black" points="213.13,-27.13 220.12,-19.17 209.69,-21.03 213.13,-27.13"/>
</g>
</g>
</svg>
