<?xml version="1.0" encoding="UTF-8" standalone="no"?>
<!DOCTYPE svg PUBLIC "-//W3C//DTD SVG 1.1//EN"
 "http://www.w3.org/Graphics/SVG/1.1/DTD/svg11.dtd">
<!-- Generated by graphviz version 2.43.0 (0)
 -->
<!-- Title: opp Pages: 1 -->
<svg width="264pt" height="82pt"
 viewBox="0.00 0.00 263.50 82.00" xmlns="http://www.w3.org/2000/svg" xmlns:xlink="http://www.w3.org/1999/xlink">
<g id="graph0" class="graph" transform="scale(1 1) rotate(0) translate(4 78)">
<title>opp</title>
<polygon fill="transparent" stroke="transparent" points="-4,4 -4,-78 259.5,-78 259.5,4 -4,4"/>
<!-- PacketTransmitter -->
<g id="node1" class="node">
<title>PacketTransmitter</title>
<g id="a_node1"><a xlink:href="inet.protocolelement.transceiver.PacketTransmitter.html" xlink:title="Simple Module PacketTransmitter" target="_parent">
<polygon fill="#fff700" stroke="black" points="185,-19 80,-19 80,0 185,0 185,-19"/>
<text text-anchor="middle" x="132.5" y="-7" font-family="Helvetica,sans-Serif" font-size="10.00">PacketTransmitter</text>
</a>
</g>
</g>
<!-- PacketTransmitterBase -->
<g id="node2" class="node">
<title>PacketTransmitterBase</title>
<g id="a_node2"><a xlink:href="inet.protocolelement.transceiver.base.PacketTransmitterBase.html" xlink:title="Simple Module PacketTransmitterBase" target="_parent">
<polygon fill="#fffcaf" stroke="black" points="129,-74 0,-74 0,-55 129,-55 129,-74"/>
<text text-anchor="middle" x="64.5" y="-62" font-family="Helvetica,sans-Serif" font-size="10.00">PacketTransmitterBase</text>
</a>
</g>
</g>
<!-- PacketTransmitterBase&#45;&gt;PacketTransmitter -->
<g id="edge1" class="edge">
<title>PacketTransmitterBase&#45;&gt;PacketTransmitter</title>
<path fill="none" stroke="black" d="M75.43,-54.98C88.04,-45.15 108.68,-29.07 121.38,-19.17"/>
</g>
<!-- IPacketTransmitter -->
<g id="node3" class="node">
<title>IPacketTransmitter</title>
<g id="a_node3"><a xlink:href="inet.protocolelement.transceiver.contract.IPacketTransmitter.html" xlink:title="Module Interface IPacketTransmitter" target="_parent">
<polygon fill="#fffcaf" stroke="black" stroke-dasharray="5,2" points="255.5,-74 147.5,-74 147.5,-55 255.5,-55 255.5,-74"/>
<text text-anchor="middle" x="201.5" y="-62" font-family="Helvetica,sans-Serif" font-size="10.00">IPacketTransmitter</text>
</a>
</g>
</g>
<!-- IPacketTransmitter&#45;&gt;PacketTransmitter -->
<g id="edge2" class="edge">
<title>IPacketTransmitter&#45;&gt;PacketTransmitter</title>
<path fill="none" stroke="black" stroke-dasharray="5,2" d="M190.41,-54.98C177.61,-45.15 156.67,-29.07 143.79,-19.17"/>
</g>
</g>
</svg>
