<?xml version="1.0" encoding="UTF-8" standalone="no"?>
<!DOCTYPE svg PUBLIC "-//W3C//DTD SVG 1.1//EN"
 "http://www.w3.org/Graphics/SVG/1.1/DTD/svg11.dtd">
<!-- Generated by graphviz version 2.43.0 (0)
 -->
<!-- Title: opp Pages: 1 -->
<svg width="412pt" height="82pt"
 viewBox="0.00 0.00 411.50 82.00" xmlns="http://www.w3.org/2000/svg" xmlns:xlink="http://www.w3.org/1999/xlink">
<g id="graph0" class="graph" transform="scale(1 1) rotate(0) translate(4 78)">
<title>opp</title>
<polygon fill="transparent" stroke="transparent" points="-4,4 -4,-78 407.5,-78 407.5,4 -4,4"/>
<!-- RIPInfinityCountTest -->
<g id="node1" class="node">
<title>RIPInfinityCountTest</title>
<g id="a_node1"><a xlink:href="inet.examples.rip.infinitycount.RIPInfinityCountTest.html" xlink:title="Network RIPInfinityCountTest" target="_parent">
<polygon fill="#9090ff" stroke="black" points="261,-74 146,-74 146,-55 261,-55 261,-74"/>
<text text-anchor="middle" x="203.5" y="-62" font-family="Helvetica,sans-Serif" font-size="10.00">RIPInfinityCountTest</text>
</a>
</g>
</g>
<!-- ScenarioManager -->
<g id="node2" class="node">
<title>ScenarioManager</title>
<g id="a_node2"><a xlink:href="inet.common.scenario.ScenarioManager.html" xlink:title="Simple Module ScenarioManager" target="_parent">
<polygon fill="#fffcaf" stroke="black" points="101,-19 0,-19 0,0 101,0 101,-19"/>
<text text-anchor="middle" x="50.5" y="-7" font-family="Helvetica,sans-Serif" font-size="10.00">ScenarioManager</text>
</a>
</g>
</g>
<!-- RIPInfinityCountTest&#45;&gt;ScenarioManager -->
<g id="edge1" class="edge">
<title>RIPInfinityCountTest&#45;&gt;ScenarioManager</title>
<path fill="none" stroke="black" d="M178.92,-54.98C153.45,-46.16 113.46,-32.31 84.87,-22.41"/>
<polygon fill="black" stroke="black" points="85.87,-19.05 75.27,-19.08 83.58,-25.66 85.87,-19.05"/>
</g>
<!-- Router -->
<g id="node3" class="node">
<title>Router</title>
<g id="a_node3"><a xlink:href="inet.node.inet.Router.html" xlink:title="Compound Module Router" target="_parent">
<polygon fill="#fffcaf" stroke="black" points="173.5,-19 119.5,-19 119.5,0 173.5,0 173.5,-19"/>
<text text-anchor="middle" x="146.5" y="-7" font-family="Helvetica,sans-Serif" font-size="10.00">Router</text>
</a>
</g>
</g>
<!-- RIPInfinityCountTest&#45;&gt;Router -->
<g id="edge2" class="edge">
<title>RIPInfinityCountTest&#45;&gt;Router</title>
<path fill="none" stroke="black" d="M194.34,-54.98C186,-47.23 173.47,-35.58 163.32,-26.14"/>
<polygon fill="black" stroke="black" points="165.53,-23.42 155.82,-19.17 160.76,-28.54 165.53,-23.42"/>
</g>
<!-- Ipv4NetworkConfigurator -->
<g id="node4" class="node">
<title>Ipv4NetworkConfigurator</title>
<g id="a_node4"><a xlink:href="inet.networklayer.configurator.ipv4.Ipv4NetworkConfigurator.html" xlink:title="Simple Module Ipv4NetworkConfigurator" target="_parent">
<polygon fill="#fffcaf" stroke="black" points="331.5,-19 191.5,-19 191.5,0 331.5,0 331.5,-19"/>
<text text-anchor="middle" x="261.5" y="-7" font-family="Helvetica,sans-Serif" font-size="10.00">Ipv4NetworkConfigurator</text>
</a>
</g>
</g>
<!-- RIPInfinityCountTest&#45;&gt;Ipv4NetworkConfigurator -->
<g id="edge3" class="edge">
<title>RIPInfinityCountTest&#45;&gt;Ipv4NetworkConfigurator</title>
<path fill="none" stroke="black" d="M212.82,-54.98C221.31,-47.23 234.06,-35.58 244.38,-26.14"/>
<polygon fill="black" stroke="black" points="246.99,-28.5 252.01,-19.17 242.27,-23.33 246.99,-28.5"/>
</g>
<!-- C -->
<g id="node5" class="node">
<title>C</title>
<g id="a_node5"><a xlink:href="inet.examples.rip.infinitycount.RIPInfinityCountTest.C.html" xlink:title="Channel C" target="_parent">
<polygon fill="#d0ffd0" stroke="black" points="403.5,-19 349.5,-19 349.5,0 403.5,0 403.5,-19"/>
<text text-anchor="middle" x="376.5" y="-7" font-family="Helvetica,sans-Serif" font-size="10.00">C</text>
</a>
</g>
</g>
<!-- RIPInfinityCountTest&#45;&gt;C -->
<g id="edge4" class="edge">
<title>RIPInfinityCountTest&#45;&gt;C</title>
<path fill="none" stroke="black" d="M231.3,-54.98C260.73,-45.97 307.32,-31.69 339.76,-21.75"/>
<polygon fill="black" stroke="black" points="340.81,-25.1 349.34,-18.82 338.76,-18.4 340.81,-25.1"/>
</g>
</g>
</svg>
