<?xml version="1.0" encoding="UTF-8" standalone="no"?>
<!DOCTYPE svg PUBLIC "-//W3C//DTD SVG 1.1//EN"
 "http://www.w3.org/Graphics/SVG/1.1/DTD/svg11.dtd">
<!-- Generated by graphviz version 2.43.0 (0)
 -->
<!-- Title: opp Pages: 1 -->
<svg width="562pt" height="82pt"
 viewBox="0.00 0.00 561.50 82.00" xmlns="http://www.w3.org/2000/svg" xmlns:xlink="http://www.w3.org/1999/xlink">
<g id="graph0" class="graph" transform="scale(1 1) rotate(0) translate(4 78)">
<title>opp</title>
<polygon fill="transparent" stroke="transparent" points="-4,4 -4,-78 557.5,-78 557.5,4 -4,4"/>
<!-- PhysicalLinkVisualizerEnablingShowcase -->
<g id="node1" class="node">
<title>PhysicalLinkVisualizerEnablingShowcase</title>
<g id="a_node1"><a xlink:href="inet.showcases.visualizer.canvas.physicallinkactivity.PhysicalLinkVisualizerEnablingShowcase.html" xlink:title="Network PhysicalLinkVisualizerEnablingShowcase" target="_parent">
<polygon fill="#9090ff" stroke="black" points="386,-74 170,-74 170,-55 386,-55 386,-74"/>
<text text-anchor="middle" x="278" y="-62" font-family="Helvetica,sans-Serif" font-size="10.00">PhysicalLinkVisualizerEnablingShowcase</text>
</a>
</g>
</g>
<!-- Ipv4NetworkConfigurator -->
<g id="node2" class="node">
<title>Ipv4NetworkConfigurator</title>
<g id="a_node2"><a xlink:href="inet.networklayer.configurator.ipv4.Ipv4NetworkConfigurator.html" xlink:title="Simple Module Ipv4NetworkConfigurator" target="_parent">
<polygon fill="#fffcaf" stroke="black" points="140,-19 0,-19 0,0 140,0 140,-19"/>
<text text-anchor="middle" x="70" y="-7" font-family="Helvetica,sans-Serif" font-size="10.00">Ipv4NetworkConfigurator</text>
</a>
</g>
</g>
<!-- PhysicalLinkVisualizerEnablingShowcase&#45;&gt;Ipv4NetworkConfigurator -->
<g id="edge1" class="edge">
<title>PhysicalLinkVisualizerEnablingShowcase&#45;&gt;Ipv4NetworkConfigurator</title>
<path fill="none" stroke="black" d="M244.58,-54.98C209.06,-45.93 152.73,-31.58 113.7,-21.64"/>
<polygon fill="black" stroke="black" points="114.24,-18.16 103.68,-19.08 112.51,-24.94 114.24,-18.16"/>
</g>
<!-- PhysicalLinkVisualizer -->
<g id="node3" class="node">
<title>PhysicalLinkVisualizer</title>
<g id="a_node3"><a xlink:href="inet.visualizer.common.PhysicalLinkVisualizer.html" xlink:title="Compound Module PhysicalLinkVisualizer" target="_parent">
<polygon fill="#fffcaf" stroke="black" points="283.5,-19 158.5,-19 158.5,0 283.5,0 283.5,-19"/>
<text text-anchor="middle" x="221" y="-7" font-family="Helvetica,sans-Serif" font-size="10.00">PhysicalLinkVisualizer</text>
</a>
</g>
</g>
<!-- PhysicalLinkVisualizerEnablingShowcase&#45;&gt;PhysicalLinkVisualizer -->
<g id="edge2" class="edge">
<title>PhysicalLinkVisualizerEnablingShowcase&#45;&gt;PhysicalLinkVisualizer</title>
<path fill="none" stroke="black" d="M268.84,-54.98C260.5,-47.23 247.97,-35.58 237.82,-26.14"/>
<polygon fill="black" stroke="black" points="240.03,-23.42 230.32,-19.17 235.26,-28.54 240.03,-23.42"/>
</g>
<!-- AdhocHost -->
<g id="node4" class="node">
<title>AdhocHost</title>
<g id="a_node4"><a xlink:href="inet.node.inet.AdhocHost.html" xlink:title="Compound Module AdhocHost" target="_parent">
<polygon fill="#fffcaf" stroke="black" points="370.5,-19 301.5,-19 301.5,0 370.5,0 370.5,-19"/>
<text text-anchor="middle" x="336" y="-7" font-family="Helvetica,sans-Serif" font-size="10.00">AdhocHost</text>
</a>
</g>
</g>
<!-- PhysicalLinkVisualizerEnablingShowcase&#45;&gt;AdhocHost -->
<g id="edge3" class="edge">
<title>PhysicalLinkVisualizerEnablingShowcase&#45;&gt;AdhocHost</title>
<path fill="none" stroke="black" d="M287.32,-54.98C295.81,-47.23 308.56,-35.58 318.88,-26.14"/>
<polygon fill="black" stroke="black" points="321.49,-28.5 326.51,-19.17 316.77,-23.33 321.49,-28.5"/>
</g>
<!-- Ieee80211ScalarRadioMedium -->
<g id="node5" class="node">
<title>Ieee80211ScalarRadioMedium</title>
<g id="a_node5"><a xlink:href="inet.physicallayer.wireless.ieee80211.packetlevel.Ieee80211ScalarRadioMedium.html" xlink:title="Compound Module Ieee80211ScalarRadioMedium" target="_parent">
<polygon fill="#fffcaf" stroke="black" points="553.5,-19 388.5,-19 388.5,0 553.5,0 553.5,-19"/>
<text text-anchor="middle" x="471" y="-7" font-family="Helvetica,sans-Serif" font-size="10.00">Ieee80211ScalarRadioMedium</text>
</a>
</g>
</g>
<!-- PhysicalLinkVisualizerEnablingShowcase&#45;&gt;Ieee80211ScalarRadioMedium -->
<g id="edge4" class="edge">
<title>PhysicalLinkVisualizerEnablingShowcase&#45;&gt;Ieee80211ScalarRadioMedium</title>
<path fill="none" stroke="black" d="M309.01,-54.98C341.83,-45.97 393.8,-31.7 429.99,-21.76"/>
<polygon fill="black" stroke="black" points="431.03,-25.11 439.75,-19.08 429.18,-18.36 431.03,-25.11"/>
</g>
</g>
</svg>
