<?xml version="1.0" encoding="UTF-8" standalone="no"?>
<!DOCTYPE svg PUBLIC "-//W3C//DTD SVG 1.1//EN"
 "http://www.w3.org/Graphics/SVG/1.1/DTD/svg11.dtd">
<!-- Generated by graphviz version 2.43.0 (0)
 -->
<!-- Title: opp Pages: 1 -->
<svg width="699pt" height="82pt"
 viewBox="0.00 0.00 698.50 82.00" xmlns="http://www.w3.org/2000/svg" xmlns:xlink="http://www.w3.org/1999/xlink">
<g id="graph0" class="graph" transform="scale(1 1) rotate(0) translate(4 78)">
<title>opp</title>
<polygon fill="transparent" stroke="transparent" points="-4,4 -4,-78 694.5,-78 694.5,4 -4,4"/>
<!-- ComplexConfiguratorNetwork -->
<g id="node1" class="node">
<title>ComplexConfiguratorNetwork</title>
<g id="a_node1"><a xlink:href="inet.examples.wireless.configurator.ComplexConfiguratorNetwork.html" xlink:title="Network ComplexConfiguratorNetwork" target="_parent">
<polygon fill="#9090ff" stroke="black" points="416,-74 254,-74 254,-55 416,-55 416,-74"/>
<text text-anchor="middle" x="335" y="-62" font-family="Helvetica,sans-Serif" font-size="10.00">ComplexConfiguratorNetwork</text>
</a>
</g>
</g>
<!-- IIntegratedVisualizer -->
<g id="node2" class="node">
<title>IIntegratedVisualizer</title>
<g id="a_node2"><a xlink:href="inet.visualizer.contract.IIntegratedVisualizer.html" xlink:title="Module Interface IIntegratedVisualizer" target="_parent">
<polygon fill="#fffcaf" stroke="black" stroke-dasharray="5,2" points="118,-19 0,-19 0,0 118,0 118,-19"/>
<text text-anchor="middle" x="59" y="-7" font-family="Helvetica,sans-Serif" font-size="10.00">IIntegratedVisualizer</text>
</a>
</g>
</g>
<!-- ComplexConfiguratorNetwork&#45;&gt;IIntegratedVisualizer -->
<g id="edge1" class="edge">
<title>ComplexConfiguratorNetwork&#45;&gt;IIntegratedVisualizer</title>
<path fill="none" stroke="black" d="M290.66,-54.98C242.51,-45.74 165.58,-30.97 113.71,-21.01"/>
<polygon fill="black" stroke="black" points="114.17,-17.53 103.69,-19.08 112.85,-24.41 114.17,-17.53"/>
</g>
<!-- Router -->
<g id="node3" class="node">
<title>Router</title>
<g id="a_node3"><a xlink:href="inet.node.inet.Router.html" xlink:title="Compound Module Router" target="_parent">
<polygon fill="#fffcaf" stroke="black" points="190,-19 136,-19 136,0 190,0 190,-19"/>
<text text-anchor="middle" x="163" y="-7" font-family="Helvetica,sans-Serif" font-size="10.00">Router</text>
</a>
</g>
</g>
<!-- ComplexConfiguratorNetwork&#45;&gt;Router -->
<g id="edge2" class="edge">
<title>ComplexConfiguratorNetwork&#45;&gt;Router</title>
<path fill="none" stroke="black" d="M307.37,-54.98C278.32,-46.03 232.45,-31.9 200.23,-21.97"/>
<polygon fill="black" stroke="black" points="200.87,-18.51 190.28,-18.91 198.81,-25.2 200.87,-18.51"/>
</g>
<!-- Ipv4NetworkConfigurator -->
<g id="node4" class="node">
<title>Ipv4NetworkConfigurator</title>
<g id="a_node4"><a xlink:href="inet.networklayer.configurator.ipv4.Ipv4NetworkConfigurator.html" xlink:title="Simple Module Ipv4NetworkConfigurator" target="_parent">
<polygon fill="#fffcaf" stroke="black" points="348,-19 208,-19 208,0 348,0 348,-19"/>
<text text-anchor="middle" x="278" y="-7" font-family="Helvetica,sans-Serif" font-size="10.00">Ipv4NetworkConfigurator</text>
</a>
</g>
</g>
<!-- ComplexConfiguratorNetwork&#45;&gt;Ipv4NetworkConfigurator -->
<g id="edge3" class="edge">
<title>ComplexConfiguratorNetwork&#45;&gt;Ipv4NetworkConfigurator</title>
<path fill="none" stroke="black" d="M325.84,-54.98C317.5,-47.23 304.97,-35.58 294.82,-26.14"/>
<polygon fill="black" stroke="black" points="297.03,-23.42 287.32,-19.17 292.26,-28.54 297.03,-23.42"/>
</g>
<!-- Eth1G -->
<g id="node5" class="node">
<title>Eth1G</title>
<g id="a_node5"><a xlink:href="inet.node.ethernet.Eth1G.html" xlink:title="Channel Eth1G" target="_parent">
<polygon fill="#d0ffd0" stroke="black" points="420,-19 366,-19 366,0 420,0 420,-19"/>
<text text-anchor="middle" x="393" y="-7" font-family="Helvetica,sans-Serif" font-size="10.00">Eth1G</text>
</a>
</g>
</g>
<!-- ComplexConfiguratorNetwork&#45;&gt;Eth1G -->
<g id="edge4" class="edge">
<title>ComplexConfiguratorNetwork&#45;&gt;Eth1G</title>
<path fill="none" stroke="black" d="M344.32,-54.98C352.81,-47.23 365.56,-35.58 375.88,-26.14"/>
<polygon fill="black" stroke="black" points="378.49,-28.5 383.51,-19.17 373.77,-23.33 378.49,-28.5"/>
</g>
<!-- AdhocHost -->
<g id="node6" class="node">
<title>AdhocHost</title>
<g id="a_node6"><a xlink:href="inet.node.inet.AdhocHost.html" xlink:title="Compound Module AdhocHost" target="_parent">
<polygon fill="#fffcaf" stroke="black" points="507.5,-19 438.5,-19 438.5,0 507.5,0 507.5,-19"/>
<text text-anchor="middle" x="473" y="-7" font-family="Helvetica,sans-Serif" font-size="10.00">AdhocHost</text>
</a>
</g>
</g>
<!-- ComplexConfiguratorNetwork&#45;&gt;AdhocHost -->
<g id="edge5" class="edge">
<title>ComplexConfiguratorNetwork&#45;&gt;AdhocHost</title>
<path fill="none" stroke="black" d="M357.17,-54.98C379.77,-46.3 415.06,-32.75 440.75,-22.88"/>
<polygon fill="black" stroke="black" points="442.34,-26.02 450.42,-19.17 439.83,-19.49 442.34,-26.02"/>
</g>
<!-- Ieee80211ScalarRadioMedium -->
<g id="node7" class="node">
<title>Ieee80211ScalarRadioMedium</title>
<g id="a_node7"><a xlink:href="inet.physicallayer.wireless.ieee80211.packetlevel.Ieee80211ScalarRadioMedium.html" xlink:title="Compound Module Ieee80211ScalarRadioMedium" target="_parent">
<polygon fill="#fffcaf" stroke="black" points="690.5,-19 525.5,-19 525.5,0 690.5,0 690.5,-19"/>
<text text-anchor="middle" x="608" y="-7" font-family="Helvetica,sans-Serif" font-size="10.00">Ieee80211ScalarRadioMedium</text>
</a>
</g>
</g>
<!-- ComplexConfiguratorNetwork&#45;&gt;Ieee80211ScalarRadioMedium -->
<g id="edge6" class="edge">
<title>ComplexConfiguratorNetwork&#45;&gt;Ieee80211ScalarRadioMedium</title>
<path fill="none" stroke="black" d="M378.86,-54.98C426.48,-45.74 502.58,-30.97 553.88,-21.01"/>
<polygon fill="black" stroke="black" points="554.64,-24.42 563.79,-19.08 553.31,-17.55 554.64,-24.42"/>
</g>
</g>
</svg>
