<?xml version="1.0" encoding="UTF-8" standalone="no"?>
<!DOCTYPE svg PUBLIC "-//W3C//DTD SVG 1.1//EN"
 "http://www.w3.org/Graphics/SVG/1.1/DTD/svg11.dtd">
<!-- Generated by graphviz version 2.43.0 (0)
 -->
<!-- Title: opp Pages: 1 -->
<svg width="674pt" height="137pt"
 viewBox="0.00 0.00 673.50 137.00" xmlns="http://www.w3.org/2000/svg" xmlns:xlink="http://www.w3.org/1999/xlink">
<g id="graph0" class="graph" transform="scale(1 1) rotate(0) translate(4 133)">
<title>opp</title>
<polygon fill="transparent" stroke="transparent" points="-4,4 -4,-133 669.5,-133 669.5,4 -4,4"/>
<!-- IPacketQueue -->
<g id="node1" class="node">
<title>IPacketQueue</title>
<g id="a_node1"><a xlink:href="inet.queueing.contract.IPacketQueue.html" xlink:title="Module Interface IPacketQueue" target="_parent">
<polygon fill="#fff700" stroke="black" stroke-dasharray="5,2" points="407,-74 324,-74 324,-55 407,-55 407,-74"/>
<text text-anchor="middle" x="365.5" y="-62" font-family="Helvetica,sans-Serif" font-size="10.00">IPacketQueue</text>
</a>
</g>
</g>
<!-- CompoundPacketQueueBase -->
<g id="node4" class="node">
<title>CompoundPacketQueueBase</title>
<g id="a_node4"><a xlink:href="inet.queueing.queue.CompoundPacketQueueBase.html" xlink:title="Compound Module CompoundPacketQueueBase" target="_parent">
<polygon fill="#fffcaf" stroke="black" points="157,-19 0,-19 0,0 157,0 157,-19"/>
<text text-anchor="middle" x="78.5" y="-7" font-family="Helvetica,sans-Serif" font-size="10.00">CompoundPacketQueueBase</text>
</a>
</g>
</g>
<!-- IPacketQueue&#45;&gt;CompoundPacketQueueBase -->
<g id="edge3" class="edge">
<title>IPacketQueue&#45;&gt;CompoundPacketQueueBase</title>
<path fill="none" stroke="black" stroke-dasharray="5,2" d="M323.77,-55.79C270.75,-46 179.56,-29.16 124.56,-19.01"/>
</g>
<!-- EthernetQosQueue -->
<g id="node5" class="node">
<title>EthernetQosQueue</title>
<g id="a_node5"><a xlink:href="inet.linklayer.ethernet.common.EthernetQosQueue.html" xlink:title="Compound Module EthernetQosQueue" target="_parent">
<polygon fill="#fffcaf" stroke="black" points="283.5,-19 175.5,-19 175.5,0 283.5,0 283.5,-19"/>
<text text-anchor="middle" x="229.5" y="-7" font-family="Helvetica,sans-Serif" font-size="10.00">EthernetQosQueue</text>
</a>
</g>
</g>
<!-- IPacketQueue&#45;&gt;EthernetQosQueue -->
<g id="edge4" class="edge">
<title>IPacketQueue&#45;&gt;EthernetQosQueue</title>
<path fill="none" stroke="black" stroke-dasharray="5,2" d="M343.65,-54.98C318.42,-45.15 277.14,-29.07 251.75,-19.17"/>
</g>
<!-- EthernetQosRedQueue -->
<g id="node6" class="node">
<title>EthernetQosRedQueue</title>
<g id="a_node6"><a xlink:href="inet.linklayer.ethernet.common.EthernetQosRedQueue.html" xlink:title="Compound Module EthernetQosRedQueue" target="_parent">
<polygon fill="#fffcaf" stroke="black" points="429,-19 302,-19 302,0 429,0 429,-19"/>
<text text-anchor="middle" x="365.5" y="-7" font-family="Helvetica,sans-Serif" font-size="10.00">EthernetQosRedQueue</text>
</a>
</g>
</g>
<!-- IPacketQueue&#45;&gt;EthernetQosRedQueue -->
<g id="edge5" class="edge">
<title>IPacketQueue&#45;&gt;EthernetQosRedQueue</title>
<path fill="none" stroke="black" stroke-dasharray="5,2" d="M365.5,-54.75C365.5,-44.87 365.5,-28.9 365.5,-19.09"/>
</g>
<!-- OmittedPacketQueue -->
<g id="node7" class="node">
<title>OmittedPacketQueue</title>
<g id="a_node7"><a xlink:href="inet.queueing.queue.OmittedPacketQueue.html" xlink:title="Compound Module OmittedPacketQueue" target="_parent">
<polygon fill="#fffcaf" stroke="black" points="567.5,-19 447.5,-19 447.5,0 567.5,0 567.5,-19"/>
<text text-anchor="middle" x="507.5" y="-7" font-family="Helvetica,sans-Serif" font-size="10.00">OmittedPacketQueue</text>
</a>
</g>
</g>
<!-- IPacketQueue&#45;&gt;OmittedPacketQueue -->
<g id="edge6" class="edge">
<title>IPacketQueue&#45;&gt;OmittedPacketQueue</title>
<path fill="none" stroke="black" stroke-dasharray="5,2" d="M388.31,-54.98C414.66,-45.15 457.75,-29.07 484.27,-19.17"/>
</g>
<!-- PacketQueue -->
<g id="node8" class="node">
<title>PacketQueue</title>
<g id="a_node8"><a xlink:href="inet.queueing.queue.PacketQueue.html" xlink:title="Simple Module PacketQueue" target="_parent">
<polygon fill="#fffcaf" stroke="black" points="665.5,-19 585.5,-19 585.5,0 665.5,0 665.5,-19"/>
<text text-anchor="middle" x="625.5" y="-7" font-family="Helvetica,sans-Serif" font-size="10.00">PacketQueue</text>
</a>
</g>
</g>
<!-- IPacketQueue&#45;&gt;PacketQueue -->
<g id="edge7" class="edge">
<title>IPacketQueue&#45;&gt;PacketQueue</title>
<path fill="none" stroke="black" stroke-dasharray="5,2" d="M407.27,-54.98C456.22,-45.01 536.77,-28.59 585.11,-18.73"/>
</g>
<!-- IPassivePacketSink -->
<g id="node2" class="node">
<title>IPassivePacketSink</title>
<g id="a_node2"><a xlink:href="inet.queueing.contract.IPassivePacketSink.html" xlink:title="Module Interface IPassivePacketSink" target="_parent">
<polygon fill="#fffcaf" stroke="black" stroke-dasharray="5,2" points="353.5,-129 243.5,-129 243.5,-110 353.5,-110 353.5,-129"/>
<text text-anchor="middle" x="298.5" y="-117" font-family="Helvetica,sans-Serif" font-size="10.00">IPassivePacketSink</text>
</a>
</g>
</g>
<!-- IPassivePacketSink&#45;&gt;IPacketQueue -->
<g id="edge1" class="edge">
<title>IPassivePacketSink&#45;&gt;IPacketQueue</title>
<path fill="none" stroke="black" d="M309.26,-109.98C321.69,-100.15 342.03,-84.07 354.54,-74.17"/>
</g>
<!-- IPassivePacketSource -->
<g id="node3" class="node">
<title>IPassivePacketSource</title>
<g id="a_node3"><a xlink:href="inet.queueing.contract.IPassivePacketSource.html" xlink:title="Module Interface IPassivePacketSource" target="_parent">
<polygon fill="#fffcaf" stroke="black" stroke-dasharray="5,2" points="493.5,-129 371.5,-129 371.5,-110 493.5,-110 493.5,-129"/>
<text text-anchor="middle" x="432.5" y="-117" font-family="Helvetica,sans-Serif" font-size="10.00">IPassivePacketSource</text>
</a>
</g>
</g>
<!-- IPassivePacketSource&#45;&gt;IPacketQueue -->
<g id="edge2" class="edge">
<title>IPassivePacketSource&#45;&gt;IPacketQueue</title>
<path fill="none" stroke="black" d="M421.74,-109.98C409.31,-100.15 388.97,-84.07 376.46,-74.17"/>
</g>
</g>
</svg>
