<?xml version="1.0" encoding="UTF-8" standalone="no"?>
<!DOCTYPE svg PUBLIC "-//W3C//DTD SVG 1.1//EN"
 "http://www.w3.org/Graphics/SVG/1.1/DTD/svg11.dtd">
<!-- Generated by graphviz version 2.43.0 (0)
 -->
<!-- Title: opp Pages: 1 -->
<svg width="304pt" height="82pt"
 viewBox="0.00 0.00 303.50 82.00" xmlns="http://www.w3.org/2000/svg" xmlns:xlink="http://www.w3.org/1999/xlink">
<g id="graph0" class="graph" transform="scale(1 1) rotate(0) translate(4 78)">
<title>opp</title>
<polygon fill="transparent" stroke="transparent" points="-4,4 -4,-78 299.5,-78 299.5,4 -4,4"/>
<!-- Ieee8021qTagTpidHeaderInserter -->
<g id="node1" class="node">
<title>Ieee8021qTagTpidHeaderInserter</title>
<g id="a_node1"><a xlink:href="inet.linklayer.ieee8021q.Ieee8021qTagTpidHeaderInserter.html" xlink:title="Simple Module Ieee8021qTagTpidHeaderInserter" target="_parent">
<polygon fill="#fff700" stroke="black" points="215,-19 37,-19 37,0 215,0 215,-19"/>
<text text-anchor="middle" x="126" y="-7" font-family="Helvetica,sans-Serif" font-size="10.00">Ieee8021qTagTpidHeaderInserter</text>
</a>
</g>
</g>
<!-- PacketFlowBase -->
<g id="node2" class="node">
<title>PacketFlowBase</title>
<g id="a_node2"><a xlink:href="inet.queueing.base.PacketFlowBase.html" xlink:title="Simple Module PacketFlowBase" target="_parent">
<polygon fill="#fffcaf" stroke="black" points="96,-74 0,-74 0,-55 96,-55 96,-74"/>
<text text-anchor="middle" x="48" y="-62" font-family="Helvetica,sans-Serif" font-size="10.00">PacketFlowBase</text>
</a>
</g>
</g>
<!-- PacketFlowBase&#45;&gt;Ieee8021qTagTpidHeaderInserter -->
<g id="edge1" class="edge">
<title>PacketFlowBase&#45;&gt;Ieee8021qTagTpidHeaderInserter</title>
<path fill="none" stroke="black" d="M60.53,-54.98C75,-45.15 98.67,-29.07 113.24,-19.17"/>
</g>
<!-- IIeee8021qTagTpidHeaderInserter -->
<g id="node3" class="node">
<title>IIeee8021qTagTpidHeaderInserter</title>
<g id="a_node3"><a xlink:href="inet.linklayer.ieee8021q.IIeee8021qTagTpidHeaderInserter.html" xlink:title="Module Interface IIeee8021qTagTpidHeaderInserter" target="_parent">
<polygon fill="#fffcaf" stroke="black" stroke-dasharray="5,2" points="295.5,-74 114.5,-74 114.5,-55 295.5,-55 295.5,-74"/>
<text text-anchor="middle" x="205" y="-62" font-family="Helvetica,sans-Serif" font-size="10.00">IIeee8021qTagTpidHeaderInserter</text>
</a>
</g>
</g>
<!-- IIeee8021qTagTpidHeaderInserter&#45;&gt;Ieee8021qTagTpidHeaderInserter -->
<g id="edge2" class="edge">
<title>IIeee8021qTagTpidHeaderInserter&#45;&gt;Ieee8021qTagTpidHeaderInserter</title>
<path fill="none" stroke="black" stroke-dasharray="5,2" d="M192.31,-54.98C177.65,-45.15 153.68,-29.07 138.92,-19.17"/>
</g>
</g>
</svg>
