<?xml version="1.0" encoding="UTF-8" standalone="no"?>
<!DOCTYPE svg PUBLIC "-//W3C//DTD SVG 1.1//EN"
 "http://www.w3.org/Graphics/SVG/1.1/DTD/svg11.dtd">
<!-- Generated by graphviz version 2.43.0 (0)
 -->
<!-- Title: opp Pages: 1 -->
<svg width="484pt" height="82pt"
 viewBox="0.00 0.00 484.00 82.00" xmlns="http://www.w3.org/2000/svg" xmlns:xlink="http://www.w3.org/1999/xlink">
<g id="graph0" class="graph" transform="scale(1 1) rotate(0) translate(4 78)">
<title>opp</title>
<polygon fill="transparent" stroke="transparent" points="-4,4 -4,-78 480,-78 480,4 -4,4"/>
<!-- OrdinalBasedDropperTutorialStep -->
<g id="node1" class="node">
<title>OrdinalBasedDropperTutorialStep</title>
<g id="a_node1"><a xlink:href="inet.tutorials.queueing.OrdinalBasedDropperTutorialStep.html" xlink:title="Network OrdinalBasedDropperTutorialStep" target="_parent">
<polygon fill="#9090ff" stroke="black" points="320,-74 141,-74 141,-55 320,-55 320,-74"/>
<text text-anchor="middle" x="230.5" y="-62" font-family="Helvetica,sans-Serif" font-size="10.00">OrdinalBasedDropperTutorialStep</text>
</a>
</g>
</g>
<!-- ActivePacketSource -->
<g id="node2" class="node">
<title>ActivePacketSource</title>
<g id="a_node2"><a xlink:href="inet.queueing.source.ActivePacketSource.html" xlink:title="Simple Module ActivePacketSource" target="_parent">
<polygon fill="#fffcaf" stroke="black" points="113,-19 0,-19 0,0 113,0 113,-19"/>
<text text-anchor="middle" x="56.5" y="-7" font-family="Helvetica,sans-Serif" font-size="10.00">ActivePacketSource</text>
</a>
</g>
</g>
<!-- OrdinalBasedDropperTutorialStep&#45;&gt;ActivePacketSource -->
<g id="edge1" class="edge">
<title>OrdinalBasedDropperTutorialStep&#45;&gt;ActivePacketSource</title>
<path fill="none" stroke="black" d="M202.54,-54.98C173.2,-46.05 126.9,-31.94 94.31,-22.02"/>
<polygon fill="black" stroke="black" points="95.26,-18.65 84.68,-19.08 93.22,-25.34 95.26,-18.65"/>
</g>
<!-- IdealChannel -->
<g id="node3" class="node">
<title>IdealChannel</title>
<g id="a_node3"><a xlink:href="ned.IdealChannel.html" xlink:title="Channel IdealChannel" target="_parent">
<polygon fill="#d0ffd0" stroke="black" points="211.5,-19 131.5,-19 131.5,0 211.5,0 211.5,-19"/>
<text text-anchor="middle" x="171.5" y="-7" font-family="Helvetica,sans-Serif" font-size="10.00">IdealChannel</text>
</a>
</g>
</g>
<!-- OrdinalBasedDropperTutorialStep&#45;&gt;IdealChannel -->
<g id="edge2" class="edge">
<title>OrdinalBasedDropperTutorialStep&#45;&gt;IdealChannel</title>
<path fill="none" stroke="black" d="M221.02,-54.98C212.3,-47.15 199.16,-35.34 188.6,-25.86"/>
<polygon fill="black" stroke="black" points="190.93,-23.25 181.15,-19.17 186.25,-28.46 190.93,-23.25"/>
</g>
<!-- OrdinalBasedDropper -->
<g id="node4" class="node">
<title>OrdinalBasedDropper</title>
<g id="a_node4"><a xlink:href="inet.queueing.filter.OrdinalBasedDropper.html" xlink:title="Simple Module OrdinalBasedDropper" target="_parent">
<polygon fill="#fffcaf" stroke="black" points="351,-19 230,-19 230,0 351,0 351,-19"/>
<text text-anchor="middle" x="290.5" y="-7" font-family="Helvetica,sans-Serif" font-size="10.00">OrdinalBasedDropper</text>
</a>
</g>
</g>
<!-- OrdinalBasedDropperTutorialStep&#45;&gt;OrdinalBasedDropper -->
<g id="edge3" class="edge">
<title>OrdinalBasedDropperTutorialStep&#45;&gt;OrdinalBasedDropper</title>
<path fill="none" stroke="black" d="M240.14,-54.98C249.01,-47.15 262.37,-35.34 273.11,-25.86"/>
<polygon fill="black" stroke="black" points="275.51,-28.41 280.68,-19.17 270.87,-23.17 275.51,-28.41"/>
</g>
<!-- PassivePacketSink -->
<g id="node5" class="node">
<title>PassivePacketSink</title>
<g id="a_node5"><a xlink:href="inet.queueing.sink.PassivePacketSink.html" xlink:title="Simple Module PassivePacketSink" target="_parent">
<polygon fill="#fffcaf" stroke="black" points="476,-19 369,-19 369,0 476,0 476,-19"/>
<text text-anchor="middle" x="422.5" y="-7" font-family="Helvetica,sans-Serif" font-size="10.00">PassivePacketSink</text>
</a>
</g>
</g>
<!-- OrdinalBasedDropperTutorialStep&#45;&gt;PassivePacketSink -->
<g id="edge4" class="edge">
<title>OrdinalBasedDropperTutorialStep&#45;&gt;PassivePacketSink</title>
<path fill="none" stroke="black" d="M261.35,-54.98C294,-45.97 345.7,-31.7 381.7,-21.76"/>
<polygon fill="black" stroke="black" points="382.7,-25.12 391.41,-19.08 380.84,-18.37 382.7,-25.12"/>
</g>
</g>
</svg>
