<?xml version="1.0" encoding="UTF-8" standalone="no"?>
<!DOCTYPE svg PUBLIC "-//W3C//DTD SVG 1.1//EN"
 "http://www.w3.org/Graphics/SVG/1.1/DTD/svg11.dtd">
<!-- Generated by graphviz version 2.43.0 (0)
 -->
<!-- Title: opp Pages: 1 -->
<svg width="442pt" height="82pt"
 viewBox="0.00 0.00 442.00 82.00" xmlns="http://www.w3.org/2000/svg" xmlns:xlink="http://www.w3.org/1999/xlink">
<g id="graph0" class="graph" transform="scale(1 1) rotate(0) translate(4 78)">
<title>opp</title>
<polygon fill="transparent" stroke="transparent" points="-4,4 -4,-78 438,-78 438,4 -4,4"/>
<!-- RSVPTE4 -->
<g id="node1" class="node">
<title>RSVPTE4</title>
<g id="a_node1"><a xlink:href="inet.examples.mpls.testte_reroute.RSVPTE4.html" xlink:title="Network RSVPTE4" target="_parent">
<polygon fill="#9090ff" stroke="black" points="244.5,-74 184.5,-74 184.5,-55 244.5,-55 244.5,-74"/>
<text text-anchor="middle" x="214.5" y="-62" font-family="Helvetica,sans-Serif" font-size="10.00">RSVPTE4</text>
</a>
</g>
</g>
<!-- ScenarioManager -->
<g id="node2" class="node">
<title>ScenarioManager</title>
<g id="a_node2"><a xlink:href="inet.common.scenario.ScenarioManager.html" xlink:title="Simple Module ScenarioManager" target="_parent">
<polygon fill="#fffcaf" stroke="black" points="101,-19 0,-19 0,0 101,0 101,-19"/>
<text text-anchor="middle" x="50.5" y="-7" font-family="Helvetica,sans-Serif" font-size="10.00">ScenarioManager</text>
</a>
</g>
</g>
<!-- RSVPTE4&#45;&gt;ScenarioManager -->
<g id="edge1" class="edge">
<title>RSVPTE4&#45;&gt;ScenarioManager</title>
<path fill="none" stroke="black" d="M188.15,-54.98C160.74,-46.13 117.61,-32.19 86.94,-22.28"/>
<polygon fill="black" stroke="black" points="87.65,-18.83 77.06,-19.08 85.5,-25.49 87.65,-18.83"/>
</g>
<!-- StandardHost -->
<g id="node3" class="node">
<title>StandardHost</title>
<g id="a_node3"><a xlink:href="inet.node.inet.StandardHost.html" xlink:title="Compound Module StandardHost" target="_parent">
<polygon fill="#fffcaf" stroke="black" points="202,-19 119,-19 119,0 202,0 202,-19"/>
<text text-anchor="middle" x="160.5" y="-7" font-family="Helvetica,sans-Serif" font-size="10.00">StandardHost</text>
</a>
</g>
</g>
<!-- RSVPTE4&#45;&gt;StandardHost -->
<g id="edge2" class="edge">
<title>RSVPTE4&#45;&gt;StandardHost</title>
<path fill="none" stroke="black" d="M205.58,-54.75C197.72,-47.03 186.07,-35.6 176.58,-26.28"/>
<polygon fill="black" stroke="black" points="178.84,-23.6 169.25,-19.09 173.94,-28.59 178.84,-23.6"/>
</g>
<!-- RsvpMplsRouter -->
<g id="node4" class="node">
<title>RsvpMplsRouter</title>
<g id="a_node4"><a xlink:href="inet.node.mpls.RsvpMplsRouter.html" xlink:title="Compound Module RsvpMplsRouter" target="_parent">
<polygon fill="#fffcaf" stroke="black" points="316.5,-19 220.5,-19 220.5,0 316.5,0 316.5,-19"/>
<text text-anchor="middle" x="268.5" y="-7" font-family="Helvetica,sans-Serif" font-size="10.00">RsvpMplsRouter</text>
</a>
</g>
</g>
<!-- RSVPTE4&#45;&gt;RsvpMplsRouter -->
<g id="edge3" class="edge">
<title>RSVPTE4&#45;&gt;RsvpMplsRouter</title>
<path fill="none" stroke="black" d="M223.42,-54.75C231.28,-47.03 242.93,-35.6 252.42,-26.28"/>
<polygon fill="black" stroke="black" points="255.06,-28.59 259.75,-19.09 250.16,-23.6 255.06,-28.59"/>
</g>
<!-- DatarateChannel -->
<g id="node5" class="node">
<title>DatarateChannel</title>
<g id="a_node5"><a xlink:href="ned.DatarateChannel.html" xlink:title="Channel DatarateChannel" target="_parent">
<polygon fill="#d0ffd0" stroke="black" points="434,-19 335,-19 335,0 434,0 434,-19"/>
<text text-anchor="middle" x="384.5" y="-7" font-family="Helvetica,sans-Serif" font-size="10.00">DatarateChannel</text>
</a>
</g>
</g>
<!-- RSVPTE4&#45;&gt;DatarateChannel -->
<g id="edge4" class="edge">
<title>RSVPTE4&#45;&gt;DatarateChannel</title>
<path fill="none" stroke="black" d="M241.81,-54.98C270.35,-46.09 315.33,-32.07 347.14,-22.15"/>
<polygon fill="black" stroke="black" points="348.47,-25.4 356.97,-19.08 346.38,-18.72 348.47,-25.4"/>
</g>
</g>
</svg>
