<?xml version="1.0" encoding="UTF-8" standalone="no"?>
<!DOCTYPE svg PUBLIC "-//W3C//DTD SVG 1.1//EN"
 "http://www.w3.org/Graphics/SVG/1.1/DTD/svg11.dtd">
<!-- Generated by graphviz version 2.43.0 (0)
 -->
<!-- Title: opp Pages: 1 -->
<svg width="415pt" height="82pt"
 viewBox="0.00 0.00 414.50 82.00" xmlns="http://www.w3.org/2000/svg" xmlns:xlink="http://www.w3.org/1999/xlink">
<g id="graph0" class="graph" transform="scale(1 1) rotate(0) translate(4 78)">
<title>opp</title>
<polygon fill="transparent" stroke="transparent" points="-4,4 -4,-78 410.5,-78 410.5,4 -4,4"/>
<!-- Throughput -->
<g id="node1" class="node">
<title>Throughput</title>
<g id="a_node1"><a xlink:href="inet.examples.wireless.testnewmac.Throughput.html" xlink:title="Network Throughput" target="_parent">
<polygon fill="#9090ff" stroke="black" points="237.5,-74 165.5,-74 165.5,-55 237.5,-55 237.5,-74"/>
<text text-anchor="middle" x="201.5" y="-62" font-family="Helvetica,sans-Serif" font-size="10.00">Throughput</text>
</a>
</g>
</g>
<!-- ThroughputClient -->
<g id="node2" class="node">
<title>ThroughputClient</title>
<g id="a_node2"><a xlink:href="inet.examples.wireless.testnewmac.ThroughputClient.html" xlink:title="Compound Module ThroughputClient" target="_parent">
<polygon fill="#fffcaf" stroke="black" points="101,-19 0,-19 0,0 101,0 101,-19"/>
<text text-anchor="middle" x="50.5" y="-7" font-family="Helvetica,sans-Serif" font-size="10.00">ThroughputClient</text>
</a>
</g>
</g>
<!-- Throughput&#45;&gt;ThroughputClient -->
<g id="edge1" class="edge">
<title>Throughput&#45;&gt;ThroughputClient</title>
<path fill="none" stroke="black" d="M177.24,-54.98C152.18,-46.19 112.87,-32.39 84.67,-22.49"/>
<polygon fill="black" stroke="black" points="85.8,-19.18 75.2,-19.17 83.48,-25.78 85.8,-19.18"/>
</g>
<!-- Ieee80211ScalarRadioMedium -->
<g id="node3" class="node">
<title>Ieee80211ScalarRadioMedium</title>
<g id="a_node3"><a xlink:href="inet.physicallayer.wireless.ieee80211.packetlevel.Ieee80211ScalarRadioMedium.html" xlink:title="Compound Module Ieee80211ScalarRadioMedium" target="_parent">
<polygon fill="#fffcaf" stroke="black" points="284,-19 119,-19 119,0 284,0 284,-19"/>
<text text-anchor="middle" x="201.5" y="-7" font-family="Helvetica,sans-Serif" font-size="10.00">Ieee80211ScalarRadioMedium</text>
</a>
</g>
</g>
<!-- Throughput&#45;&gt;Ieee80211ScalarRadioMedium -->
<g id="edge2" class="edge">
<title>Throughput&#45;&gt;Ieee80211ScalarRadioMedium</title>
<path fill="none" stroke="black" d="M201.5,-54.75C201.5,-47.8 201.5,-37.85 201.5,-29.13"/>
<polygon fill="black" stroke="black" points="205,-29.09 201.5,-19.09 198,-29.09 205,-29.09"/>
</g>
<!-- ThroughputServer -->
<g id="node4" class="node">
<title>ThroughputServer</title>
<g id="a_node4"><a xlink:href="inet.examples.wireless.testnewmac.ThroughputServer.html" xlink:title="Compound Module ThroughputServer" target="_parent">
<polygon fill="#fffcaf" stroke="black" points="406.5,-19 302.5,-19 302.5,0 406.5,0 406.5,-19"/>
<text text-anchor="middle" x="354.5" y="-7" font-family="Helvetica,sans-Serif" font-size="10.00">ThroughputServer</text>
</a>
</g>
</g>
<!-- Throughput&#45;&gt;ThroughputServer -->
<g id="edge3" class="edge">
<title>Throughput&#45;&gt;ThroughputServer</title>
<path fill="none" stroke="black" d="M226.08,-54.98C251.55,-46.16 291.54,-32.31 320.13,-22.41"/>
<polygon fill="black" stroke="black" points="321.42,-25.66 329.73,-19.08 319.13,-19.05 321.42,-25.66"/>
</g>
</g>
</svg>
