<?xml version="1.0" encoding="UTF-8" standalone="no"?>
<!DOCTYPE svg PUBLIC "-//W3C//DTD SVG 1.1//EN"
 "http://www.w3.org/Graphics/SVG/1.1/DTD/svg11.dtd">
<!-- Generated by graphviz version 2.43.0 (0)
 -->
<!-- Title: opp Pages: 1 -->
<svg width="589pt" height="82pt"
 viewBox="0.00 0.00 588.50 82.00" xmlns="http://www.w3.org/2000/svg" xmlns:xlink="http://www.w3.org/1999/xlink">
<g id="graph0" class="graph" transform="scale(1 1) rotate(0) translate(4 78)">
<title>opp</title>
<polygon fill="transparent" stroke="transparent" points="-4,4 -4,-78 584.5,-78 584.5,4 -4,4"/>
<!-- AnalogModelShowcaseDistanceNetwork_ -->
<g id="node1" class="node">
<title>AnalogModelShowcaseDistanceNetwork_</title>
<g id="a_node1"><a xlink:href="inet.showcases.wireless.analogmodel.AnalogModelShowcaseDistanceNetwork_.html" xlink:title="Network AnalogModelShowcaseDistanceNetwork_" target="_parent">
<polygon fill="#9090ff" stroke="black" points="425,-74 207,-74 207,-55 425,-55 425,-74"/>
<text text-anchor="middle" x="316" y="-62" font-family="Helvetica,sans-Serif" font-size="10.00">AnalogModelShowcaseDistanceNetwork_</text>
</a>
</g>
</g>
<!-- IntegratedMultiVisualizer -->
<g id="node2" class="node">
<title>IntegratedMultiVisualizer</title>
<g id="a_node2"><a xlink:href="inet.visualizer.common.IntegratedMultiVisualizer.html" xlink:title="Compound Module IntegratedMultiVisualizer" target="_parent">
<polygon fill="#fffcaf" stroke="black" points="140,-19 0,-19 0,0 140,0 140,-19"/>
<text text-anchor="middle" x="70" y="-7" font-family="Helvetica,sans-Serif" font-size="10.00">IntegratedMultiVisualizer</text>
</a>
</g>
</g>
<!-- AnalogModelShowcaseDistanceNetwork_&#45;&gt;IntegratedMultiVisualizer -->
<g id="edge1" class="edge">
<title>AnalogModelShowcaseDistanceNetwork_&#45;&gt;IntegratedMultiVisualizer</title>
<path fill="none" stroke="black" d="M276.48,-54.98C233.83,-45.8 165.85,-31.15 119.64,-21.19"/>
<polygon fill="black" stroke="black" points="120.35,-17.77 109.83,-19.08 118.87,-24.61 120.35,-17.77"/>
</g>
<!-- Ipv4NetworkConfigurator -->
<g id="node3" class="node">
<title>Ipv4NetworkConfigurator</title>
<g id="a_node3"><a xlink:href="inet.networklayer.configurator.ipv4.Ipv4NetworkConfigurator.html" xlink:title="Simple Module Ipv4NetworkConfigurator" target="_parent">
<polygon fill="#fffcaf" stroke="black" points="298,-19 158,-19 158,0 298,0 298,-19"/>
<text text-anchor="middle" x="228" y="-7" font-family="Helvetica,sans-Serif" font-size="10.00">Ipv4NetworkConfigurator</text>
</a>
</g>
</g>
<!-- AnalogModelShowcaseDistanceNetwork_&#45;&gt;Ipv4NetworkConfigurator -->
<g id="edge2" class="edge">
<title>AnalogModelShowcaseDistanceNetwork_&#45;&gt;Ipv4NetworkConfigurator</title>
<path fill="none" stroke="black" d="M301.86,-54.98C288.21,-46.77 267.31,-34.18 251.22,-24.49"/>
<polygon fill="black" stroke="black" points="252.77,-21.33 242.4,-19.17 249.16,-27.33 252.77,-21.33"/>
</g>
<!-- ApskLayeredScalarRadioMedium -->
<g id="node4" class="node">
<title>ApskLayeredScalarRadioMedium</title>
<g id="a_node4"><a xlink:href="inet.physicallayer.wireless.apsk.bitlevel.ApskLayeredScalarRadioMedium.html" xlink:title="Compound Module ApskLayeredScalarRadioMedium" target="_parent">
<polygon fill="#fffcaf" stroke="black" points="493.5,-19 316.5,-19 316.5,0 493.5,0 493.5,-19"/>
<text text-anchor="middle" x="405" y="-7" font-family="Helvetica,sans-Serif" font-size="10.00">ApskLayeredScalarRadioMedium</text>
</a>
</g>
</g>
<!-- AnalogModelShowcaseDistanceNetwork_&#45;&gt;ApskLayeredScalarRadioMedium -->
<g id="edge3" class="edge">
<title>AnalogModelShowcaseDistanceNetwork_&#45;&gt;ApskLayeredScalarRadioMedium</title>
<path fill="none" stroke="black" d="M330.3,-54.98C344.1,-46.77 365.24,-34.18 381.51,-24.49"/>
<polygon fill="black" stroke="black" points="383.64,-27.29 390.44,-19.17 380.06,-21.28 383.64,-27.29"/>
</g>
<!-- AdhocHost -->
<g id="node5" class="node">
<title>AdhocHost</title>
<g id="a_node5"><a xlink:href="inet.node.inet.AdhocHost.html" xlink:title="Compound Module AdhocHost" target="_parent">
<polygon fill="#fffcaf" stroke="black" points="580.5,-19 511.5,-19 511.5,0 580.5,0 580.5,-19"/>
<text text-anchor="middle" x="546" y="-7" font-family="Helvetica,sans-Serif" font-size="10.00">AdhocHost</text>
</a>
</g>
</g>
<!-- AnalogModelShowcaseDistanceNetwork_&#45;&gt;AdhocHost -->
<g id="edge4" class="edge">
<title>AnalogModelShowcaseDistanceNetwork_&#45;&gt;AdhocHost</title>
<path fill="none" stroke="black" d="M352.95,-54.98C393.39,-45.67 458.21,-30.73 501.44,-20.77"/>
<polygon fill="black" stroke="black" points="502.44,-24.13 511.4,-18.47 500.86,-17.31 502.44,-24.13"/>
</g>
</g>
</svg>
