<?xml version="1.0" encoding="UTF-8" standalone="no"?>
<!DOCTYPE svg PUBLIC "-//W3C//DTD SVG 1.1//EN"
 "http://www.w3.org/Graphics/SVG/1.1/DTD/svg11.dtd">
<!-- Generated by graphviz version 2.43.0 (0)
 -->
<!-- Title: opp Pages: 1 -->
<svg width="200pt" height="82pt"
 viewBox="0.00 0.00 199.50 82.00" xmlns="http://www.w3.org/2000/svg" xmlns:xlink="http://www.w3.org/1999/xlink">
<g id="graph0" class="graph" transform="scale(1 1) rotate(0) translate(4 78)">
<title>opp</title>
<polygon fill="transparent" stroke="transparent" points="-4,4 -4,-78 195.5,-78 195.5,4 -4,4"/>
<!-- MobileNetworkWithScenario -->
<g id="node1" class="node">
<title>MobileNetworkWithScenario</title>
<g id="a_node1"><a xlink:href="inet.examples.mobility.MobileNetworkWithScenario.html" xlink:title="Network MobileNetworkWithScenario" target="_parent">
<polygon fill="#9090ff" stroke="black" points="180,-74 25,-74 25,-55 180,-55 180,-74"/>
<text text-anchor="middle" x="102.5" y="-62" font-family="Helvetica,sans-Serif" font-size="10.00">MobileNetworkWithScenario</text>
</a>
</g>
</g>
<!-- ScenarioManager -->
<g id="node2" class="node">
<title>ScenarioManager</title>
<g id="a_node2"><a xlink:href="inet.common.scenario.ScenarioManager.html" xlink:title="Simple Module ScenarioManager" target="_parent">
<polygon fill="#fffcaf" stroke="black" points="101,-19 0,-19 0,0 101,0 101,-19"/>
<text text-anchor="middle" x="50.5" y="-7" font-family="Helvetica,sans-Serif" font-size="10.00">ScenarioManager</text>
</a>
</g>
</g>
<!-- MobileNetworkWithScenario&#45;&gt;ScenarioManager -->
<g id="edge1" class="edge">
<title>MobileNetworkWithScenario&#45;&gt;ScenarioManager</title>
<path fill="none" stroke="black" d="M93.91,-54.75C86.34,-47.03 75.12,-35.6 65.99,-26.28"/>
<polygon fill="black" stroke="black" points="68.43,-23.78 58.93,-19.09 63.43,-28.68 68.43,-23.78"/>
</g>
<!-- MobileHost -->
<g id="node3" class="node">
<title>MobileHost</title>
<g id="a_node3"><a xlink:href="inet.examples.mobility.MobileHost.html" xlink:title="Compound Module MobileHost" target="_parent">
<polygon fill="#fffcaf" stroke="black" points="191.5,-19 119.5,-19 119.5,0 191.5,0 191.5,-19"/>
<text text-anchor="middle" x="155.5" y="-7" font-family="Helvetica,sans-Serif" font-size="10.00">MobileHost</text>
</a>
</g>
</g>
<!-- MobileNetworkWithScenario&#45;&gt;MobileHost -->
<g id="edge2" class="edge">
<title>MobileNetworkWithScenario&#45;&gt;MobileHost</title>
<path fill="none" stroke="black" d="M111.25,-54.75C118.97,-47.03 130.4,-35.6 139.72,-26.28"/>
<polygon fill="black" stroke="black" points="142.31,-28.64 146.91,-19.09 137.36,-23.69 142.31,-28.64"/>
</g>
</g>
</svg>
