<?xml version="1.0" encoding="UTF-8" standalone="no"?>
<!DOCTYPE svg PUBLIC "-//W3C//DTD SVG 1.1//EN"
 "http://www.w3.org/Graphics/SVG/1.1/DTD/svg11.dtd">
<!-- Generated by graphviz version 2.43.0 (0)
 -->
<!-- Title: opp Pages: 1 -->
<svg width="884pt" height="137pt"
 viewBox="0.00 0.00 883.50 137.00" xmlns="http://www.w3.org/2000/svg" xmlns:xlink="http://www.w3.org/1999/xlink">
<g id="graph0" class="graph" transform="scale(1 1) rotate(0) translate(4 133)">
<title>opp</title>
<polygon fill="transparent" stroke="transparent" points="-4,4 -4,-133 879.5,-133 879.5,4 -4,4"/>
<!-- RadioMedium -->
<g id="node1" class="node">
<title>RadioMedium</title>
<g id="a_node1"><a xlink:href="inet.physicallayer.wireless.common.medium.RadioMedium.html" xlink:title="Compound Module RadioMedium" target="_parent">
<polygon fill="#fff700" stroke="black" points="442.5,-74 358.5,-74 358.5,-55 442.5,-55 442.5,-74"/>
<text text-anchor="middle" x="400.5" y="-62" font-family="Helvetica,sans-Serif" font-size="10.00">RadioMedium</text>
</a>
</g>
</g>
<!-- IAnalogModel -->
<g id="node2" class="node">
<title>IAnalogModel</title>
<g id="a_node2"><a xlink:href="inet.physicallayer.wireless.common.contract.packetlevel.IAnalogModel.html" xlink:title="Module Interface IAnalogModel" target="_parent">
<polygon fill="#fffcaf" stroke="black" stroke-dasharray="5,2" points="83,-19 0,-19 0,0 83,0 83,-19"/>
<text text-anchor="middle" x="41.5" y="-7" font-family="Helvetica,sans-Serif" font-size="10.00">IAnalogModel</text>
</a>
</g>
</g>
<!-- RadioMedium&#45;&gt;IAnalogModel -->
<g id="edge1" class="edge">
<title>RadioMedium&#45;&gt;IAnalogModel</title>
<path fill="none" stroke="black" d="M358.47,-57.79C300.88,-49.89 193.98,-34.96 93.27,-19.25"/>
<polygon fill="black" stroke="black" points="93.65,-15.76 83.23,-17.68 92.57,-22.68 93.65,-15.76"/>
</g>
<!-- IBackgroundNoise -->
<g id="node3" class="node">
<title>IBackgroundNoise</title>
<g id="a_node3"><a xlink:href="inet.physicallayer.wireless.common.contract.packetlevel.IBackgroundNoise.html" xlink:title="Module Interface IBackgroundNoise" target="_parent">
<polygon fill="#fffcaf" stroke="black" stroke-dasharray="5,2" points="206,-19 101,-19 101,0 206,0 206,-19"/>
<text text-anchor="middle" x="153.5" y="-7" font-family="Helvetica,sans-Serif" font-size="10.00">IBackgroundNoise</text>
</a>
</g>
</g>
<!-- RadioMedium&#45;&gt;IBackgroundNoise -->
<g id="edge2" class="edge">
<title>RadioMedium&#45;&gt;IBackgroundNoise</title>
<path fill="none" stroke="black" d="M360.82,-54.98C318,-45.8 249.74,-31.15 203.34,-21.19"/>
<polygon fill="black" stroke="black" points="204.01,-17.76 193.5,-19.08 202.54,-24.6 204.01,-17.76"/>
</g>
<!-- IPathLoss -->
<g id="node4" class="node">
<title>IPathLoss</title>
<g id="a_node4"><a xlink:href="inet.physicallayer.wireless.common.contract.packetlevel.IPathLoss.html" xlink:title="Module Interface IPathLoss" target="_parent">
<polygon fill="#fffcaf" stroke="black" stroke-dasharray="5,2" points="287,-19 224,-19 224,0 287,0 287,-19"/>
<text text-anchor="middle" x="255.5" y="-7" font-family="Helvetica,sans-Serif" font-size="10.00">IPathLoss</text>
</a>
</g>
</g>
<!-- RadioMedium&#45;&gt;IPathLoss -->
<g id="edge3" class="edge">
<title>RadioMedium&#45;&gt;IPathLoss</title>
<path fill="none" stroke="black" d="M377.2,-54.98C353.25,-46.23 315.72,-32.51 288.67,-22.62"/>
<polygon fill="black" stroke="black" points="289.81,-19.32 279.22,-19.17 287.41,-25.89 289.81,-19.32"/>
</g>
<!-- IObstacleLoss -->
<g id="node5" class="node">
<title>IObstacleLoss</title>
<g id="a_node5"><a xlink:href="inet.physicallayer.wireless.common.contract.packetlevel.IObstacleLoss.html" xlink:title="Module Interface IObstacleLoss" target="_parent">
<polygon fill="#fffcaf" stroke="black" stroke-dasharray="5,2" points="389.5,-19 305.5,-19 305.5,0 389.5,0 389.5,-19"/>
<text text-anchor="middle" x="347.5" y="-7" font-family="Helvetica,sans-Serif" font-size="10.00">IObstacleLoss</text>
</a>
</g>
</g>
<!-- RadioMedium&#45;&gt;IObstacleLoss -->
<g id="edge4" class="edge">
<title>RadioMedium&#45;&gt;IObstacleLoss</title>
<path fill="none" stroke="black" d="M391.75,-54.75C384.03,-47.03 372.6,-35.6 363.28,-26.28"/>
<polygon fill="black" stroke="black" points="365.64,-23.69 356.09,-19.09 360.69,-28.64 365.64,-23.69"/>
</g>
<!-- INeighborCache -->
<g id="node6" class="node">
<title>INeighborCache</title>
<g id="a_node6"><a xlink:href="inet.physicallayer.wireless.common.contract.packetlevel.INeighborCache.html" xlink:title="Module Interface INeighborCache" target="_parent">
<polygon fill="#fffcaf" stroke="black" stroke-dasharray="5,2" points="501.5,-19 407.5,-19 407.5,0 501.5,0 501.5,-19"/>
<text text-anchor="middle" x="454.5" y="-7" font-family="Helvetica,sans-Serif" font-size="10.00">INeighborCache</text>
</a>
</g>
</g>
<!-- RadioMedium&#45;&gt;INeighborCache -->
<g id="edge5" class="edge">
<title>RadioMedium&#45;&gt;INeighborCache</title>
<path fill="none" stroke="black" d="M409.42,-54.75C417.28,-47.03 428.93,-35.6 438.42,-26.28"/>
<polygon fill="black" stroke="black" points="441.06,-28.59 445.75,-19.09 436.16,-23.6 441.06,-28.59"/>
</g>
<!-- IPropagation -->
<g id="node7" class="node">
<title>IPropagation</title>
<g id="a_node7"><a xlink:href="inet.physicallayer.wireless.common.contract.packetlevel.IPropagation.html" xlink:title="Module Interface IPropagation" target="_parent">
<polygon fill="#fffcaf" stroke="black" stroke-dasharray="5,2" points="597.5,-19 519.5,-19 519.5,0 597.5,0 597.5,-19"/>
<text text-anchor="middle" x="558.5" y="-7" font-family="Helvetica,sans-Serif" font-size="10.00">IPropagation</text>
</a>
</g>
</g>
<!-- RadioMedium&#45;&gt;IPropagation -->
<g id="edge6" class="edge">
<title>RadioMedium&#45;&gt;IPropagation</title>
<path fill="none" stroke="black" d="M425.89,-54.98C452.3,-46.13 493.85,-32.19 523.39,-22.28"/>
<polygon fill="black" stroke="black" points="524.55,-25.58 532.92,-19.08 522.32,-18.94 524.55,-25.58"/>
</g>
<!-- ICommunicationCache -->
<g id="node8" class="node">
<title>ICommunicationCache</title>
<g id="a_node8"><a xlink:href="inet.physicallayer.wireless.common.contract.packetlevel.ICommunicationCache.html" xlink:title="Module Interface ICommunicationCache" target="_parent">
<polygon fill="#fffcaf" stroke="black" stroke-dasharray="5,2" points="743,-19 616,-19 616,0 743,0 743,-19"/>
<text text-anchor="middle" x="679.5" y="-7" font-family="Helvetica,sans-Serif" font-size="10.00">ICommunicationCache</text>
</a>
</g>
</g>
<!-- RadioMedium&#45;&gt;ICommunicationCache -->
<g id="edge7" class="edge">
<title>RadioMedium&#45;&gt;ICommunicationCache</title>
<path fill="none" stroke="black" d="M442.57,-55.51C491.05,-46.3 570.89,-31.13 624.32,-20.98"/>
<polygon fill="black" stroke="black" points="625.13,-24.39 634.3,-19.09 623.83,-17.51 625.13,-24.39"/>
</g>
<!-- IMediumLimitCache -->
<g id="node9" class="node">
<title>IMediumLimitCache</title>
<g id="a_node9"><a xlink:href="inet.physicallayer.wireless.common.contract.packetlevel.IMediumLimitCache.html" xlink:title="Module Interface IMediumLimitCache" target="_parent">
<polygon fill="#fffcaf" stroke="black" stroke-dasharray="5,2" points="875.5,-19 761.5,-19 761.5,0 875.5,0 875.5,-19"/>
<text text-anchor="middle" x="818.5" y="-7" font-family="Helvetica,sans-Serif" font-size="10.00">IMediumLimitCache</text>
</a>
</g>
</g>
<!-- RadioMedium&#45;&gt;IMediumLimitCache -->
<g id="edge8" class="edge">
<title>RadioMedium&#45;&gt;IMediumLimitCache</title>
<path fill="none" stroke="black" d="M442.77,-58.19C506.99,-50.11 633.27,-34.2 750.99,-19.19"/>
<polygon fill="black" stroke="black" points="751.79,-22.62 761.26,-17.88 750.9,-15.67 751.79,-22.62"/>
</g>
<!-- CoexistenceShowcase -->
<g id="node10" class="node">
<title>CoexistenceShowcase</title>
<g id="a_node10"><a xlink:href="inet.showcases.wireless.coexistence.CoexistenceShowcase.html" xlink:title="Network CoexistenceShowcase" target="_parent">
<polygon fill="#d0d0ff" stroke="black" points="463,-129 338,-129 338,-110 463,-110 463,-129"/>
<text text-anchor="middle" x="400.5" y="-117" font-family="Helvetica,sans-Serif" font-size="10.00">CoexistenceShowcase</text>
</a>
</g>
</g>
<!-- CoexistenceShowcase&#45;&gt;RadioMedium -->
<g id="edge9" class="edge">
<title>CoexistenceShowcase&#45;&gt;RadioMedium</title>
<path fill="none" stroke="black" d="M400.5,-109.75C400.5,-102.8 400.5,-92.85 400.5,-84.13"/>
<polygon fill="black" stroke="black" points="404,-84.09 400.5,-74.09 397,-84.09 404,-84.09"/>
</g>
</g>
</svg>
