<?xml version="1.0" encoding="UTF-8" standalone="no"?>
<!DOCTYPE svg PUBLIC "-//W3C//DTD SVG 1.1//EN"
 "http://www.w3.org/Graphics/SVG/1.1/DTD/svg11.dtd">
<!-- Generated by graphviz version 2.43.0 (0)
 -->
<!-- Title: opp Pages: 1 -->
<svg width="216pt" height="82pt"
 viewBox="0.00 0.00 216.00 82.00" xmlns="http://www.w3.org/2000/svg" xmlns:xlink="http://www.w3.org/1999/xlink">
<g id="graph0" class="graph" transform="scale(1 1) rotate(0) translate(4 78)">
<title>opp</title>
<polygon fill="transparent" stroke="transparent" points="-4,4 -4,-78 212,-78 212,4 -4,4"/>
<!-- SinkApp -->
<g id="node1" class="node">
<title>SinkApp</title>
<g id="a_node1"><a xlink:href="inet.applications.common.SinkApp.html" xlink:title="Compound Module SinkApp" target="_parent">
<polygon fill="#fff700" stroke="black" points="139,-74 83,-74 83,-55 139,-55 139,-74"/>
<text text-anchor="middle" x="111" y="-62" font-family="Helvetica,sans-Serif" font-size="10.00">SinkApp</text>
</a>
</g>
</g>
<!-- IPassivePacketSink -->
<g id="node2" class="node">
<title>IPassivePacketSink</title>
<g id="a_node2"><a xlink:href="inet.queueing.contract.IPassivePacketSink.html" xlink:title="Module Interface IPassivePacketSink" target="_parent">
<polygon fill="#fffcaf" stroke="black" stroke-dasharray="5,2" points="110,-19 0,-19 0,0 110,0 110,-19"/>
<text text-anchor="middle" x="55" y="-7" font-family="Helvetica,sans-Serif" font-size="10.00">IPassivePacketSink</text>
</a>
</g>
</g>
<!-- SinkApp&#45;&gt;IPassivePacketSink -->
<g id="edge1" class="edge">
<title>SinkApp&#45;&gt;IPassivePacketSink</title>
<path fill="none" stroke="black" d="M102,-54.98C93.81,-47.23 81.49,-35.58 71.53,-26.14"/>
<polygon fill="black" stroke="black" points="73.83,-23.5 64.16,-19.17 69.02,-28.59 73.83,-23.5"/>
</g>
<!-- IdealChannel -->
<g id="node3" class="node">
<title>IdealChannel</title>
<g id="a_node3"><a xlink:href="ned.IdealChannel.html" xlink:title="Channel IdealChannel" target="_parent">
<polygon fill="#d0ffd0" stroke="black" points="208,-19 128,-19 128,0 208,0 208,-19"/>
<text text-anchor="middle" x="168" y="-7" font-family="Helvetica,sans-Serif" font-size="10.00">IdealChannel</text>
</a>
</g>
</g>
<!-- SinkApp&#45;&gt;IdealChannel -->
<g id="edge2" class="edge">
<title>SinkApp&#45;&gt;IdealChannel</title>
<path fill="none" stroke="black" d="M120.16,-54.98C128.5,-47.23 141.03,-35.58 151.18,-26.14"/>
<polygon fill="black" stroke="black" points="153.74,-28.54 158.68,-19.17 148.97,-23.42 153.74,-28.54"/>
</g>
</g>
</svg>
