<?xml version="1.0" encoding="UTF-8" standalone="no"?>
<!DOCTYPE svg PUBLIC "-//W3C//DTD SVG 1.1//EN"
 "http://www.w3.org/Graphics/SVG/1.1/DTD/svg11.dtd">
<!-- Generated by graphviz version 2.43.0 (0)
 -->
<!-- Title: opp Pages: 1 -->
<svg width="702pt" height="82pt"
 viewBox="0.00 0.00 702.00 82.00" xmlns="http://www.w3.org/2000/svg" xmlns:xlink="http://www.w3.org/1999/xlink">
<g id="graph0" class="graph" transform="scale(1 1) rotate(0) translate(4 78)">
<title>opp</title>
<polygon fill="transparent" stroke="transparent" points="-4,4 -4,-78 698,-78 698,4 -4,4"/>
<!-- IRtpPayloadSender -->
<g id="node1" class="node">
<title>IRtpPayloadSender</title>
<g id="a_node1"><a xlink:href="inet.transportlayer.rtp.IRtpPayloadSender.html" xlink:title="Module Interface IRtpPayloadSender" target="_parent">
<polygon fill="#fff700" stroke="black" stroke-dasharray="5,2" points="418.5,-74 309.5,-74 309.5,-55 418.5,-55 418.5,-74"/>
<text text-anchor="middle" x="364" y="-62" font-family="Helvetica,sans-Serif" font-size="10.00">IRtpPayloadSender</text>
</a>
</g>
</g>
<!-- RTPAVProfilePayload10Sender -->
<g id="node2" class="node">
<title>RTPAVProfilePayload10Sender</title>
<g id="a_node2"><a xlink:href="inet.transportlayer.rtp.RTPAVProfilePayload10Sender.html" xlink:title="Simple Module RTPAVProfilePayload10Sender" target="_parent">
<polygon fill="#fffcaf" stroke="black" points="164,-19 0,-19 0,0 164,0 164,-19"/>
<text text-anchor="middle" x="82" y="-7" font-family="Helvetica,sans-Serif" font-size="10.00">RTPAVProfilePayload10Sender</text>
</a>
</g>
</g>
<!-- IRtpPayloadSender&#45;&gt;RTPAVProfilePayload10Sender -->
<g id="edge1" class="edge">
<title>IRtpPayloadSender&#45;&gt;RTPAVProfilePayload10Sender</title>
<path fill="none" stroke="black" stroke-dasharray="5,2" d="M318.69,-54.98C266.22,-45.12 180.28,-28.97 127.66,-19.08"/>
</g>
<!-- RtpAvProfilePayload32Sender -->
<g id="node3" class="node">
<title>RtpAvProfilePayload32Sender</title>
<g id="a_node3"><a xlink:href="inet.transportlayer.rtp.RtpAvProfilePayload32Sender.html" xlink:title="Simple Module RtpAvProfilePayload32Sender" target="_parent">
<polygon fill="#fffcaf" stroke="black" points="343.5,-19 182.5,-19 182.5,0 343.5,0 343.5,-19"/>
<text text-anchor="middle" x="263" y="-7" font-family="Helvetica,sans-Serif" font-size="10.00">RtpAvProfilePayload32Sender</text>
</a>
</g>
</g>
<!-- IRtpPayloadSender&#45;&gt;RtpAvProfilePayload32Sender -->
<g id="edge2" class="edge">
<title>IRtpPayloadSender&#45;&gt;RtpAvProfilePayload32Sender</title>
<path fill="none" stroke="black" stroke-dasharray="5,2" d="M347.77,-54.98C329.04,-45.15 298.38,-29.07 279.52,-19.17"/>
</g>
<!-- RTPAVProfileSampleBasedAudioSender -->
<g id="node4" class="node">
<title>RTPAVProfileSampleBasedAudioSender</title>
<g id="a_node4"><a xlink:href="inet.transportlayer.rtp.RTPAVProfileSampleBasedAudioSender.html" xlink:title="Simple Module RTPAVProfileSampleBasedAudioSender" target="_parent">
<polygon fill="#fffcaf" stroke="black" points="570,-19 362,-19 362,0 570,0 570,-19"/>
<text text-anchor="middle" x="466" y="-7" font-family="Helvetica,sans-Serif" font-size="10.00">RTPAVProfileSampleBasedAudioSender</text>
</a>
</g>
</g>
<!-- IRtpPayloadSender&#45;&gt;RTPAVProfileSampleBasedAudioSender -->
<g id="edge3" class="edge">
<title>IRtpPayloadSender&#45;&gt;RTPAVProfileSampleBasedAudioSender</title>
<path fill="none" stroke="black" stroke-dasharray="5,2" d="M380.39,-54.98C399.31,-45.15 430.27,-29.07 449.31,-19.17"/>
</g>
<!-- RtpPayloadSender -->
<g id="node5" class="node">
<title>RtpPayloadSender</title>
<g id="a_node5"><a xlink:href="inet.transportlayer.rtp.RtpPayloadSender.html" xlink:title="Simple Module RtpPayloadSender" target="_parent">
<polygon fill="#fffcaf" stroke="black" points="694,-19 588,-19 588,0 694,0 694,-19"/>
<text text-anchor="middle" x="641" y="-7" font-family="Helvetica,sans-Serif" font-size="10.00">RtpPayloadSender</text>
</a>
</g>
</g>
<!-- IRtpPayloadSender&#45;&gt;RtpPayloadSender -->
<g id="edge4" class="edge">
<title>IRtpPayloadSender&#45;&gt;RtpPayloadSender</title>
<path fill="none" stroke="black" stroke-dasharray="5,2" d="M408.5,-54.98C460.04,-45.12 544.46,-28.97 596.15,-19.08"/>
</g>
</g>
</svg>
