<?xml version="1.0" encoding="UTF-8" standalone="no"?>
<!DOCTYPE svg PUBLIC "-//W3C//DTD SVG 1.1//EN"
 "http://www.w3.org/Graphics/SVG/1.1/DTD/svg11.dtd">
<!-- Generated by graphviz version 2.43.0 (0)
 -->
<!-- Title: opp Pages: 1 -->
<svg width="554pt" height="137pt"
 viewBox="0.00 0.00 553.50 137.00" xmlns="http://www.w3.org/2000/svg" xmlns:xlink="http://www.w3.org/1999/xlink">
<g id="graph0" class="graph" transform="scale(1 1) rotate(0) translate(4 133)">
<title>opp</title>
<polygon fill="transparent" stroke="transparent" points="-4,4 -4,-133 549.5,-133 549.5,4 -4,4"/>
<!-- ThroughputClient -->
<g id="node1" class="node">
<title>ThroughputClient</title>
<g id="a_node1"><a xlink:href="inet.examples.wireless.throughput.ThroughputClient.html" xlink:title="Compound Module ThroughputClient" target="_parent">
<polygon fill="#fff700" stroke="black" points="306.5,-74 205.5,-74 205.5,-55 306.5,-55 306.5,-74"/>
<text text-anchor="middle" x="256" y="-62" font-family="Helvetica,sans-Serif" font-size="10.00">ThroughputClient</text>
</a>
</g>
</g>
<!-- InterfaceTable -->
<g id="node2" class="node">
<title>InterfaceTable</title>
<g id="a_node2"><a xlink:href="inet.networklayer.common.InterfaceTable.html" xlink:title="Simple Module InterfaceTable" target="_parent">
<polygon fill="#fffcaf" stroke="black" points="86,-19 0,-19 0,0 86,0 86,-19"/>
<text text-anchor="middle" x="43" y="-7" font-family="Helvetica,sans-Serif" font-size="10.00">InterfaceTable</text>
</a>
</g>
</g>
<!-- ThroughputClient&#45;&gt;InterfaceTable -->
<g id="edge1" class="edge">
<title>ThroughputClient&#45;&gt;InterfaceTable</title>
<path fill="none" stroke="black" d="M221.78,-54.98C185.24,-45.89 127.22,-31.46 87.24,-21.51"/>
<polygon fill="black" stroke="black" points="88.04,-18.1 77.49,-19.08 86.35,-24.89 88.04,-18.1"/>
</g>
<!-- IdealChannel -->
<g id="node3" class="node">
<title>IdealChannel</title>
<g id="a_node3"><a xlink:href="ned.IdealChannel.html" xlink:title="Channel IdealChannel" target="_parent">
<polygon fill="#d0ffd0" stroke="black" points="184,-19 104,-19 104,0 184,0 184,-19"/>
<text text-anchor="middle" x="144" y="-7" font-family="Helvetica,sans-Serif" font-size="10.00">IdealChannel</text>
</a>
</g>
</g>
<!-- ThroughputClient&#45;&gt;IdealChannel -->
<g id="edge2" class="edge">
<title>ThroughputClient&#45;&gt;IdealChannel</title>
<path fill="none" stroke="black" d="M238.01,-54.98C220.07,-46.5 192.28,-33.35 171.57,-23.54"/>
<polygon fill="black" stroke="black" points="172.86,-20.28 162.32,-19.17 169.86,-26.61 172.86,-20.28"/>
</g>
<!-- StationaryMobility -->
<g id="node4" class="node">
<title>StationaryMobility</title>
<g id="a_node4"><a xlink:href="inet.mobility.static.StationaryMobility.html" xlink:title="Simple Module StationaryMobility" target="_parent">
<polygon fill="#fffcaf" stroke="black" points="309.5,-19 202.5,-19 202.5,0 309.5,0 309.5,-19"/>
<text text-anchor="middle" x="256" y="-7" font-family="Helvetica,sans-Serif" font-size="10.00">StationaryMobility</text>
</a>
</g>
</g>
<!-- ThroughputClient&#45;&gt;StationaryMobility -->
<g id="edge3" class="edge">
<title>ThroughputClient&#45;&gt;StationaryMobility</title>
<path fill="none" stroke="black" d="M256,-54.75C256,-47.8 256,-37.85 256,-29.13"/>
<polygon fill="black" stroke="black" points="259.5,-29.09 256,-19.09 252.5,-29.09 259.5,-29.09"/>
</g>
<!-- EtherAppClient -->
<g id="node5" class="node">
<title>EtherAppClient</title>
<g id="a_node5"><a xlink:href="inet.applications.ethernet.EtherAppClient.html" xlink:title="Simple Module EtherAppClient" target="_parent">
<polygon fill="#fffcaf" stroke="black" points="416.5,-19 327.5,-19 327.5,0 416.5,0 416.5,-19"/>
<text text-anchor="middle" x="372" y="-7" font-family="Helvetica,sans-Serif" font-size="10.00">EtherAppClient</text>
</a>
</g>
</g>
<!-- ThroughputClient&#45;&gt;EtherAppClient -->
<g id="edge4" class="edge">
<title>ThroughputClient&#45;&gt;EtherAppClient</title>
<path fill="none" stroke="black" d="M274.64,-54.98C293.3,-46.46 322.25,-33.23 343.74,-23.41"/>
<polygon fill="black" stroke="black" points="345.38,-26.51 353.02,-19.17 342.47,-20.14 345.38,-26.51"/>
</g>
<!-- Ieee80211Interface -->
<g id="node6" class="node">
<title>Ieee80211Interface</title>
<g id="a_node6"><a xlink:href="inet.linklayer.ieee80211.Ieee80211Interface.html" xlink:title="Compound Module Ieee80211Interface" target="_parent">
<polygon fill="#fffcaf" stroke="black" points="545.5,-19 434.5,-19 434.5,0 545.5,0 545.5,-19"/>
<text text-anchor="middle" x="490" y="-7" font-family="Helvetica,sans-Serif" font-size="10.00">Ieee80211Interface</text>
</a>
</g>
</g>
<!-- ThroughputClient&#45;&gt;Ieee80211Interface -->
<g id="edge5" class="edge">
<title>ThroughputClient&#45;&gt;Ieee80211Interface</title>
<path fill="none" stroke="black" d="M293.6,-54.98C333.99,-45.84 398.28,-31.27 442.23,-21.32"/>
<polygon fill="black" stroke="black" points="443.13,-24.7 452.11,-19.08 441.58,-17.88 443.13,-24.7"/>
</g>
<!-- Throughput -->
<g id="node7" class="node">
<title>Throughput</title>
<g id="a_node7"><a xlink:href="inet.examples.wireless.throughput.Throughput.html" xlink:title="Network Throughput" target="_parent">
<polygon fill="#d0d0ff" stroke="black" points="292,-129 220,-129 220,-110 292,-110 292,-129"/>
<text text-anchor="middle" x="256" y="-117" font-family="Helvetica,sans-Serif" font-size="10.00">Throughput</text>
</a>
</g>
</g>
<!-- Throughput&#45;&gt;ThroughputClient -->
<g id="edge6" class="edge">
<title>Throughput&#45;&gt;ThroughputClient</title>
<path fill="none" stroke="black" d="M256,-109.75C256,-102.8 256,-92.85 256,-84.13"/>
<polygon fill="black" stroke="black" points="259.5,-84.09 256,-74.09 252.5,-84.09 259.5,-84.09"/>
</g>
</g>
</svg>
