<?xml version="1.0" encoding="UTF-8" standalone="no"?>
<!DOCTYPE svg PUBLIC "-//W3C//DTD SVG 1.1//EN"
 "http://www.w3.org/Graphics/SVG/1.1/DTD/svg11.dtd">
<!-- Generated by graphviz version 2.43.0 (0)
 -->
<!-- Title: opp Pages: 1 -->
<svg width="306pt" height="82pt"
 viewBox="0.00 0.00 306.00 82.00" xmlns="http://www.w3.org/2000/svg" xmlns:xlink="http://www.w3.org/1999/xlink">
<g id="graph0" class="graph" transform="scale(1 1) rotate(0) translate(4 78)">
<title>opp</title>
<polygon fill="transparent" stroke="transparent" points="-4,4 -4,-78 302,-78 302,4 -4,4"/>
<!-- Ieee8021aeTagEpdHeaderInserter -->
<g id="node1" class="node">
<title>Ieee8021aeTagEpdHeaderInserter</title>
<g id="a_node1"><a xlink:href="inet.linklayer.ieee8021ae.Ieee8021aeTagEpdHeaderInserter.html" xlink:title="Simple Module Ieee8021aeTagEpdHeaderInserter" target="_parent">
<polygon fill="#fff700" stroke="black" points="217.5,-19 36.5,-19 36.5,0 217.5,0 217.5,-19"/>
<text text-anchor="middle" x="127" y="-7" font-family="Helvetica,sans-Serif" font-size="10.00">Ieee8021aeTagEpdHeaderInserter</text>
</a>
</g>
</g>
<!-- PacketFlowBase -->
<g id="node2" class="node">
<title>PacketFlowBase</title>
<g id="a_node2"><a xlink:href="inet.queueing.base.PacketFlowBase.html" xlink:title="Simple Module PacketFlowBase" target="_parent">
<polygon fill="#fffcaf" stroke="black" points="96,-74 0,-74 0,-55 96,-55 96,-74"/>
<text text-anchor="middle" x="48" y="-62" font-family="Helvetica,sans-Serif" font-size="10.00">PacketFlowBase</text>
</a>
</g>
</g>
<!-- PacketFlowBase&#45;&gt;Ieee8021aeTagEpdHeaderInserter -->
<g id="edge1" class="edge">
<title>PacketFlowBase&#45;&gt;Ieee8021aeTagEpdHeaderInserter</title>
<path fill="none" stroke="black" d="M60.69,-54.98C75.35,-45.15 99.32,-29.07 114.08,-19.17"/>
</g>
<!-- IIeee8021aeTagEpdHeaderInserter -->
<g id="node3" class="node">
<title>IIeee8021aeTagEpdHeaderInserter</title>
<g id="a_node3"><a xlink:href="inet.linklayer.ieee8021ae.IIeee8021aeTagEpdHeaderInserter.html" xlink:title="Module Interface IIeee8021aeTagEpdHeaderInserter" target="_parent">
<polygon fill="#fffcaf" stroke="black" stroke-dasharray="5,2" points="298,-74 114,-74 114,-55 298,-55 298,-74"/>
<text text-anchor="middle" x="206" y="-62" font-family="Helvetica,sans-Serif" font-size="10.00">IIeee8021aeTagEpdHeaderInserter</text>
</a>
</g>
</g>
<!-- IIeee8021aeTagEpdHeaderInserter&#45;&gt;Ieee8021aeTagEpdHeaderInserter -->
<g id="edge2" class="edge">
<title>IIeee8021aeTagEpdHeaderInserter&#45;&gt;Ieee8021aeTagEpdHeaderInserter</title>
<path fill="none" stroke="black" stroke-dasharray="5,2" d="M193.31,-54.98C178.65,-45.15 154.68,-29.07 139.92,-19.17"/>
</g>
</g>
</svg>
