<?xml version="1.0" encoding="UTF-8" standalone="no"?>
<!DOCTYPE svg PUBLIC "-//W3C//DTD SVG 1.1//EN"
 "http://www.w3.org/Graphics/SVG/1.1/DTD/svg11.dtd">
<!-- Generated by graphviz version 2.43.0 (0)
 -->
<!-- Title: opp Pages: 1 -->
<svg width="524pt" height="82pt"
 viewBox="0.00 0.00 524.00 82.00" xmlns="http://www.w3.org/2000/svg" xmlns:xlink="http://www.w3.org/1999/xlink">
<g id="graph0" class="graph" transform="scale(1 1) rotate(0) translate(4 78)">
<title>opp</title>
<polygon fill="transparent" stroke="transparent" points="-4,4 -4,-78 520,-78 520,4 -4,4"/>
<!-- QosThroughput -->
<g id="node1" class="node">
<title>QosThroughput</title>
<g id="a_node1"><a xlink:href="inet.examples.wireless.qos.QosThroughput.html" xlink:title="Network QosThroughput" target="_parent">
<polygon fill="#9090ff" stroke="black" points="243,-74 152,-74 152,-55 243,-55 243,-74"/>
<text text-anchor="middle" x="197.5" y="-62" font-family="Helvetica,sans-Serif" font-size="10.00">QosThroughput</text>
</a>
</g>
</g>
<!-- AccessPoint -->
<g id="node2" class="node">
<title>AccessPoint</title>
<g id="a_node2"><a xlink:href="inet.node.wireless.AccessPoint.html" xlink:title="Compound Module AccessPoint" target="_parent">
<polygon fill="#fffcaf" stroke="black" points="75,-19 0,-19 0,0 75,0 75,-19"/>
<text text-anchor="middle" x="37.5" y="-7" font-family="Helvetica,sans-Serif" font-size="10.00">AccessPoint</text>
</a>
</g>
</g>
<!-- QosThroughput&#45;&gt;AccessPoint -->
<g id="edge1" class="edge">
<title>QosThroughput&#45;&gt;AccessPoint</title>
<path fill="none" stroke="black" d="M171.79,-54.98C145.05,-46.13 102.97,-32.19 73.05,-22.28"/>
<polygon fill="black" stroke="black" points="74,-18.9 63.41,-19.08 71.8,-25.55 74,-18.9"/>
</g>
<!-- WirelessHost -->
<g id="node3" class="node">
<title>WirelessHost</title>
<g id="a_node3"><a xlink:href="inet.node.inet.WirelessHost.html" xlink:title="Compound Module WirelessHost" target="_parent">
<polygon fill="#fffcaf" stroke="black" points="174,-19 93,-19 93,0 174,0 174,-19"/>
<text text-anchor="middle" x="133.5" y="-7" font-family="Helvetica,sans-Serif" font-size="10.00">WirelessHost</text>
</a>
</g>
</g>
<!-- QosThroughput&#45;&gt;WirelessHost -->
<g id="edge2" class="edge">
<title>QosThroughput&#45;&gt;WirelessHost</title>
<path fill="none" stroke="black" d="M187.22,-54.98C177.66,-47.07 163.22,-35.11 151.72,-25.58"/>
<polygon fill="black" stroke="black" points="153.9,-22.85 143.97,-19.17 149.44,-28.24 153.9,-22.85"/>
</g>
<!-- Ipv4NetworkConfigurator -->
<g id="node4" class="node">
<title>Ipv4NetworkConfigurator</title>
<g id="a_node4"><a xlink:href="inet.networklayer.configurator.ipv4.Ipv4NetworkConfigurator.html" xlink:title="Simple Module Ipv4NetworkConfigurator" target="_parent">
<polygon fill="#fffcaf" stroke="black" points="332.5,-19 192.5,-19 192.5,0 332.5,0 332.5,-19"/>
<text text-anchor="middle" x="262.5" y="-7" font-family="Helvetica,sans-Serif" font-size="10.00">Ipv4NetworkConfigurator</text>
</a>
</g>
</g>
<!-- QosThroughput&#45;&gt;Ipv4NetworkConfigurator -->
<g id="edge3" class="edge">
<title>QosThroughput&#45;&gt;Ipv4NetworkConfigurator</title>
<path fill="none" stroke="black" d="M207.94,-54.98C217.65,-47.07 232.32,-35.11 244,-25.58"/>
<polygon fill="black" stroke="black" points="246.33,-28.2 251.87,-19.17 241.9,-22.78 246.33,-28.2"/>
</g>
<!-- Ieee80211ScalarRadioMedium -->
<g id="node5" class="node">
<title>Ieee80211ScalarRadioMedium</title>
<g id="a_node5"><a xlink:href="inet.physicallayer.wireless.ieee80211.packetlevel.Ieee80211ScalarRadioMedium.html" xlink:title="Compound Module Ieee80211ScalarRadioMedium" target="_parent">
<polygon fill="#fffcaf" stroke="black" points="516,-19 351,-19 351,0 516,0 516,-19"/>
<text text-anchor="middle" x="433.5" y="-7" font-family="Helvetica,sans-Serif" font-size="10.00">Ieee80211ScalarRadioMedium</text>
</a>
</g>
</g>
<!-- QosThroughput&#45;&gt;Ieee80211ScalarRadioMedium -->
<g id="edge4" class="edge">
<title>QosThroughput&#45;&gt;Ieee80211ScalarRadioMedium</title>
<path fill="none" stroke="black" d="M235.42,-54.98C276.15,-45.84 341,-31.27 385.32,-21.32"/>
<polygon fill="black" stroke="black" points="386.3,-24.69 395.29,-19.08 384.76,-17.86 386.3,-24.69"/>
</g>
</g>
</svg>
