<?xml version="1.0" encoding="UTF-8" standalone="no"?>
<!DOCTYPE svg PUBLIC "-//W3C//DTD SVG 1.1//EN"
 "http://www.w3.org/Graphics/SVG/1.1/DTD/svg11.dtd">
<!-- Generated by graphviz version 2.43.0 (0)
 -->
<!-- Title: opp Pages: 1 -->
<svg width="338pt" height="82pt"
 viewBox="0.00 0.00 338.00 82.00" xmlns="http://www.w3.org/2000/svg" xmlns:xlink="http://www.w3.org/1999/xlink">
<g id="graph0" class="graph" transform="scale(1 1) rotate(0) translate(4 78)">
<title>opp</title>
<polygon fill="transparent" stroke="transparent" points="-4,4 -4,-78 334,-78 334,4 -4,4"/>
<!-- BridgingLayer -->
<g id="node1" class="node">
<title>BridgingLayer</title>
<g id="a_node1"><a xlink:href="inet.linklayer.ethernet.common.BridgingLayer.html" xlink:title="Compound Module BridgingLayer" target="_parent">
<polygon fill="#fff700" stroke="black" points="204,-74 120,-74 120,-55 204,-55 204,-74"/>
<text text-anchor="middle" x="162" y="-62" font-family="Helvetica,sans-Serif" font-size="10.00">BridgingLayer</text>
</a>
</g>
</g>
<!-- IdealChannel -->
<g id="node2" class="node">
<title>IdealChannel</title>
<g id="a_node2"><a xlink:href="ned.IdealChannel.html" xlink:title="Channel IdealChannel" target="_parent">
<polygon fill="#d0ffd0" stroke="black" points="80,-19 0,-19 0,0 80,0 80,-19"/>
<text text-anchor="middle" x="40" y="-7" font-family="Helvetica,sans-Serif" font-size="10.00">IdealChannel</text>
</a>
</g>
</g>
<!-- BridgingLayer&#45;&gt;IdealChannel -->
<g id="edge1" class="edge">
<title>BridgingLayer&#45;&gt;IdealChannel</title>
<path fill="none" stroke="black" d="M142.4,-54.98C122.68,-46.42 92.05,-33.11 69.42,-23.28"/>
<polygon fill="black" stroke="black" points="70.52,-19.94 59.96,-19.17 67.74,-26.37 70.52,-19.94"/>
</g>
<!-- IProcessingDelayLayer -->
<g id="node3" class="node">
<title>IProcessingDelayLayer</title>
<g id="a_node3"><a xlink:href="inet.protocolelement.processing.IProcessingDelayLayer.html" xlink:title="Module Interface IProcessingDelayLayer" target="_parent">
<polygon fill="#fffcaf" stroke="black" stroke-dasharray="5,2" points="226,-19 98,-19 98,0 226,0 226,-19"/>
<text text-anchor="middle" x="162" y="-7" font-family="Helvetica,sans-Serif" font-size="10.00">IProcessingDelayLayer</text>
</a>
</g>
</g>
<!-- BridgingLayer&#45;&gt;IProcessingDelayLayer -->
<g id="edge2" class="edge">
<title>BridgingLayer&#45;&gt;IProcessingDelayLayer</title>
<path fill="none" stroke="black" d="M162,-54.75C162,-47.8 162,-37.85 162,-29.13"/>
<polygon fill="black" stroke="black" points="165.5,-29.09 162,-19.09 158.5,-29.09 165.5,-29.09"/>
</g>
<!-- IProtocolLayer -->
<g id="node4" class="node">
<title>IProtocolLayer</title>
<g id="a_node4"><a xlink:href="inet.protocolelement.contract.IProtocolLayer.html" xlink:title="Module Interface IProtocolLayer" target="_parent">
<polygon fill="#fffcaf" stroke="black" stroke-dasharray="5,2" points="330,-19 244,-19 244,0 330,0 330,-19"/>
<text text-anchor="middle" x="287" y="-7" font-family="Helvetica,sans-Serif" font-size="10.00">IProtocolLayer</text>
</a>
</g>
</g>
<!-- BridgingLayer&#45;&gt;IProtocolLayer -->
<g id="edge3" class="edge">
<title>BridgingLayer&#45;&gt;IProtocolLayer</title>
<path fill="none" stroke="black" d="M182.08,-54.98C202.37,-46.38 233.96,-32.99 257.17,-23.15"/>
<polygon fill="black" stroke="black" points="258.71,-26.3 266.55,-19.17 255.98,-19.85 258.71,-26.3"/>
</g>
</g>
</svg>
