<?xml version="1.0" encoding="UTF-8" standalone="no"?>
<!DOCTYPE svg PUBLIC "-//W3C//DTD SVG 1.1//EN"
 "http://www.w3.org/Graphics/SVG/1.1/DTD/svg11.dtd">
<!-- Generated by graphviz version 2.43.0 (0)
 -->
<!-- Title: opp Pages: 1 -->
<svg width="441pt" height="137pt"
 viewBox="0.00 0.00 440.50 137.00" xmlns="http://www.w3.org/2000/svg" xmlns:xlink="http://www.w3.org/1999/xlink">
<g id="graph0" class="graph" transform="scale(1 1) rotate(0) translate(4 133)">
<title>opp</title>
<polygon fill="transparent" stroke="transparent" points="-4,4 -4,-133 436.5,-133 436.5,4 -4,4"/>
<!-- IEthernetInterface -->
<g id="node1" class="node">
<title>IEthernetInterface</title>
<g id="a_node1"><a xlink:href="inet.linklayer.contract.IEthernetInterface.html" xlink:title="Module Interface IEthernetInterface" target="_parent">
<polygon fill="#fff700" stroke="black" stroke-dasharray="5,2" points="275.5,-74 171.5,-74 171.5,-55 275.5,-55 275.5,-74"/>
<text text-anchor="middle" x="223.5" y="-62" font-family="Helvetica,sans-Serif" font-size="10.00">IEthernetInterface</text>
</a>
</g>
</g>
<!-- EthernetCutthroughInterface -->
<g id="node3" class="node">
<title>EthernetCutthroughInterface</title>
<g id="a_node3"><a xlink:href="inet.linklayer.ethernet.modular.EthernetCutthroughInterface.html" xlink:title="Compound Module EthernetCutthroughInterface" target="_parent">
<polygon fill="#fffcaf" stroke="black" points="155,-19 0,-19 0,0 155,0 155,-19"/>
<text text-anchor="middle" x="77.5" y="-7" font-family="Helvetica,sans-Serif" font-size="10.00">EthernetCutthroughInterface</text>
</a>
</g>
</g>
<!-- IEthernetInterface&#45;&gt;EthernetCutthroughInterface -->
<g id="edge2" class="edge">
<title>IEthernetInterface&#45;&gt;EthernetCutthroughInterface</title>
<path fill="none" stroke="black" stroke-dasharray="5,2" d="M200.04,-54.98C172.96,-45.15 128.65,-29.07 101.38,-19.17"/>
</g>
<!-- EthernetInterface -->
<g id="node4" class="node">
<title>EthernetInterface</title>
<g id="a_node4"><a xlink:href="inet.linklayer.ethernet.EthernetInterface.html" xlink:title="Compound Module EthernetInterface" target="_parent">
<polygon fill="#fffcaf" stroke="black" points="274,-19 173,-19 173,0 274,0 274,-19"/>
<text text-anchor="middle" x="223.5" y="-7" font-family="Helvetica,sans-Serif" font-size="10.00">EthernetInterface</text>
</a>
</g>
</g>
<!-- IEthernetInterface&#45;&gt;EthernetInterface -->
<g id="edge3" class="edge">
<title>IEthernetInterface&#45;&gt;EthernetInterface</title>
<path fill="none" stroke="black" stroke-dasharray="5,2" d="M223.5,-54.75C223.5,-44.87 223.5,-28.9 223.5,-19.09"/>
</g>
<!-- LayeredEthernetInterface -->
<g id="node5" class="node">
<title>LayeredEthernetInterface</title>
<g id="a_node5"><a xlink:href="inet.linklayer.ethernet.LayeredEthernetInterface.html" xlink:title="Compound Module LayeredEthernetInterface" target="_parent">
<polygon fill="#fffcaf" stroke="black" points="432.5,-19 292.5,-19 292.5,0 432.5,0 432.5,-19"/>
<text text-anchor="middle" x="362.5" y="-7" font-family="Helvetica,sans-Serif" font-size="10.00">LayeredEthernetInterface</text>
</a>
</g>
</g>
<!-- IEthernetInterface&#45;&gt;LayeredEthernetInterface -->
<g id="edge4" class="edge">
<title>IEthernetInterface&#45;&gt;LayeredEthernetInterface</title>
<path fill="none" stroke="black" stroke-dasharray="5,2" d="M245.83,-54.98C271.62,-45.15 313.8,-29.07 339.76,-19.17"/>
</g>
<!-- IWiredInterface -->
<g id="node2" class="node">
<title>IWiredInterface</title>
<g id="a_node2"><a xlink:href="inet.linklayer.contract.IWiredInterface.html" xlink:title="Module Interface IWiredInterface" target="_parent">
<polygon fill="#fffcaf" stroke="black" stroke-dasharray="5,2" points="269.5,-129 177.5,-129 177.5,-110 269.5,-110 269.5,-129"/>
<text text-anchor="middle" x="223.5" y="-117" font-family="Helvetica,sans-Serif" font-size="10.00">IWiredInterface</text>
</a>
</g>
</g>
<!-- IWiredInterface&#45;&gt;IEthernetInterface -->
<g id="edge1" class="edge">
<title>IWiredInterface&#45;&gt;IEthernetInterface</title>
<path fill="none" stroke="black" d="M223.5,-109.75C223.5,-99.87 223.5,-83.9 223.5,-74.09"/>
</g>
</g>
</svg>
