<?xml version="1.0" encoding="UTF-8" standalone="no"?>
<!DOCTYPE svg PUBLIC "-//W3C//DTD SVG 1.1//EN"
 "http://www.w3.org/Graphics/SVG/1.1/DTD/svg11.dtd">
<!-- Generated by graphviz version 2.43.0 (0)
 -->
<!-- Title: opp Pages: 1 -->
<svg width="717pt" height="82pt"
 viewBox="0.00 0.00 717.00 82.00" xmlns="http://www.w3.org/2000/svg" xmlns:xlink="http://www.w3.org/1999/xlink">
<g id="graph0" class="graph" transform="scale(1 1) rotate(0) translate(4 78)">
<title>opp</title>
<polygon fill="transparent" stroke="transparent" points="-4,4 -4,-78 713,-78 713,4 -4,4"/>
<!-- Ieee8021qProtocol -->
<g id="node1" class="node">
<title>Ieee8021qProtocol</title>
<g id="a_node1"><a xlink:href="inet.linklayer.ieee8021q.Ieee8021qProtocol.html" xlink:title="Compound Module Ieee8021qProtocol" target="_parent">
<polygon fill="#fff700" stroke="black" points="384.5,-74 277.5,-74 277.5,-55 384.5,-55 384.5,-74"/>
<text text-anchor="middle" x="331" y="-62" font-family="Helvetica,sans-Serif" font-size="10.00">Ieee8021qProtocol</text>
</a>
</g>
</g>
<!-- IdealChannel -->
<g id="node2" class="node">
<title>IdealChannel</title>
<g id="a_node2"><a xlink:href="ned.IdealChannel.html" xlink:title="Channel IdealChannel" target="_parent">
<polygon fill="#d0ffd0" stroke="black" points="80,-19 0,-19 0,0 80,0 80,-19"/>
<text text-anchor="middle" x="40" y="-7" font-family="Helvetica,sans-Serif" font-size="10.00">IdealChannel</text>
</a>
</g>
</g>
<!-- Ieee8021qProtocol&#45;&gt;IdealChannel -->
<g id="edge1" class="edge">
<title>Ieee8021qProtocol&#45;&gt;IdealChannel</title>
<path fill="none" stroke="black" d="M284.25,-54.98C231.12,-45.31 144.73,-29.57 90.21,-19.64"/>
<polygon fill="black" stroke="black" points="90.55,-16.15 80.08,-17.8 89.29,-23.04 90.55,-16.15"/>
</g>
<!-- Ieee8021qSocketTable -->
<g id="node3" class="node">
<title>Ieee8021qSocketTable</title>
<g id="a_node3"><a xlink:href="inet.linklayer.ieee8021q.Ieee8021qSocketTable.html" xlink:title="Simple Module Ieee8021qSocketTable" target="_parent">
<polygon fill="#fffcaf" stroke="black" points="223.5,-19 98.5,-19 98.5,0 223.5,0 223.5,-19"/>
<text text-anchor="middle" x="161" y="-7" font-family="Helvetica,sans-Serif" font-size="10.00">Ieee8021qSocketTable</text>
</a>
</g>
</g>
<!-- Ieee8021qProtocol&#45;&gt;Ieee8021qSocketTable -->
<g id="edge2" class="edge">
<title>Ieee8021qProtocol&#45;&gt;Ieee8021qSocketTable</title>
<path fill="none" stroke="black" d="M303.69,-54.98C275.15,-46.09 230.17,-32.07 198.36,-22.15"/>
<polygon fill="black" stroke="black" points="199.12,-18.72 188.53,-19.08 197.03,-25.4 199.12,-18.72"/>
</g>
<!-- IIeee8021qTagEpdHeaderChecker -->
<g id="node4" class="node">
<title>IIeee8021qTagEpdHeaderChecker</title>
<g id="a_node4"><a xlink:href="inet.linklayer.ieee8021q.IIeee8021qTagEpdHeaderChecker.html" xlink:title="Module Interface IIeee8021qTagEpdHeaderChecker" target="_parent">
<polygon fill="#fffcaf" stroke="black" stroke-dasharray="5,2" points="420.5,-19 241.5,-19 241.5,0 420.5,0 420.5,-19"/>
<text text-anchor="middle" x="331" y="-7" font-family="Helvetica,sans-Serif" font-size="10.00">IIeee8021qTagEpdHeaderChecker</text>
</a>
</g>
</g>
<!-- Ieee8021qProtocol&#45;&gt;IIeee8021qTagEpdHeaderChecker -->
<g id="edge3" class="edge">
<title>Ieee8021qProtocol&#45;&gt;IIeee8021qTagEpdHeaderChecker</title>
<path fill="none" stroke="black" d="M331,-54.75C331,-47.8 331,-37.85 331,-29.13"/>
<polygon fill="black" stroke="black" points="334.5,-29.09 331,-19.09 327.5,-29.09 334.5,-29.09"/>
</g>
<!-- IPacketFlow -->
<g id="node5" class="node">
<title>IPacketFlow</title>
<g id="a_node5"><a xlink:href="inet.queueing.contract.IPacketFlow.html" xlink:title="Module Interface IPacketFlow" target="_parent">
<polygon fill="#fffcaf" stroke="black" stroke-dasharray="5,2" points="513.5,-19 438.5,-19 438.5,0 513.5,0 513.5,-19"/>
<text text-anchor="middle" x="476" y="-7" font-family="Helvetica,sans-Serif" font-size="10.00">IPacketFlow</text>
</a>
</g>
</g>
<!-- Ieee8021qProtocol&#45;&gt;IPacketFlow -->
<g id="edge4" class="edge">
<title>Ieee8021qProtocol&#45;&gt;IPacketFlow</title>
<path fill="none" stroke="black" d="M354.3,-54.98C378.25,-46.23 415.78,-32.51 442.83,-22.62"/>
<polygon fill="black" stroke="black" points="444.09,-25.89 452.28,-19.17 441.69,-19.32 444.09,-25.89"/>
</g>
<!-- IIeee8021qTagEpdHeaderInserter -->
<g id="node6" class="node">
<title>IIeee8021qTagEpdHeaderInserter</title>
<g id="a_node6"><a xlink:href="inet.linklayer.ieee8021q.IIeee8021qTagEpdHeaderInserter.html" xlink:title="Module Interface IIeee8021qTagEpdHeaderInserter" target="_parent">
<polygon fill="#fffcaf" stroke="black" stroke-dasharray="5,2" points="709,-19 531,-19 531,0 709,0 709,-19"/>
<text text-anchor="middle" x="620" y="-7" font-family="Helvetica,sans-Serif" font-size="10.00">IIeee8021qTagEpdHeaderInserter</text>
</a>
</g>
</g>
<!-- Ieee8021qProtocol&#45;&gt;IIeee8021qTagEpdHeaderInserter -->
<g id="edge5" class="edge">
<title>Ieee8021qProtocol&#45;&gt;IIeee8021qTagEpdHeaderInserter</title>
<path fill="none" stroke="black" d="M377.43,-54.98C427.95,-45.72 508.74,-30.9 563.05,-20.94"/>
<polygon fill="black" stroke="black" points="564,-24.33 573.2,-19.08 562.74,-17.44 564,-24.33"/>
</g>
</g>
</svg>
