<?xml version="1.0" encoding="UTF-8" standalone="no"?>
<!DOCTYPE svg PUBLIC "-//W3C//DTD SVG 1.1//EN"
 "http://www.w3.org/Graphics/SVG/1.1/DTD/svg11.dtd">
<!-- Generated by graphviz version 2.43.0 (0)
 -->
<!-- Title: opp Pages: 1 -->
<svg width="554pt" height="82pt"
 viewBox="0.00 0.00 554.00 82.00" xmlns="http://www.w3.org/2000/svg" xmlns:xlink="http://www.w3.org/1999/xlink">
<g id="graph0" class="graph" transform="scale(1 1) rotate(0) translate(4 78)">
<title>opp</title>
<polygon fill="transparent" stroke="transparent" points="-4,4 -4,-78 550,-78 550,4 -4,4"/>
<!-- TC2 -->
<g id="node1" class="node">
<title>TC2</title>
<g id="a_node1"><a xlink:href="inet.examples.diffserv.onedomain.TC2.html" xlink:title="Compound Module TC2" target="_parent">
<polygon fill="#fff700" stroke="black" points="305,-74 251,-74 251,-55 305,-55 305,-74"/>
<text text-anchor="middle" x="278" y="-62" font-family="Helvetica,sans-Serif" font-size="10.00">TC2</text>
</a>
</g>
</g>
<!-- IdealChannel -->
<g id="node2" class="node">
<title>IdealChannel</title>
<g id="a_node2"><a xlink:href="ned.IdealChannel.html" xlink:title="Channel IdealChannel" target="_parent">
<polygon fill="#d0ffd0" stroke="black" points="80,-19 0,-19 0,0 80,0 80,-19"/>
<text text-anchor="middle" x="40" y="-7" font-family="Helvetica,sans-Serif" font-size="10.00">IdealChannel</text>
</a>
</g>
</g>
<!-- TC2&#45;&gt;IdealChannel -->
<g id="edge1" class="edge">
<title>TC2&#45;&gt;IdealChannel</title>
<path fill="none" stroke="black" d="M250.7,-57.42C211.14,-48.61 137.29,-32.17 88.38,-21.27"/>
<polygon fill="black" stroke="black" points="88.86,-17.8 78.34,-19.04 87.34,-24.63 88.86,-17.8"/>
</g>
<!-- MultiFieldClassifier -->
<g id="node3" class="node">
<title>MultiFieldClassifier</title>
<g id="a_node3"><a xlink:href="inet.networklayer.diffserv.MultiFieldClassifier.html" xlink:title="Simple Module MultiFieldClassifier" target="_parent">
<polygon fill="#fffcaf" stroke="black" points="208,-19 98,-19 98,0 208,0 208,-19"/>
<text text-anchor="middle" x="153" y="-7" font-family="Helvetica,sans-Serif" font-size="10.00">MultiFieldClassifier</text>
</a>
</g>
</g>
<!-- TC2&#45;&gt;MultiFieldClassifier -->
<g id="edge2" class="edge">
<title>TC2&#45;&gt;MultiFieldClassifier</title>
<path fill="none" stroke="black" d="M257.92,-54.98C237.63,-46.38 206.04,-32.99 182.83,-23.15"/>
<polygon fill="black" stroke="black" points="184.02,-19.85 173.45,-19.17 181.29,-26.3 184.02,-19.85"/>
</g>
<!-- PacketMultiplexer -->
<g id="node4" class="node">
<title>PacketMultiplexer</title>
<g id="a_node4"><a xlink:href="inet.queueing.common.PacketMultiplexer.html" xlink:title="Simple Module PacketMultiplexer" target="_parent">
<polygon fill="#fffcaf" stroke="black" points="330,-19 226,-19 226,0 330,0 330,-19"/>
<text text-anchor="middle" x="278" y="-7" font-family="Helvetica,sans-Serif" font-size="10.00">PacketMultiplexer</text>
</a>
</g>
</g>
<!-- TC2&#45;&gt;PacketMultiplexer -->
<g id="edge3" class="edge">
<title>TC2&#45;&gt;PacketMultiplexer</title>
<path fill="none" stroke="black" d="M278,-54.75C278,-47.8 278,-37.85 278,-29.13"/>
<polygon fill="black" stroke="black" points="281.5,-29.09 278,-19.09 274.5,-29.09 281.5,-29.09"/>
</g>
<!-- TokenBucketMeter -->
<g id="node5" class="node">
<title>TokenBucketMeter</title>
<g id="a_node5"><a xlink:href="inet.networklayer.diffserv.TokenBucketMeter.html" xlink:title="Simple Module TokenBucketMeter" target="_parent">
<polygon fill="#fffcaf" stroke="black" points="454,-19 348,-19 348,0 454,0 454,-19"/>
<text text-anchor="middle" x="401" y="-7" font-family="Helvetica,sans-Serif" font-size="10.00">TokenBucketMeter</text>
</a>
</g>
</g>
<!-- TC2&#45;&gt;TokenBucketMeter -->
<g id="edge4" class="edge">
<title>TC2&#45;&gt;TokenBucketMeter</title>
<path fill="none" stroke="black" d="M297.76,-54.98C317.73,-46.38 348.8,-32.99 371.65,-23.15"/>
<polygon fill="black" stroke="black" points="373.08,-26.34 380.88,-19.17 370.31,-19.91 373.08,-26.34"/>
</g>
<!-- DscpMarker -->
<g id="node6" class="node">
<title>DscpMarker</title>
<g id="a_node6"><a xlink:href="inet.networklayer.diffserv.DscpMarker.html" xlink:title="Simple Module DscpMarker" target="_parent">
<polygon fill="#fffcaf" stroke="black" points="546,-19 472,-19 472,0 546,0 546,-19"/>
<text text-anchor="middle" x="509" y="-7" font-family="Helvetica,sans-Serif" font-size="10.00">DscpMarker</text>
</a>
</g>
</g>
<!-- TC2&#45;&gt;DscpMarker -->
<g id="edge5" class="edge">
<title>TC2&#45;&gt;DscpMarker</title>
<path fill="none" stroke="black" d="M305.41,-57.21C343.93,-48.37 414.65,-32.15 461.75,-21.34"/>
<polygon fill="black" stroke="black" points="462.75,-24.7 471.71,-19.05 461.18,-17.88 462.75,-24.7"/>
</g>
</g>
</svg>
