<?xml version="1.0" encoding="UTF-8" standalone="no"?>
<!DOCTYPE svg PUBLIC "-//W3C//DTD SVG 1.1//EN"
 "http://www.w3.org/Graphics/SVG/1.1/DTD/svg11.dtd">
<!-- Generated by graphviz version 2.43.0 (0)
 -->
<!-- Title: opp Pages: 1 -->
<svg width="647pt" height="82pt"
 viewBox="0.00 0.00 646.50 82.00" xmlns="http://www.w3.org/2000/svg" xmlns:xlink="http://www.w3.org/1999/xlink">
<g id="graph0" class="graph" transform="scale(1 1) rotate(0) translate(4 78)">
<title>opp</title>
<polygon fill="transparent" stroke="transparent" points="-4,4 -4,-78 642.5,-78 642.5,4 -4,4"/>
<!-- SignalBasedTokenGeneratorTutorialStep -->
<g id="node1" class="node">
<title>SignalBasedTokenGeneratorTutorialStep</title>
<g id="a_node1"><a xlink:href="inet.tutorials.queueing.SignalBasedTokenGeneratorTutorialStep.html" xlink:title="Network SignalBasedTokenGeneratorTutorialStep" target="_parent">
<polygon fill="#9090ff" stroke="black" points="382.5,-74 171.5,-74 171.5,-55 382.5,-55 382.5,-74"/>
<text text-anchor="middle" x="277" y="-62" font-family="Helvetica,sans-Serif" font-size="10.00">SignalBasedTokenGeneratorTutorialStep</text>
</a>
</g>
</g>
<!-- IdealChannel -->
<g id="node2" class="node">
<title>IdealChannel</title>
<g id="a_node2"><a xlink:href="ned.IdealChannel.html" xlink:title="Channel IdealChannel" target="_parent">
<polygon fill="#d0ffd0" stroke="black" points="80,-19 0,-19 0,0 80,0 80,-19"/>
<text text-anchor="middle" x="40" y="-7" font-family="Helvetica,sans-Serif" font-size="10.00">IdealChannel</text>
</a>
</g>
</g>
<!-- SignalBasedTokenGeneratorTutorialStep&#45;&gt;IdealChannel -->
<g id="edge1" class="edge">
<title>SignalBasedTokenGeneratorTutorialStep&#45;&gt;IdealChannel</title>
<path fill="none" stroke="black" d="M238.92,-54.98C198.01,-45.84 132.89,-31.27 88.38,-21.32"/>
<polygon fill="black" stroke="black" points="88.9,-17.85 78.38,-19.08 87.37,-24.68 88.9,-17.85"/>
</g>
<!-- PassivePacketSink -->
<g id="node3" class="node">
<title>PassivePacketSink</title>
<g id="a_node3"><a xlink:href="inet.queueing.sink.PassivePacketSink.html" xlink:title="Simple Module PassivePacketSink" target="_parent">
<polygon fill="#fffcaf" stroke="black" points="205.5,-19 98.5,-19 98.5,0 205.5,0 205.5,-19"/>
<text text-anchor="middle" x="152" y="-7" font-family="Helvetica,sans-Serif" font-size="10.00">PassivePacketSink</text>
</a>
</g>
</g>
<!-- SignalBasedTokenGeneratorTutorialStep&#45;&gt;PassivePacketSink -->
<g id="edge2" class="edge">
<title>SignalBasedTokenGeneratorTutorialStep&#45;&gt;PassivePacketSink</title>
<path fill="none" stroke="black" d="M256.92,-54.98C236.63,-46.38 205.04,-32.99 181.83,-23.15"/>
<polygon fill="black" stroke="black" points="183.02,-19.85 172.45,-19.17 180.29,-26.3 183.02,-19.85"/>
</g>
<!-- TokenBasedServer -->
<g id="node4" class="node">
<title>TokenBasedServer</title>
<g id="a_node4"><a xlink:href="inet.queueing.server.TokenBasedServer.html" xlink:title="Simple Module TokenBasedServer" target="_parent">
<polygon fill="#fffcaf" stroke="black" points="330,-19 224,-19 224,0 330,0 330,-19"/>
<text text-anchor="middle" x="277" y="-7" font-family="Helvetica,sans-Serif" font-size="10.00">TokenBasedServer</text>
</a>
</g>
</g>
<!-- SignalBasedTokenGeneratorTutorialStep&#45;&gt;TokenBasedServer -->
<g id="edge3" class="edge">
<title>SignalBasedTokenGeneratorTutorialStep&#45;&gt;TokenBasedServer</title>
<path fill="none" stroke="black" d="M277,-54.75C277,-47.8 277,-37.85 277,-29.13"/>
<polygon fill="black" stroke="black" points="280.5,-29.09 277,-19.09 273.5,-29.09 280.5,-29.09"/>
</g>
<!-- SignalBasedTokenGenerator -->
<g id="node5" class="node">
<title>SignalBasedTokenGenerator</title>
<g id="a_node5"><a xlink:href="inet.queueing.tokengenerator.SignalBasedTokenGenerator.html" xlink:title="Simple Module SignalBasedTokenGenerator" target="_parent">
<polygon fill="#fffcaf" stroke="black" points="501.5,-19 348.5,-19 348.5,0 501.5,0 501.5,-19"/>
<text text-anchor="middle" x="425" y="-7" font-family="Helvetica,sans-Serif" font-size="10.00">SignalBasedTokenGenerator</text>
</a>
</g>
</g>
<!-- SignalBasedTokenGeneratorTutorialStep&#45;&gt;SignalBasedTokenGenerator -->
<g id="edge4" class="edge">
<title>SignalBasedTokenGeneratorTutorialStep&#45;&gt;SignalBasedTokenGenerator</title>
<path fill="none" stroke="black" d="M300.78,-54.98C325.23,-46.23 363.53,-32.51 391.15,-22.62"/>
<polygon fill="black" stroke="black" points="392.55,-25.84 400.79,-19.17 390.19,-19.25 392.55,-25.84"/>
</g>
<!-- PassivePacketSource -->
<g id="node6" class="node">
<title>PassivePacketSource</title>
<g id="a_node6"><a xlink:href="inet.queueing.source.PassivePacketSource.html" xlink:title="Simple Module PassivePacketSource" target="_parent">
<polygon fill="#fffcaf" stroke="black" points="638.5,-19 519.5,-19 519.5,0 638.5,0 638.5,-19"/>
<text text-anchor="middle" x="579" y="-7" font-family="Helvetica,sans-Serif" font-size="10.00">PassivePacketSource</text>
</a>
</g>
</g>
<!-- SignalBasedTokenGeneratorTutorialStep&#45;&gt;PassivePacketSource -->
<g id="edge5" class="edge">
<title>SignalBasedTokenGeneratorTutorialStep&#45;&gt;PassivePacketSource</title>
<path fill="none" stroke="black" d="M325.52,-54.98C378.61,-45.67 463.69,-30.74 520.44,-20.78"/>
<polygon fill="black" stroke="black" points="521.1,-24.21 530.35,-19.04 519.89,-17.32 521.1,-24.21"/>
</g>
</g>
</svg>
