<?xml version="1.0" encoding="UTF-8" standalone="no"?>
<!DOCTYPE svg PUBLIC "-//W3C//DTD SVG 1.1//EN"
 "http://www.w3.org/Graphics/SVG/1.1/DTD/svg11.dtd">
<!-- Generated by graphviz version 2.43.0 (0)
 -->
<!-- Title: opp Pages: 1 -->
<svg width="345pt" height="82pt"
 viewBox="0.00 0.00 345.00 82.00" xmlns="http://www.w3.org/2000/svg" xmlns:xlink="http://www.w3.org/1999/xlink">
<g id="graph0" class="graph" transform="scale(1 1) rotate(0) translate(4 78)">
<title>opp</title>
<polygon fill="transparent" stroke="transparent" points="-4,4 -4,-78 341,-78 341,4 -4,4"/>
<!-- ProducerConsumerTutorialStep -->
<g id="node1" class="node">
<title>ProducerConsumerTutorialStep</title>
<g id="a_node1"><a xlink:href="inet.tutorials.queueing.ProducerConsumerTutorialStep.html" xlink:title="Network ProducerConsumerTutorialStep" target="_parent">
<polygon fill="#9090ff" stroke="black" points="255,-74 88,-74 88,-55 255,-55 255,-74"/>
<text text-anchor="middle" x="171.5" y="-62" font-family="Helvetica,sans-Serif" font-size="10.00">ProducerConsumerTutorialStep</text>
</a>
</g>
</g>
<!-- ActivePacketSource -->
<g id="node2" class="node">
<title>ActivePacketSource</title>
<g id="a_node2"><a xlink:href="inet.queueing.source.ActivePacketSource.html" xlink:title="Simple Module ActivePacketSource" target="_parent">
<polygon fill="#fffcaf" stroke="black" points="113,-19 0,-19 0,0 113,0 113,-19"/>
<text text-anchor="middle" x="56.5" y="-7" font-family="Helvetica,sans-Serif" font-size="10.00">ActivePacketSource</text>
</a>
</g>
</g>
<!-- ProducerConsumerTutorialStep&#45;&gt;ActivePacketSource -->
<g id="edge1" class="edge">
<title>ProducerConsumerTutorialStep&#45;&gt;ActivePacketSource</title>
<path fill="none" stroke="black" d="M153.02,-54.98C134.52,-46.46 105.82,-33.23 84.52,-23.41"/>
<polygon fill="black" stroke="black" points="85.86,-20.18 75.31,-19.17 82.93,-26.53 85.86,-20.18"/>
</g>
<!-- IdealChannel -->
<g id="node3" class="node">
<title>IdealChannel</title>
<g id="a_node3"><a xlink:href="ned.IdealChannel.html" xlink:title="Channel IdealChannel" target="_parent">
<polygon fill="#d0ffd0" stroke="black" points="211.5,-19 131.5,-19 131.5,0 211.5,0 211.5,-19"/>
<text text-anchor="middle" x="171.5" y="-7" font-family="Helvetica,sans-Serif" font-size="10.00">IdealChannel</text>
</a>
</g>
</g>
<!-- ProducerConsumerTutorialStep&#45;&gt;IdealChannel -->
<g id="edge2" class="edge">
<title>ProducerConsumerTutorialStep&#45;&gt;IdealChannel</title>
<path fill="none" stroke="black" d="M171.5,-54.75C171.5,-47.8 171.5,-37.85 171.5,-29.13"/>
<polygon fill="black" stroke="black" points="175,-29.09 171.5,-19.09 168,-29.09 175,-29.09"/>
</g>
<!-- PassivePacketSink -->
<g id="node4" class="node">
<title>PassivePacketSink</title>
<g id="a_node4"><a xlink:href="inet.queueing.sink.PassivePacketSink.html" xlink:title="Simple Module PassivePacketSink" target="_parent">
<polygon fill="#fffcaf" stroke="black" points="337,-19 230,-19 230,0 337,0 337,-19"/>
<text text-anchor="middle" x="283.5" y="-7" font-family="Helvetica,sans-Serif" font-size="10.00">PassivePacketSink</text>
</a>
</g>
</g>
<!-- ProducerConsumerTutorialStep&#45;&gt;PassivePacketSink -->
<g id="edge3" class="edge">
<title>ProducerConsumerTutorialStep&#45;&gt;PassivePacketSink</title>
<path fill="none" stroke="black" d="M189.49,-54.98C207.43,-46.5 235.22,-33.35 255.93,-23.54"/>
<polygon fill="black" stroke="black" points="257.64,-26.61 265.18,-19.17 254.64,-20.28 257.64,-26.61"/>
</g>
</g>
</svg>
