<?xml version="1.0" encoding="UTF-8" standalone="no"?>
<!DOCTYPE svg PUBLIC "-//W3C//DTD SVG 1.1//EN"
 "http://www.w3.org/Graphics/SVG/1.1/DTD/svg11.dtd">
<!-- Generated by graphviz version 2.43.0 (0)
 -->
<!-- Title: opp Pages: 1 -->
<svg width="250pt" height="82pt"
 viewBox="0.00 0.00 249.50 82.00" xmlns="http://www.w3.org/2000/svg" xmlns:xlink="http://www.w3.org/1999/xlink">
<g id="graph0" class="graph" transform="scale(1 1) rotate(0) translate(4 78)">
<title>opp</title>
<polygon fill="transparent" stroke="transparent" points="-4,4 -4,-78 245.5,-78 245.5,4 -4,4"/>
<!-- MobileNetwork -->
<g id="node1" class="node">
<title>MobileNetwork</title>
<g id="a_node1"><a xlink:href="inet.examples.mobility.MobileNetwork.html" xlink:title="Network MobileNetwork" target="_parent">
<polygon fill="#9090ff" stroke="black" points="146.5,-74 55.5,-74 55.5,-55 146.5,-55 146.5,-74"/>
<text text-anchor="middle" x="101" y="-62" font-family="Helvetica,sans-Serif" font-size="10.00">MobileNetwork</text>
</a>
</g>
</g>
<!-- MobileHost -->
<g id="node2" class="node">
<title>MobileHost</title>
<g id="a_node2"><a xlink:href="inet.examples.mobility.MobileHost.html" xlink:title="Compound Module MobileHost" target="_parent">
<polygon fill="#fffcaf" stroke="black" points="72,-19 0,-19 0,0 72,0 72,-19"/>
<text text-anchor="middle" x="36" y="-7" font-family="Helvetica,sans-Serif" font-size="10.00">MobileHost</text>
</a>
</g>
</g>
<!-- MobileNetwork&#45;&gt;MobileHost -->
<g id="edge1" class="edge">
<title>MobileNetwork&#45;&gt;MobileHost</title>
<path fill="none" stroke="black" d="M90.56,-54.98C80.85,-47.07 66.18,-35.11 54.5,-25.58"/>
<polygon fill="black" stroke="black" points="56.6,-22.78 46.63,-19.17 52.17,-28.2 56.6,-22.78"/>
</g>
<!-- IntegratedCanvasVisualizer -->
<g id="node3" class="node">
<title>IntegratedCanvasVisualizer</title>
<g id="a_node3"><a xlink:href="inet.visualizer.canvas.integrated.IntegratedCanvasVisualizer.html" xlink:title="Compound Module IntegratedCanvasVisualizer" target="_parent">
<polygon fill="#fffcaf" stroke="black" points="241.5,-19 90.5,-19 90.5,0 241.5,0 241.5,-19"/>
<text text-anchor="middle" x="166" y="-7" font-family="Helvetica,sans-Serif" font-size="10.00">IntegratedCanvasVisualizer</text>
</a>
</g>
</g>
<!-- MobileNetwork&#45;&gt;IntegratedCanvasVisualizer -->
<g id="edge2" class="edge">
<title>MobileNetwork&#45;&gt;IntegratedCanvasVisualizer</title>
<path fill="none" stroke="black" d="M111.44,-54.98C121.15,-47.07 135.82,-35.11 147.5,-25.58"/>
<polygon fill="black" stroke="black" points="149.83,-28.2 155.37,-19.17 145.4,-22.78 149.83,-28.2"/>
</g>
</g>
</svg>
