<?xml version="1.0" encoding="UTF-8" standalone="no"?>
<!DOCTYPE svg PUBLIC "-//W3C//DTD SVG 1.1//EN"
 "http://www.w3.org/Graphics/SVG/1.1/DTD/svg11.dtd">
<!-- Generated by graphviz version 2.43.0 (0)
 -->
<!-- Title: opp Pages: 1 -->
<svg width="405pt" height="82pt"
 viewBox="0.00 0.00 404.50 82.00" xmlns="http://www.w3.org/2000/svg" xmlns:xlink="http://www.w3.org/1999/xlink">
<g id="graph0" class="graph" transform="scale(1 1) rotate(0) translate(4 78)">
<title>opp</title>
<polygon fill="transparent" stroke="transparent" points="-4,4 -4,-78 400.5,-78 400.5,4 -4,4"/>
<!-- Ieee80211LayeredOfdmTransmitter -->
<g id="node1" class="node">
<title>Ieee80211LayeredOfdmTransmitter</title>
<g id="a_node1"><a xlink:href="inet.physicallayer.wireless.ieee80211.bitlevel.Ieee80211LayeredOfdmTransmitter.html" xlink:title="Compound Module Ieee80211LayeredOfdmTransmitter" target="_parent">
<polygon fill="#fff700" stroke="black" points="317,-74 127,-74 127,-55 317,-55 317,-74"/>
<text text-anchor="middle" x="222" y="-62" font-family="Helvetica,sans-Serif" font-size="10.00">Ieee80211LayeredOfdmTransmitter</text>
</a>
</g>
</g>
<!-- IPulseShaper -->
<g id="node2" class="node">
<title>IPulseShaper</title>
<g id="a_node2"><a xlink:href="inet.physicallayer.wireless.common.contract.bitlevel.IPulseShaper.html" xlink:title="Module Interface IPulseShaper" target="_parent">
<polygon fill="#fffcaf" stroke="black" stroke-dasharray="5,2" points="80,-19 0,-19 0,0 80,0 80,-19"/>
<text text-anchor="middle" x="40" y="-7" font-family="Helvetica,sans-Serif" font-size="10.00">IPulseShaper</text>
</a>
</g>
</g>
<!-- Ieee80211LayeredOfdmTransmitter&#45;&gt;IPulseShaper -->
<g id="edge1" class="edge">
<title>Ieee80211LayeredOfdmTransmitter&#45;&gt;IPulseShaper</title>
<path fill="none" stroke="black" d="M192.76,-54.98C161.94,-46.01 113.22,-31.82 79.11,-21.89"/>
<polygon fill="black" stroke="black" points="80.05,-18.52 69.47,-19.08 78.09,-25.24 80.05,-18.52"/>
</g>
<!-- IDigitalAnalogConverter -->
<g id="node3" class="node">
<title>IDigitalAnalogConverter</title>
<g id="a_node3"><a xlink:href="inet.physicallayer.wireless.common.contract.bitlevel.IDigitalAnalogConverter.html" xlink:title="Module Interface IDigitalAnalogConverter" target="_parent">
<polygon fill="#fffcaf" stroke="black" stroke-dasharray="5,2" points="232,-19 98,-19 98,0 232,0 232,-19"/>
<text text-anchor="middle" x="165" y="-7" font-family="Helvetica,sans-Serif" font-size="10.00">IDigitalAnalogConverter</text>
</a>
</g>
</g>
<!-- Ieee80211LayeredOfdmTransmitter&#45;&gt;IDigitalAnalogConverter -->
<g id="edge2" class="edge">
<title>Ieee80211LayeredOfdmTransmitter&#45;&gt;IDigitalAnalogConverter</title>
<path fill="none" stroke="black" d="M212.84,-54.98C204.5,-47.23 191.97,-35.58 181.82,-26.14"/>
<polygon fill="black" stroke="black" points="184.03,-23.42 174.32,-19.17 179.26,-28.54 184.03,-23.42"/>
</g>
<!-- IEncoder -->
<g id="node4" class="node">
<title>IEncoder</title>
<g id="a_node4"><a xlink:href="inet.physicallayer.wireless.common.contract.bitlevel.IEncoder.html" xlink:title="Module Interface IEncoder" target="_parent">
<polygon fill="#fffcaf" stroke="black" stroke-dasharray="5,2" points="309.5,-19 250.5,-19 250.5,0 309.5,0 309.5,-19"/>
<text text-anchor="middle" x="280" y="-7" font-family="Helvetica,sans-Serif" font-size="10.00">IEncoder</text>
</a>
</g>
</g>
<!-- Ieee80211LayeredOfdmTransmitter&#45;&gt;IEncoder -->
<g id="edge3" class="edge">
<title>Ieee80211LayeredOfdmTransmitter&#45;&gt;IEncoder</title>
<path fill="none" stroke="black" d="M231.32,-54.98C239.81,-47.23 252.56,-35.58 262.88,-26.14"/>
<polygon fill="black" stroke="black" points="265.49,-28.5 270.51,-19.17 260.77,-23.33 265.49,-28.5"/>
</g>
<!-- IModulator -->
<g id="node5" class="node">
<title>IModulator</title>
<g id="a_node5"><a xlink:href="inet.physicallayer.wireless.common.contract.bitlevel.IModulator.html" xlink:title="Module Interface IModulator" target="_parent">
<polygon fill="#fffcaf" stroke="black" stroke-dasharray="5,2" points="396.5,-19 327.5,-19 327.5,0 396.5,0 396.5,-19"/>
<text text-anchor="middle" x="362" y="-7" font-family="Helvetica,sans-Serif" font-size="10.00">IModulator</text>
</a>
</g>
</g>
<!-- Ieee80211LayeredOfdmTransmitter&#45;&gt;IModulator -->
<g id="edge4" class="edge">
<title>Ieee80211LayeredOfdmTransmitter&#45;&gt;IModulator</title>
<path fill="none" stroke="black" d="M244.49,-54.98C267.52,-46.27 303.54,-32.63 329.63,-22.75"/>
<polygon fill="black" stroke="black" points="330.98,-25.98 339.1,-19.17 328.51,-19.44 330.98,-25.98"/>
</g>
</g>
</svg>
