<?xml version="1.0" encoding="UTF-8" standalone="no"?>
<!DOCTYPE svg PUBLIC "-//W3C//DTD SVG 1.1//EN"
 "http://www.w3.org/Graphics/SVG/1.1/DTD/svg11.dtd">
<!-- Generated by graphviz version 2.43.0 (0)
 -->
<!-- Title: opp Pages: 1 -->
<svg width="1048pt" height="82pt"
 viewBox="0.00 0.00 1047.50 82.00" xmlns="http://www.w3.org/2000/svg" xmlns:xlink="http://www.w3.org/1999/xlink">
<g id="graph0" class="graph" transform="scale(1 1) rotate(0) translate(4 78)">
<title>opp</title>
<polygon fill="transparent" stroke="transparent" points="-4,4 -4,-78 1043.5,-78 1043.5,4 -4,4"/>
<!-- ConfiguratorE -->
<g id="node1" class="node">
<title>ConfiguratorE</title>
<g id="a_node1"><a xlink:href="inet.tutorials.configurator.ConfiguratorE.html" xlink:title="Network ConfiguratorE" target="_parent">
<polygon fill="#9090ff" stroke="black" points="478,-74 395,-74 395,-55 478,-55 478,-74"/>
<text text-anchor="middle" x="436.5" y="-62" font-family="Helvetica,sans-Serif" font-size="10.00">ConfiguratorE</text>
</a>
</g>
</g>
<!-- StandardHost -->
<g id="node2" class="node">
<title>StandardHost</title>
<g id="a_node2"><a xlink:href="inet.node.inet.StandardHost.html" xlink:title="Compound Module StandardHost" target="_parent">
<polygon fill="#fffcaf" stroke="black" points="83,-19 0,-19 0,0 83,0 83,-19"/>
<text text-anchor="middle" x="41.5" y="-7" font-family="Helvetica,sans-Serif" font-size="10.00">StandardHost</text>
</a>
</g>
</g>
<!-- ConfiguratorE&#45;&gt;StandardHost -->
<g id="edge1" class="edge">
<title>ConfiguratorE&#45;&gt;StandardHost</title>
<path fill="none" stroke="black" d="M394.74,-58.66C331.62,-51.23 207.92,-36.19 93.23,-19.21"/>
<polygon fill="black" stroke="black" points="93.63,-15.73 83.22,-17.72 92.6,-22.66 93.63,-15.73"/>
</g>
<!-- AccessPoint -->
<g id="node3" class="node">
<title>AccessPoint</title>
<g id="a_node3"><a xlink:href="inet.node.wireless.AccessPoint.html" xlink:title="Compound Module AccessPoint" target="_parent">
<polygon fill="#fffcaf" stroke="black" points="176,-19 101,-19 101,0 176,0 176,-19"/>
<text text-anchor="middle" x="138.5" y="-7" font-family="Helvetica,sans-Serif" font-size="10.00">AccessPoint</text>
</a>
</g>
</g>
<!-- ConfiguratorE&#45;&gt;AccessPoint -->
<g id="edge2" class="edge">
<title>ConfiguratorE&#45;&gt;AccessPoint</title>
<path fill="none" stroke="black" d="M394.75,-56.14C346.97,-47.71 266.1,-33.42 186.42,-19.16"/>
<polygon fill="black" stroke="black" points="186.67,-15.65 176.21,-17.33 185.43,-22.54 186.67,-15.65"/>
</g>
<!-- Router -->
<g id="node4" class="node">
<title>Router</title>
<g id="a_node4"><a xlink:href="inet.node.inet.Router.html" xlink:title="Compound Module Router" target="_parent">
<polygon fill="#fffcaf" stroke="black" points="248.5,-19 194.5,-19 194.5,0 248.5,0 248.5,-19"/>
<text text-anchor="middle" x="221.5" y="-7" font-family="Helvetica,sans-Serif" font-size="10.00">Router</text>
</a>
</g>
</g>
<!-- ConfiguratorE&#45;&gt;Router -->
<g id="edge3" class="edge">
<title>ConfiguratorE&#45;&gt;Router</title>
<path fill="none" stroke="black" d="M401.96,-54.98C362.75,-45.32 299.05,-29.62 258.75,-19.68"/>
<polygon fill="black" stroke="black" points="259.34,-16.22 248.8,-17.23 257.67,-23.02 259.34,-16.22"/>
</g>
<!-- WirelessHost -->
<g id="node5" class="node">
<title>WirelessHost</title>
<g id="a_node5"><a xlink:href="inet.node.inet.WirelessHost.html" xlink:title="Compound Module WirelessHost" target="_parent">
<polygon fill="#fffcaf" stroke="black" points="348,-19 267,-19 267,0 348,0 348,-19"/>
<text text-anchor="middle" x="307.5" y="-7" font-family="Helvetica,sans-Serif" font-size="10.00">WirelessHost</text>
</a>
</g>
</g>
<!-- ConfiguratorE&#45;&gt;WirelessHost -->
<g id="edge4" class="edge">
<title>ConfiguratorE&#45;&gt;WirelessHost</title>
<path fill="none" stroke="black" d="M415.77,-54.98C394.74,-46.34 361.95,-32.87 337.96,-23.02"/>
<polygon fill="black" stroke="black" points="339.18,-19.73 328.6,-19.17 336.52,-26.21 339.18,-19.73"/>
</g>
<!-- Ipv4NetworkConfigurator -->
<g id="node6" class="node">
<title>Ipv4NetworkConfigurator</title>
<g id="a_node6"><a xlink:href="inet.networklayer.configurator.ipv4.Ipv4NetworkConfigurator.html" xlink:title="Simple Module Ipv4NetworkConfigurator" target="_parent">
<polygon fill="#fffcaf" stroke="black" points="506.5,-19 366.5,-19 366.5,0 506.5,0 506.5,-19"/>
<text text-anchor="middle" x="436.5" y="-7" font-family="Helvetica,sans-Serif" font-size="10.00">Ipv4NetworkConfigurator</text>
</a>
</g>
</g>
<!-- ConfiguratorE&#45;&gt;Ipv4NetworkConfigurator -->
<g id="edge5" class="edge">
<title>ConfiguratorE&#45;&gt;Ipv4NetworkConfigurator</title>
<path fill="none" stroke="black" d="M436.5,-54.75C436.5,-47.8 436.5,-37.85 436.5,-29.13"/>
<polygon fill="black" stroke="black" points="440,-29.09 436.5,-19.09 433,-29.09 440,-29.09"/>
</g>
<!-- Eth10M -->
<g id="node7" class="node">
<title>Eth10M</title>
<g id="a_node7"><a xlink:href="inet.node.ethernet.Eth10M.html" xlink:title="Channel Eth10M" target="_parent">
<polygon fill="#d0ffd0" stroke="black" points="578.5,-19 524.5,-19 524.5,0 578.5,0 578.5,-19"/>
<text text-anchor="middle" x="551.5" y="-7" font-family="Helvetica,sans-Serif" font-size="10.00">Eth10M</text>
</a>
</g>
</g>
<!-- ConfiguratorE&#45;&gt;Eth10M -->
<g id="edge6" class="edge">
<title>ConfiguratorE&#45;&gt;Eth10M</title>
<path fill="none" stroke="black" d="M454.98,-54.98C473.48,-46.46 502.18,-33.23 523.48,-23.41"/>
<polygon fill="black" stroke="black" points="525.07,-26.53 532.69,-19.17 522.14,-20.18 525.07,-26.53"/>
</g>
<!-- IntegratedCanvasVisualizer -->
<g id="node8" class="node">
<title>IntegratedCanvasVisualizer</title>
<g id="a_node8"><a xlink:href="inet.visualizer.canvas.integrated.IntegratedCanvasVisualizer.html" xlink:title="Compound Module IntegratedCanvasVisualizer" target="_parent">
<polygon fill="#fffcaf" stroke="black" points="748,-19 597,-19 597,0 748,0 748,-19"/>
<text text-anchor="middle" x="672.5" y="-7" font-family="Helvetica,sans-Serif" font-size="10.00">IntegratedCanvasVisualizer</text>
</a>
</g>
</g>
<!-- ConfiguratorE&#45;&gt;IntegratedCanvasVisualizer -->
<g id="edge7" class="edge">
<title>ConfiguratorE&#45;&gt;IntegratedCanvasVisualizer</title>
<path fill="none" stroke="black" d="M474.42,-54.98C515.15,-45.84 580,-31.27 624.32,-21.32"/>
<polygon fill="black" stroke="black" points="625.3,-24.69 634.29,-19.08 623.76,-17.86 625.3,-24.69"/>
</g>
<!-- Ieee80211ScalarRadioMedium -->
<g id="node9" class="node">
<title>Ieee80211ScalarRadioMedium</title>
<g id="a_node9"><a xlink:href="inet.physicallayer.wireless.ieee80211.packetlevel.Ieee80211ScalarRadioMedium.html" xlink:title="Compound Module Ieee80211ScalarRadioMedium" target="_parent">
<polygon fill="#fffcaf" stroke="black" points="931,-19 766,-19 766,0 931,0 931,-19"/>
<text text-anchor="middle" x="848.5" y="-7" font-family="Helvetica,sans-Serif" font-size="10.00">Ieee80211ScalarRadioMedium</text>
</a>
</g>
</g>
<!-- ConfiguratorE&#45;&gt;Ieee80211ScalarRadioMedium -->
<g id="edge8" class="edge">
<title>ConfiguratorE&#45;&gt;Ieee80211ScalarRadioMedium</title>
<path fill="none" stroke="black" d="M478.27,-58.13C547.15,-49.27 685.52,-31.47 772.22,-20.31"/>
<polygon fill="black" stroke="black" points="772.79,-23.77 782.27,-19.02 771.9,-16.83 772.79,-23.77"/>
</g>
<!-- EthernetSwitch -->
<g id="node10" class="node">
<title>EthernetSwitch</title>
<g id="a_node10"><a xlink:href="inet.node.ethernet.EthernetSwitch.html" xlink:title="Compound Module EthernetSwitch" target="_parent">
<polygon fill="#fffcaf" stroke="black" points="1039.5,-19 949.5,-19 949.5,0 1039.5,0 1039.5,-19"/>
<text text-anchor="middle" x="994.5" y="-7" font-family="Helvetica,sans-Serif" font-size="10.00">EthernetSwitch</text>
</a>
</g>
</g>
<!-- ConfiguratorE&#45;&gt;EthernetSwitch -->
<g id="edge9" class="edge">
<title>ConfiguratorE&#45;&gt;EthernetSwitch</title>
<path fill="none" stroke="black" d="M478.09,-60.79C562.84,-55.06 761.83,-40.55 939.4,-19.05"/>
<polygon fill="black" stroke="black" points="939.95,-22.51 949.45,-17.83 939.1,-15.56 939.95,-22.51"/>
</g>
</g>
</svg>
