<?xml version="1.0" encoding="UTF-8" standalone="no"?>
<!DOCTYPE svg PUBLIC "-//W3C//DTD SVG 1.1//EN"
 "http://www.w3.org/Graphics/SVG/1.1/DTD/svg11.dtd">
<!-- Generated by graphviz version 2.43.0 (0)
 -->
<!-- Title: opp Pages: 1 -->
<svg width="534pt" height="82pt"
 viewBox="0.00 0.00 534.00 82.00" xmlns="http://www.w3.org/2000/svg" xmlns:xlink="http://www.w3.org/1999/xlink">
<g id="graph0" class="graph" transform="scale(1 1) rotate(0) translate(4 78)">
<title>opp</title>
<polygon fill="transparent" stroke="transparent" points="-4,4 -4,-78 530,-78 530,4 -4,4"/>
<!-- LDPTEST -->
<g id="node1" class="node">
<title>LDPTEST</title>
<g id="a_node1"><a xlink:href="inet.examples.mpls.ldp.LDPTEST.html" xlink:title="Network LDPTEST" target="_parent">
<polygon fill="#9090ff" stroke="black" points="313,-74 254,-74 254,-55 313,-55 313,-74"/>
<text text-anchor="middle" x="283.5" y="-62" font-family="Helvetica,sans-Serif" font-size="10.00">LDPTEST</text>
</a>
</g>
</g>
<!-- ScenarioManager -->
<g id="node2" class="node">
<title>ScenarioManager</title>
<g id="a_node2"><a xlink:href="inet.common.scenario.ScenarioManager.html" xlink:title="Simple Module ScenarioManager" target="_parent">
<polygon fill="#fffcaf" stroke="black" points="101,-19 0,-19 0,0 101,0 101,-19"/>
<text text-anchor="middle" x="50.5" y="-7" font-family="Helvetica,sans-Serif" font-size="10.00">ScenarioManager</text>
</a>
</g>
</g>
<!-- LDPTEST&#45;&gt;ScenarioManager -->
<g id="edge1" class="edge">
<title>LDPTEST&#45;&gt;ScenarioManager</title>
<path fill="none" stroke="black" d="M253.99,-56.79C214.75,-47.86 144.9,-31.97 98.14,-21.34"/>
<polygon fill="black" stroke="black" points="98.77,-17.89 88.24,-19.09 97.22,-24.72 98.77,-17.89"/>
</g>
<!-- StandardHost -->
<g id="node3" class="node">
<title>StandardHost</title>
<g id="a_node3"><a xlink:href="inet.node.inet.StandardHost.html" xlink:title="Compound Module StandardHost" target="_parent">
<polygon fill="#fffcaf" stroke="black" points="202,-19 119,-19 119,0 202,0 202,-19"/>
<text text-anchor="middle" x="160.5" y="-7" font-family="Helvetica,sans-Serif" font-size="10.00">StandardHost</text>
</a>
</g>
</g>
<!-- LDPTEST&#45;&gt;StandardHost -->
<g id="edge2" class="edge">
<title>LDPTEST&#45;&gt;StandardHost</title>
<path fill="none" stroke="black" d="M263.74,-54.98C243.77,-46.38 212.7,-32.99 189.85,-23.15"/>
<polygon fill="black" stroke="black" points="191.19,-19.91 180.62,-19.17 188.42,-26.34 191.19,-19.91"/>
</g>
<!-- C15 -->
<g id="node4" class="node">
<title>C15</title>
<g id="a_node4"><a xlink:href="inet.examples.mpls.ldp.LDPTEST.C15.html" xlink:title="Channel C15" target="_parent">
<polygon fill="#d0ffd0" stroke="black" points="274.5,-19 220.5,-19 220.5,0 274.5,0 274.5,-19"/>
<text text-anchor="middle" x="247.5" y="-7" font-family="Helvetica,sans-Serif" font-size="10.00">C15</text>
</a>
</g>
</g>
<!-- LDPTEST&#45;&gt;C15 -->
<g id="edge3" class="edge">
<title>LDPTEST&#45;&gt;C15</title>
<path fill="none" stroke="black" d="M277.56,-54.75C272.52,-47.34 265.16,-36.5 258.99,-27.41"/>
<polygon fill="black" stroke="black" points="261.85,-25.39 253.33,-19.09 256.06,-29.33 261.85,-25.39"/>
</g>
<!-- C10 -->
<g id="node5" class="node">
<title>C10</title>
<g id="a_node5"><a xlink:href="inet.examples.mpls.ldp.LDPTEST.C10.html" xlink:title="Channel C10" target="_parent">
<polygon fill="#d0ffd0" stroke="black" points="346.5,-19 292.5,-19 292.5,0 346.5,0 346.5,-19"/>
<text text-anchor="middle" x="319.5" y="-7" font-family="Helvetica,sans-Serif" font-size="10.00">C10</text>
</a>
</g>
</g>
<!-- LDPTEST&#45;&gt;C10 -->
<g id="edge4" class="edge">
<title>LDPTEST&#45;&gt;C10</title>
<path fill="none" stroke="black" d="M289.44,-54.75C294.48,-47.34 301.84,-36.5 308.01,-27.41"/>
<polygon fill="black" stroke="black" points="310.94,-29.33 313.67,-19.09 305.15,-25.39 310.94,-29.33"/>
</g>
<!-- C5 -->
<g id="node6" class="node">
<title>C5</title>
<g id="a_node6"><a xlink:href="inet.examples.mpls.ldp.LDPTEST.C5.html" xlink:title="Channel C5" target="_parent">
<polygon fill="#d0ffd0" stroke="black" points="418.5,-19 364.5,-19 364.5,0 418.5,0 418.5,-19"/>
<text text-anchor="middle" x="391.5" y="-7" font-family="Helvetica,sans-Serif" font-size="10.00">C5</text>
</a>
</g>
</g>
<!-- LDPTEST&#45;&gt;C5 -->
<g id="edge5" class="edge">
<title>LDPTEST&#45;&gt;C5</title>
<path fill="none" stroke="black" d="M300.85,-54.98C318.07,-46.54 344.7,-33.47 364.65,-23.68"/>
<polygon fill="black" stroke="black" points="366.4,-26.72 373.83,-19.17 363.31,-20.43 366.4,-26.72"/>
</g>
<!-- LdpMplsRouter -->
<g id="node7" class="node">
<title>LdpMplsRouter</title>
<g id="a_node7"><a xlink:href="inet.node.mpls.LdpMplsRouter.html" xlink:title="Compound Module LdpMplsRouter" target="_parent">
<polygon fill="#fffcaf" stroke="black" points="526,-19 437,-19 437,0 526,0 526,-19"/>
<text text-anchor="middle" x="481.5" y="-7" font-family="Helvetica,sans-Serif" font-size="10.00">LdpMplsRouter</text>
</a>
</g>
</g>
<!-- LDPTEST&#45;&gt;LdpMplsRouter -->
<g id="edge6" class="edge">
<title>LDPTEST&#45;&gt;LdpMplsRouter</title>
<path fill="none" stroke="black" d="M313.14,-55.57C346.81,-46.55 401.99,-31.78 439.95,-21.62"/>
<polygon fill="black" stroke="black" points="440.93,-24.98 449.68,-19.02 439.12,-18.22 440.93,-24.98"/>
</g>
</g>
</svg>
