<?xml version="1.0" encoding="UTF-8" standalone="no"?>
<!DOCTYPE svg PUBLIC "-//W3C//DTD SVG 1.1//EN"
 "http://www.w3.org/Graphics/SVG/1.1/DTD/svg11.dtd">
<!-- Generated by graphviz version 2.43.0 (0)
 -->
<!-- Title: opp Pages: 1 -->
<svg width="564pt" height="82pt"
 viewBox="0.00 0.00 564.00 82.00" xmlns="http://www.w3.org/2000/svg" xmlns:xlink="http://www.w3.org/1999/xlink">
<g id="graph0" class="graph" transform="scale(1 1) rotate(0) translate(4 78)">
<title>opp</title>
<polygon fill="transparent" stroke="transparent" points="-4,4 -4,-78 560,-78 560,4 -4,4"/>
<!-- MediumActivityDisplayingSignalsTransmissionsReceptionsShowcase -->
<g id="node1" class="node">
<title>MediumActivityDisplayingSignalsTransmissionsReceptionsShowcase</title>
<g id="a_node1"><a xlink:href="inet.showcases.visualizer.canvas.radiomediumactivity.MediumActivityDisplayingSignalsTransmissionsReceptionsShowcase.html" xlink:title="Network MediumActivityDisplayingSignalsTransmissionsReceptionsShowcase" target="_parent">
<polygon fill="#9090ff" stroke="black" points="419,-74 66,-74 66,-55 419,-55 419,-74"/>
<text text-anchor="middle" x="242.5" y="-62" font-family="Helvetica,sans-Serif" font-size="10.00">MediumActivityDisplayingSignalsTransmissionsReceptionsShowcase</text>
</a>
</g>
</g>
<!-- WirelessHost -->
<g id="node2" class="node">
<title>WirelessHost</title>
<g id="a_node2"><a xlink:href="inet.node.inet.WirelessHost.html" xlink:title="Compound Module WirelessHost" target="_parent">
<polygon fill="#fffcaf" stroke="black" points="81,-19 0,-19 0,0 81,0 81,-19"/>
<text text-anchor="middle" x="40.5" y="-7" font-family="Helvetica,sans-Serif" font-size="10.00">WirelessHost</text>
</a>
</g>
</g>
<!-- MediumActivityDisplayingSignalsTransmissionsReceptionsShowcase&#45;&gt;WirelessHost -->
<g id="edge1" class="edge">
<title>MediumActivityDisplayingSignalsTransmissionsReceptionsShowcase&#45;&gt;WirelessHost</title>
<path fill="none" stroke="black" d="M210.05,-54.98C175.54,-45.93 120.84,-31.58 82.94,-21.64"/>
<polygon fill="black" stroke="black" points="83.77,-18.23 73.21,-19.08 81.99,-25.01 83.77,-18.23"/>
</g>
<!-- Ipv4NetworkConfigurator -->
<g id="node3" class="node">
<title>Ipv4NetworkConfigurator</title>
<g id="a_node3"><a xlink:href="inet.networklayer.configurator.ipv4.Ipv4NetworkConfigurator.html" xlink:title="Simple Module Ipv4NetworkConfigurator" target="_parent">
<polygon fill="#fffcaf" stroke="black" points="239.5,-19 99.5,-19 99.5,0 239.5,0 239.5,-19"/>
<text text-anchor="middle" x="169.5" y="-7" font-family="Helvetica,sans-Serif" font-size="10.00">Ipv4NetworkConfigurator</text>
</a>
</g>
</g>
<!-- MediumActivityDisplayingSignalsTransmissionsReceptionsShowcase&#45;&gt;Ipv4NetworkConfigurator -->
<g id="edge2" class="edge">
<title>MediumActivityDisplayingSignalsTransmissionsReceptionsShowcase&#45;&gt;Ipv4NetworkConfigurator</title>
<path fill="none" stroke="black" d="M230.77,-54.98C219.77,-47 203.08,-34.88 189.9,-25.31"/>
<polygon fill="black" stroke="black" points="191.59,-22.21 181.44,-19.17 187.48,-27.88 191.59,-22.21"/>
</g>
<!-- IntegratedVisualizer -->
<g id="node4" class="node">
<title>IntegratedVisualizer</title>
<g id="a_node4"><a xlink:href="inet.visualizer.common.IntegratedVisualizer.html" xlink:title="Compound Module IntegratedVisualizer" target="_parent">
<polygon fill="#fffcaf" stroke="black" points="373,-19 258,-19 258,0 373,0 373,-19"/>
<text text-anchor="middle" x="315.5" y="-7" font-family="Helvetica,sans-Serif" font-size="10.00">IntegratedVisualizer</text>
</a>
</g>
</g>
<!-- MediumActivityDisplayingSignalsTransmissionsReceptionsShowcase&#45;&gt;IntegratedVisualizer -->
<g id="edge3" class="edge">
<title>MediumActivityDisplayingSignalsTransmissionsReceptionsShowcase&#45;&gt;IntegratedVisualizer</title>
<path fill="none" stroke="black" d="M254.23,-54.98C265.23,-47 281.92,-34.88 295.1,-25.31"/>
<polygon fill="black" stroke="black" points="297.52,-27.88 303.56,-19.17 293.41,-22.21 297.52,-27.88"/>
</g>
<!-- Ieee80211ScalarRadioMedium -->
<g id="node5" class="node">
<title>Ieee80211ScalarRadioMedium</title>
<g id="a_node5"><a xlink:href="inet.physicallayer.wireless.ieee80211.packetlevel.Ieee80211ScalarRadioMedium.html" xlink:title="Compound Module Ieee80211ScalarRadioMedium" target="_parent">
<polygon fill="#fffcaf" stroke="black" points="556,-19 391,-19 391,0 556,0 556,-19"/>
<text text-anchor="middle" x="473.5" y="-7" font-family="Helvetica,sans-Serif" font-size="10.00">Ieee80211ScalarRadioMedium</text>
</a>
</g>
</g>
<!-- MediumActivityDisplayingSignalsTransmissionsReceptionsShowcase&#45;&gt;Ieee80211ScalarRadioMedium -->
<g id="edge4" class="edge">
<title>MediumActivityDisplayingSignalsTransmissionsReceptionsShowcase&#45;&gt;Ieee80211ScalarRadioMedium</title>
<path fill="none" stroke="black" d="M279.61,-54.98C319.49,-45.84 382.96,-31.27 426.34,-21.32"/>
<polygon fill="black" stroke="black" points="427.13,-24.73 436.09,-19.08 425.57,-17.91 427.13,-24.73"/>
</g>
</g>
</svg>
