<?xml version="1.0" encoding="UTF-8" standalone="no"?>
<!DOCTYPE svg PUBLIC "-//W3C//DTD SVG 1.1//EN"
 "http://www.w3.org/Graphics/SVG/1.1/DTD/svg11.dtd">
<!-- Generated by graphviz version 2.43.0 (0)
 -->
<!-- Title: opp Pages: 1 -->
<svg width="349pt" height="82pt"
 viewBox="0.00 0.00 349.00 82.00" xmlns="http://www.w3.org/2000/svg" xmlns:xlink="http://www.w3.org/1999/xlink">
<g id="graph0" class="graph" transform="scale(1 1) rotate(0) translate(4 78)">
<title>opp</title>
<polygon fill="transparent" stroke="transparent" points="-4,4 -4,-78 345,-78 345,4 -4,4"/>
<!-- ResidenceTimeMeasurementShowcase -->
<g id="node1" class="node">
<title>ResidenceTimeMeasurementShowcase</title>
<g id="a_node1"><a xlink:href="inet.showcases.measurement.residencetime.ResidenceTimeMeasurementShowcase.html" xlink:title="Network ResidenceTimeMeasurementShowcase" target="_parent">
<polygon fill="#9090ff" stroke="black" points="277,-74 70,-74 70,-55 277,-55 277,-74"/>
<text text-anchor="middle" x="173.5" y="-62" font-family="Helvetica,sans-Serif" font-size="10.00">ResidenceTimeMeasurementShowcase</text>
</a>
</g>
</g>
<!-- StandardHost -->
<g id="node2" class="node">
<title>StandardHost</title>
<g id="a_node2"><a xlink:href="inet.node.inet.StandardHost.html" xlink:title="Compound Module StandardHost" target="_parent">
<polygon fill="#fffcaf" stroke="black" points="83,-19 0,-19 0,0 83,0 83,-19"/>
<text text-anchor="middle" x="41.5" y="-7" font-family="Helvetica,sans-Serif" font-size="10.00">StandardHost</text>
</a>
</g>
</g>
<!-- ResidenceTimeMeasurementShowcase&#45;&gt;StandardHost -->
<g id="edge1" class="edge">
<title>ResidenceTimeMeasurementShowcase&#45;&gt;StandardHost</title>
<path fill="none" stroke="black" d="M152.29,-54.98C130.77,-46.34 97.22,-32.87 72.67,-23.02"/>
<polygon fill="black" stroke="black" points="73.68,-19.65 63.09,-19.17 71.07,-26.14 73.68,-19.65"/>
</g>
<!-- Eth1G -->
<g id="node3" class="node">
<title>Eth1G</title>
<g id="a_node3"><a xlink:href="inet.node.ethernet.Eth1G.html" xlink:title="Channel Eth1G" target="_parent">
<polygon fill="#d0ffd0" stroke="black" points="155.5,-19 101.5,-19 101.5,0 155.5,0 155.5,-19"/>
<text text-anchor="middle" x="128.5" y="-7" font-family="Helvetica,sans-Serif" font-size="10.00">Eth1G</text>
</a>
</g>
</g>
<!-- ResidenceTimeMeasurementShowcase&#45;&gt;Eth1G -->
<g id="edge2" class="edge">
<title>ResidenceTimeMeasurementShowcase&#45;&gt;Eth1G</title>
<path fill="none" stroke="black" d="M166.07,-54.75C159.65,-47.18 150.19,-36.05 142.38,-26.84"/>
<polygon fill="black" stroke="black" points="144.93,-24.45 135.79,-19.09 139.6,-28.98 144.93,-24.45"/>
</g>
<!-- EthernetSwitch -->
<g id="node4" class="node">
<title>EthernetSwitch</title>
<g id="a_node4"><a xlink:href="inet.node.ethernet.EthernetSwitch.html" xlink:title="Compound Module EthernetSwitch" target="_parent">
<polygon fill="#fffcaf" stroke="black" points="263.5,-19 173.5,-19 173.5,0 263.5,0 263.5,-19"/>
<text text-anchor="middle" x="218.5" y="-7" font-family="Helvetica,sans-Serif" font-size="10.00">EthernetSwitch</text>
</a>
</g>
</g>
<!-- ResidenceTimeMeasurementShowcase&#45;&gt;EthernetSwitch -->
<g id="edge3" class="edge">
<title>ResidenceTimeMeasurementShowcase&#45;&gt;EthernetSwitch</title>
<path fill="none" stroke="black" d="M180.93,-54.75C187.35,-47.18 196.81,-36.05 204.62,-26.84"/>
<polygon fill="black" stroke="black" points="207.4,-28.98 211.21,-19.09 202.07,-24.45 207.4,-28.98"/>
</g>
<!-- Eth100M -->
<g id="node5" class="node">
<title>Eth100M</title>
<g id="a_node5"><a xlink:href="inet.node.ethernet.Eth100M.html" xlink:title="Channel Eth100M" target="_parent">
<polygon fill="#d0ffd0" stroke="black" points="341,-19 282,-19 282,0 341,0 341,-19"/>
<text text-anchor="middle" x="311.5" y="-7" font-family="Helvetica,sans-Serif" font-size="10.00">Eth100M</text>
</a>
</g>
</g>
<!-- ResidenceTimeMeasurementShowcase&#45;&gt;Eth100M -->
<g id="edge4" class="edge">
<title>ResidenceTimeMeasurementShowcase&#45;&gt;Eth100M</title>
<path fill="none" stroke="black" d="M195.67,-54.98C218.27,-46.3 253.56,-32.75 279.25,-22.88"/>
<polygon fill="black" stroke="black" points="280.84,-26.02 288.92,-19.17 278.33,-19.49 280.84,-26.02"/>
</g>
</g>
</svg>
