<?xml version="1.0" encoding="UTF-8" standalone="no"?>
<!DOCTYPE svg PUBLIC "-//W3C//DTD SVG 1.1//EN"
 "http://www.w3.org/Graphics/SVG/1.1/DTD/svg11.dtd">
<!-- Generated by graphviz version 2.43.0 (0)
 -->
<!-- Title: opp Pages: 1 -->
<svg width="529pt" height="82pt"
 viewBox="0.00 0.00 529.00 82.00" xmlns="http://www.w3.org/2000/svg" xmlns:xlink="http://www.w3.org/1999/xlink">
<g id="graph0" class="graph" transform="scale(1 1) rotate(0) translate(4 78)">
<title>opp</title>
<polygon fill="transparent" stroke="transparent" points="-4,4 -4,-78 525,-78 525,4 -4,4"/>
<!-- RedDropperTutorialStep -->
<g id="node1" class="node">
<title>RedDropperTutorialStep</title>
<g id="a_node1"><a xlink:href="inet.tutorials.queueing.RedDropperTutorialStep.html" xlink:title="Network RedDropperTutorialStep" target="_parent">
<polygon fill="#9090ff" stroke="black" points="335.5,-74 203.5,-74 203.5,-55 335.5,-55 335.5,-74"/>
<text text-anchor="middle" x="269.5" y="-62" font-family="Helvetica,sans-Serif" font-size="10.00">RedDropperTutorialStep</text>
</a>
</g>
</g>
<!-- ActivePacketSource -->
<g id="node2" class="node">
<title>ActivePacketSource</title>
<g id="a_node2"><a xlink:href="inet.queueing.source.ActivePacketSource.html" xlink:title="Simple Module ActivePacketSource" target="_parent">
<polygon fill="#fffcaf" stroke="black" points="113,-19 0,-19 0,0 113,0 113,-19"/>
<text text-anchor="middle" x="56.5" y="-7" font-family="Helvetica,sans-Serif" font-size="10.00">ActivePacketSource</text>
</a>
</g>
</g>
<!-- RedDropperTutorialStep&#45;&gt;ActivePacketSource -->
<g id="edge1" class="edge">
<title>RedDropperTutorialStep&#45;&gt;ActivePacketSource</title>
<path fill="none" stroke="black" d="M235.28,-54.98C198.74,-45.89 140.72,-31.46 100.74,-21.51"/>
<polygon fill="black" stroke="black" points="101.54,-18.1 90.99,-19.08 99.85,-24.89 101.54,-18.1"/>
</g>
<!-- IdealChannel -->
<g id="node3" class="node">
<title>IdealChannel</title>
<g id="a_node3"><a xlink:href="ned.IdealChannel.html" xlink:title="Channel IdealChannel" target="_parent">
<polygon fill="#d0ffd0" stroke="black" points="211.5,-19 131.5,-19 131.5,0 211.5,0 211.5,-19"/>
<text text-anchor="middle" x="171.5" y="-7" font-family="Helvetica,sans-Serif" font-size="10.00">IdealChannel</text>
</a>
</g>
</g>
<!-- RedDropperTutorialStep&#45;&gt;IdealChannel -->
<g id="edge2" class="edge">
<title>RedDropperTutorialStep&#45;&gt;IdealChannel</title>
<path fill="none" stroke="black" d="M253.75,-54.98C238.27,-46.61 214.41,-33.7 196.36,-23.95"/>
<polygon fill="black" stroke="black" points="197.99,-20.85 187.53,-19.17 194.66,-27.01 197.99,-20.85"/>
</g>
<!-- PacketQueue -->
<g id="node4" class="node">
<title>PacketQueue</title>
<g id="a_node4"><a xlink:href="inet.queueing.queue.PacketQueue.html" xlink:title="Simple Module PacketQueue" target="_parent">
<polygon fill="#fffcaf" stroke="black" points="309.5,-19 229.5,-19 229.5,0 309.5,0 309.5,-19"/>
<text text-anchor="middle" x="269.5" y="-7" font-family="Helvetica,sans-Serif" font-size="10.00">PacketQueue</text>
</a>
</g>
</g>
<!-- RedDropperTutorialStep&#45;&gt;PacketQueue -->
<g id="edge3" class="edge">
<title>RedDropperTutorialStep&#45;&gt;PacketQueue</title>
<path fill="none" stroke="black" d="M269.5,-54.75C269.5,-47.8 269.5,-37.85 269.5,-29.13"/>
<polygon fill="black" stroke="black" points="273,-29.09 269.5,-19.09 266,-29.09 273,-29.09"/>
</g>
<!-- RedDropper -->
<g id="node5" class="node">
<title>RedDropper</title>
<g id="a_node5"><a xlink:href="inet.queueing.filter.RedDropper.html" xlink:title="Simple Module RedDropper" target="_parent">
<polygon fill="#fffcaf" stroke="black" points="401.5,-19 327.5,-19 327.5,0 401.5,0 401.5,-19"/>
<text text-anchor="middle" x="364.5" y="-7" font-family="Helvetica,sans-Serif" font-size="10.00">RedDropper</text>
</a>
</g>
</g>
<!-- RedDropperTutorialStep&#45;&gt;RedDropper -->
<g id="edge4" class="edge">
<title>RedDropperTutorialStep&#45;&gt;RedDropper</title>
<path fill="none" stroke="black" d="M284.76,-54.98C299.63,-46.69 322.48,-33.94 339.92,-24.22"/>
<polygon fill="black" stroke="black" points="341.93,-27.1 348.96,-19.17 338.52,-20.99 341.93,-27.1"/>
</g>
<!-- ActivePacketSink -->
<g id="node6" class="node">
<title>ActivePacketSink</title>
<g id="a_node6"><a xlink:href="inet.queueing.sink.ActivePacketSink.html" xlink:title="Simple Module ActivePacketSink" target="_parent">
<polygon fill="#fffcaf" stroke="black" points="521,-19 420,-19 420,0 521,0 521,-19"/>
<text text-anchor="middle" x="470.5" y="-7" font-family="Helvetica,sans-Serif" font-size="10.00">ActivePacketSink</text>
</a>
</g>
</g>
<!-- RedDropperTutorialStep&#45;&gt;ActivePacketSink -->
<g id="edge5" class="edge">
<title>RedDropperTutorialStep&#45;&gt;ActivePacketSink</title>
<path fill="none" stroke="black" d="M301.79,-54.98C336.12,-45.93 390.56,-31.58 428.27,-21.64"/>
<polygon fill="black" stroke="black" points="429.18,-25.02 437.95,-19.08 427.39,-18.25 429.18,-25.02"/>
</g>
</g>
</svg>
