<?xml version="1.0" encoding="UTF-8" standalone="no"?>
<!DOCTYPE svg PUBLIC "-//W3C//DTD SVG 1.1//EN"
 "http://www.w3.org/Graphics/SVG/1.1/DTD/svg11.dtd">
<!-- Generated by graphviz version 2.43.0 (0)
 -->
<!-- Title: opp Pages: 1 -->
<svg width="3945pt" height="137pt"
 viewBox="0.00 0.00 3944.50 137.00" xmlns="http://www.w3.org/2000/svg" xmlns:xlink="http://www.w3.org/1999/xlink">
<g id="graph0" class="graph" transform="scale(1 1) rotate(0) translate(4 133)">
<title>opp</title>
<polygon fill="transparent" stroke="transparent" points="-4,4 -4,-133 3940.5,-133 3940.5,4 -4,4"/>
<!-- AccessPoint -->
<g id="node1" class="node">
<title>AccessPoint</title>
<g id="a_node1"><a xlink:href="inet.node.wireless.AccessPoint.html" xlink:title="Compound Module AccessPoint" target="_parent">
<polygon fill="#fff700" stroke="black" points="2264,-74 2189,-74 2189,-55 2264,-55 2264,-74"/>
<text text-anchor="middle" x="2226.5" y="-62" font-family="Helvetica,sans-Serif" font-size="10.00">AccessPoint</text>
</a>
</g>
</g>
<!-- InterfaceTable -->
<g id="node2" class="node">
<title>InterfaceTable</title>
<g id="a_node2"><a xlink:href="inet.networklayer.common.InterfaceTable.html" xlink:title="Simple Module InterfaceTable" target="_parent">
<polygon fill="#fffcaf" stroke="black" points="1760.5,-19 1674.5,-19 1674.5,0 1760.5,0 1760.5,-19"/>
<text text-anchor="middle" x="1717.5" y="-7" font-family="Helvetica,sans-Serif" font-size="10.00">InterfaceTable</text>
</a>
</g>
</g>
<!-- AccessPoint&#45;&gt;InterfaceTable -->
<g id="edge1" class="edge">
<title>AccessPoint&#45;&gt;InterfaceTable</title>
<path fill="none" stroke="black" d="M2188.79,-60.66C2112.09,-54.71 1932.21,-39.84 1770.72,-19.08"/>
<polygon fill="black" stroke="black" points="1770.97,-15.58 1760.6,-17.77 1770.07,-22.52 1770.97,-15.58"/>
</g>
<!-- IWirelessInterface -->
<g id="node3" class="node">
<title>IWirelessInterface</title>
<g id="a_node3"><a xlink:href="inet.linklayer.contract.IWirelessInterface.html" xlink:title="Module Interface IWirelessInterface" target="_parent">
<polygon fill="#fffcaf" stroke="black" stroke-dasharray="5,2" points="1884,-19 1779,-19 1779,0 1884,0 1884,-19"/>
<text text-anchor="middle" x="1831.5" y="-7" font-family="Helvetica,sans-Serif" font-size="10.00">IWirelessInterface</text>
</a>
</g>
</g>
<!-- AccessPoint&#45;&gt;IWirelessInterface -->
<g id="edge2" class="edge">
<title>AccessPoint&#45;&gt;IWirelessInterface</title>
<path fill="none" stroke="black" d="M2188.54,-58.47C2128.53,-50.51 2007.77,-34.45 1894.5,-19.13"/>
<polygon fill="black" stroke="black" points="1894.64,-15.62 1884.26,-17.75 1893.7,-22.56 1894.64,-15.62"/>
</g>
<!-- IdealChannel -->
<g id="node4" class="node">
<title>IdealChannel</title>
<g id="a_node4"><a xlink:href="ned.IdealChannel.html" xlink:title="Channel IdealChannel" target="_parent">
<polygon fill="#d0ffd0" stroke="black" points="1982.5,-19 1902.5,-19 1902.5,0 1982.5,0 1982.5,-19"/>
<text text-anchor="middle" x="1942.5" y="-7" font-family="Helvetica,sans-Serif" font-size="10.00">IdealChannel</text>
</a>
</g>
</g>
<!-- AccessPoint&#45;&gt;IdealChannel -->
<g id="edge3" class="edge">
<title>AccessPoint&#45;&gt;IdealChannel</title>
<path fill="none" stroke="black" d="M2188.79,-56.46C2138.36,-47.05 2048.83,-30.34 1992.73,-19.87"/>
<polygon fill="black" stroke="black" points="1993.13,-16.39 1982.66,-17.99 1991.85,-23.27 1993.13,-16.39"/>
</g>
<!-- IEthernetLayer -->
<g id="node5" class="node">
<title>IEthernetLayer</title>
<g id="a_node5"><a xlink:href="inet.linklayer.ethernet.contract.IEthernetLayer.html" xlink:title="Module Interface IEthernetLayer" target="_parent">
<polygon fill="#fffcaf" stroke="black" stroke-dasharray="5,2" points="2088.5,-19 2000.5,-19 2000.5,0 2088.5,0 2088.5,-19"/>
<text text-anchor="middle" x="2044.5" y="-7" font-family="Helvetica,sans-Serif" font-size="10.00">IEthernetLayer</text>
</a>
</g>
</g>
<!-- AccessPoint&#45;&gt;IEthernetLayer -->
<g id="edge4" class="edge">
<title>AccessPoint&#45;&gt;IEthernetLayer</title>
<path fill="none" stroke="black" d="M2197.26,-54.98C2166.44,-46.01 2117.72,-31.82 2083.61,-21.89"/>
<polygon fill="black" stroke="black" points="2084.55,-18.52 2073.97,-19.08 2082.59,-25.24 2084.55,-18.52"/>
</g>
<!-- MessageDispatcher -->
<g id="node6" class="node">
<title>MessageDispatcher</title>
<g id="a_node6"><a xlink:href="inet.common.MessageDispatcher.html" xlink:title="Simple Module MessageDispatcher" target="_parent">
<polygon fill="#fffcaf" stroke="black" points="2220,-19 2107,-19 2107,0 2220,0 2220,-19"/>
<text text-anchor="middle" x="2163.5" y="-7" font-family="Helvetica,sans-Serif" font-size="10.00">MessageDispatcher</text>
</a>
</g>
</g>
<!-- AccessPoint&#45;&gt;MessageDispatcher -->
<g id="edge5" class="edge">
<title>AccessPoint&#45;&gt;MessageDispatcher</title>
<path fill="none" stroke="black" d="M2216.38,-54.98C2207.06,-47.15 2193.03,-35.34 2181.76,-25.86"/>
<polygon fill="black" stroke="black" points="2183.71,-22.93 2173.81,-19.17 2179.21,-28.29 2183.71,-22.93"/>
</g>
<!-- IEthernetInterface -->
<g id="node7" class="node">
<title>IEthernetInterface</title>
<g id="a_node7"><a xlink:href="inet.linklayer.contract.IEthernetInterface.html" xlink:title="Module Interface IEthernetInterface" target="_parent">
<polygon fill="#fffcaf" stroke="black" stroke-dasharray="5,2" points="2342.5,-19 2238.5,-19 2238.5,0 2342.5,0 2342.5,-19"/>
<text text-anchor="middle" x="2290.5" y="-7" font-family="Helvetica,sans-Serif" font-size="10.00">IEthernetInterface</text>
</a>
</g>
</g>
<!-- AccessPoint&#45;&gt;IEthernetInterface -->
<g id="edge6" class="edge">
<title>AccessPoint&#45;&gt;IEthernetInterface</title>
<path fill="none" stroke="black" d="M2236.78,-54.98C2246.34,-47.07 2260.78,-35.11 2272.28,-25.58"/>
<polygon fill="black" stroke="black" points="2274.56,-28.24 2280.03,-19.17 2270.1,-22.85 2274.56,-28.24"/>
</g>
<!-- IMacForwardingTable -->
<g id="node8" class="node">
<title>IMacForwardingTable</title>
<g id="a_node8"><a xlink:href="inet.linklayer.contract.IMacForwardingTable.html" xlink:title="Module Interface IMacForwardingTable" target="_parent">
<polygon fill="#fffcaf" stroke="black" stroke-dasharray="5,2" points="2480,-19 2361,-19 2361,0 2480,0 2480,-19"/>
<text text-anchor="middle" x="2420.5" y="-7" font-family="Helvetica,sans-Serif" font-size="10.00">IMacForwardingTable</text>
</a>
</g>
</g>
<!-- AccessPoint&#45;&gt;IMacForwardingTable -->
<g id="edge7" class="edge">
<title>AccessPoint&#45;&gt;IMacForwardingTable</title>
<path fill="none" stroke="black" d="M2257.67,-54.98C2290.66,-45.97 2342.9,-31.7 2379.27,-21.76"/>
<polygon fill="black" stroke="black" points="2380.36,-25.09 2389.09,-19.08 2378.52,-18.34 2380.36,-25.09"/>
</g>
<!-- IMobility -->
<g id="node9" class="node">
<title>IMobility</title>
<g id="a_node9"><a xlink:href="inet.mobility.contract.IMobility.html" xlink:title="Module Interface IMobility" target="_parent">
<polygon fill="#fffcaf" stroke="black" stroke-dasharray="5,2" points="2557,-19 2498,-19 2498,0 2557,0 2557,-19"/>
<text text-anchor="middle" x="2527.5" y="-7" font-family="Helvetica,sans-Serif" font-size="10.00">IMobility</text>
</a>
</g>
</g>
<!-- AccessPoint&#45;&gt;IMobility -->
<g id="edge8" class="edge">
<title>AccessPoint&#45;&gt;IMobility</title>
<path fill="none" stroke="black" d="M2264.07,-57.78C2313.31,-50.14 2402.58,-35.81 2487.83,-19.25"/>
<polygon fill="black" stroke="black" points="2488.52,-22.68 2497.66,-17.33 2487.17,-15.82 2488.52,-22.68"/>
</g>
<!-- IMacRelayUnit -->
<g id="node10" class="node">
<title>IMacRelayUnit</title>
<g id="a_node10"><a xlink:href="inet.linklayer.contract.IMacRelayUnit.html" xlink:title="Module Interface IMacRelayUnit" target="_parent">
<polygon fill="#fffcaf" stroke="black" stroke-dasharray="5,2" points="2663.5,-19 2575.5,-19 2575.5,0 2663.5,0 2663.5,-19"/>
<text text-anchor="middle" x="2619.5" y="-7" font-family="Helvetica,sans-Serif" font-size="10.00">IMacRelayUnit</text>
</a>
</g>
</g>
<!-- AccessPoint&#45;&gt;IMacRelayUnit -->
<g id="edge9" class="edge">
<title>AccessPoint&#45;&gt;IMacRelayUnit</title>
<path fill="none" stroke="black" d="M2264.03,-58.95C2324.97,-51.48 2449.47,-35.89 2565.18,-19.16"/>
<polygon fill="black" stroke="black" points="2565.88,-22.59 2575.27,-17.69 2564.87,-15.67 2565.88,-22.59"/>
</g>
<!-- NodeStatus -->
<g id="node11" class="node">
<title>NodeStatus</title>
<g id="a_node11"><a xlink:href="inet.common.lifecycle.NodeStatus.html" xlink:title="Simple Module NodeStatus" target="_parent">
<polygon fill="#fffcaf" stroke="black" points="2755,-19 2682,-19 2682,0 2755,0 2755,-19"/>
<text text-anchor="middle" x="2718.5" y="-7" font-family="Helvetica,sans-Serif" font-size="10.00">NodeStatus</text>
</a>
</g>
</g>
<!-- AccessPoint&#45;&gt;NodeStatus -->
<g id="edge10" class="edge">
<title>AccessPoint&#45;&gt;NodeStatus</title>
<path fill="none" stroke="black" d="M2264.22,-60.8C2339.55,-55.19 2514.17,-41.02 2671.55,-19.01"/>
<polygon fill="black" stroke="black" points="2672.47,-22.41 2681.89,-17.55 2671.5,-15.48 2672.47,-22.41"/>
</g>
<!-- AnnotationShowcase -->
<g id="node12" class="node">
<title>AnnotationShowcase</title>
<g id="a_node12"><a xlink:href="inet.showcases.visualizer.canvas.styling.AnnotationShowcase.html" xlink:title="Network AnnotationShowcase" target="_parent">
<polygon fill="#d0d0ff" stroke="black" points="119,-129 0,-129 0,-110 119,-110 119,-129"/>
<text text-anchor="middle" x="59.5" y="-117" font-family="Helvetica,sans-Serif" font-size="10.00">AnnotationShowcase</text>
</a>
</g>
</g>
<!-- AnnotationShowcase&#45;&gt;AccessPoint -->
<g id="edge11" class="edge">
<title>AnnotationShowcase&#45;&gt;AccessPoint</title>
<path fill="none" stroke="black" d="M119.3,-110.76C122.41,-110.47 125.49,-110.22 128.5,-110 546.25,-79.92 1906.02,-67.97 2178.65,-65.85"/>
<polygon fill="black" stroke="black" points="2179.02,-69.35 2188.99,-65.77 2178.96,-62.35 2179.02,-69.35"/>
</g>
<!-- ConfiguratorC -->
<g id="node13" class="node">
<title>ConfiguratorC</title>
<g id="a_node13"><a xlink:href="inet.tutorials.configurator.ConfiguratorC.html" xlink:title="Network ConfiguratorC" target="_parent">
<polygon fill="#d0d0ff" stroke="black" points="221.5,-129 137.5,-129 137.5,-110 221.5,-110 221.5,-129"/>
<text text-anchor="middle" x="179.5" y="-117" font-family="Helvetica,sans-Serif" font-size="10.00">ConfiguratorC</text>
</a>
</g>
</g>
<!-- ConfiguratorC&#45;&gt;AccessPoint -->
<g id="edge12" class="edge">
<title>ConfiguratorC&#45;&gt;AccessPoint</title>
<path fill="none" stroke="black" d="M221.74,-110.98C224.7,-110.6 227.64,-110.27 230.5,-110 626.17,-72.81 1914.52,-66.54 2178.84,-65.64"/>
<polygon fill="black" stroke="black" points="2178.9,-69.14 2188.88,-65.6 2178.87,-62.14 2178.9,-69.14"/>
</g>
<!-- ConfiguratorE -->
<g id="node14" class="node">
<title>ConfiguratorE</title>
<g id="a_node14"><a xlink:href="inet.tutorials.configurator.ConfiguratorE.html" xlink:title="Network ConfiguratorE" target="_parent">
<polygon fill="#d0d0ff" stroke="black" points="323,-129 240,-129 240,-110 323,-110 323,-129"/>
<text text-anchor="middle" x="281.5" y="-117" font-family="Helvetica,sans-Serif" font-size="10.00">ConfiguratorE</text>
</a>
</g>
</g>
<!-- ConfiguratorE&#45;&gt;AccessPoint -->
<g id="edge13" class="edge">
<title>ConfiguratorE&#45;&gt;AccessPoint</title>
<path fill="none" stroke="black" d="M323.18,-110.95C325.99,-110.58 328.78,-110.26 331.5,-110 705.88,-73.97 1922.51,-66.8 2178.83,-65.68"/>
<polygon fill="black" stroke="black" points="2178.94,-69.18 2188.93,-65.64 2178.91,-62.18 2178.94,-69.18"/>
</g>
<!-- HandoverNetwork -->
<g id="node15" class="node">
<title>HandoverNetwork</title>
<g id="a_node15"><a xlink:href="inet.examples.wireless.handover.HandoverNetwork.html" xlink:title="Network HandoverNetwork" target="_parent">
<polygon fill="#d0d0ff" stroke="black" points="446,-129 341,-129 341,-110 446,-110 446,-129"/>
<text text-anchor="middle" x="393.5" y="-117" font-family="Helvetica,sans-Serif" font-size="10.00">HandoverNetwork</text>
</a>
</g>
</g>
<!-- HandoverNetwork&#45;&gt;AccessPoint -->
<g id="edge14" class="edge">
<title>HandoverNetwork&#45;&gt;AccessPoint</title>
<path fill="none" stroke="black" d="M446.03,-110.8C448.89,-110.5 451.73,-110.23 454.5,-110 803.54,-81.39 1932.64,-68.48 2178.82,-65.97"/>
<polygon fill="black" stroke="black" points="2178.91,-69.46 2188.88,-65.86 2178.84,-62.46 2178.91,-69.46"/>
</g>
<!-- HandoverShowcase -->
<g id="node16" class="node">
<title>HandoverShowcase</title>
<g id="a_node16"><a xlink:href="inet.showcases.wireless.handover.HandoverShowcase.html" xlink:title="Network HandoverShowcase" target="_parent">
<polygon fill="#d0d0ff" stroke="black" points="577,-129 464,-129 464,-110 577,-110 577,-129"/>
<text text-anchor="middle" x="520.5" y="-117" font-family="Helvetica,sans-Serif" font-size="10.00">HandoverShowcase</text>
</a>
</g>
</g>
<!-- HandoverShowcase&#45;&gt;AccessPoint -->
<g id="edge15" class="edge">
<title>HandoverShowcase&#45;&gt;AccessPoint</title>
<path fill="none" stroke="black" d="M577.18,-110.74C579.99,-110.46 582.78,-110.21 585.5,-110 907.12,-84.68 1943.29,-69.34 2178.64,-66.13"/>
<polygon fill="black" stroke="black" points="2178.97,-69.63 2188.92,-65.99 2178.87,-62.63 2178.97,-69.63"/>
</g>
<!-- Ieee80211VisualizationAdvancedFeaturesShowcase -->
<g id="node17" class="node">
<title>Ieee80211VisualizationAdvancedFeaturesShowcase</title>
<g id="a_node17"><a xlink:href="inet.showcases.visualizer.canvas.ieee80211.Ieee80211VisualizationAdvancedFeaturesShowcase.html" xlink:title="Network Ieee80211VisualizationAdvancedFeaturesShowcase" target="_parent">
<polygon fill="#d0d0ff" stroke="black" points="864,-129 595,-129 595,-110 864,-110 864,-129"/>
<text text-anchor="middle" x="729.5" y="-117" font-family="Helvetica,sans-Serif" font-size="10.00">Ieee80211VisualizationAdvancedFeaturesShowcase</text>
</a>
</g>
</g>
<!-- Ieee80211VisualizationAdvancedFeaturesShowcase&#45;&gt;AccessPoint -->
<g id="edge16" class="edge">
<title>Ieee80211VisualizationAdvancedFeaturesShowcase&#45;&gt;AccessPoint</title>
<path fill="none" stroke="black" d="M864.22,-110.39C867.01,-110.26 869.77,-110.13 872.5,-110 1383.64,-86.41 2003.89,-70.78 2178.65,-66.61"/>
<polygon fill="black" stroke="black" points="2178.88,-70.11 2188.79,-66.37 2178.71,-63.11 2178.88,-70.11"/>
</g>
<!-- Ieee80211VisualizationDisplayingAssociationsShowcase -->
<g id="node18" class="node">
<title>Ieee80211VisualizationDisplayingAssociationsShowcase</title>
<g id="a_node18"><a xlink:href="inet.showcases.visualizer.canvas.ieee80211.Ieee80211VisualizationDisplayingAssociationsShowcase.html" xlink:title="Network Ieee80211VisualizationDisplayingAssociationsShowcase" target="_parent">
<polygon fill="#d0d0ff" stroke="black" points="1175,-129 882,-129 882,-110 1175,-110 1175,-129"/>
<text text-anchor="middle" x="1028.5" y="-117" font-family="Helvetica,sans-Serif" font-size="10.00">Ieee80211VisualizationDisplayingAssociationsShowcase</text>
</a>
</g>
</g>
<!-- Ieee80211VisualizationDisplayingAssociationsShowcase&#45;&gt;AccessPoint -->
<g id="edge17" class="edge">
<title>Ieee80211VisualizationDisplayingAssociationsShowcase&#45;&gt;AccessPoint</title>
<path fill="none" stroke="black" d="M1175.35,-110.4C1178.09,-110.27 1180.81,-110.13 1183.5,-110 1567.12,-91.3 2030.33,-73.07 2178.49,-67.34"/>
<polygon fill="black" stroke="black" points="2178.75,-70.83 2188.61,-66.95 2178.48,-63.84 2178.75,-70.83"/>
</g>
<!-- Ieee80211VisualizationSignalLevelsShowcase -->
<g id="node19" class="node">
<title>Ieee80211VisualizationSignalLevelsShowcase</title>
<g id="a_node19"><a xlink:href="inet.showcases.visualizer.canvas.ieee80211.Ieee80211VisualizationSignalLevelsShowcase.html" xlink:title="Network Ieee80211VisualizationSignalLevelsShowcase" target="_parent">
<polygon fill="#d0d0ff" stroke="black" points="1434,-129 1193,-129 1193,-110 1434,-110 1434,-129"/>
<text text-anchor="middle" x="1313.5" y="-117" font-family="Helvetica,sans-Serif" font-size="10.00">Ieee80211VisualizationSignalLevelsShowcase</text>
</a>
</g>
</g>
<!-- Ieee80211VisualizationSignalLevelsShowcase&#45;&gt;AccessPoint -->
<g id="edge18" class="edge">
<title>Ieee80211VisualizationSignalLevelsShowcase&#45;&gt;AccessPoint</title>
<path fill="none" stroke="black" d="M1434.25,-110.57C1437.36,-110.38 1440.45,-110.19 1443.5,-110 1721.8,-92.99 2055.89,-74.72 2178.43,-68.09"/>
<polygon fill="black" stroke="black" points="2178.81,-71.57 2188.6,-67.54 2178.43,-64.58 2178.81,-71.57"/>
</g>
<!-- Ieee80211VisualizationVisualizingHandoverShowcase -->
<g id="node20" class="node">
<title>Ieee80211VisualizationVisualizingHandoverShowcase</title>
<g id="a_node20"><a xlink:href="inet.showcases.visualizer.canvas.ieee80211.Ieee80211VisualizationVisualizingHandoverShowcase.html" xlink:title="Network Ieee80211VisualizationVisualizingHandoverShowcase" target="_parent">
<polygon fill="#d0d0ff" stroke="black" points="1732.5,-129 1452.5,-129 1452.5,-110 1732.5,-110 1732.5,-129"/>
<text text-anchor="middle" x="1592.5" y="-117" font-family="Helvetica,sans-Serif" font-size="10.00">Ieee80211VisualizationVisualizingHandoverShowcase</text>
</a>
</g>
</g>
<!-- Ieee80211VisualizationVisualizingHandoverShowcase&#45;&gt;AccessPoint -->
<g id="edge19" class="edge">
<title>Ieee80211VisualizationVisualizingHandoverShowcase&#45;&gt;AccessPoint</title>
<path fill="none" stroke="black" d="M1694.36,-109.98C1833.28,-98.37 2076.57,-78.03 2178.95,-69.47"/>
<polygon fill="black" stroke="black" points="2179.32,-72.96 2188.99,-68.64 2178.74,-65.98 2179.32,-72.96"/>
</g>
<!-- InterfaceTableVisualizationAdvancedFeaturesShowcase -->
<g id="node21" class="node">
<title>InterfaceTableVisualizationAdvancedFeaturesShowcase</title>
<g id="a_node21"><a xlink:href="inet.showcases.visualizer.canvas.interfacetable.InterfaceTableVisualizationAdvancedFeaturesShowcase.html" xlink:title="Network InterfaceTableVisualizationAdvancedFeaturesShowcase" target="_parent">
<polygon fill="#d0d0ff" stroke="black" points="2038,-129 1751,-129 1751,-110 2038,-110 2038,-129"/>
<text text-anchor="middle" x="1894.5" y="-117" font-family="Helvetica,sans-Serif" font-size="10.00">InterfaceTableVisualizationAdvancedFeaturesShowcase</text>
</a>
</g>
</g>
<!-- InterfaceTableVisualizationAdvancedFeaturesShowcase&#45;&gt;AccessPoint -->
<g id="edge20" class="edge">
<title>InterfaceTableVisualizationAdvancedFeaturesShowcase&#45;&gt;AccessPoint</title>
<path fill="none" stroke="black" d="M1947.84,-109.98C2011.61,-99.81 2117.36,-82.92 2178.61,-73.14"/>
<polygon fill="black" stroke="black" points="2179.46,-76.55 2188.78,-71.52 2178.35,-69.64 2179.46,-76.55"/>
</g>
<!-- Lan80211 -->
<g id="node22" class="node">
<title>Lan80211</title>
<g id="a_node22"><a xlink:href="inet.examples.wireless.lan80211.Lan80211.html" xlink:title="Network Lan80211" target="_parent">
<polygon fill="#d0d0ff" stroke="black" points="2120.5,-129 2056.5,-129 2056.5,-110 2120.5,-110 2120.5,-129"/>
<text text-anchor="middle" x="2088.5" y="-117" font-family="Helvetica,sans-Serif" font-size="10.00">Lan80211</text>
</a>
</g>
</g>
<!-- Lan80211&#45;&gt;AccessPoint -->
<g id="edge21" class="edge">
<title>Lan80211&#45;&gt;AccessPoint</title>
<path fill="none" stroke="black" d="M2110.67,-109.98C2133.27,-101.3 2168.56,-87.75 2194.25,-77.88"/>
<polygon fill="black" stroke="black" points="2195.84,-81.02 2203.92,-74.17 2193.33,-74.49 2195.84,-81.02"/>
</g>
<!-- Lan80211ac -->
<g id="node23" class="node">
<title>Lan80211ac</title>
<g id="a_node23"><a xlink:href="inet.examples.wireless.lan80211ac.Lan80211ac.html" xlink:title="Network Lan80211ac" target="_parent">
<polygon fill="#d0d0ff" stroke="black" points="2214,-129 2139,-129 2139,-110 2214,-110 2214,-129"/>
<text text-anchor="middle" x="2176.5" y="-117" font-family="Helvetica,sans-Serif" font-size="10.00">Lan80211ac</text>
</a>
</g>
</g>
<!-- Lan80211ac&#45;&gt;AccessPoint -->
<g id="edge22" class="edge">
<title>Lan80211ac&#45;&gt;AccessPoint</title>
<path fill="none" stroke="black" d="M2184.76,-109.75C2191.96,-102.11 2202.61,-90.82 2211.35,-81.56"/>
<polygon fill="black" stroke="black" points="2214.08,-83.76 2218.4,-74.09 2208.99,-78.96 2214.08,-83.76"/>
</g>
<!-- mIPv6Network -->
<g id="node24" class="node">
<title>mIPv6Network</title>
<g id="a_node24"><a xlink:href="inet.examples.mobileipv6.mIPv6Network.html" xlink:title="Network mIPv6Network" target="_parent">
<polygon fill="#d0d0ff" stroke="black" points="2321,-129 2232,-129 2232,-110 2321,-110 2321,-129"/>
<text text-anchor="middle" x="2276.5" y="-117" font-family="Helvetica,sans-Serif" font-size="10.00">mIPv6Network</text>
</a>
</g>
</g>
<!-- mIPv6Network&#45;&gt;AccessPoint -->
<g id="edge23" class="edge">
<title>mIPv6Network&#45;&gt;AccessPoint</title>
<path fill="none" stroke="black" d="M2268.24,-109.75C2261.04,-102.11 2250.39,-90.82 2241.65,-81.56"/>
<polygon fill="black" stroke="black" points="2244.01,-78.96 2234.6,-74.09 2238.92,-83.76 2244.01,-78.96"/>
</g>
<!-- MultiRadio -->
<g id="node25" class="node">
<title>MultiRadio</title>
<g id="a_node25"><a xlink:href="inet.examples.wireless.multiradio.MultiRadio.html" xlink:title="Network MultiRadio" target="_parent">
<polygon fill="#d0d0ff" stroke="black" points="2408,-129 2339,-129 2339,-110 2408,-110 2408,-129"/>
<text text-anchor="middle" x="2373.5" y="-117" font-family="Helvetica,sans-Serif" font-size="10.00">MultiRadio</text>
</a>
</g>
</g>
<!-- MultiRadio&#45;&gt;AccessPoint -->
<g id="edge24" class="edge">
<title>MultiRadio&#45;&gt;AccessPoint</title>
<path fill="none" stroke="black" d="M2349.88,-109.98C2325.6,-101.23 2287.55,-87.51 2260.13,-77.62"/>
<polygon fill="black" stroke="black" points="2261.14,-74.27 2250.55,-74.17 2258.77,-80.85 2261.14,-74.27"/>
</g>
<!-- MultiRadioShowcase -->
<g id="node26" class="node">
<title>MultiRadioShowcase</title>
<g id="a_node26"><a xlink:href="inet.showcases.wireless.multiradio.MultiRadioShowcase.html" xlink:title="Network MultiRadioShowcase" target="_parent">
<polygon fill="#d0d0ff" stroke="black" points="2544.5,-129 2426.5,-129 2426.5,-110 2544.5,-110 2544.5,-129"/>
<text text-anchor="middle" x="2485.5" y="-117" font-family="Helvetica,sans-Serif" font-size="10.00">MultiRadioShowcase</text>
</a>
</g>
</g>
<!-- MultiRadioShowcase&#45;&gt;AccessPoint -->
<g id="edge25" class="edge">
<title>MultiRadioShowcase&#45;&gt;AccessPoint</title>
<path fill="none" stroke="black" d="M2443.89,-109.98C2397.56,-100.51 2322.83,-85.21 2274.18,-75.26"/>
<polygon fill="black" stroke="black" points="2274.72,-71.79 2264.22,-73.22 2273.31,-78.65 2274.72,-71.79"/>
</g>
<!-- NetworkPathRIPShowcase -->
<g id="node27" class="node">
<title>NetworkPathRIPShowcase</title>
<g id="a_node27"><a xlink:href="inet.showcases.visualizer.canvas.networkpathactivity.NetworkPathRIPShowcase.html" xlink:title="Network NetworkPathRIPShowcase" target="_parent">
<polygon fill="#d0d0ff" stroke="black" points="2706.5,-129 2562.5,-129 2562.5,-110 2706.5,-110 2706.5,-129"/>
<text text-anchor="middle" x="2634.5" y="-117" font-family="Helvetica,sans-Serif" font-size="10.00">NetworkPathRIPShowcase</text>
</a>
</g>
</g>
<!-- NetworkPathRIPShowcase&#45;&gt;AccessPoint -->
<g id="edge26" class="edge">
<title>NetworkPathRIPShowcase&#45;&gt;AccessPoint</title>
<path fill="none" stroke="black" d="M2568.95,-109.98C2486.61,-99.29 2347.3,-81.19 2274.33,-71.71"/>
<polygon fill="black" stroke="black" points="2274.43,-68.2 2264.06,-70.38 2273.53,-75.14 2274.43,-68.2"/>
</g>
<!-- PacketDropQueueOverflowShowcase -->
<g id="node28" class="node">
<title>PacketDropQueueOverflowShowcase</title>
<g id="a_node28"><a xlink:href="inet.showcases.visualizer.canvas.packetdrop.PacketDropQueueOverflowShowcase.html" xlink:title="Network PacketDropQueueOverflowShowcase" target="_parent">
<polygon fill="#d0d0ff" stroke="black" points="2922,-129 2725,-129 2725,-110 2922,-110 2922,-129"/>
<text text-anchor="middle" x="2823.5" y="-117" font-family="Helvetica,sans-Serif" font-size="10.00">PacketDropQueueOverflowShowcase</text>
</a>
</g>
</g>
<!-- PacketDropQueueOverflowShowcase&#45;&gt;AccessPoint -->
<g id="edge27" class="edge">
<title>PacketDropQueueOverflowShowcase&#45;&gt;AccessPoint</title>
<path fill="none" stroke="black" d="M2727.58,-109.98C2598.15,-98.49 2372.5,-78.46 2274.36,-69.75"/>
<polygon fill="black" stroke="black" points="2274.42,-66.24 2264.15,-68.84 2273.8,-73.21 2274.42,-66.24"/>
</g>
<!-- PhysicalLinkVisualizerFilteringShowcase -->
<g id="node29" class="node">
<title>PhysicalLinkVisualizerFilteringShowcase</title>
<g id="a_node29"><a xlink:href="inet.showcases.visualizer.canvas.physicallinkactivity.PhysicalLinkVisualizerFilteringShowcase.html" xlink:title="Network PhysicalLinkVisualizerFilteringShowcase" target="_parent">
<polygon fill="#d0d0ff" stroke="black" points="3153,-129 2940,-129 2940,-110 3153,-110 3153,-129"/>
<text text-anchor="middle" x="3046.5" y="-117" font-family="Helvetica,sans-Serif" font-size="10.00">PhysicalLinkVisualizerFilteringShowcase</text>
</a>
</g>
</g>
<!-- PhysicalLinkVisualizerFilteringShowcase&#45;&gt;AccessPoint -->
<g id="edge28" class="edge">
<title>PhysicalLinkVisualizerFilteringShowcase&#45;&gt;AccessPoint</title>
<path fill="none" stroke="black" d="M2939.99,-110.59C2937.13,-110.39 2934.3,-110.19 2931.5,-110 2684.41,-93.07 2388.45,-75.16 2274.47,-68.35"/>
<polygon fill="black" stroke="black" points="2274.53,-64.85 2264.34,-67.74 2274.11,-71.83 2274.53,-64.85"/>
</g>
<!-- QosShowcase -->
<g id="node30" class="node">
<title>QosShowcase</title>
<g id="a_node30"><a xlink:href="inet.showcases.wireless.qos.QosShowcase.html" xlink:title="Network QosShowcase" target="_parent">
<polygon fill="#d0d0ff" stroke="black" points="3254.5,-129 3170.5,-129 3170.5,-110 3254.5,-110 3254.5,-129"/>
<text text-anchor="middle" x="3212.5" y="-117" font-family="Helvetica,sans-Serif" font-size="10.00">QosShowcase</text>
</a>
</g>
</g>
<!-- QosShowcase&#45;&gt;AccessPoint -->
<g id="edge29" class="edge">
<title>QosShowcase&#45;&gt;AccessPoint</title>
<path fill="none" stroke="black" d="M3170.27,-110.95C3167.64,-110.6 3165.04,-110.28 3162.5,-110 2823.6,-73.27 2412.39,-66.86 2274.31,-65.74"/>
<polygon fill="black" stroke="black" points="2274.1,-62.23 2264.08,-65.66 2274.05,-69.23 2274.1,-62.23"/>
</g>
<!-- QosThroughput -->
<g id="node31" class="node">
<title>QosThroughput</title>
<g id="a_node31"><a xlink:href="inet.examples.wireless.qos.QosThroughput.html" xlink:title="Network QosThroughput" target="_parent">
<polygon fill="#d0d0ff" stroke="black" points="3364,-129 3273,-129 3273,-110 3364,-110 3364,-129"/>
<text text-anchor="middle" x="3318.5" y="-117" font-family="Helvetica,sans-Serif" font-size="10.00">QosThroughput</text>
</a>
</g>
</g>
<!-- QosThroughput&#45;&gt;AccessPoint -->
<g id="edge30" class="edge">
<title>QosThroughput&#45;&gt;AccessPoint</title>
<path fill="none" stroke="black" d="M3272.93,-111.06C3269.74,-110.66 3266.58,-110.3 3263.5,-110 2883.47,-72.6 2422.02,-66.62 2274.36,-65.68"/>
<polygon fill="black" stroke="black" points="2274.29,-62.18 2264.27,-65.62 2274.25,-69.18 2274.29,-62.18"/>
</g>
<!-- Throughput -->
<g id="node32" class="node">
<title>Throughput</title>
<g id="a_node32"><a xlink:href="inet.examples.wireless.hosttohost.Throughput.html" xlink:title="Network Throughput" target="_parent">
<polygon fill="#d0d0ff" stroke="black" points="3454.5,-129 3382.5,-129 3382.5,-110 3454.5,-110 3454.5,-129"/>
<text text-anchor="middle" x="3418.5" y="-117" font-family="Helvetica,sans-Serif" font-size="10.00">Throughput</text>
</a>
</g>
</g>
<!-- Throughput&#45;&gt;AccessPoint -->
<g id="edge31" class="edge">
<title>Throughput&#45;&gt;AccessPoint</title>
<path fill="none" stroke="black" d="M3382.22,-111.17C3379.28,-110.72 3376.34,-110.32 3373.5,-110 3155.35,-85.3 2463.05,-70.15 2274.38,-66.41"/>
<polygon fill="black" stroke="black" points="2274.3,-62.91 2264.23,-66.21 2274.16,-69.91 2274.3,-62.91"/>
</g>
<!-- WiredAndWirelessHostsWithAP -->
<g id="node33" class="node">
<title>WiredAndWirelessHostsWithAP</title>
<g id="a_node33"><a xlink:href="inet.examples.wireless.wiredandwirelesshostswithap.WiredAndWirelessHostsWithAP.html" xlink:title="Network WiredAndWirelessHostsWithAP" target="_parent">
<polygon fill="#d0d0ff" stroke="black" points="3642,-129 3473,-129 3473,-110 3642,-110 3642,-129"/>
<text text-anchor="middle" x="3557.5" y="-117" font-family="Helvetica,sans-Serif" font-size="10.00">WiredAndWirelessHostsWithAP</text>
</a>
</g>
</g>
<!-- WiredAndWirelessHostsWithAP&#45;&gt;AccessPoint -->
<g id="edge32" class="edge">
<title>WiredAndWirelessHostsWithAP&#45;&gt;AccessPoint</title>
<path fill="none" stroke="black" d="M3472.97,-110.64C3469.77,-110.41 3466.61,-110.2 3463.5,-110 3001.02,-80.79 2439.97,-69.22 2274.56,-66.29"/>
<polygon fill="black" stroke="black" points="2274.3,-62.79 2264.24,-66.11 2274.18,-69.79 2274.3,-62.79"/>
</g>
<!-- WirelessNetWith2DHCP -->
<g id="node34" class="node">
<title>WirelessNetWith2DHCP</title>
<g id="a_node34"><a xlink:href="inet.examples.dhcp.WirelessNetWith2DHCP.html" xlink:title="Network WirelessNetWith2DHCP" target="_parent">
<polygon fill="#d0d0ff" stroke="black" points="3792.5,-129 3660.5,-129 3660.5,-110 3792.5,-110 3792.5,-129"/>
<text text-anchor="middle" x="3726.5" y="-117" font-family="Helvetica,sans-Serif" font-size="10.00">WirelessNetWith2DHCP</text>
</a>
</g>
</g>
<!-- WirelessNetWith2DHCP&#45;&gt;AccessPoint -->
<g id="edge33" class="edge">
<title>WirelessNetWith2DHCP&#45;&gt;AccessPoint</title>
<path fill="none" stroke="black" d="M3660.27,-110.7C3657.31,-110.44 3654.38,-110.21 3651.5,-110 3112.02,-71.07 2455.24,-66.18 2274.49,-65.58"/>
<polygon fill="black" stroke="black" points="2274.28,-62.08 2264.26,-65.55 2274.25,-69.08 2274.28,-62.08"/>
</g>
<!-- WirelessNetWithDHCP -->
<g id="node35" class="node">
<title>WirelessNetWithDHCP</title>
<g id="a_node35"><a xlink:href="inet.examples.dhcp.WirelessNetWithDHCP.html" xlink:title="Network WirelessNetWithDHCP" target="_parent">
<polygon fill="#d0d0ff" stroke="black" points="3936.5,-129 3810.5,-129 3810.5,-110 3936.5,-110 3936.5,-129"/>
<text text-anchor="middle" x="3873.5" y="-117" font-family="Helvetica,sans-Serif" font-size="10.00">WirelessNetWithDHCP</text>
</a>
</g>
</g>
<!-- WirelessNetWithDHCP&#45;&gt;AccessPoint -->
<g id="edge34" class="edge">
<title>WirelessNetWithDHCP&#45;&gt;AccessPoint</title>
<path fill="none" stroke="black" d="M3810.31,-110.72C3807.34,-110.45 3804.39,-110.21 3801.5,-110 3199.75,-66.07 2465.74,-64.8 2274.08,-65.3"/>
<polygon fill="black" stroke="black" points="2274.05,-61.8 2264.06,-65.33 2274.07,-68.8 2274.05,-61.8"/>
</g>
</g>
</svg>
