<?xml version="1.0" encoding="UTF-8" standalone="no"?>
<!DOCTYPE svg PUBLIC "-//W3C//DTD SVG 1.1//EN"
 "http://www.w3.org/Graphics/SVG/1.1/DTD/svg11.dtd">
<!-- Generated by graphviz version 2.43.0 (0)
 -->
<!-- Title: opp Pages: 1 -->
<svg width="927pt" height="82pt"
 viewBox="0.00 0.00 927.00 82.00" xmlns="http://www.w3.org/2000/svg" xmlns:xlink="http://www.w3.org/1999/xlink">
<g id="graph0" class="graph" transform="scale(1 1) rotate(0) translate(4 78)">
<title>opp</title>
<polygon fill="transparent" stroke="transparent" points="-4,4 -4,-78 923,-78 923,4 -4,4"/>
<!-- DiffservQueue -->
<g id="node1" class="node">
<title>DiffservQueue</title>
<g id="a_node1"><a xlink:href="inet.networklayer.diffserv.DiffservQueue.html" xlink:title="Compound Module DiffservQueue" target="_parent">
<polygon fill="#fff700" stroke="black" points="516.5,-74 429.5,-74 429.5,-55 516.5,-55 516.5,-74"/>
<text text-anchor="middle" x="473" y="-62" font-family="Helvetica,sans-Serif" font-size="10.00">DiffservQueue</text>
</a>
</g>
</g>
<!-- BehaviorAggregateClassifier -->
<g id="node2" class="node">
<title>BehaviorAggregateClassifier</title>
<g id="a_node2"><a xlink:href="inet.networklayer.diffserv.BehaviorAggregateClassifier.html" xlink:title="Simple Module BehaviorAggregateClassifier" target="_parent">
<polygon fill="#fffcaf" stroke="black" points="156,-19 0,-19 0,0 156,0 156,-19"/>
<text text-anchor="middle" x="78" y="-7" font-family="Helvetica,sans-Serif" font-size="10.00">BehaviorAggregateClassifier</text>
</a>
</g>
</g>
<!-- DiffservQueue&#45;&gt;BehaviorAggregateClassifier -->
<g id="edge1" class="edge">
<title>DiffservQueue&#45;&gt;BehaviorAggregateClassifier</title>
<path fill="none" stroke="black" d="M429.22,-57.63C362.18,-48.63 233.32,-31.34 151.71,-20.39"/>
<polygon fill="black" stroke="black" points="151.88,-16.88 141.5,-19.02 150.95,-23.82 151.88,-16.88"/>
</g>
<!-- IdealChannel -->
<g id="node3" class="node">
<title>IdealChannel</title>
<g id="a_node3"><a xlink:href="ned.IdealChannel.html" xlink:title="Channel IdealChannel" target="_parent">
<polygon fill="#d0ffd0" stroke="black" points="254,-19 174,-19 174,0 254,0 254,-19"/>
<text text-anchor="middle" x="214" y="-7" font-family="Helvetica,sans-Serif" font-size="10.00">IdealChannel</text>
</a>
</g>
</g>
<!-- DiffservQueue&#45;&gt;IdealChannel -->
<g id="edge2" class="edge">
<title>DiffservQueue&#45;&gt;IdealChannel</title>
<path fill="none" stroke="black" d="M431.39,-54.98C385.86,-45.67 312.91,-30.74 264.23,-20.78"/>
<polygon fill="black" stroke="black" points="264.73,-17.31 254.23,-18.73 263.33,-24.17 264.73,-17.31"/>
</g>
<!-- AFxyQueue -->
<g id="node4" class="node">
<title>AFxyQueue</title>
<g id="a_node4"><a xlink:href="inet.networklayer.diffserv.AFxyQueue.html" xlink:title="Compound Module AFxyQueue" target="_parent">
<polygon fill="#fffcaf" stroke="black" points="345.5,-19 272.5,-19 272.5,0 345.5,0 345.5,-19"/>
<text text-anchor="middle" x="309" y="-7" font-family="Helvetica,sans-Serif" font-size="10.00">AFxyQueue</text>
</a>
</g>
</g>
<!-- DiffservQueue&#45;&gt;AFxyQueue -->
<g id="edge3" class="edge">
<title>DiffservQueue&#45;&gt;AFxyQueue</title>
<path fill="none" stroke="black" d="M446.65,-54.98C419.24,-46.13 376.11,-32.19 345.44,-22.28"/>
<polygon fill="black" stroke="black" points="346.15,-18.83 335.56,-19.08 344,-25.49 346.15,-18.83"/>
</g>
<!-- PassivePacketSink -->
<g id="node5" class="node">
<title>PassivePacketSink</title>
<g id="a_node5"><a xlink:href="inet.queueing.sink.PassivePacketSink.html" xlink:title="Simple Module PassivePacketSink" target="_parent">
<polygon fill="#fffcaf" stroke="black" points="470.5,-19 363.5,-19 363.5,0 470.5,0 470.5,-19"/>
<text text-anchor="middle" x="417" y="-7" font-family="Helvetica,sans-Serif" font-size="10.00">PassivePacketSink</text>
</a>
</g>
</g>
<!-- DiffservQueue&#45;&gt;PassivePacketSink -->
<g id="edge4" class="edge">
<title>DiffservQueue&#45;&gt;PassivePacketSink</title>
<path fill="none" stroke="black" d="M464,-54.98C455.81,-47.23 443.49,-35.58 433.53,-26.14"/>
<polygon fill="black" stroke="black" points="435.83,-23.5 426.16,-19.17 431.02,-28.59 435.83,-23.5"/>
</g>
<!-- WrrScheduler -->
<g id="node6" class="node">
<title>WrrScheduler</title>
<g id="a_node6"><a xlink:href="inet.queueing.scheduler.WrrScheduler.html" xlink:title="Simple Module WrrScheduler" target="_parent">
<polygon fill="#fffcaf" stroke="black" points="571,-19 489,-19 489,0 571,0 571,-19"/>
<text text-anchor="middle" x="530" y="-7" font-family="Helvetica,sans-Serif" font-size="10.00">WrrScheduler</text>
</a>
</g>
</g>
<!-- DiffservQueue&#45;&gt;WrrScheduler -->
<g id="edge5" class="edge">
<title>DiffservQueue&#45;&gt;WrrScheduler</title>
<path fill="none" stroke="black" d="M482.16,-54.98C490.5,-47.23 503.03,-35.58 513.18,-26.14"/>
<polygon fill="black" stroke="black" points="515.74,-28.54 520.68,-19.17 510.97,-23.42 515.74,-28.54"/>
</g>
<!-- PriorityScheduler -->
<g id="node7" class="node">
<title>PriorityScheduler</title>
<g id="a_node7"><a xlink:href="inet.queueing.scheduler.PriorityScheduler.html" xlink:title="Simple Module PriorityScheduler" target="_parent">
<polygon fill="#fffcaf" stroke="black" points="689,-19 589,-19 589,0 689,0 689,-19"/>
<text text-anchor="middle" x="639" y="-7" font-family="Helvetica,sans-Serif" font-size="10.00">PriorityScheduler</text>
</a>
</g>
</g>
<!-- DiffservQueue&#45;&gt;PriorityScheduler -->
<g id="edge6" class="edge">
<title>DiffservQueue&#45;&gt;PriorityScheduler</title>
<path fill="none" stroke="black" d="M499.67,-54.98C527.54,-46.09 571.45,-32.07 602.52,-22.15"/>
<polygon fill="black" stroke="black" points="603.66,-25.46 612.12,-19.08 601.53,-18.79 603.66,-25.46"/>
</g>
<!-- TokenBucketMeter -->
<g id="node8" class="node">
<title>TokenBucketMeter</title>
<g id="a_node8"><a xlink:href="inet.networklayer.diffserv.TokenBucketMeter.html" xlink:title="Simple Module TokenBucketMeter" target="_parent">
<polygon fill="#fffcaf" stroke="black" points="813,-19 707,-19 707,0 813,0 813,-19"/>
<text text-anchor="middle" x="760" y="-7" font-family="Helvetica,sans-Serif" font-size="10.00">TokenBucketMeter</text>
</a>
</g>
</g>
<!-- DiffservQueue&#45;&gt;TokenBucketMeter -->
<g id="edge7" class="edge">
<title>DiffservQueue&#45;&gt;TokenBucketMeter</title>
<path fill="none" stroke="black" d="M516.59,-55.45C566.63,-46.21 648.86,-31.02 703.71,-20.9"/>
<polygon fill="black" stroke="black" points="704.42,-24.32 713.62,-19.07 703.15,-17.44 704.42,-24.32"/>
</g>
<!-- DropTailQueue -->
<g id="node9" class="node">
<title>DropTailQueue</title>
<g id="a_node9"><a xlink:href="inet.queueing.queue.DropTailQueue.html" xlink:title="Simple Module DropTailQueue" target="_parent">
<polygon fill="#fffcaf" stroke="black" points="919,-19 831,-19 831,0 919,0 919,-19"/>
<text text-anchor="middle" x="875" y="-7" font-family="Helvetica,sans-Serif" font-size="10.00">DropTailQueue</text>
</a>
</g>
</g>
<!-- DiffservQueue&#45;&gt;DropTailQueue -->
<g id="edge8" class="edge">
<title>DiffservQueue&#45;&gt;DropTailQueue</title>
<path fill="none" stroke="black" d="M516.59,-58.4C580.83,-50.78 704.98,-35.68 820.68,-19.15"/>
<polygon fill="black" stroke="black" points="821.37,-22.59 830.77,-17.7 820.37,-15.66 821.37,-22.59"/>
</g>
</g>
</svg>
