<?xml version="1.0" encoding="UTF-8" standalone="no"?>
<!DOCTYPE svg PUBLIC "-//W3C//DTD SVG 1.1//EN"
 "http://www.w3.org/Graphics/SVG/1.1/DTD/svg11.dtd">
<!-- Generated by graphviz version 2.43.0 (0)
 -->
<!-- Title: opp Pages: 1 -->
<svg width="282pt" height="82pt"
 viewBox="0.00 0.00 281.50 82.00" xmlns="http://www.w3.org/2000/svg" xmlns:xlink="http://www.w3.org/1999/xlink">
<g id="graph0" class="graph" transform="scale(1 1) rotate(0) translate(4 78)">
<title>opp</title>
<polygon fill="transparent" stroke="transparent" points="-4,4 -4,-78 277.5,-78 277.5,4 -4,4"/>
<!-- StreamingTransmitter -->
<g id="node1" class="node">
<title>StreamingTransmitter</title>
<g id="a_node1"><a xlink:href="inet.protocolelement.transceiver.StreamingTransmitter.html" xlink:title="Simple Module StreamingTransmitter" target="_parent">
<polygon fill="#fff700" stroke="black" points="208,-19 85,-19 85,0 208,0 208,-19"/>
<text text-anchor="middle" x="146.5" y="-7" font-family="Helvetica,sans-Serif" font-size="10.00">StreamingTransmitter</text>
</a>
</g>
</g>
<!-- StreamingTransmitterBase -->
<g id="node2" class="node">
<title>StreamingTransmitterBase</title>
<g id="a_node2"><a xlink:href="inet.protocolelement.transceiver.base.StreamingTransmitterBase.html" xlink:title="Simple Module StreamingTransmitterBase" target="_parent">
<polygon fill="#fffcaf" stroke="black" points="147,-74 0,-74 0,-55 147,-55 147,-74"/>
<text text-anchor="middle" x="73.5" y="-62" font-family="Helvetica,sans-Serif" font-size="10.00">StreamingTransmitterBase</text>
</a>
</g>
</g>
<!-- StreamingTransmitterBase&#45;&gt;StreamingTransmitter -->
<g id="edge1" class="edge">
<title>StreamingTransmitterBase&#45;&gt;StreamingTransmitter</title>
<path fill="none" stroke="black" d="M85.23,-54.98C98.77,-45.15 120.93,-29.07 134.56,-19.17"/>
</g>
<!-- IPacketTransmitter -->
<g id="node3" class="node">
<title>IPacketTransmitter</title>
<g id="a_node3"><a xlink:href="inet.protocolelement.transceiver.contract.IPacketTransmitter.html" xlink:title="Module Interface IPacketTransmitter" target="_parent">
<polygon fill="#fffcaf" stroke="black" stroke-dasharray="5,2" points="273.5,-74 165.5,-74 165.5,-55 273.5,-55 273.5,-74"/>
<text text-anchor="middle" x="219.5" y="-62" font-family="Helvetica,sans-Serif" font-size="10.00">IPacketTransmitter</text>
</a>
</g>
</g>
<!-- IPacketTransmitter&#45;&gt;StreamingTransmitter -->
<g id="edge2" class="edge">
<title>IPacketTransmitter&#45;&gt;StreamingTransmitter</title>
<path fill="none" stroke="black" stroke-dasharray="5,2" d="M207.77,-54.98C194.23,-45.15 172.07,-29.07 158.44,-19.17"/>
</g>
</g>
</svg>
