<?xml version="1.0" encoding="UTF-8" standalone="no"?>
<!DOCTYPE svg PUBLIC "-//W3C//DTD SVG 1.1//EN"
 "http://www.w3.org/Graphics/SVG/1.1/DTD/svg11.dtd">
<!-- Generated by graphviz version 2.43.0 (0)
 -->
<!-- Title: opp Pages: 1 -->
<svg width="1016pt" height="82pt"
 viewBox="0.00 0.00 1015.50 82.00" xmlns="http://www.w3.org/2000/svg" xmlns:xlink="http://www.w3.org/1999/xlink">
<g id="graph0" class="graph" transform="scale(1 1) rotate(0) translate(4 78)">
<title>opp</title>
<polygon fill="transparent" stroke="transparent" points="-4,4 -4,-78 1011.5,-78 1011.5,4 -4,4"/>
<!-- ITransmitter -->
<g id="node1" class="node">
<title>ITransmitter</title>
<g id="a_node1"><a xlink:href="inet.physicallayer.wireless.common.contract.packetlevel.ITransmitter.html" xlink:title="Module Interface ITransmitter" target="_parent">
<polygon fill="#fff700" stroke="black" stroke-dasharray="5,2" points="566,-74 490,-74 490,-55 566,-55 566,-74"/>
<text text-anchor="middle" x="528" y="-62" font-family="Helvetica,sans-Serif" font-size="10.00">ITransmitter</text>
</a>
</g>
</g>
<!-- ApskLayeredTransmitter -->
<g id="node2" class="node">
<title>ApskLayeredTransmitter</title>
<g id="a_node2"><a xlink:href="inet.physicallayer.wireless.apsk.bitlevel.ApskLayeredTransmitter.html" xlink:title="Compound Module ApskLayeredTransmitter" target="_parent">
<polygon fill="#fffcaf" stroke="black" points="136,-19 0,-19 0,0 136,0 136,-19"/>
<text text-anchor="middle" x="68" y="-7" font-family="Helvetica,sans-Serif" font-size="10.00">ApskLayeredTransmitter</text>
</a>
</g>
</g>
<!-- ITransmitter&#45;&gt;ApskLayeredTransmitter -->
<g id="edge1" class="edge">
<title>ITransmitter&#45;&gt;ApskLayeredTransmitter</title>
<path fill="none" stroke="black" stroke-dasharray="5,2" d="M489.96,-59.12C412.26,-50.16 234.36,-29.67 136.18,-18.36"/>
</g>
<!-- Ieee80211LayeredOfdmTransmitter -->
<g id="node3" class="node">
<title>Ieee80211LayeredOfdmTransmitter</title>
<g id="a_node3"><a xlink:href="inet.physicallayer.wireless.ieee80211.bitlevel.Ieee80211LayeredOfdmTransmitter.html" xlink:title="Compound Module Ieee80211LayeredOfdmTransmitter" target="_parent">
<polygon fill="#fffcaf" stroke="black" points="344,-19 154,-19 154,0 344,0 344,-19"/>
<text text-anchor="middle" x="249" y="-7" font-family="Helvetica,sans-Serif" font-size="10.00">Ieee80211LayeredOfdmTransmitter</text>
</a>
</g>
</g>
<!-- ITransmitter&#45;&gt;Ieee80211LayeredOfdmTransmitter -->
<g id="edge2" class="edge">
<title>ITransmitter&#45;&gt;Ieee80211LayeredOfdmTransmitter</title>
<path fill="none" stroke="black" stroke-dasharray="5,2" d="M489.79,-56.24C438.75,-46.55 348.46,-29.39 294.13,-19.07"/>
</g>
<!-- Ieee802154UwbIrTransmitter -->
<g id="node4" class="node">
<title>Ieee802154UwbIrTransmitter</title>
<g id="a_node4"><a xlink:href="inet.physicallayer.wireless.ieee802154.bitlevel.Ieee802154UwbIrTransmitter.html" xlink:title="Compound Module Ieee802154UwbIrTransmitter" target="_parent">
<polygon fill="#fffcaf" stroke="black" points="520,-19 362,-19 362,0 520,0 520,-19"/>
<text text-anchor="middle" x="441" y="-7" font-family="Helvetica,sans-Serif" font-size="10.00">Ieee802154UwbIrTransmitter</text>
</a>
</g>
</g>
<!-- ITransmitter&#45;&gt;Ieee802154UwbIrTransmitter -->
<g id="edge3" class="edge">
<title>ITransmitter&#45;&gt;Ieee802154UwbIrTransmitter</title>
<path fill="none" stroke="black" stroke-dasharray="5,2" d="M514.02,-54.98C497.88,-45.15 471.48,-29.07 455.23,-19.17"/>
</g>
<!-- NarrowbandTransmitterBase -->
<g id="node5" class="node">
<title>NarrowbandTransmitterBase</title>
<g id="a_node5"><a xlink:href="inet.physicallayer.wireless.common.base.packetlevel.NarrowbandTransmitterBase.html" xlink:title="Compound Module NarrowbandTransmitterBase" target="_parent">
<polygon fill="#fffcaf" stroke="black" points="694,-19 538,-19 538,0 694,0 694,-19"/>
<text text-anchor="middle" x="616" y="-7" font-family="Helvetica,sans-Serif" font-size="10.00">NarrowbandTransmitterBase</text>
</a>
</g>
</g>
<!-- ITransmitter&#45;&gt;NarrowbandTransmitterBase -->
<g id="edge4" class="edge">
<title>ITransmitter&#45;&gt;NarrowbandTransmitterBase</title>
<path fill="none" stroke="black" stroke-dasharray="5,2" d="M542.14,-54.98C558.46,-45.15 585.17,-29.07 601.6,-19.17"/>
</g>
<!-- NoiseDimensionalTransmitter -->
<g id="node6" class="node">
<title>NoiseDimensionalTransmitter</title>
<g id="a_node6"><a xlink:href="inet.physicallayer.wireless.noise.NoiseDimensionalTransmitter.html" xlink:title="Compound Module NoiseDimensionalTransmitter" target="_parent">
<polygon fill="#fffcaf" stroke="black" points="874,-19 712,-19 712,0 874,0 874,-19"/>
<text text-anchor="middle" x="793" y="-7" font-family="Helvetica,sans-Serif" font-size="10.00">NoiseDimensionalTransmitter</text>
</a>
</g>
</g>
<!-- ITransmitter&#45;&gt;NoiseDimensionalTransmitter -->
<g id="edge5" class="edge">
<title>ITransmitter&#45;&gt;NoiseDimensionalTransmitter</title>
<path fill="none" stroke="black" stroke-dasharray="5,2" d="M566.25,-55.85C615.13,-46.07 699.48,-29.2 750.37,-19.03"/>
</g>
<!-- UnitDiskTransmitter -->
<g id="node7" class="node">
<title>UnitDiskTransmitter</title>
<g id="a_node7"><a xlink:href="inet.physicallayer.wireless.unitdisk.UnitDiskTransmitter.html" xlink:title="Compound Module UnitDiskTransmitter" target="_parent">
<polygon fill="#fffcaf" stroke="black" points="1007.5,-19 892.5,-19 892.5,0 1007.5,0 1007.5,-19"/>
<text text-anchor="middle" x="950" y="-7" font-family="Helvetica,sans-Serif" font-size="10.00">UnitDiskTransmitter</text>
</a>
</g>
</g>
<!-- ITransmitter&#45;&gt;UnitDiskTransmitter -->
<g id="edge6" class="edge">
<title>ITransmitter&#45;&gt;UnitDiskTransmitter</title>
<path fill="none" stroke="black" stroke-dasharray="5,2" d="M566.09,-58.74C631.09,-50.62 767.6,-33.55 883,-19 886.02,-18.62 889.13,-18.23 892.26,-17.83"/>
</g>
</g>
</svg>
