<?xml version="1.0" encoding="UTF-8" standalone="no"?>
<!DOCTYPE svg PUBLIC "-//W3C//DTD SVG 1.1//EN"
 "http://www.w3.org/Graphics/SVG/1.1/DTD/svg11.dtd">
<!-- Generated by graphviz version 2.43.0 (0)
 -->
<!-- Title: opp Pages: 1 -->
<svg width="421pt" height="82pt"
 viewBox="0.00 0.00 420.50 82.00" xmlns="http://www.w3.org/2000/svg" xmlns:xlink="http://www.w3.org/1999/xlink">
<g id="graph0" class="graph" transform="scale(1 1) rotate(0) translate(4 78)">
<title>opp</title>
<polygon fill="transparent" stroke="transparent" points="-4,4 -4,-78 416.5,-78 416.5,4 -4,4"/>
<!-- NClientsPPP -->
<g id="node1" class="node">
<title>NClientsPPP</title>
<g id="a_node1"><a xlink:href="inet.examples.ipv6.ipv6nclients.NClientsPPP.html" xlink:title="Network NClientsPPP" target="_parent">
<polygon fill="#9090ff" stroke="black" points="210.5,-74 134.5,-74 134.5,-55 210.5,-55 210.5,-74"/>
<text text-anchor="middle" x="172.5" y="-62" font-family="Helvetica,sans-Serif" font-size="10.00">NClientsPPP</text>
</a>
</g>
</g>
<!-- StandardHost6 -->
<g id="node2" class="node">
<title>StandardHost6</title>
<g id="a_node2"><a xlink:href="inet.node.ipv6.StandardHost6.html" xlink:title="Compound Module StandardHost6" target="_parent">
<polygon fill="#fffcaf" stroke="black" points="89,-19 0,-19 0,0 89,0 89,-19"/>
<text text-anchor="middle" x="44.5" y="-7" font-family="Helvetica,sans-Serif" font-size="10.00">StandardHost6</text>
</a>
</g>
</g>
<!-- NClientsPPP&#45;&gt;StandardHost6 -->
<g id="edge1" class="edge">
<title>NClientsPPP&#45;&gt;StandardHost6</title>
<path fill="none" stroke="black" d="M151.93,-54.98C131.07,-46.34 98.53,-32.87 74.73,-23.02"/>
<polygon fill="black" stroke="black" points="76.02,-19.76 65.44,-19.17 73.34,-26.23 76.02,-19.76"/>
</g>
<!-- fiberline -->
<g id="node3" class="node">
<title>fiberline</title>
<g id="a_node3"><a xlink:href="inet.examples.ipv6.ipv6nclients.NClientsPPP.fiberline.html" xlink:title="Channel fiberline" target="_parent">
<polygon fill="#d0ffd0" stroke="black" points="164,-19 107,-19 107,0 164,0 164,-19"/>
<text text-anchor="middle" x="135.5" y="-7" font-family="Helvetica,sans-Serif" font-size="10.00">fiberline</text>
</a>
</g>
</g>
<!-- NClientsPPP&#45;&gt;fiberline -->
<g id="edge2" class="edge">
<title>NClientsPPP&#45;&gt;fiberline</title>
<path fill="none" stroke="black" d="M166.39,-54.75C161.22,-47.34 153.65,-36.5 147.31,-27.41"/>
<polygon fill="black" stroke="black" points="150.09,-25.29 141.5,-19.09 144.35,-29.29 150.09,-25.29"/>
</g>
<!-- Router6 -->
<g id="node4" class="node">
<title>Router6</title>
<g id="a_node4"><a xlink:href="inet.node.ipv6.Router6.html" xlink:title="Compound Module Router6" target="_parent">
<polygon fill="#fffcaf" stroke="black" points="237,-19 182,-19 182,0 237,0 237,-19"/>
<text text-anchor="middle" x="209.5" y="-7" font-family="Helvetica,sans-Serif" font-size="10.00">Router6</text>
</a>
</g>
</g>
<!-- NClientsPPP&#45;&gt;Router6 -->
<g id="edge3" class="edge">
<title>NClientsPPP&#45;&gt;Router6</title>
<path fill="none" stroke="black" d="M178.61,-54.75C183.78,-47.34 191.35,-36.5 197.69,-27.41"/>
<polygon fill="black" stroke="black" points="200.65,-29.29 203.5,-19.09 194.91,-25.29 200.65,-29.29"/>
</g>
<!-- Ipv6FlatNetworkConfigurator -->
<g id="node5" class="node">
<title>Ipv6FlatNetworkConfigurator</title>
<g id="a_node5"><a xlink:href="inet.networklayer.configurator.ipv6.Ipv6FlatNetworkConfigurator.html" xlink:title="Simple Module Ipv6FlatNetworkConfigurator" target="_parent">
<polygon fill="#fffcaf" stroke="black" points="412.5,-19 254.5,-19 254.5,0 412.5,0 412.5,-19"/>
<text text-anchor="middle" x="333.5" y="-7" font-family="Helvetica,sans-Serif" font-size="10.00">Ipv6FlatNetworkConfigurator</text>
</a>
</g>
</g>
<!-- NClientsPPP&#45;&gt;Ipv6FlatNetworkConfigurator -->
<g id="edge4" class="edge">
<title>NClientsPPP&#45;&gt;Ipv6FlatNetworkConfigurator</title>
<path fill="none" stroke="black" d="M198.37,-54.98C225.28,-46.13 267.62,-32.19 297.73,-22.28"/>
<polygon fill="black" stroke="black" points="299.03,-25.53 307.43,-19.08 296.84,-18.88 299.03,-25.53"/>
</g>
</g>
</svg>
