<?xml version="1.0" encoding="UTF-8" standalone="no"?>
<!DOCTYPE svg PUBLIC "-//W3C//DTD SVG 1.1//EN"
 "http://www.w3.org/Graphics/SVG/1.1/DTD/svg11.dtd">
<!-- Generated by graphviz version 2.43.0 (0)
 -->
<!-- Title: opp Pages: 1 -->
<svg width="568pt" height="82pt"
 viewBox="0.00 0.00 567.50 82.00" xmlns="http://www.w3.org/2000/svg" xmlns:xlink="http://www.w3.org/1999/xlink">
<g id="graph0" class="graph" transform="scale(1 1) rotate(0) translate(4 78)">
<title>opp</title>
<polygon fill="transparent" stroke="transparent" points="-4,4 -4,-78 563.5,-78 563.5,4 -4,4"/>
<!-- TcpServerConnection -->
<g id="node1" class="node">
<title>TcpServerConnection</title>
<g id="a_node1"><a xlink:href="inet.applications.tcpapp.TcpServerConnection.html" xlink:title="Compound Module TcpServerConnection" target="_parent">
<polygon fill="#fff700" stroke="black" points="351.5,-74 232.5,-74 232.5,-55 351.5,-55 351.5,-74"/>
<text text-anchor="middle" x="292" y="-62" font-family="Helvetica,sans-Serif" font-size="10.00">TcpServerConnection</text>
</a>
</g>
</g>
<!-- IPassivePacketSink -->
<g id="node2" class="node">
<title>IPassivePacketSink</title>
<g id="a_node2"><a xlink:href="inet.queueing.contract.IPassivePacketSink.html" xlink:title="Module Interface IPassivePacketSink" target="_parent">
<polygon fill="#fffcaf" stroke="black" stroke-dasharray="5,2" points="110,-19 0,-19 0,0 110,0 110,-19"/>
<text text-anchor="middle" x="55" y="-7" font-family="Helvetica,sans-Serif" font-size="10.00">IPassivePacketSink</text>
</a>
</g>
</g>
<!-- TcpServerConnection&#45;&gt;IPassivePacketSink -->
<g id="edge1" class="edge">
<title>TcpServerConnection&#45;&gt;IPassivePacketSink</title>
<path fill="none" stroke="black" d="M253.92,-54.98C213.01,-45.84 147.89,-31.27 103.38,-21.32"/>
<polygon fill="black" stroke="black" points="103.9,-17.85 93.38,-19.08 102.37,-24.68 103.9,-17.85"/>
</g>
<!-- TcpServerSocketIo -->
<g id="node3" class="node">
<title>TcpServerSocketIo</title>
<g id="a_node3"><a xlink:href="inet.applications.tcpapp.TcpServerSocketIo.html" xlink:title="Simple Module TcpServerSocketIo" target="_parent">
<polygon fill="#fffcaf" stroke="black" points="233.5,-19 128.5,-19 128.5,0 233.5,0 233.5,-19"/>
<text text-anchor="middle" x="181" y="-7" font-family="Helvetica,sans-Serif" font-size="10.00">TcpServerSocketIo</text>
</a>
</g>
</g>
<!-- TcpServerConnection&#45;&gt;TcpServerSocketIo -->
<g id="edge2" class="edge">
<title>TcpServerConnection&#45;&gt;TcpServerSocketIo</title>
<path fill="none" stroke="black" d="M274.17,-54.98C256.39,-46.5 228.85,-33.35 208.32,-23.54"/>
<polygon fill="black" stroke="black" points="209.69,-20.32 199.16,-19.17 206.67,-26.64 209.69,-20.32"/>
</g>
<!-- IdealChannel -->
<g id="node4" class="node">
<title>IdealChannel</title>
<g id="a_node4"><a xlink:href="ned.IdealChannel.html" xlink:title="Channel IdealChannel" target="_parent">
<polygon fill="#d0ffd0" stroke="black" points="332,-19 252,-19 252,0 332,0 332,-19"/>
<text text-anchor="middle" x="292" y="-7" font-family="Helvetica,sans-Serif" font-size="10.00">IdealChannel</text>
</a>
</g>
</g>
<!-- TcpServerConnection&#45;&gt;IdealChannel -->
<g id="edge3" class="edge">
<title>TcpServerConnection&#45;&gt;IdealChannel</title>
<path fill="none" stroke="black" d="M292,-54.75C292,-47.8 292,-37.85 292,-29.13"/>
<polygon fill="black" stroke="black" points="295.5,-29.09 292,-19.09 288.5,-29.09 295.5,-29.09"/>
</g>
<!-- IActivePacketSource -->
<g id="node5" class="node">
<title>IActivePacketSource</title>
<g id="a_node5"><a xlink:href="inet.queueing.contract.IActivePacketSource.html" xlink:title="Module Interface IActivePacketSource" target="_parent">
<polygon fill="#fffcaf" stroke="black" stroke-dasharray="5,2" points="466,-19 350,-19 350,0 466,0 466,-19"/>
<text text-anchor="middle" x="408" y="-7" font-family="Helvetica,sans-Serif" font-size="10.00">IActivePacketSource</text>
</a>
</g>
</g>
<!-- TcpServerConnection&#45;&gt;IActivePacketSource -->
<g id="edge4" class="edge">
<title>TcpServerConnection&#45;&gt;IActivePacketSource</title>
<path fill="none" stroke="black" d="M310.64,-54.98C329.3,-46.46 358.25,-33.23 379.74,-23.41"/>
<polygon fill="black" stroke="black" points="381.38,-26.51 389.02,-19.17 378.47,-20.14 381.38,-26.51"/>
</g>
<!-- IPacketFlow -->
<g id="node6" class="node">
<title>IPacketFlow</title>
<g id="a_node6"><a xlink:href="inet.queueing.contract.IPacketFlow.html" xlink:title="Module Interface IPacketFlow" target="_parent">
<polygon fill="#fffcaf" stroke="black" stroke-dasharray="5,2" points="559.5,-19 484.5,-19 484.5,0 559.5,0 559.5,-19"/>
<text text-anchor="middle" x="522" y="-7" font-family="Helvetica,sans-Serif" font-size="10.00">IPacketFlow</text>
</a>
</g>
</g>
<!-- TcpServerConnection&#45;&gt;IPacketFlow -->
<g id="edge5" class="edge">
<title>TcpServerConnection&#45;&gt;IPacketFlow</title>
<path fill="none" stroke="black" d="M328.95,-54.98C368.57,-45.86 431.59,-31.33 474.77,-21.38"/>
<polygon fill="black" stroke="black" points="475.8,-24.74 484.76,-19.08 474.23,-17.92 475.8,-24.74"/>
</g>
</g>
</svg>
