<?xml version="1.0" encoding="UTF-8" standalone="no"?>
<!DOCTYPE svg PUBLIC "-//W3C//DTD SVG 1.1//EN"
 "http://www.w3.org/Graphics/SVG/1.1/DTD/svg11.dtd">
<!-- Generated by graphviz version 2.43.0 (0)
 -->
<!-- Title: opp Pages: 1 -->
<svg width="679pt" height="82pt"
 viewBox="0.00 0.00 679.00 82.00" xmlns="http://www.w3.org/2000/svg" xmlns:xlink="http://www.w3.org/1999/xlink">
<g id="graph0" class="graph" transform="scale(1 1) rotate(0) translate(4 78)">
<title>opp</title>
<polygon fill="transparent" stroke="transparent" points="-4,4 -4,-78 675,-78 675,4 -4,4"/>
<!-- NodeBase -->
<g id="node1" class="node">
<title>NodeBase</title>
<g id="a_node1"><a xlink:href="inet.node.base.NodeBase.html" xlink:title="Compound Module NodeBase" target="_parent">
<polygon fill="#fff700" stroke="black" points="366.5,-74 300.5,-74 300.5,-55 366.5,-55 366.5,-74"/>
<text text-anchor="middle" x="333.5" y="-62" font-family="Helvetica,sans-Serif" font-size="10.00">NodeBase</text>
</a>
</g>
</g>
<!-- IEnergyStorage -->
<g id="node2" class="node">
<title>IEnergyStorage</title>
<g id="a_node2"><a xlink:href="inet.power.contract.IEnergyStorage.html" xlink:title="Module Interface IEnergyStorage" target="_parent">
<polygon fill="#fffcaf" stroke="black" stroke-dasharray="5,2" points="91,-19 0,-19 0,0 91,0 91,-19"/>
<text text-anchor="middle" x="45.5" y="-7" font-family="Helvetica,sans-Serif" font-size="10.00">IEnergyStorage</text>
</a>
</g>
</g>
<!-- NodeBase&#45;&gt;IEnergyStorage -->
<g id="edge1" class="edge">
<title>NodeBase&#45;&gt;IEnergyStorage</title>
<path fill="none" stroke="black" d="M300.46,-57.42C251.86,-48.48 160.46,-31.66 101.32,-20.77"/>
<polygon fill="black" stroke="black" points="101.86,-17.31 91.39,-18.95 100.59,-24.2 101.86,-17.31"/>
</g>
<!-- IMobility -->
<g id="node3" class="node">
<title>IMobility</title>
<g id="a_node3"><a xlink:href="inet.mobility.contract.IMobility.html" xlink:title="Module Interface IMobility" target="_parent">
<polygon fill="#fffcaf" stroke="black" stroke-dasharray="5,2" points="168,-19 109,-19 109,0 168,0 168,-19"/>
<text text-anchor="middle" x="138.5" y="-7" font-family="Helvetica,sans-Serif" font-size="10.00">IMobility</text>
</a>
</g>
</g>
<!-- NodeBase&#45;&gt;IMobility -->
<g id="edge2" class="edge">
<title>NodeBase&#45;&gt;IMobility</title>
<path fill="none" stroke="black" d="M302.17,-54.98C268.42,-45.81 214.63,-31.19 178,-21.24"/>
<polygon fill="black" stroke="black" points="178.72,-17.81 168.15,-18.56 176.89,-24.56 178.72,-17.81"/>
</g>
<!-- IEnergyGenerator -->
<g id="node4" class="node">
<title>IEnergyGenerator</title>
<g id="a_node4"><a xlink:href="inet.power.contract.IEnergyGenerator.html" xlink:title="Module Interface IEnergyGenerator" target="_parent">
<polygon fill="#fffcaf" stroke="black" stroke-dasharray="5,2" points="288.5,-19 186.5,-19 186.5,0 288.5,0 288.5,-19"/>
<text text-anchor="middle" x="237.5" y="-7" font-family="Helvetica,sans-Serif" font-size="10.00">IEnergyGenerator</text>
</a>
</g>
</g>
<!-- NodeBase&#45;&gt;IEnergyGenerator -->
<g id="edge3" class="edge">
<title>NodeBase&#45;&gt;IEnergyGenerator</title>
<path fill="none" stroke="black" d="M318.08,-54.98C303.05,-46.69 279.96,-33.94 262.34,-24.22"/>
<polygon fill="black" stroke="black" points="263.65,-20.94 253.2,-19.17 260.27,-27.07 263.65,-20.94"/>
</g>
<!-- IClock -->
<g id="node5" class="node">
<title>IClock</title>
<g id="a_node5"><a xlink:href="inet.clock.contract.IClock.html" xlink:title="Module Interface IClock" target="_parent">
<polygon fill="#fffcaf" stroke="black" stroke-dasharray="5,2" points="360.5,-19 306.5,-19 306.5,0 360.5,0 360.5,-19"/>
<text text-anchor="middle" x="333.5" y="-7" font-family="Helvetica,sans-Serif" font-size="10.00">IClock</text>
</a>
</g>
</g>
<!-- NodeBase&#45;&gt;IClock -->
<g id="edge4" class="edge">
<title>NodeBase&#45;&gt;IClock</title>
<path fill="none" stroke="black" d="M333.5,-54.75C333.5,-47.8 333.5,-37.85 333.5,-29.13"/>
<polygon fill="black" stroke="black" points="337,-29.09 333.5,-19.09 330,-29.09 337,-29.09"/>
</g>
<!-- IEnergyManagement -->
<g id="node6" class="node">
<title>IEnergyManagement</title>
<g id="a_node6"><a xlink:href="inet.power.contract.IEnergyManagement.html" xlink:title="Module Interface IEnergyManagement" target="_parent">
<polygon fill="#fffcaf" stroke="black" stroke-dasharray="5,2" points="496.5,-19 378.5,-19 378.5,0 496.5,0 496.5,-19"/>
<text text-anchor="middle" x="437.5" y="-7" font-family="Helvetica,sans-Serif" font-size="10.00">IEnergyManagement</text>
</a>
</g>
</g>
<!-- NodeBase&#45;&gt;IEnergyManagement -->
<g id="edge5" class="edge">
<title>NodeBase&#45;&gt;IEnergyManagement</title>
<path fill="none" stroke="black" d="M350.21,-54.98C366.71,-46.57 392.2,-33.59 411.38,-23.81"/>
<polygon fill="black" stroke="black" points="413.17,-26.83 420.49,-19.17 409.99,-20.59 413.17,-26.83"/>
</g>
<!-- NodeStatus -->
<g id="node7" class="node">
<title>NodeStatus</title>
<g id="a_node7"><a xlink:href="inet.common.lifecycle.NodeStatus.html" xlink:title="Simple Module NodeStatus" target="_parent">
<polygon fill="#fffcaf" stroke="black" points="588,-19 515,-19 515,0 588,0 588,-19"/>
<text text-anchor="middle" x="551.5" y="-7" font-family="Helvetica,sans-Serif" font-size="10.00">NodeStatus</text>
</a>
</g>
</g>
<!-- NodeBase&#45;&gt;NodeStatus -->
<g id="edge6" class="edge">
<title>NodeBase&#45;&gt;NodeStatus</title>
<path fill="none" stroke="black" d="M366.61,-55.45C403.91,-46.38 464.76,-31.59 506.39,-21.47"/>
<polygon fill="black" stroke="black" points="507.38,-24.83 516.27,-19.07 505.72,-18.03 507.38,-24.83"/>
</g>
<!-- IMeasurer -->
<g id="node8" class="node">
<title>IMeasurer</title>
<g id="a_node8"><a xlink:href="inet.common.IMeasurer.html" xlink:title="Module Interface IMeasurer" target="_parent">
<polygon fill="#fffcaf" stroke="black" stroke-dasharray="5,2" points="671,-19 606,-19 606,0 671,0 671,-19"/>
<text text-anchor="middle" x="638.5" y="-7" font-family="Helvetica,sans-Serif" font-size="10.00">IMeasurer</text>
</a>
</g>
</g>
<!-- NodeBase&#45;&gt;IMeasurer -->
<g id="edge7" class="edge">
<title>NodeBase&#45;&gt;IMeasurer</title>
<path fill="none" stroke="black" d="M366.91,-58.28C415.27,-50.63 507.82,-35.67 595.96,-19.24"/>
<polygon fill="black" stroke="black" points="596.66,-22.67 605.85,-17.38 595.37,-15.79 596.66,-22.67"/>
</g>
</g>
</svg>
