<?xml version="1.0" encoding="UTF-8" standalone="no"?>
<!DOCTYPE svg PUBLIC "-//W3C//DTD SVG 1.1//EN"
 "http://www.w3.org/Graphics/SVG/1.1/DTD/svg11.dtd">
<!-- Generated by graphviz version 2.43.0 (0)
 -->
<!-- Title: opp Pages: 1 -->
<svg width="703pt" height="137pt"
 viewBox="0.00 0.00 702.50 137.00" xmlns="http://www.w3.org/2000/svg" xmlns:xlink="http://www.w3.org/1999/xlink">
<g id="graph0" class="graph" transform="scale(1 1) rotate(0) translate(4 133)">
<title>opp</title>
<polygon fill="transparent" stroke="transparent" points="-4,4 -4,-133 698.5,-133 698.5,4 -4,4"/>
<!-- IPacketScheduler -->
<g id="node1" class="node">
<title>IPacketScheduler</title>
<g id="a_node1"><a xlink:href="inet.queueing.contract.IPacketScheduler.html" xlink:title="Module Interface IPacketScheduler" target="_parent">
<polygon fill="#fff700" stroke="black" stroke-dasharray="5,2" points="418.5,-74 318.5,-74 318.5,-55 418.5,-55 418.5,-74"/>
<text text-anchor="middle" x="368.5" y="-62" font-family="Helvetica,sans-Serif" font-size="10.00">IPacketScheduler</text>
</a>
</g>
</g>
<!-- ContentBasedScheduler -->
<g id="node3" class="node">
<title>ContentBasedScheduler</title>
<g id="a_node3"><a xlink:href="inet.queueing.scheduler.ContentBasedScheduler.html" xlink:title="Simple Module ContentBasedScheduler" target="_parent">
<polygon fill="#fffcaf" stroke="black" points="133,-19 0,-19 0,0 133,0 133,-19"/>
<text text-anchor="middle" x="66.5" y="-7" font-family="Helvetica,sans-Serif" font-size="10.00">ContentBasedScheduler</text>
</a>
</g>
</g>
<!-- IPacketScheduler&#45;&gt;ContentBasedScheduler -->
<g id="edge2" class="edge">
<title>IPacketScheduler&#45;&gt;ContentBasedScheduler</title>
<path fill="none" stroke="black" stroke-dasharray="5,2" d="M319.98,-54.98C263.71,-45.11 171.48,-28.92 115.15,-19.04"/>
</g>
<!-- LabelScheduler -->
<g id="node4" class="node">
<title>LabelScheduler</title>
<g id="a_node4"><a xlink:href="inet.queueing.scheduler.LabelScheduler.html" xlink:title="Simple Module LabelScheduler" target="_parent">
<polygon fill="#fffcaf" stroke="black" points="242,-19 151,-19 151,0 242,0 242,-19"/>
<text text-anchor="middle" x="196.5" y="-7" font-family="Helvetica,sans-Serif" font-size="10.00">LabelScheduler</text>
</a>
</g>
</g>
<!-- IPacketScheduler&#45;&gt;LabelScheduler -->
<g id="edge3" class="edge">
<title>IPacketScheduler&#45;&gt;LabelScheduler</title>
<path fill="none" stroke="black" stroke-dasharray="5,2" d="M340.87,-54.98C308.86,-45.12 256.45,-28.97 224.35,-19.08"/>
</g>
<!-- MarkovScheduler -->
<g id="node5" class="node">
<title>MarkovScheduler</title>
<g id="a_node5"><a xlink:href="inet.queueing.scheduler.MarkovScheduler.html" xlink:title="Simple Module MarkovScheduler" target="_parent">
<polygon fill="#fffcaf" stroke="black" points="361,-19 260,-19 260,0 361,0 361,-19"/>
<text text-anchor="middle" x="310.5" y="-7" font-family="Helvetica,sans-Serif" font-size="10.00">MarkovScheduler</text>
</a>
</g>
</g>
<!-- IPacketScheduler&#45;&gt;MarkovScheduler -->
<g id="edge4" class="edge">
<title>IPacketScheduler&#45;&gt;MarkovScheduler</title>
<path fill="none" stroke="black" stroke-dasharray="5,2" d="M359.18,-54.98C348.42,-45.15 330.82,-29.07 319.99,-19.17"/>
</g>
<!-- PacketScheduler -->
<g id="node6" class="node">
<title>PacketScheduler</title>
<g id="a_node6"><a xlink:href="inet.queueing.scheduler.PacketScheduler.html" xlink:title="Simple Module PacketScheduler" target="_parent">
<polygon fill="#fffcaf" stroke="black" points="476,-19 379,-19 379,0 476,0 476,-19"/>
<text text-anchor="middle" x="427.5" y="-7" font-family="Helvetica,sans-Serif" font-size="10.00">PacketScheduler</text>
</a>
</g>
</g>
<!-- IPacketScheduler&#45;&gt;PacketScheduler -->
<g id="edge5" class="edge">
<title>IPacketScheduler&#45;&gt;PacketScheduler</title>
<path fill="none" stroke="black" stroke-dasharray="5,2" d="M377.98,-54.98C388.92,-45.15 406.83,-29.07 417.85,-19.17"/>
</g>
<!-- PriorityScheduler -->
<g id="node7" class="node">
<title>PriorityScheduler</title>
<g id="a_node7"><a xlink:href="inet.queueing.scheduler.PriorityScheduler.html" xlink:title="Simple Module PriorityScheduler" target="_parent">
<polygon fill="#fffcaf" stroke="black" points="594.5,-19 494.5,-19 494.5,0 594.5,0 594.5,-19"/>
<text text-anchor="middle" x="544.5" y="-7" font-family="Helvetica,sans-Serif" font-size="10.00">PriorityScheduler</text>
</a>
</g>
</g>
<!-- IPacketScheduler&#45;&gt;PriorityScheduler -->
<g id="edge6" class="edge">
<title>IPacketScheduler&#45;&gt;PriorityScheduler</title>
<path fill="none" stroke="black" stroke-dasharray="5,2" d="M396.78,-54.98C429.52,-45.12 483.16,-28.97 516,-19.08"/>
</g>
<!-- WrrScheduler -->
<g id="node8" class="node">
<title>WrrScheduler</title>
<g id="a_node8"><a xlink:href="inet.queueing.scheduler.WrrScheduler.html" xlink:title="Simple Module WrrScheduler" target="_parent">
<polygon fill="#fffcaf" stroke="black" points="694.5,-19 612.5,-19 612.5,0 694.5,0 694.5,-19"/>
<text text-anchor="middle" x="653.5" y="-7" font-family="Helvetica,sans-Serif" font-size="10.00">WrrScheduler</text>
</a>
</g>
</g>
<!-- IPacketScheduler&#45;&gt;WrrScheduler -->
<g id="edge7" class="edge">
<title>IPacketScheduler&#45;&gt;WrrScheduler</title>
<path fill="none" stroke="black" stroke-dasharray="5,2" d="M414.29,-54.98C469.05,-44.8 559.88,-27.91 612.45,-18.13"/>
</g>
<!-- IPassivePacketSource -->
<g id="node2" class="node">
<title>IPassivePacketSource</title>
<g id="a_node2"><a xlink:href="inet.queueing.contract.IPassivePacketSource.html" xlink:title="Module Interface IPassivePacketSource" target="_parent">
<polygon fill="#fffcaf" stroke="black" stroke-dasharray="5,2" points="429.5,-129 307.5,-129 307.5,-110 429.5,-110 429.5,-129"/>
<text text-anchor="middle" x="368.5" y="-117" font-family="Helvetica,sans-Serif" font-size="10.00">IPassivePacketSource</text>
</a>
</g>
</g>
<!-- IPassivePacketSource&#45;&gt;IPacketScheduler -->
<g id="edge1" class="edge">
<title>IPassivePacketSource&#45;&gt;IPacketScheduler</title>
<path fill="none" stroke="black" d="M368.5,-109.75C368.5,-99.87 368.5,-83.9 368.5,-74.09"/>
</g>
</g>
</svg>
