<?xml version="1.0" encoding="UTF-8" standalone="no"?>
<!DOCTYPE svg PUBLIC "-//W3C//DTD SVG 1.1//EN"
 "http://www.w3.org/Graphics/SVG/1.1/DTD/svg11.dtd">
<!-- Generated by graphviz version 2.43.0 (0)
 -->
<!-- Title: opp Pages: 1 -->
<svg width="438pt" height="82pt"
 viewBox="0.00 0.00 438.00 82.00" xmlns="http://www.w3.org/2000/svg" xmlns:xlink="http://www.w3.org/1999/xlink">
<g id="graph0" class="graph" transform="scale(1 1) rotate(0) translate(4 78)">
<title>opp</title>
<polygon fill="transparent" stroke="transparent" points="-4,4 -4,-78 434,-78 434,4 -4,4"/>
<!-- ConfiguratorC -->
<g id="node1" class="node">
<title>ConfiguratorC</title>
<g id="a_node1"><a xlink:href="inet.tutorials.configurator.ConfiguratorC.html" xlink:title="Network ConfiguratorC" target="_parent">
<polygon fill="#9090ff" stroke="black" points="218.5,-74 134.5,-74 134.5,-55 218.5,-55 218.5,-74"/>
<text text-anchor="middle" x="176.5" y="-62" font-family="Helvetica,sans-Serif" font-size="10.00">ConfiguratorC</text>
</a>
</g>
</g>
<!-- AccessPoint -->
<g id="node2" class="node">
<title>AccessPoint</title>
<g id="a_node2"><a xlink:href="inet.node.wireless.AccessPoint.html" xlink:title="Compound Module AccessPoint" target="_parent">
<polygon fill="#fffcaf" stroke="black" points="75,-19 0,-19 0,0 75,0 75,-19"/>
<text text-anchor="middle" x="37.5" y="-7" font-family="Helvetica,sans-Serif" font-size="10.00">AccessPoint</text>
</a>
</g>
</g>
<!-- ConfiguratorC&#45;&gt;AccessPoint -->
<g id="edge1" class="edge">
<title>ConfiguratorC&#45;&gt;AccessPoint</title>
<path fill="none" stroke="black" d="M154.17,-54.98C131.3,-46.27 95.54,-32.63 69.64,-22.75"/>
<polygon fill="black" stroke="black" points="70.83,-19.46 60.24,-19.17 68.34,-26 70.83,-19.46"/>
</g>
<!-- WirelessHost -->
<g id="node3" class="node">
<title>WirelessHost</title>
<g id="a_node3"><a xlink:href="inet.node.inet.WirelessHost.html" xlink:title="Compound Module WirelessHost" target="_parent">
<polygon fill="#fffcaf" stroke="black" points="174,-19 93,-19 93,0 174,0 174,-19"/>
<text text-anchor="middle" x="133.5" y="-7" font-family="Helvetica,sans-Serif" font-size="10.00">WirelessHost</text>
</a>
</g>
</g>
<!-- ConfiguratorC&#45;&gt;WirelessHost -->
<g id="edge2" class="edge">
<title>ConfiguratorC&#45;&gt;WirelessHost</title>
<path fill="none" stroke="black" d="M169.4,-54.75C163.33,-47.26 154.41,-36.28 146.99,-27.13"/>
<polygon fill="black" stroke="black" points="149.49,-24.65 140.47,-19.09 144.05,-29.06 149.49,-24.65"/>
</g>
<!-- Eth10M -->
<g id="node4" class="node">
<title>Eth10M</title>
<g id="a_node4"><a xlink:href="inet.node.ethernet.Eth10M.html" xlink:title="Channel Eth10M" target="_parent">
<polygon fill="#d0ffd0" stroke="black" points="246.5,-19 192.5,-19 192.5,0 246.5,0 246.5,-19"/>
<text text-anchor="middle" x="219.5" y="-7" font-family="Helvetica,sans-Serif" font-size="10.00">Eth10M</text>
</a>
</g>
</g>
<!-- ConfiguratorC&#45;&gt;Eth10M -->
<g id="edge3" class="edge">
<title>ConfiguratorC&#45;&gt;Eth10M</title>
<path fill="none" stroke="black" d="M183.6,-54.75C189.67,-47.26 198.59,-36.28 206.01,-27.13"/>
<polygon fill="black" stroke="black" points="208.95,-29.06 212.53,-19.09 203.51,-24.65 208.95,-29.06"/>
</g>
<!-- Ieee80211ScalarRadioMedium -->
<g id="node5" class="node">
<title>Ieee80211ScalarRadioMedium</title>
<g id="a_node5"><a xlink:href="inet.physicallayer.wireless.ieee80211.packetlevel.Ieee80211ScalarRadioMedium.html" xlink:title="Compound Module Ieee80211ScalarRadioMedium" target="_parent">
<polygon fill="#fffcaf" stroke="black" points="430,-19 265,-19 265,0 430,0 430,-19"/>
<text text-anchor="middle" x="347.5" y="-7" font-family="Helvetica,sans-Serif" font-size="10.00">Ieee80211ScalarRadioMedium</text>
</a>
</g>
</g>
<!-- ConfiguratorC&#45;&gt;Ieee80211ScalarRadioMedium -->
<g id="edge4" class="edge">
<title>ConfiguratorC&#45;&gt;Ieee80211ScalarRadioMedium</title>
<path fill="none" stroke="black" d="M203.97,-54.98C232.68,-46.09 277.92,-32.07 309.92,-22.15"/>
<polygon fill="black" stroke="black" points="311.3,-25.39 319.81,-19.08 309.22,-18.7 311.3,-25.39"/>
</g>
</g>
</svg>
