<?xml version="1.0" encoding="UTF-8" standalone="no"?>
<!DOCTYPE svg PUBLIC "-//W3C//DTD SVG 1.1//EN"
 "http://www.w3.org/Graphics/SVG/1.1/DTD/svg11.dtd">
<!-- Generated by graphviz version 2.43.0 (0)
 -->
<!-- Title: opp Pages: 1 -->
<svg width="633pt" height="82pt"
 viewBox="0.00 0.00 633.00 82.00" xmlns="http://www.w3.org/2000/svg" xmlns:xlink="http://www.w3.org/1999/xlink">
<g id="graph0" class="graph" transform="scale(1 1) rotate(0) translate(4 78)">
<title>opp</title>
<polygon fill="transparent" stroke="transparent" points="-4,4 -4,-78 629,-78 629,4 -4,4"/>
<!-- NetworkWithCrossTraffic -->
<g id="node1" class="node">
<title>NetworkWithCrossTraffic</title>
<g id="a_node1"><a xlink:href="inet.examples.ieee8021as.NetworkWithCrossTraffic.html" xlink:title="Network NetworkWithCrossTraffic" target="_parent">
<polygon fill="#9090ff" stroke="black" points="358.5,-74 220.5,-74 220.5,-55 358.5,-55 358.5,-74"/>
<text text-anchor="middle" x="289.5" y="-62" font-family="Helvetica,sans-Serif" font-size="10.00">NetworkWithCrossTraffic</text>
</a>
</g>
</g>
<!-- StandardHost -->
<g id="node2" class="node">
<title>StandardHost</title>
<g id="a_node2"><a xlink:href="inet.node.inet.StandardHost.html" xlink:title="Compound Module StandardHost" target="_parent">
<polygon fill="#fffcaf" stroke="black" points="83,-19 0,-19 0,0 83,0 83,-19"/>
<text text-anchor="middle" x="41.5" y="-7" font-family="Helvetica,sans-Serif" font-size="10.00">StandardHost</text>
</a>
</g>
</g>
<!-- NetworkWithCrossTraffic&#45;&gt;StandardHost -->
<g id="edge1" class="edge">
<title>NetworkWithCrossTraffic&#45;&gt;StandardHost</title>
<path fill="none" stroke="black" d="M249.65,-54.98C206.67,-45.8 138.13,-31.15 91.54,-21.19"/>
<polygon fill="black" stroke="black" points="92.17,-17.75 81.66,-19.08 90.71,-24.59 92.17,-17.75"/>
</g>
<!-- GptpBridge -->
<g id="node3" class="node">
<title>GptpBridge</title>
<g id="a_node3"><a xlink:href="inet.linklayer.ieee8021as.GptpBridge.html" xlink:title="Compound Module GptpBridge" target="_parent">
<polygon fill="#fffcaf" stroke="black" points="172,-19 101,-19 101,0 172,0 172,-19"/>
<text text-anchor="middle" x="136.5" y="-7" font-family="Helvetica,sans-Serif" font-size="10.00">GptpBridge</text>
</a>
</g>
</g>
<!-- NetworkWithCrossTraffic&#45;&gt;GptpBridge -->
<g id="edge2" class="edge">
<title>NetworkWithCrossTraffic&#45;&gt;GptpBridge</title>
<path fill="none" stroke="black" d="M264.92,-54.98C239.45,-46.16 199.46,-32.31 170.87,-22.41"/>
<polygon fill="black" stroke="black" points="171.87,-19.05 161.27,-19.08 169.58,-25.66 171.87,-19.05"/>
</g>
<!-- GptpMaster -->
<g id="node4" class="node">
<title>GptpMaster</title>
<g id="a_node4"><a xlink:href="inet.linklayer.ieee8021as.GptpMaster.html" xlink:title="Compound Module GptpMaster" target="_parent">
<polygon fill="#fffcaf" stroke="black" points="264.5,-19 190.5,-19 190.5,0 264.5,0 264.5,-19"/>
<text text-anchor="middle" x="227.5" y="-7" font-family="Helvetica,sans-Serif" font-size="10.00">GptpMaster</text>
</a>
</g>
</g>
<!-- NetworkWithCrossTraffic&#45;&gt;GptpMaster -->
<g id="edge3" class="edge">
<title>NetworkWithCrossTraffic&#45;&gt;GptpMaster</title>
<path fill="none" stroke="black" d="M279.54,-54.98C270.37,-47.15 256.56,-35.34 245.47,-25.86"/>
<polygon fill="black" stroke="black" points="247.52,-23.01 237.64,-19.17 242.97,-28.33 247.52,-23.01"/>
</g>
<!-- Ipv4NetworkConfigurator -->
<g id="node5" class="node">
<title>Ipv4NetworkConfigurator</title>
<g id="a_node5"><a xlink:href="inet.networklayer.configurator.ipv4.Ipv4NetworkConfigurator.html" xlink:title="Simple Module Ipv4NetworkConfigurator" target="_parent">
<polygon fill="#fffcaf" stroke="black" points="422.5,-19 282.5,-19 282.5,0 422.5,0 422.5,-19"/>
<text text-anchor="middle" x="352.5" y="-7" font-family="Helvetica,sans-Serif" font-size="10.00">Ipv4NetworkConfigurator</text>
</a>
</g>
</g>
<!-- NetworkWithCrossTraffic&#45;&gt;Ipv4NetworkConfigurator -->
<g id="edge4" class="edge">
<title>NetworkWithCrossTraffic&#45;&gt;Ipv4NetworkConfigurator</title>
<path fill="none" stroke="black" d="M299.62,-54.98C308.94,-47.15 322.97,-35.34 334.24,-25.86"/>
<polygon fill="black" stroke="black" points="336.79,-28.29 342.19,-19.17 332.29,-22.93 336.79,-28.29"/>
</g>
<!-- DatarateChannel -->
<g id="node6" class="node">
<title>DatarateChannel</title>
<g id="a_node6"><a xlink:href="ned.DatarateChannel.html" xlink:title="Channel DatarateChannel" target="_parent">
<polygon fill="#d0ffd0" stroke="black" points="540,-19 441,-19 441,0 540,0 540,-19"/>
<text text-anchor="middle" x="490.5" y="-7" font-family="Helvetica,sans-Serif" font-size="10.00">DatarateChannel</text>
</a>
</g>
</g>
<!-- NetworkWithCrossTraffic&#45;&gt;DatarateChannel -->
<g id="edge5" class="edge">
<title>NetworkWithCrossTraffic&#45;&gt;DatarateChannel</title>
<path fill="none" stroke="black" d="M321.79,-54.98C356.12,-45.93 410.56,-31.58 448.27,-21.64"/>
<polygon fill="black" stroke="black" points="449.18,-25.02 457.95,-19.08 447.39,-18.25 449.18,-25.02"/>
</g>
<!-- GptpSlave -->
<g id="node7" class="node">
<title>GptpSlave</title>
<g id="a_node7"><a xlink:href="inet.linklayer.ieee8021as.GptpSlave.html" xlink:title="Compound Module GptpSlave" target="_parent">
<polygon fill="#fffcaf" stroke="black" points="625,-19 558,-19 558,0 625,0 625,-19"/>
<text text-anchor="middle" x="591.5" y="-7" font-family="Helvetica,sans-Serif" font-size="10.00">GptpSlave</text>
</a>
</g>
</g>
<!-- NetworkWithCrossTraffic&#45;&gt;GptpSlave -->
<g id="edge6" class="edge">
<title>NetworkWithCrossTraffic&#45;&gt;GptpSlave</title>
<path fill="none" stroke="black" d="M342.37,-54.93C392.7,-46.67 470.85,-33.55 547.31,-19.37"/>
<polygon fill="black" stroke="black" points="548.4,-22.73 557.59,-17.45 547.12,-15.84 548.4,-22.73"/>
</g>
</g>
</svg>
