<?xml version="1.0" encoding="UTF-8" standalone="no"?>
<!DOCTYPE svg PUBLIC "-//W3C//DTD SVG 1.1//EN"
 "http://www.w3.org/Graphics/SVG/1.1/DTD/svg11.dtd">
<!-- Generated by graphviz version 2.43.0 (0)
 -->
<!-- Title: opp Pages: 1 -->
<svg width="254pt" height="82pt"
 viewBox="0.00 0.00 253.50 82.00" xmlns="http://www.w3.org/2000/svg" xmlns:xlink="http://www.w3.org/1999/xlink">
<g id="graph0" class="graph" transform="scale(1 1) rotate(0) translate(4 78)">
<title>opp</title>
<polygon fill="transparent" stroke="transparent" points="-4,4 -4,-78 249.5,-78 249.5,4 -4,4"/>
<!-- PacketBasedTokenGenerator -->
<g id="node1" class="node">
<title>PacketBasedTokenGenerator</title>
<g id="a_node1"><a xlink:href="inet.queueing.tokengenerator.PacketBasedTokenGenerator.html" xlink:title="Simple Module PacketBasedTokenGenerator" target="_parent">
<polygon fill="#fff700" stroke="black" points="202,-19 47,-19 47,0 202,0 202,-19"/>
<text text-anchor="middle" x="124.5" y="-7" font-family="Helvetica,sans-Serif" font-size="10.00">PacketBasedTokenGenerator</text>
</a>
</g>
</g>
<!-- TokenGeneratorBase -->
<g id="node2" class="node">
<title>TokenGeneratorBase</title>
<g id="a_node2"><a xlink:href="inet.queueing.base.TokenGeneratorBase.html" xlink:title="Simple Module TokenGeneratorBase" target="_parent">
<polygon fill="#fffcaf" stroke="black" points="117,-74 0,-74 0,-55 117,-55 117,-74"/>
<text text-anchor="middle" x="58.5" y="-62" font-family="Helvetica,sans-Serif" font-size="10.00">TokenGeneratorBase</text>
</a>
</g>
</g>
<!-- TokenGeneratorBase&#45;&gt;PacketBasedTokenGenerator -->
<g id="edge1" class="edge">
<title>TokenGeneratorBase&#45;&gt;PacketBasedTokenGenerator</title>
<path fill="none" stroke="black" d="M69.1,-54.98C81.35,-45.15 101.38,-29.07 113.7,-19.17"/>
</g>
<!-- IPassivePacketSink -->
<g id="node3" class="node">
<title>IPassivePacketSink</title>
<g id="a_node3"><a xlink:href="inet.queueing.contract.IPassivePacketSink.html" xlink:title="Module Interface IPassivePacketSink" target="_parent">
<polygon fill="#fffcaf" stroke="black" stroke-dasharray="5,2" points="245.5,-74 135.5,-74 135.5,-55 245.5,-55 245.5,-74"/>
<text text-anchor="middle" x="190.5" y="-62" font-family="Helvetica,sans-Serif" font-size="10.00">IPassivePacketSink</text>
</a>
</g>
</g>
<!-- IPassivePacketSink&#45;&gt;PacketBasedTokenGenerator -->
<g id="edge2" class="edge">
<title>IPassivePacketSink&#45;&gt;PacketBasedTokenGenerator</title>
<path fill="none" stroke="black" stroke-dasharray="5,2" d="M179.9,-54.98C167.65,-45.15 147.62,-29.07 135.3,-19.17"/>
</g>
</g>
</svg>
