<?xml version="1.0" encoding="UTF-8" standalone="no"?>
<!DOCTYPE svg PUBLIC "-//W3C//DTD SVG 1.1//EN"
 "http://www.w3.org/Graphics/SVG/1.1/DTD/svg11.dtd">
<!-- Generated by graphviz version 2.43.0 (0)
 -->
<!-- Title: opp Pages: 1 -->
<svg width="437pt" height="82pt"
 viewBox="0.00 0.00 437.00 82.00" xmlns="http://www.w3.org/2000/svg" xmlns:xlink="http://www.w3.org/1999/xlink">
<g id="graph0" class="graph" transform="scale(1 1) rotate(0) translate(4 78)">
<title>opp</title>
<polygon fill="transparent" stroke="transparent" points="-4,4 -4,-78 433,-78 433,4 -4,4"/>
<!-- ComparatorTutorialStep -->
<g id="node1" class="node">
<title>ComparatorTutorialStep</title>
<g id="a_node1"><a xlink:href="inet.tutorials.queueing.ComparatorTutorialStep.html" xlink:title="Network ComparatorTutorialStep" target="_parent">
<polygon fill="#9090ff" stroke="black" points="286.5,-74 154.5,-74 154.5,-55 286.5,-55 286.5,-74"/>
<text text-anchor="middle" x="220.5" y="-62" font-family="Helvetica,sans-Serif" font-size="10.00">ComparatorTutorialStep</text>
</a>
</g>
</g>
<!-- ActivePacketSource -->
<g id="node2" class="node">
<title>ActivePacketSource</title>
<g id="a_node2"><a xlink:href="inet.queueing.source.ActivePacketSource.html" xlink:title="Simple Module ActivePacketSource" target="_parent">
<polygon fill="#fffcaf" stroke="black" points="113,-19 0,-19 0,0 113,0 113,-19"/>
<text text-anchor="middle" x="56.5" y="-7" font-family="Helvetica,sans-Serif" font-size="10.00">ActivePacketSource</text>
</a>
</g>
</g>
<!-- ComparatorTutorialStep&#45;&gt;ActivePacketSource -->
<g id="edge1" class="edge">
<title>ComparatorTutorialStep&#45;&gt;ActivePacketSource</title>
<path fill="none" stroke="black" d="M194.15,-54.98C166.74,-46.13 123.61,-32.19 92.94,-22.28"/>
<polygon fill="black" stroke="black" points="93.65,-18.83 83.06,-19.08 91.5,-25.49 93.65,-18.83"/>
</g>
<!-- IdealChannel -->
<g id="node3" class="node">
<title>IdealChannel</title>
<g id="a_node3"><a xlink:href="ned.IdealChannel.html" xlink:title="Channel IdealChannel" target="_parent">
<polygon fill="#d0ffd0" stroke="black" points="211.5,-19 131.5,-19 131.5,0 211.5,0 211.5,-19"/>
<text text-anchor="middle" x="171.5" y="-7" font-family="Helvetica,sans-Serif" font-size="10.00">IdealChannel</text>
</a>
</g>
</g>
<!-- ComparatorTutorialStep&#45;&gt;IdealChannel -->
<g id="edge2" class="edge">
<title>ComparatorTutorialStep&#45;&gt;IdealChannel</title>
<path fill="none" stroke="black" d="M212.41,-54.75C205.34,-47.11 194.91,-35.82 186.35,-26.56"/>
<polygon fill="black" stroke="black" points="188.8,-24.06 179.44,-19.09 183.66,-28.81 188.8,-24.06"/>
</g>
<!-- PacketQueue -->
<g id="node4" class="node">
<title>PacketQueue</title>
<g id="a_node4"><a xlink:href="inet.queueing.queue.PacketQueue.html" xlink:title="Simple Module PacketQueue" target="_parent">
<polygon fill="#fffcaf" stroke="black" points="309.5,-19 229.5,-19 229.5,0 309.5,0 309.5,-19"/>
<text text-anchor="middle" x="269.5" y="-7" font-family="Helvetica,sans-Serif" font-size="10.00">PacketQueue</text>
</a>
</g>
</g>
<!-- ComparatorTutorialStep&#45;&gt;PacketQueue -->
<g id="edge3" class="edge">
<title>ComparatorTutorialStep&#45;&gt;PacketQueue</title>
<path fill="none" stroke="black" d="M228.59,-54.75C235.66,-47.11 246.09,-35.82 254.65,-26.56"/>
<polygon fill="black" stroke="black" points="257.34,-28.81 261.56,-19.09 252.2,-24.06 257.34,-28.81"/>
</g>
<!-- ActivePacketSink -->
<g id="node5" class="node">
<title>ActivePacketSink</title>
<g id="a_node5"><a xlink:href="inet.queueing.sink.ActivePacketSink.html" xlink:title="Simple Module ActivePacketSink" target="_parent">
<polygon fill="#fffcaf" stroke="black" points="429,-19 328,-19 328,0 429,0 429,-19"/>
<text text-anchor="middle" x="378.5" y="-7" font-family="Helvetica,sans-Serif" font-size="10.00">ActivePacketSink</text>
</a>
</g>
</g>
<!-- ComparatorTutorialStep&#45;&gt;ActivePacketSink -->
<g id="edge4" class="edge">
<title>ComparatorTutorialStep&#45;&gt;ActivePacketSink</title>
<path fill="none" stroke="black" d="M245.89,-54.98C272.3,-46.13 313.85,-32.19 343.39,-22.28"/>
<polygon fill="black" stroke="black" points="344.55,-25.58 352.92,-19.08 342.32,-18.94 344.55,-25.58"/>
</g>
</g>
</svg>
