<?xml version="1.0" encoding="UTF-8" standalone="no"?>
<!DOCTYPE svg PUBLIC "-//W3C//DTD SVG 1.1//EN"
 "http://www.w3.org/Graphics/SVG/1.1/DTD/svg11.dtd">
<!-- Generated by graphviz version 2.43.0 (0)
 -->
<!-- Title: opp Pages: 1 -->
<svg width="268pt" height="82pt"
 viewBox="0.00 0.00 268.00 82.00" xmlns="http://www.w3.org/2000/svg" xmlns:xlink="http://www.w3.org/1999/xlink">
<g id="graph0" class="graph" transform="scale(1 1) rotate(0) translate(4 78)">
<title>opp</title>
<polygon fill="transparent" stroke="transparent" points="-4,4 -4,-78 264,-78 264,4 -4,4"/>
<!-- LargeNet -->
<g id="node1" class="node">
<title>LargeNet</title>
<g id="a_node1"><a xlink:href="inet.examples.ieee8021d.LargeNet.html" xlink:title="Network LargeNet" target="_parent">
<polygon fill="#9090ff" stroke="black" points="155.5,-74 94.5,-74 94.5,-55 155.5,-55 155.5,-74"/>
<text text-anchor="middle" x="125" y="-62" font-family="Helvetica,sans-Serif" font-size="10.00">LargeNet</text>
</a>
</g>
</g>
<!-- EthernetHost -->
<g id="node2" class="node">
<title>EthernetHost</title>
<g id="a_node2"><a xlink:href="inet.node.ethernet.EthernetHost.html" xlink:title="Compound Module EthernetHost" target="_parent">
<polygon fill="#fffcaf" stroke="black" points="80,-19 0,-19 0,0 80,0 80,-19"/>
<text text-anchor="middle" x="40" y="-7" font-family="Helvetica,sans-Serif" font-size="10.00">EthernetHost</text>
</a>
</g>
</g>
<!-- LargeNet&#45;&gt;EthernetHost -->
<g id="edge1" class="edge">
<title>LargeNet&#45;&gt;EthernetHost</title>
<path fill="none" stroke="black" d="M111.34,-54.98C98.16,-46.77 77.97,-34.18 62.43,-24.49"/>
<polygon fill="black" stroke="black" points="64.24,-21.49 53.91,-19.17 60.54,-27.43 64.24,-21.49"/>
</g>
<!-- Eth1G -->
<g id="node3" class="node">
<title>Eth1G</title>
<g id="a_node3"><a xlink:href="inet.node.ethernet.Eth1G.html" xlink:title="Channel Eth1G" target="_parent">
<polygon fill="#d0ffd0" stroke="black" points="152,-19 98,-19 98,0 152,0 152,-19"/>
<text text-anchor="middle" x="125" y="-7" font-family="Helvetica,sans-Serif" font-size="10.00">Eth1G</text>
</a>
</g>
</g>
<!-- LargeNet&#45;&gt;Eth1G -->
<g id="edge2" class="edge">
<title>LargeNet&#45;&gt;Eth1G</title>
<path fill="none" stroke="black" d="M125,-54.75C125,-47.8 125,-37.85 125,-29.13"/>
<polygon fill="black" stroke="black" points="128.5,-29.09 125,-19.09 121.5,-29.09 128.5,-29.09"/>
</g>
<!-- EthernetSwitch -->
<g id="node4" class="node">
<title>EthernetSwitch</title>
<g id="a_node4"><a xlink:href="inet.node.ethernet.EthernetSwitch.html" xlink:title="Compound Module EthernetSwitch" target="_parent">
<polygon fill="#fffcaf" stroke="black" points="260,-19 170,-19 170,0 260,0 260,-19"/>
<text text-anchor="middle" x="215" y="-7" font-family="Helvetica,sans-Serif" font-size="10.00">EthernetSwitch</text>
</a>
</g>
</g>
<!-- LargeNet&#45;&gt;EthernetSwitch -->
<g id="edge3" class="edge">
<title>LargeNet&#45;&gt;EthernetSwitch</title>
<path fill="none" stroke="black" d="M139.46,-54.98C153.42,-46.77 174.79,-34.18 191.25,-24.49"/>
<polygon fill="black" stroke="black" points="193.44,-27.26 200.28,-19.17 189.88,-21.23 193.44,-27.26"/>
</g>
</g>
</svg>
