<?xml version="1.0" encoding="UTF-8" standalone="no"?>
<!DOCTYPE svg PUBLIC "-//W3C//DTD SVG 1.1//EN"
 "http://www.w3.org/Graphics/SVG/1.1/DTD/svg11.dtd">
<!-- Generated by graphviz version 2.43.0 (0)
 -->
<!-- Title: opp Pages: 1 -->
<svg width="489pt" height="82pt"
 viewBox="0.00 0.00 488.50 82.00" xmlns="http://www.w3.org/2000/svg" xmlns:xlink="http://www.w3.org/1999/xlink">
<g id="graph0" class="graph" transform="scale(1 1) rotate(0) translate(4 78)">
<title>opp</title>
<polygon fill="transparent" stroke="transparent" points="-4,4 -4,-78 484.5,-78 484.5,4 -4,4"/>
<!-- WiseRouteNetworkLayer -->
<g id="node1" class="node">
<title>WiseRouteNetworkLayer</title>
<g id="a_node1"><a xlink:href="inet.networklayer.wiseroute.WiseRouteNetworkLayer.html" xlink:title="Compound Module WiseRouteNetworkLayer" target="_parent">
<polygon fill="#fff700" stroke="black" points="338.5,-74 201.5,-74 201.5,-55 338.5,-55 338.5,-74"/>
<text text-anchor="middle" x="270" y="-62" font-family="Helvetica,sans-Serif" font-size="10.00">WiseRouteNetworkLayer</text>
</a>
</g>
</g>
<!-- IdealChannel -->
<g id="node2" class="node">
<title>IdealChannel</title>
<g id="a_node2"><a xlink:href="ned.IdealChannel.html" xlink:title="Channel IdealChannel" target="_parent">
<polygon fill="#d0ffd0" stroke="black" points="80,-19 0,-19 0,0 80,0 80,-19"/>
<text text-anchor="middle" x="40" y="-7" font-family="Helvetica,sans-Serif" font-size="10.00">IdealChannel</text>
</a>
</g>
</g>
<!-- WiseRouteNetworkLayer&#45;&gt;IdealChannel -->
<g id="edge1" class="edge">
<title>WiseRouteNetworkLayer&#45;&gt;IdealChannel</title>
<path fill="none" stroke="black" d="M233.05,-54.98C193.43,-45.86 130.41,-31.33 87.23,-21.38"/>
<polygon fill="black" stroke="black" points="87.77,-17.92 77.24,-19.08 86.2,-24.74 87.77,-17.92"/>
</g>
<!-- MessageDispatcher -->
<g id="node3" class="node">
<title>MessageDispatcher</title>
<g id="a_node3"><a xlink:href="inet.common.MessageDispatcher.html" xlink:title="Simple Module MessageDispatcher" target="_parent">
<polygon fill="#fffcaf" stroke="black" points="211.5,-19 98.5,-19 98.5,0 211.5,0 211.5,-19"/>
<text text-anchor="middle" x="155" y="-7" font-family="Helvetica,sans-Serif" font-size="10.00">MessageDispatcher</text>
</a>
</g>
</g>
<!-- WiseRouteNetworkLayer&#45;&gt;MessageDispatcher -->
<g id="edge2" class="edge">
<title>WiseRouteNetworkLayer&#45;&gt;MessageDispatcher</title>
<path fill="none" stroke="black" d="M251.52,-54.98C233.02,-46.46 204.32,-33.23 183.02,-23.41"/>
<polygon fill="black" stroke="black" points="184.36,-20.18 173.81,-19.17 181.43,-26.53 184.36,-20.18"/>
</g>
<!-- EchoProtocol -->
<g id="node4" class="node">
<title>EchoProtocol</title>
<g id="a_node4"><a xlink:href="inet.networklayer.common.EchoProtocol.html" xlink:title="Simple Module EchoProtocol" target="_parent">
<polygon fill="#fffcaf" stroke="black" points="310,-19 230,-19 230,0 310,0 310,-19"/>
<text text-anchor="middle" x="270" y="-7" font-family="Helvetica,sans-Serif" font-size="10.00">EchoProtocol</text>
</a>
</g>
</g>
<!-- WiseRouteNetworkLayer&#45;&gt;EchoProtocol -->
<g id="edge3" class="edge">
<title>WiseRouteNetworkLayer&#45;&gt;EchoProtocol</title>
<path fill="none" stroke="black" d="M270,-54.75C270,-47.8 270,-37.85 270,-29.13"/>
<polygon fill="black" stroke="black" points="273.5,-29.09 270,-19.09 266.5,-29.09 273.5,-29.09"/>
</g>
<!-- GlobalArp -->
<g id="node5" class="node">
<title>GlobalArp</title>
<g id="a_node5"><a xlink:href="inet.networklayer.arp.ipv4.GlobalArp.html" xlink:title="Simple Module GlobalArp" target="_parent">
<polygon fill="#fffcaf" stroke="black" points="393.5,-19 328.5,-19 328.5,0 393.5,0 393.5,-19"/>
<text text-anchor="middle" x="361" y="-7" font-family="Helvetica,sans-Serif" font-size="10.00">GlobalArp</text>
</a>
</g>
</g>
<!-- WiseRouteNetworkLayer&#45;&gt;GlobalArp -->
<g id="edge4" class="edge">
<title>WiseRouteNetworkLayer&#45;&gt;GlobalArp</title>
<path fill="none" stroke="black" d="M284.62,-54.98C298.86,-46.69 320.75,-33.94 337.45,-24.22"/>
<polygon fill="black" stroke="black" points="339.23,-27.23 346.11,-19.17 335.71,-21.18 339.23,-27.23"/>
</g>
<!-- WiseRoute -->
<g id="node6" class="node">
<title>WiseRoute</title>
<g id="a_node6"><a xlink:href="inet.networklayer.wiseroute.WiseRoute.html" xlink:title="Simple Module WiseRoute" target="_parent">
<polygon fill="#fffcaf" stroke="black" points="480.5,-19 411.5,-19 411.5,0 480.5,0 480.5,-19"/>
<text text-anchor="middle" x="446" y="-7" font-family="Helvetica,sans-Serif" font-size="10.00">WiseRoute</text>
</a>
</g>
</g>
<!-- WiseRouteNetworkLayer&#45;&gt;WiseRoute -->
<g id="edge5" class="edge">
<title>WiseRouteNetworkLayer&#45;&gt;WiseRoute</title>
<path fill="none" stroke="black" d="M298.28,-54.98C327.95,-46.05 374.79,-31.94 407.75,-22.02"/>
<polygon fill="black" stroke="black" points="408.93,-25.32 417.5,-19.08 406.92,-18.61 408.93,-25.32"/>
</g>
</g>
</svg>
