<?xml version="1.0" encoding="UTF-8" standalone="no"?>
<!DOCTYPE svg PUBLIC "-//W3C//DTD SVG 1.1//EN"
 "http://www.w3.org/Graphics/SVG/1.1/DTD/svg11.dtd">
<!-- Generated by graphviz version 2.43.0 (0)
 -->
<!-- Title: opp Pages: 1 -->
<svg width="290pt" height="82pt"
 viewBox="0.00 0.00 290.00 82.00" xmlns="http://www.w3.org/2000/svg" xmlns:xlink="http://www.w3.org/1999/xlink">
<g id="graph0" class="graph" transform="scale(1 1) rotate(0) translate(4 78)">
<title>opp</title>
<polygon fill="transparent" stroke="transparent" points="-4,4 -4,-78 286,-78 286,4 -4,4"/>
<!-- SwitchedDuplexLAN -->
<g id="node1" class="node">
<title>SwitchedDuplexLAN</title>
<g id="a_node1"><a xlink:href="inet.examples.ethernet.lans.SwitchedDuplexLAN.html" xlink:title="Network SwitchedDuplexLAN" target="_parent">
<polygon fill="#9090ff" stroke="black" points="194,-74 78,-74 78,-55 194,-55 194,-74"/>
<text text-anchor="middle" x="136" y="-62" font-family="Helvetica,sans-Serif" font-size="10.00">SwitchedDuplexLAN</text>
</a>
</g>
</g>
<!-- EthernetHost -->
<g id="node2" class="node">
<title>EthernetHost</title>
<g id="a_node2"><a xlink:href="inet.node.ethernet.EthernetHost.html" xlink:title="Compound Module EthernetHost" target="_parent">
<polygon fill="#fffcaf" stroke="black" points="80,-19 0,-19 0,0 80,0 80,-19"/>
<text text-anchor="middle" x="40" y="-7" font-family="Helvetica,sans-Serif" font-size="10.00">EthernetHost</text>
</a>
</g>
</g>
<!-- SwitchedDuplexLAN&#45;&gt;EthernetHost -->
<g id="edge1" class="edge">
<title>SwitchedDuplexLAN&#45;&gt;EthernetHost</title>
<path fill="none" stroke="black" d="M120.58,-54.98C105.55,-46.69 82.46,-33.94 64.84,-24.22"/>
<polygon fill="black" stroke="black" points="66.15,-20.94 55.7,-19.17 62.77,-27.07 66.15,-20.94"/>
</g>
<!-- ethernetline -->
<g id="node3" class="node">
<title>ethernetline</title>
<g id="a_node3"><a xlink:href="inet.examples.ethernet.lans.SwitchedDuplexLAN.ethernetline.html" xlink:title="Channel ethernetline" target="_parent">
<polygon fill="#d0ffd0" stroke="black" points="174,-19 98,-19 98,0 174,0 174,-19"/>
<text text-anchor="middle" x="136" y="-7" font-family="Helvetica,sans-Serif" font-size="10.00">ethernetline</text>
</a>
</g>
</g>
<!-- SwitchedDuplexLAN&#45;&gt;ethernetline -->
<g id="edge2" class="edge">
<title>SwitchedDuplexLAN&#45;&gt;ethernetline</title>
<path fill="none" stroke="black" d="M136,-54.75C136,-47.8 136,-37.85 136,-29.13"/>
<polygon fill="black" stroke="black" points="139.5,-29.09 136,-19.09 132.5,-29.09 139.5,-29.09"/>
</g>
<!-- EthernetSwitch -->
<g id="node4" class="node">
<title>EthernetSwitch</title>
<g id="a_node4"><a xlink:href="inet.node.ethernet.EthernetSwitch.html" xlink:title="Compound Module EthernetSwitch" target="_parent">
<polygon fill="#fffcaf" stroke="black" points="282,-19 192,-19 192,0 282,0 282,-19"/>
<text text-anchor="middle" x="237" y="-7" font-family="Helvetica,sans-Serif" font-size="10.00">EthernetSwitch</text>
</a>
</g>
</g>
<!-- SwitchedDuplexLAN&#45;&gt;EthernetSwitch -->
<g id="edge3" class="edge">
<title>SwitchedDuplexLAN&#45;&gt;EthernetSwitch</title>
<path fill="none" stroke="black" d="M152.23,-54.98C168.18,-46.61 192.78,-33.7 211.38,-23.95"/>
<polygon fill="black" stroke="black" points="213.25,-26.92 220.48,-19.17 210,-20.72 213.25,-26.92"/>
</g>
</g>
</svg>
