<?xml version="1.0" encoding="UTF-8" standalone="no"?>
<!DOCTYPE svg PUBLIC "-//W3C//DTD SVG 1.1//EN"
 "http://www.w3.org/Graphics/SVG/1.1/DTD/svg11.dtd">
<!-- Generated by graphviz version 2.43.0 (0)
 -->
<!-- Title: opp Pages: 1 -->
<svg width="1258pt" height="137pt"
 viewBox="0.00 0.00 1258.00 137.00" xmlns="http://www.w3.org/2000/svg" xmlns:xlink="http://www.w3.org/1999/xlink">
<g id="graph0" class="graph" transform="scale(1 1) rotate(0) translate(4 133)">
<title>opp</title>
<polygon fill="transparent" stroke="transparent" points="-4,4 -4,-133 1254,-133 1254,4 -4,4"/>
<!-- DataService -->
<g id="node1" class="node">
<title>DataService</title>
<g id="a_node1"><a xlink:href="inet.tutorials.protocol.DataService.html" xlink:title="Compound Module DataService" target="_parent">
<polygon fill="#fff700" stroke="black" points="640,-74 564,-74 564,-55 640,-55 640,-74"/>
<text text-anchor="middle" x="602" y="-62" font-family="Helvetica,sans-Serif" font-size="10.00">DataService</text>
</a>
</g>
</g>
<!-- SubpacketLengthHeaderBasedDeaggregator -->
<g id="node2" class="node">
<title>SubpacketLengthHeaderBasedDeaggregator</title>
<g id="a_node2"><a xlink:href="inet.protocolelement.aggregation.SubpacketLengthHeaderBasedDeaggregator.html" xlink:title="Simple Module SubpacketLengthHeaderBasedDeaggregator" target="_parent">
<polygon fill="#fffcaf" stroke="black" points="232,-19 0,-19 0,0 232,0 232,-19"/>
<text text-anchor="middle" x="116" y="-7" font-family="Helvetica,sans-Serif" font-size="10.00">SubpacketLengthHeaderBasedDeaggregator</text>
</a>
</g>
</g>
<!-- DataService&#45;&gt;SubpacketLengthHeaderBasedDeaggregator -->
<g id="edge1" class="edge">
<title>DataService&#45;&gt;SubpacketLengthHeaderBasedDeaggregator</title>
<path fill="none" stroke="black" d="M563.86,-59.34C486.91,-50.95 311.27,-31.79 204.24,-20.12"/>
<polygon fill="black" stroke="black" points="204.42,-16.62 194.1,-19.02 203.66,-23.58 204.42,-16.62"/>
</g>
<!-- IdealChannel -->
<g id="node3" class="node">
<title>IdealChannel</title>
<g id="a_node3"><a xlink:href="ned.IdealChannel.html" xlink:title="Channel IdealChannel" target="_parent">
<polygon fill="#d0ffd0" stroke="black" points="330,-19 250,-19 250,0 330,0 330,-19"/>
<text text-anchor="middle" x="290" y="-7" font-family="Helvetica,sans-Serif" font-size="10.00">IdealChannel</text>
</a>
</g>
</g>
<!-- DataService&#45;&gt;IdealChannel -->
<g id="edge2" class="edge">
<title>DataService&#45;&gt;IdealChannel</title>
<path fill="none" stroke="black" d="M563.66,-57.06C514.35,-48.77 425.76,-33.85 340.01,-19.17"/>
<polygon fill="black" stroke="black" points="340.56,-15.71 330.11,-17.47 339.37,-22.61 340.56,-15.71"/>
</g>
<!-- IPacketServer -->
<g id="node4" class="node">
<title>IPacketServer</title>
<g id="a_node4"><a xlink:href="inet.queueing.contract.IPacketServer.html" xlink:title="Module Interface IPacketServer" target="_parent">
<polygon fill="#fffcaf" stroke="black" stroke-dasharray="5,2" points="431.5,-19 348.5,-19 348.5,0 431.5,0 431.5,-19"/>
<text text-anchor="middle" x="390" y="-7" font-family="Helvetica,sans-Serif" font-size="10.00">IPacketServer</text>
</a>
</g>
</g>
<!-- DataService&#45;&gt;IPacketServer -->
<g id="edge3" class="edge">
<title>DataService&#45;&gt;IPacketServer</title>
<path fill="none" stroke="black" d="M567.94,-54.98C531.58,-45.89 473.83,-31.46 434.03,-21.51"/>
<polygon fill="black" stroke="black" points="434.88,-18.11 424.33,-19.08 433.18,-24.9 434.88,-18.11"/>
</g>
<!-- SequenceNumbering -->
<g id="node5" class="node">
<title>SequenceNumbering</title>
<g id="a_node5"><a xlink:href="inet.protocolelement.ordering.SequenceNumbering.html" xlink:title="Simple Module SequenceNumbering" target="_parent">
<polygon fill="#fffcaf" stroke="black" points="568,-19 450,-19 450,0 568,0 568,-19"/>
<text text-anchor="middle" x="509" y="-7" font-family="Helvetica,sans-Serif" font-size="10.00">SequenceNumbering</text>
</a>
</g>
</g>
<!-- DataService&#45;&gt;SequenceNumbering -->
<g id="edge4" class="edge">
<title>DataService&#45;&gt;SequenceNumbering</title>
<path fill="none" stroke="black" d="M587.06,-54.98C572.5,-46.69 550.13,-33.94 533.07,-24.22"/>
<polygon fill="black" stroke="black" points="534.64,-21.08 524.21,-19.17 531.17,-27.16 534.64,-21.08"/>
</g>
<!-- SubpacketLengthHeaderBasedAggregator -->
<g id="node6" class="node">
<title>SubpacketLengthHeaderBasedAggregator</title>
<g id="a_node6"><a xlink:href="inet.protocolelement.aggregation.SubpacketLengthHeaderBasedAggregator.html" xlink:title="Compound Module SubpacketLengthHeaderBasedAggregator" target="_parent">
<polygon fill="#fffcaf" stroke="black" points="805.5,-19 586.5,-19 586.5,0 805.5,0 805.5,-19"/>
<text text-anchor="middle" x="696" y="-7" font-family="Helvetica,sans-Serif" font-size="10.00">SubpacketLengthHeaderBasedAggregator</text>
</a>
</g>
</g>
<!-- DataService&#45;&gt;SubpacketLengthHeaderBasedAggregator -->
<g id="edge5" class="edge">
<title>DataService&#45;&gt;SubpacketLengthHeaderBasedAggregator</title>
<path fill="none" stroke="black" d="M617.1,-54.98C631.82,-46.69 654.42,-33.94 671.67,-24.22"/>
<polygon fill="black" stroke="black" points="673.63,-27.13 680.62,-19.17 670.19,-21.03 673.63,-27.13"/>
</g>
<!-- FragmentNumberHeaderBasedDefragmenter -->
<g id="node7" class="node">
<title>FragmentNumberHeaderBasedDefragmenter</title>
<g id="a_node7"><a xlink:href="inet.protocolelement.fragmentation.FragmentNumberHeaderBasedDefragmenter.html" xlink:title="Simple Module FragmentNumberHeaderBasedDefragmenter" target="_parent">
<polygon fill="#fffcaf" stroke="black" points="1060,-19 824,-19 824,0 1060,0 1060,-19"/>
<text text-anchor="middle" x="942" y="-7" font-family="Helvetica,sans-Serif" font-size="10.00">FragmentNumberHeaderBasedDefragmenter</text>
</a>
</g>
</g>
<!-- DataService&#45;&gt;FragmentNumberHeaderBasedDefragmenter -->
<g id="edge6" class="edge">
<title>DataService&#45;&gt;FragmentNumberHeaderBasedDefragmenter</title>
<path fill="none" stroke="black" d="M640.01,-57.57C697.49,-48.61 807.23,-31.51 877.4,-20.57"/>
<polygon fill="black" stroke="black" points="878.12,-24 887.46,-19 877.04,-17.08 878.12,-24"/>
</g>
<!-- IPacketQueue -->
<g id="node8" class="node">
<title>IPacketQueue</title>
<g id="a_node8"><a xlink:href="inet.queueing.contract.IPacketQueue.html" xlink:title="Module Interface IPacketQueue" target="_parent">
<polygon fill="#fffcaf" stroke="black" stroke-dasharray="5,2" points="1161.5,-19 1078.5,-19 1078.5,0 1161.5,0 1161.5,-19"/>
<text text-anchor="middle" x="1120" y="-7" font-family="Helvetica,sans-Serif" font-size="10.00">IPacketQueue</text>
</a>
</g>
</g>
<!-- DataService&#45;&gt;IPacketQueue -->
<g id="edge7" class="edge">
<title>DataService&#45;&gt;IPacketQueue</title>
<path fill="none" stroke="black" d="M640.24,-60.77C718.45,-54.99 902.56,-40.37 1067.93,-19.05"/>
<polygon fill="black" stroke="black" points="1068.82,-22.46 1078.29,-17.7 1067.92,-15.52 1068.82,-22.46"/>
</g>
<!-- Reordering -->
<g id="node9" class="node">
<title>Reordering</title>
<g id="a_node9"><a xlink:href="inet.protocolelement.ordering.Reordering.html" xlink:title="Simple Module Reordering" target="_parent">
<polygon fill="#fffcaf" stroke="black" points="1250,-19 1180,-19 1180,0 1250,0 1250,-19"/>
<text text-anchor="middle" x="1215" y="-7" font-family="Helvetica,sans-Serif" font-size="10.00">Reordering</text>
</a>
</g>
</g>
<!-- DataService&#45;&gt;Reordering -->
<g id="edge8" class="edge">
<title>DataService&#45;&gt;Reordering</title>
<path fill="none" stroke="black" d="M640.11,-62.01C730.39,-58.15 964.46,-46.28 1169.92,-18.99"/>
<polygon fill="black" stroke="black" points="1170.55,-22.43 1179.99,-17.63 1169.62,-15.5 1170.55,-22.43"/>
</g>
<!-- Node -->
<g id="node10" class="node">
<title>Node</title>
<g id="a_node10"><a xlink:href="inet.tutorials.protocol.Node.html" xlink:title="Compound Module Node" target="_parent">
<polygon fill="#fffcaf" stroke="black" points="629,-129 575,-129 575,-110 629,-110 629,-129"/>
<text text-anchor="middle" x="602" y="-117" font-family="Helvetica,sans-Serif" font-size="10.00">Node</text>
</a>
</g>
</g>
<!-- Node&#45;&gt;DataService -->
<g id="edge9" class="edge">
<title>Node&#45;&gt;DataService</title>
<path fill="none" stroke="black" d="M602,-109.75C602,-102.8 602,-92.85 602,-84.13"/>
<polygon fill="black" stroke="black" points="605.5,-84.09 602,-74.09 598.5,-84.09 605.5,-84.09"/>
</g>
</g>
</svg>
