<?xml version="1.0" encoding="UTF-8" standalone="no"?>
<!DOCTYPE svg PUBLIC "-//W3C//DTD SVG 1.1//EN"
 "http://www.w3.org/Graphics/SVG/1.1/DTD/svg11.dtd">
<!-- Generated by graphviz version 2.43.0 (0)
 -->
<!-- Title: opp Pages: 1 -->
<svg width="164pt" height="82pt"
 viewBox="0.00 0.00 163.50 82.00" xmlns="http://www.w3.org/2000/svg" xmlns:xlink="http://www.w3.org/1999/xlink">
<g id="graph0" class="graph" transform="scale(1 1) rotate(0) translate(4 78)">
<title>opp</title>
<polygon fill="transparent" stroke="transparent" points="-4,4 -4,-78 159.5,-78 159.5,4 -4,4"/>
<!-- NetworkInterface -->
<g id="node1" class="node">
<title>NetworkInterface</title>
<g id="a_node1"><a xlink:href="inet.networklayer.common.NetworkInterface.html" xlink:title="Compound Module NetworkInterface" target="_parent">
<polygon fill="#fff700" stroke="black" points="135,-74 34,-74 34,-55 135,-55 135,-74"/>
<text text-anchor="middle" x="84.5" y="-62" font-family="Helvetica,sans-Serif" font-size="10.00">NetworkInterface</text>
</a>
</g>
</g>
<!-- PcapRecorder -->
<g id="node2" class="node">
<title>PcapRecorder</title>
<g id="a_node2"><a xlink:href="inet.common.packet.recorder.PcapRecorder.html" xlink:title="Simple Module PcapRecorder" target="_parent">
<polygon fill="#fffcaf" stroke="black" points="83,-19 0,-19 0,0 83,0 83,-19"/>
<text text-anchor="middle" x="41.5" y="-7" font-family="Helvetica,sans-Serif" font-size="10.00">PcapRecorder</text>
</a>
</g>
</g>
<!-- NetworkInterface&#45;&gt;PcapRecorder -->
<g id="edge1" class="edge">
<title>NetworkInterface&#45;&gt;PcapRecorder</title>
<path fill="none" stroke="black" d="M77.4,-54.75C71.33,-47.26 62.41,-36.28 54.99,-27.13"/>
<polygon fill="black" stroke="black" points="57.49,-24.65 48.47,-19.09 52.05,-29.06 57.49,-24.65"/>
</g>
<!-- IClock -->
<g id="node3" class="node">
<title>IClock</title>
<g id="a_node3"><a xlink:href="inet.clock.contract.IClock.html" xlink:title="Module Interface IClock" target="_parent">
<polygon fill="#fffcaf" stroke="black" stroke-dasharray="5,2" points="155.5,-19 101.5,-19 101.5,0 155.5,0 155.5,-19"/>
<text text-anchor="middle" x="128.5" y="-7" font-family="Helvetica,sans-Serif" font-size="10.00">IClock</text>
</a>
</g>
</g>
<!-- NetworkInterface&#45;&gt;IClock -->
<g id="edge2" class="edge">
<title>NetworkInterface&#45;&gt;IClock</title>
<path fill="none" stroke="black" d="M91.77,-54.75C98.04,-47.18 107.29,-36.05 114.93,-26.84"/>
<polygon fill="black" stroke="black" points="117.67,-29.02 121.37,-19.09 112.29,-24.55 117.67,-29.02"/>
</g>
</g>
</svg>
