<?xml version="1.0" encoding="UTF-8" standalone="no"?>
<!DOCTYPE svg PUBLIC "-//W3C//DTD SVG 1.1//EN"
 "http://www.w3.org/Graphics/SVG/1.1/DTD/svg11.dtd">
<!-- Generated by graphviz version 2.43.0 (0)
 -->
<!-- Title: opp Pages: 1 -->
<svg width="575pt" height="82pt"
 viewBox="0.00 0.00 574.50 82.00" xmlns="http://www.w3.org/2000/svg" xmlns:xlink="http://www.w3.org/1999/xlink">
<g id="graph0" class="graph" transform="scale(1 1) rotate(0) translate(4 78)">
<title>opp</title>
<polygon fill="transparent" stroke="transparent" points="-4,4 -4,-78 570.5,-78 570.5,4 -4,4"/>
<!-- ClientServerWithSM -->
<g id="node1" class="node">
<title>ClientServerWithSM</title>
<g id="a_node1"><a xlink:href="inet.examples.inet.tcp_eth_reconnect.ClientServerWithSM.html" xlink:title="Network ClientServerWithSM" target="_parent">
<polygon fill="#9090ff" stroke="black" points="347.5,-74 233.5,-74 233.5,-55 347.5,-55 347.5,-74"/>
<text text-anchor="middle" x="290.5" y="-62" font-family="Helvetica,sans-Serif" font-size="10.00">ClientServerWithSM</text>
</a>
</g>
</g>
<!-- ScenarioManager -->
<g id="node2" class="node">
<title>ScenarioManager</title>
<g id="a_node2"><a xlink:href="inet.common.scenario.ScenarioManager.html" xlink:title="Simple Module ScenarioManager" target="_parent">
<polygon fill="#fffcaf" stroke="black" points="101,-19 0,-19 0,0 101,0 101,-19"/>
<text text-anchor="middle" x="50.5" y="-7" font-family="Helvetica,sans-Serif" font-size="10.00">ScenarioManager</text>
</a>
</g>
</g>
<!-- ClientServerWithSM&#45;&gt;ScenarioManager -->
<g id="edge1" class="edge">
<title>ClientServerWithSM&#45;&gt;ScenarioManager</title>
<path fill="none" stroke="black" d="M251.94,-54.98C210.43,-45.82 144.29,-31.21 99.21,-21.26"/>
<polygon fill="black" stroke="black" points="99.88,-17.82 89.36,-19.08 98.37,-24.66 99.88,-17.82"/>
</g>
<!-- StandardHost -->
<g id="node3" class="node">
<title>StandardHost</title>
<g id="a_node3"><a xlink:href="inet.node.inet.StandardHost.html" xlink:title="Compound Module StandardHost" target="_parent">
<polygon fill="#fffcaf" stroke="black" points="202,-19 119,-19 119,0 202,0 202,-19"/>
<text text-anchor="middle" x="160.5" y="-7" font-family="Helvetica,sans-Serif" font-size="10.00">StandardHost</text>
</a>
</g>
</g>
<!-- ClientServerWithSM&#45;&gt;StandardHost -->
<g id="edge2" class="edge">
<title>ClientServerWithSM&#45;&gt;StandardHost</title>
<path fill="none" stroke="black" d="M269.61,-54.98C248.42,-46.34 215.37,-32.87 191.2,-23.02"/>
<polygon fill="black" stroke="black" points="192.35,-19.7 181.77,-19.17 189.71,-26.19 192.35,-19.7"/>
</g>
<!-- Ipv4NetworkConfigurator -->
<g id="node4" class="node">
<title>Ipv4NetworkConfigurator</title>
<g id="a_node4"><a xlink:href="inet.networklayer.configurator.ipv4.Ipv4NetworkConfigurator.html" xlink:title="Simple Module Ipv4NetworkConfigurator" target="_parent">
<polygon fill="#fffcaf" stroke="black" points="360.5,-19 220.5,-19 220.5,0 360.5,0 360.5,-19"/>
<text text-anchor="middle" x="290.5" y="-7" font-family="Helvetica,sans-Serif" font-size="10.00">Ipv4NetworkConfigurator</text>
</a>
</g>
</g>
<!-- ClientServerWithSM&#45;&gt;Ipv4NetworkConfigurator -->
<g id="edge3" class="edge">
<title>ClientServerWithSM&#45;&gt;Ipv4NetworkConfigurator</title>
<path fill="none" stroke="black" d="M290.5,-54.75C290.5,-47.8 290.5,-37.85 290.5,-29.13"/>
<polygon fill="black" stroke="black" points="294,-29.09 290.5,-19.09 287,-29.09 294,-29.09"/>
</g>
<!-- IntegratedVisualizer -->
<g id="node5" class="node">
<title>IntegratedVisualizer</title>
<g id="a_node5"><a xlink:href="inet.visualizer.common.IntegratedVisualizer.html" xlink:title="Compound Module IntegratedVisualizer" target="_parent">
<polygon fill="#fffcaf" stroke="black" points="494,-19 379,-19 379,0 494,0 494,-19"/>
<text text-anchor="middle" x="436.5" y="-7" font-family="Helvetica,sans-Serif" font-size="10.00">IntegratedVisualizer</text>
</a>
</g>
</g>
<!-- ClientServerWithSM&#45;&gt;IntegratedVisualizer -->
<g id="edge4" class="edge">
<title>ClientServerWithSM&#45;&gt;IntegratedVisualizer</title>
<path fill="none" stroke="black" d="M313.96,-54.98C338.08,-46.23 375.87,-32.51 403.1,-22.62"/>
<polygon fill="black" stroke="black" points="404.41,-25.87 412.62,-19.17 402.02,-19.29 404.41,-25.87"/>
</g>
<!-- C -->
<g id="node6" class="node">
<title>C</title>
<g id="a_node6"><a xlink:href="inet.examples.inet.tcp_eth_reconnect.ClientServerWithSM.C.html" xlink:title="Channel C" target="_parent">
<polygon fill="#d0ffd0" stroke="black" points="566.5,-19 512.5,-19 512.5,0 566.5,0 566.5,-19"/>
<text text-anchor="middle" x="539.5" y="-7" font-family="Helvetica,sans-Serif" font-size="10.00">C</text>
</a>
</g>
</g>
<!-- ClientServerWithSM&#45;&gt;C -->
<g id="edge5" class="edge">
<title>ClientServerWithSM&#45;&gt;C</title>
<path fill="none" stroke="black" d="M333,-54.96C373.94,-46.65 437.87,-33.49 502.44,-19.19"/>
<polygon fill="black" stroke="black" points="503.39,-22.57 512.39,-16.98 501.87,-15.73 503.39,-22.57"/>
</g>
</g>
</svg>
