<?xml version="1.0" encoding="UTF-8" standalone="no"?>
<!DOCTYPE svg PUBLIC "-//W3C//DTD SVG 1.1//EN"
 "http://www.w3.org/Graphics/SVG/1.1/DTD/svg11.dtd">
<!-- Generated by graphviz version 2.43.0 (0)
 -->
<!-- Title: opp Pages: 1 -->
<svg width="568pt" height="82pt"
 viewBox="0.00 0.00 567.50 82.00" xmlns="http://www.w3.org/2000/svg" xmlns:xlink="http://www.w3.org/1999/xlink">
<g id="graph0" class="graph" transform="scale(1 1) rotate(0) translate(4 78)">
<title>opp</title>
<polygon fill="transparent" stroke="transparent" points="-4,4 -4,-78 563.5,-78 563.5,4 -4,4"/>
<!-- DiffservNetwork -->
<g id="node1" class="node">
<title>DiffservNetwork</title>
<g id="a_node1"><a xlink:href="inet.examples.diffserv.onedomain.DiffservNetwork.html" xlink:title="Network DiffservNetwork" target="_parent">
<polygon fill="#9090ff" stroke="black" points="292.5,-74 195.5,-74 195.5,-55 292.5,-55 292.5,-74"/>
<text text-anchor="middle" x="244" y="-62" font-family="Helvetica,sans-Serif" font-size="10.00">DiffservNetwork</text>
</a>
</g>
</g>
<!-- coreline -->
<g id="node2" class="node">
<title>coreline</title>
<g id="a_node2"><a xlink:href="inet.examples.diffserv.onedomain.DiffservNetwork.coreline.html" xlink:title="Channel coreline" target="_parent">
<polygon fill="#d0ffd0" stroke="black" points="56,-19 0,-19 0,0 56,0 56,-19"/>
<text text-anchor="middle" x="28" y="-7" font-family="Helvetica,sans-Serif" font-size="10.00">coreline</text>
</a>
</g>
</g>
<!-- DiffservNetwork&#45;&gt;coreline -->
<g id="edge1" class="edge">
<title>DiffservNetwork&#45;&gt;coreline</title>
<path fill="none" stroke="black" d="M209.3,-54.98C170.05,-45.35 106.35,-29.72 65.85,-19.79"/>
<polygon fill="black" stroke="black" points="66.63,-16.37 56.08,-17.39 64.96,-23.17 66.63,-16.37"/>
</g>
<!-- StandardHost -->
<g id="node3" class="node">
<title>StandardHost</title>
<g id="a_node3"><a xlink:href="inet.node.inet.StandardHost.html" xlink:title="Compound Module StandardHost" target="_parent">
<polygon fill="#fffcaf" stroke="black" points="157.5,-19 74.5,-19 74.5,0 157.5,0 157.5,-19"/>
<text text-anchor="middle" x="116" y="-7" font-family="Helvetica,sans-Serif" font-size="10.00">StandardHost</text>
</a>
</g>
</g>
<!-- DiffservNetwork&#45;&gt;StandardHost -->
<g id="edge2" class="edge">
<title>DiffservNetwork&#45;&gt;StandardHost</title>
<path fill="none" stroke="black" d="M223.43,-54.98C202.57,-46.34 170.03,-32.87 146.23,-23.02"/>
<polygon fill="black" stroke="black" points="147.52,-19.76 136.94,-19.17 144.84,-26.23 147.52,-19.76"/>
</g>
<!-- Router -->
<g id="node4" class="node">
<title>Router</title>
<g id="a_node4"><a xlink:href="inet.node.inet.Router.html" xlink:title="Compound Module Router" target="_parent">
<polygon fill="#fffcaf" stroke="black" points="230,-19 176,-19 176,0 230,0 230,-19"/>
<text text-anchor="middle" x="203" y="-7" font-family="Helvetica,sans-Serif" font-size="10.00">Router</text>
</a>
</g>
</g>
<!-- DiffservNetwork&#45;&gt;Router -->
<g id="edge3" class="edge">
<title>DiffservNetwork&#45;&gt;Router</title>
<path fill="none" stroke="black" d="M237.23,-54.75C231.44,-47.26 222.94,-36.28 215.86,-27.13"/>
<polygon fill="black" stroke="black" points="218.53,-24.86 209.64,-19.09 212.99,-29.14 218.53,-24.86"/>
</g>
<!-- ethernetline -->
<g id="node5" class="node">
<title>ethernetline</title>
<g id="a_node5"><a xlink:href="inet.examples.diffserv.onedomain.DiffservNetwork.ethernetline.html" xlink:title="Channel ethernetline" target="_parent">
<polygon fill="#d0ffd0" stroke="black" points="324,-19 248,-19 248,0 324,0 324,-19"/>
<text text-anchor="middle" x="286" y="-7" font-family="Helvetica,sans-Serif" font-size="10.00">ethernetline</text>
</a>
</g>
</g>
<!-- DiffservNetwork&#45;&gt;ethernetline -->
<g id="edge4" class="edge">
<title>DiffservNetwork&#45;&gt;ethernetline</title>
<path fill="none" stroke="black" d="M250.94,-54.75C256.87,-47.26 265.57,-36.28 272.82,-27.13"/>
<polygon fill="black" stroke="black" points="275.73,-29.1 279.19,-19.09 270.24,-24.75 275.73,-29.1"/>
</g>
<!-- Ipv4NetworkConfigurator -->
<g id="node6" class="node">
<title>Ipv4NetworkConfigurator</title>
<g id="a_node6"><a xlink:href="inet.networklayer.configurator.ipv4.Ipv4NetworkConfigurator.html" xlink:title="Simple Module Ipv4NetworkConfigurator" target="_parent">
<polygon fill="#fffcaf" stroke="black" points="482,-19 342,-19 342,0 482,0 482,-19"/>
<text text-anchor="middle" x="412" y="-7" font-family="Helvetica,sans-Serif" font-size="10.00">Ipv4NetworkConfigurator</text>
</a>
</g>
</g>
<!-- DiffservNetwork&#45;&gt;Ipv4NetworkConfigurator -->
<g id="edge5" class="edge">
<title>DiffservNetwork&#45;&gt;Ipv4NetworkConfigurator</title>
<path fill="none" stroke="black" d="M270.99,-54.98C299.2,-46.09 343.64,-32.07 375.08,-22.15"/>
<polygon fill="black" stroke="black" points="376.31,-25.43 384.8,-19.08 374.21,-18.75 376.31,-25.43"/>
</g>
<!-- edgeline -->
<g id="node7" class="node">
<title>edgeline</title>
<g id="a_node7"><a xlink:href="inet.examples.diffserv.onedomain.DiffservNetwork.edgeline.html" xlink:title="Channel edgeline" target="_parent">
<polygon fill="#d0ffd0" stroke="black" points="559.5,-19 500.5,-19 500.5,0 559.5,0 559.5,-19"/>
<text text-anchor="middle" x="530" y="-7" font-family="Helvetica,sans-Serif" font-size="10.00">edgeline</text>
</a>
</g>
</g>
<!-- DiffservNetwork&#45;&gt;edgeline -->
<g id="edge6" class="edge">
<title>DiffservNetwork&#45;&gt;edgeline</title>
<path fill="none" stroke="black" d="M292.84,-55.24C340.59,-47.04 415.62,-33.84 490.18,-19.1"/>
<polygon fill="black" stroke="black" points="491.09,-22.49 500.21,-17.11 489.72,-15.62 491.09,-22.49"/>
</g>
</g>
</svg>
