<?xml version="1.0" encoding="UTF-8" standalone="no"?>
<!DOCTYPE svg PUBLIC "-//W3C//DTD SVG 1.1//EN"
 "http://www.w3.org/Graphics/SVG/1.1/DTD/svg11.dtd">
<!-- Generated by graphviz version 2.43.0 (0)
 -->
<!-- Title: opp Pages: 1 -->
<svg width="370pt" height="82pt"
 viewBox="0.00 0.00 370.00 82.00" xmlns="http://www.w3.org/2000/svg" xmlns:xlink="http://www.w3.org/1999/xlink">
<g id="graph0" class="graph" transform="scale(1 1) rotate(0) translate(4 78)">
<title>opp</title>
<polygon fill="transparent" stroke="transparent" points="-4,4 -4,-78 366,-78 366,4 -4,4"/>
<!-- RTPUnicast1 -->
<g id="node1" class="node">
<title>RTPUnicast1</title>
<g id="a_node1"><a xlink:href="inet.examples.rtp.unicast1.RTPUnicast1.html" xlink:title="Network RTPUnicast1" target="_parent">
<polygon fill="#9090ff" stroke="black" points="198,-74 120,-74 120,-55 198,-55 198,-74"/>
<text text-anchor="middle" x="159" y="-62" font-family="Helvetica,sans-Serif" font-size="10.00">RTPUnicast1</text>
</a>
</g>
</g>
<!-- Router -->
<g id="node2" class="node">
<title>Router</title>
<g id="a_node2"><a xlink:href="inet.node.inet.Router.html" xlink:title="Compound Module Router" target="_parent">
<polygon fill="#fffcaf" stroke="black" points="54,-19 0,-19 0,0 54,0 54,-19"/>
<text text-anchor="middle" x="27" y="-7" font-family="Helvetica,sans-Serif" font-size="10.00">Router</text>
</a>
</g>
</g>
<!-- RTPUnicast1&#45;&gt;Router -->
<g id="edge1" class="edge">
<title>RTPUnicast1&#45;&gt;Router</title>
<path fill="none" stroke="black" d="M137.79,-54.98C116.27,-46.34 82.72,-32.87 58.17,-23.02"/>
<polygon fill="black" stroke="black" points="59.18,-19.65 48.59,-19.17 56.57,-26.14 59.18,-19.65"/>
</g>
<!-- ethernet -->
<g id="node3" class="node">
<title>ethernet</title>
<g id="a_node3"><a xlink:href="inet.examples.rtp.unicast1.RTPUnicast1.ethernet.html" xlink:title="Channel ethernet" target="_parent">
<polygon fill="#d0ffd0" stroke="black" points="130,-19 72,-19 72,0 130,0 130,-19"/>
<text text-anchor="middle" x="101" y="-7" font-family="Helvetica,sans-Serif" font-size="10.00">ethernet</text>
</a>
</g>
</g>
<!-- RTPUnicast1&#45;&gt;ethernet -->
<g id="edge2" class="edge">
<title>RTPUnicast1&#45;&gt;ethernet</title>
<path fill="none" stroke="black" d="M149.68,-54.98C141.19,-47.23 128.44,-35.58 118.12,-26.14"/>
<polygon fill="black" stroke="black" points="120.23,-23.33 110.49,-19.17 115.51,-28.5 120.23,-23.33"/>
</g>
<!-- Ipv4NetworkConfigurator -->
<g id="node4" class="node">
<title>Ipv4NetworkConfigurator</title>
<g id="a_node4"><a xlink:href="inet.networklayer.configurator.ipv4.Ipv4NetworkConfigurator.html" xlink:title="Simple Module Ipv4NetworkConfigurator" target="_parent">
<polygon fill="#fffcaf" stroke="black" points="288,-19 148,-19 148,0 288,0 288,-19"/>
<text text-anchor="middle" x="218" y="-7" font-family="Helvetica,sans-Serif" font-size="10.00">Ipv4NetworkConfigurator</text>
</a>
</g>
</g>
<!-- RTPUnicast1&#45;&gt;Ipv4NetworkConfigurator -->
<g id="edge3" class="edge">
<title>RTPUnicast1&#45;&gt;Ipv4NetworkConfigurator</title>
<path fill="none" stroke="black" d="M168.48,-54.98C177.2,-47.15 190.34,-35.34 200.9,-25.86"/>
<polygon fill="black" stroke="black" points="203.25,-28.46 208.35,-19.17 198.57,-23.25 203.25,-28.46"/>
</g>
<!-- RtpHost -->
<g id="node5" class="node">
<title>RtpHost</title>
<g id="a_node5"><a xlink:href="inet.node.rtp.RtpHost.html" xlink:title="Compound Module RtpHost" target="_parent">
<polygon fill="#fffcaf" stroke="black" points="362,-19 306,-19 306,0 362,0 362,-19"/>
<text text-anchor="middle" x="334" y="-7" font-family="Helvetica,sans-Serif" font-size="10.00">RtpHost</text>
</a>
</g>
</g>
<!-- RTPUnicast1&#45;&gt;RtpHost -->
<g id="edge4" class="edge">
<title>RTPUnicast1&#45;&gt;RtpHost</title>
<path fill="none" stroke="black" d="M187.12,-54.98C216.71,-46.02 263.47,-31.86 296.26,-21.93"/>
<polygon fill="black" stroke="black" points="297.4,-25.24 305.95,-18.99 295.37,-18.54 297.4,-25.24"/>
</g>
</g>
</svg>
