<?xml version="1.0" encoding="UTF-8" standalone="no"?>
<!DOCTYPE svg PUBLIC "-//W3C//DTD SVG 1.1//EN"
 "http://www.w3.org/Graphics/SVG/1.1/DTD/svg11.dtd">
<!-- Generated by graphviz version 2.43.0 (0)
 -->
<!-- Title: opp Pages: 1 -->
<svg width="508pt" height="82pt"
 viewBox="0.00 0.00 507.50 82.00" xmlns="http://www.w3.org/2000/svg" xmlns:xlink="http://www.w3.org/1999/xlink">
<g id="graph0" class="graph" transform="scale(1 1) rotate(0) translate(4 78)">
<title>opp</title>
<polygon fill="transparent" stroke="transparent" points="-4,4 -4,-78 503.5,-78 503.5,4 -4,4"/>
<!-- CoexistenceShowcase -->
<g id="node1" class="node">
<title>CoexistenceShowcase</title>
<g id="a_node1"><a xlink:href="inet.showcases.wireless.coexistence.CoexistenceShowcase.html" xlink:title="Network CoexistenceShowcase" target="_parent">
<polygon fill="#9090ff" stroke="black" points="364.5,-74 239.5,-74 239.5,-55 364.5,-55 364.5,-74"/>
<text text-anchor="middle" x="302" y="-62" font-family="Helvetica,sans-Serif" font-size="10.00">CoexistenceShowcase</text>
</a>
</g>
</g>
<!-- Ipv4NetworkConfigurator -->
<g id="node2" class="node">
<title>Ipv4NetworkConfigurator</title>
<g id="a_node2"><a xlink:href="inet.networklayer.configurator.ipv4.Ipv4NetworkConfigurator.html" xlink:title="Simple Module Ipv4NetworkConfigurator" target="_parent">
<polygon fill="#fffcaf" stroke="black" points="140,-19 0,-19 0,0 140,0 140,-19"/>
<text text-anchor="middle" x="70" y="-7" font-family="Helvetica,sans-Serif" font-size="10.00">Ipv4NetworkConfigurator</text>
</a>
</g>
</g>
<!-- CoexistenceShowcase&#45;&gt;Ipv4NetworkConfigurator -->
<g id="edge1" class="edge">
<title>CoexistenceShowcase&#45;&gt;Ipv4NetworkConfigurator</title>
<path fill="none" stroke="black" d="M264.73,-54.98C224.68,-45.84 160.93,-31.27 117.36,-21.32"/>
<polygon fill="black" stroke="black" points="118.1,-17.9 107.57,-19.08 116.54,-24.72 118.1,-17.9"/>
</g>
<!-- IntegratedCanvasVisualizer -->
<g id="node3" class="node">
<title>IntegratedCanvasVisualizer</title>
<g id="a_node3"><a xlink:href="inet.visualizer.canvas.integrated.IntegratedCanvasVisualizer.html" xlink:title="Compound Module IntegratedCanvasVisualizer" target="_parent">
<polygon fill="#fffcaf" stroke="black" points="309.5,-19 158.5,-19 158.5,0 309.5,0 309.5,-19"/>
<text text-anchor="middle" x="234" y="-7" font-family="Helvetica,sans-Serif" font-size="10.00">IntegratedCanvasVisualizer</text>
</a>
</g>
</g>
<!-- CoexistenceShowcase&#45;&gt;IntegratedCanvasVisualizer -->
<g id="edge2" class="edge">
<title>CoexistenceShowcase&#45;&gt;IntegratedCanvasVisualizer</title>
<path fill="none" stroke="black" d="M291.07,-54.98C280.92,-47.07 265.58,-35.11 253.35,-25.58"/>
<polygon fill="black" stroke="black" points="255.16,-22.56 245.12,-19.17 250.86,-28.08 255.16,-22.56"/>
</g>
<!-- RadioMedium -->
<g id="node4" class="node">
<title>RadioMedium</title>
<g id="a_node4"><a xlink:href="inet.physicallayer.wireless.common.medium.RadioMedium.html" xlink:title="Compound Module RadioMedium" target="_parent">
<polygon fill="#fffcaf" stroke="black" points="412,-19 328,-19 328,0 412,0 412,-19"/>
<text text-anchor="middle" x="370" y="-7" font-family="Helvetica,sans-Serif" font-size="10.00">RadioMedium</text>
</a>
</g>
</g>
<!-- CoexistenceShowcase&#45;&gt;RadioMedium -->
<g id="edge3" class="edge">
<title>CoexistenceShowcase&#45;&gt;RadioMedium</title>
<path fill="none" stroke="black" d="M312.93,-54.98C323.08,-47.07 338.42,-35.11 350.65,-25.58"/>
<polygon fill="black" stroke="black" points="353.14,-28.08 358.88,-19.17 348.84,-22.56 353.14,-28.08"/>
</g>
<!-- AdhocHost -->
<g id="node5" class="node">
<title>AdhocHost</title>
<g id="a_node5"><a xlink:href="inet.node.inet.AdhocHost.html" xlink:title="Compound Module AdhocHost" target="_parent">
<polygon fill="#fffcaf" stroke="black" points="499.5,-19 430.5,-19 430.5,0 499.5,0 499.5,-19"/>
<text text-anchor="middle" x="465" y="-7" font-family="Helvetica,sans-Serif" font-size="10.00">AdhocHost</text>
</a>
</g>
</g>
<!-- CoexistenceShowcase&#45;&gt;AdhocHost -->
<g id="edge4" class="edge">
<title>CoexistenceShowcase&#45;&gt;AdhocHost</title>
<path fill="none" stroke="black" d="M328.19,-54.98C355.44,-46.13 398.3,-32.19 428.78,-22.28"/>
<polygon fill="black" stroke="black" points="430.18,-25.5 438.61,-19.08 428.01,-18.85 430.18,-25.5"/>
</g>
</g>
</svg>
