<?xml version="1.0" encoding="UTF-8" standalone="no"?>
<!DOCTYPE svg PUBLIC "-//W3C//DTD SVG 1.1//EN"
 "http://www.w3.org/Graphics/SVG/1.1/DTD/svg11.dtd">
<!-- Generated by graphviz version 2.43.0 (0)
 -->
<!-- Title: opp Pages: 1 -->
<svg width="182pt" height="82pt"
 viewBox="0.00 0.00 181.50 82.00" xmlns="http://www.w3.org/2000/svg" xmlns:xlink="http://www.w3.org/1999/xlink">
<g id="graph0" class="graph" transform="scale(1 1) rotate(0) translate(4 78)">
<title>opp</title>
<polygon fill="transparent" stroke="transparent" points="-4,4 -4,-78 177.5,-78 177.5,4 -4,4"/>
<!-- StreamCoderLayer -->
<g id="node1" class="node">
<title>StreamCoderLayer</title>
<g id="a_node1"><a xlink:href="inet.protocolelement.redundancy.StreamCoderLayer.html" xlink:title="Compound Module StreamCoderLayer" target="_parent">
<polygon fill="#fff700" stroke="black" points="141.5,-74 34.5,-74 34.5,-55 141.5,-55 141.5,-74"/>
<text text-anchor="middle" x="88" y="-62" font-family="Helvetica,sans-Serif" font-size="10.00">StreamCoderLayer</text>
</a>
</g>
</g>
<!-- IdealChannel -->
<g id="node2" class="node">
<title>IdealChannel</title>
<g id="a_node2"><a xlink:href="ned.IdealChannel.html" xlink:title="Channel IdealChannel" target="_parent">
<polygon fill="#d0ffd0" stroke="black" points="80,-19 0,-19 0,0 80,0 80,-19"/>
<text text-anchor="middle" x="40" y="-7" font-family="Helvetica,sans-Serif" font-size="10.00">IdealChannel</text>
</a>
</g>
</g>
<!-- StreamCoderLayer&#45;&gt;IdealChannel -->
<g id="edge1" class="edge">
<title>StreamCoderLayer&#45;&gt;IdealChannel</title>
<path fill="none" stroke="black" d="M80.07,-54.75C73.15,-47.11 62.93,-35.82 54.55,-26.56"/>
<polygon fill="black" stroke="black" points="57.09,-24.15 47.78,-19.09 51.9,-28.85 57.09,-24.15"/>
</g>
<!-- IPacketFlow -->
<g id="node3" class="node">
<title>IPacketFlow</title>
<g id="a_node3"><a xlink:href="inet.queueing.contract.IPacketFlow.html" xlink:title="Module Interface IPacketFlow" target="_parent">
<polygon fill="#fffcaf" stroke="black" stroke-dasharray="5,2" points="173.5,-19 98.5,-19 98.5,0 173.5,0 173.5,-19"/>
<text text-anchor="middle" x="136" y="-7" font-family="Helvetica,sans-Serif" font-size="10.00">IPacketFlow</text>
</a>
</g>
</g>
<!-- StreamCoderLayer&#45;&gt;IPacketFlow -->
<g id="edge2" class="edge">
<title>StreamCoderLayer&#45;&gt;IPacketFlow</title>
<path fill="none" stroke="black" d="M95.93,-54.75C102.85,-47.11 113.07,-35.82 121.45,-26.56"/>
<polygon fill="black" stroke="black" points="124.1,-28.85 128.22,-19.09 118.91,-24.15 124.1,-28.85"/>
</g>
</g>
</svg>
