<?xml version="1.0" encoding="UTF-8" standalone="no"?>
<!DOCTYPE svg PUBLIC "-//W3C//DTD SVG 1.1//EN"
 "http://www.w3.org/Graphics/SVG/1.1/DTD/svg11.dtd">
<!-- Generated by graphviz version 2.43.0 (0)
 -->
<!-- Title: opp Pages: 1 -->
<svg width="426pt" height="82pt"
 viewBox="0.00 0.00 426.00 82.00" xmlns="http://www.w3.org/2000/svg" xmlns:xlink="http://www.w3.org/1999/xlink">
<g id="graph0" class="graph" transform="scale(1 1) rotate(0) translate(4 78)">
<title>opp</title>
<polygon fill="transparent" stroke="transparent" points="-4,4 -4,-78 422,-78 422,4 -4,4"/>
<!-- PriorityShaper -->
<g id="node1" class="node">
<title>PriorityShaper</title>
<g id="a_node1"><a xlink:href="inet.queueing.shaper.PriorityShaper.html" xlink:title="Compound Module PriorityShaper" target="_parent">
<polygon fill="#fff700" stroke="black" points="254,-74 168,-74 168,-55 254,-55 254,-74"/>
<text text-anchor="middle" x="211" y="-62" font-family="Helvetica,sans-Serif" font-size="10.00">PriorityShaper</text>
</a>
</g>
</g>
<!-- IPacketScheduler -->
<g id="node2" class="node">
<title>IPacketScheduler</title>
<g id="a_node2"><a xlink:href="inet.queueing.contract.IPacketScheduler.html" xlink:title="Module Interface IPacketScheduler" target="_parent">
<polygon fill="#fffcaf" stroke="black" stroke-dasharray="5,2" points="100,-19 0,-19 0,0 100,0 100,-19"/>
<text text-anchor="middle" x="50" y="-7" font-family="Helvetica,sans-Serif" font-size="10.00">IPacketScheduler</text>
</a>
</g>
</g>
<!-- PriorityShaper&#45;&gt;IPacketScheduler -->
<g id="edge1" class="edge">
<title>PriorityShaper&#45;&gt;IPacketScheduler</title>
<path fill="none" stroke="black" d="M185.13,-54.98C158.22,-46.13 115.88,-32.19 85.77,-22.28"/>
<polygon fill="black" stroke="black" points="86.66,-18.88 76.07,-19.08 84.47,-25.53 86.66,-18.88"/>
</g>
<!-- IdealChannel -->
<g id="node3" class="node">
<title>IdealChannel</title>
<g id="a_node3"><a xlink:href="ned.IdealChannel.html" xlink:title="Channel IdealChannel" target="_parent">
<polygon fill="#d0ffd0" stroke="black" points="198,-19 118,-19 118,0 198,0 198,-19"/>
<text text-anchor="middle" x="158" y="-7" font-family="Helvetica,sans-Serif" font-size="10.00">IdealChannel</text>
</a>
</g>
</g>
<!-- PriorityShaper&#45;&gt;IdealChannel -->
<g id="edge2" class="edge">
<title>PriorityShaper&#45;&gt;IdealChannel</title>
<path fill="none" stroke="black" d="M202.25,-54.75C194.53,-47.03 183.1,-35.6 173.78,-26.28"/>
<polygon fill="black" stroke="black" points="176.14,-23.69 166.59,-19.09 171.19,-28.64 176.14,-23.69"/>
</g>
<!-- IPacketClassifier -->
<g id="node4" class="node">
<title>IPacketClassifier</title>
<g id="a_node4"><a xlink:href="inet.queueing.contract.IPacketClassifier.html" xlink:title="Module Interface IPacketClassifier" target="_parent">
<polygon fill="#fffcaf" stroke="black" stroke-dasharray="5,2" points="314,-19 216,-19 216,0 314,0 314,-19"/>
<text text-anchor="middle" x="265" y="-7" font-family="Helvetica,sans-Serif" font-size="10.00">IPacketClassifier</text>
</a>
</g>
</g>
<!-- PriorityShaper&#45;&gt;IPacketClassifier -->
<g id="edge3" class="edge">
<title>PriorityShaper&#45;&gt;IPacketClassifier</title>
<path fill="none" stroke="black" d="M219.92,-54.75C227.78,-47.03 239.43,-35.6 248.92,-26.28"/>
<polygon fill="black" stroke="black" points="251.56,-28.59 256.25,-19.09 246.66,-23.6 251.56,-28.59"/>
</g>
<!-- IPacketShaper -->
<g id="node5" class="node">
<title>IPacketShaper</title>
<g id="a_node5"><a xlink:href="inet.queueing.contract.IPacketShaper.html" xlink:title="Module Interface IPacketShaper" target="_parent">
<polygon fill="#fffcaf" stroke="black" stroke-dasharray="5,2" points="418,-19 332,-19 332,0 418,0 418,-19"/>
<text text-anchor="middle" x="375" y="-7" font-family="Helvetica,sans-Serif" font-size="10.00">IPacketShaper</text>
</a>
</g>
</g>
<!-- PriorityShaper&#45;&gt;IPacketShaper -->
<g id="edge4" class="edge">
<title>PriorityShaper&#45;&gt;IPacketShaper</title>
<path fill="none" stroke="black" d="M237.35,-54.98C264.76,-46.13 307.89,-32.19 338.56,-22.28"/>
<polygon fill="black" stroke="black" points="340,-25.49 348.44,-19.08 337.85,-18.83 340,-25.49"/>
</g>
</g>
</svg>
