<?xml version="1.0" encoding="UTF-8" standalone="no"?>
<!DOCTYPE svg PUBLIC "-//W3C//DTD SVG 1.1//EN"
 "http://www.w3.org/Graphics/SVG/1.1/DTD/svg11.dtd">
<!-- Generated by graphviz version 2.43.0 (0)
 -->
<!-- Title: opp Pages: 1 -->
<svg width="292pt" height="82pt"
 viewBox="0.00 0.00 292.00 82.00" xmlns="http://www.w3.org/2000/svg" xmlns:xlink="http://www.w3.org/1999/xlink">
<g id="graph0" class="graph" transform="scale(1 1) rotate(0) translate(4 78)">
<title>opp</title>
<polygon fill="transparent" stroke="transparent" points="-4,4 -4,-78 288,-78 288,4 -4,4"/>
<!-- IEthernetMacLayer -->
<g id="node1" class="node">
<title>IEthernetMacLayer</title>
<g id="a_node1"><a xlink:href="inet.linklayer.ethernet.contract.IEthernetMacLayer.html" xlink:title="Module Interface IEthernetMacLayer" target="_parent">
<polygon fill="#fff700" stroke="black" stroke-dasharray="5,2" points="181.5,-74 73.5,-74 73.5,-55 181.5,-55 181.5,-74"/>
<text text-anchor="middle" x="127.5" y="-62" font-family="Helvetica,sans-Serif" font-size="10.00">IEthernetMacLayer</text>
</a>
</g>
</g>
<!-- EthernetMacLayer -->
<g id="node2" class="node">
<title>EthernetMacLayer</title>
<g id="a_node2"><a xlink:href="inet.linklayer.ethernet.modular.EthernetMacLayer.html" xlink:title="Compound Module EthernetMacLayer" target="_parent">
<polygon fill="#fffcaf" stroke="black" points="105,-19 0,-19 0,0 105,0 105,-19"/>
<text text-anchor="middle" x="52.5" y="-7" font-family="Helvetica,sans-Serif" font-size="10.00">EthernetMacLayer</text>
</a>
</g>
</g>
<!-- IEthernetMacLayer&#45;&gt;EthernetMacLayer -->
<g id="edge1" class="edge">
<title>IEthernetMacLayer&#45;&gt;EthernetMacLayer</title>
<path fill="none" stroke="black" stroke-dasharray="5,2" d="M115.45,-54.98C101.54,-45.15 78.77,-29.07 64.77,-19.17"/>
</g>
<!-- EthernetPreemptingMacLayer -->
<g id="node3" class="node">
<title>EthernetPreemptingMacLayer</title>
<g id="a_node3"><a xlink:href="inet.linklayer.ethernet.modular.EthernetPreemptingMacLayer.html" xlink:title="Compound Module EthernetPreemptingMacLayer" target="_parent">
<polygon fill="#fffcaf" stroke="black" points="284,-19 123,-19 123,0 284,0 284,-19"/>
<text text-anchor="middle" x="203.5" y="-7" font-family="Helvetica,sans-Serif" font-size="10.00">EthernetPreemptingMacLayer</text>
</a>
</g>
</g>
<!-- IEthernetMacLayer&#45;&gt;EthernetPreemptingMacLayer -->
<g id="edge2" class="edge">
<title>IEthernetMacLayer&#45;&gt;EthernetPreemptingMacLayer</title>
<path fill="none" stroke="black" stroke-dasharray="5,2" d="M139.71,-54.98C153.81,-45.15 176.88,-29.07 191.07,-19.17"/>
</g>
</g>
</svg>
