<?xml version="1.0" encoding="UTF-8" standalone="no"?>
<!DOCTYPE svg PUBLIC "-//W3C//DTD SVG 1.1//EN"
 "http://www.w3.org/Graphics/SVG/1.1/DTD/svg11.dtd">
<!-- Generated by graphviz version 2.43.0 (0)
 -->
<!-- Title: opp Pages: 1 -->
<svg width="222pt" height="82pt"
 viewBox="0.00 0.00 221.50 82.00" xmlns="http://www.w3.org/2000/svg" xmlns:xlink="http://www.w3.org/1999/xlink">
<g id="graph0" class="graph" transform="scale(1 1) rotate(0) translate(4 78)">
<title>opp</title>
<polygon fill="transparent" stroke="transparent" points="-4,4 -4,-78 217.5,-78 217.5,4 -4,4"/>
<!-- ContentBasedLabeler -->
<g id="node1" class="node">
<title>ContentBasedLabeler</title>
<g id="a_node1"><a xlink:href="inet.queueing.marker.ContentBasedLabeler.html" xlink:title="Simple Module ContentBasedLabeler" target="_parent">
<polygon fill="#fff700" stroke="black" points="173,-19 52,-19 52,0 173,0 173,-19"/>
<text text-anchor="middle" x="112.5" y="-7" font-family="Helvetica,sans-Serif" font-size="10.00">ContentBasedLabeler</text>
</a>
</g>
</g>
<!-- PacketLabelerBase -->
<g id="node2" class="node">
<title>PacketLabelerBase</title>
<g id="a_node2"><a xlink:href="inet.queueing.base.PacketLabelerBase.html" xlink:title="Simple Module PacketLabelerBase" target="_parent">
<polygon fill="#fffcaf" stroke="black" points="109,-74 0,-74 0,-55 109,-55 109,-74"/>
<text text-anchor="middle" x="54.5" y="-62" font-family="Helvetica,sans-Serif" font-size="10.00">PacketLabelerBase</text>
</a>
</g>
</g>
<!-- PacketLabelerBase&#45;&gt;ContentBasedLabeler -->
<g id="edge1" class="edge">
<title>PacketLabelerBase&#45;&gt;ContentBasedLabeler</title>
<path fill="none" stroke="black" d="M63.82,-54.98C74.58,-45.15 92.18,-29.07 103.01,-19.17"/>
</g>
<!-- IPacketMarker -->
<g id="node3" class="node">
<title>IPacketMarker</title>
<g id="a_node3"><a xlink:href="inet.queueing.contract.IPacketMarker.html" xlink:title="Module Interface IPacketMarker" target="_parent">
<polygon fill="#fffcaf" stroke="black" stroke-dasharray="5,2" points="213.5,-74 127.5,-74 127.5,-55 213.5,-55 213.5,-74"/>
<text text-anchor="middle" x="170.5" y="-62" font-family="Helvetica,sans-Serif" font-size="10.00">IPacketMarker</text>
</a>
</g>
</g>
<!-- IPacketMarker&#45;&gt;ContentBasedLabeler -->
<g id="edge2" class="edge">
<title>IPacketMarker&#45;&gt;ContentBasedLabeler</title>
<path fill="none" stroke="black" stroke-dasharray="5,2" d="M161.18,-54.98C150.42,-45.15 132.82,-29.07 121.99,-19.17"/>
</g>
</g>
</svg>
