<?xml version="1.0" encoding="UTF-8" standalone="no"?>
<!DOCTYPE svg PUBLIC "-//W3C//DTD SVG 1.1//EN"
 "http://www.w3.org/Graphics/SVG/1.1/DTD/svg11.dtd">
<!-- Generated by graphviz version 2.43.0 (0)
 -->
<!-- Title: opp Pages: 1 -->
<svg width="222pt" height="137pt"
 viewBox="0.00 0.00 221.50 137.00" xmlns="http://www.w3.org/2000/svg" xmlns:xlink="http://www.w3.org/1999/xlink">
<g id="graph0" class="graph" transform="scale(1 1) rotate(0) translate(4 133)">
<title>opp</title>
<polygon fill="transparent" stroke="transparent" points="-4,4 -4,-133 217.5,-133 217.5,4 -4,4"/>
<!-- PacketDestreamer -->
<g id="node1" class="node">
<title>PacketDestreamer</title>
<g id="a_node1"><a xlink:href="inet.protocolelement.common.PacketDestreamer.html" xlink:title="Simple Module PacketDestreamer" target="_parent">
<polygon fill="#fff700" stroke="black" points="171.5,-74 64.5,-74 64.5,-55 171.5,-55 171.5,-74"/>
<text text-anchor="middle" x="118" y="-62" font-family="Helvetica,sans-Serif" font-size="10.00">PacketDestreamer</text>
</a>
</g>
</g>
<!-- EthernetCutthroughSource -->
<g id="node4" class="node">
<title>EthernetCutthroughSource</title>
<g id="a_node4"><a xlink:href="inet.linklayer.ethernet.modular.EthernetCutthroughSource.html" xlink:title="Simple Module EthernetCutthroughSource" target="_parent">
<polygon fill="#fffcaf" stroke="black" points="190.5,-19 45.5,-19 45.5,0 190.5,0 190.5,-19"/>
<text text-anchor="middle" x="118" y="-7" font-family="Helvetica,sans-Serif" font-size="10.00">EthernetCutthroughSource</text>
</a>
</g>
</g>
<!-- PacketDestreamer&#45;&gt;EthernetCutthroughSource -->
<g id="edge3" class="edge">
<title>PacketDestreamer&#45;&gt;EthernetCutthroughSource</title>
<path fill="none" stroke="black" d="M118,-54.75C118,-44.87 118,-28.9 118,-19.09"/>
</g>
<!-- PacketProcessorBase -->
<g id="node2" class="node">
<title>PacketProcessorBase</title>
<g id="a_node2"><a xlink:href="inet.queueing.base.PacketProcessorBase.html" xlink:title="Simple Module PacketProcessorBase" target="_parent">
<polygon fill="#fffcaf" stroke="black" points="120,-129 0,-129 0,-110 120,-110 120,-129"/>
<text text-anchor="middle" x="60" y="-117" font-family="Helvetica,sans-Serif" font-size="10.00">PacketProcessorBase</text>
</a>
</g>
</g>
<!-- PacketProcessorBase&#45;&gt;PacketDestreamer -->
<g id="edge1" class="edge">
<title>PacketProcessorBase&#45;&gt;PacketDestreamer</title>
<path fill="none" stroke="black" d="M69.32,-109.98C80.08,-100.15 97.68,-84.07 108.51,-74.17"/>
</g>
<!-- IPacketFlow -->
<g id="node3" class="node">
<title>IPacketFlow</title>
<g id="a_node3"><a xlink:href="inet.queueing.contract.IPacketFlow.html" xlink:title="Module Interface IPacketFlow" target="_parent">
<polygon fill="#fffcaf" stroke="black" stroke-dasharray="5,2" points="213.5,-129 138.5,-129 138.5,-110 213.5,-110 213.5,-129"/>
<text text-anchor="middle" x="176" y="-117" font-family="Helvetica,sans-Serif" font-size="10.00">IPacketFlow</text>
</a>
</g>
</g>
<!-- IPacketFlow&#45;&gt;PacketDestreamer -->
<g id="edge2" class="edge">
<title>IPacketFlow&#45;&gt;PacketDestreamer</title>
<path fill="none" stroke="black" stroke-dasharray="5,2" d="M166.68,-109.98C155.92,-100.15 138.32,-84.07 127.49,-74.17"/>
</g>
</g>
</svg>
