<?xml version="1.0" encoding="UTF-8" standalone="no"?>
<!DOCTYPE svg PUBLIC "-//W3C//DTD SVG 1.1//EN"
 "http://www.w3.org/Graphics/SVG/1.1/DTD/svg11.dtd">
<!-- Generated by graphviz version 2.43.0 (0)
 -->
<!-- Title: opp Pages: 1 -->
<svg width="1274pt" height="82pt"
 viewBox="0.00 0.00 1273.50 82.00" xmlns="http://www.w3.org/2000/svg" xmlns:xlink="http://www.w3.org/1999/xlink">
<g id="graph0" class="graph" transform="scale(1 1) rotate(0) translate(4 78)">
<title>opp</title>
<polygon fill="transparent" stroke="transparent" points="-4,4 -4,-78 1269.5,-78 1269.5,4 -4,4"/>
<!-- EigrpProcessDS -->
<g id="node1" class="node">
<title>EigrpProcessDS</title>
<g id="a_node1"><a xlink:href="inet.routing.eigrp.EigrpProcessDS.html" xlink:title="Compound Module EigrpProcessDS" target="_parent">
<polygon fill="#fff700" stroke="black" points="600,-74 508,-74 508,-55 600,-55 600,-74"/>
<text text-anchor="middle" x="554" y="-62" font-family="Helvetica,sans-Serif" font-size="10.00">EigrpProcessDS</text>
</a>
</g>
</g>
<!-- EigrpRtp -->
<g id="node2" class="node">
<title>EigrpRtp</title>
<g id="a_node2"><a xlink:href="inet.routing.eigrp.EigrpRtp.html" xlink:title="Simple Module EigrpRtp" target="_parent">
<polygon fill="#fffcaf" stroke="black" points="58,-19 0,-19 0,0 58,0 58,-19"/>
<text text-anchor="middle" x="29" y="-7" font-family="Helvetica,sans-Serif" font-size="10.00">EigrpRtp</text>
</a>
</g>
</g>
<!-- EigrpProcessDS&#45;&gt;EigrpRtp -->
<g id="edge1" class="edge">
<title>EigrpProcessDS&#45;&gt;EigrpRtp</title>
<path fill="none" stroke="black" d="M507.76,-61.27C422.65,-56.72 235.33,-44.71 68.34,-19.02"/>
<polygon fill="black" stroke="black" points="68.81,-15.55 58.39,-17.47 67.73,-22.46 68.81,-15.55"/>
</g>
<!-- IdealChannel -->
<g id="node3" class="node">
<title>IdealChannel</title>
<g id="a_node3"><a xlink:href="ned.IdealChannel.html" xlink:title="Channel IdealChannel" target="_parent">
<polygon fill="#d0ffd0" stroke="black" points="156,-19 76,-19 76,0 156,0 156,-19"/>
<text text-anchor="middle" x="116" y="-7" font-family="Helvetica,sans-Serif" font-size="10.00">IdealChannel</text>
</a>
</g>
</g>
<!-- EigrpProcessDS&#45;&gt;IdealChannel -->
<g id="edge2" class="edge">
<title>EigrpProcessDS&#45;&gt;IdealChannel</title>
<path fill="none" stroke="black" d="M507.78,-59.09C436.65,-52.1 295.85,-37.52 166.19,-19.1"/>
<polygon fill="black" stroke="black" points="166.48,-15.6 156.08,-17.65 165.48,-22.53 166.48,-15.6"/>
</g>
<!-- EigrpSplitter -->
<g id="node4" class="node">
<title>EigrpSplitter</title>
<g id="a_node4"><a xlink:href="inet.routing.eigrp.EigrpSplitter.html" xlink:title="Simple Module EigrpSplitter" target="_parent">
<polygon fill="#fffcaf" stroke="black" points="251.5,-19 174.5,-19 174.5,0 251.5,0 251.5,-19"/>
<text text-anchor="middle" x="213" y="-7" font-family="Helvetica,sans-Serif" font-size="10.00">EigrpSplitter</text>
</a>
</g>
</g>
<!-- EigrpProcessDS&#45;&gt;EigrpSplitter -->
<g id="edge3" class="edge">
<title>EigrpProcessDS&#45;&gt;EigrpSplitter</title>
<path fill="none" stroke="black" d="M507.76,-56.84C451.95,-48.71 354.98,-34.34 261.65,-19.07"/>
<polygon fill="black" stroke="black" points="262.19,-15.61 251.76,-17.45 261.06,-22.52 262.19,-15.61"/>
</g>
<!-- EigrpIpv6Pdm -->
<g id="node5" class="node">
<title>EigrpIpv6Pdm</title>
<g id="a_node5"><a xlink:href="inet.routing.eigrp.pdms.EigrpIpv6Pdm.html" xlink:title="Simple Module EigrpIpv6Pdm" target="_parent">
<polygon fill="#fffcaf" stroke="black" points="354,-19 270,-19 270,0 354,0 354,-19"/>
<text text-anchor="middle" x="312" y="-7" font-family="Helvetica,sans-Serif" font-size="10.00">EigrpIpv6Pdm</text>
</a>
</g>
</g>
<!-- EigrpProcessDS&#45;&gt;EigrpIpv6Pdm -->
<g id="edge4" class="edge">
<title>EigrpProcessDS&#45;&gt;EigrpIpv6Pdm</title>
<path fill="none" stroke="black" d="M515.12,-54.98C473.26,-45.82 406.57,-31.21 361.12,-21.26"/>
<polygon fill="black" stroke="black" points="361.7,-17.8 351.19,-19.08 360.21,-24.64 361.7,-17.8"/>
</g>
<!-- EigrpIpv4NeighborTable -->
<g id="node6" class="node">
<title>EigrpIpv4NeighborTable</title>
<g id="a_node6"><a xlink:href="inet.routing.eigrp.tables.EigrpIpv4NeighborTable.html" xlink:title="Simple Module EigrpIpv4NeighborTable" target="_parent">
<polygon fill="#fffcaf" stroke="black" points="504,-19 372,-19 372,0 504,0 504,-19"/>
<text text-anchor="middle" x="438" y="-7" font-family="Helvetica,sans-Serif" font-size="10.00">EigrpIpv4NeighborTable</text>
</a>
</g>
</g>
<!-- EigrpProcessDS&#45;&gt;EigrpIpv4NeighborTable -->
<g id="edge5" class="edge">
<title>EigrpProcessDS&#45;&gt;EigrpIpv4NeighborTable</title>
<path fill="none" stroke="black" d="M535.36,-54.98C516.7,-46.46 487.75,-33.23 466.26,-23.41"/>
<polygon fill="black" stroke="black" points="467.53,-20.14 456.98,-19.17 464.62,-26.51 467.53,-20.14"/>
</g>
<!-- EigrpRtp6 -->
<g id="node7" class="node">
<title>EigrpRtp6</title>
<g id="a_node7"><a xlink:href="inet.routing.eigrp.EigrpRtp6.html" xlink:title="Simple Module EigrpRtp6" target="_parent">
<polygon fill="#fffcaf" stroke="black" points="586,-19 522,-19 522,0 586,0 586,-19"/>
<text text-anchor="middle" x="554" y="-7" font-family="Helvetica,sans-Serif" font-size="10.00">EigrpRtp6</text>
</a>
</g>
</g>
<!-- EigrpProcessDS&#45;&gt;EigrpRtp6 -->
<g id="edge6" class="edge">
<title>EigrpProcessDS&#45;&gt;EigrpRtp6</title>
<path fill="none" stroke="black" d="M554,-54.75C554,-47.8 554,-37.85 554,-29.13"/>
<polygon fill="black" stroke="black" points="557.5,-29.09 554,-19.09 550.5,-29.09 557.5,-29.09"/>
</g>
<!-- EigrpIpv6TopologyTable -->
<g id="node8" class="node">
<title>EigrpIpv6TopologyTable</title>
<g id="a_node8"><a xlink:href="inet.routing.eigrp.tables.EigrpIpv6TopologyTable.html" xlink:title="Simple Module EigrpIpv6TopologyTable" target="_parent">
<polygon fill="#fffcaf" stroke="black" points="735.5,-19 604.5,-19 604.5,0 735.5,0 735.5,-19"/>
<text text-anchor="middle" x="670" y="-7" font-family="Helvetica,sans-Serif" font-size="10.00">EigrpIpv6TopologyTable</text>
</a>
</g>
</g>
<!-- EigrpProcessDS&#45;&gt;EigrpIpv6TopologyTable -->
<g id="edge7" class="edge">
<title>EigrpProcessDS&#45;&gt;EigrpIpv6TopologyTable</title>
<path fill="none" stroke="black" d="M572.64,-54.98C591.3,-46.46 620.25,-33.23 641.74,-23.41"/>
<polygon fill="black" stroke="black" points="643.38,-26.51 651.02,-19.17 640.47,-20.14 643.38,-26.51"/>
</g>
<!-- EigrpIpv4Pdm -->
<g id="node9" class="node">
<title>EigrpIpv4Pdm</title>
<g id="a_node9"><a xlink:href="inet.routing.eigrp.pdms.EigrpIpv4Pdm.html" xlink:title="Simple Module EigrpIpv4Pdm" target="_parent">
<polygon fill="#fffcaf" stroke="black" points="838,-19 754,-19 754,0 838,0 838,-19"/>
<text text-anchor="middle" x="796" y="-7" font-family="Helvetica,sans-Serif" font-size="10.00">EigrpIpv4Pdm</text>
</a>
</g>
</g>
<!-- EigrpProcessDS&#45;&gt;EigrpIpv4Pdm -->
<g id="edge8" class="edge">
<title>EigrpProcessDS&#45;&gt;EigrpIpv4Pdm</title>
<path fill="none" stroke="black" d="M592.88,-54.98C634.74,-45.82 701.43,-31.21 746.88,-21.26"/>
<polygon fill="black" stroke="black" points="747.79,-24.64 756.81,-19.08 746.3,-17.8 747.79,-24.64"/>
</g>
<!-- EigrpIpv6NeighborTable -->
<g id="node10" class="node">
<title>EigrpIpv6NeighborTable</title>
<g id="a_node10"><a xlink:href="inet.routing.eigrp.tables.EigrpIpv6NeighborTable.html" xlink:title="Simple Module EigrpIpv6NeighborTable" target="_parent">
<polygon fill="#fffcaf" stroke="black" points="988,-19 856,-19 856,0 988,0 988,-19"/>
<text text-anchor="middle" x="922" y="-7" font-family="Helvetica,sans-Serif" font-size="10.00">EigrpIpv6NeighborTable</text>
</a>
</g>
</g>
<!-- EigrpProcessDS&#45;&gt;EigrpIpv6NeighborTable -->
<g id="edge9" class="edge">
<title>EigrpProcessDS&#45;&gt;EigrpIpv6NeighborTable</title>
<path fill="none" stroke="black" d="M600.23,-56.84C663.84,-47.68 778.84,-31.12 852.75,-20.47"/>
<polygon fill="black" stroke="black" points="853.49,-23.9 862.89,-19.01 852.49,-16.97 853.49,-23.9"/>
</g>
<!-- EigrpInterfaceTable -->
<g id="node11" class="node">
<title>EigrpInterfaceTable</title>
<g id="a_node11"><a xlink:href="inet.routing.eigrp.tables.EigrpInterfaceTable.html" xlink:title="Simple Module EigrpInterfaceTable" target="_parent">
<polygon fill="#fffcaf" stroke="black" points="1116,-19 1006,-19 1006,0 1116,0 1116,-19"/>
<text text-anchor="middle" x="1061" y="-7" font-family="Helvetica,sans-Serif" font-size="10.00">EigrpInterfaceTable</text>
</a>
</g>
</g>
<!-- EigrpProcessDS&#45;&gt;EigrpInterfaceTable -->
<g id="edge10" class="edge">
<title>EigrpProcessDS&#45;&gt;EigrpInterfaceTable</title>
<path fill="none" stroke="black" d="M600.29,-59.34C679.14,-52.15 844.81,-36.57 995.49,-19.14"/>
<polygon fill="black" stroke="black" points="996.33,-22.57 1005.86,-17.94 995.52,-15.62 996.33,-22.57"/>
</g>
<!-- EigrpIpv4TopologyTable -->
<g id="node12" class="node">
<title>EigrpIpv4TopologyTable</title>
<g id="a_node12"><a xlink:href="inet.routing.eigrp.tables.EigrpIpv4TopologyTable.html" xlink:title="Simple Module EigrpIpv4TopologyTable" target="_parent">
<polygon fill="#fffcaf" stroke="black" points="1265.5,-19 1134.5,-19 1134.5,0 1265.5,0 1265.5,-19"/>
<text text-anchor="middle" x="1200" y="-7" font-family="Helvetica,sans-Serif" font-size="10.00">EigrpIpv4TopologyTable</text>
</a>
</g>
</g>
<!-- EigrpProcessDS&#45;&gt;EigrpIpv4TopologyTable -->
<g id="edge11" class="edge">
<title>EigrpProcessDS&#45;&gt;EigrpIpv4TopologyTable</title>
<path fill="none" stroke="black" d="M600.31,-60.44C695.96,-54.01 922.57,-38.16 1123.98,-19.06"/>
<polygon fill="black" stroke="black" points="1124.54,-22.53 1134.16,-18.09 1123.88,-15.56 1124.54,-22.53"/>
</g>
</g>
</svg>
