<?xml version="1.0" encoding="UTF-8" standalone="no"?>
<!DOCTYPE svg PUBLIC "-//W3C//DTD SVG 1.1//EN"
 "http://www.w3.org/Graphics/SVG/1.1/DTD/svg11.dtd">
<!-- Generated by graphviz version 2.43.0 (0)
 -->
<!-- Title: opp Pages: 1 -->
<svg width="502pt" height="82pt"
 viewBox="0.00 0.00 501.50 82.00" xmlns="http://www.w3.org/2000/svg" xmlns:xlink="http://www.w3.org/1999/xlink">
<g id="graph0" class="graph" transform="scale(1 1) rotate(0) translate(4 78)">
<title>opp</title>
<polygon fill="transparent" stroke="transparent" points="-4,4 -4,-78 497.5,-78 497.5,4 -4,4"/>
<!-- KIDSNw1 -->
<g id="node1" class="node">
<title>KIDSNw1</title>
<g id="a_node1"><a xlink:href="inet.examples.inet.kidsnw1.KIDSNw1.html" xlink:title="Network KIDSNw1" target="_parent">
<polygon fill="#9090ff" stroke="black" points="274.5,-74 212.5,-74 212.5,-55 274.5,-55 274.5,-74"/>
<text text-anchor="middle" x="243.5" y="-62" font-family="Helvetica,sans-Serif" font-size="10.00">KIDSNw1</text>
</a>
</g>
</g>
<!-- StandardHost -->
<g id="node2" class="node">
<title>StandardHost</title>
<g id="a_node2"><a xlink:href="inet.node.inet.StandardHost.html" xlink:title="Compound Module StandardHost" target="_parent">
<polygon fill="#fffcaf" stroke="black" points="83,-19 0,-19 0,0 83,0 83,-19"/>
<text text-anchor="middle" x="41.5" y="-7" font-family="Helvetica,sans-Serif" font-size="10.00">StandardHost</text>
</a>
</g>
</g>
<!-- KIDSNw1&#45;&gt;StandardHost -->
<g id="edge1" class="edge">
<title>KIDSNw1&#45;&gt;StandardHost</title>
<path fill="none" stroke="black" d="M212.38,-55.33C177.94,-46.3 122.24,-31.68 83.85,-21.61"/>
<polygon fill="black" stroke="black" points="84.56,-18.18 73.99,-19.03 82.78,-24.95 84.56,-18.18"/>
</g>
<!-- Router -->
<g id="node3" class="node">
<title>Router</title>
<g id="a_node3"><a xlink:href="inet.node.inet.Router.html" xlink:title="Compound Module Router" target="_parent">
<polygon fill="#fffcaf" stroke="black" points="155.5,-19 101.5,-19 101.5,0 155.5,0 155.5,-19"/>
<text text-anchor="middle" x="128.5" y="-7" font-family="Helvetica,sans-Serif" font-size="10.00">Router</text>
</a>
</g>
</g>
<!-- KIDSNw1&#45;&gt;Router -->
<g id="edge2" class="edge">
<title>KIDSNw1&#45;&gt;Router</title>
<path fill="none" stroke="black" d="M225.02,-54.98C206.52,-46.46 177.82,-33.23 156.52,-23.41"/>
<polygon fill="black" stroke="black" points="157.86,-20.18 147.31,-19.17 154.93,-26.53 157.86,-20.18"/>
</g>
<!-- Ipv4NetworkConfigurator -->
<g id="node4" class="node">
<title>Ipv4NetworkConfigurator</title>
<g id="a_node4"><a xlink:href="inet.networklayer.configurator.ipv4.Ipv4NetworkConfigurator.html" xlink:title="Simple Module Ipv4NetworkConfigurator" target="_parent">
<polygon fill="#fffcaf" stroke="black" points="313.5,-19 173.5,-19 173.5,0 313.5,0 313.5,-19"/>
<text text-anchor="middle" x="243.5" y="-7" font-family="Helvetica,sans-Serif" font-size="10.00">Ipv4NetworkConfigurator</text>
</a>
</g>
</g>
<!-- KIDSNw1&#45;&gt;Ipv4NetworkConfigurator -->
<g id="edge3" class="edge">
<title>KIDSNw1&#45;&gt;Ipv4NetworkConfigurator</title>
<path fill="none" stroke="black" d="M243.5,-54.75C243.5,-47.8 243.5,-37.85 243.5,-29.13"/>
<polygon fill="black" stroke="black" points="247,-29.09 243.5,-19.09 240,-29.09 247,-29.09"/>
</g>
<!-- ethernet -->
<g id="node5" class="node">
<title>ethernet</title>
<g id="a_node5"><a xlink:href="inet.examples.inet.kidsnw1.KIDSNw1.ethernet.html" xlink:title="Channel ethernet" target="_parent">
<polygon fill="#d0ffd0" stroke="black" points="389.5,-19 331.5,-19 331.5,0 389.5,0 389.5,-19"/>
<text text-anchor="middle" x="360.5" y="-7" font-family="Helvetica,sans-Serif" font-size="10.00">ethernet</text>
</a>
</g>
</g>
<!-- KIDSNw1&#45;&gt;ethernet -->
<g id="edge4" class="edge">
<title>KIDSNw1&#45;&gt;ethernet</title>
<path fill="none" stroke="black" d="M262.3,-54.98C281.12,-46.46 310.32,-33.23 332,-23.41"/>
<polygon fill="black" stroke="black" points="333.7,-26.48 341.36,-19.17 330.81,-20.11 333.7,-26.48"/>
</g>
<!-- fiberrouterline -->
<g id="node6" class="node">
<title>fiberrouterline</title>
<g id="a_node6"><a xlink:href="inet.examples.inet.kidsnw1.KIDSNw1.fiberrouterline.html" xlink:title="Channel fiberrouterline" target="_parent">
<polygon fill="#d0ffd0" stroke="black" points="493.5,-19 407.5,-19 407.5,0 493.5,0 493.5,-19"/>
<text text-anchor="middle" x="450.5" y="-7" font-family="Helvetica,sans-Serif" font-size="10.00">fiberrouterline</text>
</a>
</g>
</g>
<!-- KIDSNw1&#45;&gt;fiberrouterline -->
<g id="edge5" class="edge">
<title>KIDSNw1&#45;&gt;fiberrouterline</title>
<path fill="none" stroke="black" d="M274.94,-55.45C310.21,-46.42 367.65,-31.71 407.16,-21.6"/>
<polygon fill="black" stroke="black" points="408.23,-24.94 417.05,-19.07 406.49,-18.16 408.23,-24.94"/>
</g>
</g>
</svg>
