<?xml version="1.0" encoding="UTF-8" standalone="no"?>
<!DOCTYPE svg PUBLIC "-//W3C//DTD SVG 1.1//EN"
 "http://www.w3.org/Graphics/SVG/1.1/DTD/svg11.dtd">
<!-- Generated by graphviz version 2.43.0 (0)
 -->
<!-- Title: opp Pages: 1 -->
<svg width="180pt" height="82pt"
 viewBox="0.00 0.00 179.50 82.00" xmlns="http://www.w3.org/2000/svg" xmlns:xlink="http://www.w3.org/1999/xlink">
<g id="graph0" class="graph" transform="scale(1 1) rotate(0) translate(4 78)">
<title>opp</title>
<polygon fill="transparent" stroke="transparent" points="-4,4 -4,-78 175.5,-78 175.5,4 -4,4"/>
<!-- IIpvxTrafficGenerator -->
<g id="node1" class="node">
<title>IIpvxTrafficGenerator</title>
<g id="a_node1"><a xlink:href="inet.applications.generic.IIpvxTrafficGenerator.html" xlink:title="Module Interface IIpvxTrafficGenerator" target="_parent">
<polygon fill="#fff700" stroke="black" stroke-dasharray="5,2" points="145,-74 25,-74 25,-55 145,-55 145,-74"/>
<text text-anchor="middle" x="85" y="-62" font-family="Helvetica,sans-Serif" font-size="10.00">IIpvxTrafficGenerator</text>
</a>
</g>
</g>
<!-- IpvxTrafGen -->
<g id="node2" class="node">
<title>IpvxTrafGen</title>
<g id="a_node2"><a xlink:href="inet.applications.generic.IpvxTrafGen.html" xlink:title="Simple Module IpvxTrafGen" target="_parent">
<polygon fill="#fffcaf" stroke="black" points="76,-19 0,-19 0,0 76,0 76,-19"/>
<text text-anchor="middle" x="38" y="-7" font-family="Helvetica,sans-Serif" font-size="10.00">IpvxTrafGen</text>
</a>
</g>
</g>
<!-- IIpvxTrafficGenerator&#45;&gt;IpvxTrafGen -->
<g id="edge1" class="edge">
<title>IIpvxTrafficGenerator&#45;&gt;IpvxTrafGen</title>
<path fill="none" stroke="black" stroke-dasharray="5,2" d="M77.24,-54.75C68.48,-44.87 54.32,-28.9 45.62,-19.09"/>
</g>
<!-- IpvxTrafSink -->
<g id="node3" class="node">
<title>IpvxTrafSink</title>
<g id="a_node3"><a xlink:href="inet.applications.generic.IpvxTrafSink.html" xlink:title="Simple Module IpvxTrafSink" target="_parent">
<polygon fill="#fffcaf" stroke="black" points="171.5,-19 94.5,-19 94.5,0 171.5,0 171.5,-19"/>
<text text-anchor="middle" x="133" y="-7" font-family="Helvetica,sans-Serif" font-size="10.00">IpvxTrafSink</text>
</a>
</g>
</g>
<!-- IIpvxTrafficGenerator&#45;&gt;IpvxTrafSink -->
<g id="edge2" class="edge">
<title>IIpvxTrafficGenerator&#45;&gt;IpvxTrafSink</title>
<path fill="none" stroke="black" stroke-dasharray="5,2" d="M92.93,-54.75C101.87,-44.87 116.34,-28.9 125.22,-19.09"/>
</g>
</g>
</svg>
