<?xml version="1.0" encoding="UTF-8" standalone="no"?>
<!DOCTYPE svg PUBLIC "-//W3C//DTD SVG 1.1//EN"
 "http://www.w3.org/Graphics/SVG/1.1/DTD/svg11.dtd">
<!-- Generated by graphviz version 2.43.0 (0)
 -->
<!-- Title: opp Pages: 1 -->
<svg width="596pt" height="82pt"
 viewBox="0.00 0.00 596.00 82.00" xmlns="http://www.w3.org/2000/svg" xmlns:xlink="http://www.w3.org/1999/xlink">
<g id="graph0" class="graph" transform="scale(1 1) rotate(0) translate(4 78)">
<title>opp</title>
<polygon fill="transparent" stroke="transparent" points="-4,4 -4,-78 592,-78 592,4 -4,4"/>
<!-- DiffservNetwork -->
<g id="node1" class="node">
<title>DiffservNetwork</title>
<g id="a_node1"><a xlink:href="inet.examples.diffserv.simple_.DiffservNetwork.html" xlink:title="Network DiffservNetwork" target="_parent">
<polygon fill="#9090ff" stroke="black" points="290.5,-74 193.5,-74 193.5,-55 290.5,-55 290.5,-74"/>
<text text-anchor="middle" x="242" y="-62" font-family="Helvetica,sans-Serif" font-size="10.00">DiffservNetwork</text>
</a>
</g>
</g>
<!-- dialup -->
<g id="node2" class="node">
<title>dialup</title>
<g id="a_node2"><a xlink:href="inet.examples.diffserv.simple_.DiffservNetwork.dialup.html" xlink:title="Channel dialup" target="_parent">
<polygon fill="#d0ffd0" stroke="black" points="54,-19 0,-19 0,0 54,0 54,-19"/>
<text text-anchor="middle" x="27" y="-7" font-family="Helvetica,sans-Serif" font-size="10.00">dialup</text>
</a>
</g>
</g>
<!-- DiffservNetwork&#45;&gt;dialup -->
<g id="edge1" class="edge">
<title>DiffservNetwork&#45;&gt;dialup</title>
<path fill="none" stroke="black" d="M207.46,-54.98C168.25,-45.32 104.55,-29.62 64.25,-19.68"/>
<polygon fill="black" stroke="black" points="64.84,-16.22 54.3,-17.23 63.17,-23.02 64.84,-16.22"/>
</g>
<!-- StandardHost -->
<g id="node3" class="node">
<title>StandardHost</title>
<g id="a_node3"><a xlink:href="inet.node.inet.StandardHost.html" xlink:title="Compound Module StandardHost" target="_parent">
<polygon fill="#fffcaf" stroke="black" points="155.5,-19 72.5,-19 72.5,0 155.5,0 155.5,-19"/>
<text text-anchor="middle" x="114" y="-7" font-family="Helvetica,sans-Serif" font-size="10.00">StandardHost</text>
</a>
</g>
</g>
<!-- DiffservNetwork&#45;&gt;StandardHost -->
<g id="edge2" class="edge">
<title>DiffservNetwork&#45;&gt;StandardHost</title>
<path fill="none" stroke="black" d="M221.43,-54.98C200.57,-46.34 168.03,-32.87 144.23,-23.02"/>
<polygon fill="black" stroke="black" points="145.52,-19.76 134.94,-19.17 142.84,-26.23 145.52,-19.76"/>
</g>
<!-- Router -->
<g id="node4" class="node">
<title>Router</title>
<g id="a_node4"><a xlink:href="inet.node.inet.Router.html" xlink:title="Compound Module Router" target="_parent">
<polygon fill="#fffcaf" stroke="black" points="228,-19 174,-19 174,0 228,0 228,-19"/>
<text text-anchor="middle" x="201" y="-7" font-family="Helvetica,sans-Serif" font-size="10.00">Router</text>
</a>
</g>
</g>
<!-- DiffservNetwork&#45;&gt;Router -->
<g id="edge3" class="edge">
<title>DiffservNetwork&#45;&gt;Router</title>
<path fill="none" stroke="black" d="M235.23,-54.75C229.44,-47.26 220.94,-36.28 213.86,-27.13"/>
<polygon fill="black" stroke="black" points="216.53,-24.86 207.64,-19.09 210.99,-29.14 216.53,-24.86"/>
</g>
<!-- ethernetline -->
<g id="node5" class="node">
<title>ethernetline</title>
<g id="a_node5"><a xlink:href="inet.examples.diffserv.simple_.DiffservNetwork.ethernetline.html" xlink:title="Channel ethernetline" target="_parent">
<polygon fill="#d0ffd0" stroke="black" points="322,-19 246,-19 246,0 322,0 322,-19"/>
<text text-anchor="middle" x="284" y="-7" font-family="Helvetica,sans-Serif" font-size="10.00">ethernetline</text>
</a>
</g>
</g>
<!-- DiffservNetwork&#45;&gt;ethernetline -->
<g id="edge4" class="edge">
<title>DiffservNetwork&#45;&gt;ethernetline</title>
<path fill="none" stroke="black" d="M248.94,-54.75C254.87,-47.26 263.57,-36.28 270.82,-27.13"/>
<polygon fill="black" stroke="black" points="273.73,-29.1 277.19,-19.09 268.24,-24.75 273.73,-29.1"/>
</g>
<!-- Ipv4NetworkConfigurator -->
<g id="node6" class="node">
<title>Ipv4NetworkConfigurator</title>
<g id="a_node6"><a xlink:href="inet.networklayer.configurator.ipv4.Ipv4NetworkConfigurator.html" xlink:title="Simple Module Ipv4NetworkConfigurator" target="_parent">
<polygon fill="#fffcaf" stroke="black" points="480,-19 340,-19 340,0 480,0 480,-19"/>
<text text-anchor="middle" x="410" y="-7" font-family="Helvetica,sans-Serif" font-size="10.00">Ipv4NetworkConfigurator</text>
</a>
</g>
</g>
<!-- DiffservNetwork&#45;&gt;Ipv4NetworkConfigurator -->
<g id="edge5" class="edge">
<title>DiffservNetwork&#45;&gt;Ipv4NetworkConfigurator</title>
<path fill="none" stroke="black" d="M268.99,-54.98C297.2,-46.09 341.64,-32.07 373.08,-22.15"/>
<polygon fill="black" stroke="black" points="374.31,-25.43 382.8,-19.08 372.21,-18.75 374.31,-25.43"/>
</g>
<!-- EthernetSwitch -->
<g id="node7" class="node">
<title>EthernetSwitch</title>
<g id="a_node7"><a xlink:href="inet.node.ethernet.EthernetSwitch.html" xlink:title="Compound Module EthernetSwitch" target="_parent">
<polygon fill="#fffcaf" stroke="black" points="588,-19 498,-19 498,0 588,0 588,-19"/>
<text text-anchor="middle" x="543" y="-7" font-family="Helvetica,sans-Serif" font-size="10.00">EthernetSwitch</text>
</a>
</g>
</g>
<!-- DiffservNetwork&#45;&gt;EthernetSwitch -->
<g id="edge6" class="edge">
<title>DiffservNetwork&#45;&gt;EthernetSwitch</title>
<path fill="none" stroke="black" d="M290.36,-54.98C344.18,-45.51 430.99,-30.22 487.52,-20.27"/>
<polygon fill="black" stroke="black" points="488.47,-23.66 497.71,-18.47 487.26,-16.76 488.47,-23.66"/>
</g>
</g>
</svg>
