<?xml version="1.0" encoding="UTF-8" standalone="no"?>
<!DOCTYPE svg PUBLIC "-//W3C//DTD SVG 1.1//EN"
 "http://www.w3.org/Graphics/SVG/1.1/DTD/svg11.dtd">
<!-- Generated by graphviz version 2.43.0 (0)
 -->
<!-- Title: opp Pages: 1 -->
<svg width="518pt" height="82pt"
 viewBox="0.00 0.00 518.00 82.00" xmlns="http://www.w3.org/2000/svg" xmlns:xlink="http://www.w3.org/1999/xlink">
<g id="graph0" class="graph" transform="scale(1 1) rotate(0) translate(4 78)">
<title>opp</title>
<polygon fill="transparent" stroke="transparent" points="-4,4 -4,-78 514,-78 514,4 -4,4"/>
<!-- SwitchNetwork -->
<g id="node1" class="node">
<title>SwitchNetwork</title>
<g id="a_node1"><a xlink:href="inet.examples.ieee8021d.SwitchNetwork.html" xlink:title="Network SwitchNetwork" target="_parent">
<polygon fill="#9090ff" stroke="black" points="340,-74 250,-74 250,-55 340,-55 340,-74"/>
<text text-anchor="middle" x="295" y="-62" font-family="Helvetica,sans-Serif" font-size="10.00">SwitchNetwork</text>
</a>
</g>
</g>
<!-- L2NetworkConfigurator -->
<g id="node2" class="node">
<title>L2NetworkConfigurator</title>
<g id="a_node2"><a xlink:href="inet.linklayer.configurator.L2NetworkConfigurator.html" xlink:title="Simple Module L2NetworkConfigurator" target="_parent">
<polygon fill="#fffcaf" stroke="black" points="130,-19 0,-19 0,0 130,0 130,-19"/>
<text text-anchor="middle" x="65" y="-7" font-family="Helvetica,sans-Serif" font-size="10.00">L2NetworkConfigurator</text>
</a>
</g>
</g>
<!-- SwitchNetwork&#45;&gt;L2NetworkConfigurator -->
<g id="edge1" class="edge">
<title>SwitchNetwork&#45;&gt;L2NetworkConfigurator</title>
<path fill="none" stroke="black" d="M258.05,-54.98C218.43,-45.86 155.41,-31.33 112.23,-21.38"/>
<polygon fill="black" stroke="black" points="112.77,-17.92 102.24,-19.08 111.2,-24.74 112.77,-17.92"/>
</g>
<!-- ScenarioManager -->
<g id="node3" class="node">
<title>ScenarioManager</title>
<g id="a_node3"><a xlink:href="inet.common.scenario.ScenarioManager.html" xlink:title="Simple Module ScenarioManager" target="_parent">
<polygon fill="#fffcaf" stroke="black" points="249.5,-19 148.5,-19 148.5,0 249.5,0 249.5,-19"/>
<text text-anchor="middle" x="199" y="-7" font-family="Helvetica,sans-Serif" font-size="10.00">ScenarioManager</text>
</a>
</g>
</g>
<!-- SwitchNetwork&#45;&gt;ScenarioManager -->
<g id="edge2" class="edge">
<title>SwitchNetwork&#45;&gt;ScenarioManager</title>
<path fill="none" stroke="black" d="M279.58,-54.98C264.55,-46.69 241.46,-33.94 223.84,-24.22"/>
<polygon fill="black" stroke="black" points="225.15,-20.94 214.7,-19.17 221.77,-27.07 225.15,-20.94"/>
</g>
<!-- Eth1G -->
<g id="node4" class="node">
<title>Eth1G</title>
<g id="a_node4"><a xlink:href="inet.node.ethernet.Eth1G.html" xlink:title="Channel Eth1G" target="_parent">
<polygon fill="#d0ffd0" stroke="black" points="322,-19 268,-19 268,0 322,0 322,-19"/>
<text text-anchor="middle" x="295" y="-7" font-family="Helvetica,sans-Serif" font-size="10.00">Eth1G</text>
</a>
</g>
</g>
<!-- SwitchNetwork&#45;&gt;Eth1G -->
<g id="edge3" class="edge">
<title>SwitchNetwork&#45;&gt;Eth1G</title>
<path fill="none" stroke="black" d="M295,-54.75C295,-47.8 295,-37.85 295,-29.13"/>
<polygon fill="black" stroke="black" points="298.5,-29.09 295,-19.09 291.5,-29.09 298.5,-29.09"/>
</g>
<!-- StpTester -->
<g id="node5" class="node">
<title>StpTester</title>
<g id="a_node5"><a xlink:href="inet.linklayer.ieee8021d.tester.StpTester.html" xlink:title="Simple Module StpTester" target="_parent">
<polygon fill="#fffcaf" stroke="black" points="402,-19 340,-19 340,0 402,0 402,-19"/>
<text text-anchor="middle" x="371" y="-7" font-family="Helvetica,sans-Serif" font-size="10.00">StpTester</text>
</a>
</g>
</g>
<!-- SwitchNetwork&#45;&gt;StpTester -->
<g id="edge4" class="edge">
<title>SwitchNetwork&#45;&gt;StpTester</title>
<path fill="none" stroke="black" d="M307.21,-54.98C318.78,-46.92 336.38,-34.65 350.16,-25.03"/>
<polygon fill="black" stroke="black" points="352.37,-27.76 358.57,-19.17 348.36,-22.02 352.37,-27.76"/>
</g>
<!-- EthernetSwitch -->
<g id="node6" class="node">
<title>EthernetSwitch</title>
<g id="a_node6"><a xlink:href="inet.node.ethernet.EthernetSwitch.html" xlink:title="Compound Module EthernetSwitch" target="_parent">
<polygon fill="#fffcaf" stroke="black" points="510,-19 420,-19 420,0 510,0 510,-19"/>
<text text-anchor="middle" x="465" y="-7" font-family="Helvetica,sans-Serif" font-size="10.00">EthernetSwitch</text>
</a>
</g>
</g>
<!-- SwitchNetwork&#45;&gt;EthernetSwitch -->
<g id="edge5" class="edge">
<title>SwitchNetwork&#45;&gt;EthernetSwitch</title>
<path fill="none" stroke="black" d="M322.31,-54.98C350.85,-46.09 395.83,-32.07 427.64,-22.15"/>
<polygon fill="black" stroke="black" points="428.97,-25.4 437.47,-19.08 426.88,-18.72 428.97,-25.4"/>
</g>
</g>
</svg>
