<?xml version="1.0" encoding="UTF-8" standalone="no"?>
<!DOCTYPE svg PUBLIC "-//W3C//DTD SVG 1.1//EN"
 "http://www.w3.org/Graphics/SVG/1.1/DTD/svg11.dtd">
<!-- Generated by graphviz version 2.43.0 (0)
 -->
<!-- Title: opp Pages: 1 -->
<svg width="599pt" height="82pt"
 viewBox="0.00 0.00 598.50 82.00" xmlns="http://www.w3.org/2000/svg" xmlns:xlink="http://www.w3.org/1999/xlink">
<g id="graph0" class="graph" transform="scale(1 1) rotate(0) translate(4 78)">
<title>opp</title>
<polygon fill="transparent" stroke="transparent" points="-4,4 -4,-78 594.5,-78 594.5,4 -4,4"/>
<!-- BgpNetwork -->
<g id="node1" class="node">
<title>BgpNetwork</title>
<g id="a_node1"><a xlink:href="inet.examples.bgpv4.BgpUpdate.BgpNetwork.html" xlink:title="Network BgpNetwork" target="_parent">
<polygon fill="#9090ff" stroke="black" points="290.5,-74 213.5,-74 213.5,-55 290.5,-55 290.5,-74"/>
<text text-anchor="middle" x="252" y="-62" font-family="Helvetica,sans-Serif" font-size="10.00">BgpNetwork</text>
</a>
</g>
</g>
<!-- LINK_100 -->
<g id="node2" class="node">
<title>LINK_100</title>
<g id="a_node2"><a xlink:href="inet.examples.bgpv4.BgpUpdate.BgpNetwork.LINK_100.html" xlink:title="Channel LINK_100" target="_parent">
<polygon fill="#d0ffd0" stroke="black" points="62,-19 0,-19 0,0 62,0 62,-19"/>
<text text-anchor="middle" x="31" y="-7" font-family="Helvetica,sans-Serif" font-size="10.00">LINK_100</text>
</a>
</g>
</g>
<!-- BgpNetwork&#45;&gt;LINK_100 -->
<g id="edge1" class="edge">
<title>BgpNetwork&#45;&gt;LINK_100</title>
<path fill="none" stroke="black" d="M216.49,-54.98C177.04,-45.52 113.44,-30.27 71.93,-20.31"/>
<polygon fill="black" stroke="black" points="72.67,-16.89 62.13,-17.97 71.04,-23.7 72.67,-16.89"/>
</g>
<!-- StandardHost -->
<g id="node3" class="node">
<title>StandardHost</title>
<g id="a_node3"><a xlink:href="inet.node.inet.StandardHost.html" xlink:title="Compound Module StandardHost" target="_parent">
<polygon fill="#fffcaf" stroke="black" points="163.5,-19 80.5,-19 80.5,0 163.5,0 163.5,-19"/>
<text text-anchor="middle" x="122" y="-7" font-family="Helvetica,sans-Serif" font-size="10.00">StandardHost</text>
</a>
</g>
</g>
<!-- BgpNetwork&#45;&gt;StandardHost -->
<g id="edge2" class="edge">
<title>BgpNetwork&#45;&gt;StandardHost</title>
<path fill="none" stroke="black" d="M231.11,-54.98C209.92,-46.34 176.87,-32.87 152.7,-23.02"/>
<polygon fill="black" stroke="black" points="153.85,-19.7 143.27,-19.17 151.21,-26.19 153.85,-19.7"/>
</g>
<!-- Ipv4NetworkConfigurator -->
<g id="node4" class="node">
<title>Ipv4NetworkConfigurator</title>
<g id="a_node4"><a xlink:href="inet.networklayer.configurator.ipv4.Ipv4NetworkConfigurator.html" xlink:title="Simple Module Ipv4NetworkConfigurator" target="_parent">
<polygon fill="#fffcaf" stroke="black" points="322,-19 182,-19 182,0 322,0 322,-19"/>
<text text-anchor="middle" x="252" y="-7" font-family="Helvetica,sans-Serif" font-size="10.00">Ipv4NetworkConfigurator</text>
</a>
</g>
</g>
<!-- BgpNetwork&#45;&gt;Ipv4NetworkConfigurator -->
<g id="edge3" class="edge">
<title>BgpNetwork&#45;&gt;Ipv4NetworkConfigurator</title>
<path fill="none" stroke="black" d="M252,-54.75C252,-47.8 252,-37.85 252,-29.13"/>
<polygon fill="black" stroke="black" points="255.5,-29.09 252,-19.09 248.5,-29.09 255.5,-29.09"/>
</g>
<!-- IntegratedCanvasVisualizer -->
<g id="node5" class="node">
<title>IntegratedCanvasVisualizer</title>
<g id="a_node5"><a xlink:href="inet.visualizer.canvas.integrated.IntegratedCanvasVisualizer.html" xlink:title="Compound Module IntegratedCanvasVisualizer" target="_parent">
<polygon fill="#fffcaf" stroke="black" points="491.5,-19 340.5,-19 340.5,0 491.5,0 491.5,-19"/>
<text text-anchor="middle" x="416" y="-7" font-family="Helvetica,sans-Serif" font-size="10.00">IntegratedCanvasVisualizer</text>
</a>
</g>
</g>
<!-- BgpNetwork&#45;&gt;IntegratedCanvasVisualizer -->
<g id="edge4" class="edge">
<title>BgpNetwork&#45;&gt;IntegratedCanvasVisualizer</title>
<path fill="none" stroke="black" d="M278.35,-54.98C305.76,-46.13 348.89,-32.19 379.56,-22.28"/>
<polygon fill="black" stroke="black" points="381,-25.49 389.44,-19.08 378.85,-18.83 381,-25.49"/>
</g>
<!-- BGPRouterEx -->
<g id="node6" class="node">
<title>BGPRouterEx</title>
<g id="a_node6"><a xlink:href="inet.examples.bgpv4.BgpUpdate.BGPRouterEx.html" xlink:title="Compound Module BGPRouterEx" target="_parent">
<polygon fill="#fffcaf" stroke="black" points="590.5,-19 509.5,-19 509.5,0 590.5,0 590.5,-19"/>
<text text-anchor="middle" x="550" y="-7" font-family="Helvetica,sans-Serif" font-size="10.00">BGPRouterEx</text>
</a>
</g>
</g>
<!-- BgpNetwork&#45;&gt;BGPRouterEx -->
<g id="edge5" class="edge">
<title>BgpNetwork&#45;&gt;BGPRouterEx</title>
<path fill="none" stroke="black" d="M290.65,-56.63C343.95,-47.15 440.1,-30.05 499.16,-19.54"/>
<polygon fill="black" stroke="black" points="499.79,-22.98 509.03,-17.79 498.57,-16.09 499.79,-22.98"/>
</g>
</g>
</svg>
