<?xml version="1.0" encoding="UTF-8" standalone="no"?>
<!DOCTYPE svg PUBLIC "-//W3C//DTD SVG 1.1//EN"
 "http://www.w3.org/Graphics/SVG/1.1/DTD/svg11.dtd">
<!-- Generated by graphviz version 2.43.0 (0)
 -->
<!-- Title: opp Pages: 1 -->
<svg width="591pt" height="82pt"
 viewBox="0.00 0.00 591.00 82.00" xmlns="http://www.w3.org/2000/svg" xmlns:xlink="http://www.w3.org/1999/xlink">
<g id="graph0" class="graph" transform="scale(1 1) rotate(0) translate(4 78)">
<title>opp</title>
<polygon fill="transparent" stroke="transparent" points="-4,4 -4,-78 587,-78 587,4 -4,4"/>
<!-- LabelerTutorialStep -->
<g id="node1" class="node">
<title>LabelerTutorialStep</title>
<g id="a_node1"><a xlink:href="inet.tutorials.queueing.LabelerTutorialStep.html" xlink:title="Network LabelerTutorialStep" target="_parent">
<polygon fill="#9090ff" stroke="black" points="345.5,-74 235.5,-74 235.5,-55 345.5,-55 345.5,-74"/>
<text text-anchor="middle" x="290.5" y="-62" font-family="Helvetica,sans-Serif" font-size="10.00">LabelerTutorialStep</text>
</a>
</g>
</g>
<!-- ActivePacketSource -->
<g id="node2" class="node">
<title>ActivePacketSource</title>
<g id="a_node2"><a xlink:href="inet.queueing.source.ActivePacketSource.html" xlink:title="Simple Module ActivePacketSource" target="_parent">
<polygon fill="#fffcaf" stroke="black" points="113,-19 0,-19 0,0 113,0 113,-19"/>
<text text-anchor="middle" x="56.5" y="-7" font-family="Helvetica,sans-Serif" font-size="10.00">ActivePacketSource</text>
</a>
</g>
</g>
<!-- LabelerTutorialStep&#45;&gt;ActivePacketSource -->
<g id="edge1" class="edge">
<title>LabelerTutorialStep&#45;&gt;ActivePacketSource</title>
<path fill="none" stroke="black" d="M252.9,-54.98C212.51,-45.84 148.22,-31.27 104.27,-21.32"/>
<polygon fill="black" stroke="black" points="104.92,-17.88 94.39,-19.08 103.37,-24.7 104.92,-17.88"/>
</g>
<!-- IdealChannel -->
<g id="node3" class="node">
<title>IdealChannel</title>
<g id="a_node3"><a xlink:href="ned.IdealChannel.html" xlink:title="Channel IdealChannel" target="_parent">
<polygon fill="#d0ffd0" stroke="black" points="211.5,-19 131.5,-19 131.5,0 211.5,0 211.5,-19"/>
<text text-anchor="middle" x="171.5" y="-7" font-family="Helvetica,sans-Serif" font-size="10.00">IdealChannel</text>
</a>
</g>
</g>
<!-- LabelerTutorialStep&#45;&gt;IdealChannel -->
<g id="edge2" class="edge">
<title>LabelerTutorialStep&#45;&gt;IdealChannel</title>
<path fill="none" stroke="black" d="M271.38,-54.98C252.15,-46.42 222.27,-33.11 200.19,-23.28"/>
<polygon fill="black" stroke="black" points="201.53,-20.04 190.97,-19.17 198.68,-26.44 201.53,-20.04"/>
</g>
<!-- ContentBasedLabeler -->
<g id="node4" class="node">
<title>ContentBasedLabeler</title>
<g id="a_node4"><a xlink:href="inet.queueing.marker.ContentBasedLabeler.html" xlink:title="Simple Module ContentBasedLabeler" target="_parent">
<polygon fill="#fffcaf" stroke="black" points="351,-19 230,-19 230,0 351,0 351,-19"/>
<text text-anchor="middle" x="290.5" y="-7" font-family="Helvetica,sans-Serif" font-size="10.00">ContentBasedLabeler</text>
</a>
</g>
</g>
<!-- LabelerTutorialStep&#45;&gt;ContentBasedLabeler -->
<g id="edge3" class="edge">
<title>LabelerTutorialStep&#45;&gt;ContentBasedLabeler</title>
<path fill="none" stroke="black" d="M290.5,-54.75C290.5,-47.8 290.5,-37.85 290.5,-29.13"/>
<polygon fill="black" stroke="black" points="294,-29.09 290.5,-19.09 287,-29.09 294,-29.09"/>
</g>
<!-- PassivePacketSink -->
<g id="node5" class="node">
<title>PassivePacketSink</title>
<g id="a_node5"><a xlink:href="inet.queueing.sink.PassivePacketSink.html" xlink:title="Simple Module PassivePacketSink" target="_parent">
<polygon fill="#fffcaf" stroke="black" points="476,-19 369,-19 369,0 476,0 476,-19"/>
<text text-anchor="middle" x="422.5" y="-7" font-family="Helvetica,sans-Serif" font-size="10.00">PassivePacketSink</text>
</a>
</g>
</g>
<!-- LabelerTutorialStep&#45;&gt;PassivePacketSink -->
<g id="edge4" class="edge">
<title>LabelerTutorialStep&#45;&gt;PassivePacketSink</title>
<path fill="none" stroke="black" d="M311.71,-54.98C333.23,-46.34 366.78,-32.87 391.33,-23.02"/>
<polygon fill="black" stroke="black" points="392.93,-26.14 400.91,-19.17 390.32,-19.65 392.93,-26.14"/>
</g>
<!-- LabelClassifier -->
<g id="node6" class="node">
<title>LabelClassifier</title>
<g id="a_node6"><a xlink:href="inet.queueing.classifier.LabelClassifier.html" xlink:title="Simple Module LabelClassifier" target="_parent">
<polygon fill="#fffcaf" stroke="black" points="583,-19 494,-19 494,0 583,0 583,-19"/>
<text text-anchor="middle" x="538.5" y="-7" font-family="Helvetica,sans-Serif" font-size="10.00">LabelClassifier</text>
</a>
</g>
</g>
<!-- LabelerTutorialStep&#45;&gt;LabelClassifier -->
<g id="edge5" class="edge">
<title>LabelerTutorialStep&#45;&gt;LabelClassifier</title>
<path fill="none" stroke="black" d="M330.35,-54.98C373.33,-45.8 441.87,-31.15 488.46,-21.19"/>
<polygon fill="black" stroke="black" points="489.29,-24.59 498.34,-19.08 487.83,-17.75 489.29,-24.59"/>
</g>
</g>
</svg>
