<?xml version="1.0" encoding="UTF-8" standalone="no"?>
<!DOCTYPE svg PUBLIC "-//W3C//DTD SVG 1.1//EN"
 "http://www.w3.org/Graphics/SVG/1.1/DTD/svg11.dtd">
<!-- Generated by graphviz version 2.43.0 (0)
 -->
<!-- Title: opp Pages: 1 -->
<svg width="220pt" height="82pt"
 viewBox="0.00 0.00 220.00 82.00" xmlns="http://www.w3.org/2000/svg" xmlns:xlink="http://www.w3.org/1999/xlink">
<g id="graph0" class="graph" transform="scale(1 1) rotate(0) translate(4 78)">
<title>opp</title>
<polygon fill="transparent" stroke="transparent" points="-4,4 -4,-78 216,-78 216,4 -4,4"/>
<!-- MyStandardHost -->
<g id="node1" class="node">
<title>MyStandardHost</title>
<g id="a_node1"><a xlink:href="inet.showcases.measurement.flow.MyStandardHost.html" xlink:title="Compound Module MyStandardHost" target="_parent">
<polygon fill="#fff700" stroke="black" points="146,-74 48,-74 48,-55 146,-55 146,-74"/>
<text text-anchor="middle" x="97" y="-62" font-family="Helvetica,sans-Serif" font-size="10.00">MyStandardHost</text>
</a>
</g>
</g>
<!-- IdealChannel -->
<g id="node2" class="node">
<title>IdealChannel</title>
<g id="a_node2"><a xlink:href="ned.IdealChannel.html" xlink:title="Channel IdealChannel" target="_parent">
<polygon fill="#d0ffd0" stroke="black" points="80,-19 0,-19 0,0 80,0 80,-19"/>
<text text-anchor="middle" x="40" y="-7" font-family="Helvetica,sans-Serif" font-size="10.00">IdealChannel</text>
</a>
</g>
</g>
<!-- MyStandardHost&#45;&gt;IdealChannel -->
<g id="edge1" class="edge">
<title>MyStandardHost&#45;&gt;IdealChannel</title>
<path fill="none" stroke="black" d="M87.84,-54.98C79.5,-47.23 66.97,-35.58 56.82,-26.14"/>
<polygon fill="black" stroke="black" points="59.03,-23.42 49.32,-19.17 54.26,-28.54 59.03,-23.42"/>
</g>
<!-- IMeasurementLayer -->
<g id="node3" class="node">
<title>IMeasurementLayer</title>
<g id="a_node3"><a xlink:href="inet.protocolelement.measurement.IMeasurementLayer.html" xlink:title="Module Interface IMeasurementLayer" target="_parent">
<polygon fill="#fffcaf" stroke="black" stroke-dasharray="5,2" points="212,-19 98,-19 98,0 212,0 212,-19"/>
<text text-anchor="middle" x="155" y="-7" font-family="Helvetica,sans-Serif" font-size="10.00">IMeasurementLayer</text>
</a>
</g>
</g>
<!-- MyStandardHost&#45;&gt;IMeasurementLayer -->
<g id="edge2" class="edge">
<title>MyStandardHost&#45;&gt;IMeasurementLayer</title>
<path fill="none" stroke="black" d="M106.32,-54.98C114.81,-47.23 127.56,-35.58 137.88,-26.14"/>
<polygon fill="black" stroke="black" points="140.49,-28.5 145.51,-19.17 135.77,-23.33 140.49,-28.5"/>
</g>
</g>
</svg>
