<?xml version="1.0" encoding="UTF-8" standalone="no"?>
<!DOCTYPE svg PUBLIC "-//W3C//DTD SVG 1.1//EN"
 "http://www.w3.org/Graphics/SVG/1.1/DTD/svg11.dtd">
<!-- Generated by graphviz version 2.43.0 (0)
 -->
<!-- Title: opp Pages: 1 -->
<svg width="1164pt" height="82pt"
 viewBox="0.00 0.00 1164.00 82.00" xmlns="http://www.w3.org/2000/svg" xmlns:xlink="http://www.w3.org/1999/xlink">
<g id="graph0" class="graph" transform="scale(1 1) rotate(0) translate(4 78)">
<title>opp</title>
<polygon fill="transparent" stroke="transparent" points="-4,4 -4,-78 1160,-78 1160,4 -4,4"/>
<!-- PacketDropQueueOverflowShowcase -->
<g id="node1" class="node">
<title>PacketDropQueueOverflowShowcase</title>
<g id="a_node1"><a xlink:href="inet.showcases.visualizer.canvas.packetdrop.PacketDropQueueOverflowShowcase.html" xlink:title="Network PacketDropQueueOverflowShowcase" target="_parent">
<polygon fill="#9090ff" stroke="black" points="610,-74 413,-74 413,-55 610,-55 610,-74"/>
<text text-anchor="middle" x="511.5" y="-62" font-family="Helvetica,sans-Serif" font-size="10.00">PacketDropQueueOverflowShowcase</text>
</a>
</g>
</g>
<!-- StandardHost -->
<g id="node2" class="node">
<title>StandardHost</title>
<g id="a_node2"><a xlink:href="inet.node.inet.StandardHost.html" xlink:title="Compound Module StandardHost" target="_parent">
<polygon fill="#fffcaf" stroke="black" points="83,-19 0,-19 0,0 83,0 83,-19"/>
<text text-anchor="middle" x="41.5" y="-7" font-family="Helvetica,sans-Serif" font-size="10.00">StandardHost</text>
</a>
</g>
</g>
<!-- PacketDropQueueOverflowShowcase&#45;&gt;StandardHost -->
<g id="edge1" class="edge">
<title>PacketDropQueueOverflowShowcase&#45;&gt;StandardHost</title>
<path fill="none" stroke="black" d="M414.54,-54.97C331.69,-47.28 209.09,-34.94 93.32,-19.18"/>
<polygon fill="black" stroke="black" points="93.59,-15.68 83.21,-17.79 92.64,-22.62 93.59,-15.68"/>
</g>
<!-- AccessPoint -->
<g id="node3" class="node">
<title>AccessPoint</title>
<g id="a_node3"><a xlink:href="inet.node.wireless.AccessPoint.html" xlink:title="Compound Module AccessPoint" target="_parent">
<polygon fill="#fffcaf" stroke="black" points="176,-19 101,-19 101,0 176,0 176,-19"/>
<text text-anchor="middle" x="138.5" y="-7" font-family="Helvetica,sans-Serif" font-size="10.00">AccessPoint</text>
</a>
</g>
</g>
<!-- PacketDropQueueOverflowShowcase&#45;&gt;AccessPoint -->
<g id="edge2" class="edge">
<title>PacketDropQueueOverflowShowcase&#45;&gt;AccessPoint</title>
<path fill="none" stroke="black" d="M441.83,-54.99C377.79,-46.95 280,-34.11 186.08,-19.2"/>
<polygon fill="black" stroke="black" points="186.56,-15.73 176.13,-17.6 185.45,-22.64 186.56,-15.73"/>
</g>
<!-- Eth100G -->
<g id="node4" class="node">
<title>Eth100G</title>
<g id="a_node4"><a xlink:href="inet.node.ethernet.Eth100G.html" xlink:title="Channel Eth100G" target="_parent">
<polygon fill="#d0ffd0" stroke="black" points="251.5,-19 193.5,-19 193.5,0 251.5,0 251.5,-19"/>
<text text-anchor="middle" x="222.5" y="-7" font-family="Helvetica,sans-Serif" font-size="10.00">Eth100G</text>
</a>
</g>
</g>
<!-- PacketDropQueueOverflowShowcase&#45;&gt;Eth100G -->
<g id="edge3" class="edge">
<title>PacketDropQueueOverflowShowcase&#45;&gt;Eth100G</title>
<path fill="none" stroke="black" d="M459.46,-54.97C410.79,-46.83 335.84,-33.91 261.52,-19.13"/>
<polygon fill="black" stroke="black" points="262.01,-15.66 251.52,-17.13 260.64,-22.52 262.01,-15.66"/>
</g>
<!-- Router -->
<g id="node5" class="node">
<title>Router</title>
<g id="a_node5"><a xlink:href="inet.node.inet.Router.html" xlink:title="Compound Module Router" target="_parent">
<polygon fill="#fffcaf" stroke="black" points="323.5,-19 269.5,-19 269.5,0 323.5,0 323.5,-19"/>
<text text-anchor="middle" x="296.5" y="-7" font-family="Helvetica,sans-Serif" font-size="10.00">Router</text>
</a>
</g>
</g>
<!-- PacketDropQueueOverflowShowcase&#45;&gt;Router -->
<g id="edge4" class="edge">
<title>PacketDropQueueOverflowShowcase&#45;&gt;Router</title>
<path fill="none" stroke="black" d="M476.96,-54.98C437.75,-45.32 374.05,-29.62 333.75,-19.68"/>
<polygon fill="black" stroke="black" points="334.34,-16.22 323.8,-17.23 332.67,-23.02 334.34,-16.22"/>
</g>
<!-- WirelessHost -->
<g id="node6" class="node">
<title>WirelessHost</title>
<g id="a_node6"><a xlink:href="inet.node.inet.WirelessHost.html" xlink:title="Compound Module WirelessHost" target="_parent">
<polygon fill="#fffcaf" stroke="black" points="423,-19 342,-19 342,0 423,0 423,-19"/>
<text text-anchor="middle" x="382.5" y="-7" font-family="Helvetica,sans-Serif" font-size="10.00">WirelessHost</text>
</a>
</g>
</g>
<!-- PacketDropQueueOverflowShowcase&#45;&gt;WirelessHost -->
<g id="edge5" class="edge">
<title>PacketDropQueueOverflowShowcase&#45;&gt;WirelessHost</title>
<path fill="none" stroke="black" d="M490.77,-54.98C469.74,-46.34 436.95,-32.87 412.96,-23.02"/>
<polygon fill="black" stroke="black" points="414.18,-19.73 403.6,-19.17 411.52,-26.21 414.18,-19.73"/>
</g>
<!-- Ipv4NetworkConfigurator -->
<g id="node7" class="node">
<title>Ipv4NetworkConfigurator</title>
<g id="a_node7"><a xlink:href="inet.networklayer.configurator.ipv4.Ipv4NetworkConfigurator.html" xlink:title="Simple Module Ipv4NetworkConfigurator" target="_parent">
<polygon fill="#fffcaf" stroke="black" points="581.5,-19 441.5,-19 441.5,0 581.5,0 581.5,-19"/>
<text text-anchor="middle" x="511.5" y="-7" font-family="Helvetica,sans-Serif" font-size="10.00">Ipv4NetworkConfigurator</text>
</a>
</g>
</g>
<!-- PacketDropQueueOverflowShowcase&#45;&gt;Ipv4NetworkConfigurator -->
<g id="edge6" class="edge">
<title>PacketDropQueueOverflowShowcase&#45;&gt;Ipv4NetworkConfigurator</title>
<path fill="none" stroke="black" d="M511.5,-54.75C511.5,-47.8 511.5,-37.85 511.5,-29.13"/>
<polygon fill="black" stroke="black" points="515,-29.09 511.5,-19.09 508,-29.09 515,-29.09"/>
</g>
<!-- Eth10M -->
<g id="node8" class="node">
<title>Eth10M</title>
<g id="a_node8"><a xlink:href="inet.node.ethernet.Eth10M.html" xlink:title="Channel Eth10M" target="_parent">
<polygon fill="#d0ffd0" stroke="black" points="653.5,-19 599.5,-19 599.5,0 653.5,0 653.5,-19"/>
<text text-anchor="middle" x="626.5" y="-7" font-family="Helvetica,sans-Serif" font-size="10.00">Eth10M</text>
</a>
</g>
</g>
<!-- PacketDropQueueOverflowShowcase&#45;&gt;Eth10M -->
<g id="edge7" class="edge">
<title>PacketDropQueueOverflowShowcase&#45;&gt;Eth10M</title>
<path fill="none" stroke="black" d="M529.98,-54.98C548.48,-46.46 577.18,-33.23 598.48,-23.41"/>
<polygon fill="black" stroke="black" points="600.07,-26.53 607.69,-19.17 597.14,-20.18 600.07,-26.53"/>
</g>
<!-- IntegratedVisualizer -->
<g id="node9" class="node">
<title>IntegratedVisualizer</title>
<g id="a_node9"><a xlink:href="inet.visualizer.common.IntegratedVisualizer.html" xlink:title="Compound Module IntegratedVisualizer" target="_parent">
<polygon fill="#fffcaf" stroke="black" points="787,-19 672,-19 672,0 787,0 787,-19"/>
<text text-anchor="middle" x="729.5" y="-7" font-family="Helvetica,sans-Serif" font-size="10.00">IntegratedVisualizer</text>
</a>
</g>
</g>
<!-- PacketDropQueueOverflowShowcase&#45;&gt;IntegratedVisualizer -->
<g id="edge8" class="edge">
<title>PacketDropQueueOverflowShowcase&#45;&gt;IntegratedVisualizer</title>
<path fill="none" stroke="black" d="M546.53,-54.98C584,-45.87 643.55,-31.4 684.48,-21.45"/>
<polygon fill="black" stroke="black" points="685.31,-24.85 694.2,-19.08 683.66,-18.04 685.31,-24.85"/>
</g>
<!-- Ieee80211ScalarRadioMedium -->
<g id="node10" class="node">
<title>Ieee80211ScalarRadioMedium</title>
<g id="a_node10"><a xlink:href="inet.physicallayer.wireless.ieee80211.packetlevel.Ieee80211ScalarRadioMedium.html" xlink:title="Compound Module Ieee80211ScalarRadioMedium" target="_parent">
<polygon fill="#fffcaf" stroke="black" points="970,-19 805,-19 805,0 970,0 970,-19"/>
<text text-anchor="middle" x="887.5" y="-7" font-family="Helvetica,sans-Serif" font-size="10.00">Ieee80211ScalarRadioMedium</text>
</a>
</g>
</g>
<!-- PacketDropQueueOverflowShowcase&#45;&gt;Ieee80211ScalarRadioMedium -->
<g id="edge9" class="edge">
<title>PacketDropQueueOverflowShowcase&#45;&gt;Ieee80211ScalarRadioMedium</title>
<path fill="none" stroke="black" d="M571.91,-54.98C638.69,-45.57 746.13,-30.43 816.78,-20.47"/>
<polygon fill="black" stroke="black" points="817.51,-23.9 826.93,-19.04 816.54,-16.97 817.51,-23.9"/>
</g>
<!-- EthernetSwitch -->
<g id="node11" class="node">
<title>EthernetSwitch</title>
<g id="a_node11"><a xlink:href="inet.node.ethernet.EthernetSwitch.html" xlink:title="Compound Module EthernetSwitch" target="_parent">
<polygon fill="#fffcaf" stroke="black" points="1078.5,-19 988.5,-19 988.5,0 1078.5,0 1078.5,-19"/>
<text text-anchor="middle" x="1033.5" y="-7" font-family="Helvetica,sans-Serif" font-size="10.00">EthernetSwitch</text>
</a>
</g>
</g>
<!-- PacketDropQueueOverflowShowcase&#45;&gt;EthernetSwitch -->
<g id="edge10" class="edge">
<title>PacketDropQueueOverflowShowcase&#45;&gt;EthernetSwitch</title>
<path fill="none" stroke="black" d="M610.3,-55.88C702.84,-48.33 845.21,-35.67 978.46,-19.06"/>
<polygon fill="black" stroke="black" points="978.96,-22.52 988.45,-17.8 978.09,-15.58 978.96,-22.52"/>
</g>
<!-- Eth100M -->
<g id="node12" class="node">
<title>Eth100M</title>
<g id="a_node12"><a xlink:href="inet.node.ethernet.Eth100M.html" xlink:title="Channel Eth100M" target="_parent">
<polygon fill="#d0ffd0" stroke="black" points="1156,-19 1097,-19 1097,0 1156,0 1156,-19"/>
<text text-anchor="middle" x="1126.5" y="-7" font-family="Helvetica,sans-Serif" font-size="10.00">Eth100M</text>
</a>
</g>
</g>
<!-- PacketDropQueueOverflowShowcase&#45;&gt;Eth100M -->
<g id="edge11" class="edge">
<title>PacketDropQueueOverflowShowcase&#45;&gt;Eth100M</title>
<path fill="none" stroke="black" d="M610.05,-60.01C722.92,-55.08 913.48,-43.91 1086.7,-18.89"/>
<polygon fill="black" stroke="black" points="1087.38,-22.33 1096.77,-17.42 1086.37,-15.41 1087.38,-22.33"/>
</g>
</g>
</svg>
