<?xml version="1.0" encoding="UTF-8" standalone="no"?>
<!DOCTYPE svg PUBLIC "-//W3C//DTD SVG 1.1//EN"
 "http://www.w3.org/Graphics/SVG/1.1/DTD/svg11.dtd">
<!-- Generated by graphviz version 2.43.0 (0)
 -->
<!-- Title: opp Pages: 1 -->
<svg width="232pt" height="82pt"
 viewBox="0.00 0.00 231.50 82.00" xmlns="http://www.w3.org/2000/svg" xmlns:xlink="http://www.w3.org/1999/xlink">
<g id="graph0" class="graph" transform="scale(1 1) rotate(0) translate(4 78)">
<title>opp</title>
<polygon fill="transparent" stroke="transparent" points="-4,4 -4,-78 227.5,-78 227.5,4 -4,4"/>
<!-- FragmentTagBasedFragmenter -->
<g id="node1" class="node">
<title>FragmentTagBasedFragmenter</title>
<g id="a_node1"><a xlink:href="inet.protocolelement.fragmentation.FragmentTagBasedFragmenter.html" xlink:title="Compound Module FragmentTagBasedFragmenter" target="_parent">
<polygon fill="#fff700" stroke="black" points="191.5,-19 25.5,-19 25.5,0 191.5,0 191.5,-19"/>
<text text-anchor="middle" x="108.5" y="-7" font-family="Helvetica,sans-Serif" font-size="10.00">FragmentTagBasedFragmenter</text>
</a>
</g>
</g>
<!-- FragmenterBase -->
<g id="node2" class="node">
<title>FragmenterBase</title>
<g id="a_node2"><a xlink:href="inet.protocolelement.fragmentation.base.FragmenterBase.html" xlink:title="Compound Module FragmenterBase" target="_parent">
<polygon fill="#fffcaf" stroke="black" points="97,-74 0,-74 0,-55 97,-55 97,-74"/>
<text text-anchor="middle" x="48.5" y="-62" font-family="Helvetica,sans-Serif" font-size="10.00">FragmenterBase</text>
</a>
</g>
</g>
<!-- FragmenterBase&#45;&gt;FragmentTagBasedFragmenter -->
<g id="edge1" class="edge">
<title>FragmenterBase&#45;&gt;FragmentTagBasedFragmenter</title>
<path fill="none" stroke="black" d="M58.14,-54.98C69.27,-45.15 87.48,-29.07 98.68,-19.17"/>
</g>
<!-- IPacketFragmenter -->
<g id="node3" class="node">
<title>IPacketFragmenter</title>
<g id="a_node3"><a xlink:href="inet.protocolelement.fragmentation.contract.IPacketFragmenter.html" xlink:title="Module Interface IPacketFragmenter" target="_parent">
<polygon fill="#fffcaf" stroke="black" stroke-dasharray="5,2" points="223.5,-74 115.5,-74 115.5,-55 223.5,-55 223.5,-74"/>
<text text-anchor="middle" x="169.5" y="-62" font-family="Helvetica,sans-Serif" font-size="10.00">IPacketFragmenter</text>
</a>
</g>
</g>
<!-- IPacketFragmenter&#45;&gt;FragmentTagBasedFragmenter -->
<g id="edge2" class="edge">
<title>IPacketFragmenter&#45;&gt;FragmentTagBasedFragmenter</title>
<path fill="none" stroke="black" stroke-dasharray="5,2" d="M159.7,-54.98C148.38,-45.15 129.87,-29.07 118.48,-19.17"/>
</g>
</g>
</svg>
