<?xml version="1.0" encoding="UTF-8" standalone="no"?>
<!DOCTYPE svg PUBLIC "-//W3C//DTD SVG 1.1//EN"
 "http://www.w3.org/Graphics/SVG/1.1/DTD/svg11.dtd">
<!-- Generated by graphviz version 2.43.0 (0)
 -->
<!-- Title: opp Pages: 1 -->
<svg width="537pt" height="137pt"
 viewBox="0.00 0.00 537.00 137.00" xmlns="http://www.w3.org/2000/svg" xmlns:xlink="http://www.w3.org/1999/xlink">
<g id="graph0" class="graph" transform="scale(1 1) rotate(0) translate(4 133)">
<title>opp</title>
<polygon fill="transparent" stroke="transparent" points="-4,4 -4,-133 533,-133 533,4 -4,4"/>
<!-- ServerHost7 -->
<g id="node1" class="node">
<title>ServerHost7</title>
<g id="a_node1"><a xlink:href="inet.tutorials.protocol.ServerHost7.html" xlink:title="Compound Module ServerHost7" target="_parent">
<polygon fill="#fff700" stroke="black" points="300.5,-74 223.5,-74 223.5,-55 300.5,-55 300.5,-74"/>
<text text-anchor="middle" x="262" y="-62" font-family="Helvetica,sans-Serif" font-size="10.00">ServerHost7</text>
</a>
</g>
</g>
<!-- IdealChannel -->
<g id="node2" class="node">
<title>IdealChannel</title>
<g id="a_node2"><a xlink:href="ned.IdealChannel.html" xlink:title="Channel IdealChannel" target="_parent">
<polygon fill="#d0ffd0" stroke="black" points="80,-19 0,-19 0,0 80,0 80,-19"/>
<text text-anchor="middle" x="40" y="-7" font-family="Helvetica,sans-Serif" font-size="10.00">IdealChannel</text>
</a>
</g>
</g>
<!-- ServerHost7&#45;&gt;IdealChannel -->
<g id="edge1" class="edge">
<title>ServerHost7&#45;&gt;IdealChannel</title>
<path fill="none" stroke="black" d="M226.33,-54.98C188.17,-45.87 127.53,-31.4 85.85,-21.45"/>
<polygon fill="black" stroke="black" points="86.49,-18 75.95,-19.08 84.86,-24.81 86.49,-18"/>
</g>
<!-- PacketReceiver -->
<g id="node3" class="node">
<title>PacketReceiver</title>
<g id="a_node3"><a xlink:href="inet.protocolelement.transceiver.PacketReceiver.html" xlink:title="Simple Module PacketReceiver" target="_parent">
<polygon fill="#fffcaf" stroke="black" points="190,-19 98,-19 98,0 190,0 190,-19"/>
<text text-anchor="middle" x="144" y="-7" font-family="Helvetica,sans-Serif" font-size="10.00">PacketReceiver</text>
</a>
</g>
</g>
<!-- ServerHost7&#45;&gt;PacketReceiver -->
<g id="edge2" class="edge">
<title>ServerHost7&#45;&gt;PacketReceiver</title>
<path fill="none" stroke="black" d="M243.04,-54.98C223.97,-46.42 194.34,-33.11 172.45,-23.28"/>
<polygon fill="black" stroke="black" points="173.86,-20.07 163.3,-19.17 170.99,-26.46 173.86,-20.07"/>
</g>
<!-- PassivePacketSink -->
<g id="node4" class="node">
<title>PassivePacketSink</title>
<g id="a_node4"><a xlink:href="inet.queueing.sink.PassivePacketSink.html" xlink:title="Simple Module PassivePacketSink" target="_parent">
<polygon fill="#fffcaf" stroke="black" points="315.5,-19 208.5,-19 208.5,0 315.5,0 315.5,-19"/>
<text text-anchor="middle" x="262" y="-7" font-family="Helvetica,sans-Serif" font-size="10.00">PassivePacketSink</text>
</a>
</g>
</g>
<!-- ServerHost7&#45;&gt;PassivePacketSink -->
<g id="edge3" class="edge">
<title>ServerHost7&#45;&gt;PassivePacketSink</title>
<path fill="none" stroke="black" d="M262,-54.75C262,-47.8 262,-37.85 262,-29.13"/>
<polygon fill="black" stroke="black" points="265.5,-29.09 262,-19.09 258.5,-29.09 265.5,-29.09"/>
</g>
<!-- FcsHeaderChecker -->
<g id="node5" class="node">
<title>FcsHeaderChecker</title>
<g id="a_node5"><a xlink:href="inet.protocolelement.checksum.FcsHeaderChecker.html" xlink:title="Simple Module FcsHeaderChecker" target="_parent">
<polygon fill="#fffcaf" stroke="black" points="440.5,-19 333.5,-19 333.5,0 440.5,0 440.5,-19"/>
<text text-anchor="middle" x="387" y="-7" font-family="Helvetica,sans-Serif" font-size="10.00">FcsHeaderChecker</text>
</a>
</g>
</g>
<!-- ServerHost7&#45;&gt;FcsHeaderChecker -->
<g id="edge4" class="edge">
<title>ServerHost7&#45;&gt;FcsHeaderChecker</title>
<path fill="none" stroke="black" d="M282.08,-54.98C302.37,-46.38 333.96,-32.99 357.17,-23.15"/>
<polygon fill="black" stroke="black" points="358.71,-26.3 366.55,-19.17 355.98,-19.85 358.71,-26.3"/>
</g>
<!-- Reordering -->
<g id="node6" class="node">
<title>Reordering</title>
<g id="a_node6"><a xlink:href="inet.protocolelement.ordering.Reordering.html" xlink:title="Simple Module Reordering" target="_parent">
<polygon fill="#fffcaf" stroke="black" points="529,-19 459,-19 459,0 529,0 529,-19"/>
<text text-anchor="middle" x="494" y="-7" font-family="Helvetica,sans-Serif" font-size="10.00">Reordering</text>
</a>
</g>
</g>
<!-- ServerHost7&#45;&gt;Reordering -->
<g id="edge5" class="edge">
<title>ServerHost7&#45;&gt;Reordering</title>
<path fill="none" stroke="black" d="M299.27,-54.98C340.03,-45.67 405.35,-30.75 448.95,-20.79"/>
<polygon fill="black" stroke="black" points="449.75,-24.2 458.72,-18.56 448.19,-17.38 449.75,-24.2"/>
</g>
<!-- Network7 -->
<g id="node7" class="node">
<title>Network7</title>
<g id="a_node7"><a xlink:href="inet.tutorials.protocol.Network7.html" xlink:title="Network Network7" target="_parent">
<polygon fill="#d0d0ff" stroke="black" points="294,-129 230,-129 230,-110 294,-110 294,-129"/>
<text text-anchor="middle" x="262" y="-117" font-family="Helvetica,sans-Serif" font-size="10.00">Network7</text>
</a>
</g>
</g>
<!-- Network7&#45;&gt;ServerHost7 -->
<g id="edge6" class="edge">
<title>Network7&#45;&gt;ServerHost7</title>
<path fill="none" stroke="black" d="M262,-109.75C262,-102.8 262,-92.85 262,-84.13"/>
<polygon fill="black" stroke="black" points="265.5,-84.09 262,-74.09 258.5,-84.09 265.5,-84.09"/>
</g>
</g>
</svg>
