<?xml version="1.0" encoding="UTF-8" standalone="no"?>
<!DOCTYPE svg PUBLIC "-//W3C//DTD SVG 1.1//EN"
 "http://www.w3.org/Graphics/SVG/1.1/DTD/svg11.dtd">
<!-- Generated by graphviz version 2.43.0 (0)
 -->
<!-- Title: opp Pages: 1 -->
<svg width="871pt" height="137pt"
 viewBox="0.00 0.00 871.00 137.00" xmlns="http://www.w3.org/2000/svg" xmlns:xlink="http://www.w3.org/1999/xlink">
<g id="graph0" class="graph" transform="scale(1 1) rotate(0) translate(4 133)">
<title>opp</title>
<polygon fill="transparent" stroke="transparent" points="-4,4 -4,-133 867,-133 867,4 -4,4"/>
<!-- Ipv4NetworkLayer -->
<g id="node1" class="node">
<title>Ipv4NetworkLayer</title>
<g id="a_node1"><a xlink:href="inet.networklayer.ipv4.Ipv4NetworkLayer.html" xlink:title="Compound Module Ipv4NetworkLayer" target="_parent">
<polygon fill="#fff700" stroke="black" points="571,-74 465,-74 465,-55 571,-55 571,-74"/>
<text text-anchor="middle" x="518" y="-62" font-family="Helvetica,sans-Serif" font-size="10.00">Ipv4NetworkLayer</text>
</a>
</g>
</g>
<!-- IdealChannel -->
<g id="node2" class="node">
<title>IdealChannel</title>
<g id="a_node2"><a xlink:href="ned.IdealChannel.html" xlink:title="Channel IdealChannel" target="_parent">
<polygon fill="#d0ffd0" stroke="black" points="80,-19 0,-19 0,0 80,0 80,-19"/>
<text text-anchor="middle" x="40" y="-7" font-family="Helvetica,sans-Serif" font-size="10.00">IdealChannel</text>
</a>
</g>
</g>
<!-- Ipv4NetworkLayer&#45;&gt;IdealChannel -->
<g id="edge1" class="edge">
<title>Ipv4NetworkLayer&#45;&gt;IdealChannel</title>
<path fill="none" stroke="black" d="M464.69,-59.15C385.34,-52.42 231.25,-38.34 90.21,-19.08"/>
<polygon fill="black" stroke="black" points="90.46,-15.58 80.08,-17.68 89.51,-22.51 90.46,-15.58"/>
</g>
<!-- IIpv4NodeConfigurator -->
<g id="node3" class="node">
<title>IIpv4NodeConfigurator</title>
<g id="a_node3"><a xlink:href="inet.networklayer.configurator.contract.IIpv4NodeConfigurator.html" xlink:title="Module Interface IIpv4NodeConfigurator" target="_parent">
<polygon fill="#fffcaf" stroke="black" stroke-dasharray="5,2" points="225.5,-19 98.5,-19 98.5,0 225.5,0 225.5,-19"/>
<text text-anchor="middle" x="162" y="-7" font-family="Helvetica,sans-Serif" font-size="10.00">IIpv4NodeConfigurator</text>
</a>
</g>
</g>
<!-- Ipv4NetworkLayer&#45;&gt;IIpv4NodeConfigurator -->
<g id="edge2" class="edge">
<title>Ipv4NetworkLayer&#45;&gt;IIpv4NodeConfigurator</title>
<path fill="none" stroke="black" d="M464.7,-55.57C401.97,-46.23 297.72,-30.71 229.43,-20.54"/>
<polygon fill="black" stroke="black" points="229.61,-17.03 219.2,-19.02 228.58,-23.95 229.61,-17.03"/>
</g>
<!-- Ipv4RoutingTable -->
<g id="node4" class="node">
<title>Ipv4RoutingTable</title>
<g id="a_node4"><a xlink:href="inet.networklayer.ipv4.Ipv4RoutingTable.html" xlink:title="Simple Module Ipv4RoutingTable" target="_parent">
<polygon fill="#fffcaf" stroke="black" points="344.5,-19 243.5,-19 243.5,0 344.5,0 344.5,-19"/>
<text text-anchor="middle" x="294" y="-7" font-family="Helvetica,sans-Serif" font-size="10.00">Ipv4RoutingTable</text>
</a>
</g>
</g>
<!-- Ipv4NetworkLayer&#45;&gt;Ipv4RoutingTable -->
<g id="edge3" class="edge">
<title>Ipv4NetworkLayer&#45;&gt;Ipv4RoutingTable</title>
<path fill="none" stroke="black" d="M482.01,-54.98C443.51,-45.87 382.31,-31.4 340.26,-21.45"/>
<polygon fill="black" stroke="black" points="340.81,-17.98 330.27,-19.08 339.2,-24.79 340.81,-17.98"/>
</g>
<!-- Ipv4NatTable -->
<g id="node5" class="node">
<title>Ipv4NatTable</title>
<g id="a_node5"><a xlink:href="inet.networklayer.ipv4.Ipv4NatTable.html" xlink:title="Simple Module Ipv4NatTable" target="_parent">
<polygon fill="#fffcaf" stroke="black" points="443,-19 363,-19 363,0 443,0 443,-19"/>
<text text-anchor="middle" x="403" y="-7" font-family="Helvetica,sans-Serif" font-size="10.00">Ipv4NatTable</text>
</a>
</g>
</g>
<!-- Ipv4NetworkLayer&#45;&gt;Ipv4NatTable -->
<g id="edge4" class="edge">
<title>Ipv4NetworkLayer&#45;&gt;Ipv4NatTable</title>
<path fill="none" stroke="black" d="M499.52,-54.98C481.02,-46.46 452.32,-33.23 431.02,-23.41"/>
<polygon fill="black" stroke="black" points="432.36,-20.18 421.81,-19.17 429.43,-26.53 432.36,-20.18"/>
</g>
<!-- MessageDispatcher -->
<g id="node6" class="node">
<title>MessageDispatcher</title>
<g id="a_node6"><a xlink:href="inet.common.MessageDispatcher.html" xlink:title="Simple Module MessageDispatcher" target="_parent">
<polygon fill="#fffcaf" stroke="black" points="574.5,-19 461.5,-19 461.5,0 574.5,0 574.5,-19"/>
<text text-anchor="middle" x="518" y="-7" font-family="Helvetica,sans-Serif" font-size="10.00">MessageDispatcher</text>
</a>
</g>
</g>
<!-- Ipv4NetworkLayer&#45;&gt;MessageDispatcher -->
<g id="edge5" class="edge">
<title>Ipv4NetworkLayer&#45;&gt;MessageDispatcher</title>
<path fill="none" stroke="black" d="M518,-54.75C518,-47.8 518,-37.85 518,-29.13"/>
<polygon fill="black" stroke="black" points="521.5,-29.09 518,-19.09 514.5,-29.09 521.5,-29.09"/>
</g>
<!-- Icmp -->
<g id="node7" class="node">
<title>Icmp</title>
<g id="a_node7"><a xlink:href="inet.networklayer.ipv4.Icmp.html" xlink:title="Simple Module Icmp" target="_parent">
<polygon fill="#fffcaf" stroke="black" points="647,-19 593,-19 593,0 647,0 647,-19"/>
<text text-anchor="middle" x="620" y="-7" font-family="Helvetica,sans-Serif" font-size="10.00">Icmp</text>
</a>
</g>
</g>
<!-- Ipv4NetworkLayer&#45;&gt;Icmp -->
<g id="edge6" class="edge">
<title>Ipv4NetworkLayer&#45;&gt;Icmp</title>
<path fill="none" stroke="black" d="M534.39,-54.98C550.57,-46.57 575.57,-33.59 594.38,-23.81"/>
<polygon fill="black" stroke="black" points="596.05,-26.89 603.31,-19.17 592.83,-20.68 596.05,-26.89"/>
</g>
<!-- IArp -->
<g id="node8" class="node">
<title>IArp</title>
<g id="a_node8"><a xlink:href="inet.networklayer.contract.IArp.html" xlink:title="Module Interface IArp" target="_parent">
<polygon fill="#fffcaf" stroke="black" stroke-dasharray="5,2" points="719,-19 665,-19 665,0 719,0 719,-19"/>
<text text-anchor="middle" x="692" y="-7" font-family="Helvetica,sans-Serif" font-size="10.00">IArp</text>
</a>
</g>
</g>
<!-- Ipv4NetworkLayer&#45;&gt;IArp -->
<g id="edge7" class="edge">
<title>Ipv4NetworkLayer&#45;&gt;IArp</title>
<path fill="none" stroke="black" d="M545.96,-54.98C575.64,-45.94 622.7,-31.61 655.34,-21.67"/>
<polygon fill="black" stroke="black" points="656.43,-24.99 664.97,-18.73 654.39,-18.3 656.43,-24.99"/>
</g>
<!-- IIpv4 -->
<g id="node9" class="node">
<title>IIpv4</title>
<g id="a_node9"><a xlink:href="inet.networklayer.ipv4.IIpv4.html" xlink:title="Module Interface IIpv4" target="_parent">
<polygon fill="#fffcaf" stroke="black" stroke-dasharray="5,2" points="791,-19 737,-19 737,0 791,0 791,-19"/>
<text text-anchor="middle" x="764" y="-7" font-family="Helvetica,sans-Serif" font-size="10.00">IIpv4</text>
</a>
</g>
</g>
<!-- Ipv4NetworkLayer&#45;&gt;IIpv4 -->
<g id="edge8" class="edge">
<title>Ipv4NetworkLayer&#45;&gt;IIpv4</title>
<path fill="none" stroke="black" d="M559.5,-55C599.84,-46.67 663.08,-33.44 727.04,-19.18"/>
<polygon fill="black" stroke="black" points="727.89,-22.57 736.89,-16.97 726.37,-15.74 727.89,-22.57"/>
</g>
<!-- IIgmp -->
<g id="node10" class="node">
<title>IIgmp</title>
<g id="a_node10"><a xlink:href="inet.networklayer.ipv4.IIgmp.html" xlink:title="Module Interface IIgmp" target="_parent">
<polygon fill="#fffcaf" stroke="black" stroke-dasharray="5,2" points="863,-19 809,-19 809,0 863,0 863,-19"/>
<text text-anchor="middle" x="836" y="-7" font-family="Helvetica,sans-Serif" font-size="10.00">IIgmp</text>
</a>
</g>
</g>
<!-- Ipv4NetworkLayer&#45;&gt;IIgmp -->
<g id="edge9" class="edge">
<title>Ipv4NetworkLayer&#45;&gt;IIgmp</title>
<path fill="none" stroke="black" d="M571.22,-56.32C625.97,-48.66 713.9,-35.6 799.09,-19.05"/>
<polygon fill="black" stroke="black" points="799.78,-22.48 808.92,-17.12 798.43,-15.61 799.78,-22.48"/>
</g>
<!-- BGPRouterEx -->
<g id="node11" class="node">
<title>BGPRouterEx</title>
<g id="a_node11"><a xlink:href="inet.examples.bgpv4.BgpUpdate.BGPRouterEx.html" xlink:title="Compound Module BGPRouterEx" target="_parent">
<polygon fill="#fffcaf" stroke="black" points="391.5,-129 310.5,-129 310.5,-110 391.5,-110 391.5,-129"/>
<text text-anchor="middle" x="351" y="-117" font-family="Helvetica,sans-Serif" font-size="10.00">BGPRouterEx</text>
</a>
</g>
</g>
<!-- BGPRouterEx&#45;&gt;Ipv4NetworkLayer -->
<g id="edge10" class="edge">
<title>BGPRouterEx&#45;&gt;Ipv4NetworkLayer</title>
<path fill="none" stroke="black" d="M377.83,-109.98C405.87,-101.09 450.05,-87.07 481.3,-77.15"/>
<polygon fill="black" stroke="black" points="482.49,-80.44 490.96,-74.08 480.37,-73.77 482.49,-80.44"/>
</g>
<!-- BGPRouterSimple -->
<g id="node12" class="node">
<title>BGPRouterSimple</title>
<g id="a_node12"><a xlink:href="inet.examples.bgpv4.BgpOpen.BGPRouterSimple.html" xlink:title="Compound Module BGPRouterSimple" target="_parent">
<polygon fill="#fffcaf" stroke="black" points="512.5,-129 409.5,-129 409.5,-110 512.5,-110 512.5,-129"/>
<text text-anchor="middle" x="461" y="-117" font-family="Helvetica,sans-Serif" font-size="10.00">BGPRouterSimple</text>
</a>
</g>
</g>
<!-- BGPRouterSimple&#45;&gt;Ipv4NetworkLayer -->
<g id="edge11" class="edge">
<title>BGPRouterSimple&#45;&gt;Ipv4NetworkLayer</title>
<path fill="none" stroke="black" d="M470.16,-109.98C478.5,-102.23 491.03,-90.58 501.18,-81.14"/>
<polygon fill="black" stroke="black" points="503.74,-83.54 508.68,-74.17 498.97,-78.42 503.74,-83.54"/>
</g>
<!-- LdpMplsRouter -->
<g id="node13" class="node">
<title>LdpMplsRouter</title>
<g id="a_node13"><a xlink:href="inet.node.mpls.LdpMplsRouter.html" xlink:title="Compound Module LdpMplsRouter" target="_parent">
<polygon fill="#fffcaf" stroke="black" points="619.5,-129 530.5,-129 530.5,-110 619.5,-110 619.5,-129"/>
<text text-anchor="middle" x="575" y="-117" font-family="Helvetica,sans-Serif" font-size="10.00">LdpMplsRouter</text>
</a>
</g>
</g>
<!-- LdpMplsRouter&#45;&gt;Ipv4NetworkLayer -->
<g id="edge12" class="edge">
<title>LdpMplsRouter&#45;&gt;Ipv4NetworkLayer</title>
<path fill="none" stroke="black" d="M565.84,-109.98C557.5,-102.23 544.97,-90.58 534.82,-81.14"/>
<polygon fill="black" stroke="black" points="537.03,-78.42 527.32,-74.17 532.26,-83.54 537.03,-78.42"/>
</g>
<!-- RsvpMplsRouter -->
<g id="node14" class="node">
<title>RsvpMplsRouter</title>
<g id="a_node14"><a xlink:href="inet.node.mpls.RsvpMplsRouter.html" xlink:title="Compound Module RsvpMplsRouter" target="_parent">
<polygon fill="#fffcaf" stroke="black" points="734,-129 638,-129 638,-110 734,-110 734,-129"/>
<text text-anchor="middle" x="686" y="-117" font-family="Helvetica,sans-Serif" font-size="10.00">RsvpMplsRouter</text>
</a>
</g>
</g>
<!-- RsvpMplsRouter&#45;&gt;Ipv4NetworkLayer -->
<g id="edge13" class="edge">
<title>RsvpMplsRouter&#45;&gt;Ipv4NetworkLayer</title>
<path fill="none" stroke="black" d="M659.01,-109.98C630.8,-101.09 586.36,-87.07 554.92,-77.15"/>
<polygon fill="black" stroke="black" points="555.79,-73.75 545.2,-74.08 553.69,-80.43 555.79,-73.75"/>
</g>
</g>
</svg>
