<?xml version="1.0" encoding="UTF-8" standalone="no"?>
<!DOCTYPE svg PUBLIC "-//W3C//DTD SVG 1.1//EN"
 "http://www.w3.org/Graphics/SVG/1.1/DTD/svg11.dtd">
<!-- Generated by graphviz version 2.43.0 (0)
 -->
<!-- Title: opp Pages: 1 -->
<svg width="352pt" height="82pt"
 viewBox="0.00 0.00 352.00 82.00" xmlns="http://www.w3.org/2000/svg" xmlns:xlink="http://www.w3.org/1999/xlink">
<g id="graph0" class="graph" transform="scale(1 1) rotate(0) translate(4 78)">
<title>opp</title>
<polygon fill="transparent" stroke="transparent" points="-4,4 -4,-78 348,-78 348,4 -4,4"/>
<!-- R37orig -->
<g id="node1" class="node">
<title>R37orig</title>
<g id="a_node1"><a xlink:href="inet.examples.mpls.net37.R37orig.html" xlink:title="Network R37orig" target="_parent">
<polygon fill="#9090ff" stroke="black" points="147,-74 93,-74 93,-55 147,-55 147,-74"/>
<text text-anchor="middle" x="120" y="-62" font-family="Helvetica,sans-Serif" font-size="10.00">R37orig</text>
</a>
</g>
</g>
<!-- line -->
<g id="node2" class="node">
<title>line</title>
<g id="a_node2"><a xlink:href="inet.examples.mpls.net37.R37orig.line.html" xlink:title="Channel line" target="_parent">
<polygon fill="#d0ffd0" stroke="black" points="54,-19 0,-19 0,0 54,0 54,-19"/>
<text text-anchor="middle" x="27" y="-7" font-family="Helvetica,sans-Serif" font-size="10.00">line</text>
</a>
</g>
</g>
<!-- R37orig&#45;&gt;line -->
<g id="edge1" class="edge">
<title>R37orig&#45;&gt;line</title>
<path fill="none" stroke="black" d="M105.06,-54.98C90.5,-46.69 68.13,-33.94 51.07,-24.22"/>
<polygon fill="black" stroke="black" points="52.64,-21.08 42.21,-19.17 49.17,-27.16 52.64,-21.08"/>
</g>
<!-- RsvpMplsRouter -->
<g id="node3" class="node">
<title>RsvpMplsRouter</title>
<g id="a_node3"><a xlink:href="inet.node.mpls.RsvpMplsRouter.html" xlink:title="Compound Module RsvpMplsRouter" target="_parent">
<polygon fill="#fffcaf" stroke="black" points="168,-19 72,-19 72,0 168,0 168,-19"/>
<text text-anchor="middle" x="120" y="-7" font-family="Helvetica,sans-Serif" font-size="10.00">RsvpMplsRouter</text>
</a>
</g>
</g>
<!-- R37orig&#45;&gt;RsvpMplsRouter -->
<g id="edge2" class="edge">
<title>R37orig&#45;&gt;RsvpMplsRouter</title>
<path fill="none" stroke="black" d="M120,-54.75C120,-47.8 120,-37.85 120,-29.13"/>
<polygon fill="black" stroke="black" points="123.5,-29.09 120,-19.09 116.5,-29.09 123.5,-29.09"/>
</g>
<!-- Ipv4FlatNetworkConfigurator -->
<g id="node4" class="node">
<title>Ipv4FlatNetworkConfigurator</title>
<g id="a_node4"><a xlink:href="inet.networklayer.configurator.ipv4.Ipv4FlatNetworkConfigurator.html" xlink:title="Simple Module Ipv4FlatNetworkConfigurator" target="_parent">
<polygon fill="#fffcaf" stroke="black" points="344,-19 186,-19 186,0 344,0 344,-19"/>
<text text-anchor="middle" x="265" y="-7" font-family="Helvetica,sans-Serif" font-size="10.00">Ipv4FlatNetworkConfigurator</text>
</a>
</g>
</g>
<!-- R37orig&#45;&gt;Ipv4FlatNetworkConfigurator -->
<g id="edge3" class="edge">
<title>R37orig&#45;&gt;Ipv4FlatNetworkConfigurator</title>
<path fill="none" stroke="black" d="M143.3,-54.98C167.25,-46.23 204.78,-32.51 231.83,-22.62"/>
<polygon fill="black" stroke="black" points="233.09,-25.89 241.28,-19.17 230.69,-19.32 233.09,-25.89"/>
</g>
</g>
</svg>
