<?xml version="1.0" encoding="UTF-8" standalone="no"?>
<!DOCTYPE svg PUBLIC "-//W3C//DTD SVG 1.1//EN"
 "http://www.w3.org/Graphics/SVG/1.1/DTD/svg11.dtd">
<!-- Generated by graphviz version 2.43.0 (0)
 -->
<!-- Title: opp Pages: 1 -->
<svg width="510pt" height="82pt"
 viewBox="0.00 0.00 510.00 82.00" xmlns="http://www.w3.org/2000/svg" xmlns:xlink="http://www.w3.org/1999/xlink">
<g id="graph0" class="graph" transform="scale(1 1) rotate(0) translate(4 78)">
<title>opp</title>
<polygon fill="transparent" stroke="transparent" points="-4,4 -4,-78 506,-78 506,4 -4,4"/>
<!-- SimpleNetworkLayer -->
<g id="node1" class="node">
<title>SimpleNetworkLayer</title>
<g id="a_node1"><a xlink:href="inet.networklayer.common.SimpleNetworkLayer.html" xlink:title="Compound Module SimpleNetworkLayer" target="_parent">
<polygon fill="#fff700" stroke="black" points="329.5,-74 210.5,-74 210.5,-55 329.5,-55 329.5,-74"/>
<text text-anchor="middle" x="270" y="-62" font-family="Helvetica,sans-Serif" font-size="10.00">SimpleNetworkLayer</text>
</a>
</g>
</g>
<!-- IdealChannel -->
<g id="node2" class="node">
<title>IdealChannel</title>
<g id="a_node2"><a xlink:href="ned.IdealChannel.html" xlink:title="Channel IdealChannel" target="_parent">
<polygon fill="#d0ffd0" stroke="black" points="80,-19 0,-19 0,0 80,0 80,-19"/>
<text text-anchor="middle" x="40" y="-7" font-family="Helvetica,sans-Serif" font-size="10.00">IdealChannel</text>
</a>
</g>
</g>
<!-- SimpleNetworkLayer&#45;&gt;IdealChannel -->
<g id="edge1" class="edge">
<title>SimpleNetworkLayer&#45;&gt;IdealChannel</title>
<path fill="none" stroke="black" d="M233.05,-54.98C193.43,-45.86 130.41,-31.33 87.23,-21.38"/>
<polygon fill="black" stroke="black" points="87.77,-17.92 77.24,-19.08 86.2,-24.74 87.77,-17.92"/>
</g>
<!-- MessageDispatcher -->
<g id="node3" class="node">
<title>MessageDispatcher</title>
<g id="a_node3"><a xlink:href="inet.common.MessageDispatcher.html" xlink:title="Simple Module MessageDispatcher" target="_parent">
<polygon fill="#fffcaf" stroke="black" points="211.5,-19 98.5,-19 98.5,0 211.5,0 211.5,-19"/>
<text text-anchor="middle" x="155" y="-7" font-family="Helvetica,sans-Serif" font-size="10.00">MessageDispatcher</text>
</a>
</g>
</g>
<!-- SimpleNetworkLayer&#45;&gt;MessageDispatcher -->
<g id="edge2" class="edge">
<title>SimpleNetworkLayer&#45;&gt;MessageDispatcher</title>
<path fill="none" stroke="black" d="M251.52,-54.98C233.02,-46.46 204.32,-33.23 183.02,-23.41"/>
<polygon fill="black" stroke="black" points="184.36,-20.18 173.81,-19.17 181.43,-26.53 184.36,-20.18"/>
</g>
<!-- EchoProtocol -->
<g id="node4" class="node">
<title>EchoProtocol</title>
<g id="a_node4"><a xlink:href="inet.networklayer.common.EchoProtocol.html" xlink:title="Simple Module EchoProtocol" target="_parent">
<polygon fill="#fffcaf" stroke="black" points="310,-19 230,-19 230,0 310,0 310,-19"/>
<text text-anchor="middle" x="270" y="-7" font-family="Helvetica,sans-Serif" font-size="10.00">EchoProtocol</text>
</a>
</g>
</g>
<!-- SimpleNetworkLayer&#45;&gt;EchoProtocol -->
<g id="edge3" class="edge">
<title>SimpleNetworkLayer&#45;&gt;EchoProtocol</title>
<path fill="none" stroke="black" d="M270,-54.75C270,-47.8 270,-37.85 270,-29.13"/>
<polygon fill="black" stroke="black" points="273.5,-29.09 270,-19.09 266.5,-29.09 273.5,-29.09"/>
</g>
<!-- INetworkProtocol -->
<g id="node5" class="node">
<title>INetworkProtocol</title>
<g id="a_node5"><a xlink:href="inet.networklayer.contract.INetworkProtocol.html" xlink:title="Module Interface INetworkProtocol" target="_parent">
<polygon fill="#fffcaf" stroke="black" stroke-dasharray="5,2" points="429.5,-19 328.5,-19 328.5,0 429.5,0 429.5,-19"/>
<text text-anchor="middle" x="379" y="-7" font-family="Helvetica,sans-Serif" font-size="10.00">INetworkProtocol</text>
</a>
</g>
</g>
<!-- SimpleNetworkLayer&#45;&gt;INetworkProtocol -->
<g id="edge4" class="edge">
<title>SimpleNetworkLayer&#45;&gt;INetworkProtocol</title>
<path fill="none" stroke="black" d="M287.51,-54.98C304.97,-46.5 332.01,-33.35 352.17,-23.54"/>
<polygon fill="black" stroke="black" points="353.71,-26.69 361.17,-19.17 350.64,-20.4 353.71,-26.69"/>
</g>
<!-- IArp -->
<g id="node6" class="node">
<title>IArp</title>
<g id="a_node6"><a xlink:href="inet.networklayer.contract.IArp.html" xlink:title="Module Interface IArp" target="_parent">
<polygon fill="#fffcaf" stroke="black" stroke-dasharray="5,2" points="502,-19 448,-19 448,0 502,0 502,-19"/>
<text text-anchor="middle" x="475" y="-7" font-family="Helvetica,sans-Serif" font-size="10.00">IArp</text>
</a>
</g>
</g>
<!-- SimpleNetworkLayer&#45;&gt;IArp -->
<g id="edge5" class="edge">
<title>SimpleNetworkLayer&#45;&gt;IArp</title>
<path fill="none" stroke="black" d="M302.94,-54.98C339.82,-45.45 399.46,-30.03 437.94,-20.08"/>
<polygon fill="black" stroke="black" points="438.91,-23.44 447.72,-17.55 437.16,-16.67 438.91,-23.44"/>
</g>
</g>
</svg>
