<?xml version="1.0" encoding="UTF-8" standalone="no"?>
<!DOCTYPE svg PUBLIC "-//W3C//DTD SVG 1.1//EN"
 "http://www.w3.org/Graphics/SVG/1.1/DTD/svg11.dtd">
<!-- Generated by graphviz version 2.43.0 (0)
 -->
<!-- Title: opp Pages: 1 -->
<svg width="1136pt" height="82pt"
 viewBox="0.00 0.00 1136.00 82.00" xmlns="http://www.w3.org/2000/svg" xmlns:xlink="http://www.w3.org/1999/xlink">
<g id="graph0" class="graph" transform="scale(1 1) rotate(0) translate(4 78)">
<title>opp</title>
<polygon fill="transparent" stroke="transparent" points="-4,4 -4,-78 1132,-78 1132,4 -4,4"/>
<!-- NetworkPathRIPShowcase -->
<g id="node1" class="node">
<title>NetworkPathRIPShowcase</title>
<g id="a_node1"><a xlink:href="inet.showcases.visualizer.canvas.networkpathactivity.NetworkPathRIPShowcase.html" xlink:title="Network NetworkPathRIPShowcase" target="_parent">
<polygon fill="#9090ff" stroke="black" points="562.5,-74 418.5,-74 418.5,-55 562.5,-55 562.5,-74"/>
<text text-anchor="middle" x="490.5" y="-62" font-family="Helvetica,sans-Serif" font-size="10.00">NetworkPathRIPShowcase</text>
</a>
</g>
</g>
<!-- ScenarioManager -->
<g id="node2" class="node">
<title>ScenarioManager</title>
<g id="a_node2"><a xlink:href="inet.common.scenario.ScenarioManager.html" xlink:title="Simple Module ScenarioManager" target="_parent">
<polygon fill="#fffcaf" stroke="black" points="101,-19 0,-19 0,0 101,0 101,-19"/>
<text text-anchor="middle" x="50.5" y="-7" font-family="Helvetica,sans-Serif" font-size="10.00">ScenarioManager</text>
</a>
</g>
</g>
<!-- NetworkPathRIPShowcase&#45;&gt;ScenarioManager -->
<g id="edge1" class="edge">
<title>NetworkPathRIPShowcase&#45;&gt;ScenarioManager</title>
<path fill="none" stroke="black" d="M418.45,-55.67C344.03,-47.44 224.25,-33.84 111.23,-19.2"/>
<polygon fill="black" stroke="black" points="111.39,-15.69 101.02,-17.87 110.48,-22.63 111.39,-15.69"/>
</g>
<!-- StandardHost -->
<g id="node3" class="node">
<title>StandardHost</title>
<g id="a_node3"><a xlink:href="inet.node.inet.StandardHost.html" xlink:title="Compound Module StandardHost" target="_parent">
<polygon fill="#fffcaf" stroke="black" points="202,-19 119,-19 119,0 202,0 202,-19"/>
<text text-anchor="middle" x="160.5" y="-7" font-family="Helvetica,sans-Serif" font-size="10.00">StandardHost</text>
</a>
</g>
</g>
<!-- NetworkPathRIPShowcase&#45;&gt;StandardHost -->
<g id="edge2" class="edge">
<title>NetworkPathRIPShowcase&#45;&gt;StandardHost</title>
<path fill="none" stroke="black" d="M435.75,-54.98C381.43,-46.48 295.55,-32.94 212.13,-19.26"/>
<polygon fill="black" stroke="black" points="212.67,-15.8 202.24,-17.63 211.54,-22.7 212.67,-15.8"/>
</g>
<!-- AccessPoint -->
<g id="node4" class="node">
<title>AccessPoint</title>
<g id="a_node4"><a xlink:href="inet.node.wireless.AccessPoint.html" xlink:title="Compound Module AccessPoint" target="_parent">
<polygon fill="#fffcaf" stroke="black" points="295,-19 220,-19 220,0 295,0 295,-19"/>
<text text-anchor="middle" x="257.5" y="-7" font-family="Helvetica,sans-Serif" font-size="10.00">AccessPoint</text>
</a>
</g>
</g>
<!-- NetworkPathRIPShowcase&#45;&gt;AccessPoint -->
<g id="edge3" class="edge">
<title>NetworkPathRIPShowcase&#45;&gt;AccessPoint</title>
<path fill="none" stroke="black" d="M453.06,-54.98C412.85,-45.84 348.82,-31.27 305.06,-21.32"/>
<polygon fill="black" stroke="black" points="305.76,-17.89 295.23,-19.08 304.2,-24.71 305.76,-17.89"/>
</g>
<!-- Router -->
<g id="node5" class="node">
<title>Router</title>
<g id="a_node5"><a xlink:href="inet.node.inet.Router.html" xlink:title="Compound Module Router" target="_parent">
<polygon fill="#fffcaf" stroke="black" points="367.5,-19 313.5,-19 313.5,0 367.5,0 367.5,-19"/>
<text text-anchor="middle" x="340.5" y="-7" font-family="Helvetica,sans-Serif" font-size="10.00">Router</text>
</a>
</g>
</g>
<!-- NetworkPathRIPShowcase&#45;&gt;Router -->
<g id="edge4" class="edge">
<title>NetworkPathRIPShowcase&#45;&gt;Router</title>
<path fill="none" stroke="black" d="M466.4,-54.98C441.62,-46.23 402.8,-32.51 374.81,-22.62"/>
<polygon fill="black" stroke="black" points="375.63,-19.2 365.04,-19.17 373.3,-25.8 375.63,-19.2"/>
</g>
<!-- WirelessHost -->
<g id="node6" class="node">
<title>WirelessHost</title>
<g id="a_node6"><a xlink:href="inet.node.inet.WirelessHost.html" xlink:title="Compound Module WirelessHost" target="_parent">
<polygon fill="#fffcaf" stroke="black" points="467,-19 386,-19 386,0 467,0 467,-19"/>
<text text-anchor="middle" x="426.5" y="-7" font-family="Helvetica,sans-Serif" font-size="10.00">WirelessHost</text>
</a>
</g>
</g>
<!-- NetworkPathRIPShowcase&#45;&gt;WirelessHost -->
<g id="edge5" class="edge">
<title>NetworkPathRIPShowcase&#45;&gt;WirelessHost</title>
<path fill="none" stroke="black" d="M480.22,-54.98C470.66,-47.07 456.22,-35.11 444.72,-25.58"/>
<polygon fill="black" stroke="black" points="446.9,-22.85 436.97,-19.17 442.44,-28.24 446.9,-22.85"/>
</g>
<!-- Ipv4NetworkConfigurator -->
<g id="node7" class="node">
<title>Ipv4NetworkConfigurator</title>
<g id="a_node7"><a xlink:href="inet.networklayer.configurator.ipv4.Ipv4NetworkConfigurator.html" xlink:title="Simple Module Ipv4NetworkConfigurator" target="_parent">
<polygon fill="#fffcaf" stroke="black" points="625.5,-19 485.5,-19 485.5,0 625.5,0 625.5,-19"/>
<text text-anchor="middle" x="555.5" y="-7" font-family="Helvetica,sans-Serif" font-size="10.00">Ipv4NetworkConfigurator</text>
</a>
</g>
</g>
<!-- NetworkPathRIPShowcase&#45;&gt;Ipv4NetworkConfigurator -->
<g id="edge6" class="edge">
<title>NetworkPathRIPShowcase&#45;&gt;Ipv4NetworkConfigurator</title>
<path fill="none" stroke="black" d="M500.94,-54.98C510.65,-47.07 525.32,-35.11 537,-25.58"/>
<polygon fill="black" stroke="black" points="539.33,-28.2 544.87,-19.17 534.9,-22.78 539.33,-28.2"/>
</g>
<!-- IntegratedVisualizer -->
<g id="node8" class="node">
<title>IntegratedVisualizer</title>
<g id="a_node8"><a xlink:href="inet.visualizer.common.IntegratedVisualizer.html" xlink:title="Compound Module IntegratedVisualizer" target="_parent">
<polygon fill="#fffcaf" stroke="black" points="759,-19 644,-19 644,0 759,0 759,-19"/>
<text text-anchor="middle" x="701.5" y="-7" font-family="Helvetica,sans-Serif" font-size="10.00">IntegratedVisualizer</text>
</a>
</g>
</g>
<!-- NetworkPathRIPShowcase&#45;&gt;IntegratedVisualizer -->
<g id="edge7" class="edge">
<title>NetworkPathRIPShowcase&#45;&gt;IntegratedVisualizer</title>
<path fill="none" stroke="black" d="M524.4,-54.98C560.52,-45.91 617.82,-31.52 657.42,-21.57"/>
<polygon fill="black" stroke="black" points="658.49,-24.91 667.33,-19.08 656.78,-18.12 658.49,-24.91"/>
</g>
<!-- Ieee80211ScalarRadioMedium -->
<g id="node9" class="node">
<title>Ieee80211ScalarRadioMedium</title>
<g id="a_node9"><a xlink:href="inet.physicallayer.wireless.ieee80211.packetlevel.Ieee80211ScalarRadioMedium.html" xlink:title="Compound Module Ieee80211ScalarRadioMedium" target="_parent">
<polygon fill="#fffcaf" stroke="black" points="942,-19 777,-19 777,0 942,0 942,-19"/>
<text text-anchor="middle" x="859.5" y="-7" font-family="Helvetica,sans-Serif" font-size="10.00">Ieee80211ScalarRadioMedium</text>
</a>
</g>
</g>
<!-- NetworkPathRIPShowcase&#45;&gt;Ieee80211ScalarRadioMedium -->
<g id="edge8" class="edge">
<title>NetworkPathRIPShowcase&#45;&gt;Ieee80211ScalarRadioMedium</title>
<path fill="none" stroke="black" d="M549.79,-54.98C615.32,-45.57 720.76,-30.43 790.1,-20.47"/>
<polygon fill="black" stroke="black" points="790.65,-23.92 800.06,-19.04 789.66,-17 790.65,-23.92"/>
</g>
<!-- EthernetSwitch -->
<g id="node10" class="node">
<title>EthernetSwitch</title>
<g id="a_node10"><a xlink:href="inet.node.ethernet.EthernetSwitch.html" xlink:title="Compound Module EthernetSwitch" target="_parent">
<polygon fill="#fffcaf" stroke="black" points="1050.5,-19 960.5,-19 960.5,0 1050.5,0 1050.5,-19"/>
<text text-anchor="middle" x="1005.5" y="-7" font-family="Helvetica,sans-Serif" font-size="10.00">EthernetSwitch</text>
</a>
</g>
</g>
<!-- NetworkPathRIPShowcase&#45;&gt;EthernetSwitch -->
<g id="edge9" class="edge">
<title>NetworkPathRIPShowcase&#45;&gt;EthernetSwitch</title>
<path fill="none" stroke="black" d="M562.51,-57.89C651.23,-50.68 806.79,-37.06 950.15,-19.1"/>
<polygon fill="black" stroke="black" points="950.96,-22.52 960.45,-17.8 950.09,-15.58 950.96,-22.52"/>
</g>
<!-- Eth100M -->
<g id="node11" class="node">
<title>Eth100M</title>
<g id="a_node11"><a xlink:href="inet.node.ethernet.Eth100M.html" xlink:title="Channel Eth100M" target="_parent">
<polygon fill="#d0ffd0" stroke="black" points="1128,-19 1069,-19 1069,0 1128,0 1128,-19"/>
<text text-anchor="middle" x="1098.5" y="-7" font-family="Helvetica,sans-Serif" font-size="10.00">Eth100M</text>
</a>
</g>
</g>
<!-- NetworkPathRIPShowcase&#45;&gt;Eth100M -->
<g id="edge10" class="edge">
<title>NetworkPathRIPShowcase&#45;&gt;Eth100M</title>
<path fill="none" stroke="black" d="M562.71,-61.01C669.14,-56.65 874.48,-45.56 1058.62,-18.91"/>
<polygon fill="black" stroke="black" points="1059.38,-22.33 1068.77,-17.42 1058.36,-15.41 1059.38,-22.33"/>
</g>
</g>
</svg>
