<?xml version="1.0" encoding="UTF-8" standalone="no"?>
<!DOCTYPE svg PUBLIC "-//W3C//DTD SVG 1.1//EN"
 "http://www.w3.org/Graphics/SVG/1.1/DTD/svg11.dtd">
<!-- Generated by graphviz version 2.43.0 (0)
 -->
<!-- Title: opp Pages: 1 -->
<svg width="574pt" height="82pt"
 viewBox="0.00 0.00 574.00 82.00" xmlns="http://www.w3.org/2000/svg" xmlns:xlink="http://www.w3.org/1999/xlink">
<g id="graph0" class="graph" transform="scale(1 1) rotate(0) translate(4 78)">
<title>opp</title>
<polygon fill="transparent" stroke="transparent" points="-4,4 -4,-78 570,-78 570,4 -4,4"/>
<!-- ForwardingService -->
<g id="node1" class="node">
<title>ForwardingService</title>
<g id="a_node1"><a xlink:href="inet.protocolelement.service.ForwardingService.html" xlink:title="Compound Module ForwardingService" target="_parent">
<polygon fill="#fff700" stroke="black" points="318.5,-74 211.5,-74 211.5,-55 318.5,-55 318.5,-74"/>
<text text-anchor="middle" x="265" y="-62" font-family="Helvetica,sans-Serif" font-size="10.00">ForwardingService</text>
</a>
</g>
</g>
<!-- IdealChannel -->
<g id="node2" class="node">
<title>IdealChannel</title>
<g id="a_node2"><a xlink:href="ned.IdealChannel.html" xlink:title="Channel IdealChannel" target="_parent">
<polygon fill="#d0ffd0" stroke="black" points="80,-19 0,-19 0,0 80,0 80,-19"/>
<text text-anchor="middle" x="40" y="-7" font-family="Helvetica,sans-Serif" font-size="10.00">IdealChannel</text>
</a>
</g>
</g>
<!-- ForwardingService&#45;&gt;IdealChannel -->
<g id="edge1" class="edge">
<title>ForwardingService&#45;&gt;IdealChannel</title>
<path fill="none" stroke="black" d="M228.85,-54.98C190.09,-45.86 128.45,-31.33 86.2,-21.38"/>
<polygon fill="black" stroke="black" points="86.97,-17.97 76.43,-19.08 85.36,-24.78 86.97,-17.97"/>
</g>
<!-- MessageDispatcher -->
<g id="node3" class="node">
<title>MessageDispatcher</title>
<g id="a_node3"><a xlink:href="inet.common.MessageDispatcher.html" xlink:title="Simple Module MessageDispatcher" target="_parent">
<polygon fill="#fffcaf" stroke="black" points="211.5,-19 98.5,-19 98.5,0 211.5,0 211.5,-19"/>
<text text-anchor="middle" x="155" y="-7" font-family="Helvetica,sans-Serif" font-size="10.00">MessageDispatcher</text>
</a>
</g>
</g>
<!-- ForwardingService&#45;&gt;MessageDispatcher -->
<g id="edge2" class="edge">
<title>ForwardingService&#45;&gt;MessageDispatcher</title>
<path fill="none" stroke="black" d="M247.33,-54.98C229.71,-46.5 202.42,-33.35 182.07,-23.54"/>
<polygon fill="black" stroke="black" points="183.52,-20.36 172.99,-19.17 180.48,-26.66 183.52,-20.36"/>
</g>
<!-- Forwarding -->
<g id="node4" class="node">
<title>Forwarding</title>
<g id="a_node4"><a xlink:href="inet.protocolelement.forwarding.Forwarding.html" xlink:title="Simple Module Forwarding" target="_parent">
<polygon fill="#fffcaf" stroke="black" points="300.5,-19 229.5,-19 229.5,0 300.5,0 300.5,-19"/>
<text text-anchor="middle" x="265" y="-7" font-family="Helvetica,sans-Serif" font-size="10.00">Forwarding</text>
</a>
</g>
</g>
<!-- ForwardingService&#45;&gt;Forwarding -->
<g id="edge3" class="edge">
<title>ForwardingService&#45;&gt;Forwarding</title>
<path fill="none" stroke="black" d="M265,-54.75C265,-47.8 265,-37.85 265,-29.13"/>
<polygon fill="black" stroke="black" points="268.5,-29.09 265,-19.09 261.5,-29.09 268.5,-29.09"/>
</g>
<!-- SendWithHopLimit -->
<g id="node5" class="node">
<title>SendWithHopLimit</title>
<g id="a_node5"><a xlink:href="inet.protocolelement.forwarding.SendWithHopLimit.html" xlink:title="Simple Module SendWithHopLimit" target="_parent">
<polygon fill="#fffcaf" stroke="black" points="425.5,-19 318.5,-19 318.5,0 425.5,0 425.5,-19"/>
<text text-anchor="middle" x="372" y="-7" font-family="Helvetica,sans-Serif" font-size="10.00">SendWithHopLimit</text>
</a>
</g>
</g>
<!-- ForwardingService&#45;&gt;SendWithHopLimit -->
<g id="edge4" class="edge">
<title>ForwardingService&#45;&gt;SendWithHopLimit</title>
<path fill="none" stroke="black" d="M282.19,-54.98C299.25,-46.54 325.63,-33.47 345.4,-23.68"/>
<polygon fill="black" stroke="black" points="347.09,-26.75 354.5,-19.17 343.98,-20.47 347.09,-26.75"/>
</g>
<!-- ReceiveWithHopLimit -->
<g id="node6" class="node">
<title>ReceiveWithHopLimit</title>
<g id="a_node6"><a xlink:href="inet.protocolelement.forwarding.ReceiveWithHopLimit.html" xlink:title="Simple Module ReceiveWithHopLimit" target="_parent">
<polygon fill="#fffcaf" stroke="black" points="566,-19 444,-19 444,0 566,0 566,-19"/>
<text text-anchor="middle" x="505" y="-7" font-family="Helvetica,sans-Serif" font-size="10.00">ReceiveWithHopLimit</text>
</a>
</g>
</g>
<!-- ForwardingService&#45;&gt;ReceiveWithHopLimit -->
<g id="edge5" class="edge">
<title>ForwardingService&#45;&gt;ReceiveWithHopLimit</title>
<path fill="none" stroke="black" d="M303.56,-54.98C345.07,-45.82 411.21,-31.21 456.29,-21.26"/>
<polygon fill="black" stroke="black" points="457.13,-24.66 466.14,-19.08 455.62,-17.82 457.13,-24.66"/>
</g>
</g>
</svg>
