<?xml version="1.0" encoding="UTF-8" standalone="no"?>
<!DOCTYPE svg PUBLIC "-//W3C//DTD SVG 1.1//EN"
 "http://www.w3.org/Graphics/SVG/1.1/DTD/svg11.dtd">
<!-- Generated by graphviz version 2.43.0 (0)
 -->
<!-- Title: opp Pages: 1 -->
<svg width="1104pt" height="82pt"
 viewBox="0.00 0.00 1104.00 82.00" xmlns="http://www.w3.org/2000/svg" xmlns:xlink="http://www.w3.org/1999/xlink">
<g id="graph0" class="graph" transform="scale(1 1) rotate(0) translate(4 78)">
<title>opp</title>
<polygon fill="transparent" stroke="transparent" points="-4,4 -4,-78 1100,-78 1100,4 -4,4"/>
<!-- InterfaceTableVisualizationAdvancedFeaturesShowcase -->
<g id="node1" class="node">
<title>InterfaceTableVisualizationAdvancedFeaturesShowcase</title>
<g id="a_node1"><a xlink:href="inet.showcases.visualizer.canvas.interfacetable.InterfaceTableVisualizationAdvancedFeaturesShowcase.html" xlink:title="Network InterfaceTableVisualizationAdvancedFeaturesShowcase" target="_parent">
<polygon fill="#9090ff" stroke="black" points="653,-74 366,-74 366,-55 653,-55 653,-74"/>
<text text-anchor="middle" x="509.5" y="-62" font-family="Helvetica,sans-Serif" font-size="10.00">InterfaceTableVisualizationAdvancedFeaturesShowcase</text>
</a>
</g>
</g>
<!-- StandardHost -->
<g id="node2" class="node">
<title>StandardHost</title>
<g id="a_node2"><a xlink:href="inet.node.inet.StandardHost.html" xlink:title="Compound Module StandardHost" target="_parent">
<polygon fill="#fffcaf" stroke="black" points="83,-19 0,-19 0,0 83,0 83,-19"/>
<text text-anchor="middle" x="41.5" y="-7" font-family="Helvetica,sans-Serif" font-size="10.00">StandardHost</text>
</a>
</g>
</g>
<!-- InterfaceTableVisualizationAdvancedFeaturesShowcase&#45;&gt;StandardHost -->
<g id="edge1" class="edge">
<title>InterfaceTableVisualizationAdvancedFeaturesShowcase&#45;&gt;StandardHost</title>
<path fill="none" stroke="black" d="M413.42,-54.99C330.96,-47.28 208.73,-34.92 93.29,-19.18"/>
<polygon fill="black" stroke="black" points="93.6,-15.69 83.21,-17.79 92.64,-22.62 93.6,-15.69"/>
</g>
<!-- AccessPoint -->
<g id="node3" class="node">
<title>AccessPoint</title>
<g id="a_node3"><a xlink:href="inet.node.wireless.AccessPoint.html" xlink:title="Compound Module AccessPoint" target="_parent">
<polygon fill="#fffcaf" stroke="black" points="176,-19 101,-19 101,0 176,0 176,-19"/>
<text text-anchor="middle" x="138.5" y="-7" font-family="Helvetica,sans-Serif" font-size="10.00">AccessPoint</text>
</a>
</g>
</g>
<!-- InterfaceTableVisualizationAdvancedFeaturesShowcase&#45;&gt;AccessPoint -->
<g id="edge2" class="edge">
<title>InterfaceTableVisualizationAdvancedFeaturesShowcase&#45;&gt;AccessPoint</title>
<path fill="none" stroke="black" d="M441.11,-54.96C377.69,-46.85 280.46,-33.92 186.18,-19.05"/>
<polygon fill="black" stroke="black" points="186.61,-15.57 176.19,-17.46 185.51,-22.48 186.61,-15.57"/>
</g>
<!-- Router -->
<g id="node4" class="node">
<title>Router</title>
<g id="a_node4"><a xlink:href="inet.node.inet.Router.html" xlink:title="Compound Module Router" target="_parent">
<polygon fill="#fffcaf" stroke="black" points="248.5,-19 194.5,-19 194.5,0 248.5,0 248.5,-19"/>
<text text-anchor="middle" x="221.5" y="-7" font-family="Helvetica,sans-Serif" font-size="10.00">Router</text>
</a>
</g>
</g>
<!-- InterfaceTableVisualizationAdvancedFeaturesShowcase&#45;&gt;Router -->
<g id="edge3" class="edge">
<title>InterfaceTableVisualizationAdvancedFeaturesShowcase&#45;&gt;Router</title>
<path fill="none" stroke="black" d="M455.75,-54.92C406.81,-46.9 332.33,-34.19 258.53,-19.12"/>
<polygon fill="black" stroke="black" points="259.09,-15.66 248.59,-17.07 257.68,-22.52 259.09,-15.66"/>
</g>
<!-- WirelessHost -->
<g id="node5" class="node">
<title>WirelessHost</title>
<g id="a_node5"><a xlink:href="inet.node.inet.WirelessHost.html" xlink:title="Compound Module WirelessHost" target="_parent">
<polygon fill="#fffcaf" stroke="black" points="348,-19 267,-19 267,0 348,0 348,-19"/>
<text text-anchor="middle" x="307.5" y="-7" font-family="Helvetica,sans-Serif" font-size="10.00">WirelessHost</text>
</a>
</g>
</g>
<!-- InterfaceTableVisualizationAdvancedFeaturesShowcase&#45;&gt;WirelessHost -->
<g id="edge4" class="edge">
<title>InterfaceTableVisualizationAdvancedFeaturesShowcase&#45;&gt;WirelessHost</title>
<path fill="none" stroke="black" d="M477.05,-54.98C442.54,-45.93 387.84,-31.58 349.94,-21.64"/>
<polygon fill="black" stroke="black" points="350.77,-18.23 340.21,-19.08 348.99,-25.01 350.77,-18.23"/>
</g>
<!-- Ipv4NetworkConfigurator -->
<g id="node6" class="node">
<title>Ipv4NetworkConfigurator</title>
<g id="a_node6"><a xlink:href="inet.networklayer.configurator.ipv4.Ipv4NetworkConfigurator.html" xlink:title="Simple Module Ipv4NetworkConfigurator" target="_parent">
<polygon fill="#fffcaf" stroke="black" points="506.5,-19 366.5,-19 366.5,0 506.5,0 506.5,-19"/>
<text text-anchor="middle" x="436.5" y="-7" font-family="Helvetica,sans-Serif" font-size="10.00">Ipv4NetworkConfigurator</text>
</a>
</g>
</g>
<!-- InterfaceTableVisualizationAdvancedFeaturesShowcase&#45;&gt;Ipv4NetworkConfigurator -->
<g id="edge5" class="edge">
<title>InterfaceTableVisualizationAdvancedFeaturesShowcase&#45;&gt;Ipv4NetworkConfigurator</title>
<path fill="none" stroke="black" d="M497.77,-54.98C486.77,-47 470.08,-34.88 456.9,-25.31"/>
<polygon fill="black" stroke="black" points="458.59,-22.21 448.44,-19.17 454.48,-27.88 458.59,-22.21"/>
</g>
<!-- IntegratedVisualizer -->
<g id="node7" class="node">
<title>IntegratedVisualizer</title>
<g id="a_node7"><a xlink:href="inet.visualizer.common.IntegratedVisualizer.html" xlink:title="Compound Module IntegratedVisualizer" target="_parent">
<polygon fill="#fffcaf" stroke="black" points="640,-19 525,-19 525,0 640,0 640,-19"/>
<text text-anchor="middle" x="582.5" y="-7" font-family="Helvetica,sans-Serif" font-size="10.00">IntegratedVisualizer</text>
</a>
</g>
</g>
<!-- InterfaceTableVisualizationAdvancedFeaturesShowcase&#45;&gt;IntegratedVisualizer -->
<g id="edge6" class="edge">
<title>InterfaceTableVisualizationAdvancedFeaturesShowcase&#45;&gt;IntegratedVisualizer</title>
<path fill="none" stroke="black" d="M521.23,-54.98C532.23,-47 548.92,-34.88 562.1,-25.31"/>
<polygon fill="black" stroke="black" points="564.52,-27.88 570.56,-19.17 560.41,-22.21 564.52,-27.88"/>
</g>
<!-- AdhocHost -->
<g id="node8" class="node">
<title>AdhocHost</title>
<g id="a_node8"><a xlink:href="inet.node.inet.AdhocHost.html" xlink:title="Compound Module AdhocHost" target="_parent">
<polygon fill="#fffcaf" stroke="black" points="727,-19 658,-19 658,0 727,0 727,-19"/>
<text text-anchor="middle" x="692.5" y="-7" font-family="Helvetica,sans-Serif" font-size="10.00">AdhocHost</text>
</a>
</g>
</g>
<!-- InterfaceTableVisualizationAdvancedFeaturesShowcase&#45;&gt;AdhocHost -->
<g id="edge7" class="edge">
<title>InterfaceTableVisualizationAdvancedFeaturesShowcase&#45;&gt;AdhocHost</title>
<path fill="none" stroke="black" d="M538.9,-54.98C569.89,-46.01 618.88,-31.82 653.17,-21.89"/>
<polygon fill="black" stroke="black" points="654.24,-25.23 662.87,-19.08 652.29,-18.5 654.24,-25.23"/>
</g>
<!-- Ieee80211ScalarRadioMedium -->
<g id="node9" class="node">
<title>Ieee80211ScalarRadioMedium</title>
<g id="a_node9"><a xlink:href="inet.physicallayer.wireless.ieee80211.packetlevel.Ieee80211ScalarRadioMedium.html" xlink:title="Compound Module Ieee80211ScalarRadioMedium" target="_parent">
<polygon fill="#fffcaf" stroke="black" points="910,-19 745,-19 745,0 910,0 910,-19"/>
<text text-anchor="middle" x="827.5" y="-7" font-family="Helvetica,sans-Serif" font-size="10.00">Ieee80211ScalarRadioMedium</text>
</a>
</g>
</g>
<!-- InterfaceTableVisualizationAdvancedFeaturesShowcase&#45;&gt;Ieee80211ScalarRadioMedium -->
<g id="edge8" class="edge">
<title>InterfaceTableVisualizationAdvancedFeaturesShowcase&#45;&gt;Ieee80211ScalarRadioMedium</title>
<path fill="none" stroke="black" d="M560.59,-54.98C616.61,-45.65 706.45,-30.67 766.21,-20.71"/>
<polygon fill="black" stroke="black" points="766.98,-24.13 776.27,-19.04 765.83,-17.23 766.98,-24.13"/>
</g>
<!-- EthernetSwitch -->
<g id="node10" class="node">
<title>EthernetSwitch</title>
<g id="a_node10"><a xlink:href="inet.node.ethernet.EthernetSwitch.html" xlink:title="Compound Module EthernetSwitch" target="_parent">
<polygon fill="#fffcaf" stroke="black" points="1018.5,-19 928.5,-19 928.5,0 1018.5,0 1018.5,-19"/>
<text text-anchor="middle" x="973.5" y="-7" font-family="Helvetica,sans-Serif" font-size="10.00">EthernetSwitch</text>
</a>
</g>
</g>
<!-- InterfaceTableVisualizationAdvancedFeaturesShowcase&#45;&gt;EthernetSwitch -->
<g id="edge9" class="edge">
<title>InterfaceTableVisualizationAdvancedFeaturesShowcase&#45;&gt;EthernetSwitch</title>
<path fill="none" stroke="black" d="M599.63,-54.97C680.45,-47.04 802.52,-34.34 918.33,-19.1"/>
<polygon fill="black" stroke="black" points="918.99,-22.54 928.44,-17.76 918.07,-15.6 918.99,-22.54"/>
</g>
<!-- Eth100M -->
<g id="node11" class="node">
<title>Eth100M</title>
<g id="a_node11"><a xlink:href="inet.node.ethernet.Eth100M.html" xlink:title="Channel Eth100M" target="_parent">
<polygon fill="#d0ffd0" stroke="black" points="1096,-19 1037,-19 1037,0 1096,0 1096,-19"/>
<text text-anchor="middle" x="1066.5" y="-7" font-family="Helvetica,sans-Serif" font-size="10.00">Eth100M</text>
</a>
</g>
</g>
<!-- InterfaceTableVisualizationAdvancedFeaturesShowcase&#45;&gt;Eth100M -->
<g id="edge10" class="edge">
<title>InterfaceTableVisualizationAdvancedFeaturesShowcase&#45;&gt;Eth100M</title>
<path fill="none" stroke="black" d="M653.28,-56.14C755.01,-49.74 894.76,-38.58 1026.86,-18.89"/>
<polygon fill="black" stroke="black" points="1027.4,-22.35 1036.76,-17.39 1026.35,-15.43 1027.4,-22.35"/>
</g>
</g>
</svg>
