<?xml version="1.0" encoding="UTF-8" standalone="no"?>
<!DOCTYPE svg PUBLIC "-//W3C//DTD SVG 1.1//EN"
 "http://www.w3.org/Graphics/SVG/1.1/DTD/svg11.dtd">
<!-- Generated by graphviz version 2.43.0 (0)
 -->
<!-- Title: opp Pages: 1 -->
<svg width="216pt" height="82pt"
 viewBox="0.00 0.00 216.00 82.00" xmlns="http://www.w3.org/2000/svg" xmlns:xlink="http://www.w3.org/1999/xlink">
<g id="graph0" class="graph" transform="scale(1 1) rotate(0) translate(4 78)">
<title>opp</title>
<polygon fill="transparent" stroke="transparent" points="-4,4 -4,-78 212,-78 212,4 -4,4"/>
<!-- ConstantDriftOscillator -->
<g id="node1" class="node">
<title>ConstantDriftOscillator</title>
<g id="a_node1"><a xlink:href="inet.clock.oscillator.ConstantDriftOscillator.html" xlink:title="Simple Module ConstantDriftOscillator" target="_parent">
<polygon fill="#fff700" stroke="black" points="182,-19 54,-19 54,0 182,0 182,-19"/>
<text text-anchor="middle" x="118" y="-7" font-family="Helvetica,sans-Serif" font-size="10.00">ConstantDriftOscillator</text>
</a>
</g>
</g>
<!-- DriftingOscillatorBase -->
<g id="node2" class="node">
<title>DriftingOscillatorBase</title>
<g id="a_node2"><a xlink:href="inet.clock.base.DriftingOscillatorBase.html" xlink:title="Simple Module DriftingOscillatorBase" target="_parent">
<polygon fill="#fffcaf" stroke="black" points="124,-74 0,-74 0,-55 124,-55 124,-74"/>
<text text-anchor="middle" x="62" y="-62" font-family="Helvetica,sans-Serif" font-size="10.00">DriftingOscillatorBase</text>
</a>
</g>
</g>
<!-- DriftingOscillatorBase&#45;&gt;ConstantDriftOscillator -->
<g id="edge1" class="edge">
<title>DriftingOscillatorBase&#45;&gt;ConstantDriftOscillator</title>
<path fill="none" stroke="black" d="M71,-54.98C81.39,-45.15 98.38,-29.07 108.84,-19.17"/>
</g>
<!-- IOscillator -->
<g id="node3" class="node">
<title>IOscillator</title>
<g id="a_node3"><a xlink:href="inet.clock.contract.IOscillator.html" xlink:title="Module Interface IOscillator" target="_parent">
<polygon fill="#fffcaf" stroke="black" stroke-dasharray="5,2" points="208,-74 142,-74 142,-55 208,-55 208,-74"/>
<text text-anchor="middle" x="175" y="-62" font-family="Helvetica,sans-Serif" font-size="10.00">IOscillator</text>
</a>
</g>
</g>
<!-- IOscillator&#45;&gt;ConstantDriftOscillator -->
<g id="edge2" class="edge">
<title>IOscillator&#45;&gt;ConstantDriftOscillator</title>
<path fill="none" stroke="black" stroke-dasharray="5,2" d="M165.84,-54.98C155.27,-45.15 137.97,-29.07 127.32,-19.17"/>
</g>
</g>
</svg>
