<?xml version="1.0" encoding="UTF-8" standalone="no"?>
<!DOCTYPE svg PUBLIC "-//W3C//DTD SVG 1.1//EN"
 "http://www.w3.org/Graphics/SVG/1.1/DTD/svg11.dtd">
<!-- Generated by graphviz version 2.43.0 (0)
 -->
<!-- Title: opp Pages: 1 -->
<svg width="538pt" height="137pt"
 viewBox="0.00 0.00 537.50 137.00" xmlns="http://www.w3.org/2000/svg" xmlns:xlink="http://www.w3.org/1999/xlink">
<g id="graph0" class="graph" transform="scale(1 1) rotate(0) translate(4 133)">
<title>opp</title>
<polygon fill="transparent" stroke="transparent" points="-4,4 -4,-133 533.5,-133 533.5,4 -4,4"/>
<!-- TreeVisualizerBase -->
<g id="node1" class="node">
<title>TreeVisualizerBase</title>
<g id="a_node1"><a xlink:href="inet.visualizer.base.TreeVisualizerBase.html" xlink:title="Simple Module TreeVisualizerBase" target="_parent">
<polygon fill="#fff700" stroke="black" points="316,-74 207,-74 207,-55 316,-55 316,-74"/>
<text text-anchor="middle" x="261.5" y="-62" font-family="Helvetica,sans-Serif" font-size="10.00">TreeVisualizerBase</text>
</a>
</g>
</g>
<!-- FailureProtectionConfigurationCanvasVisualizer -->
<g id="node3" class="node">
<title>FailureProtectionConfigurationCanvasVisualizer</title>
<g id="a_node3"><a xlink:href="inet.visualizer.canvas.configurator.FailureProtectionConfigurationCanvasVisualizer.html" xlink:title="Simple Module FailureProtectionConfigurationCanvasVisualizer" target="_parent">
<polygon fill="#fffcaf" stroke="black" points="249,-19 0,-19 0,0 249,0 249,-19"/>
<text text-anchor="middle" x="124.5" y="-7" font-family="Helvetica,sans-Serif" font-size="10.00">FailureProtectionConfigurationCanvasVisualizer</text>
</a>
</g>
</g>
<!-- TreeVisualizerBase&#45;&gt;FailureProtectionConfigurationCanvasVisualizer -->
<g id="edge2" class="edge">
<title>TreeVisualizerBase&#45;&gt;FailureProtectionConfigurationCanvasVisualizer</title>
<path fill="none" stroke="black" d="M239.49,-54.98C214.07,-45.15 172.49,-29.07 146.91,-19.17"/>
</g>
<!-- StreamRedundancyConfigurationCanvasVisualizer -->
<g id="node4" class="node">
<title>StreamRedundancyConfigurationCanvasVisualizer</title>
<g id="a_node4"><a xlink:href="inet.visualizer.canvas.configurator.StreamRedundancyConfigurationCanvasVisualizer.html" xlink:title="Simple Module StreamRedundancyConfigurationCanvasVisualizer" target="_parent">
<polygon fill="#fffcaf" stroke="black" points="529.5,-19 267.5,-19 267.5,0 529.5,0 529.5,-19"/>
<text text-anchor="middle" x="398.5" y="-7" font-family="Helvetica,sans-Serif" font-size="10.00">StreamRedundancyConfigurationCanvasVisualizer</text>
</a>
</g>
</g>
<!-- TreeVisualizerBase&#45;&gt;StreamRedundancyConfigurationCanvasVisualizer -->
<g id="edge3" class="edge">
<title>TreeVisualizerBase&#45;&gt;StreamRedundancyConfigurationCanvasVisualizer</title>
<path fill="none" stroke="black" d="M283.51,-54.98C308.93,-45.15 350.51,-29.07 376.09,-19.17"/>
</g>
<!-- VisualizerBase -->
<g id="node2" class="node">
<title>VisualizerBase</title>
<g id="a_node2"><a xlink:href="inet.visualizer.base.VisualizerBase.html" xlink:title="Simple Module VisualizerBase" target="_parent">
<polygon fill="#fffcaf" stroke="black" points="306,-129 217,-129 217,-110 306,-110 306,-129"/>
<text text-anchor="middle" x="261.5" y="-117" font-family="Helvetica,sans-Serif" font-size="10.00">VisualizerBase</text>
</a>
</g>
</g>
<!-- VisualizerBase&#45;&gt;TreeVisualizerBase -->
<g id="edge1" class="edge">
<title>VisualizerBase&#45;&gt;TreeVisualizerBase</title>
<path fill="none" stroke="black" d="M261.5,-109.75C261.5,-99.87 261.5,-83.9 261.5,-74.09"/>
</g>
</g>
</svg>
