<?xml version="1.0" encoding="UTF-8" standalone="no"?>
<!DOCTYPE svg PUBLIC "-//W3C//DTD SVG 1.1//EN"
 "http://www.w3.org/Graphics/SVG/1.1/DTD/svg11.dtd">
<!-- Generated by graphviz version 2.43.0 (0)
 -->
<!-- Title: opp Pages: 1 -->
<svg width="666pt" height="82pt"
 viewBox="0.00 0.00 666.00 82.00" xmlns="http://www.w3.org/2000/svg" xmlns:xlink="http://www.w3.org/1999/xlink">
<g id="graph0" class="graph" transform="scale(1 1) rotate(0) translate(4 78)">
<title>opp</title>
<polygon fill="transparent" stroke="transparent" points="-4,4 -4,-78 662,-78 662,4 -4,4"/>
<!-- OSPF_RFC2328_Fig6 -->
<g id="node1" class="node">
<title>OSPF_RFC2328_Fig6</title>
<g id="a_node1"><a xlink:href="inet.examples.ospfv2.fulltest.OSPF_RFC2328_Fig6.html" xlink:title="Network OSPF_RFC2328_Fig6" target="_parent">
<polygon fill="#9090ff" stroke="black" points="352,-74 236,-74 236,-55 352,-55 352,-74"/>
<text text-anchor="middle" x="294" y="-62" font-family="Helvetica,sans-Serif" font-size="10.00">OSPF_RFC2328_Fig6</text>
</a>
</g>
</g>
<!-- C -->
<g id="node2" class="node">
<title>C</title>
<g id="a_node2"><a xlink:href="inet.examples.ospfv2.fulltest.C.html" xlink:title="Channel C" target="_parent">
<polygon fill="#d0ffd0" stroke="black" points="54,-19 0,-19 0,0 54,0 54,-19"/>
<text text-anchor="middle" x="27" y="-7" font-family="Helvetica,sans-Serif" font-size="10.00">C</text>
</a>
</g>
</g>
<!-- OSPF_RFC2328_Fig6&#45;&gt;C -->
<g id="edge1" class="edge">
<title>OSPF_RFC2328_Fig6&#45;&gt;C</title>
<path fill="none" stroke="black" d="M246.55,-54.95C201.96,-46.79 133.13,-33.85 64.26,-19.2"/>
<polygon fill="black" stroke="black" points="64.61,-15.7 54.1,-17.03 63.15,-22.54 64.61,-15.7"/>
</g>
<!-- OSPF_Area2 -->
<g id="node3" class="node">
<title>OSPF_Area2</title>
<g id="a_node3"><a xlink:href="inet.examples.ospfv2.fulltest.OSPF_Area2.html" xlink:title="Compound Module OSPF_Area2" target="_parent">
<polygon fill="#fffcaf" stroke="black" points="148,-19 72,-19 72,0 148,0 148,-19"/>
<text text-anchor="middle" x="110" y="-7" font-family="Helvetica,sans-Serif" font-size="10.00">OSPF_Area2</text>
</a>
</g>
</g>
<!-- OSPF_RFC2328_Fig6&#45;&gt;OSPF_Area2 -->
<g id="edge2" class="edge">
<title>OSPF_RFC2328_Fig6&#45;&gt;OSPF_Area2</title>
<path fill="none" stroke="black" d="M264.44,-54.98C233.28,-46.01 184.03,-31.82 149.54,-21.89"/>
<polygon fill="black" stroke="black" points="150.37,-18.49 139.79,-19.08 148.43,-25.21 150.37,-18.49"/>
</g>
<!-- OspfRouter -->
<g id="node4" class="node">
<title>OspfRouter</title>
<g id="a_node4"><a xlink:href="inet.node.ospfv2.OspfRouter.html" xlink:title="Compound Module OspfRouter" target="_parent">
<polygon fill="#fffcaf" stroke="black" points="237.5,-19 166.5,-19 166.5,0 237.5,0 237.5,-19"/>
<text text-anchor="middle" x="202" y="-7" font-family="Helvetica,sans-Serif" font-size="10.00">OspfRouter</text>
</a>
</g>
</g>
<!-- OSPF_RFC2328_Fig6&#45;&gt;OspfRouter -->
<g id="edge3" class="edge">
<title>OSPF_RFC2328_Fig6&#45;&gt;OspfRouter</title>
<path fill="none" stroke="black" d="M279.22,-54.98C264.82,-46.69 242.69,-33.94 225.81,-24.22"/>
<polygon fill="black" stroke="black" points="227.46,-21.13 217.05,-19.17 223.97,-27.19 227.46,-21.13"/>
</g>
<!-- OSPF_Area3 -->
<g id="node5" class="node">
<title>OSPF_Area3</title>
<g id="a_node5"><a xlink:href="inet.examples.ospfv2.fulltest.OSPF_Area3.html" xlink:title="Compound Module OSPF_Area3" target="_parent">
<polygon fill="#fffcaf" stroke="black" points="332,-19 256,-19 256,0 332,0 332,-19"/>
<text text-anchor="middle" x="294" y="-7" font-family="Helvetica,sans-Serif" font-size="10.00">OSPF_Area3</text>
</a>
</g>
</g>
<!-- OSPF_RFC2328_Fig6&#45;&gt;OSPF_Area3 -->
<g id="edge4" class="edge">
<title>OSPF_RFC2328_Fig6&#45;&gt;OSPF_Area3</title>
<path fill="none" stroke="black" d="M294,-54.75C294,-47.8 294,-37.85 294,-29.13"/>
<polygon fill="black" stroke="black" points="297.5,-29.09 294,-19.09 290.5,-29.09 297.5,-29.09"/>
</g>
<!-- Ipv4NetworkConfigurator -->
<g id="node6" class="node">
<title>Ipv4NetworkConfigurator</title>
<g id="a_node6"><a xlink:href="inet.networklayer.configurator.ipv4.Ipv4NetworkConfigurator.html" xlink:title="Simple Module Ipv4NetworkConfigurator" target="_parent">
<polygon fill="#fffcaf" stroke="black" points="490,-19 350,-19 350,0 490,0 490,-19"/>
<text text-anchor="middle" x="420" y="-7" font-family="Helvetica,sans-Serif" font-size="10.00">Ipv4NetworkConfigurator</text>
</a>
</g>
</g>
<!-- OSPF_RFC2328_Fig6&#45;&gt;Ipv4NetworkConfigurator -->
<g id="edge5" class="edge">
<title>OSPF_RFC2328_Fig6&#45;&gt;Ipv4NetworkConfigurator</title>
<path fill="none" stroke="black" d="M314.24,-54.98C334.7,-46.38 366.53,-32.99 389.93,-23.15"/>
<polygon fill="black" stroke="black" points="391.53,-26.27 399.39,-19.17 388.81,-19.82 391.53,-26.27"/>
</g>
<!-- OSPF_Area1 -->
<g id="node7" class="node">
<title>OSPF_Area1</title>
<g id="a_node7"><a xlink:href="inet.examples.ospfv2.fulltest.OSPF_Area1.html" xlink:title="Compound Module OSPF_Area1" target="_parent">
<polygon fill="#fffcaf" stroke="black" points="584,-19 508,-19 508,0 584,0 584,-19"/>
<text text-anchor="middle" x="546" y="-7" font-family="Helvetica,sans-Serif" font-size="10.00">OSPF_Area1</text>
</a>
</g>
</g>
<!-- OSPF_RFC2328_Fig6&#45;&gt;OSPF_Area1 -->
<g id="edge6" class="edge">
<title>OSPF_RFC2328_Fig6&#45;&gt;OSPF_Area1</title>
<path fill="none" stroke="black" d="M334.49,-54.98C378.95,-45.63 450.3,-30.63 497.66,-20.67"/>
<polygon fill="black" stroke="black" points="498.61,-24.04 507.68,-18.56 497.17,-17.19 498.61,-24.04"/>
</g>
<!-- OspfLan -->
<g id="node8" class="node">
<title>OspfLan</title>
<g id="a_node8"><a xlink:href="inet.examples.ospfv2.fulltest.OspfLan.html" xlink:title="Compound Module OspfLan" target="_parent">
<polygon fill="#fffcaf" stroke="black" points="658,-19 602,-19 602,0 658,0 658,-19"/>
<text text-anchor="middle" x="630" y="-7" font-family="Helvetica,sans-Serif" font-size="10.00">OspfLan</text>
</a>
</g>
</g>
<!-- OSPF_RFC2328_Fig6&#45;&gt;OspfLan -->
<g id="edge7" class="edge">
<title>OSPF_RFC2328_Fig6&#45;&gt;OspfLan</title>
<path fill="none" stroke="black" d="M352.1,-56.22C410.33,-48.62 502.74,-35.71 591.77,-19.11"/>
<polygon fill="black" stroke="black" points="592.59,-22.52 601.77,-17.23 591.29,-15.64 592.59,-22.52"/>
</g>
</g>
</svg>
