<?xml version="1.0" encoding="UTF-8" standalone="no"?>
<!DOCTYPE svg PUBLIC "-//W3C//DTD SVG 1.1//EN"
 "http://www.w3.org/Graphics/SVG/1.1/DTD/svg11.dtd">
<!-- Generated by graphviz version 2.43.0 (0)
 -->
<!-- Title: opp Pages: 1 -->
<svg width="516pt" height="82pt"
 viewBox="0.00 0.00 515.50 82.00" xmlns="http://www.w3.org/2000/svg" xmlns:xlink="http://www.w3.org/1999/xlink">
<g id="graph0" class="graph" transform="scale(1 1) rotate(0) translate(4 78)">
<title>opp</title>
<polygon fill="transparent" stroke="transparent" points="-4,4 -4,-78 511.5,-78 511.5,4 -4,4"/>
<!-- EthernetQosRedQueue -->
<g id="node1" class="node">
<title>EthernetQosRedQueue</title>
<g id="a_node1"><a xlink:href="inet.linklayer.ethernet.common.EthernetQosRedQueue.html" xlink:title="Compound Module EthernetQosRedQueue" target="_parent">
<polygon fill="#fff700" stroke="black" points="328.5,-74 201.5,-74 201.5,-55 328.5,-55 328.5,-74"/>
<text text-anchor="middle" x="265" y="-62" font-family="Helvetica,sans-Serif" font-size="10.00">EthernetQosRedQueue</text>
</a>
</g>
</g>
<!-- IPacketScheduler -->
<g id="node2" class="node">
<title>IPacketScheduler</title>
<g id="a_node2"><a xlink:href="inet.queueing.contract.IPacketScheduler.html" xlink:title="Module Interface IPacketScheduler" target="_parent">
<polygon fill="#fffcaf" stroke="black" stroke-dasharray="5,2" points="100,-19 0,-19 0,0 100,0 100,-19"/>
<text text-anchor="middle" x="50" y="-7" font-family="Helvetica,sans-Serif" font-size="10.00">IPacketScheduler</text>
</a>
</g>
</g>
<!-- EthernetQosRedQueue&#45;&gt;IPacketScheduler -->
<g id="edge1" class="edge">
<title>EthernetQosRedQueue&#45;&gt;IPacketScheduler</title>
<path fill="none" stroke="black" d="M230.46,-54.98C193.58,-45.89 135.01,-31.46 94.66,-21.51"/>
<polygon fill="black" stroke="black" points="95.36,-18.08 84.81,-19.08 93.69,-24.87 95.36,-18.08"/>
</g>
<!-- IdealChannel -->
<g id="node3" class="node">
<title>IdealChannel</title>
<g id="a_node3"><a xlink:href="ned.IdealChannel.html" xlink:title="Channel IdealChannel" target="_parent">
<polygon fill="#d0ffd0" stroke="black" points="198,-19 118,-19 118,0 198,0 198,-19"/>
<text text-anchor="middle" x="158" y="-7" font-family="Helvetica,sans-Serif" font-size="10.00">IdealChannel</text>
</a>
</g>
</g>
<!-- EthernetQosRedQueue&#45;&gt;IdealChannel -->
<g id="edge2" class="edge">
<title>EthernetQosRedQueue&#45;&gt;IdealChannel</title>
<path fill="none" stroke="black" d="M247.81,-54.98C230.75,-46.54 204.37,-33.47 184.6,-23.68"/>
<polygon fill="black" stroke="black" points="186.02,-20.47 175.5,-19.17 182.91,-26.75 186.02,-20.47"/>
</g>
<!-- IPacketClassifier -->
<g id="node4" class="node">
<title>IPacketClassifier</title>
<g id="a_node4"><a xlink:href="inet.queueing.contract.IPacketClassifier.html" xlink:title="Module Interface IPacketClassifier" target="_parent">
<polygon fill="#fffcaf" stroke="black" stroke-dasharray="5,2" points="314,-19 216,-19 216,0 314,0 314,-19"/>
<text text-anchor="middle" x="265" y="-7" font-family="Helvetica,sans-Serif" font-size="10.00">IPacketClassifier</text>
</a>
</g>
</g>
<!-- EthernetQosRedQueue&#45;&gt;IPacketClassifier -->
<g id="edge3" class="edge">
<title>EthernetQosRedQueue&#45;&gt;IPacketClassifier</title>
<path fill="none" stroke="black" d="M265,-54.75C265,-47.8 265,-37.85 265,-29.13"/>
<polygon fill="black" stroke="black" points="268.5,-29.09 265,-19.09 261.5,-29.09 268.5,-29.09"/>
</g>
<!-- RedDropper -->
<g id="node5" class="node">
<title>RedDropper</title>
<g id="a_node5"><a xlink:href="inet.queueing.filter.RedDropper.html" xlink:title="Simple Module RedDropper" target="_parent">
<polygon fill="#fffcaf" stroke="black" points="406,-19 332,-19 332,0 406,0 406,-19"/>
<text text-anchor="middle" x="369" y="-7" font-family="Helvetica,sans-Serif" font-size="10.00">RedDropper</text>
</a>
</g>
</g>
<!-- EthernetQosRedQueue&#45;&gt;RedDropper -->
<g id="edge4" class="edge">
<title>EthernetQosRedQueue&#45;&gt;RedDropper</title>
<path fill="none" stroke="black" d="M281.71,-54.98C298.21,-46.57 323.7,-33.59 342.88,-23.81"/>
<polygon fill="black" stroke="black" points="344.67,-26.83 351.99,-19.17 341.49,-20.59 344.67,-26.83"/>
</g>
<!-- IPacketQueue -->
<g id="node6" class="node">
<title>IPacketQueue</title>
<g id="a_node6"><a xlink:href="inet.queueing.contract.IPacketQueue.html" xlink:title="Module Interface IPacketQueue" target="_parent">
<polygon fill="#fffcaf" stroke="black" stroke-dasharray="5,2" points="507.5,-19 424.5,-19 424.5,0 507.5,0 507.5,-19"/>
<text text-anchor="middle" x="466" y="-7" font-family="Helvetica,sans-Serif" font-size="10.00">IPacketQueue</text>
</a>
</g>
</g>
<!-- EthernetQosRedQueue&#45;&gt;IPacketQueue -->
<g id="edge5" class="edge">
<title>EthernetQosRedQueue&#45;&gt;IPacketQueue</title>
<path fill="none" stroke="black" d="M297.29,-54.98C331.62,-45.93 386.06,-31.58 423.77,-21.64"/>
<polygon fill="black" stroke="black" points="424.68,-25.02 433.45,-19.08 422.89,-18.25 424.68,-25.02"/>
</g>
</g>
</svg>
