<?xml version="1.0" encoding="UTF-8" standalone="no"?>
<!DOCTYPE svg PUBLIC "-//W3C//DTD SVG 1.1//EN"
 "http://www.w3.org/Graphics/SVG/1.1/DTD/svg11.dtd">
<!-- Generated by graphviz version 2.43.0 (0)
 -->
<!-- Title: opp Pages: 1 -->
<svg width="794pt" height="82pt"
 viewBox="0.00 0.00 794.00 82.00" xmlns="http://www.w3.org/2000/svg" xmlns:xlink="http://www.w3.org/1999/xlink">
<g id="graph0" class="graph" transform="scale(1 1) rotate(0) translate(4 78)">
<title>opp</title>
<polygon fill="transparent" stroke="transparent" points="-4,4 -4,-78 790,-78 790,4 -4,4"/>
<!-- Ieee80211VisualizationSignalLevelsShowcase -->
<g id="node1" class="node">
<title>Ieee80211VisualizationSignalLevelsShowcase</title>
<g id="a_node1"><a xlink:href="inet.showcases.visualizer.canvas.ieee80211.Ieee80211VisualizationSignalLevelsShowcase.html" xlink:title="Network Ieee80211VisualizationSignalLevelsShowcase" target="_parent">
<polygon fill="#9090ff" stroke="black" points="455,-74 214,-74 214,-55 455,-55 455,-74"/>
<text text-anchor="middle" x="334.5" y="-62" font-family="Helvetica,sans-Serif" font-size="10.00">Ieee80211VisualizationSignalLevelsShowcase</text>
</a>
</g>
</g>
<!-- AccessPoint -->
<g id="node2" class="node">
<title>AccessPoint</title>
<g id="a_node2"><a xlink:href="inet.node.wireless.AccessPoint.html" xlink:title="Compound Module AccessPoint" target="_parent">
<polygon fill="#fffcaf" stroke="black" points="75,-19 0,-19 0,0 75,0 75,-19"/>
<text text-anchor="middle" x="37.5" y="-7" font-family="Helvetica,sans-Serif" font-size="10.00">AccessPoint</text>
</a>
</g>
</g>
<!-- Ieee80211VisualizationSignalLevelsShowcase&#45;&gt;AccessPoint -->
<g id="edge1" class="edge">
<title>Ieee80211VisualizationSignalLevelsShowcase&#45;&gt;AccessPoint</title>
<path fill="none" stroke="black" d="M285.89,-54.99C237.49,-46.49 160.78,-32.96 85.31,-19.32"/>
<polygon fill="black" stroke="black" points="85.61,-15.82 75.15,-17.48 84.37,-22.7 85.61,-15.82"/>
</g>
<!-- PhysicalEnvironment -->
<g id="node3" class="node">
<title>PhysicalEnvironment</title>
<g id="a_node3"><a xlink:href="inet.environment.common.PhysicalEnvironment.html" xlink:title="Compound Module PhysicalEnvironment" target="_parent">
<polygon fill="#fffcaf" stroke="black" points="212,-19 93,-19 93,0 212,0 212,-19"/>
<text text-anchor="middle" x="152.5" y="-7" font-family="Helvetica,sans-Serif" font-size="10.00">PhysicalEnvironment</text>
</a>
</g>
</g>
<!-- Ieee80211VisualizationSignalLevelsShowcase&#45;&gt;PhysicalEnvironment -->
<g id="edge2" class="edge">
<title>Ieee80211VisualizationSignalLevelsShowcase&#45;&gt;PhysicalEnvironment</title>
<path fill="none" stroke="black" d="M305.26,-54.98C274.44,-46.01 225.72,-31.82 191.61,-21.89"/>
<polygon fill="black" stroke="black" points="192.55,-18.52 181.97,-19.08 190.59,-25.24 192.55,-18.52"/>
</g>
<!-- WirelessHost -->
<g id="node4" class="node">
<title>WirelessHost</title>
<g id="a_node4"><a xlink:href="inet.node.inet.WirelessHost.html" xlink:title="Compound Module WirelessHost" target="_parent">
<polygon fill="#fffcaf" stroke="black" points="311,-19 230,-19 230,0 311,0 311,-19"/>
<text text-anchor="middle" x="270.5" y="-7" font-family="Helvetica,sans-Serif" font-size="10.00">WirelessHost</text>
</a>
</g>
</g>
<!-- Ieee80211VisualizationSignalLevelsShowcase&#45;&gt;WirelessHost -->
<g id="edge3" class="edge">
<title>Ieee80211VisualizationSignalLevelsShowcase&#45;&gt;WirelessHost</title>
<path fill="none" stroke="black" d="M324.22,-54.98C314.66,-47.07 300.22,-35.11 288.72,-25.58"/>
<polygon fill="black" stroke="black" points="290.9,-22.85 280.97,-19.17 286.44,-28.24 290.9,-22.85"/>
</g>
<!-- Ipv4NetworkConfigurator -->
<g id="node5" class="node">
<title>Ipv4NetworkConfigurator</title>
<g id="a_node5"><a xlink:href="inet.networklayer.configurator.ipv4.Ipv4NetworkConfigurator.html" xlink:title="Simple Module Ipv4NetworkConfigurator" target="_parent">
<polygon fill="#fffcaf" stroke="black" points="469.5,-19 329.5,-19 329.5,0 469.5,0 469.5,-19"/>
<text text-anchor="middle" x="399.5" y="-7" font-family="Helvetica,sans-Serif" font-size="10.00">Ipv4NetworkConfigurator</text>
</a>
</g>
</g>
<!-- Ieee80211VisualizationSignalLevelsShowcase&#45;&gt;Ipv4NetworkConfigurator -->
<g id="edge4" class="edge">
<title>Ieee80211VisualizationSignalLevelsShowcase&#45;&gt;Ipv4NetworkConfigurator</title>
<path fill="none" stroke="black" d="M344.94,-54.98C354.65,-47.07 369.32,-35.11 381,-25.58"/>
<polygon fill="black" stroke="black" points="383.33,-28.2 388.87,-19.17 378.9,-22.78 383.33,-28.2"/>
</g>
<!-- IntegratedVisualizer -->
<g id="node6" class="node">
<title>IntegratedVisualizer</title>
<g id="a_node6"><a xlink:href="inet.visualizer.common.IntegratedVisualizer.html" xlink:title="Compound Module IntegratedVisualizer" target="_parent">
<polygon fill="#fffcaf" stroke="black" points="603,-19 488,-19 488,0 603,0 603,-19"/>
<text text-anchor="middle" x="545.5" y="-7" font-family="Helvetica,sans-Serif" font-size="10.00">IntegratedVisualizer</text>
</a>
</g>
</g>
<!-- Ieee80211VisualizationSignalLevelsShowcase&#45;&gt;IntegratedVisualizer -->
<g id="edge5" class="edge">
<title>Ieee80211VisualizationSignalLevelsShowcase&#45;&gt;IntegratedVisualizer</title>
<path fill="none" stroke="black" d="M368.4,-54.98C404.52,-45.91 461.82,-31.52 501.42,-21.57"/>
<polygon fill="black" stroke="black" points="502.49,-24.91 511.33,-19.08 500.78,-18.12 502.49,-24.91"/>
</g>
<!-- Ieee80211ScalarRadioMedium -->
<g id="node7" class="node">
<title>Ieee80211ScalarRadioMedium</title>
<g id="a_node7"><a xlink:href="inet.physicallayer.wireless.ieee80211.packetlevel.Ieee80211ScalarRadioMedium.html" xlink:title="Compound Module Ieee80211ScalarRadioMedium" target="_parent">
<polygon fill="#fffcaf" stroke="black" points="786,-19 621,-19 621,0 786,0 786,-19"/>
<text text-anchor="middle" x="703.5" y="-7" font-family="Helvetica,sans-Serif" font-size="10.00">Ieee80211ScalarRadioMedium</text>
</a>
</g>
</g>
<!-- Ieee80211VisualizationSignalLevelsShowcase&#45;&gt;Ieee80211ScalarRadioMedium -->
<g id="edge6" class="edge">
<title>Ieee80211VisualizationSignalLevelsShowcase&#45;&gt;Ieee80211ScalarRadioMedium</title>
<path fill="none" stroke="black" d="M393.79,-54.98C459.32,-45.57 564.76,-30.43 634.1,-20.47"/>
<polygon fill="black" stroke="black" points="634.65,-23.92 644.06,-19.04 633.66,-17 634.65,-23.92"/>
</g>
</g>
</svg>
