<?xml version="1.0" encoding="UTF-8" standalone="no"?>
<!DOCTYPE svg PUBLIC "-//W3C//DTD SVG 1.1//EN"
 "http://www.w3.org/Graphics/SVG/1.1/DTD/svg11.dtd">
<!-- Generated by graphviz version 2.43.0 (0)
 -->
<!-- Title: opp Pages: 1 -->
<svg width="774pt" height="82pt"
 viewBox="0.00 0.00 773.50 82.00" xmlns="http://www.w3.org/2000/svg" xmlns:xlink="http://www.w3.org/1999/xlink">
<g id="graph0" class="graph" transform="scale(1 1) rotate(0) translate(4 78)">
<title>opp</title>
<polygon fill="transparent" stroke="transparent" points="-4,4 -4,-78 769.5,-78 769.5,4 -4,4"/>
<!-- RegressionTestingTutorialWired -->
<g id="node1" class="node">
<title>RegressionTestingTutorialWired</title>
<g id="a_node1"><a xlink:href="inet.tutorials.fingerprint.RegressionTestingTutorialWired.html" xlink:title="Network RegressionTestingTutorialWired" target="_parent">
<polygon fill="#9090ff" stroke="black" points="401,-74 231,-74 231,-55 401,-55 401,-74"/>
<text text-anchor="middle" x="316" y="-62" font-family="Helvetica,sans-Serif" font-size="10.00">RegressionTestingTutorialWired</text>
</a>
</g>
</g>
<!-- Eth10G -->
<g id="node2" class="node">
<title>Eth10G</title>
<g id="a_node2"><a xlink:href="inet.node.ethernet.Eth10G.html" xlink:title="Channel Eth10G" target="_parent">
<polygon fill="#d0ffd0" stroke="black" points="54,-19 0,-19 0,0 54,0 54,-19"/>
<text text-anchor="middle" x="27" y="-7" font-family="Helvetica,sans-Serif" font-size="10.00">Eth10G</text>
</a>
</g>
</g>
<!-- RegressionTestingTutorialWired&#45;&gt;Eth10G -->
<g id="edge1" class="edge">
<title>RegressionTestingTutorialWired&#45;&gt;Eth10G</title>
<path fill="none" stroke="black" d="M262.03,-54.94C212.9,-46.93 138.13,-34.22 64.06,-19.12"/>
<polygon fill="black" stroke="black" points="64.59,-15.66 54.09,-17.07 63.18,-22.51 64.59,-15.66"/>
</g>
<!-- StandardHost -->
<g id="node3" class="node">
<title>StandardHost</title>
<g id="a_node3"><a xlink:href="inet.node.inet.StandardHost.html" xlink:title="Compound Module StandardHost" target="_parent">
<polygon fill="#fffcaf" stroke="black" points="155.5,-19 72.5,-19 72.5,0 155.5,0 155.5,-19"/>
<text text-anchor="middle" x="114" y="-7" font-family="Helvetica,sans-Serif" font-size="10.00">StandardHost</text>
</a>
</g>
</g>
<!-- RegressionTestingTutorialWired&#45;&gt;StandardHost -->
<g id="edge2" class="edge">
<title>RegressionTestingTutorialWired&#45;&gt;StandardHost</title>
<path fill="none" stroke="black" d="M283.55,-54.98C249.04,-45.93 194.34,-31.58 156.44,-21.64"/>
<polygon fill="black" stroke="black" points="157.27,-18.23 146.71,-19.08 155.49,-25.01 157.27,-18.23"/>
</g>
<!-- Router -->
<g id="node4" class="node">
<title>Router</title>
<g id="a_node4"><a xlink:href="inet.node.inet.Router.html" xlink:title="Compound Module Router" target="_parent">
<polygon fill="#fffcaf" stroke="black" points="228,-19 174,-19 174,0 228,0 228,-19"/>
<text text-anchor="middle" x="201" y="-7" font-family="Helvetica,sans-Serif" font-size="10.00">Router</text>
</a>
</g>
</g>
<!-- RegressionTestingTutorialWired&#45;&gt;Router -->
<g id="edge3" class="edge">
<title>RegressionTestingTutorialWired&#45;&gt;Router</title>
<path fill="none" stroke="black" d="M297.52,-54.98C279.02,-46.46 250.32,-33.23 229.02,-23.41"/>
<polygon fill="black" stroke="black" points="230.36,-20.18 219.81,-19.17 227.43,-26.53 230.36,-20.18"/>
</g>
<!-- Ipv4NetworkConfigurator -->
<g id="node5" class="node">
<title>Ipv4NetworkConfigurator</title>
<g id="a_node5"><a xlink:href="inet.networklayer.configurator.ipv4.Ipv4NetworkConfigurator.html" xlink:title="Simple Module Ipv4NetworkConfigurator" target="_parent">
<polygon fill="#fffcaf" stroke="black" points="386,-19 246,-19 246,0 386,0 386,-19"/>
<text text-anchor="middle" x="316" y="-7" font-family="Helvetica,sans-Serif" font-size="10.00">Ipv4NetworkConfigurator</text>
</a>
</g>
</g>
<!-- RegressionTestingTutorialWired&#45;&gt;Ipv4NetworkConfigurator -->
<g id="edge4" class="edge">
<title>RegressionTestingTutorialWired&#45;&gt;Ipv4NetworkConfigurator</title>
<path fill="none" stroke="black" d="M316,-54.75C316,-47.8 316,-37.85 316,-29.13"/>
<polygon fill="black" stroke="black" points="319.5,-29.09 316,-19.09 312.5,-29.09 319.5,-29.09"/>
</g>
<!-- IntegratedMultiCanvasVisualizer -->
<g id="node6" class="node">
<title>IntegratedMultiCanvasVisualizer</title>
<g id="a_node6"><a xlink:href="inet.visualizer.canvas.integrated.IntegratedMultiCanvasVisualizer.html" xlink:title="Compound Module IntegratedMultiCanvasVisualizer" target="_parent">
<polygon fill="#fffcaf" stroke="black" points="580,-19 404,-19 404,0 580,0 580,-19"/>
<text text-anchor="middle" x="492" y="-7" font-family="Helvetica,sans-Serif" font-size="10.00">IntegratedMultiCanvasVisualizer</text>
</a>
</g>
</g>
<!-- RegressionTestingTutorialWired&#45;&gt;IntegratedMultiCanvasVisualizer -->
<g id="edge5" class="edge">
<title>RegressionTestingTutorialWired&#45;&gt;IntegratedMultiCanvasVisualizer</title>
<path fill="none" stroke="black" d="M344.28,-54.98C373.95,-46.05 420.79,-31.94 453.75,-22.02"/>
<polygon fill="black" stroke="black" points="454.93,-25.32 463.5,-19.08 452.92,-18.61 454.93,-25.32"/>
</g>
<!-- EthernetSwitch -->
<g id="node7" class="node">
<title>EthernetSwitch</title>
<g id="a_node7"><a xlink:href="inet.node.ethernet.EthernetSwitch.html" xlink:title="Compound Module EthernetSwitch" target="_parent">
<polygon fill="#fffcaf" stroke="black" points="688,-19 598,-19 598,0 688,0 688,-19"/>
<text text-anchor="middle" x="643" y="-7" font-family="Helvetica,sans-Serif" font-size="10.00">EthernetSwitch</text>
</a>
</g>
</g>
<!-- RegressionTestingTutorialWired&#45;&gt;EthernetSwitch -->
<g id="edge6" class="edge">
<title>RegressionTestingTutorialWired&#45;&gt;EthernetSwitch</title>
<path fill="none" stroke="black" d="M368.54,-54.98C428.61,-45.25 526.53,-29.38 587.72,-19.46"/>
<polygon fill="black" stroke="black" points="588.65,-22.85 597.96,-17.8 587.53,-15.94 588.65,-22.85"/>
</g>
<!-- Eth100M -->
<g id="node8" class="node">
<title>Eth100M</title>
<g id="a_node8"><a xlink:href="inet.node.ethernet.Eth100M.html" xlink:title="Channel Eth100M" target="_parent">
<polygon fill="#d0ffd0" stroke="black" points="765.5,-19 706.5,-19 706.5,0 765.5,0 765.5,-19"/>
<text text-anchor="middle" x="736" y="-7" font-family="Helvetica,sans-Serif" font-size="10.00">Eth100M</text>
</a>
</g>
</g>
<!-- RegressionTestingTutorialWired&#45;&gt;Eth100M -->
<g id="edge7" class="edge">
<title>RegressionTestingTutorialWired&#45;&gt;Eth100M</title>
<path fill="none" stroke="black" d="M401.08,-55.98C476.17,-48.79 588.78,-36.65 696.2,-18.97"/>
<polygon fill="black" stroke="black" points="696.96,-22.39 706.25,-17.3 695.81,-15.49 696.96,-22.39"/>
</g>
</g>
</svg>
