<?xml version="1.0" encoding="UTF-8" standalone="no"?>
<!DOCTYPE svg PUBLIC "-//W3C//DTD SVG 1.1//EN"
 "http://www.w3.org/Graphics/SVG/1.1/DTD/svg11.dtd">
<!-- Generated by graphviz version 2.43.0 (0)
 -->
<!-- Title: opp Pages: 1 -->
<svg width="436pt" height="82pt"
 viewBox="0.00 0.00 436.00 82.00" xmlns="http://www.w3.org/2000/svg" xmlns:xlink="http://www.w3.org/1999/xlink">
<g id="graph0" class="graph" transform="scale(1 1) rotate(0) translate(4 78)">
<title>opp</title>
<polygon fill="transparent" stroke="transparent" points="-4,4 -4,-78 432,-78 432,4 -4,4"/>
<!-- TransportLayerNodeBase -->
<g id="node1" class="node">
<title>TransportLayerNodeBase</title>
<g id="a_node1"><a xlink:href="inet.node.base.TransportLayerNodeBase.html" xlink:title="Compound Module TransportLayerNodeBase" target="_parent">
<polygon fill="#fff700" stroke="black" points="326.5,-74 187.5,-74 187.5,-55 326.5,-55 326.5,-74"/>
<text text-anchor="middle" x="257" y="-62" font-family="Helvetica,sans-Serif" font-size="10.00">TransportLayerNodeBase</text>
</a>
</g>
</g>
<!-- IdealChannel -->
<g id="node2" class="node">
<title>IdealChannel</title>
<g id="a_node2"><a xlink:href="ned.IdealChannel.html" xlink:title="Channel IdealChannel" target="_parent">
<polygon fill="#d0ffd0" stroke="black" points="80,-19 0,-19 0,0 80,0 80,-19"/>
<text text-anchor="middle" x="40" y="-7" font-family="Helvetica,sans-Serif" font-size="10.00">IdealChannel</text>
</a>
</g>
</g>
<!-- TransportLayerNodeBase&#45;&gt;IdealChannel -->
<g id="edge1" class="edge">
<title>TransportLayerNodeBase&#45;&gt;IdealChannel</title>
<path fill="none" stroke="black" d="M222.14,-54.98C184.91,-45.89 125.8,-31.46 85.07,-21.51"/>
<polygon fill="black" stroke="black" points="85.68,-18.05 75.14,-19.08 84.02,-24.85 85.68,-18.05"/>
</g>
<!-- MessageDispatcher -->
<g id="node3" class="node">
<title>MessageDispatcher</title>
<g id="a_node3"><a xlink:href="inet.common.MessageDispatcher.html" xlink:title="Simple Module MessageDispatcher" target="_parent">
<polygon fill="#fffcaf" stroke="black" points="211.5,-19 98.5,-19 98.5,0 211.5,0 211.5,-19"/>
<text text-anchor="middle" x="155" y="-7" font-family="Helvetica,sans-Serif" font-size="10.00">MessageDispatcher</text>
</a>
</g>
</g>
<!-- TransportLayerNodeBase&#45;&gt;MessageDispatcher -->
<g id="edge2" class="edge">
<title>TransportLayerNodeBase&#45;&gt;MessageDispatcher</title>
<path fill="none" stroke="black" d="M240.61,-54.98C224.43,-46.57 199.43,-33.59 180.62,-23.81"/>
<polygon fill="black" stroke="black" points="182.17,-20.68 171.69,-19.17 178.95,-26.89 182.17,-20.68"/>
</g>
<!-- IUdp -->
<g id="node4" class="node">
<title>IUdp</title>
<g id="a_node4"><a xlink:href="inet.transportlayer.contract.IUdp.html" xlink:title="Module Interface IUdp" target="_parent">
<polygon fill="#fffcaf" stroke="black" stroke-dasharray="5,2" points="284,-19 230,-19 230,0 284,0 284,-19"/>
<text text-anchor="middle" x="257" y="-7" font-family="Helvetica,sans-Serif" font-size="10.00">IUdp</text>
</a>
</g>
</g>
<!-- TransportLayerNodeBase&#45;&gt;IUdp -->
<g id="edge3" class="edge">
<title>TransportLayerNodeBase&#45;&gt;IUdp</title>
<path fill="none" stroke="black" d="M257,-54.75C257,-47.8 257,-37.85 257,-29.13"/>
<polygon fill="black" stroke="black" points="260.5,-29.09 257,-19.09 253.5,-29.09 260.5,-29.09"/>
</g>
<!-- ISctp -->
<g id="node5" class="node">
<title>ISctp</title>
<g id="a_node5"><a xlink:href="inet.transportlayer.contract.ISctp.html" xlink:title="Module Interface ISctp" target="_parent">
<polygon fill="#fffcaf" stroke="black" stroke-dasharray="5,2" points="356,-19 302,-19 302,0 356,0 356,-19"/>
<text text-anchor="middle" x="329" y="-7" font-family="Helvetica,sans-Serif" font-size="10.00">ISctp</text>
</a>
</g>
</g>
<!-- TransportLayerNodeBase&#45;&gt;ISctp -->
<g id="edge4" class="edge">
<title>TransportLayerNodeBase&#45;&gt;ISctp</title>
<path fill="none" stroke="black" d="M268.57,-54.98C279.42,-47 295.88,-34.88 308.88,-25.31"/>
<polygon fill="black" stroke="black" points="311.24,-27.92 317.22,-19.17 307.09,-22.28 311.24,-27.92"/>
</g>
<!-- ITcp -->
<g id="node6" class="node">
<title>ITcp</title>
<g id="a_node6"><a xlink:href="inet.transportlayer.contract.ITcp.html" xlink:title="Module Interface ITcp" target="_parent">
<polygon fill="#fffcaf" stroke="black" stroke-dasharray="5,2" points="428,-19 374,-19 374,0 428,0 428,-19"/>
<text text-anchor="middle" x="401" y="-7" font-family="Helvetica,sans-Serif" font-size="10.00">ITcp</text>
</a>
</g>
</g>
<!-- TransportLayerNodeBase&#45;&gt;ITcp -->
<g id="edge5" class="edge">
<title>TransportLayerNodeBase&#45;&gt;ITcp</title>
<path fill="none" stroke="black" d="M280.14,-54.98C303.82,-46.27 340.87,-32.63 367.71,-22.75"/>
<polygon fill="black" stroke="black" points="369.27,-25.91 377.44,-19.17 366.85,-19.34 369.27,-25.91"/>
</g>
</g>
</svg>
