<?xml version="1.0" encoding="UTF-8" standalone="no"?>
<!DOCTYPE svg PUBLIC "-//W3C//DTD SVG 1.1//EN"
 "http://www.w3.org/Graphics/SVG/1.1/DTD/svg11.dtd">
<!-- Generated by graphviz version 2.43.0 (0)
 -->
<!-- Title: opp Pages: 1 -->
<svg width="348pt" height="137pt"
 viewBox="0.00 0.00 348.00 137.00" xmlns="http://www.w3.org/2000/svg" xmlns:xlink="http://www.w3.org/1999/xlink">
<g id="graph0" class="graph" transform="scale(1 1) rotate(0) translate(4 133)">
<title>opp</title>
<polygon fill="transparent" stroke="transparent" points="-4,4 -4,-133 344,-133 344,4 -4,4"/>
<!-- EthernetMacLayer -->
<g id="node1" class="node">
<title>EthernetMacLayer</title>
<g id="a_node1"><a xlink:href="inet.linklayer.ethernet.modular.EthernetMacLayer.html" xlink:title="Compound Module EthernetMacLayer" target="_parent">
<polygon fill="#fff700" stroke="black" points="225,-74 120,-74 120,-55 225,-55 225,-74"/>
<text text-anchor="middle" x="172.5" y="-62" font-family="Helvetica,sans-Serif" font-size="10.00">EthernetMacLayer</text>
</a>
</g>
</g>
<!-- EthernetFragmentingMacLayer -->
<g id="node3" class="node">
<title>EthernetFragmentingMacLayer</title>
<g id="a_node3"><a xlink:href="inet.linklayer.ethernet.modular.EthernetFragmentingMacLayer.html" xlink:title="Compound Module EthernetFragmentingMacLayer" target="_parent">
<polygon fill="#fffcaf" stroke="black" points="167,-19 0,-19 0,0 167,0 167,-19"/>
<text text-anchor="middle" x="83.5" y="-7" font-family="Helvetica,sans-Serif" font-size="10.00">EthernetFragmentingMacLayer</text>
</a>
</g>
</g>
<!-- EthernetMacLayer&#45;&gt;EthernetFragmentingMacLayer -->
<g id="edge2" class="edge">
<title>EthernetMacLayer&#45;&gt;EthernetFragmentingMacLayer</title>
<path fill="none" stroke="black" d="M158.2,-54.98C141.69,-45.15 114.68,-29.07 98.06,-19.17"/>
</g>
<!-- EthernetStreamingMacLayer -->
<g id="node4" class="node">
<title>EthernetStreamingMacLayer</title>
<g id="a_node4"><a xlink:href="inet.linklayer.ethernet.modular.EthernetStreamingMacLayer.html" xlink:title="Compound Module EthernetStreamingMacLayer" target="_parent">
<polygon fill="#fffcaf" stroke="black" points="340,-19 185,-19 185,0 340,0 340,-19"/>
<text text-anchor="middle" x="262.5" y="-7" font-family="Helvetica,sans-Serif" font-size="10.00">EthernetStreamingMacLayer</text>
</a>
</g>
</g>
<!-- EthernetMacLayer&#45;&gt;EthernetStreamingMacLayer -->
<g id="edge3" class="edge">
<title>EthernetMacLayer&#45;&gt;EthernetStreamingMacLayer</title>
<path fill="none" stroke="black" d="M186.96,-54.98C203.66,-45.15 230.97,-29.07 247.78,-19.17"/>
</g>
<!-- IEthernetMacLayer -->
<g id="node2" class="node">
<title>IEthernetMacLayer</title>
<g id="a_node2"><a xlink:href="inet.linklayer.ethernet.contract.IEthernetMacLayer.html" xlink:title="Module Interface IEthernetMacLayer" target="_parent">
<polygon fill="#fffcaf" stroke="black" stroke-dasharray="5,2" points="226.5,-129 118.5,-129 118.5,-110 226.5,-110 226.5,-129"/>
<text text-anchor="middle" x="172.5" y="-117" font-family="Helvetica,sans-Serif" font-size="10.00">IEthernetMacLayer</text>
</a>
</g>
</g>
<!-- IEthernetMacLayer&#45;&gt;EthernetMacLayer -->
<g id="edge1" class="edge">
<title>IEthernetMacLayer&#45;&gt;EthernetMacLayer</title>
<path fill="none" stroke="black" stroke-dasharray="5,2" d="M172.5,-109.75C172.5,-99.87 172.5,-83.9 172.5,-74.09"/>
</g>
</g>
</svg>
