<?xml version="1.0" encoding="UTF-8" standalone="no"?>
<!DOCTYPE svg PUBLIC "-//W3C//DTD SVG 1.1//EN"
 "http://www.w3.org/Graphics/SVG/1.1/DTD/svg11.dtd">
<!-- Generated by graphviz version 2.43.0 (0)
 -->
<!-- Title: opp Pages: 1 -->
<svg width="552pt" height="137pt"
 viewBox="0.00 0.00 551.50 137.00" xmlns="http://www.w3.org/2000/svg" xmlns:xlink="http://www.w3.org/1999/xlink">
<g id="graph0" class="graph" transform="scale(1 1) rotate(0) translate(4 133)">
<title>opp</title>
<polygon fill="transparent" stroke="transparent" points="-4,4 -4,-133 547.5,-133 547.5,4 -4,4"/>
<!-- Client -->
<g id="node1" class="node">
<title>Client</title>
<g id="a_node1"><a xlink:href="inet.examples.wireless.ratecontrol.Client.html" xlink:title="Compound Module Client" target="_parent">
<polygon fill="#fff700" stroke="black" points="282,-74 228,-74 228,-55 282,-55 282,-74"/>
<text text-anchor="middle" x="255" y="-62" font-family="Helvetica,sans-Serif" font-size="10.00">Client</text>
</a>
</g>
</g>
<!-- InterfaceTable -->
<g id="node2" class="node">
<title>InterfaceTable</title>
<g id="a_node2"><a xlink:href="inet.networklayer.common.InterfaceTable.html" xlink:title="Simple Module InterfaceTable" target="_parent">
<polygon fill="#fffcaf" stroke="black" points="86,-19 0,-19 0,0 86,0 86,-19"/>
<text text-anchor="middle" x="43" y="-7" font-family="Helvetica,sans-Serif" font-size="10.00">InterfaceTable</text>
</a>
</g>
</g>
<!-- Client&#45;&gt;InterfaceTable -->
<g id="edge1" class="edge">
<title>Client&#45;&gt;InterfaceTable</title>
<path fill="none" stroke="black" d="M227.72,-56.68C192.1,-47.78 129.33,-32.08 86.96,-21.49"/>
<polygon fill="black" stroke="black" points="87.74,-18.08 77.19,-19.05 86.04,-24.87 87.74,-18.08"/>
</g>
<!-- IdealChannel -->
<g id="node3" class="node">
<title>IdealChannel</title>
<g id="a_node3"><a xlink:href="ned.IdealChannel.html" xlink:title="Channel IdealChannel" target="_parent">
<polygon fill="#d0ffd0" stroke="black" points="184,-19 104,-19 104,0 184,0 184,-19"/>
<text text-anchor="middle" x="144" y="-7" font-family="Helvetica,sans-Serif" font-size="10.00">IdealChannel</text>
</a>
</g>
</g>
<!-- Client&#45;&gt;IdealChannel -->
<g id="edge2" class="edge">
<title>Client&#45;&gt;IdealChannel</title>
<path fill="none" stroke="black" d="M237.17,-54.98C219.39,-46.5 191.85,-33.35 171.32,-23.54"/>
<polygon fill="black" stroke="black" points="172.69,-20.32 162.16,-19.17 169.67,-26.64 172.69,-20.32"/>
</g>
<!-- RectangleMobility -->
<g id="node4" class="node">
<title>RectangleMobility</title>
<g id="a_node4"><a xlink:href="inet.mobility.single.RectangleMobility.html" xlink:title="Simple Module RectangleMobility" target="_parent">
<polygon fill="#fffcaf" stroke="black" points="307.5,-19 202.5,-19 202.5,0 307.5,0 307.5,-19"/>
<text text-anchor="middle" x="255" y="-7" font-family="Helvetica,sans-Serif" font-size="10.00">RectangleMobility</text>
</a>
</g>
</g>
<!-- Client&#45;&gt;RectangleMobility -->
<g id="edge3" class="edge">
<title>Client&#45;&gt;RectangleMobility</title>
<path fill="none" stroke="black" d="M255,-54.75C255,-47.8 255,-37.85 255,-29.13"/>
<polygon fill="black" stroke="black" points="258.5,-29.09 255,-19.09 251.5,-29.09 258.5,-29.09"/>
</g>
<!-- EtherAppClient -->
<g id="node5" class="node">
<title>EtherAppClient</title>
<g id="a_node5"><a xlink:href="inet.applications.ethernet.EtherAppClient.html" xlink:title="Simple Module EtherAppClient" target="_parent">
<polygon fill="#fffcaf" stroke="black" points="414.5,-19 325.5,-19 325.5,0 414.5,0 414.5,-19"/>
<text text-anchor="middle" x="370" y="-7" font-family="Helvetica,sans-Serif" font-size="10.00">EtherAppClient</text>
</a>
</g>
</g>
<!-- Client&#45;&gt;EtherAppClient -->
<g id="edge4" class="edge">
<title>Client&#45;&gt;EtherAppClient</title>
<path fill="none" stroke="black" d="M273.48,-54.98C291.98,-46.46 320.68,-33.23 341.98,-23.41"/>
<polygon fill="black" stroke="black" points="343.57,-26.53 351.19,-19.17 340.64,-20.18 343.57,-26.53"/>
</g>
<!-- Ieee80211Interface -->
<g id="node6" class="node">
<title>Ieee80211Interface</title>
<g id="a_node6"><a xlink:href="inet.linklayer.ieee80211.Ieee80211Interface.html" xlink:title="Compound Module Ieee80211Interface" target="_parent">
<polygon fill="#fffcaf" stroke="black" points="543.5,-19 432.5,-19 432.5,0 543.5,0 543.5,-19"/>
<text text-anchor="middle" x="488" y="-7" font-family="Helvetica,sans-Serif" font-size="10.00">Ieee80211Interface</text>
</a>
</g>
</g>
<!-- Client&#45;&gt;Ieee80211Interface -->
<g id="edge5" class="edge">
<title>Client&#45;&gt;Ieee80211Interface</title>
<path fill="none" stroke="black" d="M282.18,-57.32C321.07,-48.47 393.15,-32.08 440.84,-21.23"/>
<polygon fill="black" stroke="black" points="441.66,-24.63 450.63,-19 440.1,-17.81 441.66,-24.63"/>
</g>
<!-- RateControlTest -->
<g id="node7" class="node">
<title>RateControlTest</title>
<g id="a_node7"><a xlink:href="inet.examples.wireless.ratecontrol.RateControlTest.html" xlink:title="Network RateControlTest" target="_parent">
<polygon fill="#d0d0ff" stroke="black" points="302,-129 208,-129 208,-110 302,-110 302,-129"/>
<text text-anchor="middle" x="255" y="-117" font-family="Helvetica,sans-Serif" font-size="10.00">RateControlTest</text>
</a>
</g>
</g>
<!-- RateControlTest&#45;&gt;Client -->
<g id="edge6" class="edge">
<title>RateControlTest&#45;&gt;Client</title>
<path fill="none" stroke="black" d="M255,-109.75C255,-102.8 255,-92.85 255,-84.13"/>
<polygon fill="black" stroke="black" points="258.5,-84.09 255,-74.09 251.5,-84.09 258.5,-84.09"/>
</g>
</g>
</svg>
