<?xml version="1.0" encoding="UTF-8" standalone="no"?>
<!DOCTYPE svg PUBLIC "-//W3C//DTD SVG 1.1//EN"
 "http://www.w3.org/Graphics/SVG/1.1/DTD/svg11.dtd">
<!-- Generated by graphviz version 2.43.0 (0)
 -->
<!-- Title: opp Pages: 1 -->
<svg width="572pt" height="137pt"
 viewBox="0.00 0.00 571.50 137.00" xmlns="http://www.w3.org/2000/svg" xmlns:xlink="http://www.w3.org/1999/xlink">
<g id="graph0" class="graph" transform="scale(1 1) rotate(0) translate(4 133)">
<title>opp</title>
<polygon fill="transparent" stroke="transparent" points="-4,4 -4,-133 567.5,-133 567.5,4 -4,4"/>
<!-- ThroughputServer -->
<g id="node1" class="node">
<title>ThroughputServer</title>
<g id="a_node1"><a xlink:href="inet.examples.wireless.hosttohost.ThroughputServer.html" xlink:title="Compound Module ThroughputServer" target="_parent">
<polygon fill="#fff700" stroke="black" points="308,-74 204,-74 204,-55 308,-55 308,-74"/>
<text text-anchor="middle" x="256" y="-62" font-family="Helvetica,sans-Serif" font-size="10.00">ThroughputServer</text>
</a>
</g>
</g>
<!-- InterfaceTable -->
<g id="node2" class="node">
<title>InterfaceTable</title>
<g id="a_node2"><a xlink:href="inet.networklayer.common.InterfaceTable.html" xlink:title="Simple Module InterfaceTable" target="_parent">
<polygon fill="#fffcaf" stroke="black" points="86,-19 0,-19 0,0 86,0 86,-19"/>
<text text-anchor="middle" x="43" y="-7" font-family="Helvetica,sans-Serif" font-size="10.00">InterfaceTable</text>
</a>
</g>
</g>
<!-- ThroughputServer&#45;&gt;InterfaceTable -->
<g id="edge1" class="edge">
<title>ThroughputServer&#45;&gt;InterfaceTable</title>
<path fill="none" stroke="black" d="M221.78,-54.98C185.24,-45.89 127.22,-31.46 87.24,-21.51"/>
<polygon fill="black" stroke="black" points="88.04,-18.1 77.49,-19.08 86.35,-24.89 88.04,-18.1"/>
</g>
<!-- IdealChannel -->
<g id="node3" class="node">
<title>IdealChannel</title>
<g id="a_node3"><a xlink:href="ned.IdealChannel.html" xlink:title="Channel IdealChannel" target="_parent">
<polygon fill="#d0ffd0" stroke="black" points="184,-19 104,-19 104,0 184,0 184,-19"/>
<text text-anchor="middle" x="144" y="-7" font-family="Helvetica,sans-Serif" font-size="10.00">IdealChannel</text>
</a>
</g>
</g>
<!-- ThroughputServer&#45;&gt;IdealChannel -->
<g id="edge2" class="edge">
<title>ThroughputServer&#45;&gt;IdealChannel</title>
<path fill="none" stroke="black" d="M238.01,-54.98C220.07,-46.5 192.28,-33.35 171.57,-23.54"/>
<polygon fill="black" stroke="black" points="172.86,-20.28 162.32,-19.17 169.86,-26.61 172.86,-20.28"/>
</g>
<!-- PassivePacketSink -->
<g id="node4" class="node">
<title>PassivePacketSink</title>
<g id="a_node4"><a xlink:href="inet.queueing.sink.PassivePacketSink.html" xlink:title="Simple Module PassivePacketSink" target="_parent">
<polygon fill="#fffcaf" stroke="black" points="309.5,-19 202.5,-19 202.5,0 309.5,0 309.5,-19"/>
<text text-anchor="middle" x="256" y="-7" font-family="Helvetica,sans-Serif" font-size="10.00">PassivePacketSink</text>
</a>
</g>
</g>
<!-- ThroughputServer&#45;&gt;PassivePacketSink -->
<g id="edge3" class="edge">
<title>ThroughputServer&#45;&gt;PassivePacketSink</title>
<path fill="none" stroke="black" d="M256,-54.75C256,-47.8 256,-37.85 256,-29.13"/>
<polygon fill="black" stroke="black" points="259.5,-29.09 256,-19.09 252.5,-29.09 259.5,-29.09"/>
</g>
<!-- StationaryMobility -->
<g id="node5" class="node">
<title>StationaryMobility</title>
<g id="a_node5"><a xlink:href="inet.mobility.static.StationaryMobility.html" xlink:title="Simple Module StationaryMobility" target="_parent">
<polygon fill="#fffcaf" stroke="black" points="434.5,-19 327.5,-19 327.5,0 434.5,0 434.5,-19"/>
<text text-anchor="middle" x="381" y="-7" font-family="Helvetica,sans-Serif" font-size="10.00">StationaryMobility</text>
</a>
</g>
</g>
<!-- ThroughputServer&#45;&gt;StationaryMobility -->
<g id="edge4" class="edge">
<title>ThroughputServer&#45;&gt;StationaryMobility</title>
<path fill="none" stroke="black" d="M276.08,-54.98C296.37,-46.38 327.96,-32.99 351.17,-23.15"/>
<polygon fill="black" stroke="black" points="352.71,-26.3 360.55,-19.17 349.98,-19.85 352.71,-26.3"/>
</g>
<!-- Ieee80211Interface -->
<g id="node6" class="node">
<title>Ieee80211Interface</title>
<g id="a_node6"><a xlink:href="inet.linklayer.ieee80211.Ieee80211Interface.html" xlink:title="Compound Module Ieee80211Interface" target="_parent">
<polygon fill="#fffcaf" stroke="black" points="563.5,-19 452.5,-19 452.5,0 563.5,0 563.5,-19"/>
<text text-anchor="middle" x="508" y="-7" font-family="Helvetica,sans-Serif" font-size="10.00">Ieee80211Interface</text>
</a>
</g>
</g>
<!-- ThroughputServer&#45;&gt;Ieee80211Interface -->
<g id="edge5" class="edge">
<title>ThroughputServer&#45;&gt;Ieee80211Interface</title>
<path fill="none" stroke="black" d="M296.49,-54.98C340.17,-45.8 409.81,-31.15 457.15,-21.19"/>
<polygon fill="black" stroke="black" points="458.13,-24.57 467.19,-19.08 456.69,-17.72 458.13,-24.57"/>
</g>
<!-- Throughput -->
<g id="node7" class="node">
<title>Throughput</title>
<g id="a_node7"><a xlink:href="inet.examples.wireless.hosttohost.Throughput.html" xlink:title="Network Throughput" target="_parent">
<polygon fill="#d0d0ff" stroke="black" points="292,-129 220,-129 220,-110 292,-110 292,-129"/>
<text text-anchor="middle" x="256" y="-117" font-family="Helvetica,sans-Serif" font-size="10.00">Throughput</text>
</a>
</g>
</g>
<!-- Throughput&#45;&gt;ThroughputServer -->
<g id="edge6" class="edge">
<title>Throughput&#45;&gt;ThroughputServer</title>
<path fill="none" stroke="black" d="M256,-109.75C256,-102.8 256,-92.85 256,-84.13"/>
<polygon fill="black" stroke="black" points="259.5,-84.09 256,-74.09 252.5,-84.09 259.5,-84.09"/>
</g>
</g>
</svg>
