<?xml version="1.0" encoding="UTF-8" standalone="no"?>
<!DOCTYPE svg PUBLIC "-//W3C//DTD SVG 1.1//EN"
 "http://www.w3.org/Graphics/SVG/1.1/DTD/svg11.dtd">
<!-- Generated by graphviz version 2.43.0 (0)
 -->
<!-- Title: opp Pages: 1 -->
<svg width="3809pt" height="137pt"
 viewBox="0.00 0.00 3809.00 137.00" xmlns="http://www.w3.org/2000/svg" xmlns:xlink="http://www.w3.org/1999/xlink">
<g id="graph0" class="graph" transform="scale(1 1) rotate(0) translate(4 133)">
<title>opp</title>
<polygon fill="transparent" stroke="transparent" points="-4,4 -4,-133 3805,-133 3805,4 -4,4"/>
<!-- IntegratedMultiCanvasVisualizer -->
<g id="node1" class="node">
<title>IntegratedMultiCanvasVisualizer</title>
<g id="a_node1"><a xlink:href="inet.visualizer.canvas.integrated.IntegratedMultiCanvasVisualizer.html" xlink:title="Compound Module IntegratedMultiCanvasVisualizer" target="_parent">
<polygon fill="#fff700" stroke="black" points="1942.5,-74 1766.5,-74 1766.5,-55 1942.5,-55 1942.5,-74"/>
<text text-anchor="middle" x="1854.5" y="-62" font-family="Helvetica,sans-Serif" font-size="10.00">IntegratedMultiCanvasVisualizer</text>
</a>
</g>
</g>
<!-- ITracingObstacleLossVisualizer -->
<g id="node2" class="node">
<title>ITracingObstacleLossVisualizer</title>
<g id="a_node2"><a xlink:href="inet.visualizer.contract.ITracingObstacleLossVisualizer.html" xlink:title="Module Interface ITracingObstacleLossVisualizer" target="_parent">
<polygon fill="#fffcaf" stroke="black" stroke-dasharray="5,2" points="167,-19 0,-19 0,0 167,0 167,-19"/>
<text text-anchor="middle" x="83.5" y="-7" font-family="Helvetica,sans-Serif" font-size="10.00">ITracingObstacleLossVisualizer</text>
</a>
</g>
</g>
<!-- IntegratedMultiCanvasVisualizer&#45;&gt;ITracingObstacleLossVisualizer -->
<g id="edge1" class="edge">
<title>IntegratedMultiCanvasVisualizer&#45;&gt;ITracingObstacleLossVisualizer</title>
<path fill="none" stroke="black" d="M1766.12,-63.2C1517.62,-61.92 791.35,-55.16 177.61,-19.08"/>
<polygon fill="black" stroke="black" points="177.41,-15.57 167.22,-18.47 177,-22.55 177.41,-15.57"/>
</g>
<!-- IMobilityVisualizer -->
<g id="node3" class="node">
<title>IMobilityVisualizer</title>
<g id="a_node3"><a xlink:href="inet.visualizer.contract.IMobilityVisualizer.html" xlink:title="Module Interface IMobilityVisualizer" target="_parent">
<polygon fill="#fffcaf" stroke="black" stroke-dasharray="5,2" points="292,-19 185,-19 185,0 292,0 292,-19"/>
<text text-anchor="middle" x="238.5" y="-7" font-family="Helvetica,sans-Serif" font-size="10.00">IMobilityVisualizer</text>
</a>
</g>
</g>
<!-- IntegratedMultiCanvasVisualizer&#45;&gt;IMobilityVisualizer -->
<g id="edge2" class="edge">
<title>IntegratedMultiCanvasVisualizer&#45;&gt;IMobilityVisualizer</title>
<path fill="none" stroke="black" d="M1766.48,-62.23C1485.1,-57.97 608.47,-43.13 302.43,-19.05"/>
<polygon fill="black" stroke="black" points="302.48,-15.54 292.23,-18.23 301.92,-22.52 302.48,-15.54"/>
</g>
<!-- IGateScheduleVisualizer -->
<g id="node4" class="node">
<title>IGateScheduleVisualizer</title>
<g id="a_node4"><a xlink:href="inet.visualizer.contract.IGateScheduleVisualizer.html" xlink:title="Module Interface IGateScheduleVisualizer" target="_parent">
<polygon fill="#fffcaf" stroke="black" stroke-dasharray="5,2" points="445,-19 310,-19 310,0 445,0 445,-19"/>
<text text-anchor="middle" x="377.5" y="-7" font-family="Helvetica,sans-Serif" font-size="10.00">IGateScheduleVisualizer</text>
</a>
</g>
</g>
<!-- IntegratedMultiCanvasVisualizer&#45;&gt;IGateScheduleVisualizer -->
<g id="edge3" class="edge">
<title>IntegratedMultiCanvasVisualizer&#45;&gt;IGateScheduleVisualizer</title>
<path fill="none" stroke="black" d="M1766.33,-63.09C1546.73,-61.55 957.48,-54.24 455.07,-18.97"/>
<polygon fill="black" stroke="black" points="455.3,-15.48 445.08,-18.26 454.81,-22.46 455.3,-15.48"/>
</g>
<!-- IInfoVisualizer -->
<g id="node5" class="node">
<title>IInfoVisualizer</title>
<g id="a_node5"><a xlink:href="inet.visualizer.contract.IInfoVisualizer.html" xlink:title="Module Interface IInfoVisualizer" target="_parent">
<polygon fill="#fffcaf" stroke="black" stroke-dasharray="5,2" points="549.5,-19 463.5,-19 463.5,0 549.5,0 549.5,-19"/>
<text text-anchor="middle" x="506.5" y="-7" font-family="Helvetica,sans-Serif" font-size="10.00">IInfoVisualizer</text>
</a>
</g>
</g>
<!-- IntegratedMultiCanvasVisualizer&#45;&gt;IInfoVisualizer -->
<g id="edge4" class="edge">
<title>IntegratedMultiCanvasVisualizer&#45;&gt;IInfoVisualizer</title>
<path fill="none" stroke="black" d="M1766.34,-61.94C1517.73,-57.32 813.23,-42.57 559.85,-18.96"/>
<polygon fill="black" stroke="black" points="559.86,-15.45 549.57,-17.98 559.19,-22.42 559.86,-15.45"/>
</g>
<!-- IStatisticVisualizer -->
<g id="node6" class="node">
<title>IStatisticVisualizer</title>
<g id="a_node6"><a xlink:href="inet.visualizer.contract.IStatisticVisualizer.html" xlink:title="Module Interface IStatisticVisualizer" target="_parent">
<polygon fill="#fffcaf" stroke="black" stroke-dasharray="5,2" points="675,-19 568,-19 568,0 675,0 675,-19"/>
<text text-anchor="middle" x="621.5" y="-7" font-family="Helvetica,sans-Serif" font-size="10.00">IStatisticVisualizer</text>
</a>
</g>
</g>
<!-- IntegratedMultiCanvasVisualizer&#45;&gt;IStatisticVisualizer -->
<g id="edge5" class="edge">
<title>IntegratedMultiCanvasVisualizer&#45;&gt;IStatisticVisualizer</title>
<path fill="none" stroke="black" d="M1766.18,-63.1C1572.32,-61.59 1094.83,-54.35 685.5,-19.09"/>
<polygon fill="black" stroke="black" points="685.5,-15.57 675.23,-18.2 684.89,-22.55 685.5,-15.57"/>
</g>
<!-- IRadioVisualizer -->
<g id="node7" class="node">
<title>IRadioVisualizer</title>
<g id="a_node7"><a xlink:href="inet.visualizer.contract.IRadioVisualizer.html" xlink:title="Module Interface IRadioVisualizer" target="_parent">
<polygon fill="#fffcaf" stroke="black" stroke-dasharray="5,2" points="788,-19 693,-19 693,0 788,0 788,-19"/>
<text text-anchor="middle" x="740.5" y="-7" font-family="Helvetica,sans-Serif" font-size="10.00">IRadioVisualizer</text>
</a>
</g>
</g>
<!-- IntegratedMultiCanvasVisualizer&#45;&gt;IRadioVisualizer -->
<g id="edge6" class="edge">
<title>IntegratedMultiCanvasVisualizer&#45;&gt;IRadioVisualizer</title>
<path fill="none" stroke="black" d="M1766.5,-63.02C1586.44,-61.35 1162.9,-53.8 798.08,-19.04"/>
<polygon fill="black" stroke="black" points="798.4,-15.56 788.12,-18.09 797.73,-22.53 798.4,-15.56"/>
</g>
<!-- IDataLinkVisualizer -->
<g id="node8" class="node">
<title>IDataLinkVisualizer</title>
<g id="a_node8"><a xlink:href="inet.visualizer.contract.IDataLinkVisualizer.html" xlink:title="Module Interface IDataLinkVisualizer" target="_parent">
<polygon fill="#fffcaf" stroke="black" stroke-dasharray="5,2" points="917,-19 806,-19 806,0 917,0 917,-19"/>
<text text-anchor="middle" x="861.5" y="-7" font-family="Helvetica,sans-Serif" font-size="10.00">IDataLinkVisualizer</text>
</a>
</g>
</g>
<!-- IntegratedMultiCanvasVisualizer&#45;&gt;IDataLinkVisualizer -->
<g id="edge7" class="edge">
<title>IntegratedMultiCanvasVisualizer&#45;&gt;IDataLinkVisualizer</title>
<path fill="none" stroke="black" d="M1766.27,-61.75C1602.78,-57.95 1241.53,-47.03 927.53,-19.11"/>
<polygon fill="black" stroke="black" points="927.59,-15.6 917.32,-18.19 926.96,-22.57 927.59,-15.6"/>
</g>
<!-- IIeee80211Visualizer -->
<g id="node9" class="node">
<title>IIeee80211Visualizer</title>
<g id="a_node9"><a xlink:href="inet.visualizer.contract.IIeee80211Visualizer.html" xlink:title="Module Interface IIeee80211Visualizer" target="_parent">
<polygon fill="#fffcaf" stroke="black" stroke-dasharray="5,2" points="1054,-19 935,-19 935,0 1054,0 1054,-19"/>
<text text-anchor="middle" x="994.5" y="-7" font-family="Helvetica,sans-Serif" font-size="10.00">IIeee80211Visualizer</text>
</a>
</g>
</g>
<!-- IntegratedMultiCanvasVisualizer&#45;&gt;IIeee80211Visualizer -->
<g id="edge8" class="edge">
<title>IntegratedMultiCanvasVisualizer&#45;&gt;IIeee80211Visualizer</title>
<path fill="none" stroke="black" d="M1766.46,-60.52C1621.96,-55.18 1325.27,-42.41 1064.23,-19.1"/>
<polygon fill="black" stroke="black" points="1064.45,-15.6 1054.18,-18.19 1063.83,-22.58 1064.45,-15.6"/>
</g>
<!-- IPacketDropVisualizer -->
<g id="node10" class="node">
<title>IPacketDropVisualizer</title>
<g id="a_node10"><a xlink:href="inet.visualizer.contract.IPacketDropVisualizer.html" xlink:title="Module Interface IPacketDropVisualizer" target="_parent">
<polygon fill="#fffcaf" stroke="black" stroke-dasharray="5,2" points="1195,-19 1072,-19 1072,0 1195,0 1195,-19"/>
<text text-anchor="middle" x="1133.5" y="-7" font-family="Helvetica,sans-Serif" font-size="10.00">IPacketDropVisualizer</text>
</a>
</g>
</g>
<!-- IntegratedMultiCanvasVisualizer&#45;&gt;IPacketDropVisualizer -->
<g id="edge9" class="edge">
<title>IntegratedMultiCanvasVisualizer&#45;&gt;IPacketDropVisualizer</title>
<path fill="none" stroke="black" d="M1766.33,-58.89C1643.25,-52.13 1412.68,-38.32 1205.23,-19.02"/>
<polygon fill="black" stroke="black" points="1205.34,-15.51 1195.05,-18.06 1204.68,-22.48 1205.34,-15.51"/>
</g>
<!-- INetworkConnectionVisualizer -->
<g id="node11" class="node">
<title>INetworkConnectionVisualizer</title>
<g id="a_node11"><a xlink:href="inet.visualizer.contract.INetworkConnectionVisualizer.html" xlink:title="Module Interface INetworkConnectionVisualizer" target="_parent">
<polygon fill="#fffcaf" stroke="black" stroke-dasharray="5,2" points="1377.5,-19 1213.5,-19 1213.5,0 1377.5,0 1377.5,-19"/>
<text text-anchor="middle" x="1295.5" y="-7" font-family="Helvetica,sans-Serif" font-size="10.00">INetworkConnectionVisualizer</text>
</a>
</g>
</g>
<!-- IntegratedMultiCanvasVisualizer&#45;&gt;INetworkConnectionVisualizer -->
<g id="edge10" class="edge">
<title>IntegratedMultiCanvasVisualizer&#45;&gt;INetworkConnectionVisualizer</title>
<path fill="none" stroke="black" d="M1766.23,-55.13C1663.06,-45.35 1493.11,-29.24 1388.11,-19.28"/>
<polygon fill="black" stroke="black" points="1388.13,-15.77 1377.84,-18.31 1387.47,-22.74 1388.13,-15.77"/>
</g>
<!-- IPhysicalLinkVisualizer -->
<g id="node12" class="node">
<title>IPhysicalLinkVisualizer</title>
<g id="a_node12"><a xlink:href="inet.visualizer.contract.IPhysicalLinkVisualizer.html" xlink:title="Module Interface IPhysicalLinkVisualizer" target="_parent">
<polygon fill="#fffcaf" stroke="black" stroke-dasharray="5,2" points="1523.5,-19 1395.5,-19 1395.5,0 1523.5,0 1523.5,-19"/>
<text text-anchor="middle" x="1459.5" y="-7" font-family="Helvetica,sans-Serif" font-size="10.00">IPhysicalLinkVisualizer</text>
</a>
</g>
</g>
<!-- IntegratedMultiCanvasVisualizer&#45;&gt;IPhysicalLinkVisualizer -->
<g id="edge11" class="edge">
<title>IntegratedMultiCanvasVisualizer&#45;&gt;IPhysicalLinkVisualizer</title>
<path fill="none" stroke="black" d="M1791.04,-54.98C1720.74,-45.55 1607.55,-30.36 1533.34,-20.41"/>
<polygon fill="black" stroke="black" points="1533.51,-16.9 1523.13,-19.04 1532.58,-23.84 1533.51,-16.9"/>
</g>
<!-- IStreamRedundancyConfigurationVisualizer -->
<g id="node13" class="node">
<title>IStreamRedundancyConfigurationVisualizer</title>
<g id="a_node13"><a xlink:href="inet.visualizer.contract.IStreamRedundancyConfigurationVisualizer.html" xlink:title="Module Interface IStreamRedundancyConfigurationVisualizer" target="_parent">
<polygon fill="#fffcaf" stroke="black" stroke-dasharray="5,2" points="1771,-19 1542,-19 1542,0 1771,0 1771,-19"/>
<text text-anchor="middle" x="1656.5" y="-7" font-family="Helvetica,sans-Serif" font-size="10.00">IStreamRedundancyConfigurationVisualizer</text>
</a>
</g>
</g>
<!-- IntegratedMultiCanvasVisualizer&#45;&gt;IStreamRedundancyConfigurationVisualizer -->
<g id="edge12" class="edge">
<title>IntegratedMultiCanvasVisualizer&#45;&gt;IStreamRedundancyConfigurationVisualizer</title>
<path fill="none" stroke="black" d="M1822.69,-54.98C1789.01,-45.97 1735.7,-31.7 1698.58,-21.76"/>
<polygon fill="black" stroke="black" points="1699.13,-18.29 1688.56,-19.08 1697.32,-25.05 1699.13,-18.29"/>
</g>
<!-- IRoutingTableVisualizer -->
<g id="node14" class="node">
<title>IRoutingTableVisualizer</title>
<g id="a_node14"><a xlink:href="inet.visualizer.contract.IRoutingTableVisualizer.html" xlink:title="Module Interface IRoutingTableVisualizer" target="_parent">
<polygon fill="#fffcaf" stroke="black" stroke-dasharray="5,2" points="1920,-19 1789,-19 1789,0 1920,0 1920,-19"/>
<text text-anchor="middle" x="1854.5" y="-7" font-family="Helvetica,sans-Serif" font-size="10.00">IRoutingTableVisualizer</text>
</a>
</g>
</g>
<!-- IntegratedMultiCanvasVisualizer&#45;&gt;IRoutingTableVisualizer -->
<g id="edge13" class="edge">
<title>IntegratedMultiCanvasVisualizer&#45;&gt;IRoutingTableVisualizer</title>
<path fill="none" stroke="black" d="M1854.5,-54.75C1854.5,-47.8 1854.5,-37.85 1854.5,-29.13"/>
<polygon fill="black" stroke="black" points="1858,-29.09 1854.5,-19.09 1851,-29.09 1858,-29.09"/>
</g>
<!-- INetworkNodeVisualizer -->
<g id="node15" class="node">
<title>INetworkNodeVisualizer</title>
<g id="a_node15"><a xlink:href="inet.visualizer.contract.INetworkNodeVisualizer.html" xlink:title="Module Interface INetworkNodeVisualizer" target="_parent">
<polygon fill="#fffcaf" stroke="black" stroke-dasharray="5,2" points="2072.5,-19 1938.5,-19 1938.5,0 2072.5,0 2072.5,-19"/>
<text text-anchor="middle" x="2005.5" y="-7" font-family="Helvetica,sans-Serif" font-size="10.00">INetworkNodeVisualizer</text>
</a>
</g>
</g>
<!-- IntegratedMultiCanvasVisualizer&#45;&gt;INetworkNodeVisualizer -->
<g id="edge14" class="edge">
<title>IntegratedMultiCanvasVisualizer&#45;&gt;INetworkNodeVisualizer</title>
<path fill="none" stroke="black" d="M1878.76,-54.98C1903.82,-46.19 1943.13,-32.39 1971.33,-22.49"/>
<polygon fill="black" stroke="black" points="1972.52,-25.78 1980.8,-19.17 1970.2,-19.18 1972.52,-25.78"/>
</g>
<!-- IQueueVisualizer -->
<g id="node16" class="node">
<title>IQueueVisualizer</title>
<g id="a_node16"><a xlink:href="inet.visualizer.contract.IQueueVisualizer.html" xlink:title="Module Interface IQueueVisualizer" target="_parent">
<polygon fill="#fffcaf" stroke="black" stroke-dasharray="5,2" points="2190,-19 2091,-19 2091,0 2190,0 2190,-19"/>
<text text-anchor="middle" x="2140.5" y="-7" font-family="Helvetica,sans-Serif" font-size="10.00">IQueueVisualizer</text>
</a>
</g>
</g>
<!-- IntegratedMultiCanvasVisualizer&#45;&gt;IQueueVisualizer -->
<g id="edge15" class="edge">
<title>IntegratedMultiCanvasVisualizer&#45;&gt;IQueueVisualizer</title>
<path fill="none" stroke="black" d="M1900.45,-54.98C1950.44,-45.72 2030.39,-30.9 2084.14,-20.94"/>
<polygon fill="black" stroke="black" points="2084.99,-24.35 2094.19,-19.08 2083.72,-17.46 2084.99,-24.35"/>
</g>
<!-- INetworkRouteVisualizer -->
<g id="node17" class="node">
<title>INetworkRouteVisualizer</title>
<g id="a_node17"><a xlink:href="inet.visualizer.contract.INetworkRouteVisualizer.html" xlink:title="Module Interface INetworkRouteVisualizer" target="_parent">
<polygon fill="#fffcaf" stroke="black" stroke-dasharray="5,2" points="2345,-19 2208,-19 2208,0 2345,0 2345,-19"/>
<text text-anchor="middle" x="2276.5" y="-7" font-family="Helvetica,sans-Serif" font-size="10.00">INetworkRouteVisualizer</text>
</a>
</g>
</g>
<!-- IntegratedMultiCanvasVisualizer&#45;&gt;INetworkRouteVisualizer -->
<g id="edge16" class="edge">
<title>IntegratedMultiCanvasVisualizer&#45;&gt;INetworkRouteVisualizer</title>
<path fill="none" stroke="black" d="M1922.3,-54.98C1997.71,-45.51 2119.32,-30.24 2198.59,-20.29"/>
<polygon fill="black" stroke="black" points="2199.03,-23.76 2208.52,-19.04 2198.16,-16.81 2199.03,-23.76"/>
</g>
<!-- ITransportConnectionVisualizer -->
<g id="node18" class="node">
<title>ITransportConnectionVisualizer</title>
<g id="a_node18"><a xlink:href="inet.visualizer.contract.ITransportConnectionVisualizer.html" xlink:title="Module Interface ITransportConnectionVisualizer" target="_parent">
<polygon fill="#fffcaf" stroke="black" stroke-dasharray="5,2" points="2531.5,-19 2363.5,-19 2363.5,0 2531.5,0 2531.5,-19"/>
<text text-anchor="middle" x="2447.5" y="-7" font-family="Helvetica,sans-Serif" font-size="10.00">ITransportConnectionVisualizer</text>
</a>
</g>
</g>
<!-- IntegratedMultiCanvasVisualizer&#45;&gt;ITransportConnectionVisualizer -->
<g id="edge17" class="edge">
<title>IntegratedMultiCanvasVisualizer&#45;&gt;ITransportConnectionVisualizer</title>
<path fill="none" stroke="black" d="M1942.57,-55.73C2040.21,-47.09 2202.7,-32.68 2353.01,-19.13"/>
<polygon fill="black" stroke="black" points="2353.71,-22.58 2363.35,-18.2 2353.08,-15.61 2353.71,-22.58"/>
</g>
<!-- ILinkBreakVisualizer -->
<g id="node19" class="node">
<title>ILinkBreakVisualizer</title>
<g id="a_node19"><a xlink:href="inet.visualizer.contract.ILinkBreakVisualizer.html" xlink:title="Module Interface ILinkBreakVisualizer" target="_parent">
<polygon fill="#fffcaf" stroke="black" stroke-dasharray="5,2" points="2665.5,-19 2549.5,-19 2549.5,0 2665.5,0 2665.5,-19"/>
<text text-anchor="middle" x="2607.5" y="-7" font-family="Helvetica,sans-Serif" font-size="10.00">ILinkBreakVisualizer</text>
</a>
</g>
</g>
<!-- IntegratedMultiCanvasVisualizer&#45;&gt;ILinkBreakVisualizer -->
<g id="edge18" class="edge">
<title>IntegratedMultiCanvasVisualizer&#45;&gt;ILinkBreakVisualizer</title>
<path fill="none" stroke="black" d="M1942.62,-59.52C2071.35,-53.31 2318.58,-39.94 2539.26,-19.06"/>
<polygon fill="black" stroke="black" points="2539.8,-22.52 2549.42,-18.09 2539.13,-15.55 2539.8,-22.52"/>
</g>
<!-- IMediumVisualizer -->
<g id="node20" class="node">
<title>IMediumVisualizer</title>
<g id="a_node20"><a xlink:href="inet.visualizer.contract.IMediumVisualizer.html" xlink:title="Module Interface IMediumVisualizer" target="_parent">
<polygon fill="#fffcaf" stroke="black" stroke-dasharray="5,2" points="2791,-19 2684,-19 2684,0 2791,0 2791,-19"/>
<text text-anchor="middle" x="2737.5" y="-7" font-family="Helvetica,sans-Serif" font-size="10.00">IMediumVisualizer</text>
</a>
</g>
</g>
<!-- IntegratedMultiCanvasVisualizer&#45;&gt;IMediumVisualizer -->
<g id="edge19" class="edge">
<title>IntegratedMultiCanvasVisualizer&#45;&gt;IMediumVisualizer</title>
<path fill="none" stroke="black" d="M1942.65,-61.03C2091.2,-56.35 2401.04,-44.4 2673.82,-18.97"/>
<polygon fill="black" stroke="black" points="2674.29,-22.45 2683.92,-18.03 2673.63,-15.48 2674.29,-22.45"/>
</g>
<!-- IInterfaceTableVisualizer -->
<g id="node21" class="node">
<title>IInterfaceTableVisualizer</title>
<g id="a_node21"><a xlink:href="inet.visualizer.contract.IInterfaceTableVisualizer.html" xlink:title="Module Interface IInterfaceTableVisualizer" target="_parent">
<polygon fill="#fffcaf" stroke="black" stroke-dasharray="5,2" points="2946,-19 2809,-19 2809,0 2946,0 2946,-19"/>
<text text-anchor="middle" x="2877.5" y="-7" font-family="Helvetica,sans-Serif" font-size="10.00">IInterfaceTableVisualizer</text>
</a>
</g>
</g>
<!-- IntegratedMultiCanvasVisualizer&#45;&gt;IInterfaceTableVisualizer -->
<g id="edge20" class="edge">
<title>IntegratedMultiCanvasVisualizer&#45;&gt;IInterfaceTableVisualizer</title>
<path fill="none" stroke="black" d="M1942.65,-61.21C2108.25,-56.49 2477.34,-44.05 2798.24,-19.13"/>
<polygon fill="black" stroke="black" points="2798.98,-22.58 2808.67,-18.31 2798.43,-15.61 2798.98,-22.58"/>
</g>
<!-- IEnergyStorageVisualizer -->
<g id="node22" class="node">
<title>IEnergyStorageVisualizer</title>
<g id="a_node22"><a xlink:href="inet.visualizer.contract.IEnergyStorageVisualizer.html" xlink:title="Module Interface IEnergyStorageVisualizer" target="_parent">
<polygon fill="#fffcaf" stroke="black" stroke-dasharray="5,2" points="3103,-19 2964,-19 2964,0 3103,0 3103,-19"/>
<text text-anchor="middle" x="3033.5" y="-7" font-family="Helvetica,sans-Serif" font-size="10.00">IEnergyStorageVisualizer</text>
</a>
</g>
</g>
<!-- IntegratedMultiCanvasVisualizer&#45;&gt;IEnergyStorageVisualizer -->
<g id="edge21" class="edge">
<title>IntegratedMultiCanvasVisualizer&#45;&gt;IEnergyStorageVisualizer</title>
<path fill="none" stroke="black" d="M1942.74,-61.97C2128.07,-58.32 2571.56,-47.25 2953.63,-19.09"/>
<polygon fill="black" stroke="black" points="2954.07,-22.57 2963.78,-18.34 2953.55,-15.59 2954.07,-22.57"/>
</g>
<!-- IFailureProtectionConfigurationVisualizer -->
<g id="node23" class="node">
<title>IFailureProtectionConfigurationVisualizer</title>
<g id="a_node23"><a xlink:href="inet.visualizer.contract.IFailureProtectionConfigurationVisualizer.html" xlink:title="Module Interface IFailureProtectionConfigurationVisualizer" target="_parent">
<polygon fill="#fffcaf" stroke="black" stroke-dasharray="5,2" points="3337.5,-19 3121.5,-19 3121.5,0 3337.5,0 3337.5,-19"/>
<text text-anchor="middle" x="3229.5" y="-7" font-family="Helvetica,sans-Serif" font-size="10.00">IFailureProtectionConfigurationVisualizer</text>
</a>
</g>
</g>
<!-- IntegratedMultiCanvasVisualizer&#45;&gt;IFailureProtectionConfigurationVisualizer -->
<g id="edge22" class="edge">
<title>IntegratedMultiCanvasVisualizer&#45;&gt;IFailureProtectionConfigurationVisualizer</title>
<path fill="none" stroke="black" d="M1942.63,-61.51C2146.3,-56.66 2665.66,-42.91 3111.27,-19.04"/>
<polygon fill="black" stroke="black" points="3111.66,-22.53 3121.46,-18.5 3111.28,-15.54 3111.66,-22.53"/>
</g>
<!-- ITransportRouteVisualizer -->
<g id="node24" class="node">
<title>ITransportRouteVisualizer</title>
<g id="a_node24"><a xlink:href="inet.visualizer.contract.ITransportRouteVisualizer.html" xlink:title="Module Interface ITransportRouteVisualizer" target="_parent">
<polygon fill="#fffcaf" stroke="black" stroke-dasharray="5,2" points="3497.5,-19 3355.5,-19 3355.5,0 3497.5,0 3497.5,-19"/>
<text text-anchor="middle" x="3426.5" y="-7" font-family="Helvetica,sans-Serif" font-size="10.00">ITransportRouteVisualizer</text>
</a>
</g>
</g>
<!-- IntegratedMultiCanvasVisualizer&#45;&gt;ITransportRouteVisualizer -->
<g id="edge23" class="edge">
<title>IntegratedMultiCanvasVisualizer&#45;&gt;ITransportRouteVisualizer</title>
<path fill="none" stroke="black" d="M1942.9,-63.21C2172.44,-61.94 2806.42,-55.23 3345.11,-19.03"/>
<polygon fill="black" stroke="black" points="3345.68,-22.5 3355.42,-18.34 3345.21,-15.52 3345.68,-22.5"/>
</g>
<!-- IPhysicalEnvironmentVisualizer -->
<g id="node25" class="node">
<title>IPhysicalEnvironmentVisualizer</title>
<g id="a_node25"><a xlink:href="inet.visualizer.contract.IPhysicalEnvironmentVisualizer.html" xlink:title="Module Interface IPhysicalEnvironmentVisualizer" target="_parent">
<polygon fill="#fffcaf" stroke="black" stroke-dasharray="5,2" points="3685.5,-19 3515.5,-19 3515.5,0 3685.5,0 3685.5,-19"/>
<text text-anchor="middle" x="3600.5" y="-7" font-family="Helvetica,sans-Serif" font-size="10.00">IPhysicalEnvironmentVisualizer</text>
</a>
</g>
</g>
<!-- IntegratedMultiCanvasVisualizer&#45;&gt;IPhysicalEnvironmentVisualizer -->
<g id="edge24" class="edge">
<title>IntegratedMultiCanvasVisualizer&#45;&gt;IPhysicalEnvironmentVisualizer</title>
<path fill="none" stroke="black" d="M1942.78,-63.09C2188.54,-61.51 2901.61,-54.07 3505.25,-19.03"/>
<polygon fill="black" stroke="black" points="3505.68,-22.51 3515.46,-18.43 3505.28,-15.52 3505.68,-22.51"/>
</g>
<!-- ISceneVisualizer -->
<g id="node26" class="node">
<title>ISceneVisualizer</title>
<g id="a_node26"><a xlink:href="inet.visualizer.contract.ISceneVisualizer.html" xlink:title="Module Interface ISceneVisualizer" target="_parent">
<polygon fill="#fffcaf" stroke="black" stroke-dasharray="5,2" points="3801,-19 3704,-19 3704,0 3801,0 3801,-19"/>
<text text-anchor="middle" x="3752.5" y="-7" font-family="Helvetica,sans-Serif" font-size="10.00">ISceneVisualizer</text>
</a>
</g>
</g>
<!-- IntegratedMultiCanvasVisualizer&#45;&gt;ISceneVisualizer -->
<g id="edge25" class="edge">
<title>IntegratedMultiCanvasVisualizer&#45;&gt;ISceneVisualizer</title>
<path fill="none" stroke="black" d="M1942.51,-62.79C2257.36,-60.03 3327.84,-48.69 3693.72,-18.91"/>
<polygon fill="black" stroke="black" points="3694.14,-22.39 3703.82,-18.07 3693.56,-15.42 3694.14,-22.39"/>
</g>
<!-- MultiRadioShowcase -->
<g id="node27" class="node">
<title>MultiRadioShowcase</title>
<g id="a_node27"><a xlink:href="inet.showcases.wireless.multiradio.MultiRadioShowcase.html" xlink:title="Network MultiRadioShowcase" target="_parent">
<polygon fill="#d0d0ff" stroke="black" points="1832.5,-129 1714.5,-129 1714.5,-110 1832.5,-110 1832.5,-129"/>
<text text-anchor="middle" x="1773.5" y="-117" font-family="Helvetica,sans-Serif" font-size="10.00">MultiRadioShowcase</text>
</a>
</g>
</g>
<!-- MultiRadioShowcase&#45;&gt;IntegratedMultiCanvasVisualizer -->
<g id="edge26" class="edge">
<title>MultiRadioShowcase&#45;&gt;IntegratedMultiCanvasVisualizer</title>
<path fill="none" stroke="black" d="M1786.51,-109.98C1798.96,-101.84 1817.96,-89.41 1832.71,-79.76"/>
<polygon fill="black" stroke="black" points="1834.8,-82.57 1841.25,-74.17 1830.96,-76.72 1834.8,-82.57"/>
</g>
<!-- RegressionTestingTutorialWired -->
<g id="node28" class="node">
<title>RegressionTestingTutorialWired</title>
<g id="a_node28"><a xlink:href="inet.tutorials.fingerprint.RegressionTestingTutorialWired.html" xlink:title="Network RegressionTestingTutorialWired" target="_parent">
<polygon fill="#d0d0ff" stroke="black" points="2020.5,-129 1850.5,-129 1850.5,-110 2020.5,-110 2020.5,-129"/>
<text text-anchor="middle" x="1935.5" y="-117" font-family="Helvetica,sans-Serif" font-size="10.00">RegressionTestingTutorialWired</text>
</a>
</g>
</g>
<!-- RegressionTestingTutorialWired&#45;&gt;IntegratedMultiCanvasVisualizer -->
<g id="edge27" class="edge">
<title>RegressionTestingTutorialWired&#45;&gt;IntegratedMultiCanvasVisualizer</title>
<path fill="none" stroke="black" d="M1922.49,-109.98C1910.04,-101.84 1891.04,-89.41 1876.29,-79.76"/>
<polygon fill="black" stroke="black" points="1878.04,-76.72 1867.75,-74.17 1874.2,-82.57 1878.04,-76.72"/>
</g>
</g>
</svg>
