<?xml version="1.0" encoding="UTF-8" standalone="no"?>
<!DOCTYPE svg PUBLIC "-//W3C//DTD SVG 1.1//EN"
 "http://www.w3.org/Graphics/SVG/1.1/DTD/svg11.dtd">
<!-- Generated by graphviz version 2.43.0 (0)
 -->
<!-- Title: opp Pages: 1 -->
<svg width="345pt" height="82pt"
 viewBox="0.00 0.00 344.50 82.00" xmlns="http://www.w3.org/2000/svg" xmlns:xlink="http://www.w3.org/1999/xlink">
<g id="graph0" class="graph" transform="scale(1 1) rotate(0) translate(4 78)">
<title>opp</title>
<polygon fill="transparent" stroke="transparent" points="-4,4 -4,-78 340.5,-78 340.5,4 -4,4"/>
<!-- ProviderCollectorTutorialStep -->
<g id="node1" class="node">
<title>ProviderCollectorTutorialStep</title>
<g id="a_node1"><a xlink:href="inet.tutorials.queueing.ProviderCollectorTutorialStep.html" xlink:title="Network ProviderCollectorTutorialStep" target="_parent">
<polygon fill="#9090ff" stroke="black" points="237,-74 79,-74 79,-55 237,-55 237,-74"/>
<text text-anchor="middle" x="158" y="-62" font-family="Helvetica,sans-Serif" font-size="10.00">ProviderCollectorTutorialStep</text>
</a>
</g>
</g>
<!-- IdealChannel -->
<g id="node2" class="node">
<title>IdealChannel</title>
<g id="a_node2"><a xlink:href="ned.IdealChannel.html" xlink:title="Channel IdealChannel" target="_parent">
<polygon fill="#d0ffd0" stroke="black" points="80,-19 0,-19 0,0 80,0 80,-19"/>
<text text-anchor="middle" x="40" y="-7" font-family="Helvetica,sans-Serif" font-size="10.00">IdealChannel</text>
</a>
</g>
</g>
<!-- ProviderCollectorTutorialStep&#45;&gt;IdealChannel -->
<g id="edge1" class="edge">
<title>ProviderCollectorTutorialStep&#45;&gt;IdealChannel</title>
<path fill="none" stroke="black" d="M139.04,-54.98C119.97,-46.42 90.34,-33.11 68.45,-23.28"/>
<polygon fill="black" stroke="black" points="69.86,-20.07 59.3,-19.17 66.99,-26.46 69.86,-20.07"/>
</g>
<!-- PassivePacketSource -->
<g id="node3" class="node">
<title>PassivePacketSource</title>
<g id="a_node3"><a xlink:href="inet.queueing.source.PassivePacketSource.html" xlink:title="Simple Module PassivePacketSource" target="_parent">
<polygon fill="#fffcaf" stroke="black" points="217.5,-19 98.5,-19 98.5,0 217.5,0 217.5,-19"/>
<text text-anchor="middle" x="158" y="-7" font-family="Helvetica,sans-Serif" font-size="10.00">PassivePacketSource</text>
</a>
</g>
</g>
<!-- ProviderCollectorTutorialStep&#45;&gt;PassivePacketSource -->
<g id="edge2" class="edge">
<title>ProviderCollectorTutorialStep&#45;&gt;PassivePacketSource</title>
<path fill="none" stroke="black" d="M158,-54.75C158,-47.8 158,-37.85 158,-29.13"/>
<polygon fill="black" stroke="black" points="161.5,-29.09 158,-19.09 154.5,-29.09 161.5,-29.09"/>
</g>
<!-- ActivePacketSink -->
<g id="node4" class="node">
<title>ActivePacketSink</title>
<g id="a_node4"><a xlink:href="inet.queueing.sink.ActivePacketSink.html" xlink:title="Simple Module ActivePacketSink" target="_parent">
<polygon fill="#fffcaf" stroke="black" points="336.5,-19 235.5,-19 235.5,0 336.5,0 336.5,-19"/>
<text text-anchor="middle" x="286" y="-7" font-family="Helvetica,sans-Serif" font-size="10.00">ActivePacketSink</text>
</a>
</g>
</g>
<!-- ProviderCollectorTutorialStep&#45;&gt;ActivePacketSink -->
<g id="edge3" class="edge">
<title>ProviderCollectorTutorialStep&#45;&gt;ActivePacketSink</title>
<path fill="none" stroke="black" d="M178.57,-54.98C199.43,-46.34 231.97,-32.87 255.77,-23.02"/>
<polygon fill="black" stroke="black" points="257.16,-26.23 265.06,-19.17 254.48,-19.76 257.16,-26.23"/>
</g>
</g>
</svg>
