<?xml version="1.0" encoding="UTF-8" standalone="no"?>
<!DOCTYPE svg PUBLIC "-//W3C//DTD SVG 1.1//EN"
 "http://www.w3.org/Graphics/SVG/1.1/DTD/svg11.dtd">
<!-- Generated by graphviz version 2.43.0 (0)
 -->
<!-- Title: opp Pages: 1 -->
<svg width="128pt" height="137pt"
 viewBox="0.00 0.00 128.00 137.00" xmlns="http://www.w3.org/2000/svg" xmlns:xlink="http://www.w3.org/1999/xlink">
<g id="graph0" class="graph" transform="scale(1 1) rotate(0) translate(4 133)">
<title>opp</title>
<polygon fill="transparent" stroke="transparent" points="-4,4 -4,-133 124,-133 124,4 -4,4"/>
<!-- PacketBufferBase -->
<g id="node1" class="node">
<title>PacketBufferBase</title>
<g id="a_node1"><a xlink:href="inet.queueing.base.PacketBufferBase.html" xlink:title="Simple Module PacketBufferBase" target="_parent">
<polygon fill="#fff700" stroke="black" points="111.5,-74 8.5,-74 8.5,-55 111.5,-55 111.5,-74"/>
<text text-anchor="middle" x="60" y="-62" font-family="Helvetica,sans-Serif" font-size="10.00">PacketBufferBase</text>
</a>
</g>
</g>
<!-- PacketBuffer -->
<g id="node3" class="node">
<title>PacketBuffer</title>
<g id="a_node3"><a xlink:href="inet.queueing.buffer.PacketBuffer.html" xlink:title="Simple Module PacketBuffer" target="_parent">
<polygon fill="#fffcaf" stroke="black" points="99.5,-19 20.5,-19 20.5,0 99.5,0 99.5,-19"/>
<text text-anchor="middle" x="60" y="-7" font-family="Helvetica,sans-Serif" font-size="10.00">PacketBuffer</text>
</a>
</g>
</g>
<!-- PacketBufferBase&#45;&gt;PacketBuffer -->
<g id="edge2" class="edge">
<title>PacketBufferBase&#45;&gt;PacketBuffer</title>
<path fill="none" stroke="black" d="M60,-54.75C60,-44.87 60,-28.9 60,-19.09"/>
</g>
<!-- PacketProcessorBase -->
<g id="node2" class="node">
<title>PacketProcessorBase</title>
<g id="a_node2"><a xlink:href="inet.queueing.base.PacketProcessorBase.html" xlink:title="Simple Module PacketProcessorBase" target="_parent">
<polygon fill="#fffcaf" stroke="black" points="120,-129 0,-129 0,-110 120,-110 120,-129"/>
<text text-anchor="middle" x="60" y="-117" font-family="Helvetica,sans-Serif" font-size="10.00">PacketProcessorBase</text>
</a>
</g>
</g>
<!-- PacketProcessorBase&#45;&gt;PacketBufferBase -->
<g id="edge1" class="edge">
<title>PacketProcessorBase&#45;&gt;PacketBufferBase</title>
<path fill="none" stroke="black" d="M60,-109.75C60,-99.87 60,-83.9 60,-74.09"/>
</g>
</g>
</svg>
