<?xml version="1.0" encoding="UTF-8" standalone="no"?>
<!DOCTYPE svg PUBLIC "-//W3C//DTD SVG 1.1//EN"
 "http://www.w3.org/Graphics/SVG/1.1/DTD/svg11.dtd">
<!-- Generated by graphviz version 2.43.0 (0)
 -->
<!-- Title: opp Pages: 1 -->
<svg width="346pt" height="137pt"
 viewBox="0.00 0.00 346.00 137.00" xmlns="http://www.w3.org/2000/svg" xmlns:xlink="http://www.w3.org/1999/xlink">
<g id="graph0" class="graph" transform="scale(1 1) rotate(0) translate(4 133)">
<title>opp</title>
<polygon fill="transparent" stroke="transparent" points="-4,4 -4,-133 342,-133 342,4 -4,4"/>
<!-- Ieee80211TransmitterBase -->
<g id="node1" class="node">
<title>Ieee80211TransmitterBase</title>
<g id="a_node1"><a xlink:href="inet.physicallayer.wireless.ieee80211.packetlevel.Ieee80211TransmitterBase.html" xlink:title="Compound Module Ieee80211TransmitterBase" target="_parent">
<polygon fill="#fff700" stroke="black" points="240,-74 92,-74 92,-55 240,-55 240,-74"/>
<text text-anchor="middle" x="166" y="-62" font-family="Helvetica,sans-Serif" font-size="10.00">Ieee80211TransmitterBase</text>
</a>
</g>
</g>
<!-- Ieee80211ScalarTransmitter -->
<g id="node3" class="node">
<title>Ieee80211ScalarTransmitter</title>
<g id="a_node3"><a xlink:href="inet.physicallayer.wireless.ieee80211.packetlevel.Ieee80211ScalarTransmitter.html" xlink:title="Compound Module Ieee80211ScalarTransmitter" target="_parent">
<polygon fill="#fffcaf" stroke="black" points="154,-19 0,-19 0,0 154,0 154,-19"/>
<text text-anchor="middle" x="77" y="-7" font-family="Helvetica,sans-Serif" font-size="10.00">Ieee80211ScalarTransmitter</text>
</a>
</g>
</g>
<!-- Ieee80211TransmitterBase&#45;&gt;Ieee80211ScalarTransmitter -->
<g id="edge2" class="edge">
<title>Ieee80211TransmitterBase&#45;&gt;Ieee80211ScalarTransmitter</title>
<path fill="none" stroke="black" d="M151.7,-54.98C135.19,-45.15 108.18,-29.07 91.56,-19.17"/>
</g>
<!-- Ieee80211UnitDiskTransmitter -->
<g id="node4" class="node">
<title>Ieee80211UnitDiskTransmitter</title>
<g id="a_node4"><a xlink:href="inet.physicallayer.wireless.ieee80211.packetlevel.Ieee80211UnitDiskTransmitter.html" xlink:title="Compound Module Ieee80211UnitDiskTransmitter" target="_parent">
<polygon fill="#fffcaf" stroke="black" points="338,-19 172,-19 172,0 338,0 338,-19"/>
<text text-anchor="middle" x="255" y="-7" font-family="Helvetica,sans-Serif" font-size="10.00">Ieee80211UnitDiskTransmitter</text>
</a>
</g>
</g>
<!-- Ieee80211TransmitterBase&#45;&gt;Ieee80211UnitDiskTransmitter -->
<g id="edge3" class="edge">
<title>Ieee80211TransmitterBase&#45;&gt;Ieee80211UnitDiskTransmitter</title>
<path fill="none" stroke="black" d="M180.3,-54.98C196.81,-45.15 223.82,-29.07 240.44,-19.17"/>
</g>
<!-- NarrowbandTransmitterBase -->
<g id="node2" class="node">
<title>NarrowbandTransmitterBase</title>
<g id="a_node2"><a xlink:href="inet.physicallayer.wireless.common.base.packetlevel.NarrowbandTransmitterBase.html" xlink:title="Compound Module NarrowbandTransmitterBase" target="_parent">
<polygon fill="#fffcaf" stroke="black" points="244,-129 88,-129 88,-110 244,-110 244,-129"/>
<text text-anchor="middle" x="166" y="-117" font-family="Helvetica,sans-Serif" font-size="10.00">NarrowbandTransmitterBase</text>
</a>
</g>
</g>
<!-- NarrowbandTransmitterBase&#45;&gt;Ieee80211TransmitterBase -->
<g id="edge1" class="edge">
<title>NarrowbandTransmitterBase&#45;&gt;Ieee80211TransmitterBase</title>
<path fill="none" stroke="black" d="M166,-109.75C166,-99.87 166,-83.9 166,-74.09"/>
</g>
</g>
</svg>
