<?xml version="1.0" encoding="UTF-8" standalone="no"?>
<!DOCTYPE svg PUBLIC "-//W3C//DTD SVG 1.1//EN"
 "http://www.w3.org/Graphics/SVG/1.1/DTD/svg11.dtd">
<!-- Generated by graphviz version 2.43.0 (0)
 -->
<!-- Title: opp Pages: 1 -->
<svg width="631pt" height="82pt"
 viewBox="0.00 0.00 631.00 82.00" xmlns="http://www.w3.org/2000/svg" xmlns:xlink="http://www.w3.org/1999/xlink">
<g id="graph0" class="graph" transform="scale(1 1) rotate(0) translate(4 78)">
<title>opp</title>
<polygon fill="transparent" stroke="transparent" points="-4,4 -4,-78 627,-78 627,4 -4,4"/>
<!-- IPathLoss -->
<g id="node1" class="node">
<title>IPathLoss</title>
<g id="a_node1"><a xlink:href="inet.physicallayer.wireless.common.contract.packetlevel.IPathLoss.html" xlink:title="Module Interface IPathLoss" target="_parent">
<polygon fill="#fff700" stroke="black" stroke-dasharray="5,2" points="329,-74 266,-74 266,-55 329,-55 329,-74"/>
<text text-anchor="middle" x="297.5" y="-62" font-family="Helvetica,sans-Serif" font-size="10.00">IPathLoss</text>
</a>
</g>
</g>
<!-- BreakpointPathLoss -->
<g id="node2" class="node">
<title>BreakpointPathLoss</title>
<g id="a_node2"><a xlink:href="inet.physicallayer.wireless.common.pathloss.BreakpointPathLoss.html" xlink:title="Compound Module BreakpointPathLoss" target="_parent">
<polygon fill="#fffcaf" stroke="black" points="113,-19 0,-19 0,0 113,0 113,-19"/>
<text text-anchor="middle" x="56.5" y="-7" font-family="Helvetica,sans-Serif" font-size="10.00">BreakpointPathLoss</text>
</a>
</g>
</g>
<!-- IPathLoss&#45;&gt;BreakpointPathLoss -->
<g id="edge1" class="edge">
<title>IPathLoss&#45;&gt;BreakpointPathLoss</title>
<path fill="none" stroke="black" stroke-dasharray="5,2" d="M265.99,-56.57C222.1,-46.92 142.62,-29.44 95.19,-19.01"/>
</g>
<!-- FreeSpacePathLoss -->
<g id="node3" class="node">
<title>FreeSpacePathLoss</title>
<g id="a_node3"><a xlink:href="inet.physicallayer.wireless.common.pathloss.FreeSpacePathLoss.html" xlink:title="Compound Module FreeSpacePathLoss" target="_parent">
<polygon fill="#fffcaf" stroke="black" points="241.5,-19 131.5,-19 131.5,0 241.5,0 241.5,-19"/>
<text text-anchor="middle" x="186.5" y="-7" font-family="Helvetica,sans-Serif" font-size="10.00">FreeSpacePathLoss</text>
</a>
</g>
</g>
<!-- IPathLoss&#45;&gt;FreeSpacePathLoss -->
<g id="edge2" class="edge">
<title>IPathLoss&#45;&gt;FreeSpacePathLoss</title>
<path fill="none" stroke="black" stroke-dasharray="5,2" d="M279.67,-54.98C259.07,-45.15 225.39,-29.07 204.66,-19.17"/>
</g>
<!-- SuiPathLoss -->
<g id="node4" class="node">
<title>SuiPathLoss</title>
<g id="a_node4"><a xlink:href="inet.physicallayer.wireless.common.pathloss.SuiPathLoss.html" xlink:title="Compound Module SuiPathLoss" target="_parent">
<polygon fill="#fffcaf" stroke="black" points="335,-19 260,-19 260,0 335,0 335,-19"/>
<text text-anchor="middle" x="297.5" y="-7" font-family="Helvetica,sans-Serif" font-size="10.00">SuiPathLoss</text>
</a>
</g>
</g>
<!-- IPathLoss&#45;&gt;SuiPathLoss -->
<g id="edge3" class="edge">
<title>IPathLoss&#45;&gt;SuiPathLoss</title>
<path fill="none" stroke="black" stroke-dasharray="5,2" d="M297.5,-54.75C297.5,-44.87 297.5,-28.9 297.5,-19.09"/>
</g>
<!-- TwoRayInterference -->
<g id="node5" class="node">
<title>TwoRayInterference</title>
<g id="a_node5"><a xlink:href="inet.physicallayer.wireless.common.pathloss.TwoRayInterference.html" xlink:title="Compound Module TwoRayInterference" target="_parent">
<polygon fill="#fffcaf" stroke="black" points="466,-19 353,-19 353,0 466,0 466,-19"/>
<text text-anchor="middle" x="409.5" y="-7" font-family="Helvetica,sans-Serif" font-size="10.00">TwoRayInterference</text>
</a>
</g>
</g>
<!-- IPathLoss&#45;&gt;TwoRayInterference -->
<g id="edge4" class="edge">
<title>IPathLoss&#45;&gt;TwoRayInterference</title>
<path fill="none" stroke="black" stroke-dasharray="5,2" d="M315.49,-54.98C336.27,-45.15 370.26,-29.07 391.18,-19.17"/>
</g>
<!-- UwbIrStochasticPathLoss -->
<g id="node6" class="node">
<title>UwbIrStochasticPathLoss</title>
<g id="a_node6"><a xlink:href="inet.physicallayer.wireless.common.pathloss.UwbIrStochasticPathLoss.html" xlink:title="Compound Module UwbIrStochasticPathLoss" target="_parent">
<polygon fill="#fffcaf" stroke="black" points="623,-19 484,-19 484,0 623,0 623,-19"/>
<text text-anchor="middle" x="553.5" y="-7" font-family="Helvetica,sans-Serif" font-size="10.00">UwbIrStochasticPathLoss</text>
</a>
</g>
</g>
<!-- IPathLoss&#45;&gt;UwbIrStochasticPathLoss -->
<g id="edge5" class="edge">
<title>IPathLoss&#45;&gt;UwbIrStochasticPathLoss</title>
<path fill="none" stroke="black" stroke-dasharray="5,2" d="M329.15,-56.95C375.3,-47.39 461.12,-29.63 512.2,-19.05"/>
</g>
</g>
</svg>
