<?xml version="1.0" encoding="UTF-8" standalone="no"?>
<!DOCTYPE svg PUBLIC "-//W3C//DTD SVG 1.1//EN"
 "http://www.w3.org/Graphics/SVG/1.1/DTD/svg11.dtd">
<!-- Generated by graphviz version 2.43.0 (0)
 -->
<!-- Title: opp Pages: 1 -->
<svg width="1778pt" height="82pt"
 viewBox="0.00 0.00 1778.00 82.00" xmlns="http://www.w3.org/2000/svg" xmlns:xlink="http://www.w3.org/1999/xlink">
<g id="graph0" class="graph" transform="scale(1 1) rotate(0) translate(4 78)">
<title>opp</title>
<polygon fill="transparent" stroke="transparent" points="-4,4 -4,-78 1774,-78 1774,4 -4,4"/>
<!-- IPassivePacketSink -->
<g id="node1" class="node">
<title>IPassivePacketSink</title>
<g id="a_node1"><a xlink:href="inet.queueing.contract.IPassivePacketSink.html" xlink:title="Module Interface IPassivePacketSink" target="_parent">
<polygon fill="#fff700" stroke="black" stroke-dasharray="5,2" points="1005.5,-74 895.5,-74 895.5,-55 1005.5,-55 1005.5,-74"/>
<text text-anchor="middle" x="950.5" y="-62" font-family="Helvetica,sans-Serif" font-size="10.00">IPassivePacketSink</text>
</a>
</g>
</g>
<!-- PacketBasedTokenGenerator -->
<g id="node2" class="node">
<title>PacketBasedTokenGenerator</title>
<g id="a_node2"><a xlink:href="inet.queueing.tokengenerator.PacketBasedTokenGenerator.html" xlink:title="Simple Module PacketBasedTokenGenerator" target="_parent">
<polygon fill="#fffcaf" stroke="black" points="155,-19 0,-19 0,0 155,0 155,-19"/>
<text text-anchor="middle" x="77.5" y="-7" font-family="Helvetica,sans-Serif" font-size="10.00">PacketBasedTokenGenerator</text>
</a>
</g>
</g>
<!-- IPassivePacketSink&#45;&gt;PacketBasedTokenGenerator -->
<g id="edge1" class="edge">
<title>IPassivePacketSink&#45;&gt;PacketBasedTokenGenerator</title>
<path fill="none" stroke="black" stroke-dasharray="5,2" d="M895.18,-61.15C766.74,-55.51 438.41,-40.13 164.5,-19 161.47,-18.77 158.39,-18.52 155.27,-18.26"/>
</g>
<!-- PacketCloner -->
<g id="node3" class="node">
<title>PacketCloner</title>
<g id="a_node3"><a xlink:href="inet.queueing.common.PacketCloner.html" xlink:title="Simple Module PacketCloner" target="_parent">
<polygon fill="#fffcaf" stroke="black" points="253.5,-19 173.5,-19 173.5,0 253.5,0 253.5,-19"/>
<text text-anchor="middle" x="213.5" y="-7" font-family="Helvetica,sans-Serif" font-size="10.00">PacketCloner</text>
</a>
</g>
</g>
<!-- IPassivePacketSink&#45;&gt;PacketCloner -->
<g id="edge2" class="edge">
<title>IPassivePacketSink&#45;&gt;PacketCloner</title>
<path fill="none" stroke="black" stroke-dasharray="5,2" d="M895.47,-61.94C778.56,-58.2 496.95,-46.84 262.5,-19 259.58,-18.65 256.58,-18.25 253.56,-17.81"/>
</g>
<!-- PacketDuplicator -->
<g id="node4" class="node">
<title>PacketDuplicator</title>
<g id="a_node4"><a xlink:href="inet.queueing.common.PacketDuplicator.html" xlink:title="Simple Module PacketDuplicator" target="_parent">
<polygon fill="#fffcaf" stroke="black" points="371,-19 272,-19 272,0 371,0 371,-19"/>
<text text-anchor="middle" x="321.5" y="-7" font-family="Helvetica,sans-Serif" font-size="10.00">PacketDuplicator</text>
</a>
</g>
</g>
<!-- IPassivePacketSink&#45;&gt;PacketDuplicator -->
<g id="edge3" class="edge">
<title>IPassivePacketSink&#45;&gt;PacketDuplicator</title>
<path fill="none" stroke="black" stroke-dasharray="5,2" d="M895.36,-60.39C793.48,-54.39 568.93,-39.91 380.5,-19 377.41,-18.66 374.24,-18.28 371.04,-17.88"/>
</g>
<!-- PacketHistory -->
<g id="node5" class="node">
<title>PacketHistory</title>
<g id="a_node5"><a xlink:href="inet.queueing.common.PacketHistory.html" xlink:title="Compound Module PacketHistory" target="_parent">
<polygon fill="#fffcaf" stroke="black" points="473.5,-19 389.5,-19 389.5,0 473.5,0 473.5,-19"/>
<text text-anchor="middle" x="431.5" y="-7" font-family="Helvetica,sans-Serif" font-size="10.00">PacketHistory</text>
</a>
</g>
</g>
<!-- IPassivePacketSink&#45;&gt;PacketHistory -->
<g id="edge4" class="edge">
<title>IPassivePacketSink&#45;&gt;PacketHistory</title>
<path fill="none" stroke="black" stroke-dasharray="5,2" d="M895.48,-59.6C807.71,-53.09 630.69,-38.73 481.5,-19 478.97,-18.67 476.37,-18.3 473.75,-17.91"/>
</g>
<!-- PacketPushToSend -->
<g id="node6" class="node">
<title>PacketPushToSend</title>
<g id="a_node6"><a xlink:href="inet.queueing.common.PacketPushToSend.html" xlink:title="Simple Module PacketPushToSend" target="_parent">
<polygon fill="#fffcaf" stroke="black" points="598,-19 491,-19 491,0 598,0 598,-19"/>
<text text-anchor="middle" x="544.5" y="-7" font-family="Helvetica,sans-Serif" font-size="10.00">PacketPushToSend</text>
</a>
</g>
</g>
<!-- IPassivePacketSink&#45;&gt;PacketPushToSend -->
<g id="edge5" class="edge">
<title>IPassivePacketSink&#45;&gt;PacketPushToSend</title>
<path fill="none" stroke="black" stroke-dasharray="5,2" d="M895.37,-56.5C827.42,-47.84 708.42,-32.58 606.5,-19 603.81,-18.64 601.05,-18.27 598.27,-17.9"/>
</g>
<!-- PassivePacketSink -->
<g id="node7" class="node">
<title>PassivePacketSink</title>
<g id="a_node7"><a xlink:href="inet.queueing.sink.PassivePacketSink.html" xlink:title="Simple Module PassivePacketSink" target="_parent">
<polygon fill="#fffcaf" stroke="black" points="723,-19 616,-19 616,0 723,0 723,-19"/>
<text text-anchor="middle" x="669.5" y="-7" font-family="Helvetica,sans-Serif" font-size="10.00">PassivePacketSink</text>
</a>
</g>
</g>
<!-- IPassivePacketSink&#45;&gt;PassivePacketSink -->
<g id="edge6" class="edge">
<title>IPassivePacketSink&#45;&gt;PassivePacketSink</title>
<path fill="none" stroke="black" stroke-dasharray="5,2" d="M905.35,-54.98C853.07,-45.12 767.43,-28.97 715,-19.08"/>
</g>
<!-- PcapFilePacketConsumer -->
<g id="node8" class="node">
<title>PcapFilePacketConsumer</title>
<g id="a_node8"><a xlink:href="inet.queueing.sink.PcapFilePacketConsumer.html" xlink:title="Simple Module PcapFilePacketConsumer" target="_parent">
<polygon fill="#fffcaf" stroke="black" points="879.5,-19 741.5,-19 741.5,0 879.5,0 879.5,-19"/>
<text text-anchor="middle" x="810.5" y="-7" font-family="Helvetica,sans-Serif" font-size="10.00">PcapFilePacketConsumer</text>
</a>
</g>
</g>
<!-- IPassivePacketSink&#45;&gt;PcapFilePacketConsumer -->
<g id="edge7" class="edge">
<title>IPassivePacketSink&#45;&gt;PcapFilePacketConsumer</title>
<path fill="none" stroke="black" stroke-dasharray="5,2" d="M928.01,-54.98C902.04,-45.15 859.55,-29.07 833.4,-19.17"/>
</g>
<!-- RequestConsumer -->
<g id="node9" class="node">
<title>RequestConsumer</title>
<g id="a_node9"><a xlink:href="inet.queueing.sink.RequestConsumer.html" xlink:title="Compound Module RequestConsumer" target="_parent">
<polygon fill="#fffcaf" stroke="black" points="1003.5,-19 897.5,-19 897.5,0 1003.5,0 1003.5,-19"/>
<text text-anchor="middle" x="950.5" y="-7" font-family="Helvetica,sans-Serif" font-size="10.00">RequestConsumer</text>
</a>
</g>
</g>
<!-- IPassivePacketSink&#45;&gt;RequestConsumer -->
<g id="edge8" class="edge">
<title>IPassivePacketSink&#45;&gt;RequestConsumer</title>
<path fill="none" stroke="black" stroke-dasharray="5,2" d="M950.5,-54.75C950.5,-44.87 950.5,-28.9 950.5,-19.09"/>
</g>
<!-- IPacketClassifier -->
<g id="node10" class="node">
<title>IPacketClassifier</title>
<g id="a_node10"><a xlink:href="inet.queueing.contract.IPacketClassifier.html" xlink:title="Module Interface IPacketClassifier" target="_parent">
<polygon fill="#fffcaf" stroke="black" stroke-dasharray="5,2" points="1119.5,-19 1021.5,-19 1021.5,0 1119.5,0 1119.5,-19"/>
<text text-anchor="middle" x="1070.5" y="-7" font-family="Helvetica,sans-Serif" font-size="10.00">IPacketClassifier</text>
</a>
</g>
</g>
<!-- IPassivePacketSink&#45;&gt;IPacketClassifier -->
<g id="edge9" class="edge">
<title>IPassivePacketSink&#45;&gt;IPacketClassifier</title>
<path fill="none" stroke="black" d="M969.78,-54.98C992.04,-45.15 1028.46,-29.07 1050.87,-19.17"/>
</g>
<!-- IPacketDelayer -->
<g id="node11" class="node">
<title>IPacketDelayer</title>
<g id="a_node11"><a xlink:href="inet.queueing.contract.IPacketDelayer.html" xlink:title="Module Interface IPacketDelayer" target="_parent">
<polygon fill="#fffcaf" stroke="black" stroke-dasharray="5,2" points="1227.5,-19 1137.5,-19 1137.5,0 1227.5,0 1227.5,-19"/>
<text text-anchor="middle" x="1182.5" y="-7" font-family="Helvetica,sans-Serif" font-size="10.00">IPacketDelayer</text>
</a>
</g>
</g>
<!-- IPassivePacketSink&#45;&gt;IPacketDelayer -->
<g id="edge10" class="edge">
<title>IPassivePacketSink&#45;&gt;IPacketDelayer</title>
<path fill="none" stroke="black" d="M987.77,-54.98C1030.94,-45.12 1101.64,-28.97 1144.93,-19.08"/>
</g>
<!-- IPacketPolicing -->
<g id="node12" class="node">
<title>IPacketPolicing</title>
<g id="a_node12"><a xlink:href="inet.queueing.contract.IPacketPolicing.html" xlink:title="Module Interface IPacketPolicing" target="_parent">
<polygon fill="#fffcaf" stroke="black" stroke-dasharray="5,2" points="1335.5,-19 1245.5,-19 1245.5,0 1335.5,0 1335.5,-19"/>
<text text-anchor="middle" x="1290.5" y="-7" font-family="Helvetica,sans-Serif" font-size="10.00">IPacketPolicing</text>
</a>
</g>
</g>
<!-- IPassivePacketSink&#45;&gt;IPacketPolicing -->
<g id="edge11" class="edge">
<title>IPassivePacketSink&#45;&gt;IPacketPolicing</title>
<path fill="none" stroke="black" d="M1005.33,-55C1062.91,-46.06 1156.07,-31.59 1236.5,-19 1239.41,-18.55 1242.4,-18.08 1245.42,-17.6"/>
</g>
<!-- IPacketPusher -->
<g id="node13" class="node">
<title>IPacketPusher</title>
<g id="a_node13"><a xlink:href="inet.queueing.contract.IPacketPusher.html" xlink:title="Module Interface IPacketPusher" target="_parent">
<polygon fill="#fffcaf" stroke="black" stroke-dasharray="5,2" points="1439,-19 1354,-19 1354,0 1439,0 1439,-19"/>
<text text-anchor="middle" x="1396.5" y="-7" font-family="Helvetica,sans-Serif" font-size="10.00">IPacketPusher</text>
</a>
</g>
</g>
<!-- IPassivePacketSink&#45;&gt;IPacketPusher -->
<g id="edge12" class="edge">
<title>IPassivePacketSink&#45;&gt;IPacketPusher</title>
<path fill="none" stroke="black" d="M1005.75,-58.13C1082.06,-50.52 1223.97,-35.65 1344.5,-19 1347.58,-18.57 1350.76,-18.11 1353.96,-17.63"/>
</g>
<!-- IPacketQueue -->
<g id="node14" class="node">
<title>IPacketQueue</title>
<g id="a_node14"><a xlink:href="inet.queueing.contract.IPacketQueue.html" xlink:title="Module Interface IPacketQueue" target="_parent">
<polygon fill="#fffcaf" stroke="black" stroke-dasharray="5,2" points="1540,-19 1457,-19 1457,0 1540,0 1540,-19"/>
<text text-anchor="middle" x="1498.5" y="-7" font-family="Helvetica,sans-Serif" font-size="10.00">IPacketQueue</text>
</a>
</g>
</g>
<!-- IPassivePacketSink&#45;&gt;IPacketQueue -->
<g id="edge13" class="edge">
<title>IPassivePacketSink&#45;&gt;IPacketQueue</title>
<path fill="none" stroke="black" d="M1005.56,-60.01C1097.53,-53.87 1288.17,-39.76 1448.5,-19 1451.21,-18.65 1453.99,-18.26 1456.8,-17.84"/>
</g>
<!-- IPacketShaper -->
<g id="node15" class="node">
<title>IPacketShaper</title>
<g id="a_node15"><a xlink:href="inet.queueing.contract.IPacketShaper.html" xlink:title="Module Interface IPacketShaper" target="_parent">
<polygon fill="#fffcaf" stroke="black" stroke-dasharray="5,2" points="1644.5,-19 1558.5,-19 1558.5,0 1644.5,0 1644.5,-19"/>
<text text-anchor="middle" x="1601.5" y="-7" font-family="Helvetica,sans-Serif" font-size="10.00">IPacketShaper</text>
</a>
</g>
</g>
<!-- IPassivePacketSink&#45;&gt;IPacketShaper -->
<g id="edge14" class="edge">
<title>IPassivePacketSink&#45;&gt;IPacketShaper</title>
<path fill="none" stroke="black" d="M1005.57,-61.03C1111.3,-55.93 1349.9,-42.68 1549.5,-19 1552.41,-18.66 1555.4,-18.26 1558.41,-17.84"/>
</g>
<!-- ITrafficConditioner -->
<g id="node16" class="node">
<title>ITrafficConditioner</title>
<g id="a_node16"><a xlink:href="inet.queueing.contract.ITrafficConditioner.html" xlink:title="Module Interface ITrafficConditioner" target="_parent">
<polygon fill="#fffcaf" stroke="black" stroke-dasharray="5,2" points="1770,-19 1663,-19 1663,0 1770,0 1770,-19"/>
<text text-anchor="middle" x="1716.5" y="-7" font-family="Helvetica,sans-Serif" font-size="10.00">ITrafficConditioner</text>
</a>
</g>
</g>
<!-- IPassivePacketSink&#45;&gt;ITrafficConditioner -->
<g id="edge15" class="edge">
<title>IPassivePacketSink&#45;&gt;ITrafficConditioner</title>
<path fill="none" stroke="black" d="M1005.75,-61.34C1124.5,-56.39 1412.84,-42.82 1653.5,-19 1656.58,-18.7 1659.73,-18.36 1662.91,-17.99"/>
</g>
</g>
</svg>
