<?xml version="1.0" encoding="UTF-8" standalone="no"?>
<!DOCTYPE svg PUBLIC "-//W3C//DTD SVG 1.1//EN"
 "http://www.w3.org/Graphics/SVG/1.1/DTD/svg11.dtd">
<!-- Generated by graphviz version 2.43.0 (0)
 -->
<!-- Title: opp Pages: 1 -->
<svg width="416pt" height="82pt"
 viewBox="0.00 0.00 415.50 82.00" xmlns="http://www.w3.org/2000/svg" xmlns:xlink="http://www.w3.org/1999/xlink">
<g id="graph0" class="graph" transform="scale(1 1) rotate(0) translate(4 78)">
<title>opp</title>
<polygon fill="transparent" stroke="transparent" points="-4,4 -4,-78 411.5,-78 411.5,4 -4,4"/>
<!-- NClients -->
<g id="node1" class="node">
<title>NClients</title>
<g id="a_node1"><a xlink:href="inet.examples.inet.nclients.NClients.html" xlink:title="Network NClients" target="_parent">
<polygon fill="#9090ff" stroke="black" points="209.5,-74 151.5,-74 151.5,-55 209.5,-55 209.5,-74"/>
<text text-anchor="middle" x="180.5" y="-62" font-family="Helvetica,sans-Serif" font-size="10.00">NClients</text>
</a>
</g>
</g>
<!-- StandardHost -->
<g id="node2" class="node">
<title>StandardHost</title>
<g id="a_node2"><a xlink:href="inet.node.inet.StandardHost.html" xlink:title="Compound Module StandardHost" target="_parent">
<polygon fill="#fffcaf" stroke="black" points="83,-19 0,-19 0,0 83,0 83,-19"/>
<text text-anchor="middle" x="41.5" y="-7" font-family="Helvetica,sans-Serif" font-size="10.00">StandardHost</text>
</a>
</g>
</g>
<!-- NClients&#45;&gt;StandardHost -->
<g id="edge1" class="edge">
<title>NClients&#45;&gt;StandardHost</title>
<path fill="none" stroke="black" d="M158.17,-54.98C135.3,-46.27 99.54,-32.63 73.64,-22.75"/>
<polygon fill="black" stroke="black" points="74.83,-19.46 64.24,-19.17 72.34,-26 74.83,-19.46"/>
</g>
<!-- ethernetline -->
<g id="node3" class="node">
<title>ethernetline</title>
<g id="a_node3"><a xlink:href="inet.examples.inet.nclients.NClients.ethernetline.html" xlink:title="Channel ethernetline" target="_parent">
<polygon fill="#d0ffd0" stroke="black" points="177.5,-19 101.5,-19 101.5,0 177.5,0 177.5,-19"/>
<text text-anchor="middle" x="139.5" y="-7" font-family="Helvetica,sans-Serif" font-size="10.00">ethernetline</text>
</a>
</g>
</g>
<!-- NClients&#45;&gt;ethernetline -->
<g id="edge2" class="edge">
<title>NClients&#45;&gt;ethernetline</title>
<path fill="none" stroke="black" d="M173.73,-54.75C167.94,-47.26 159.44,-36.28 152.36,-27.13"/>
<polygon fill="black" stroke="black" points="155.03,-24.86 146.14,-19.09 149.49,-29.14 155.03,-24.86"/>
</g>
<!-- Router -->
<g id="node4" class="node">
<title>Router</title>
<g id="a_node4"><a xlink:href="inet.node.inet.Router.html" xlink:title="Compound Module Router" target="_parent">
<polygon fill="#fffcaf" stroke="black" points="249.5,-19 195.5,-19 195.5,0 249.5,0 249.5,-19"/>
<text text-anchor="middle" x="222.5" y="-7" font-family="Helvetica,sans-Serif" font-size="10.00">Router</text>
</a>
</g>
</g>
<!-- NClients&#45;&gt;Router -->
<g id="edge3" class="edge">
<title>NClients&#45;&gt;Router</title>
<path fill="none" stroke="black" d="M187.44,-54.75C193.37,-47.26 202.07,-36.28 209.32,-27.13"/>
<polygon fill="black" stroke="black" points="212.23,-29.1 215.69,-19.09 206.74,-24.75 212.23,-29.1"/>
</g>
<!-- Ipv4NetworkConfigurator -->
<g id="node5" class="node">
<title>Ipv4NetworkConfigurator</title>
<g id="a_node5"><a xlink:href="inet.networklayer.configurator.ipv4.Ipv4NetworkConfigurator.html" xlink:title="Simple Module Ipv4NetworkConfigurator" target="_parent">
<polygon fill="#fffcaf" stroke="black" points="407.5,-19 267.5,-19 267.5,0 407.5,0 407.5,-19"/>
<text text-anchor="middle" x="337.5" y="-7" font-family="Helvetica,sans-Serif" font-size="10.00">Ipv4NetworkConfigurator</text>
</a>
</g>
</g>
<!-- NClients&#45;&gt;Ipv4NetworkConfigurator -->
<g id="edge4" class="edge">
<title>NClients&#45;&gt;Ipv4NetworkConfigurator</title>
<path fill="none" stroke="black" d="M205.72,-54.98C231.86,-46.16 272.9,-32.31 302.23,-22.41"/>
<polygon fill="black" stroke="black" points="303.72,-25.6 312.08,-19.08 301.48,-18.96 303.72,-25.6"/>
</g>
</g>
</svg>
