<?xml version="1.0" encoding="UTF-8" standalone="no"?>
<!DOCTYPE svg PUBLIC "-//W3C//DTD SVG 1.1//EN"
 "http://www.w3.org/Graphics/SVG/1.1/DTD/svg11.dtd">
<!-- Generated by graphviz version 2.43.0 (0)
 -->
<!-- Title: opp Pages: 1 -->
<svg width="196pt" height="82pt"
 viewBox="0.00 0.00 196.00 82.00" xmlns="http://www.w3.org/2000/svg" xmlns:xlink="http://www.w3.org/1999/xlink">
<g id="graph0" class="graph" transform="scale(1 1) rotate(0) translate(4 78)">
<title>opp</title>
<polygon fill="transparent" stroke="transparent" points="-4,4 -4,-78 192,-78 192,4 -4,4"/>
<!-- ProcessingDelayLayer -->
<g id="node1" class="node">
<title>ProcessingDelayLayer</title>
<g id="a_node1"><a xlink:href="inet.protocolelement.processing.ProcessingDelayLayer.html" xlink:title="Compound Module ProcessingDelayLayer" target="_parent">
<polygon fill="#fff700" stroke="black" points="153.5,-74 28.5,-74 28.5,-55 153.5,-55 153.5,-74"/>
<text text-anchor="middle" x="91" y="-62" font-family="Helvetica,sans-Serif" font-size="10.00">ProcessingDelayLayer</text>
</a>
</g>
</g>
<!-- IdealChannel -->
<g id="node2" class="node">
<title>IdealChannel</title>
<g id="a_node2"><a xlink:href="ned.IdealChannel.html" xlink:title="Channel IdealChannel" target="_parent">
<polygon fill="#d0ffd0" stroke="black" points="80,-19 0,-19 0,0 80,0 80,-19"/>
<text text-anchor="middle" x="40" y="-7" font-family="Helvetica,sans-Serif" font-size="10.00">IdealChannel</text>
</a>
</g>
</g>
<!-- ProcessingDelayLayer&#45;&gt;IdealChannel -->
<g id="edge1" class="edge">
<title>ProcessingDelayLayer&#45;&gt;IdealChannel</title>
<path fill="none" stroke="black" d="M82.58,-54.75C75.23,-47.11 64.37,-35.82 55.46,-26.56"/>
<polygon fill="black" stroke="black" points="57.72,-23.87 48.26,-19.09 52.68,-28.72 57.72,-23.87"/>
</g>
<!-- IPacketDelayer -->
<g id="node3" class="node">
<title>IPacketDelayer</title>
<g id="a_node3"><a xlink:href="inet.queueing.contract.IPacketDelayer.html" xlink:title="Module Interface IPacketDelayer" target="_parent">
<polygon fill="#fffcaf" stroke="black" stroke-dasharray="5,2" points="188,-19 98,-19 98,0 188,0 188,-19"/>
<text text-anchor="middle" x="143" y="-7" font-family="Helvetica,sans-Serif" font-size="10.00">IPacketDelayer</text>
</a>
</g>
</g>
<!-- ProcessingDelayLayer&#45;&gt;IPacketDelayer -->
<g id="edge2" class="edge">
<title>ProcessingDelayLayer&#45;&gt;IPacketDelayer</title>
<path fill="none" stroke="black" d="M99.59,-54.75C107.16,-47.03 118.38,-35.6 127.51,-26.28"/>
<polygon fill="black" stroke="black" points="130.07,-28.68 134.57,-19.09 125.07,-23.78 130.07,-28.68"/>
</g>
</g>
</svg>
