<?xml version="1.0" encoding="UTF-8" standalone="no"?>
<!DOCTYPE svg PUBLIC "-//W3C//DTD SVG 1.1//EN"
 "http://www.w3.org/Graphics/SVG/1.1/DTD/svg11.dtd">
<!-- Generated by graphviz version 2.43.0 (0)
 -->
<!-- Title: opp Pages: 1 -->
<svg width="419pt" height="82pt"
 viewBox="0.00 0.00 418.50 82.00" xmlns="http://www.w3.org/2000/svg" xmlns:xlink="http://www.w3.org/1999/xlink">
<g id="graph0" class="graph" transform="scale(1 1) rotate(0) translate(4 78)">
<title>opp</title>
<polygon fill="transparent" stroke="transparent" points="-4,4 -4,-78 414.5,-78 414.5,4 -4,4"/>
<!-- MacTest -->
<g id="node1" class="node">
<title>MacTest</title>
<g id="a_node1"><a xlink:href="inet.examples.wireless.mactest.MacTest.html" xlink:title="Network MacTest" target="_parent">
<polygon fill="#9090ff" stroke="black" points="221,-74 165,-74 165,-55 221,-55 221,-74"/>
<text text-anchor="middle" x="193" y="-62" font-family="Helvetica,sans-Serif" font-size="10.00">MacTest</text>
</a>
</g>
</g>
<!-- Ipv4NetworkConfigurator -->
<g id="node2" class="node">
<title>Ipv4NetworkConfigurator</title>
<g id="a_node2"><a xlink:href="inet.networklayer.configurator.ipv4.Ipv4NetworkConfigurator.html" xlink:title="Simple Module Ipv4NetworkConfigurator" target="_parent">
<polygon fill="#fffcaf" stroke="black" points="140,-19 0,-19 0,0 140,0 140,-19"/>
<text text-anchor="middle" x="70" y="-7" font-family="Helvetica,sans-Serif" font-size="10.00">Ipv4NetworkConfigurator</text>
</a>
</g>
</g>
<!-- MacTest&#45;&gt;Ipv4NetworkConfigurator -->
<g id="edge1" class="edge">
<title>MacTest&#45;&gt;Ipv4NetworkConfigurator</title>
<path fill="none" stroke="black" d="M173.24,-54.98C153.27,-46.38 122.2,-32.99 99.35,-23.15"/>
<polygon fill="black" stroke="black" points="100.69,-19.91 90.12,-19.17 97.92,-26.34 100.69,-19.91"/>
</g>
<!-- AdhocHost -->
<g id="node3" class="node">
<title>AdhocHost</title>
<g id="a_node3"><a xlink:href="inet.node.inet.AdhocHost.html" xlink:title="Compound Module AdhocHost" target="_parent">
<polygon fill="#fffcaf" stroke="black" points="227.5,-19 158.5,-19 158.5,0 227.5,0 227.5,-19"/>
<text text-anchor="middle" x="193" y="-7" font-family="Helvetica,sans-Serif" font-size="10.00">AdhocHost</text>
</a>
</g>
</g>
<!-- MacTest&#45;&gt;AdhocHost -->
<g id="edge2" class="edge">
<title>MacTest&#45;&gt;AdhocHost</title>
<path fill="none" stroke="black" d="M193,-54.75C193,-47.8 193,-37.85 193,-29.13"/>
<polygon fill="black" stroke="black" points="196.5,-29.09 193,-19.09 189.5,-29.09 196.5,-29.09"/>
</g>
<!-- Ieee80211ScalarRadioMedium -->
<g id="node4" class="node">
<title>Ieee80211ScalarRadioMedium</title>
<g id="a_node4"><a xlink:href="inet.physicallayer.wireless.ieee80211.packetlevel.Ieee80211ScalarRadioMedium.html" xlink:title="Compound Module Ieee80211ScalarRadioMedium" target="_parent">
<polygon fill="#fffcaf" stroke="black" points="410.5,-19 245.5,-19 245.5,0 410.5,0 410.5,-19"/>
<text text-anchor="middle" x="328" y="-7" font-family="Helvetica,sans-Serif" font-size="10.00">Ieee80211ScalarRadioMedium</text>
</a>
</g>
</g>
<!-- MacTest&#45;&gt;Ieee80211ScalarRadioMedium -->
<g id="edge3" class="edge">
<title>MacTest&#45;&gt;Ieee80211ScalarRadioMedium</title>
<path fill="none" stroke="black" d="M214.69,-54.98C236.8,-46.3 271.32,-32.75 296.45,-22.88"/>
<polygon fill="black" stroke="black" points="297.89,-26.08 305.92,-19.17 295.33,-19.57 297.89,-26.08"/>
</g>
</g>
</svg>
