<?xml version="1.0" encoding="UTF-8" standalone="no"?>
<!DOCTYPE svg PUBLIC "-//W3C//DTD SVG 1.1//EN"
 "http://www.w3.org/Graphics/SVG/1.1/DTD/svg11.dtd">
<!-- Generated by graphviz version 2.43.0 (0)
 -->
<!-- Title: opp Pages: 1 -->
<svg width="502pt" height="82pt"
 viewBox="0.00 0.00 501.50 82.00" xmlns="http://www.w3.org/2000/svg" xmlns:xlink="http://www.w3.org/1999/xlink">
<g id="graph0" class="graph" transform="scale(1 1) rotate(0) translate(4 78)">
<title>opp</title>
<polygon fill="transparent" stroke="transparent" points="-4,4 -4,-78 497.5,-78 497.5,4 -4,4"/>
<!-- UDPBroadcastNetwork -->
<g id="node1" class="node">
<title>UDPBroadcastNetwork</title>
<g id="a_node1"><a xlink:href="inet.examples.inet.broadcast.UDPBroadcastNetwork.html" xlink:title="Network UDPBroadcastNetwork" target="_parent">
<polygon fill="#9090ff" stroke="black" points="264.5,-74 136.5,-74 136.5,-55 264.5,-55 264.5,-74"/>
<text text-anchor="middle" x="200.5" y="-62" font-family="Helvetica,sans-Serif" font-size="10.00">UDPBroadcastNetwork</text>
</a>
</g>
</g>
<!-- StandardHost -->
<g id="node2" class="node">
<title>StandardHost</title>
<g id="a_node2"><a xlink:href="inet.node.inet.StandardHost.html" xlink:title="Compound Module StandardHost" target="_parent">
<polygon fill="#fffcaf" stroke="black" points="83,-19 0,-19 0,0 83,0 83,-19"/>
<text text-anchor="middle" x="41.5" y="-7" font-family="Helvetica,sans-Serif" font-size="10.00">StandardHost</text>
</a>
</g>
</g>
<!-- UDPBroadcastNetwork&#45;&gt;StandardHost -->
<g id="edge1" class="edge">
<title>UDPBroadcastNetwork&#45;&gt;StandardHost</title>
<path fill="none" stroke="black" d="M174.95,-54.98C148.38,-46.13 106.56,-32.19 76.83,-22.28"/>
<polygon fill="black" stroke="black" points="77.84,-18.92 67.25,-19.08 75.63,-25.56 77.84,-18.92"/>
</g>
<!-- C -->
<g id="node3" class="node">
<title>C</title>
<g id="a_node3"><a xlink:href="inet.examples.inet.broadcast.UDPBroadcastNetwork.C.html" xlink:title="Channel C" target="_parent">
<polygon fill="#d0ffd0" stroke="black" points="155.5,-19 101.5,-19 101.5,0 155.5,0 155.5,-19"/>
<text text-anchor="middle" x="128.5" y="-7" font-family="Helvetica,sans-Serif" font-size="10.00">C</text>
</a>
</g>
</g>
<!-- UDPBroadcastNetwork&#45;&gt;C -->
<g id="edge2" class="edge">
<title>UDPBroadcastNetwork&#45;&gt;C</title>
<path fill="none" stroke="black" d="M188.93,-54.98C178.08,-47 161.62,-34.88 148.62,-25.31"/>
<polygon fill="black" stroke="black" points="150.41,-22.28 140.28,-19.17 146.26,-27.92 150.41,-22.28"/>
</g>
<!-- Router -->
<g id="node4" class="node">
<title>Router</title>
<g id="a_node4"><a xlink:href="inet.node.inet.Router.html" xlink:title="Compound Module Router" target="_parent">
<polygon fill="#fffcaf" stroke="black" points="227.5,-19 173.5,-19 173.5,0 227.5,0 227.5,-19"/>
<text text-anchor="middle" x="200.5" y="-7" font-family="Helvetica,sans-Serif" font-size="10.00">Router</text>
</a>
</g>
</g>
<!-- UDPBroadcastNetwork&#45;&gt;Router -->
<g id="edge3" class="edge">
<title>UDPBroadcastNetwork&#45;&gt;Router</title>
<path fill="none" stroke="black" d="M200.5,-54.75C200.5,-47.8 200.5,-37.85 200.5,-29.13"/>
<polygon fill="black" stroke="black" points="204,-29.09 200.5,-19.09 197,-29.09 204,-29.09"/>
</g>
<!-- Ipv4NetworkConfigurator -->
<g id="node5" class="node">
<title>Ipv4NetworkConfigurator</title>
<g id="a_node5"><a xlink:href="inet.networklayer.configurator.ipv4.Ipv4NetworkConfigurator.html" xlink:title="Simple Module Ipv4NetworkConfigurator" target="_parent">
<polygon fill="#fffcaf" stroke="black" points="385.5,-19 245.5,-19 245.5,0 385.5,0 385.5,-19"/>
<text text-anchor="middle" x="315.5" y="-7" font-family="Helvetica,sans-Serif" font-size="10.00">Ipv4NetworkConfigurator</text>
</a>
</g>
</g>
<!-- UDPBroadcastNetwork&#45;&gt;Ipv4NetworkConfigurator -->
<g id="edge4" class="edge">
<title>UDPBroadcastNetwork&#45;&gt;Ipv4NetworkConfigurator</title>
<path fill="none" stroke="black" d="M218.98,-54.98C237.48,-46.46 266.18,-33.23 287.48,-23.41"/>
<polygon fill="black" stroke="black" points="289.07,-26.53 296.69,-19.17 286.14,-20.18 289.07,-26.53"/>
</g>
<!-- EthernetSwitch -->
<g id="node6" class="node">
<title>EthernetSwitch</title>
<g id="a_node6"><a xlink:href="inet.node.ethernet.EthernetSwitch.html" xlink:title="Compound Module EthernetSwitch" target="_parent">
<polygon fill="#fffcaf" stroke="black" points="493.5,-19 403.5,-19 403.5,0 493.5,0 493.5,-19"/>
<text text-anchor="middle" x="448.5" y="-7" font-family="Helvetica,sans-Serif" font-size="10.00">EthernetSwitch</text>
</a>
</g>
</g>
<!-- UDPBroadcastNetwork&#45;&gt;EthernetSwitch -->
<g id="edge5" class="edge">
<title>UDPBroadcastNetwork&#45;&gt;EthernetSwitch</title>
<path fill="none" stroke="black" d="M240.35,-54.98C283.33,-45.8 351.87,-31.15 398.46,-21.19"/>
<polygon fill="black" stroke="black" points="399.29,-24.59 408.34,-19.08 397.83,-17.75 399.29,-24.59"/>
</g>
</g>
</svg>
