<?xml version="1.0" encoding="UTF-8" standalone="no"?>
<!DOCTYPE svg PUBLIC "-//W3C//DTD SVG 1.1//EN"
 "http://www.w3.org/Graphics/SVG/1.1/DTD/svg11.dtd">
<!-- Generated by graphviz version 2.43.0 (0)
 -->
<!-- Title: opp Pages: 1 -->
<svg width="864pt" height="137pt"
 viewBox="0.00 0.00 863.50 137.00" xmlns="http://www.w3.org/2000/svg" xmlns:xlink="http://www.w3.org/1999/xlink">
<g id="graph0" class="graph" transform="scale(1 1) rotate(0) translate(4 133)">
<title>opp</title>
<polygon fill="transparent" stroke="transparent" points="-4,4 -4,-133 859.5,-133 859.5,4 -4,4"/>
<!-- Ieee80211Interface -->
<g id="node1" class="node">
<title>Ieee80211Interface</title>
<g id="a_node1"><a xlink:href="inet.linklayer.ieee80211.Ieee80211Interface.html" xlink:title="Compound Module Ieee80211Interface" target="_parent">
<polygon fill="#fff700" stroke="black" points="445,-74 334,-74 334,-55 445,-55 445,-74"/>
<text text-anchor="middle" x="389.5" y="-62" font-family="Helvetica,sans-Serif" font-size="10.00">Ieee80211Interface</text>
</a>
</g>
</g>
<!-- IIeee80211Mgmt -->
<g id="node2" class="node">
<title>IIeee80211Mgmt</title>
<g id="a_node2"><a xlink:href="inet.linklayer.ieee80211.mgmt.IIeee80211Mgmt.html" xlink:title="Module Interface IIeee80211Mgmt" target="_parent">
<polygon fill="#fffcaf" stroke="black" stroke-dasharray="5,2" points="99,-19 0,-19 0,0 99,0 99,-19"/>
<text text-anchor="middle" x="49.5" y="-7" font-family="Helvetica,sans-Serif" font-size="10.00">IIeee80211Mgmt</text>
</a>
</g>
</g>
<!-- Ieee80211Interface&#45;&gt;IIeee80211Mgmt -->
<g id="edge1" class="edge">
<title>Ieee80211Interface&#45;&gt;IIeee80211Mgmt</title>
<path fill="none" stroke="black" d="M334.87,-54.98C273.04,-45.35 172.66,-29.7 108.92,-19.76"/>
<polygon fill="black" stroke="black" points="109.44,-16.3 99.02,-18.22 108.36,-23.22 109.44,-16.3"/>
</g>
<!-- IRadio -->
<g id="node3" class="node">
<title>IRadio</title>
<g id="a_node3"><a xlink:href="inet.physicallayer.wireless.common.contract.packetlevel.IRadio.html" xlink:title="Module Interface IRadio" target="_parent">
<polygon fill="#fffcaf" stroke="black" stroke-dasharray="5,2" points="171.5,-19 117.5,-19 117.5,0 171.5,0 171.5,-19"/>
<text text-anchor="middle" x="144.5" y="-7" font-family="Helvetica,sans-Serif" font-size="10.00">IRadio</text>
</a>
</g>
</g>
<!-- Ieee80211Interface&#45;&gt;IRadio -->
<g id="edge2" class="edge">
<title>Ieee80211Interface&#45;&gt;IRadio</title>
<path fill="none" stroke="black" d="M348.2,-54.99C308.06,-46.65 245.12,-33.41 181.42,-19.17"/>
<polygon fill="black" stroke="black" points="182.14,-15.74 171.61,-16.97 180.6,-22.57 182.14,-15.74"/>
</g>
<!-- IdealChannel -->
<g id="node4" class="node">
<title>IdealChannel</title>
<g id="a_node4"><a xlink:href="ned.IdealChannel.html" xlink:title="Channel IdealChannel" target="_parent">
<polygon fill="#d0ffd0" stroke="black" points="269.5,-19 189.5,-19 189.5,0 269.5,0 269.5,-19"/>
<text text-anchor="middle" x="229.5" y="-7" font-family="Helvetica,sans-Serif" font-size="10.00">IdealChannel</text>
</a>
</g>
</g>
<!-- Ieee80211Interface&#45;&gt;IdealChannel -->
<g id="edge3" class="edge">
<title>Ieee80211Interface&#45;&gt;IdealChannel</title>
<path fill="none" stroke="black" d="M363.79,-54.98C337.05,-46.13 294.97,-32.19 265.05,-22.28"/>
<polygon fill="black" stroke="black" points="266,-18.9 255.41,-19.08 263.8,-25.55 266,-18.9"/>
</g>
<!-- IIeee80211Mac -->
<g id="node5" class="node">
<title>IIeee80211Mac</title>
<g id="a_node5"><a xlink:href="inet.linklayer.ieee80211.IIeee80211Mac.html" xlink:title="Module Interface IIeee80211Mac" target="_parent">
<polygon fill="#fffcaf" stroke="black" stroke-dasharray="5,2" points="379,-19 288,-19 288,0 379,0 379,-19"/>
<text text-anchor="middle" x="333.5" y="-7" font-family="Helvetica,sans-Serif" font-size="10.00">IIeee80211Mac</text>
</a>
</g>
</g>
<!-- Ieee80211Interface&#45;&gt;IIeee80211Mac -->
<g id="edge4" class="edge">
<title>Ieee80211Interface&#45;&gt;IIeee80211Mac</title>
<path fill="none" stroke="black" d="M380.5,-54.98C372.31,-47.23 359.99,-35.58 350.03,-26.14"/>
<polygon fill="black" stroke="black" points="352.33,-23.5 342.66,-19.17 347.52,-28.59 352.33,-23.5"/>
</g>
<!-- IIeee80211Agent -->
<g id="node6" class="node">
<title>IIeee80211Agent</title>
<g id="a_node6"><a xlink:href="inet.linklayer.ieee80211.mgmt.IIeee80211Agent.html" xlink:title="Module Interface IIeee80211Agent" target="_parent">
<polygon fill="#fffcaf" stroke="black" stroke-dasharray="5,2" points="496,-19 397,-19 397,0 496,0 496,-19"/>
<text text-anchor="middle" x="446.5" y="-7" font-family="Helvetica,sans-Serif" font-size="10.00">IIeee80211Agent</text>
</a>
</g>
</g>
<!-- Ieee80211Interface&#45;&gt;IIeee80211Agent -->
<g id="edge5" class="edge">
<title>Ieee80211Interface&#45;&gt;IIeee80211Agent</title>
<path fill="none" stroke="black" d="M398.66,-54.98C407,-47.23 419.53,-35.58 429.68,-26.14"/>
<polygon fill="black" stroke="black" points="432.24,-28.54 437.18,-19.17 427.47,-23.42 432.24,-28.54"/>
</g>
<!-- IIeee8021dQosClassifier -->
<g id="node7" class="node">
<title>IIeee8021dQosClassifier</title>
<g id="a_node7"><a xlink:href="inet.linklayer.common.IIeee8021dQosClassifier.html" xlink:title="Module Interface IIeee8021dQosClassifier" target="_parent">
<polygon fill="#fffcaf" stroke="black" stroke-dasharray="5,2" points="649,-19 514,-19 514,0 649,0 649,-19"/>
<text text-anchor="middle" x="581.5" y="-7" font-family="Helvetica,sans-Serif" font-size="10.00">IIeee8021dQosClassifier</text>
</a>
</g>
</g>
<!-- Ieee80211Interface&#45;&gt;IIeee8021dQosClassifier -->
<g id="edge6" class="edge">
<title>Ieee80211Interface&#45;&gt;IIeee8021dQosClassifier</title>
<path fill="none" stroke="black" d="M420.35,-54.98C453,-45.97 504.7,-31.7 540.7,-21.76"/>
<polygon fill="black" stroke="black" points="541.7,-25.12 550.41,-19.08 539.84,-18.37 541.7,-25.12"/>
</g>
<!-- Ieee80211Mib -->
<g id="node8" class="node">
<title>Ieee80211Mib</title>
<g id="a_node8"><a xlink:href="inet.linklayer.ieee80211.mib.Ieee80211Mib.html" xlink:title="Simple Module Ieee80211Mib" target="_parent">
<polygon fill="#fffcaf" stroke="black" points="753.5,-19 667.5,-19 667.5,0 753.5,0 753.5,-19"/>
<text text-anchor="middle" x="710.5" y="-7" font-family="Helvetica,sans-Serif" font-size="10.00">Ieee80211Mib</text>
</a>
</g>
</g>
<!-- Ieee80211Interface&#45;&gt;Ieee80211Mib -->
<g id="edge7" class="edge">
<title>Ieee80211Interface&#45;&gt;Ieee80211Mib</title>
<path fill="none" stroke="black" d="M441.07,-54.98C500.38,-45.19 597.26,-29.2 657.26,-19.29"/>
<polygon fill="black" stroke="black" points="657.99,-22.72 667.29,-17.63 656.85,-15.81 657.99,-22.72"/>
</g>
<!-- IIeee80211Llc -->
<g id="node9" class="node">
<title>IIeee80211Llc</title>
<g id="a_node9"><a xlink:href="inet.linklayer.ieee80211.llc.IIeee80211Llc.html" xlink:title="Module Interface IIeee80211Llc" target="_parent">
<polygon fill="#fffcaf" stroke="black" stroke-dasharray="5,2" points="855.5,-19 771.5,-19 771.5,0 855.5,0 855.5,-19"/>
<text text-anchor="middle" x="813.5" y="-7" font-family="Helvetica,sans-Serif" font-size="10.00">IIeee80211Llc</text>
</a>
</g>
</g>
<!-- Ieee80211Interface&#45;&gt;IIeee80211Llc -->
<g id="edge8" class="edge">
<title>Ieee80211Interface&#45;&gt;IIeee80211Llc</title>
<path fill="none" stroke="black" d="M445.22,-57.67C516.22,-50.06 642.99,-35.86 761.52,-19.08"/>
<polygon fill="black" stroke="black" points="762.09,-22.53 771.5,-17.66 761.11,-15.6 762.09,-22.53"/>
</g>
<!-- Client -->
<g id="node10" class="node">
<title>Client</title>
<g id="a_node10"><a xlink:href="inet.examples.wireless.ratecontrol.Client.html" xlink:title="Compound Module Client" target="_parent">
<polygon fill="#fffcaf" stroke="black" points="83.5,-129 29.5,-129 29.5,-110 83.5,-110 83.5,-129"/>
<text text-anchor="middle" x="56.5" y="-117" font-family="Helvetica,sans-Serif" font-size="10.00">Client</text>
</a>
</g>
</g>
<!-- Client&#45;&gt;Ieee80211Interface -->
<g id="edge9" class="edge">
<title>Client&#45;&gt;Ieee80211Interface</title>
<path fill="none" stroke="black" d="M83.57,-111.85C86.58,-111.19 89.6,-110.56 92.5,-110 171.63,-94.76 263.47,-81.7 323.83,-73.74"/>
<polygon fill="black" stroke="black" points="324.52,-77.18 333.98,-72.42 323.61,-70.24 324.52,-77.18"/>
</g>
<!-- Node -->
<g id="node11" class="node">
<title>Node</title>
<g id="a_node11"><a xlink:href="inet.examples.wireless.hiddennode.Node.html" xlink:title="Compound Module Node" target="_parent">
<polygon fill="#fffcaf" stroke="black" points="155.5,-129 101.5,-129 101.5,-110 155.5,-110 155.5,-129"/>
<text text-anchor="middle" x="128.5" y="-117" font-family="Helvetica,sans-Serif" font-size="10.00">Node</text>
</a>
</g>
</g>
<!-- Node&#45;&gt;Ieee80211Interface -->
<g id="edge10" class="edge">
<title>Node&#45;&gt;Ieee80211Interface</title>
<path fill="none" stroke="black" d="M155.6,-111.99C158.6,-111.3 161.61,-110.63 164.5,-110 222.02,-97.52 288.14,-84.62 333.74,-75.94"/>
<polygon fill="black" stroke="black" points="334.55,-79.35 343.72,-74.05 333.24,-72.47 334.55,-79.35"/>
</g>
<!-- SinkClient -->
<g id="node12" class="node">
<title>SinkClient</title>
<g id="a_node12"><a xlink:href="inet.examples.wireless.ratecontrol.SinkClient.html" xlink:title="Compound Module SinkClient" target="_parent">
<polygon fill="#fffcaf" stroke="black" points="239.5,-129 173.5,-129 173.5,-110 239.5,-110 239.5,-129"/>
<text text-anchor="middle" x="206.5" y="-117" font-family="Helvetica,sans-Serif" font-size="10.00">SinkClient</text>
</a>
</g>
</g>
<!-- SinkClient&#45;&gt;Ieee80211Interface -->
<g id="edge11" class="edge">
<title>SinkClient&#45;&gt;Ieee80211Interface</title>
<path fill="none" stroke="black" d="M235.9,-109.98C266.89,-101.01 315.88,-86.82 350.17,-76.89"/>
<polygon fill="black" stroke="black" points="351.24,-80.23 359.87,-74.08 349.29,-73.5 351.24,-80.23"/>
</g>
<!-- SinkNode -->
<g id="node13" class="node">
<title>SinkNode</title>
<g id="a_node13"><a xlink:href="inet.examples.wireless.hiddennode.SinkNode.html" xlink:title="Compound Module SinkNode" target="_parent">
<polygon fill="#fffcaf" stroke="black" points="321,-129 258,-129 258,-110 321,-110 321,-129"/>
<text text-anchor="middle" x="289.5" y="-117" font-family="Helvetica,sans-Serif" font-size="10.00">SinkNode</text>
</a>
</g>
</g>
<!-- SinkNode&#45;&gt;Ieee80211Interface -->
<g id="edge12" class="edge">
<title>SinkNode&#45;&gt;Ieee80211Interface</title>
<path fill="none" stroke="black" d="M305.57,-109.98C321.36,-101.61 345.72,-88.7 364.13,-78.95"/>
<polygon fill="black" stroke="black" points="365.94,-81.95 373.14,-74.17 362.67,-75.76 365.94,-81.95"/>
</g>
<!-- ThroughputClient -->
<g id="node14" class="node">
<title>ThroughputClient</title>
<g id="a_node14"><a xlink:href="inet.examples.wireless.throughput.ThroughputClient.html" xlink:title="Compound Module ThroughputClient" target="_parent">
<polygon fill="#fffcaf" stroke="black" points="440,-129 339,-129 339,-110 440,-110 440,-129"/>
<text text-anchor="middle" x="389.5" y="-117" font-family="Helvetica,sans-Serif" font-size="10.00">ThroughputClient</text>
</a>
</g>
</g>
<!-- ThroughputClient&#45;&gt;Ieee80211Interface -->
<g id="edge13" class="edge">
<title>ThroughputClient&#45;&gt;Ieee80211Interface</title>
<path fill="none" stroke="black" d="M379.17,-109.75C376.15,-102.72 375.29,-92.62 376.58,-83.84"/>
<polygon fill="black" stroke="black" points="379.99,-84.66 379.24,-74.09 373.24,-82.82 379.99,-84.66"/>
</g>
<!-- ThroughputClient&#45;&gt;Ieee80211Interface -->
<g id="edge14" class="edge">
<title>ThroughputClient&#45;&gt;Ieee80211Interface</title>
<path fill="none" stroke="black" d="M389.5,-109.75C389.5,-102.8 389.5,-92.85 389.5,-84.13"/>
<polygon fill="black" stroke="black" points="393,-84.09 389.5,-74.09 386,-84.09 393,-84.09"/>
</g>
<!-- ThroughputClient&#45;&gt;Ieee80211Interface -->
<g id="edge15" class="edge">
<title>ThroughputClient&#45;&gt;Ieee80211Interface</title>
<path fill="none" stroke="black" d="M399.83,-109.75C402.85,-102.72 403.71,-92.62 402.42,-83.84"/>
<polygon fill="black" stroke="black" points="405.76,-82.82 399.76,-74.09 399.01,-84.66 405.76,-82.82"/>
</g>
<!-- ThroughputServer -->
<g id="node15" class="node">
<title>ThroughputServer</title>
<g id="a_node15"><a xlink:href="inet.examples.wireless.testnewmac.ThroughputServer.html" xlink:title="Compound Module ThroughputServer" target="_parent">
<polygon fill="#fffcaf" stroke="black" points="562.5,-129 458.5,-129 458.5,-110 562.5,-110 562.5,-129"/>
<text text-anchor="middle" x="510.5" y="-117" font-family="Helvetica,sans-Serif" font-size="10.00">ThroughputServer</text>
</a>
</g>
</g>
<!-- ThroughputServer&#45;&gt;Ieee80211Interface -->
<g id="edge16" class="edge">
<title>ThroughputServer&#45;&gt;Ieee80211Interface</title>
<path fill="none" stroke="black" d="M485.94,-109.98C464.69,-101.5 434.41,-88.35 413.37,-78.54"/>
<polygon fill="black" stroke="black" points="414.68,-75.29 404.15,-74.17 411.68,-81.62 414.68,-75.29"/>
</g>
<!-- ThroughputServer&#45;&gt;Ieee80211Interface -->
<g id="edge17" class="edge">
<title>ThroughputServer&#45;&gt;Ieee80211Interface</title>
<path fill="none" stroke="black" d="M496.17,-109.98C478.35,-101.34 447.83,-87.87 423.91,-78.02"/>
<polygon fill="black" stroke="black" points="425.03,-74.69 414.44,-74.17 422.39,-81.18 425.03,-74.69"/>
</g>
<!-- WirelessAPWithSink -->
<g id="node16" class="node">
<title>WirelessAPWithSink</title>
<g id="a_node16"><a xlink:href="inet.examples.wireless.throughput.WirelessAPWithSink.html" xlink:title="Compound Module WirelessAPWithSink" target="_parent">
<polygon fill="#fffcaf" stroke="black" points="696,-129 581,-129 581,-110 696,-110 696,-129"/>
<text text-anchor="middle" x="638.5" y="-117" font-family="Helvetica,sans-Serif" font-size="10.00">WirelessAPWithSink</text>
</a>
</g>
</g>
<!-- WirelessAPWithSink&#45;&gt;Ieee80211Interface -->
<g id="edge18" class="edge">
<title>WirelessAPWithSink&#45;&gt;Ieee80211Interface</title>
<path fill="none" stroke="black" d="M598.49,-109.98C555.33,-100.8 486.52,-86.15 439.74,-76.19"/>
<polygon fill="black" stroke="black" points="440.33,-72.74 429.82,-74.08 438.87,-79.59 440.33,-72.74"/>
</g>
</g>
</svg>
