<?xml version="1.0" encoding="UTF-8" standalone="no"?>
<!DOCTYPE svg PUBLIC "-//W3C//DTD SVG 1.1//EN"
 "http://www.w3.org/Graphics/SVG/1.1/DTD/svg11.dtd">
<!-- Generated by graphviz version 2.43.0 (0)
 -->
<!-- Title: opp Pages: 1 -->
<svg width="534pt" height="82pt"
 viewBox="0.00 0.00 533.50 82.00" xmlns="http://www.w3.org/2000/svg" xmlns:xlink="http://www.w3.org/1999/xlink">
<g id="graph0" class="graph" transform="scale(1 1) rotate(0) translate(4 78)">
<title>opp</title>
<polygon fill="transparent" stroke="transparent" points="-4,4 -4,-78 529.5,-78 529.5,4 -4,4"/>
<!-- small -->
<g id="node1" class="node">
<title>small</title>
<g id="a_node1"><a xlink:href="inet.examples.ospfv3.small.small.html" xlink:title="Network small" target="_parent">
<polygon fill="#9090ff" stroke="black" points="244.5,-74 190.5,-74 190.5,-55 244.5,-55 244.5,-74"/>
<text text-anchor="middle" x="217.5" y="-62" font-family="Helvetica,sans-Serif" font-size="10.00">small</text>
</a>
</g>
</g>
<!-- StandardHost -->
<g id="node2" class="node">
<title>StandardHost</title>
<g id="a_node2"><a xlink:href="inet.node.inet.StandardHost.html" xlink:title="Compound Module StandardHost" target="_parent">
<polygon fill="#fffcaf" stroke="black" points="83,-19 0,-19 0,0 83,0 83,-19"/>
<text text-anchor="middle" x="41.5" y="-7" font-family="Helvetica,sans-Serif" font-size="10.00">StandardHost</text>
</a>
</g>
</g>
<!-- small&#45;&gt;StandardHost -->
<g id="edge1" class="edge">
<title>small&#45;&gt;StandardHost</title>
<path fill="none" stroke="black" d="M190.39,-55.33C160.76,-46.41 113.08,-32.06 79.68,-22"/>
<polygon fill="black" stroke="black" points="80.4,-18.56 69.81,-19.03 78.38,-25.26 80.4,-18.56"/>
</g>
<!-- Channel -->
<g id="node3" class="node">
<title>Channel</title>
<g id="a_node3"><a xlink:href="inet.examples.ospfv3.small.small.Channel.html" xlink:title="Channel Channel" target="_parent">
<polygon fill="#d0ffd0" stroke="black" points="157.5,-19 101.5,-19 101.5,0 157.5,0 157.5,-19"/>
<text text-anchor="middle" x="129.5" y="-7" font-family="Helvetica,sans-Serif" font-size="10.00">Channel</text>
</a>
</g>
</g>
<!-- small&#45;&gt;Channel -->
<g id="edge2" class="edge">
<title>small&#45;&gt;Channel</title>
<path fill="none" stroke="black" d="M203.36,-54.98C189.71,-46.77 168.81,-34.18 152.72,-24.49"/>
<polygon fill="black" stroke="black" points="154.27,-21.33 143.9,-19.17 150.66,-27.33 154.27,-21.33"/>
</g>
<!-- Ospfv3Router -->
<g id="node4" class="node">
<title>Ospfv3Router</title>
<g id="a_node4"><a xlink:href="inet.node.ospfv3.Ospfv3Router.html" xlink:title="Compound Module Ospfv3Router" target="_parent">
<polygon fill="#fffcaf" stroke="black" points="259,-19 176,-19 176,0 259,0 259,-19"/>
<text text-anchor="middle" x="217.5" y="-7" font-family="Helvetica,sans-Serif" font-size="10.00">Ospfv3Router</text>
</a>
</g>
</g>
<!-- small&#45;&gt;Ospfv3Router -->
<g id="edge3" class="edge">
<title>small&#45;&gt;Ospfv3Router</title>
<path fill="none" stroke="black" d="M217.5,-54.75C217.5,-47.8 217.5,-37.85 217.5,-29.13"/>
<polygon fill="black" stroke="black" points="221,-29.09 217.5,-19.09 214,-29.09 221,-29.09"/>
</g>
<!-- Ipv4NetworkConfigurator -->
<g id="node5" class="node">
<title>Ipv4NetworkConfigurator</title>
<g id="a_node5"><a xlink:href="inet.networklayer.configurator.ipv4.Ipv4NetworkConfigurator.html" xlink:title="Simple Module Ipv4NetworkConfigurator" target="_parent">
<polygon fill="#fffcaf" stroke="black" points="417.5,-19 277.5,-19 277.5,0 417.5,0 417.5,-19"/>
<text text-anchor="middle" x="347.5" y="-7" font-family="Helvetica,sans-Serif" font-size="10.00">Ipv4NetworkConfigurator</text>
</a>
</g>
</g>
<!-- small&#45;&gt;Ipv4NetworkConfigurator -->
<g id="edge4" class="edge">
<title>small&#45;&gt;Ipv4NetworkConfigurator</title>
<path fill="none" stroke="black" d="M238.39,-54.98C259.58,-46.34 292.63,-32.87 316.8,-23.02"/>
<polygon fill="black" stroke="black" points="318.29,-26.19 326.23,-19.17 315.65,-19.7 318.29,-26.19"/>
</g>
<!-- EthernetSwitch -->
<g id="node6" class="node">
<title>EthernetSwitch</title>
<g id="a_node6"><a xlink:href="inet.node.ethernet.EthernetSwitch.html" xlink:title="Compound Module EthernetSwitch" target="_parent">
<polygon fill="#fffcaf" stroke="black" points="525.5,-19 435.5,-19 435.5,0 525.5,0 525.5,-19"/>
<text text-anchor="middle" x="480.5" y="-7" font-family="Helvetica,sans-Serif" font-size="10.00">EthernetSwitch</text>
</a>
</g>
</g>
<!-- small&#45;&gt;EthernetSwitch -->
<g id="edge5" class="edge">
<title>small&#45;&gt;EthernetSwitch</title>
<path fill="none" stroke="black" d="M244.66,-58.03C287.77,-49.34 372.67,-32.23 427.97,-21.09"/>
<polygon fill="black" stroke="black" points="428.82,-24.48 437.94,-19.08 427.44,-17.62 428.82,-24.48"/>
</g>
</g>
</svg>
