<?xml version="1.0" encoding="UTF-8" standalone="no"?>
<!DOCTYPE svg PUBLIC "-//W3C//DTD SVG 1.1//EN"
 "http://www.w3.org/Graphics/SVG/1.1/DTD/svg11.dtd">
<!-- Generated by graphviz version 2.43.0 (0)
 -->
<!-- Title: opp Pages: 1 -->
<svg width="689pt" height="82pt"
 viewBox="0.00 0.00 689.00 82.00" xmlns="http://www.w3.org/2000/svg" xmlns:xlink="http://www.w3.org/1999/xlink">
<g id="graph0" class="graph" transform="scale(1 1) rotate(0) translate(4 78)">
<title>opp</title>
<polygon fill="transparent" stroke="transparent" points="-4,4 -4,-78 685,-78 685,4 -4,4"/>
<!-- DYMONetwork -->
<g id="node1" class="node">
<title>DYMONetwork</title>
<g id="a_node1"><a xlink:href="inet.examples.manetrouting.dymo.DYMONetwork.html" xlink:title="Network DYMONetwork" target="_parent">
<polygon fill="#9090ff" stroke="black" points="383.5,-74 295.5,-74 295.5,-55 383.5,-55 383.5,-74"/>
<text text-anchor="middle" x="339.5" y="-62" font-family="Helvetica,sans-Serif" font-size="10.00">DYMONetwork</text>
</a>
</g>
</g>
<!-- ScenarioManager -->
<g id="node2" class="node">
<title>ScenarioManager</title>
<g id="a_node2"><a xlink:href="inet.common.scenario.ScenarioManager.html" xlink:title="Simple Module ScenarioManager" target="_parent">
<polygon fill="#fffcaf" stroke="black" points="101,-19 0,-19 0,0 101,0 101,-19"/>
<text text-anchor="middle" x="50.5" y="-7" font-family="Helvetica,sans-Serif" font-size="10.00">ScenarioManager</text>
</a>
</g>
</g>
<!-- DYMONetwork&#45;&gt;ScenarioManager -->
<g id="edge1" class="edge">
<title>DYMONetwork&#45;&gt;ScenarioManager</title>
<path fill="none" stroke="black" d="M295.29,-55.39C244.83,-46.14 162.17,-30.98 107.05,-20.87"/>
<polygon fill="black" stroke="black" points="107.57,-17.41 97.1,-19.05 106.3,-24.29 107.57,-17.41"/>
</g>
<!-- Ipv4NetworkConfigurator -->
<g id="node3" class="node">
<title>Ipv4NetworkConfigurator</title>
<g id="a_node3"><a xlink:href="inet.networklayer.configurator.ipv4.Ipv4NetworkConfigurator.html" xlink:title="Simple Module Ipv4NetworkConfigurator" target="_parent">
<polygon fill="#fffcaf" stroke="black" points="259.5,-19 119.5,-19 119.5,0 259.5,0 259.5,-19"/>
<text text-anchor="middle" x="189.5" y="-7" font-family="Helvetica,sans-Serif" font-size="10.00">Ipv4NetworkConfigurator</text>
</a>
</g>
</g>
<!-- DYMONetwork&#45;&gt;Ipv4NetworkConfigurator -->
<g id="edge2" class="edge">
<title>DYMONetwork&#45;&gt;Ipv4NetworkConfigurator</title>
<path fill="none" stroke="black" d="M315.4,-54.98C290.62,-46.23 251.8,-32.51 223.81,-22.62"/>
<polygon fill="black" stroke="black" points="224.63,-19.2 214.04,-19.17 222.3,-25.8 224.63,-19.2"/>
</g>
<!-- RoutingTableRecorder -->
<g id="node4" class="node">
<title>RoutingTableRecorder</title>
<g id="a_node4"><a xlink:href="inet.networklayer.ipv4.RoutingTableRecorder.html" xlink:title="Simple Module RoutingTableRecorder" target="_parent">
<polygon fill="#fffcaf" stroke="black" points="401,-19 278,-19 278,0 401,0 401,-19"/>
<text text-anchor="middle" x="339.5" y="-7" font-family="Helvetica,sans-Serif" font-size="10.00">RoutingTableRecorder</text>
</a>
</g>
</g>
<!-- DYMONetwork&#45;&gt;RoutingTableRecorder -->
<g id="edge3" class="edge">
<title>DYMONetwork&#45;&gt;RoutingTableRecorder</title>
<path fill="none" stroke="black" d="M339.5,-54.75C339.5,-47.8 339.5,-37.85 339.5,-29.13"/>
<polygon fill="black" stroke="black" points="343,-29.09 339.5,-19.09 336,-29.09 343,-29.09"/>
</g>
<!-- DymoRouter -->
<g id="node5" class="node">
<title>DymoRouter</title>
<g id="a_node5"><a xlink:href="inet.node.dymo.DymoRouter.html" xlink:title="Compound Module DymoRouter" target="_parent">
<polygon fill="#fffcaf" stroke="black" points="497.5,-19 419.5,-19 419.5,0 497.5,0 497.5,-19"/>
<text text-anchor="middle" x="458.5" y="-7" font-family="Helvetica,sans-Serif" font-size="10.00">DymoRouter</text>
</a>
</g>
</g>
<!-- DYMONetwork&#45;&gt;DymoRouter -->
<g id="edge4" class="edge">
<title>DYMONetwork&#45;&gt;DymoRouter</title>
<path fill="none" stroke="black" d="M358.62,-54.98C377.85,-46.42 407.73,-33.11 429.81,-23.28"/>
<polygon fill="black" stroke="black" points="431.32,-26.44 439.03,-19.17 428.47,-20.04 431.32,-26.44"/>
</g>
<!-- Ieee80211ScalarRadioMedium -->
<g id="node6" class="node">
<title>Ieee80211ScalarRadioMedium</title>
<g id="a_node6"><a xlink:href="inet.physicallayer.wireless.ieee80211.packetlevel.Ieee80211ScalarRadioMedium.html" xlink:title="Compound Module Ieee80211ScalarRadioMedium" target="_parent">
<polygon fill="#fffcaf" stroke="black" points="681,-19 516,-19 516,0 681,0 681,-19"/>
<text text-anchor="middle" x="598.5" y="-7" font-family="Helvetica,sans-Serif" font-size="10.00">Ieee80211ScalarRadioMedium</text>
</a>
</g>
</g>
<!-- DYMONetwork&#45;&gt;Ieee80211ScalarRadioMedium -->
<g id="edge5" class="edge">
<title>DYMONetwork&#45;&gt;Ieee80211ScalarRadioMedium</title>
<path fill="none" stroke="black" d="M381.11,-54.98C426.1,-45.78 497.89,-31.09 546.55,-21.13"/>
<polygon fill="black" stroke="black" points="547.47,-24.52 556.56,-19.08 546.06,-17.66 547.47,-24.52"/>
</g>
</g>
</svg>
