<?xml version="1.0" encoding="UTF-8" standalone="no"?>
<!DOCTYPE svg PUBLIC "-//W3C//DTD SVG 1.1//EN"
 "http://www.w3.org/Graphics/SVG/1.1/DTD/svg11.dtd">
<!-- Generated by graphviz version 2.43.0 (0)
 -->
<!-- Title: opp Pages: 1 -->
<svg width="432pt" height="82pt"
 viewBox="0.00 0.00 431.50 82.00" xmlns="http://www.w3.org/2000/svg" xmlns:xlink="http://www.w3.org/1999/xlink">
<g id="graph0" class="graph" transform="scale(1 1) rotate(0) translate(4 78)">
<title>opp</title>
<polygon fill="transparent" stroke="transparent" points="-4,4 -4,-78 427.5,-78 427.5,4 -4,4"/>
<!-- v3_mesh -->
<g id="node1" class="node">
<title>v3_mesh</title>
<g id="a_node1"><a xlink:href="inet.examples.ospfv3.v3_mesh.v3_mesh.html" xlink:title="Network v3_mesh" target="_parent">
<polygon fill="#9090ff" stroke="black" points="218,-74 157,-74 157,-55 218,-55 218,-74"/>
<text text-anchor="middle" x="187.5" y="-62" font-family="Helvetica,sans-Serif" font-size="10.00">v3_mesh</text>
</a>
</g>
</g>
<!-- Ospfv3Router -->
<g id="node2" class="node">
<title>Ospfv3Router</title>
<g id="a_node2"><a xlink:href="inet.node.ospfv3.Ospfv3Router.html" xlink:title="Compound Module Ospfv3Router" target="_parent">
<polygon fill="#fffcaf" stroke="black" points="83,-19 0,-19 0,0 83,0 83,-19"/>
<text text-anchor="middle" x="41.5" y="-7" font-family="Helvetica,sans-Serif" font-size="10.00">Ospfv3Router</text>
</a>
</g>
</g>
<!-- v3_mesh&#45;&gt;Ospfv3Router -->
<g id="edge1" class="edge">
<title>v3_mesh&#45;&gt;Ospfv3Router</title>
<path fill="none" stroke="black" d="M164.04,-54.98C139.92,-46.23 102.13,-32.51 74.9,-22.62"/>
<polygon fill="black" stroke="black" points="75.98,-19.29 65.38,-19.17 73.59,-25.87 75.98,-19.29"/>
</g>
<!-- Channel -->
<g id="node3" class="node">
<title>Channel</title>
<g id="a_node3"><a xlink:href="inet.examples.ospfv3.v3_mesh.v3_mesh.Channel.html" xlink:title="Channel Channel" target="_parent">
<polygon fill="#d0ffd0" stroke="black" points="157.5,-19 101.5,-19 101.5,0 157.5,0 157.5,-19"/>
<text text-anchor="middle" x="129.5" y="-7" font-family="Helvetica,sans-Serif" font-size="10.00">Channel</text>
</a>
</g>
</g>
<!-- v3_mesh&#45;&gt;Channel -->
<g id="edge2" class="edge">
<title>v3_mesh&#45;&gt;Channel</title>
<path fill="none" stroke="black" d="M178.18,-54.98C169.69,-47.23 156.94,-35.58 146.62,-26.14"/>
<polygon fill="black" stroke="black" points="148.73,-23.33 138.99,-19.17 144.01,-28.5 148.73,-23.33"/>
</g>
<!-- Ipv4NetworkConfigurator -->
<g id="node4" class="node">
<title>Ipv4NetworkConfigurator</title>
<g id="a_node4"><a xlink:href="inet.networklayer.configurator.ipv4.Ipv4NetworkConfigurator.html" xlink:title="Simple Module Ipv4NetworkConfigurator" target="_parent">
<polygon fill="#fffcaf" stroke="black" points="315.5,-19 175.5,-19 175.5,0 315.5,0 315.5,-19"/>
<text text-anchor="middle" x="245.5" y="-7" font-family="Helvetica,sans-Serif" font-size="10.00">Ipv4NetworkConfigurator</text>
</a>
</g>
</g>
<!-- v3_mesh&#45;&gt;Ipv4NetworkConfigurator -->
<g id="edge3" class="edge">
<title>v3_mesh&#45;&gt;Ipv4NetworkConfigurator</title>
<path fill="none" stroke="black" d="M196.82,-54.98C205.31,-47.23 218.06,-35.58 228.38,-26.14"/>
<polygon fill="black" stroke="black" points="230.99,-28.5 236.01,-19.17 226.27,-23.33 230.99,-28.5"/>
</g>
<!-- EthernetSwitch -->
<g id="node5" class="node">
<title>EthernetSwitch</title>
<g id="a_node5"><a xlink:href="inet.node.ethernet.EthernetSwitch.html" xlink:title="Compound Module EthernetSwitch" target="_parent">
<polygon fill="#fffcaf" stroke="black" points="423.5,-19 333.5,-19 333.5,0 423.5,0 423.5,-19"/>
<text text-anchor="middle" x="378.5" y="-7" font-family="Helvetica,sans-Serif" font-size="10.00">EthernetSwitch</text>
</a>
</g>
</g>
<!-- v3_mesh&#45;&gt;EthernetSwitch -->
<g id="edge4" class="edge">
<title>v3_mesh&#45;&gt;EthernetSwitch</title>
<path fill="none" stroke="black" d="M218.19,-54.98C250.67,-45.97 302.1,-31.7 337.91,-21.76"/>
<polygon fill="black" stroke="black" points="338.87,-25.13 347.57,-19.08 337,-18.38 338.87,-25.13"/>
</g>
</g>
</svg>
