<?xml version="1.0" encoding="UTF-8" standalone="no"?>
<!DOCTYPE svg PUBLIC "-//W3C//DTD SVG 1.1//EN"
 "http://www.w3.org/Graphics/SVG/1.1/DTD/svg11.dtd">
<!-- Generated by graphviz version 2.43.0 (0)
 -->
<!-- Title: opp Pages: 1 -->
<svg width="588pt" height="82pt"
 viewBox="0.00 0.00 588.00 82.00" xmlns="http://www.w3.org/2000/svg" xmlns:xlink="http://www.w3.org/1999/xlink">
<g id="graph0" class="graph" transform="scale(1 1) rotate(0) translate(4 78)">
<title>opp</title>
<polygon fill="transparent" stroke="transparent" points="-4,4 -4,-78 584,-78 584,4 -4,4"/>
<!-- TC3 -->
<g id="node1" class="node">
<title>TC3</title>
<g id="a_node1"><a xlink:href="inet.examples.diffserv.onedomain.TC3.html" xlink:title="Compound Module TC3" target="_parent">
<polygon fill="#fff700" stroke="black" points="306,-74 252,-74 252,-55 306,-55 306,-74"/>
<text text-anchor="middle" x="279" y="-62" font-family="Helvetica,sans-Serif" font-size="10.00">TC3</text>
</a>
</g>
</g>
<!-- IdealChannel -->
<g id="node2" class="node">
<title>IdealChannel</title>
<g id="a_node2"><a xlink:href="ned.IdealChannel.html" xlink:title="Channel IdealChannel" target="_parent">
<polygon fill="#d0ffd0" stroke="black" points="80,-19 0,-19 0,0 80,0 80,-19"/>
<text text-anchor="middle" x="40" y="-7" font-family="Helvetica,sans-Serif" font-size="10.00">IdealChannel</text>
</a>
</g>
</g>
<!-- TC3&#45;&gt;IdealChannel -->
<g id="edge1" class="edge">
<title>TC3&#45;&gt;IdealChannel</title>
<path fill="none" stroke="black" d="M251.58,-57.42C211.78,-48.59 137.39,-32.1 88.27,-21.21"/>
<polygon fill="black" stroke="black" points="89.02,-17.79 78.5,-19.04 87.51,-24.62 89.02,-17.79"/>
</g>
<!-- PassivePacketSink -->
<g id="node3" class="node">
<title>PassivePacketSink</title>
<g id="a_node3"><a xlink:href="inet.queueing.sink.PassivePacketSink.html" xlink:title="Simple Module PassivePacketSink" target="_parent">
<polygon fill="#fffcaf" stroke="black" points="205.5,-19 98.5,-19 98.5,0 205.5,0 205.5,-19"/>
<text text-anchor="middle" x="152" y="-7" font-family="Helvetica,sans-Serif" font-size="10.00">PassivePacketSink</text>
</a>
</g>
</g>
<!-- TC3&#45;&gt;PassivePacketSink -->
<g id="edge2" class="edge">
<title>TC3&#45;&gt;PassivePacketSink</title>
<path fill="none" stroke="black" d="M258.6,-54.98C237.98,-46.38 205.89,-32.99 182.31,-23.15"/>
<polygon fill="black" stroke="black" points="183.35,-19.79 172.78,-19.17 180.66,-26.25 183.35,-19.79"/>
</g>
<!-- MultiFieldClassifier -->
<g id="node4" class="node">
<title>MultiFieldClassifier</title>
<g id="a_node4"><a xlink:href="inet.networklayer.diffserv.MultiFieldClassifier.html" xlink:title="Simple Module MultiFieldClassifier" target="_parent">
<polygon fill="#fffcaf" stroke="black" points="334,-19 224,-19 224,0 334,0 334,-19"/>
<text text-anchor="middle" x="279" y="-7" font-family="Helvetica,sans-Serif" font-size="10.00">MultiFieldClassifier</text>
</a>
</g>
</g>
<!-- TC3&#45;&gt;MultiFieldClassifier -->
<g id="edge3" class="edge">
<title>TC3&#45;&gt;MultiFieldClassifier</title>
<path fill="none" stroke="black" d="M279,-54.75C279,-47.8 279,-37.85 279,-29.13"/>
<polygon fill="black" stroke="black" points="282.5,-29.09 279,-19.09 275.5,-29.09 282.5,-29.09"/>
</g>
<!-- PacketMultiplexer -->
<g id="node5" class="node">
<title>PacketMultiplexer</title>
<g id="a_node5"><a xlink:href="inet.queueing.common.PacketMultiplexer.html" xlink:title="Simple Module PacketMultiplexer" target="_parent">
<polygon fill="#fffcaf" stroke="black" points="456,-19 352,-19 352,0 456,0 456,-19"/>
<text text-anchor="middle" x="404" y="-7" font-family="Helvetica,sans-Serif" font-size="10.00">PacketMultiplexer</text>
</a>
</g>
</g>
<!-- TC3&#45;&gt;PacketMultiplexer -->
<g id="edge4" class="edge">
<title>TC3&#45;&gt;PacketMultiplexer</title>
<path fill="none" stroke="black" d="M299.08,-54.98C319.37,-46.38 350.96,-32.99 374.17,-23.15"/>
<polygon fill="black" stroke="black" points="375.71,-26.3 383.55,-19.17 372.98,-19.85 375.71,-26.3"/>
</g>
<!-- TokenBucketMeter -->
<g id="node6" class="node">
<title>TokenBucketMeter</title>
<g id="a_node6"><a xlink:href="inet.networklayer.diffserv.TokenBucketMeter.html" xlink:title="Simple Module TokenBucketMeter" target="_parent">
<polygon fill="#fffcaf" stroke="black" points="580,-19 474,-19 474,0 580,0 580,-19"/>
<text text-anchor="middle" x="527" y="-7" font-family="Helvetica,sans-Serif" font-size="10.00">TokenBucketMeter</text>
</a>
</g>
</g>
<!-- TC3&#45;&gt;TokenBucketMeter -->
<g id="edge5" class="edge">
<title>TC3&#45;&gt;TokenBucketMeter</title>
<path fill="none" stroke="black" d="M306.01,-57.73C346.97,-48.97 425.46,-32.2 477.02,-21.18"/>
<polygon fill="black" stroke="black" points="477.9,-24.57 486.95,-19.06 476.44,-17.73 477.9,-24.57"/>
</g>
</g>
</svg>
