<?xml version="1.0" encoding="UTF-8" standalone="no"?>
<!DOCTYPE svg PUBLIC "-//W3C//DTD SVG 1.1//EN"
 "http://www.w3.org/Graphics/SVG/1.1/DTD/svg11.dtd">
<!-- Generated by graphviz version 2.43.0 (0)
 -->
<!-- Title: opp Pages: 1 -->
<svg width="1060pt" height="82pt"
 viewBox="0.00 0.00 1059.50 82.00" xmlns="http://www.w3.org/2000/svg" xmlns:xlink="http://www.w3.org/1999/xlink">
<g id="graph0" class="graph" transform="scale(1 1) rotate(0) translate(4 78)">
<title>opp</title>
<polygon fill="transparent" stroke="transparent" points="-4,4 -4,-78 1055.5,-78 1055.5,4 -4,4"/>
<!-- mIPv6Network -->
<g id="node1" class="node">
<title>mIPv6Network</title>
<g id="a_node1"><a xlink:href="inet.examples.mobileipv6.mIPv6Network.html" xlink:title="Network mIPv6Network" target="_parent">
<polygon fill="#9090ff" stroke="black" points="506,-74 417,-74 417,-55 506,-55 506,-74"/>
<text text-anchor="middle" x="461.5" y="-62" font-family="Helvetica,sans-Serif" font-size="10.00">mIPv6Network</text>
</a>
</g>
</g>
<!-- WirelessHost6 -->
<g id="node2" class="node">
<title>WirelessHost6</title>
<g id="a_node2"><a xlink:href="inet.node.xmipv6.WirelessHost6.html" xlink:title="Compound Module WirelessHost6" target="_parent">
<polygon fill="#fffcaf" stroke="black" points="87,-19 0,-19 0,0 87,0 87,-19"/>
<text text-anchor="middle" x="43.5" y="-7" font-family="Helvetica,sans-Serif" font-size="10.00">WirelessHost6</text>
</a>
</g>
</g>
<!-- mIPv6Network&#45;&gt;WirelessHost6 -->
<g id="edge1" class="edge">
<title>mIPv6Network&#45;&gt;WirelessHost6</title>
<path fill="none" stroke="black" d="M416.91,-58.68C349.8,-51.28 218.58,-36.32 97.37,-19.22"/>
<polygon fill="black" stroke="black" points="97.57,-15.71 87.17,-17.77 96.58,-22.64 97.57,-15.71"/>
</g>
<!-- AccessPoint -->
<g id="node3" class="node">
<title>AccessPoint</title>
<g id="a_node3"><a xlink:href="inet.node.wireless.AccessPoint.html" xlink:title="Compound Module AccessPoint" target="_parent">
<polygon fill="#fffcaf" stroke="black" points="180,-19 105,-19 105,0 180,0 180,-19"/>
<text text-anchor="middle" x="142.5" y="-7" font-family="Helvetica,sans-Serif" font-size="10.00">AccessPoint</text>
</a>
</g>
</g>
<!-- mIPv6Network&#45;&gt;AccessPoint -->
<g id="edge2" class="edge">
<title>mIPv6Network&#45;&gt;AccessPoint</title>
<path fill="none" stroke="black" d="M416.52,-56.47C364.38,-48.25 275.59,-34.05 190.02,-19.24"/>
<polygon fill="black" stroke="black" points="190.6,-15.78 180.14,-17.52 189.4,-22.68 190.6,-15.78"/>
</g>
<!-- CorrespondentNode6 -->
<g id="node4" class="node">
<title>CorrespondentNode6</title>
<g id="a_node4"><a xlink:href="inet.node.xmipv6.CorrespondentNode6.html" xlink:title="Compound Module CorrespondentNode6" target="_parent">
<polygon fill="#fffcaf" stroke="black" points="317,-19 198,-19 198,0 317,0 317,-19"/>
<text text-anchor="middle" x="257.5" y="-7" font-family="Helvetica,sans-Serif" font-size="10.00">CorrespondentNode6</text>
</a>
</g>
</g>
<!-- mIPv6Network&#45;&gt;CorrespondentNode6 -->
<g id="edge3" class="edge">
<title>mIPv6Network&#45;&gt;CorrespondentNode6</title>
<path fill="none" stroke="black" d="M428.72,-54.98C393.88,-45.93 338.63,-31.58 300.36,-21.64"/>
<polygon fill="black" stroke="black" points="301.09,-18.21 290.53,-19.08 299.33,-24.98 301.09,-18.21"/>
</g>
<!-- HomeAgent6 -->
<g id="node5" class="node">
<title>HomeAgent6</title>
<g id="a_node5"><a xlink:href="inet.node.xmipv6.HomeAgent6.html" xlink:title="Compound Module HomeAgent6" target="_parent">
<polygon fill="#fffcaf" stroke="black" points="415.5,-19 335.5,-19 335.5,0 415.5,0 415.5,-19"/>
<text text-anchor="middle" x="375.5" y="-7" font-family="Helvetica,sans-Serif" font-size="10.00">HomeAgent6</text>
</a>
</g>
</g>
<!-- mIPv6Network&#45;&gt;HomeAgent6 -->
<g id="edge4" class="edge">
<title>mIPv6Network&#45;&gt;HomeAgent6</title>
<path fill="none" stroke="black" d="M447.68,-54.98C434.35,-46.77 413.92,-34.18 398.19,-24.49"/>
<polygon fill="black" stroke="black" points="399.92,-21.44 389.57,-19.17 396.25,-27.4 399.92,-21.44"/>
</g>
<!-- Router6 -->
<g id="node6" class="node">
<title>Router6</title>
<g id="a_node6"><a xlink:href="inet.node.ipv6.Router6.html" xlink:title="Compound Module Router6" target="_parent">
<polygon fill="#fffcaf" stroke="black" points="489,-19 434,-19 434,0 489,0 489,-19"/>
<text text-anchor="middle" x="461.5" y="-7" font-family="Helvetica,sans-Serif" font-size="10.00">Router6</text>
</a>
</g>
</g>
<!-- mIPv6Network&#45;&gt;Router6 -->
<g id="edge5" class="edge">
<title>mIPv6Network&#45;&gt;Router6</title>
<path fill="none" stroke="black" d="M461.5,-54.75C461.5,-47.8 461.5,-37.85 461.5,-29.13"/>
<polygon fill="black" stroke="black" points="465,-29.09 461.5,-19.09 458,-29.09 465,-29.09"/>
</g>
<!-- ethernetline -->
<g id="node7" class="node">
<title>ethernetline</title>
<g id="a_node7"><a xlink:href="inet.examples.mobileipv6.ethernetline.html" xlink:title="Channel ethernetline" target="_parent">
<polygon fill="#d0ffd0" stroke="black" points="583.5,-19 507.5,-19 507.5,0 583.5,0 583.5,-19"/>
<text text-anchor="middle" x="545.5" y="-7" font-family="Helvetica,sans-Serif" font-size="10.00">ethernetline</text>
</a>
</g>
</g>
<!-- mIPv6Network&#45;&gt;ethernetline -->
<g id="edge6" class="edge">
<title>mIPv6Network&#45;&gt;ethernetline</title>
<path fill="none" stroke="black" d="M475,-54.98C487.9,-46.84 507.6,-34.41 522.9,-24.76"/>
<polygon fill="black" stroke="black" points="525.17,-27.47 531.76,-19.17 521.43,-21.55 525.17,-27.47"/>
</g>
<!-- Ipv6FlatNetworkConfigurator -->
<g id="node8" class="node">
<title>Ipv6FlatNetworkConfigurator</title>
<g id="a_node8"><a xlink:href="inet.networklayer.configurator.ipv6.Ipv6FlatNetworkConfigurator.html" xlink:title="Simple Module Ipv6FlatNetworkConfigurator" target="_parent">
<polygon fill="#fffcaf" stroke="black" points="759.5,-19 601.5,-19 601.5,0 759.5,0 759.5,-19"/>
<text text-anchor="middle" x="680.5" y="-7" font-family="Helvetica,sans-Serif" font-size="10.00">Ipv6FlatNetworkConfigurator</text>
</a>
</g>
</g>
<!-- mIPv6Network&#45;&gt;Ipv6FlatNetworkConfigurator -->
<g id="edge7" class="edge">
<title>mIPv6Network&#45;&gt;Ipv6FlatNetworkConfigurator</title>
<path fill="none" stroke="black" d="M496.69,-54.98C534.33,-45.87 594.16,-31.4 635.27,-21.45"/>
<polygon fill="black" stroke="black" points="636.14,-24.84 645.04,-19.08 634.5,-18.03 636.14,-24.84"/>
</g>
<!-- Ieee80211ScalarRadioMedium -->
<g id="node9" class="node">
<title>Ieee80211ScalarRadioMedium</title>
<g id="a_node9"><a xlink:href="inet.physicallayer.wireless.ieee80211.packetlevel.Ieee80211ScalarRadioMedium.html" xlink:title="Compound Module Ieee80211ScalarRadioMedium" target="_parent">
<polygon fill="#fffcaf" stroke="black" points="943,-19 778,-19 778,0 943,0 943,-19"/>
<text text-anchor="middle" x="860.5" y="-7" font-family="Helvetica,sans-Serif" font-size="10.00">Ieee80211ScalarRadioMedium</text>
</a>
</g>
</g>
<!-- mIPv6Network&#45;&gt;Ieee80211ScalarRadioMedium -->
<g id="edge8" class="edge">
<title>mIPv6Network&#45;&gt;Ieee80211ScalarRadioMedium</title>
<path fill="none" stroke="black" d="M506.11,-57.57C574.04,-48.55 704.2,-31.26 786.46,-20.34"/>
<polygon fill="black" stroke="black" points="787.04,-23.79 796.49,-19 786.12,-16.85 787.04,-23.79"/>
</g>
<!-- EthernetSwitch -->
<g id="node10" class="node">
<title>EthernetSwitch</title>
<g id="a_node10"><a xlink:href="inet.node.ethernet.EthernetSwitch.html" xlink:title="Compound Module EthernetSwitch" target="_parent">
<polygon fill="#fffcaf" stroke="black" points="1051.5,-19 961.5,-19 961.5,0 1051.5,0 1051.5,-19"/>
<text text-anchor="middle" x="1006.5" y="-7" font-family="Helvetica,sans-Serif" font-size="10.00">EthernetSwitch</text>
</a>
</g>
</g>
<!-- mIPv6Network&#45;&gt;EthernetSwitch -->
<g id="edge9" class="edge">
<title>mIPv6Network&#45;&gt;EthernetSwitch</title>
<path fill="none" stroke="black" d="M506.29,-60.43C591.05,-54.41 780.95,-39.89 951.29,-19.07"/>
<polygon fill="black" stroke="black" points="951.95,-22.52 961.45,-17.82 951.1,-15.57 951.95,-22.52"/>
</g>
</g>
</svg>
