<?xml version="1.0" encoding="UTF-8" standalone="no"?>
<!DOCTYPE svg PUBLIC "-//W3C//DTD SVG 1.1//EN"
 "http://www.w3.org/Graphics/SVG/1.1/DTD/svg11.dtd">
<!-- Generated by graphviz version 2.43.0 (0)
 -->
<!-- Title: opp Pages: 1 -->
<svg width="268pt" height="82pt"
 viewBox="0.00 0.00 267.50 82.00" xmlns="http://www.w3.org/2000/svg" xmlns:xlink="http://www.w3.org/1999/xlink">
<g id="graph0" class="graph" transform="scale(1 1) rotate(0) translate(4 78)">
<title>opp</title>
<polygon fill="transparent" stroke="transparent" points="-4,4 -4,-78 263.5,-78 263.5,4 -4,4"/>
<!-- PacketPushToSend -->
<g id="node1" class="node">
<title>PacketPushToSend</title>
<g id="a_node1"><a xlink:href="inet.queueing.common.PacketPushToSend.html" xlink:title="Simple Module PacketPushToSend" target="_parent">
<polygon fill="#fff700" stroke="black" points="188,-19 81,-19 81,0 188,0 188,-19"/>
<text text-anchor="middle" x="134.5" y="-7" font-family="Helvetica,sans-Serif" font-size="10.00">PacketPushToSend</text>
</a>
</g>
</g>
<!-- PassivePacketSinkBase -->
<g id="node2" class="node">
<title>PassivePacketSinkBase</title>
<g id="a_node2"><a xlink:href="inet.queueing.base.PassivePacketSinkBase.html" xlink:title="Simple Module PassivePacketSinkBase" target="_parent">
<polygon fill="#fffcaf" stroke="black" points="131,-74 0,-74 0,-55 131,-55 131,-74"/>
<text text-anchor="middle" x="65.5" y="-62" font-family="Helvetica,sans-Serif" font-size="10.00">PassivePacketSinkBase</text>
</a>
</g>
</g>
<!-- PassivePacketSinkBase&#45;&gt;PacketPushToSend -->
<g id="edge1" class="edge">
<title>PassivePacketSinkBase&#45;&gt;PacketPushToSend</title>
<path fill="none" stroke="black" d="M76.59,-54.98C89.39,-45.15 110.33,-29.07 123.21,-19.17"/>
</g>
<!-- IPassivePacketSink -->
<g id="node3" class="node">
<title>IPassivePacketSink</title>
<g id="a_node3"><a xlink:href="inet.queueing.contract.IPassivePacketSink.html" xlink:title="Module Interface IPassivePacketSink" target="_parent">
<polygon fill="#fffcaf" stroke="black" stroke-dasharray="5,2" points="259.5,-74 149.5,-74 149.5,-55 259.5,-55 259.5,-74"/>
<text text-anchor="middle" x="204.5" y="-62" font-family="Helvetica,sans-Serif" font-size="10.00">IPassivePacketSink</text>
</a>
</g>
</g>
<!-- IPassivePacketSink&#45;&gt;PacketPushToSend -->
<g id="edge2" class="edge">
<title>IPassivePacketSink&#45;&gt;PacketPushToSend</title>
<path fill="none" stroke="black" stroke-dasharray="5,2" d="M193.25,-54.98C180.27,-45.15 159.02,-29.07 145.95,-19.17"/>
</g>
</g>
</svg>
