<?xml version="1.0" encoding="UTF-8" standalone="no"?>
<!DOCTYPE svg PUBLIC "-//W3C//DTD SVG 1.1//EN"
 "http://www.w3.org/Graphics/SVG/1.1/DTD/svg11.dtd">
<!-- Generated by graphviz version 2.43.0 (0)
 -->
<!-- Title: opp Pages: 1 -->
<svg width="296pt" height="82pt"
 viewBox="0.00 0.00 296.00 82.00" xmlns="http://www.w3.org/2000/svg" xmlns:xlink="http://www.w3.org/1999/xlink">
<g id="graph0" class="graph" transform="scale(1 1) rotate(0) translate(4 78)">
<title>opp</title>
<polygon fill="transparent" stroke="transparent" points="-4,4 -4,-78 292,-78 292,4 -4,4"/>
<!-- TsnNetworkBase -->
<g id="node1" class="node">
<title>TsnNetworkBase</title>
<g id="a_node1"><a xlink:href="inet.networks.base.TsnNetworkBase.html" xlink:title="Network TsnNetworkBase" target="_parent">
<polygon fill="#9090ff" stroke="black" points="199,-74 101,-74 101,-55 199,-55 199,-74"/>
<text text-anchor="middle" x="150" y="-62" font-family="Helvetica,sans-Serif" font-size="10.00">TsnNetworkBase</text>
</a>
</g>
</g>
<!-- IGateScheduleConfigurator -->
<g id="node2" class="node">
<title>IGateScheduleConfigurator</title>
<g id="a_node2"><a xlink:href="inet.linklayer.configurator.gatescheduling.contract.IGateScheduleConfigurator.html" xlink:title="Module Interface IGateScheduleConfigurator" target="_parent">
<polygon fill="#fffcaf" stroke="black" stroke-dasharray="5,2" points="148,-19 0,-19 0,0 148,0 148,-19"/>
<text text-anchor="middle" x="74" y="-7" font-family="Helvetica,sans-Serif" font-size="10.00">IGateScheduleConfigurator</text>
</a>
</g>
</g>
<!-- TsnNetworkBase&#45;&gt;IGateScheduleConfigurator -->
<g id="edge1" class="edge">
<title>TsnNetworkBase&#45;&gt;IGateScheduleConfigurator</title>
<path fill="none" stroke="black" d="M137.79,-54.98C126.22,-46.92 108.62,-34.65 94.84,-25.03"/>
<polygon fill="black" stroke="black" points="96.64,-22.02 86.43,-19.17 92.63,-27.76 96.64,-22.02"/>
</g>
<!-- INetworkConfigurator -->
<g id="node3" class="node">
<title>INetworkConfigurator</title>
<g id="a_node3"><a xlink:href="inet.networklayer.configurator.contract.INetworkConfigurator.html" xlink:title="Module Interface INetworkConfigurator" target="_parent">
<polygon fill="#fffcaf" stroke="black" stroke-dasharray="5,2" points="288,-19 166,-19 166,0 288,0 288,-19"/>
<text text-anchor="middle" x="227" y="-7" font-family="Helvetica,sans-Serif" font-size="10.00">INetworkConfigurator</text>
</a>
</g>
</g>
<!-- TsnNetworkBase&#45;&gt;INetworkConfigurator -->
<g id="edge2" class="edge">
<title>TsnNetworkBase&#45;&gt;INetworkConfigurator</title>
<path fill="none" stroke="black" d="M162.37,-54.98C174.09,-46.92 191.92,-34.65 205.89,-25.03"/>
<polygon fill="black" stroke="black" points="208.15,-27.72 214.4,-19.17 204.18,-21.96 208.15,-27.72"/>
</g>
</g>
</svg>
