<?xml version="1.0" encoding="UTF-8" standalone="no"?>
<!DOCTYPE svg PUBLIC "-//W3C//DTD SVG 1.1//EN"
 "http://www.w3.org/Graphics/SVG/1.1/DTD/svg11.dtd">
<!-- Generated by graphviz version 2.43.0 (0)
 -->
<!-- Title: opp Pages: 1 -->
<svg width="421pt" height="82pt"
 viewBox="0.00 0.00 420.50 82.00" xmlns="http://www.w3.org/2000/svg" xmlns:xlink="http://www.w3.org/1999/xlink">
<g id="graph0" class="graph" transform="scale(1 1) rotate(0) translate(4 78)">
<title>opp</title>
<polygon fill="transparent" stroke="transparent" points="-4,4 -4,-78 416.5,-78 416.5,4 -4,4"/>
<!-- IPacketTransmitter -->
<g id="node1" class="node">
<title>IPacketTransmitter</title>
<g id="a_node1"><a xlink:href="inet.protocolelement.transceiver.contract.IPacketTransmitter.html" xlink:title="Module Interface IPacketTransmitter" target="_parent">
<polygon fill="#fff700" stroke="black" stroke-dasharray="5,2" points="238.5,-74 130.5,-74 130.5,-55 238.5,-55 238.5,-74"/>
<text text-anchor="middle" x="184.5" y="-62" font-family="Helvetica,sans-Serif" font-size="10.00">IPacketTransmitter</text>
</a>
</g>
</g>
<!-- PacketTransmitter -->
<g id="node2" class="node">
<title>PacketTransmitter</title>
<g id="a_node2"><a xlink:href="inet.protocolelement.transceiver.PacketTransmitter.html" xlink:title="Simple Module PacketTransmitter" target="_parent">
<polygon fill="#fffcaf" stroke="black" points="105,-19 0,-19 0,0 105,0 105,-19"/>
<text text-anchor="middle" x="52.5" y="-7" font-family="Helvetica,sans-Serif" font-size="10.00">PacketTransmitter</text>
</a>
</g>
</g>
<!-- IPacketTransmitter&#45;&gt;PacketTransmitter -->
<g id="edge1" class="edge">
<title>IPacketTransmitter&#45;&gt;PacketTransmitter</title>
<path fill="none" stroke="black" stroke-dasharray="5,2" d="M163.29,-54.98C138.81,-45.15 98.74,-29.07 74.09,-19.17"/>
</g>
<!-- StreamingTransmitter -->
<g id="node3" class="node">
<title>StreamingTransmitter</title>
<g id="a_node3"><a xlink:href="inet.protocolelement.transceiver.StreamingTransmitter.html" xlink:title="Simple Module StreamingTransmitter" target="_parent">
<polygon fill="#fffcaf" stroke="black" points="246,-19 123,-19 123,0 246,0 246,-19"/>
<text text-anchor="middle" x="184.5" y="-7" font-family="Helvetica,sans-Serif" font-size="10.00">StreamingTransmitter</text>
</a>
</g>
</g>
<!-- IPacketTransmitter&#45;&gt;StreamingTransmitter -->
<g id="edge2" class="edge">
<title>IPacketTransmitter&#45;&gt;StreamingTransmitter</title>
<path fill="none" stroke="black" stroke-dasharray="5,2" d="M184.5,-54.75C184.5,-44.87 184.5,-28.9 184.5,-19.09"/>
</g>
<!-- StreamThroughTransmitter -->
<g id="node4" class="node">
<title>StreamThroughTransmitter</title>
<g id="a_node4"><a xlink:href="inet.protocolelement.transceiver.StreamThroughTransmitter.html" xlink:title="Simple Module StreamThroughTransmitter" target="_parent">
<polygon fill="#fffcaf" stroke="black" points="412.5,-19 264.5,-19 264.5,0 412.5,0 412.5,-19"/>
<text text-anchor="middle" x="338.5" y="-7" font-family="Helvetica,sans-Serif" font-size="10.00">StreamThroughTransmitter</text>
</a>
</g>
</g>
<!-- IPacketTransmitter&#45;&gt;StreamThroughTransmitter -->
<g id="edge3" class="edge">
<title>IPacketTransmitter&#45;&gt;StreamThroughTransmitter</title>
<path fill="none" stroke="black" stroke-dasharray="5,2" d="M209.24,-54.98C237.9,-45.12 284.83,-28.97 313.56,-19.08"/>
</g>
</g>
</svg>
