<?xml version="1.0" encoding="UTF-8" standalone="no"?>
<!DOCTYPE svg PUBLIC "-//W3C//DTD SVG 1.1//EN"
 "http://www.w3.org/Graphics/SVG/1.1/DTD/svg11.dtd">
<!-- Generated by graphviz version 2.43.0 (0)
 -->
<!-- Title: opp Pages: 1 -->
<svg width="460pt" height="82pt"
 viewBox="0.00 0.00 460.00 82.00" xmlns="http://www.w3.org/2000/svg" xmlns:xlink="http://www.w3.org/1999/xlink">
<g id="graph0" class="graph" transform="scale(1 1) rotate(0) translate(4 78)">
<title>opp</title>
<polygon fill="transparent" stroke="transparent" points="-4,4 -4,-78 456,-78 456,4 -4,4"/>
<!-- TransportConnectionVisualizationEnablingShowcase -->
<g id="node1" class="node">
<title>TransportConnectionVisualizationEnablingShowcase</title>
<g id="a_node1"><a xlink:href="inet.showcases.visualizer.canvas.transportconnection.TransportConnectionVisualizationEnablingShowcase.html" xlink:title="Network TransportConnectionVisualizationEnablingShowcase" target="_parent">
<polygon fill="#9090ff" stroke="black" points="380,-74 109,-74 109,-55 380,-55 380,-74"/>
<text text-anchor="middle" x="244.5" y="-62" font-family="Helvetica,sans-Serif" font-size="10.00">TransportConnectionVisualizationEnablingShowcase</text>
</a>
</g>
</g>
<!-- StandardHost -->
<g id="node2" class="node">
<title>StandardHost</title>
<g id="a_node2"><a xlink:href="inet.node.inet.StandardHost.html" xlink:title="Compound Module StandardHost" target="_parent">
<polygon fill="#fffcaf" stroke="black" points="83,-19 0,-19 0,0 83,0 83,-19"/>
<text text-anchor="middle" x="41.5" y="-7" font-family="Helvetica,sans-Serif" font-size="10.00">StandardHost</text>
</a>
</g>
</g>
<!-- TransportConnectionVisualizationEnablingShowcase&#45;&gt;StandardHost -->
<g id="edge1" class="edge">
<title>TransportConnectionVisualizationEnablingShowcase&#45;&gt;StandardHost</title>
<path fill="none" stroke="black" d="M211.88,-54.98C177.21,-45.93 122.24,-31.58 84.15,-21.64"/>
<polygon fill="black" stroke="black" points="84.93,-18.22 74.37,-19.08 83.16,-24.99 84.93,-18.22"/>
</g>
<!-- Ipv4NetworkConfigurator -->
<g id="node3" class="node">
<title>Ipv4NetworkConfigurator</title>
<g id="a_node3"><a xlink:href="inet.networklayer.configurator.ipv4.Ipv4NetworkConfigurator.html" xlink:title="Simple Module Ipv4NetworkConfigurator" target="_parent">
<polygon fill="#fffcaf" stroke="black" points="241.5,-19 101.5,-19 101.5,0 241.5,0 241.5,-19"/>
<text text-anchor="middle" x="171.5" y="-7" font-family="Helvetica,sans-Serif" font-size="10.00">Ipv4NetworkConfigurator</text>
</a>
</g>
</g>
<!-- TransportConnectionVisualizationEnablingShowcase&#45;&gt;Ipv4NetworkConfigurator -->
<g id="edge2" class="edge">
<title>TransportConnectionVisualizationEnablingShowcase&#45;&gt;Ipv4NetworkConfigurator</title>
<path fill="none" stroke="black" d="M232.77,-54.98C221.77,-47 205.08,-34.88 191.9,-25.31"/>
<polygon fill="black" stroke="black" points="193.59,-22.21 183.44,-19.17 189.48,-27.88 193.59,-22.21"/>
</g>
<!-- IntegratedVisualizer -->
<g id="node4" class="node">
<title>IntegratedVisualizer</title>
<g id="a_node4"><a xlink:href="inet.visualizer.common.IntegratedVisualizer.html" xlink:title="Compound Module IntegratedVisualizer" target="_parent">
<polygon fill="#fffcaf" stroke="black" points="375,-19 260,-19 260,0 375,0 375,-19"/>
<text text-anchor="middle" x="317.5" y="-7" font-family="Helvetica,sans-Serif" font-size="10.00">IntegratedVisualizer</text>
</a>
</g>
</g>
<!-- TransportConnectionVisualizationEnablingShowcase&#45;&gt;IntegratedVisualizer -->
<g id="edge3" class="edge">
<title>TransportConnectionVisualizationEnablingShowcase&#45;&gt;IntegratedVisualizer</title>
<path fill="none" stroke="black" d="M256.23,-54.98C267.23,-47 283.92,-34.88 297.1,-25.31"/>
<polygon fill="black" stroke="black" points="299.52,-27.88 305.56,-19.17 295.41,-22.21 299.52,-27.88"/>
</g>
<!-- Eth100M -->
<g id="node5" class="node">
<title>Eth100M</title>
<g id="a_node5"><a xlink:href="inet.node.ethernet.Eth100M.html" xlink:title="Channel Eth100M" target="_parent">
<polygon fill="#d0ffd0" stroke="black" points="452,-19 393,-19 393,0 452,0 452,-19"/>
<text text-anchor="middle" x="422.5" y="-7" font-family="Helvetica,sans-Serif" font-size="10.00">Eth100M</text>
</a>
</g>
</g>
<!-- TransportConnectionVisualizationEnablingShowcase&#45;&gt;Eth100M -->
<g id="edge4" class="edge">
<title>TransportConnectionVisualizationEnablingShowcase&#45;&gt;Eth100M</title>
<path fill="none" stroke="black" d="M273.1,-54.98C303.11,-46.05 350.48,-31.94 383.82,-22.02"/>
<polygon fill="black" stroke="black" points="385.09,-25.29 393.68,-19.08 383.09,-18.58 385.09,-25.29"/>
</g>
</g>
</svg>
