<?xml version="1.0" encoding="UTF-8" standalone="no"?>
<!DOCTYPE svg PUBLIC "-//W3C//DTD SVG 1.1//EN"
 "http://www.w3.org/Graphics/SVG/1.1/DTD/svg11.dtd">
<!-- Generated by graphviz version 2.43.0 (0)
 -->
<!-- Title: opp Pages: 1 -->
<svg width="468pt" height="82pt"
 viewBox="0.00 0.00 467.50 82.00" xmlns="http://www.w3.org/2000/svg" xmlns:xlink="http://www.w3.org/1999/xlink">
<g id="graph0" class="graph" transform="scale(1 1) rotate(0) translate(4 78)">
<title>opp</title>
<polygon fill="transparent" stroke="transparent" points="-4,4 -4,-78 463.5,-78 463.5,4 -4,4"/>
<!-- RateControlTest -->
<g id="node1" class="node">
<title>RateControlTest</title>
<g id="a_node1"><a xlink:href="inet.examples.wireless.ratecontrol.RateControlTest.html" xlink:title="Network RateControlTest" target="_parent">
<polygon fill="#9090ff" stroke="black" points="234,-74 140,-74 140,-55 234,-55 234,-74"/>
<text text-anchor="middle" x="187" y="-62" font-family="Helvetica,sans-Serif" font-size="10.00">RateControlTest</text>
</a>
</g>
</g>
<!-- Client -->
<g id="node2" class="node">
<title>Client</title>
<g id="a_node2"><a xlink:href="inet.examples.wireless.ratecontrol.Client.html" xlink:title="Compound Module Client" target="_parent">
<polygon fill="#fffcaf" stroke="black" points="54,-19 0,-19 0,0 54,0 54,-19"/>
<text text-anchor="middle" x="27" y="-7" font-family="Helvetica,sans-Serif" font-size="10.00">Client</text>
</a>
</g>
</g>
<!-- RateControlTest&#45;&gt;Client -->
<g id="edge1" class="edge">
<title>RateControlTest&#45;&gt;Client</title>
<path fill="none" stroke="black" d="M161.29,-54.98C134.55,-46.13 92.47,-32.19 62.55,-22.28"/>
<polygon fill="black" stroke="black" points="63.5,-18.9 52.91,-19.08 61.3,-25.55 63.5,-18.9"/>
</g>
<!-- PhysicalEnvironment -->
<g id="node3" class="node">
<title>PhysicalEnvironment</title>
<g id="a_node3"><a xlink:href="inet.environment.common.PhysicalEnvironment.html" xlink:title="Compound Module PhysicalEnvironment" target="_parent">
<polygon fill="#fffcaf" stroke="black" points="191.5,-19 72.5,-19 72.5,0 191.5,0 191.5,-19"/>
<text text-anchor="middle" x="132" y="-7" font-family="Helvetica,sans-Serif" font-size="10.00">PhysicalEnvironment</text>
</a>
</g>
</g>
<!-- RateControlTest&#45;&gt;PhysicalEnvironment -->
<g id="edge2" class="edge">
<title>RateControlTest&#45;&gt;PhysicalEnvironment</title>
<path fill="none" stroke="black" d="M177.92,-54.75C169.91,-47.03 158.04,-35.6 148.38,-26.28"/>
<polygon fill="black" stroke="black" points="150.54,-23.51 140.91,-19.09 145.69,-28.55 150.54,-23.51"/>
</g>
<!-- SinkClient -->
<g id="node4" class="node">
<title>SinkClient</title>
<g id="a_node4"><a xlink:href="inet.examples.wireless.ratecontrol.SinkClient.html" xlink:title="Compound Module SinkClient" target="_parent">
<polygon fill="#fffcaf" stroke="black" points="276,-19 210,-19 210,0 276,0 276,-19"/>
<text text-anchor="middle" x="243" y="-7" font-family="Helvetica,sans-Serif" font-size="10.00">SinkClient</text>
</a>
</g>
</g>
<!-- RateControlTest&#45;&gt;SinkClient -->
<g id="edge3" class="edge">
<title>RateControlTest&#45;&gt;SinkClient</title>
<path fill="none" stroke="black" d="M196,-54.98C204.19,-47.23 216.51,-35.58 226.47,-26.14"/>
<polygon fill="black" stroke="black" points="228.98,-28.59 233.84,-19.17 224.17,-23.5 228.98,-28.59"/>
</g>
<!-- Ieee80211ScalarRadioMedium -->
<g id="node5" class="node">
<title>Ieee80211ScalarRadioMedium</title>
<g id="a_node5"><a xlink:href="inet.physicallayer.wireless.ieee80211.packetlevel.Ieee80211ScalarRadioMedium.html" xlink:title="Compound Module Ieee80211ScalarRadioMedium" target="_parent">
<polygon fill="#fffcaf" stroke="black" points="459.5,-19 294.5,-19 294.5,0 459.5,0 459.5,-19"/>
<text text-anchor="middle" x="377" y="-7" font-family="Helvetica,sans-Serif" font-size="10.00">Ieee80211ScalarRadioMedium</text>
</a>
</g>
</g>
<!-- RateControlTest&#45;&gt;Ieee80211ScalarRadioMedium -->
<g id="edge4" class="edge">
<title>RateControlTest&#45;&gt;Ieee80211ScalarRadioMedium</title>
<path fill="none" stroke="black" d="M217.53,-54.98C249.7,-46.01 300.56,-31.82 336.17,-21.89"/>
<polygon fill="black" stroke="black" points="337.54,-25.14 346.23,-19.08 335.66,-18.4 337.54,-25.14"/>
</g>
</g>
</svg>
