<?xml version="1.0" encoding="UTF-8" standalone="no"?>
<!DOCTYPE svg PUBLIC "-//W3C//DTD SVG 1.1//EN"
 "http://www.w3.org/Graphics/SVG/1.1/DTD/svg11.dtd">
<!-- Generated by graphviz version 2.43.0 (0)
 -->
<!-- Title: opp Pages: 1 -->
<svg width="304pt" height="82pt"
 viewBox="0.00 0.00 303.50 82.00" xmlns="http://www.w3.org/2000/svg" xmlns:xlink="http://www.w3.org/1999/xlink">
<g id="graph0" class="graph" transform="scale(1 1) rotate(0) translate(4 78)">
<title>opp</title>
<polygon fill="transparent" stroke="transparent" points="-4,4 -4,-78 299.5,-78 299.5,4 -4,4"/>
<!-- RouterPerfNetwork -->
<g id="node1" class="node">
<title>RouterPerfNetwork</title>
<g id="a_node1"><a xlink:href="inet.examples.inet.routerperf.RouterPerfNetwork.html" xlink:title="Network RouterPerfNetwork" target="_parent">
<polygon fill="#9090ff" stroke="black" points="165.5,-74 55.5,-74 55.5,-55 165.5,-55 165.5,-74"/>
<text text-anchor="middle" x="110.5" y="-62" font-family="Helvetica,sans-Serif" font-size="10.00">RouterPerfNetwork</text>
</a>
</g>
</g>
<!-- BurstHost -->
<g id="node2" class="node">
<title>BurstHost</title>
<g id="a_node2"><a xlink:href="inet.examples.inet.routerperf.BurstHost.html" xlink:title="Compound Module BurstHost" target="_parent">
<polygon fill="#fffcaf" stroke="black" points="65,-19 0,-19 0,0 65,0 65,-19"/>
<text text-anchor="middle" x="32.5" y="-7" font-family="Helvetica,sans-Serif" font-size="10.00">BurstHost</text>
</a>
</g>
</g>
<!-- RouterPerfNetwork&#45;&gt;BurstHost -->
<g id="edge1" class="edge">
<title>RouterPerfNetwork&#45;&gt;BurstHost</title>
<path fill="none" stroke="black" d="M97.97,-54.98C86.1,-46.92 68.04,-34.65 53.89,-25.03"/>
<polygon fill="black" stroke="black" points="55.5,-21.9 45.26,-19.17 51.56,-27.69 55.5,-21.9"/>
</g>
<!-- Router -->
<g id="node3" class="node">
<title>Router</title>
<g id="a_node3"><a xlink:href="inet.node.inet.Router.html" xlink:title="Compound Module Router" target="_parent">
<polygon fill="#fffcaf" stroke="black" points="137.5,-19 83.5,-19 83.5,0 137.5,0 137.5,-19"/>
<text text-anchor="middle" x="110.5" y="-7" font-family="Helvetica,sans-Serif" font-size="10.00">Router</text>
</a>
</g>
</g>
<!-- RouterPerfNetwork&#45;&gt;Router -->
<g id="edge2" class="edge">
<title>RouterPerfNetwork&#45;&gt;Router</title>
<path fill="none" stroke="black" d="M110.5,-54.75C110.5,-47.8 110.5,-37.85 110.5,-29.13"/>
<polygon fill="black" stroke="black" points="114,-29.09 110.5,-19.09 107,-29.09 114,-29.09"/>
</g>
<!-- Ipv4NetworkConfigurator -->
<g id="node4" class="node">
<title>Ipv4NetworkConfigurator</title>
<g id="a_node4"><a xlink:href="inet.networklayer.configurator.ipv4.Ipv4NetworkConfigurator.html" xlink:title="Simple Module Ipv4NetworkConfigurator" target="_parent">
<polygon fill="#fffcaf" stroke="black" points="295.5,-19 155.5,-19 155.5,0 295.5,0 295.5,-19"/>
<text text-anchor="middle" x="225.5" y="-7" font-family="Helvetica,sans-Serif" font-size="10.00">Ipv4NetworkConfigurator</text>
</a>
</g>
</g>
<!-- RouterPerfNetwork&#45;&gt;Ipv4NetworkConfigurator -->
<g id="edge3" class="edge">
<title>RouterPerfNetwork&#45;&gt;Ipv4NetworkConfigurator</title>
<path fill="none" stroke="black" d="M128.98,-54.98C147.48,-46.46 176.18,-33.23 197.48,-23.41"/>
<polygon fill="black" stroke="black" points="199.07,-26.53 206.69,-19.17 196.14,-20.18 199.07,-26.53"/>
</g>
</g>
</svg>
