<?xml version="1.0" encoding="UTF-8" standalone="no"?>
<!DOCTYPE svg PUBLIC "-//W3C//DTD SVG 1.1//EN"
 "http://www.w3.org/Graphics/SVG/1.1/DTD/svg11.dtd">
<!-- Generated by graphviz version 2.43.0 (0)
 -->
<!-- Title: opp Pages: 1 -->
<svg width="574pt" height="137pt"
 viewBox="0.00 0.00 574.00 137.00" xmlns="http://www.w3.org/2000/svg" xmlns:xlink="http://www.w3.org/1999/xlink">
<g id="graph0" class="graph" transform="scale(1 1) rotate(0) translate(4 133)">
<title>opp</title>
<polygon fill="transparent" stroke="transparent" points="-4,4 -4,-133 570,-133 570,4 -4,4"/>
<!-- LargeLAN -->
<g id="node1" class="node">
<title>LargeLAN</title>
<g id="a_node1"><a xlink:href="inet.examples.ethernet.lans.LargeLAN.html" xlink:title="Compound Module LargeLAN" target="_parent">
<polygon fill="#fff700" stroke="black" points="315,-74 251,-74 251,-55 315,-55 315,-74"/>
<text text-anchor="middle" x="283" y="-62" font-family="Helvetica,sans-Serif" font-size="10.00">LargeLAN</text>
</a>
</g>
</g>
<!-- IdealChannel -->
<g id="node2" class="node">
<title>IdealChannel</title>
<g id="a_node2"><a xlink:href="ned.IdealChannel.html" xlink:title="Channel IdealChannel" target="_parent">
<polygon fill="#d0ffd0" stroke="black" points="80,-19 0,-19 0,0 80,0 80,-19"/>
<text text-anchor="middle" x="40" y="-7" font-family="Helvetica,sans-Serif" font-size="10.00">IdealChannel</text>
</a>
</g>
</g>
<!-- LargeLAN&#45;&gt;IdealChannel -->
<g id="edge1" class="edge">
<title>LargeLAN&#45;&gt;IdealChannel</title>
<path fill="none" stroke="black" d="M250.98,-56.52C209.71,-47.52 137.54,-31.77 89.26,-21.24"/>
<polygon fill="black" stroke="black" points="89.85,-17.79 79.34,-19.08 88.36,-24.63 89.85,-17.79"/>
</g>
<!-- EthernetHost -->
<g id="node3" class="node">
<title>EthernetHost</title>
<g id="a_node3"><a xlink:href="inet.node.ethernet.EthernetHost.html" xlink:title="Compound Module EthernetHost" target="_parent">
<polygon fill="#fffcaf" stroke="black" points="178,-19 98,-19 98,0 178,0 178,-19"/>
<text text-anchor="middle" x="138" y="-7" font-family="Helvetica,sans-Serif" font-size="10.00">EthernetHost</text>
</a>
</g>
</g>
<!-- LargeLAN&#45;&gt;EthernetHost -->
<g id="edge2" class="edge">
<title>LargeLAN&#45;&gt;EthernetHost</title>
<path fill="none" stroke="black" d="M259.7,-54.98C235.75,-46.23 198.22,-32.51 171.17,-22.62"/>
<polygon fill="black" stroke="black" points="172.31,-19.32 161.72,-19.17 169.91,-25.89 172.31,-19.32"/>
</g>
<!-- EthernetHub -->
<g id="node4" class="node">
<title>EthernetHub</title>
<g id="a_node4"><a xlink:href="inet.node.ethernet.EthernetHub.html" xlink:title="Simple Module EthernetHub" target="_parent">
<polygon fill="#fffcaf" stroke="black" points="273.5,-19 196.5,-19 196.5,0 273.5,0 273.5,-19"/>
<text text-anchor="middle" x="235" y="-7" font-family="Helvetica,sans-Serif" font-size="10.00">EthernetHub</text>
</a>
</g>
</g>
<!-- LargeLAN&#45;&gt;EthernetHub -->
<g id="edge3" class="edge">
<title>LargeLAN&#45;&gt;EthernetHub</title>
<path fill="none" stroke="black" d="M275.07,-54.75C268.15,-47.11 257.93,-35.82 249.55,-26.56"/>
<polygon fill="black" stroke="black" points="252.09,-24.15 242.78,-19.09 246.9,-28.85 252.09,-24.15"/>
</g>
<!-- WireJunction -->
<g id="node5" class="node">
<title>WireJunction</title>
<g id="a_node5"><a xlink:href="inet.physicallayer.wired.common.WireJunction.html" xlink:title="Simple Module WireJunction" target="_parent">
<polygon fill="#fffcaf" stroke="black" points="370,-19 292,-19 292,0 370,0 370,-19"/>
<text text-anchor="middle" x="331" y="-7" font-family="Helvetica,sans-Serif" font-size="10.00">WireJunction</text>
</a>
</g>
</g>
<!-- LargeLAN&#45;&gt;WireJunction -->
<g id="edge4" class="edge">
<title>LargeLAN&#45;&gt;WireJunction</title>
<path fill="none" stroke="black" d="M290.93,-54.75C297.85,-47.11 308.07,-35.82 316.45,-26.56"/>
<polygon fill="black" stroke="black" points="319.1,-28.85 323.22,-19.09 313.91,-24.15 319.1,-28.85"/>
</g>
<!-- cabletobus -->
<g id="node6" class="node">
<title>cabletobus</title>
<g id="a_node6"><a xlink:href="inet.examples.ethernet.lans.LargeLAN.cabletobus.html" xlink:title="Channel cabletobus" target="_parent">
<polygon fill="#d0ffd0" stroke="black" points="458,-19 388,-19 388,0 458,0 458,-19"/>
<text text-anchor="middle" x="423" y="-7" font-family="Helvetica,sans-Serif" font-size="10.00">cabletobus</text>
</a>
</g>
</g>
<!-- LargeLAN&#45;&gt;cabletobus -->
<g id="edge5" class="edge">
<title>LargeLAN&#45;&gt;cabletobus</title>
<path fill="none" stroke="black" d="M305.49,-54.98C328.52,-46.27 364.54,-32.63 390.63,-22.75"/>
<polygon fill="black" stroke="black" points="391.98,-25.98 400.1,-19.17 389.51,-19.44 391.98,-25.98"/>
</g>
<!-- EthernetSwitch -->
<g id="node7" class="node">
<title>EthernetSwitch</title>
<g id="a_node7"><a xlink:href="inet.node.ethernet.EthernetSwitch.html" xlink:title="Compound Module EthernetSwitch" target="_parent">
<polygon fill="#fffcaf" stroke="black" points="566,-19 476,-19 476,0 566,0 566,-19"/>
<text text-anchor="middle" x="521" y="-7" font-family="Helvetica,sans-Serif" font-size="10.00">EthernetSwitch</text>
</a>
</g>
</g>
<!-- LargeLAN&#45;&gt;EthernetSwitch -->
<g id="edge6" class="edge">
<title>LargeLAN&#45;&gt;EthernetSwitch</title>
<path fill="none" stroke="black" d="M315.1,-56.35C355.64,-47.32 425.78,-31.7 472.78,-21.24"/>
<polygon fill="black" stroke="black" points="473.73,-24.61 482.73,-19.02 472.21,-17.78 473.73,-24.61"/>
</g>
<!-- LargeNet -->
<g id="node8" class="node">
<title>LargeNet</title>
<g id="a_node8"><a xlink:href="inet.examples.ethernet.lans.LargeNet.html" xlink:title="Network LargeNet" target="_parent">
<polygon fill="#d0d0ff" stroke="black" points="313.5,-129 252.5,-129 252.5,-110 313.5,-110 313.5,-129"/>
<text text-anchor="middle" x="283" y="-117" font-family="Helvetica,sans-Serif" font-size="10.00">LargeNet</text>
</a>
</g>
</g>
<!-- LargeNet&#45;&gt;LargeLAN -->
<g id="edge7" class="edge">
<title>LargeNet&#45;&gt;LargeLAN</title>
<path fill="none" stroke="black" d="M283,-109.75C283,-102.8 283,-92.85 283,-84.13"/>
<polygon fill="black" stroke="black" points="286.5,-84.09 283,-74.09 279.5,-84.09 286.5,-84.09"/>
</g>
</g>
</svg>
