<?xml version="1.0" encoding="UTF-8" standalone="no"?>
<!DOCTYPE svg PUBLIC "-//W3C//DTD SVG 1.1//EN"
 "http://www.w3.org/Graphics/SVG/1.1/DTD/svg11.dtd">
<!-- Generated by graphviz version 2.43.0 (0)
 -->
<!-- Title: opp Pages: 1 -->
<svg width="812pt" height="137pt"
 viewBox="0.00 0.00 811.50 137.00" xmlns="http://www.w3.org/2000/svg" xmlns:xlink="http://www.w3.org/1999/xlink">
<g id="graph0" class="graph" transform="scale(1 1) rotate(0) translate(4 133)">
<title>opp</title>
<polygon fill="transparent" stroke="transparent" points="-4,4 -4,-133 807.5,-133 807.5,4 -4,4"/>
<!-- ClientHost5 -->
<g id="node1" class="node">
<title>ClientHost5</title>
<g id="a_node1"><a xlink:href="inet.tutorials.protocol.ClientHost5.html" xlink:title="Compound Module ClientHost5" target="_parent">
<polygon fill="#fff700" stroke="black" points="417.5,-74 343.5,-74 343.5,-55 417.5,-55 417.5,-74"/>
<text text-anchor="middle" x="380.5" y="-62" font-family="Helvetica,sans-Serif" font-size="10.00">ClientHost5</text>
</a>
</g>
</g>
<!-- ActivePacketSource -->
<g id="node2" class="node">
<title>ActivePacketSource</title>
<g id="a_node2"><a xlink:href="inet.queueing.source.ActivePacketSource.html" xlink:title="Simple Module ActivePacketSource" target="_parent">
<polygon fill="#fffcaf" stroke="black" points="113,-19 0,-19 0,0 113,0 113,-19"/>
<text text-anchor="middle" x="56.5" y="-7" font-family="Helvetica,sans-Serif" font-size="10.00">ActivePacketSource</text>
</a>
</g>
</g>
<!-- ClientHost5&#45;&gt;ActivePacketSource -->
<g id="edge1" class="edge">
<title>ClientHost5&#45;&gt;ActivePacketSource</title>
<path fill="none" stroke="black" d="M343.33,-57.42C288.47,-48.45 185.14,-31.54 118.64,-20.66"/>
<polygon fill="black" stroke="black" points="119.13,-17.2 108.7,-19.04 118,-24.11 119.13,-17.2"/>
</g>
<!-- IdealChannel -->
<g id="node3" class="node">
<title>IdealChannel</title>
<g id="a_node3"><a xlink:href="ned.IdealChannel.html" xlink:title="Channel IdealChannel" target="_parent">
<polygon fill="#d0ffd0" stroke="black" points="211.5,-19 131.5,-19 131.5,0 211.5,0 211.5,-19"/>
<text text-anchor="middle" x="171.5" y="-7" font-family="Helvetica,sans-Serif" font-size="10.00">IdealChannel</text>
</a>
</g>
</g>
<!-- ClientHost5&#45;&gt;IdealChannel -->
<g id="edge2" class="edge">
<title>ClientHost5&#45;&gt;IdealChannel</title>
<path fill="none" stroke="black" d="M346.92,-54.98C311.15,-45.91 254.38,-31.52 215.16,-21.57"/>
<polygon fill="black" stroke="black" points="215.9,-18.15 205.34,-19.08 214.18,-24.93 215.9,-18.15"/>
</g>
<!-- PacketQueue -->
<g id="node4" class="node">
<title>PacketQueue</title>
<g id="a_node4"><a xlink:href="inet.queueing.queue.PacketQueue.html" xlink:title="Simple Module PacketQueue" target="_parent">
<polygon fill="#fffcaf" stroke="black" points="309.5,-19 229.5,-19 229.5,0 309.5,0 309.5,-19"/>
<text text-anchor="middle" x="269.5" y="-7" font-family="Helvetica,sans-Serif" font-size="10.00">PacketQueue</text>
</a>
</g>
</g>
<!-- ClientHost5&#45;&gt;PacketQueue -->
<g id="edge3" class="edge">
<title>ClientHost5&#45;&gt;PacketQueue</title>
<path fill="none" stroke="black" d="M362.67,-54.98C344.89,-46.5 317.35,-33.35 296.82,-23.54"/>
<polygon fill="black" stroke="black" points="298.19,-20.32 287.66,-19.17 295.17,-26.64 298.19,-20.32"/>
</g>
<!-- FcsHeaderInserter -->
<g id="node5" class="node">
<title>FcsHeaderInserter</title>
<g id="a_node5"><a xlink:href="inet.protocolelement.checksum.FcsHeaderInserter.html" xlink:title="Simple Module FcsHeaderInserter" target="_parent">
<polygon fill="#fffcaf" stroke="black" points="433.5,-19 327.5,-19 327.5,0 433.5,0 433.5,-19"/>
<text text-anchor="middle" x="380.5" y="-7" font-family="Helvetica,sans-Serif" font-size="10.00">FcsHeaderInserter</text>
</a>
</g>
</g>
<!-- ClientHost5&#45;&gt;FcsHeaderInserter -->
<g id="edge4" class="edge">
<title>ClientHost5&#45;&gt;FcsHeaderInserter</title>
<path fill="none" stroke="black" d="M380.5,-54.75C380.5,-47.8 380.5,-37.85 380.5,-29.13"/>
<polygon fill="black" stroke="black" points="384,-29.09 380.5,-19.09 377,-29.09 384,-29.09"/>
</g>
<!-- InterpacketGapInserter -->
<g id="node6" class="node">
<title>InterpacketGapInserter</title>
<g id="a_node6"><a xlink:href="inet.protocolelement.common.InterpacketGapInserter.html" xlink:title="Simple Module InterpacketGapInserter" target="_parent">
<polygon fill="#fffcaf" stroke="black" points="579.5,-19 451.5,-19 451.5,0 579.5,0 579.5,-19"/>
<text text-anchor="middle" x="515.5" y="-7" font-family="Helvetica,sans-Serif" font-size="10.00">InterpacketGapInserter</text>
</a>
</g>
</g>
<!-- ClientHost5&#45;&gt;InterpacketGapInserter -->
<g id="edge5" class="edge">
<title>ClientHost5&#45;&gt;InterpacketGapInserter</title>
<path fill="none" stroke="black" d="M402.19,-54.98C424.3,-46.3 458.82,-32.75 483.95,-22.88"/>
<polygon fill="black" stroke="black" points="485.39,-26.08 493.42,-19.17 482.83,-19.57 485.39,-26.08"/>
</g>
<!-- PacketTransmitter -->
<g id="node7" class="node">
<title>PacketTransmitter</title>
<g id="a_node7"><a xlink:href="inet.protocolelement.transceiver.PacketTransmitter.html" xlink:title="Simple Module PacketTransmitter" target="_parent">
<polygon fill="#fffcaf" stroke="black" points="703,-19 598,-19 598,0 703,0 703,-19"/>
<text text-anchor="middle" x="650.5" y="-7" font-family="Helvetica,sans-Serif" font-size="10.00">PacketTransmitter</text>
</a>
</g>
</g>
<!-- ClientHost5&#45;&gt;PacketTransmitter -->
<g id="edge6" class="edge">
<title>ClientHost5&#45;&gt;PacketTransmitter</title>
<path fill="none" stroke="black" d="M417.76,-56.19C464.24,-47.06 544.03,-31.4 597.03,-21"/>
<polygon fill="black" stroke="black" points="597.79,-24.41 606.93,-19.05 596.44,-17.55 597.79,-24.41"/>
</g>
<!-- InstantServer -->
<g id="node8" class="node">
<title>InstantServer</title>
<g id="a_node8"><a xlink:href="inet.queueing.server.InstantServer.html" xlink:title="Simple Module InstantServer" target="_parent">
<polygon fill="#fffcaf" stroke="black" points="803.5,-19 721.5,-19 721.5,0 803.5,0 803.5,-19"/>
<text text-anchor="middle" x="762.5" y="-7" font-family="Helvetica,sans-Serif" font-size="10.00">InstantServer</text>
</a>
</g>
</g>
<!-- ClientHost5&#45;&gt;InstantServer -->
<g id="edge7" class="edge">
<title>ClientHost5&#45;&gt;InstantServer</title>
<path fill="none" stroke="black" d="M417.9,-58.92C477.64,-51.52 598.5,-36.14 711.14,-19.16"/>
<polygon fill="black" stroke="black" points="711.96,-22.58 721.32,-17.62 710.91,-15.66 711.96,-22.58"/>
</g>
<!-- Network5 -->
<g id="node9" class="node">
<title>Network5</title>
<g id="a_node9"><a xlink:href="inet.tutorials.protocol.Network5.html" xlink:title="Network Network5" target="_parent">
<polygon fill="#d0d0ff" stroke="black" points="412.5,-129 348.5,-129 348.5,-110 412.5,-110 412.5,-129"/>
<text text-anchor="middle" x="380.5" y="-117" font-family="Helvetica,sans-Serif" font-size="10.00">Network5</text>
</a>
</g>
</g>
<!-- Network5&#45;&gt;ClientHost5 -->
<g id="edge8" class="edge">
<title>Network5&#45;&gt;ClientHost5</title>
<path fill="none" stroke="black" d="M380.5,-109.75C380.5,-102.8 380.5,-92.85 380.5,-84.13"/>
<polygon fill="black" stroke="black" points="384,-84.09 380.5,-74.09 377,-84.09 384,-84.09"/>
</g>
</g>
</svg>
