<?xml version="1.0" encoding="UTF-8" standalone="no"?>
<!DOCTYPE svg PUBLIC "-//W3C//DTD SVG 1.1//EN"
 "http://www.w3.org/Graphics/SVG/1.1/DTD/svg11.dtd">
<!-- Generated by graphviz version 2.43.0 (0)
 -->
<!-- Title: opp Pages: 1 -->
<svg width="578pt" height="82pt"
 viewBox="0.00 0.00 577.50 82.00" xmlns="http://www.w3.org/2000/svg" xmlns:xlink="http://www.w3.org/1999/xlink">
<g id="graph0" class="graph" transform="scale(1 1) rotate(0) translate(4 78)">
<title>opp</title>
<polygon fill="transparent" stroke="transparent" points="-4,4 -4,-78 573.5,-78 573.5,4 -4,4"/>
<!-- Ieee8022LlcApp -->
<g id="node1" class="node">
<title>Ieee8022LlcApp</title>
<g id="a_node1"><a xlink:href="inet.applications.ieee8022.Ieee8022LlcApp.html" xlink:title="Compound Module Ieee8022LlcApp" target="_parent">
<polygon fill="#fff700" stroke="black" points="331,-74 237,-74 237,-55 331,-55 331,-74"/>
<text text-anchor="middle" x="284" y="-62" font-family="Helvetica,sans-Serif" font-size="10.00">Ieee8022LlcApp</text>
</a>
</g>
</g>
<!-- IPassivePacketSink -->
<g id="node2" class="node">
<title>IPassivePacketSink</title>
<g id="a_node2"><a xlink:href="inet.queueing.contract.IPassivePacketSink.html" xlink:title="Module Interface IPassivePacketSink" target="_parent">
<polygon fill="#fffcaf" stroke="black" stroke-dasharray="5,2" points="110,-19 0,-19 0,0 110,0 110,-19"/>
<text text-anchor="middle" x="55" y="-7" font-family="Helvetica,sans-Serif" font-size="10.00">IPassivePacketSink</text>
</a>
</g>
</g>
<!-- Ieee8022LlcApp&#45;&gt;IPassivePacketSink -->
<g id="edge1" class="edge">
<title>Ieee8022LlcApp&#45;&gt;IPassivePacketSink</title>
<path fill="none" stroke="black" d="M247.21,-54.98C207.76,-45.86 145.02,-31.33 102.02,-21.38"/>
<polygon fill="black" stroke="black" points="102.61,-17.93 92.08,-19.08 101.03,-24.75 102.61,-17.93"/>
</g>
<!-- IdealChannel -->
<g id="node3" class="node">
<title>IdealChannel</title>
<g id="a_node3"><a xlink:href="ned.IdealChannel.html" xlink:title="Channel IdealChannel" target="_parent">
<polygon fill="#d0ffd0" stroke="black" points="208,-19 128,-19 128,0 208,0 208,-19"/>
<text text-anchor="middle" x="168" y="-7" font-family="Helvetica,sans-Serif" font-size="10.00">IdealChannel</text>
</a>
</g>
</g>
<!-- Ieee8022LlcApp&#45;&gt;IdealChannel -->
<g id="edge2" class="edge">
<title>Ieee8022LlcApp&#45;&gt;IdealChannel</title>
<path fill="none" stroke="black" d="M265.36,-54.98C246.7,-46.46 217.75,-33.23 196.26,-23.41"/>
<polygon fill="black" stroke="black" points="197.53,-20.14 186.98,-19.17 194.62,-26.51 197.53,-20.14"/>
</g>
<!-- Ieee8022LlcSocketIo -->
<g id="node4" class="node">
<title>Ieee8022LlcSocketIo</title>
<g id="a_node4"><a xlink:href="inet.applications.ieee8022.Ieee8022LlcSocketIo.html" xlink:title="Simple Module Ieee8022LlcSocketIo" target="_parent">
<polygon fill="#fffcaf" stroke="black" points="342,-19 226,-19 226,0 342,0 342,-19"/>
<text text-anchor="middle" x="284" y="-7" font-family="Helvetica,sans-Serif" font-size="10.00">Ieee8022LlcSocketIo</text>
</a>
</g>
</g>
<!-- Ieee8022LlcApp&#45;&gt;Ieee8022LlcSocketIo -->
<g id="edge3" class="edge">
<title>Ieee8022LlcApp&#45;&gt;Ieee8022LlcSocketIo</title>
<path fill="none" stroke="black" d="M284,-54.75C284,-47.8 284,-37.85 284,-29.13"/>
<polygon fill="black" stroke="black" points="287.5,-29.09 284,-19.09 280.5,-29.09 287.5,-29.09"/>
</g>
<!-- IActivePacketSource -->
<g id="node5" class="node">
<title>IActivePacketSource</title>
<g id="a_node5"><a xlink:href="inet.queueing.contract.IActivePacketSource.html" xlink:title="Module Interface IActivePacketSource" target="_parent">
<polygon fill="#fffcaf" stroke="black" stroke-dasharray="5,2" points="476,-19 360,-19 360,0 476,0 476,-19"/>
<text text-anchor="middle" x="418" y="-7" font-family="Helvetica,sans-Serif" font-size="10.00">IActivePacketSource</text>
</a>
</g>
</g>
<!-- Ieee8022LlcApp&#45;&gt;IActivePacketSource -->
<g id="edge4" class="edge">
<title>Ieee8022LlcApp&#45;&gt;IActivePacketSource</title>
<path fill="none" stroke="black" d="M305.53,-54.98C327.47,-46.3 361.74,-32.75 386.69,-22.88"/>
<polygon fill="black" stroke="black" points="388.07,-26.1 396.08,-19.17 385.49,-19.59 388.07,-26.1"/>
</g>
<!-- IPacketFlow -->
<g id="node6" class="node">
<title>IPacketFlow</title>
<g id="a_node6"><a xlink:href="inet.queueing.contract.IPacketFlow.html" xlink:title="Module Interface IPacketFlow" target="_parent">
<polygon fill="#fffcaf" stroke="black" stroke-dasharray="5,2" points="569.5,-19 494.5,-19 494.5,0 569.5,0 569.5,-19"/>
<text text-anchor="middle" x="532" y="-7" font-family="Helvetica,sans-Serif" font-size="10.00">IPacketFlow</text>
</a>
</g>
</g>
<!-- Ieee8022LlcApp&#45;&gt;IPacketFlow -->
<g id="edge5" class="edge">
<title>Ieee8022LlcApp&#45;&gt;IPacketFlow</title>
<path fill="none" stroke="black" d="M323.85,-54.98C367.6,-45.63 437.82,-30.63 484.43,-20.67"/>
<polygon fill="black" stroke="black" points="485.24,-24.07 494.29,-18.56 483.78,-17.23 485.24,-24.07"/>
</g>
</g>
</svg>
