<?xml version="1.0" encoding="UTF-8" standalone="no"?>
<!DOCTYPE svg PUBLIC "-//W3C//DTD SVG 1.1//EN"
 "http://www.w3.org/Graphics/SVG/1.1/DTD/svg11.dtd">
<!-- Generated by graphviz version 2.43.0 (0)
 -->
<!-- Title: opp Pages: 1 -->
<svg width="530pt" height="137pt"
 viewBox="0.00 0.00 529.50 137.00" xmlns="http://www.w3.org/2000/svg" xmlns:xlink="http://www.w3.org/1999/xlink">
<g id="graph0" class="graph" transform="scale(1 1) rotate(0) translate(4 133)">
<title>opp</title>
<polygon fill="transparent" stroke="transparent" points="-4,4 -4,-133 525.5,-133 525.5,4 -4,4"/>
<!-- ThroughputClient -->
<g id="node1" class="node">
<title>ThroughputClient</title>
<g id="a_node1"><a xlink:href="inet.examples.wireless.hosttohost.ThroughputClient.html" xlink:title="Compound Module ThroughputClient" target="_parent">
<polygon fill="#fff700" stroke="black" points="294.5,-74 193.5,-74 193.5,-55 294.5,-55 294.5,-74"/>
<text text-anchor="middle" x="244" y="-62" font-family="Helvetica,sans-Serif" font-size="10.00">ThroughputClient</text>
</a>
</g>
</g>
<!-- InterfaceTable -->
<g id="node2" class="node">
<title>InterfaceTable</title>
<g id="a_node2"><a xlink:href="inet.networklayer.common.InterfaceTable.html" xlink:title="Simple Module InterfaceTable" target="_parent">
<polygon fill="#fffcaf" stroke="black" points="86,-19 0,-19 0,0 86,0 86,-19"/>
<text text-anchor="middle" x="43" y="-7" font-family="Helvetica,sans-Serif" font-size="10.00">InterfaceTable</text>
</a>
</g>
</g>
<!-- ThroughputClient&#45;&gt;InterfaceTable -->
<g id="edge1" class="edge">
<title>ThroughputClient&#45;&gt;InterfaceTable</title>
<path fill="none" stroke="black" d="M211.71,-54.98C177.38,-45.93 122.94,-31.58 85.23,-21.64"/>
<polygon fill="black" stroke="black" points="86.11,-18.25 75.55,-19.08 84.32,-25.02 86.11,-18.25"/>
</g>
<!-- IdealChannel -->
<g id="node3" class="node">
<title>IdealChannel</title>
<g id="a_node3"><a xlink:href="ned.IdealChannel.html" xlink:title="Channel IdealChannel" target="_parent">
<polygon fill="#d0ffd0" stroke="black" points="184,-19 104,-19 104,0 184,0 184,-19"/>
<text text-anchor="middle" x="144" y="-7" font-family="Helvetica,sans-Serif" font-size="10.00">IdealChannel</text>
</a>
</g>
</g>
<!-- ThroughputClient&#45;&gt;IdealChannel -->
<g id="edge2" class="edge">
<title>ThroughputClient&#45;&gt;IdealChannel</title>
<path fill="none" stroke="black" d="M227.93,-54.98C212.14,-46.61 187.78,-33.7 169.37,-23.95"/>
<polygon fill="black" stroke="black" points="170.83,-20.76 160.36,-19.17 167.56,-26.95 170.83,-20.76"/>
</g>
<!-- CircleMobility -->
<g id="node4" class="node">
<title>CircleMobility</title>
<g id="a_node4"><a xlink:href="inet.mobility.single.CircleMobility.html" xlink:title="Simple Module CircleMobility" target="_parent">
<polygon fill="#fffcaf" stroke="black" points="286,-19 202,-19 202,0 286,0 286,-19"/>
<text text-anchor="middle" x="244" y="-7" font-family="Helvetica,sans-Serif" font-size="10.00">CircleMobility</text>
</a>
</g>
</g>
<!-- ThroughputClient&#45;&gt;CircleMobility -->
<g id="edge3" class="edge">
<title>ThroughputClient&#45;&gt;CircleMobility</title>
<path fill="none" stroke="black" d="M244,-54.75C244,-47.8 244,-37.85 244,-29.13"/>
<polygon fill="black" stroke="black" points="247.5,-29.09 244,-19.09 240.5,-29.09 247.5,-29.09"/>
</g>
<!-- EtherAppClient -->
<g id="node5" class="node">
<title>EtherAppClient</title>
<g id="a_node5"><a xlink:href="inet.applications.ethernet.EtherAppClient.html" xlink:title="Simple Module EtherAppClient" target="_parent">
<polygon fill="#fffcaf" stroke="black" points="392.5,-19 303.5,-19 303.5,0 392.5,0 392.5,-19"/>
<text text-anchor="middle" x="348" y="-7" font-family="Helvetica,sans-Serif" font-size="10.00">EtherAppClient</text>
</a>
</g>
</g>
<!-- ThroughputClient&#45;&gt;EtherAppClient -->
<g id="edge4" class="edge">
<title>ThroughputClient&#45;&gt;EtherAppClient</title>
<path fill="none" stroke="black" d="M260.71,-54.98C277.21,-46.57 302.7,-33.59 321.88,-23.81"/>
<polygon fill="black" stroke="black" points="323.67,-26.83 330.99,-19.17 320.49,-20.59 323.67,-26.83"/>
</g>
<!-- Ieee80211Interface -->
<g id="node6" class="node">
<title>Ieee80211Interface</title>
<g id="a_node6"><a xlink:href="inet.linklayer.ieee80211.Ieee80211Interface.html" xlink:title="Compound Module Ieee80211Interface" target="_parent">
<polygon fill="#fffcaf" stroke="black" points="521.5,-19 410.5,-19 410.5,0 521.5,0 521.5,-19"/>
<text text-anchor="middle" x="466" y="-7" font-family="Helvetica,sans-Serif" font-size="10.00">Ieee80211Interface</text>
</a>
</g>
</g>
<!-- ThroughputClient&#45;&gt;Ieee80211Interface -->
<g id="edge5" class="edge">
<title>ThroughputClient&#45;&gt;Ieee80211Interface</title>
<path fill="none" stroke="black" d="M279.67,-54.98C317.83,-45.87 378.47,-31.4 420.15,-21.45"/>
<polygon fill="black" stroke="black" points="421.14,-24.81 430.05,-19.08 419.51,-18 421.14,-24.81"/>
</g>
<!-- Throughput -->
<g id="node7" class="node">
<title>Throughput</title>
<g id="a_node7"><a xlink:href="inet.examples.wireless.hosttohost.Throughput.html" xlink:title="Network Throughput" target="_parent">
<polygon fill="#d0d0ff" stroke="black" points="280,-129 208,-129 208,-110 280,-110 280,-129"/>
<text text-anchor="middle" x="244" y="-117" font-family="Helvetica,sans-Serif" font-size="10.00">Throughput</text>
</a>
</g>
</g>
<!-- Throughput&#45;&gt;ThroughputClient -->
<g id="edge6" class="edge">
<title>Throughput&#45;&gt;ThroughputClient</title>
<path fill="none" stroke="black" d="M244,-109.75C244,-102.8 244,-92.85 244,-84.13"/>
<polygon fill="black" stroke="black" points="247.5,-84.09 244,-74.09 240.5,-84.09 247.5,-84.09"/>
</g>
</g>
</svg>
