<?xml version="1.0" encoding="UTF-8" standalone="no"?>
<!DOCTYPE svg PUBLIC "-//W3C//DTD SVG 1.1//EN"
 "http://www.w3.org/Graphics/SVG/1.1/DTD/svg11.dtd">
<!-- Generated by graphviz version 2.43.0 (0)
 -->
<!-- Title: opp Pages: 1 -->
<svg width="576pt" height="82pt"
 viewBox="0.00 0.00 576.00 82.00" xmlns="http://www.w3.org/2000/svg" xmlns:xlink="http://www.w3.org/1999/xlink">
<g id="graph0" class="graph" transform="scale(1 1) rotate(0) translate(4 78)">
<title>opp</title>
<polygon fill="transparent" stroke="transparent" points="-4,4 -4,-78 572,-78 572,4 -4,4"/>
<!-- TransportPathVisualizerSimpleWirelessShowcase -->
<g id="node1" class="node">
<title>TransportPathVisualizerSimpleWirelessShowcase</title>
<g id="a_node1"><a xlink:href="inet.showcases.visualizer.canvas.transportpathactivity.TransportPathVisualizerSimpleWirelessShowcase.html" xlink:title="Network TransportPathVisualizerSimpleWirelessShowcase" target="_parent">
<polygon fill="#9090ff" stroke="black" points="417,-74 160,-74 160,-55 417,-55 417,-74"/>
<text text-anchor="middle" x="288.5" y="-62" font-family="Helvetica,sans-Serif" font-size="10.00">TransportPathVisualizerSimpleWirelessShowcase</text>
</a>
</g>
</g>
<!-- TransportRouteVisualizer -->
<g id="node2" class="node">
<title>TransportRouteVisualizer</title>
<g id="a_node2"><a xlink:href="inet.visualizer.common.TransportRouteVisualizer.html" xlink:title="Compound Module TransportRouteVisualizer" target="_parent">
<polygon fill="#fffcaf" stroke="black" points="139,-19 0,-19 0,0 139,0 139,-19"/>
<text text-anchor="middle" x="69.5" y="-7" font-family="Helvetica,sans-Serif" font-size="10.00">TransportRouteVisualizer</text>
</a>
</g>
</g>
<!-- TransportPathVisualizerSimpleWirelessShowcase&#45;&gt;TransportRouteVisualizer -->
<g id="edge1" class="edge">
<title>TransportPathVisualizerSimpleWirelessShowcase&#45;&gt;TransportRouteVisualizer</title>
<path fill="none" stroke="black" d="M253.31,-54.98C215.67,-45.87 155.84,-31.4 114.73,-21.45"/>
<polygon fill="black" stroke="black" points="115.5,-18.03 104.96,-19.08 113.86,-24.84 115.5,-18.03"/>
</g>
<!-- Ipv4NetworkConfigurator -->
<g id="node3" class="node">
<title>Ipv4NetworkConfigurator</title>
<g id="a_node3"><a xlink:href="inet.networklayer.configurator.ipv4.Ipv4NetworkConfigurator.html" xlink:title="Simple Module Ipv4NetworkConfigurator" target="_parent">
<polygon fill="#fffcaf" stroke="black" points="297.5,-19 157.5,-19 157.5,0 297.5,0 297.5,-19"/>
<text text-anchor="middle" x="227.5" y="-7" font-family="Helvetica,sans-Serif" font-size="10.00">Ipv4NetworkConfigurator</text>
</a>
</g>
</g>
<!-- TransportPathVisualizerSimpleWirelessShowcase&#45;&gt;Ipv4NetworkConfigurator -->
<g id="edge2" class="edge">
<title>TransportPathVisualizerSimpleWirelessShowcase&#45;&gt;Ipv4NetworkConfigurator</title>
<path fill="none" stroke="black" d="M278.7,-54.98C269.68,-47.15 256.09,-35.34 245.18,-25.86"/>
<polygon fill="black" stroke="black" points="247.32,-23.09 237.48,-19.17 242.73,-28.37 247.32,-23.09"/>
</g>
<!-- AdhocHost -->
<g id="node4" class="node">
<title>AdhocHost</title>
<g id="a_node4"><a xlink:href="inet.node.inet.AdhocHost.html" xlink:title="Compound Module AdhocHost" target="_parent">
<polygon fill="#fffcaf" stroke="black" points="385,-19 316,-19 316,0 385,0 385,-19"/>
<text text-anchor="middle" x="350.5" y="-7" font-family="Helvetica,sans-Serif" font-size="10.00">AdhocHost</text>
</a>
</g>
</g>
<!-- TransportPathVisualizerSimpleWirelessShowcase&#45;&gt;AdhocHost -->
<g id="edge3" class="edge">
<title>TransportPathVisualizerSimpleWirelessShowcase&#45;&gt;AdhocHost</title>
<path fill="none" stroke="black" d="M298.46,-54.98C307.63,-47.15 321.44,-35.34 332.53,-25.86"/>
<polygon fill="black" stroke="black" points="335.03,-28.33 340.36,-19.17 330.48,-23.01 335.03,-28.33"/>
</g>
<!-- Ieee80211ScalarRadioMedium -->
<g id="node5" class="node">
<title>Ieee80211ScalarRadioMedium</title>
<g id="a_node5"><a xlink:href="inet.physicallayer.wireless.ieee80211.packetlevel.Ieee80211ScalarRadioMedium.html" xlink:title="Compound Module Ieee80211ScalarRadioMedium" target="_parent">
<polygon fill="#fffcaf" stroke="black" points="568,-19 403,-19 403,0 568,0 568,-19"/>
<text text-anchor="middle" x="485.5" y="-7" font-family="Helvetica,sans-Serif" font-size="10.00">Ieee80211ScalarRadioMedium</text>
</a>
</g>
</g>
<!-- TransportPathVisualizerSimpleWirelessShowcase&#45;&gt;Ieee80211ScalarRadioMedium -->
<g id="edge4" class="edge">
<title>TransportPathVisualizerSimpleWirelessShowcase&#45;&gt;Ieee80211ScalarRadioMedium</title>
<path fill="none" stroke="black" d="M320.15,-54.98C353.66,-45.97 406.7,-31.7 443.64,-21.76"/>
<polygon fill="black" stroke="black" points="444.85,-25.06 453.6,-19.08 443.03,-18.3 444.85,-25.06"/>
</g>
</g>
</svg>
