<?xml version="1.0" encoding="UTF-8" standalone="no"?>
<!DOCTYPE svg PUBLIC "-//W3C//DTD SVG 1.1//EN"
 "http://www.w3.org/Graphics/SVG/1.1/DTD/svg11.dtd">
<!-- Generated by graphviz version 2.43.0 (0)
 -->
<!-- Title: opp Pages: 1 -->
<svg width="496pt" height="82pt"
 viewBox="0.00 0.00 495.50 82.00" xmlns="http://www.w3.org/2000/svg" xmlns:xlink="http://www.w3.org/1999/xlink">
<g id="graph0" class="graph" transform="scale(1 1) rotate(0) translate(4 78)">
<title>opp</title>
<polygon fill="transparent" stroke="transparent" points="-4,4 -4,-78 491.5,-78 491.5,4 -4,4"/>
<!-- EthernetCutthroughInterface -->
<g id="node1" class="node">
<title>EthernetCutthroughInterface</title>
<g id="a_node1"><a xlink:href="inet.linklayer.ethernet.modular.EthernetCutthroughInterface.html" xlink:title="Compound Module EthernetCutthroughInterface" target="_parent">
<polygon fill="#fff700" stroke="black" points="330,-74 175,-74 175,-55 330,-55 330,-74"/>
<text text-anchor="middle" x="252.5" y="-62" font-family="Helvetica,sans-Serif" font-size="10.00">EthernetCutthroughInterface</text>
</a>
</g>
</g>
<!-- EthernetCutthroughLayer -->
<g id="node2" class="node">
<title>EthernetCutthroughLayer</title>
<g id="a_node2"><a xlink:href="inet.linklayer.ethernet.modular.EthernetCutthroughLayer.html" xlink:title="Compound Module EthernetCutthroughLayer" target="_parent">
<polygon fill="#fffcaf" stroke="black" points="139,-19 0,-19 0,0 139,0 139,-19"/>
<text text-anchor="middle" x="69.5" y="-7" font-family="Helvetica,sans-Serif" font-size="10.00">EthernetCutthroughLayer</text>
</a>
</g>
</g>
<!-- EthernetCutthroughInterface&#45;&gt;EthernetCutthroughLayer -->
<g id="edge1" class="edge">
<title>EthernetCutthroughInterface&#45;&gt;EthernetCutthroughLayer</title>
<path fill="none" stroke="black" d="M223.1,-54.98C192.11,-46.01 143.12,-31.82 108.83,-21.89"/>
<polygon fill="black" stroke="black" points="109.71,-18.5 99.13,-19.08 107.76,-25.23 109.71,-18.5"/>
</g>
<!-- IdealChannel -->
<g id="node3" class="node">
<title>IdealChannel</title>
<g id="a_node3"><a xlink:href="ned.IdealChannel.html" xlink:title="Channel IdealChannel" target="_parent">
<polygon fill="#d0ffd0" stroke="black" points="237.5,-19 157.5,-19 157.5,0 237.5,0 237.5,-19"/>
<text text-anchor="middle" x="197.5" y="-7" font-family="Helvetica,sans-Serif" font-size="10.00">IdealChannel</text>
</a>
</g>
</g>
<!-- EthernetCutthroughInterface&#45;&gt;IdealChannel -->
<g id="edge2" class="edge">
<title>EthernetCutthroughInterface&#45;&gt;IdealChannel</title>
<path fill="none" stroke="black" d="M243.42,-54.75C235.41,-47.03 223.54,-35.6 213.88,-26.28"/>
<polygon fill="black" stroke="black" points="216.04,-23.51 206.41,-19.09 211.19,-28.55 216.04,-23.51"/>
</g>
<!-- IEthernetPhyLayer -->
<g id="node4" class="node">
<title>IEthernetPhyLayer</title>
<g id="a_node4"><a xlink:href="inet.physicallayer.wired.ethernet.IEthernetPhyLayer.html" xlink:title="Module Interface IEthernetPhyLayer" target="_parent">
<polygon fill="#fffcaf" stroke="black" stroke-dasharray="5,2" points="361.5,-19 255.5,-19 255.5,0 361.5,0 361.5,-19"/>
<text text-anchor="middle" x="308.5" y="-7" font-family="Helvetica,sans-Serif" font-size="10.00">IEthernetPhyLayer</text>
</a>
</g>
</g>
<!-- EthernetCutthroughInterface&#45;&gt;IEthernetPhyLayer -->
<g id="edge3" class="edge">
<title>EthernetCutthroughInterface&#45;&gt;IEthernetPhyLayer</title>
<path fill="none" stroke="black" d="M261.5,-54.98C269.69,-47.23 282.01,-35.58 291.97,-26.14"/>
<polygon fill="black" stroke="black" points="294.48,-28.59 299.34,-19.17 289.67,-23.5 294.48,-28.59"/>
</g>
<!-- IEthernetMacLayer -->
<g id="node5" class="node">
<title>IEthernetMacLayer</title>
<g id="a_node5"><a xlink:href="inet.linklayer.ethernet.contract.IEthernetMacLayer.html" xlink:title="Module Interface IEthernetMacLayer" target="_parent">
<polygon fill="#fffcaf" stroke="black" stroke-dasharray="5,2" points="487.5,-19 379.5,-19 379.5,0 487.5,0 487.5,-19"/>
<text text-anchor="middle" x="433.5" y="-7" font-family="Helvetica,sans-Serif" font-size="10.00">IEthernetMacLayer</text>
</a>
</g>
</g>
<!-- EthernetCutthroughInterface&#45;&gt;IEthernetMacLayer -->
<g id="edge4" class="edge">
<title>EthernetCutthroughInterface&#45;&gt;IEthernetMacLayer</title>
<path fill="none" stroke="black" d="M281.58,-54.98C312.1,-46.05 360.26,-31.94 394.16,-22.02"/>
<polygon fill="black" stroke="black" points="395.58,-25.25 404.19,-19.08 393.61,-18.53 395.58,-25.25"/>
</g>
</g>
</svg>
