<?xml version="1.0" encoding="UTF-8" standalone="no"?>
<!DOCTYPE svg PUBLIC "-//W3C//DTD SVG 1.1//EN"
 "http://www.w3.org/Graphics/SVG/1.1/DTD/svg11.dtd">
<!-- Generated by graphviz version 2.43.0 (0)
 -->
<!-- Title: opp Pages: 1 -->
<svg width="3979pt" height="137pt"
 viewBox="0.00 0.00 3979.00 137.00" xmlns="http://www.w3.org/2000/svg" xmlns:xlink="http://www.w3.org/1999/xlink">
<g id="graph0" class="graph" transform="scale(1 1) rotate(0) translate(4 133)">
<title>opp</title>
<polygon fill="transparent" stroke="transparent" points="-4,4 -4,-133 3975,-133 3975,4 -4,4"/>
<!-- PacketFilterBase -->
<g id="node1" class="node">
<title>PacketFilterBase</title>
<g id="a_node1"><a xlink:href="inet.queueing.base.PacketFilterBase.html" xlink:title="Simple Module PacketFilterBase" target="_parent">
<polygon fill="#fff700" stroke="black" points="2311,-74 2214,-74 2214,-55 2311,-55 2311,-74"/>
<text text-anchor="middle" x="2262.5" y="-62" font-family="Helvetica,sans-Serif" font-size="10.00">PacketFilterBase</text>
</a>
</g>
</g>
<!-- ContentBasedFilter -->
<g id="node3" class="node">
<title>ContentBasedFilter</title>
<g id="a_node3"><a xlink:href="inet.queueing.filter.ContentBasedFilter.html" xlink:title="Simple Module ContentBasedFilter" target="_parent">
<polygon fill="#fffcaf" stroke="black" points="109,-19 0,-19 0,0 109,0 109,-19"/>
<text text-anchor="middle" x="54.5" y="-7" font-family="Helvetica,sans-Serif" font-size="10.00">ContentBasedFilter</text>
</a>
</g>
</g>
<!-- PacketFilterBase&#45;&gt;ContentBasedFilter -->
<g id="edge2" class="edge">
<title>PacketFilterBase&#45;&gt;ContentBasedFilter</title>
<path fill="none" stroke="black" d="M2213.83,-63.24C1935.67,-61.65 544.56,-52.13 117.5,-19 114.75,-18.79 111.93,-18.53 109.1,-18.25"/>
</g>
<!-- CrcCheckerBase -->
<g id="node4" class="node">
<title>CrcCheckerBase</title>
<g id="a_node4"><a xlink:href="inet.protocolelement.checksum.base.CrcCheckerBase.html" xlink:title="Simple Module CrcCheckerBase" target="_parent">
<polygon fill="#fffcaf" stroke="black" points="222,-19 127,-19 127,0 222,0 222,-19"/>
<text text-anchor="middle" x="174.5" y="-7" font-family="Helvetica,sans-Serif" font-size="10.00">CrcCheckerBase</text>
</a>
</g>
</g>
<!-- PacketFilterBase&#45;&gt;CrcCheckerBase -->
<g id="edge3" class="edge">
<title>PacketFilterBase&#45;&gt;CrcCheckerBase</title>
<path fill="none" stroke="black" d="M2213.8,-63.27C1944.41,-61.86 634.31,-53.31 231.5,-19 228.41,-18.74 225.23,-18.41 222.03,-18.05"/>
</g>
<!-- EligibilityTimeFilter -->
<g id="node5" class="node">
<title>EligibilityTimeFilter</title>
<g id="a_node5"><a xlink:href="inet.protocolelement.shaper.EligibilityTimeFilter.html" xlink:title="Simple Module EligibilityTimeFilter" target="_parent">
<polygon fill="#fffcaf" stroke="black" points="350.5,-19 240.5,-19 240.5,0 350.5,0 350.5,-19"/>
<text text-anchor="middle" x="295.5" y="-7" font-family="Helvetica,sans-Serif" font-size="10.00">EligibilityTimeFilter</text>
</a>
</g>
</g>
<!-- PacketFilterBase&#45;&gt;EligibilityTimeFilter -->
<g id="edge4" class="edge">
<title>PacketFilterBase&#45;&gt;EligibilityTimeFilter</title>
<path fill="none" stroke="black" d="M2213.95,-63.08C1955.15,-60.74 735.72,-48.29 359.5,-19 356.59,-18.77 353.62,-18.51 350.62,-18.21"/>
</g>
<!-- EthernetAddressChecker -->
<g id="node6" class="node">
<title>EthernetAddressChecker</title>
<g id="a_node6"><a xlink:href="inet.linklayer.ethernet.modular.EthernetAddressChecker.html" xlink:title="Simple Module EthernetAddressChecker" target="_parent">
<polygon fill="#fffcaf" stroke="black" points="504.5,-19 368.5,-19 368.5,0 504.5,0 504.5,-19"/>
<text text-anchor="middle" x="436.5" y="-7" font-family="Helvetica,sans-Serif" font-size="10.00">EthernetAddressChecker</text>
</a>
</g>
</g>
<!-- PacketFilterBase&#45;&gt;EthernetAddressChecker -->
<g id="edge5" class="edge">
<title>PacketFilterBase&#45;&gt;EthernetAddressChecker</title>
<path fill="none" stroke="black" d="M2213.74,-63.77C2007.48,-64.58 1186.27,-64.61 513.5,-19 510.68,-18.81 507.81,-18.59 504.91,-18.35"/>
</g>
<!-- EthernetFcsChecker -->
<g id="node7" class="node">
<title>EthernetFcsChecker</title>
<g id="a_node7"><a xlink:href="inet.linklayer.ethernet.modular.EthernetFcsChecker.html" xlink:title="Simple Module EthernetFcsChecker" target="_parent">
<polygon fill="#fffcaf" stroke="black" points="636,-19 523,-19 523,0 636,0 636,-19"/>
<text text-anchor="middle" x="579.5" y="-7" font-family="Helvetica,sans-Serif" font-size="10.00">EthernetFcsChecker</text>
</a>
</g>
</g>
<!-- PacketFilterBase&#45;&gt;EthernetFcsChecker -->
<g id="edge6" class="edge">
<title>PacketFilterBase&#45;&gt;EthernetFcsChecker</title>
<path fill="none" stroke="black" d="M2213.79,-63.94C2017.21,-65.36 1263.22,-67.15 645.5,-19 642.51,-18.77 639.44,-18.49 636.34,-18.19"/>
</g>
<!-- EthernetFragmentFcsChecker -->
<g id="node8" class="node">
<title>EthernetFragmentFcsChecker</title>
<g id="a_node8"><a xlink:href="inet.linklayer.ethernet.modular.EthernetFragmentFcsChecker.html" xlink:title="Simple Module EthernetFragmentFcsChecker" target="_parent">
<polygon fill="#fffcaf" stroke="black" points="814.5,-19 654.5,-19 654.5,0 814.5,0 814.5,-19"/>
<text text-anchor="middle" x="734.5" y="-7" font-family="Helvetica,sans-Serif" font-size="10.00">EthernetFragmentFcsChecker</text>
</a>
</g>
</g>
<!-- PacketFilterBase&#45;&gt;EthernetFragmentFcsChecker -->
<g id="edge7" class="edge">
<title>PacketFilterBase&#45;&gt;EthernetFragmentFcsChecker</title>
<path fill="none" stroke="black" d="M2214,-63.13C2031.48,-61.5 1368.55,-53.42 823.5,-19 820.56,-18.81 817.56,-18.61 814.53,-18.39"/>
</g>
<!-- EthernetFragmentPhyHeaderChecker -->
<g id="node9" class="node">
<title>EthernetFragmentPhyHeaderChecker</title>
<g id="a_node9"><a xlink:href="inet.physicallayer.wired.ethernet.EthernetFragmentPhyHeaderChecker.html" xlink:title="Simple Module EthernetFragmentPhyHeaderChecker" target="_parent">
<polygon fill="#fffcaf" stroke="black" points="1030,-19 833,-19 833,0 1030,0 1030,-19"/>
<text text-anchor="middle" x="931.5" y="-7" font-family="Helvetica,sans-Serif" font-size="10.00">EthernetFragmentPhyHeaderChecker</text>
</a>
</g>
</g>
<!-- PacketFilterBase&#45;&gt;EthernetFragmentPhyHeaderChecker -->
<g id="edge8" class="edge">
<title>PacketFilterBase&#45;&gt;EthernetFragmentPhyHeaderChecker</title>
<path fill="none" stroke="black" d="M2213.82,-62.47C2048.85,-58.81 1495.82,-45.25 1039.5,-19 1036.4,-18.82 1033.25,-18.63 1030.08,-18.43"/>
</g>
<!-- EthernetMacHeaderChecker -->
<g id="node10" class="node">
<title>EthernetMacHeaderChecker</title>
<g id="a_node10"><a xlink:href="inet.linklayer.ethernet.modular.EthernetMacHeaderChecker.html" xlink:title="Simple Module EthernetMacHeaderChecker" target="_parent">
<polygon fill="#fffcaf" stroke="black" points="1200.5,-19 1048.5,-19 1048.5,0 1200.5,0 1200.5,-19"/>
<text text-anchor="middle" x="1124.5" y="-7" font-family="Helvetica,sans-Serif" font-size="10.00">EthernetMacHeaderChecker</text>
</a>
</g>
</g>
<!-- PacketFilterBase&#45;&gt;EthernetMacHeaderChecker -->
<g id="edge9" class="edge">
<title>PacketFilterBase&#45;&gt;EthernetMacHeaderChecker</title>
<path fill="none" stroke="black" d="M2213.9,-62.44C2064.09,-58.96 1596.2,-46.48 1209.5,-19 1206.69,-18.8 1203.83,-18.58 1200.94,-18.35"/>
</g>
<!-- EthernetPhyHeaderChecker -->
<g id="node11" class="node">
<title>EthernetPhyHeaderChecker</title>
<g id="a_node11"><a xlink:href="inet.physicallayer.wired.ethernet.EthernetPhyHeaderChecker.html" xlink:title="Simple Module EthernetPhyHeaderChecker" target="_parent">
<polygon fill="#fffcaf" stroke="black" points="1368.5,-19 1218.5,-19 1218.5,0 1368.5,0 1368.5,-19"/>
<text text-anchor="middle" x="1293.5" y="-7" font-family="Helvetica,sans-Serif" font-size="10.00">EthernetPhyHeaderChecker</text>
</a>
</g>
</g>
<!-- PacketFilterBase&#45;&gt;EthernetPhyHeaderChecker -->
<g id="edge10" class="edge">
<title>PacketFilterBase&#45;&gt;EthernetPhyHeaderChecker</title>
<path fill="none" stroke="black" d="M2214,-61.92C2080.47,-57.4 1696.19,-43.12 1377.5,-19 1374.58,-18.78 1371.6,-18.54 1368.59,-18.29"/>
</g>
<!-- EthernetTypeOrLengthChecker -->
<g id="node12" class="node">
<title>EthernetTypeOrLengthChecker</title>
<g id="a_node12"><a xlink:href="inet.linklayer.ethernet.modular.EthernetTypeOrLengthChecker.html" xlink:title="Simple Module EthernetTypeOrLengthChecker" target="_parent">
<polygon fill="#fffcaf" stroke="black" points="1550.5,-19 1386.5,-19 1386.5,0 1550.5,0 1550.5,-19"/>
<text text-anchor="middle" x="1468.5" y="-7" font-family="Helvetica,sans-Serif" font-size="10.00">EthernetTypeOrLengthChecker</text>
</a>
</g>
</g>
<!-- PacketFilterBase&#45;&gt;EthernetTypeOrLengthChecker -->
<g id="edge11" class="edge">
<title>PacketFilterBase&#45;&gt;EthernetTypeOrLengthChecker</title>
<path fill="none" stroke="black" d="M2213.88,-60.92C2099.64,-54.76 1805.17,-38.24 1559.5,-19 1556.65,-18.78 1553.76,-18.54 1550.83,-18.3"/>
</g>
<!-- FcsCheckerBase -->
<g id="node13" class="node">
<title>FcsCheckerBase</title>
<g id="a_node13"><a xlink:href="inet.protocolelement.checksum.base.FcsCheckerBase.html" xlink:title="Simple Module FcsCheckerBase" target="_parent">
<polygon fill="#fffcaf" stroke="black" points="1664.5,-19 1568.5,-19 1568.5,0 1664.5,0 1664.5,-19"/>
<text text-anchor="middle" x="1616.5" y="-7" font-family="Helvetica,sans-Serif" font-size="10.00">FcsCheckerBase</text>
</a>
</g>
</g>
<!-- PacketFilterBase&#45;&gt;FcsCheckerBase -->
<g id="edge12" class="edge">
<title>PacketFilterBase&#45;&gt;FcsCheckerBase</title>
<path fill="none" stroke="black" d="M2213.9,-61.03C2113,-55.63 1873.5,-41.44 1673.5,-19 1670.62,-18.68 1667.65,-18.32 1664.67,-17.93"/>
</g>
<!-- FragmentNumberHeaderChecker -->
<g id="node14" class="node">
<title>FragmentNumberHeaderChecker</title>
<g id="a_node14"><a xlink:href="inet.protocolelement.fragmentation.FragmentNumberHeaderChecker.html" xlink:title="Simple Module FragmentNumberHeaderChecker" target="_parent">
<polygon fill="#fffcaf" stroke="black" points="1858.5,-19 1682.5,-19 1682.5,0 1858.5,0 1858.5,-19"/>
<text text-anchor="middle" x="1770.5" y="-7" font-family="Helvetica,sans-Serif" font-size="10.00">FragmentNumberHeaderChecker</text>
</a>
</g>
</g>
<!-- PacketFilterBase&#45;&gt;FragmentNumberHeaderChecker -->
<g id="edge13" class="edge">
<title>PacketFilterBase&#45;&gt;FragmentNumberHeaderChecker</title>
<path fill="none" stroke="black" d="M2213.98,-58.27C2129.01,-49.12 1952.54,-30.11 1849.67,-19.03"/>
</g>
<!-- Ieee8021aeTagEpdHeaderChecker -->
<g id="node15" class="node">
<title>Ieee8021aeTagEpdHeaderChecker</title>
<g id="a_node15"><a xlink:href="inet.linklayer.ieee8021ae.Ieee8021aeTagEpdHeaderChecker.html" xlink:title="Simple Module Ieee8021aeTagEpdHeaderChecker" target="_parent">
<polygon fill="#fffcaf" stroke="black" points="2058.5,-19 1876.5,-19 1876.5,0 2058.5,0 2058.5,-19"/>
<text text-anchor="middle" x="1967.5" y="-7" font-family="Helvetica,sans-Serif" font-size="10.00">Ieee8021aeTagEpdHeaderChecker</text>
</a>
</g>
</g>
<!-- PacketFilterBase&#45;&gt;Ieee8021aeTagEpdHeaderChecker -->
<g id="edge14" class="edge">
<title>PacketFilterBase&#45;&gt;Ieee8021aeTagEpdHeaderChecker</title>
<path fill="none" stroke="black" d="M2215.1,-54.98C2160.22,-45.12 2070.31,-28.97 2015.27,-19.08"/>
</g>
<!-- Ieee8021qTagEpdHeaderChecker -->
<g id="node16" class="node">
<title>Ieee8021qTagEpdHeaderChecker</title>
<g id="a_node16"><a xlink:href="inet.linklayer.ieee8021q.Ieee8021qTagEpdHeaderChecker.html" xlink:title="Simple Module Ieee8021qTagEpdHeaderChecker" target="_parent">
<polygon fill="#fffcaf" stroke="black" points="2252.5,-19 2076.5,-19 2076.5,0 2252.5,0 2252.5,-19"/>
<text text-anchor="middle" x="2164.5" y="-7" font-family="Helvetica,sans-Serif" font-size="10.00">Ieee8021qTagEpdHeaderChecker</text>
</a>
</g>
</g>
<!-- PacketFilterBase&#45;&gt;Ieee8021qTagEpdHeaderChecker -->
<g id="edge15" class="edge">
<title>PacketFilterBase&#45;&gt;Ieee8021qTagEpdHeaderChecker</title>
<path fill="none" stroke="black" d="M2246.75,-54.98C2228.57,-45.15 2198.83,-29.07 2180.53,-19.17"/>
</g>
<!-- Ieee8021qTagTpidHeaderChecker -->
<g id="node17" class="node">
<title>Ieee8021qTagTpidHeaderChecker</title>
<g id="a_node17"><a xlink:href="inet.linklayer.ieee8021q.Ieee8021qTagTpidHeaderChecker.html" xlink:title="Simple Module Ieee8021qTagTpidHeaderChecker" target="_parent">
<polygon fill="#fffcaf" stroke="black" points="2450,-19 2271,-19 2271,0 2450,0 2450,-19"/>
<text text-anchor="middle" x="2360.5" y="-7" font-family="Helvetica,sans-Serif" font-size="10.00">Ieee8021qTagTpidHeaderChecker</text>
</a>
</g>
</g>
<!-- PacketFilterBase&#45;&gt;Ieee8021qTagTpidHeaderChecker -->
<g id="edge16" class="edge">
<title>PacketFilterBase&#45;&gt;Ieee8021qTagTpidHeaderChecker</title>
<path fill="none" stroke="black" d="M2278.25,-54.98C2296.43,-45.15 2326.17,-29.07 2344.47,-19.17"/>
</g>
<!-- Ieee8021rTagEpdHeaderChecker -->
<g id="node18" class="node">
<title>Ieee8021rTagEpdHeaderChecker</title>
<g id="a_node18"><a xlink:href="inet.linklayer.ieee8021r.Ieee8021rTagEpdHeaderChecker.html" xlink:title="Simple Module Ieee8021rTagEpdHeaderChecker" target="_parent">
<polygon fill="#fffcaf" stroke="black" points="2642.5,-19 2468.5,-19 2468.5,0 2642.5,0 2642.5,-19"/>
<text text-anchor="middle" x="2555.5" y="-7" font-family="Helvetica,sans-Serif" font-size="10.00">Ieee8021rTagEpdHeaderChecker</text>
</a>
</g>
</g>
<!-- PacketFilterBase&#45;&gt;Ieee8021rTagEpdHeaderChecker -->
<g id="edge17" class="edge">
<title>PacketFilterBase&#45;&gt;Ieee8021rTagEpdHeaderChecker</title>
<path fill="none" stroke="black" d="M2309.58,-54.98C2364.09,-45.12 2453.38,-28.97 2508.06,-19.08"/>
</g>
<!-- Ieee8022LlcChecker -->
<g id="node19" class="node">
<title>Ieee8022LlcChecker</title>
<g id="a_node19"><a xlink:href="inet.linklayer.ieee8022.Ieee8022LlcChecker.html" xlink:title="Simple Module Ieee8022LlcChecker" target="_parent">
<polygon fill="#fffcaf" stroke="black" points="2774.5,-19 2660.5,-19 2660.5,0 2774.5,0 2774.5,-19"/>
<text text-anchor="middle" x="2717.5" y="-7" font-family="Helvetica,sans-Serif" font-size="10.00">Ieee8022LlcChecker</text>
</a>
</g>
</g>
<!-- PacketFilterBase&#45;&gt;Ieee8022LlcChecker -->
<g id="edge18" class="edge">
<title>PacketFilterBase&#45;&gt;Ieee8022LlcChecker</title>
<path fill="none" stroke="black" d="M2311.04,-58.17C2384.68,-50.04 2529.03,-33.89 2651.5,-19 2654.37,-18.65 2657.3,-18.29 2660.27,-17.92"/>
</g>
<!-- Ieee8022SnapChecker -->
<g id="node20" class="node">
<title>Ieee8022SnapChecker</title>
<g id="a_node20"><a xlink:href="inet.linklayer.ieee8022.Ieee8022SnapChecker.html" xlink:title="Simple Module Ieee8022SnapChecker" target="_parent">
<polygon fill="#fffcaf" stroke="black" points="2918,-19 2793,-19 2793,0 2918,0 2918,-19"/>
<text text-anchor="middle" x="2855.5" y="-7" font-family="Helvetica,sans-Serif" font-size="10.00">Ieee8022SnapChecker</text>
</a>
</g>
</g>
<!-- PacketFilterBase&#45;&gt;Ieee8022SnapChecker -->
<g id="edge19" class="edge">
<title>PacketFilterBase&#45;&gt;Ieee8022SnapChecker</title>
<path fill="none" stroke="black" d="M2311.03,-59.88C2403.2,-52.89 2609.87,-36.66 2783.5,-19 2786.51,-18.69 2789.58,-18.37 2792.68,-18.04"/>
</g>
<!-- LabelFilter -->
<g id="node21" class="node">
<title>LabelFilter</title>
<g id="a_node21"><a xlink:href="inet.queueing.filter.LabelFilter.html" xlink:title="Simple Module LabelFilter" target="_parent">
<polygon fill="#fffcaf" stroke="black" points="3003,-19 2936,-19 2936,0 3003,0 3003,-19"/>
<text text-anchor="middle" x="2969.5" y="-7" font-family="Helvetica,sans-Serif" font-size="10.00">LabelFilter</text>
</a>
</g>
</g>
<!-- PacketFilterBase&#45;&gt;LabelFilter -->
<g id="edge20" class="edge">
<title>PacketFilterBase&#45;&gt;LabelFilter</title>
<path fill="none" stroke="black" d="M2311.12,-62.46C2421.27,-59.61 2698.13,-49.75 2927.5,-19 2930.15,-18.64 2932.89,-18.22 2935.64,-17.75"/>
</g>
<!-- OrdinalBasedDropper -->
<g id="node22" class="node">
<title>OrdinalBasedDropper</title>
<g id="a_node22"><a xlink:href="inet.queueing.filter.OrdinalBasedDropper.html" xlink:title="Simple Module OrdinalBasedDropper" target="_parent">
<polygon fill="#fffcaf" stroke="black" points="3142,-19 3021,-19 3021,0 3142,0 3142,-19"/>
<text text-anchor="middle" x="3081.5" y="-7" font-family="Helvetica,sans-Serif" font-size="10.00">OrdinalBasedDropper</text>
</a>
</g>
</g>
<!-- PacketFilterBase&#45;&gt;OrdinalBasedDropper -->
<g id="edge21" class="edge">
<title>PacketFilterBase&#45;&gt;OrdinalBasedDropper</title>
<path fill="none" stroke="black" d="M2311.28,-61.68C2430.93,-56.97 2748.48,-43.07 3012.5,-19 3015.26,-18.75 3018.09,-18.47 3020.94,-18.18"/>
</g>
<!-- PacketFilter -->
<g id="node23" class="node">
<title>PacketFilter</title>
<g id="a_node23"><a xlink:href="inet.queueing.filter.PacketFilter.html" xlink:title="Simple Module PacketFilter" target="_parent">
<polygon fill="#fffcaf" stroke="black" points="3233,-19 3160,-19 3160,0 3233,0 3233,-19"/>
<text text-anchor="middle" x="3196.5" y="-7" font-family="Helvetica,sans-Serif" font-size="10.00">PacketFilter</text>
</a>
</g>
</g>
<!-- PacketFilterBase&#45;&gt;PacketFilter -->
<g id="edge22" class="edge">
<title>PacketFilterBase&#45;&gt;PacketFilter</title>
<path fill="none" stroke="black" d="M2311.36,-63.39C2445.86,-62.6 2832.7,-56.91 3151.5,-19 3154.18,-18.68 3156.95,-18.3 3159.73,-17.87"/>
</g>
<!-- ProtocolChecker -->
<g id="node24" class="node">
<title>ProtocolChecker</title>
<g id="a_node24"><a xlink:href="inet.protocolelement.common.ProtocolChecker.html" xlink:title="Simple Module ProtocolChecker" target="_parent">
<polygon fill="#fffcaf" stroke="black" points="3346,-19 3251,-19 3251,0 3346,0 3346,-19"/>
<text text-anchor="middle" x="3298.5" y="-7" font-family="Helvetica,sans-Serif" font-size="10.00">ProtocolChecker</text>
</a>
</g>
</g>
<!-- PacketFilterBase&#45;&gt;ProtocolChecker -->
<g id="edge23" class="edge">
<title>PacketFilterBase&#45;&gt;ProtocolChecker</title>
<path fill="none" stroke="black" d="M2311.07,-63.1C2454.1,-61.54 2886.13,-54.04 3242.5,-19 3245.24,-18.73 3248.05,-18.42 3250.88,-18.08"/>
</g>
<!-- RedDropper -->
<g id="node25" class="node">
<title>RedDropper</title>
<g id="a_node25"><a xlink:href="inet.queueing.filter.RedDropper.html" xlink:title="Simple Module RedDropper" target="_parent">
<polygon fill="#fffcaf" stroke="black" points="3438.5,-19 3364.5,-19 3364.5,0 3438.5,0 3438.5,-19"/>
<text text-anchor="middle" x="3401.5" y="-7" font-family="Helvetica,sans-Serif" font-size="10.00">RedDropper</text>
</a>
</g>
</g>
<!-- PacketFilterBase&#45;&gt;RedDropper -->
<g id="edge24" class="edge">
<title>PacketFilterBase&#45;&gt;RedDropper</title>
<path fill="none" stroke="black" d="M2311.17,-63.98C2464.95,-64.95 2953.98,-64.04 3355.5,-19 3358.41,-18.67 3361.4,-18.27 3364.41,-17.82"/>
</g>
<!-- StatisticalRateLimiter -->
<g id="node26" class="node">
<title>StatisticalRateLimiter</title>
<g id="a_node26"><a xlink:href="inet.queueing.filter.StatisticalRateLimiter.html" xlink:title="Simple Module StatisticalRateLimiter" target="_parent">
<polygon fill="#fffcaf" stroke="black" points="3578.5,-19 3456.5,-19 3456.5,0 3578.5,0 3578.5,-19"/>
<text text-anchor="middle" x="3517.5" y="-7" font-family="Helvetica,sans-Serif" font-size="10.00">StatisticalRateLimiter</text>
</a>
</g>
</g>
<!-- PacketFilterBase&#45;&gt;StatisticalRateLimiter -->
<g id="edge25" class="edge">
<title>PacketFilterBase&#45;&gt;StatisticalRateLimiter</title>
<path fill="none" stroke="black" d="M2311.12,-63.12C2472.83,-61.57 3007.28,-53.93 3447.5,-19 3450.43,-18.77 3453.42,-18.5 3456.45,-18.22"/>
</g>
<!-- StreamFilter -->
<g id="node27" class="node">
<title>StreamFilter</title>
<g id="a_node27"><a xlink:href="inet.protocolelement.redundancy.StreamFilter.html" xlink:title="Simple Module StreamFilter" target="_parent">
<polygon fill="#fffcaf" stroke="black" points="3672.5,-19 3596.5,-19 3596.5,0 3672.5,0 3672.5,-19"/>
<text text-anchor="middle" x="3634.5" y="-7" font-family="Helvetica,sans-Serif" font-size="10.00">StreamFilter</text>
</a>
</g>
</g>
<!-- PacketFilterBase&#45;&gt;StreamFilter -->
<g id="edge26" class="edge">
<title>PacketFilterBase&#45;&gt;StreamFilter</title>
<path fill="none" stroke="black" d="M2311.2,-62.81C2519.04,-59.74 3332.74,-46.17 3587.5,-19 3590.39,-18.69 3593.36,-18.31 3596.35,-17.88"/>
</g>
<!-- StreamMerger -->
<g id="node28" class="node">
<title>StreamMerger</title>
<g id="a_node28"><a xlink:href="inet.protocolelement.redundancy.StreamMerger.html" xlink:title="Simple Module StreamMerger" target="_parent">
<polygon fill="#fffcaf" stroke="black" points="3776.5,-19 3690.5,-19 3690.5,0 3776.5,0 3776.5,-19"/>
<text text-anchor="middle" x="3733.5" y="-7" font-family="Helvetica,sans-Serif" font-size="10.00">StreamMerger</text>
</a>
</g>
</g>
<!-- PacketFilterBase&#45;&gt;StreamMerger -->
<g id="edge27" class="edge">
<title>PacketFilterBase&#45;&gt;StreamMerger</title>
<path fill="none" stroke="black" d="M2311.32,-62.83C2528.35,-59.7 3407.04,-45.62 3681.5,-19 3684.41,-18.72 3687.41,-18.37 3690.43,-17.99"/>
</g>
<!-- VlanIndFilter -->
<g id="node29" class="node">
<title>VlanIndFilter</title>
<g id="a_node29"><a xlink:href="inet.linklayer.vlan.VlanIndFilter.html" xlink:title="Simple Module VlanIndFilter" target="_parent">
<polygon fill="#fffcaf" stroke="black" points="3872,-19 3795,-19 3795,0 3872,0 3872,-19"/>
<text text-anchor="middle" x="3833.5" y="-7" font-family="Helvetica,sans-Serif" font-size="10.00">VlanIndFilter</text>
</a>
</g>
</g>
<!-- PacketFilterBase&#45;&gt;VlanIndFilter -->
<g id="edge28" class="edge">
<title>PacketFilterBase&#45;&gt;VlanIndFilter</title>
<path fill="none" stroke="black" d="M2311.07,-63.04C2537.32,-60.73 3489.47,-49.37 3785.5,-19 3788.53,-18.69 3791.66,-18.3 3794.8,-17.85"/>
</g>
<!-- VlanReqFilter -->
<g id="node30" class="node">
<title>VlanReqFilter</title>
<g id="a_node30"><a xlink:href="inet.linklayer.vlan.VlanReqFilter.html" xlink:title="Simple Module VlanReqFilter" target="_parent">
<polygon fill="#fffcaf" stroke="black" points="3971,-19 3890,-19 3890,0 3971,0 3971,-19"/>
<text text-anchor="middle" x="3930.5" y="-7" font-family="Helvetica,sans-Serif" font-size="10.00">VlanReqFilter</text>
</a>
</g>
</g>
<!-- PacketFilterBase&#45;&gt;VlanReqFilter -->
<g id="edge29" class="edge">
<title>PacketFilterBase&#45;&gt;VlanReqFilter</title>
<path fill="none" stroke="black" d="M2311.35,-63.11C2546.75,-61.08 3565.51,-50.58 3881.5,-19 3884.25,-18.73 3887.08,-18.39 3889.92,-18"/>
</g>
<!-- PacketProcessorBase -->
<g id="node2" class="node">
<title>PacketProcessorBase</title>
<g id="a_node2"><a xlink:href="inet.queueing.base.PacketProcessorBase.html" xlink:title="Simple Module PacketProcessorBase" target="_parent">
<polygon fill="#fffcaf" stroke="black" points="2322.5,-129 2202.5,-129 2202.5,-110 2322.5,-110 2322.5,-129"/>
<text text-anchor="middle" x="2262.5" y="-117" font-family="Helvetica,sans-Serif" font-size="10.00">PacketProcessorBase</text>
</a>
</g>
</g>
<!-- PacketProcessorBase&#45;&gt;PacketFilterBase -->
<g id="edge1" class="edge">
<title>PacketProcessorBase&#45;&gt;PacketFilterBase</title>
<path fill="none" stroke="black" d="M2262.5,-109.75C2262.5,-99.87 2262.5,-83.9 2262.5,-74.09"/>
</g>
</g>
</svg>
