<?xml version="1.0" encoding="UTF-8" standalone="no"?>
<!DOCTYPE svg PUBLIC "-//W3C//DTD SVG 1.1//EN"
 "http://www.w3.org/Graphics/SVG/1.1/DTD/svg11.dtd">
<!-- Generated by graphviz version 2.43.0 (0)
 -->
<!-- Title: opp Pages: 1 -->
<svg width="298pt" height="137pt"
 viewBox="0.00 0.00 297.50 137.00" xmlns="http://www.w3.org/2000/svg" xmlns:xlink="http://www.w3.org/1999/xlink">
<g id="graph0" class="graph" transform="scale(1 1) rotate(0) translate(4 133)">
<title>opp</title>
<polygon fill="transparent" stroke="transparent" points="-4,4 -4,-133 293.5,-133 293.5,4 -4,4"/>
<!-- StreamingTransmitterBase -->
<g id="node1" class="node">
<title>StreamingTransmitterBase</title>
<g id="a_node1"><a xlink:href="inet.protocolelement.transceiver.base.StreamingTransmitterBase.html" xlink:title="Simple Module StreamingTransmitterBase" target="_parent">
<polygon fill="#fff700" stroke="black" points="212,-74 65,-74 65,-55 212,-55 212,-74"/>
<text text-anchor="middle" x="138.5" y="-62" font-family="Helvetica,sans-Serif" font-size="10.00">StreamingTransmitterBase</text>
</a>
</g>
</g>
<!-- StreamingTransmitter -->
<g id="node3" class="node">
<title>StreamingTransmitter</title>
<g id="a_node3"><a xlink:href="inet.protocolelement.transceiver.StreamingTransmitter.html" xlink:title="Simple Module StreamingTransmitter" target="_parent">
<polygon fill="#fffcaf" stroke="black" points="123,-19 0,-19 0,0 123,0 123,-19"/>
<text text-anchor="middle" x="61.5" y="-7" font-family="Helvetica,sans-Serif" font-size="10.00">StreamingTransmitter</text>
</a>
</g>
</g>
<!-- StreamingTransmitterBase&#45;&gt;StreamingTransmitter -->
<g id="edge2" class="edge">
<title>StreamingTransmitterBase&#45;&gt;StreamingTransmitter</title>
<path fill="none" stroke="black" d="M126.13,-54.98C111.84,-45.15 88.48,-29.07 74.1,-19.17"/>
</g>
<!-- StreamThroughTransmitter -->
<g id="node4" class="node">
<title>StreamThroughTransmitter</title>
<g id="a_node4"><a xlink:href="inet.protocolelement.transceiver.StreamThroughTransmitter.html" xlink:title="Simple Module StreamThroughTransmitter" target="_parent">
<polygon fill="#fffcaf" stroke="black" points="289.5,-19 141.5,-19 141.5,0 289.5,0 289.5,-19"/>
<text text-anchor="middle" x="215.5" y="-7" font-family="Helvetica,sans-Serif" font-size="10.00">StreamThroughTransmitter</text>
</a>
</g>
</g>
<!-- StreamingTransmitterBase&#45;&gt;StreamThroughTransmitter -->
<g id="edge3" class="edge">
<title>StreamingTransmitterBase&#45;&gt;StreamThroughTransmitter</title>
<path fill="none" stroke="black" d="M150.87,-54.98C165.16,-45.15 188.52,-29.07 202.9,-19.17"/>
</g>
<!-- PacketTransmitterBase -->
<g id="node2" class="node">
<title>PacketTransmitterBase</title>
<g id="a_node2"><a xlink:href="inet.protocolelement.transceiver.base.PacketTransmitterBase.html" xlink:title="Simple Module PacketTransmitterBase" target="_parent">
<polygon fill="#fffcaf" stroke="black" points="203,-129 74,-129 74,-110 203,-110 203,-129"/>
<text text-anchor="middle" x="138.5" y="-117" font-family="Helvetica,sans-Serif" font-size="10.00">PacketTransmitterBase</text>
</a>
</g>
</g>
<!-- PacketTransmitterBase&#45;&gt;StreamingTransmitterBase -->
<g id="edge1" class="edge">
<title>PacketTransmitterBase&#45;&gt;StreamingTransmitterBase</title>
<path fill="none" stroke="black" d="M138.5,-109.75C138.5,-99.87 138.5,-83.9 138.5,-74.09"/>
</g>
</g>
</svg>
