<?xml version="1.0" encoding="UTF-8" standalone="no"?>
<!DOCTYPE svg PUBLIC "-//W3C//DTD SVG 1.1//EN"
 "http://www.w3.org/Graphics/SVG/1.1/DTD/svg11.dtd">
<!-- Generated by graphviz version 2.43.0 (0)
 -->
<!-- Title: opp Pages: 1 -->
<svg width="612pt" height="82pt"
 viewBox="0.00 0.00 611.50 82.00" xmlns="http://www.w3.org/2000/svg" xmlns:xlink="http://www.w3.org/1999/xlink">
<g id="graph0" class="graph" transform="scale(1 1) rotate(0) translate(4 78)">
<title>opp</title>
<polygon fill="transparent" stroke="transparent" points="-4,4 -4,-78 607.5,-78 607.5,4 -4,4"/>
<!-- Ieee8021qFilter -->
<g id="node1" class="node">
<title>Ieee8021qFilter</title>
<g id="a_node1"><a xlink:href="inet.linklayer.ieee8021q.Ieee8021qFilter.html" xlink:title="Compound Module Ieee8021qFilter" target="_parent">
<polygon fill="#fff700" stroke="black" points="350,-74 258,-74 258,-55 350,-55 350,-74"/>
<text text-anchor="middle" x="304" y="-62" font-family="Helvetica,sans-Serif" font-size="10.00">Ieee8021qFilter</text>
</a>
</g>
</g>
<!-- IdealChannel -->
<g id="node2" class="node">
<title>IdealChannel</title>
<g id="a_node2"><a xlink:href="ned.IdealChannel.html" xlink:title="Channel IdealChannel" target="_parent">
<polygon fill="#d0ffd0" stroke="black" points="80,-19 0,-19 0,0 80,0 80,-19"/>
<text text-anchor="middle" x="40" y="-7" font-family="Helvetica,sans-Serif" font-size="10.00">IdealChannel</text>
</a>
</g>
</g>
<!-- Ieee8021qFilter&#45;&gt;IdealChannel -->
<g id="edge1" class="edge">
<title>Ieee8021qFilter&#45;&gt;IdealChannel</title>
<path fill="none" stroke="black" d="M261.58,-54.98C214.81,-45.59 139.63,-30.5 90.02,-20.54"/>
<polygon fill="black" stroke="black" points="90.64,-17.1 80.15,-18.56 89.26,-23.96 90.64,-17.1"/>
</g>
<!-- IPacketMeter -->
<g id="node3" class="node">
<title>IPacketMeter</title>
<g id="a_node3"><a xlink:href="inet.queueing.contract.IPacketMeter.html" xlink:title="Module Interface IPacketMeter" target="_parent">
<polygon fill="#fffcaf" stroke="black" stroke-dasharray="5,2" points="178,-19 98,-19 98,0 178,0 178,-19"/>
<text text-anchor="middle" x="138" y="-7" font-family="Helvetica,sans-Serif" font-size="10.00">IPacketMeter</text>
</a>
</g>
</g>
<!-- Ieee8021qFilter&#45;&gt;IPacketMeter -->
<g id="edge2" class="edge">
<title>Ieee8021qFilter&#45;&gt;IPacketMeter</title>
<path fill="none" stroke="black" d="M277.33,-54.98C249.46,-46.09 205.55,-32.07 174.48,-22.15"/>
<polygon fill="black" stroke="black" points="175.47,-18.79 164.88,-19.08 173.34,-25.46 175.47,-18.79"/>
</g>
<!-- IPacketClassifier -->
<g id="node4" class="node">
<title>IPacketClassifier</title>
<g id="a_node4"><a xlink:href="inet.queueing.contract.IPacketClassifier.html" xlink:title="Module Interface IPacketClassifier" target="_parent">
<polygon fill="#fffcaf" stroke="black" stroke-dasharray="5,2" points="294,-19 196,-19 196,0 294,0 294,-19"/>
<text text-anchor="middle" x="245" y="-7" font-family="Helvetica,sans-Serif" font-size="10.00">IPacketClassifier</text>
</a>
</g>
</g>
<!-- Ieee8021qFilter&#45;&gt;IPacketClassifier -->
<g id="edge3" class="edge">
<title>Ieee8021qFilter&#45;&gt;IPacketClassifier</title>
<path fill="none" stroke="black" d="M294.52,-54.98C285.8,-47.15 272.66,-35.34 262.1,-25.86"/>
<polygon fill="black" stroke="black" points="264.43,-23.25 254.65,-19.17 259.75,-28.46 264.43,-23.25"/>
</g>
<!-- PacketMultiplexer -->
<g id="node5" class="node">
<title>PacketMultiplexer</title>
<g id="a_node5"><a xlink:href="inet.queueing.common.PacketMultiplexer.html" xlink:title="Simple Module PacketMultiplexer" target="_parent">
<polygon fill="#fffcaf" stroke="black" points="416,-19 312,-19 312,0 416,0 416,-19"/>
<text text-anchor="middle" x="364" y="-7" font-family="Helvetica,sans-Serif" font-size="10.00">PacketMultiplexer</text>
</a>
</g>
</g>
<!-- Ieee8021qFilter&#45;&gt;PacketMultiplexer -->
<g id="edge4" class="edge">
<title>Ieee8021qFilter&#45;&gt;PacketMultiplexer</title>
<path fill="none" stroke="black" d="M313.64,-54.98C322.51,-47.15 335.87,-35.34 346.61,-25.86"/>
<polygon fill="black" stroke="black" points="349.01,-28.41 354.18,-19.17 344.37,-23.17 349.01,-28.41"/>
</g>
<!-- IPacketFilter -->
<g id="node6" class="node">
<title>IPacketFilter</title>
<g id="a_node6"><a xlink:href="inet.queueing.contract.IPacketFilter.html" xlink:title="Module Interface IPacketFilter" target="_parent">
<polygon fill="#fffcaf" stroke="black" stroke-dasharray="5,2" points="510,-19 434,-19 434,0 510,0 510,-19"/>
<text text-anchor="middle" x="472" y="-7" font-family="Helvetica,sans-Serif" font-size="10.00">IPacketFilter</text>
</a>
</g>
</g>
<!-- Ieee8021qFilter&#45;&gt;IPacketFilter -->
<g id="edge5" class="edge">
<title>Ieee8021qFilter&#45;&gt;IPacketFilter</title>
<path fill="none" stroke="black" d="M330.99,-54.98C359.2,-46.09 403.64,-32.07 435.08,-22.15"/>
<polygon fill="black" stroke="black" points="436.31,-25.43 444.8,-19.08 434.21,-18.75 436.31,-25.43"/>
</g>
<!-- IPacketGate -->
<g id="node7" class="node">
<title>IPacketGate</title>
<g id="a_node7"><a xlink:href="inet.queueing.contract.IPacketGate.html" xlink:title="Module Interface IPacketGate" target="_parent">
<polygon fill="#fffcaf" stroke="black" stroke-dasharray="5,2" points="603.5,-19 528.5,-19 528.5,0 603.5,0 603.5,-19"/>
<text text-anchor="middle" x="566" y="-7" font-family="Helvetica,sans-Serif" font-size="10.00">IPacketGate</text>
</a>
</g>
</g>
<!-- Ieee8021qFilter&#45;&gt;IPacketGate -->
<g id="edge6" class="edge">
<title>Ieee8021qFilter&#45;&gt;IPacketGate</title>
<path fill="none" stroke="black" d="M346.09,-54.98C393.09,-45.48 468.99,-30.12 518.19,-20.17"/>
<polygon fill="black" stroke="black" points="519.15,-23.55 528.26,-18.13 517.77,-16.69 519.15,-23.55"/>
</g>
</g>
</svg>
