<?xml version="1.0" encoding="UTF-8" standalone="no"?>
<!DOCTYPE svg PUBLIC "-//W3C//DTD SVG 1.1//EN"
 "http://www.w3.org/Graphics/SVG/1.1/DTD/svg11.dtd">
<!-- Generated by graphviz version 2.43.0 (0)
 -->
<!-- Title: opp Pages: 1 -->
<svg width="350pt" height="82pt"
 viewBox="0.00 0.00 349.50 82.00" xmlns="http://www.w3.org/2000/svg" xmlns:xlink="http://www.w3.org/1999/xlink">
<g id="graph0" class="graph" transform="scale(1 1) rotate(0) translate(4 78)">
<title>opp</title>
<polygon fill="transparent" stroke="transparent" points="-4,4 -4,-78 345.5,-78 345.5,4 -4,4"/>
<!-- AckingWirelessInterface -->
<g id="node1" class="node">
<title>AckingWirelessInterface</title>
<g id="a_node1"><a xlink:href="inet.linklayer.acking.AckingWirelessInterface.html" xlink:title="Compound Module AckingWirelessInterface" target="_parent">
<polygon fill="#fff700" stroke="black" points="224.5,-74 89.5,-74 89.5,-55 224.5,-55 224.5,-74"/>
<text text-anchor="middle" x="157" y="-62" font-family="Helvetica,sans-Serif" font-size="10.00">AckingWirelessInterface</text>
</a>
</g>
</g>
<!-- AckingMac -->
<g id="node2" class="node">
<title>AckingMac</title>
<g id="a_node2"><a xlink:href="inet.linklayer.acking.AckingMac.html" xlink:title="Compound Module AckingMac" target="_parent">
<polygon fill="#fffcaf" stroke="black" points="70,-19 0,-19 0,0 70,0 70,-19"/>
<text text-anchor="middle" x="35" y="-7" font-family="Helvetica,sans-Serif" font-size="10.00">AckingMac</text>
</a>
</g>
</g>
<!-- AckingWirelessInterface&#45;&gt;AckingMac -->
<g id="edge1" class="edge">
<title>AckingWirelessInterface&#45;&gt;AckingMac</title>
<path fill="none" stroke="black" d="M137.4,-54.98C117.68,-46.42 87.05,-33.11 64.42,-23.28"/>
<polygon fill="black" stroke="black" points="65.52,-19.94 54.96,-19.17 62.74,-26.37 65.52,-19.94"/>
</g>
<!-- IRadio -->
<g id="node3" class="node">
<title>IRadio</title>
<g id="a_node3"><a xlink:href="inet.physicallayer.wireless.common.contract.packetlevel.IRadio.html" xlink:title="Module Interface IRadio" target="_parent">
<polygon fill="#fffcaf" stroke="black" stroke-dasharray="5,2" points="142,-19 88,-19 88,0 142,0 142,-19"/>
<text text-anchor="middle" x="115" y="-7" font-family="Helvetica,sans-Serif" font-size="10.00">IRadio</text>
</a>
</g>
</g>
<!-- AckingWirelessInterface&#45;&gt;IRadio -->
<g id="edge2" class="edge">
<title>AckingWirelessInterface&#45;&gt;IRadio</title>
<path fill="none" stroke="black" d="M150.06,-54.75C144.13,-47.26 135.43,-36.28 128.18,-27.13"/>
<polygon fill="black" stroke="black" points="130.76,-24.75 121.81,-19.09 125.27,-29.1 130.76,-24.75"/>
</g>
<!-- IdealChannel -->
<g id="node4" class="node">
<title>IdealChannel</title>
<g id="a_node4"><a xlink:href="ned.IdealChannel.html" xlink:title="Channel IdealChannel" target="_parent">
<polygon fill="#d0ffd0" stroke="black" points="240,-19 160,-19 160,0 240,0 240,-19"/>
<text text-anchor="middle" x="200" y="-7" font-family="Helvetica,sans-Serif" font-size="10.00">IdealChannel</text>
</a>
</g>
</g>
<!-- AckingWirelessInterface&#45;&gt;IdealChannel -->
<g id="edge3" class="edge">
<title>AckingWirelessInterface&#45;&gt;IdealChannel</title>
<path fill="none" stroke="black" d="M164.1,-54.75C170.17,-47.26 179.09,-36.28 186.51,-27.13"/>
<polygon fill="black" stroke="black" points="189.45,-29.06 193.03,-19.09 184.01,-24.65 189.45,-29.06"/>
</g>
<!-- IPacketQueue -->
<g id="node5" class="node">
<title>IPacketQueue</title>
<g id="a_node5"><a xlink:href="inet.queueing.contract.IPacketQueue.html" xlink:title="Module Interface IPacketQueue" target="_parent">
<polygon fill="#fffcaf" stroke="black" stroke-dasharray="5,2" points="341.5,-19 258.5,-19 258.5,0 341.5,0 341.5,-19"/>
<text text-anchor="middle" x="300" y="-7" font-family="Helvetica,sans-Serif" font-size="10.00">IPacketQueue</text>
</a>
</g>
</g>
<!-- AckingWirelessInterface&#45;&gt;IPacketQueue -->
<g id="edge4" class="edge">
<title>AckingWirelessInterface&#45;&gt;IPacketQueue</title>
<path fill="none" stroke="black" d="M179.98,-54.98C203.5,-46.27 240.29,-32.63 266.94,-22.75"/>
<polygon fill="black" stroke="black" points="268.45,-25.93 276.61,-19.17 266.01,-19.36 268.45,-25.93"/>
</g>
</g>
</svg>
