<?xml version="1.0" encoding="UTF-8" standalone="no"?>
<!DOCTYPE svg PUBLIC "-//W3C//DTD SVG 1.1//EN"
 "http://www.w3.org/Graphics/SVG/1.1/DTD/svg11.dtd">
<!-- Generated by graphviz version 2.43.0 (0)
 -->
<!-- Title: opp Pages: 1 -->
<svg width="472pt" height="82pt"
 viewBox="0.00 0.00 472.00 82.00" xmlns="http://www.w3.org/2000/svg" xmlns:xlink="http://www.w3.org/1999/xlink">
<g id="graph0" class="graph" transform="scale(1 1) rotate(0) translate(4 78)">
<title>opp</title>
<polygon fill="transparent" stroke="transparent" points="-4,4 -4,-78 468,-78 468,4 -4,4"/>
<!-- Filter1TutorialStep -->
<g id="node1" class="node">
<title>Filter1TutorialStep</title>
<g id="a_node1"><a xlink:href="inet.tutorials.queueing.Filter1TutorialStep.html" xlink:title="Network Filter1TutorialStep" target="_parent">
<polygon fill="#9090ff" stroke="black" points="279.5,-74 175.5,-74 175.5,-55 279.5,-55 279.5,-74"/>
<text text-anchor="middle" x="227.5" y="-62" font-family="Helvetica,sans-Serif" font-size="10.00">Filter1TutorialStep</text>
</a>
</g>
</g>
<!-- ActivePacketSource -->
<g id="node2" class="node">
<title>ActivePacketSource</title>
<g id="a_node2"><a xlink:href="inet.queueing.source.ActivePacketSource.html" xlink:title="Simple Module ActivePacketSource" target="_parent">
<polygon fill="#fffcaf" stroke="black" points="113,-19 0,-19 0,0 113,0 113,-19"/>
<text text-anchor="middle" x="56.5" y="-7" font-family="Helvetica,sans-Serif" font-size="10.00">ActivePacketSource</text>
</a>
</g>
</g>
<!-- Filter1TutorialStep&#45;&gt;ActivePacketSource -->
<g id="edge1" class="edge">
<title>Filter1TutorialStep&#45;&gt;ActivePacketSource</title>
<path fill="none" stroke="black" d="M200.03,-54.98C171.32,-46.09 126.08,-32.07 94.08,-22.15"/>
<polygon fill="black" stroke="black" points="94.78,-18.7 84.19,-19.08 92.7,-25.39 94.78,-18.7"/>
</g>
<!-- IdealChannel -->
<g id="node3" class="node">
<title>IdealChannel</title>
<g id="a_node3"><a xlink:href="ned.IdealChannel.html" xlink:title="Channel IdealChannel" target="_parent">
<polygon fill="#d0ffd0" stroke="black" points="211.5,-19 131.5,-19 131.5,0 211.5,0 211.5,-19"/>
<text text-anchor="middle" x="171.5" y="-7" font-family="Helvetica,sans-Serif" font-size="10.00">IdealChannel</text>
</a>
</g>
</g>
<!-- Filter1TutorialStep&#45;&gt;IdealChannel -->
<g id="edge2" class="edge">
<title>Filter1TutorialStep&#45;&gt;IdealChannel</title>
<path fill="none" stroke="black" d="M218.5,-54.98C210.31,-47.23 197.99,-35.58 188.03,-26.14"/>
<polygon fill="black" stroke="black" points="190.33,-23.5 180.66,-19.17 185.52,-28.59 190.33,-23.5"/>
</g>
<!-- ContentBasedFilter -->
<g id="node4" class="node">
<title>ContentBasedFilter</title>
<g id="a_node4"><a xlink:href="inet.queueing.filter.ContentBasedFilter.html" xlink:title="Simple Module ContentBasedFilter" target="_parent">
<polygon fill="#fffcaf" stroke="black" points="339,-19 230,-19 230,0 339,0 339,-19"/>
<text text-anchor="middle" x="284.5" y="-7" font-family="Helvetica,sans-Serif" font-size="10.00">ContentBasedFilter</text>
</a>
</g>
</g>
<!-- Filter1TutorialStep&#45;&gt;ContentBasedFilter -->
<g id="edge3" class="edge">
<title>Filter1TutorialStep&#45;&gt;ContentBasedFilter</title>
<path fill="none" stroke="black" d="M236.66,-54.98C245,-47.23 257.53,-35.58 267.68,-26.14"/>
<polygon fill="black" stroke="black" points="270.24,-28.54 275.18,-19.17 265.47,-23.42 270.24,-28.54"/>
</g>
<!-- PassivePacketSink -->
<g id="node5" class="node">
<title>PassivePacketSink</title>
<g id="a_node5"><a xlink:href="inet.queueing.sink.PassivePacketSink.html" xlink:title="Simple Module PassivePacketSink" target="_parent">
<polygon fill="#fffcaf" stroke="black" points="464,-19 357,-19 357,0 464,0 464,-19"/>
<text text-anchor="middle" x="410.5" y="-7" font-family="Helvetica,sans-Serif" font-size="10.00">PassivePacketSink</text>
</a>
</g>
</g>
<!-- Filter1TutorialStep&#45;&gt;PassivePacketSink -->
<g id="edge4" class="edge">
<title>Filter1TutorialStep&#45;&gt;PassivePacketSink</title>
<path fill="none" stroke="black" d="M256.9,-54.98C287.89,-46.01 336.88,-31.82 371.17,-21.89"/>
<polygon fill="black" stroke="black" points="372.24,-25.23 380.87,-19.08 370.29,-18.5 372.24,-25.23"/>
</g>
</g>
</svg>
