<?xml version="1.0" encoding="UTF-8" standalone="no"?>
<!DOCTYPE svg PUBLIC "-//W3C//DTD SVG 1.1//EN"
 "http://www.w3.org/Graphics/SVG/1.1/DTD/svg11.dtd">
<!-- Generated by graphviz version 2.43.0 (0)
 -->
<!-- Title: opp Pages: 1 -->
<svg width="292pt" height="82pt"
 viewBox="0.00 0.00 292.00 82.00" xmlns="http://www.w3.org/2000/svg" xmlns:xlink="http://www.w3.org/1999/xlink">
<g id="graph0" class="graph" transform="scale(1 1) rotate(0) translate(4 78)">
<title>opp</title>
<polygon fill="transparent" stroke="transparent" points="-4,4 -4,-78 288,-78 288,4 -4,4"/>
<!-- TcpServerApp -->
<g id="node1" class="node">
<title>TcpServerApp</title>
<g id="a_node1"><a xlink:href="inet.applications.tcpapp.TcpServerApp.html" xlink:title="Compound Module TcpServerApp" target="_parent">
<polygon fill="#fff700" stroke="black" points="196.5,-74 113.5,-74 113.5,-55 196.5,-55 196.5,-74"/>
<text text-anchor="middle" x="155" y="-62" font-family="Helvetica,sans-Serif" font-size="10.00">TcpServerApp</text>
</a>
</g>
</g>
<!-- IdealChannel -->
<g id="node2" class="node">
<title>IdealChannel</title>
<g id="a_node2"><a xlink:href="ned.IdealChannel.html" xlink:title="Channel IdealChannel" target="_parent">
<polygon fill="#d0ffd0" stroke="black" points="80,-19 0,-19 0,0 80,0 80,-19"/>
<text text-anchor="middle" x="40" y="-7" font-family="Helvetica,sans-Serif" font-size="10.00">IdealChannel</text>
</a>
</g>
</g>
<!-- TcpServerApp&#45;&gt;IdealChannel -->
<g id="edge1" class="edge">
<title>TcpServerApp&#45;&gt;IdealChannel</title>
<path fill="none" stroke="black" d="M136.52,-54.98C118.02,-46.46 89.32,-33.23 68.02,-23.41"/>
<polygon fill="black" stroke="black" points="69.36,-20.18 58.81,-19.17 66.43,-26.53 69.36,-20.18"/>
</g>
<!-- MessageDispatcher -->
<g id="node3" class="node">
<title>MessageDispatcher</title>
<g id="a_node3"><a xlink:href="inet.common.MessageDispatcher.html" xlink:title="Simple Module MessageDispatcher" target="_parent">
<polygon fill="#fffcaf" stroke="black" points="211.5,-19 98.5,-19 98.5,0 211.5,0 211.5,-19"/>
<text text-anchor="middle" x="155" y="-7" font-family="Helvetica,sans-Serif" font-size="10.00">MessageDispatcher</text>
</a>
</g>
</g>
<!-- TcpServerApp&#45;&gt;MessageDispatcher -->
<g id="edge2" class="edge">
<title>TcpServerApp&#45;&gt;MessageDispatcher</title>
<path fill="none" stroke="black" d="M155,-54.75C155,-47.8 155,-37.85 155,-29.13"/>
<polygon fill="black" stroke="black" points="158.5,-29.09 155,-19.09 151.5,-29.09 158.5,-29.09"/>
</g>
<!-- IApp -->
<g id="node4" class="node">
<title>IApp</title>
<g id="a_node4"><a xlink:href="inet.applications.contract.IApp.html" xlink:title="Module Interface IApp" target="_parent">
<polygon fill="#fffcaf" stroke="black" stroke-dasharray="5,2" points="284,-19 230,-19 230,0 284,0 284,-19"/>
<text text-anchor="middle" x="257" y="-7" font-family="Helvetica,sans-Serif" font-size="10.00">IApp</text>
</a>
</g>
</g>
<!-- TcpServerApp&#45;&gt;IApp -->
<g id="edge3" class="edge">
<title>TcpServerApp&#45;&gt;IApp</title>
<path fill="none" stroke="black" d="M171.39,-54.98C187.57,-46.57 212.57,-33.59 231.38,-23.81"/>
<polygon fill="black" stroke="black" points="233.05,-26.89 240.31,-19.17 229.83,-20.68 233.05,-26.89"/>
</g>
</g>
</svg>
