<?xml version="1.0" encoding="UTF-8" standalone="no"?>
<!DOCTYPE svg PUBLIC "-//W3C//DTD SVG 1.1//EN"
 "http://www.w3.org/Graphics/SVG/1.1/DTD/svg11.dtd">
<!-- Generated by graphviz version 2.43.0 (0)
 -->
<!-- Title: opp Pages: 1 -->
<svg width="588pt" height="82pt"
 viewBox="0.00 0.00 587.50 82.00" xmlns="http://www.w3.org/2000/svg" xmlns:xlink="http://www.w3.org/1999/xlink">
<g id="graph0" class="graph" transform="scale(1 1) rotate(0) translate(4 78)">
<title>opp</title>
<polygon fill="transparent" stroke="transparent" points="-4,4 -4,-78 583.5,-78 583.5,4 -4,4"/>
<!-- PowerConsumptionShowcase -->
<g id="node1" class="node">
<title>PowerConsumptionShowcase</title>
<g id="a_node1"><a xlink:href="inet.showcases.wireless.power.PowerConsumptionShowcase.html" xlink:title="Network PowerConsumptionShowcase" target="_parent">
<polygon fill="#9090ff" stroke="black" points="378,-74 218,-74 218,-55 378,-55 378,-74"/>
<text text-anchor="middle" x="298" y="-62" font-family="Helvetica,sans-Serif" font-size="10.00">PowerConsumptionShowcase</text>
</a>
</g>
</g>
<!-- Ipv4NetworkConfigurator -->
<g id="node2" class="node">
<title>Ipv4NetworkConfigurator</title>
<g id="a_node2"><a xlink:href="inet.networklayer.configurator.ipv4.Ipv4NetworkConfigurator.html" xlink:title="Simple Module Ipv4NetworkConfigurator" target="_parent">
<polygon fill="#fffcaf" stroke="black" points="140,-19 0,-19 0,0 140,0 140,-19"/>
<text text-anchor="middle" x="70" y="-7" font-family="Helvetica,sans-Serif" font-size="10.00">Ipv4NetworkConfigurator</text>
</a>
</g>
</g>
<!-- PowerConsumptionShowcase&#45;&gt;Ipv4NetworkConfigurator -->
<g id="edge1" class="edge">
<title>PowerConsumptionShowcase&#45;&gt;Ipv4NetworkConfigurator</title>
<path fill="none" stroke="black" d="M261.37,-54.98C222.09,-45.86 159.63,-31.33 116.81,-21.38"/>
<polygon fill="black" stroke="black" points="117.45,-17.94 106.92,-19.08 115.87,-24.76 117.45,-17.94"/>
</g>
<!-- IntegratedCanvasVisualizer -->
<g id="node3" class="node">
<title>IntegratedCanvasVisualizer</title>
<g id="a_node3"><a xlink:href="inet.visualizer.canvas.integrated.IntegratedCanvasVisualizer.html" xlink:title="Compound Module IntegratedCanvasVisualizer" target="_parent">
<polygon fill="#fffcaf" stroke="black" points="309.5,-19 158.5,-19 158.5,0 309.5,0 309.5,-19"/>
<text text-anchor="middle" x="234" y="-7" font-family="Helvetica,sans-Serif" font-size="10.00">IntegratedCanvasVisualizer</text>
</a>
</g>
</g>
<!-- PowerConsumptionShowcase&#45;&gt;IntegratedCanvasVisualizer -->
<g id="edge2" class="edge">
<title>PowerConsumptionShowcase&#45;&gt;IntegratedCanvasVisualizer</title>
<path fill="none" stroke="black" d="M287.72,-54.98C278.16,-47.07 263.72,-35.11 252.22,-25.58"/>
<polygon fill="black" stroke="black" points="254.4,-22.85 244.47,-19.17 249.94,-28.24 254.4,-22.85"/>
</g>
<!-- AdhocHost -->
<g id="node4" class="node">
<title>AdhocHost</title>
<g id="a_node4"><a xlink:href="inet.node.inet.AdhocHost.html" xlink:title="Compound Module AdhocHost" target="_parent">
<polygon fill="#fffcaf" stroke="black" points="396.5,-19 327.5,-19 327.5,0 396.5,0 396.5,-19"/>
<text text-anchor="middle" x="362" y="-7" font-family="Helvetica,sans-Serif" font-size="10.00">AdhocHost</text>
</a>
</g>
</g>
<!-- PowerConsumptionShowcase&#45;&gt;AdhocHost -->
<g id="edge3" class="edge">
<title>PowerConsumptionShowcase&#45;&gt;AdhocHost</title>
<path fill="none" stroke="black" d="M308.28,-54.98C317.84,-47.07 332.28,-35.11 343.78,-25.58"/>
<polygon fill="black" stroke="black" points="346.06,-28.24 351.53,-19.17 341.6,-22.85 346.06,-28.24"/>
</g>
<!-- Ieee80211ScalarRadioMedium -->
<g id="node5" class="node">
<title>Ieee80211ScalarRadioMedium</title>
<g id="a_node5"><a xlink:href="inet.physicallayer.wireless.ieee80211.packetlevel.Ieee80211ScalarRadioMedium.html" xlink:title="Compound Module Ieee80211ScalarRadioMedium" target="_parent">
<polygon fill="#fffcaf" stroke="black" points="579.5,-19 414.5,-19 414.5,0 579.5,0 579.5,-19"/>
<text text-anchor="middle" x="497" y="-7" font-family="Helvetica,sans-Serif" font-size="10.00">Ieee80211ScalarRadioMedium</text>
</a>
</g>
</g>
<!-- PowerConsumptionShowcase&#45;&gt;Ieee80211ScalarRadioMedium -->
<g id="edge4" class="edge">
<title>PowerConsumptionShowcase&#45;&gt;Ieee80211ScalarRadioMedium</title>
<path fill="none" stroke="black" d="M329.97,-54.98C363.82,-45.97 417.4,-31.7 454.71,-21.76"/>
<polygon fill="black" stroke="black" points="456.01,-25.04 464.78,-19.08 454.21,-18.27 456.01,-25.04"/>
</g>
</g>
</svg>
