<?xml version="1.0" encoding="UTF-8" standalone="no"?>
<!DOCTYPE svg PUBLIC "-//W3C//DTD SVG 1.1//EN"
 "http://www.w3.org/Graphics/SVG/1.1/DTD/svg11.dtd">
<!-- Generated by graphviz version 2.43.0 (0)
 -->
<!-- Title: opp Pages: 1 -->
<svg width="562pt" height="82pt"
 viewBox="0.00 0.00 562.00 82.00" xmlns="http://www.w3.org/2000/svg" xmlns:xlink="http://www.w3.org/1999/xlink">
<g id="graph0" class="graph" transform="scale(1 1) rotate(0) translate(4 78)">
<title>opp</title>
<polygon fill="transparent" stroke="transparent" points="-4,4 -4,-78 558,-78 558,4 -4,4"/>
<!-- IIeee8021dQosClassifier -->
<g id="node1" class="node">
<title>IIeee8021dQosClassifier</title>
<g id="a_node1"><a xlink:href="inet.linklayer.common.IIeee8021dQosClassifier.html" xlink:title="Module Interface IIeee8021dQosClassifier" target="_parent">
<polygon fill="#fff700" stroke="black" stroke-dasharray="5,2" points="367.5,-74 232.5,-74 232.5,-55 367.5,-55 367.5,-74"/>
<text text-anchor="middle" x="300" y="-62" font-family="Helvetica,sans-Serif" font-size="10.00">IIeee8021dQosClassifier</text>
</a>
</g>
</g>
<!-- ExampleQosClassifier -->
<g id="node2" class="node">
<title>ExampleQosClassifier</title>
<g id="a_node2"><a xlink:href="inet.linklayer.common.ExampleQosClassifier.html" xlink:title="Simple Module ExampleQosClassifier" target="_parent">
<polygon fill="#fffcaf" stroke="black" points="124,-19 0,-19 0,0 124,0 124,-19"/>
<text text-anchor="middle" x="62" y="-7" font-family="Helvetica,sans-Serif" font-size="10.00">ExampleQosClassifier</text>
</a>
</g>
</g>
<!-- IIeee8021dQosClassifier&#45;&gt;ExampleQosClassifier -->
<g id="edge1" class="edge">
<title>IIeee8021dQosClassifier&#45;&gt;ExampleQosClassifier</title>
<path fill="none" stroke="black" stroke-dasharray="5,2" d="M261.76,-54.98C217.48,-45.12 144.95,-28.97 100.54,-19.08"/>
</g>
<!-- OmittedIeee8021dQosClassifier -->
<g id="node3" class="node">
<title>OmittedIeee8021dQosClassifier</title>
<g id="a_node3"><a xlink:href="inet.linklayer.common.OmittedIeee8021dQosClassifier.html" xlink:title="Compound Module OmittedIeee8021dQosClassifier" target="_parent">
<polygon fill="#fffcaf" stroke="black" points="314,-19 142,-19 142,0 314,0 314,-19"/>
<text text-anchor="middle" x="228" y="-7" font-family="Helvetica,sans-Serif" font-size="10.00">OmittedIeee8021dQosClassifier</text>
</a>
</g>
</g>
<!-- IIeee8021dQosClassifier&#45;&gt;OmittedIeee8021dQosClassifier -->
<g id="edge2" class="edge">
<title>IIeee8021dQosClassifier&#45;&gt;OmittedIeee8021dQosClassifier</title>
<path fill="none" stroke="black" stroke-dasharray="5,2" d="M288.43,-54.98C275.08,-45.15 253.22,-29.07 239.78,-19.17"/>
</g>
<!-- QosClassifier -->
<g id="node4" class="node">
<title>QosClassifier</title>
<g id="a_node4"><a xlink:href="inet.linklayer.common.QosClassifier.html" xlink:title="Simple Module QosClassifier" target="_parent">
<polygon fill="#fffcaf" stroke="black" points="413.5,-19 332.5,-19 332.5,0 413.5,0 413.5,-19"/>
<text text-anchor="middle" x="373" y="-7" font-family="Helvetica,sans-Serif" font-size="10.00">QosClassifier</text>
</a>
</g>
</g>
<!-- IIeee8021dQosClassifier&#45;&gt;QosClassifier -->
<g id="edge3" class="edge">
<title>IIeee8021dQosClassifier&#45;&gt;QosClassifier</title>
<path fill="none" stroke="black" stroke-dasharray="5,2" d="M311.73,-54.98C325.27,-45.15 347.43,-29.07 361.06,-19.17"/>
</g>
<!-- RandomQosClassifier -->
<g id="node5" class="node">
<title>RandomQosClassifier</title>
<g id="a_node5"><a xlink:href="inet.linklayer.common.RandomQosClassifier.html" xlink:title="Simple Module RandomQosClassifier" target="_parent">
<polygon fill="#fffcaf" stroke="black" points="554,-19 432,-19 432,0 554,0 554,-19"/>
<text text-anchor="middle" x="493" y="-7" font-family="Helvetica,sans-Serif" font-size="10.00">RandomQosClassifier</text>
</a>
</g>
</g>
<!-- IIeee8021dQosClassifier&#45;&gt;RandomQosClassifier -->
<g id="edge4" class="edge">
<title>IIeee8021dQosClassifier&#45;&gt;RandomQosClassifier</title>
<path fill="none" stroke="black" stroke-dasharray="5,2" d="M331.01,-54.98C366.92,-45.12 425.74,-28.97 461.75,-19.08"/>
</g>
</g>
</svg>
