<?xml version="1.0" encoding="UTF-8" standalone="no"?>
<!DOCTYPE svg PUBLIC "-//W3C//DTD SVG 1.1//EN"
 "http://www.w3.org/Graphics/SVG/1.1/DTD/svg11.dtd">
<!-- Generated by graphviz version 2.43.0 (0)
 -->
<!-- Title: opp Pages: 1 -->
<svg width="454pt" height="82pt"
 viewBox="0.00 0.00 454.00 82.00" xmlns="http://www.w3.org/2000/svg" xmlns:xlink="http://www.w3.org/1999/xlink">
<g id="graph0" class="graph" transform="scale(1 1) rotate(0) translate(4 78)">
<title>opp</title>
<polygon fill="transparent" stroke="transparent" points="-4,4 -4,-78 450,-78 450,4 -4,4"/>
<!-- ServerApp -->
<g id="node1" class="node">
<title>ServerApp</title>
<g id="a_node1"><a xlink:href="inet.tutorials.protocol.ServerApp.html" xlink:title="Compound Module ServerApp" target="_parent">
<polygon fill="#fff700" stroke="black" points="251.5,-74 184.5,-74 184.5,-55 251.5,-55 251.5,-74"/>
<text text-anchor="middle" x="218" y="-62" font-family="Helvetica,sans-Serif" font-size="10.00">ServerApp</text>
</a>
</g>
</g>
<!-- IPassivePacketSink -->
<g id="node2" class="node">
<title>IPassivePacketSink</title>
<g id="a_node2"><a xlink:href="inet.queueing.contract.IPassivePacketSink.html" xlink:title="Module Interface IPassivePacketSink" target="_parent">
<polygon fill="#fffcaf" stroke="black" stroke-dasharray="5,2" points="110,-19 0,-19 0,0 110,0 110,-19"/>
<text text-anchor="middle" x="55" y="-7" font-family="Helvetica,sans-Serif" font-size="10.00">IPassivePacketSink</text>
</a>
</g>
</g>
<!-- ServerApp&#45;&gt;IPassivePacketSink -->
<g id="edge1" class="edge">
<title>ServerApp&#45;&gt;IPassivePacketSink</title>
<path fill="none" stroke="black" d="M191.81,-54.98C164.56,-46.13 121.7,-32.19 91.22,-22.28"/>
<polygon fill="black" stroke="black" points="91.99,-18.85 81.39,-19.08 89.82,-25.5 91.99,-18.85"/>
</g>
<!-- IdealChannel -->
<g id="node3" class="node">
<title>IdealChannel</title>
<g id="a_node3"><a xlink:href="ned.IdealChannel.html" xlink:title="Channel IdealChannel" target="_parent">
<polygon fill="#d0ffd0" stroke="black" points="208,-19 128,-19 128,0 208,0 208,-19"/>
<text text-anchor="middle" x="168" y="-7" font-family="Helvetica,sans-Serif" font-size="10.00">IdealChannel</text>
</a>
</g>
</g>
<!-- ServerApp&#45;&gt;IdealChannel -->
<g id="edge2" class="edge">
<title>ServerApp&#45;&gt;IdealChannel</title>
<path fill="none" stroke="black" d="M209.74,-54.75C202.54,-47.11 191.89,-35.82 183.15,-26.56"/>
<polygon fill="black" stroke="black" points="185.51,-23.96 176.1,-19.09 180.42,-28.76 185.51,-23.96"/>
</g>
<!-- ReceiveAtPort -->
<g id="node4" class="node">
<title>ReceiveAtPort</title>
<g id="a_node4"><a xlink:href="inet.protocolelement.selectivity.ReceiveAtPort.html" xlink:title="Simple Module ReceiveAtPort" target="_parent">
<polygon fill="#fffcaf" stroke="black" points="312,-19 226,-19 226,0 312,0 312,-19"/>
<text text-anchor="middle" x="269" y="-7" font-family="Helvetica,sans-Serif" font-size="10.00">ReceiveAtPort</text>
</a>
</g>
</g>
<!-- ServerApp&#45;&gt;ReceiveAtPort -->
<g id="edge3" class="edge">
<title>ServerApp&#45;&gt;ReceiveAtPort</title>
<path fill="none" stroke="black" d="M226.42,-54.75C233.77,-47.11 244.63,-35.82 253.54,-26.56"/>
<polygon fill="black" stroke="black" points="256.32,-28.72 260.74,-19.09 251.28,-23.87 256.32,-28.72"/>
</g>
<!-- ReceiveAtL3Address -->
<g id="node5" class="node">
<title>ReceiveAtL3Address</title>
<g id="a_node5"><a xlink:href="inet.protocolelement.selectivity.ReceiveAtL3Address.html" xlink:title="Simple Module ReceiveAtL3Address" target="_parent">
<polygon fill="#fffcaf" stroke="black" points="446,-19 330,-19 330,0 446,0 446,-19"/>
<text text-anchor="middle" x="388" y="-7" font-family="Helvetica,sans-Serif" font-size="10.00">ReceiveAtL3Address</text>
</a>
</g>
</g>
<!-- ServerApp&#45;&gt;ReceiveAtL3Address -->
<g id="edge4" class="edge">
<title>ServerApp&#45;&gt;ReceiveAtL3Address</title>
<path fill="none" stroke="black" d="M245.31,-54.98C273.85,-46.09 318.83,-32.07 350.64,-22.15"/>
<polygon fill="black" stroke="black" points="351.97,-25.4 360.47,-19.08 349.88,-18.72 351.97,-25.4"/>
</g>
</g>
</svg>
