<?xml version="1.0" encoding="UTF-8" standalone="no"?>
<!DOCTYPE svg PUBLIC "-//W3C//DTD SVG 1.1//EN"
 "http://www.w3.org/Graphics/SVG/1.1/DTD/svg11.dtd">
<!-- Generated by graphviz version 2.43.0 (0)
 -->
<!-- Title: opp Pages: 1 -->
<svg width="507pt" height="82pt"
 viewBox="0.00 0.00 507.00 82.00" xmlns="http://www.w3.org/2000/svg" xmlns:xlink="http://www.w3.org/1999/xlink">
<g id="graph0" class="graph" transform="scale(1 1) rotate(0) translate(4 78)">
<title>opp</title>
<polygon fill="transparent" stroke="transparent" points="-4,4 -4,-78 503,-78 503,4 -4,4"/>
<!-- Network -->
<g id="node1" class="node">
<title>Network</title>
<g id="a_node1"><a xlink:href="inet.examples.inet.igmp.Network.html" xlink:title="Network Network" target="_parent">
<polygon fill="#9090ff" stroke="black" points="272.5,-74 214.5,-74 214.5,-55 272.5,-55 272.5,-74"/>
<text text-anchor="middle" x="243.5" y="-62" font-family="Helvetica,sans-Serif" font-size="10.00">Network</text>
</a>
</g>
</g>
<!-- StandardHost -->
<g id="node2" class="node">
<title>StandardHost</title>
<g id="a_node2"><a xlink:href="inet.node.inet.StandardHost.html" xlink:title="Compound Module StandardHost" target="_parent">
<polygon fill="#fffcaf" stroke="black" points="83,-19 0,-19 0,0 83,0 83,-19"/>
<text text-anchor="middle" x="41.5" y="-7" font-family="Helvetica,sans-Serif" font-size="10.00">StandardHost</text>
</a>
</g>
</g>
<!-- Network&#45;&gt;StandardHost -->
<g id="edge1" class="edge">
<title>Network&#45;&gt;StandardHost</title>
<path fill="none" stroke="black" d="M214.13,-55.79C179.88,-46.81 122.98,-31.88 83.93,-21.63"/>
<polygon fill="black" stroke="black" points="84.48,-18.16 73.92,-19.01 82.7,-24.93 84.48,-18.16"/>
</g>
<!-- Router -->
<g id="node3" class="node">
<title>Router</title>
<g id="a_node3"><a xlink:href="inet.node.inet.Router.html" xlink:title="Compound Module Router" target="_parent">
<polygon fill="#fffcaf" stroke="black" points="155.5,-19 101.5,-19 101.5,0 155.5,0 155.5,-19"/>
<text text-anchor="middle" x="128.5" y="-7" font-family="Helvetica,sans-Serif" font-size="10.00">Router</text>
</a>
</g>
</g>
<!-- Network&#45;&gt;Router -->
<g id="edge2" class="edge">
<title>Network&#45;&gt;Router</title>
<path fill="none" stroke="black" d="M225.02,-54.98C206.52,-46.46 177.82,-33.23 156.52,-23.41"/>
<polygon fill="black" stroke="black" points="157.86,-20.18 147.31,-19.17 154.93,-26.53 157.86,-20.18"/>
</g>
<!-- Ipv4NetworkConfigurator -->
<g id="node4" class="node">
<title>Ipv4NetworkConfigurator</title>
<g id="a_node4"><a xlink:href="inet.networklayer.configurator.ipv4.Ipv4NetworkConfigurator.html" xlink:title="Simple Module Ipv4NetworkConfigurator" target="_parent">
<polygon fill="#fffcaf" stroke="black" points="313.5,-19 173.5,-19 173.5,0 313.5,0 313.5,-19"/>
<text text-anchor="middle" x="243.5" y="-7" font-family="Helvetica,sans-Serif" font-size="10.00">Ipv4NetworkConfigurator</text>
</a>
</g>
</g>
<!-- Network&#45;&gt;Ipv4NetworkConfigurator -->
<g id="edge3" class="edge">
<title>Network&#45;&gt;Ipv4NetworkConfigurator</title>
<path fill="none" stroke="black" d="M243.5,-54.75C243.5,-47.8 243.5,-37.85 243.5,-29.13"/>
<polygon fill="black" stroke="black" points="247,-29.09 243.5,-19.09 240,-29.09 247,-29.09"/>
</g>
<!-- EthernetSwitch -->
<g id="node5" class="node">
<title>EthernetSwitch</title>
<g id="a_node5"><a xlink:href="inet.node.ethernet.EthernetSwitch.html" xlink:title="Compound Module EthernetSwitch" target="_parent">
<polygon fill="#fffcaf" stroke="black" points="421.5,-19 331.5,-19 331.5,0 421.5,0 421.5,-19"/>
<text text-anchor="middle" x="376.5" y="-7" font-family="Helvetica,sans-Serif" font-size="10.00">EthernetSwitch</text>
</a>
</g>
</g>
<!-- Network&#45;&gt;EthernetSwitch -->
<g id="edge4" class="edge">
<title>Network&#45;&gt;EthernetSwitch</title>
<path fill="none" stroke="black" d="M264.87,-54.98C286.65,-46.3 320.66,-32.75 345.42,-22.88"/>
<polygon fill="black" stroke="black" points="346.75,-26.12 354.74,-19.17 344.16,-19.62 346.75,-26.12"/>
</g>
<!-- Eth100M -->
<g id="node6" class="node">
<title>Eth100M</title>
<g id="a_node6"><a xlink:href="inet.node.ethernet.Eth100M.html" xlink:title="Channel Eth100M" target="_parent">
<polygon fill="#d0ffd0" stroke="black" points="499,-19 440,-19 440,0 499,0 499,-19"/>
<text text-anchor="middle" x="469.5" y="-7" font-family="Helvetica,sans-Serif" font-size="10.00">Eth100M</text>
</a>
</g>
</g>
<!-- Network&#45;&gt;Eth100M -->
<g id="edge5" class="edge">
<title>Network&#45;&gt;Eth100M</title>
<path fill="none" stroke="black" d="M272.58,-56.68C312.62,-47.29 384.86,-30.35 429.83,-19.8"/>
<polygon fill="black" stroke="black" points="430.87,-23.15 439.81,-17.46 429.28,-16.34 430.87,-23.15"/>
</g>
</g>
</svg>
