<?xml version="1.0" encoding="UTF-8" standalone="no"?>
<!DOCTYPE svg PUBLIC "-//W3C//DTD SVG 1.1//EN"
 "http://www.w3.org/Graphics/SVG/1.1/DTD/svg11.dtd">
<!-- Generated by graphviz version 2.43.0 (0)
 -->
<!-- Title: opp Pages: 1 -->
<svg width="403pt" height="137pt"
 viewBox="0.00 0.00 402.50 137.00" xmlns="http://www.w3.org/2000/svg" xmlns:xlink="http://www.w3.org/1999/xlink">
<g id="graph0" class="graph" transform="scale(1 1) rotate(0) translate(4 133)">
<title>opp</title>
<polygon fill="transparent" stroke="transparent" points="-4,4 -4,-133 398.5,-133 398.5,4 -4,4"/>
<!-- EthernetCutthroughLayer -->
<g id="node1" class="node">
<title>EthernetCutthroughLayer</title>
<g id="a_node1"><a xlink:href="inet.linklayer.ethernet.modular.EthernetCutthroughLayer.html" xlink:title="Compound Module EthernetCutthroughLayer" target="_parent">
<polygon fill="#fff700" stroke="black" points="234.5,-74 95.5,-74 95.5,-55 234.5,-55 234.5,-74"/>
<text text-anchor="middle" x="165" y="-62" font-family="Helvetica,sans-Serif" font-size="10.00">EthernetCutthroughLayer</text>
</a>
</g>
</g>
<!-- IdealChannel -->
<g id="node2" class="node">
<title>IdealChannel</title>
<g id="a_node2"><a xlink:href="ned.IdealChannel.html" xlink:title="Channel IdealChannel" target="_parent">
<polygon fill="#d0ffd0" stroke="black" points="80,-19 0,-19 0,0 80,0 80,-19"/>
<text text-anchor="middle" x="40" y="-7" font-family="Helvetica,sans-Serif" font-size="10.00">IdealChannel</text>
</a>
</g>
</g>
<!-- EthernetCutthroughLayer&#45;&gt;IdealChannel -->
<g id="edge1" class="edge">
<title>EthernetCutthroughLayer&#45;&gt;IdealChannel</title>
<path fill="none" stroke="black" d="M144.92,-54.98C124.63,-46.38 93.04,-32.99 69.83,-23.15"/>
<polygon fill="black" stroke="black" points="71.02,-19.85 60.45,-19.17 68.29,-26.3 71.02,-19.85"/>
</g>
<!-- EthernetCutthroughSink -->
<g id="node3" class="node">
<title>EthernetCutthroughSink</title>
<g id="a_node3"><a xlink:href="inet.linklayer.ethernet.modular.EthernetCutthroughSink.html" xlink:title="Simple Module EthernetCutthroughSink" target="_parent">
<polygon fill="#fffcaf" stroke="black" points="231.5,-19 98.5,-19 98.5,0 231.5,0 231.5,-19"/>
<text text-anchor="middle" x="165" y="-7" font-family="Helvetica,sans-Serif" font-size="10.00">EthernetCutthroughSink</text>
</a>
</g>
</g>
<!-- EthernetCutthroughLayer&#45;&gt;EthernetCutthroughSink -->
<g id="edge2" class="edge">
<title>EthernetCutthroughLayer&#45;&gt;EthernetCutthroughSink</title>
<path fill="none" stroke="black" d="M165,-54.75C165,-47.8 165,-37.85 165,-29.13"/>
<polygon fill="black" stroke="black" points="168.5,-29.09 165,-19.09 161.5,-29.09 168.5,-29.09"/>
</g>
<!-- EthernetCutthroughSource -->
<g id="node4" class="node">
<title>EthernetCutthroughSource</title>
<g id="a_node4"><a xlink:href="inet.linklayer.ethernet.modular.EthernetCutthroughSource.html" xlink:title="Simple Module EthernetCutthroughSource" target="_parent">
<polygon fill="#fffcaf" stroke="black" points="394.5,-19 249.5,-19 249.5,0 394.5,0 394.5,-19"/>
<text text-anchor="middle" x="322" y="-7" font-family="Helvetica,sans-Serif" font-size="10.00">EthernetCutthroughSource</text>
</a>
</g>
</g>
<!-- EthernetCutthroughLayer&#45;&gt;EthernetCutthroughSource -->
<g id="edge3" class="edge">
<title>EthernetCutthroughLayer&#45;&gt;EthernetCutthroughSource</title>
<path fill="none" stroke="black" d="M190.22,-54.98C216.36,-46.16 257.4,-32.31 286.73,-22.41"/>
<polygon fill="black" stroke="black" points="288.22,-25.6 296.58,-19.08 285.98,-18.96 288.22,-25.6"/>
</g>
<!-- EthernetCutthroughInterface -->
<g id="node5" class="node">
<title>EthernetCutthroughInterface</title>
<g id="a_node5"><a xlink:href="inet.linklayer.ethernet.modular.EthernetCutthroughInterface.html" xlink:title="Compound Module EthernetCutthroughInterface" target="_parent">
<polygon fill="#fffcaf" stroke="black" points="242.5,-129 87.5,-129 87.5,-110 242.5,-110 242.5,-129"/>
<text text-anchor="middle" x="165" y="-117" font-family="Helvetica,sans-Serif" font-size="10.00">EthernetCutthroughInterface</text>
</a>
</g>
</g>
<!-- EthernetCutthroughInterface&#45;&gt;EthernetCutthroughLayer -->
<g id="edge4" class="edge">
<title>EthernetCutthroughInterface&#45;&gt;EthernetCutthroughLayer</title>
<path fill="none" stroke="black" d="M165,-109.75C165,-102.8 165,-92.85 165,-84.13"/>
<polygon fill="black" stroke="black" points="168.5,-84.09 165,-74.09 161.5,-84.09 168.5,-84.09"/>
</g>
</g>
</svg>
