<?xml version="1.0" encoding="UTF-8" standalone="no"?>
<!DOCTYPE svg PUBLIC "-//W3C//DTD SVG 1.1//EN"
 "http://www.w3.org/Graphics/SVG/1.1/DTD/svg11.dtd">
<!-- Generated by graphviz version 2.43.0 (0)
 -->
<!-- Title: opp Pages: 1 -->
<svg width="540pt" height="82pt"
 viewBox="0.00 0.00 539.50 82.00" xmlns="http://www.w3.org/2000/svg" xmlns:xlink="http://www.w3.org/1999/xlink">
<g id="graph0" class="graph" transform="scale(1 1) rotate(0) translate(4 78)">
<title>opp</title>
<polygon fill="transparent" stroke="transparent" points="-4,4 -4,-78 535.5,-78 535.5,4 -4,4"/>
<!-- UdpApp -->
<g id="node1" class="node">
<title>UdpApp</title>
<g id="a_node1"><a xlink:href="inet.applications.udpapp.UdpApp.html" xlink:title="Compound Module UdpApp" target="_parent">
<polygon fill="#fff700" stroke="black" points="291.5,-74 236.5,-74 236.5,-55 291.5,-55 291.5,-74"/>
<text text-anchor="middle" x="264" y="-62" font-family="Helvetica,sans-Serif" font-size="10.00">UdpApp</text>
</a>
</g>
</g>
<!-- IPassivePacketSink -->
<g id="node2" class="node">
<title>IPassivePacketSink</title>
<g id="a_node2"><a xlink:href="inet.queueing.contract.IPassivePacketSink.html" xlink:title="Module Interface IPassivePacketSink" target="_parent">
<polygon fill="#fffcaf" stroke="black" stroke-dasharray="5,2" points="110,-19 0,-19 0,0 110,0 110,-19"/>
<text text-anchor="middle" x="55" y="-7" font-family="Helvetica,sans-Serif" font-size="10.00">IPassivePacketSink</text>
</a>
</g>
</g>
<!-- UdpApp&#45;&gt;IPassivePacketSink -->
<g id="edge1" class="edge">
<title>UdpApp&#45;&gt;IPassivePacketSink</title>
<path fill="none" stroke="black" d="M236.25,-56.46C201.06,-47.54 140.01,-32.06 98.58,-21.55"/>
<polygon fill="black" stroke="black" points="99.31,-18.13 88.76,-19.06 97.59,-24.91 99.31,-18.13"/>
</g>
<!-- UdpSocketIo -->
<g id="node3" class="node">
<title>UdpSocketIo</title>
<g id="a_node3"><a xlink:href="inet.applications.udpapp.UdpSocketIo.html" xlink:title="Simple Module UdpSocketIo" target="_parent">
<polygon fill="#fffcaf" stroke="black" points="205.5,-19 128.5,-19 128.5,0 205.5,0 205.5,-19"/>
<text text-anchor="middle" x="167" y="-7" font-family="Helvetica,sans-Serif" font-size="10.00">UdpSocketIo</text>
</a>
</g>
</g>
<!-- UdpApp&#45;&gt;UdpSocketIo -->
<g id="edge2" class="edge">
<title>UdpApp&#45;&gt;UdpSocketIo</title>
<path fill="none" stroke="black" d="M248.42,-54.98C233.23,-46.69 209.9,-33.94 192.1,-24.22"/>
<polygon fill="black" stroke="black" points="193.32,-20.89 182.87,-19.17 189.97,-27.04 193.32,-20.89"/>
</g>
<!-- IdealChannel -->
<g id="node4" class="node">
<title>IdealChannel</title>
<g id="a_node4"><a xlink:href="ned.IdealChannel.html" xlink:title="Channel IdealChannel" target="_parent">
<polygon fill="#d0ffd0" stroke="black" points="304,-19 224,-19 224,0 304,0 304,-19"/>
<text text-anchor="middle" x="264" y="-7" font-family="Helvetica,sans-Serif" font-size="10.00">IdealChannel</text>
</a>
</g>
</g>
<!-- UdpApp&#45;&gt;IdealChannel -->
<g id="edge3" class="edge">
<title>UdpApp&#45;&gt;IdealChannel</title>
<path fill="none" stroke="black" d="M264,-54.75C264,-47.8 264,-37.85 264,-29.13"/>
<polygon fill="black" stroke="black" points="267.5,-29.09 264,-19.09 260.5,-29.09 267.5,-29.09"/>
</g>
<!-- IActivePacketSource -->
<g id="node5" class="node">
<title>IActivePacketSource</title>
<g id="a_node5"><a xlink:href="inet.queueing.contract.IActivePacketSource.html" xlink:title="Module Interface IActivePacketSource" target="_parent">
<polygon fill="#fffcaf" stroke="black" stroke-dasharray="5,2" points="438,-19 322,-19 322,0 438,0 438,-19"/>
<text text-anchor="middle" x="380" y="-7" font-family="Helvetica,sans-Serif" font-size="10.00">IActivePacketSource</text>
</a>
</g>
</g>
<!-- UdpApp&#45;&gt;IActivePacketSource -->
<g id="edge4" class="edge">
<title>UdpApp&#45;&gt;IActivePacketSource</title>
<path fill="none" stroke="black" d="M282.64,-54.98C301.3,-46.46 330.25,-33.23 351.74,-23.41"/>
<polygon fill="black" stroke="black" points="353.38,-26.51 361.02,-19.17 350.47,-20.14 353.38,-26.51"/>
</g>
<!-- IPacketFlow -->
<g id="node6" class="node">
<title>IPacketFlow</title>
<g id="a_node6"><a xlink:href="inet.queueing.contract.IPacketFlow.html" xlink:title="Module Interface IPacketFlow" target="_parent">
<polygon fill="#fffcaf" stroke="black" stroke-dasharray="5,2" points="531.5,-19 456.5,-19 456.5,0 531.5,0 531.5,-19"/>
<text text-anchor="middle" x="494" y="-7" font-family="Helvetica,sans-Serif" font-size="10.00">IPacketFlow</text>
</a>
</g>
</g>
<!-- UdpApp&#45;&gt;IPacketFlow -->
<g id="edge5" class="edge">
<title>UdpApp&#45;&gt;IPacketFlow</title>
<path fill="none" stroke="black" d="M291.74,-57.11C330.26,-48.23 400.45,-32.06 447.16,-21.29"/>
<polygon fill="black" stroke="black" points="448.08,-24.67 457.04,-19.02 446.51,-17.85 448.08,-24.67"/>
</g>
</g>
</svg>
