<?xml version="1.0" encoding="UTF-8" standalone="no"?>
<!DOCTYPE svg PUBLIC "-//W3C//DTD SVG 1.1//EN"
 "http://www.w3.org/Graphics/SVG/1.1/DTD/svg11.dtd">
<!-- Generated by graphviz version 2.43.0 (0)
 -->
<!-- Title: opp Pages: 1 -->
<svg width="387pt" height="82pt"
 viewBox="0.00 0.00 387.00 82.00" xmlns="http://www.w3.org/2000/svg" xmlns:xlink="http://www.w3.org/1999/xlink">
<g id="graph0" class="graph" transform="scale(1 1) rotate(0) translate(4 78)">
<title>opp</title>
<polygon fill="transparent" stroke="transparent" points="-4,4 -4,-78 383,-78 383,4 -4,4"/>
<!-- PppInterface -->
<g id="node1" class="node">
<title>PppInterface</title>
<g id="a_node1"><a xlink:href="inet.linklayer.ppp.PppInterface.html" xlink:title="Compound Module PppInterface" target="_parent">
<polygon fill="#fff700" stroke="black" points="235,-74 157,-74 157,-55 235,-55 235,-74"/>
<text text-anchor="middle" x="196" y="-62" font-family="Helvetica,sans-Serif" font-size="10.00">PppInterface</text>
</a>
</g>
</g>
<!-- IdealChannel -->
<g id="node2" class="node">
<title>IdealChannel</title>
<g id="a_node2"><a xlink:href="ned.IdealChannel.html" xlink:title="Channel IdealChannel" target="_parent">
<polygon fill="#d0ffd0" stroke="black" points="80,-19 0,-19 0,0 80,0 80,-19"/>
<text text-anchor="middle" x="40" y="-7" font-family="Helvetica,sans-Serif" font-size="10.00">IdealChannel</text>
</a>
</g>
</g>
<!-- PppInterface&#45;&gt;IdealChannel -->
<g id="edge1" class="edge">
<title>PppInterface&#45;&gt;IdealChannel</title>
<path fill="none" stroke="black" d="M170.94,-54.98C144.97,-46.16 104.19,-32.31 75.04,-22.41"/>
<polygon fill="black" stroke="black" points="75.85,-18.99 65.26,-19.08 73.6,-25.61 75.85,-18.99"/>
</g>
<!-- IPacketQueue -->
<g id="node3" class="node">
<title>IPacketQueue</title>
<g id="a_node3"><a xlink:href="inet.queueing.contract.IPacketQueue.html" xlink:title="Module Interface IPacketQueue" target="_parent">
<polygon fill="#fffcaf" stroke="black" stroke-dasharray="5,2" points="181.5,-19 98.5,-19 98.5,0 181.5,0 181.5,-19"/>
<text text-anchor="middle" x="140" y="-7" font-family="Helvetica,sans-Serif" font-size="10.00">IPacketQueue</text>
</a>
</g>
</g>
<!-- PppInterface&#45;&gt;IPacketQueue -->
<g id="edge2" class="edge">
<title>PppInterface&#45;&gt;IPacketQueue</title>
<path fill="none" stroke="black" d="M187,-54.98C178.81,-47.23 166.49,-35.58 156.53,-26.14"/>
<polygon fill="black" stroke="black" points="158.83,-23.5 149.16,-19.17 154.02,-28.59 158.83,-23.5"/>
</g>
<!-- ITrafficConditioner -->
<g id="node4" class="node">
<title>ITrafficConditioner</title>
<g id="a_node4"><a xlink:href="inet.queueing.contract.ITrafficConditioner.html" xlink:title="Module Interface ITrafficConditioner" target="_parent">
<polygon fill="#fffcaf" stroke="black" stroke-dasharray="5,2" points="306.5,-19 199.5,-19 199.5,0 306.5,0 306.5,-19"/>
<text text-anchor="middle" x="253" y="-7" font-family="Helvetica,sans-Serif" font-size="10.00">ITrafficConditioner</text>
</a>
</g>
</g>
<!-- PppInterface&#45;&gt;ITrafficConditioner -->
<g id="edge3" class="edge">
<title>PppInterface&#45;&gt;ITrafficConditioner</title>
<path fill="none" stroke="black" d="M205.16,-54.98C213.5,-47.23 226.03,-35.58 236.18,-26.14"/>
<polygon fill="black" stroke="black" points="238.74,-28.54 243.68,-19.17 233.97,-23.42 238.74,-28.54"/>
</g>
<!-- Ppp -->
<g id="node5" class="node">
<title>Ppp</title>
<g id="a_node5"><a xlink:href="inet.linklayer.ppp.Ppp.html" xlink:title="Simple Module Ppp" target="_parent">
<polygon fill="#fffcaf" stroke="black" points="379,-19 325,-19 325,0 379,0 379,-19"/>
<text text-anchor="middle" x="352" y="-7" font-family="Helvetica,sans-Serif" font-size="10.00">Ppp</text>
</a>
</g>
</g>
<!-- PppInterface&#45;&gt;Ppp -->
<g id="edge4" class="edge">
<title>PppInterface&#45;&gt;Ppp</title>
<path fill="none" stroke="black" d="M221.06,-54.98C247.03,-46.16 287.81,-32.31 316.96,-22.41"/>
<polygon fill="black" stroke="black" points="318.4,-25.61 326.74,-19.08 316.15,-18.99 318.4,-25.61"/>
</g>
</g>
</svg>
