<?xml version="1.0" encoding="UTF-8" standalone="no"?>
<!DOCTYPE svg PUBLIC "-//W3C//DTD SVG 1.1//EN"
 "http://www.w3.org/Graphics/SVG/1.1/DTD/svg11.dtd">
<!-- Generated by graphviz version 2.43.0 (0)
 -->
<!-- Title: opp Pages: 1 -->
<svg width="738pt" height="82pt"
 viewBox="0.00 0.00 738.00 82.00" xmlns="http://www.w3.org/2000/svg" xmlns:xlink="http://www.w3.org/1999/xlink">
<g id="graph0" class="graph" transform="scale(1 1) rotate(0) translate(4 78)">
<title>opp</title>
<polygon fill="transparent" stroke="transparent" points="-4,4 -4,-78 734,-78 734,4 -4,4"/>
<!-- IRTPPayloadReceiver -->
<g id="node1" class="node">
<title>IRTPPayloadReceiver</title>
<g id="a_node1"><a xlink:href="inet.transportlayer.rtp.IRTPPayloadReceiver.html" xlink:title="Module Interface IRTPPayloadReceiver" target="_parent">
<polygon fill="#fff700" stroke="black" stroke-dasharray="5,2" points="442.5,-74 322.5,-74 322.5,-55 442.5,-55 442.5,-74"/>
<text text-anchor="middle" x="382.5" y="-62" font-family="Helvetica,sans-Serif" font-size="10.00">IRTPPayloadReceiver</text>
</a>
</g>
</g>
<!-- RTPAVProfilePayload10Receiver -->
<g id="node2" class="node">
<title>RTPAVProfilePayload10Receiver</title>
<g id="a_node2"><a xlink:href="inet.transportlayer.rtp.RTPAVProfilePayload10Receiver.html" xlink:title="Simple Module RTPAVProfilePayload10Receiver" target="_parent">
<polygon fill="#fffcaf" stroke="black" points="173,-19 0,-19 0,0 173,0 173,-19"/>
<text text-anchor="middle" x="86.5" y="-7" font-family="Helvetica,sans-Serif" font-size="10.00">RTPAVProfilePayload10Receiver</text>
</a>
</g>
</g>
<!-- IRTPPayloadReceiver&#45;&gt;RTPAVProfilePayload10Receiver -->
<g id="edge1" class="edge">
<title>IRTPPayloadReceiver&#45;&gt;RTPAVProfilePayload10Receiver</title>
<path fill="none" stroke="black" stroke-dasharray="5,2" d="M334.94,-54.98C279.87,-45.12 189.66,-28.97 134.43,-19.08"/>
</g>
<!-- RtpAvProfilePayload32Receiver -->
<g id="node3" class="node">
<title>RtpAvProfilePayload32Receiver</title>
<g id="a_node3"><a xlink:href="inet.transportlayer.rtp.RtpAvProfilePayload32Receiver.html" xlink:title="Simple Module RtpAvProfilePayload32Receiver" target="_parent">
<polygon fill="#fffcaf" stroke="black" points="361.5,-19 191.5,-19 191.5,0 361.5,0 361.5,-19"/>
<text text-anchor="middle" x="276.5" y="-7" font-family="Helvetica,sans-Serif" font-size="10.00">RtpAvProfilePayload32Receiver</text>
</a>
</g>
</g>
<!-- IRTPPayloadReceiver&#45;&gt;RtpAvProfilePayload32Receiver -->
<g id="edge2" class="edge">
<title>IRTPPayloadReceiver&#45;&gt;RtpAvProfilePayload32Receiver</title>
<path fill="none" stroke="black" stroke-dasharray="5,2" d="M365.47,-54.98C345.81,-45.15 313.63,-29.07 293.84,-19.17"/>
</g>
<!-- RTPAVProfileSampleBasedAudioReceiver -->
<g id="node4" class="node">
<title>RTPAVProfileSampleBasedAudioReceiver</title>
<g id="a_node4"><a xlink:href="inet.transportlayer.rtp.RTPAVProfileSampleBasedAudioReceiver.html" xlink:title="Simple Module RTPAVProfileSampleBasedAudioReceiver" target="_parent">
<polygon fill="#fffcaf" stroke="black" points="597,-19 380,-19 380,0 597,0 597,-19"/>
<text text-anchor="middle" x="488.5" y="-7" font-family="Helvetica,sans-Serif" font-size="10.00">RTPAVProfileSampleBasedAudioReceiver</text>
</a>
</g>
</g>
<!-- IRTPPayloadReceiver&#45;&gt;RTPAVProfileSampleBasedAudioReceiver -->
<g id="edge3" class="edge">
<title>IRTPPayloadReceiver&#45;&gt;RTPAVProfileSampleBasedAudioReceiver</title>
<path fill="none" stroke="black" stroke-dasharray="5,2" d="M399.53,-54.98C419.19,-45.15 451.37,-29.07 471.16,-19.17"/>
</g>
<!-- RtpPayloadReceiver -->
<g id="node5" class="node">
<title>RtpPayloadReceiver</title>
<g id="a_node5"><a xlink:href="inet.transportlayer.rtp.RtpPayloadReceiver.html" xlink:title="Simple Module RtpPayloadReceiver" target="_parent">
<polygon fill="#fffcaf" stroke="black" points="730,-19 615,-19 615,0 730,0 730,-19"/>
<text text-anchor="middle" x="672.5" y="-7" font-family="Helvetica,sans-Serif" font-size="10.00">RtpPayloadReceiver</text>
</a>
</g>
</g>
<!-- IRTPPayloadReceiver&#45;&gt;RtpPayloadReceiver -->
<g id="edge4" class="edge">
<title>IRTPPayloadReceiver&#45;&gt;RtpPayloadReceiver</title>
<path fill="none" stroke="black" stroke-dasharray="5,2" d="M429.09,-54.98C483.05,-45.12 571.43,-28.97 625.54,-19.08"/>
</g>
</g>
</svg>
