<?xml version="1.0" encoding="UTF-8" standalone="no"?>
<!DOCTYPE svg PUBLIC "-//W3C//DTD SVG 1.1//EN"
 "http://www.w3.org/Graphics/SVG/1.1/DTD/svg11.dtd">
<!-- Generated by graphviz version 2.43.0 (0)
 -->
<!-- Title: opp Pages: 1 -->
<svg width="532pt" height="82pt"
 viewBox="0.00 0.00 532.00 82.00" xmlns="http://www.w3.org/2000/svg" xmlns:xlink="http://www.w3.org/1999/xlink">
<g id="graph0" class="graph" transform="scale(1 1) rotate(0) translate(4 78)">
<title>opp</title>
<polygon fill="transparent" stroke="transparent" points="-4,4 -4,-78 528,-78 528,4 -4,4"/>
<!-- RoutingTableVisualizationDisplayingAllShowcase -->
<g id="node1" class="node">
<title>RoutingTableVisualizationDisplayingAllShowcase</title>
<g id="a_node1"><a xlink:href="inet.showcases.visualizer.canvas.routingtable.RoutingTableVisualizationDisplayingAllShowcase.html" xlink:title="Network RoutingTableVisualizationDisplayingAllShowcase" target="_parent">
<polygon fill="#9090ff" stroke="black" points="371.5,-74 115.5,-74 115.5,-55 371.5,-55 371.5,-74"/>
<text text-anchor="middle" x="243.5" y="-62" font-family="Helvetica,sans-Serif" font-size="10.00">RoutingTableVisualizationDisplayingAllShowcase</text>
</a>
</g>
</g>
<!-- StandardHost -->
<g id="node2" class="node">
<title>StandardHost</title>
<g id="a_node2"><a xlink:href="inet.node.inet.StandardHost.html" xlink:title="Compound Module StandardHost" target="_parent">
<polygon fill="#fffcaf" stroke="black" points="83,-19 0,-19 0,0 83,0 83,-19"/>
<text text-anchor="middle" x="41.5" y="-7" font-family="Helvetica,sans-Serif" font-size="10.00">StandardHost</text>
</a>
</g>
</g>
<!-- RoutingTableVisualizationDisplayingAllShowcase&#45;&gt;StandardHost -->
<g id="edge1" class="edge">
<title>RoutingTableVisualizationDisplayingAllShowcase&#45;&gt;StandardHost</title>
<path fill="none" stroke="black" d="M211.05,-54.98C176.54,-45.93 121.84,-31.58 83.94,-21.64"/>
<polygon fill="black" stroke="black" points="84.77,-18.23 74.21,-19.08 82.99,-25.01 84.77,-18.23"/>
</g>
<!-- Router -->
<g id="node3" class="node">
<title>Router</title>
<g id="a_node3"><a xlink:href="inet.node.inet.Router.html" xlink:title="Compound Module Router" target="_parent">
<polygon fill="#fffcaf" stroke="black" points="155.5,-19 101.5,-19 101.5,0 155.5,0 155.5,-19"/>
<text text-anchor="middle" x="128.5" y="-7" font-family="Helvetica,sans-Serif" font-size="10.00">Router</text>
</a>
</g>
</g>
<!-- RoutingTableVisualizationDisplayingAllShowcase&#45;&gt;Router -->
<g id="edge2" class="edge">
<title>RoutingTableVisualizationDisplayingAllShowcase&#45;&gt;Router</title>
<path fill="none" stroke="black" d="M225.02,-54.98C206.52,-46.46 177.82,-33.23 156.52,-23.41"/>
<polygon fill="black" stroke="black" points="157.86,-20.18 147.31,-19.17 154.93,-26.53 157.86,-20.18"/>
</g>
<!-- Ipv4NetworkConfigurator -->
<g id="node4" class="node">
<title>Ipv4NetworkConfigurator</title>
<g id="a_node4"><a xlink:href="inet.networklayer.configurator.ipv4.Ipv4NetworkConfigurator.html" xlink:title="Simple Module Ipv4NetworkConfigurator" target="_parent">
<polygon fill="#fffcaf" stroke="black" points="313.5,-19 173.5,-19 173.5,0 313.5,0 313.5,-19"/>
<text text-anchor="middle" x="243.5" y="-7" font-family="Helvetica,sans-Serif" font-size="10.00">Ipv4NetworkConfigurator</text>
</a>
</g>
</g>
<!-- RoutingTableVisualizationDisplayingAllShowcase&#45;&gt;Ipv4NetworkConfigurator -->
<g id="edge3" class="edge">
<title>RoutingTableVisualizationDisplayingAllShowcase&#45;&gt;Ipv4NetworkConfigurator</title>
<path fill="none" stroke="black" d="M243.5,-54.75C243.5,-47.8 243.5,-37.85 243.5,-29.13"/>
<polygon fill="black" stroke="black" points="247,-29.09 243.5,-19.09 240,-29.09 247,-29.09"/>
</g>
<!-- IntegratedVisualizer -->
<g id="node5" class="node">
<title>IntegratedVisualizer</title>
<g id="a_node5"><a xlink:href="inet.visualizer.common.IntegratedVisualizer.html" xlink:title="Compound Module IntegratedVisualizer" target="_parent">
<polygon fill="#fffcaf" stroke="black" points="447,-19 332,-19 332,0 447,0 447,-19"/>
<text text-anchor="middle" x="389.5" y="-7" font-family="Helvetica,sans-Serif" font-size="10.00">IntegratedVisualizer</text>
</a>
</g>
</g>
<!-- RoutingTableVisualizationDisplayingAllShowcase&#45;&gt;IntegratedVisualizer -->
<g id="edge4" class="edge">
<title>RoutingTableVisualizationDisplayingAllShowcase&#45;&gt;IntegratedVisualizer</title>
<path fill="none" stroke="black" d="M266.96,-54.98C291.08,-46.23 328.87,-32.51 356.1,-22.62"/>
<polygon fill="black" stroke="black" points="357.41,-25.87 365.62,-19.17 355.02,-19.29 357.41,-25.87"/>
</g>
<!-- Eth100M -->
<g id="node6" class="node">
<title>Eth100M</title>
<g id="a_node6"><a xlink:href="inet.node.ethernet.Eth100M.html" xlink:title="Channel Eth100M" target="_parent">
<polygon fill="#d0ffd0" stroke="black" points="524,-19 465,-19 465,0 524,0 524,-19"/>
<text text-anchor="middle" x="494.5" y="-7" font-family="Helvetica,sans-Serif" font-size="10.00">Eth100M</text>
</a>
</g>
</g>
<!-- RoutingTableVisualizationDisplayingAllShowcase&#45;&gt;Eth100M -->
<g id="edge5" class="edge">
<title>RoutingTableVisualizationDisplayingAllShowcase&#45;&gt;Eth100M</title>
<path fill="none" stroke="black" d="M285.17,-54.98C326.03,-46.58 390.38,-33.24 454.73,-19.36"/>
<polygon fill="black" stroke="black" points="455.6,-22.75 464.64,-17.22 454.12,-15.91 455.6,-22.75"/>
</g>
</g>
</svg>
