<?xml version="1.0" encoding="UTF-8" standalone="no"?>
<!DOCTYPE svg PUBLIC "-//W3C//DTD SVG 1.1//EN"
 "http://www.w3.org/Graphics/SVG/1.1/DTD/svg11.dtd">
<!-- Generated by graphviz version 2.43.0 (0)
 -->
<!-- Title: opp Pages: 1 -->
<svg width="251pt" height="82pt"
 viewBox="0.00 0.00 251.00 82.00" xmlns="http://www.w3.org/2000/svg" xmlns:xlink="http://www.w3.org/1999/xlink">
<g id="graph0" class="graph" transform="scale(1 1) rotate(0) translate(4 78)">
<title>opp</title>
<polygon fill="transparent" stroke="transparent" points="-4,4 -4,-78 247,-78 247,4 -4,4"/>
<!-- Ieee80211OfdmEncoder -->
<g id="node1" class="node">
<title>Ieee80211OfdmEncoder</title>
<g id="a_node1"><a xlink:href="inet.physicallayer.wireless.ieee80211.bitlevel.Ieee80211OfdmEncoder.html" xlink:title="Compound Module Ieee80211OfdmEncoder" target="_parent">
<polygon fill="#fff700" stroke="black" points="186.5,-74 52.5,-74 52.5,-55 186.5,-55 186.5,-74"/>
<text text-anchor="middle" x="119.5" y="-62" font-family="Helvetica,sans-Serif" font-size="10.00">Ieee80211OfdmEncoder</text>
</a>
</g>
</g>
<!-- IFecCoder -->
<g id="node2" class="node">
<title>IFecCoder</title>
<g id="a_node2"><a xlink:href="inet.physicallayer.wireless.common.contract.bitlevel.IFecCoder.html" xlink:title="Module Interface IFecCoder" target="_parent">
<polygon fill="#fffcaf" stroke="black" stroke-dasharray="5,2" points="65,-19 0,-19 0,0 65,0 65,-19"/>
<text text-anchor="middle" x="32.5" y="-7" font-family="Helvetica,sans-Serif" font-size="10.00">IFecCoder</text>
</a>
</g>
</g>
<!-- Ieee80211OfdmEncoder&#45;&gt;IFecCoder -->
<g id="edge1" class="edge">
<title>Ieee80211OfdmEncoder&#45;&gt;IFecCoder</title>
<path fill="none" stroke="black" d="M105.52,-54.98C92.03,-46.77 71.37,-34.18 55.46,-24.49"/>
<polygon fill="black" stroke="black" points="57.09,-21.38 46.73,-19.17 53.45,-27.36 57.09,-21.38"/>
</g>
<!-- IInterleaver -->
<g id="node3" class="node">
<title>IInterleaver</title>
<g id="a_node3"><a xlink:href="inet.physicallayer.wireless.common.contract.bitlevel.IInterleaver.html" xlink:title="Module Interface IInterleaver" target="_parent">
<polygon fill="#fffcaf" stroke="black" stroke-dasharray="5,2" points="156,-19 83,-19 83,0 156,0 156,-19"/>
<text text-anchor="middle" x="119.5" y="-7" font-family="Helvetica,sans-Serif" font-size="10.00">IInterleaver</text>
</a>
</g>
</g>
<!-- Ieee80211OfdmEncoder&#45;&gt;IInterleaver -->
<g id="edge2" class="edge">
<title>Ieee80211OfdmEncoder&#45;&gt;IInterleaver</title>
<path fill="none" stroke="black" d="M119.5,-54.75C119.5,-47.8 119.5,-37.85 119.5,-29.13"/>
<polygon fill="black" stroke="black" points="123,-29.09 119.5,-19.09 116,-29.09 123,-29.09"/>
</g>
<!-- IScrambler -->
<g id="node4" class="node">
<title>IScrambler</title>
<g id="a_node4"><a xlink:href="inet.physicallayer.wireless.common.contract.bitlevel.IScrambler.html" xlink:title="Module Interface IScrambler" target="_parent">
<polygon fill="#fffcaf" stroke="black" stroke-dasharray="5,2" points="243,-19 174,-19 174,0 243,0 243,-19"/>
<text text-anchor="middle" x="208.5" y="-7" font-family="Helvetica,sans-Serif" font-size="10.00">IScrambler</text>
</a>
</g>
</g>
<!-- Ieee80211OfdmEncoder&#45;&gt;IScrambler -->
<g id="edge3" class="edge">
<title>Ieee80211OfdmEncoder&#45;&gt;IScrambler</title>
<path fill="none" stroke="black" d="M133.8,-54.98C147.6,-46.77 168.74,-34.18 185.01,-24.49"/>
<polygon fill="black" stroke="black" points="187.14,-27.29 193.94,-19.17 183.56,-21.28 187.14,-27.29"/>
</g>
</g>
</svg>
