<?xml version="1.0" encoding="UTF-8" standalone="no"?>
<!DOCTYPE svg PUBLIC "-//W3C//DTD SVG 1.1//EN"
 "http://www.w3.org/Graphics/SVG/1.1/DTD/svg11.dtd">
<!-- Generated by graphviz version 2.43.0 (0)
 -->
<!-- Title: opp Pages: 1 -->
<svg width="211pt" height="82pt"
 viewBox="0.00 0.00 211.00 82.00" xmlns="http://www.w3.org/2000/svg" xmlns:xlink="http://www.w3.org/1999/xlink">
<g id="graph0" class="graph" transform="scale(1 1) rotate(0) translate(4 78)">
<title>opp</title>
<polygon fill="transparent" stroke="transparent" points="-4,4 -4,-78 207,-78 207,4 -4,4"/>
<!-- QueueingTimeMeasurementShowcase -->
<g id="node1" class="node">
<title>QueueingTimeMeasurementShowcase</title>
<g id="a_node1"><a xlink:href="inet.showcases.measurement.queueingtime.QueueingTimeMeasurementShowcase.html" xlink:title="Network QueueingTimeMeasurementShowcase" target="_parent">
<polygon fill="#9090ff" stroke="black" points="203,-74 0,-74 0,-55 203,-55 203,-74"/>
<text text-anchor="middle" x="101.5" y="-62" font-family="Helvetica,sans-Serif" font-size="10.00">QueueingTimeMeasurementShowcase</text>
</a>
</g>
</g>
<!-- StandardHost -->
<g id="node2" class="node">
<title>StandardHost</title>
<g id="a_node2"><a xlink:href="inet.node.inet.StandardHost.html" xlink:title="Compound Module StandardHost" target="_parent">
<polygon fill="#fffcaf" stroke="black" points="99,-19 16,-19 16,0 99,0 99,-19"/>
<text text-anchor="middle" x="57.5" y="-7" font-family="Helvetica,sans-Serif" font-size="10.00">StandardHost</text>
</a>
</g>
</g>
<!-- QueueingTimeMeasurementShowcase&#45;&gt;StandardHost -->
<g id="edge1" class="edge">
<title>QueueingTimeMeasurementShowcase&#45;&gt;StandardHost</title>
<path fill="none" stroke="black" d="M94.23,-54.75C87.96,-47.18 78.71,-36.05 71.07,-26.84"/>
<polygon fill="black" stroke="black" points="73.71,-24.55 64.63,-19.09 68.33,-29.02 73.71,-24.55"/>
</g>
<!-- Eth100M -->
<g id="node3" class="node">
<title>Eth100M</title>
<g id="a_node3"><a xlink:href="inet.node.ethernet.Eth100M.html" xlink:title="Channel Eth100M" target="_parent">
<polygon fill="#d0ffd0" stroke="black" points="176,-19 117,-19 117,0 176,0 176,-19"/>
<text text-anchor="middle" x="146.5" y="-7" font-family="Helvetica,sans-Serif" font-size="10.00">Eth100M</text>
</a>
</g>
</g>
<!-- QueueingTimeMeasurementShowcase&#45;&gt;Eth100M -->
<g id="edge2" class="edge">
<title>QueueingTimeMeasurementShowcase&#45;&gt;Eth100M</title>
<path fill="none" stroke="black" d="M108.93,-54.75C115.35,-47.18 124.81,-36.05 132.62,-26.84"/>
<polygon fill="black" stroke="black" points="135.4,-28.98 139.21,-19.09 130.07,-24.45 135.4,-28.98"/>
</g>
</g>
</svg>
