<?xml version="1.0" encoding="UTF-8" standalone="no"?>
<!DOCTYPE svg PUBLIC "-//W3C//DTD SVG 1.1//EN"
 "http://www.w3.org/Graphics/SVG/1.1/DTD/svg11.dtd">
<!-- Generated by graphviz version 2.43.0 (0)
 -->
<!-- Title: opp Pages: 1 -->
<svg width="214pt" height="137pt"
 viewBox="0.00 0.00 213.50 137.00" xmlns="http://www.w3.org/2000/svg" xmlns:xlink="http://www.w3.org/1999/xlink">
<g id="graph0" class="graph" transform="scale(1 1) rotate(0) translate(4 133)">
<title>opp</title>
<polygon fill="transparent" stroke="transparent" points="-4,4 -4,-133 209.5,-133 209.5,4 -4,4"/>
<!-- ServerHost1 -->
<g id="node1" class="node">
<title>ServerHost1</title>
<g id="a_node1"><a xlink:href="inet.tutorials.protocol.ServerHost1.html" xlink:title="Compound Module ServerHost1" target="_parent">
<polygon fill="#fff700" stroke="black" points="134.5,-74 57.5,-74 57.5,-55 134.5,-55 134.5,-74"/>
<text text-anchor="middle" x="96" y="-62" font-family="Helvetica,sans-Serif" font-size="10.00">ServerHost1</text>
</a>
</g>
</g>
<!-- IdealChannel -->
<g id="node2" class="node">
<title>IdealChannel</title>
<g id="a_node2"><a xlink:href="ned.IdealChannel.html" xlink:title="Channel IdealChannel" target="_parent">
<polygon fill="#d0ffd0" stroke="black" points="80,-19 0,-19 0,0 80,0 80,-19"/>
<text text-anchor="middle" x="40" y="-7" font-family="Helvetica,sans-Serif" font-size="10.00">IdealChannel</text>
</a>
</g>
</g>
<!-- ServerHost1&#45;&gt;IdealChannel -->
<g id="edge1" class="edge">
<title>ServerHost1&#45;&gt;IdealChannel</title>
<path fill="none" stroke="black" d="M87,-54.98C78.81,-47.23 66.49,-35.58 56.53,-26.14"/>
<polygon fill="black" stroke="black" points="58.83,-23.5 49.16,-19.17 54.02,-28.59 58.83,-23.5"/>
</g>
<!-- PassivePacketSink -->
<g id="node3" class="node">
<title>PassivePacketSink</title>
<g id="a_node3"><a xlink:href="inet.queueing.sink.PassivePacketSink.html" xlink:title="Simple Module PassivePacketSink" target="_parent">
<polygon fill="#fffcaf" stroke="black" points="205.5,-19 98.5,-19 98.5,0 205.5,0 205.5,-19"/>
<text text-anchor="middle" x="152" y="-7" font-family="Helvetica,sans-Serif" font-size="10.00">PassivePacketSink</text>
</a>
</g>
</g>
<!-- ServerHost1&#45;&gt;PassivePacketSink -->
<g id="edge2" class="edge">
<title>ServerHost1&#45;&gt;PassivePacketSink</title>
<path fill="none" stroke="black" d="M105,-54.98C113.19,-47.23 125.51,-35.58 135.47,-26.14"/>
<polygon fill="black" stroke="black" points="137.98,-28.59 142.84,-19.17 133.17,-23.5 137.98,-28.59"/>
</g>
<!-- Network1 -->
<g id="node4" class="node">
<title>Network1</title>
<g id="a_node4"><a xlink:href="inet.tutorials.protocol.Network1.html" xlink:title="Network Network1" target="_parent">
<polygon fill="#d0d0ff" stroke="black" points="128,-129 64,-129 64,-110 128,-110 128,-129"/>
<text text-anchor="middle" x="96" y="-117" font-family="Helvetica,sans-Serif" font-size="10.00">Network1</text>
</a>
</g>
</g>
<!-- Network1&#45;&gt;ServerHost1 -->
<g id="edge3" class="edge">
<title>Network1&#45;&gt;ServerHost1</title>
<path fill="none" stroke="black" d="M96,-109.75C96,-102.8 96,-92.85 96,-84.13"/>
<polygon fill="black" stroke="black" points="99.5,-84.09 96,-74.09 92.5,-84.09 99.5,-84.09"/>
</g>
</g>
</svg>
