<?xml version="1.0" encoding="UTF-8" standalone="no"?>
<!DOCTYPE svg PUBLIC "-//W3C//DTD SVG 1.1//EN"
 "http://www.w3.org/Graphics/SVG/1.1/DTD/svg11.dtd">
<!-- Generated by graphviz version 2.43.0 (0)
 -->
<!-- Title: opp Pages: 1 -->
<svg width="1638pt" height="137pt"
 viewBox="0.00 0.00 1637.50 137.00" xmlns="http://www.w3.org/2000/svg" xmlns:xlink="http://www.w3.org/1999/xlink">
<g id="graph0" class="graph" transform="scale(1 1) rotate(0) translate(4 133)">
<title>opp</title>
<polygon fill="transparent" stroke="transparent" points="-4,4 -4,-133 1633.5,-133 1633.5,4 -4,4"/>
<!-- Interface -->
<g id="node1" class="node">
<title>Interface</title>
<g id="a_node1"><a xlink:href="inet.tutorials.protocol.Interface.html" xlink:title="Compound Module Interface" target="_parent">
<polygon fill="#fff700" stroke="black" points="816,-74 756,-74 756,-55 816,-55 816,-74"/>
<text text-anchor="middle" x="786" y="-62" font-family="Helvetica,sans-Serif" font-size="10.00">Interface</text>
</a>
</g>
</g>
<!-- Resending -->
<g id="node2" class="node">
<title>Resending</title>
<g id="a_node2"><a xlink:href="inet.protocolelement.acknowledgement.Resending.html" xlink:title="Simple Module Resending" target="_parent">
<polygon fill="#fffcaf" stroke="black" points="68,-19 0,-19 0,0 68,0 68,-19"/>
<text text-anchor="middle" x="34" y="-7" font-family="Helvetica,sans-Serif" font-size="10.00">Resending</text>
</a>
</g>
</g>
<!-- Interface&#45;&gt;Resending -->
<g id="edge1" class="edge">
<title>Interface&#45;&gt;Resending</title>
<path fill="none" stroke="black" d="M755.8,-63.03C658.83,-61.23 346.5,-53.1 78.52,-19.01"/>
<polygon fill="black" stroke="black" points="78.57,-15.49 68.2,-17.68 77.67,-22.43 78.57,-15.49"/>
</g>
<!-- IdealChannel -->
<g id="node3" class="node">
<title>IdealChannel</title>
<g id="a_node3"><a xlink:href="ned.IdealChannel.html" xlink:title="Channel IdealChannel" target="_parent">
<polygon fill="#d0ffd0" stroke="black" points="166,-19 86,-19 86,0 166,0 166,-19"/>
<text text-anchor="middle" x="126" y="-7" font-family="Helvetica,sans-Serif" font-size="10.00">IdealChannel</text>
</a>
</g>
</g>
<!-- Interface&#45;&gt;IdealChannel -->
<g id="edge2" class="edge">
<title>Interface&#45;&gt;IdealChannel</title>
<path fill="none" stroke="black" d="M755.7,-62.36C667.77,-58.81 404.81,-46.63 176.23,-19.02"/>
<polygon fill="black" stroke="black" points="176.41,-15.52 166.06,-17.78 175.57,-22.47 176.41,-15.52"/>
</g>
<!-- FcsHeaderInserter -->
<g id="node4" class="node">
<title>FcsHeaderInserter</title>
<g id="a_node4"><a xlink:href="inet.protocolelement.checksum.FcsHeaderInserter.html" xlink:title="Simple Module FcsHeaderInserter" target="_parent">
<polygon fill="#fffcaf" stroke="black" points="290,-19 184,-19 184,0 290,0 290,-19"/>
<text text-anchor="middle" x="237" y="-7" font-family="Helvetica,sans-Serif" font-size="10.00">FcsHeaderInserter</text>
</a>
</g>
</g>
<!-- Interface&#45;&gt;FcsHeaderInserter -->
<g id="edge3" class="edge">
<title>Interface&#45;&gt;FcsHeaderInserter</title>
<path fill="none" stroke="black" d="M755.75,-61.21C680.59,-55.43 479.16,-39.31 300.2,-19.09"/>
<polygon fill="black" stroke="black" points="300.41,-15.59 290.08,-17.94 299.62,-22.54 300.41,-15.59"/>
</g>
<!-- ReceiveWithProtocol -->
<g id="node5" class="node">
<title>ReceiveWithProtocol</title>
<g id="a_node5"><a xlink:href="inet.protocolelement.dispatching.ReceiveWithProtocol.html" xlink:title="Simple Module ReceiveWithProtocol" target="_parent">
<polygon fill="#fffcaf" stroke="black" points="426,-19 308,-19 308,0 426,0 426,-19"/>
<text text-anchor="middle" x="367" y="-7" font-family="Helvetica,sans-Serif" font-size="10.00">ReceiveWithProtocol</text>
</a>
</g>
</g>
<!-- Interface&#45;&gt;ReceiveWithProtocol -->
<g id="edge4" class="edge">
<title>Interface&#45;&gt;ReceiveWithProtocol</title>
<path fill="none" stroke="black" d="M755.87,-59.69C689.49,-51.29 529.21,-31.02 436.47,-19.29"/>
<polygon fill="black" stroke="black" points="436.69,-15.79 426.33,-18 435.81,-22.73 436.69,-15.79"/>
</g>
<!-- ReceiveWithAcknowledge -->
<g id="node6" class="node">
<title>ReceiveWithAcknowledge</title>
<g id="a_node6"><a xlink:href="inet.protocolelement.acknowledgement.ReceiveWithAcknowledge.html" xlink:title="Simple Module ReceiveWithAcknowledge" target="_parent">
<polygon fill="#fffcaf" stroke="black" points="587.5,-19 444.5,-19 444.5,0 587.5,0 587.5,-19"/>
<text text-anchor="middle" x="516" y="-7" font-family="Helvetica,sans-Serif" font-size="10.00">ReceiveWithAcknowledge</text>
</a>
</g>
</g>
<!-- Interface&#45;&gt;ReceiveWithAcknowledge -->
<g id="edge5" class="edge">
<title>Interface&#45;&gt;ReceiveWithAcknowledge</title>
<path fill="none" stroke="black" d="M755.81,-57.57C710.73,-48.73 625.16,-31.93 569.37,-20.98"/>
<polygon fill="black" stroke="black" points="569.8,-17.49 559.31,-19 568.45,-24.36 569.8,-17.49"/>
</g>
<!-- FcsHeaderChecker -->
<g id="node7" class="node">
<title>FcsHeaderChecker</title>
<g id="a_node7"><a xlink:href="inet.protocolelement.checksum.FcsHeaderChecker.html" xlink:title="Simple Module FcsHeaderChecker" target="_parent">
<polygon fill="#fffcaf" stroke="black" points="712.5,-19 605.5,-19 605.5,0 712.5,0 712.5,-19"/>
<text text-anchor="middle" x="659" y="-7" font-family="Helvetica,sans-Serif" font-size="10.00">FcsHeaderChecker</text>
</a>
</g>
</g>
<!-- Interface&#45;&gt;FcsHeaderChecker -->
<g id="edge6" class="edge">
<title>Interface&#45;&gt;FcsHeaderChecker</title>
<path fill="none" stroke="black" d="M765.6,-54.98C744.98,-46.38 712.89,-32.99 689.31,-23.15"/>
<polygon fill="black" stroke="black" points="690.35,-19.79 679.78,-19.17 687.66,-26.25 690.35,-19.79"/>
</g>
<!-- SendToMacAddress -->
<g id="node8" class="node">
<title>SendToMacAddress</title>
<g id="a_node8"><a xlink:href="inet.protocolelement.selectivity.SendToMacAddress.html" xlink:title="Simple Module SendToMacAddress" target="_parent">
<polygon fill="#fffcaf" stroke="black" points="841,-19 731,-19 731,0 841,0 841,-19"/>
<text text-anchor="middle" x="786" y="-7" font-family="Helvetica,sans-Serif" font-size="10.00">SendToMacAddress</text>
</a>
</g>
</g>
<!-- Interface&#45;&gt;SendToMacAddress -->
<g id="edge7" class="edge">
<title>Interface&#45;&gt;SendToMacAddress</title>
<path fill="none" stroke="black" d="M786,-54.75C786,-47.8 786,-37.85 786,-29.13"/>
<polygon fill="black" stroke="black" points="789.5,-29.09 786,-19.09 782.5,-29.09 789.5,-29.09"/>
</g>
<!-- MessageDispatcher -->
<g id="node9" class="node">
<title>MessageDispatcher</title>
<g id="a_node9"><a xlink:href="inet.common.MessageDispatcher.html" xlink:title="Simple Module MessageDispatcher" target="_parent">
<polygon fill="#fffcaf" stroke="black" points="972.5,-19 859.5,-19 859.5,0 972.5,0 972.5,-19"/>
<text text-anchor="middle" x="916" y="-7" font-family="Helvetica,sans-Serif" font-size="10.00">MessageDispatcher</text>
</a>
</g>
</g>
<!-- Interface&#45;&gt;MessageDispatcher -->
<g id="edge8" class="edge">
<title>Interface&#45;&gt;MessageDispatcher</title>
<path fill="none" stroke="black" d="M806.89,-54.98C828.08,-46.34 861.13,-32.87 885.3,-23.02"/>
<polygon fill="black" stroke="black" points="886.79,-26.19 894.73,-19.17 884.15,-19.7 886.79,-26.19"/>
</g>
<!-- SendWithAcknowledge -->
<g id="node10" class="node">
<title>SendWithAcknowledge</title>
<g id="a_node10"><a xlink:href="inet.protocolelement.acknowledgement.SendWithAcknowledge.html" xlink:title="Simple Module SendWithAcknowledge" target="_parent">
<polygon fill="#fffcaf" stroke="black" points="1119,-19 991,-19 991,0 1119,0 1119,-19"/>
<text text-anchor="middle" x="1055" y="-7" font-family="Helvetica,sans-Serif" font-size="10.00">SendWithAcknowledge</text>
</a>
</g>
</g>
<!-- Interface&#45;&gt;SendWithAcknowledge -->
<g id="edge9" class="edge">
<title>Interface&#45;&gt;SendWithAcknowledge</title>
<path fill="none" stroke="black" d="M816.07,-57.57C860.99,-48.73 946.25,-31.93 1001.83,-20.98"/>
<polygon fill="black" stroke="black" points="1002.71,-24.37 1011.85,-19 1001.36,-17.5 1002.71,-24.37"/>
</g>
<!-- PacketTransmitter -->
<g id="node11" class="node">
<title>PacketTransmitter</title>
<g id="a_node11"><a xlink:href="inet.protocolelement.transceiver.PacketTransmitter.html" xlink:title="Simple Module PacketTransmitter" target="_parent">
<polygon fill="#fffcaf" stroke="black" points="1242.5,-19 1137.5,-19 1137.5,0 1242.5,0 1242.5,-19"/>
<text text-anchor="middle" x="1190" y="-7" font-family="Helvetica,sans-Serif" font-size="10.00">PacketTransmitter</text>
</a>
</g>
</g>
<!-- Interface&#45;&gt;PacketTransmitter -->
<g id="edge10" class="edge">
<title>Interface&#45;&gt;PacketTransmitter</title>
<path fill="none" stroke="black" d="M816.2,-59.64C874.2,-52.22 1005.43,-35.34 1127.01,-19.12"/>
<polygon fill="black" stroke="black" points="1127.79,-22.55 1137.24,-17.76 1126.86,-15.61 1127.79,-22.55"/>
</g>
<!-- PacketMultiplexer -->
<g id="node12" class="node">
<title>PacketMultiplexer</title>
<g id="a_node12"><a xlink:href="inet.queueing.common.PacketMultiplexer.html" xlink:title="Simple Module PacketMultiplexer" target="_parent">
<polygon fill="#fffcaf" stroke="black" points="1365,-19 1261,-19 1261,0 1365,0 1365,-19"/>
<text text-anchor="middle" x="1313" y="-7" font-family="Helvetica,sans-Serif" font-size="10.00">PacketMultiplexer</text>
</a>
</g>
</g>
<!-- Interface&#45;&gt;PacketMultiplexer -->
<g id="edge11" class="edge">
<title>Interface&#45;&gt;PacketMultiplexer</title>
<path fill="none" stroke="black" d="M816.03,-61.09C888.71,-55.14 1080.07,-38.93 1250.61,-19.12"/>
<polygon fill="black" stroke="black" points="1251.25,-22.57 1260.78,-17.93 1250.44,-15.61 1251.25,-22.57"/>
</g>
<!-- SendWithProtocol -->
<g id="node13" class="node">
<title>SendWithProtocol</title>
<g id="a_node13"><a xlink:href="inet.protocolelement.dispatching.SendWithProtocol.html" xlink:title="Simple Module SendWithProtocol" target="_parent">
<polygon fill="#fffcaf" stroke="black" points="1486.5,-19 1383.5,-19 1383.5,0 1486.5,0 1486.5,-19"/>
<text text-anchor="middle" x="1435" y="-7" font-family="Helvetica,sans-Serif" font-size="10.00">SendWithProtocol</text>
</a>
</g>
</g>
<!-- Interface&#45;&gt;SendWithProtocol -->
<g id="edge12" class="edge">
<title>Interface&#45;&gt;SendWithProtocol</title>
<path fill="none" stroke="black" d="M816.05,-61.9C901.43,-57.2 1152.98,-42.36 1373.31,-19"/>
<polygon fill="black" stroke="black" points="1373.87,-22.46 1383.44,-17.92 1373.13,-15.5 1373.87,-22.46"/>
</g>
<!-- ReceiveAtMacAddress -->
<g id="node14" class="node">
<title>ReceiveAtMacAddress</title>
<g id="a_node14"><a xlink:href="inet.protocolelement.selectivity.ReceiveAtMacAddress.html" xlink:title="Simple Module ReceiveAtMacAddress" target="_parent">
<polygon fill="#fffcaf" stroke="black" points="1629.5,-19 1504.5,-19 1504.5,0 1629.5,0 1629.5,-19"/>
<text text-anchor="middle" x="1567" y="-7" font-family="Helvetica,sans-Serif" font-size="10.00">ReceiveAtMacAddress</text>
</a>
</g>
</g>
<!-- Interface&#45;&gt;ReceiveAtMacAddress -->
<g id="edge13" class="edge">
<title>Interface&#45;&gt;ReceiveAtMacAddress</title>
<path fill="none" stroke="black" d="M816.15,-62.22C912.99,-57.99 1225.04,-43.34 1493.95,-19.14"/>
<polygon fill="black" stroke="black" points="1494.66,-22.59 1504.3,-18.2 1494.03,-15.62 1494.66,-22.59"/>
</g>
<!-- Node -->
<g id="node15" class="node">
<title>Node</title>
<g id="a_node15"><a xlink:href="inet.tutorials.protocol.Node.html" xlink:title="Compound Module Node" target="_parent">
<polygon fill="#fffcaf" stroke="black" points="813,-129 759,-129 759,-110 813,-110 813,-129"/>
<text text-anchor="middle" x="786" y="-117" font-family="Helvetica,sans-Serif" font-size="10.00">Node</text>
</a>
</g>
</g>
<!-- Node&#45;&gt;Interface -->
<g id="edge14" class="edge">
<title>Node&#45;&gt;Interface</title>
<path fill="none" stroke="black" d="M786,-109.75C786,-102.8 786,-92.85 786,-84.13"/>
<polygon fill="black" stroke="black" points="789.5,-84.09 786,-74.09 782.5,-84.09 789.5,-84.09"/>
</g>
</g>
</svg>
