<?xml version="1.0" encoding="UTF-8" standalone="no"?>
<!DOCTYPE svg PUBLIC "-//W3C//DTD SVG 1.1//EN"
 "http://www.w3.org/Graphics/SVG/1.1/DTD/svg11.dtd">
<!-- Generated by graphviz version 2.43.0 (0)
 -->
<!-- Title: opp Pages: 1 -->
<svg width="4632pt" height="137pt"
 viewBox="0.00 0.00 4632.00 137.00" xmlns="http://www.w3.org/2000/svg" xmlns:xlink="http://www.w3.org/1999/xlink">
<g id="graph0" class="graph" transform="scale(1 1) rotate(0) translate(4 133)">
<title>opp</title>
<polygon fill="transparent" stroke="transparent" points="-4,4 -4,-133 4628,-133 4628,4 -4,4"/>
<!-- IPacketFlow -->
<g id="node1" class="node">
<title>IPacketFlow</title>
<g id="a_node1"><a xlink:href="inet.queueing.contract.IPacketFlow.html" xlink:title="Module Interface IPacketFlow" target="_parent">
<polygon fill="#fff700" stroke="black" stroke-dasharray="5,2" points="2801.5,-74 2726.5,-74 2726.5,-55 2801.5,-55 2801.5,-74"/>
<text text-anchor="middle" x="2764" y="-62" font-family="Helvetica,sans-Serif" font-size="10.00">IPacketFlow</text>
</a>
</g>
</g>
<!-- EthernetAddressInserter -->
<g id="node4" class="node">
<title>EthernetAddressInserter</title>
<g id="a_node4"><a xlink:href="inet.linklayer.ethernet.modular.EthernetAddressInserter.html" xlink:title="Simple Module EthernetAddressInserter" target="_parent">
<polygon fill="#fffcaf" stroke="black" points="134,-19 0,-19 0,0 134,0 134,-19"/>
<text text-anchor="middle" x="67" y="-7" font-family="Helvetica,sans-Serif" font-size="10.00">EthernetAddressInserter</text>
</a>
</g>
</g>
<!-- IPacketFlow&#45;&gt;EthernetAddressInserter -->
<g id="edge3" class="edge">
<title>IPacketFlow&#45;&gt;EthernetAddressInserter</title>
<path fill="none" stroke="black" stroke-dasharray="5,2" d="M2726.11,-63.35C2444.81,-62.15 677.49,-53.35 143,-19 140.09,-18.81 137.11,-18.59 134.11,-18.35"/>
</g>
<!-- EthernetFcsInserter -->
<g id="node5" class="node">
<title>EthernetFcsInserter</title>
<g id="a_node5"><a xlink:href="inet.linklayer.ethernet.modular.EthernetFcsInserter.html" xlink:title="Simple Module EthernetFcsInserter" target="_parent">
<polygon fill="#fffcaf" stroke="black" points="264,-19 152,-19 152,0 264,0 264,-19"/>
<text text-anchor="middle" x="208" y="-7" font-family="Helvetica,sans-Serif" font-size="10.00">EthernetFcsInserter</text>
</a>
</g>
</g>
<!-- IPacketFlow&#45;&gt;EthernetFcsInserter -->
<g id="edge4" class="edge">
<title>IPacketFlow&#45;&gt;EthernetFcsInserter</title>
<path fill="none" stroke="black" stroke-dasharray="5,2" d="M2726.26,-63.41C2453.45,-62.65 779.57,-56.53 273,-19 270.16,-18.79 267.26,-18.54 264.33,-18.26"/>
</g>
<!-- EthernetFragmentFcsInserter -->
<g id="node6" class="node">
<title>EthernetFragmentFcsInserter</title>
<g id="a_node6"><a xlink:href="inet.linklayer.ethernet.modular.EthernetFragmentFcsInserter.html" xlink:title="Simple Module EthernetFragmentFcsInserter" target="_parent">
<polygon fill="#fffcaf" stroke="black" points="440,-19 282,-19 282,0 440,0 440,-19"/>
<text text-anchor="middle" x="361" y="-7" font-family="Helvetica,sans-Serif" font-size="10.00">EthernetFragmentFcsInserter</text>
</a>
</g>
</g>
<!-- IPacketFlow&#45;&gt;EthernetFragmentFcsInserter -->
<g id="edge5" class="edge">
<title>IPacketFlow&#45;&gt;EthernetFragmentFcsInserter</title>
<path fill="none" stroke="black" stroke-dasharray="5,2" d="M2726.45,-63.18C2465.43,-60.91 917.98,-46.43 448,-19 445.42,-18.85 442.81,-18.68 440.17,-18.5"/>
</g>
<!-- EthernetFragmentPhyHeaderInserter -->
<g id="node7" class="node">
<title>EthernetFragmentPhyHeaderInserter</title>
<g id="a_node7"><a xlink:href="inet.physicallayer.wired.ethernet.EthernetFragmentPhyHeaderInserter.html" xlink:title="Simple Module EthernetFragmentPhyHeaderInserter" target="_parent">
<polygon fill="#fffcaf" stroke="black" points="652.5,-19 457.5,-19 457.5,0 652.5,0 652.5,-19"/>
<text text-anchor="middle" x="555" y="-7" font-family="Helvetica,sans-Serif" font-size="10.00">EthernetFragmentPhyHeaderInserter</text>
</a>
</g>
</g>
<!-- IPacketFlow&#45;&gt;EthernetFragmentPhyHeaderInserter -->
<g id="edge6" class="edge">
<title>IPacketFlow&#45;&gt;EthernetFragmentPhyHeaderInserter</title>
<path fill="none" stroke="black" stroke-dasharray="5,2" d="M2726.29,-63.53C2518.85,-63.53 1495.75,-61.26 661,-19 658.23,-18.86 655.43,-18.71 652.6,-18.54"/>
</g>
<!-- EthernetPhyHeaderInserter -->
<g id="node8" class="node">
<title>EthernetPhyHeaderInserter</title>
<g id="a_node8"><a xlink:href="inet.physicallayer.wired.ethernet.EthernetPhyHeaderInserter.html" xlink:title="Simple Module EthernetPhyHeaderInserter" target="_parent">
<polygon fill="#fffcaf" stroke="black" points="819.5,-19 670.5,-19 670.5,0 819.5,0 819.5,-19"/>
<text text-anchor="middle" x="745" y="-7" font-family="Helvetica,sans-Serif" font-size="10.00">EthernetPhyHeaderInserter</text>
</a>
</g>
</g>
<!-- IPacketFlow&#45;&gt;EthernetPhyHeaderInserter -->
<g id="edge7" class="edge">
<title>IPacketFlow&#45;&gt;EthernetPhyHeaderInserter</title>
<path fill="none" stroke="black" stroke-dasharray="5,2" d="M2726.41,-63.72C2529.08,-64.67 1592.83,-66.36 829,-19 825.93,-18.81 822.79,-18.59 819.63,-18.36"/>
</g>
<!-- EthernetSocketCommandProcessor -->
<g id="node9" class="node">
<title>EthernetSocketCommandProcessor</title>
<g id="a_node9"><a xlink:href="inet.linklayer.ethernet.modular.EthernetSocketCommandProcessor.html" xlink:title="Simple Module EthernetSocketCommandProcessor" target="_parent">
<polygon fill="#fffcaf" stroke="black" points="1026,-19 838,-19 838,0 1026,0 1026,-19"/>
<text text-anchor="middle" x="932" y="-7" font-family="Helvetica,sans-Serif" font-size="10.00">EthernetSocketCommandProcessor</text>
</a>
</g>
</g>
<!-- IPacketFlow&#45;&gt;EthernetSocketCommandProcessor -->
<g id="edge8" class="edge">
<title>IPacketFlow&#45;&gt;EthernetSocketCommandProcessor</title>
<path fill="none" stroke="black" stroke-dasharray="5,2" d="M2726.25,-63.32C2541.33,-62.27 1712.63,-55.65 1035,-19 1032.04,-18.84 1029.04,-18.67 1026.01,-18.48"/>
</g>
<!-- EthernetSocketPacketProcessor -->
<g id="node10" class="node">
<title>EthernetSocketPacketProcessor</title>
<g id="a_node10"><a xlink:href="inet.linklayer.ethernet.modular.EthernetSocketPacketProcessor.html" xlink:title="Simple Module EthernetSocketPacketProcessor" target="_parent">
<polygon fill="#fffcaf" stroke="black" points="1214,-19 1044,-19 1044,0 1214,0 1214,-19"/>
<text text-anchor="middle" x="1129" y="-7" font-family="Helvetica,sans-Serif" font-size="10.00">EthernetSocketPacketProcessor</text>
</a>
</g>
</g>
<!-- IPacketFlow&#45;&gt;EthernetSocketPacketProcessor -->
<g id="edge9" class="edge">
<title>IPacketFlow&#45;&gt;EthernetSocketPacketProcessor</title>
<path fill="none" stroke="black" stroke-dasharray="5,2" d="M2726.42,-63.26C2554.08,-62 1822.13,-54.71 1223,-19 1220.06,-18.82 1217.06,-18.63 1214.04,-18.42"/>
</g>
<!-- EthernetTypeOrLengthInserter -->
<g id="node11" class="node">
<title>EthernetTypeOrLengthInserter</title>
<g id="a_node11"><a xlink:href="inet.linklayer.ethernet.modular.EthernetTypeOrLengthInserter.html" xlink:title="Simple Module EthernetTypeOrLengthInserter" target="_parent">
<polygon fill="#fffcaf" stroke="black" points="1394,-19 1232,-19 1232,0 1394,0 1394,-19"/>
<text text-anchor="middle" x="1313" y="-7" font-family="Helvetica,sans-Serif" font-size="10.00">EthernetTypeOrLengthInserter</text>
</a>
</g>
</g>
<!-- IPacketFlow&#45;&gt;EthernetTypeOrLengthInserter -->
<g id="edge10" class="edge">
<title>IPacketFlow&#45;&gt;EthernetTypeOrLengthInserter</title>
<path fill="none" stroke="black" stroke-dasharray="5,2" d="M2726.34,-63.12C2566.34,-61.31 1927.07,-52.28 1403,-19 1400.18,-18.82 1397.31,-18.63 1394.42,-18.42"/>
</g>
<!-- FlowMeasurementRecorder -->
<g id="node12" class="node">
<title>FlowMeasurementRecorder</title>
<g id="a_node12"><a xlink:href="inet.queueing.flow.FlowMeasurementRecorder.html" xlink:title="Simple Module FlowMeasurementRecorder" target="_parent">
<polygon fill="#fffcaf" stroke="black" points="1563.5,-19 1412.5,-19 1412.5,0 1563.5,0 1563.5,-19"/>
<text text-anchor="middle" x="1488" y="-7" font-family="Helvetica,sans-Serif" font-size="10.00">FlowMeasurementRecorder</text>
</a>
</g>
</g>
<!-- IPacketFlow&#45;&gt;FlowMeasurementRecorder -->
<g id="edge11" class="edge">
<title>IPacketFlow&#45;&gt;FlowMeasurementRecorder</title>
<path fill="none" stroke="black" stroke-dasharray="5,2" d="M2726.41,-62.95C2579.06,-60.6 2026.63,-50.13 1573,-19 1569.89,-18.79 1566.72,-18.55 1563.52,-18.3"/>
</g>
<!-- FlowMeasurementStarter -->
<g id="node13" class="node">
<title>FlowMeasurementStarter</title>
<g id="a_node13"><a xlink:href="inet.queueing.flow.FlowMeasurementStarter.html" xlink:title="Simple Module FlowMeasurementStarter" target="_parent">
<polygon fill="#fffcaf" stroke="black" points="1722,-19 1582,-19 1582,0 1722,0 1722,-19"/>
<text text-anchor="middle" x="1652" y="-7" font-family="Helvetica,sans-Serif" font-size="10.00">FlowMeasurementStarter</text>
</a>
</g>
</g>
<!-- IPacketFlow&#45;&gt;FlowMeasurementStarter -->
<g id="edge12" class="edge">
<title>IPacketFlow&#45;&gt;FlowMeasurementStarter</title>
<path fill="none" stroke="black" stroke-dasharray="5,2" d="M2726.43,-62.75C2591.58,-59.88 2119.43,-48.23 1731,-19 1728.11,-18.78 1725.16,-18.54 1722.19,-18.29"/>
</g>
<!-- Ieee8021qSocketCommandProcessor -->
<g id="node14" class="node">
<title>Ieee8021qSocketCommandProcessor</title>
<g id="a_node14"><a xlink:href="inet.linklayer.ieee8021q.Ieee8021qSocketCommandProcessor.html" xlink:title="Simple Module Ieee8021qSocketCommandProcessor" target="_parent">
<polygon fill="#fffcaf" stroke="black" points="1937.5,-19 1740.5,-19 1740.5,0 1937.5,0 1937.5,-19"/>
<text text-anchor="middle" x="1839" y="-7" font-family="Helvetica,sans-Serif" font-size="10.00">Ieee8021qSocketCommandProcessor</text>
</a>
</g>
</g>
<!-- IPacketFlow&#45;&gt;Ieee8021qSocketCommandProcessor -->
<g id="edge13" class="edge">
<title>IPacketFlow&#45;&gt;Ieee8021qSocketCommandProcessor</title>
<path fill="none" stroke="black" stroke-dasharray="5,2" d="M2726.47,-61.79C2610.39,-56.44 2246.84,-39.13 1946,-19 1943.21,-18.81 1940.38,-18.62 1937.53,-18.42"/>
</g>
<!-- Ieee8021qSocketPacketProcessor -->
<g id="node15" class="node">
<title>Ieee8021qSocketPacketProcessor</title>
<g id="a_node15"><a xlink:href="inet.linklayer.ieee8021q.Ieee8021qSocketPacketProcessor.html" xlink:title="Simple Module Ieee8021qSocketPacketProcessor" target="_parent">
<polygon fill="#fffcaf" stroke="black" points="2134.5,-19 1955.5,-19 1955.5,0 2134.5,0 2134.5,-19"/>
<text text-anchor="middle" x="2045" y="-7" font-family="Helvetica,sans-Serif" font-size="10.00">Ieee8021qSocketPacketProcessor</text>
</a>
</g>
</g>
<!-- IPacketFlow&#45;&gt;Ieee8021qSocketPacketProcessor -->
<g id="edge14" class="edge">
<title>IPacketFlow&#45;&gt;Ieee8021qSocketPacketProcessor</title>
<path fill="none" stroke="black" stroke-dasharray="5,2" d="M2726.18,-60.99C2629.23,-54.51 2363.89,-36.49 2143,-19 2140.28,-18.78 2137.51,-18.56 2134.72,-18.34"/>
</g>
<!-- Ieee8022LlcSocketCommandProcessor -->
<g id="node16" class="node">
<title>Ieee8022LlcSocketCommandProcessor</title>
<g id="a_node16"><a xlink:href="inet.linklayer.ieee8022.Ieee8022LlcSocketCommandProcessor.html" xlink:title="Simple Module Ieee8022LlcSocketCommandProcessor" target="_parent">
<polygon fill="#fffcaf" stroke="black" points="2357.5,-19 2152.5,-19 2152.5,0 2357.5,0 2357.5,-19"/>
<text text-anchor="middle" x="2255" y="-7" font-family="Helvetica,sans-Serif" font-size="10.00">Ieee8022LlcSocketCommandProcessor</text>
</a>
</g>
</g>
<!-- IPacketFlow&#45;&gt;Ieee8022LlcSocketCommandProcessor -->
<g id="edge15" class="edge">
<title>IPacketFlow&#45;&gt;Ieee8022LlcSocketCommandProcessor</title>
<path fill="none" stroke="black" stroke-dasharray="5,2" d="M2726.16,-59.56C2644.14,-51.02 2448.39,-30.64 2336.72,-19.01"/>
</g>
<!-- Ieee8022LlcSocketPacketProcessor -->
<g id="node17" class="node">
<title>Ieee8022LlcSocketPacketProcessor</title>
<g id="a_node17"><a xlink:href="inet.linklayer.ieee8022.Ieee8022LlcSocketPacketProcessor.html" xlink:title="Simple Module Ieee8022LlcSocketPacketProcessor" target="_parent">
<polygon fill="#fffcaf" stroke="black" points="2562.5,-19 2375.5,-19 2375.5,0 2562.5,0 2562.5,-19"/>
<text text-anchor="middle" x="2469" y="-7" font-family="Helvetica,sans-Serif" font-size="10.00">Ieee8022LlcSocketPacketProcessor</text>
</a>
</g>
</g>
<!-- IPacketFlow&#45;&gt;Ieee8022LlcSocketPacketProcessor -->
<g id="edge16" class="edge">
<title>IPacketFlow&#45;&gt;Ieee8022LlcSocketPacketProcessor</title>
<path fill="none" stroke="black" stroke-dasharray="5,2" d="M2726.34,-56.73C2672.83,-47.12 2574.82,-29.51 2516.42,-19.02"/>
</g>
<!-- OmittedPacketFlow -->
<g id="node18" class="node">
<title>OmittedPacketFlow</title>
<g id="a_node18"><a xlink:href="inet.queueing.common.OmittedPacketFlow.html" xlink:title="Compound Module OmittedPacketFlow" target="_parent">
<polygon fill="#fffcaf" stroke="black" points="2692,-19 2580,-19 2580,0 2692,0 2692,-19"/>
<text text-anchor="middle" x="2636" y="-7" font-family="Helvetica,sans-Serif" font-size="10.00">OmittedPacketFlow</text>
</a>
</g>
</g>
<!-- IPacketFlow&#45;&gt;OmittedPacketFlow -->
<g id="edge17" class="edge">
<title>IPacketFlow&#45;&gt;OmittedPacketFlow</title>
<path fill="none" stroke="black" stroke-dasharray="5,2" d="M2743.43,-54.98C2719.69,-45.15 2680.84,-29.07 2656.94,-19.17"/>
</g>
<!-- PacketDestreamer -->
<g id="node19" class="node">
<title>PacketDestreamer</title>
<g id="a_node19"><a xlink:href="inet.protocolelement.common.PacketDestreamer.html" xlink:title="Simple Module PacketDestreamer" target="_parent">
<polygon fill="#fffcaf" stroke="black" points="2817.5,-19 2710.5,-19 2710.5,0 2817.5,0 2817.5,-19"/>
<text text-anchor="middle" x="2764" y="-7" font-family="Helvetica,sans-Serif" font-size="10.00">PacketDestreamer</text>
</a>
</g>
</g>
<!-- IPacketFlow&#45;&gt;PacketDestreamer -->
<g id="edge18" class="edge">
<title>IPacketFlow&#45;&gt;PacketDestreamer</title>
<path fill="none" stroke="black" stroke-dasharray="5,2" d="M2764,-54.75C2764,-44.87 2764,-28.9 2764,-19.09"/>
</g>
<!-- PacketDirectionReverser -->
<g id="node20" class="node">
<title>PacketDirectionReverser</title>
<g id="a_node20"><a xlink:href="inet.linklayer.ethernet.common.PacketDirectionReverser.html" xlink:title="Simple Module PacketDirectionReverser" target="_parent">
<polygon fill="#fffcaf" stroke="black" points="2972.5,-19 2835.5,-19 2835.5,0 2972.5,0 2972.5,-19"/>
<text text-anchor="middle" x="2904" y="-7" font-family="Helvetica,sans-Serif" font-size="10.00">PacketDirectionReverser</text>
</a>
</g>
</g>
<!-- IPacketFlow&#45;&gt;PacketDirectionReverser -->
<g id="edge19" class="edge">
<title>IPacketFlow&#45;&gt;PacketDirectionReverser</title>
<path fill="none" stroke="black" stroke-dasharray="5,2" d="M2786.49,-54.98C2812.46,-45.15 2854.95,-29.07 2881.1,-19.17"/>
</g>
<!-- PacketEmitter -->
<g id="node21" class="node">
<title>PacketEmitter</title>
<g id="a_node21"><a xlink:href="inet.protocolelement.common.PacketEmitter.html" xlink:title="Simple Module PacketEmitter" target="_parent">
<polygon fill="#fffcaf" stroke="black" points="3075.5,-19 2990.5,-19 2990.5,0 3075.5,0 3075.5,-19"/>
<text text-anchor="middle" x="3033" y="-7" font-family="Helvetica,sans-Serif" font-size="10.00">PacketEmitter</text>
</a>
</g>
</g>
<!-- IPacketFlow&#45;&gt;PacketEmitter -->
<g id="edge20" class="edge">
<title>IPacketFlow&#45;&gt;PacketEmitter</title>
<path fill="none" stroke="black" stroke-dasharray="5,2" d="M2801.69,-56.07C2851.28,-46.3 2938.24,-29.17 2990.24,-18.92"/>
</g>
<!-- PacketStreamer -->
<g id="node22" class="node">
<title>PacketStreamer</title>
<g id="a_node22"><a xlink:href="inet.protocolelement.common.PacketStreamer.html" xlink:title="Simple Module PacketStreamer" target="_parent">
<polygon fill="#fffcaf" stroke="black" points="3188,-19 3094,-19 3094,0 3188,0 3188,-19"/>
<text text-anchor="middle" x="3141" y="-7" font-family="Helvetica,sans-Serif" font-size="10.00">PacketStreamer</text>
</a>
</g>
</g>
<!-- IPacketFlow&#45;&gt;PacketStreamer -->
<g id="edge21" class="edge">
<title>IPacketFlow&#45;&gt;PacketStreamer</title>
<path fill="none" stroke="black" stroke-dasharray="5,2" d="M2801.58,-58.45C2861.54,-50.36 2982.55,-33.88 3085,-19 3087.92,-18.58 3090.92,-18.13 3093.95,-17.69"/>
</g>
<!-- PaddingInserter -->
<g id="node23" class="node">
<title>PaddingInserter</title>
<g id="a_node23"><a xlink:href="inet.protocolelement.common.PaddingInserter.html" xlink:title="Simple Module PaddingInserter" target="_parent">
<polygon fill="#fffcaf" stroke="black" points="3299.5,-19 3206.5,-19 3206.5,0 3299.5,0 3299.5,-19"/>
<text text-anchor="middle" x="3253" y="-7" font-family="Helvetica,sans-Serif" font-size="10.00">PaddingInserter</text>
</a>
</g>
</g>
<!-- IPacketFlow&#45;&gt;PaddingInserter -->
<g id="edge22" class="edge">
<title>IPacketFlow&#45;&gt;PaddingInserter</title>
<path fill="none" stroke="black" stroke-dasharray="5,2" d="M2801.72,-60.24C2877,-53.6 3051.19,-37.55 3197,-19 3200.02,-18.62 3203.14,-18.2 3206.27,-17.76"/>
</g>
<!-- PreemptableStreamer -->
<g id="node24" class="node">
<title>PreemptableStreamer</title>
<g id="a_node24"><a xlink:href="inet.protocolelement.common.PreemptableStreamer.html" xlink:title="Simple Module PreemptableStreamer" target="_parent">
<polygon fill="#fffcaf" stroke="black" points="3442,-19 3318,-19 3318,0 3442,0 3442,-19"/>
<text text-anchor="middle" x="3380" y="-7" font-family="Helvetica,sans-Serif" font-size="10.00">PreemptableStreamer</text>
</a>
</g>
</g>
<!-- IPacketFlow&#45;&gt;PreemptableStreamer -->
<g id="edge23" class="edge">
<title>IPacketFlow&#45;&gt;PreemptableStreamer</title>
<path fill="none" stroke="black" stroke-dasharray="5,2" d="M2801.71,-60.91C2890.31,-54.73 3118.67,-38.16 3309,-19 3311.84,-18.71 3314.74,-18.41 3317.68,-18.1"/>
</g>
<!-- RelayInterfaceLearner -->
<g id="node25" class="node">
<title>RelayInterfaceLearner</title>
<g id="a_node25"><a xlink:href="inet.linklayer.ethernet.common.RelayInterfaceLearner.html" xlink:title="Simple Module RelayInterfaceLearner" target="_parent">
<polygon fill="#fffcaf" stroke="black" points="3585.5,-19 3460.5,-19 3460.5,0 3585.5,0 3585.5,-19"/>
<text text-anchor="middle" x="3523" y="-7" font-family="Helvetica,sans-Serif" font-size="10.00">RelayInterfaceLearner</text>
</a>
</g>
</g>
<!-- IPacketFlow&#45;&gt;RelayInterfaceLearner -->
<g id="edge24" class="edge">
<title>IPacketFlow&#45;&gt;RelayInterfaceLearner</title>
<path fill="none" stroke="black" stroke-dasharray="5,2" d="M2801.66,-61.76C2905.35,-56.82 3203.73,-41.59 3451,-19 3454.01,-18.73 3457.09,-18.43 3460.19,-18.11"/>
</g>
<!-- RelayInterfaceSelector -->
<g id="node26" class="node">
<title>RelayInterfaceSelector</title>
<g id="a_node26"><a xlink:href="inet.linklayer.ethernet.common.RelayInterfaceSelector.html" xlink:title="Simple Module RelayInterfaceSelector" target="_parent">
<polygon fill="#fffcaf" stroke="black" points="3732,-19 3604,-19 3604,0 3732,0 3732,-19"/>
<text text-anchor="middle" x="3668" y="-7" font-family="Helvetica,sans-Serif" font-size="10.00">RelayInterfaceSelector</text>
</a>
</g>
</g>
<!-- IPacketFlow&#45;&gt;RelayInterfaceSelector -->
<g id="edge25" class="edge">
<title>IPacketFlow&#45;&gt;RelayInterfaceSelector</title>
<path fill="none" stroke="black" stroke-dasharray="5,2" d="M2801.74,-62.32C2919.33,-58.46 3289.45,-44.94 3595,-19 3597.92,-18.75 3600.91,-18.48 3603.93,-18.19"/>
</g>
<!-- StreamDecoder -->
<g id="node27" class="node">
<title>StreamDecoder</title>
<g id="a_node27"><a xlink:href="inet.protocolelement.redundancy.StreamDecoder.html" xlink:title="Simple Module StreamDecoder" target="_parent">
<polygon fill="#fffcaf" stroke="black" points="3842,-19 3750,-19 3750,0 3842,0 3842,-19"/>
<text text-anchor="middle" x="3796" y="-7" font-family="Helvetica,sans-Serif" font-size="10.00">StreamDecoder</text>
</a>
</g>
</g>
<!-- IPacketFlow&#45;&gt;StreamDecoder -->
<g id="edge26" class="edge">
<title>IPacketFlow&#45;&gt;StreamDecoder</title>
<path fill="none" stroke="black" stroke-dasharray="5,2" d="M2801.83,-63.24C2932.44,-62.04 3376.48,-55.36 3741,-19 3743.88,-18.71 3746.85,-18.38 3749.83,-18"/>
</g>
<!-- StreamEncoder -->
<g id="node28" class="node">
<title>StreamEncoder</title>
<g id="a_node28"><a xlink:href="inet.protocolelement.redundancy.StreamEncoder.html" xlink:title="Simple Module StreamEncoder" target="_parent">
<polygon fill="#fffcaf" stroke="black" points="3951.5,-19 3860.5,-19 3860.5,0 3951.5,0 3951.5,-19"/>
<text text-anchor="middle" x="3906" y="-7" font-family="Helvetica,sans-Serif" font-size="10.00">StreamEncoder</text>
</a>
</g>
</g>
<!-- IPacketFlow&#45;&gt;StreamEncoder -->
<g id="edge27" class="edge">
<title>IPacketFlow&#45;&gt;StreamEncoder</title>
<path fill="none" stroke="black" stroke-dasharray="5,2" d="M2801.65,-63.49C2941.09,-63.12 3441.2,-58.93 3851,-19 3854.08,-18.7 3857.24,-18.34 3860.43,-17.95"/>
</g>
<!-- StreamIdentifier -->
<g id="node29" class="node">
<title>StreamIdentifier</title>
<g id="a_node29"><a xlink:href="inet.protocolelement.redundancy.StreamIdentifier.html" xlink:title="Simple Module StreamIdentifier" target="_parent">
<polygon fill="#fffcaf" stroke="black" points="4066,-19 3970,-19 3970,0 4066,0 4066,-19"/>
<text text-anchor="middle" x="4018" y="-7" font-family="Helvetica,sans-Serif" font-size="10.00">StreamIdentifier</text>
</a>
</g>
</g>
<!-- IPacketFlow&#45;&gt;StreamIdentifier -->
<g id="edge28" class="edge">
<title>IPacketFlow&#45;&gt;StreamIdentifier</title>
<path fill="none" stroke="black" stroke-dasharray="5,2" d="M2801.58,-63.62C2949.5,-63.76 3505.72,-61.28 3961,-19 3963.89,-18.73 3966.86,-18.42 3969.84,-18.06"/>
</g>
<!-- VlanReqMapper -->
<g id="node30" class="node">
<title>VlanReqMapper</title>
<g id="a_node30"><a xlink:href="inet.linklayer.vlan.VlanReqMapper.html" xlink:title="Simple Module VlanReqMapper" target="_parent">
<polygon fill="#fffcaf" stroke="black" points="4178,-19 4084,-19 4084,0 4178,0 4178,-19"/>
<text text-anchor="middle" x="4131" y="-7" font-family="Helvetica,sans-Serif" font-size="10.00">VlanReqMapper</text>
</a>
</g>
</g>
<!-- IPacketFlow&#45;&gt;VlanReqMapper -->
<g id="edge29" class="edge">
<title>IPacketFlow&#45;&gt;VlanReqMapper</title>
<path fill="none" stroke="black" stroke-dasharray="5,2" d="M2801.65,-63.83C2958.16,-64.84 3572.71,-65.48 4075,-19 4077.94,-18.73 4080.96,-18.4 4084,-18.04"/>
</g>
<!-- IPacketFilter -->
<g id="node31" class="node">
<title>IPacketFilter</title>
<g id="a_node31"><a xlink:href="inet.queueing.contract.IPacketFilter.html" xlink:title="Module Interface IPacketFilter" target="_parent">
<polygon fill="#fffcaf" stroke="black" stroke-dasharray="5,2" points="4272,-19 4196,-19 4196,0 4272,0 4272,-19"/>
<text text-anchor="middle" x="4234" y="-7" font-family="Helvetica,sans-Serif" font-size="10.00">IPacketFilter</text>
</a>
</g>
</g>
<!-- IPacketFlow&#45;&gt;IPacketFilter -->
<g id="edge30" class="edge">
<title>IPacketFlow&#45;&gt;IPacketFilter</title>
<path fill="none" stroke="black" d="M2801.61,-63.08C2997.96,-60.75 3906.94,-48.54 4187,-19 4189.89,-18.7 4192.86,-18.32 4195.85,-17.89"/>
</g>
<!-- IPacketMarker -->
<g id="node32" class="node">
<title>IPacketMarker</title>
<g id="a_node32"><a xlink:href="inet.queueing.contract.IPacketMarker.html" xlink:title="Module Interface IPacketMarker" target="_parent">
<polygon fill="#fffcaf" stroke="black" stroke-dasharray="5,2" points="4376,-19 4290,-19 4290,0 4376,0 4376,-19"/>
<text text-anchor="middle" x="4333" y="-7" font-family="Helvetica,sans-Serif" font-size="10.00">IPacketMarker</text>
</a>
</g>
</g>
<!-- IPacketFlow&#45;&gt;IPacketMarker -->
<g id="edge31" class="edge">
<title>IPacketFlow&#45;&gt;IPacketMarker</title>
<path fill="none" stroke="black" d="M2801.71,-63.07C3005.9,-60.66 3981.02,-47.79 4281,-19 4283.91,-18.72 4286.91,-18.38 4289.93,-17.99"/>
</g>
<!-- IPacketMeter -->
<g id="node33" class="node">
<title>IPacketMeter</title>
<g id="a_node33"><a xlink:href="inet.queueing.contract.IPacketMeter.html" xlink:title="Module Interface IPacketMeter" target="_parent">
<polygon fill="#fffcaf" stroke="black" stroke-dasharray="5,2" points="4474,-19 4394,-19 4394,0 4474,0 4474,-19"/>
<text text-anchor="middle" x="4434" y="-7" font-family="Helvetica,sans-Serif" font-size="10.00">IPacketMeter</text>
</a>
</g>
</g>
<!-- IPacketFlow&#45;&gt;IPacketMeter -->
<g id="edge32" class="edge">
<title>IPacketFlow&#45;&gt;IPacketMeter</title>
<path fill="none" stroke="black" d="M2801.83,-63.2C3014.54,-61.43 4063.37,-51.14 4385,-19 4387.92,-18.71 4390.93,-18.34 4393.95,-17.93"/>
</g>
<!-- IProtocolHeaderInserter -->
<g id="node34" class="node">
<title>IProtocolHeaderInserter</title>
<g id="a_node34"><a xlink:href="inet.protocolelement.contract.IProtocolHeaderInserter.html" xlink:title="Module Interface IProtocolHeaderInserter" target="_parent">
<polygon fill="#fffcaf" stroke="black" stroke-dasharray="5,2" points="4624,-19 4492,-19 4492,0 4624,0 4624,-19"/>
<text text-anchor="middle" x="4558" y="-7" font-family="Helvetica,sans-Serif" font-size="10.00">IProtocolHeaderInserter</text>
</a>
</g>
</g>
<!-- IPacketFlow&#45;&gt;IProtocolHeaderInserter -->
<g id="edge33" class="edge">
<title>IPacketFlow&#45;&gt;IProtocolHeaderInserter</title>
<path fill="none" stroke="black" d="M2801.56,-63.74C2985.53,-64.64 3809.93,-65.76 4483,-19 4485.88,-18.8 4488.81,-18.57 4491.78,-18.32"/>
</g>
<!-- IPacketSink -->
<g id="node2" class="node">
<title>IPacketSink</title>
<g id="a_node2"><a xlink:href="inet.queueing.contract.IPacketSink.html" xlink:title="Module Interface IPacketSink" target="_parent">
<polygon fill="#fffcaf" stroke="black" stroke-dasharray="5,2" points="2752.5,-129 2679.5,-129 2679.5,-110 2752.5,-110 2752.5,-129"/>
<text text-anchor="middle" x="2716" y="-117" font-family="Helvetica,sans-Serif" font-size="10.00">IPacketSink</text>
</a>
</g>
</g>
<!-- IPacketSink&#45;&gt;IPacketFlow -->
<g id="edge1" class="edge">
<title>IPacketSink&#45;&gt;IPacketFlow</title>
<path fill="none" stroke="black" d="M2723.93,-109.75C2732.87,-99.87 2747.34,-83.9 2756.22,-74.09"/>
</g>
<!-- IPacketSource -->
<g id="node3" class="node">
<title>IPacketSource</title>
<g id="a_node3"><a xlink:href="inet.queueing.contract.IPacketSource.html" xlink:title="Module Interface IPacketSource" target="_parent">
<polygon fill="#fffcaf" stroke="black" stroke-dasharray="5,2" points="2855.5,-129 2770.5,-129 2770.5,-110 2855.5,-110 2855.5,-129"/>
<text text-anchor="middle" x="2813" y="-117" font-family="Helvetica,sans-Serif" font-size="10.00">IPacketSource</text>
</a>
</g>
</g>
<!-- IPacketSource&#45;&gt;IPacketFlow -->
<g id="edge2" class="edge">
<title>IPacketSource&#45;&gt;IPacketFlow</title>
<path fill="none" stroke="black" d="M2804.91,-109.75C2795.78,-99.87 2781.01,-83.9 2771.94,-74.09"/>
</g>
</g>
</svg>
