<?xml version="1.0" encoding="UTF-8" standalone="no"?>
<!DOCTYPE svg PUBLIC "-//W3C//DTD SVG 1.1//EN"
 "http://www.w3.org/Graphics/SVG/1.1/DTD/svg11.dtd">
<!-- Generated by graphviz version 2.43.0 (0)
 -->
<!-- Title: opp Pages: 1 -->
<svg width="281pt" height="82pt"
 viewBox="0.00 0.00 280.50 82.00" xmlns="http://www.w3.org/2000/svg" xmlns:xlink="http://www.w3.org/1999/xlink">
<g id="graph0" class="graph" transform="scale(1 1) rotate(0) translate(4 78)">
<title>opp</title>
<polygon fill="transparent" stroke="transparent" points="-4,4 -4,-78 276.5,-78 276.5,4 -4,4"/>
<!-- Network1 -->
<g id="node1" class="node">
<title>Network1</title>
<g id="a_node1"><a xlink:href="inet.tutorials.protocol.Network1.html" xlink:title="Network Network1" target="_parent">
<polygon fill="#9090ff" stroke="black" points="163,-74 99,-74 99,-55 163,-55 163,-74"/>
<text text-anchor="middle" x="131" y="-62" font-family="Helvetica,sans-Serif" font-size="10.00">Network1</text>
</a>
</g>
</g>
<!-- ClientHost1 -->
<g id="node2" class="node">
<title>ClientHost1</title>
<g id="a_node2"><a xlink:href="inet.tutorials.protocol.ClientHost1.html" xlink:title="Compound Module ClientHost1" target="_parent">
<polygon fill="#fffcaf" stroke="black" points="74,-19 0,-19 0,0 74,0 74,-19"/>
<text text-anchor="middle" x="37" y="-7" font-family="Helvetica,sans-Serif" font-size="10.00">ClientHost1</text>
</a>
</g>
</g>
<!-- Network1&#45;&gt;ClientHost1 -->
<g id="edge1" class="edge">
<title>Network1&#45;&gt;ClientHost1</title>
<path fill="none" stroke="black" d="M115.9,-54.98C101.18,-46.69 78.58,-33.94 61.33,-24.22"/>
<polygon fill="black" stroke="black" points="62.81,-21.03 52.38,-19.17 59.37,-27.13 62.81,-21.03"/>
</g>
<!-- ServerHost1 -->
<g id="node3" class="node">
<title>ServerHost1</title>
<g id="a_node3"><a xlink:href="inet.tutorials.protocol.ServerHost1.html" xlink:title="Compound Module ServerHost1" target="_parent">
<polygon fill="#fffcaf" stroke="black" points="169.5,-19 92.5,-19 92.5,0 169.5,0 169.5,-19"/>
<text text-anchor="middle" x="131" y="-7" font-family="Helvetica,sans-Serif" font-size="10.00">ServerHost1</text>
</a>
</g>
</g>
<!-- Network1&#45;&gt;ServerHost1 -->
<g id="edge2" class="edge">
<title>Network1&#45;&gt;ServerHost1</title>
<path fill="none" stroke="black" d="M131,-54.75C131,-47.8 131,-37.85 131,-29.13"/>
<polygon fill="black" stroke="black" points="134.5,-29.09 131,-19.09 127.5,-29.09 134.5,-29.09"/>
</g>
<!-- DelayChannel -->
<g id="node4" class="node">
<title>DelayChannel</title>
<g id="a_node4"><a xlink:href="ned.DelayChannel.html" xlink:title="Channel DelayChannel" target="_parent">
<polygon fill="#d0ffd0" stroke="black" points="272.5,-19 187.5,-19 187.5,0 272.5,0 272.5,-19"/>
<text text-anchor="middle" x="230" y="-7" font-family="Helvetica,sans-Serif" font-size="10.00">DelayChannel</text>
</a>
</g>
</g>
<!-- Network1&#45;&gt;DelayChannel -->
<g id="edge3" class="edge">
<title>Network1&#45;&gt;DelayChannel</title>
<path fill="none" stroke="black" d="M146.91,-54.98C162.55,-46.61 186.66,-33.7 204.88,-23.95"/>
<polygon fill="black" stroke="black" points="206.64,-26.98 213.8,-19.17 203.34,-20.8 206.64,-26.98"/>
</g>
</g>
</svg>
