<?xml version="1.0" encoding="UTF-8" standalone="no"?>
<!DOCTYPE svg PUBLIC "-//W3C//DTD SVG 1.1//EN"
 "http://www.w3.org/Graphics/SVG/1.1/DTD/svg11.dtd">
<!-- Generated by graphviz version 2.43.0 (0)
 -->
<!-- Title: opp Pages: 1 -->
<svg width="206pt" height="82pt"
 viewBox="0.00 0.00 205.50 82.00" xmlns="http://www.w3.org/2000/svg" xmlns:xlink="http://www.w3.org/1999/xlink">
<g id="graph0" class="graph" transform="scale(1 1) rotate(0) translate(4 78)">
<title>opp</title>
<polygon fill="transparent" stroke="transparent" points="-4,4 -4,-78 201.5,-78 201.5,4 -4,4"/>
<!-- TwoHosts -->
<g id="node1" class="node">
<title>TwoHosts</title>
<g id="a_node1"><a xlink:href="inet.examples.ethernet.lans.TwoHosts.html" xlink:title="Network TwoHosts" target="_parent">
<polygon fill="#9090ff" stroke="black" points="125.5,-74 62.5,-74 62.5,-55 125.5,-55 125.5,-74"/>
<text text-anchor="middle" x="94" y="-62" font-family="Helvetica,sans-Serif" font-size="10.00">TwoHosts</text>
</a>
</g>
</g>
<!-- EthernetHost -->
<g id="node2" class="node">
<title>EthernetHost</title>
<g id="a_node2"><a xlink:href="inet.node.ethernet.EthernetHost.html" xlink:title="Compound Module EthernetHost" target="_parent">
<polygon fill="#fffcaf" stroke="black" points="80,-19 0,-19 0,0 80,0 80,-19"/>
<text text-anchor="middle" x="40" y="-7" font-family="Helvetica,sans-Serif" font-size="10.00">EthernetHost</text>
</a>
</g>
</g>
<!-- TwoHosts&#45;&gt;EthernetHost -->
<g id="edge1" class="edge">
<title>TwoHosts&#45;&gt;EthernetHost</title>
<path fill="none" stroke="black" d="M85.08,-54.75C77.22,-47.03 65.57,-35.6 56.08,-26.28"/>
<polygon fill="black" stroke="black" points="58.34,-23.6 48.75,-19.09 53.44,-28.59 58.34,-23.6"/>
</g>
<!-- DatarateChannel -->
<g id="node3" class="node">
<title>DatarateChannel</title>
<g id="a_node3"><a xlink:href="ned.DatarateChannel.html" xlink:title="Channel DatarateChannel" target="_parent">
<polygon fill="#d0ffd0" stroke="black" points="197.5,-19 98.5,-19 98.5,0 197.5,0 197.5,-19"/>
<text text-anchor="middle" x="148" y="-7" font-family="Helvetica,sans-Serif" font-size="10.00">DatarateChannel</text>
</a>
</g>
</g>
<!-- TwoHosts&#45;&gt;DatarateChannel -->
<g id="edge2" class="edge">
<title>TwoHosts&#45;&gt;DatarateChannel</title>
<path fill="none" stroke="black" d="M102.92,-54.75C110.78,-47.03 122.43,-35.6 131.92,-26.28"/>
<polygon fill="black" stroke="black" points="134.56,-28.59 139.25,-19.09 129.66,-23.6 134.56,-28.59"/>
</g>
</g>
</svg>
