<?xml version="1.0" encoding="UTF-8" standalone="no"?>
<!DOCTYPE svg PUBLIC "-//W3C//DTD SVG 1.1//EN"
 "http://www.w3.org/Graphics/SVG/1.1/DTD/svg11.dtd">
<!-- Generated by graphviz version 2.43.0 (0)
 -->
<!-- Title: opp Pages: 1 -->
<svg width="298pt" height="82pt"
 viewBox="0.00 0.00 298.00 82.00" xmlns="http://www.w3.org/2000/svg" xmlns:xlink="http://www.w3.org/1999/xlink">
<g id="graph0" class="graph" transform="scale(1 1) rotate(0) translate(4 78)">
<title>opp</title>
<polygon fill="transparent" stroke="transparent" points="-4,4 -4,-78 294,-78 294,4 -4,4"/>
<!-- RTPUnicast2 -->
<g id="node1" class="node">
<title>RTPUnicast2</title>
<g id="a_node1"><a xlink:href="inet.examples.rtp.unicast2.RTPUnicast2.html" xlink:title="Network RTPUnicast2" target="_parent">
<polygon fill="#9090ff" stroke="black" points="185,-74 107,-74 107,-55 185,-55 185,-74"/>
<text text-anchor="middle" x="146" y="-62" font-family="Helvetica,sans-Serif" font-size="10.00">RTPUnicast2</text>
</a>
</g>
</g>
<!-- ethernet -->
<g id="node2" class="node">
<title>ethernet</title>
<g id="a_node2"><a xlink:href="inet.examples.rtp.unicast2.RTPUnicast2.ethernet.html" xlink:title="Channel ethernet" target="_parent">
<polygon fill="#d0ffd0" stroke="black" points="58,-19 0,-19 0,0 58,0 58,-19"/>
<text text-anchor="middle" x="29" y="-7" font-family="Helvetica,sans-Serif" font-size="10.00">ethernet</text>
</a>
</g>
</g>
<!-- RTPUnicast2&#45;&gt;ethernet -->
<g id="edge1" class="edge">
<title>RTPUnicast2&#45;&gt;ethernet</title>
<path fill="none" stroke="black" d="M127.2,-54.98C108.38,-46.46 79.18,-33.23 57.5,-23.41"/>
<polygon fill="black" stroke="black" points="58.69,-20.11 48.14,-19.17 55.8,-26.48 58.69,-20.11"/>
</g>
<!-- Ipv4NetworkConfigurator -->
<g id="node3" class="node">
<title>Ipv4NetworkConfigurator</title>
<g id="a_node3"><a xlink:href="inet.networklayer.configurator.ipv4.Ipv4NetworkConfigurator.html" xlink:title="Simple Module Ipv4NetworkConfigurator" target="_parent">
<polygon fill="#fffcaf" stroke="black" points="216,-19 76,-19 76,0 216,0 216,-19"/>
<text text-anchor="middle" x="146" y="-7" font-family="Helvetica,sans-Serif" font-size="10.00">Ipv4NetworkConfigurator</text>
</a>
</g>
</g>
<!-- RTPUnicast2&#45;&gt;Ipv4NetworkConfigurator -->
<g id="edge2" class="edge">
<title>RTPUnicast2&#45;&gt;Ipv4NetworkConfigurator</title>
<path fill="none" stroke="black" d="M146,-54.75C146,-47.8 146,-37.85 146,-29.13"/>
<polygon fill="black" stroke="black" points="149.5,-29.09 146,-19.09 142.5,-29.09 149.5,-29.09"/>
</g>
<!-- RtpHost -->
<g id="node4" class="node">
<title>RtpHost</title>
<g id="a_node4"><a xlink:href="inet.node.rtp.RtpHost.html" xlink:title="Compound Module RtpHost" target="_parent">
<polygon fill="#fffcaf" stroke="black" points="290,-19 234,-19 234,0 290,0 290,-19"/>
<text text-anchor="middle" x="262" y="-7" font-family="Helvetica,sans-Serif" font-size="10.00">RtpHost</text>
</a>
</g>
</g>
<!-- RTPUnicast2&#45;&gt;RtpHost -->
<g id="edge3" class="edge">
<title>RTPUnicast2&#45;&gt;RtpHost</title>
<path fill="none" stroke="black" d="M164.64,-54.98C183.3,-46.46 212.25,-33.23 233.74,-23.41"/>
<polygon fill="black" stroke="black" points="235.38,-26.51 243.02,-19.17 232.47,-20.14 235.38,-26.51"/>
</g>
</g>
</svg>
