<?xml version="1.0" encoding="UTF-8" standalone="no"?>
<!DOCTYPE svg PUBLIC "-//W3C//DTD SVG 1.1//EN"
 "http://www.w3.org/Graphics/SVG/1.1/DTD/svg11.dtd">
<!-- Generated by graphviz version 2.43.0 (0)
 -->
<!-- Title: opp Pages: 1 -->
<svg width="643pt" height="137pt"
 viewBox="0.00 0.00 642.50 137.00" xmlns="http://www.w3.org/2000/svg" xmlns:xlink="http://www.w3.org/1999/xlink">
<g id="graph0" class="graph" transform="scale(1 1) rotate(0) translate(4 133)">
<title>opp</title>
<polygon fill="transparent" stroke="transparent" points="-4,4 -4,-133 638.5,-133 638.5,4 -4,4"/>
<!-- ResponseProducer -->
<g id="node1" class="node">
<title>ResponseProducer</title>
<g id="a_node1"><a xlink:href="inet.queueing.source.ResponseProducer.html" xlink:title="Compound Module ResponseProducer" target="_parent">
<polygon fill="#fff700" stroke="black" points="326.5,-74 219.5,-74 219.5,-55 326.5,-55 326.5,-74"/>
<text text-anchor="middle" x="273" y="-62" font-family="Helvetica,sans-Serif" font-size="10.00">ResponseProducer</text>
</a>
</g>
</g>
<!-- IdealChannel -->
<g id="node2" class="node">
<title>IdealChannel</title>
<g id="a_node2"><a xlink:href="ned.IdealChannel.html" xlink:title="Channel IdealChannel" target="_parent">
<polygon fill="#d0ffd0" stroke="black" points="80,-19 0,-19 0,0 80,0 80,-19"/>
<text text-anchor="middle" x="40" y="-7" font-family="Helvetica,sans-Serif" font-size="10.00">IdealChannel</text>
</a>
</g>
</g>
<!-- ResponseProducer&#45;&gt;IdealChannel -->
<g id="edge1" class="edge">
<title>ResponseProducer&#45;&gt;IdealChannel</title>
<path fill="none" stroke="black" d="M235.56,-54.98C195.35,-45.84 131.32,-31.27 87.56,-21.32"/>
<polygon fill="black" stroke="black" points="88.26,-17.89 77.73,-19.08 86.7,-24.71 88.26,-17.89"/>
</g>
<!-- PacketMultiplexer -->
<g id="node3" class="node">
<title>PacketMultiplexer</title>
<g id="a_node3"><a xlink:href="inet.queueing.common.PacketMultiplexer.html" xlink:title="Simple Module PacketMultiplexer" target="_parent">
<polygon fill="#fffcaf" stroke="black" points="202,-19 98,-19 98,0 202,0 202,-19"/>
<text text-anchor="middle" x="150" y="-7" font-family="Helvetica,sans-Serif" font-size="10.00">PacketMultiplexer</text>
</a>
</g>
</g>
<!-- ResponseProducer&#45;&gt;PacketMultiplexer -->
<g id="edge2" class="edge">
<title>ResponseProducer&#45;&gt;PacketMultiplexer</title>
<path fill="none" stroke="black" d="M253.24,-54.98C233.27,-46.38 202.2,-32.99 179.35,-23.15"/>
<polygon fill="black" stroke="black" points="180.69,-19.91 170.12,-19.17 177.92,-26.34 180.69,-19.91"/>
</g>
<!-- TokenBasedServer -->
<g id="node4" class="node">
<title>TokenBasedServer</title>
<g id="a_node4"><a xlink:href="inet.queueing.server.TokenBasedServer.html" xlink:title="Simple Module TokenBasedServer" target="_parent">
<polygon fill="#fffcaf" stroke="black" points="326,-19 220,-19 220,0 326,0 326,-19"/>
<text text-anchor="middle" x="273" y="-7" font-family="Helvetica,sans-Serif" font-size="10.00">TokenBasedServer</text>
</a>
</g>
</g>
<!-- ResponseProducer&#45;&gt;TokenBasedServer -->
<g id="edge3" class="edge">
<title>ResponseProducer&#45;&gt;TokenBasedServer</title>
<path fill="none" stroke="black" d="M273,-54.75C273,-47.8 273,-37.85 273,-29.13"/>
<polygon fill="black" stroke="black" points="276.5,-29.09 273,-19.09 269.5,-29.09 276.5,-29.09"/>
</g>
<!-- SignalBasedTokenGenerator -->
<g id="node5" class="node">
<title>SignalBasedTokenGenerator</title>
<g id="a_node5"><a xlink:href="inet.queueing.tokengenerator.SignalBasedTokenGenerator.html" xlink:title="Simple Module SignalBasedTokenGenerator" target="_parent">
<polygon fill="#fffcaf" stroke="black" points="497.5,-19 344.5,-19 344.5,0 497.5,0 497.5,-19"/>
<text text-anchor="middle" x="421" y="-7" font-family="Helvetica,sans-Serif" font-size="10.00">SignalBasedTokenGenerator</text>
</a>
</g>
</g>
<!-- ResponseProducer&#45;&gt;SignalBasedTokenGenerator -->
<g id="edge4" class="edge">
<title>ResponseProducer&#45;&gt;SignalBasedTokenGenerator</title>
<path fill="none" stroke="black" d="M296.78,-54.98C321.23,-46.23 359.53,-32.51 387.15,-22.62"/>
<polygon fill="black" stroke="black" points="388.55,-25.84 396.79,-19.17 386.19,-19.25 388.55,-25.84"/>
</g>
<!-- PassivePacketSource -->
<g id="node6" class="node">
<title>PassivePacketSource</title>
<g id="a_node6"><a xlink:href="inet.queueing.source.PassivePacketSource.html" xlink:title="Simple Module PassivePacketSource" target="_parent">
<polygon fill="#fffcaf" stroke="black" points="634.5,-19 515.5,-19 515.5,0 634.5,0 634.5,-19"/>
<text text-anchor="middle" x="575" y="-7" font-family="Helvetica,sans-Serif" font-size="10.00">PassivePacketSource</text>
</a>
</g>
</g>
<!-- ResponseProducer&#45;&gt;PassivePacketSource -->
<g id="edge5" class="edge">
<title>ResponseProducer&#45;&gt;PassivePacketSource</title>
<path fill="none" stroke="black" d="M321.52,-54.98C374.61,-45.67 459.69,-30.74 516.44,-20.78"/>
<polygon fill="black" stroke="black" points="517.1,-24.21 526.35,-19.04 515.89,-17.32 517.1,-24.21"/>
</g>
<!-- RequestResponseTutorialStep -->
<g id="node7" class="node">
<title>RequestResponseTutorialStep</title>
<g id="a_node7"><a xlink:href="inet.tutorials.queueing.RequestResponseTutorialStep.html" xlink:title="Network RequestResponseTutorialStep" target="_parent">
<polygon fill="#d0d0ff" stroke="black" points="353.5,-129 192.5,-129 192.5,-110 353.5,-110 353.5,-129"/>
<text text-anchor="middle" x="273" y="-117" font-family="Helvetica,sans-Serif" font-size="10.00">RequestResponseTutorialStep</text>
</a>
</g>
</g>
<!-- RequestResponseTutorialStep&#45;&gt;ResponseProducer -->
<g id="edge6" class="edge">
<title>RequestResponseTutorialStep&#45;&gt;ResponseProducer</title>
<path fill="none" stroke="black" d="M273,-109.75C273,-102.8 273,-92.85 273,-84.13"/>
<polygon fill="black" stroke="black" points="276.5,-84.09 273,-74.09 269.5,-84.09 276.5,-84.09"/>
</g>
</g>
</svg>
