<?xml version="1.0" encoding="UTF-8" standalone="no"?>
<!DOCTYPE svg PUBLIC "-//W3C//DTD SVG 1.1//EN"
 "http://www.w3.org/Graphics/SVG/1.1/DTD/svg11.dtd">
<!-- Generated by graphviz version 2.43.0 (0)
 -->
<!-- Title: opp Pages: 1 -->
<svg width="477pt" height="82pt"
 viewBox="0.00 0.00 476.50 82.00" xmlns="http://www.w3.org/2000/svg" xmlns:xlink="http://www.w3.org/1999/xlink">
<g id="graph0" class="graph" transform="scale(1 1) rotate(0) translate(4 78)">
<title>opp</title>
<polygon fill="transparent" stroke="transparent" points="-4,4 -4,-78 472.5,-78 472.5,4 -4,4"/>
<!-- Ieee8021rProtocol -->
<g id="node1" class="node">
<title>Ieee8021rProtocol</title>
<g id="a_node1"><a xlink:href="inet.linklayer.ieee8021r.Ieee8021rProtocol.html" xlink:title="Compound Module Ieee8021rProtocol" target="_parent">
<polygon fill="#fff700" stroke="black" points="238.5,-74 133.5,-74 133.5,-55 238.5,-55 238.5,-74"/>
<text text-anchor="middle" x="186" y="-62" font-family="Helvetica,sans-Serif" font-size="10.00">Ieee8021rProtocol</text>
</a>
</g>
</g>
<!-- IdealChannel -->
<g id="node2" class="node">
<title>IdealChannel</title>
<g id="a_node2"><a xlink:href="ned.IdealChannel.html" xlink:title="Channel IdealChannel" target="_parent">
<polygon fill="#d0ffd0" stroke="black" points="80,-19 0,-19 0,0 80,0 80,-19"/>
<text text-anchor="middle" x="40" y="-7" font-family="Helvetica,sans-Serif" font-size="10.00">IdealChannel</text>
</a>
</g>
</g>
<!-- Ieee8021rProtocol&#45;&gt;IdealChannel -->
<g id="edge1" class="edge">
<title>Ieee8021rProtocol&#45;&gt;IdealChannel</title>
<path fill="none" stroke="black" d="M162.54,-54.98C138.42,-46.23 100.63,-32.51 73.4,-22.62"/>
<polygon fill="black" stroke="black" points="74.48,-19.29 63.88,-19.17 72.09,-25.87 74.48,-19.29"/>
</g>
<!-- IIeee8021rTagEpdHeaderInserter -->
<g id="node3" class="node">
<title>IIeee8021rTagEpdHeaderInserter</title>
<g id="a_node3"><a xlink:href="inet.linklayer.ieee8021r.IIeee8021rTagEpdHeaderInserter.html" xlink:title="Module Interface IIeee8021rTagEpdHeaderInserter" target="_parent">
<polygon fill="#fffcaf" stroke="black" stroke-dasharray="5,2" points="274,-19 98,-19 98,0 274,0 274,-19"/>
<text text-anchor="middle" x="186" y="-7" font-family="Helvetica,sans-Serif" font-size="10.00">IIeee8021rTagEpdHeaderInserter</text>
</a>
</g>
</g>
<!-- Ieee8021rProtocol&#45;&gt;IIeee8021rTagEpdHeaderInserter -->
<g id="edge2" class="edge">
<title>Ieee8021rProtocol&#45;&gt;IIeee8021rTagEpdHeaderInserter</title>
<path fill="none" stroke="black" d="M186,-54.75C186,-47.8 186,-37.85 186,-29.13"/>
<polygon fill="black" stroke="black" points="189.5,-29.09 186,-19.09 182.5,-29.09 189.5,-29.09"/>
</g>
<!-- IIeee8021rTagEpdHeaderChecker -->
<g id="node4" class="node">
<title>IIeee8021rTagEpdHeaderChecker</title>
<g id="a_node4"><a xlink:href="inet.linklayer.ieee8021r.IIeee8021rTagEpdHeaderChecker.html" xlink:title="Module Interface IIeee8021rTagEpdHeaderChecker" target="_parent">
<polygon fill="#fffcaf" stroke="black" stroke-dasharray="5,2" points="468.5,-19 291.5,-19 291.5,0 468.5,0 468.5,-19"/>
<text text-anchor="middle" x="380" y="-7" font-family="Helvetica,sans-Serif" font-size="10.00">IIeee8021rTagEpdHeaderChecker</text>
</a>
</g>
</g>
<!-- Ieee8021rProtocol&#45;&gt;IIeee8021rTagEpdHeaderChecker -->
<g id="edge3" class="edge">
<title>Ieee8021rProtocol&#45;&gt;IIeee8021rTagEpdHeaderChecker</title>
<path fill="none" stroke="black" d="M217.17,-54.98C250.16,-45.97 302.4,-31.7 338.77,-21.76"/>
<polygon fill="black" stroke="black" points="339.86,-25.09 348.59,-19.08 338.02,-18.34 339.86,-25.09"/>
</g>
</g>
</svg>
