<?xml version="1.0" encoding="UTF-8" standalone="no"?>
<!DOCTYPE svg PUBLIC "-//W3C//DTD SVG 1.1//EN"
 "http://www.w3.org/Graphics/SVG/1.1/DTD/svg11.dtd">
<!-- Generated by graphviz version 2.43.0 (0)
 -->
<!-- Title: opp Pages: 1 -->
<svg width="666pt" height="137pt"
 viewBox="0.00 0.00 665.50 137.00" xmlns="http://www.w3.org/2000/svg" xmlns:xlink="http://www.w3.org/1999/xlink">
<g id="graph0" class="graph" transform="scale(1 1) rotate(0) translate(4 133)">
<title>opp</title>
<polygon fill="transparent" stroke="transparent" points="-4,4 -4,-133 661.5,-133 661.5,4 -4,4"/>
<!-- ClientHost4 -->
<g id="node1" class="node">
<title>ClientHost4</title>
<g id="a_node1"><a xlink:href="inet.tutorials.protocol.ClientHost4.html" xlink:title="Compound Module ClientHost4" target="_parent">
<polygon fill="#fff700" stroke="black" points="361.5,-74 287.5,-74 287.5,-55 361.5,-55 361.5,-74"/>
<text text-anchor="middle" x="324.5" y="-62" font-family="Helvetica,sans-Serif" font-size="10.00">ClientHost4</text>
</a>
</g>
</g>
<!-- ActivePacketSource -->
<g id="node2" class="node">
<title>ActivePacketSource</title>
<g id="a_node2"><a xlink:href="inet.queueing.source.ActivePacketSource.html" xlink:title="Simple Module ActivePacketSource" target="_parent">
<polygon fill="#fffcaf" stroke="black" points="113,-19 0,-19 0,0 113,0 113,-19"/>
<text text-anchor="middle" x="56.5" y="-7" font-family="Helvetica,sans-Serif" font-size="10.00">ActivePacketSource</text>
</a>
</g>
</g>
<!-- ClientHost4&#45;&gt;ActivePacketSource -->
<g id="edge1" class="edge">
<title>ClientHost4&#45;&gt;ActivePacketSource</title>
<path fill="none" stroke="black" d="M287.24,-56.13C241.12,-47.01 162.28,-31.42 109.78,-21.04"/>
<polygon fill="black" stroke="black" points="110.14,-17.54 99.65,-19.03 108.78,-24.41 110.14,-17.54"/>
</g>
<!-- IdealChannel -->
<g id="node3" class="node">
<title>IdealChannel</title>
<g id="a_node3"><a xlink:href="ned.IdealChannel.html" xlink:title="Channel IdealChannel" target="_parent">
<polygon fill="#d0ffd0" stroke="black" points="211.5,-19 131.5,-19 131.5,0 211.5,0 211.5,-19"/>
<text text-anchor="middle" x="171.5" y="-7" font-family="Helvetica,sans-Serif" font-size="10.00">IdealChannel</text>
</a>
</g>
</g>
<!-- ClientHost4&#45;&gt;IdealChannel -->
<g id="edge2" class="edge">
<title>ClientHost4&#45;&gt;IdealChannel</title>
<path fill="none" stroke="black" d="M299.92,-54.98C274.45,-46.16 234.46,-32.31 205.87,-22.41"/>
<polygon fill="black" stroke="black" points="206.87,-19.05 196.27,-19.08 204.58,-25.66 206.87,-19.05"/>
</g>
<!-- PacketQueue -->
<g id="node4" class="node">
<title>PacketQueue</title>
<g id="a_node4"><a xlink:href="inet.queueing.queue.PacketQueue.html" xlink:title="Simple Module PacketQueue" target="_parent">
<polygon fill="#fffcaf" stroke="black" points="309.5,-19 229.5,-19 229.5,0 309.5,0 309.5,-19"/>
<text text-anchor="middle" x="269.5" y="-7" font-family="Helvetica,sans-Serif" font-size="10.00">PacketQueue</text>
</a>
</g>
</g>
<!-- ClientHost4&#45;&gt;PacketQueue -->
<g id="edge3" class="edge">
<title>ClientHost4&#45;&gt;PacketQueue</title>
<path fill="none" stroke="black" d="M315.42,-54.75C307.41,-47.03 295.54,-35.6 285.88,-26.28"/>
<polygon fill="black" stroke="black" points="288.04,-23.51 278.41,-19.09 283.19,-28.55 288.04,-23.51"/>
</g>
<!-- FcsHeaderInserter -->
<g id="node5" class="node">
<title>FcsHeaderInserter</title>
<g id="a_node5"><a xlink:href="inet.protocolelement.checksum.FcsHeaderInserter.html" xlink:title="Simple Module FcsHeaderInserter" target="_parent">
<polygon fill="#fffcaf" stroke="black" points="433.5,-19 327.5,-19 327.5,0 433.5,0 433.5,-19"/>
<text text-anchor="middle" x="380.5" y="-7" font-family="Helvetica,sans-Serif" font-size="10.00">FcsHeaderInserter</text>
</a>
</g>
</g>
<!-- ClientHost4&#45;&gt;FcsHeaderInserter -->
<g id="edge4" class="edge">
<title>ClientHost4&#45;&gt;FcsHeaderInserter</title>
<path fill="none" stroke="black" d="M333.5,-54.98C341.69,-47.23 354.01,-35.58 363.97,-26.14"/>
<polygon fill="black" stroke="black" points="366.48,-28.59 371.34,-19.17 361.67,-23.5 366.48,-28.59"/>
</g>
<!-- PacketTransmitter -->
<g id="node6" class="node">
<title>PacketTransmitter</title>
<g id="a_node6"><a xlink:href="inet.protocolelement.transceiver.PacketTransmitter.html" xlink:title="Simple Module PacketTransmitter" target="_parent">
<polygon fill="#fffcaf" stroke="black" points="557,-19 452,-19 452,0 557,0 557,-19"/>
<text text-anchor="middle" x="504.5" y="-7" font-family="Helvetica,sans-Serif" font-size="10.00">PacketTransmitter</text>
</a>
</g>
</g>
<!-- ClientHost4&#45;&gt;PacketTransmitter -->
<g id="edge5" class="edge">
<title>ClientHost4&#45;&gt;PacketTransmitter</title>
<path fill="none" stroke="black" d="M353.42,-54.98C383.77,-46.05 431.67,-31.94 465.38,-22.02"/>
<polygon fill="black" stroke="black" points="466.75,-25.26 475.35,-19.08 464.77,-18.55 466.75,-25.26"/>
</g>
<!-- InstantServer -->
<g id="node7" class="node">
<title>InstantServer</title>
<g id="a_node7"><a xlink:href="inet.queueing.server.InstantServer.html" xlink:title="Simple Module InstantServer" target="_parent">
<polygon fill="#fffcaf" stroke="black" points="657.5,-19 575.5,-19 575.5,0 657.5,0 657.5,-19"/>
<text text-anchor="middle" x="616.5" y="-7" font-family="Helvetica,sans-Serif" font-size="10.00">InstantServer</text>
</a>
</g>
</g>
<!-- ClientHost4&#45;&gt;InstantServer -->
<g id="edge6" class="edge">
<title>ClientHost4&#45;&gt;InstantServer</title>
<path fill="none" stroke="black" d="M361.78,-56.73C413.41,-47.36 506.9,-30.39 565.12,-19.83"/>
<polygon fill="black" stroke="black" points="566,-23.22 575.21,-17.99 564.75,-16.34 566,-23.22"/>
</g>
<!-- Network4 -->
<g id="node8" class="node">
<title>Network4</title>
<g id="a_node8"><a xlink:href="inet.tutorials.protocol.Network4.html" xlink:title="Network Network4" target="_parent">
<polygon fill="#d0d0ff" stroke="black" points="356.5,-129 292.5,-129 292.5,-110 356.5,-110 356.5,-129"/>
<text text-anchor="middle" x="324.5" y="-117" font-family="Helvetica,sans-Serif" font-size="10.00">Network4</text>
</a>
</g>
</g>
<!-- Network4&#45;&gt;ClientHost4 -->
<g id="edge7" class="edge">
<title>Network4&#45;&gt;ClientHost4</title>
<path fill="none" stroke="black" d="M324.5,-109.75C324.5,-102.8 324.5,-92.85 324.5,-84.13"/>
<polygon fill="black" stroke="black" points="328,-84.09 324.5,-74.09 321,-84.09 328,-84.09"/>
</g>
</g>
</svg>
