<?xml version="1.0" encoding="UTF-8" standalone="no"?>
<!DOCTYPE svg PUBLIC "-//W3C//DTD SVG 1.1//EN"
 "http://www.w3.org/Graphics/SVG/1.1/DTD/svg11.dtd">
<!-- Generated by graphviz version 2.43.0 (0)
 -->
<!-- Title: opp Pages: 1 -->
<svg width="345pt" height="82pt"
 viewBox="0.00 0.00 345.00 82.00" xmlns="http://www.w3.org/2000/svg" xmlns:xlink="http://www.w3.org/1999/xlink">
<g id="graph0" class="graph" transform="scale(1 1) rotate(0) translate(4 78)">
<title>opp</title>
<polygon fill="transparent" stroke="transparent" points="-4,4 -4,-78 341,-78 341,4 -4,4"/>
<!-- OSPF_BackboneTest -->
<g id="node1" class="node">
<title>OSPF_BackboneTest</title>
<g id="a_node1"><a xlink:href="inet.examples.ospfv2.areatests.OSPF_BackboneTest.html" xlink:title="Network OSPF_BackboneTest" target="_parent">
<polygon fill="#9090ff" stroke="black" points="247,-74 132,-74 132,-55 247,-55 247,-74"/>
<text text-anchor="middle" x="189.5" y="-62" font-family="Helvetica,sans-Serif" font-size="10.00">OSPF_BackboneTest</text>
</a>
</g>
</g>
<!-- ScenarioManager -->
<g id="node2" class="node">
<title>ScenarioManager</title>
<g id="a_node2"><a xlink:href="inet.common.scenario.ScenarioManager.html" xlink:title="Simple Module ScenarioManager" target="_parent">
<polygon fill="#fffcaf" stroke="black" points="101,-19 0,-19 0,0 101,0 101,-19"/>
<text text-anchor="middle" x="50.5" y="-7" font-family="Helvetica,sans-Serif" font-size="10.00">ScenarioManager</text>
</a>
</g>
</g>
<!-- OSPF_BackboneTest&#45;&gt;ScenarioManager -->
<g id="edge1" class="edge">
<title>OSPF_BackboneTest&#45;&gt;ScenarioManager</title>
<path fill="none" stroke="black" d="M167.17,-54.98C144.3,-46.27 108.54,-32.63 82.64,-22.75"/>
<polygon fill="black" stroke="black" points="83.83,-19.46 73.24,-19.17 81.34,-26 83.83,-19.46"/>
</g>
<!-- Ipv4NetworkConfigurator -->
<g id="node3" class="node">
<title>Ipv4NetworkConfigurator</title>
<g id="a_node3"><a xlink:href="inet.networklayer.configurator.ipv4.Ipv4NetworkConfigurator.html" xlink:title="Simple Module Ipv4NetworkConfigurator" target="_parent">
<polygon fill="#fffcaf" stroke="black" points="259.5,-19 119.5,-19 119.5,0 259.5,0 259.5,-19"/>
<text text-anchor="middle" x="189.5" y="-7" font-family="Helvetica,sans-Serif" font-size="10.00">Ipv4NetworkConfigurator</text>
</a>
</g>
</g>
<!-- OSPF_BackboneTest&#45;&gt;Ipv4NetworkConfigurator -->
<g id="edge2" class="edge">
<title>OSPF_BackboneTest&#45;&gt;Ipv4NetworkConfigurator</title>
<path fill="none" stroke="black" d="M189.5,-54.75C189.5,-47.8 189.5,-37.85 189.5,-29.13"/>
<polygon fill="black" stroke="black" points="193,-29.09 189.5,-19.09 186,-29.09 193,-29.09"/>
</g>
<!-- TestArea -->
<g id="node4" class="node">
<title>TestArea</title>
<g id="a_node4"><a xlink:href="inet.examples.ospfv2.areatests.TestArea.html" xlink:title="Compound Module TestArea" target="_parent">
<polygon fill="#fffcaf" stroke="black" points="337,-19 278,-19 278,0 337,0 337,-19"/>
<text text-anchor="middle" x="307.5" y="-7" font-family="Helvetica,sans-Serif" font-size="10.00">TestArea</text>
</a>
</g>
</g>
<!-- OSPF_BackboneTest&#45;&gt;TestArea -->
<g id="edge3" class="edge">
<title>OSPF_BackboneTest&#45;&gt;TestArea</title>
<path fill="none" stroke="black" d="M208.46,-54.98C227.53,-46.42 257.16,-33.11 279.05,-23.28"/>
<polygon fill="black" stroke="black" points="280.51,-26.46 288.2,-19.17 277.64,-20.07 280.51,-26.46"/>
</g>
</g>
</svg>
