<?xml version="1.0" encoding="UTF-8" standalone="no"?>
<!DOCTYPE svg PUBLIC "-//W3C//DTD SVG 1.1//EN"
 "http://www.w3.org/Graphics/SVG/1.1/DTD/svg11.dtd">
<!-- Generated by graphviz version 2.43.0 (0)
 -->
<!-- Title: opp Pages: 1 -->
<svg width="433pt" height="82pt"
 viewBox="0.00 0.00 433.00 82.00" xmlns="http://www.w3.org/2000/svg" xmlns:xlink="http://www.w3.org/1999/xlink">
<g id="graph0" class="graph" transform="scale(1 1) rotate(0) translate(4 78)">
<title>opp</title>
<polygon fill="transparent" stroke="transparent" points="-4,4 -4,-78 429,-78 429,4 -4,4"/>
<!-- Ieee802154NarrowbandInterface -->
<g id="node1" class="node">
<title>Ieee802154NarrowbandInterface</title>
<g id="a_node1"><a xlink:href="inet.linklayer.ieee802154.Ieee802154NarrowbandInterface.html" xlink:title="Compound Module Ieee802154NarrowbandInterface" target="_parent">
<polygon fill="#fff700" stroke="black" points="328.5,-74 152.5,-74 152.5,-55 328.5,-55 328.5,-74"/>
<text text-anchor="middle" x="240.5" y="-62" font-family="Helvetica,sans-Serif" font-size="10.00">Ieee802154NarrowbandInterface</text>
</a>
</g>
</g>
<!-- Ieee802154NarrowbandMac -->
<g id="node2" class="node">
<title>Ieee802154NarrowbandMac</title>
<g id="a_node2"><a xlink:href="inet.linklayer.ieee802154.Ieee802154NarrowbandMac.html" xlink:title="Compound Module Ieee802154NarrowbandMac" target="_parent">
<polygon fill="#fffcaf" stroke="black" points="153,-19 0,-19 0,0 153,0 153,-19"/>
<text text-anchor="middle" x="76.5" y="-7" font-family="Helvetica,sans-Serif" font-size="10.00">Ieee802154NarrowbandMac</text>
</a>
</g>
</g>
<!-- Ieee802154NarrowbandInterface&#45;&gt;Ieee802154NarrowbandMac -->
<g id="edge1" class="edge">
<title>Ieee802154NarrowbandInterface&#45;&gt;Ieee802154NarrowbandMac</title>
<path fill="none" stroke="black" d="M214.15,-54.98C186.74,-46.13 143.61,-32.19 112.94,-22.28"/>
<polygon fill="black" stroke="black" points="113.65,-18.83 103.06,-19.08 111.5,-25.49 113.65,-18.83"/>
</g>
<!-- IRadio -->
<g id="node3" class="node">
<title>IRadio</title>
<g id="a_node3"><a xlink:href="inet.physicallayer.wireless.common.contract.packetlevel.IRadio.html" xlink:title="Module Interface IRadio" target="_parent">
<polygon fill="#fffcaf" stroke="black" stroke-dasharray="5,2" points="225.5,-19 171.5,-19 171.5,0 225.5,0 225.5,-19"/>
<text text-anchor="middle" x="198.5" y="-7" font-family="Helvetica,sans-Serif" font-size="10.00">IRadio</text>
</a>
</g>
</g>
<!-- Ieee802154NarrowbandInterface&#45;&gt;IRadio -->
<g id="edge2" class="edge">
<title>Ieee802154NarrowbandInterface&#45;&gt;IRadio</title>
<path fill="none" stroke="black" d="M233.56,-54.75C227.63,-47.26 218.93,-36.28 211.68,-27.13"/>
<polygon fill="black" stroke="black" points="214.26,-24.75 205.31,-19.09 208.77,-29.1 214.26,-24.75"/>
</g>
<!-- IdealChannel -->
<g id="node4" class="node">
<title>IdealChannel</title>
<g id="a_node4"><a xlink:href="ned.IdealChannel.html" xlink:title="Channel IdealChannel" target="_parent">
<polygon fill="#d0ffd0" stroke="black" points="323.5,-19 243.5,-19 243.5,0 323.5,0 323.5,-19"/>
<text text-anchor="middle" x="283.5" y="-7" font-family="Helvetica,sans-Serif" font-size="10.00">IdealChannel</text>
</a>
</g>
</g>
<!-- Ieee802154NarrowbandInterface&#45;&gt;IdealChannel -->
<g id="edge3" class="edge">
<title>Ieee802154NarrowbandInterface&#45;&gt;IdealChannel</title>
<path fill="none" stroke="black" d="M247.6,-54.75C253.67,-47.26 262.59,-36.28 270.01,-27.13"/>
<polygon fill="black" stroke="black" points="272.95,-29.06 276.53,-19.09 267.51,-24.65 272.95,-29.06"/>
</g>
<!-- IPacketQueue -->
<g id="node5" class="node">
<title>IPacketQueue</title>
<g id="a_node5"><a xlink:href="inet.queueing.contract.IPacketQueue.html" xlink:title="Module Interface IPacketQueue" target="_parent">
<polygon fill="#fffcaf" stroke="black" stroke-dasharray="5,2" points="425,-19 342,-19 342,0 425,0 425,-19"/>
<text text-anchor="middle" x="383.5" y="-7" font-family="Helvetica,sans-Serif" font-size="10.00">IPacketQueue</text>
</a>
</g>
</g>
<!-- Ieee802154NarrowbandInterface&#45;&gt;IPacketQueue -->
<g id="edge4" class="edge">
<title>Ieee802154NarrowbandInterface&#45;&gt;IPacketQueue</title>
<path fill="none" stroke="black" d="M263.48,-54.98C287,-46.27 323.79,-32.63 350.44,-22.75"/>
<polygon fill="black" stroke="black" points="351.95,-25.93 360.11,-19.17 349.51,-19.36 351.95,-25.93"/>
</g>
</g>
</svg>
