<?xml version="1.0" encoding="UTF-8" standalone="no"?>
<!DOCTYPE svg PUBLIC "-//W3C//DTD SVG 1.1//EN"
 "http://www.w3.org/Graphics/SVG/1.1/DTD/svg11.dtd">
<!-- Generated by graphviz version 2.43.0 (0)
 -->
<!-- Title: opp Pages: 1 -->
<svg width="740pt" height="82pt"
 viewBox="0.00 0.00 740.00 82.00" xmlns="http://www.w3.org/2000/svg" xmlns:xlink="http://www.w3.org/1999/xlink">
<g id="graph0" class="graph" transform="scale(1 1) rotate(0) translate(4 78)">
<title>opp</title>
<polygon fill="transparent" stroke="transparent" points="-4,4 -4,-78 736,-78 736,4 -4,4"/>
<!-- QueueBasedTokenGeneratorTutorialStep -->
<g id="node1" class="node">
<title>QueueBasedTokenGeneratorTutorialStep</title>
<g id="a_node1"><a xlink:href="inet.tutorials.queueing.QueueBasedTokenGeneratorTutorialStep.html" xlink:title="Network QueueBasedTokenGeneratorTutorialStep" target="_parent">
<polygon fill="#9090ff" stroke="black" points="472.5,-74 260.5,-74 260.5,-55 472.5,-55 472.5,-74"/>
<text text-anchor="middle" x="366.5" y="-62" font-family="Helvetica,sans-Serif" font-size="10.00">QueueBasedTokenGeneratorTutorialStep</text>
</a>
</g>
</g>
<!-- QueueBasedTokenGenerator -->
<g id="node2" class="node">
<title>QueueBasedTokenGenerator</title>
<g id="a_node2"><a xlink:href="inet.queueing.tokengenerator.QueueBasedTokenGenerator.html" xlink:title="Simple Module QueueBasedTokenGenerator" target="_parent">
<polygon fill="#fffcaf" stroke="black" points="155,-19 0,-19 0,0 155,0 155,-19"/>
<text text-anchor="middle" x="77.5" y="-7" font-family="Helvetica,sans-Serif" font-size="10.00">QueueBasedTokenGenerator</text>
</a>
</g>
</g>
<!-- QueueBasedTokenGeneratorTutorialStep&#45;&gt;QueueBasedTokenGenerator -->
<g id="edge1" class="edge">
<title>QueueBasedTokenGeneratorTutorialStep&#45;&gt;QueueBasedTokenGenerator</title>
<path fill="none" stroke="black" d="M320.07,-54.98C269.55,-45.72 188.76,-30.9 134.45,-20.94"/>
<polygon fill="black" stroke="black" points="134.76,-17.44 124.3,-19.08 133.5,-24.33 134.76,-17.44"/>
</g>
<!-- IdealChannel -->
<g id="node3" class="node">
<title>IdealChannel</title>
<g id="a_node3"><a xlink:href="ned.IdealChannel.html" xlink:title="Channel IdealChannel" target="_parent">
<polygon fill="#d0ffd0" stroke="black" points="253.5,-19 173.5,-19 173.5,0 253.5,0 253.5,-19"/>
<text text-anchor="middle" x="213.5" y="-7" font-family="Helvetica,sans-Serif" font-size="10.00">IdealChannel</text>
</a>
</g>
</g>
<!-- QueueBasedTokenGeneratorTutorialStep&#45;&gt;IdealChannel -->
<g id="edge2" class="edge">
<title>QueueBasedTokenGeneratorTutorialStep&#45;&gt;IdealChannel</title>
<path fill="none" stroke="black" d="M341.92,-54.98C316.45,-46.16 276.46,-32.31 247.87,-22.41"/>
<polygon fill="black" stroke="black" points="248.87,-19.05 238.27,-19.08 246.58,-25.66 248.87,-19.05"/>
</g>
<!-- PacketQueue -->
<g id="node4" class="node">
<title>PacketQueue</title>
<g id="a_node4"><a xlink:href="inet.queueing.queue.PacketQueue.html" xlink:title="Simple Module PacketQueue" target="_parent">
<polygon fill="#fffcaf" stroke="black" points="351.5,-19 271.5,-19 271.5,0 351.5,0 351.5,-19"/>
<text text-anchor="middle" x="311.5" y="-7" font-family="Helvetica,sans-Serif" font-size="10.00">PacketQueue</text>
</a>
</g>
</g>
<!-- QueueBasedTokenGeneratorTutorialStep&#45;&gt;PacketQueue -->
<g id="edge3" class="edge">
<title>QueueBasedTokenGeneratorTutorialStep&#45;&gt;PacketQueue</title>
<path fill="none" stroke="black" d="M357.42,-54.75C349.41,-47.03 337.54,-35.6 327.88,-26.28"/>
<polygon fill="black" stroke="black" points="330.04,-23.51 320.41,-19.09 325.19,-28.55 330.04,-23.51"/>
</g>
<!-- TokenBasedServer -->
<g id="node5" class="node">
<title>TokenBasedServer</title>
<g id="a_node5"><a xlink:href="inet.queueing.server.TokenBasedServer.html" xlink:title="Simple Module TokenBasedServer" target="_parent">
<polygon fill="#fffcaf" stroke="black" points="475.5,-19 369.5,-19 369.5,0 475.5,0 475.5,-19"/>
<text text-anchor="middle" x="422.5" y="-7" font-family="Helvetica,sans-Serif" font-size="10.00">TokenBasedServer</text>
</a>
</g>
</g>
<!-- QueueBasedTokenGeneratorTutorialStep&#45;&gt;TokenBasedServer -->
<g id="edge4" class="edge">
<title>QueueBasedTokenGeneratorTutorialStep&#45;&gt;TokenBasedServer</title>
<path fill="none" stroke="black" d="M375.5,-54.98C383.69,-47.23 396.01,-35.58 405.97,-26.14"/>
<polygon fill="black" stroke="black" points="408.48,-28.59 413.34,-19.17 403.67,-23.5 408.48,-28.59"/>
</g>
<!-- PassivePacketSource -->
<g id="node6" class="node">
<title>PassivePacketSource</title>
<g id="a_node6"><a xlink:href="inet.queueing.source.PassivePacketSource.html" xlink:title="Simple Module PassivePacketSource" target="_parent">
<polygon fill="#fffcaf" stroke="black" points="613,-19 494,-19 494,0 613,0 613,-19"/>
<text text-anchor="middle" x="553.5" y="-7" font-family="Helvetica,sans-Serif" font-size="10.00">PassivePacketSource</text>
</a>
</g>
</g>
<!-- QueueBasedTokenGeneratorTutorialStep&#45;&gt;PassivePacketSource -->
<g id="edge5" class="edge">
<title>QueueBasedTokenGeneratorTutorialStep&#45;&gt;PassivePacketSource</title>
<path fill="none" stroke="black" d="M396.54,-54.98C428.21,-46.01 478.27,-31.82 513.31,-21.89"/>
<polygon fill="black" stroke="black" points="514.55,-25.18 523.22,-19.08 512.64,-18.44 514.55,-25.18"/>
</g>
<!-- ActivePacketSink -->
<g id="node7" class="node">
<title>ActivePacketSink</title>
<g id="a_node7"><a xlink:href="inet.queueing.sink.ActivePacketSink.html" xlink:title="Simple Module ActivePacketSink" target="_parent">
<polygon fill="#fffcaf" stroke="black" points="732,-19 631,-19 631,0 732,0 732,-19"/>
<text text-anchor="middle" x="681.5" y="-7" font-family="Helvetica,sans-Serif" font-size="10.00">ActivePacketSink</text>
</a>
</g>
</g>
<!-- QueueBasedTokenGeneratorTutorialStep&#45;&gt;ActivePacketSink -->
<g id="edge6" class="edge">
<title>QueueBasedTokenGeneratorTutorialStep&#45;&gt;ActivePacketSink</title>
<path fill="none" stroke="black" d="M417.11,-54.98C472.6,-45.65 561.59,-30.67 620.79,-20.71"/>
<polygon fill="black" stroke="black" points="621.47,-24.15 630.75,-19.04 620.31,-17.25 621.47,-24.15"/>
</g>
</g>
</svg>
