<?xml version="1.0" encoding="UTF-8" standalone="no"?>
<!DOCTYPE svg PUBLIC "-//W3C//DTD SVG 1.1//EN"
 "http://www.w3.org/Graphics/SVG/1.1/DTD/svg11.dtd">
<!-- Generated by graphviz version 2.43.0 (0)
 -->
<!-- Title: opp Pages: 1 -->
<svg width="398pt" height="82pt"
 viewBox="0.00 0.00 398.00 82.00" xmlns="http://www.w3.org/2000/svg" xmlns:xlink="http://www.w3.org/1999/xlink">
<g id="graph0" class="graph" transform="scale(1 1) rotate(0) translate(4 78)">
<title>opp</title>
<polygon fill="transparent" stroke="transparent" points="-4,4 -4,-78 394,-78 394,4 -4,4"/>
<!-- ManualConfigurationShowcase -->
<g id="node1" class="node">
<title>ManualConfigurationShowcase</title>
<g id="a_node1"><a xlink:href="inet.showcases.tsn.framereplication.manualconfiguration.ManualConfigurationShowcase.html" xlink:title="Network ManualConfigurationShowcase" target="_parent">
<polygon fill="#9090ff" stroke="black" points="272.5,-74 105.5,-74 105.5,-55 272.5,-55 272.5,-74"/>
<text text-anchor="middle" x="189" y="-62" font-family="Helvetica,sans-Serif" font-size="10.00">ManualConfigurationShowcase</text>
</a>
</g>
</g>
<!-- TsnDevice -->
<g id="node2" class="node">
<title>TsnDevice</title>
<g id="a_node2"><a xlink:href="inet.node.tsn.TsnDevice.html" xlink:title="Compound Module TsnDevice" target="_parent">
<polygon fill="#fffcaf" stroke="black" points="66,-19 0,-19 0,0 66,0 66,-19"/>
<text text-anchor="middle" x="33" y="-7" font-family="Helvetica,sans-Serif" font-size="10.00">TsnDevice</text>
</a>
</g>
</g>
<!-- ManualConfigurationShowcase&#45;&gt;TsnDevice -->
<g id="edge1" class="edge">
<title>ManualConfigurationShowcase&#45;&gt;TsnDevice</title>
<path fill="none" stroke="black" d="M163.94,-54.98C137.97,-46.16 97.19,-32.31 68.04,-22.41"/>
<polygon fill="black" stroke="black" points="68.85,-18.99 58.26,-19.08 66.6,-25.61 68.85,-18.99"/>
</g>
<!-- ScenarioManager -->
<g id="node3" class="node">
<title>ScenarioManager</title>
<g id="a_node3"><a xlink:href="inet.common.scenario.ScenarioManager.html" xlink:title="Simple Module ScenarioManager" target="_parent">
<polygon fill="#fffcaf" stroke="black" points="185.5,-19 84.5,-19 84.5,0 185.5,0 185.5,-19"/>
<text text-anchor="middle" x="135" y="-7" font-family="Helvetica,sans-Serif" font-size="10.00">ScenarioManager</text>
</a>
</g>
</g>
<!-- ManualConfigurationShowcase&#45;&gt;ScenarioManager -->
<g id="edge2" class="edge">
<title>ManualConfigurationShowcase&#45;&gt;ScenarioManager</title>
<path fill="none" stroke="black" d="M180.08,-54.75C172.22,-47.03 160.57,-35.6 151.08,-26.28"/>
<polygon fill="black" stroke="black" points="153.34,-23.6 143.75,-19.09 148.44,-28.59 153.34,-23.6"/>
</g>
<!-- EthernetLink -->
<g id="node4" class="node">
<title>EthernetLink</title>
<g id="a_node4"><a xlink:href="inet.node.ethernet.EthernetLink.html" xlink:title="Channel EthernetLink" target="_parent">
<polygon fill="#d0ffd0" stroke="black" points="282,-19 204,-19 204,0 282,0 282,-19"/>
<text text-anchor="middle" x="243" y="-7" font-family="Helvetica,sans-Serif" font-size="10.00">EthernetLink</text>
</a>
</g>
</g>
<!-- ManualConfigurationShowcase&#45;&gt;EthernetLink -->
<g id="edge3" class="edge">
<title>ManualConfigurationShowcase&#45;&gt;EthernetLink</title>
<path fill="none" stroke="black" d="M197.92,-54.75C205.78,-47.03 217.43,-35.6 226.92,-26.28"/>
<polygon fill="black" stroke="black" points="229.56,-28.59 234.25,-19.09 224.66,-23.6 229.56,-28.59"/>
</g>
<!-- LocalTsnSwitch -->
<g id="node5" class="node">
<title>LocalTsnSwitch</title>
<g id="a_node5"><a xlink:href="inet.showcases.tsn.framereplication.manualconfiguration.LocalTsnSwitch.html" xlink:title="Compound Module LocalTsnSwitch" target="_parent">
<polygon fill="#fffcaf" stroke="black" points="390,-19 300,-19 300,0 390,0 390,-19"/>
<text text-anchor="middle" x="345" y="-7" font-family="Helvetica,sans-Serif" font-size="10.00">LocalTsnSwitch</text>
</a>
</g>
</g>
<!-- ManualConfigurationShowcase&#45;&gt;LocalTsnSwitch -->
<g id="edge4" class="edge">
<title>ManualConfigurationShowcase&#45;&gt;LocalTsnSwitch</title>
<path fill="none" stroke="black" d="M214.06,-54.98C240.03,-46.16 280.81,-32.31 309.96,-22.41"/>
<polygon fill="black" stroke="black" points="311.4,-25.61 319.74,-19.08 309.15,-18.99 311.4,-25.61"/>
</g>
</g>
</svg>
