<?xml version="1.0" encoding="UTF-8" standalone="no"?>
<!DOCTYPE svg PUBLIC "-//W3C//DTD SVG 1.1//EN"
 "http://www.w3.org/Graphics/SVG/1.1/DTD/svg11.dtd">
<!-- Generated by graphviz version 2.43.0 (0)
 -->
<!-- Title: opp Pages: 1 -->
<svg width="504pt" height="137pt"
 viewBox="0.00 0.00 503.50 137.00" xmlns="http://www.w3.org/2000/svg" xmlns:xlink="http://www.w3.org/1999/xlink">
<g id="graph0" class="graph" transform="scale(1 1) rotate(0) translate(4 133)">
<title>opp</title>
<polygon fill="transparent" stroke="transparent" points="-4,4 -4,-133 499.5,-133 499.5,4 -4,4"/>
<!-- QueueFiller -->
<g id="node1" class="node">
<title>QueueFiller</title>
<g id="a_node1"><a xlink:href="inet.queueing.source.QueueFiller.html" xlink:title="Compound Module QueueFiller" target="_parent">
<polygon fill="#fff700" stroke="black" points="299,-74 228,-74 228,-55 299,-55 299,-74"/>
<text text-anchor="middle" x="263.5" y="-62" font-family="Helvetica,sans-Serif" font-size="10.00">QueueFiller</text>
</a>
</g>
</g>
<!-- QueueBasedTokenGenerator -->
<g id="node2" class="node">
<title>QueueBasedTokenGenerator</title>
<g id="a_node2"><a xlink:href="inet.queueing.tokengenerator.QueueBasedTokenGenerator.html" xlink:title="Simple Module QueueBasedTokenGenerator" target="_parent">
<polygon fill="#fffcaf" stroke="black" points="155,-19 0,-19 0,0 155,0 155,-19"/>
<text text-anchor="middle" x="77.5" y="-7" font-family="Helvetica,sans-Serif" font-size="10.00">QueueBasedTokenGenerator</text>
</a>
</g>
</g>
<!-- QueueFiller&#45;&gt;QueueBasedTokenGenerator -->
<g id="edge1" class="edge">
<title>QueueFiller&#45;&gt;QueueBasedTokenGenerator</title>
<path fill="none" stroke="black" d="M233.62,-54.98C202.12,-46.01 152.33,-31.82 117.47,-21.89"/>
<polygon fill="black" stroke="black" points="118.19,-18.46 107.62,-19.08 116.28,-25.19 118.19,-18.46"/>
</g>
<!-- IdealChannel -->
<g id="node3" class="node">
<title>IdealChannel</title>
<g id="a_node3"><a xlink:href="ned.IdealChannel.html" xlink:title="Channel IdealChannel" target="_parent">
<polygon fill="#d0ffd0" stroke="black" points="253.5,-19 173.5,-19 173.5,0 253.5,0 253.5,-19"/>
<text text-anchor="middle" x="213.5" y="-7" font-family="Helvetica,sans-Serif" font-size="10.00">IdealChannel</text>
</a>
</g>
</g>
<!-- QueueFiller&#45;&gt;IdealChannel -->
<g id="edge2" class="edge">
<title>QueueFiller&#45;&gt;IdealChannel</title>
<path fill="none" stroke="black" d="M255.24,-54.75C248.04,-47.11 237.39,-35.82 228.65,-26.56"/>
<polygon fill="black" stroke="black" points="231.01,-23.96 221.6,-19.09 225.92,-28.76 231.01,-23.96"/>
</g>
<!-- IPacketServer -->
<g id="node4" class="node">
<title>IPacketServer</title>
<g id="a_node4"><a xlink:href="inet.queueing.contract.IPacketServer.html" xlink:title="Module Interface IPacketServer" target="_parent">
<polygon fill="#fffcaf" stroke="black" stroke-dasharray="5,2" points="355,-19 272,-19 272,0 355,0 355,-19"/>
<text text-anchor="middle" x="313.5" y="-7" font-family="Helvetica,sans-Serif" font-size="10.00">IPacketServer</text>
</a>
</g>
</g>
<!-- QueueFiller&#45;&gt;IPacketServer -->
<g id="edge3" class="edge">
<title>QueueFiller&#45;&gt;IPacketServer</title>
<path fill="none" stroke="black" d="M271.76,-54.75C278.96,-47.11 289.61,-35.82 298.35,-26.56"/>
<polygon fill="black" stroke="black" points="301.08,-28.76 305.4,-19.09 295.99,-23.96 301.08,-28.76"/>
</g>
<!-- IPassivePacketSource -->
<g id="node5" class="node">
<title>IPassivePacketSource</title>
<g id="a_node5"><a xlink:href="inet.queueing.contract.IPassivePacketSource.html" xlink:title="Module Interface IPassivePacketSource" target="_parent">
<polygon fill="#fffcaf" stroke="black" stroke-dasharray="5,2" points="495.5,-19 373.5,-19 373.5,0 495.5,0 495.5,-19"/>
<text text-anchor="middle" x="434.5" y="-7" font-family="Helvetica,sans-Serif" font-size="10.00">IPassivePacketSource</text>
</a>
</g>
</g>
<!-- QueueFiller&#45;&gt;IPassivePacketSource -->
<g id="edge4" class="edge">
<title>QueueFiller&#45;&gt;IPassivePacketSource</title>
<path fill="none" stroke="black" d="M290.97,-54.98C319.68,-46.09 364.92,-32.07 396.92,-22.15"/>
<polygon fill="black" stroke="black" points="398.3,-25.39 406.81,-19.08 396.22,-18.7 398.3,-25.39"/>
</g>
<!-- QueueFillerTutorialStep -->
<g id="node6" class="node">
<title>QueueFillerTutorialStep</title>
<g id="a_node6"><a xlink:href="inet.tutorials.queueing.QueueFillerTutorialStep.html" xlink:title="Network QueueFillerTutorialStep" target="_parent">
<polygon fill="#d0d0ff" stroke="black" points="328,-129 199,-129 199,-110 328,-110 328,-129"/>
<text text-anchor="middle" x="263.5" y="-117" font-family="Helvetica,sans-Serif" font-size="10.00">QueueFillerTutorialStep</text>
</a>
</g>
</g>
<!-- QueueFillerTutorialStep&#45;&gt;QueueFiller -->
<g id="edge5" class="edge">
<title>QueueFillerTutorialStep&#45;&gt;QueueFiller</title>
<path fill="none" stroke="black" d="M263.5,-109.75C263.5,-102.8 263.5,-92.85 263.5,-84.13"/>
<polygon fill="black" stroke="black" points="267,-84.09 263.5,-74.09 260,-84.09 267,-84.09"/>
</g>
</g>
</svg>
