<?xml version="1.0" encoding="UTF-8" standalone="no"?>
<!DOCTYPE svg PUBLIC "-//W3C//DTD SVG 1.1//EN"
 "http://www.w3.org/Graphics/SVG/1.1/DTD/svg11.dtd">
<!-- Generated by graphviz version 2.43.0 (0)
 -->
<!-- Title: opp Pages: 1 -->
<svg width="856pt" height="82pt"
 viewBox="0.00 0.00 855.50 82.00" xmlns="http://www.w3.org/2000/svg" xmlns:xlink="http://www.w3.org/1999/xlink">
<g id="graph0" class="graph" transform="scale(1 1) rotate(0) translate(4 78)">
<title>opp</title>
<polygon fill="transparent" stroke="transparent" points="-4,4 -4,-78 851.5,-78 851.5,4 -4,4"/>
<!-- Ipv6NetworkLayer -->
<g id="node1" class="node">
<title>Ipv6NetworkLayer</title>
<g id="a_node1"><a xlink:href="inet.networklayer.ipv6.Ipv6NetworkLayer.html" xlink:title="Compound Module Ipv6NetworkLayer" target="_parent">
<polygon fill="#fff700" stroke="black" points="480,-74 374,-74 374,-55 480,-55 480,-74"/>
<text text-anchor="middle" x="427" y="-62" font-family="Helvetica,sans-Serif" font-size="10.00">Ipv6NetworkLayer</text>
</a>
</g>
</g>
<!-- IdealChannel -->
<g id="node2" class="node">
<title>IdealChannel</title>
<g id="a_node2"><a xlink:href="ned.IdealChannel.html" xlink:title="Channel IdealChannel" target="_parent">
<polygon fill="#d0ffd0" stroke="black" points="80,-19 0,-19 0,0 80,0 80,-19"/>
<text text-anchor="middle" x="40" y="-7" font-family="Helvetica,sans-Serif" font-size="10.00">IdealChannel</text>
</a>
</g>
</g>
<!-- Ipv6NetworkLayer&#45;&gt;IdealChannel -->
<g id="edge1" class="edge">
<title>Ipv6NetworkLayer&#45;&gt;IdealChannel</title>
<path fill="none" stroke="black" d="M373.92,-57.19C309.3,-49.36 196.58,-35.21 90.05,-19.11"/>
<polygon fill="black" stroke="black" points="90.5,-15.63 80.09,-17.59 89.45,-22.56 90.5,-15.63"/>
</g>
<!-- IIpv6Tunneling -->
<g id="node3" class="node">
<title>IIpv6Tunneling</title>
<g id="a_node3"><a xlink:href="inet.networklayer.contract.IIpv6Tunneling.html" xlink:title="Module Interface IIpv6Tunneling" target="_parent">
<polygon fill="#fffcaf" stroke="black" stroke-dasharray="5,2" points="185.5,-19 98.5,-19 98.5,0 185.5,0 185.5,-19"/>
<text text-anchor="middle" x="142" y="-7" font-family="Helvetica,sans-Serif" font-size="10.00">IIpv6Tunneling</text>
</a>
</g>
</g>
<!-- Ipv6NetworkLayer&#45;&gt;IIpv6Tunneling -->
<g id="edge2" class="edge">
<title>Ipv6NetworkLayer&#45;&gt;IIpv6Tunneling</title>
<path fill="none" stroke="black" d="M381.21,-54.98C330.65,-45.58 249.35,-30.46 195.8,-20.5"/>
<polygon fill="black" stroke="black" points="196.28,-17.03 185.8,-18.65 195,-23.92 196.28,-17.03"/>
</g>
<!-- MessageDispatcher -->
<g id="node4" class="node">
<title>MessageDispatcher</title>
<g id="a_node4"><a xlink:href="inet.common.MessageDispatcher.html" xlink:title="Simple Module MessageDispatcher" target="_parent">
<polygon fill="#fffcaf" stroke="black" points="316.5,-19 203.5,-19 203.5,0 316.5,0 316.5,-19"/>
<text text-anchor="middle" x="260" y="-7" font-family="Helvetica,sans-Serif" font-size="10.00">MessageDispatcher</text>
</a>
</g>
</g>
<!-- Ipv6NetworkLayer&#45;&gt;MessageDispatcher -->
<g id="edge3" class="edge">
<title>Ipv6NetworkLayer&#45;&gt;MessageDispatcher</title>
<path fill="none" stroke="black" d="M400.17,-54.98C372.13,-46.09 327.95,-32.07 296.7,-22.15"/>
<polygon fill="black" stroke="black" points="297.63,-18.77 287.04,-19.08 295.51,-25.44 297.63,-18.77"/>
</g>
<!-- IxMIPv6Support -->
<g id="node5" class="node">
<title>IxMIPv6Support</title>
<g id="a_node5"><a xlink:href="inet.networklayer.contract.IxMIPv6Support.html" xlink:title="Module Interface IxMIPv6Support" target="_parent">
<polygon fill="#fffcaf" stroke="black" stroke-dasharray="5,2" points="427.5,-19 334.5,-19 334.5,0 427.5,0 427.5,-19"/>
<text text-anchor="middle" x="381" y="-7" font-family="Helvetica,sans-Serif" font-size="10.00">IxMIPv6Support</text>
</a>
</g>
</g>
<!-- Ipv6NetworkLayer&#45;&gt;IxMIPv6Support -->
<g id="edge4" class="edge">
<title>Ipv6NetworkLayer&#45;&gt;IxMIPv6Support</title>
<path fill="none" stroke="black" d="M419.4,-54.75C412.84,-47.18 403.18,-36.05 395.19,-26.84"/>
<polygon fill="black" stroke="black" points="397.65,-24.35 388.45,-19.09 392.37,-28.94 397.65,-24.35"/>
</g>
<!-- Ipv6 -->
<g id="node6" class="node">
<title>Ipv6</title>
<g id="a_node6"><a xlink:href="inet.networklayer.ipv6.Ipv6.html" xlink:title="Simple Module Ipv6" target="_parent">
<polygon fill="#fffcaf" stroke="black" points="500,-19 446,-19 446,0 500,0 500,-19"/>
<text text-anchor="middle" x="473" y="-7" font-family="Helvetica,sans-Serif" font-size="10.00">Ipv6</text>
</a>
</g>
</g>
<!-- Ipv6NetworkLayer&#45;&gt;Ipv6 -->
<g id="edge5" class="edge">
<title>Ipv6NetworkLayer&#45;&gt;Ipv6</title>
<path fill="none" stroke="black" d="M434.6,-54.75C441.16,-47.18 450.82,-36.05 458.81,-26.84"/>
<polygon fill="black" stroke="black" points="461.63,-28.94 465.55,-19.09 456.35,-24.35 461.63,-28.94"/>
</g>
<!-- Ipv6RoutingTable -->
<g id="node7" class="node">
<title>Ipv6RoutingTable</title>
<g id="a_node7"><a xlink:href="inet.networklayer.ipv6.Ipv6RoutingTable.html" xlink:title="Simple Module Ipv6RoutingTable" target="_parent">
<polygon fill="#fffcaf" stroke="black" points="619.5,-19 518.5,-19 518.5,0 619.5,0 619.5,-19"/>
<text text-anchor="middle" x="569" y="-7" font-family="Helvetica,sans-Serif" font-size="10.00">Ipv6RoutingTable</text>
</a>
</g>
</g>
<!-- Ipv6NetworkLayer&#45;&gt;Ipv6RoutingTable -->
<g id="edge6" class="edge">
<title>Ipv6NetworkLayer&#45;&gt;Ipv6RoutingTable</title>
<path fill="none" stroke="black" d="M449.81,-54.98C473.17,-46.27 509.7,-32.63 536.17,-22.75"/>
<polygon fill="black" stroke="black" points="537.63,-25.95 545.77,-19.17 535.18,-19.39 537.63,-25.95"/>
</g>
<!-- Icmpv6 -->
<g id="node8" class="node">
<title>Icmpv6</title>
<g id="a_node8"><a xlink:href="inet.networklayer.icmpv6.Icmpv6.html" xlink:title="Simple Module Icmpv6" target="_parent">
<polygon fill="#fffcaf" stroke="black" points="692,-19 638,-19 638,0 692,0 692,-19"/>
<text text-anchor="middle" x="665" y="-7" font-family="Helvetica,sans-Serif" font-size="10.00">Icmpv6</text>
</a>
</g>
</g>
<!-- Ipv6NetworkLayer&#45;&gt;Icmpv6 -->
<g id="edge7" class="edge">
<title>Ipv6NetworkLayer&#45;&gt;Icmpv6</title>
<path fill="none" stroke="black" d="M466.52,-54.98C505.2,-46.6 566.06,-33.3 627.95,-19.22"/>
<polygon fill="black" stroke="black" points="628.91,-22.58 637.88,-16.95 627.36,-15.76 628.91,-22.58"/>
</g>
<!-- Ipv6NeighbourDiscovery -->
<g id="node9" class="node">
<title>Ipv6NeighbourDiscovery</title>
<g id="a_node9"><a xlink:href="inet.networklayer.icmpv6.Ipv6NeighbourDiscovery.html" xlink:title="Simple Module Ipv6NeighbourDiscovery" target="_parent">
<polygon fill="#fffcaf" stroke="black" points="847.5,-19 710.5,-19 710.5,0 847.5,0 847.5,-19"/>
<text text-anchor="middle" x="779" y="-7" font-family="Helvetica,sans-Serif" font-size="10.00">Ipv6NeighbourDiscovery</text>
</a>
</g>
</g>
<!-- Ipv6NetworkLayer&#45;&gt;Ipv6NeighbourDiscovery -->
<g id="edge8" class="edge">
<title>Ipv6NetworkLayer&#45;&gt;Ipv6NeighbourDiscovery</title>
<path fill="none" stroke="black" d="M480.08,-55.51C542.1,-46.17 644.8,-30.71 712.19,-20.56"/>
<polygon fill="black" stroke="black" points="712.91,-23.99 722.28,-19.04 711.87,-17.07 712.91,-23.99"/>
</g>
</g>
</svg>
