<?xml version="1.0" encoding="UTF-8" standalone="no"?>
<!DOCTYPE svg PUBLIC "-//W3C//DTD SVG 1.1//EN"
 "http://www.w3.org/Graphics/SVG/1.1/DTD/svg11.dtd">
<!-- Generated by graphviz version 2.43.0 (0)
 -->
<!-- Title: opp Pages: 1 -->
<svg width="617pt" height="82pt"
 viewBox="0.00 0.00 616.50 82.00" xmlns="http://www.w3.org/2000/svg" xmlns:xlink="http://www.w3.org/1999/xlink">
<g id="graph0" class="graph" transform="scale(1 1) rotate(0) translate(4 78)">
<title>opp</title>
<polygon fill="transparent" stroke="transparent" points="-4,4 -4,-78 612.5,-78 612.5,4 -4,4"/>
<!-- Ieee8021qTimeAwareShaper -->
<g id="node1" class="node">
<title>Ieee8021qTimeAwareShaper</title>
<g id="a_node1"><a xlink:href="inet.linklayer.ieee8021q.Ieee8021qTimeAwareShaper.html" xlink:title="Compound Module Ieee8021qTimeAwareShaper" target="_parent">
<polygon fill="#fff700" stroke="black" points="397,-74 241,-74 241,-55 397,-55 397,-74"/>
<text text-anchor="middle" x="319" y="-62" font-family="Helvetica,sans-Serif" font-size="10.00">Ieee8021qTimeAwareShaper</text>
</a>
</g>
</g>
<!-- IPacketScheduler -->
<g id="node2" class="node">
<title>IPacketScheduler</title>
<g id="a_node2"><a xlink:href="inet.queueing.contract.IPacketScheduler.html" xlink:title="Module Interface IPacketScheduler" target="_parent">
<polygon fill="#fffcaf" stroke="black" stroke-dasharray="5,2" points="100,-19 0,-19 0,0 100,0 100,-19"/>
<text text-anchor="middle" x="50" y="-7" font-family="Helvetica,sans-Serif" font-size="10.00">IPacketScheduler</text>
</a>
</g>
</g>
<!-- Ieee8021qTimeAwareShaper&#45;&gt;IPacketScheduler -->
<g id="edge1" class="edge">
<title>Ieee8021qTimeAwareShaper&#45;&gt;IPacketScheduler</title>
<path fill="none" stroke="black" d="M275.78,-54.98C228.96,-45.76 154.19,-31.03 103.64,-21.07"/>
<polygon fill="black" stroke="black" points="104.05,-17.58 93.56,-19.08 102.69,-24.45 104.05,-17.58"/>
</g>
<!-- IdealChannel -->
<g id="node3" class="node">
<title>IdealChannel</title>
<g id="a_node3"><a xlink:href="ned.IdealChannel.html" xlink:title="Channel IdealChannel" target="_parent">
<polygon fill="#d0ffd0" stroke="black" points="198,-19 118,-19 118,0 198,0 198,-19"/>
<text text-anchor="middle" x="158" y="-7" font-family="Helvetica,sans-Serif" font-size="10.00">IdealChannel</text>
</a>
</g>
</g>
<!-- Ieee8021qTimeAwareShaper&#45;&gt;IdealChannel -->
<g id="edge2" class="edge">
<title>Ieee8021qTimeAwareShaper&#45;&gt;IdealChannel</title>
<path fill="none" stroke="black" d="M293.13,-54.98C266.22,-46.13 223.88,-32.19 193.77,-22.28"/>
<polygon fill="black" stroke="black" points="194.66,-18.88 184.07,-19.08 192.47,-25.53 194.66,-18.88"/>
</g>
<!-- IPacketClassifier -->
<g id="node4" class="node">
<title>IPacketClassifier</title>
<g id="a_node4"><a xlink:href="inet.queueing.contract.IPacketClassifier.html" xlink:title="Module Interface IPacketClassifier" target="_parent">
<polygon fill="#fffcaf" stroke="black" stroke-dasharray="5,2" points="314,-19 216,-19 216,0 314,0 314,-19"/>
<text text-anchor="middle" x="265" y="-7" font-family="Helvetica,sans-Serif" font-size="10.00">IPacketClassifier</text>
</a>
</g>
</g>
<!-- Ieee8021qTimeAwareShaper&#45;&gt;IPacketClassifier -->
<g id="edge3" class="edge">
<title>Ieee8021qTimeAwareShaper&#45;&gt;IPacketClassifier</title>
<path fill="none" stroke="black" d="M310.08,-54.75C302.22,-47.03 290.57,-35.6 281.08,-26.28"/>
<polygon fill="black" stroke="black" points="283.34,-23.6 273.75,-19.09 278.44,-28.59 283.34,-23.6"/>
</g>
<!-- IPacketBuffer -->
<g id="node5" class="node">
<title>IPacketBuffer</title>
<g id="a_node5"><a xlink:href="inet.queueing.contract.IPacketBuffer.html" xlink:title="Module Interface IPacketBuffer" target="_parent">
<polygon fill="#fffcaf" stroke="black" stroke-dasharray="5,2" points="414,-19 332,-19 332,0 414,0 414,-19"/>
<text text-anchor="middle" x="373" y="-7" font-family="Helvetica,sans-Serif" font-size="10.00">IPacketBuffer</text>
</a>
</g>
</g>
<!-- Ieee8021qTimeAwareShaper&#45;&gt;IPacketBuffer -->
<g id="edge4" class="edge">
<title>Ieee8021qTimeAwareShaper&#45;&gt;IPacketBuffer</title>
<path fill="none" stroke="black" d="M327.92,-54.75C335.78,-47.03 347.43,-35.6 356.92,-26.28"/>
<polygon fill="black" stroke="black" points="359.56,-28.59 364.25,-19.09 354.66,-23.6 359.56,-28.59"/>
</g>
<!-- IPacketQueue -->
<g id="node6" class="node">
<title>IPacketQueue</title>
<g id="a_node6"><a xlink:href="inet.queueing.contract.IPacketQueue.html" xlink:title="Module Interface IPacketQueue" target="_parent">
<polygon fill="#fffcaf" stroke="black" stroke-dasharray="5,2" points="515.5,-19 432.5,-19 432.5,0 515.5,0 515.5,-19"/>
<text text-anchor="middle" x="474" y="-7" font-family="Helvetica,sans-Serif" font-size="10.00">IPacketQueue</text>
</a>
</g>
</g>
<!-- Ieee8021qTimeAwareShaper&#45;&gt;IPacketQueue -->
<g id="edge5" class="edge">
<title>Ieee8021qTimeAwareShaper&#45;&gt;IPacketQueue</title>
<path fill="none" stroke="black" d="M343.9,-54.98C369.7,-46.16 410.22,-32.31 439.18,-22.41"/>
<polygon fill="black" stroke="black" points="440.57,-25.63 448.9,-19.08 438.31,-19.01 440.57,-25.63"/>
</g>
<!-- IPacketGate -->
<g id="node7" class="node">
<title>IPacketGate</title>
<g id="a_node7"><a xlink:href="inet.queueing.contract.IPacketGate.html" xlink:title="Module Interface IPacketGate" target="_parent">
<polygon fill="#fffcaf" stroke="black" stroke-dasharray="5,2" points="608.5,-19 533.5,-19 533.5,0 608.5,0 608.5,-19"/>
<text text-anchor="middle" x="571" y="-7" font-family="Helvetica,sans-Serif" font-size="10.00">IPacketGate</text>
</a>
</g>
</g>
<!-- Ieee8021qTimeAwareShaper&#45;&gt;IPacketGate -->
<g id="edge6" class="edge">
<title>Ieee8021qTimeAwareShaper&#45;&gt;IPacketGate</title>
<path fill="none" stroke="black" d="M359.49,-54.98C404.21,-45.58 476.13,-30.45 523.49,-20.49"/>
<polygon fill="black" stroke="black" points="524.43,-23.87 533.49,-18.39 522.99,-17.02 524.43,-23.87"/>
</g>
</g>
</svg>
