<?xml version="1.0" encoding="UTF-8" standalone="no"?>
<!DOCTYPE svg PUBLIC "-//W3C//DTD SVG 1.1//EN"
 "http://www.w3.org/Graphics/SVG/1.1/DTD/svg11.dtd">
<!-- Generated by graphviz version 2.43.0 (0)
 -->
<!-- Title: opp Pages: 1 -->
<svg width="6335pt" height="137pt"
 viewBox="0.00 0.00 6335.00 137.00" xmlns="http://www.w3.org/2000/svg" xmlns:xlink="http://www.w3.org/1999/xlink">
<g id="graph0" class="graph" transform="scale(1 1) rotate(0) translate(4 133)">
<title>opp</title>
<polygon fill="transparent" stroke="transparent" points="-4,4 -4,-133 6331,-133 6331,4 -4,4"/>
<!-- Router -->
<g id="node1" class="node">
<title>Router</title>
<g id="a_node1"><a xlink:href="inet.node.inet.Router.html" xlink:title="Compound Module Router" target="_parent">
<polygon fill="#fff700" stroke="black" points="2607,-74 2553,-74 2553,-55 2607,-55 2607,-74"/>
<text text-anchor="middle" x="2580" y="-62" font-family="Helvetica,sans-Serif" font-size="10.00">Router</text>
</a>
</g>
</g>
<!-- IdealChannel -->
<g id="node2" class="node">
<title>IdealChannel</title>
<g id="a_node2"><a xlink:href="ned.IdealChannel.html" xlink:title="Channel IdealChannel" target="_parent">
<polygon fill="#d0ffd0" stroke="black" points="2427,-19 2347,-19 2347,0 2427,0 2427,-19"/>
<text text-anchor="middle" x="2387" y="-7" font-family="Helvetica,sans-Serif" font-size="10.00">IdealChannel</text>
</a>
</g>
</g>
<!-- Router&#45;&gt;IdealChannel -->
<g id="edge1" class="edge">
<title>Router&#45;&gt;IdealChannel</title>
<path fill="none" stroke="black" d="M2552.76,-56.02C2520.23,-47.09 2465.52,-32.06 2427.91,-21.73"/>
<polygon fill="black" stroke="black" points="2428.83,-18.36 2418.26,-19.08 2426.98,-25.11 2428.83,-18.36"/>
</g>
<!-- IOspf -->
<g id="node3" class="node">
<title>IOspf</title>
<g id="a_node3"><a xlink:href="inet.routing.contract.IOspf.html" xlink:title="Module Interface IOspf" target="_parent">
<polygon fill="#fffcaf" stroke="black" stroke-dasharray="5,2" points="2499,-19 2445,-19 2445,0 2499,0 2499,-19"/>
<text text-anchor="middle" x="2472" y="-7" font-family="Helvetica,sans-Serif" font-size="10.00">IOspf</text>
</a>
</g>
</g>
<!-- Router&#45;&gt;IOspf -->
<g id="edge2" class="edge">
<title>Router&#45;&gt;IOspf</title>
<path fill="none" stroke="black" d="M2562.65,-54.98C2545.43,-46.54 2518.8,-33.47 2498.85,-23.68"/>
<polygon fill="black" stroke="black" points="2500.19,-20.43 2489.67,-19.17 2497.1,-26.72 2500.19,-20.43"/>
</g>
<!-- IPim -->
<g id="node4" class="node">
<title>IPim</title>
<g id="a_node4"><a xlink:href="inet.routing.contract.IPim.html" xlink:title="Module Interface IPim" target="_parent">
<polygon fill="#fffcaf" stroke="black" stroke-dasharray="5,2" points="2571,-19 2517,-19 2517,0 2571,0 2571,-19"/>
<text text-anchor="middle" x="2544" y="-7" font-family="Helvetica,sans-Serif" font-size="10.00">IPim</text>
</a>
</g>
</g>
<!-- Router&#45;&gt;IPim -->
<g id="edge3" class="edge">
<title>Router&#45;&gt;IPim</title>
<path fill="none" stroke="black" d="M2574.06,-54.75C2569.02,-47.34 2561.66,-36.5 2555.49,-27.41"/>
<polygon fill="black" stroke="black" points="2558.35,-25.39 2549.83,-19.09 2552.56,-29.33 2558.35,-25.39"/>
</g>
<!-- IEigrp -->
<g id="node5" class="node">
<title>IEigrp</title>
<g id="a_node5"><a xlink:href="inet.routing.contract.IEigrp.html" xlink:title="Module Interface IEigrp" target="_parent">
<polygon fill="#fffcaf" stroke="black" stroke-dasharray="5,2" points="2643,-19 2589,-19 2589,0 2643,0 2643,-19"/>
<text text-anchor="middle" x="2616" y="-7" font-family="Helvetica,sans-Serif" font-size="10.00">IEigrp</text>
</a>
</g>
</g>
<!-- Router&#45;&gt;IEigrp -->
<g id="edge4" class="edge">
<title>Router&#45;&gt;IEigrp</title>
<path fill="none" stroke="black" d="M2585.94,-54.75C2590.98,-47.34 2598.34,-36.5 2604.51,-27.41"/>
<polygon fill="black" stroke="black" points="2607.44,-29.33 2610.17,-19.09 2601.65,-25.39 2607.44,-29.33"/>
</g>
<!-- IApp -->
<g id="node6" class="node">
<title>IApp</title>
<g id="a_node6"><a xlink:href="inet.applications.contract.IApp.html" xlink:title="Module Interface IApp" target="_parent">
<polygon fill="#fffcaf" stroke="black" stroke-dasharray="5,2" points="2715,-19 2661,-19 2661,0 2715,0 2715,-19"/>
<text text-anchor="middle" x="2688" y="-7" font-family="Helvetica,sans-Serif" font-size="10.00">IApp</text>
</a>
</g>
</g>
<!-- Router&#45;&gt;IApp -->
<g id="edge5" class="edge">
<title>Router&#45;&gt;IApp</title>
<path fill="none" stroke="black" d="M2597.35,-54.98C2614.57,-46.54 2641.2,-33.47 2661.15,-23.68"/>
<polygon fill="black" stroke="black" points="2662.9,-26.72 2670.33,-19.17 2659.81,-20.43 2662.9,-26.72"/>
</g>
<!-- IBgp -->
<g id="node7" class="node">
<title>IBgp</title>
<g id="a_node7"><a xlink:href="inet.routing.contract.IBgp.html" xlink:title="Module Interface IBgp" target="_parent">
<polygon fill="#fffcaf" stroke="black" stroke-dasharray="5,2" points="2787,-19 2733,-19 2733,0 2787,0 2787,-19"/>
<text text-anchor="middle" x="2760" y="-7" font-family="Helvetica,sans-Serif" font-size="10.00">IBgp</text>
</a>
</g>
</g>
<!-- Router&#45;&gt;IBgp -->
<g id="edge6" class="edge">
<title>Router&#45;&gt;IBgp</title>
<path fill="none" stroke="black" d="M2607.34,-55.45C2638.31,-46.33 2688.93,-31.42 2723.32,-21.3"/>
<polygon fill="black" stroke="black" points="2724.39,-24.63 2732.99,-18.45 2722.41,-17.92 2724.39,-24.63"/>
</g>
<!-- ARPTest -->
<g id="node8" class="node">
<title>ARPTest</title>
<g id="a_node8"><a xlink:href="inet.examples.ethernet.arptest2.ARPTest.html" xlink:title="Network ARPTest" target="_parent">
<polygon fill="#d0d0ff" stroke="black" points="56,-129 0,-129 0,-110 56,-110 56,-129"/>
<text text-anchor="middle" x="28" y="-117" font-family="Helvetica,sans-Serif" font-size="10.00">ARPTest</text>
</a>
</g>
</g>
<!-- ARPTest&#45;&gt;Router -->
<g id="edge7" class="edge">
<title>ARPTest&#45;&gt;Router</title>
<path fill="none" stroke="black" d="M55.61,-110.05C55.74,-110.03 55.87,-110.02 56,-110 312.77,-78.58 2248.79,-67.2 2542.68,-65.68"/>
<polygon fill="black" stroke="black" points="2542.84,-69.18 2552.82,-65.63 2542.8,-62.18 2542.84,-69.18"/>
</g>
<!-- ARPTest&#45;&gt;Router -->
<g id="edge8" class="edge">
<title>ARPTest&#45;&gt;Router</title>
<path fill="none" stroke="black" d="M56.09,-113.23C62.07,-111.93 68.24,-110.7 74,-110 329.7,-78.71 2250.67,-67.3 2542.83,-65.7"/>
<polygon fill="black" stroke="black" points="2542.93,-69.2 2552.91,-65.65 2542.89,-62.2 2542.93,-69.2"/>
</g>
<!-- BulkTransfer -->
<g id="node9" class="node">
<title>BulkTransfer</title>
<g id="a_node9"><a xlink:href="inet.examples.inet.bulktransfer.BulkTransfer.html" xlink:title="Network BulkTransfer" target="_parent">
<polygon fill="#d0d0ff" stroke="black" points="152,-129 74,-129 74,-110 152,-110 152,-129"/>
<text text-anchor="middle" x="113" y="-117" font-family="Helvetica,sans-Serif" font-size="10.00">BulkTransfer</text>
</a>
</g>
</g>
<!-- BulkTransfer&#45;&gt;Router -->
<g id="edge9" class="edge">
<title>BulkTransfer&#45;&gt;Router</title>
<path fill="none" stroke="black" d="M152.22,-111.04C155.19,-110.63 158.14,-110.28 161,-110 651.44,-62.36 2274.78,-64.67 2542.47,-65.38"/>
<polygon fill="black" stroke="black" points="2542.81,-68.88 2552.82,-65.41 2542.83,-61.88 2542.81,-68.88"/>
</g>
<!-- CloudAndRouters -->
<g id="node10" class="node">
<title>CloudAndRouters</title>
<g id="a_node10"><a xlink:href="inet.examples.internetcloud.cloudandrouters.CloudAndRouters.html" xlink:title="Network CloudAndRouters" target="_parent">
<polygon fill="#d0d0ff" stroke="black" points="271.5,-129 170.5,-129 170.5,-110 271.5,-110 271.5,-129"/>
<text text-anchor="middle" x="221" y="-117" font-family="Helvetica,sans-Serif" font-size="10.00">CloudAndRouters</text>
</a>
</g>
</g>
<!-- CloudAndRouters&#45;&gt;Router -->
<g id="edge10" class="edge">
<title>CloudAndRouters&#45;&gt;Router</title>
<path fill="none" stroke="black" d="M271.69,-110.88C274.84,-110.54 277.96,-110.24 281,-110 746.83,-72.63 2283.56,-66.39 2542.73,-65.6"/>
<polygon fill="black" stroke="black" points="2542.77,-69.1 2552.76,-65.57 2542.75,-62.1 2542.77,-69.1"/>
</g>
<!-- ComplexConfiguratorNetwork -->
<g id="node11" class="node">
<title>ComplexConfiguratorNetwork</title>
<g id="a_node11"><a xlink:href="inet.examples.wireless.configurator.ComplexConfiguratorNetwork.html" xlink:title="Network ComplexConfiguratorNetwork" target="_parent">
<polygon fill="#d0d0ff" stroke="black" points="452,-129 290,-129 290,-110 452,-110 452,-129"/>
<text text-anchor="middle" x="371" y="-117" font-family="Helvetica,sans-Serif" font-size="10.00">ComplexConfiguratorNetwork</text>
</a>
</g>
</g>
<!-- ComplexConfiguratorNetwork&#45;&gt;Router -->
<g id="edge11" class="edge">
<title>ComplexConfiguratorNetwork&#45;&gt;Router</title>
<path fill="none" stroke="black" d="M452.41,-110.54C455.31,-110.34 458.18,-110.16 461,-110 1302.76,-61.48 2335.31,-64.17 2542.72,-65.26"/>
<polygon fill="black" stroke="black" points="2542.76,-68.76 2552.78,-65.32 2542.8,-61.76 2542.76,-68.76"/>
</g>
<!-- Complexer -->
<g id="node12" class="node">
<title>Complexer</title>
<g id="a_node12"><a xlink:href="inet.showcases.visualizer.canvas.transportconnection.Complexer.html" xlink:title="Network Complexer" target="_parent">
<polygon fill="#d0d0ff" stroke="black" points="540,-129 470,-129 470,-110 540,-110 540,-129"/>
<text text-anchor="middle" x="505" y="-117" font-family="Helvetica,sans-Serif" font-size="10.00">Complexer</text>
</a>
</g>
</g>
<!-- Complexer&#45;&gt;Router -->
<g id="edge12" class="edge">
<title>Complexer&#45;&gt;Router</title>
<path fill="none" stroke="black" d="M540.46,-111.12C543.34,-110.68 546.21,-110.3 549,-110 956.99,-66.44 2301.09,-65.3 2542.65,-65.46"/>
<polygon fill="black" stroke="black" points="2542.99,-68.96 2553,-65.46 2543,-61.96 2542.99,-68.96"/>
</g>
<!-- ConfiguratorA -->
<g id="node13" class="node">
<title>ConfiguratorA</title>
<g id="a_node13"><a xlink:href="inet.tutorials.configurator.ConfiguratorA.html" xlink:title="Network ConfiguratorA" target="_parent">
<polygon fill="#d0d0ff" stroke="black" points="642,-129 558,-129 558,-110 642,-110 642,-129"/>
<text text-anchor="middle" x="600" y="-117" font-family="Helvetica,sans-Serif" font-size="10.00">ConfiguratorA</text>
</a>
</g>
</g>
<!-- ConfiguratorA&#45;&gt;Router -->
<g id="edge13" class="edge">
<title>ConfiguratorA&#45;&gt;Router</title>
<path fill="none" stroke="black" d="M642.24,-110.99C645.2,-110.61 648.14,-110.27 651,-110 1037.96,-73.48 2308.44,-66.6 2542.69,-65.64"/>
<polygon fill="black" stroke="black" points="2542.77,-69.14 2552.75,-65.6 2542.74,-62.14 2542.77,-69.14"/>
</g>
<!-- ConfiguratorB -->
<g id="node14" class="node">
<title>ConfiguratorB</title>
<g id="a_node14"><a xlink:href="inet.tutorials.configurator.ConfiguratorB.html" xlink:title="Network ConfiguratorB" target="_parent">
<polygon fill="#d0d0ff" stroke="black" points="744,-129 660,-129 660,-110 744,-110 744,-129"/>
<text text-anchor="middle" x="702" y="-117" font-family="Helvetica,sans-Serif" font-size="10.00">ConfiguratorB</text>
</a>
</g>
</g>
<!-- ConfiguratorB&#45;&gt;Router -->
<g id="edge14" class="edge">
<title>ConfiguratorB&#45;&gt;Router</title>
<path fill="none" stroke="black" d="M744.24,-110.99C747.2,-110.61 750.14,-110.27 753,-110 1118.53,-75.26 2316.51,-66.96 2542.9,-65.69"/>
<polygon fill="black" stroke="black" points="2542.96,-69.19 2552.94,-65.64 2542.92,-62.19 2542.96,-69.19"/>
</g>
<!-- ConfiguratorE -->
<g id="node15" class="node">
<title>ConfiguratorE</title>
<g id="a_node15"><a xlink:href="inet.tutorials.configurator.ConfiguratorE.html" xlink:title="Network ConfiguratorE" target="_parent">
<polygon fill="#d0d0ff" stroke="black" points="845.5,-129 762.5,-129 762.5,-110 845.5,-110 845.5,-129"/>
<text text-anchor="middle" x="804" y="-117" font-family="Helvetica,sans-Serif" font-size="10.00">ConfiguratorE</text>
</a>
</g>
</g>
<!-- ConfiguratorE&#45;&gt;Router -->
<g id="edge15" class="edge">
<title>ConfiguratorE&#45;&gt;Router</title>
<path fill="none" stroke="black" d="M845.69,-111.07C848.83,-110.65 851.96,-110.29 855,-110 1199.02,-77.06 2324.09,-67.35 2542.93,-65.75"/>
<polygon fill="black" stroke="black" points="2542.97,-69.25 2552.94,-65.68 2542.92,-62.25 2542.97,-69.25"/>
</g>
<!-- DcTcpIncast -->
<g id="node16" class="node">
<title>DcTcpIncast</title>
<g id="a_node16"><a xlink:href="inet.examples.inet.dctcp.DcTcpIncast.html" xlink:title="Network DcTcpIncast" target="_parent">
<polygon fill="#d0d0ff" stroke="black" points="938,-129 864,-129 864,-110 938,-110 938,-129"/>
<text text-anchor="middle" x="901" y="-117" font-family="Helvetica,sans-Serif" font-size="10.00">DcTcpIncast</text>
</a>
</g>
</g>
<!-- DcTcpIncast&#45;&gt;Router -->
<g id="edge16" class="edge">
<title>DcTcpIncast&#45;&gt;Router</title>
<path fill="none" stroke="black" d="M938.08,-111.14C941.09,-110.69 944.09,-110.31 947,-110 1271.35,-75.82 2330.96,-67.14 2542.9,-65.73"/>
<polygon fill="black" stroke="black" points="2542.93,-69.23 2552.91,-65.66 2542.88,-62.23 2542.93,-69.23"/>
</g>
<!-- DiffservNetwork -->
<g id="node17" class="node">
<title>DiffservNetwork</title>
<g id="a_node17"><a xlink:href="inet.showcases.general.diffserv.DiffservNetwork.html" xlink:title="Network DiffservNetwork" target="_parent">
<polygon fill="#d0d0ff" stroke="black" points="1053.5,-129 956.5,-129 956.5,-110 1053.5,-110 1053.5,-129"/>
<text text-anchor="middle" x="1005" y="-117" font-family="Helvetica,sans-Serif" font-size="10.00">DiffservNetwork</text>
</a>
</g>
</g>
<!-- DiffservNetwork&#45;&gt;Router -->
<g id="edge17" class="edge">
<title>DiffservNetwork&#45;&gt;Router</title>
<path fill="none" stroke="black" d="M1045.49,-109.96C1348.91,-83.44 2337.43,-68.61 2542.68,-65.94"/>
<polygon fill="black" stroke="black" points="2542.98,-69.43 2552.94,-65.81 2542.89,-62.44 2542.98,-69.43"/>
</g>
<!-- DiffservNetwork&#45;&gt;Router -->
<g id="edge18" class="edge">
<title>DiffservNetwork&#45;&gt;Router</title>
<path fill="none" stroke="black" d="M1053.69,-110.95C1056.83,-110.59 1059.96,-110.27 1063,-110 1363.41,-83.67 2339.46,-68.85 2542.71,-66.01"/>
<polygon fill="black" stroke="black" points="2542.92,-69.5 2552.87,-65.86 2542.82,-62.5 2542.92,-69.5"/>
</g>
<!-- DiffservNetwork&#45;&gt;Router -->
<g id="edge19" class="edge">
<title>DiffservNetwork&#45;&gt;Router</title>
<path fill="none" stroke="black" d="M1053.54,-113.24C1062.87,-111.97 1072.28,-110.76 1081,-110 1378.83,-83.9 2340.75,-69.1 2542.77,-66.08"/>
<polygon fill="black" stroke="black" points="2542.93,-69.58 2552.87,-65.93 2542.82,-62.58 2542.93,-69.58"/>
</g>
<!-- FlatNet -->
<g id="node18" class="node">
<title>FlatNet</title>
<g id="a_node18"><a xlink:href="inet.examples.inet.flatnet.FlatNet.html" xlink:title="Network FlatNet" target="_parent">
<polygon fill="#d0d0ff" stroke="black" points="1126,-129 1072,-129 1072,-110 1126,-110 1126,-129"/>
<text text-anchor="middle" x="1099" y="-117" font-family="Helvetica,sans-Serif" font-size="10.00">FlatNet</text>
</a>
</g>
</g>
<!-- FlatNet&#45;&gt;Router -->
<g id="edge20" class="edge">
<title>FlatNet&#45;&gt;Router</title>
<path fill="none" stroke="black" d="M1126.02,-111.51C1129.03,-110.91 1132.07,-110.39 1135,-110 1418.88,-72.5 2344.68,-66.5 2542.56,-65.63"/>
<polygon fill="black" stroke="black" points="2542.75,-69.13 2552.74,-65.59 2542.72,-62.13 2542.75,-69.13"/>
</g>
<!-- Hierarchical -->
<g id="node19" class="node">
<title>Hierarchical</title>
<g id="a_node19"><a xlink:href="inet.examples.inet.hierarchical.Hierarchical.html" xlink:title="Network Hierarchical" target="_parent">
<polygon fill="#d0d0ff" stroke="black" points="1219.5,-129 1144.5,-129 1144.5,-110 1219.5,-110 1219.5,-129"/>
<text text-anchor="middle" x="1182" y="-117" font-family="Helvetica,sans-Serif" font-size="10.00">Hierarchical</text>
</a>
</g>
</g>
<!-- Hierarchical&#45;&gt;Router -->
<g id="edge21" class="edge">
<title>Hierarchical&#45;&gt;Router</title>
<path fill="none" stroke="black" d="M1219.59,-111.08C1222.43,-110.67 1225.25,-110.3 1228,-110 1493.39,-81.28 2353.55,-68.48 2542.91,-65.97"/>
<polygon fill="black" stroke="black" points="2542.96,-69.47 2552.92,-65.84 2542.87,-62.47 2542.96,-69.47"/>
</g>
<!-- Hierarchical99 -->
<g id="node20" class="node">
<title>Hierarchical99</title>
<g id="a_node20"><a xlink:href="inet.examples.inet.hierarchical99.Hierarchical99.html" xlink:title="Network Hierarchical99" target="_parent">
<polygon fill="#d0d0ff" stroke="black" points="1324.5,-129 1237.5,-129 1237.5,-110 1324.5,-110 1324.5,-129"/>
<text text-anchor="middle" x="1281" y="-117" font-family="Helvetica,sans-Serif" font-size="10.00">Hierarchical99</text>
</a>
</g>
</g>
<!-- Hierarchical99&#45;&gt;Router -->
<g id="edge22" class="edge">
<title>Hierarchical99&#45;&gt;Router</title>
<path fill="none" stroke="black" d="M1324.64,-110.96C1327.46,-110.59 1330.27,-110.27 1333,-110 1808.78,-62.82 2391.04,-63.91 2542.55,-65.11"/>
<polygon fill="black" stroke="black" points="2542.68,-68.61 2552.71,-65.2 2542.74,-61.62 2542.68,-68.61"/>
</g>
<!-- InterfaceTableVisualizationAdvancedFeaturesShowcase -->
<g id="node21" class="node">
<title>InterfaceTableVisualizationAdvancedFeaturesShowcase</title>
<g id="a_node21"><a xlink:href="inet.showcases.visualizer.canvas.interfacetable.InterfaceTableVisualizationAdvancedFeaturesShowcase.html" xlink:title="Network InterfaceTableVisualizationAdvancedFeaturesShowcase" target="_parent">
<polygon fill="#d0d0ff" stroke="black" points="1629.5,-129 1342.5,-129 1342.5,-110 1629.5,-110 1629.5,-129"/>
<text text-anchor="middle" x="1486" y="-117" font-family="Helvetica,sans-Serif" font-size="10.00">InterfaceTableVisualizationAdvancedFeaturesShowcase</text>
</a>
</g>
</g>
<!-- InterfaceTableVisualizationAdvancedFeaturesShowcase&#45;&gt;Router -->
<g id="edge23" class="edge">
<title>InterfaceTableVisualizationAdvancedFeaturesShowcase&#45;&gt;Router</title>
<path fill="none" stroke="black" d="M1629.61,-110.44C1632.43,-110.29 1635.23,-110.14 1638,-110 1989.51,-91.87 2414.97,-72.81 2542.28,-67.16"/>
<polygon fill="black" stroke="black" points="2542.8,-70.64 2552.64,-66.71 2542.49,-63.65 2542.8,-70.64"/>
</g>
<!-- IPv4LargeLAN -->
<g id="node22" class="node">
<title>IPv4LargeLAN</title>
<g id="a_node22"><a xlink:href="inet.examples.inet.ipv4largenet.IPv4LargeLAN.html" xlink:title="Compound Module IPv4LargeLAN" target="_parent">
<polygon fill="#fffcaf" stroke="black" points="1732.5,-129 1647.5,-129 1647.5,-110 1732.5,-110 1732.5,-129"/>
<text text-anchor="middle" x="1690" y="-117" font-family="Helvetica,sans-Serif" font-size="10.00">IPv4LargeLAN</text>
</a>
</g>
</g>
<!-- IPv4LargeLAN&#45;&gt;Router -->
<g id="edge24" class="edge">
<title>IPv4LargeLAN&#45;&gt;Router</title>
<path fill="none" stroke="black" d="M1732.52,-111.16C1735.72,-110.73 1738.91,-110.33 1742,-110 2049.97,-76.75 2424.41,-68.04 2542.48,-66.04"/>
<polygon fill="black" stroke="black" points="2542.84,-69.53 2552.78,-65.87 2542.73,-62.53 2542.84,-69.53"/>
</g>
<!-- IPv4LargeNet -->
<g id="node23" class="node">
<title>IPv4LargeNet</title>
<g id="a_node23"><a xlink:href="inet.examples.inet.ipv4largenet.IPv4LargeNet.html" xlink:title="Network IPv4LargeNet" target="_parent">
<polygon fill="#d0d0ff" stroke="black" points="1833,-129 1751,-129 1751,-110 1833,-110 1833,-129"/>
<text text-anchor="middle" x="1792" y="-117" font-family="Helvetica,sans-Serif" font-size="10.00">IPv4LargeNet</text>
</a>
</g>
</g>
<!-- IPv4LargeNet&#45;&gt;Router -->
<g id="edge25" class="edge">
<title>IPv4LargeNet&#45;&gt;Router</title>
<path fill="none" stroke="black" d="M1833.15,-111.14C1836.14,-110.72 1839.11,-110.33 1842,-110 2109.49,-79.29 2434.12,-69.03 2542.65,-66.33"/>
<polygon fill="black" stroke="black" points="2542.85,-69.82 2552.77,-66.08 2542.68,-62.82 2542.85,-69.82"/>
</g>
<!-- IPv4MediumLAN -->
<g id="node24" class="node">
<title>IPv4MediumLAN</title>
<g id="a_node24"><a xlink:href="inet.examples.inet.ipv4largenet.IPv4MediumLAN.html" xlink:title="Compound Module IPv4MediumLAN" target="_parent">
<polygon fill="#fffcaf" stroke="black" points="1949,-129 1851,-129 1851,-110 1949,-110 1949,-129"/>
<text text-anchor="middle" x="1900" y="-117" font-family="Helvetica,sans-Serif" font-size="10.00">IPv4MediumLAN</text>
</a>
</g>
</g>
<!-- IPv4MediumLAN&#45;&gt;Router -->
<g id="edge26" class="edge">
<title>IPv4MediumLAN&#45;&gt;Router</title>
<path fill="none" stroke="black" d="M1949.02,-111.06C1952.05,-110.68 1955.07,-110.32 1958,-110 2179.22,-85.91 2446.18,-71.82 2542.82,-67.2"/>
<polygon fill="black" stroke="black" points="2543.13,-70.69 2552.96,-66.72 2542.8,-63.69 2543.13,-70.69"/>
</g>
<!-- IPv4SmallLAN -->
<g id="node25" class="node">
<title>IPv4SmallLAN</title>
<g id="a_node25"><a xlink:href="inet.examples.inet.ipv4largenet.IPv4SmallLAN.html" xlink:title="Compound Module IPv4SmallLAN" target="_parent">
<polygon fill="#fffcaf" stroke="black" points="2053,-129 1967,-129 1967,-110 2053,-110 2053,-129"/>
<text text-anchor="middle" x="2010" y="-117" font-family="Helvetica,sans-Serif" font-size="10.00">IPv4SmallLAN</text>
</a>
</g>
</g>
<!-- IPv4SmallLAN&#45;&gt;Router -->
<g id="edge27" class="edge">
<title>IPv4SmallLAN&#45;&gt;Router</title>
<path fill="none" stroke="black" d="M2053.09,-111.2C2056.1,-110.77 2059.1,-110.36 2062,-110 2241.52,-87.65 2457.46,-73.02 2542.75,-67.72"/>
<polygon fill="black" stroke="black" points="2543.19,-71.2 2552.96,-67.09 2542.76,-64.21 2543.19,-71.2"/>
</g>
<!-- KIDSNw1 -->
<g id="node26" class="node">
<title>KIDSNw1</title>
<g id="a_node26"><a xlink:href="inet.examples.inet.kidsnw1.KIDSNw1.html" xlink:title="Network KIDSNw1" target="_parent">
<polygon fill="#d0d0ff" stroke="black" points="2133,-129 2071,-129 2071,-110 2133,-110 2133,-129"/>
<text text-anchor="middle" x="2102" y="-117" font-family="Helvetica,sans-Serif" font-size="10.00">KIDSNw1</text>
</a>
</g>
</g>
<!-- KIDSNw1&#45;&gt;Router -->
<g id="edge28" class="edge">
<title>KIDSNw1&#45;&gt;Router</title>
<path fill="none" stroke="black" d="M2133.38,-111.5C2136.29,-110.95 2139.19,-110.44 2142,-110 2289.67,-86.88 2467.31,-73.11 2542.97,-67.9"/>
<polygon fill="black" stroke="black" points="2543.22,-71.4 2552.96,-67.23 2542.74,-64.41 2543.22,-71.4"/>
</g>
<!-- MixedNetwork -->
<g id="node27" class="node">
<title>MixedNetwork</title>
<g id="a_node27"><a xlink:href="inet.examples.rip.mixednetwork.MixedNetwork.html" xlink:title="Network MixedNetwork" target="_parent">
<polygon fill="#d0d0ff" stroke="black" points="2239,-129 2151,-129 2151,-110 2239,-110 2239,-129"/>
<text text-anchor="middle" x="2195" y="-117" font-family="Helvetica,sans-Serif" font-size="10.00">MixedNetwork</text>
</a>
</g>
</g>
<!-- MixedNetwork&#45;&gt;Router -->
<g id="edge29" class="edge">
<title>MixedNetwork&#45;&gt;Router</title>
<path fill="none" stroke="black" d="M2239.23,-111.32C2242.2,-110.86 2245.14,-110.42 2248,-110 2354.87,-94.27 2481.45,-77.94 2542.87,-70.16"/>
<polygon fill="black" stroke="black" points="2543.37,-73.62 2552.85,-68.9 2542.49,-66.68 2543.37,-73.62"/>
</g>
<!-- multi -->
<g id="node28" class="node">
<title>multi</title>
<g id="a_node28"><a xlink:href="inet.examples.sctp.multihomed.multi.html" xlink:title="Network multi" target="_parent">
<polygon fill="#d0d0ff" stroke="black" points="2311,-129 2257,-129 2257,-110 2311,-110 2311,-129"/>
<text text-anchor="middle" x="2284" y="-117" font-family="Helvetica,sans-Serif" font-size="10.00">multi</text>
</a>
</g>
</g>
<!-- multi&#45;&gt;Router -->
<g id="edge30" class="edge">
<title>multi&#45;&gt;Router</title>
<path fill="none" stroke="black" d="M2311.09,-111.91C2314.09,-111.24 2317.11,-110.59 2320,-110 2398.97,-93.93 2492.24,-78.93 2542.82,-71.12"/>
<polygon fill="black" stroke="black" points="2543.59,-74.54 2552.95,-69.56 2542.53,-67.62 2543.59,-74.54"/>
</g>
<!-- MulticastNetwork -->
<g id="node29" class="node">
<title>MulticastNetwork</title>
<g id="a_node29"><a xlink:href="inet.examples.inet.multicast.MulticastNetwork.html" xlink:title="Network MulticastNetwork" target="_parent">
<polygon fill="#d0d0ff" stroke="black" points="2432.5,-129 2329.5,-129 2329.5,-110 2432.5,-110 2432.5,-129"/>
<text text-anchor="middle" x="2381" y="-117" font-family="Helvetica,sans-Serif" font-size="10.00">MulticastNetwork</text>
</a>
</g>
</g>
<!-- MulticastNetwork&#45;&gt;Router -->
<g id="edge31" class="edge">
<title>MulticastNetwork&#45;&gt;Router</title>
<path fill="none" stroke="black" d="M2412.97,-109.98C2448.42,-100.54 2505.53,-85.33 2542.91,-75.38"/>
<polygon fill="black" stroke="black" points="2544.14,-78.67 2552.9,-72.72 2542.34,-71.91 2544.14,-78.67"/>
</g>
<!-- multihomed -->
<g id="node30" class="node">
<title>multihomed</title>
<g id="a_node30"><a xlink:href="inet.examples.sctp.cmttest.multihomed.html" xlink:title="Network multihomed" target="_parent">
<polygon fill="#d0d0ff" stroke="black" points="2527,-129 2451,-129 2451,-110 2527,-110 2527,-129"/>
<text text-anchor="middle" x="2489" y="-117" font-family="Helvetica,sans-Serif" font-size="10.00">multihomed</text>
</a>
</g>
</g>
<!-- multihomed&#45;&gt;Router -->
<g id="edge32" class="edge">
<title>multihomed&#45;&gt;Router</title>
<path fill="none" stroke="black" d="M2503.62,-109.98C2517.86,-101.69 2539.75,-88.94 2556.45,-79.22"/>
<polygon fill="black" stroke="black" points="2558.23,-82.23 2565.11,-74.17 2554.71,-76.18 2558.23,-82.23"/>
</g>
<!-- MultiRadio -->
<g id="node31" class="node">
<title>MultiRadio</title>
<g id="a_node31"><a xlink:href="inet.examples.wireless.multiradio.MultiRadio.html" xlink:title="Network MultiRadio" target="_parent">
<polygon fill="#d0d0ff" stroke="black" points="2614.5,-129 2545.5,-129 2545.5,-110 2614.5,-110 2614.5,-129"/>
<text text-anchor="middle" x="2580" y="-117" font-family="Helvetica,sans-Serif" font-size="10.00">MultiRadio</text>
</a>
</g>
</g>
<!-- MultiRadio&#45;&gt;Router -->
<g id="edge33" class="edge">
<title>MultiRadio&#45;&gt;Router</title>
<path fill="none" stroke="black" d="M2580,-109.75C2580,-102.8 2580,-92.85 2580,-84.13"/>
<polygon fill="black" stroke="black" points="2583.5,-84.09 2580,-74.09 2576.5,-84.09 2583.5,-84.09"/>
</g>
<!-- NClients -->
<g id="node32" class="node">
<title>NClients</title>
<g id="a_node32"><a xlink:href="inet.examples.sctp.nclients.NClients.html" xlink:title="Network NClients" target="_parent">
<polygon fill="#d0d0ff" stroke="black" points="2691,-129 2633,-129 2633,-110 2691,-110 2691,-129"/>
<text text-anchor="middle" x="2662" y="-117" font-family="Helvetica,sans-Serif" font-size="10.00">NClients</text>
</a>
</g>
</g>
<!-- NClients&#45;&gt;Router -->
<g id="edge34" class="edge">
<title>NClients&#45;&gt;Router</title>
<path fill="none" stroke="black" d="M2638.6,-109.98C2622.86,-102.07 2603.66,-90.11 2591.02,-80.58"/>
<polygon fill="black" stroke="black" points="2593.09,-77.75 2583.12,-74.17 2588.68,-83.19 2593.09,-77.75"/>
</g>
<!-- NClients&#45;&gt;Router -->
<g id="edge35" class="edge">
<title>NClients&#45;&gt;Router</title>
<path fill="none" stroke="black" d="M2648.83,-109.98C2636.23,-101.84 2617,-89.41 2602.06,-79.76"/>
<polygon fill="black" stroke="black" points="2603.71,-76.66 2593.41,-74.17 2599.91,-82.54 2603.71,-76.66"/>
</g>
<!-- NClients&#45;&gt;Router -->
<g id="edge36" class="edge">
<title>NClients&#45;&gt;Router</title>
<path fill="none" stroke="black" d="M2659.05,-109.98C2649.8,-101.61 2630.39,-88.7 2612.73,-78.95"/>
<polygon fill="black" stroke="black" points="2614.19,-75.76 2603.71,-74.17 2610.91,-81.94 2614.19,-75.76"/>
</g>
<!-- NClients2 -->
<g id="node33" class="node">
<title>NClients2</title>
<g id="a_node33"><a xlink:href="inet.examples.inet.nclients.NClients2.html" xlink:title="Network NClients2" target="_parent">
<polygon fill="#d0d0ff" stroke="black" points="2773,-129 2709,-129 2709,-110 2773,-110 2773,-129"/>
<text text-anchor="middle" x="2741" y="-117" font-family="Helvetica,sans-Serif" font-size="10.00">NClients2</text>
</a>
</g>
</g>
<!-- NClients2&#45;&gt;Router -->
<g id="edge37" class="edge">
<title>NClients2&#45;&gt;Router</title>
<path fill="none" stroke="black" d="M2715.13,-109.98C2688.22,-101.13 2645.88,-87.19 2615.77,-77.28"/>
<polygon fill="black" stroke="black" points="2616.66,-73.88 2606.07,-74.08 2614.47,-80.53 2616.66,-73.88"/>
</g>
<!-- Network -->
<g id="node34" class="node">
<title>Network</title>
<g id="a_node34"><a xlink:href="inet.examples.inet.igmp.Network.html" xlink:title="Network Network" target="_parent">
<polygon fill="#d0d0ff" stroke="black" points="2849,-129 2791,-129 2791,-110 2849,-110 2849,-129"/>
<text text-anchor="middle" x="2820" y="-117" font-family="Helvetica,sans-Serif" font-size="10.00">Network</text>
</a>
</g>
</g>
<!-- Network&#45;&gt;Router -->
<g id="edge38" class="edge">
<title>Network&#45;&gt;Router</title>
<path fill="none" stroke="black" d="M2790.96,-111.99C2787.93,-111.32 2784.9,-110.64 2782,-110 2724.43,-97.22 2657.61,-82.53 2617.09,-73.63"/>
<polygon fill="black" stroke="black" points="2617.64,-70.17 2607.12,-71.45 2616.14,-77.01 2617.64,-70.17"/>
</g>
<!-- NetworkPathComplexShowcase -->
<g id="node35" class="node">
<title>NetworkPathComplexShowcase</title>
<g id="a_node35"><a xlink:href="inet.showcases.visualizer.canvas.networkpathactivity.NetworkPathComplexShowcase.html" xlink:title="Network NetworkPathComplexShowcase" target="_parent">
<polygon fill="#d0d0ff" stroke="black" points="3039,-129 2867,-129 2867,-110 3039,-110 3039,-129"/>
<text text-anchor="middle" x="2953" y="-117" font-family="Helvetica,sans-Serif" font-size="10.00">NetworkPathComplexShowcase</text>
</a>
</g>
</g>
<!-- NetworkPathComplexShowcase&#45;&gt;Router -->
<g id="edge39" class="edge">
<title>NetworkPathComplexShowcase&#45;&gt;Router</title>
<path fill="none" stroke="black" d="M2893.07,-109.98C2815.24,-98.92 2681.71,-79.95 2617.13,-70.78"/>
<polygon fill="black" stroke="black" points="2617.4,-67.28 2607.01,-69.34 2616.42,-74.21 2617.4,-67.28"/>
</g>
<!-- NetworkPathRIPShowcase -->
<g id="node36" class="node">
<title>NetworkPathRIPShowcase</title>
<g id="a_node36"><a xlink:href="inet.showcases.visualizer.canvas.networkpathactivity.NetworkPathRIPShowcase.html" xlink:title="Network NetworkPathRIPShowcase" target="_parent">
<polygon fill="#d0d0ff" stroke="black" points="3201,-129 3057,-129 3057,-110 3201,-110 3201,-129"/>
<text text-anchor="middle" x="3129" y="-117" font-family="Helvetica,sans-Serif" font-size="10.00">NetworkPathRIPShowcase</text>
</a>
</g>
</g>
<!-- NetworkPathRIPShowcase&#45;&gt;Router -->
<g id="edge40" class="edge">
<title>NetworkPathRIPShowcase&#45;&gt;Router</title>
<path fill="none" stroke="black" d="M3056.58,-110.87C3053.68,-110.57 3050.81,-110.28 3048,-110 2887.7,-93.97 2696.37,-76.2 2617.16,-68.91"/>
<polygon fill="black" stroke="black" points="2617.46,-65.42 2607.18,-67.99 2616.81,-72.39 2617.46,-65.42"/>
</g>
<!-- PacketDropQueueOverflowShowcase -->
<g id="node37" class="node">
<title>PacketDropQueueOverflowShowcase</title>
<g id="a_node37"><a xlink:href="inet.showcases.visualizer.canvas.packetdrop.PacketDropQueueOverflowShowcase.html" xlink:title="Network PacketDropQueueOverflowShowcase" target="_parent">
<polygon fill="#d0d0ff" stroke="black" points="3416.5,-129 3219.5,-129 3219.5,-110 3416.5,-110 3416.5,-129"/>
<text text-anchor="middle" x="3318" y="-117" font-family="Helvetica,sans-Serif" font-size="10.00">PacketDropQueueOverflowShowcase</text>
</a>
</g>
</g>
<!-- PacketDropQueueOverflowShowcase&#45;&gt;Router -->
<g id="edge41" class="edge">
<title>PacketDropQueueOverflowShowcase&#45;&gt;Router</title>
<path fill="none" stroke="black" d="M3219.41,-110.71C3216.24,-110.47 3213.09,-110.23 3210,-110 2984.99,-93.2 2714.64,-74.65 2617.24,-68.03"/>
<polygon fill="black" stroke="black" points="2617.24,-64.52 2607.02,-67.33 2616.76,-71.5 2617.24,-64.52"/>
</g>
<!-- PcapRecordingShowcase -->
<g id="node38" class="node">
<title>PcapRecordingShowcase</title>
<g id="a_node38"><a xlink:href="inet.showcases.general.pcaprecording.PcapRecordingShowcase.html" xlink:title="Network PcapRecordingShowcase" target="_parent">
<polygon fill="#d0d0ff" stroke="black" points="3571.5,-129 3434.5,-129 3434.5,-110 3571.5,-110 3571.5,-129"/>
<text text-anchor="middle" x="3503" y="-117" font-family="Helvetica,sans-Serif" font-size="10.00">PcapRecordingShowcase</text>
</a>
</g>
</g>
<!-- PcapRecordingShowcase&#45;&gt;Router -->
<g id="edge42" class="edge">
<title>PcapRecordingShowcase&#45;&gt;Router</title>
<path fill="none" stroke="black" d="M3434.17,-110.7C3431.41,-110.45 3428.68,-110.22 3426,-110 3113.97,-84.59 2735.96,-70.67 2617.4,-66.7"/>
<polygon fill="black" stroke="black" points="2617.18,-63.19 2607.07,-66.36 2616.94,-70.19 2617.18,-63.19"/>
</g>
<!-- RedMarkerNetwork -->
<g id="node39" class="node">
<title>RedMarkerNetwork</title>
<g id="a_node39"><a xlink:href="inet.examples.inet.redmarker.RedMarkerNetwork.html" xlink:title="Network RedMarkerNetwork" target="_parent">
<polygon fill="#d0d0ff" stroke="black" points="3700,-129 3590,-129 3590,-110 3700,-110 3700,-129"/>
<text text-anchor="middle" x="3645" y="-117" font-family="Helvetica,sans-Serif" font-size="10.00">RedMarkerNetwork</text>
</a>
</g>
</g>
<!-- RedMarkerNetwork&#45;&gt;Router -->
<g id="edge43" class="edge">
<title>RedMarkerNetwork&#45;&gt;Router</title>
<path fill="none" stroke="black" d="M3589.88,-110.87C3586.88,-110.55 3583.9,-110.26 3581,-110 3206,-76.83 2749.66,-67.94 2617.5,-65.98"/>
<polygon fill="black" stroke="black" points="2617.18,-62.48 2607.13,-65.83 2617.08,-69.48 2617.18,-62.48"/>
</g>
<!-- RegressionTestingTutorialWired -->
<g id="node40" class="node">
<title>RegressionTestingTutorialWired</title>
<g id="a_node40"><a xlink:href="inet.tutorials.fingerprint.RegressionTestingTutorialWired.html" xlink:title="Network RegressionTestingTutorialWired" target="_parent">
<polygon fill="#d0d0ff" stroke="black" points="3888,-129 3718,-129 3718,-110 3888,-110 3888,-129"/>
<text text-anchor="middle" x="3803" y="-117" font-family="Helvetica,sans-Serif" font-size="10.00">RegressionTestingTutorialWired</text>
</a>
</g>
</g>
<!-- RegressionTestingTutorialWired&#45;&gt;Router -->
<g id="edge44" class="edge">
<title>RegressionTestingTutorialWired&#45;&gt;Router</title>
<path fill="none" stroke="black" d="M3717.96,-110.62C3714.94,-110.4 3711.94,-110.19 3709,-110 3280.7,-82.21 2759.8,-69.42 2617.46,-66.29"/>
<polygon fill="black" stroke="black" points="2617.19,-62.78 2607.11,-66.06 2617.04,-69.78 2617.19,-62.78"/>
</g>
<!-- RIPInfinityCountTest -->
<g id="node41" class="node">
<title>RIPInfinityCountTest</title>
<g id="a_node41"><a xlink:href="inet.examples.rip.infinitycount.RIPInfinityCountTest.html" xlink:title="Network RIPInfinityCountTest" target="_parent">
<polygon fill="#d0d0ff" stroke="black" points="4021.5,-129 3906.5,-129 3906.5,-110 4021.5,-110 4021.5,-129"/>
<text text-anchor="middle" x="3964" y="-117" font-family="Helvetica,sans-Serif" font-size="10.00">RIPInfinityCountTest</text>
</a>
</g>
</g>
<!-- RIPInfinityCountTest&#45;&gt;Router -->
<g id="edge45" class="edge">
<title>RIPInfinityCountTest&#45;&gt;Router</title>
<path fill="none" stroke="black" d="M3906.29,-110.84C3903.15,-110.53 3900.04,-110.24 3897,-110 3391.52,-69.48 2774.03,-65.77 2617.46,-65.5"/>
<polygon fill="black" stroke="black" points="2617.4,-62 2607.4,-65.49 2617.39,-69 2617.4,-62"/>
</g>
<!-- RouterPerfNetwork -->
<g id="node42" class="node">
<title>RouterPerfNetwork</title>
<g id="a_node42"><a xlink:href="inet.examples.inet.routerperf.RouterPerfNetwork.html" xlink:title="Network RouterPerfNetwork" target="_parent">
<polygon fill="#d0d0ff" stroke="black" points="4150,-129 4040,-129 4040,-110 4150,-110 4150,-129"/>
<text text-anchor="middle" x="4095" y="-117" font-family="Helvetica,sans-Serif" font-size="10.00">RouterPerfNetwork</text>
</a>
</g>
</g>
<!-- RouterPerfNetwork&#45;&gt;Router -->
<g id="edge46" class="edge">
<title>RouterPerfNetwork&#45;&gt;Router</title>
<path fill="none" stroke="black" d="M4039.88,-110.82C4036.88,-110.51 4033.9,-110.24 4031,-110 3469.97,-64.26 2783.43,-64.46 2617.42,-65.25"/>
<polygon fill="black" stroke="black" points="2617.22,-61.76 2607.24,-65.31 2617.26,-68.76 2617.22,-61.76"/>
</g>
<!-- RoutingTableVisualizationDisplayingAllShowcase -->
<g id="node43" class="node">
<title>RoutingTableVisualizationDisplayingAllShowcase</title>
<g id="a_node43"><a xlink:href="inet.showcases.visualizer.canvas.routingtable.RoutingTableVisualizationDisplayingAllShowcase.html" xlink:title="Network RoutingTableVisualizationDisplayingAllShowcase" target="_parent">
<polygon fill="#d0d0ff" stroke="black" points="4424,-129 4168,-129 4168,-110 4424,-110 4424,-129"/>
<text text-anchor="middle" x="4296" y="-117" font-family="Helvetica,sans-Serif" font-size="10.00">RoutingTableVisualizationDisplayingAllShowcase</text>
</a>
</g>
</g>
<!-- RoutingTableVisualizationDisplayingAllShowcase&#45;&gt;Router -->
<g id="edge47" class="edge">
<title>RoutingTableVisualizationDisplayingAllShowcase&#45;&gt;Router</title>
<path fill="none" stroke="black" d="M4167.66,-110.41C4164.75,-110.26 4161.86,-110.13 4159,-110 3543.15,-82.23 2791.35,-68.92 2617.22,-66.08"/>
<polygon fill="black" stroke="black" points="2617.1,-62.58 2607.04,-65.92 2616.99,-69.58 2617.1,-62.58"/>
</g>
<!-- RoutingTableVisualizationFilteringShowcase -->
<g id="node44" class="node">
<title>RoutingTableVisualizationFilteringShowcase</title>
<g id="a_node44"><a xlink:href="inet.showcases.visualizer.canvas.routingtable.RoutingTableVisualizationFilteringShowcase.html" xlink:title="Network RoutingTableVisualizationFilteringShowcase" target="_parent">
<polygon fill="#d0d0ff" stroke="black" points="4672,-129 4442,-129 4442,-110 4672,-110 4672,-129"/>
<text text-anchor="middle" x="4557" y="-117" font-family="Helvetica,sans-Serif" font-size="10.00">RoutingTableVisualizationFilteringShowcase</text>
</a>
</g>
</g>
<!-- RoutingTableVisualizationFilteringShowcase&#45;&gt;Router -->
<g id="edge48" class="edge">
<title>RoutingTableVisualizationFilteringShowcase&#45;&gt;Router</title>
<path fill="none" stroke="black" d="M4441.83,-110.43C4438.86,-110.28 4435.91,-110.13 4433,-110 3702.65,-76.21 2809.11,-67.35 2617.34,-65.78"/>
<polygon fill="black" stroke="black" points="2617.25,-62.28 2607.22,-65.7 2617.19,-69.28 2617.25,-62.28"/>
</g>
<!-- RTPMulticast1 -->
<g id="node45" class="node">
<title>RTPMulticast1</title>
<g id="a_node45"><a xlink:href="inet.examples.rtp.multicast1.RTPMulticast1.html" xlink:title="Network RTPMulticast1" target="_parent">
<polygon fill="#d0d0ff" stroke="black" points="4776,-129 4690,-129 4690,-110 4776,-110 4776,-129"/>
<text text-anchor="middle" x="4733" y="-117" font-family="Helvetica,sans-Serif" font-size="10.00">RTPMulticast1</text>
</a>
</g>
</g>
<!-- RTPMulticast1&#45;&gt;Router -->
<g id="edge49" class="edge">
<title>RTPMulticast1&#45;&gt;Router</title>
<path fill="none" stroke="black" d="M4689.93,-110.98C4686.91,-110.6 4683.91,-110.27 4681,-110 4257.68,-71.11 2864.08,-66.15 2617.47,-65.57"/>
<polygon fill="black" stroke="black" points="2617.24,-62.07 2607.24,-65.55 2617.23,-69.07 2617.24,-62.07"/>
</g>
<!-- RTPUnicast1 -->
<g id="node46" class="node">
<title>RTPUnicast1</title>
<g id="a_node46"><a xlink:href="inet.examples.rtp.unicast1.RTPUnicast1.html" xlink:title="Network RTPUnicast1" target="_parent">
<polygon fill="#d0d0ff" stroke="black" points="4872,-129 4794,-129 4794,-110 4872,-110 4872,-129"/>
<text text-anchor="middle" x="4833" y="-117" font-family="Helvetica,sans-Serif" font-size="10.00">RTPUnicast1</text>
</a>
</g>
</g>
<!-- RTPUnicast1&#45;&gt;Router -->
<g id="edge50" class="edge">
<title>RTPUnicast1&#45;&gt;Router</title>
<path fill="none" stroke="black" d="M4793.78,-111.04C4790.81,-110.64 4787.86,-110.28 4785,-110 4339.83,-66.36 2870.55,-65.31 2617.33,-65.46"/>
<polygon fill="black" stroke="black" points="2617.17,-61.96 2607.17,-65.47 2617.18,-68.96 2617.17,-61.96"/>
</g>
<!-- SimpleContinentCloud -->
<g id="node47" class="node">
<title>SimpleContinentCloud</title>
<g id="a_node47"><a xlink:href="inet.examples.internetcloud.earthcloud.SimpleContinentCloud.html" xlink:title="Network SimpleContinentCloud" target="_parent">
<polygon fill="#d0d0ff" stroke="black" points="5015.5,-129 4890.5,-129 4890.5,-110 5015.5,-110 5015.5,-129"/>
<text text-anchor="middle" x="4953" y="-117" font-family="Helvetica,sans-Serif" font-size="10.00">SimpleContinentCloud</text>
</a>
</g>
</g>
<!-- SimpleContinentCloud&#45;&gt;Router -->
<g id="edge51" class="edge">
<title>SimpleContinentCloud&#45;&gt;Router</title>
<path fill="none" stroke="black" d="M4890.21,-110.72C4887.1,-110.45 4884.01,-110.21 4881,-110 4414.36,-78.02 2876.63,-67.31 2617.29,-65.72"/>
<polygon fill="black" stroke="black" points="2617.27,-62.22 2607.25,-65.66 2617.23,-69.22 2617.27,-62.22"/>
</g>
<!-- testNetwork -->
<g id="node48" class="node">
<title>testNetwork</title>
<g id="a_node48"><a xlink:href="inet.examples.inet.netperfmeter.testNetwork.html" xlink:title="Network testNetwork" target="_parent">
<polygon fill="#d0d0ff" stroke="black" points="5110.5,-129 5033.5,-129 5033.5,-110 5110.5,-110 5110.5,-129"/>
<text text-anchor="middle" x="5072" y="-117" font-family="Helvetica,sans-Serif" font-size="10.00">testNetwork</text>
</a>
</g>
</g>
<!-- testNetwork&#45;&gt;Router -->
<g id="edge52" class="edge">
<title>testNetwork&#45;&gt;Router</title>
<path fill="none" stroke="black" d="M5033.34,-111C5030.53,-110.61 5027.72,-110.27 5025,-110 4528.87,-60.94 2885.16,-64.44 2617.11,-65.36"/>
<polygon fill="black" stroke="black" points="2617.09,-61.86 2607.11,-65.39 2617.12,-68.86 2617.09,-61.86"/>
</g>
<!-- TransportConnectionVisualizationMultipleConnectionsShowcase -->
<g id="node49" class="node">
<title>TransportConnectionVisualizationMultipleConnectionsShowcase</title>
<g id="a_node49"><a xlink:href="inet.showcases.visualizer.canvas.transportconnection.TransportConnectionVisualizationMultipleConnectionsShowcase.html" xlink:title="Network TransportConnectionVisualizationMultipleConnectionsShowcase" target="_parent">
<polygon fill="#d0d0ff" stroke="black" points="5457.5,-129 5128.5,-129 5128.5,-110 5457.5,-110 5457.5,-129"/>
<text text-anchor="middle" x="5293" y="-117" font-family="Helvetica,sans-Serif" font-size="10.00">TransportConnectionVisualizationMultipleConnectionsShowcase</text>
</a>
</g>
</g>
<!-- TransportConnectionVisualizationMultipleConnectionsShowcase&#45;&gt;Router -->
<g id="edge53" class="edge">
<title>TransportConnectionVisualizationMultipleConnectionsShowcase&#45;&gt;Router</title>
<path fill="none" stroke="black" d="M5128.18,-110.28C5125.43,-110.18 5122.7,-110.09 5120,-110 4099.77,-76.01 2848.12,-67.11 2617.45,-65.71"/>
<polygon fill="black" stroke="black" points="2617.26,-62.21 2607.24,-65.65 2617.22,-69.21 2617.26,-62.21"/>
</g>
<!-- TransportPathVisualizerFilteringShowcase -->
<g id="node50" class="node">
<title>TransportPathVisualizerFilteringShowcase</title>
<g id="a_node50"><a xlink:href="inet.showcases.visualizer.canvas.transportpathactivity.TransportPathVisualizerFilteringShowcase.html" xlink:title="Network TransportPathVisualizerFilteringShowcase" target="_parent">
<polygon fill="#d0d0ff" stroke="black" points="5696,-129 5476,-129 5476,-110 5696,-110 5696,-129"/>
<text text-anchor="middle" x="5586" y="-117" font-family="Helvetica,sans-Serif" font-size="10.00">TransportPathVisualizerFilteringShowcase</text>
</a>
</g>
</g>
<!-- TransportPathVisualizerFilteringShowcase&#45;&gt;Router -->
<g id="edge54" class="edge">
<title>TransportPathVisualizerFilteringShowcase&#45;&gt;Router</title>
<path fill="none" stroke="black" d="M5475.8,-110.41C5472.83,-110.26 5469.9,-110.13 5467,-110 4299.95,-59.36 2865.34,-64.04 2617.35,-65.29"/>
<polygon fill="black" stroke="black" points="2617.07,-61.79 2607.08,-65.34 2617.1,-68.79 2617.07,-61.79"/>
</g>
<!-- Tunnel -->
<g id="node51" class="node">
<title>Tunnel</title>
<g id="a_node51"><a xlink:href="inet.examples.inet.tunnel.Tunnel.html" xlink:title="Network Tunnel" target="_parent">
<polygon fill="#d0d0ff" stroke="black" points="5768,-129 5714,-129 5714,-110 5768,-110 5768,-129"/>
<text text-anchor="middle" x="5741" y="-117" font-family="Helvetica,sans-Serif" font-size="10.00">Tunnel</text>
</a>
</g>
</g>
<!-- Tunnel&#45;&gt;Router -->
<g id="edge55" class="edge">
<title>Tunnel&#45;&gt;Router</title>
<path fill="none" stroke="black" d="M5713.99,-111.46C5710.97,-110.87 5707.93,-110.36 5705,-110 5383.88,-70.28 2948.04,-65.95 2617.17,-65.54"/>
<polygon fill="black" stroke="black" points="2617.14,-62.04 2607.14,-65.53 2617.13,-69.04 2617.14,-62.04"/>
</g>
<!-- UDPBroadcastNetwork -->
<g id="node52" class="node">
<title>UDPBroadcastNetwork</title>
<g id="a_node52"><a xlink:href="inet.examples.inet.broadcast.UDPBroadcastNetwork.html" xlink:title="Network UDPBroadcastNetwork" target="_parent">
<polygon fill="#d0d0ff" stroke="black" points="5914,-129 5786,-129 5786,-110 5914,-110 5914,-129"/>
<text text-anchor="middle" x="5850" y="-117" font-family="Helvetica,sans-Serif" font-size="10.00">UDPBroadcastNetwork</text>
</a>
</g>
</g>
<!-- UDPBroadcastNetwork&#45;&gt;Router -->
<g id="edge56" class="edge">
<title>UDPBroadcastNetwork&#45;&gt;Router</title>
<path fill="none" stroke="black" d="M5785.94,-110.67C5782.92,-110.42 5779.93,-110.19 5777,-110 5119.4,-67.25 2931.51,-65.52 2617.63,-65.49"/>
<polygon fill="black" stroke="black" points="2617.26,-61.99 2607.26,-65.49 2617.26,-68.99 2617.26,-61.99"/>
</g>
<!-- UDPBurst -->
<g id="node53" class="node">
<title>UDPBurst</title>
<g id="a_node53"><a xlink:href="inet.examples.inet.udpburst.UDPBurst.html" xlink:title="Network UDPBurst" target="_parent">
<polygon fill="#d0d0ff" stroke="black" points="5995.5,-129 5932.5,-129 5932.5,-110 5995.5,-110 5995.5,-129"/>
<text text-anchor="middle" x="5964" y="-117" font-family="Helvetica,sans-Serif" font-size="10.00">UDPBurst</text>
</a>
</g>
</g>
<!-- UDPBurst&#45;&gt;Router -->
<g id="edge57" class="edge">
<title>UDPBurst&#45;&gt;Router</title>
<path fill="none" stroke="black" d="M5932.31,-111.31C5929.18,-110.78 5926.04,-110.33 5923,-110 5578.12,-72.3 2961.53,-66.2 2617.32,-65.56"/>
<polygon fill="black" stroke="black" points="2617.15,-62.06 2607.14,-65.54 2617.14,-69.06 2617.15,-62.06"/>
</g>
<!-- WiredAndWirelessHostsWithAP -->
<g id="node54" class="node">
<title>WiredAndWirelessHostsWithAP</title>
<g id="a_node54"><a xlink:href="inet.examples.wireless.wiredandwirelesshostswithap.WiredAndWirelessHostsWithAP.html" xlink:title="Network WiredAndWirelessHostsWithAP" target="_parent">
<polygon fill="#d0d0ff" stroke="black" points="6182.5,-129 6013.5,-129 6013.5,-110 6182.5,-110 6182.5,-129"/>
<text text-anchor="middle" x="6098" y="-117" font-family="Helvetica,sans-Serif" font-size="10.00">WiredAndWirelessHostsWithAP</text>
</a>
</g>
</g>
<!-- WiredAndWirelessHostsWithAP&#45;&gt;Router -->
<g id="edge58" class="edge">
<title>WiredAndWirelessHostsWithAP&#45;&gt;Router</title>
<path fill="none" stroke="black" d="M6013.37,-110.48C6010.55,-110.31 6007.75,-110.14 6005,-110 5298.17,-73.16 2944.41,-66.36 2617.74,-65.58"/>
<polygon fill="black" stroke="black" points="2617.41,-62.08 2607.4,-65.56 2617.4,-69.08 2617.41,-62.08"/>
</g>
<!-- WirelessNetWithDHCP -->
<g id="node55" class="node">
<title>WirelessNetWithDHCP</title>
<g id="a_node55"><a xlink:href="inet.examples.dhcp.WirelessNetWithDHCP.html" xlink:title="Network WirelessNetWithDHCP" target="_parent">
<polygon fill="#d0d0ff" stroke="black" points="6327,-129 6201,-129 6201,-110 6327,-110 6327,-129"/>
<text text-anchor="middle" x="6264" y="-117" font-family="Helvetica,sans-Serif" font-size="10.00">WirelessNetWithDHCP</text>
</a>
</g>
</g>
<!-- WirelessNetWithDHCP&#45;&gt;Router -->
<g id="edge59" class="edge">
<title>WirelessNetWithDHCP&#45;&gt;Router</title>
<path fill="none" stroke="black" d="M6200.82,-110.66C6197.84,-110.41 6194.89,-110.19 6192,-110 5445.23,-61.45 2951.61,-64.75 2617.2,-65.42"/>
<polygon fill="black" stroke="black" points="2617.07,-61.92 2607.07,-65.44 2617.08,-68.92 2617.07,-61.92"/>
</g>
</g>
</svg>
