<?xml version="1.0" encoding="UTF-8" standalone="no"?>
<!DOCTYPE svg PUBLIC "-//W3C//DTD SVG 1.1//EN"
 "http://www.w3.org/Graphics/SVG/1.1/DTD/svg11.dtd">
<!-- Generated by graphviz version 2.43.0 (0)
 -->
<!-- Title: opp Pages: 1 -->
<svg width="423pt" height="82pt"
 viewBox="0.00 0.00 422.50 82.00" xmlns="http://www.w3.org/2000/svg" xmlns:xlink="http://www.w3.org/1999/xlink">
<g id="graph0" class="graph" transform="scale(1 1) rotate(0) translate(4 78)">
<title>opp</title>
<polygon fill="transparent" stroke="transparent" points="-4,4 -4,-78 418.5,-78 418.5,4 -4,4"/>
<!-- CloudAndHosts -->
<g id="node1" class="node">
<title>CloudAndHosts</title>
<g id="a_node1"><a xlink:href="inet.examples.internetcloud.cloudandhosts.CloudAndHosts.html" xlink:title="Network CloudAndHosts" target="_parent">
<polygon fill="#9090ff" stroke="black" points="253,-74 162,-74 162,-55 253,-55 253,-74"/>
<text text-anchor="middle" x="207.5" y="-62" font-family="Helvetica,sans-Serif" font-size="10.00">CloudAndHosts</text>
</a>
</g>
</g>
<!-- StandardHost -->
<g id="node2" class="node">
<title>StandardHost</title>
<g id="a_node2"><a xlink:href="inet.node.inet.StandardHost.html" xlink:title="Compound Module StandardHost" target="_parent">
<polygon fill="#fffcaf" stroke="black" points="83,-19 0,-19 0,0 83,0 83,-19"/>
<text text-anchor="middle" x="41.5" y="-7" font-family="Helvetica,sans-Serif" font-size="10.00">StandardHost</text>
</a>
</g>
</g>
<!-- CloudAndHosts&#45;&gt;StandardHost -->
<g id="edge1" class="edge">
<title>CloudAndHosts&#45;&gt;StandardHost</title>
<path fill="none" stroke="black" d="M180.83,-54.98C152.96,-46.09 109.05,-32.07 77.98,-22.15"/>
<polygon fill="black" stroke="black" points="78.97,-18.79 68.38,-19.08 76.84,-25.46 78.97,-18.79"/>
</g>
<!-- InternetCloud -->
<g id="node3" class="node">
<title>InternetCloud</title>
<g id="a_node3"><a xlink:href="inet.node.internetcloud.InternetCloud.html" xlink:title="Compound Module InternetCloud" target="_parent">
<polygon fill="#fffcaf" stroke="black" points="184,-19 101,-19 101,0 184,0 184,-19"/>
<text text-anchor="middle" x="142.5" y="-7" font-family="Helvetica,sans-Serif" font-size="10.00">InternetCloud</text>
</a>
</g>
</g>
<!-- CloudAndHosts&#45;&gt;InternetCloud -->
<g id="edge2" class="edge">
<title>CloudAndHosts&#45;&gt;InternetCloud</title>
<path fill="none" stroke="black" d="M197.06,-54.98C187.35,-47.07 172.68,-35.11 161,-25.58"/>
<polygon fill="black" stroke="black" points="163.1,-22.78 153.13,-19.17 158.67,-28.2 163.1,-22.78"/>
</g>
<!-- Ipv4NetworkConfigurator -->
<g id="node4" class="node">
<title>Ipv4NetworkConfigurator</title>
<g id="a_node4"><a xlink:href="inet.networklayer.configurator.ipv4.Ipv4NetworkConfigurator.html" xlink:title="Simple Module Ipv4NetworkConfigurator" target="_parent">
<polygon fill="#fffcaf" stroke="black" points="342.5,-19 202.5,-19 202.5,0 342.5,0 342.5,-19"/>
<text text-anchor="middle" x="272.5" y="-7" font-family="Helvetica,sans-Serif" font-size="10.00">Ipv4NetworkConfigurator</text>
</a>
</g>
</g>
<!-- CloudAndHosts&#45;&gt;Ipv4NetworkConfigurator -->
<g id="edge3" class="edge">
<title>CloudAndHosts&#45;&gt;Ipv4NetworkConfigurator</title>
<path fill="none" stroke="black" d="M217.94,-54.98C227.65,-47.07 242.32,-35.11 254,-25.58"/>
<polygon fill="black" stroke="black" points="256.33,-28.2 261.87,-19.17 251.9,-22.78 256.33,-28.2"/>
</g>
<!-- C -->
<g id="node5" class="node">
<title>C</title>
<g id="a_node5"><a xlink:href="inet.examples.internetcloud.cloudandhosts.CloudAndHosts.C.html" xlink:title="Channel C" target="_parent">
<polygon fill="#d0ffd0" stroke="black" points="414.5,-19 360.5,-19 360.5,0 414.5,0 414.5,-19"/>
<text text-anchor="middle" x="387.5" y="-7" font-family="Helvetica,sans-Serif" font-size="10.00">C</text>
</a>
</g>
</g>
<!-- CloudAndHosts&#45;&gt;C -->
<g id="edge4" class="edge">
<title>CloudAndHosts&#45;&gt;C</title>
<path fill="none" stroke="black" d="M236.42,-54.98C267.4,-45.86 316.67,-31.36 350.46,-21.41"/>
<polygon fill="black" stroke="black" points="351.81,-24.66 360.42,-18.47 349.84,-17.94 351.81,-24.66"/>
</g>
</g>
</svg>
