<?xml version="1.0" encoding="UTF-8" standalone="no"?>
<!DOCTYPE svg PUBLIC "-//W3C//DTD SVG 1.1//EN"
 "http://www.w3.org/Graphics/SVG/1.1/DTD/svg11.dtd">
<!-- Generated by graphviz version 2.43.0 (0)
 -->
<!-- Title: opp Pages: 1 -->
<svg width="851pt" height="82pt"
 viewBox="0.00 0.00 850.50 82.00" xmlns="http://www.w3.org/2000/svg" xmlns:xlink="http://www.w3.org/1999/xlink">
<g id="graph0" class="graph" transform="scale(1 1) rotate(0) translate(4 78)">
<title>opp</title>
<polygon fill="transparent" stroke="transparent" points="-4,4 -4,-78 846.5,-78 846.5,4 -4,4"/>
<!-- MultiRadio -->
<g id="node1" class="node">
<title>MultiRadio</title>
<g id="a_node1"><a xlink:href="inet.examples.wireless.multiradio.MultiRadio.html" xlink:title="Network MultiRadio" target="_parent">
<polygon fill="#9090ff" stroke="black" points="377.5,-74 308.5,-74 308.5,-55 377.5,-55 377.5,-74"/>
<text text-anchor="middle" x="343" y="-62" font-family="Helvetica,sans-Serif" font-size="10.00">MultiRadio</text>
</a>
</g>
</g>
<!-- IIntegratedVisualizer -->
<g id="node2" class="node">
<title>IIntegratedVisualizer</title>
<g id="a_node2"><a xlink:href="inet.visualizer.contract.IIntegratedVisualizer.html" xlink:title="Module Interface IIntegratedVisualizer" target="_parent">
<polygon fill="#fffcaf" stroke="black" stroke-dasharray="5,2" points="118,-19 0,-19 0,0 118,0 118,-19"/>
<text text-anchor="middle" x="59" y="-7" font-family="Helvetica,sans-Serif" font-size="10.00">IIntegratedVisualizer</text>
</a>
</g>
</g>
<!-- MultiRadio&#45;&gt;IIntegratedVisualizer -->
<g id="edge1" class="edge">
<title>MultiRadio&#45;&gt;IIntegratedVisualizer</title>
<path fill="none" stroke="black" d="M308.46,-57.05C260.35,-48.08 172.6,-31.7 115.05,-20.96"/>
<polygon fill="black" stroke="black" points="115.5,-17.48 105.03,-19.09 114.22,-24.37 115.5,-17.48"/>
</g>
<!-- AccessPoint -->
<g id="node3" class="node">
<title>AccessPoint</title>
<g id="a_node3"><a xlink:href="inet.node.wireless.AccessPoint.html" xlink:title="Compound Module AccessPoint" target="_parent">
<polygon fill="#fffcaf" stroke="black" points="211.5,-19 136.5,-19 136.5,0 211.5,0 211.5,-19"/>
<text text-anchor="middle" x="174" y="-7" font-family="Helvetica,sans-Serif" font-size="10.00">AccessPoint</text>
</a>
</g>
</g>
<!-- MultiRadio&#45;&gt;AccessPoint -->
<g id="edge2" class="edge">
<title>MultiRadio&#45;&gt;AccessPoint</title>
<path fill="none" stroke="black" d="M315.85,-54.98C287.47,-46.09 242.77,-32.07 211.14,-22.15"/>
<polygon fill="black" stroke="black" points="211.95,-18.73 201.37,-19.08 209.86,-25.41 211.95,-18.73"/>
</g>
<!-- Router -->
<g id="node4" class="node">
<title>Router</title>
<g id="a_node4"><a xlink:href="inet.node.inet.Router.html" xlink:title="Compound Module Router" target="_parent">
<polygon fill="#fffcaf" stroke="black" points="284,-19 230,-19 230,0 284,0 284,-19"/>
<text text-anchor="middle" x="257" y="-7" font-family="Helvetica,sans-Serif" font-size="10.00">Router</text>
</a>
</g>
</g>
<!-- MultiRadio&#45;&gt;Router -->
<g id="edge3" class="edge">
<title>MultiRadio&#45;&gt;Router</title>
<path fill="none" stroke="black" d="M329.18,-54.98C315.85,-46.77 295.42,-34.18 279.69,-24.49"/>
<polygon fill="black" stroke="black" points="281.42,-21.44 271.07,-19.17 277.75,-27.4 281.42,-21.44"/>
</g>
<!-- WirelessHost -->
<g id="node5" class="node">
<title>WirelessHost</title>
<g id="a_node5"><a xlink:href="inet.node.inet.WirelessHost.html" xlink:title="Compound Module WirelessHost" target="_parent">
<polygon fill="#fffcaf" stroke="black" points="383.5,-19 302.5,-19 302.5,0 383.5,0 383.5,-19"/>
<text text-anchor="middle" x="343" y="-7" font-family="Helvetica,sans-Serif" font-size="10.00">WirelessHost</text>
</a>
</g>
</g>
<!-- MultiRadio&#45;&gt;WirelessHost -->
<g id="edge4" class="edge">
<title>MultiRadio&#45;&gt;WirelessHost</title>
<path fill="none" stroke="black" d="M343,-54.75C343,-47.8 343,-37.85 343,-29.13"/>
<polygon fill="black" stroke="black" points="346.5,-29.09 343,-19.09 339.5,-29.09 346.5,-29.09"/>
</g>
<!-- Ipv4NetworkConfigurator -->
<g id="node6" class="node">
<title>Ipv4NetworkConfigurator</title>
<g id="a_node6"><a xlink:href="inet.networklayer.configurator.ipv4.Ipv4NetworkConfigurator.html" xlink:title="Simple Module Ipv4NetworkConfigurator" target="_parent">
<polygon fill="#fffcaf" stroke="black" points="542,-19 402,-19 402,0 542,0 542,-19"/>
<text text-anchor="middle" x="472" y="-7" font-family="Helvetica,sans-Serif" font-size="10.00">Ipv4NetworkConfigurator</text>
</a>
</g>
</g>
<!-- MultiRadio&#45;&gt;Ipv4NetworkConfigurator -->
<g id="edge5" class="edge">
<title>MultiRadio&#45;&gt;Ipv4NetworkConfigurator</title>
<path fill="none" stroke="black" d="M363.73,-54.98C384.76,-46.34 417.55,-32.87 441.54,-23.02"/>
<polygon fill="black" stroke="black" points="442.98,-26.21 450.9,-19.17 440.32,-19.73 442.98,-26.21"/>
</g>
<!-- DatarateChannel -->
<g id="node7" class="node">
<title>DatarateChannel</title>
<g id="a_node7"><a xlink:href="ned.DatarateChannel.html" xlink:title="Channel DatarateChannel" target="_parent">
<polygon fill="#d0ffd0" stroke="black" points="659.5,-19 560.5,-19 560.5,0 659.5,0 659.5,-19"/>
<text text-anchor="middle" x="610" y="-7" font-family="Helvetica,sans-Serif" font-size="10.00">DatarateChannel</text>
</a>
</g>
</g>
<!-- MultiRadio&#45;&gt;DatarateChannel -->
<g id="edge6" class="edge">
<title>MultiRadio&#45;&gt;DatarateChannel</title>
<path fill="none" stroke="black" d="M377.63,-56.63C423.23,-47.57 503.84,-31.57 557.1,-21"/>
<polygon fill="black" stroke="black" points="557.91,-24.41 567.04,-19.03 556.55,-17.54 557.91,-24.41"/>
</g>
<!-- Ieee80211ScalarRadioMedium -->
<g id="node8" class="node">
<title>Ieee80211ScalarRadioMedium</title>
<g id="a_node8"><a xlink:href="inet.physicallayer.wireless.ieee80211.packetlevel.Ieee80211ScalarRadioMedium.html" xlink:title="Compound Module Ieee80211ScalarRadioMedium" target="_parent">
<polygon fill="#fffcaf" stroke="black" points="842.5,-19 677.5,-19 677.5,0 842.5,0 842.5,-19"/>
<text text-anchor="middle" x="760" y="-7" font-family="Helvetica,sans-Serif" font-size="10.00">Ieee80211ScalarRadioMedium</text>
</a>
</g>
</g>
<!-- MultiRadio&#45;&gt;Ieee80211ScalarRadioMedium -->
<g id="edge7" class="edge">
<title>MultiRadio&#45;&gt;Ieee80211ScalarRadioMedium</title>
<path fill="none" stroke="black" d="M377.84,-59.07C444.63,-50.58 592.12,-31.84 683.09,-20.27"/>
<polygon fill="black" stroke="black" points="683.6,-23.74 693.08,-19.01 682.72,-16.79 683.6,-23.74"/>
</g>
</g>
</svg>
