<?xml version="1.0" encoding="UTF-8" standalone="no"?>
<!DOCTYPE svg PUBLIC "-//W3C//DTD SVG 1.1//EN"
 "http://www.w3.org/Graphics/SVG/1.1/DTD/svg11.dtd">
<!-- Generated by graphviz version 2.43.0 (0)
 -->
<!-- Title: opp Pages: 1 -->
<svg width="324pt" height="137pt"
 viewBox="0.00 0.00 323.50 137.00" xmlns="http://www.w3.org/2000/svg" xmlns:xlink="http://www.w3.org/1999/xlink">
<g id="graph0" class="graph" transform="scale(1 1) rotate(0) translate(4 133)">
<title>opp</title>
<polygon fill="transparent" stroke="transparent" points="-4,4 -4,-133 319.5,-133 319.5,4 -4,4"/>
<!-- ServerHost2 -->
<g id="node1" class="node">
<title>ServerHost2</title>
<g id="a_node1"><a xlink:href="inet.tutorials.protocol.ServerHost2.html" xlink:title="Compound Module ServerHost2" target="_parent">
<polygon fill="#fff700" stroke="black" points="182.5,-74 105.5,-74 105.5,-55 182.5,-55 182.5,-74"/>
<text text-anchor="middle" x="144" y="-62" font-family="Helvetica,sans-Serif" font-size="10.00">ServerHost2</text>
</a>
</g>
</g>
<!-- IdealChannel -->
<g id="node2" class="node">
<title>IdealChannel</title>
<g id="a_node2"><a xlink:href="ned.IdealChannel.html" xlink:title="Channel IdealChannel" target="_parent">
<polygon fill="#d0ffd0" stroke="black" points="80,-19 0,-19 0,0 80,0 80,-19"/>
<text text-anchor="middle" x="40" y="-7" font-family="Helvetica,sans-Serif" font-size="10.00">IdealChannel</text>
</a>
</g>
</g>
<!-- ServerHost2&#45;&gt;IdealChannel -->
<g id="edge1" class="edge">
<title>ServerHost2&#45;&gt;IdealChannel</title>
<path fill="none" stroke="black" d="M127.29,-54.98C110.79,-46.57 85.3,-33.59 66.12,-23.81"/>
<polygon fill="black" stroke="black" points="67.51,-20.59 57.01,-19.17 64.33,-26.83 67.51,-20.59"/>
</g>
<!-- PacketReceiver -->
<g id="node3" class="node">
<title>PacketReceiver</title>
<g id="a_node3"><a xlink:href="inet.protocolelement.transceiver.PacketReceiver.html" xlink:title="Simple Module PacketReceiver" target="_parent">
<polygon fill="#fffcaf" stroke="black" points="190,-19 98,-19 98,0 190,0 190,-19"/>
<text text-anchor="middle" x="144" y="-7" font-family="Helvetica,sans-Serif" font-size="10.00">PacketReceiver</text>
</a>
</g>
</g>
<!-- ServerHost2&#45;&gt;PacketReceiver -->
<g id="edge2" class="edge">
<title>ServerHost2&#45;&gt;PacketReceiver</title>
<path fill="none" stroke="black" d="M144,-54.75C144,-47.8 144,-37.85 144,-29.13"/>
<polygon fill="black" stroke="black" points="147.5,-29.09 144,-19.09 140.5,-29.09 147.5,-29.09"/>
</g>
<!-- PassivePacketSink -->
<g id="node4" class="node">
<title>PassivePacketSink</title>
<g id="a_node4"><a xlink:href="inet.queueing.sink.PassivePacketSink.html" xlink:title="Simple Module PassivePacketSink" target="_parent">
<polygon fill="#fffcaf" stroke="black" points="315.5,-19 208.5,-19 208.5,0 315.5,0 315.5,-19"/>
<text text-anchor="middle" x="262" y="-7" font-family="Helvetica,sans-Serif" font-size="10.00">PassivePacketSink</text>
</a>
</g>
</g>
<!-- ServerHost2&#45;&gt;PassivePacketSink -->
<g id="edge3" class="edge">
<title>ServerHost2&#45;&gt;PassivePacketSink</title>
<path fill="none" stroke="black" d="M162.96,-54.98C182.03,-46.42 211.66,-33.11 233.55,-23.28"/>
<polygon fill="black" stroke="black" points="235.01,-26.46 242.7,-19.17 232.14,-20.07 235.01,-26.46"/>
</g>
<!-- Network2 -->
<g id="node5" class="node">
<title>Network2</title>
<g id="a_node5"><a xlink:href="inet.tutorials.protocol.Network2.html" xlink:title="Network Network2" target="_parent">
<polygon fill="#d0d0ff" stroke="black" points="176,-129 112,-129 112,-110 176,-110 176,-129"/>
<text text-anchor="middle" x="144" y="-117" font-family="Helvetica,sans-Serif" font-size="10.00">Network2</text>
</a>
</g>
</g>
<!-- Network2&#45;&gt;ServerHost2 -->
<g id="edge4" class="edge">
<title>Network2&#45;&gt;ServerHost2</title>
<path fill="none" stroke="black" d="M144,-109.75C144,-102.8 144,-92.85 144,-84.13"/>
<polygon fill="black" stroke="black" points="147.5,-84.09 144,-74.09 140.5,-84.09 147.5,-84.09"/>
</g>
</g>
</svg>
