<?xml version="1.0" encoding="UTF-8" standalone="no"?>
<!DOCTYPE svg PUBLIC "-//W3C//DTD SVG 1.1//EN"
 "http://www.w3.org/Graphics/SVG/1.1/DTD/svg11.dtd">
<!-- Generated by graphviz version 2.43.0 (0)
 -->
<!-- Title: opp Pages: 1 -->
<svg width="398pt" height="82pt"
 viewBox="0.00 0.00 398.00 82.00" xmlns="http://www.w3.org/2000/svg" xmlns:xlink="http://www.w3.org/1999/xlink">
<g id="graph0" class="graph" transform="scale(1 1) rotate(0) translate(4 78)">
<title>opp</title>
<polygon fill="transparent" stroke="transparent" points="-4,4 -4,-78 394,-78 394,4 -4,4"/>
<!-- EthernetInterface -->
<g id="node1" class="node">
<title>EthernetInterface</title>
<g id="a_node1"><a xlink:href="inet.linklayer.ethernet.EthernetInterface.html" xlink:title="Compound Module EthernetInterface" target="_parent">
<polygon fill="#fff700" stroke="black" points="224,-74 123,-74 123,-55 224,-55 224,-74"/>
<text text-anchor="middle" x="173.5" y="-62" font-family="Helvetica,sans-Serif" font-size="10.00">EthernetInterface</text>
</a>
</g>
</g>
<!-- IEtherMac -->
<g id="node2" class="node">
<title>IEtherMac</title>
<g id="a_node2"><a xlink:href="inet.linklayer.contract.IEtherMac.html" xlink:title="Module Interface IEtherMac" target="_parent">
<polygon fill="#fffcaf" stroke="black" stroke-dasharray="5,2" points="65,-19 0,-19 0,0 65,0 65,-19"/>
<text text-anchor="middle" x="32.5" y="-7" font-family="Helvetica,sans-Serif" font-size="10.00">IEtherMac</text>
</a>
</g>
</g>
<!-- EthernetInterface&#45;&gt;IEtherMac -->
<g id="edge1" class="edge">
<title>EthernetInterface&#45;&gt;IEtherMac</title>
<path fill="none" stroke="black" d="M150.85,-54.98C127.65,-46.27 91.38,-32.63 65.1,-22.75"/>
<polygon fill="black" stroke="black" points="66.16,-19.41 55.57,-19.17 63.7,-25.97 66.16,-19.41"/>
</g>
<!-- IdealChannel -->
<g id="node3" class="node">
<title>IdealChannel</title>
<g id="a_node3"><a xlink:href="ned.IdealChannel.html" xlink:title="Channel IdealChannel" target="_parent">
<polygon fill="#d0ffd0" stroke="black" points="163.5,-19 83.5,-19 83.5,0 163.5,0 163.5,-19"/>
<text text-anchor="middle" x="123.5" y="-7" font-family="Helvetica,sans-Serif" font-size="10.00">IdealChannel</text>
</a>
</g>
</g>
<!-- EthernetInterface&#45;&gt;IdealChannel -->
<g id="edge2" class="edge">
<title>EthernetInterface&#45;&gt;IdealChannel</title>
<path fill="none" stroke="black" d="M165.24,-54.75C158.04,-47.11 147.39,-35.82 138.65,-26.56"/>
<polygon fill="black" stroke="black" points="141.01,-23.96 131.6,-19.09 135.92,-28.76 141.01,-23.96"/>
</g>
<!-- IPacketQueue -->
<g id="node4" class="node">
<title>IPacketQueue</title>
<g id="a_node4"><a xlink:href="inet.queueing.contract.IPacketQueue.html" xlink:title="Module Interface IPacketQueue" target="_parent">
<polygon fill="#fffcaf" stroke="black" stroke-dasharray="5,2" points="265,-19 182,-19 182,0 265,0 265,-19"/>
<text text-anchor="middle" x="223.5" y="-7" font-family="Helvetica,sans-Serif" font-size="10.00">IPacketQueue</text>
</a>
</g>
</g>
<!-- EthernetInterface&#45;&gt;IPacketQueue -->
<g id="edge3" class="edge">
<title>EthernetInterface&#45;&gt;IPacketQueue</title>
<path fill="none" stroke="black" d="M181.76,-54.75C188.96,-47.11 199.61,-35.82 208.35,-26.56"/>
<polygon fill="black" stroke="black" points="211.08,-28.76 215.4,-19.09 205.99,-23.96 211.08,-28.76"/>
</g>
<!-- ITrafficConditioner -->
<g id="node5" class="node">
<title>ITrafficConditioner</title>
<g id="a_node5"><a xlink:href="inet.queueing.contract.ITrafficConditioner.html" xlink:title="Module Interface ITrafficConditioner" target="_parent">
<polygon fill="#fffcaf" stroke="black" stroke-dasharray="5,2" points="390,-19 283,-19 283,0 390,0 390,-19"/>
<text text-anchor="middle" x="336.5" y="-7" font-family="Helvetica,sans-Serif" font-size="10.00">ITrafficConditioner</text>
</a>
</g>
</g>
<!-- EthernetInterface&#45;&gt;ITrafficConditioner -->
<g id="edge4" class="edge">
<title>EthernetInterface&#45;&gt;ITrafficConditioner</title>
<path fill="none" stroke="black" d="M199.69,-54.98C226.94,-46.13 269.8,-32.19 300.28,-22.28"/>
<polygon fill="black" stroke="black" points="301.68,-25.5 310.11,-19.08 299.51,-18.85 301.68,-25.5"/>
</g>
</g>
</svg>
