<?xml version="1.0" encoding="UTF-8" standalone="no"?>
<!DOCTYPE svg PUBLIC "-//W3C//DTD SVG 1.1//EN"
 "http://www.w3.org/Graphics/SVG/1.1/DTD/svg11.dtd">
<!-- Generated by graphviz version 2.43.0 (0)
 -->
<!-- Title: opp Pages: 1 -->
<svg width="557pt" height="137pt"
 viewBox="0.00 0.00 556.50 137.00" xmlns="http://www.w3.org/2000/svg" xmlns:xlink="http://www.w3.org/1999/xlink">
<g id="graph0" class="graph" transform="scale(1 1) rotate(0) translate(4 133)">
<title>opp</title>
<polygon fill="transparent" stroke="transparent" points="-4,4 -4,-133 552.5,-133 552.5,4 -4,4"/>
<!-- SinkNode -->
<g id="node1" class="node">
<title>SinkNode</title>
<g id="a_node1"><a xlink:href="inet.examples.wireless.hiddennode.SinkNode.html" xlink:title="Compound Module SinkNode" target="_parent">
<polygon fill="#fff700" stroke="black" points="279.5,-74 216.5,-74 216.5,-55 279.5,-55 279.5,-74"/>
<text text-anchor="middle" x="248" y="-62" font-family="Helvetica,sans-Serif" font-size="10.00">SinkNode</text>
</a>
</g>
</g>
<!-- InterfaceTable -->
<g id="node2" class="node">
<title>InterfaceTable</title>
<g id="a_node2"><a xlink:href="inet.networklayer.common.InterfaceTable.html" xlink:title="Simple Module InterfaceTable" target="_parent">
<polygon fill="#fffcaf" stroke="black" points="86,-19 0,-19 0,0 86,0 86,-19"/>
<text text-anchor="middle" x="43" y="-7" font-family="Helvetica,sans-Serif" font-size="10.00">InterfaceTable</text>
</a>
</g>
</g>
<!-- SinkNode&#45;&gt;InterfaceTable -->
<g id="edge1" class="edge">
<title>SinkNode&#45;&gt;InterfaceTable</title>
<path fill="none" stroke="black" d="M216.42,-55.33C181.47,-46.3 124.94,-31.68 85.97,-21.61"/>
<polygon fill="black" stroke="black" points="86.53,-18.14 75.98,-19.03 84.78,-24.92 86.53,-18.14"/>
</g>
<!-- IdealChannel -->
<g id="node3" class="node">
<title>IdealChannel</title>
<g id="a_node3"><a xlink:href="ned.IdealChannel.html" xlink:title="Channel IdealChannel" target="_parent">
<polygon fill="#d0ffd0" stroke="black" points="184,-19 104,-19 104,0 184,0 184,-19"/>
<text text-anchor="middle" x="144" y="-7" font-family="Helvetica,sans-Serif" font-size="10.00">IdealChannel</text>
</a>
</g>
</g>
<!-- SinkNode&#45;&gt;IdealChannel -->
<g id="edge2" class="edge">
<title>SinkNode&#45;&gt;IdealChannel</title>
<path fill="none" stroke="black" d="M231.29,-54.98C214.79,-46.57 189.3,-33.59 170.12,-23.81"/>
<polygon fill="black" stroke="black" points="171.51,-20.59 161.01,-19.17 168.33,-26.83 171.51,-20.59"/>
</g>
<!-- EtherAppServer -->
<g id="node4" class="node">
<title>EtherAppServer</title>
<g id="a_node4"><a xlink:href="inet.applications.ethernet.EtherAppServer.html" xlink:title="Simple Module EtherAppServer" target="_parent">
<polygon fill="#fffcaf" stroke="black" points="294,-19 202,-19 202,0 294,0 294,-19"/>
<text text-anchor="middle" x="248" y="-7" font-family="Helvetica,sans-Serif" font-size="10.00">EtherAppServer</text>
</a>
</g>
</g>
<!-- SinkNode&#45;&gt;EtherAppServer -->
<g id="edge3" class="edge">
<title>SinkNode&#45;&gt;EtherAppServer</title>
<path fill="none" stroke="black" d="M248,-54.75C248,-47.8 248,-37.85 248,-29.13"/>
<polygon fill="black" stroke="black" points="251.5,-29.09 248,-19.09 244.5,-29.09 251.5,-29.09"/>
</g>
<!-- StationaryMobility -->
<g id="node5" class="node">
<title>StationaryMobility</title>
<g id="a_node5"><a xlink:href="inet.mobility.static.StationaryMobility.html" xlink:title="Simple Module StationaryMobility" target="_parent">
<polygon fill="#fffcaf" stroke="black" points="419.5,-19 312.5,-19 312.5,0 419.5,0 419.5,-19"/>
<text text-anchor="middle" x="366" y="-7" font-family="Helvetica,sans-Serif" font-size="10.00">StationaryMobility</text>
</a>
</g>
</g>
<!-- SinkNode&#45;&gt;StationaryMobility -->
<g id="edge4" class="edge">
<title>SinkNode&#45;&gt;StationaryMobility</title>
<path fill="none" stroke="black" d="M266.96,-54.98C286.03,-46.42 315.66,-33.11 337.55,-23.28"/>
<polygon fill="black" stroke="black" points="339.01,-26.46 346.7,-19.17 336.14,-20.07 339.01,-26.46"/>
</g>
<!-- Ieee80211Interface -->
<g id="node6" class="node">
<title>Ieee80211Interface</title>
<g id="a_node6"><a xlink:href="inet.linklayer.ieee80211.Ieee80211Interface.html" xlink:title="Compound Module Ieee80211Interface" target="_parent">
<polygon fill="#fffcaf" stroke="black" points="548.5,-19 437.5,-19 437.5,0 548.5,0 548.5,-19"/>
<text text-anchor="middle" x="493" y="-7" font-family="Helvetica,sans-Serif" font-size="10.00">Ieee80211Interface</text>
</a>
</g>
</g>
<!-- SinkNode&#45;&gt;Ieee80211Interface -->
<g id="edge5" class="edge">
<title>SinkNode&#45;&gt;Ieee80211Interface</title>
<path fill="none" stroke="black" d="M279.53,-56.68C321.03,-47.7 394.46,-31.82 443.43,-21.22"/>
<polygon fill="black" stroke="black" points="444.46,-24.58 453.49,-19.05 442.98,-17.74 444.46,-24.58"/>
</g>
<!-- HiddenNode -->
<g id="node7" class="node">
<title>HiddenNode</title>
<g id="a_node7"><a xlink:href="inet.examples.wireless.hiddennode.HiddenNode.html" xlink:title="Network HiddenNode" target="_parent">
<polygon fill="#d0d0ff" stroke="black" points="286.5,-129 209.5,-129 209.5,-110 286.5,-110 286.5,-129"/>
<text text-anchor="middle" x="248" y="-117" font-family="Helvetica,sans-Serif" font-size="10.00">HiddenNode</text>
</a>
</g>
</g>
<!-- HiddenNode&#45;&gt;SinkNode -->
<g id="edge6" class="edge">
<title>HiddenNode&#45;&gt;SinkNode</title>
<path fill="none" stroke="black" d="M248,-109.75C248,-102.8 248,-92.85 248,-84.13"/>
<polygon fill="black" stroke="black" points="251.5,-84.09 248,-74.09 244.5,-84.09 251.5,-84.09"/>
</g>
</g>
</svg>
