<?xml version="1.0" encoding="UTF-8" standalone="no"?>
<!DOCTYPE svg PUBLIC "-//W3C//DTD SVG 1.1//EN"
 "http://www.w3.org/Graphics/SVG/1.1/DTD/svg11.dtd">
<!-- Generated by graphviz version 2.43.0 (0)
 -->
<!-- Title: opp Pages: 1 -->
<svg width="783pt" height="82pt"
 viewBox="0.00 0.00 782.50 82.00" xmlns="http://www.w3.org/2000/svg" xmlns:xlink="http://www.w3.org/1999/xlink">
<g id="graph0" class="graph" transform="scale(1 1) rotate(0) translate(4 78)">
<title>opp</title>
<polygon fill="transparent" stroke="transparent" points="-4,4 -4,-78 778.5,-78 778.5,4 -4,4"/>
<!-- BgpNetwork -->
<g id="node1" class="node">
<title>BgpNetwork</title>
<g id="a_node1"><a xlink:href="inet.examples.bgpv4.Bgp2RoutersInAS.BgpNetwork.html" xlink:title="Network BgpNetwork" target="_parent">
<polygon fill="#9090ff" stroke="black" points="418,-74 341,-74 341,-55 418,-55 418,-74"/>
<text text-anchor="middle" x="379.5" y="-62" font-family="Helvetica,sans-Serif" font-size="10.00">BgpNetwork</text>
</a>
</g>
</g>
<!-- OspfRouter -->
<g id="node2" class="node">
<title>OspfRouter</title>
<g id="a_node2"><a xlink:href="inet.node.ospfv2.OspfRouter.html" xlink:title="Compound Module OspfRouter" target="_parent">
<polygon fill="#fffcaf" stroke="black" points="71,-19 0,-19 0,0 71,0 71,-19"/>
<text text-anchor="middle" x="35.5" y="-7" font-family="Helvetica,sans-Serif" font-size="10.00">OspfRouter</text>
</a>
</g>
</g>
<!-- BgpNetwork&#45;&gt;OspfRouter -->
<g id="edge1" class="edge">
<title>BgpNetwork&#45;&gt;OspfRouter</title>
<path fill="none" stroke="black" d="M340.58,-58.28C285.13,-50.72 179.98,-35.94 80.89,-19.18"/>
<polygon fill="black" stroke="black" points="81.46,-15.73 71.02,-17.5 80.29,-22.63 81.46,-15.73"/>
</g>
<!-- StandardHost -->
<g id="node3" class="node">
<title>StandardHost</title>
<g id="a_node3"><a xlink:href="inet.node.inet.StandardHost.html" xlink:title="Compound Module StandardHost" target="_parent">
<polygon fill="#fffcaf" stroke="black" points="172,-19 89,-19 89,0 172,0 172,-19"/>
<text text-anchor="middle" x="130.5" y="-7" font-family="Helvetica,sans-Serif" font-size="10.00">StandardHost</text>
</a>
</g>
</g>
<!-- BgpNetwork&#45;&gt;StandardHost -->
<g id="edge2" class="edge">
<title>BgpNetwork&#45;&gt;StandardHost</title>
<path fill="none" stroke="black" d="M340.87,-55.28C297.72,-46.09 227.76,-31.2 180.48,-21.14"/>
<polygon fill="black" stroke="black" points="180.97,-17.66 170.46,-19.01 179.51,-24.51 180.97,-17.66"/>
</g>
<!-- Ipv4NetworkConfigurator -->
<g id="node4" class="node">
<title>Ipv4NetworkConfigurator</title>
<g id="a_node4"><a xlink:href="inet.networklayer.configurator.ipv4.Ipv4NetworkConfigurator.html" xlink:title="Simple Module Ipv4NetworkConfigurator" target="_parent">
<polygon fill="#fffcaf" stroke="black" points="330.5,-19 190.5,-19 190.5,0 330.5,0 330.5,-19"/>
<text text-anchor="middle" x="260.5" y="-7" font-family="Helvetica,sans-Serif" font-size="10.00">Ipv4NetworkConfigurator</text>
</a>
</g>
</g>
<!-- BgpNetwork&#45;&gt;Ipv4NetworkConfigurator -->
<g id="edge3" class="edge">
<title>BgpNetwork&#45;&gt;Ipv4NetworkConfigurator</title>
<path fill="none" stroke="black" d="M360.38,-54.98C341.15,-46.42 311.27,-33.11 289.19,-23.28"/>
<polygon fill="black" stroke="black" points="290.53,-20.04 279.97,-19.17 287.68,-26.44 290.53,-20.04"/>
</g>
<!-- LINK_100 -->
<g id="node5" class="node">
<title>LINK_100</title>
<g id="a_node5"><a xlink:href="inet.examples.bgpv4.Bgp2RoutersInAS.BgpNetwork.LINK_100.html" xlink:title="Channel LINK_100" target="_parent">
<polygon fill="#d0ffd0" stroke="black" points="410.5,-19 348.5,-19 348.5,0 410.5,0 410.5,-19"/>
<text text-anchor="middle" x="379.5" y="-7" font-family="Helvetica,sans-Serif" font-size="10.00">LINK_100</text>
</a>
</g>
</g>
<!-- BgpNetwork&#45;&gt;LINK_100 -->
<g id="edge4" class="edge">
<title>BgpNetwork&#45;&gt;LINK_100</title>
<path fill="none" stroke="black" d="M379.5,-54.75C379.5,-47.8 379.5,-37.85 379.5,-29.13"/>
<polygon fill="black" stroke="black" points="383,-29.09 379.5,-19.09 376,-29.09 383,-29.09"/>
</g>
<!-- IntegratedCanvasVisualizer -->
<g id="node6" class="node">
<title>IntegratedCanvasVisualizer</title>
<g id="a_node6"><a xlink:href="inet.visualizer.canvas.integrated.IntegratedCanvasVisualizer.html" xlink:title="Compound Module IntegratedCanvasVisualizer" target="_parent">
<polygon fill="#fffcaf" stroke="black" points="580,-19 429,-19 429,0 580,0 580,-19"/>
<text text-anchor="middle" x="504.5" y="-7" font-family="Helvetica,sans-Serif" font-size="10.00">IntegratedCanvasVisualizer</text>
</a>
</g>
</g>
<!-- BgpNetwork&#45;&gt;IntegratedCanvasVisualizer -->
<g id="edge5" class="edge">
<title>BgpNetwork&#45;&gt;IntegratedCanvasVisualizer</title>
<path fill="none" stroke="black" d="M399.58,-54.98C419.87,-46.38 451.46,-32.99 474.67,-23.15"/>
<polygon fill="black" stroke="black" points="476.21,-26.3 484.05,-19.17 473.48,-19.85 476.21,-26.3"/>
</g>
<!-- BgpRouter -->
<g id="node7" class="node">
<title>BgpRouter</title>
<g id="a_node7"><a xlink:href="inet.node.bgp.BgpRouter.html" xlink:title="Compound Module BgpRouter" target="_parent">
<polygon fill="#fffcaf" stroke="black" points="666.5,-19 598.5,-19 598.5,0 666.5,0 666.5,-19"/>
<text text-anchor="middle" x="632.5" y="-7" font-family="Helvetica,sans-Serif" font-size="10.00">BgpRouter</text>
</a>
</g>
</g>
<!-- BgpNetwork&#45;&gt;BgpRouter -->
<g id="edge6" class="edge">
<title>BgpNetwork&#45;&gt;BgpRouter</title>
<path fill="none" stroke="black" d="M418.2,-55.39C464.08,-45.78 540.36,-29.8 588.45,-19.73"/>
<polygon fill="black" stroke="black" points="589.2,-23.15 598.27,-17.67 587.76,-16.3 589.2,-23.15"/>
</g>
<!-- EthernetSwitch -->
<g id="node8" class="node">
<title>EthernetSwitch</title>
<g id="a_node8"><a xlink:href="inet.node.ethernet.EthernetSwitch.html" xlink:title="Compound Module EthernetSwitch" target="_parent">
<polygon fill="#fffcaf" stroke="black" points="774.5,-19 684.5,-19 684.5,0 774.5,0 774.5,-19"/>
<text text-anchor="middle" x="729.5" y="-7" font-family="Helvetica,sans-Serif" font-size="10.00">EthernetSwitch</text>
</a>
</g>
</g>
<!-- BgpNetwork&#45;&gt;EthernetSwitch -->
<g id="edge7" class="edge">
<title>BgpNetwork&#45;&gt;EthernetSwitch</title>
<path fill="none" stroke="black" d="M418.3,-57.75C472.99,-49.64 576.16,-34.25 674.33,-19.17"/>
<polygon fill="black" stroke="black" points="675.07,-22.6 684.42,-17.62 674.01,-15.68 675.07,-22.6"/>
</g>
</g>
</svg>
