<?xml version="1.0" encoding="UTF-8" standalone="no"?>
<!DOCTYPE svg PUBLIC "-//W3C//DTD SVG 1.1//EN"
 "http://www.w3.org/Graphics/SVG/1.1/DTD/svg11.dtd">
<!-- Generated by graphviz version 2.43.0 (0)
 -->
<!-- Title: opp Pages: 1 -->
<svg width="236pt" height="82pt"
 viewBox="0.00 0.00 235.50 82.00" xmlns="http://www.w3.org/2000/svg" xmlns:xlink="http://www.w3.org/1999/xlink">
<g id="graph0" class="graph" transform="scale(1 1) rotate(0) translate(4 78)">
<title>opp</title>
<polygon fill="transparent" stroke="transparent" points="-4,4 -4,-78 231.5,-78 231.5,4 -4,4"/>
<!-- WirelessNetworkBase -->
<g id="node1" class="node">
<title>WirelessNetworkBase</title>
<g id="a_node1"><a xlink:href="inet.networks.base.WirelessNetworkBase.html" xlink:title="Network WirelessNetworkBase" target="_parent">
<polygon fill="#9090ff" stroke="black" points="184,-74 60,-74 60,-55 184,-55 184,-74"/>
<text text-anchor="middle" x="122" y="-62" font-family="Helvetica,sans-Serif" font-size="10.00">WirelessNetworkBase</text>
</a>
</g>
</g>
<!-- IPhysicalEnvironment -->
<g id="node2" class="node">
<title>IPhysicalEnvironment</title>
<g id="a_node2"><a xlink:href="inet.environment.contract.IPhysicalEnvironment.html" xlink:title="Module Interface IPhysicalEnvironment" target="_parent">
<polygon fill="#fffcaf" stroke="black" stroke-dasharray="5,2" points="122,-19 0,-19 0,0 122,0 122,-19"/>
<text text-anchor="middle" x="61" y="-7" font-family="Helvetica,sans-Serif" font-size="10.00">IPhysicalEnvironment</text>
</a>
</g>
</g>
<!-- WirelessNetworkBase&#45;&gt;IPhysicalEnvironment -->
<g id="edge1" class="edge">
<title>WirelessNetworkBase&#45;&gt;IPhysicalEnvironment</title>
<path fill="none" stroke="black" d="M112.2,-54.98C103.18,-47.15 89.59,-35.34 78.68,-25.86"/>
<polygon fill="black" stroke="black" points="80.82,-23.09 70.98,-19.17 76.23,-28.37 80.82,-23.09"/>
</g>
<!-- IRadioMedium -->
<g id="node3" class="node">
<title>IRadioMedium</title>
<g id="a_node3"><a xlink:href="inet.physicallayer.wireless.common.contract.packetlevel.IRadioMedium.html" xlink:title="Module Interface IRadioMedium" target="_parent">
<polygon fill="#fffcaf" stroke="black" stroke-dasharray="5,2" points="227.5,-19 140.5,-19 140.5,0 227.5,0 227.5,-19"/>
<text text-anchor="middle" x="184" y="-7" font-family="Helvetica,sans-Serif" font-size="10.00">IRadioMedium</text>
</a>
</g>
</g>
<!-- WirelessNetworkBase&#45;&gt;IRadioMedium -->
<g id="edge2" class="edge">
<title>WirelessNetworkBase&#45;&gt;IRadioMedium</title>
<path fill="none" stroke="black" d="M131.96,-54.98C141.13,-47.15 154.94,-35.34 166.03,-25.86"/>
<polygon fill="black" stroke="black" points="168.53,-28.33 173.86,-19.17 163.98,-23.01 168.53,-28.33"/>
</g>
</g>
</svg>
