<?xml version="1.0" encoding="UTF-8" standalone="no"?>
<!DOCTYPE svg PUBLIC "-//W3C//DTD SVG 1.1//EN"
 "http://www.w3.org/Graphics/SVG/1.1/DTD/svg11.dtd">
<!-- Generated by graphviz version 2.43.0 (0)
 -->
<!-- Title: opp Pages: 1 -->
<svg width="325pt" height="82pt"
 viewBox="0.00 0.00 325.00 82.00" xmlns="http://www.w3.org/2000/svg" xmlns:xlink="http://www.w3.org/1999/xlink">
<g id="graph0" class="graph" transform="scale(1 1) rotate(0) translate(4 78)">
<title>opp</title>
<polygon fill="transparent" stroke="transparent" points="-4,4 -4,-78 321,-78 321,4 -4,4"/>
<!-- tcpwindowscale -->
<g id="node1" class="node">
<title>tcpwindowscale</title>
<g id="a_node1"><a xlink:href="inet.examples.inet.tcpwindowscale.tcpwindowscale.html" xlink:title="Network tcpwindowscale" target="_parent">
<polygon fill="#9090ff" stroke="black" points="219,-74 124,-74 124,-55 219,-55 219,-74"/>
<text text-anchor="middle" x="171.5" y="-62" font-family="Helvetica,sans-Serif" font-size="10.00">tcpwindowscale</text>
</a>
</g>
</g>
<!-- StandardHost -->
<g id="node2" class="node">
<title>StandardHost</title>
<g id="a_node2"><a xlink:href="inet.node.inet.StandardHost.html" xlink:title="Compound Module StandardHost" target="_parent">
<polygon fill="#fffcaf" stroke="black" points="83,-19 0,-19 0,0 83,0 83,-19"/>
<text text-anchor="middle" x="41.5" y="-7" font-family="Helvetica,sans-Serif" font-size="10.00">StandardHost</text>
</a>
</g>
</g>
<!-- tcpwindowscale&#45;&gt;StandardHost -->
<g id="edge1" class="edge">
<title>tcpwindowscale&#45;&gt;StandardHost</title>
<path fill="none" stroke="black" d="M150.61,-54.98C129.42,-46.34 96.37,-32.87 72.2,-23.02"/>
<polygon fill="black" stroke="black" points="73.35,-19.7 62.77,-19.17 70.71,-26.19 73.35,-19.7"/>
</g>
<!-- Ipv4NetworkConfigurator -->
<g id="node3" class="node">
<title>Ipv4NetworkConfigurator</title>
<g id="a_node3"><a xlink:href="inet.networklayer.configurator.ipv4.Ipv4NetworkConfigurator.html" xlink:title="Simple Module Ipv4NetworkConfigurator" target="_parent">
<polygon fill="#fffcaf" stroke="black" points="241.5,-19 101.5,-19 101.5,0 241.5,0 241.5,-19"/>
<text text-anchor="middle" x="171.5" y="-7" font-family="Helvetica,sans-Serif" font-size="10.00">Ipv4NetworkConfigurator</text>
</a>
</g>
</g>
<!-- tcpwindowscale&#45;&gt;Ipv4NetworkConfigurator -->
<g id="edge2" class="edge">
<title>tcpwindowscale&#45;&gt;Ipv4NetworkConfigurator</title>
<path fill="none" stroke="black" d="M171.5,-54.75C171.5,-47.8 171.5,-37.85 171.5,-29.13"/>
<polygon fill="black" stroke="black" points="175,-29.09 171.5,-19.09 168,-29.09 175,-29.09"/>
</g>
<!-- LFNPath -->
<g id="node4" class="node">
<title>LFNPath</title>
<g id="a_node4"><a xlink:href="inet.examples.inet.tcpwindowscale.tcpwindowscale.LFNPath.html" xlink:title="Channel LFNPath" target="_parent">
<polygon fill="#d0ffd0" stroke="black" points="317,-19 260,-19 260,0 317,0 317,-19"/>
<text text-anchor="middle" x="288.5" y="-7" font-family="Helvetica,sans-Serif" font-size="10.00">LFNPath</text>
</a>
</g>
</g>
<!-- tcpwindowscale&#45;&gt;LFNPath -->
<g id="edge3" class="edge">
<title>tcpwindowscale&#45;&gt;LFNPath</title>
<path fill="none" stroke="black" d="M190.3,-54.98C209.12,-46.46 238.32,-33.23 260,-23.41"/>
<polygon fill="black" stroke="black" points="261.7,-26.48 269.36,-19.17 258.81,-20.11 261.7,-26.48"/>
</g>
</g>
</svg>
