<?xml version="1.0" encoding="UTF-8" standalone="no"?>
<!DOCTYPE svg PUBLIC "-//W3C//DTD SVG 1.1//EN"
 "http://www.w3.org/Graphics/SVG/1.1/DTD/svg11.dtd">
<!-- Generated by graphviz version 2.43.0 (0)
 -->
<!-- Title: opp Pages: 1 -->
<svg width="207pt" height="82pt"
 viewBox="0.00 0.00 206.50 82.00" xmlns="http://www.w3.org/2000/svg" xmlns:xlink="http://www.w3.org/1999/xlink">
<g id="graph0" class="graph" transform="scale(1 1) rotate(0) translate(4 78)">
<title>opp</title>
<polygon fill="transparent" stroke="transparent" points="-4,4 -4,-78 202.5,-78 202.5,4 -4,4"/>
<!-- Ieee8021qSocketCommandProcessor -->
<g id="node1" class="node">
<title>Ieee8021qSocketCommandProcessor</title>
<g id="a_node1"><a xlink:href="inet.linklayer.ieee8021q.Ieee8021qSocketCommandProcessor.html" xlink:title="Simple Module Ieee8021qSocketCommandProcessor" target="_parent">
<polygon fill="#fff700" stroke="black" points="198.5,-19 1.5,-19 1.5,0 198.5,0 198.5,-19"/>
<text text-anchor="middle" x="100" y="-7" font-family="Helvetica,sans-Serif" font-size="10.00">Ieee8021qSocketCommandProcessor</text>
</a>
</g>
</g>
<!-- PacketFlowBase -->
<g id="node2" class="node">
<title>PacketFlowBase</title>
<g id="a_node2"><a xlink:href="inet.queueing.base.PacketFlowBase.html" xlink:title="Simple Module PacketFlowBase" target="_parent">
<polygon fill="#fffcaf" stroke="black" points="96,-74 0,-74 0,-55 96,-55 96,-74"/>
<text text-anchor="middle" x="48" y="-62" font-family="Helvetica,sans-Serif" font-size="10.00">PacketFlowBase</text>
</a>
</g>
</g>
<!-- PacketFlowBase&#45;&gt;Ieee8021qSocketCommandProcessor -->
<g id="edge1" class="edge">
<title>PacketFlowBase&#45;&gt;Ieee8021qSocketCommandProcessor</title>
<path fill="none" stroke="black" d="M56.59,-54.75C66.28,-44.87 81.95,-28.9 91.57,-19.09"/>
</g>
<!-- IPacketFlow -->
<g id="node3" class="node">
<title>IPacketFlow</title>
<g id="a_node3"><a xlink:href="inet.queueing.contract.IPacketFlow.html" xlink:title="Module Interface IPacketFlow" target="_parent">
<polygon fill="#fffcaf" stroke="black" stroke-dasharray="5,2" points="189.5,-74 114.5,-74 114.5,-55 189.5,-55 189.5,-74"/>
<text text-anchor="middle" x="152" y="-62" font-family="Helvetica,sans-Serif" font-size="10.00">IPacketFlow</text>
</a>
</g>
</g>
<!-- IPacketFlow&#45;&gt;Ieee8021qSocketCommandProcessor -->
<g id="edge2" class="edge">
<title>IPacketFlow&#45;&gt;Ieee8021qSocketCommandProcessor</title>
<path fill="none" stroke="black" stroke-dasharray="5,2" d="M143.41,-54.75C133.72,-44.87 118.05,-28.9 108.43,-19.09"/>
</g>
</g>
</svg>
