<?xml version="1.0" encoding="UTF-8" standalone="no"?>
<!DOCTYPE svg PUBLIC "-//W3C//DTD SVG 1.1//EN"
 "http://www.w3.org/Graphics/SVG/1.1/DTD/svg11.dtd">
<!-- Generated by graphviz version 2.43.0 (0)
 -->
<!-- Title: opp Pages: 1 -->
<svg width="393pt" height="137pt"
 viewBox="0.00 0.00 392.50 137.00" xmlns="http://www.w3.org/2000/svg" xmlns:xlink="http://www.w3.org/1999/xlink">
<g id="graph0" class="graph" transform="scale(1 1) rotate(0) translate(4 133)">
<title>opp</title>
<polygon fill="transparent" stroke="transparent" points="-4,4 -4,-133 388.5,-133 388.5,4 -4,4"/>
<!-- IPacketDelayer -->
<g id="node1" class="node">
<title>IPacketDelayer</title>
<g id="a_node1"><a xlink:href="inet.queueing.contract.IPacketDelayer.html" xlink:title="Module Interface IPacketDelayer" target="_parent">
<polygon fill="#fff700" stroke="black" stroke-dasharray="5,2" points="233.5,-74 143.5,-74 143.5,-55 233.5,-55 233.5,-74"/>
<text text-anchor="middle" x="188.5" y="-62" font-family="Helvetica,sans-Serif" font-size="10.00">IPacketDelayer</text>
</a>
</g>
</g>
<!-- OmittedPacketDelayer -->
<g id="node4" class="node">
<title>OmittedPacketDelayer</title>
<g id="a_node4"><a xlink:href="inet.queueing.common.OmittedPacketDelayer.html" xlink:title="Compound Module OmittedPacketDelayer" target="_parent">
<polygon fill="#fffcaf" stroke="black" points="127,-19 0,-19 0,0 127,0 127,-19"/>
<text text-anchor="middle" x="63.5" y="-7" font-family="Helvetica,sans-Serif" font-size="10.00">OmittedPacketDelayer</text>
</a>
</g>
</g>
<!-- IPacketDelayer&#45;&gt;OmittedPacketDelayer -->
<g id="edge3" class="edge">
<title>IPacketDelayer&#45;&gt;OmittedPacketDelayer</title>
<path fill="none" stroke="black" stroke-dasharray="5,2" d="M168.42,-54.98C145.23,-45.15 107.29,-29.07 83.95,-19.17"/>
</g>
<!-- PacketDelayer -->
<g id="node5" class="node">
<title>PacketDelayer</title>
<g id="a_node5"><a xlink:href="inet.queueing.common.PacketDelayer.html" xlink:title="Simple Module PacketDelayer" target="_parent">
<polygon fill="#fffcaf" stroke="black" points="232,-19 145,-19 145,0 232,0 232,-19"/>
<text text-anchor="middle" x="188.5" y="-7" font-family="Helvetica,sans-Serif" font-size="10.00">PacketDelayer</text>
</a>
</g>
</g>
<!-- IPacketDelayer&#45;&gt;PacketDelayer -->
<g id="edge4" class="edge">
<title>IPacketDelayer&#45;&gt;PacketDelayer</title>
<path fill="none" stroke="black" stroke-dasharray="5,2" d="M188.5,-54.75C188.5,-44.87 188.5,-28.9 188.5,-19.09"/>
</g>
<!-- QueueingPacketDelayer -->
<g id="node6" class="node">
<title>QueueingPacketDelayer</title>
<g id="a_node6"><a xlink:href="inet.queueing.common.QueueingPacketDelayer.html" xlink:title="Compound Module QueueingPacketDelayer" target="_parent">
<polygon fill="#fffcaf" stroke="black" points="384.5,-19 250.5,-19 250.5,0 384.5,0 384.5,-19"/>
<text text-anchor="middle" x="317.5" y="-7" font-family="Helvetica,sans-Serif" font-size="10.00">QueueingPacketDelayer</text>
</a>
</g>
</g>
<!-- IPacketDelayer&#45;&gt;QueueingPacketDelayer -->
<g id="edge5" class="edge">
<title>IPacketDelayer&#45;&gt;QueueingPacketDelayer</title>
<path fill="none" stroke="black" stroke-dasharray="5,2" d="M209.23,-54.98C233.16,-45.15 272.31,-29.07 296.4,-19.17"/>
</g>
<!-- IPassivePacketSink -->
<g id="node2" class="node">
<title>IPassivePacketSink</title>
<g id="a_node2"><a xlink:href="inet.queueing.contract.IPassivePacketSink.html" xlink:title="Module Interface IPassivePacketSink" target="_parent">
<polygon fill="#fffcaf" stroke="black" stroke-dasharray="5,2" points="178.5,-129 68.5,-129 68.5,-110 178.5,-110 178.5,-129"/>
<text text-anchor="middle" x="123.5" y="-117" font-family="Helvetica,sans-Serif" font-size="10.00">IPassivePacketSink</text>
</a>
</g>
</g>
<!-- IPassivePacketSink&#45;&gt;IPacketDelayer -->
<g id="edge1" class="edge">
<title>IPassivePacketSink&#45;&gt;IPacketDelayer</title>
<path fill="none" stroke="black" d="M133.94,-109.98C146,-100.15 165.73,-84.07 177.87,-74.17"/>
</g>
<!-- IActivePacketSource -->
<g id="node3" class="node">
<title>IActivePacketSource</title>
<g id="a_node3"><a xlink:href="inet.queueing.contract.IActivePacketSource.html" xlink:title="Module Interface IActivePacketSource" target="_parent">
<polygon fill="#fffcaf" stroke="black" stroke-dasharray="5,2" points="312.5,-129 196.5,-129 196.5,-110 312.5,-110 312.5,-129"/>
<text text-anchor="middle" x="254.5" y="-117" font-family="Helvetica,sans-Serif" font-size="10.00">IActivePacketSource</text>
</a>
</g>
</g>
<!-- IActivePacketSource&#45;&gt;IPacketDelayer -->
<g id="edge2" class="edge">
<title>IActivePacketSource&#45;&gt;IPacketDelayer</title>
<path fill="none" stroke="black" d="M243.9,-109.98C231.65,-100.15 211.62,-84.07 199.3,-74.17"/>
</g>
</g>
</svg>
