<?xml version="1.0" encoding="UTF-8" standalone="no"?>
<!DOCTYPE svg PUBLIC "-//W3C//DTD SVG 1.1//EN"
 "http://www.w3.org/Graphics/SVG/1.1/DTD/svg11.dtd">
<!-- Generated by graphviz version 2.43.0 (0)
 -->
<!-- Title: opp Pages: 1 -->
<svg width="165pt" height="137pt"
 viewBox="0.00 0.00 165.00 137.00" xmlns="http://www.w3.org/2000/svg" xmlns:xlink="http://www.w3.org/1999/xlink">
<g id="graph0" class="graph" transform="scale(1 1) rotate(0) translate(4 133)">
<title>opp</title>
<polygon fill="transparent" stroke="transparent" points="-4,4 -4,-133 161,-133 161,4 -4,4"/>
<!-- PriorityQueue -->
<g id="node1" class="node">
<title>PriorityQueue</title>
<g id="a_node1"><a xlink:href="inet.queueing.queue.PriorityQueue.html" xlink:title="Compound Module PriorityQueue" target="_parent">
<polygon fill="#fff700" stroke="black" points="120,-74 37,-74 37,-55 120,-55 120,-74"/>
<text text-anchor="middle" x="78.5" y="-62" font-family="Helvetica,sans-Serif" font-size="10.00">PriorityQueue</text>
</a>
</g>
</g>
<!-- EthernetPriorityQueue -->
<g id="node3" class="node">
<title>EthernetPriorityQueue</title>
<g id="a_node3"><a xlink:href="inet.linklayer.ethernet.modular.EthernetPriorityQueue.html" xlink:title="Compound Module EthernetPriorityQueue" target="_parent">
<polygon fill="#fffcaf" stroke="black" points="141,-19 16,-19 16,0 141,0 141,-19"/>
<text text-anchor="middle" x="78.5" y="-7" font-family="Helvetica,sans-Serif" font-size="10.00">EthernetPriorityQueue</text>
</a>
</g>
</g>
<!-- PriorityQueue&#45;&gt;EthernetPriorityQueue -->
<g id="edge2" class="edge">
<title>PriorityQueue&#45;&gt;EthernetPriorityQueue</title>
<path fill="none" stroke="black" d="M78.5,-54.75C78.5,-44.87 78.5,-28.9 78.5,-19.09"/>
</g>
<!-- CompoundPacketQueueBase -->
<g id="node2" class="node">
<title>CompoundPacketQueueBase</title>
<g id="a_node2"><a xlink:href="inet.queueing.queue.CompoundPacketQueueBase.html" xlink:title="Compound Module CompoundPacketQueueBase" target="_parent">
<polygon fill="#fffcaf" stroke="black" points="157,-129 0,-129 0,-110 157,-110 157,-129"/>
<text text-anchor="middle" x="78.5" y="-117" font-family="Helvetica,sans-Serif" font-size="10.00">CompoundPacketQueueBase</text>
</a>
</g>
</g>
<!-- CompoundPacketQueueBase&#45;&gt;PriorityQueue -->
<g id="edge1" class="edge">
<title>CompoundPacketQueueBase&#45;&gt;PriorityQueue</title>
<path fill="none" stroke="black" d="M78.5,-109.75C78.5,-99.87 78.5,-83.9 78.5,-74.09"/>
</g>
</g>
</svg>
