<?xml version="1.0" encoding="UTF-8" standalone="no"?>
<!DOCTYPE svg PUBLIC "-//W3C//DTD SVG 1.1//EN"
 "http://www.w3.org/Graphics/SVG/1.1/DTD/svg11.dtd">
<!-- Generated by graphviz version 2.43.0 (0)
 -->
<!-- Title: opp Pages: 1 -->
<svg width="1681pt" height="137pt"
 viewBox="0.00 0.00 1681.00 137.00" xmlns="http://www.w3.org/2000/svg" xmlns:xlink="http://www.w3.org/1999/xlink">
<g id="graph0" class="graph" transform="scale(1 1) rotate(0) translate(4 133)">
<title>opp</title>
<polygon fill="transparent" stroke="transparent" points="-4,4 -4,-133 1677,-133 1677,4 -4,4"/>
<!-- IntegratedMultiVisualizer -->
<g id="node1" class="node">
<title>IntegratedMultiVisualizer</title>
<g id="a_node1"><a xlink:href="inet.visualizer.common.IntegratedMultiVisualizer.html" xlink:title="Compound Module IntegratedMultiVisualizer" target="_parent">
<polygon fill="#fff700" stroke="black" points="1004.5,-74 864.5,-74 864.5,-55 1004.5,-55 1004.5,-74"/>
<text text-anchor="middle" x="934.5" y="-62" font-family="Helvetica,sans-Serif" font-size="10.00">IntegratedMultiVisualizer</text>
</a>
</g>
</g>
<!-- IIntegratedVisualizer -->
<g id="node2" class="node">
<title>IIntegratedVisualizer</title>
<g id="a_node2"><a xlink:href="inet.visualizer.contract.IIntegratedVisualizer.html" xlink:title="Module Interface IIntegratedVisualizer" target="_parent">
<polygon fill="#fffcaf" stroke="black" stroke-dasharray="5,2" points="993.5,-19 875.5,-19 875.5,0 993.5,0 993.5,-19"/>
<text text-anchor="middle" x="934.5" y="-7" font-family="Helvetica,sans-Serif" font-size="10.00">IIntegratedVisualizer</text>
</a>
</g>
</g>
<!-- IntegratedMultiVisualizer&#45;&gt;IIntegratedVisualizer -->
<g id="edge1" class="edge">
<title>IntegratedMultiVisualizer&#45;&gt;IIntegratedVisualizer</title>
<path fill="none" stroke="black" d="M934.5,-54.75C934.5,-47.8 934.5,-37.85 934.5,-29.13"/>
<polygon fill="black" stroke="black" points="938,-29.09 934.5,-19.09 931,-29.09 938,-29.09"/>
</g>
<!-- AnalogModelShowcaseDistanceNetwork -->
<g id="node3" class="node">
<title>AnalogModelShowcaseDistanceNetwork</title>
<g id="a_node3"><a xlink:href="inet.showcases.wireless.analogmodel.AnalogModelShowcaseDistanceNetwork.html" xlink:title="Network AnalogModelShowcaseDistanceNetwork" target="_parent">
<polygon fill="#d0d0ff" stroke="black" points="213,-129 0,-129 0,-110 213,-110 213,-129"/>
<text text-anchor="middle" x="106.5" y="-117" font-family="Helvetica,sans-Serif" font-size="10.00">AnalogModelShowcaseDistanceNetwork</text>
</a>
</g>
</g>
<!-- AnalogModelShowcaseDistanceNetwork&#45;&gt;IntegratedMultiVisualizer -->
<g id="edge2" class="edge">
<title>AnalogModelShowcaseDistanceNetwork&#45;&gt;IntegratedMultiVisualizer</title>
<path fill="none" stroke="black" d="M213.01,-110.65C216.21,-110.43 219.38,-110.21 222.5,-110 451.77,-94.44 722.71,-78.06 854.49,-70.22"/>
<polygon fill="black" stroke="black" points="854.72,-73.71 864.5,-69.63 854.31,-66.72 854.72,-73.71"/>
</g>
<!-- AnalogModelShowcaseDistanceNetwork_ -->
<g id="node4" class="node">
<title>AnalogModelShowcaseDistanceNetwork_</title>
<g id="a_node4"><a xlink:href="inet.showcases.wireless.analogmodel.AnalogModelShowcaseDistanceNetwork_.html" xlink:title="Network AnalogModelShowcaseDistanceNetwork_" target="_parent">
<polygon fill="#d0d0ff" stroke="black" points="449.5,-129 231.5,-129 231.5,-110 449.5,-110 449.5,-129"/>
<text text-anchor="middle" x="340.5" y="-117" font-family="Helvetica,sans-Serif" font-size="10.00">AnalogModelShowcaseDistanceNetwork_</text>
</a>
</g>
</g>
<!-- AnalogModelShowcaseDistanceNetwork_&#45;&gt;IntegratedMultiVisualizer -->
<g id="edge3" class="edge">
<title>AnalogModelShowcaseDistanceNetwork_&#45;&gt;IntegratedMultiVisualizer</title>
<path fill="none" stroke="black" d="M435.94,-109.98C551.9,-99.64 745.48,-82.37 854.16,-72.67"/>
<polygon fill="black" stroke="black" points="854.76,-76.13 864.41,-71.75 854.14,-69.16 854.76,-76.13"/>
</g>
<!-- AnalogModelShowcaseRoutingNetwork -->
<g id="node5" class="node">
<title>AnalogModelShowcaseRoutingNetwork</title>
<g id="a_node5"><a xlink:href="inet.showcases.wireless.analogmodel.AnalogModelShowcaseRoutingNetwork.html" xlink:title="Network AnalogModelShowcaseRoutingNetwork" target="_parent">
<polygon fill="#d0d0ff" stroke="black" points="675.5,-129 467.5,-129 467.5,-110 675.5,-110 675.5,-129"/>
<text text-anchor="middle" x="571.5" y="-117" font-family="Helvetica,sans-Serif" font-size="10.00">AnalogModelShowcaseRoutingNetwork</text>
</a>
</g>
</g>
<!-- AnalogModelShowcaseRoutingNetwork&#45;&gt;IntegratedMultiVisualizer -->
<g id="edge4" class="edge">
<title>AnalogModelShowcaseRoutingNetwork&#45;&gt;IntegratedMultiVisualizer</title>
<path fill="none" stroke="black" d="M629.82,-109.98C694.16,-100.59 797.59,-85.49 865.81,-75.53"/>
<polygon fill="black" stroke="black" points="866.63,-78.95 876.02,-74.04 865.62,-72.02 866.63,-78.95"/>
</g>
<!-- AntennaOrientation -->
<g id="node6" class="node">
<title>AntennaOrientation</title>
<g id="a_node6"><a xlink:href="inet.showcases.mobility.combining.AntennaOrientation.html" xlink:title="Network AntennaOrientation" target="_parent">
<polygon fill="#d0d0ff" stroke="black" points="805.5,-129 693.5,-129 693.5,-110 805.5,-110 805.5,-129"/>
<text text-anchor="middle" x="749.5" y="-117" font-family="Helvetica,sans-Serif" font-size="10.00">AntennaOrientation</text>
</a>
</g>
</g>
<!-- AntennaOrientation&#45;&gt;IntegratedMultiVisualizer -->
<g id="edge5" class="edge">
<title>AntennaOrientation&#45;&gt;IntegratedMultiVisualizer</title>
<path fill="none" stroke="black" d="M779.22,-109.98C810.55,-101.01 860.07,-86.82 894.74,-76.89"/>
<polygon fill="black" stroke="black" points="895.89,-80.2 904.54,-74.08 893.97,-73.47 895.89,-80.2"/>
</g>
<!-- DataLinkVisualizerActivityLevelShowcase -->
<g id="node7" class="node">
<title>DataLinkVisualizerActivityLevelShowcase</title>
<g id="a_node7"><a xlink:href="inet.showcases.visualizer.canvas.datalinkactivity.DataLinkVisualizerActivityLevelShowcase.html" xlink:title="Network DataLinkVisualizerActivityLevelShowcase" target="_parent">
<polygon fill="#d0d0ff" stroke="black" points="1045,-129 824,-129 824,-110 1045,-110 1045,-129"/>
<text text-anchor="middle" x="934.5" y="-117" font-family="Helvetica,sans-Serif" font-size="10.00">DataLinkVisualizerActivityLevelShowcase</text>
</a>
</g>
</g>
<!-- DataLinkVisualizerActivityLevelShowcase&#45;&gt;IntegratedMultiVisualizer -->
<g id="edge6" class="edge">
<title>DataLinkVisualizerActivityLevelShowcase&#45;&gt;IntegratedMultiVisualizer</title>
<path fill="none" stroke="black" d="M934.5,-109.75C934.5,-102.8 934.5,-92.85 934.5,-84.13"/>
<polygon fill="black" stroke="black" points="938,-84.09 934.5,-74.09 931,-84.09 938,-84.09"/>
</g>
<!-- Ieee802154Showcase -->
<g id="node8" class="node">
<title>Ieee802154Showcase</title>
<g id="a_node8"><a xlink:href="inet.showcases.wireless.ieee802154.Ieee802154Showcase.html" xlink:title="Network Ieee802154Showcase" target="_parent">
<polygon fill="#d0d0ff" stroke="black" points="1185.5,-129 1063.5,-129 1063.5,-110 1185.5,-110 1185.5,-129"/>
<text text-anchor="middle" x="1124.5" y="-117" font-family="Helvetica,sans-Serif" font-size="10.00">Ieee802154Showcase</text>
</a>
</g>
</g>
<!-- Ieee802154Showcase&#45;&gt;IntegratedMultiVisualizer -->
<g id="edge7" class="edge">
<title>Ieee802154Showcase&#45;&gt;IntegratedMultiVisualizer</title>
<path fill="none" stroke="black" d="M1093.97,-109.98C1061.8,-101.01 1010.94,-86.82 975.33,-76.89"/>
<polygon fill="black" stroke="black" points="975.84,-73.4 965.27,-74.08 973.96,-80.14 975.84,-73.4"/>
</g>
<!-- ManetprotocolsShowcaseA -->
<g id="node9" class="node">
<title>ManetprotocolsShowcaseA</title>
<g id="a_node9"><a xlink:href="inet.showcases.routing.manet.ManetprotocolsShowcaseA.html" xlink:title="Network ManetprotocolsShowcaseA" target="_parent">
<polygon fill="#d0d0ff" stroke="black" points="1351.5,-129 1203.5,-129 1203.5,-110 1351.5,-110 1351.5,-129"/>
<text text-anchor="middle" x="1277.5" y="-117" font-family="Helvetica,sans-Serif" font-size="10.00">ManetprotocolsShowcaseA</text>
</a>
</g>
</g>
<!-- ManetprotocolsShowcaseA&#45;&gt;IntegratedMultiVisualizer -->
<g id="edge8" class="edge">
<title>ManetprotocolsShowcaseA&#45;&gt;IntegratedMultiVisualizer</title>
<path fill="none" stroke="black" d="M1222.39,-109.98C1161.72,-100.61 1064.26,-85.55 999.81,-75.59"/>
<polygon fill="black" stroke="black" points="1000.17,-72.11 989.76,-74.04 999.1,-79.02 1000.17,-72.11"/>
</g>
<!-- ManetprotocolsShowcaseB -->
<g id="node10" class="node">
<title>ManetprotocolsShowcaseB</title>
<g id="a_node10"><a xlink:href="inet.showcases.routing.manet.ManetprotocolsShowcaseB.html" xlink:title="Network ManetprotocolsShowcaseB" target="_parent">
<polygon fill="#d0d0ff" stroke="black" points="1517.5,-129 1369.5,-129 1369.5,-110 1517.5,-110 1517.5,-129"/>
<text text-anchor="middle" x="1443.5" y="-117" font-family="Helvetica,sans-Serif" font-size="10.00">ManetprotocolsShowcaseB</text>
</a>
</g>
</g>
<!-- ManetprotocolsShowcaseB&#45;&gt;IntegratedMultiVisualizer -->
<g id="edge9" class="edge">
<title>ManetprotocolsShowcaseB&#45;&gt;IntegratedMultiVisualizer</title>
<path fill="none" stroke="black" d="M1369.49,-110.79C1274.95,-100.95 1111.96,-83.98 1014.59,-73.84"/>
<polygon fill="black" stroke="black" points="1014.82,-70.34 1004.51,-72.79 1014.09,-77.31 1014.82,-70.34"/>
</g>
<!-- PcapRecordingShowcase -->
<g id="node11" class="node">
<title>PcapRecordingShowcase</title>
<g id="a_node11"><a xlink:href="inet.showcases.general.pcaprecording.PcapRecordingShowcase.html" xlink:title="Network PcapRecordingShowcase" target="_parent">
<polygon fill="#d0d0ff" stroke="black" points="1673,-129 1536,-129 1536,-110 1673,-110 1673,-129"/>
<text text-anchor="middle" x="1604.5" y="-117" font-family="Helvetica,sans-Serif" font-size="10.00">PcapRecordingShowcase</text>
</a>
</g>
</g>
<!-- PcapRecordingShowcase&#45;&gt;IntegratedMultiVisualizer -->
<g id="edge10" class="edge">
<title>PcapRecordingShowcase&#45;&gt;IntegratedMultiVisualizer</title>
<path fill="none" stroke="black" d="M1535.61,-110.87C1532.53,-110.56 1529.48,-110.27 1526.5,-110 1343.68,-93.17 1128.67,-78.22 1014.77,-70.68"/>
<polygon fill="black" stroke="black" points="1014.94,-67.18 1004.73,-70.01 1014.48,-74.17 1014.94,-67.18"/>
</g>
</g>
</svg>
