<?xml version="1.0" encoding="UTF-8" standalone="no"?>
<!DOCTYPE svg PUBLIC "-//W3C//DTD SVG 1.1//EN"
 "http://www.w3.org/Graphics/SVG/1.1/DTD/svg11.dtd">
<!-- Generated by graphviz version 2.43.0 (0)
 -->
<!-- Title: opp Pages: 1 -->
<svg width="908pt" height="82pt"
 viewBox="0.00 0.00 907.50 82.00" xmlns="http://www.w3.org/2000/svg" xmlns:xlink="http://www.w3.org/1999/xlink">
<g id="graph0" class="graph" transform="scale(1 1) rotate(0) translate(4 78)">
<title>opp</title>
<polygon fill="transparent" stroke="transparent" points="-4,4 -4,-78 903.5,-78 903.5,4 -4,4"/>
<!-- EthernetPreemptingMacLayer -->
<g id="node1" class="node">
<title>EthernetPreemptingMacLayer</title>
<g id="a_node1"><a xlink:href="inet.linklayer.ethernet.modular.EthernetPreemptingMacLayer.html" xlink:title="Compound Module EthernetPreemptingMacLayer" target="_parent">
<polygon fill="#fff700" stroke="black" points="523,-74 362,-74 362,-55 523,-55 523,-74"/>
<text text-anchor="middle" x="442.5" y="-62" font-family="Helvetica,sans-Serif" font-size="10.00">EthernetPreemptingMacLayer</text>
</a>
</g>
</g>
<!-- PacketClassifier -->
<g id="node2" class="node">
<title>PacketClassifier</title>
<g id="a_node2"><a xlink:href="inet.queueing.classifier.PacketClassifier.html" xlink:title="Simple Module PacketClassifier" target="_parent">
<polygon fill="#fffcaf" stroke="black" points="95,-19 0,-19 0,0 95,0 95,-19"/>
<text text-anchor="middle" x="47.5" y="-7" font-family="Helvetica,sans-Serif" font-size="10.00">PacketClassifier</text>
</a>
</g>
</g>
<!-- EthernetPreemptingMacLayer&#45;&gt;PacketClassifier -->
<g id="edge1" class="edge">
<title>EthernetPreemptingMacLayer&#45;&gt;PacketClassifier</title>
<path fill="none" stroke="black" d="M375.12,-54.97C309.07,-46.54 205.24,-33.07 105.07,-19.06"/>
<polygon fill="black" stroke="black" points="105.47,-15.58 95.08,-17.66 104.49,-22.51 105.47,-15.58"/>
</g>
<!-- IdealChannel -->
<g id="node3" class="node">
<title>IdealChannel</title>
<g id="a_node3"><a xlink:href="ned.IdealChannel.html" xlink:title="Channel IdealChannel" target="_parent">
<polygon fill="#d0ffd0" stroke="black" points="193.5,-19 113.5,-19 113.5,0 193.5,0 193.5,-19"/>
<text text-anchor="middle" x="153.5" y="-7" font-family="Helvetica,sans-Serif" font-size="10.00">IdealChannel</text>
</a>
</g>
</g>
<!-- EthernetPreemptingMacLayer&#45;&gt;IdealChannel -->
<g id="edge2" class="edge">
<title>EthernetPreemptingMacLayer&#45;&gt;IdealChannel</title>
<path fill="none" stroke="black" d="M396.07,-54.98C343.45,-45.34 258,-29.66 203.82,-19.73"/>
<polygon fill="black" stroke="black" points="204.23,-16.24 193.76,-17.88 202.96,-23.13 204.23,-16.24"/>
</g>
<!-- PriorityScheduler -->
<g id="node4" class="node">
<title>PriorityScheduler</title>
<g id="a_node4"><a xlink:href="inet.queueing.scheduler.PriorityScheduler.html" xlink:title="Simple Module PriorityScheduler" target="_parent">
<polygon fill="#fffcaf" stroke="black" points="311.5,-19 211.5,-19 211.5,0 311.5,0 311.5,-19"/>
<text text-anchor="middle" x="261.5" y="-7" font-family="Helvetica,sans-Serif" font-size="10.00">PriorityScheduler</text>
</a>
</g>
</g>
<!-- EthernetPreemptingMacLayer&#45;&gt;PriorityScheduler -->
<g id="edge3" class="edge">
<title>EthernetPreemptingMacLayer&#45;&gt;PriorityScheduler</title>
<path fill="none" stroke="black" d="M413.42,-54.98C382.9,-46.05 334.74,-31.94 300.84,-22.02"/>
<polygon fill="black" stroke="black" points="301.39,-18.53 290.81,-19.08 299.42,-25.25 301.39,-18.53"/>
</g>
<!-- PacketMultiplexer -->
<g id="node5" class="node">
<title>PacketMultiplexer</title>
<g id="a_node5"><a xlink:href="inet.queueing.common.PacketMultiplexer.html" xlink:title="Simple Module PacketMultiplexer" target="_parent">
<polygon fill="#fffcaf" stroke="black" points="433.5,-19 329.5,-19 329.5,0 433.5,0 433.5,-19"/>
<text text-anchor="middle" x="381.5" y="-7" font-family="Helvetica,sans-Serif" font-size="10.00">PacketMultiplexer</text>
</a>
</g>
</g>
<!-- EthernetPreemptingMacLayer&#45;&gt;PacketMultiplexer -->
<g id="edge4" class="edge">
<title>EthernetPreemptingMacLayer&#45;&gt;PacketMultiplexer</title>
<path fill="none" stroke="black" d="M432.7,-54.98C423.68,-47.15 410.09,-35.34 399.18,-25.86"/>
<polygon fill="black" stroke="black" points="401.32,-23.09 391.48,-19.17 396.73,-28.37 401.32,-23.09"/>
</g>
<!-- PreemptingServer -->
<g id="node6" class="node">
<title>PreemptingServer</title>
<g id="a_node6"><a xlink:href="inet.queueing.server.PreemptingServer.html" xlink:title="Simple Module PreemptingServer" target="_parent">
<polygon fill="#fffcaf" stroke="black" points="555.5,-19 451.5,-19 451.5,0 555.5,0 555.5,-19"/>
<text text-anchor="middle" x="503.5" y="-7" font-family="Helvetica,sans-Serif" font-size="10.00">PreemptingServer</text>
</a>
</g>
</g>
<!-- EthernetPreemptingMacLayer&#45;&gt;PreemptingServer -->
<g id="edge5" class="edge">
<title>EthernetPreemptingMacLayer&#45;&gt;PreemptingServer</title>
<path fill="none" stroke="black" d="M452.3,-54.98C461.32,-47.15 474.91,-35.34 485.82,-25.86"/>
<polygon fill="black" stroke="black" points="488.27,-28.37 493.52,-19.17 483.68,-23.09 488.27,-28.37"/>
</g>
<!-- IPacketQueue -->
<g id="node7" class="node">
<title>IPacketQueue</title>
<g id="a_node7"><a xlink:href="inet.queueing.contract.IPacketQueue.html" xlink:title="Module Interface IPacketQueue" target="_parent">
<polygon fill="#fffcaf" stroke="black" stroke-dasharray="5,2" points="657,-19 574,-19 574,0 657,0 657,-19"/>
<text text-anchor="middle" x="615.5" y="-7" font-family="Helvetica,sans-Serif" font-size="10.00">IPacketQueue</text>
</a>
</g>
</g>
<!-- EthernetPreemptingMacLayer&#45;&gt;IPacketQueue -->
<g id="edge6" class="edge">
<title>EthernetPreemptingMacLayer&#45;&gt;IPacketQueue</title>
<path fill="none" stroke="black" d="M470.3,-54.98C499.47,-46.05 545.5,-31.94 577.9,-22.02"/>
<polygon fill="black" stroke="black" points="578.95,-25.36 587.49,-19.08 576.9,-18.66 578.95,-25.36"/>
</g>
<!-- IEthernetMacLayer -->
<g id="node8" class="node">
<title>IEthernetMacLayer</title>
<g id="a_node8"><a xlink:href="inet.linklayer.ethernet.contract.IEthernetMacLayer.html" xlink:title="Module Interface IEthernetMacLayer" target="_parent">
<polygon fill="#fffcaf" stroke="black" stroke-dasharray="5,2" points="783.5,-19 675.5,-19 675.5,0 783.5,0 783.5,-19"/>
<text text-anchor="middle" x="729.5" y="-7" font-family="Helvetica,sans-Serif" font-size="10.00">IEthernetMacLayer</text>
</a>
</g>
</g>
<!-- EthernetPreemptingMacLayer&#45;&gt;IEthernetMacLayer -->
<g id="edge7" class="edge">
<title>EthernetPreemptingMacLayer&#45;&gt;IEthernetMacLayer</title>
<path fill="none" stroke="black" d="M488.61,-54.98C538.78,-45.72 619.01,-30.9 672.94,-20.94"/>
<polygon fill="black" stroke="black" points="673.83,-24.34 683.03,-19.08 672.56,-17.46 673.83,-24.34"/>
</g>
<!-- IPacketLifeTimer -->
<g id="node9" class="node">
<title>IPacketLifeTimer</title>
<g id="a_node9"><a xlink:href="inet.protocolelement.contract.IPacketLifeTimer.html" xlink:title="Module Interface IPacketLifeTimer" target="_parent">
<polygon fill="#fffcaf" stroke="black" stroke-dasharray="5,2" points="899.5,-19 801.5,-19 801.5,0 899.5,0 899.5,-19"/>
<text text-anchor="middle" x="850.5" y="-7" font-family="Helvetica,sans-Serif" font-size="10.00">IPacketLifeTimer</text>
</a>
</g>
</g>
<!-- EthernetPreemptingMacLayer&#45;&gt;IPacketLifeTimer -->
<g id="edge8" class="edge">
<title>EthernetPreemptingMacLayer&#45;&gt;IPacketLifeTimer</title>
<path fill="none" stroke="black" d="M512.61,-54.98C581.1,-46.58 688.58,-33.14 791.52,-19.11"/>
<polygon fill="black" stroke="black" points="792.03,-22.58 801.46,-17.75 791.08,-15.64 792.03,-22.58"/>
</g>
</g>
</svg>
