<?xml version="1.0" encoding="UTF-8" standalone="no"?>
<!DOCTYPE svg PUBLIC "-//W3C//DTD SVG 1.1//EN"
 "http://www.w3.org/Graphics/SVG/1.1/DTD/svg11.dtd">
<!-- Generated by graphviz version 2.43.0 (0)
 -->
<!-- Title: opp Pages: 1 -->
<svg width="252pt" height="82pt"
 viewBox="0.00 0.00 252.00 82.00" xmlns="http://www.w3.org/2000/svg" xmlns:xlink="http://www.w3.org/1999/xlink">
<g id="graph0" class="graph" transform="scale(1 1) rotate(0) translate(4 78)">
<title>opp</title>
<polygon fill="transparent" stroke="transparent" points="-4,4 -4,-78 248,-78 248,4 -4,4"/>
<!-- IPacketPuller -->
<g id="node1" class="node">
<title>IPacketPuller</title>
<g id="a_node1"><a xlink:href="inet.queueing.contract.IPacketPuller.html" xlink:title="Module Interface IPacketPuller" target="_parent">
<polygon fill="#fff700" stroke="black" stroke-dasharray="5,2" points="166,-19 86,-19 86,0 166,0 166,-19"/>
<text text-anchor="middle" x="126" y="-7" font-family="Helvetica,sans-Serif" font-size="10.00">IPacketPuller</text>
</a>
</g>
</g>
<!-- IPassivePacketSource -->
<g id="node2" class="node">
<title>IPassivePacketSource</title>
<g id="a_node2"><a xlink:href="inet.queueing.contract.IPassivePacketSource.html" xlink:title="Module Interface IPassivePacketSource" target="_parent">
<polygon fill="#fffcaf" stroke="black" stroke-dasharray="5,2" points="122,-74 0,-74 0,-55 122,-55 122,-74"/>
<text text-anchor="middle" x="61" y="-62" font-family="Helvetica,sans-Serif" font-size="10.00">IPassivePacketSource</text>
</a>
</g>
</g>
<!-- IPassivePacketSource&#45;&gt;IPacketPuller -->
<g id="edge1" class="edge">
<title>IPassivePacketSource&#45;&gt;IPacketPuller</title>
<path fill="none" stroke="black" d="M71.44,-54.98C83.5,-45.15 103.23,-29.07 115.37,-19.17"/>
</g>
<!-- IActivePacketSink -->
<g id="node3" class="node">
<title>IActivePacketSink</title>
<g id="a_node3"><a xlink:href="inet.queueing.contract.IActivePacketSink.html" xlink:title="Module Interface IActivePacketSink" target="_parent">
<polygon fill="#fffcaf" stroke="black" stroke-dasharray="5,2" points="244,-74 140,-74 140,-55 244,-55 244,-74"/>
<text text-anchor="middle" x="192" y="-62" font-family="Helvetica,sans-Serif" font-size="10.00">IActivePacketSink</text>
</a>
</g>
</g>
<!-- IActivePacketSink&#45;&gt;IPacketPuller -->
<g id="edge2" class="edge">
<title>IActivePacketSink&#45;&gt;IPacketPuller</title>
<path fill="none" stroke="black" d="M181.4,-54.98C169.15,-45.15 149.12,-29.07 136.8,-19.17"/>
</g>
</g>
</svg>
