<?xml version="1.0" encoding="UTF-8" standalone="no"?>
<!DOCTYPE svg PUBLIC "-//W3C//DTD SVG 1.1//EN"
 "http://www.w3.org/Graphics/SVG/1.1/DTD/svg11.dtd">
<!-- Generated by graphviz version 2.43.0 (0)
 -->
<!-- Title: opp Pages: 1 -->
<svg width="482pt" height="82pt"
 viewBox="0.00 0.00 481.50 82.00" xmlns="http://www.w3.org/2000/svg" xmlns:xlink="http://www.w3.org/1999/xlink">
<g id="graph0" class="graph" transform="scale(1 1) rotate(0) translate(4 78)">
<title>opp</title>
<polygon fill="transparent" stroke="transparent" points="-4,4 -4,-78 477.5,-78 477.5,4 -4,4"/>
<!-- DemultiplexerTutorialStep -->
<g id="node1" class="node">
<title>DemultiplexerTutorialStep</title>
<g id="a_node1"><a xlink:href="inet.tutorials.queueing.DemultiplexerTutorialStep.html" xlink:title="Network DemultiplexerTutorialStep" target="_parent">
<polygon fill="#9090ff" stroke="black" points="298,-74 154,-74 154,-55 298,-55 298,-74"/>
<text text-anchor="middle" x="226" y="-62" font-family="Helvetica,sans-Serif" font-size="10.00">DemultiplexerTutorialStep</text>
</a>
</g>
</g>
<!-- IdealChannel -->
<g id="node2" class="node">
<title>IdealChannel</title>
<g id="a_node2"><a xlink:href="ned.IdealChannel.html" xlink:title="Channel IdealChannel" target="_parent">
<polygon fill="#d0ffd0" stroke="black" points="80,-19 0,-19 0,0 80,0 80,-19"/>
<text text-anchor="middle" x="40" y="-7" font-family="Helvetica,sans-Serif" font-size="10.00">IdealChannel</text>
</a>
</g>
</g>
<!-- DemultiplexerTutorialStep&#45;&gt;IdealChannel -->
<g id="edge1" class="edge">
<title>DemultiplexerTutorialStep&#45;&gt;IdealChannel</title>
<path fill="none" stroke="black" d="M196.12,-54.98C164.62,-46.01 114.83,-31.82 79.97,-21.89"/>
<polygon fill="black" stroke="black" points="80.69,-18.46 70.12,-19.08 78.78,-25.19 80.69,-18.46"/>
</g>
<!-- PacketDemultiplexer -->
<g id="node3" class="node">
<title>PacketDemultiplexer</title>
<g id="a_node3"><a xlink:href="inet.queueing.common.PacketDemultiplexer.html" xlink:title="Simple Module PacketDemultiplexer" target="_parent">
<polygon fill="#fffcaf" stroke="black" points="217.5,-19 98.5,-19 98.5,0 217.5,0 217.5,-19"/>
<text text-anchor="middle" x="158" y="-7" font-family="Helvetica,sans-Serif" font-size="10.00">PacketDemultiplexer</text>
</a>
</g>
</g>
<!-- DemultiplexerTutorialStep&#45;&gt;PacketDemultiplexer -->
<g id="edge2" class="edge">
<title>DemultiplexerTutorialStep&#45;&gt;PacketDemultiplexer</title>
<path fill="none" stroke="black" d="M215.07,-54.98C204.92,-47.07 189.58,-35.11 177.35,-25.58"/>
<polygon fill="black" stroke="black" points="179.16,-22.56 169.12,-19.17 174.86,-28.08 179.16,-22.56"/>
</g>
<!-- PassivePacketSource -->
<g id="node4" class="node">
<title>PassivePacketSource</title>
<g id="a_node4"><a xlink:href="inet.queueing.source.PassivePacketSource.html" xlink:title="Simple Module PassivePacketSource" target="_parent">
<polygon fill="#fffcaf" stroke="black" points="354.5,-19 235.5,-19 235.5,0 354.5,0 354.5,-19"/>
<text text-anchor="middle" x="295" y="-7" font-family="Helvetica,sans-Serif" font-size="10.00">PassivePacketSource</text>
</a>
</g>
</g>
<!-- DemultiplexerTutorialStep&#45;&gt;PassivePacketSource -->
<g id="edge3" class="edge">
<title>DemultiplexerTutorialStep&#45;&gt;PassivePacketSource</title>
<path fill="none" stroke="black" d="M237.09,-54.98C247.49,-47 263.26,-34.88 275.72,-25.31"/>
<polygon fill="black" stroke="black" points="277.91,-28.04 283.71,-19.17 273.65,-22.49 277.91,-28.04"/>
</g>
<!-- ActivePacketSink -->
<g id="node5" class="node">
<title>ActivePacketSink</title>
<g id="a_node5"><a xlink:href="inet.queueing.sink.ActivePacketSink.html" xlink:title="Simple Module ActivePacketSink" target="_parent">
<polygon fill="#fffcaf" stroke="black" points="473.5,-19 372.5,-19 372.5,0 473.5,0 473.5,-19"/>
<text text-anchor="middle" x="423" y="-7" font-family="Helvetica,sans-Serif" font-size="10.00">ActivePacketSink</text>
</a>
</g>
</g>
<!-- DemultiplexerTutorialStep&#45;&gt;ActivePacketSink -->
<g id="edge4" class="edge">
<title>DemultiplexerTutorialStep&#45;&gt;ActivePacketSink</title>
<path fill="none" stroke="black" d="M257.65,-54.98C291.16,-45.97 344.2,-31.7 381.14,-21.76"/>
<polygon fill="black" stroke="black" points="382.35,-25.06 391.1,-19.08 380.53,-18.3 382.35,-25.06"/>
</g>
</g>
</svg>
