<?xml version="1.0" encoding="UTF-8" standalone="no"?>
<!DOCTYPE svg PUBLIC "-//W3C//DTD SVG 1.1//EN"
 "http://www.w3.org/Graphics/SVG/1.1/DTD/svg11.dtd">
<!-- Generated by graphviz version 2.43.0 (0)
 -->
<!-- Title: opp Pages: 1 -->
<svg width="499pt" height="82pt"
 viewBox="0.00 0.00 498.50 82.00" xmlns="http://www.w3.org/2000/svg" xmlns:xlink="http://www.w3.org/1999/xlink">
<g id="graph0" class="graph" transform="scale(1 1) rotate(0) translate(4 78)">
<title>opp</title>
<polygon fill="transparent" stroke="transparent" points="-4,4 -4,-78 494.5,-78 494.5,4 -4,4"/>
<!-- Hierarchical99 -->
<g id="node1" class="node">
<title>Hierarchical99</title>
<g id="a_node1"><a xlink:href="inet.examples.inet.hierarchical99.Hierarchical99.html" xlink:title="Network Hierarchical99" target="_parent">
<polygon fill="#9090ff" stroke="black" points="214.5,-74 127.5,-74 127.5,-55 214.5,-55 214.5,-74"/>
<text text-anchor="middle" x="171" y="-62" font-family="Helvetica,sans-Serif" font-size="10.00">Hierarchical99</text>
</a>
</g>
</g>
<!-- Area -->
<g id="node2" class="node">
<title>Area</title>
<g id="a_node2"><a xlink:href="inet.examples.inet.hierarchical99.Hierarchical99.Area.html" xlink:title="Compound Module Area" target="_parent">
<polygon fill="#fffcaf" stroke="black" points="54,-19 0,-19 0,0 54,0 54,-19"/>
<text text-anchor="middle" x="27" y="-7" font-family="Helvetica,sans-Serif" font-size="10.00">Area</text>
</a>
</g>
</g>
<!-- Hierarchical99&#45;&gt;Area -->
<g id="edge1" class="edge">
<title>Hierarchical99&#45;&gt;Area</title>
<path fill="none" stroke="black" d="M147.86,-54.98C124.18,-46.27 87.13,-32.63 60.29,-22.75"/>
<polygon fill="black" stroke="black" points="61.15,-19.34 50.56,-19.17 58.73,-25.91 61.15,-19.34"/>
</g>
<!-- Eth10G -->
<g id="node3" class="node">
<title>Eth10G</title>
<g id="a_node3"><a xlink:href="inet.node.ethernet.Eth10G.html" xlink:title="Channel Eth10G" target="_parent">
<polygon fill="#d0ffd0" stroke="black" points="126,-19 72,-19 72,0 126,0 126,-19"/>
<text text-anchor="middle" x="99" y="-7" font-family="Helvetica,sans-Serif" font-size="10.00">Eth10G</text>
</a>
</g>
</g>
<!-- Hierarchical99&#45;&gt;Eth10G -->
<g id="edge2" class="edge">
<title>Hierarchical99&#45;&gt;Eth10G</title>
<path fill="none" stroke="black" d="M159.43,-54.98C148.58,-47 132.12,-34.88 119.12,-25.31"/>
<polygon fill="black" stroke="black" points="120.91,-22.28 110.78,-19.17 116.76,-27.92 120.91,-22.28"/>
</g>
<!-- Router -->
<g id="node4" class="node">
<title>Router</title>
<g id="a_node4"><a xlink:href="inet.node.inet.Router.html" xlink:title="Compound Module Router" target="_parent">
<polygon fill="#fffcaf" stroke="black" points="198,-19 144,-19 144,0 198,0 198,-19"/>
<text text-anchor="middle" x="171" y="-7" font-family="Helvetica,sans-Serif" font-size="10.00">Router</text>
</a>
</g>
</g>
<!-- Hierarchical99&#45;&gt;Router -->
<g id="edge3" class="edge">
<title>Hierarchical99&#45;&gt;Router</title>
<path fill="none" stroke="black" d="M171,-54.75C171,-47.8 171,-37.85 171,-29.13"/>
<polygon fill="black" stroke="black" points="174.5,-29.09 171,-19.09 167.5,-29.09 174.5,-29.09"/>
</g>
<!-- RoutingTableRecorder -->
<g id="node5" class="node">
<title>RoutingTableRecorder</title>
<g id="a_node5"><a xlink:href="inet.networklayer.ipv4.RoutingTableRecorder.html" xlink:title="Simple Module RoutingTableRecorder" target="_parent">
<polygon fill="#fffcaf" stroke="black" points="339.5,-19 216.5,-19 216.5,0 339.5,0 339.5,-19"/>
<text text-anchor="middle" x="278" y="-7" font-family="Helvetica,sans-Serif" font-size="10.00">RoutingTableRecorder</text>
</a>
</g>
</g>
<!-- Hierarchical99&#45;&gt;RoutingTableRecorder -->
<g id="edge4" class="edge">
<title>Hierarchical99&#45;&gt;RoutingTableRecorder</title>
<path fill="none" stroke="black" d="M188.19,-54.98C205.25,-46.54 231.63,-33.47 251.4,-23.68"/>
<polygon fill="black" stroke="black" points="253.09,-26.75 260.5,-19.17 249.98,-20.47 253.09,-26.75"/>
</g>
<!-- IL3NetworkConfigurator -->
<g id="node6" class="node">
<title>IL3NetworkConfigurator</title>
<g id="a_node6"><a xlink:href="inet.networklayer.configurator.contract.IL3NetworkConfigurator.html" xlink:title="Module Interface IL3NetworkConfigurator" target="_parent">
<polygon fill="#fffcaf" stroke="black" stroke-dasharray="5,2" points="490.5,-19 357.5,-19 357.5,0 490.5,0 490.5,-19"/>
<text text-anchor="middle" x="424" y="-7" font-family="Helvetica,sans-Serif" font-size="10.00">IL3NetworkConfigurator</text>
</a>
</g>
</g>
<!-- Hierarchical99&#45;&gt;IL3NetworkConfigurator -->
<g id="edge5" class="edge">
<title>Hierarchical99&#45;&gt;IL3NetworkConfigurator</title>
<path fill="none" stroke="black" d="M211.65,-54.98C255.5,-45.8 325.42,-31.15 372.95,-21.19"/>
<polygon fill="black" stroke="black" points="373.96,-24.56 383.03,-19.08 372.53,-17.71 373.96,-24.56"/>
</g>
</g>
</svg>
