<?xml version="1.0" encoding="UTF-8" standalone="no"?>
<!DOCTYPE svg PUBLIC "-//W3C//DTD SVG 1.1//EN"
 "http://www.w3.org/Graphics/SVG/1.1/DTD/svg11.dtd">
<!-- Generated by graphviz version 2.43.0 (0)
 -->
<!-- Title: opp Pages: 1 -->
<svg width="534pt" height="82pt"
 viewBox="0.00 0.00 534.00 82.00" xmlns="http://www.w3.org/2000/svg" xmlns:xlink="http://www.w3.org/1999/xlink">
<g id="graph0" class="graph" transform="scale(1 1) rotate(0) translate(4 78)">
<title>opp</title>
<polygon fill="transparent" stroke="transparent" points="-4,4 -4,-78 530,-78 530,4 -4,4"/>
<!-- BufferTutorialStep -->
<g id="node1" class="node">
<title>BufferTutorialStep</title>
<g id="a_node1"><a xlink:href="inet.tutorials.queueing.BufferTutorialStep.html" xlink:title="Network BufferTutorialStep" target="_parent">
<polygon fill="#9090ff" stroke="black" points="320.5,-74 216.5,-74 216.5,-55 320.5,-55 320.5,-74"/>
<text text-anchor="middle" x="268.5" y="-62" font-family="Helvetica,sans-Serif" font-size="10.00">BufferTutorialStep</text>
</a>
</g>
</g>
<!-- PacketBuffer -->
<g id="node2" class="node">
<title>PacketBuffer</title>
<g id="a_node2"><a xlink:href="inet.queueing.buffer.PacketBuffer.html" xlink:title="Simple Module PacketBuffer" target="_parent">
<polygon fill="#fffcaf" stroke="black" points="79,-19 0,-19 0,0 79,0 79,-19"/>
<text text-anchor="middle" x="39.5" y="-7" font-family="Helvetica,sans-Serif" font-size="10.00">PacketBuffer</text>
</a>
</g>
</g>
<!-- BufferTutorialStep&#45;&gt;PacketBuffer -->
<g id="edge1" class="edge">
<title>BufferTutorialStep&#45;&gt;PacketBuffer</title>
<path fill="none" stroke="black" d="M231.71,-54.98C192.26,-45.86 129.52,-31.33 86.52,-21.38"/>
<polygon fill="black" stroke="black" points="87.11,-17.93 76.58,-19.08 85.53,-24.75 87.11,-17.93"/>
</g>
<!-- ActivePacketSource -->
<g id="node3" class="node">
<title>ActivePacketSource</title>
<g id="a_node3"><a xlink:href="inet.queueing.source.ActivePacketSource.html" xlink:title="Simple Module ActivePacketSource" target="_parent">
<polygon fill="#fffcaf" stroke="black" points="210,-19 97,-19 97,0 210,0 210,-19"/>
<text text-anchor="middle" x="153.5" y="-7" font-family="Helvetica,sans-Serif" font-size="10.00">ActivePacketSource</text>
</a>
</g>
</g>
<!-- BufferTutorialStep&#45;&gt;ActivePacketSource -->
<g id="edge2" class="edge">
<title>BufferTutorialStep&#45;&gt;ActivePacketSource</title>
<path fill="none" stroke="black" d="M250.02,-54.98C231.52,-46.46 202.82,-33.23 181.52,-23.41"/>
<polygon fill="black" stroke="black" points="182.86,-20.18 172.31,-19.17 179.93,-26.53 182.86,-20.18"/>
</g>
<!-- IdealChannel -->
<g id="node4" class="node">
<title>IdealChannel</title>
<g id="a_node4"><a xlink:href="ned.IdealChannel.html" xlink:title="Channel IdealChannel" target="_parent">
<polygon fill="#d0ffd0" stroke="black" points="308.5,-19 228.5,-19 228.5,0 308.5,0 308.5,-19"/>
<text text-anchor="middle" x="268.5" y="-7" font-family="Helvetica,sans-Serif" font-size="10.00">IdealChannel</text>
</a>
</g>
</g>
<!-- BufferTutorialStep&#45;&gt;IdealChannel -->
<g id="edge3" class="edge">
<title>BufferTutorialStep&#45;&gt;IdealChannel</title>
<path fill="none" stroke="black" d="M268.5,-54.75C268.5,-47.8 268.5,-37.85 268.5,-29.13"/>
<polygon fill="black" stroke="black" points="272,-29.09 268.5,-19.09 265,-29.09 272,-29.09"/>
</g>
<!-- PacketQueue -->
<g id="node5" class="node">
<title>PacketQueue</title>
<g id="a_node5"><a xlink:href="inet.queueing.queue.PacketQueue.html" xlink:title="Simple Module PacketQueue" target="_parent">
<polygon fill="#fffcaf" stroke="black" points="406.5,-19 326.5,-19 326.5,0 406.5,0 406.5,-19"/>
<text text-anchor="middle" x="366.5" y="-7" font-family="Helvetica,sans-Serif" font-size="10.00">PacketQueue</text>
</a>
</g>
</g>
<!-- BufferTutorialStep&#45;&gt;PacketQueue -->
<g id="edge4" class="edge">
<title>BufferTutorialStep&#45;&gt;PacketQueue</title>
<path fill="none" stroke="black" d="M284.25,-54.98C299.73,-46.61 323.59,-33.7 341.64,-23.95"/>
<polygon fill="black" stroke="black" points="343.34,-27.01 350.47,-19.17 340.01,-20.85 343.34,-27.01"/>
</g>
<!-- ActivePacketSink -->
<g id="node6" class="node">
<title>ActivePacketSink</title>
<g id="a_node6"><a xlink:href="inet.queueing.sink.ActivePacketSink.html" xlink:title="Simple Module ActivePacketSink" target="_parent">
<polygon fill="#fffcaf" stroke="black" points="526,-19 425,-19 425,0 526,0 526,-19"/>
<text text-anchor="middle" x="475.5" y="-7" font-family="Helvetica,sans-Serif" font-size="10.00">ActivePacketSink</text>
</a>
</g>
</g>
<!-- BufferTutorialStep&#45;&gt;ActivePacketSink -->
<g id="edge5" class="edge">
<title>BufferTutorialStep&#45;&gt;ActivePacketSink</title>
<path fill="none" stroke="black" d="M301.76,-54.98C337.11,-45.93 393.17,-31.58 432.01,-21.64"/>
<polygon fill="black" stroke="black" points="433.16,-24.95 441.98,-19.08 431.43,-18.17 433.16,-24.95"/>
</g>
</g>
</svg>
