<?xml version="1.0" encoding="UTF-8" standalone="no"?>
<!DOCTYPE svg PUBLIC "-//W3C//DTD SVG 1.1//EN"
 "http://www.w3.org/Graphics/SVG/1.1/DTD/svg11.dtd">
<!-- Generated by graphviz version 2.43.0 (0)
 -->
<!-- Title: opp Pages: 1 -->
<svg width="430pt" height="82pt"
 viewBox="0.00 0.00 429.50 82.00" xmlns="http://www.w3.org/2000/svg" xmlns:xlink="http://www.w3.org/1999/xlink">
<g id="graph0" class="graph" transform="scale(1 1) rotate(0) translate(4 78)">
<title>opp</title>
<polygon fill="transparent" stroke="transparent" points="-4,4 -4,-78 425.5,-78 425.5,4 -4,4"/>
<!-- WiredNetWithDHCP -->
<g id="node1" class="node">
<title>WiredNetWithDHCP</title>
<g id="a_node1"><a xlink:href="inet.examples.dhcp.WiredNetWithDHCP.html" xlink:title="Network WiredNetWithDHCP" target="_parent">
<polygon fill="#9090ff" stroke="black" points="285,-74 172,-74 172,-55 285,-55 285,-74"/>
<text text-anchor="middle" x="228.5" y="-62" font-family="Helvetica,sans-Serif" font-size="10.00">WiredNetWithDHCP</text>
</a>
</g>
</g>
<!-- StandardHost -->
<g id="node2" class="node">
<title>StandardHost</title>
<g id="a_node2"><a xlink:href="inet.node.inet.StandardHost.html" xlink:title="Compound Module StandardHost" target="_parent">
<polygon fill="#fffcaf" stroke="black" points="83,-19 0,-19 0,0 83,0 83,-19"/>
<text text-anchor="middle" x="41.5" y="-7" font-family="Helvetica,sans-Serif" font-size="10.00">StandardHost</text>
</a>
</g>
</g>
<!-- WiredNetWithDHCP&#45;&gt;StandardHost -->
<g id="edge1" class="edge">
<title>WiredNetWithDHCP&#45;&gt;StandardHost</title>
<path fill="none" stroke="black" d="M198.46,-54.98C166.79,-46.01 116.73,-31.82 81.69,-21.89"/>
<polygon fill="black" stroke="black" points="82.36,-18.44 71.78,-19.08 80.45,-25.18 82.36,-18.44"/>
</g>
<!-- Ipv4NetworkConfigurator -->
<g id="node3" class="node">
<title>Ipv4NetworkConfigurator</title>
<g id="a_node3"><a xlink:href="inet.networklayer.configurator.ipv4.Ipv4NetworkConfigurator.html" xlink:title="Simple Module Ipv4NetworkConfigurator" target="_parent">
<polygon fill="#fffcaf" stroke="black" points="241.5,-19 101.5,-19 101.5,0 241.5,0 241.5,-19"/>
<text text-anchor="middle" x="171.5" y="-7" font-family="Helvetica,sans-Serif" font-size="10.00">Ipv4NetworkConfigurator</text>
</a>
</g>
</g>
<!-- WiredNetWithDHCP&#45;&gt;Ipv4NetworkConfigurator -->
<g id="edge2" class="edge">
<title>WiredNetWithDHCP&#45;&gt;Ipv4NetworkConfigurator</title>
<path fill="none" stroke="black" d="M219.34,-54.98C211,-47.23 198.47,-35.58 188.32,-26.14"/>
<polygon fill="black" stroke="black" points="190.53,-23.42 180.82,-19.17 185.76,-28.54 190.53,-23.42"/>
</g>
<!-- Eth10M -->
<g id="node4" class="node">
<title>Eth10M</title>
<g id="a_node4"><a xlink:href="inet.node.ethernet.Eth10M.html" xlink:title="Channel Eth10M" target="_parent">
<polygon fill="#d0ffd0" stroke="black" points="313.5,-19 259.5,-19 259.5,0 313.5,0 313.5,-19"/>
<text text-anchor="middle" x="286.5" y="-7" font-family="Helvetica,sans-Serif" font-size="10.00">Eth10M</text>
</a>
</g>
</g>
<!-- WiredNetWithDHCP&#45;&gt;Eth10M -->
<g id="edge3" class="edge">
<title>WiredNetWithDHCP&#45;&gt;Eth10M</title>
<path fill="none" stroke="black" d="M237.82,-54.98C246.31,-47.23 259.06,-35.58 269.38,-26.14"/>
<polygon fill="black" stroke="black" points="271.99,-28.5 277.01,-19.17 267.27,-23.33 271.99,-28.5"/>
</g>
<!-- EthernetSwitch -->
<g id="node5" class="node">
<title>EthernetSwitch</title>
<g id="a_node5"><a xlink:href="inet.node.ethernet.EthernetSwitch.html" xlink:title="Compound Module EthernetSwitch" target="_parent">
<polygon fill="#fffcaf" stroke="black" points="421.5,-19 331.5,-19 331.5,0 421.5,0 421.5,-19"/>
<text text-anchor="middle" x="376.5" y="-7" font-family="Helvetica,sans-Serif" font-size="10.00">EthernetSwitch</text>
</a>
</g>
</g>
<!-- WiredNetWithDHCP&#45;&gt;EthernetSwitch -->
<g id="edge4" class="edge">
<title>WiredNetWithDHCP&#45;&gt;EthernetSwitch</title>
<path fill="none" stroke="black" d="M252.28,-54.98C276.73,-46.23 315.03,-32.51 342.65,-22.62"/>
<polygon fill="black" stroke="black" points="344.05,-25.84 352.29,-19.17 341.69,-19.25 344.05,-25.84"/>
</g>
</g>
</svg>
