<?xml version="1.0" encoding="UTF-8" standalone="no"?>
<!DOCTYPE svg PUBLIC "-//W3C//DTD SVG 1.1//EN"
 "http://www.w3.org/Graphics/SVG/1.1/DTD/svg11.dtd">
<!-- Generated by graphviz version 2.43.0 (0)
 -->
<!-- Title: opp Pages: 1 -->
<svg width="270pt" height="82pt"
 viewBox="0.00 0.00 269.50 82.00" xmlns="http://www.w3.org/2000/svg" xmlns:xlink="http://www.w3.org/1999/xlink">
<g id="graph0" class="graph" transform="scale(1 1) rotate(0) translate(4 78)">
<title>opp</title>
<polygon fill="transparent" stroke="transparent" points="-4,4 -4,-78 265.5,-78 265.5,4 -4,4"/>
<!-- PriorityShaper -->
<g id="node1" class="node">
<title>PriorityShaper</title>
<g id="a_node1"><a xlink:href="inet.queueing.shaper.PriorityShaper.html" xlink:title="Compound Module PriorityShaper" target="_parent">
<polygon fill="#fff700" stroke="black" points="191.5,-19 105.5,-19 105.5,0 191.5,0 191.5,-19"/>
<text text-anchor="middle" x="148.5" y="-7" font-family="Helvetica,sans-Serif" font-size="10.00">PriorityShaper</text>
</a>
</g>
</g>
<!-- CompoundPacketQueueBase -->
<g id="node2" class="node">
<title>CompoundPacketQueueBase</title>
<g id="a_node2"><a xlink:href="inet.queueing.queue.CompoundPacketQueueBase.html" xlink:title="Compound Module CompoundPacketQueueBase" target="_parent">
<polygon fill="#fffcaf" stroke="black" points="157,-74 0,-74 0,-55 157,-55 157,-74"/>
<text text-anchor="middle" x="78.5" y="-62" font-family="Helvetica,sans-Serif" font-size="10.00">CompoundPacketQueueBase</text>
</a>
</g>
</g>
<!-- CompoundPacketQueueBase&#45;&gt;PriorityShaper -->
<g id="edge1" class="edge">
<title>CompoundPacketQueueBase&#45;&gt;PriorityShaper</title>
<path fill="none" stroke="black" d="M89.75,-54.98C102.73,-45.15 123.98,-29.07 137.05,-19.17"/>
</g>
<!-- IPacketShaper -->
<g id="node3" class="node">
<title>IPacketShaper</title>
<g id="a_node3"><a xlink:href="inet.queueing.contract.IPacketShaper.html" xlink:title="Module Interface IPacketShaper" target="_parent">
<polygon fill="#fffcaf" stroke="black" stroke-dasharray="5,2" points="261.5,-74 175.5,-74 175.5,-55 261.5,-55 261.5,-74"/>
<text text-anchor="middle" x="218.5" y="-62" font-family="Helvetica,sans-Serif" font-size="10.00">IPacketShaper</text>
</a>
</g>
</g>
<!-- IPacketShaper&#45;&gt;PriorityShaper -->
<g id="edge2" class="edge">
<title>IPacketShaper&#45;&gt;PriorityShaper</title>
<path fill="none" stroke="black" stroke-dasharray="5,2" d="M207.25,-54.98C194.27,-45.15 173.02,-29.07 159.95,-19.17"/>
</g>
</g>
</svg>
