<?xml version="1.0" encoding="UTF-8" standalone="no"?>
<!DOCTYPE svg PUBLIC "-//W3C//DTD SVG 1.1//EN"
 "http://www.w3.org/Graphics/SVG/1.1/DTD/svg11.dtd">
<!-- Generated by graphviz version 2.43.0 (0)
 -->
<!-- Title: opp Pages: 1 -->
<svg width="302pt" height="82pt"
 viewBox="0.00 0.00 302.00 82.00" xmlns="http://www.w3.org/2000/svg" xmlns:xlink="http://www.w3.org/1999/xlink">
<g id="graph0" class="graph" transform="scale(1 1) rotate(0) translate(4 78)">
<title>opp</title>
<polygon fill="transparent" stroke="transparent" points="-4,4 -4,-78 298,-78 298,4 -4,4"/>
<!-- IPacketDropVisualizer -->
<g id="node1" class="node">
<title>IPacketDropVisualizer</title>
<g id="a_node1"><a xlink:href="inet.visualizer.contract.IPacketDropVisualizer.html" xlink:title="Module Interface IPacketDropVisualizer" target="_parent">
<polygon fill="#fff700" stroke="black" stroke-dasharray="5,2" points="217.5,-74 94.5,-74 94.5,-55 217.5,-55 217.5,-74"/>
<text text-anchor="middle" x="156" y="-62" font-family="Helvetica,sans-Serif" font-size="10.00">IPacketDropVisualizer</text>
</a>
</g>
</g>
<!-- PacketDropCanvasVisualizer -->
<g id="node2" class="node">
<title>PacketDropCanvasVisualizer</title>
<g id="a_node2"><a xlink:href="inet.visualizer.canvas.common.PacketDropCanvasVisualizer.html" xlink:title="Simple Module PacketDropCanvasVisualizer" target="_parent">
<polygon fill="#fffcaf" stroke="black" points="156,-19 0,-19 0,0 156,0 156,-19"/>
<text text-anchor="middle" x="78" y="-7" font-family="Helvetica,sans-Serif" font-size="10.00">PacketDropCanvasVisualizer</text>
</a>
</g>
</g>
<!-- IPacketDropVisualizer&#45;&gt;PacketDropCanvasVisualizer -->
<g id="edge1" class="edge">
<title>IPacketDropVisualizer&#45;&gt;PacketDropCanvasVisualizer</title>
<path fill="none" stroke="black" stroke-dasharray="5,2" d="M143.47,-54.98C129,-45.15 105.33,-29.07 90.76,-19.17"/>
</g>
<!-- PacketDropVisualizer -->
<g id="node3" class="node">
<title>PacketDropVisualizer</title>
<g id="a_node3"><a xlink:href="inet.visualizer.common.PacketDropVisualizer.html" xlink:title="Compound Module PacketDropVisualizer" target="_parent">
<polygon fill="#fffcaf" stroke="black" points="294,-19 174,-19 174,0 294,0 294,-19"/>
<text text-anchor="middle" x="234" y="-7" font-family="Helvetica,sans-Serif" font-size="10.00">PacketDropVisualizer</text>
</a>
</g>
</g>
<!-- IPacketDropVisualizer&#45;&gt;PacketDropVisualizer -->
<g id="edge2" class="edge">
<title>IPacketDropVisualizer&#45;&gt;PacketDropVisualizer</title>
<path fill="none" stroke="black" stroke-dasharray="5,2" d="M168.53,-54.98C183,-45.15 206.67,-29.07 221.24,-19.17"/>
</g>
</g>
</svg>
