<?xml version="1.0" encoding="UTF-8" standalone="no"?>
<!DOCTYPE svg PUBLIC "-//W3C//DTD SVG 1.1//EN"
 "http://www.w3.org/Graphics/SVG/1.1/DTD/svg11.dtd">
<!-- Generated by graphviz version 2.43.0 (0)
 -->
<!-- Title: opp Pages: 1 -->
<svg width="387pt" height="82pt"
 viewBox="0.00 0.00 386.50 82.00" xmlns="http://www.w3.org/2000/svg" xmlns:xlink="http://www.w3.org/1999/xlink">
<g id="graph0" class="graph" transform="scale(1 1) rotate(0) translate(4 78)">
<title>opp</title>
<polygon fill="transparent" stroke="transparent" points="-4,4 -4,-78 382.5,-78 382.5,4 -4,4"/>
<!-- MobileNetworkWithEnvironment -->
<g id="node1" class="node">
<title>MobileNetworkWithEnvironment</title>
<g id="a_node1"><a xlink:href="inet.examples.mobility.MobileNetworkWithEnvironment.html" xlink:title="Network MobileNetworkWithEnvironment" target="_parent">
<polygon fill="#9090ff" stroke="black" points="238,-74 62,-74 62,-55 238,-55 238,-74"/>
<text text-anchor="middle" x="150" y="-62" font-family="Helvetica,sans-Serif" font-size="10.00">MobileNetworkWithEnvironment</text>
</a>
</g>
</g>
<!-- MobileHost -->
<g id="node2" class="node">
<title>MobileHost</title>
<g id="a_node2"><a xlink:href="inet.examples.mobility.MobileHost.html" xlink:title="Compound Module MobileHost" target="_parent">
<polygon fill="#fffcaf" stroke="black" points="72,-19 0,-19 0,0 72,0 72,-19"/>
<text text-anchor="middle" x="36" y="-7" font-family="Helvetica,sans-Serif" font-size="10.00">MobileHost</text>
</a>
</g>
</g>
<!-- MobileNetworkWithEnvironment&#45;&gt;MobileHost -->
<g id="edge1" class="edge">
<title>MobileNetworkWithEnvironment&#45;&gt;MobileHost</title>
<path fill="none" stroke="black" d="M131.68,-54.98C113.34,-46.46 84.89,-33.23 63.77,-23.41"/>
<polygon fill="black" stroke="black" points="65.19,-20.21 54.65,-19.17 62.24,-26.56 65.19,-20.21"/>
</g>
<!-- PhysicalEnvironment -->
<g id="node3" class="node">
<title>PhysicalEnvironment</title>
<g id="a_node3"><a xlink:href="inet.environment.common.PhysicalEnvironment.html" xlink:title="Compound Module PhysicalEnvironment" target="_parent">
<polygon fill="#fffcaf" stroke="black" points="209.5,-19 90.5,-19 90.5,0 209.5,0 209.5,-19"/>
<text text-anchor="middle" x="150" y="-7" font-family="Helvetica,sans-Serif" font-size="10.00">PhysicalEnvironment</text>
</a>
</g>
</g>
<!-- MobileNetworkWithEnvironment&#45;&gt;PhysicalEnvironment -->
<g id="edge2" class="edge">
<title>MobileNetworkWithEnvironment&#45;&gt;PhysicalEnvironment</title>
<path fill="none" stroke="black" d="M150,-54.75C150,-47.8 150,-37.85 150,-29.13"/>
<polygon fill="black" stroke="black" points="153.5,-29.09 150,-19.09 146.5,-29.09 153.5,-29.09"/>
</g>
<!-- IntegratedCanvasVisualizer -->
<g id="node4" class="node">
<title>IntegratedCanvasVisualizer</title>
<g id="a_node4"><a xlink:href="inet.visualizer.canvas.integrated.IntegratedCanvasVisualizer.html" xlink:title="Compound Module IntegratedCanvasVisualizer" target="_parent">
<polygon fill="#fffcaf" stroke="black" points="378.5,-19 227.5,-19 227.5,0 378.5,0 378.5,-19"/>
<text text-anchor="middle" x="303" y="-7" font-family="Helvetica,sans-Serif" font-size="10.00">IntegratedCanvasVisualizer</text>
</a>
</g>
</g>
<!-- MobileNetworkWithEnvironment&#45;&gt;IntegratedCanvasVisualizer -->
<g id="edge3" class="edge">
<title>MobileNetworkWithEnvironment&#45;&gt;IntegratedCanvasVisualizer</title>
<path fill="none" stroke="black" d="M174.58,-54.98C200.05,-46.16 240.04,-32.31 268.63,-22.41"/>
<polygon fill="black" stroke="black" points="269.92,-25.66 278.23,-19.08 267.63,-19.05 269.92,-25.66"/>
</g>
</g>
</svg>
