<?xml version="1.0" encoding="UTF-8" standalone="no"?>
<!DOCTYPE svg PUBLIC "-//W3C//DTD SVG 1.1//EN"
 "http://www.w3.org/Graphics/SVG/1.1/DTD/svg11.dtd">
<!-- Generated by graphviz version 2.43.0 (0)
 -->
<!-- Title: opp Pages: 1 -->
<svg width="496pt" height="82pt"
 viewBox="0.00 0.00 495.50 82.00" xmlns="http://www.w3.org/2000/svg" xmlns:xlink="http://www.w3.org/1999/xlink">
<g id="graph0" class="graph" transform="scale(1 1) rotate(0) translate(4 78)">
<title>opp</title>
<polygon fill="transparent" stroke="transparent" points="-4,4 -4,-78 491.5,-78 491.5,4 -4,4"/>
<!-- ContentBasedSchedulerTutorialStep -->
<g id="node1" class="node">
<title>ContentBasedSchedulerTutorialStep</title>
<g id="a_node1"><a xlink:href="inet.tutorials.queueing.ContentBasedSchedulerTutorialStep.html" xlink:title="Network ContentBasedSchedulerTutorialStep" target="_parent">
<polygon fill="#9090ff" stroke="black" points="332.5,-74 141.5,-74 141.5,-55 332.5,-55 332.5,-74"/>
<text text-anchor="middle" x="237" y="-62" font-family="Helvetica,sans-Serif" font-size="10.00">ContentBasedSchedulerTutorialStep</text>
</a>
</g>
</g>
<!-- IdealChannel -->
<g id="node2" class="node">
<title>IdealChannel</title>
<g id="a_node2"><a xlink:href="ned.IdealChannel.html" xlink:title="Channel IdealChannel" target="_parent">
<polygon fill="#d0ffd0" stroke="black" points="80,-19 0,-19 0,0 80,0 80,-19"/>
<text text-anchor="middle" x="40" y="-7" font-family="Helvetica,sans-Serif" font-size="10.00">IdealChannel</text>
</a>
</g>
</g>
<!-- ContentBasedSchedulerTutorialStep&#45;&gt;IdealChannel -->
<g id="edge1" class="edge">
<title>ContentBasedSchedulerTutorialStep&#45;&gt;IdealChannel</title>
<path fill="none" stroke="black" d="M205.35,-54.98C171.84,-45.97 118.8,-31.7 81.86,-21.76"/>
<polygon fill="black" stroke="black" points="82.47,-18.3 71.9,-19.08 80.65,-25.06 82.47,-18.3"/>
</g>
<!-- ContentBasedScheduler -->
<g id="node3" class="node">
<title>ContentBasedScheduler</title>
<g id="a_node3"><a xlink:href="inet.queueing.scheduler.ContentBasedScheduler.html" xlink:title="Simple Module ContentBasedScheduler" target="_parent">
<polygon fill="#fffcaf" stroke="black" points="231.5,-19 98.5,-19 98.5,0 231.5,0 231.5,-19"/>
<text text-anchor="middle" x="165" y="-7" font-family="Helvetica,sans-Serif" font-size="10.00">ContentBasedScheduler</text>
</a>
</g>
</g>
<!-- ContentBasedSchedulerTutorialStep&#45;&gt;ContentBasedScheduler -->
<g id="edge2" class="edge">
<title>ContentBasedSchedulerTutorialStep&#45;&gt;ContentBasedScheduler</title>
<path fill="none" stroke="black" d="M225.43,-54.98C214.58,-47 198.12,-34.88 185.12,-25.31"/>
<polygon fill="black" stroke="black" points="186.91,-22.28 176.78,-19.17 182.76,-27.92 186.91,-22.28"/>
</g>
<!-- PassivePacketSource -->
<g id="node4" class="node">
<title>PassivePacketSource</title>
<g id="a_node4"><a xlink:href="inet.queueing.source.PassivePacketSource.html" xlink:title="Simple Module PassivePacketSource" target="_parent">
<polygon fill="#fffcaf" stroke="black" points="368.5,-19 249.5,-19 249.5,0 368.5,0 368.5,-19"/>
<text text-anchor="middle" x="309" y="-7" font-family="Helvetica,sans-Serif" font-size="10.00">PassivePacketSource</text>
</a>
</g>
</g>
<!-- ContentBasedSchedulerTutorialStep&#45;&gt;PassivePacketSource -->
<g id="edge3" class="edge">
<title>ContentBasedSchedulerTutorialStep&#45;&gt;PassivePacketSource</title>
<path fill="none" stroke="black" d="M248.57,-54.98C259.42,-47 275.88,-34.88 288.88,-25.31"/>
<polygon fill="black" stroke="black" points="291.24,-27.92 297.22,-19.17 287.09,-22.28 291.24,-27.92"/>
</g>
<!-- ActivePacketSink -->
<g id="node5" class="node">
<title>ActivePacketSink</title>
<g id="a_node5"><a xlink:href="inet.queueing.sink.ActivePacketSink.html" xlink:title="Simple Module ActivePacketSink" target="_parent">
<polygon fill="#fffcaf" stroke="black" points="487.5,-19 386.5,-19 386.5,0 487.5,0 487.5,-19"/>
<text text-anchor="middle" x="437" y="-7" font-family="Helvetica,sans-Serif" font-size="10.00">ActivePacketSink</text>
</a>
</g>
</g>
<!-- ContentBasedSchedulerTutorialStep&#45;&gt;ActivePacketSink -->
<g id="edge4" class="edge">
<title>ContentBasedSchedulerTutorialStep&#45;&gt;ActivePacketSink</title>
<path fill="none" stroke="black" d="M269.13,-54.98C303.15,-45.97 357,-31.7 394.5,-21.76"/>
<polygon fill="black" stroke="black" points="395.84,-25.03 404.61,-19.08 394.05,-18.26 395.84,-25.03"/>
</g>
</g>
</svg>
