<?xml version="1.0" encoding="UTF-8" standalone="no"?>
<!DOCTYPE svg PUBLIC "-//W3C//DTD SVG 1.1//EN"
 "http://www.w3.org/Graphics/SVG/1.1/DTD/svg11.dtd">
<!-- Generated by graphviz version 2.43.0 (0)
 -->
<!-- Title: opp Pages: 1 -->
<svg width="364pt" height="82pt"
 viewBox="0.00 0.00 364.00 82.00" xmlns="http://www.w3.org/2000/svg" xmlns:xlink="http://www.w3.org/1999/xlink">
<g id="graph0" class="graph" transform="scale(1 1) rotate(0) translate(4 78)">
<title>opp</title>
<polygon fill="transparent" stroke="transparent" points="-4,4 -4,-78 360,-78 360,4 -4,4"/>
<!-- Radio -->
<g id="node1" class="node">
<title>Radio</title>
<g id="a_node1"><a xlink:href="inet.physicallayer.wireless.common.radio.packetlevel.Radio.html" xlink:title="Compound Module Radio" target="_parent">
<polygon fill="#fff700" stroke="black" points="213,-74 159,-74 159,-55 213,-55 213,-74"/>
<text text-anchor="middle" x="186" y="-62" font-family="Helvetica,sans-Serif" font-size="10.00">Radio</text>
</a>
</g>
</g>
<!-- IReceiver -->
<g id="node2" class="node">
<title>IReceiver</title>
<g id="a_node2"><a xlink:href="inet.physicallayer.wireless.common.contract.packetlevel.IReceiver.html" xlink:title="Module Interface IReceiver" target="_parent">
<polygon fill="#fffcaf" stroke="black" stroke-dasharray="5,2" points="62,-19 0,-19 0,0 62,0 62,-19"/>
<text text-anchor="middle" x="31" y="-7" font-family="Helvetica,sans-Serif" font-size="10.00">IReceiver</text>
</a>
</g>
</g>
<!-- Radio&#45;&gt;IReceiver -->
<g id="edge1" class="edge">
<title>Radio&#45;&gt;IReceiver</title>
<path fill="none" stroke="black" d="M161.1,-54.98C135.3,-46.16 94.78,-32.31 65.82,-22.41"/>
<polygon fill="black" stroke="black" points="66.69,-19.01 56.1,-19.08 64.43,-25.63 66.69,-19.01"/>
</g>
<!-- IEnergyConsumer -->
<g id="node3" class="node">
<title>IEnergyConsumer</title>
<g id="a_node3"><a xlink:href="inet.power.contract.IEnergyConsumer.html" xlink:title="Module Interface IEnergyConsumer" target="_parent">
<polygon fill="#fffcaf" stroke="black" stroke-dasharray="5,2" points="183.5,-19 80.5,-19 80.5,0 183.5,0 183.5,-19"/>
<text text-anchor="middle" x="132" y="-7" font-family="Helvetica,sans-Serif" font-size="10.00">IEnergyConsumer</text>
</a>
</g>
</g>
<!-- Radio&#45;&gt;IEnergyConsumer -->
<g id="edge2" class="edge">
<title>Radio&#45;&gt;IEnergyConsumer</title>
<path fill="none" stroke="black" d="M177.08,-54.75C169.22,-47.03 157.57,-35.6 148.08,-26.28"/>
<polygon fill="black" stroke="black" points="150.34,-23.6 140.75,-19.09 145.44,-28.59 150.34,-23.6"/>
</g>
<!-- ITransmitter -->
<g id="node4" class="node">
<title>ITransmitter</title>
<g id="a_node4"><a xlink:href="inet.physicallayer.wireless.common.contract.packetlevel.ITransmitter.html" xlink:title="Module Interface ITransmitter" target="_parent">
<polygon fill="#fffcaf" stroke="black" stroke-dasharray="5,2" points="278,-19 202,-19 202,0 278,0 278,-19"/>
<text text-anchor="middle" x="240" y="-7" font-family="Helvetica,sans-Serif" font-size="10.00">ITransmitter</text>
</a>
</g>
</g>
<!-- Radio&#45;&gt;ITransmitter -->
<g id="edge3" class="edge">
<title>Radio&#45;&gt;ITransmitter</title>
<path fill="none" stroke="black" d="M194.92,-54.75C202.78,-47.03 214.43,-35.6 223.92,-26.28"/>
<polygon fill="black" stroke="black" points="226.56,-28.59 231.25,-19.09 221.66,-23.6 226.56,-28.59"/>
</g>
<!-- IAntenna -->
<g id="node5" class="node">
<title>IAntenna</title>
<g id="a_node5"><a xlink:href="inet.physicallayer.wireless.common.contract.packetlevel.IAntenna.html" xlink:title="Module Interface IAntenna" target="_parent">
<polygon fill="#fffcaf" stroke="black" stroke-dasharray="5,2" points="356,-19 296,-19 296,0 356,0 356,-19"/>
<text text-anchor="middle" x="326" y="-7" font-family="Helvetica,sans-Serif" font-size="10.00">IAntenna</text>
</a>
</g>
</g>
<!-- Radio&#45;&gt;IAntenna -->
<g id="edge4" class="edge">
<title>Radio&#45;&gt;IAntenna</title>
<path fill="none" stroke="black" d="M208.49,-54.98C231.52,-46.27 267.54,-32.63 293.63,-22.75"/>
<polygon fill="black" stroke="black" points="294.98,-25.98 303.1,-19.17 292.51,-19.44 294.98,-25.98"/>
</g>
</g>
</svg>
