<?xml version="1.0" encoding="UTF-8" standalone="no"?>
<!DOCTYPE svg PUBLIC "-//W3C//DTD SVG 1.1//EN"
 "http://www.w3.org/Graphics/SVG/1.1/DTD/svg11.dtd">
<!-- Generated by graphviz version 2.43.0 (0)
 -->
<!-- Title: opp Pages: 1 -->
<svg width="513pt" height="137pt"
 viewBox="0.00 0.00 513.00 137.00" xmlns="http://www.w3.org/2000/svg" xmlns:xlink="http://www.w3.org/1999/xlink">
<g id="graph0" class="graph" transform="scale(1 1) rotate(0) translate(4 133)">
<title>opp</title>
<polygon fill="transparent" stroke="transparent" points="-4,4 -4,-133 509,-133 509,4 -4,4"/>
<!-- TestArea -->
<g id="node1" class="node">
<title>TestArea</title>
<g id="a_node1"><a xlink:href="inet.examples.ospfv2.areatests.TestArea.html" xlink:title="Compound Module TestArea" target="_parent">
<polygon fill="#fff700" stroke="black" points="312,-74 253,-74 253,-55 312,-55 312,-74"/>
<text text-anchor="middle" x="282.5" y="-62" font-family="Helvetica,sans-Serif" font-size="10.00">TestArea</text>
</a>
</g>
</g>
<!-- StandardHost -->
<g id="node2" class="node">
<title>StandardHost</title>
<g id="a_node2"><a xlink:href="inet.node.inet.StandardHost.html" xlink:title="Compound Module StandardHost" target="_parent">
<polygon fill="#fffcaf" stroke="black" points="189,-19 106,-19 106,0 189,0 189,-19"/>
<text text-anchor="middle" x="147.5" y="-7" font-family="Helvetica,sans-Serif" font-size="10.00">StandardHost</text>
</a>
</g>
</g>
<!-- TestArea&#45;&gt;StandardHost -->
<g id="edge1" class="edge">
<title>TestArea&#45;&gt;StandardHost</title>
<path fill="none" stroke="black" d="M260.81,-54.98C238.7,-46.3 204.18,-32.75 179.05,-22.88"/>
<polygon fill="black" stroke="black" points="180.17,-19.57 169.58,-19.17 177.61,-26.08 180.17,-19.57"/>
</g>
<!-- OspfRouter -->
<g id="node3" class="node">
<title>OspfRouter</title>
<g id="a_node3"><a xlink:href="inet.node.ospfv2.OspfRouter.html" xlink:title="Compound Module OspfRouter" target="_parent">
<polygon fill="#fffcaf" stroke="black" points="278,-19 207,-19 207,0 278,0 278,-19"/>
<text text-anchor="middle" x="242.5" y="-7" font-family="Helvetica,sans-Serif" font-size="10.00">OspfRouter</text>
</a>
</g>
</g>
<!-- TestArea&#45;&gt;OspfRouter -->
<g id="edge2" class="edge">
<title>TestArea&#45;&gt;OspfRouter</title>
<path fill="none" stroke="black" d="M275.89,-54.75C270.24,-47.26 261.96,-36.28 255.05,-27.13"/>
<polygon fill="black" stroke="black" points="257.8,-24.96 248.98,-19.09 252.21,-29.18 257.8,-24.96"/>
</g>
<!-- C -->
<g id="node4" class="node">
<title>C</title>
<g id="a_node4"><a xlink:href="inet.examples.ospfv2.areatests.TestArea.C.html" xlink:title="Channel C" target="_parent">
<polygon fill="#d0ffd0" stroke="black" points="350.5,-19 296.5,-19 296.5,0 350.5,0 350.5,-19"/>
<text text-anchor="middle" x="323.5" y="-7" font-family="Helvetica,sans-Serif" font-size="10.00">C</text>
</a>
</g>
</g>
<!-- TestArea&#45;&gt;C -->
<g id="edge3" class="edge">
<title>TestArea&#45;&gt;C</title>
<path fill="none" stroke="black" d="M289.27,-54.75C295.06,-47.26 303.56,-36.28 310.64,-27.13"/>
<polygon fill="black" stroke="black" points="313.51,-29.14 316.86,-19.09 307.97,-24.86 313.51,-29.14"/>
</g>
<!-- EthernetSwitch -->
<g id="node5" class="node">
<title>EthernetSwitch</title>
<g id="a_node5"><a xlink:href="inet.node.ethernet.EthernetSwitch.html" xlink:title="Compound Module EthernetSwitch" target="_parent">
<polygon fill="#fffcaf" stroke="black" points="458.5,-19 368.5,-19 368.5,0 458.5,0 458.5,-19"/>
<text text-anchor="middle" x="413.5" y="-7" font-family="Helvetica,sans-Serif" font-size="10.00">EthernetSwitch</text>
</a>
</g>
</g>
<!-- TestArea&#45;&gt;EthernetSwitch -->
<g id="edge4" class="edge">
<title>TestArea&#45;&gt;EthernetSwitch</title>
<path fill="none" stroke="black" d="M303.55,-54.98C324.91,-46.34 358.2,-32.87 382.56,-23.02"/>
<polygon fill="black" stroke="black" points="384.11,-26.17 392.07,-19.17 381.49,-19.68 384.11,-26.17"/>
</g>
<!-- OSPF_BackboneAndOneStubTest -->
<g id="node6" class="node">
<title>OSPF_BackboneAndOneStubTest</title>
<g id="a_node6"><a xlink:href="inet.examples.ospfv2.areatests.OSPF_BackboneAndOneStubTest.html" xlink:title="Network OSPF_BackboneAndOneStubTest" target="_parent">
<polygon fill="#d0d0ff" stroke="black" points="175,-129 0,-129 0,-110 175,-110 175,-129"/>
<text text-anchor="middle" x="87.5" y="-117" font-family="Helvetica,sans-Serif" font-size="10.00">OSPF_BackboneAndOneStubTest</text>
</a>
</g>
</g>
<!-- OSPF_BackboneAndOneStubTest&#45;&gt;TestArea -->
<g id="edge5" class="edge">
<title>OSPF_BackboneAndOneStubTest&#45;&gt;TestArea</title>
<path fill="none" stroke="black" d="M118.83,-109.98C152.58,-100.81 206.37,-86.19 243,-76.24"/>
<polygon fill="black" stroke="black" points="244.11,-79.56 252.85,-73.56 242.28,-72.81 244.11,-79.56"/>
</g>
<!-- OSPF_BackboneAndTwoStubsTest -->
<g id="node7" class="node">
<title>OSPF_BackboneAndTwoStubsTest</title>
<g id="a_node7"><a xlink:href="inet.examples.ospfv2.areatests.OSPF_BackboneAndTwoStubsTest.html" xlink:title="Network OSPF_BackboneAndTwoStubsTest" target="_parent">
<polygon fill="#d0d0ff" stroke="black" points="372,-129 193,-129 193,-110 372,-110 372,-129"/>
<text text-anchor="middle" x="282.5" y="-117" font-family="Helvetica,sans-Serif" font-size="10.00">OSPF_BackboneAndTwoStubsTest</text>
</a>
</g>
</g>
<!-- OSPF_BackboneAndTwoStubsTest&#45;&gt;TestArea -->
<g id="edge6" class="edge">
<title>OSPF_BackboneAndTwoStubsTest&#45;&gt;TestArea</title>
<path fill="none" stroke="black" d="M282.5,-109.75C282.5,-102.8 282.5,-92.85 282.5,-84.13"/>
<polygon fill="black" stroke="black" points="286,-84.09 282.5,-74.09 279,-84.09 286,-84.09"/>
</g>
<!-- OSPF_BackboneTest -->
<g id="node8" class="node">
<title>OSPF_BackboneTest</title>
<g id="a_node8"><a xlink:href="inet.examples.ospfv2.areatests.OSPF_BackboneTest.html" xlink:title="Network OSPF_BackboneTest" target="_parent">
<polygon fill="#d0d0ff" stroke="black" points="505,-129 390,-129 390,-110 505,-110 505,-129"/>
<text text-anchor="middle" x="447.5" y="-117" font-family="Helvetica,sans-Serif" font-size="10.00">OSPF_BackboneTest</text>
</a>
</g>
</g>
<!-- OSPF_BackboneTest&#45;&gt;TestArea -->
<g id="edge7" class="edge">
<title>OSPF_BackboneTest&#45;&gt;TestArea</title>
<path fill="none" stroke="black" d="M420.99,-109.98C393.29,-101.09 349.64,-87.07 318.76,-77.15"/>
<polygon fill="black" stroke="black" points="319.81,-73.81 309.22,-74.08 317.67,-80.47 319.81,-73.81"/>
</g>
</g>
</svg>
