<?xml version="1.0" encoding="UTF-8" standalone="no"?>
<!DOCTYPE svg PUBLIC "-//W3C//DTD SVG 1.1//EN"
 "http://www.w3.org/Graphics/SVG/1.1/DTD/svg11.dtd">
<!-- Generated by graphviz version 2.43.0 (0)
 -->
<!-- Title: opp Pages: 1 -->
<svg width="238pt" height="82pt"
 viewBox="0.00 0.00 237.50 82.00" xmlns="http://www.w3.org/2000/svg" xmlns:xlink="http://www.w3.org/1999/xlink">
<g id="graph0" class="graph" transform="scale(1 1) rotate(0) translate(4 78)">
<title>opp</title>
<polygon fill="transparent" stroke="transparent" points="-4,4 -4,-78 233.5,-78 233.5,4 -4,4"/>
<!-- DestreamingReceiver -->
<g id="node1" class="node">
<title>DestreamingReceiver</title>
<g id="a_node1"><a xlink:href="inet.protocolelement.transceiver.DestreamingReceiver.html" xlink:title="Simple Module DestreamingReceiver" target="_parent">
<polygon fill="#fff700" stroke="black" points="181,-19 59,-19 59,0 181,0 181,-19"/>
<text text-anchor="middle" x="120" y="-7" font-family="Helvetica,sans-Serif" font-size="10.00">DestreamingReceiver</text>
</a>
</g>
</g>
<!-- PacketReceiverBase -->
<g id="node2" class="node">
<title>PacketReceiverBase</title>
<g id="a_node2"><a xlink:href="inet.protocolelement.transceiver.base.PacketReceiverBase.html" xlink:title="Simple Module PacketReceiverBase" target="_parent">
<polygon fill="#fffcaf" stroke="black" points="116,-74 0,-74 0,-55 116,-55 116,-74"/>
<text text-anchor="middle" x="58" y="-62" font-family="Helvetica,sans-Serif" font-size="10.00">PacketReceiverBase</text>
</a>
</g>
</g>
<!-- PacketReceiverBase&#45;&gt;DestreamingReceiver -->
<g id="edge1" class="edge">
<title>PacketReceiverBase&#45;&gt;DestreamingReceiver</title>
<path fill="none" stroke="black" d="M67.96,-54.98C79.46,-45.15 98.28,-29.07 109.86,-19.17"/>
</g>
<!-- IPacketReceiver -->
<g id="node3" class="node">
<title>IPacketReceiver</title>
<g id="a_node3"><a xlink:href="inet.protocolelement.transceiver.contract.IPacketReceiver.html" xlink:title="Module Interface IPacketReceiver" target="_parent">
<polygon fill="#fffcaf" stroke="black" stroke-dasharray="5,2" points="229.5,-74 134.5,-74 134.5,-55 229.5,-55 229.5,-74"/>
<text text-anchor="middle" x="182" y="-62" font-family="Helvetica,sans-Serif" font-size="10.00">IPacketReceiver</text>
</a>
</g>
</g>
<!-- IPacketReceiver&#45;&gt;DestreamingReceiver -->
<g id="edge2" class="edge">
<title>IPacketReceiver&#45;&gt;DestreamingReceiver</title>
<path fill="none" stroke="black" stroke-dasharray="5,2" d="M172.04,-54.98C160.54,-45.15 141.72,-29.07 130.14,-19.17"/>
</g>
</g>
</svg>
