<?xml version="1.0" encoding="UTF-8" standalone="no"?>
<!DOCTYPE svg PUBLIC "-//W3C//DTD SVG 1.1//EN"
 "http://www.w3.org/Graphics/SVG/1.1/DTD/svg11.dtd">
<!-- Generated by graphviz version 2.43.0 (0)
 -->
<!-- Title: opp Pages: 1 -->
<svg width="394pt" height="82pt"
 viewBox="0.00 0.00 393.50 82.00" xmlns="http://www.w3.org/2000/svg" xmlns:xlink="http://www.w3.org/1999/xlink">
<g id="graph0" class="graph" transform="scale(1 1) rotate(0) translate(4 78)">
<title>opp</title>
<polygon fill="transparent" stroke="transparent" points="-4,4 -4,-78 389.5,-78 389.5,4 -4,4"/>
<!-- PacketDuplicator -->
<g id="node1" class="node">
<title>PacketDuplicator</title>
<g id="a_node1"><a xlink:href="inet.queueing.common.PacketDuplicator.html" xlink:title="Simple Module PacketDuplicator" target="_parent">
<polygon fill="#fff700" stroke="black" points="246,-19 147,-19 147,0 246,0 246,-19"/>
<text text-anchor="middle" x="196.5" y="-7" font-family="Helvetica,sans-Serif" font-size="10.00">PacketDuplicator</text>
</a>
</g>
</g>
<!-- PacketDuplicatorBase -->
<g id="node2" class="node">
<title>PacketDuplicatorBase</title>
<g id="a_node2"><a xlink:href="inet.queueing.base.PacketDuplicatorBase.html" xlink:title="Simple Module PacketDuplicatorBase" target="_parent">
<polygon fill="#fffcaf" stroke="black" points="123,-74 0,-74 0,-55 123,-55 123,-74"/>
<text text-anchor="middle" x="61.5" y="-62" font-family="Helvetica,sans-Serif" font-size="10.00">PacketDuplicatorBase</text>
</a>
</g>
</g>
<!-- PacketDuplicatorBase&#45;&gt;PacketDuplicator -->
<g id="edge1" class="edge">
<title>PacketDuplicatorBase&#45;&gt;PacketDuplicator</title>
<path fill="none" stroke="black" d="M83.19,-54.98C108.23,-45.15 149.21,-29.07 174.42,-19.17"/>
</g>
<!-- IPassivePacketSink -->
<g id="node3" class="node">
<title>IPassivePacketSink</title>
<g id="a_node3"><a xlink:href="inet.queueing.contract.IPassivePacketSink.html" xlink:title="Module Interface IPassivePacketSink" target="_parent">
<polygon fill="#fffcaf" stroke="black" stroke-dasharray="5,2" points="251.5,-74 141.5,-74 141.5,-55 251.5,-55 251.5,-74"/>
<text text-anchor="middle" x="196.5" y="-62" font-family="Helvetica,sans-Serif" font-size="10.00">IPassivePacketSink</text>
</a>
</g>
</g>
<!-- IPassivePacketSink&#45;&gt;PacketDuplicator -->
<g id="edge2" class="edge">
<title>IPassivePacketSink&#45;&gt;PacketDuplicator</title>
<path fill="none" stroke="black" stroke-dasharray="5,2" d="M196.5,-54.75C196.5,-44.87 196.5,-28.9 196.5,-19.09"/>
</g>
<!-- IActivePacketSource -->
<g id="node4" class="node">
<title>IActivePacketSource</title>
<g id="a_node4"><a xlink:href="inet.queueing.contract.IActivePacketSource.html" xlink:title="Module Interface IActivePacketSource" target="_parent">
<polygon fill="#fffcaf" stroke="black" stroke-dasharray="5,2" points="385.5,-74 269.5,-74 269.5,-55 385.5,-55 385.5,-74"/>
<text text-anchor="middle" x="327.5" y="-62" font-family="Helvetica,sans-Serif" font-size="10.00">IActivePacketSource</text>
</a>
</g>
</g>
<!-- IActivePacketSource&#45;&gt;PacketDuplicator -->
<g id="edge3" class="edge">
<title>IActivePacketSource&#45;&gt;PacketDuplicator</title>
<path fill="none" stroke="black" stroke-dasharray="5,2" d="M306.45,-54.98C282.15,-45.15 242.39,-29.07 217.93,-19.17"/>
</g>
</g>
</svg>
