<?xml version="1.0" encoding="UTF-8" standalone="no"?>
<!DOCTYPE svg PUBLIC "-//W3C//DTD SVG 1.1//EN"
 "http://www.w3.org/Graphics/SVG/1.1/DTD/svg11.dtd">
<!-- Generated by graphviz version 2.43.0 (0)
 -->
<!-- Title: opp Pages: 1 -->
<svg width="819pt" height="82pt"
 viewBox="0.00 0.00 819.00 82.00" xmlns="http://www.w3.org/2000/svg" xmlns:xlink="http://www.w3.org/1999/xlink">
<g id="graph0" class="graph" transform="scale(1 1) rotate(0) translate(4 78)">
<title>opp</title>
<polygon fill="transparent" stroke="transparent" points="-4,4 -4,-78 815,-78 815,4 -4,4"/>
<!-- IPv4LargeNet -->
<g id="node1" class="node">
<title>IPv4LargeNet</title>
<g id="a_node1"><a xlink:href="inet.examples.inet.ipv4largenet.IPv4LargeNet.html" xlink:title="Network IPv4LargeNet" target="_parent">
<polygon fill="#9090ff" stroke="black" points="416.5,-74 334.5,-74 334.5,-55 416.5,-55 416.5,-74"/>
<text text-anchor="middle" x="375.5" y="-62" font-family="Helvetica,sans-Serif" font-size="10.00">IPv4LargeNet</text>
</a>
</g>
</g>
<!-- StandardHost -->
<g id="node2" class="node">
<title>StandardHost</title>
<g id="a_node2"><a xlink:href="inet.node.inet.StandardHost.html" xlink:title="Compound Module StandardHost" target="_parent">
<polygon fill="#fffcaf" stroke="black" points="83,-19 0,-19 0,0 83,0 83,-19"/>
<text text-anchor="middle" x="41.5" y="-7" font-family="Helvetica,sans-Serif" font-size="10.00">StandardHost</text>
</a>
</g>
</g>
<!-- IPv4LargeNet&#45;&gt;StandardHost -->
<g id="edge1" class="edge">
<title>IPv4LargeNet&#45;&gt;StandardHost</title>
<path fill="none" stroke="black" d="M334.24,-57.13C281.05,-48.9 185.44,-34.01 93.3,-19.12"/>
<polygon fill="black" stroke="black" points="93.67,-15.63 83.24,-17.49 92.56,-22.54 93.67,-15.63"/>
</g>
<!-- IPv4SmallLAN -->
<g id="node3" class="node">
<title>IPv4SmallLAN</title>
<g id="a_node3"><a xlink:href="inet.examples.inet.ipv4largenet.IPv4SmallLAN.html" xlink:title="Compound Module IPv4SmallLAN" target="_parent">
<polygon fill="#fffcaf" stroke="black" points="187.5,-19 101.5,-19 101.5,0 187.5,0 187.5,-19"/>
<text text-anchor="middle" x="144.5" y="-7" font-family="Helvetica,sans-Serif" font-size="10.00">IPv4SmallLAN</text>
</a>
</g>
</g>
<!-- IPv4LargeNet&#45;&gt;IPv4SmallLAN -->
<g id="edge2" class="edge">
<title>IPv4LargeNet&#45;&gt;IPv4SmallLAN</title>
<path fill="none" stroke="black" d="M338.39,-54.98C298.51,-45.84 235.04,-31.27 191.66,-21.32"/>
<polygon fill="black" stroke="black" points="192.43,-17.91 181.91,-19.08 190.87,-24.73 192.43,-17.91"/>
</g>
<!-- Router -->
<g id="node4" class="node">
<title>Router</title>
<g id="a_node4"><a xlink:href="inet.node.inet.Router.html" xlink:title="Compound Module Router" target="_parent">
<polygon fill="#fffcaf" stroke="black" points="259.5,-19 205.5,-19 205.5,0 259.5,0 259.5,-19"/>
<text text-anchor="middle" x="232.5" y="-7" font-family="Helvetica,sans-Serif" font-size="10.00">Router</text>
</a>
</g>
</g>
<!-- IPv4LargeNet&#45;&gt;Router -->
<g id="edge3" class="edge">
<title>IPv4LargeNet&#45;&gt;Router</title>
<path fill="none" stroke="black" d="M352.52,-54.98C329,-46.27 292.21,-32.63 265.56,-22.75"/>
<polygon fill="black" stroke="black" points="266.49,-19.36 255.89,-19.17 264.05,-25.93 266.49,-19.36"/>
</g>
<!-- IPv4LargeLAN -->
<g id="node5" class="node">
<title>IPv4LargeLAN</title>
<g id="a_node5"><a xlink:href="inet.examples.inet.ipv4largenet.IPv4LargeLAN.html" xlink:title="Compound Module IPv4LargeLAN" target="_parent">
<polygon fill="#fffcaf" stroke="black" points="363,-19 278,-19 278,0 363,0 363,-19"/>
<text text-anchor="middle" x="320.5" y="-7" font-family="Helvetica,sans-Serif" font-size="10.00">IPv4LargeLAN</text>
</a>
</g>
</g>
<!-- IPv4LargeNet&#45;&gt;IPv4LargeLAN -->
<g id="edge4" class="edge">
<title>IPv4LargeNet&#45;&gt;IPv4LargeLAN</title>
<path fill="none" stroke="black" d="M366.42,-54.75C358.41,-47.03 346.54,-35.6 336.88,-26.28"/>
<polygon fill="black" stroke="black" points="339.04,-23.51 329.41,-19.09 334.19,-28.55 339.04,-23.51"/>
</g>
<!-- IPv4MediumLAN -->
<g id="node6" class="node">
<title>IPv4MediumLAN</title>
<g id="a_node6"><a xlink:href="inet.examples.inet.ipv4largenet.IPv4MediumLAN.html" xlink:title="Compound Module IPv4MediumLAN" target="_parent">
<polygon fill="#fffcaf" stroke="black" points="479.5,-19 381.5,-19 381.5,0 479.5,0 479.5,-19"/>
<text text-anchor="middle" x="430.5" y="-7" font-family="Helvetica,sans-Serif" font-size="10.00">IPv4MediumLAN</text>
</a>
</g>
</g>
<!-- IPv4LargeNet&#45;&gt;IPv4MediumLAN -->
<g id="edge5" class="edge">
<title>IPv4LargeNet&#45;&gt;IPv4MediumLAN</title>
<path fill="none" stroke="black" d="M384.58,-54.75C392.59,-47.03 404.46,-35.6 414.12,-26.28"/>
<polygon fill="black" stroke="black" points="416.81,-28.55 421.59,-19.09 411.96,-23.51 416.81,-28.55"/>
</g>
<!-- Ipv4NetworkConfigurator -->
<g id="node7" class="node">
<title>Ipv4NetworkConfigurator</title>
<g id="a_node7"><a xlink:href="inet.networklayer.configurator.ipv4.Ipv4NetworkConfigurator.html" xlink:title="Simple Module Ipv4NetworkConfigurator" target="_parent">
<polygon fill="#fffcaf" stroke="black" points="637.5,-19 497.5,-19 497.5,0 637.5,0 637.5,-19"/>
<text text-anchor="middle" x="567.5" y="-7" font-family="Helvetica,sans-Serif" font-size="10.00">Ipv4NetworkConfigurator</text>
</a>
</g>
</g>
<!-- IPv4LargeNet&#45;&gt;Ipv4NetworkConfigurator -->
<g id="edge6" class="edge">
<title>IPv4LargeNet&#45;&gt;Ipv4NetworkConfigurator</title>
<path fill="none" stroke="black" d="M406.35,-54.98C439,-45.97 490.7,-31.7 526.7,-21.76"/>
<polygon fill="black" stroke="black" points="527.7,-25.12 536.41,-19.08 525.84,-18.37 527.7,-25.12"/>
</g>
<!-- cable -->
<g id="node8" class="node">
<title>cable</title>
<g id="a_node8"><a xlink:href="inet.examples.inet.ipv4largenet.cable.html" xlink:title="Channel cable" target="_parent">
<polygon fill="#d0ffd0" stroke="black" points="709.5,-19 655.5,-19 655.5,0 709.5,0 709.5,-19"/>
<text text-anchor="middle" x="682.5" y="-7" font-family="Helvetica,sans-Serif" font-size="10.00">cable</text>
</a>
</g>
</g>
<!-- IPv4LargeNet&#45;&gt;cable -->
<g id="edge7" class="edge">
<title>IPv4LargeNet&#45;&gt;cable</title>
<path fill="none" stroke="black" d="M416.52,-57.67C467.77,-50.18 558.34,-36.3 645.37,-19.11"/>
<polygon fill="black" stroke="black" points="646.29,-22.49 655.42,-17.11 644.93,-15.63 646.29,-22.49"/>
</g>
<!-- cabletoserver -->
<g id="node9" class="node">
<title>cabletoserver</title>
<g id="a_node9"><a xlink:href="inet.examples.inet.ipv4largenet.IPv4LargeNet.cabletoserver.html" xlink:title="Channel cabletoserver" target="_parent">
<polygon fill="#d0ffd0" stroke="black" points="811,-19 728,-19 728,0 811,0 811,-19"/>
<text text-anchor="middle" x="769.5" y="-7" font-family="Helvetica,sans-Serif" font-size="10.00">cabletoserver</text>
</a>
</g>
</g>
<!-- IPv4LargeNet&#45;&gt;cabletoserver -->
<g id="edge8" class="edge">
<title>IPv4LargeNet&#45;&gt;cabletoserver</title>
<path fill="none" stroke="black" d="M416.75,-58.64C479.41,-51.14 602.57,-35.99 717.72,-19.07"/>
<polygon fill="black" stroke="black" points="718.39,-22.51 727.77,-17.58 717.37,-15.58 718.39,-22.51"/>
</g>
</g>
</svg>
