<?xml version="1.0" encoding="UTF-8" standalone="no"?>
<!DOCTYPE svg PUBLIC "-//W3C//DTD SVG 1.1//EN"
 "http://www.w3.org/Graphics/SVG/1.1/DTD/svg11.dtd">
<!-- Generated by graphviz version 2.43.0 (0)
 -->
<!-- Title: opp Pages: 1 -->
<svg width="556pt" height="82pt"
 viewBox="0.00 0.00 556.00 82.00" xmlns="http://www.w3.org/2000/svg" xmlns:xlink="http://www.w3.org/1999/xlink">
<g id="graph0" class="graph" transform="scale(1 1) rotate(0) translate(4 78)">
<title>opp</title>
<polygon fill="transparent" stroke="transparent" points="-4,4 -4,-78 552,-78 552,4 -4,4"/>
<!-- ObstacleIntersectionTest -->
<g id="node1" class="node">
<title>ObstacleIntersectionTest</title>
<g id="a_node1"><a xlink:href="inet.examples.geometry.ObstacleIntersectionTest.html" xlink:title="Network ObstacleIntersectionTest" target="_parent">
<polygon fill="#9090ff" stroke="black" points="337,-74 200,-74 200,-55 337,-55 337,-74"/>
<text text-anchor="middle" x="268.5" y="-62" font-family="Helvetica,sans-Serif" font-size="10.00">ObstacleIntersectionTest</text>
</a>
</g>
</g>
<!-- PhysicalEnvironment -->
<g id="node2" class="node">
<title>PhysicalEnvironment</title>
<g id="a_node2"><a xlink:href="inet.environment.common.PhysicalEnvironment.html" xlink:title="Compound Module PhysicalEnvironment" target="_parent">
<polygon fill="#fffcaf" stroke="black" points="119,-19 0,-19 0,0 119,0 119,-19"/>
<text text-anchor="middle" x="59.5" y="-7" font-family="Helvetica,sans-Serif" font-size="10.00">PhysicalEnvironment</text>
</a>
</g>
</g>
<!-- ObstacleIntersectionTest&#45;&gt;PhysicalEnvironment -->
<g id="edge1" class="edge">
<title>ObstacleIntersectionTest&#45;&gt;PhysicalEnvironment</title>
<path fill="none" stroke="black" d="M234.92,-54.98C199.15,-45.91 142.38,-31.52 103.16,-21.57"/>
<polygon fill="black" stroke="black" points="103.9,-18.15 93.34,-19.08 102.18,-24.93 103.9,-18.15"/>
</g>
<!-- Ipv4NetworkConfigurator -->
<g id="node3" class="node">
<title>Ipv4NetworkConfigurator</title>
<g id="a_node3"><a xlink:href="inet.networklayer.configurator.ipv4.Ipv4NetworkConfigurator.html" xlink:title="Simple Module Ipv4NetworkConfigurator" target="_parent">
<polygon fill="#fffcaf" stroke="black" points="277.5,-19 137.5,-19 137.5,0 277.5,0 277.5,-19"/>
<text text-anchor="middle" x="207.5" y="-7" font-family="Helvetica,sans-Serif" font-size="10.00">Ipv4NetworkConfigurator</text>
</a>
</g>
</g>
<!-- ObstacleIntersectionTest&#45;&gt;Ipv4NetworkConfigurator -->
<g id="edge2" class="edge">
<title>ObstacleIntersectionTest&#45;&gt;Ipv4NetworkConfigurator</title>
<path fill="none" stroke="black" d="M258.7,-54.98C249.68,-47.15 236.09,-35.34 225.18,-25.86"/>
<polygon fill="black" stroke="black" points="227.32,-23.09 217.48,-19.17 222.73,-28.37 227.32,-23.09"/>
</g>
<!-- AdhocHost -->
<g id="node4" class="node">
<title>AdhocHost</title>
<g id="a_node4"><a xlink:href="inet.node.inet.AdhocHost.html" xlink:title="Compound Module AdhocHost" target="_parent">
<polygon fill="#fffcaf" stroke="black" points="365,-19 296,-19 296,0 365,0 365,-19"/>
<text text-anchor="middle" x="330.5" y="-7" font-family="Helvetica,sans-Serif" font-size="10.00">AdhocHost</text>
</a>
</g>
</g>
<!-- ObstacleIntersectionTest&#45;&gt;AdhocHost -->
<g id="edge3" class="edge">
<title>ObstacleIntersectionTest&#45;&gt;AdhocHost</title>
<path fill="none" stroke="black" d="M278.46,-54.98C287.63,-47.15 301.44,-35.34 312.53,-25.86"/>
<polygon fill="black" stroke="black" points="315.03,-28.33 320.36,-19.17 310.48,-23.01 315.03,-28.33"/>
</g>
<!-- Ieee80211ScalarRadioMedium -->
<g id="node5" class="node">
<title>Ieee80211ScalarRadioMedium</title>
<g id="a_node5"><a xlink:href="inet.physicallayer.wireless.ieee80211.packetlevel.Ieee80211ScalarRadioMedium.html" xlink:title="Compound Module Ieee80211ScalarRadioMedium" target="_parent">
<polygon fill="#fffcaf" stroke="black" points="548,-19 383,-19 383,0 548,0 548,-19"/>
<text text-anchor="middle" x="465.5" y="-7" font-family="Helvetica,sans-Serif" font-size="10.00">Ieee80211ScalarRadioMedium</text>
</a>
</g>
</g>
<!-- ObstacleIntersectionTest&#45;&gt;Ieee80211ScalarRadioMedium -->
<g id="edge4" class="edge">
<title>ObstacleIntersectionTest&#45;&gt;Ieee80211ScalarRadioMedium</title>
<path fill="none" stroke="black" d="M300.15,-54.98C333.66,-45.97 386.7,-31.7 423.64,-21.76"/>
<polygon fill="black" stroke="black" points="424.85,-25.06 433.6,-19.08 423.03,-18.3 424.85,-25.06"/>
</g>
</g>
</svg>
