<?xml version="1.0" encoding="UTF-8" standalone="no"?>
<!DOCTYPE svg PUBLIC "-//W3C//DTD SVG 1.1//EN"
 "http://www.w3.org/Graphics/SVG/1.1/DTD/svg11.dtd">
<!-- Generated by graphviz version 2.43.0 (0)
 -->
<!-- Title: opp Pages: 1 -->
<svg width="954pt" height="137pt"
 viewBox="0.00 0.00 953.50 137.00" xmlns="http://www.w3.org/2000/svg" xmlns:xlink="http://www.w3.org/1999/xlink">
<g id="graph0" class="graph" transform="scale(1 1) rotate(0) translate(4 133)">
<title>opp</title>
<polygon fill="transparent" stroke="transparent" points="-4,4 -4,-133 949.5,-133 949.5,4 -4,4"/>
<!-- IPacketMeter -->
<g id="node1" class="node">
<title>IPacketMeter</title>
<g id="a_node1"><a xlink:href="inet.queueing.contract.IPacketMeter.html" xlink:title="Module Interface IPacketMeter" target="_parent">
<polygon fill="#fff700" stroke="black" stroke-dasharray="5,2" points="502.5,-74 422.5,-74 422.5,-55 502.5,-55 502.5,-74"/>
<text text-anchor="middle" x="462.5" y="-62" font-family="Helvetica,sans-Serif" font-size="10.00">IPacketMeter</text>
</a>
</g>
</g>
<!-- EligibilityTimeMeter -->
<g id="node3" class="node">
<title>EligibilityTimeMeter</title>
<g id="a_node3"><a xlink:href="inet.protocolelement.shaper.EligibilityTimeMeter.html" xlink:title="Simple Module EligibilityTimeMeter" target="_parent">
<polygon fill="#fffcaf" stroke="black" points="115,-19 0,-19 0,0 115,0 115,-19"/>
<text text-anchor="middle" x="57.5" y="-7" font-family="Helvetica,sans-Serif" font-size="10.00">EligibilityTimeMeter</text>
</a>
</g>
</g>
<!-- IPacketMeter&#45;&gt;EligibilityTimeMeter -->
<g id="edge2" class="edge">
<title>IPacketMeter&#45;&gt;EligibilityTimeMeter</title>
<path fill="none" stroke="black" stroke-dasharray="5,2" d="M422.19,-58.22C349.96,-48.77 198.28,-28.92 115.1,-18.04"/>
</g>
<!-- ExponentialRateMeter -->
<g id="node4" class="node">
<title>ExponentialRateMeter</title>
<g id="a_node4"><a xlink:href="inet.queueing.meter.ExponentialRateMeter.html" xlink:title="Simple Module ExponentialRateMeter" target="_parent">
<polygon fill="#fffcaf" stroke="black" points="258,-19 133,-19 133,0 258,0 258,-19"/>
<text text-anchor="middle" x="195.5" y="-7" font-family="Helvetica,sans-Serif" font-size="10.00">ExponentialRateMeter</text>
</a>
</g>
</g>
<!-- IPacketMeter&#45;&gt;ExponentialRateMeter -->
<g id="edge3" class="edge">
<title>IPacketMeter&#45;&gt;ExponentialRateMeter</title>
<path fill="none" stroke="black" stroke-dasharray="5,2" d="M422.24,-55.51C372.85,-45.7 289.46,-29.15 238.75,-19.09"/>
</g>
<!-- MultiPacketMeter -->
<g id="node5" class="node">
<title>MultiPacketMeter</title>
<g id="a_node5"><a xlink:href="inet.queueing.meter.MultiPacketMeter.html" xlink:title="Compound Module MultiPacketMeter" target="_parent">
<polygon fill="#fffcaf" stroke="black" points="378.5,-19 276.5,-19 276.5,0 378.5,0 378.5,-19"/>
<text text-anchor="middle" x="327.5" y="-7" font-family="Helvetica,sans-Serif" font-size="10.00">MultiPacketMeter</text>
</a>
</g>
</g>
<!-- IPacketMeter&#45;&gt;MultiPacketMeter -->
<g id="edge4" class="edge">
<title>IPacketMeter&#45;&gt;MultiPacketMeter</title>
<path fill="none" stroke="black" stroke-dasharray="5,2" d="M440.81,-54.98C415.77,-45.15 374.79,-29.07 349.58,-19.17"/>
</g>
<!-- MultiTokenBucketMeter -->
<g id="node6" class="node">
<title>MultiTokenBucketMeter</title>
<g id="a_node6"><a xlink:href="inet.queueing.meter.MultiTokenBucketMeter.html" xlink:title="Simple Module MultiTokenBucketMeter" target="_parent">
<polygon fill="#fffcaf" stroke="black" points="528,-19 397,-19 397,0 528,0 528,-19"/>
<text text-anchor="middle" x="462.5" y="-7" font-family="Helvetica,sans-Serif" font-size="10.00">MultiTokenBucketMeter</text>
</a>
</g>
</g>
<!-- IPacketMeter&#45;&gt;MultiTokenBucketMeter -->
<g id="edge5" class="edge">
<title>IPacketMeter&#45;&gt;MultiTokenBucketMeter</title>
<path fill="none" stroke="black" stroke-dasharray="5,2" d="M462.5,-54.75C462.5,-44.87 462.5,-28.9 462.5,-19.09"/>
</g>
<!-- OmittedPacketMeter -->
<g id="node7" class="node">
<title>OmittedPacketMeter</title>
<g id="a_node7"><a xlink:href="inet.queueing.meter.OmittedPacketMeter.html" xlink:title="Compound Module OmittedPacketMeter" target="_parent">
<polygon fill="#fffcaf" stroke="black" points="663,-19 546,-19 546,0 663,0 663,-19"/>
<text text-anchor="middle" x="604.5" y="-7" font-family="Helvetica,sans-Serif" font-size="10.00">OmittedPacketMeter</text>
</a>
</g>
</g>
<!-- IPacketMeter&#45;&gt;OmittedPacketMeter -->
<g id="edge6" class="edge">
<title>IPacketMeter&#45;&gt;OmittedPacketMeter</title>
<path fill="none" stroke="black" stroke-dasharray="5,2" d="M485.31,-54.98C511.66,-45.15 554.75,-29.07 581.27,-19.17"/>
</g>
<!-- SlidingWindowRateMeter -->
<g id="node8" class="node">
<title>SlidingWindowRateMeter</title>
<g id="a_node8"><a xlink:href="inet.queueing.meter.SlidingWindowRateMeter.html" xlink:title="Simple Module SlidingWindowRateMeter" target="_parent">
<polygon fill="#fffcaf" stroke="black" points="821.5,-19 681.5,-19 681.5,0 821.5,0 821.5,-19"/>
<text text-anchor="middle" x="751.5" y="-7" font-family="Helvetica,sans-Serif" font-size="10.00">SlidingWindowRateMeter</text>
</a>
</g>
</g>
<!-- IPacketMeter&#45;&gt;SlidingWindowRateMeter -->
<g id="edge7" class="edge">
<title>IPacketMeter&#45;&gt;SlidingWindowRateMeter</title>
<path fill="none" stroke="black" stroke-dasharray="5,2" d="M502.68,-56.13C555.73,-46.4 648.93,-29.31 704.97,-19.03"/>
</g>
<!-- TokenBucketMeter -->
<g id="node9" class="node">
<title>TokenBucketMeter</title>
<g id="a_node9"><a xlink:href="inet.queueing.meter.TokenBucketMeter.html" xlink:title="Simple Module TokenBucketMeter" target="_parent">
<polygon fill="#fffcaf" stroke="black" points="945.5,-19 839.5,-19 839.5,0 945.5,0 945.5,-19"/>
<text text-anchor="middle" x="892.5" y="-7" font-family="Helvetica,sans-Serif" font-size="10.00">TokenBucketMeter</text>
</a>
</g>
</g>
<!-- IPacketMeter&#45;&gt;TokenBucketMeter -->
<g id="edge8" class="edge">
<title>IPacketMeter&#45;&gt;TokenBucketMeter</title>
<path fill="none" stroke="black" stroke-dasharray="5,2" d="M502.55,-58.87C570.18,-51 711.31,-34.38 830.5,-19 833.41,-18.62 836.39,-18.23 839.41,-17.84"/>
</g>
<!-- IPacketFlow -->
<g id="node2" class="node">
<title>IPacketFlow</title>
<g id="a_node2"><a xlink:href="inet.queueing.contract.IPacketFlow.html" xlink:title="Module Interface IPacketFlow" target="_parent">
<polygon fill="#fffcaf" stroke="black" stroke-dasharray="5,2" points="500,-129 425,-129 425,-110 500,-110 500,-129"/>
<text text-anchor="middle" x="462.5" y="-117" font-family="Helvetica,sans-Serif" font-size="10.00">IPacketFlow</text>
</a>
</g>
</g>
<!-- IPacketFlow&#45;&gt;IPacketMeter -->
<g id="edge1" class="edge">
<title>IPacketFlow&#45;&gt;IPacketMeter</title>
<path fill="none" stroke="black" d="M462.5,-109.75C462.5,-99.87 462.5,-83.9 462.5,-74.09"/>
</g>
</g>
</svg>
