<?xml version="1.0" encoding="UTF-8" standalone="no"?>
<!DOCTYPE svg PUBLIC "-//W3C//DTD SVG 1.1//EN"
 "http://www.w3.org/Graphics/SVG/1.1/DTD/svg11.dtd">
<!-- Generated by graphviz version 2.43.0 (0)
 -->
<!-- Title: opp Pages: 1 -->
<svg width="530pt" height="82pt"
 viewBox="0.00 0.00 529.50 82.00" xmlns="http://www.w3.org/2000/svg" xmlns:xlink="http://www.w3.org/1999/xlink">
<g id="graph0" class="graph" transform="scale(1 1) rotate(0) translate(4 78)">
<title>opp</title>
<polygon fill="transparent" stroke="transparent" points="-4,4 -4,-78 525.5,-78 525.5,4 -4,4"/>
<!-- OSPF_mininet -->
<g id="node1" class="node">
<title>OSPF_mininet</title>
<g id="a_node1"><a xlink:href="inet.examples.ospfv2.areatests.OSPF_mininet.html" xlink:title="Network OSPF_mininet" target="_parent">
<polygon fill="#9090ff" stroke="black" points="292,-74 207,-74 207,-55 292,-55 292,-74"/>
<text text-anchor="middle" x="249.5" y="-62" font-family="Helvetica,sans-Serif" font-size="10.00">OSPF_mininet</text>
</a>
</g>
</g>
<!-- ScenarioManager -->
<g id="node2" class="node">
<title>ScenarioManager</title>
<g id="a_node2"><a xlink:href="inet.common.scenario.ScenarioManager.html" xlink:title="Simple Module ScenarioManager" target="_parent">
<polygon fill="#fffcaf" stroke="black" points="101,-19 0,-19 0,0 101,0 101,-19"/>
<text text-anchor="middle" x="50.5" y="-7" font-family="Helvetica,sans-Serif" font-size="10.00">ScenarioManager</text>
</a>
</g>
</g>
<!-- OSPF_mininet&#45;&gt;ScenarioManager -->
<g id="edge1" class="edge">
<title>OSPF_mininet&#45;&gt;ScenarioManager</title>
<path fill="none" stroke="black" d="M217.53,-54.98C183.68,-45.97 130.1,-31.7 92.79,-21.76"/>
<polygon fill="black" stroke="black" points="93.29,-18.27 82.72,-19.08 91.49,-25.04 93.29,-18.27"/>
</g>
<!-- OspfRouter -->
<g id="node3" class="node">
<title>OspfRouter</title>
<g id="a_node3"><a xlink:href="inet.node.ospfv2.OspfRouter.html" xlink:title="Compound Module OspfRouter" target="_parent">
<polygon fill="#fffcaf" stroke="black" points="190,-19 119,-19 119,0 190,0 190,-19"/>
<text text-anchor="middle" x="154.5" y="-7" font-family="Helvetica,sans-Serif" font-size="10.00">OspfRouter</text>
</a>
</g>
</g>
<!-- OSPF_mininet&#45;&gt;OspfRouter -->
<g id="edge2" class="edge">
<title>OSPF_mininet&#45;&gt;OspfRouter</title>
<path fill="none" stroke="black" d="M234.24,-54.98C219.37,-46.69 196.52,-33.94 179.08,-24.22"/>
<polygon fill="black" stroke="black" points="180.48,-20.99 170.04,-19.17 177.07,-27.1 180.48,-20.99"/>
</g>
<!-- StandardHost -->
<g id="node4" class="node">
<title>StandardHost</title>
<g id="a_node4"><a xlink:href="inet.node.inet.StandardHost.html" xlink:title="Compound Module StandardHost" target="_parent">
<polygon fill="#fffcaf" stroke="black" points="291,-19 208,-19 208,0 291,0 291,-19"/>
<text text-anchor="middle" x="249.5" y="-7" font-family="Helvetica,sans-Serif" font-size="10.00">StandardHost</text>
</a>
</g>
</g>
<!-- OSPF_mininet&#45;&gt;StandardHost -->
<g id="edge3" class="edge">
<title>OSPF_mininet&#45;&gt;StandardHost</title>
<path fill="none" stroke="black" d="M249.5,-54.75C249.5,-47.8 249.5,-37.85 249.5,-29.13"/>
<polygon fill="black" stroke="black" points="253,-29.09 249.5,-19.09 246,-29.09 253,-29.09"/>
</g>
<!-- C -->
<g id="node5" class="node">
<title>C</title>
<g id="a_node5"><a xlink:href="inet.examples.ospfv2.areatests.OSPF_mininet.C.html" xlink:title="Channel C" target="_parent">
<polygon fill="#d0ffd0" stroke="black" points="363.5,-19 309.5,-19 309.5,0 363.5,0 363.5,-19"/>
<text text-anchor="middle" x="336.5" y="-7" font-family="Helvetica,sans-Serif" font-size="10.00">C</text>
</a>
</g>
</g>
<!-- OSPF_mininet&#45;&gt;C -->
<g id="edge4" class="edge">
<title>OSPF_mininet&#45;&gt;C</title>
<path fill="none" stroke="black" d="M263.48,-54.98C276.97,-46.77 297.63,-34.18 313.54,-24.49"/>
<polygon fill="black" stroke="black" points="315.55,-27.36 322.27,-19.17 311.91,-21.38 315.55,-27.36"/>
</g>
<!-- Ipv4NetworkConfigurator -->
<g id="node6" class="node">
<title>Ipv4NetworkConfigurator</title>
<g id="a_node6"><a xlink:href="inet.networklayer.configurator.ipv4.Ipv4NetworkConfigurator.html" xlink:title="Simple Module Ipv4NetworkConfigurator" target="_parent">
<polygon fill="#fffcaf" stroke="black" points="521.5,-19 381.5,-19 381.5,0 521.5,0 521.5,-19"/>
<text text-anchor="middle" x="451.5" y="-7" font-family="Helvetica,sans-Serif" font-size="10.00">Ipv4NetworkConfigurator</text>
</a>
</g>
</g>
<!-- OSPF_mininet&#45;&gt;Ipv4NetworkConfigurator -->
<g id="edge5" class="edge">
<title>OSPF_mininet&#45;&gt;Ipv4NetworkConfigurator</title>
<path fill="none" stroke="black" d="M281.95,-54.98C316.46,-45.93 371.16,-31.58 409.06,-21.64"/>
<polygon fill="black" stroke="black" points="410.01,-25.01 418.79,-19.08 408.23,-18.23 410.01,-25.01"/>
</g>
</g>
</svg>
