<?xml version="1.0" encoding="UTF-8" standalone="no"?>
<!DOCTYPE svg PUBLIC "-//W3C//DTD SVG 1.1//EN"
 "http://www.w3.org/Graphics/SVG/1.1/DTD/svg11.dtd">
<!-- Generated by graphviz version 2.43.0 (0)
 -->
<!-- Title: opp Pages: 1 -->
<svg width="4300pt" height="82pt"
 viewBox="0.00 0.00 4300.00 82.00" xmlns="http://www.w3.org/2000/svg" xmlns:xlink="http://www.w3.org/1999/xlink">
<g id="graph0" class="graph" transform="scale(1 1) rotate(0) translate(4 78)">
<title>opp</title>
<polygon fill="transparent" stroke="transparent" points="-4,4 -4,-78 4296,-78 4296,4 -4,4"/>
<!-- IApp -->
<g id="node1" class="node">
<title>IApp</title>
<g id="a_node1"><a xlink:href="inet.applications.contract.IApp.html" xlink:title="Module Interface IApp" target="_parent">
<polygon fill="#fff700" stroke="black" stroke-dasharray="5,2" points="2023,-74 1969,-74 1969,-55 2023,-55 2023,-74"/>
<text text-anchor="middle" x="1996" y="-62" font-family="Helvetica,sans-Serif" font-size="10.00">IApp</text>
</a>
</g>
</g>
<!-- Aodv -->
<g id="node2" class="node">
<title>Aodv</title>
<g id="a_node2"><a xlink:href="inet.routing.aodv.Aodv.html" xlink:title="Simple Module Aodv" target="_parent">
<polygon fill="#fffcaf" stroke="black" points="54,-19 0,-19 0,0 54,0 54,-19"/>
<text text-anchor="middle" x="27" y="-7" font-family="Helvetica,sans-Serif" font-size="10.00">Aodv</text>
</a>
</g>
</g>
<!-- IApp&#45;&gt;Aodv -->
<g id="edge1" class="edge">
<title>IApp&#45;&gt;Aodv</title>
<path fill="none" stroke="black" stroke-dasharray="5,2" d="M1969,-63.65C1764.38,-64.69 455.47,-69.29 63,-19 60.07,-18.62 57.03,-18.11 54.02,-17.52"/>
</g>
<!-- DhcpClient -->
<g id="node3" class="node">
<title>DhcpClient</title>
<g id="a_node3"><a xlink:href="inet.applications.dhcp.DhcpClient.html" xlink:title="Simple Module DhcpClient" target="_parent">
<polygon fill="#fffcaf" stroke="black" points="142,-19 72,-19 72,0 142,0 142,-19"/>
<text text-anchor="middle" x="107" y="-7" font-family="Helvetica,sans-Serif" font-size="10.00">DhcpClient</text>
</a>
</g>
</g>
<!-- IApp&#45;&gt;DhcpClient -->
<g id="edge2" class="edge">
<title>IApp&#45;&gt;DhcpClient</title>
<path fill="none" stroke="black" stroke-dasharray="5,2" d="M1968.99,-63.47C1769.77,-63.13 525.7,-59.43 151,-19 148.22,-18.7 145.34,-18.32 142.46,-17.88"/>
</g>
<!-- DhcpServer -->
<g id="node4" class="node">
<title>DhcpServer</title>
<g id="a_node4"><a xlink:href="inet.applications.dhcp.DhcpServer.html" xlink:title="Simple Module DhcpServer" target="_parent">
<polygon fill="#fffcaf" stroke="black" points="233.5,-19 160.5,-19 160.5,0 233.5,0 233.5,-19"/>
<text text-anchor="middle" x="197" y="-7" font-family="Helvetica,sans-Serif" font-size="10.00">DhcpServer</text>
</a>
</g>
</g>
<!-- IApp&#45;&gt;DhcpServer -->
<g id="edge3" class="edge">
<title>IApp&#45;&gt;DhcpServer</title>
<path fill="none" stroke="black" stroke-dasharray="5,2" d="M1968.79,-63.41C1774.66,-62.69 597.34,-56.82 242,-19 239.31,-18.71 236.54,-18.35 233.77,-17.94"/>
</g>
<!-- EthernetApp -->
<g id="node5" class="node">
<title>EthernetApp</title>
<g id="a_node5"><a xlink:href="inet.applications.ethernet.EthernetApp.html" xlink:title="Compound Module EthernetApp" target="_parent">
<polygon fill="#fffcaf" stroke="black" points="328.5,-19 251.5,-19 251.5,0 328.5,0 328.5,-19"/>
<text text-anchor="middle" x="290" y="-7" font-family="Helvetica,sans-Serif" font-size="10.00">EthernetApp</text>
</a>
</g>
</g>
<!-- IApp&#45;&gt;EthernetApp -->
<g id="edge4" class="edge">
<title>IApp&#45;&gt;EthernetApp</title>
<path fill="none" stroke="black" stroke-dasharray="5,2" d="M1968.8,-63.32C1780.89,-62.02 673.18,-52.99 338,-19 334.97,-18.69 331.84,-18.3 328.7,-17.86"/>
</g>
<!-- Gptp -->
<g id="node6" class="node">
<title>Gptp</title>
<g id="a_node6"><a xlink:href="inet.linklayer.ieee8021as.Gptp.html" xlink:title="Simple Module Gptp" target="_parent">
<polygon fill="#fffcaf" stroke="black" points="401,-19 347,-19 347,0 401,0 401,-19"/>
<text text-anchor="middle" x="374" y="-7" font-family="Helvetica,sans-Serif" font-size="10.00">Gptp</text>
</a>
</g>
</g>
<!-- IApp&#45;&gt;Gptp -->
<g id="edge5" class="edge">
<title>IApp&#45;&gt;Gptp</title>
<path fill="none" stroke="black" stroke-dasharray="5,2" d="M1968.79,-63.49C1785.52,-63.35 728.88,-60.68 410,-19 407.07,-18.62 404.03,-18.1 401.02,-17.5"/>
</g>
<!-- Ieee8022LlcApp -->
<g id="node7" class="node">
<title>Ieee8022LlcApp</title>
<g id="a_node7"><a xlink:href="inet.applications.ieee8022.Ieee8022LlcApp.html" xlink:title="Compound Module Ieee8022LlcApp" target="_parent">
<polygon fill="#fffcaf" stroke="black" points="513,-19 419,-19 419,0 513,0 513,-19"/>
<text text-anchor="middle" x="466" y="-7" font-family="Helvetica,sans-Serif" font-size="10.00">Ieee8022LlcApp</text>
</a>
</g>
</g>
<!-- IApp&#45;&gt;Ieee8022LlcApp -->
<g id="edge6" class="edge">
<title>IApp&#45;&gt;Ieee8022LlcApp</title>
<path fill="none" stroke="black" stroke-dasharray="5,2" d="M1968.79,-63.13C1793.27,-60.65 818.57,-45.89 522,-19 519.06,-18.73 516.04,-18.41 513,-18.05"/>
</g>
<!-- Ldp -->
<g id="node8" class="node">
<title>Ldp</title>
<g id="a_node8"><a xlink:href="inet.networklayer.ldp.Ldp.html" xlink:title="Simple Module Ldp" target="_parent">
<polygon fill="#fffcaf" stroke="black" points="585,-19 531,-19 531,0 585,0 585,-19"/>
<text text-anchor="middle" x="558" y="-7" font-family="Helvetica,sans-Serif" font-size="10.00">Ldp</text>
</a>
</g>
</g>
<!-- IApp&#45;&gt;Ldp -->
<g id="edge7" class="edge">
<title>IApp&#45;&gt;Ldp</title>
<path fill="none" stroke="black" stroke-dasharray="5,2" d="M1968.73,-63.38C1797.95,-62.51 874.04,-56.12 594,-19 591.07,-18.61 588.03,-18.09 585.02,-17.49"/>
</g>
<!-- MultiDomainGptp -->
<g id="node9" class="node">
<title>MultiDomainGptp</title>
<g id="a_node9"><a xlink:href="inet.linklayer.ieee8021as.MultiDomainGptp.html" xlink:title="Compound Module MultiDomainGptp" target="_parent">
<polygon fill="#fffcaf" stroke="black" points="706.5,-19 603.5,-19 603.5,0 706.5,0 706.5,-19"/>
<text text-anchor="middle" x="655" y="-7" font-family="Helvetica,sans-Serif" font-size="10.00">MultiDomainGptp</text>
</a>
</g>
</g>
<!-- IApp&#45;&gt;MultiDomainGptp -->
<g id="edge8" class="edge">
<title>IApp&#45;&gt;MultiDomainGptp</title>
<path fill="none" stroke="black" stroke-dasharray="5,2" d="M1968.91,-63.6C1833.63,-63.87 1217.75,-62.56 716,-19 712.91,-18.73 709.74,-18.42 706.54,-18.06"/>
</g>
<!-- NetPerfMeter -->
<g id="node10" class="node">
<title>NetPerfMeter</title>
<g id="a_node10"><a xlink:href="inet.applications.netperfmeter.NetPerfMeter.html" xlink:title="Simple Module NetPerfMeter" target="_parent">
<polygon fill="#fffcaf" stroke="black" points="807,-19 725,-19 725,0 807,0 807,-19"/>
<text text-anchor="middle" x="766" y="-7" font-family="Helvetica,sans-Serif" font-size="10.00">NetPerfMeter</text>
</a>
</g>
</g>
<!-- IApp&#45;&gt;NetPerfMeter -->
<g id="edge9" class="edge">
<title>IApp&#45;&gt;NetPerfMeter</title>
<path fill="none" stroke="black" stroke-dasharray="5,2" d="M1968.9,-63.78C1839.9,-64.86 1275.33,-66.5 816,-19 813.11,-18.7 810.13,-18.34 807.14,-17.93"/>
</g>
<!-- PingApp -->
<g id="node11" class="node">
<title>PingApp</title>
<g id="a_node11"><a xlink:href="inet.applications.pingapp.PingApp.html" xlink:title="Simple Module PingApp" target="_parent">
<polygon fill="#fffcaf" stroke="black" points="881,-19 825,-19 825,0 881,0 881,-19"/>
<text text-anchor="middle" x="853" y="-7" font-family="Helvetica,sans-Serif" font-size="10.00">PingApp</text>
</a>
</g>
</g>
<!-- IApp&#45;&gt;PingApp -->
<g id="edge10" class="edge">
<title>IApp&#45;&gt;PingApp</title>
<path fill="none" stroke="black" stroke-dasharray="5,2" d="M1968.96,-63.09C1821.01,-60.76 1108.09,-48.18 890,-19 887.13,-18.62 884.15,-18.11 881.18,-17.54"/>
</g>
<!-- Rip -->
<g id="node12" class="node">
<title>Rip</title>
<g id="a_node12"><a xlink:href="inet.routing.rip.Rip.html" xlink:title="Simple Module Rip" target="_parent">
<polygon fill="#fffcaf" stroke="black" points="953,-19 899,-19 899,0 953,0 953,-19"/>
<text text-anchor="middle" x="926" y="-7" font-family="Helvetica,sans-Serif" font-size="10.00">Rip</text>
</a>
</g>
</g>
<!-- IApp&#45;&gt;Rip -->
<g id="edge11" class="edge">
<title>IApp&#45;&gt;Rip</title>
<path fill="none" stroke="black" stroke-dasharray="5,2" d="M1968.88,-63.03C1826.57,-60.44 1164.9,-47.06 962,-19 959.07,-18.6 956.04,-18.06 953.02,-17.46"/>
</g>
<!-- SctpClient -->
<g id="node13" class="node">
<title>SctpClient</title>
<g id="a_node13"><a xlink:href="inet.applications.sctpapp.SctpClient.html" xlink:title="Simple Module SctpClient" target="_parent">
<polygon fill="#fffcaf" stroke="black" points="1037,-19 971,-19 971,0 1037,0 1037,-19"/>
<text text-anchor="middle" x="1004" y="-7" font-family="Helvetica,sans-Serif" font-size="10.00">SctpClient</text>
</a>
</g>
</g>
<!-- IApp&#45;&gt;SctpClient -->
<g id="edge12" class="edge">
<title>IApp&#45;&gt;SctpClient</title>
<path fill="none" stroke="black" stroke-dasharray="5,2" d="M1968.66,-63.74C1855.02,-64.43 1408.95,-63.96 1046,-19 1043.19,-18.65 1040.3,-18.22 1037.4,-17.74"/>
</g>
<!-- SctpNatPeer -->
<g id="node14" class="node">
<title>SctpNatPeer</title>
<g id="a_node14"><a xlink:href="inet.applications.sctpapp.SctpNatPeer.html" xlink:title="Simple Module SctpNatPeer" target="_parent">
<polygon fill="#fffcaf" stroke="black" points="1132.5,-19 1055.5,-19 1055.5,0 1132.5,0 1132.5,-19"/>
<text text-anchor="middle" x="1094" y="-7" font-family="Helvetica,sans-Serif" font-size="10.00">SctpNatPeer</text>
</a>
</g>
</g>
<!-- IApp&#45;&gt;SctpNatPeer -->
<g id="edge13" class="edge">
<title>IApp&#45;&gt;SctpNatPeer</title>
<path fill="none" stroke="black" stroke-dasharray="5,2" d="M1968.98,-63.3C1863.07,-62.27 1466.15,-56 1142,-19 1138.97,-18.65 1135.85,-18.24 1132.71,-17.78"/>
</g>
<!-- SctpNatServer -->
<g id="node15" class="node">
<title>SctpNatServer</title>
<g id="a_node15"><a xlink:href="inet.applications.sctpapp.SctpNatServer.html" xlink:title="Simple Module SctpNatServer" target="_parent">
<polygon fill="#fffcaf" stroke="black" points="1237,-19 1151,-19 1151,0 1237,0 1237,-19"/>
<text text-anchor="middle" x="1194" y="-7" font-family="Helvetica,sans-Serif" font-size="10.00">SctpNatServer</text>
</a>
</g>
</g>
<!-- IApp&#45;&gt;SctpNatServer -->
<g id="edge14" class="edge">
<title>IApp&#45;&gt;SctpNatServer</title>
<path fill="none" stroke="black" stroke-dasharray="5,2" d="M1968.67,-62.89C1870.6,-60.5 1527.32,-50.25 1246,-19 1243.09,-18.68 1240.1,-18.3 1237.08,-17.89"/>
</g>
<!-- SctpPeer -->
<g id="node16" class="node">
<title>SctpPeer</title>
<g id="a_node16"><a xlink:href="inet.applications.sctpapp.SctpPeer.html" xlink:title="Simple Module SctpPeer" target="_parent">
<polygon fill="#fffcaf" stroke="black" points="1314.5,-19 1255.5,-19 1255.5,0 1314.5,0 1314.5,-19"/>
<text text-anchor="middle" x="1285" y="-7" font-family="Helvetica,sans-Serif" font-size="10.00">SctpPeer</text>
</a>
</g>
</g>
<!-- IApp&#45;&gt;SctpPeer -->
<g id="edge15" class="edge">
<title>IApp&#45;&gt;SctpPeer</title>
<path fill="none" stroke="black" stroke-dasharray="5,2" d="M1968.92,-63.2C1877.51,-61.88 1572.18,-54.89 1323,-19 1320.32,-18.61 1317.56,-18.14 1314.79,-17.62"/>
</g>
<!-- SctpServer -->
<g id="node17" class="node">
<title>SctpServer</title>
<g id="a_node17"><a xlink:href="inet.applications.sctpapp.SctpServer.html" xlink:title="Simple Module SctpServer" target="_parent">
<polygon fill="#fffcaf" stroke="black" points="1401.5,-19 1332.5,-19 1332.5,0 1401.5,0 1401.5,-19"/>
<text text-anchor="middle" x="1367" y="-7" font-family="Helvetica,sans-Serif" font-size="10.00">SctpServer</text>
</a>
</g>
</g>
<!-- IApp&#45;&gt;SctpServer -->
<g id="edge16" class="edge">
<title>IApp&#45;&gt;SctpServer</title>
<path fill="none" stroke="black" stroke-dasharray="5,2" d="M1968.77,-62.54C1885.14,-59.36 1624.76,-47.68 1411,-19 1407.92,-18.59 1404.72,-18.09 1401.53,-17.56"/>
</g>
<!-- SimpleClockSynchronizer -->
<g id="node18" class="node">
<title>SimpleClockSynchronizer</title>
<g id="a_node18"><a xlink:href="inet.applications.clock.SimpleClockSynchronizer.html" xlink:title="Simple Module SimpleClockSynchronizer" target="_parent">
<polygon fill="#fffcaf" stroke="black" points="1560,-19 1420,-19 1420,0 1560,0 1560,-19"/>
<text text-anchor="middle" x="1490" y="-7" font-family="Helvetica,sans-Serif" font-size="10.00">SimpleClockSynchronizer</text>
</a>
</g>
</g>
<!-- IApp&#45;&gt;SimpleClockSynchronizer -->
<g id="edge17" class="edge">
<title>IApp&#45;&gt;SimpleClockSynchronizer</title>
<path fill="none" stroke="black" stroke-dasharray="5,2" d="M1968.77,-60.69C1901.13,-53.72 1720.02,-34.99 1569,-19 1566.12,-18.69 1563.18,-18.38 1560.21,-18.07"/>
</g>
<!-- SimpleVoipReceiver -->
<g id="node19" class="node">
<title>SimpleVoipReceiver</title>
<g id="a_node19"><a xlink:href="inet.applications.voip.SimpleVoipReceiver.html" xlink:title="Simple Module SimpleVoipReceiver" target="_parent">
<polygon fill="#fffcaf" stroke="black" points="1693.5,-19 1578.5,-19 1578.5,0 1693.5,0 1693.5,-19"/>
<text text-anchor="middle" x="1636" y="-7" font-family="Helvetica,sans-Serif" font-size="10.00">SimpleVoipReceiver</text>
</a>
</g>
</g>
<!-- IApp&#45;&gt;SimpleVoipReceiver -->
<g id="edge18" class="edge">
<title>IApp&#45;&gt;SimpleVoipReceiver</title>
<path fill="none" stroke="black" stroke-dasharray="5,2" d="M1968.94,-59.52C1910.73,-50.95 1772.5,-30.6 1693.68,-18.99"/>
</g>
<!-- SimpleVoipSender -->
<g id="node20" class="node">
<title>SimpleVoipSender</title>
<g id="a_node20"><a xlink:href="inet.applications.voip.SimpleVoipSender.html" xlink:title="Simple Module SimpleVoipSender" target="_parent">
<polygon fill="#fffcaf" stroke="black" points="1818,-19 1712,-19 1712,0 1818,0 1818,-19"/>
<text text-anchor="middle" x="1765" y="-7" font-family="Helvetica,sans-Serif" font-size="10.00">SimpleVoipSender</text>
</a>
</g>
</g>
<!-- IApp&#45;&gt;SimpleVoipSender -->
<g id="edge19" class="edge">
<title>IApp&#45;&gt;SimpleVoipSender</title>
<path fill="none" stroke="black" stroke-dasharray="5,2" d="M1968.59,-57.21C1927.24,-47.72 1848.8,-29.73 1802.29,-19.05"/>
</g>
<!-- SinkApp -->
<g id="node21" class="node">
<title>SinkApp</title>
<g id="a_node21"><a xlink:href="inet.applications.common.SinkApp.html" xlink:title="Compound Module SinkApp" target="_parent">
<polygon fill="#fffcaf" stroke="black" points="1892,-19 1836,-19 1836,0 1892,0 1892,-19"/>
<text text-anchor="middle" x="1864" y="-7" font-family="Helvetica,sans-Serif" font-size="10.00">SinkApp</text>
</a>
</g>
</g>
<!-- IApp&#45;&gt;SinkApp -->
<g id="edge20" class="edge">
<title>IApp&#45;&gt;SinkApp</title>
<path fill="none" stroke="black" stroke-dasharray="5,2" d="M1974.79,-54.98C1950.31,-45.15 1910.24,-29.07 1885.59,-19.17"/>
</g>
<!-- SourceApp -->
<g id="node22" class="node">
<title>SourceApp</title>
<g id="a_node22"><a xlink:href="inet.applications.common.SourceApp.html" xlink:title="Compound Module SourceApp" target="_parent">
<polygon fill="#fffcaf" stroke="black" points="1978,-19 1910,-19 1910,0 1978,0 1978,-19"/>
<text text-anchor="middle" x="1944" y="-7" font-family="Helvetica,sans-Serif" font-size="10.00">SourceApp</text>
</a>
</g>
</g>
<!-- IApp&#45;&gt;SourceApp -->
<g id="edge21" class="edge">
<title>IApp&#45;&gt;SourceApp</title>
<path fill="none" stroke="black" stroke-dasharray="5,2" d="M1987.41,-54.75C1977.72,-44.87 1962.05,-28.9 1952.43,-19.09"/>
</g>
<!-- TcpBasicClientApp -->
<g id="node23" class="node">
<title>TcpBasicClientApp</title>
<g id="a_node23"><a xlink:href="inet.applications.tcpapp.TcpBasicClientApp.html" xlink:title="Simple Module TcpBasicClientApp" target="_parent">
<polygon fill="#fffcaf" stroke="black" points="2102,-19 1996,-19 1996,0 2102,0 2102,-19"/>
<text text-anchor="middle" x="2049" y="-7" font-family="Helvetica,sans-Serif" font-size="10.00">TcpBasicClientApp</text>
</a>
</g>
</g>
<!-- IApp&#45;&gt;TcpBasicClientApp -->
<g id="edge22" class="edge">
<title>IApp&#45;&gt;TcpBasicClientApp</title>
<path fill="none" stroke="black" stroke-dasharray="5,2" d="M2004.75,-54.75C2014.63,-44.87 2030.6,-28.9 2040.41,-19.09"/>
</g>
<!-- TcpClientApp -->
<g id="node24" class="node">
<title>TcpClientApp</title>
<g id="a_node24"><a xlink:href="inet.applications.tcpapp.TcpClientApp.html" xlink:title="Compound Module TcpClientApp" target="_parent">
<polygon fill="#fffcaf" stroke="black" points="2200,-19 2120,-19 2120,0 2200,0 2200,-19"/>
<text text-anchor="middle" x="2160" y="-7" font-family="Helvetica,sans-Serif" font-size="10.00">TcpClientApp</text>
</a>
</g>
</g>
<!-- IApp&#45;&gt;TcpClientApp -->
<g id="edge23" class="edge">
<title>IApp&#45;&gt;TcpClientApp</title>
<path fill="none" stroke="black" stroke-dasharray="5,2" d="M2022.35,-54.98C2052.86,-45.12 2102.84,-28.97 2133.44,-19.08"/>
</g>
<!-- TcpGenericServerApp -->
<g id="node25" class="node">
<title>TcpGenericServerApp</title>
<g id="a_node25"><a xlink:href="inet.applications.tcpapp.TcpGenericServerApp.html" xlink:title="Simple Module TcpGenericServerApp" target="_parent">
<polygon fill="#fffcaf" stroke="black" points="2338,-19 2218,-19 2218,0 2338,0 2338,-19"/>
<text text-anchor="middle" x="2278" y="-7" font-family="Helvetica,sans-Serif" font-size="10.00">TcpGenericServerApp</text>
</a>
</g>
</g>
<!-- IApp&#45;&gt;TcpGenericServerApp -->
<g id="edge24" class="edge">
<title>IApp&#45;&gt;TcpGenericServerApp</title>
<path fill="none" stroke="black" stroke-dasharray="5,2" d="M2023.04,-58.42C2071.43,-49.32 2173.3,-30.18 2232.58,-19.04"/>
</g>
<!-- TcpServerApp -->
<g id="node26" class="node">
<title>TcpServerApp</title>
<g id="a_node26"><a xlink:href="inet.applications.tcpapp.TcpServerApp.html" xlink:title="Compound Module TcpServerApp" target="_parent">
<polygon fill="#fffcaf" stroke="black" points="2439.5,-19 2356.5,-19 2356.5,0 2439.5,0 2439.5,-19"/>
<text text-anchor="middle" x="2398" y="-7" font-family="Helvetica,sans-Serif" font-size="10.00">TcpServerApp</text>
</a>
</g>
</g>
<!-- IApp&#45;&gt;TcpServerApp -->
<g id="edge25" class="edge">
<title>IApp&#45;&gt;TcpServerApp</title>
<path fill="none" stroke="black" stroke-dasharray="5,2" d="M2023.36,-60.4C2082.5,-53.62 2226.67,-36.65 2347,-19 2350.02,-18.56 2353.14,-18.08 2356.27,-17.59"/>
</g>
<!-- TcpServerConnection -->
<g id="node27" class="node">
<title>TcpServerConnection</title>
<g id="a_node27"><a xlink:href="inet.applications.tcpapp.TcpServerConnection.html" xlink:title="Compound Module TcpServerConnection" target="_parent">
<polygon fill="#fffcaf" stroke="black" points="2576.5,-19 2457.5,-19 2457.5,0 2576.5,0 2576.5,-19"/>
<text text-anchor="middle" x="2517" y="-7" font-family="Helvetica,sans-Serif" font-size="10.00">TcpServerConnection</text>
</a>
</g>
</g>
<!-- IApp&#45;&gt;TcpServerConnection -->
<g id="edge26" class="edge">
<title>IApp&#45;&gt;TcpServerConnection</title>
<path fill="none" stroke="black" stroke-dasharray="5,2" d="M2023.09,-61.09C2093.42,-54.78 2287.61,-37.01 2449,-19 2451.72,-18.7 2454.5,-18.38 2457.31,-18.05"/>
</g>
<!-- TcpServerHostApp -->
<g id="node28" class="node">
<title>TcpServerHostApp</title>
<g id="a_node28"><a xlink:href="inet.applications.tcpapp.TcpServerHostApp.html" xlink:title="Simple Module TcpServerHostApp" target="_parent">
<polygon fill="#fffcaf" stroke="black" points="2699.5,-19 2594.5,-19 2594.5,0 2699.5,0 2699.5,-19"/>
<text text-anchor="middle" x="2647" y="-7" font-family="Helvetica,sans-Serif" font-size="10.00">TcpServerHostApp</text>
</a>
</g>
</g>
<!-- IApp&#45;&gt;TcpServerHostApp -->
<g id="edge27" class="edge">
<title>IApp&#45;&gt;TcpServerHostApp</title>
<path fill="none" stroke="black" stroke-dasharray="5,2" d="M2023.11,-62.07C2106.95,-57.5 2369.47,-42.23 2586,-19 2588.76,-18.7 2591.6,-18.38 2594.45,-18.04"/>
</g>
<!-- TcpServerListener -->
<g id="node29" class="node">
<title>TcpServerListener</title>
<g id="a_node29"><a xlink:href="inet.applications.tcpapp.TcpServerListener.html" xlink:title="Simple Module TcpServerListener" target="_parent">
<polygon fill="#fffcaf" stroke="black" points="2820.5,-19 2717.5,-19 2717.5,0 2820.5,0 2820.5,-19"/>
<text text-anchor="middle" x="2769" y="-7" font-family="Helvetica,sans-Serif" font-size="10.00">TcpServerListener</text>
</a>
</g>
</g>
<!-- IApp&#45;&gt;TcpServerListener -->
<g id="edge28" class="edge">
<title>IApp&#45;&gt;TcpServerListener</title>
<path fill="none" stroke="black" stroke-dasharray="5,2" d="M2023.26,-62.57C2118.12,-59.17 2442.48,-46.15 2709,-19 2711.72,-18.72 2714.51,-18.41 2717.32,-18.08"/>
</g>
<!-- TcpSessionApp -->
<g id="node30" class="node">
<title>TcpSessionApp</title>
<g id="a_node30"><a xlink:href="inet.applications.tcpapp.TcpSessionApp.html" xlink:title="Simple Module TcpSessionApp" target="_parent">
<polygon fill="#fffcaf" stroke="black" points="2927.5,-19 2838.5,-19 2838.5,0 2927.5,0 2927.5,-19"/>
<text text-anchor="middle" x="2883" y="-7" font-family="Helvetica,sans-Serif" font-size="10.00">TcpSessionApp</text>
</a>
</g>
</g>
<!-- IApp&#45;&gt;TcpSessionApp -->
<g id="edge29" class="edge">
<title>IApp&#45;&gt;TcpSessionApp</title>
<path fill="none" stroke="black" stroke-dasharray="5,2" d="M2023.08,-63.09C2127.5,-61.31 2513.88,-52.69 2830,-19 2832.69,-18.71 2835.45,-18.38 2838.23,-18.02"/>
</g>
<!-- TelnetApp -->
<g id="node31" class="node">
<title>TelnetApp</title>
<g id="a_node31"><a xlink:href="inet.applications.tcpapp.TelnetApp.html" xlink:title="Simple Module TelnetApp" target="_parent">
<polygon fill="#fffcaf" stroke="black" points="3010.5,-19 2945.5,-19 2945.5,0 3010.5,0 3010.5,-19"/>
<text text-anchor="middle" x="2978" y="-7" font-family="Helvetica,sans-Serif" font-size="10.00">TelnetApp</text>
</a>
</g>
</g>
<!-- IApp&#45;&gt;TelnetApp -->
<g id="edge30" class="edge">
<title>IApp&#45;&gt;TelnetApp</title>
<path fill="none" stroke="black" stroke-dasharray="5,2" d="M2023.08,-63.77C2135.67,-64.57 2577.6,-64.47 2937,-19 2939.74,-18.65 2942.57,-18.22 2945.4,-17.74"/>
</g>
<!-- TelnetClientApp -->
<g id="node32" class="node">
<title>TelnetClientApp</title>
<g id="a_node32"><a xlink:href="inet.applications.tcpapp.TelnetClientApp.html" xlink:title="Compound Module TelnetClientApp" target="_parent">
<polygon fill="#fffcaf" stroke="black" points="3121.5,-19 3028.5,-19 3028.5,0 3121.5,0 3121.5,-19"/>
<text text-anchor="middle" x="3075" y="-7" font-family="Helvetica,sans-Serif" font-size="10.00">TelnetClientApp</text>
</a>
</g>
</g>
<!-- IApp&#45;&gt;TelnetClientApp -->
<g id="edge31" class="edge">
<title>IApp&#45;&gt;TelnetClientApp</title>
<path fill="none" stroke="black" stroke-dasharray="5,2" d="M2023.37,-63.41C2142.26,-62.8 2625.54,-57.93 3020,-19 3022.69,-18.73 3025.45,-18.42 3028.24,-18.08"/>
</g>
<!-- TelnetServerConnection -->
<g id="node33" class="node">
<title>TelnetServerConnection</title>
<g id="a_node33"><a xlink:href="inet.applications.tcpapp.TelnetServerConnection.html" xlink:title="Compound Module TelnetServerConnection" target="_parent">
<polygon fill="#fffcaf" stroke="black" points="3272,-19 3140,-19 3140,0 3272,0 3272,-19"/>
<text text-anchor="middle" x="3206" y="-7" font-family="Helvetica,sans-Serif" font-size="10.00">TelnetServerConnection</text>
</a>
</g>
</g>
<!-- IApp&#45;&gt;TelnetServerConnection -->
<g id="edge32" class="edge">
<title>IApp&#45;&gt;TelnetServerConnection</title>
<path fill="none" stroke="black" stroke-dasharray="5,2" d="M2023.27,-63.17C2149.5,-61.5 2689.56,-52.62 3131,-19 3133.87,-18.78 3136.81,-18.54 3139.77,-18.27"/>
</g>
<!-- TunLoopbackApp -->
<g id="node34" class="node">
<title>TunLoopbackApp</title>
<g id="a_node34"><a xlink:href="inet.applications.tunapp.TunLoopbackApp.html" xlink:title="Simple Module TunLoopbackApp" target="_parent">
<polygon fill="#fffcaf" stroke="black" points="3388,-19 3290,-19 3290,0 3388,0 3388,-19"/>
<text text-anchor="middle" x="3339" y="-7" font-family="Helvetica,sans-Serif" font-size="10.00">TunLoopbackApp</text>
</a>
</g>
</g>
<!-- IApp&#45;&gt;TunLoopbackApp -->
<g id="edge33" class="edge">
<title>IApp&#45;&gt;TunLoopbackApp</title>
<path fill="none" stroke="black" stroke-dasharray="5,2" d="M2023.2,-63.68C2159.04,-64.32 2777.45,-64.48 3281,-19 3283.94,-18.73 3286.96,-18.42 3290,-18.07"/>
</g>
<!-- TunnelApp -->
<g id="node35" class="node">
<title>TunnelApp</title>
<g id="a_node35"><a xlink:href="inet.applications.tunapp.TunnelApp.html" xlink:title="Simple Module TunnelApp" target="_parent">
<polygon fill="#fffcaf" stroke="black" points="3473.5,-19 3406.5,-19 3406.5,0 3473.5,0 3473.5,-19"/>
<text text-anchor="middle" x="3440" y="-7" font-family="Helvetica,sans-Serif" font-size="10.00">TunnelApp</text>
</a>
</g>
</g>
<!-- IApp&#45;&gt;TunnelApp -->
<g id="edge34" class="edge">
<title>IApp&#45;&gt;TunnelApp</title>
<path fill="none" stroke="black" stroke-dasharray="5,2" d="M2023.24,-63.24C2193.79,-61.54 3116.53,-50.96 3397,-19 3400.02,-18.66 3403.15,-18.21 3406.28,-17.71"/>
</g>
<!-- UdpApp -->
<g id="node36" class="node">
<title>UdpApp</title>
<g id="a_node36"><a xlink:href="inet.applications.udpapp.UdpApp.html" xlink:title="Compound Module UdpApp" target="_parent">
<polygon fill="#fffcaf" stroke="black" points="3546.5,-19 3491.5,-19 3491.5,0 3546.5,0 3546.5,-19"/>
<text text-anchor="middle" x="3519" y="-7" font-family="Helvetica,sans-Serif" font-size="10.00">UdpApp</text>
</a>
</g>
</g>
<!-- IApp&#45;&gt;UdpApp -->
<g id="edge35" class="edge">
<title>IApp&#45;&gt;UdpApp</title>
<path fill="none" stroke="black" stroke-dasharray="5,2" d="M2023.19,-63.44C2199.71,-62.91 3185,-58.23 3483,-19 3485.67,-18.65 3488.44,-18.18 3491.19,-17.65"/>
</g>
<!-- UdpBasicApp -->
<g id="node37" class="node">
<title>UdpBasicApp</title>
<g id="a_node37"><a xlink:href="inet.applications.udpapp.UdpBasicApp.html" xlink:title="Simple Module UdpBasicApp" target="_parent">
<polygon fill="#fffcaf" stroke="black" points="3645.5,-19 3564.5,-19 3564.5,0 3645.5,0 3645.5,-19"/>
<text text-anchor="middle" x="3605" y="-7" font-family="Helvetica,sans-Serif" font-size="10.00">UdpBasicApp</text>
</a>
</g>
</g>
<!-- IApp&#45;&gt;UdpBasicApp -->
<g id="edge36" class="edge">
<title>IApp&#45;&gt;UdpBasicApp</title>
<path fill="none" stroke="black" stroke-dasharray="5,2" d="M2023.03,-63.26C2203.95,-61.57 3241.43,-50.61 3556,-19 3558.75,-18.72 3561.58,-18.38 3564.42,-18"/>
</g>
<!-- UdpBasicBurst -->
<g id="node38" class="node">
<title>UdpBasicBurst</title>
<g id="a_node38"><a xlink:href="inet.applications.udpapp.UdpBasicBurst.html" xlink:title="Simple Module UdpBasicBurst" target="_parent">
<polygon fill="#fffcaf" stroke="black" points="3752,-19 3664,-19 3664,0 3752,0 3752,-19"/>
<text text-anchor="middle" x="3708" y="-7" font-family="Helvetica,sans-Serif" font-size="10.00">UdpBasicBurst</text>
</a>
</g>
</g>
<!-- IApp&#45;&gt;UdpBasicBurst -->
<g id="edge37" class="edge">
<title>IApp&#45;&gt;UdpBasicBurst</title>
<path fill="none" stroke="black" stroke-dasharray="5,2" d="M2023.21,-63.26C2211.2,-61.56 3319.35,-50.28 3655,-19 3657.88,-18.73 3660.83,-18.4 3663.81,-18.04"/>
</g>
<!-- UdpEchoApp -->
<g id="node39" class="node">
<title>UdpEchoApp</title>
<g id="a_node39"><a xlink:href="inet.applications.udpapp.UdpEchoApp.html" xlink:title="Simple Module UdpEchoApp" target="_parent">
<polygon fill="#fffcaf" stroke="black" points="3848,-19 3770,-19 3770,0 3848,0 3848,-19"/>
<text text-anchor="middle" x="3809" y="-7" font-family="Helvetica,sans-Serif" font-size="10.00">UdpEchoApp</text>
</a>
</g>
</g>
<!-- IApp&#45;&gt;UdpEchoApp -->
<g id="edge38" class="edge">
<title>IApp&#45;&gt;UdpEchoApp</title>
<path fill="none" stroke="black" stroke-dasharray="5,2" d="M2023.07,-63.38C2217.43,-62.4 3403.03,-55 3761,-19 3763.86,-18.71 3766.81,-18.35 3769.77,-17.94"/>
</g>
<!-- UdpSink -->
<g id="node40" class="node">
<title>UdpSink</title>
<g id="a_node40"><a xlink:href="inet.applications.udpapp.UdpSink.html" xlink:title="Simple Module UdpSink" target="_parent">
<polygon fill="#fffcaf" stroke="black" points="3923.5,-19 3866.5,-19 3866.5,0 3923.5,0 3923.5,-19"/>
<text text-anchor="middle" x="3895" y="-7" font-family="Helvetica,sans-Serif" font-size="10.00">UdpSink</text>
</a>
</g>
</g>
<!-- IApp&#45;&gt;UdpSink -->
<g id="edge39" class="edge">
<title>IApp&#45;&gt;UdpSink</title>
<path fill="none" stroke="black" stroke-dasharray="5,2" d="M2023.26,-63.58C2224.29,-64.08 3479.68,-65.26 3857,-19 3860.09,-18.62 3863.29,-18.1 3866.47,-17.51"/>
</g>
<!-- UdpVideoStreamClient -->
<g id="node41" class="node">
<title>UdpVideoStreamClient</title>
<g id="a_node41"><a xlink:href="inet.applications.udpapp.UdpVideoStreamClient.html" xlink:title="Simple Module UdpVideoStreamClient" target="_parent">
<polygon fill="#fffcaf" stroke="black" points="4070,-19 3942,-19 3942,0 4070,0 4070,-19"/>
<text text-anchor="middle" x="4006" y="-7" font-family="Helvetica,sans-Serif" font-size="10.00">UdpVideoStreamClient</text>
</a>
</g>
</g>
<!-- IApp&#45;&gt;UdpVideoStreamClient -->
<g id="edge40" class="edge">
<title>IApp&#45;&gt;UdpVideoStreamClient</title>
<path fill="none" stroke="black" stroke-dasharray="5,2" d="M2023.02,-63.23C2227.74,-61.09 3537.46,-46.51 3933,-19 3935.93,-18.8 3938.92,-18.56 3941.94,-18.3"/>
</g>
<!-- UdpVideoStreamServer -->
<g id="node42" class="node">
<title>UdpVideoStreamServer</title>
<g id="a_node42"><a xlink:href="inet.applications.udpapp.UdpVideoStreamServer.html" xlink:title="Simple Module UdpVideoStreamServer" target="_parent">
<polygon fill="#fffcaf" stroke="black" points="4219.5,-19 4088.5,-19 4088.5,0 4219.5,0 4219.5,-19"/>
<text text-anchor="middle" x="4154" y="-7" font-family="Helvetica,sans-Serif" font-size="10.00">UdpVideoStreamServer</text>
</a>
</g>
</g>
<!-- IApp&#45;&gt;UdpVideoStreamServer -->
<g id="edge41" class="edge">
<title>IApp&#45;&gt;UdpVideoStreamServer</title>
<path fill="none" stroke="black" stroke-dasharray="5,2" d="M2023.33,-63.26C2237.73,-61.33 3652.46,-47.67 4079,-19 4082.01,-18.8 4085.08,-18.56 4088.18,-18.3"/>
</g>
<!-- IBgp -->
<g id="node43" class="node">
<title>IBgp</title>
<g id="a_node43"><a xlink:href="inet.routing.contract.IBgp.html" xlink:title="Module Interface IBgp" target="_parent">
<polygon fill="#fffcaf" stroke="black" stroke-dasharray="5,2" points="4292,-19 4238,-19 4238,0 4292,0 4292,-19"/>
<text text-anchor="middle" x="4265" y="-7" font-family="Helvetica,sans-Serif" font-size="10.00">IBgp</text>
</a>
</g>
</g>
<!-- IApp&#45;&gt;IBgp -->
<g id="edge42" class="edge">
<title>IApp&#45;&gt;IBgp</title>
<path fill="none" stroke="black" d="M2023.04,-63.31C2261.32,-61.58 3999.75,-48.01 4229,-19 4231.93,-18.63 4234.97,-18.12 4237.99,-17.53"/>
</g>
</g>
</svg>
