<?xml version="1.0" encoding="UTF-8" standalone="no"?>
<!DOCTYPE svg PUBLIC "-//W3C//DTD SVG 1.1//EN"
 "http://www.w3.org/Graphics/SVG/1.1/DTD/svg11.dtd">
<!-- Generated by graphviz version 2.43.0 (0)
 -->
<!-- Title: opp Pages: 1 -->
<svg width="569pt" height="82pt"
 viewBox="0.00 0.00 569.00 82.00" xmlns="http://www.w3.org/2000/svg" xmlns:xlink="http://www.w3.org/1999/xlink">
<g id="graph0" class="graph" transform="scale(1 1) rotate(0) translate(4 78)">
<title>opp</title>
<polygon fill="transparent" stroke="transparent" points="-4,4 -4,-78 565,-78 565,4 -4,4"/>
<!-- DataLinkVisualizerFilteringShowcase -->
<g id="node1" class="node">
<title>DataLinkVisualizerFilteringShowcase</title>
<g id="a_node1"><a xlink:href="inet.showcases.visualizer.canvas.datalinkactivity.DataLinkVisualizerFilteringShowcase.html" xlink:title="Network DataLinkVisualizerFilteringShowcase" target="_parent">
<polygon fill="#9090ff" stroke="black" points="415.5,-74 219.5,-74 219.5,-55 415.5,-55 415.5,-74"/>
<text text-anchor="middle" x="317.5" y="-62" font-family="Helvetica,sans-Serif" font-size="10.00">DataLinkVisualizerFilteringShowcase</text>
</a>
</g>
</g>
<!-- StandardHost -->
<g id="node2" class="node">
<title>StandardHost</title>
<g id="a_node2"><a xlink:href="inet.node.inet.StandardHost.html" xlink:title="Compound Module StandardHost" target="_parent">
<polygon fill="#fffcaf" stroke="black" points="83,-19 0,-19 0,0 83,0 83,-19"/>
<text text-anchor="middle" x="41.5" y="-7" font-family="Helvetica,sans-Serif" font-size="10.00">StandardHost</text>
</a>
</g>
</g>
<!-- DataLinkVisualizerFilteringShowcase&#45;&gt;StandardHost -->
<g id="edge1" class="edge">
<title>DataLinkVisualizerFilteringShowcase&#45;&gt;StandardHost</title>
<path fill="none" stroke="black" d="M273.16,-54.98C224.01,-45.55 144.87,-30.35 93.02,-20.39"/>
<polygon fill="black" stroke="black" points="93.51,-16.92 83.03,-18.47 92.19,-23.8 93.51,-16.92"/>
</g>
<!-- Ipv4NetworkConfigurator -->
<g id="node3" class="node">
<title>Ipv4NetworkConfigurator</title>
<g id="a_node3"><a xlink:href="inet.networklayer.configurator.ipv4.Ipv4NetworkConfigurator.html" xlink:title="Simple Module Ipv4NetworkConfigurator" target="_parent">
<polygon fill="#fffcaf" stroke="black" points="241.5,-19 101.5,-19 101.5,0 241.5,0 241.5,-19"/>
<text text-anchor="middle" x="171.5" y="-7" font-family="Helvetica,sans-Serif" font-size="10.00">Ipv4NetworkConfigurator</text>
</a>
</g>
</g>
<!-- DataLinkVisualizerFilteringShowcase&#45;&gt;Ipv4NetworkConfigurator -->
<g id="edge2" class="edge">
<title>DataLinkVisualizerFilteringShowcase&#45;&gt;Ipv4NetworkConfigurator</title>
<path fill="none" stroke="black" d="M294.04,-54.98C269.92,-46.23 232.13,-32.51 204.9,-22.62"/>
<polygon fill="black" stroke="black" points="205.98,-19.29 195.38,-19.17 203.59,-25.87 205.98,-19.29"/>
</g>
<!-- IntegratedVisualizer -->
<g id="node4" class="node">
<title>IntegratedVisualizer</title>
<g id="a_node4"><a xlink:href="inet.visualizer.common.IntegratedVisualizer.html" xlink:title="Compound Module IntegratedVisualizer" target="_parent">
<polygon fill="#fffcaf" stroke="black" points="375,-19 260,-19 260,0 375,0 375,-19"/>
<text text-anchor="middle" x="317.5" y="-7" font-family="Helvetica,sans-Serif" font-size="10.00">IntegratedVisualizer</text>
</a>
</g>
</g>
<!-- DataLinkVisualizerFilteringShowcase&#45;&gt;IntegratedVisualizer -->
<g id="edge3" class="edge">
<title>DataLinkVisualizerFilteringShowcase&#45;&gt;IntegratedVisualizer</title>
<path fill="none" stroke="black" d="M317.5,-54.75C317.5,-47.8 317.5,-37.85 317.5,-29.13"/>
<polygon fill="black" stroke="black" points="321,-29.09 317.5,-19.09 314,-29.09 321,-29.09"/>
</g>
<!-- EthernetSwitch -->
<g id="node5" class="node">
<title>EthernetSwitch</title>
<g id="a_node5"><a xlink:href="inet.node.ethernet.EthernetSwitch.html" xlink:title="Compound Module EthernetSwitch" target="_parent">
<polygon fill="#fffcaf" stroke="black" points="483.5,-19 393.5,-19 393.5,0 483.5,0 483.5,-19"/>
<text text-anchor="middle" x="438.5" y="-7" font-family="Helvetica,sans-Serif" font-size="10.00">EthernetSwitch</text>
</a>
</g>
</g>
<!-- DataLinkVisualizerFilteringShowcase&#45;&gt;EthernetSwitch -->
<g id="edge4" class="edge">
<title>DataLinkVisualizerFilteringShowcase&#45;&gt;EthernetSwitch</title>
<path fill="none" stroke="black" d="M336.94,-54.98C356.49,-46.42 386.88,-33.11 409.32,-23.28"/>
<polygon fill="black" stroke="black" points="410.95,-26.39 418.71,-19.17 408.14,-19.98 410.95,-26.39"/>
</g>
<!-- Eth100M -->
<g id="node6" class="node">
<title>Eth100M</title>
<g id="a_node6"><a xlink:href="inet.node.ethernet.Eth100M.html" xlink:title="Channel Eth100M" target="_parent">
<polygon fill="#d0ffd0" stroke="black" points="561,-19 502,-19 502,0 561,0 561,-19"/>
<text text-anchor="middle" x="531.5" y="-7" font-family="Helvetica,sans-Serif" font-size="10.00">Eth100M</text>
</a>
</g>
</g>
<!-- DataLinkVisualizerFilteringShowcase&#45;&gt;Eth100M -->
<g id="edge5" class="edge">
<title>DataLinkVisualizerFilteringShowcase&#45;&gt;Eth100M</title>
<path fill="none" stroke="black" d="M351.88,-54.98C390.11,-45.52 451.76,-30.25 491.96,-20.29"/>
<polygon fill="black" stroke="black" points="492.82,-23.68 501.69,-17.88 491.14,-16.89 492.82,-23.68"/>
</g>
</g>
</svg>
