<?xml version="1.0" encoding="UTF-8" standalone="no"?>
<!DOCTYPE svg PUBLIC "-//W3C//DTD SVG 1.1//EN"
 "http://www.w3.org/Graphics/SVG/1.1/DTD/svg11.dtd">
<!-- Generated by graphviz version 2.43.0 (0)
 -->
<!-- Title: opp Pages: 1 -->
<svg width="440pt" height="82pt"
 viewBox="0.00 0.00 440.00 82.00" xmlns="http://www.w3.org/2000/svg" xmlns:xlink="http://www.w3.org/1999/xlink">
<g id="graph0" class="graph" transform="scale(1 1) rotate(0) translate(4 78)">
<title>opp</title>
<polygon fill="transparent" stroke="transparent" points="-4,4 -4,-78 436,-78 436,4 -4,4"/>
<!-- DemoNetworkEth -->
<g id="node1" class="node">
<title>DemoNetworkEth</title>
<g id="a_node1"><a xlink:href="inet.examples.ipv6.demonetworketh.DemoNetworkEth.html" xlink:title="Network DemoNetworkEth" target="_parent">
<polygon fill="#9090ff" stroke="black" points="235.5,-74 132.5,-74 132.5,-55 235.5,-55 235.5,-74"/>
<text text-anchor="middle" x="184" y="-62" font-family="Helvetica,sans-Serif" font-size="10.00">DemoNetworkEth</text>
</a>
</g>
</g>
<!-- ethernetline -->
<g id="node2" class="node">
<title>ethernetline</title>
<g id="a_node2"><a xlink:href="inet.examples.ipv6.demonetworketh.DemoNetworkEth.ethernetline.html" xlink:title="Channel ethernetline" target="_parent">
<polygon fill="#d0ffd0" stroke="black" points="76,-19 0,-19 0,0 76,0 76,-19"/>
<text text-anchor="middle" x="38" y="-7" font-family="Helvetica,sans-Serif" font-size="10.00">ethernetline</text>
</a>
</g>
</g>
<!-- DemoNetworkEth&#45;&gt;ethernetline -->
<g id="edge1" class="edge">
<title>DemoNetworkEth&#45;&gt;ethernetline</title>
<path fill="none" stroke="black" d="M160.54,-54.98C136.42,-46.23 98.63,-32.51 71.4,-22.62"/>
<polygon fill="black" stroke="black" points="72.48,-19.29 61.88,-19.17 70.09,-25.87 72.48,-19.29"/>
</g>
<!-- StandardHost6 -->
<g id="node3" class="node">
<title>StandardHost6</title>
<g id="a_node3"><a xlink:href="inet.node.ipv6.StandardHost6.html" xlink:title="Compound Module StandardHost6" target="_parent">
<polygon fill="#fffcaf" stroke="black" points="183.5,-19 94.5,-19 94.5,0 183.5,0 183.5,-19"/>
<text text-anchor="middle" x="139" y="-7" font-family="Helvetica,sans-Serif" font-size="10.00">StandardHost6</text>
</a>
</g>
</g>
<!-- DemoNetworkEth&#45;&gt;StandardHost6 -->
<g id="edge2" class="edge">
<title>DemoNetworkEth&#45;&gt;StandardHost6</title>
<path fill="none" stroke="black" d="M176.57,-54.75C170.15,-47.18 160.69,-36.05 152.88,-26.84"/>
<polygon fill="black" stroke="black" points="155.43,-24.45 146.29,-19.09 150.1,-28.98 155.43,-24.45"/>
</g>
<!-- Router6 -->
<g id="node4" class="node">
<title>Router6</title>
<g id="a_node4"><a xlink:href="inet.node.ipv6.Router6.html" xlink:title="Compound Module Router6" target="_parent">
<polygon fill="#fffcaf" stroke="black" points="256.5,-19 201.5,-19 201.5,0 256.5,0 256.5,-19"/>
<text text-anchor="middle" x="229" y="-7" font-family="Helvetica,sans-Serif" font-size="10.00">Router6</text>
</a>
</g>
</g>
<!-- DemoNetworkEth&#45;&gt;Router6 -->
<g id="edge3" class="edge">
<title>DemoNetworkEth&#45;&gt;Router6</title>
<path fill="none" stroke="black" d="M191.43,-54.75C197.85,-47.18 207.31,-36.05 215.12,-26.84"/>
<polygon fill="black" stroke="black" points="217.9,-28.98 221.71,-19.09 212.57,-24.45 217.9,-28.98"/>
</g>
<!-- Ipv6FlatNetworkConfigurator -->
<g id="node5" class="node">
<title>Ipv6FlatNetworkConfigurator</title>
<g id="a_node5"><a xlink:href="inet.networklayer.configurator.ipv6.Ipv6FlatNetworkConfigurator.html" xlink:title="Simple Module Ipv6FlatNetworkConfigurator" target="_parent">
<polygon fill="#fffcaf" stroke="black" points="432,-19 274,-19 274,0 432,0 432,-19"/>
<text text-anchor="middle" x="353" y="-7" font-family="Helvetica,sans-Serif" font-size="10.00">Ipv6FlatNetworkConfigurator</text>
</a>
</g>
</g>
<!-- DemoNetworkEth&#45;&gt;Ipv6FlatNetworkConfigurator -->
<g id="edge4" class="edge">
<title>DemoNetworkEth&#45;&gt;Ipv6FlatNetworkConfigurator</title>
<path fill="none" stroke="black" d="M211.15,-54.98C239.53,-46.09 284.23,-32.07 315.86,-22.15"/>
<polygon fill="black" stroke="black" points="317.14,-25.41 325.63,-19.08 315.05,-18.73 317.14,-25.41"/>
</g>
</g>
</svg>
