<?xml version="1.0" encoding="UTF-8" standalone="no"?>
<!DOCTYPE svg PUBLIC "-//W3C//DTD SVG 1.1//EN"
 "http://www.w3.org/Graphics/SVG/1.1/DTD/svg11.dtd">
<!-- Generated by graphviz version 2.43.0 (0)
 -->
<!-- Title: opp Pages: 1 -->
<svg width="537pt" height="82pt"
 viewBox="0.00 0.00 537.00 82.00" xmlns="http://www.w3.org/2000/svg" xmlns:xlink="http://www.w3.org/1999/xlink">
<g id="graph0" class="graph" transform="scale(1 1) rotate(0) translate(4 78)">
<title>opp</title>
<polygon fill="transparent" stroke="transparent" points="-4,4 -4,-78 533,-78 533,4 -4,4"/>
<!-- PriorityBufferTutorialStep -->
<g id="node1" class="node">
<title>PriorityBufferTutorialStep</title>
<g id="a_node1"><a xlink:href="inet.tutorials.queueing.PriorityBufferTutorialStep.html" xlink:title="Network PriorityBufferTutorialStep" target="_parent">
<polygon fill="#9090ff" stroke="black" points="339.5,-74 199.5,-74 199.5,-55 339.5,-55 339.5,-74"/>
<text text-anchor="middle" x="269.5" y="-62" font-family="Helvetica,sans-Serif" font-size="10.00">PriorityBufferTutorialStep</text>
</a>
</g>
</g>
<!-- ActivePacketSource -->
<g id="node2" class="node">
<title>ActivePacketSource</title>
<g id="a_node2"><a xlink:href="inet.queueing.source.ActivePacketSource.html" xlink:title="Simple Module ActivePacketSource" target="_parent">
<polygon fill="#fffcaf" stroke="black" points="113,-19 0,-19 0,0 113,0 113,-19"/>
<text text-anchor="middle" x="56.5" y="-7" font-family="Helvetica,sans-Serif" font-size="10.00">ActivePacketSource</text>
</a>
</g>
</g>
<!-- PriorityBufferTutorialStep&#45;&gt;ActivePacketSource -->
<g id="edge1" class="edge">
<title>PriorityBufferTutorialStep&#45;&gt;ActivePacketSource</title>
<path fill="none" stroke="black" d="M235.28,-54.98C198.74,-45.89 140.72,-31.46 100.74,-21.51"/>
<polygon fill="black" stroke="black" points="101.54,-18.1 90.99,-19.08 99.85,-24.89 101.54,-18.1"/>
</g>
<!-- IdealChannel -->
<g id="node3" class="node">
<title>IdealChannel</title>
<g id="a_node3"><a xlink:href="ned.IdealChannel.html" xlink:title="Channel IdealChannel" target="_parent">
<polygon fill="#d0ffd0" stroke="black" points="211.5,-19 131.5,-19 131.5,0 211.5,0 211.5,-19"/>
<text text-anchor="middle" x="171.5" y="-7" font-family="Helvetica,sans-Serif" font-size="10.00">IdealChannel</text>
</a>
</g>
</g>
<!-- PriorityBufferTutorialStep&#45;&gt;IdealChannel -->
<g id="edge2" class="edge">
<title>PriorityBufferTutorialStep&#45;&gt;IdealChannel</title>
<path fill="none" stroke="black" d="M253.75,-54.98C238.27,-46.61 214.41,-33.7 196.36,-23.95"/>
<polygon fill="black" stroke="black" points="197.99,-20.85 187.53,-19.17 194.66,-27.01 197.99,-20.85"/>
</g>
<!-- PacketQueue -->
<g id="node4" class="node">
<title>PacketQueue</title>
<g id="a_node4"><a xlink:href="inet.queueing.queue.PacketQueue.html" xlink:title="Simple Module PacketQueue" target="_parent">
<polygon fill="#fffcaf" stroke="black" points="309.5,-19 229.5,-19 229.5,0 309.5,0 309.5,-19"/>
<text text-anchor="middle" x="269.5" y="-7" font-family="Helvetica,sans-Serif" font-size="10.00">PacketQueue</text>
</a>
</g>
</g>
<!-- PriorityBufferTutorialStep&#45;&gt;PacketQueue -->
<g id="edge3" class="edge">
<title>PriorityBufferTutorialStep&#45;&gt;PacketQueue</title>
<path fill="none" stroke="black" d="M269.5,-54.75C269.5,-47.8 269.5,-37.85 269.5,-29.13"/>
<polygon fill="black" stroke="black" points="273,-29.09 269.5,-19.09 266,-29.09 273,-29.09"/>
</g>
<!-- PriorityBuffer -->
<g id="node5" class="node">
<title>PriorityBuffer</title>
<g id="a_node5"><a xlink:href="inet.queueing.buffer.PriorityBuffer.html" xlink:title="Simple Module PriorityBuffer" target="_parent">
<polygon fill="#fffcaf" stroke="black" points="409.5,-19 327.5,-19 327.5,0 409.5,0 409.5,-19"/>
<text text-anchor="middle" x="368.5" y="-7" font-family="Helvetica,sans-Serif" font-size="10.00">PriorityBuffer</text>
</a>
</g>
</g>
<!-- PriorityBufferTutorialStep&#45;&gt;PriorityBuffer -->
<g id="edge4" class="edge">
<title>PriorityBufferTutorialStep&#45;&gt;PriorityBuffer</title>
<path fill="none" stroke="black" d="M285.41,-54.98C301.05,-46.61 325.16,-33.7 343.38,-23.95"/>
<polygon fill="black" stroke="black" points="345.14,-26.98 352.3,-19.17 341.84,-20.8 345.14,-26.98"/>
</g>
<!-- ActivePacketSink -->
<g id="node6" class="node">
<title>ActivePacketSink</title>
<g id="a_node6"><a xlink:href="inet.queueing.sink.ActivePacketSink.html" xlink:title="Simple Module ActivePacketSink" target="_parent">
<polygon fill="#fffcaf" stroke="black" points="529,-19 428,-19 428,0 529,0 529,-19"/>
<text text-anchor="middle" x="478.5" y="-7" font-family="Helvetica,sans-Serif" font-size="10.00">ActivePacketSink</text>
</a>
</g>
</g>
<!-- PriorityBufferTutorialStep&#45;&gt;ActivePacketSink -->
<g id="edge5" class="edge">
<title>PriorityBufferTutorialStep&#45;&gt;ActivePacketSink</title>
<path fill="none" stroke="black" d="M303.08,-54.98C338.85,-45.91 395.62,-31.52 434.84,-21.57"/>
<polygon fill="black" stroke="black" points="435.82,-24.93 444.66,-19.08 434.1,-18.15 435.82,-24.93"/>
</g>
</g>
</svg>
