<?xml version="1.0" encoding="UTF-8" standalone="no"?>
<!DOCTYPE svg PUBLIC "-//W3C//DTD SVG 1.1//EN"
 "http://www.w3.org/Graphics/SVG/1.1/DTD/svg11.dtd">
<!-- Generated by graphviz version 2.43.0 (0)
 -->
<!-- Title: opp Pages: 1 -->
<svg width="395pt" height="82pt"
 viewBox="0.00 0.00 394.50 82.00" xmlns="http://www.w3.org/2000/svg" xmlns:xlink="http://www.w3.org/1999/xlink">
<g id="graph0" class="graph" transform="scale(1 1) rotate(0) translate(4 78)">
<title>opp</title>
<polygon fill="transparent" stroke="transparent" points="-4,4 -4,-78 390.5,-78 390.5,4 -4,4"/>
<!-- QueueFillerTutorialStep -->
<g id="node1" class="node">
<title>QueueFillerTutorialStep</title>
<g id="a_node1"><a xlink:href="inet.tutorials.queueing.QueueFillerTutorialStep.html" xlink:title="Network QueueFillerTutorialStep" target="_parent">
<polygon fill="#9090ff" stroke="black" points="249.5,-74 120.5,-74 120.5,-55 249.5,-55 249.5,-74"/>
<text text-anchor="middle" x="185" y="-62" font-family="Helvetica,sans-Serif" font-size="10.00">QueueFillerTutorialStep</text>
</a>
</g>
</g>
<!-- IdealChannel -->
<g id="node2" class="node">
<title>IdealChannel</title>
<g id="a_node2"><a xlink:href="ned.IdealChannel.html" xlink:title="Channel IdealChannel" target="_parent">
<polygon fill="#d0ffd0" stroke="black" points="80,-19 0,-19 0,0 80,0 80,-19"/>
<text text-anchor="middle" x="40" y="-7" font-family="Helvetica,sans-Serif" font-size="10.00">IdealChannel</text>
</a>
</g>
</g>
<!-- QueueFillerTutorialStep&#45;&gt;IdealChannel -->
<g id="edge1" class="edge">
<title>QueueFillerTutorialStep&#45;&gt;IdealChannel</title>
<path fill="none" stroke="black" d="M161.7,-54.98C137.75,-46.23 100.22,-32.51 73.17,-22.62"/>
<polygon fill="black" stroke="black" points="74.31,-19.32 63.72,-19.17 71.91,-25.89 74.31,-19.32"/>
</g>
<!-- PacketQueue -->
<g id="node3" class="node">
<title>PacketQueue</title>
<g id="a_node3"><a xlink:href="inet.queueing.queue.PacketQueue.html" xlink:title="Simple Module PacketQueue" target="_parent">
<polygon fill="#fffcaf" stroke="black" points="178,-19 98,-19 98,0 178,0 178,-19"/>
<text text-anchor="middle" x="138" y="-7" font-family="Helvetica,sans-Serif" font-size="10.00">PacketQueue</text>
</a>
</g>
</g>
<!-- QueueFillerTutorialStep&#45;&gt;PacketQueue -->
<g id="edge2" class="edge">
<title>QueueFillerTutorialStep&#45;&gt;PacketQueue</title>
<path fill="none" stroke="black" d="M177.24,-54.75C170.53,-47.18 160.66,-36.05 152.49,-26.84"/>
<polygon fill="black" stroke="black" points="154.87,-24.25 145.62,-19.09 149.63,-28.89 154.87,-24.25"/>
</g>
<!-- QueueFiller -->
<g id="node4" class="node">
<title>QueueFiller</title>
<g id="a_node4"><a xlink:href="inet.queueing.source.QueueFiller.html" xlink:title="Compound Module QueueFiller" target="_parent">
<polygon fill="#fffcaf" stroke="black" points="267.5,-19 196.5,-19 196.5,0 267.5,0 267.5,-19"/>
<text text-anchor="middle" x="232" y="-7" font-family="Helvetica,sans-Serif" font-size="10.00">QueueFiller</text>
</a>
</g>
</g>
<!-- QueueFillerTutorialStep&#45;&gt;QueueFiller -->
<g id="edge3" class="edge">
<title>QueueFillerTutorialStep&#45;&gt;QueueFiller</title>
<path fill="none" stroke="black" d="M192.76,-54.75C199.47,-47.18 209.34,-36.05 217.51,-26.84"/>
<polygon fill="black" stroke="black" points="220.37,-28.89 224.38,-19.09 215.13,-24.25 220.37,-28.89"/>
</g>
<!-- ActivePacketSink -->
<g id="node5" class="node">
<title>ActivePacketSink</title>
<g id="a_node5"><a xlink:href="inet.queueing.sink.ActivePacketSink.html" xlink:title="Simple Module ActivePacketSink" target="_parent">
<polygon fill="#fffcaf" stroke="black" points="386.5,-19 285.5,-19 285.5,0 386.5,0 386.5,-19"/>
<text text-anchor="middle" x="336" y="-7" font-family="Helvetica,sans-Serif" font-size="10.00">ActivePacketSink</text>
</a>
</g>
</g>
<!-- QueueFillerTutorialStep&#45;&gt;ActivePacketSink -->
<g id="edge4" class="edge">
<title>QueueFillerTutorialStep&#45;&gt;ActivePacketSink</title>
<path fill="none" stroke="black" d="M209.26,-54.98C234.32,-46.19 273.63,-32.39 301.83,-22.49"/>
<polygon fill="black" stroke="black" points="303.02,-25.78 311.3,-19.17 300.7,-19.18 303.02,-25.78"/>
</g>
</g>
</svg>
