<?xml version="1.0" encoding="UTF-8" standalone="no"?>
<!DOCTYPE svg PUBLIC "-//W3C//DTD SVG 1.1//EN"
 "http://www.w3.org/Graphics/SVG/1.1/DTD/svg11.dtd">
<!-- Generated by graphviz version 2.43.0 (0)
 -->
<!-- Title: opp Pages: 1 -->
<svg width="322pt" height="82pt"
 viewBox="0.00 0.00 321.50 82.00" xmlns="http://www.w3.org/2000/svg" xmlns:xlink="http://www.w3.org/1999/xlink">
<g id="graph0" class="graph" transform="scale(1 1) rotate(0) translate(4 78)">
<title>opp</title>
<polygon fill="transparent" stroke="transparent" points="-4,4 -4,-78 317.5,-78 317.5,4 -4,4"/>
<!-- ber -->
<g id="node1" class="node">
<title>ber</title>
<g id="a_node1"><a xlink:href="inet.examples.inet.ber.ber.html" xlink:title="Network ber" target="_parent">
<polygon fill="#9090ff" stroke="black" points="198.5,-74 144.5,-74 144.5,-55 198.5,-55 198.5,-74"/>
<text text-anchor="middle" x="171.5" y="-62" font-family="Helvetica,sans-Serif" font-size="10.00">ber</text>
</a>
</g>
</g>
<!-- StandardHost -->
<g id="node2" class="node">
<title>StandardHost</title>
<g id="a_node2"><a xlink:href="inet.node.inet.StandardHost.html" xlink:title="Compound Module StandardHost" target="_parent">
<polygon fill="#fffcaf" stroke="black" points="83,-19 0,-19 0,0 83,0 83,-19"/>
<text text-anchor="middle" x="41.5" y="-7" font-family="Helvetica,sans-Serif" font-size="10.00">StandardHost</text>
</a>
</g>
</g>
<!-- ber&#45;&gt;StandardHost -->
<g id="edge1" class="edge">
<title>ber&#45;&gt;StandardHost</title>
<path fill="none" stroke="black" d="M150.61,-54.98C129.42,-46.34 96.37,-32.87 72.2,-23.02"/>
<polygon fill="black" stroke="black" points="73.35,-19.7 62.77,-19.17 70.71,-26.19 73.35,-19.7"/>
</g>
<!-- Ipv4NetworkConfigurator -->
<g id="node3" class="node">
<title>Ipv4NetworkConfigurator</title>
<g id="a_node3"><a xlink:href="inet.networklayer.configurator.ipv4.Ipv4NetworkConfigurator.html" xlink:title="Simple Module Ipv4NetworkConfigurator" target="_parent">
<polygon fill="#fffcaf" stroke="black" points="241.5,-19 101.5,-19 101.5,0 241.5,0 241.5,-19"/>
<text text-anchor="middle" x="171.5" y="-7" font-family="Helvetica,sans-Serif" font-size="10.00">Ipv4NetworkConfigurator</text>
</a>
</g>
</g>
<!-- ber&#45;&gt;Ipv4NetworkConfigurator -->
<g id="edge2" class="edge">
<title>ber&#45;&gt;Ipv4NetworkConfigurator</title>
<path fill="none" stroke="black" d="M171.5,-54.75C171.5,-47.8 171.5,-37.85 171.5,-29.13"/>
<polygon fill="black" stroke="black" points="175,-29.09 171.5,-19.09 168,-29.09 175,-29.09"/>
</g>
<!-- C -->
<g id="node4" class="node">
<title>C</title>
<g id="a_node4"><a xlink:href="inet.examples.inet.ber.ber.C.html" xlink:title="Channel C" target="_parent">
<polygon fill="#d0ffd0" stroke="black" points="313.5,-19 259.5,-19 259.5,0 313.5,0 313.5,-19"/>
<text text-anchor="middle" x="286.5" y="-7" font-family="Helvetica,sans-Serif" font-size="10.00">C</text>
</a>
</g>
</g>
<!-- ber&#45;&gt;C -->
<g id="edge3" class="edge">
<title>ber&#45;&gt;C</title>
<path fill="none" stroke="black" d="M189.98,-54.98C208.48,-46.46 237.18,-33.23 258.48,-23.41"/>
<polygon fill="black" stroke="black" points="260.07,-26.53 267.69,-19.17 257.14,-20.18 260.07,-26.53"/>
</g>
</g>
</svg>
