<?xml version="1.0" encoding="UTF-8" standalone="no"?>
<!DOCTYPE svg PUBLIC "-//W3C//DTD SVG 1.1//EN"
 "http://www.w3.org/Graphics/SVG/1.1/DTD/svg11.dtd">
<!-- Generated by graphviz version 2.43.0 (0)
 -->
<!-- Title: opp Pages: 1 -->
<svg width="538pt" height="82pt"
 viewBox="0.00 0.00 538.00 82.00" xmlns="http://www.w3.org/2000/svg" xmlns:xlink="http://www.w3.org/1999/xlink">
<g id="graph0" class="graph" transform="scale(1 1) rotate(0) translate(4 78)">
<title>opp</title>
<polygon fill="transparent" stroke="transparent" points="-4,4 -4,-78 534,-78 534,4 -4,4"/>
<!-- EigrpTestNetwork -->
<g id="node1" class="node">
<title>EigrpTestNetwork</title>
<g id="a_node1"><a xlink:href="inet.examples.eigrp.square_stub.EigrpTestNetwork.html" xlink:title="Network EigrpTestNetwork" target="_parent">
<polygon fill="#9090ff" stroke="black" points="308.5,-74 206.5,-74 206.5,-55 308.5,-55 308.5,-74"/>
<text text-anchor="middle" x="257.5" y="-62" font-family="Helvetica,sans-Serif" font-size="10.00">EigrpTestNetwork</text>
</a>
</g>
</g>
<!-- ScenarioManager -->
<g id="node2" class="node">
<title>ScenarioManager</title>
<g id="a_node2"><a xlink:href="inet.common.scenario.ScenarioManager.html" xlink:title="Simple Module ScenarioManager" target="_parent">
<polygon fill="#fffcaf" stroke="black" points="101,-19 0,-19 0,0 101,0 101,-19"/>
<text text-anchor="middle" x="50.5" y="-7" font-family="Helvetica,sans-Serif" font-size="10.00">ScenarioManager</text>
</a>
</g>
</g>
<!-- EigrpTestNetwork&#45;&gt;ScenarioManager -->
<g id="edge1" class="edge">
<title>EigrpTestNetwork&#45;&gt;ScenarioManager</title>
<path fill="none" stroke="black" d="M224.24,-54.98C188.89,-45.93 132.83,-31.58 93.99,-21.64"/>
<polygon fill="black" stroke="black" points="94.57,-18.17 84.02,-19.08 92.84,-24.95 94.57,-18.17"/>
</g>
<!-- StandardHost -->
<g id="node3" class="node">
<title>StandardHost</title>
<g id="a_node3"><a xlink:href="inet.node.inet.StandardHost.html" xlink:title="Compound Module StandardHost" target="_parent">
<polygon fill="#fffcaf" stroke="black" points="202,-19 119,-19 119,0 202,0 202,-19"/>
<text text-anchor="middle" x="160.5" y="-7" font-family="Helvetica,sans-Serif" font-size="10.00">StandardHost</text>
</a>
</g>
</g>
<!-- EigrpTestNetwork&#45;&gt;StandardHost -->
<g id="edge2" class="edge">
<title>EigrpTestNetwork&#45;&gt;StandardHost</title>
<path fill="none" stroke="black" d="M241.92,-54.98C226.73,-46.69 203.4,-33.94 185.6,-24.22"/>
<polygon fill="black" stroke="black" points="186.82,-20.89 176.37,-19.17 183.47,-27.04 186.82,-20.89"/>
</g>
<!-- EigrpRouter -->
<g id="node4" class="node">
<title>EigrpRouter</title>
<g id="a_node4"><a xlink:href="inet.node.eigrp.EigrpRouter.html" xlink:title="Compound Module EigrpRouter" target="_parent">
<polygon fill="#fffcaf" stroke="black" points="294.5,-19 220.5,-19 220.5,0 294.5,0 294.5,-19"/>
<text text-anchor="middle" x="257.5" y="-7" font-family="Helvetica,sans-Serif" font-size="10.00">EigrpRouter</text>
</a>
</g>
</g>
<!-- EigrpTestNetwork&#45;&gt;EigrpRouter -->
<g id="edge3" class="edge">
<title>EigrpTestNetwork&#45;&gt;EigrpRouter</title>
<path fill="none" stroke="black" d="M257.5,-54.75C257.5,-47.8 257.5,-37.85 257.5,-29.13"/>
<polygon fill="black" stroke="black" points="261,-29.09 257.5,-19.09 254,-29.09 261,-29.09"/>
</g>
<!-- Ipv4NetworkConfigurator -->
<g id="node5" class="node">
<title>Ipv4NetworkConfigurator</title>
<g id="a_node5"><a xlink:href="inet.networklayer.configurator.ipv4.Ipv4NetworkConfigurator.html" xlink:title="Simple Module Ipv4NetworkConfigurator" target="_parent">
<polygon fill="#fffcaf" stroke="black" points="452.5,-19 312.5,-19 312.5,0 452.5,0 452.5,-19"/>
<text text-anchor="middle" x="382.5" y="-7" font-family="Helvetica,sans-Serif" font-size="10.00">Ipv4NetworkConfigurator</text>
</a>
</g>
</g>
<!-- EigrpTestNetwork&#45;&gt;Ipv4NetworkConfigurator -->
<g id="edge4" class="edge">
<title>EigrpTestNetwork&#45;&gt;Ipv4NetworkConfigurator</title>
<path fill="none" stroke="black" d="M277.58,-54.98C297.87,-46.38 329.46,-32.99 352.67,-23.15"/>
<polygon fill="black" stroke="black" points="354.21,-26.3 362.05,-19.17 351.48,-19.85 354.21,-26.3"/>
</g>
<!-- Eth100M -->
<g id="node6" class="node">
<title>Eth100M</title>
<g id="a_node6"><a xlink:href="inet.node.ethernet.Eth100M.html" xlink:title="Channel Eth100M" target="_parent">
<polygon fill="#d0ffd0" stroke="black" points="530,-19 471,-19 471,0 530,0 530,-19"/>
<text text-anchor="middle" x="500.5" y="-7" font-family="Helvetica,sans-Serif" font-size="10.00">Eth100M</text>
</a>
</g>
</g>
<!-- EigrpTestNetwork&#45;&gt;Eth100M -->
<g id="edge5" class="edge">
<title>EigrpTestNetwork&#45;&gt;Eth100M</title>
<path fill="none" stroke="black" d="M296.54,-54.98C341.69,-45.14 415.61,-29.01 460.97,-19.12"/>
<polygon fill="black" stroke="black" points="461.72,-22.54 470.75,-16.99 460.23,-15.7 461.72,-22.54"/>
</g>
</g>
</svg>
