<?xml version="1.0" encoding="UTF-8" standalone="no"?>
<!DOCTYPE svg PUBLIC "-//W3C//DTD SVG 1.1//EN"
 "http://www.w3.org/Graphics/SVG/1.1/DTD/svg11.dtd">
<!-- Generated by graphviz version 2.43.0 (0)
 -->
<!-- Title: opp Pages: 1 -->
<svg width="490pt" height="82pt"
 viewBox="0.00 0.00 489.50 82.00" xmlns="http://www.w3.org/2000/svg" xmlns:xlink="http://www.w3.org/1999/xlink">
<g id="graph0" class="graph" transform="scale(1 1) rotate(0) translate(4 78)">
<title>opp</title>
<polygon fill="transparent" stroke="transparent" points="-4,4 -4,-78 485.5,-78 485.5,4 -4,4"/>
<!-- ARPTest -->
<g id="node1" class="node">
<title>ARPTest</title>
<g id="a_node1"><a xlink:href="inet.examples.ethernet.arptest2.ARPTest.html" xlink:title="Network ARPTest" target="_parent">
<polygon fill="#9090ff" stroke="black" points="240.5,-74 184.5,-74 184.5,-55 240.5,-55 240.5,-74"/>
<text text-anchor="middle" x="212.5" y="-62" font-family="Helvetica,sans-Serif" font-size="10.00">ARPTest</text>
</a>
</g>
</g>
<!-- StandardHost -->
<g id="node2" class="node">
<title>StandardHost</title>
<g id="a_node2"><a xlink:href="inet.node.inet.StandardHost.html" xlink:title="Compound Module StandardHost" target="_parent">
<polygon fill="#fffcaf" stroke="black" points="83,-19 0,-19 0,0 83,0 83,-19"/>
<text text-anchor="middle" x="41.5" y="-7" font-family="Helvetica,sans-Serif" font-size="10.00">StandardHost</text>
</a>
</g>
</g>
<!-- ARPTest&#45;&gt;StandardHost -->
<g id="edge1" class="edge">
<title>ARPTest&#45;&gt;StandardHost</title>
<path fill="none" stroke="black" d="M185.03,-54.98C156.32,-46.09 111.08,-32.07 79.08,-22.15"/>
<polygon fill="black" stroke="black" points="79.78,-18.7 69.19,-19.08 77.7,-25.39 79.78,-18.7"/>
</g>
<!-- Router -->
<g id="node3" class="node">
<title>Router</title>
<g id="a_node3"><a xlink:href="inet.node.inet.Router.html" xlink:title="Compound Module Router" target="_parent">
<polygon fill="#fffcaf" stroke="black" points="155.5,-19 101.5,-19 101.5,0 155.5,0 155.5,-19"/>
<text text-anchor="middle" x="128.5" y="-7" font-family="Helvetica,sans-Serif" font-size="10.00">Router</text>
</a>
</g>
</g>
<!-- ARPTest&#45;&gt;Router -->
<g id="edge2" class="edge">
<title>ARPTest&#45;&gt;Router</title>
<path fill="none" stroke="black" d="M199,-54.98C186.1,-46.84 166.4,-34.41 151.1,-24.76"/>
<polygon fill="black" stroke="black" points="152.57,-21.55 142.24,-19.17 148.83,-27.47 152.57,-21.55"/>
</g>
<!-- EthernetHub -->
<g id="node4" class="node">
<title>EthernetHub</title>
<g id="a_node4"><a xlink:href="inet.node.ethernet.EthernetHub.html" xlink:title="Simple Module EthernetHub" target="_parent">
<polygon fill="#fffcaf" stroke="black" points="251,-19 174,-19 174,0 251,0 251,-19"/>
<text text-anchor="middle" x="212.5" y="-7" font-family="Helvetica,sans-Serif" font-size="10.00">EthernetHub</text>
</a>
</g>
</g>
<!-- ARPTest&#45;&gt;EthernetHub -->
<g id="edge3" class="edge">
<title>ARPTest&#45;&gt;EthernetHub</title>
<path fill="none" stroke="black" d="M212.5,-54.75C212.5,-47.8 212.5,-37.85 212.5,-29.13"/>
<polygon fill="black" stroke="black" points="216,-29.09 212.5,-19.09 209,-29.09 216,-29.09"/>
</g>
<!-- Ipv4NetworkConfigurator -->
<g id="node5" class="node">
<title>Ipv4NetworkConfigurator</title>
<g id="a_node5"><a xlink:href="inet.networklayer.configurator.ipv4.Ipv4NetworkConfigurator.html" xlink:title="Simple Module Ipv4NetworkConfigurator" target="_parent">
<polygon fill="#fffcaf" stroke="black" points="409.5,-19 269.5,-19 269.5,0 409.5,0 409.5,-19"/>
<text text-anchor="middle" x="339.5" y="-7" font-family="Helvetica,sans-Serif" font-size="10.00">Ipv4NetworkConfigurator</text>
</a>
</g>
</g>
<!-- ARPTest&#45;&gt;Ipv4NetworkConfigurator -->
<g id="edge4" class="edge">
<title>ARPTest&#45;&gt;Ipv4NetworkConfigurator</title>
<path fill="none" stroke="black" d="M232.9,-54.98C253.52,-46.38 285.61,-32.99 309.19,-23.15"/>
<polygon fill="black" stroke="black" points="310.84,-26.25 318.72,-19.17 308.15,-19.79 310.84,-26.25"/>
</g>
<!-- ethline -->
<g id="node6" class="node">
<title>ethline</title>
<g id="a_node6"><a xlink:href="inet.examples.ethernet.arptest2.ARPTest.ethline.html" xlink:title="Channel ethline" target="_parent">
<polygon fill="#d0ffd0" stroke="black" points="481.5,-19 427.5,-19 427.5,0 481.5,0 481.5,-19"/>
<text text-anchor="middle" x="454.5" y="-7" font-family="Helvetica,sans-Serif" font-size="10.00">ethline</text>
</a>
</g>
</g>
<!-- ARPTest&#45;&gt;ethline -->
<g id="edge5" class="edge">
<title>ARPTest&#45;&gt;ethline</title>
<path fill="none" stroke="black" d="M240.53,-57.62C278.41,-49.64 348.33,-34.77 417.62,-19.17"/>
<polygon fill="black" stroke="black" points="418.4,-22.58 427.39,-16.96 416.86,-15.75 418.4,-22.58"/>
</g>
</g>
</svg>
