<?xml version="1.0" encoding="UTF-8" standalone="no"?>
<!DOCTYPE svg PUBLIC "-//W3C//DTD SVG 1.1//EN"
 "http://www.w3.org/Graphics/SVG/1.1/DTD/svg11.dtd">
<!-- Generated by graphviz version 2.43.0 (0)
 -->
<!-- Title: opp Pages: 1 -->
<svg width="294pt" height="82pt"
 viewBox="0.00 0.00 293.50 82.00" xmlns="http://www.w3.org/2000/svg" xmlns:xlink="http://www.w3.org/1999/xlink">
<g id="graph0" class="graph" transform="scale(1 1) rotate(0) translate(4 78)">
<title>opp</title>
<polygon fill="transparent" stroke="transparent" points="-4,4 -4,-78 289.5,-78 289.5,4 -4,4"/>
<!-- ExampleNetworkTutorialStep -->
<g id="node1" class="node">
<title>ExampleNetworkTutorialStep</title>
<g id="a_node1"><a xlink:href="inet.tutorials.queueing.ExampleNetworkTutorialStep.html" xlink:title="Network ExampleNetworkTutorialStep" target="_parent">
<polygon fill="#9090ff" stroke="black" points="218,-74 60,-74 60,-55 218,-55 218,-74"/>
<text text-anchor="middle" x="139" y="-62" font-family="Helvetica,sans-Serif" font-size="10.00">ExampleNetworkTutorialStep</text>
</a>
</g>
</g>
<!-- IdealChannel -->
<g id="node2" class="node">
<title>IdealChannel</title>
<g id="a_node2"><a xlink:href="ned.IdealChannel.html" xlink:title="Channel IdealChannel" target="_parent">
<polygon fill="#d0ffd0" stroke="black" points="80,-19 0,-19 0,0 80,0 80,-19"/>
<text text-anchor="middle" x="40" y="-7" font-family="Helvetica,sans-Serif" font-size="10.00">IdealChannel</text>
</a>
</g>
</g>
<!-- ExampleNetworkTutorialStep&#45;&gt;IdealChannel -->
<g id="edge1" class="edge">
<title>ExampleNetworkTutorialStep&#45;&gt;IdealChannel</title>
<path fill="none" stroke="black" d="M123.09,-54.98C107.45,-46.61 83.34,-33.7 65.12,-23.95"/>
<polygon fill="black" stroke="black" points="66.66,-20.8 56.2,-19.17 63.36,-26.98 66.66,-20.8"/>
</g>
<!-- ExampleHost -->
<g id="node3" class="node">
<title>ExampleHost</title>
<g id="a_node3"><a xlink:href="inet.tutorials.queueing.ExampleHost.html" xlink:title="Compound Module ExampleHost" target="_parent">
<polygon fill="#fffcaf" stroke="black" points="180,-19 98,-19 98,0 180,0 180,-19"/>
<text text-anchor="middle" x="139" y="-7" font-family="Helvetica,sans-Serif" font-size="10.00">ExampleHost</text>
</a>
</g>
</g>
<!-- ExampleNetworkTutorialStep&#45;&gt;ExampleHost -->
<g id="edge2" class="edge">
<title>ExampleNetworkTutorialStep&#45;&gt;ExampleHost</title>
<path fill="none" stroke="black" d="M139,-54.75C139,-47.8 139,-37.85 139,-29.13"/>
<polygon fill="black" stroke="black" points="142.5,-29.09 139,-19.09 135.5,-29.09 142.5,-29.09"/>
</g>
<!-- ExampleCable -->
<g id="node4" class="node">
<title>ExampleCable</title>
<g id="a_node4"><a xlink:href="inet.tutorials.queueing.ExampleCable.html" xlink:title="Compound Module ExampleCable" target="_parent">
<polygon fill="#fffcaf" stroke="black" points="285.5,-19 198.5,-19 198.5,0 285.5,0 285.5,-19"/>
<text text-anchor="middle" x="242" y="-7" font-family="Helvetica,sans-Serif" font-size="10.00">ExampleCable</text>
</a>
</g>
</g>
<!-- ExampleNetworkTutorialStep&#45;&gt;ExampleCable -->
<g id="edge3" class="edge">
<title>ExampleNetworkTutorialStep&#45;&gt;ExampleCable</title>
<path fill="none" stroke="black" d="M155.55,-54.98C171.89,-46.57 197.13,-33.59 216.13,-23.81"/>
<polygon fill="black" stroke="black" points="217.86,-26.86 225.15,-19.17 214.66,-20.63 217.86,-26.86"/>
</g>
</g>
</svg>
