<?xml version="1.0" encoding="UTF-8" standalone="no"?>
<!DOCTYPE svg PUBLIC "-//W3C//DTD SVG 1.1//EN"
 "http://www.w3.org/Graphics/SVG/1.1/DTD/svg11.dtd">
<!-- Generated by graphviz version 2.43.0 (0)
 -->
<!-- Title: opp Pages: 1 -->
<svg width="494pt" height="82pt"
 viewBox="0.00 0.00 493.50 82.00" xmlns="http://www.w3.org/2000/svg" xmlns:xlink="http://www.w3.org/1999/xlink">
<g id="graph0" class="graph" transform="scale(1 1) rotate(0) translate(4 78)">
<title>opp</title>
<polygon fill="transparent" stroke="transparent" points="-4,4 -4,-78 489.5,-78 489.5,4 -4,4"/>
<!-- WirelessA -->
<g id="node1" class="node">
<title>WirelessA</title>
<g id="a_node1"><a xlink:href="inet.tutorials.wireless.WirelessA.html" xlink:title="Network WirelessA" target="_parent">
<polygon fill="#9090ff" stroke="black" points="268.5,-74 203.5,-74 203.5,-55 268.5,-55 268.5,-74"/>
<text text-anchor="middle" x="236" y="-62" font-family="Helvetica,sans-Serif" font-size="10.00">WirelessA</text>
</a>
</g>
</g>
<!-- INetworkNode -->
<g id="node2" class="node">
<title>INetworkNode</title>
<g id="a_node2"><a xlink:href="inet.node.contract.INetworkNode.html" xlink:title="Module Interface INetworkNode" target="_parent">
<polygon fill="#fffcaf" stroke="black" stroke-dasharray="5,2" points="86,-19 0,-19 0,0 86,0 86,-19"/>
<text text-anchor="middle" x="43" y="-7" font-family="Helvetica,sans-Serif" font-size="10.00">INetworkNode</text>
</a>
</g>
</g>
<!-- WirelessA&#45;&gt;INetworkNode -->
<g id="edge1" class="edge">
<title>WirelessA&#45;&gt;INetworkNode</title>
<path fill="none" stroke="black" d="M204.99,-54.98C172.17,-45.97 120.2,-31.7 84.01,-21.76"/>
<polygon fill="black" stroke="black" points="84.82,-18.36 74.25,-19.08 82.97,-25.11 84.82,-18.36"/>
</g>
<!-- IIntegratedVisualizer -->
<g id="node3" class="node">
<title>IIntegratedVisualizer</title>
<g id="a_node3"><a xlink:href="inet.visualizer.contract.IIntegratedVisualizer.html" xlink:title="Module Interface IIntegratedVisualizer" target="_parent">
<polygon fill="#fffcaf" stroke="black" stroke-dasharray="5,2" points="222,-19 104,-19 104,0 222,0 222,-19"/>
<text text-anchor="middle" x="163" y="-7" font-family="Helvetica,sans-Serif" font-size="10.00">IIntegratedVisualizer</text>
</a>
</g>
</g>
<!-- WirelessA&#45;&gt;IIntegratedVisualizer -->
<g id="edge2" class="edge">
<title>WirelessA&#45;&gt;IIntegratedVisualizer</title>
<path fill="none" stroke="black" d="M224.27,-54.98C213.27,-47 196.58,-34.88 183.4,-25.31"/>
<polygon fill="black" stroke="black" points="185.09,-22.21 174.94,-19.17 180.98,-27.88 185.09,-22.21"/>
</g>
<!-- Ipv4NetworkConfigurator -->
<g id="node4" class="node">
<title>Ipv4NetworkConfigurator</title>
<g id="a_node4"><a xlink:href="inet.networklayer.configurator.ipv4.Ipv4NetworkConfigurator.html" xlink:title="Simple Module Ipv4NetworkConfigurator" target="_parent">
<polygon fill="#fffcaf" stroke="black" points="380,-19 240,-19 240,0 380,0 380,-19"/>
<text text-anchor="middle" x="310" y="-7" font-family="Helvetica,sans-Serif" font-size="10.00">Ipv4NetworkConfigurator</text>
</a>
</g>
</g>
<!-- WirelessA&#45;&gt;Ipv4NetworkConfigurator -->
<g id="edge3" class="edge">
<title>WirelessA&#45;&gt;Ipv4NetworkConfigurator</title>
<path fill="none" stroke="black" d="M247.89,-54.98C259.15,-46.92 276.29,-34.65 289.71,-25.03"/>
<polygon fill="black" stroke="black" points="291.8,-27.84 297.89,-19.17 287.73,-22.15 291.8,-27.84"/>
</g>
<!-- IRadioMedium -->
<g id="node5" class="node">
<title>IRadioMedium</title>
<g id="a_node5"><a xlink:href="inet.physicallayer.wireless.common.contract.packetlevel.IRadioMedium.html" xlink:title="Module Interface IRadioMedium" target="_parent">
<polygon fill="#fffcaf" stroke="black" stroke-dasharray="5,2" points="485.5,-19 398.5,-19 398.5,0 485.5,0 485.5,-19"/>
<text text-anchor="middle" x="442" y="-7" font-family="Helvetica,sans-Serif" font-size="10.00">IRadioMedium</text>
</a>
</g>
</g>
<!-- WirelessA&#45;&gt;IRadioMedium -->
<g id="edge4" class="edge">
<title>WirelessA&#45;&gt;IRadioMedium</title>
<path fill="none" stroke="black" d="M268.64,-55.1C303.84,-46.05 360.04,-31.59 398.87,-21.6"/>
<polygon fill="black" stroke="black" points="400.02,-24.92 408.83,-19.03 398.27,-18.14 400.02,-24.92"/>
</g>
</g>
</svg>
