<?xml version="1.0" encoding="UTF-8" standalone="no"?>
<!DOCTYPE svg PUBLIC "-//W3C//DTD SVG 1.1//EN"
 "http://www.w3.org/Graphics/SVG/1.1/DTD/svg11.dtd">
<!-- Generated by graphviz version 2.43.0 (0)
 -->
<!-- Title: opp Pages: 1 -->
<svg width="1874pt" height="82pt"
 viewBox="0.00 0.00 1874.00 82.00" xmlns="http://www.w3.org/2000/svg" xmlns:xlink="http://www.w3.org/1999/xlink">
<g id="graph0" class="graph" transform="scale(1 1) rotate(0) translate(4 78)">
<title>opp</title>
<polygon fill="transparent" stroke="transparent" points="-4,4 -4,-78 1870,-78 1870,4 -4,4"/>
<!-- IActivePacketSource -->
<g id="node1" class="node">
<title>IActivePacketSource</title>
<g id="a_node1"><a xlink:href="inet.queueing.contract.IActivePacketSource.html" xlink:title="Module Interface IActivePacketSource" target="_parent">
<polygon fill="#fff700" stroke="black" stroke-dasharray="5,2" points="1052.5,-74 936.5,-74 936.5,-55 1052.5,-55 1052.5,-74"/>
<text text-anchor="middle" x="994.5" y="-62" font-family="Helvetica,sans-Serif" font-size="10.00">IActivePacketSource</text>
</a>
</g>
</g>
<!-- ActivePacketSource -->
<g id="node2" class="node">
<title>ActivePacketSource</title>
<g id="a_node2"><a xlink:href="inet.queueing.source.ActivePacketSource.html" xlink:title="Simple Module ActivePacketSource" target="_parent">
<polygon fill="#fffcaf" stroke="black" points="113,-19 0,-19 0,0 113,0 113,-19"/>
<text text-anchor="middle" x="56.5" y="-7" font-family="Helvetica,sans-Serif" font-size="10.00">ActivePacketSource</text>
</a>
</g>
</g>
<!-- IActivePacketSource&#45;&gt;ActivePacketSource -->
<g id="edge1" class="edge">
<title>IActivePacketSource&#45;&gt;ActivePacketSource</title>
<path fill="none" stroke="black" stroke-dasharray="5,2" d="M936.41,-62.13C796.12,-58.46 427.74,-46.79 121.5,-19 118.78,-18.75 116,-18.48 113.19,-18.18"/>
</g>
<!-- BurstyPacketProducer -->
<g id="node3" class="node">
<title>BurstyPacketProducer</title>
<g id="a_node3"><a xlink:href="inet.queueing.source.BurstyPacketProducer.html" xlink:title="Compound Module BurstyPacketProducer" target="_parent">
<polygon fill="#fffcaf" stroke="black" points="254,-19 131,-19 131,0 254,0 254,-19"/>
<text text-anchor="middle" x="192.5" y="-7" font-family="Helvetica,sans-Serif" font-size="10.00">BurstyPacketProducer</text>
</a>
</g>
</g>
<!-- IActivePacketSource&#45;&gt;BurstyPacketProducer -->
<g id="edge2" class="edge">
<title>IActivePacketSource&#45;&gt;BurstyPacketProducer</title>
<path fill="none" stroke="black" stroke-dasharray="5,2" d="M936.05,-61.14C811.87,-55.87 512.6,-41.77 262.5,-19 259.82,-18.76 257.08,-18.49 254.32,-18.21"/>
</g>
<!-- EmptyPacketSource -->
<g id="node4" class="node">
<title>EmptyPacketSource</title>
<g id="a_node4"><a xlink:href="inet.queueing.source.EmptyPacketSource.html" xlink:title="Simple Module EmptyPacketSource" target="_parent">
<polygon fill="#fffcaf" stroke="black" points="385,-19 272,-19 272,0 385,0 385,-19"/>
<text text-anchor="middle" x="328.5" y="-7" font-family="Helvetica,sans-Serif" font-size="10.00">EmptyPacketSource</text>
</a>
</g>
</g>
<!-- IActivePacketSource&#45;&gt;EmptyPacketSource -->
<g id="edge3" class="edge">
<title>IActivePacketSource&#45;&gt;EmptyPacketSource</title>
<path fill="none" stroke="black" stroke-dasharray="5,2" d="M936.39,-60.28C829,-54.1 592.3,-39.34 393.5,-19 390.78,-18.72 388,-18.42 385.2,-18.1"/>
</g>
<!-- PacketDuplicator -->
<g id="node5" class="node">
<title>PacketDuplicator</title>
<g id="a_node5"><a xlink:href="inet.queueing.common.PacketDuplicator.html" xlink:title="Simple Module PacketDuplicator" target="_parent">
<polygon fill="#fffcaf" stroke="black" points="502,-19 403,-19 403,0 502,0 502,-19"/>
<text text-anchor="middle" x="452.5" y="-7" font-family="Helvetica,sans-Serif" font-size="10.00">PacketDuplicator</text>
</a>
</g>
</g>
<!-- IActivePacketSource&#45;&gt;PacketDuplicator -->
<g id="edge4" class="edge">
<title>IActivePacketSource&#45;&gt;PacketDuplicator</title>
<path fill="none" stroke="black" stroke-dasharray="5,2" d="M936.41,-59.11C845.59,-52.04 664.54,-37.06 511.5,-19 508.42,-18.64 505.25,-18.24 502.05,-17.83"/>
</g>
<!-- PacketHistory -->
<g id="node6" class="node">
<title>PacketHistory</title>
<g id="a_node6"><a xlink:href="inet.queueing.common.PacketHistory.html" xlink:title="Compound Module PacketHistory" target="_parent">
<polygon fill="#fffcaf" stroke="black" points="604.5,-19 520.5,-19 520.5,0 604.5,0 604.5,-19"/>
<text text-anchor="middle" x="562.5" y="-7" font-family="Helvetica,sans-Serif" font-size="10.00">PacketHistory</text>
</a>
</g>
</g>
<!-- IActivePacketSource&#45;&gt;PacketHistory -->
<g id="edge5" class="edge">
<title>IActivePacketSource&#45;&gt;PacketHistory</title>
<path fill="none" stroke="black" stroke-dasharray="5,2" d="M936.29,-57.6C861.46,-49.8 727.57,-35.16 613.5,-19 610.66,-18.6 607.73,-18.16 604.78,-17.71"/>
</g>
<!-- PacketMultiplexer -->
<g id="node7" class="node">
<title>PacketMultiplexer</title>
<g id="a_node7"><a xlink:href="inet.queueing.common.PacketMultiplexer.html" xlink:title="Simple Module PacketMultiplexer" target="_parent">
<polygon fill="#fffcaf" stroke="black" points="726.5,-19 622.5,-19 622.5,0 726.5,0 726.5,-19"/>
<text text-anchor="middle" x="674.5" y="-7" font-family="Helvetica,sans-Serif" font-size="10.00">PacketMultiplexer</text>
</a>
</g>
</g>
<!-- IActivePacketSource&#45;&gt;PacketMultiplexer -->
<g id="edge6" class="edge">
<title>IActivePacketSource&#45;&gt;PacketMultiplexer</title>
<path fill="none" stroke="black" stroke-dasharray="5,2" d="M943.09,-54.98C883.46,-45.11 785.74,-28.92 726.05,-19.04"/>
</g>
<!-- PacketSendToPush -->
<g id="node8" class="node">
<title>PacketSendToPush</title>
<g id="a_node8"><a xlink:href="inet.queueing.common.PacketSendToPush.html" xlink:title="Simple Module PacketSendToPush" target="_parent">
<polygon fill="#fffcaf" stroke="black" points="852,-19 745,-19 745,0 852,0 852,-19"/>
<text text-anchor="middle" x="798.5" y="-7" font-family="Helvetica,sans-Serif" font-size="10.00">PacketSendToPush</text>
</a>
</g>
</g>
<!-- IActivePacketSource&#45;&gt;PacketSendToPush -->
<g id="edge7" class="edge">
<title>IActivePacketSource&#45;&gt;PacketSendToPush</title>
<path fill="none" stroke="black" stroke-dasharray="5,2" d="M963.01,-54.98C926.54,-45.12 866.81,-28.97 830.24,-19.08"/>
</g>
<!-- PcapFilePacketProducer -->
<g id="node9" class="node">
<title>PcapFilePacketProducer</title>
<g id="a_node9"><a xlink:href="inet.queueing.source.PcapFilePacketProducer.html" xlink:title="Simple Module PcapFilePacketProducer" target="_parent">
<polygon fill="#fffcaf" stroke="black" points="1001,-19 870,-19 870,0 1001,0 1001,-19"/>
<text text-anchor="middle" x="935.5" y="-7" font-family="Helvetica,sans-Serif" font-size="10.00">PcapFilePacketProducer</text>
</a>
</g>
</g>
<!-- IActivePacketSource&#45;&gt;PcapFilePacketProducer -->
<g id="edge8" class="edge">
<title>IActivePacketSource&#45;&gt;PcapFilePacketProducer</title>
<path fill="none" stroke="black" stroke-dasharray="5,2" d="M985.02,-54.98C974.08,-45.15 956.17,-29.07 945.15,-19.17"/>
</g>
<!-- QueueFiller -->
<g id="node10" class="node">
<title>QueueFiller</title>
<g id="a_node10"><a xlink:href="inet.queueing.source.QueueFiller.html" xlink:title="Compound Module QueueFiller" target="_parent">
<polygon fill="#fffcaf" stroke="black" points="1090,-19 1019,-19 1019,0 1090,0 1090,-19"/>
<text text-anchor="middle" x="1054.5" y="-7" font-family="Helvetica,sans-Serif" font-size="10.00">QueueFiller</text>
</a>
</g>
</g>
<!-- IActivePacketSource&#45;&gt;QueueFiller -->
<g id="edge9" class="edge">
<title>IActivePacketSource&#45;&gt;QueueFiller</title>
<path fill="none" stroke="black" stroke-dasharray="5,2" d="M1004.14,-54.98C1015.27,-45.15 1033.48,-29.07 1044.68,-19.17"/>
</g>
<!-- ResponseProducer -->
<g id="node11" class="node">
<title>ResponseProducer</title>
<g id="a_node11"><a xlink:href="inet.queueing.source.ResponseProducer.html" xlink:title="Compound Module ResponseProducer" target="_parent">
<polygon fill="#fffcaf" stroke="black" points="1215,-19 1108,-19 1108,0 1215,0 1215,-19"/>
<text text-anchor="middle" x="1161.5" y="-7" font-family="Helvetica,sans-Serif" font-size="10.00">ResponseProducer</text>
</a>
</g>
</g>
<!-- IActivePacketSource&#45;&gt;ResponseProducer -->
<g id="edge10" class="edge">
<title>IActivePacketSource&#45;&gt;ResponseProducer</title>
<path fill="none" stroke="black" stroke-dasharray="5,2" d="M1021.33,-54.98C1052.4,-45.12 1103.3,-28.97 1134.46,-19.08"/>
</g>
<!-- IPacketDelayer -->
<g id="node12" class="node">
<title>IPacketDelayer</title>
<g id="a_node12"><a xlink:href="inet.queueing.contract.IPacketDelayer.html" xlink:title="Module Interface IPacketDelayer" target="_parent">
<polygon fill="#fffcaf" stroke="black" stroke-dasharray="5,2" points="1323.5,-19 1233.5,-19 1233.5,0 1323.5,0 1323.5,-19"/>
<text text-anchor="middle" x="1278.5" y="-7" font-family="Helvetica,sans-Serif" font-size="10.00">IPacketDelayer</text>
</a>
</g>
</g>
<!-- IActivePacketSource&#45;&gt;IPacketDelayer -->
<g id="edge11" class="edge">
<title>IActivePacketSource&#45;&gt;IPacketDelayer</title>
<path fill="none" stroke="black" d="M1040.13,-54.98C1093.28,-45.06 1180.55,-28.78 1233.45,-18.91"/>
</g>
<!-- IPacketPolicing -->
<g id="node13" class="node">
<title>IPacketPolicing</title>
<g id="a_node13"><a xlink:href="inet.queueing.contract.IPacketPolicing.html" xlink:title="Module Interface IPacketPolicing" target="_parent">
<polygon fill="#fffcaf" stroke="black" stroke-dasharray="5,2" points="1431.5,-19 1341.5,-19 1341.5,0 1431.5,0 1431.5,-19"/>
<text text-anchor="middle" x="1386.5" y="-7" font-family="Helvetica,sans-Serif" font-size="10.00">IPacketPolicing</text>
</a>
</g>
</g>
<!-- IActivePacketSource&#45;&gt;IPacketPolicing -->
<g id="edge12" class="edge">
<title>IActivePacketSource&#45;&gt;IPacketPolicing</title>
<path fill="none" stroke="black" d="M1052.58,-56.31C1119.96,-47.85 1234.38,-33.18 1332.5,-19 1335.41,-18.58 1338.41,-18.14 1341.43,-17.68"/>
</g>
<!-- IPacketPusher -->
<g id="node14" class="node">
<title>IPacketPusher</title>
<g id="a_node14"><a xlink:href="inet.queueing.contract.IPacketPusher.html" xlink:title="Module Interface IPacketPusher" target="_parent">
<polygon fill="#fffcaf" stroke="black" stroke-dasharray="5,2" points="1535,-19 1450,-19 1450,0 1535,0 1535,-19"/>
<text text-anchor="middle" x="1492.5" y="-7" font-family="Helvetica,sans-Serif" font-size="10.00">IPacketPusher</text>
</a>
</g>
</g>
<!-- IActivePacketSource&#45;&gt;IPacketPusher -->
<g id="edge13" class="edge">
<title>IActivePacketSource&#45;&gt;IPacketPusher</title>
<path fill="none" stroke="black" d="M1052.72,-58.86C1138.01,-51.8 1301.82,-37.23 1440.5,-19 1443.58,-18.59 1446.77,-18.15 1449.96,-17.68"/>
</g>
<!-- IPacketServer -->
<g id="node15" class="node">
<title>IPacketServer</title>
<g id="a_node15"><a xlink:href="inet.queueing.contract.IPacketServer.html" xlink:title="Module Interface IPacketServer" target="_parent">
<polygon fill="#fffcaf" stroke="black" stroke-dasharray="5,2" points="1636,-19 1553,-19 1553,0 1636,0 1636,-19"/>
<text text-anchor="middle" x="1594.5" y="-7" font-family="Helvetica,sans-Serif" font-size="10.00">IPacketServer</text>
</a>
</g>
</g>
<!-- IActivePacketSource&#45;&gt;IPacketServer -->
<g id="edge14" class="edge">
<title>IActivePacketSource&#45;&gt;IPacketServer</title>
<path fill="none" stroke="black" d="M1052.88,-60.46C1153.51,-54.85 1366.03,-41.35 1544.5,-19 1547.21,-18.66 1549.99,-18.28 1552.8,-17.87"/>
</g>
<!-- IPacketShaper -->
<g id="node16" class="node">
<title>IPacketShaper</title>
<g id="a_node16"><a xlink:href="inet.queueing.contract.IPacketShaper.html" xlink:title="Module Interface IPacketShaper" target="_parent">
<polygon fill="#fffcaf" stroke="black" stroke-dasharray="5,2" points="1740.5,-19 1654.5,-19 1654.5,0 1740.5,0 1740.5,-19"/>
<text text-anchor="middle" x="1697.5" y="-7" font-family="Helvetica,sans-Serif" font-size="10.00">IPacketShaper</text>
</a>
</g>
</g>
<!-- IActivePacketSource&#45;&gt;IPacketShaper -->
<g id="edge15" class="edge">
<title>IActivePacketSource&#45;&gt;IPacketShaper</title>
<path fill="none" stroke="black" d="M1052.58,-61.36C1166.57,-56.75 1427.46,-44.22 1645.5,-19 1648.41,-18.66 1651.4,-18.28 1654.41,-17.86"/>
</g>
<!-- ITrafficConditioner -->
<g id="node17" class="node">
<title>ITrafficConditioner</title>
<g id="a_node17"><a xlink:href="inet.queueing.contract.ITrafficConditioner.html" xlink:title="Module Interface ITrafficConditioner" target="_parent">
<polygon fill="#fffcaf" stroke="black" stroke-dasharray="5,2" points="1866,-19 1759,-19 1759,0 1866,0 1866,-19"/>
<text text-anchor="middle" x="1812.5" y="-7" font-family="Helvetica,sans-Serif" font-size="10.00">ITrafficConditioner</text>
</a>
</g>
</g>
<!-- IActivePacketSource&#45;&gt;ITrafficConditioner -->
<g id="edge16" class="edge">
<title>IActivePacketSource&#45;&gt;ITrafficConditioner</title>
<path fill="none" stroke="black" d="M1052.87,-61.56C1179.82,-57 1490.4,-44.08 1749.5,-19 1752.58,-18.7 1755.73,-18.37 1758.92,-18.01"/>
</g>
</g>
</svg>
