<?xml version="1.0" encoding="UTF-8" standalone="no"?>
<!DOCTYPE svg PUBLIC "-//W3C//DTD SVG 1.1//EN"
 "http://www.w3.org/Graphics/SVG/1.1/DTD/svg11.dtd">
<!-- Generated by graphviz version 2.43.0 (0)
 -->
<!-- Title: opp Pages: 1 -->
<svg width="356pt" height="137pt"
 viewBox="0.00 0.00 355.50 137.00" xmlns="http://www.w3.org/2000/svg" xmlns:xlink="http://www.w3.org/1999/xlink">
<g id="graph0" class="graph" transform="scale(1 1) rotate(0) translate(4 133)">
<title>opp</title>
<polygon fill="transparent" stroke="transparent" points="-4,4 -4,-133 351.5,-133 351.5,4 -4,4"/>
<!-- MultiTokenBucketClassifier -->
<g id="node1" class="node">
<title>MultiTokenBucketClassifier</title>
<g id="a_node1"><a xlink:href="inet.queueing.classifier.MultiTokenBucketClassifier.html" xlink:title="Simple Module MultiTokenBucketClassifier" target="_parent">
<polygon fill="#fff700" stroke="black" points="245.5,-74 97.5,-74 97.5,-55 245.5,-55 245.5,-74"/>
<text text-anchor="middle" x="171.5" y="-62" font-family="Helvetica,sans-Serif" font-size="10.00">MultiTokenBucketClassifier</text>
</a>
</g>
</g>
<!-- DualRateThreeColorClassifier -->
<g id="node4" class="node">
<title>DualRateThreeColorClassifier</title>
<g id="a_node4"><a xlink:href="inet.queueing.classifier.DualRateThreeColorClassifier.html" xlink:title="Simple Module DualRateThreeColorClassifier" target="_parent">
<polygon fill="#fffcaf" stroke="black" points="161,-19 0,-19 0,0 161,0 161,-19"/>
<text text-anchor="middle" x="80.5" y="-7" font-family="Helvetica,sans-Serif" font-size="10.00">DualRateThreeColorClassifier</text>
</a>
</g>
</g>
<!-- MultiTokenBucketClassifier&#45;&gt;DualRateThreeColorClassifier -->
<g id="edge3" class="edge">
<title>MultiTokenBucketClassifier&#45;&gt;DualRateThreeColorClassifier</title>
<path fill="none" stroke="black" d="M156.88,-54.98C140,-45.15 112.38,-29.07 95.39,-19.17"/>
</g>
<!-- SingleRateThreeColorClassifier -->
<g id="node5" class="node">
<title>SingleRateThreeColorClassifier</title>
<g id="a_node5"><a xlink:href="inet.queueing.classifier.SingleRateThreeColorClassifier.html" xlink:title="Simple Module SingleRateThreeColorClassifier" target="_parent">
<polygon fill="#fffcaf" stroke="black" points="347.5,-19 179.5,-19 179.5,0 347.5,0 347.5,-19"/>
<text text-anchor="middle" x="263.5" y="-7" font-family="Helvetica,sans-Serif" font-size="10.00">SingleRateThreeColorClassifier</text>
</a>
</g>
</g>
<!-- MultiTokenBucketClassifier&#45;&gt;SingleRateThreeColorClassifier -->
<g id="edge4" class="edge">
<title>MultiTokenBucketClassifier&#45;&gt;SingleRateThreeColorClassifier</title>
<path fill="none" stroke="black" d="M186.28,-54.98C203.35,-45.15 231.27,-29.07 248.45,-19.17"/>
</g>
<!-- PacketClassifierBase -->
<g id="node2" class="node">
<title>PacketClassifierBase</title>
<g id="a_node2"><a xlink:href="inet.queueing.base.PacketClassifierBase.html" xlink:title="Simple Module PacketClassifierBase" target="_parent">
<polygon fill="#fffcaf" stroke="black" points="168,-129 49,-129 49,-110 168,-110 168,-129"/>
<text text-anchor="middle" x="108.5" y="-117" font-family="Helvetica,sans-Serif" font-size="10.00">PacketClassifierBase</text>
</a>
</g>
</g>
<!-- PacketClassifierBase&#45;&gt;MultiTokenBucketClassifier -->
<g id="edge1" class="edge">
<title>PacketClassifierBase&#45;&gt;MultiTokenBucketClassifier</title>
<path fill="none" stroke="black" d="M118.62,-109.98C130.31,-100.15 149.43,-84.07 161.19,-74.17"/>
</g>
<!-- IPacketClassifier -->
<g id="node3" class="node">
<title>IPacketClassifier</title>
<g id="a_node3"><a xlink:href="inet.queueing.contract.IPacketClassifier.html" xlink:title="Module Interface IPacketClassifier" target="_parent">
<polygon fill="#fffcaf" stroke="black" stroke-dasharray="5,2" points="284.5,-129 186.5,-129 186.5,-110 284.5,-110 284.5,-129"/>
<text text-anchor="middle" x="235.5" y="-117" font-family="Helvetica,sans-Serif" font-size="10.00">IPacketClassifier</text>
</a>
</g>
</g>
<!-- IPacketClassifier&#45;&gt;MultiTokenBucketClassifier -->
<g id="edge2" class="edge">
<title>IPacketClassifier&#45;&gt;MultiTokenBucketClassifier</title>
<path fill="none" stroke="black" stroke-dasharray="5,2" d="M225.22,-109.98C213.34,-100.15 193.92,-84.07 181.97,-74.17"/>
</g>
</g>
</svg>
