<?xml version="1.0" encoding="UTF-8" standalone="no"?>
<!DOCTYPE svg PUBLIC "-//W3C//DTD SVG 1.1//EN"
 "http://www.w3.org/Graphics/SVG/1.1/DTD/svg11.dtd">
<!-- Generated by graphviz version 2.43.0 (0)
 -->
<!-- Title: opp Pages: 1 -->
<svg width="572pt" height="82pt"
 viewBox="0.00 0.00 572.00 82.00" xmlns="http://www.w3.org/2000/svg" xmlns:xlink="http://www.w3.org/1999/xlink">
<g id="graph0" class="graph" transform="scale(1 1) rotate(0) translate(4 78)">
<title>opp</title>
<polygon fill="transparent" stroke="transparent" points="-4,4 -4,-78 568,-78 568,4 -4,4"/>
<!-- CloudAndRouters -->
<g id="node1" class="node">
<title>CloudAndRouters</title>
<g id="a_node1"><a xlink:href="inet.examples.internetcloud.cloudandrouters.CloudAndRouters.html" xlink:title="Network CloudAndRouters" target="_parent">
<polygon fill="#9090ff" stroke="black" points="316,-74 215,-74 215,-55 316,-55 316,-74"/>
<text text-anchor="middle" x="265.5" y="-62" font-family="Helvetica,sans-Serif" font-size="10.00">CloudAndRouters</text>
</a>
</g>
</g>
<!-- StandardHost -->
<g id="node2" class="node">
<title>StandardHost</title>
<g id="a_node2"><a xlink:href="inet.node.inet.StandardHost.html" xlink:title="Compound Module StandardHost" target="_parent">
<polygon fill="#fffcaf" stroke="black" points="83,-19 0,-19 0,0 83,0 83,-19"/>
<text text-anchor="middle" x="41.5" y="-7" font-family="Helvetica,sans-Serif" font-size="10.00">StandardHost</text>
</a>
</g>
</g>
<!-- CloudAndRouters&#45;&gt;StandardHost -->
<g id="edge1" class="edge">
<title>CloudAndRouters&#45;&gt;StandardHost</title>
<path fill="none" stroke="black" d="M229.51,-54.98C191.01,-45.87 129.81,-31.4 87.76,-21.45"/>
<polygon fill="black" stroke="black" points="88.31,-17.98 77.77,-19.08 86.7,-24.79 88.31,-17.98"/>
</g>
<!-- InternetCloud -->
<g id="node3" class="node">
<title>InternetCloud</title>
<g id="a_node3"><a xlink:href="inet.node.internetcloud.InternetCloud.html" xlink:title="Compound Module InternetCloud" target="_parent">
<polygon fill="#fffcaf" stroke="black" points="184,-19 101,-19 101,0 184,0 184,-19"/>
<text text-anchor="middle" x="142.5" y="-7" font-family="Helvetica,sans-Serif" font-size="10.00">InternetCloud</text>
</a>
</g>
</g>
<!-- CloudAndRouters&#45;&gt;InternetCloud -->
<g id="edge2" class="edge">
<title>CloudAndRouters&#45;&gt;InternetCloud</title>
<path fill="none" stroke="black" d="M245.74,-54.98C225.77,-46.38 194.7,-32.99 171.85,-23.15"/>
<polygon fill="black" stroke="black" points="173.19,-19.91 162.62,-19.17 170.42,-26.34 173.19,-19.91"/>
</g>
<!-- Router -->
<g id="node4" class="node">
<title>Router</title>
<g id="a_node4"><a xlink:href="inet.node.inet.Router.html" xlink:title="Compound Module Router" target="_parent">
<polygon fill="#fffcaf" stroke="black" points="256.5,-19 202.5,-19 202.5,0 256.5,0 256.5,-19"/>
<text text-anchor="middle" x="229.5" y="-7" font-family="Helvetica,sans-Serif" font-size="10.00">Router</text>
</a>
</g>
</g>
<!-- CloudAndRouters&#45;&gt;Router -->
<g id="edge3" class="edge">
<title>CloudAndRouters&#45;&gt;Router</title>
<path fill="none" stroke="black" d="M259.56,-54.75C254.52,-47.34 247.16,-36.5 240.99,-27.41"/>
<polygon fill="black" stroke="black" points="243.85,-25.39 235.33,-19.09 238.06,-29.33 243.85,-25.39"/>
</g>
<!-- C -->
<g id="node5" class="node">
<title>C</title>
<g id="a_node5"><a xlink:href="inet.examples.internetcloud.cloudandrouters.CloudAndRouters.C.html" xlink:title="Channel C" target="_parent">
<polygon fill="#d0ffd0" stroke="black" points="328.5,-19 274.5,-19 274.5,0 328.5,0 328.5,-19"/>
<text text-anchor="middle" x="301.5" y="-7" font-family="Helvetica,sans-Serif" font-size="10.00">C</text>
</a>
</g>
</g>
<!-- CloudAndRouters&#45;&gt;C -->
<g id="edge4" class="edge">
<title>CloudAndRouters&#45;&gt;C</title>
<path fill="none" stroke="black" d="M271.44,-54.75C276.48,-47.34 283.84,-36.5 290.01,-27.41"/>
<polygon fill="black" stroke="black" points="292.94,-29.33 295.67,-19.09 287.15,-25.39 292.94,-29.33"/>
</g>
<!-- Ipv4NetworkConfigurator -->
<g id="node6" class="node">
<title>Ipv4NetworkConfigurator</title>
<g id="a_node6"><a xlink:href="inet.networklayer.configurator.ipv4.Ipv4NetworkConfigurator.html" xlink:title="Simple Module Ipv4NetworkConfigurator" target="_parent">
<polygon fill="#fffcaf" stroke="black" points="486.5,-19 346.5,-19 346.5,0 486.5,0 486.5,-19"/>
<text text-anchor="middle" x="416.5" y="-7" font-family="Helvetica,sans-Serif" font-size="10.00">Ipv4NetworkConfigurator</text>
</a>
</g>
</g>
<!-- CloudAndRouters&#45;&gt;Ipv4NetworkConfigurator -->
<g id="edge5" class="edge">
<title>CloudAndRouters&#45;&gt;Ipv4NetworkConfigurator</title>
<path fill="none" stroke="black" d="M289.76,-54.98C314.82,-46.19 354.13,-32.39 382.33,-22.49"/>
<polygon fill="black" stroke="black" points="383.52,-25.78 391.8,-19.17 381.2,-19.18 383.52,-25.78"/>
</g>
<!-- Eth100M -->
<g id="node7" class="node">
<title>Eth100M</title>
<g id="a_node7"><a xlink:href="inet.node.ethernet.Eth100M.html" xlink:title="Channel Eth100M" target="_parent">
<polygon fill="#d0ffd0" stroke="black" points="564,-19 505,-19 505,0 564,0 564,-19"/>
<text text-anchor="middle" x="534.5" y="-7" font-family="Helvetica,sans-Serif" font-size="10.00">Eth100M</text>
</a>
</g>
</g>
<!-- CloudAndRouters&#45;&gt;Eth100M -->
<g id="edge6" class="edge">
<title>CloudAndRouters&#45;&gt;Eth100M</title>
<path fill="none" stroke="black" d="M311.38,-54.95C355.76,-46.61 425.18,-33.37 494.87,-19.09"/>
<polygon fill="black" stroke="black" points="495.61,-22.51 504.7,-17.07 494.2,-15.65 495.61,-22.51"/>
</g>
</g>
</svg>
