<?xml version="1.0" encoding="UTF-8" standalone="no"?>
<!DOCTYPE svg PUBLIC "-//W3C//DTD SVG 1.1//EN"
 "http://www.w3.org/Graphics/SVG/1.1/DTD/svg11.dtd">
<!-- Generated by graphviz version 2.43.0 (0)
 -->
<!-- Title: opp Pages: 1 -->
<svg width="268pt" height="82pt"
 viewBox="0.00 0.00 268.00 82.00" xmlns="http://www.w3.org/2000/svg" xmlns:xlink="http://www.w3.org/1999/xlink">
<g id="graph0" class="graph" transform="scale(1 1) rotate(0) translate(4 78)">
<title>opp</title>
<polygon fill="transparent" stroke="transparent" points="-4,4 -4,-78 264,-78 264,4 -4,4"/>
<!-- SwitchedLAN -->
<g id="node1" class="node">
<title>SwitchedLAN</title>
<g id="a_node1"><a xlink:href="inet.examples.ethernet.lans.SwitchedLAN.html" xlink:title="Network SwitchedLAN" target="_parent">
<polygon fill="#9090ff" stroke="black" points="152.5,-74 71.5,-74 71.5,-55 152.5,-55 152.5,-74"/>
<text text-anchor="middle" x="112" y="-62" font-family="Helvetica,sans-Serif" font-size="10.00">SwitchedLAN</text>
</a>
</g>
</g>
<!-- C -->
<g id="node2" class="node">
<title>C</title>
<g id="a_node2"><a xlink:href="inet.examples.ethernet.lans.SwitchedLAN.C.html" xlink:title="Channel C" target="_parent">
<polygon fill="#d0ffd0" stroke="black" points="54,-19 0,-19 0,0 54,0 54,-19"/>
<text text-anchor="middle" x="27" y="-7" font-family="Helvetica,sans-Serif" font-size="10.00">C</text>
</a>
</g>
</g>
<!-- SwitchedLAN&#45;&gt;C -->
<g id="edge1" class="edge">
<title>SwitchedLAN&#45;&gt;C</title>
<path fill="none" stroke="black" d="M98.34,-54.98C85.16,-46.77 64.97,-34.18 49.43,-24.49"/>
<polygon fill="black" stroke="black" points="51.24,-21.49 40.91,-19.17 47.54,-27.43 51.24,-21.49"/>
</g>
<!-- EthernetHost -->
<g id="node3" class="node">
<title>EthernetHost</title>
<g id="a_node3"><a xlink:href="inet.node.ethernet.EthernetHost.html" xlink:title="Compound Module EthernetHost" target="_parent">
<polygon fill="#fffcaf" stroke="black" points="152,-19 72,-19 72,0 152,0 152,-19"/>
<text text-anchor="middle" x="112" y="-7" font-family="Helvetica,sans-Serif" font-size="10.00">EthernetHost</text>
</a>
</g>
</g>
<!-- SwitchedLAN&#45;&gt;EthernetHost -->
<g id="edge2" class="edge">
<title>SwitchedLAN&#45;&gt;EthernetHost</title>
<path fill="none" stroke="black" d="M112,-54.75C112,-47.8 112,-37.85 112,-29.13"/>
<polygon fill="black" stroke="black" points="115.5,-29.09 112,-19.09 108.5,-29.09 115.5,-29.09"/>
</g>
<!-- EthernetSwitch -->
<g id="node4" class="node">
<title>EthernetSwitch</title>
<g id="a_node4"><a xlink:href="inet.node.ethernet.EthernetSwitch.html" xlink:title="Compound Module EthernetSwitch" target="_parent">
<polygon fill="#fffcaf" stroke="black" points="260,-19 170,-19 170,0 260,0 260,-19"/>
<text text-anchor="middle" x="215" y="-7" font-family="Helvetica,sans-Serif" font-size="10.00">EthernetSwitch</text>
</a>
</g>
</g>
<!-- SwitchedLAN&#45;&gt;EthernetSwitch -->
<g id="edge3" class="edge">
<title>SwitchedLAN&#45;&gt;EthernetSwitch</title>
<path fill="none" stroke="black" d="M128.55,-54.98C144.89,-46.57 170.13,-33.59 189.13,-23.81"/>
<polygon fill="black" stroke="black" points="190.86,-26.86 198.15,-19.17 187.66,-20.63 190.86,-26.86"/>
</g>
</g>
</svg>
