<?xml version="1.0" encoding="UTF-8" standalone="no"?>
<!DOCTYPE svg PUBLIC "-//W3C//DTD SVG 1.1//EN"
 "http://www.w3.org/Graphics/SVG/1.1/DTD/svg11.dtd">
<!-- Generated by graphviz version 2.43.0 (0)
 -->
<!-- Title: opp Pages: 1 -->
<svg width="588pt" height="137pt"
 viewBox="0.00 0.00 588.00 137.00" xmlns="http://www.w3.org/2000/svg" xmlns:xlink="http://www.w3.org/1999/xlink">
<g id="graph0" class="graph" transform="scale(1 1) rotate(0) translate(4 133)">
<title>opp</title>
<polygon fill="transparent" stroke="transparent" points="-4,4 -4,-133 584,-133 584,4 -4,4"/>
<!-- DynamicDefragmenter -->
<g id="node1" class="node">
<title>DynamicDefragmenter</title>
<g id="a_node1"><a xlink:href="inet.tutorials.protocol.DynamicDefragmenter.html" xlink:title="Compound Module DynamicDefragmenter" target="_parent">
<polygon fill="#fff700" stroke="black" points="308,-74 180,-74 180,-55 308,-55 308,-74"/>
<text text-anchor="middle" x="244" y="-62" font-family="Helvetica,sans-Serif" font-size="10.00">DynamicDefragmenter</text>
</a>
</g>
</g>
<!-- IdealChannel -->
<g id="node2" class="node">
<title>IdealChannel</title>
<g id="a_node2"><a xlink:href="ned.IdealChannel.html" xlink:title="Channel IdealChannel" target="_parent">
<polygon fill="#d0ffd0" stroke="black" points="80,-19 0,-19 0,0 80,0 80,-19"/>
<text text-anchor="middle" x="40" y="-7" font-family="Helvetica,sans-Serif" font-size="10.00">IdealChannel</text>
</a>
</g>
</g>
<!-- DynamicDefragmenter&#45;&gt;IdealChannel -->
<g id="edge1" class="edge">
<title>DynamicDefragmenter&#45;&gt;IdealChannel</title>
<path fill="none" stroke="black" d="M211.22,-54.98C176.38,-45.93 121.13,-31.58 82.86,-21.64"/>
<polygon fill="black" stroke="black" points="83.59,-18.21 73.03,-19.08 81.83,-24.98 83.59,-18.21"/>
</g>
<!-- PacketMultiplexer -->
<g id="node3" class="node">
<title>PacketMultiplexer</title>
<g id="a_node3"><a xlink:href="inet.queueing.common.PacketMultiplexer.html" xlink:title="Simple Module PacketMultiplexer" target="_parent">
<polygon fill="#fffcaf" stroke="black" points="202,-19 98,-19 98,0 202,0 202,-19"/>
<text text-anchor="middle" x="150" y="-7" font-family="Helvetica,sans-Serif" font-size="10.00">PacketMultiplexer</text>
</a>
</g>
</g>
<!-- DynamicDefragmenter&#45;&gt;PacketMultiplexer -->
<g id="edge2" class="edge">
<title>DynamicDefragmenter&#45;&gt;PacketMultiplexer</title>
<path fill="none" stroke="black" d="M228.9,-54.98C214.18,-46.69 191.58,-33.94 174.33,-24.22"/>
<polygon fill="black" stroke="black" points="175.81,-21.03 165.38,-19.17 172.37,-27.13 175.81,-21.03"/>
</g>
<!-- FragmentNumberHeaderBasedDefragmenter -->
<g id="node4" class="node">
<title>FragmentNumberHeaderBasedDefragmenter</title>
<g id="a_node4"><a xlink:href="inet.protocolelement.fragmentation.FragmentNumberHeaderBasedDefragmenter.html" xlink:title="Simple Module FragmentNumberHeaderBasedDefragmenter" target="_parent">
<polygon fill="#fffcaf" stroke="black" points="456,-19 220,-19 220,0 456,0 456,-19"/>
<text text-anchor="middle" x="338" y="-7" font-family="Helvetica,sans-Serif" font-size="10.00">FragmentNumberHeaderBasedDefragmenter</text>
</a>
</g>
</g>
<!-- DynamicDefragmenter&#45;&gt;FragmentNumberHeaderBasedDefragmenter -->
<g id="edge3" class="edge">
<title>DynamicDefragmenter&#45;&gt;FragmentNumberHeaderBasedDefragmenter</title>
<path fill="none" stroke="black" d="M259.1,-54.98C273.82,-46.69 296.42,-33.94 313.67,-24.22"/>
<polygon fill="black" stroke="black" points="315.63,-27.13 322.62,-19.17 312.19,-21.03 315.63,-27.13"/>
</g>
<!-- DynamicClassifier -->
<g id="node5" class="node">
<title>DynamicClassifier</title>
<g id="a_node5"><a xlink:href="inet.queueing.classifier.DynamicClassifier.html" xlink:title="Simple Module DynamicClassifier" target="_parent">
<polygon fill="#fffcaf" stroke="black" points="580,-19 474,-19 474,0 580,0 580,-19"/>
<text text-anchor="middle" x="527" y="-7" font-family="Helvetica,sans-Serif" font-size="10.00">DynamicClassifier</text>
</a>
</g>
</g>
<!-- DynamicDefragmenter&#45;&gt;DynamicClassifier -->
<g id="edge4" class="edge">
<title>DynamicDefragmenter&#45;&gt;DynamicClassifier</title>
<path fill="none" stroke="black" d="M289.47,-54.98C338.94,-45.72 418.05,-30.9 471.23,-20.94"/>
<polygon fill="black" stroke="black" points="471.99,-24.36 481.17,-19.08 470.7,-17.48 471.99,-24.36"/>
</g>
<!-- ReceiverHost -->
<g id="node6" class="node">
<title>ReceiverHost</title>
<g id="a_node6"><a xlink:href="inet.tutorials.protocol.ReceiverHost.html" xlink:title="Compound Module ReceiverHost" target="_parent">
<polygon fill="#fffcaf" stroke="black" points="285,-129 203,-129 203,-110 285,-110 285,-129"/>
<text text-anchor="middle" x="244" y="-117" font-family="Helvetica,sans-Serif" font-size="10.00">ReceiverHost</text>
</a>
</g>
</g>
<!-- ReceiverHost&#45;&gt;DynamicDefragmenter -->
<g id="edge5" class="edge">
<title>ReceiverHost&#45;&gt;DynamicDefragmenter</title>
<path fill="none" stroke="black" d="M244,-109.75C244,-102.8 244,-92.85 244,-84.13"/>
<polygon fill="black" stroke="black" points="247.5,-84.09 244,-74.09 240.5,-84.09 247.5,-84.09"/>
</g>
</g>
</svg>
