<?xml version="1.0" encoding="UTF-8" standalone="no"?>
<!DOCTYPE svg PUBLIC "-//W3C//DTD SVG 1.1//EN"
 "http://www.w3.org/Graphics/SVG/1.1/DTD/svg11.dtd">
<!-- Generated by graphviz version 2.43.0 (0)
 -->
<!-- Title: opp Pages: 1 -->
<svg width="464pt" height="82pt"
 viewBox="0.00 0.00 463.50 82.00" xmlns="http://www.w3.org/2000/svg" xmlns:xlink="http://www.w3.org/1999/xlink">
<g id="graph0" class="graph" transform="scale(1 1) rotate(0) translate(4 78)">
<title>opp</title>
<polygon fill="transparent" stroke="transparent" points="-4,4 -4,-78 459.5,-78 459.5,4 -4,4"/>
<!-- MarkovSchedulerTutorialStep -->
<g id="node1" class="node">
<title>MarkovSchedulerTutorialStep</title>
<g id="a_node1"><a xlink:href="inet.tutorials.queueing.MarkovSchedulerTutorialStep.html" xlink:title="Network MarkovSchedulerTutorialStep" target="_parent">
<polygon fill="#9090ff" stroke="black" points="292,-74 134,-74 134,-55 292,-55 292,-74"/>
<text text-anchor="middle" x="213" y="-62" font-family="Helvetica,sans-Serif" font-size="10.00">MarkovSchedulerTutorialStep</text>
</a>
</g>
</g>
<!-- IdealChannel -->
<g id="node2" class="node">
<title>IdealChannel</title>
<g id="a_node2"><a xlink:href="ned.IdealChannel.html" xlink:title="Channel IdealChannel" target="_parent">
<polygon fill="#d0ffd0" stroke="black" points="80,-19 0,-19 0,0 80,0 80,-19"/>
<text text-anchor="middle" x="40" y="-7" font-family="Helvetica,sans-Serif" font-size="10.00">IdealChannel</text>
</a>
</g>
</g>
<!-- MarkovSchedulerTutorialStep&#45;&gt;IdealChannel -->
<g id="edge1" class="edge">
<title>MarkovSchedulerTutorialStep&#45;&gt;IdealChannel</title>
<path fill="none" stroke="black" d="M185.2,-54.98C156.03,-46.05 110,-31.94 77.6,-22.02"/>
<polygon fill="black" stroke="black" points="78.6,-18.66 68.01,-19.08 76.55,-25.36 78.6,-18.66"/>
</g>
<!-- MarkovScheduler -->
<g id="node3" class="node">
<title>MarkovScheduler</title>
<g id="a_node3"><a xlink:href="inet.queueing.scheduler.MarkovScheduler.html" xlink:title="Simple Module MarkovScheduler" target="_parent">
<polygon fill="#fffcaf" stroke="black" points="199.5,-19 98.5,-19 98.5,0 199.5,0 199.5,-19"/>
<text text-anchor="middle" x="149" y="-7" font-family="Helvetica,sans-Serif" font-size="10.00">MarkovScheduler</text>
</a>
</g>
</g>
<!-- MarkovSchedulerTutorialStep&#45;&gt;MarkovScheduler -->
<g id="edge2" class="edge">
<title>MarkovSchedulerTutorialStep&#45;&gt;MarkovScheduler</title>
<path fill="none" stroke="black" d="M202.72,-54.98C193.16,-47.07 178.72,-35.11 167.22,-25.58"/>
<polygon fill="black" stroke="black" points="169.4,-22.85 159.47,-19.17 164.94,-28.24 169.4,-22.85"/>
</g>
<!-- PassivePacketSource -->
<g id="node4" class="node">
<title>PassivePacketSource</title>
<g id="a_node4"><a xlink:href="inet.queueing.source.PassivePacketSource.html" xlink:title="Simple Module PassivePacketSource" target="_parent">
<polygon fill="#fffcaf" stroke="black" points="336.5,-19 217.5,-19 217.5,0 336.5,0 336.5,-19"/>
<text text-anchor="middle" x="277" y="-7" font-family="Helvetica,sans-Serif" font-size="10.00">PassivePacketSource</text>
</a>
</g>
</g>
<!-- MarkovSchedulerTutorialStep&#45;&gt;PassivePacketSource -->
<g id="edge3" class="edge">
<title>MarkovSchedulerTutorialStep&#45;&gt;PassivePacketSource</title>
<path fill="none" stroke="black" d="M223.28,-54.98C232.84,-47.07 247.28,-35.11 258.78,-25.58"/>
<polygon fill="black" stroke="black" points="261.06,-28.24 266.53,-19.17 256.6,-22.85 261.06,-28.24"/>
</g>
<!-- ActivePacketSink -->
<g id="node5" class="node">
<title>ActivePacketSink</title>
<g id="a_node5"><a xlink:href="inet.queueing.sink.ActivePacketSink.html" xlink:title="Simple Module ActivePacketSink" target="_parent">
<polygon fill="#fffcaf" stroke="black" points="455.5,-19 354.5,-19 354.5,0 455.5,0 455.5,-19"/>
<text text-anchor="middle" x="405" y="-7" font-family="Helvetica,sans-Serif" font-size="10.00">ActivePacketSink</text>
</a>
</g>
</g>
<!-- MarkovSchedulerTutorialStep&#45;&gt;ActivePacketSink -->
<g id="edge4" class="edge">
<title>MarkovSchedulerTutorialStep&#45;&gt;ActivePacketSink</title>
<path fill="none" stroke="black" d="M243.85,-54.98C276.5,-45.97 328.2,-31.7 364.2,-21.76"/>
<polygon fill="black" stroke="black" points="365.2,-25.12 373.91,-19.08 363.34,-18.37 365.2,-25.12"/>
</g>
</g>
</svg>
