<?xml version="1.0" encoding="UTF-8" standalone="no"?>
<!DOCTYPE svg PUBLIC "-//W3C//DTD SVG 1.1//EN"
 "http://www.w3.org/Graphics/SVG/1.1/DTD/svg11.dtd">
<!-- Generated by graphviz version 2.43.0 (0)
 -->
<!-- Title: opp Pages: 1 -->
<svg width="593pt" height="82pt"
 viewBox="0.00 0.00 593.00 82.00" xmlns="http://www.w3.org/2000/svg" xmlns:xlink="http://www.w3.org/1999/xlink">
<g id="graph0" class="graph" transform="scale(1 1) rotate(0) translate(4 78)">
<title>opp</title>
<polygon fill="transparent" stroke="transparent" points="-4,4 -4,-78 589,-78 589,4 -4,4"/>
<!-- FilteringExampleNetwork -->
<g id="node1" class="node">
<title>FilteringExampleNetwork</title>
<g id="a_node1"><a xlink:href="inet.examples.wireless.filtering.FilteringExampleNetwork.html" xlink:title="Network FilteringExampleNetwork" target="_parent">
<polygon fill="#9090ff" stroke="black" points="392,-74 252,-74 252,-55 392,-55 392,-74"/>
<text text-anchor="middle" x="322" y="-62" font-family="Helvetica,sans-Serif" font-size="10.00">FilteringExampleNetwork</text>
</a>
</g>
</g>
<!-- Ipv4NetworkConfigurator -->
<g id="node2" class="node">
<title>Ipv4NetworkConfigurator</title>
<g id="a_node2"><a xlink:href="inet.networklayer.configurator.ipv4.Ipv4NetworkConfigurator.html" xlink:title="Simple Module Ipv4NetworkConfigurator" target="_parent">
<polygon fill="#fffcaf" stroke="black" points="140,-19 0,-19 0,0 140,0 140,-19"/>
<text text-anchor="middle" x="70" y="-7" font-family="Helvetica,sans-Serif" font-size="10.00">Ipv4NetworkConfigurator</text>
</a>
</g>
</g>
<!-- FilteringExampleNetwork&#45;&gt;Ipv4NetworkConfigurator -->
<g id="edge1" class="edge">
<title>FilteringExampleNetwork&#45;&gt;Ipv4NetworkConfigurator</title>
<path fill="none" stroke="black" d="M281.51,-54.98C237.83,-45.8 168.19,-31.15 120.85,-21.19"/>
<polygon fill="black" stroke="black" points="121.31,-17.72 110.81,-19.08 119.87,-24.57 121.31,-17.72"/>
</g>
<!-- IntegratedCanvasVisualizer -->
<g id="node3" class="node">
<title>IntegratedCanvasVisualizer</title>
<g id="a_node3"><a xlink:href="inet.visualizer.canvas.integrated.IntegratedCanvasVisualizer.html" xlink:title="Compound Module IntegratedCanvasVisualizer" target="_parent">
<polygon fill="#fffcaf" stroke="black" points="309.5,-19 158.5,-19 158.5,0 309.5,0 309.5,-19"/>
<text text-anchor="middle" x="234" y="-7" font-family="Helvetica,sans-Serif" font-size="10.00">IntegratedCanvasVisualizer</text>
</a>
</g>
</g>
<!-- FilteringExampleNetwork&#45;&gt;IntegratedCanvasVisualizer -->
<g id="edge2" class="edge">
<title>FilteringExampleNetwork&#45;&gt;IntegratedCanvasVisualizer</title>
<path fill="none" stroke="black" d="M307.86,-54.98C294.21,-46.77 273.31,-34.18 257.22,-24.49"/>
<polygon fill="black" stroke="black" points="258.77,-21.33 248.4,-19.17 255.16,-27.33 258.77,-21.33"/>
</g>
<!-- Ieee80211ScalarRadioMedium -->
<g id="node4" class="node">
<title>Ieee80211ScalarRadioMedium</title>
<g id="a_node4"><a xlink:href="inet.physicallayer.wireless.ieee80211.packetlevel.Ieee80211ScalarRadioMedium.html" xlink:title="Compound Module Ieee80211ScalarRadioMedium" target="_parent">
<polygon fill="#fffcaf" stroke="black" points="492.5,-19 327.5,-19 327.5,0 492.5,0 492.5,-19"/>
<text text-anchor="middle" x="410" y="-7" font-family="Helvetica,sans-Serif" font-size="10.00">Ieee80211ScalarRadioMedium</text>
</a>
</g>
</g>
<!-- FilteringExampleNetwork&#45;&gt;Ieee80211ScalarRadioMedium -->
<g id="edge3" class="edge">
<title>FilteringExampleNetwork&#45;&gt;Ieee80211ScalarRadioMedium</title>
<path fill="none" stroke="black" d="M336.14,-54.98C349.79,-46.77 370.69,-34.18 386.78,-24.49"/>
<polygon fill="black" stroke="black" points="388.84,-27.33 395.6,-19.17 385.23,-21.33 388.84,-27.33"/>
</g>
<!-- AodvRouter -->
<g id="node5" class="node">
<title>AodvRouter</title>
<g id="a_node5"><a xlink:href="inet.node.aodv.AodvRouter.html" xlink:title="Compound Module AodvRouter" target="_parent">
<polygon fill="#fffcaf" stroke="black" points="585,-19 511,-19 511,0 585,0 585,-19"/>
<text text-anchor="middle" x="548" y="-7" font-family="Helvetica,sans-Serif" font-size="10.00">AodvRouter</text>
</a>
</g>
</g>
<!-- FilteringExampleNetwork&#45;&gt;AodvRouter -->
<g id="edge4" class="edge">
<title>FilteringExampleNetwork&#45;&gt;AodvRouter</title>
<path fill="none" stroke="black" d="M358.31,-54.98C397.24,-45.86 459.16,-31.33 501.6,-21.38"/>
<polygon fill="black" stroke="black" points="502.47,-24.77 511.4,-19.08 500.87,-17.96 502.47,-24.77"/>
</g>
</g>
</svg>
