<?xml version="1.0" encoding="UTF-8" standalone="no"?>
<!DOCTYPE svg PUBLIC "-//W3C//DTD SVG 1.1//EN"
 "http://www.w3.org/Graphics/SVG/1.1/DTD/svg11.dtd">
<!-- Generated by graphviz version 2.43.0 (0)
 -->
<!-- Title: opp Pages: 1 -->
<svg width="524pt" height="82pt"
 viewBox="0.00 0.00 523.50 82.00" xmlns="http://www.w3.org/2000/svg" xmlns:xlink="http://www.w3.org/1999/xlink">
<g id="graph0" class="graph" transform="scale(1 1) rotate(0) translate(4 78)">
<title>opp</title>
<polygon fill="transparent" stroke="transparent" points="-4,4 -4,-78 519.5,-78 519.5,4 -4,4"/>
<!-- testNetwork -->
<g id="node1" class="node">
<title>testNetwork</title>
<g id="a_node1"><a xlink:href="inet.examples.inet.netperfmeter.testNetwork.html" xlink:title="Network testNetwork" target="_parent">
<polygon fill="#9090ff" stroke="black" points="279,-74 202,-74 202,-55 279,-55 279,-74"/>
<text text-anchor="middle" x="240.5" y="-62" font-family="Helvetica,sans-Serif" font-size="10.00">testNetwork</text>
</a>
</g>
</g>
<!-- StandardHost -->
<g id="node2" class="node">
<title>StandardHost</title>
<g id="a_node2"><a xlink:href="inet.node.inet.StandardHost.html" xlink:title="Compound Module StandardHost" target="_parent">
<polygon fill="#fffcaf" stroke="black" points="83,-19 0,-19 0,0 83,0 83,-19"/>
<text text-anchor="middle" x="41.5" y="-7" font-family="Helvetica,sans-Serif" font-size="10.00">StandardHost</text>
</a>
</g>
</g>
<!-- testNetwork&#45;&gt;StandardHost -->
<g id="edge1" class="edge">
<title>testNetwork&#45;&gt;StandardHost</title>
<path fill="none" stroke="black" d="M208.53,-54.98C174.68,-45.97 121.1,-31.7 83.79,-21.76"/>
<polygon fill="black" stroke="black" points="84.29,-18.27 73.72,-19.08 82.49,-25.04 84.29,-18.27"/>
</g>
<!-- coreChannel -->
<g id="node3" class="node">
<title>coreChannel</title>
<g id="a_node3"><a xlink:href="inet.examples.inet.netperfmeter.coreChannel.html" xlink:title="Channel coreChannel" target="_parent">
<polygon fill="#d0ffd0" stroke="black" points="178,-19 101,-19 101,0 178,0 178,-19"/>
<text text-anchor="middle" x="139.5" y="-7" font-family="Helvetica,sans-Serif" font-size="10.00">coreChannel</text>
</a>
</g>
</g>
<!-- testNetwork&#45;&gt;coreChannel -->
<g id="edge2" class="edge">
<title>testNetwork&#45;&gt;coreChannel</title>
<path fill="none" stroke="black" d="M224.27,-54.98C208.32,-46.61 183.72,-33.7 165.12,-23.95"/>
<polygon fill="black" stroke="black" points="166.5,-20.72 156.02,-19.17 163.25,-26.92 166.5,-20.72"/>
</g>
<!-- accessChannel -->
<g id="node4" class="node">
<title>accessChannel</title>
<g id="a_node4"><a xlink:href="inet.examples.inet.netperfmeter.accessChannel.html" xlink:title="Channel accessChannel" target="_parent">
<polygon fill="#d0ffd0" stroke="black" points="285,-19 196,-19 196,0 285,0 285,-19"/>
<text text-anchor="middle" x="240.5" y="-7" font-family="Helvetica,sans-Serif" font-size="10.00">accessChannel</text>
</a>
</g>
</g>
<!-- testNetwork&#45;&gt;accessChannel -->
<g id="edge3" class="edge">
<title>testNetwork&#45;&gt;accessChannel</title>
<path fill="none" stroke="black" d="M240.5,-54.75C240.5,-47.8 240.5,-37.85 240.5,-29.13"/>
<polygon fill="black" stroke="black" points="244,-29.09 240.5,-19.09 237,-29.09 244,-29.09"/>
</g>
<!-- Router -->
<g id="node5" class="node">
<title>Router</title>
<g id="a_node5"><a xlink:href="inet.node.inet.Router.html" xlink:title="Compound Module Router" target="_parent">
<polygon fill="#fffcaf" stroke="black" points="357.5,-19 303.5,-19 303.5,0 357.5,0 357.5,-19"/>
<text text-anchor="middle" x="330.5" y="-7" font-family="Helvetica,sans-Serif" font-size="10.00">Router</text>
</a>
</g>
</g>
<!-- testNetwork&#45;&gt;Router -->
<g id="edge4" class="edge">
<title>testNetwork&#45;&gt;Router</title>
<path fill="none" stroke="black" d="M254.96,-54.98C268.92,-46.77 290.29,-34.18 306.75,-24.49"/>
<polygon fill="black" stroke="black" points="308.94,-27.26 315.78,-19.17 305.38,-21.23 308.94,-27.26"/>
</g>
<!-- Ipv4NetworkConfigurator -->
<g id="node6" class="node">
<title>Ipv4NetworkConfigurator</title>
<g id="a_node6"><a xlink:href="inet.networklayer.configurator.ipv4.Ipv4NetworkConfigurator.html" xlink:title="Simple Module Ipv4NetworkConfigurator" target="_parent">
<polygon fill="#fffcaf" stroke="black" points="515.5,-19 375.5,-19 375.5,0 515.5,0 515.5,-19"/>
<text text-anchor="middle" x="445.5" y="-7" font-family="Helvetica,sans-Serif" font-size="10.00">Ipv4NetworkConfigurator</text>
</a>
</g>
</g>
<!-- testNetwork&#45;&gt;Ipv4NetworkConfigurator -->
<g id="edge5" class="edge">
<title>testNetwork&#45;&gt;Ipv4NetworkConfigurator</title>
<path fill="none" stroke="black" d="M273.44,-54.98C308.45,-45.93 363.97,-31.58 402.43,-21.64"/>
<polygon fill="black" stroke="black" points="403.5,-24.97 412.31,-19.08 401.75,-18.2 403.5,-24.97"/>
</g>
</g>
</svg>
