<?xml version="1.0" encoding="UTF-8" standalone="no"?>
<!DOCTYPE svg PUBLIC "-//W3C//DTD SVG 1.1//EN"
 "http://www.w3.org/Graphics/SVG/1.1/DTD/svg11.dtd">
<!-- Generated by graphviz version 2.43.0 (0)
 -->
<!-- Title: opp Pages: 1 -->
<svg width="698pt" height="137pt"
 viewBox="0.00 0.00 697.50 137.00" xmlns="http://www.w3.org/2000/svg" xmlns:xlink="http://www.w3.org/1999/xlink">
<g id="graph0" class="graph" transform="scale(1 1) rotate(0) translate(4 133)">
<title>opp</title>
<polygon fill="transparent" stroke="transparent" points="-4,4 -4,-133 693.5,-133 693.5,4 -4,4"/>
<!-- PacketMeterBase -->
<g id="node1" class="node">
<title>PacketMeterBase</title>
<g id="a_node1"><a xlink:href="inet.queueing.base.PacketMeterBase.html" xlink:title="Simple Module PacketMeterBase" target="_parent">
<polygon fill="#fff700" stroke="black" points="392,-74 291,-74 291,-55 392,-55 392,-74"/>
<text text-anchor="middle" x="341.5" y="-62" font-family="Helvetica,sans-Serif" font-size="10.00">PacketMeterBase</text>
</a>
</g>
</g>
<!-- EligibilityTimeMeter -->
<g id="node3" class="node">
<title>EligibilityTimeMeter</title>
<g id="a_node3"><a xlink:href="inet.protocolelement.shaper.EligibilityTimeMeter.html" xlink:title="Simple Module EligibilityTimeMeter" target="_parent">
<polygon fill="#fffcaf" stroke="black" points="115,-19 0,-19 0,0 115,0 115,-19"/>
<text text-anchor="middle" x="57.5" y="-7" font-family="Helvetica,sans-Serif" font-size="10.00">EligibilityTimeMeter</text>
</a>
</g>
</g>
<!-- PacketMeterBase&#45;&gt;EligibilityTimeMeter -->
<g id="edge2" class="edge">
<title>PacketMeterBase&#45;&gt;EligibilityTimeMeter</title>
<path fill="none" stroke="black" d="M295.87,-54.98C243.03,-45.12 156.48,-28.97 103.49,-19.08"/>
</g>
<!-- ExponentialRateMeter -->
<g id="node4" class="node">
<title>ExponentialRateMeter</title>
<g id="a_node4"><a xlink:href="inet.queueing.meter.ExponentialRateMeter.html" xlink:title="Simple Module ExponentialRateMeter" target="_parent">
<polygon fill="#fffcaf" stroke="black" points="258,-19 133,-19 133,0 258,0 258,-19"/>
<text text-anchor="middle" x="195.5" y="-7" font-family="Helvetica,sans-Serif" font-size="10.00">ExponentialRateMeter</text>
</a>
</g>
</g>
<!-- PacketMeterBase&#45;&gt;ExponentialRateMeter -->
<g id="edge3" class="edge">
<title>PacketMeterBase&#45;&gt;ExponentialRateMeter</title>
<path fill="none" stroke="black" d="M318.04,-54.98C290.96,-45.15 246.65,-29.07 219.38,-19.17"/>
</g>
<!-- MultiTokenBucketMeter -->
<g id="node5" class="node">
<title>MultiTokenBucketMeter</title>
<g id="a_node5"><a xlink:href="inet.queueing.meter.MultiTokenBucketMeter.html" xlink:title="Simple Module MultiTokenBucketMeter" target="_parent">
<polygon fill="#fffcaf" stroke="black" points="407,-19 276,-19 276,0 407,0 407,-19"/>
<text text-anchor="middle" x="341.5" y="-7" font-family="Helvetica,sans-Serif" font-size="10.00">MultiTokenBucketMeter</text>
</a>
</g>
</g>
<!-- PacketMeterBase&#45;&gt;MultiTokenBucketMeter -->
<g id="edge4" class="edge">
<title>PacketMeterBase&#45;&gt;MultiTokenBucketMeter</title>
<path fill="none" stroke="black" d="M341.5,-54.75C341.5,-44.87 341.5,-28.9 341.5,-19.09"/>
</g>
<!-- SlidingWindowRateMeter -->
<g id="node6" class="node">
<title>SlidingWindowRateMeter</title>
<g id="a_node6"><a xlink:href="inet.queueing.meter.SlidingWindowRateMeter.html" xlink:title="Simple Module SlidingWindowRateMeter" target="_parent">
<polygon fill="#fffcaf" stroke="black" points="565.5,-19 425.5,-19 425.5,0 565.5,0 565.5,-19"/>
<text text-anchor="middle" x="495.5" y="-7" font-family="Helvetica,sans-Serif" font-size="10.00">SlidingWindowRateMeter</text>
</a>
</g>
</g>
<!-- PacketMeterBase&#45;&gt;SlidingWindowRateMeter -->
<g id="edge5" class="edge">
<title>PacketMeterBase&#45;&gt;SlidingWindowRateMeter</title>
<path fill="none" stroke="black" d="M366.24,-54.98C394.9,-45.12 441.83,-28.97 470.56,-19.08"/>
</g>
<!-- TokenBucketMeter -->
<g id="node7" class="node">
<title>TokenBucketMeter</title>
<g id="a_node7"><a xlink:href="inet.queueing.meter.TokenBucketMeter.html" xlink:title="Simple Module TokenBucketMeter" target="_parent">
<polygon fill="#fffcaf" stroke="black" points="689.5,-19 583.5,-19 583.5,0 689.5,0 689.5,-19"/>
<text text-anchor="middle" x="636.5" y="-7" font-family="Helvetica,sans-Serif" font-size="10.00">TokenBucketMeter</text>
</a>
</g>
</g>
<!-- PacketMeterBase&#45;&gt;TokenBucketMeter -->
<g id="edge6" class="edge">
<title>PacketMeterBase&#45;&gt;TokenBucketMeter</title>
<path fill="none" stroke="black" d="M388.9,-54.98C443.78,-45.12 533.69,-28.97 588.73,-19.08"/>
</g>
<!-- PacketFlowBase -->
<g id="node2" class="node">
<title>PacketFlowBase</title>
<g id="a_node2"><a xlink:href="inet.queueing.base.PacketFlowBase.html" xlink:title="Simple Module PacketFlowBase" target="_parent">
<polygon fill="#fffcaf" stroke="black" points="389.5,-129 293.5,-129 293.5,-110 389.5,-110 389.5,-129"/>
<text text-anchor="middle" x="341.5" y="-117" font-family="Helvetica,sans-Serif" font-size="10.00">PacketFlowBase</text>
</a>
</g>
</g>
<!-- PacketFlowBase&#45;&gt;PacketMeterBase -->
<g id="edge1" class="edge">
<title>PacketFlowBase&#45;&gt;PacketMeterBase</title>
<path fill="none" stroke="black" d="M341.5,-109.75C341.5,-99.87 341.5,-83.9 341.5,-74.09"/>
</g>
</g>
</svg>
