<?xml version="1.0" encoding="UTF-8" standalone="no"?>
<!DOCTYPE svg PUBLIC "-//W3C//DTD SVG 1.1//EN"
 "http://www.w3.org/Graphics/SVG/1.1/DTD/svg11.dtd">
<!-- Generated by graphviz version 2.43.0 (0)
 -->
<!-- Title: opp Pages: 1 -->
<svg width="282pt" height="82pt"
 viewBox="0.00 0.00 281.50 82.00" xmlns="http://www.w3.org/2000/svg" xmlns:xlink="http://www.w3.org/1999/xlink">
<g id="graph0" class="graph" transform="scale(1 1) rotate(0) translate(4 78)">
<title>opp</title>
<polygon fill="transparent" stroke="transparent" points="-4,4 -4,-78 277.5,-78 277.5,4 -4,4"/>
<!-- RedDropperQueue -->
<g id="node1" class="node">
<title>RedDropperQueue</title>
<g id="a_node1"><a xlink:href="inet.queueing.queue.RedDropperQueue.html" xlink:title="Compound Module RedDropperQueue" target="_parent">
<polygon fill="#fff700" stroke="black" points="188,-74 82,-74 82,-55 188,-55 188,-74"/>
<text text-anchor="middle" x="135" y="-62" font-family="Helvetica,sans-Serif" font-size="10.00">RedDropperQueue</text>
</a>
</g>
</g>
<!-- IdealChannel -->
<g id="node2" class="node">
<title>IdealChannel</title>
<g id="a_node2"><a xlink:href="ned.IdealChannel.html" xlink:title="Channel IdealChannel" target="_parent">
<polygon fill="#d0ffd0" stroke="black" points="80,-19 0,-19 0,0 80,0 80,-19"/>
<text text-anchor="middle" x="40" y="-7" font-family="Helvetica,sans-Serif" font-size="10.00">IdealChannel</text>
</a>
</g>
</g>
<!-- RedDropperQueue&#45;&gt;IdealChannel -->
<g id="edge1" class="edge">
<title>RedDropperQueue&#45;&gt;IdealChannel</title>
<path fill="none" stroke="black" d="M119.74,-54.98C104.87,-46.69 82.02,-33.94 64.58,-24.22"/>
<polygon fill="black" stroke="black" points="65.98,-20.99 55.54,-19.17 62.57,-27.1 65.98,-20.99"/>
</g>
<!-- RedDropper -->
<g id="node3" class="node">
<title>RedDropper</title>
<g id="a_node3"><a xlink:href="inet.queueing.filter.RedDropper.html" xlink:title="Simple Module RedDropper" target="_parent">
<polygon fill="#fffcaf" stroke="black" points="172,-19 98,-19 98,0 172,0 172,-19"/>
<text text-anchor="middle" x="135" y="-7" font-family="Helvetica,sans-Serif" font-size="10.00">RedDropper</text>
</a>
</g>
</g>
<!-- RedDropperQueue&#45;&gt;RedDropper -->
<g id="edge2" class="edge">
<title>RedDropperQueue&#45;&gt;RedDropper</title>
<path fill="none" stroke="black" d="M135,-54.75C135,-47.8 135,-37.85 135,-29.13"/>
<polygon fill="black" stroke="black" points="138.5,-29.09 135,-19.09 131.5,-29.09 138.5,-29.09"/>
</g>
<!-- IPacketQueue -->
<g id="node4" class="node">
<title>IPacketQueue</title>
<g id="a_node4"><a xlink:href="inet.queueing.contract.IPacketQueue.html" xlink:title="Module Interface IPacketQueue" target="_parent">
<polygon fill="#fffcaf" stroke="black" stroke-dasharray="5,2" points="273.5,-19 190.5,-19 190.5,0 273.5,0 273.5,-19"/>
<text text-anchor="middle" x="232" y="-7" font-family="Helvetica,sans-Serif" font-size="10.00">IPacketQueue</text>
</a>
</g>
</g>
<!-- RedDropperQueue&#45;&gt;IPacketQueue -->
<g id="edge3" class="edge">
<title>RedDropperQueue&#45;&gt;IPacketQueue</title>
<path fill="none" stroke="black" d="M150.58,-54.98C165.77,-46.69 189.1,-33.94 206.9,-24.22"/>
<polygon fill="black" stroke="black" points="209.03,-27.04 216.13,-19.17 205.68,-20.89 209.03,-27.04"/>
</g>
</g>
</svg>
