<?xml version="1.0" encoding="UTF-8" standalone="no"?>
<!DOCTYPE svg PUBLIC "-//W3C//DTD SVG 1.1//EN"
 "http://www.w3.org/Graphics/SVG/1.1/DTD/svg11.dtd">
<!-- Generated by graphviz version 2.43.0 (0)
 -->
<!-- Title: opp Pages: 1 -->
<svg width="1014pt" height="82pt"
 viewBox="0.00 0.00 1014.00 82.00" xmlns="http://www.w3.org/2000/svg" xmlns:xlink="http://www.w3.org/1999/xlink">
<g id="graph0" class="graph" transform="scale(1 1) rotate(0) translate(4 78)">
<title>opp</title>
<polygon fill="transparent" stroke="transparent" points="-4,4 -4,-78 1010,-78 1010,4 -4,4"/>
<!-- DatarateChannel -->
<g id="node1" class="node">
<title>DatarateChannel</title>
<g id="a_node1"><a xlink:href="ned.DatarateChannel.html" xlink:title="Channel DatarateChannel" target="_parent">
<polygon fill="#90ff90" stroke="black" points="496,-74 397,-74 397,-55 496,-55 496,-74"/>
<text text-anchor="middle" x="446.5" y="-62" font-family="Helvetica,sans-Serif" font-size="10.00">DatarateChannel</text>
</a>
</g>
</g>
<!-- accessChannel -->
<g id="node2" class="node">
<title>accessChannel</title>
<g id="a_node2"><a xlink:href="inet.examples.inet.netperfmeter.accessChannel.html" xlink:title="Channel accessChannel" target="_parent">
<polygon fill="#d0ffd0" stroke="black" points="89,-19 0,-19 0,0 89,0 89,-19"/>
<text text-anchor="middle" x="44.5" y="-7" font-family="Helvetica,sans-Serif" font-size="10.00">accessChannel</text>
</a>
</g>
</g>
<!-- DatarateChannel&#45;&gt;accessChannel -->
<g id="edge1" class="edge">
<title>DatarateChannel&#45;&gt;accessChannel</title>
<path fill="none" stroke="black" d="M396.88,-57.61C329.31,-49.49 204.63,-34.13 98.5,-19 95.49,-18.57 92.39,-18.12 89.27,-17.65"/>
</g>
<!-- BottlePath -->
<g id="node3" class="node">
<title>BottlePath</title>
<g id="a_node3"><a xlink:href="inet.examples.sctp.cmttest.BottlePath.html" xlink:title="Channel BottlePath" target="_parent">
<polygon fill="#d0ffd0" stroke="black" points="175.5,-19 107.5,-19 107.5,0 175.5,0 175.5,-19"/>
<text text-anchor="middle" x="141.5" y="-7" font-family="Helvetica,sans-Serif" font-size="10.00">BottlePath</text>
</a>
</g>
</g>
<!-- DatarateChannel&#45;&gt;BottlePath -->
<g id="edge2" class="edge">
<title>DatarateChannel&#45;&gt;BottlePath</title>
<path fill="none" stroke="black" d="M396.69,-55.45C343.93,-46.83 258.24,-32.55 184.5,-19 181.66,-18.48 178.71,-17.92 175.75,-17.36"/>
</g>
<!-- cable -->
<g id="node4" class="node">
<title>cable</title>
<g id="a_node4"><a xlink:href="inet.examples.inet.ipv4largenet.cable.html" xlink:title="Channel cable" target="_parent">
<polygon fill="#d0ffd0" stroke="black" points="247.5,-19 193.5,-19 193.5,0 247.5,0 247.5,-19"/>
<text text-anchor="middle" x="220.5" y="-7" font-family="Helvetica,sans-Serif" font-size="10.00">cable</text>
</a>
</g>
</g>
<!-- DatarateChannel&#45;&gt;cable -->
<g id="edge3" class="edge">
<title>DatarateChannel&#45;&gt;cable</title>
<path fill="none" stroke="black" d="M403.35,-54.99C362.9,-46.06 301.17,-31.62 247.81,-19.07"/>
</g>
<!-- DatarateChannel&#45;&gt;cable -->
<g id="edge4" class="edge">
<title>DatarateChannel&#45;&gt;cable</title>
<path fill="none" stroke="black" d="M416.79,-54.99C380.82,-46.05 318.93,-31.56 265.5,-19 259.87,-17.68 253.75,-16.23 247.79,-14.92"/>
</g>
<!-- coreChannel -->
<g id="node5" class="node">
<title>coreChannel</title>
<g id="a_node5"><a xlink:href="inet.examples.inet.netperfmeter.coreChannel.html" xlink:title="Channel coreChannel" target="_parent">
<polygon fill="#d0ffd0" stroke="black" points="343,-19 266,-19 266,0 343,0 343,-19"/>
<text text-anchor="middle" x="304.5" y="-7" font-family="Helvetica,sans-Serif" font-size="10.00">coreChannel</text>
</a>
</g>
</g>
<!-- DatarateChannel&#45;&gt;coreChannel -->
<g id="edge5" class="edge">
<title>DatarateChannel&#45;&gt;coreChannel</title>
<path fill="none" stroke="black" d="M423.69,-54.98C397.34,-45.15 354.25,-29.07 327.73,-19.17"/>
</g>
<!-- ethernetline -->
<g id="node6" class="node">
<title>ethernetline</title>
<g id="a_node6"><a xlink:href="inet.examples.mobileipv6.ethernetline.html" xlink:title="Channel ethernetline" target="_parent">
<polygon fill="#d0ffd0" stroke="black" points="437.5,-19 361.5,-19 361.5,0 437.5,0 437.5,-19"/>
<text text-anchor="middle" x="399.5" y="-7" font-family="Helvetica,sans-Serif" font-size="10.00">ethernetline</text>
</a>
</g>
</g>
<!-- DatarateChannel&#45;&gt;ethernetline -->
<g id="edge6" class="edge">
<title>DatarateChannel&#45;&gt;ethernetline</title>
<path fill="none" stroke="black" d="M438.74,-54.75C429.98,-44.87 415.82,-28.9 407.12,-19.09"/>
</g>
<!-- EthernetLink -->
<g id="node7" class="node">
<title>EthernetLink</title>
<g id="a_node7"><a xlink:href="inet.node.ethernet.EthernetLink.html" xlink:title="Channel EthernetLink" target="_parent">
<polygon fill="#d0ffd0" stroke="black" points="533.5,-19 455.5,-19 455.5,0 533.5,0 533.5,-19"/>
<text text-anchor="middle" x="494.5" y="-7" font-family="Helvetica,sans-Serif" font-size="10.00">EthernetLink</text>
</a>
</g>
</g>
<!-- DatarateChannel&#45;&gt;EthernetLink -->
<g id="edge7" class="edge">
<title>DatarateChannel&#45;&gt;EthernetLink</title>
<path fill="none" stroke="black" d="M454.43,-54.75C463.37,-44.87 477.84,-28.9 486.72,-19.09"/>
</g>
<!-- FastP -->
<g id="node8" class="node">
<title>FastP</title>
<g id="a_node8"><a xlink:href="inet.examples.inet.redmarker.FastP.html" xlink:title="Channel FastP" target="_parent">
<polygon fill="#d0ffd0" stroke="black" points="605.5,-19 551.5,-19 551.5,0 605.5,0 605.5,-19"/>
<text text-anchor="middle" x="578.5" y="-7" font-family="Helvetica,sans-Serif" font-size="10.00">FastP</text>
</a>
</g>
</g>
<!-- DatarateChannel&#45;&gt;FastP -->
<g id="edge8" class="edge">
<title>DatarateChannel&#45;&gt;FastP</title>
<path fill="none" stroke="black" d="M467.71,-54.98C492.19,-45.15 532.26,-29.07 556.91,-19.17"/>
</g>
<!-- fiberline -->
<g id="node9" class="node">
<title>fiberline</title>
<g id="a_node9"><a xlink:href="inet.examples.mobileipv6.fiberline.html" xlink:title="Channel fiberline" target="_parent">
<polygon fill="#d0ffd0" stroke="black" points="681,-19 624,-19 624,0 681,0 681,-19"/>
<text text-anchor="middle" x="652.5" y="-7" font-family="Helvetica,sans-Serif" font-size="10.00">fiberline</text>
</a>
</g>
</g>
<!-- DatarateChannel&#45;&gt;fiberline -->
<g id="edge9" class="edge">
<title>DatarateChannel&#45;&gt;fiberline</title>
<path fill="none" stroke="black" d="M479.6,-54.98C519.52,-44.71 585.96,-27.62 623.8,-17.88"/>
</g>
<!-- NormalP -->
<g id="node10" class="node">
<title>NormalP</title>
<g id="a_node10"><a xlink:href="inet.examples.inet.redmarker.NormalP.html" xlink:title="Channel NormalP" target="_parent">
<polygon fill="#d0ffd0" stroke="black" points="758,-19 699,-19 699,0 758,0 758,-19"/>
<text text-anchor="middle" x="728.5" y="-7" font-family="Helvetica,sans-Serif" font-size="10.00">NormalP</text>
</a>
</g>
</g>
<!-- DatarateChannel&#45;&gt;NormalP -->
<g id="edge10" class="edge">
<title>DatarateChannel&#45;&gt;NormalP</title>
<path fill="none" stroke="black" d="M496.15,-55.04C545.53,-46.49 623.4,-32.62 690.5,-19 693.15,-18.46 695.9,-17.88 698.65,-17.29"/>
</g>
<!-- NormalPath -->
<g id="node11" class="node">
<title>NormalPath</title>
<g id="a_node11"><a xlink:href="inet.examples.sctp.cmttest.NormalPath.html" xlink:title="Channel NormalPath" target="_parent">
<polygon fill="#d0ffd0" stroke="black" points="850.5,-19 776.5,-19 776.5,0 850.5,0 850.5,-19"/>
<text text-anchor="middle" x="813.5" y="-7" font-family="Helvetica,sans-Serif" font-size="10.00">NormalPath</text>
</a>
</g>
</g>
<!-- DatarateChannel&#45;&gt;NormalPath -->
<g id="edge11" class="edge">
<title>DatarateChannel&#45;&gt;NormalPath</title>
<path fill="none" stroke="black" d="M496.1,-57.33C559.25,-49.31 671.69,-34.48 767.5,-19 770.39,-18.53 773.37,-18.03 776.37,-17.51"/>
</g>
<!-- ThruputMeteringChannel -->
<g id="node12" class="node">
<title>ThruputMeteringChannel</title>
<g id="a_node12"><a xlink:href="inet.common.misc.ThruputMeteringChannel.html" xlink:title="Channel ThruputMeteringChannel" target="_parent">
<polygon fill="#d0ffd0" stroke="black" points="1006,-19 869,-19 869,0 1006,0 1006,-19"/>
<text text-anchor="middle" x="937.5" y="-7" font-family="Helvetica,sans-Serif" font-size="10.00">ThruputMeteringChannel</text>
</a>
</g>
</g>
<!-- DatarateChannel&#45;&gt;ThruputMeteringChannel -->
<g id="edge12" class="edge">
<title>DatarateChannel&#45;&gt;ThruputMeteringChannel</title>
<path fill="none" stroke="black" d="M496.09,-58.18C573.63,-49.85 728.3,-33.22 859.5,-19 862.48,-18.68 865.52,-18.35 868.6,-18.01"/>
</g>
</g>
</svg>
