<?xml version="1.0" encoding="UTF-8" standalone="no"?>
<!DOCTYPE svg PUBLIC "-//W3C//DTD SVG 1.1//EN"
 "http://www.w3.org/Graphics/SVG/1.1/DTD/svg11.dtd">
<!-- Generated by graphviz version 2.43.0 (0)
 -->
<!-- Title: opp Pages: 1 -->
<svg width="196pt" height="82pt"
 viewBox="0.00 0.00 195.50 82.00" xmlns="http://www.w3.org/2000/svg" xmlns:xlink="http://www.w3.org/1999/xlink">
<g id="graph0" class="graph" transform="scale(1 1) rotate(0) translate(4 78)">
<title>opp</title>
<polygon fill="transparent" stroke="transparent" points="-4,4 -4,-78 191.5,-78 191.5,4 -4,4"/>
<!-- Ipv4OptionTimestamp -->
<g id="node1" class="node">
<title>Ipv4OptionTimestamp</title>
<g id="a_node1"><a xlink:href="src-inet-networklayer-ipv4-Ipv4OptionTimestamp.html" xlink:title="Class Ipv4OptionTimestamp" target="_parent">
<polygon fill="#fff700" stroke="black" points="159.5,-74 34.5,-74 34.5,-55 159.5,-55 159.5,-74"/>
<text text-anchor="middle" x="97" y="-62" font-family="Helvetica,sans-Serif" font-size="10.00">Ipv4OptionTimestamp</text>
</a>
</g>
</g>
<!-- TimestampFlag -->
<g id="node2" class="node">
<title>TimestampFlag</title>
<g id="a_node2"><a xlink:href="src-inet-networklayer-ipv4-TimestampFlag.html" xlink:title="Enum TimestampFlag" target="_parent">
<polygon fill="#d0ffd0" stroke="black" points="92,-19 0,-19 0,0 92,0 92,-19"/>
<text text-anchor="middle" x="46" y="-7" font-family="Helvetica,sans-Serif" font-size="10.00">TimestampFlag</text>
</a>
</g>
</g>
<!-- Ipv4OptionTimestamp&#45;&gt;TimestampFlag -->
<g id="edge1" class="edge">
<title>Ipv4OptionTimestamp&#45;&gt;TimestampFlag</title>
<path fill="none" stroke="black" d="M88.58,-54.75C81.23,-47.11 70.37,-35.82 61.46,-26.56"/>
<polygon fill="black" stroke="black" points="63.72,-23.87 54.26,-19.09 58.68,-28.72 63.72,-23.87"/>
</g>
<!-- Ipv4Address -->
<g id="node3" class="node">
<title>Ipv4Address</title>
<g id="a_node3"><a xlink:href="src-inet-networklayer-contract-ipv4-Ipv4Address.html" xlink:title="Class Ipv4Address" target="_parent">
<polygon fill="#fffcaf" stroke="black" points="187.5,-19 110.5,-19 110.5,0 187.5,0 187.5,-19"/>
<text text-anchor="middle" x="149" y="-7" font-family="Helvetica,sans-Serif" font-size="10.00">Ipv4Address</text>
</a>
</g>
</g>
<!-- Ipv4OptionTimestamp&#45;&gt;Ipv4Address -->
<g id="edge2" class="edge">
<title>Ipv4OptionTimestamp&#45;&gt;Ipv4Address</title>
<path fill="none" stroke="black" d="M105.59,-54.75C113.16,-47.03 124.38,-35.6 133.51,-26.28"/>
<polygon fill="black" stroke="black" points="136.07,-28.68 140.57,-19.09 131.07,-23.78 136.07,-28.68"/>
</g>
</g>
</svg>
