<?xml version="1.0" encoding="UTF-8" standalone="no"?>
<!DOCTYPE svg PUBLIC "-//W3C//DTD SVG 1.1//EN"
 "http://www.w3.org/Graphics/SVG/1.1/DTD/svg11.dtd">
<!-- Generated by graphviz version 2.43.0 (0)
 -->
<!-- Title: opp Pages: 1 -->
<svg width="295pt" height="137pt"
 viewBox="0.00 0.00 294.50 137.00" xmlns="http://www.w3.org/2000/svg" xmlns:xlink="http://www.w3.org/1999/xlink">
<g id="graph0" class="graph" transform="scale(1 1) rotate(0) translate(4 133)">
<title>opp</title>
<polygon fill="transparent" stroke="transparent" points="-4,4 -4,-133 290.5,-133 290.5,4 -4,4"/>
<!-- EthernetPhyHeaderBase -->
<g id="node1" class="node">
<title>EthernetPhyHeaderBase</title>
<g id="a_node1"><a xlink:href="src-inet-physicallayer-wired-ethernet-EthernetPhyHeaderBase.html" xlink:title="Class EthernetPhyHeaderBase" target="_parent">
<polygon fill="#fff700" stroke="black" points="222.5,-74 87.5,-74 87.5,-55 222.5,-55 222.5,-74"/>
<text text-anchor="middle" x="155" y="-62" font-family="Helvetica,sans-Serif" font-size="10.00">EthernetPhyHeaderBase</text>
</a>
</g>
</g>
<!-- EthernetFragmentPhyHeader -->
<g id="node3" class="node">
<title>EthernetFragmentPhyHeader</title>
<g id="a_node3"><a xlink:href="src-inet-physicallayer-wired-ethernet-EthernetFragmentPhyHeader.html" xlink:title="Class EthernetFragmentPhyHeader" target="_parent">
<polygon fill="#fffcaf" stroke="black" points="158,-19 0,-19 0,0 158,0 158,-19"/>
<text text-anchor="middle" x="79" y="-7" font-family="Helvetica,sans-Serif" font-size="10.00">EthernetFragmentPhyHeader</text>
</a>
</g>
</g>
<!-- EthernetPhyHeaderBase&#45;&gt;EthernetFragmentPhyHeader -->
<g id="edge2" class="edge">
<title>EthernetPhyHeaderBase&#45;&gt;EthernetFragmentPhyHeader</title>
<path fill="none" stroke="black" d="M142.79,-54.98C128.69,-45.15 105.62,-29.07 91.43,-19.17"/>
</g>
<!-- EthernetPhyHeader -->
<g id="node4" class="node">
<title>EthernetPhyHeader</title>
<g id="a_node4"><a xlink:href="src-inet-physicallayer-wired-ethernet-EthernetPhyHeader.html" xlink:title="Class EthernetPhyHeader" target="_parent">
<polygon fill="#fffcaf" stroke="black" points="286.5,-19 175.5,-19 175.5,0 286.5,0 286.5,-19"/>
<text text-anchor="middle" x="231" y="-7" font-family="Helvetica,sans-Serif" font-size="10.00">EthernetPhyHeader</text>
</a>
</g>
</g>
<!-- EthernetPhyHeaderBase&#45;&gt;EthernetPhyHeader -->
<g id="edge3" class="edge">
<title>EthernetPhyHeaderBase&#45;&gt;EthernetPhyHeader</title>
<path fill="none" stroke="black" d="M167.21,-54.98C181.31,-45.15 204.38,-29.07 218.57,-19.17"/>
</g>
<!-- FieldsChunk -->
<g id="node2" class="node">
<title>FieldsChunk</title>
<g id="a_node2"><a xlink:href="src-inet-common-packet-chunk-FieldsChunk.html" xlink:title="Class FieldsChunk" target="_parent">
<polygon fill="#fffcaf" stroke="black" points="192.5,-129 117.5,-129 117.5,-110 192.5,-110 192.5,-129"/>
<text text-anchor="middle" x="155" y="-117" font-family="Helvetica,sans-Serif" font-size="10.00">FieldsChunk</text>
</a>
</g>
</g>
<!-- FieldsChunk&#45;&gt;EthernetPhyHeaderBase -->
<g id="edge1" class="edge">
<title>FieldsChunk&#45;&gt;EthernetPhyHeaderBase</title>
<path fill="none" stroke="black" d="M155,-109.75C155,-99.87 155,-83.9 155,-74.09"/>
</g>
</g>
</svg>
