<?xml version="1.0" encoding="UTF-8" standalone="no"?>
<!DOCTYPE svg PUBLIC "-//W3C//DTD SVG 1.1//EN"
 "http://www.w3.org/Graphics/SVG/1.1/DTD/svg11.dtd">
<!-- Generated by graphviz version 2.43.0 (0)
 -->
<!-- Title: opp Pages: 1 -->
<svg width="148pt" height="82pt"
 viewBox="0.00 0.00 147.50 82.00" xmlns="http://www.w3.org/2000/svg" xmlns:xlink="http://www.w3.org/1999/xlink">
<g id="graph0" class="graph" transform="scale(1 1) rotate(0) translate(4 78)">
<title>opp</title>
<polygon fill="transparent" stroke="transparent" points="-4,4 -4,-78 143.5,-78 143.5,4 -4,4"/>
<!-- GpsrBeacon -->
<g id="node1" class="node">
<title>GpsrBeacon</title>
<g id="a_node1"><a xlink:href="src-inet-routing-gpsr-GpsrBeacon.html" xlink:title="Class GpsrBeacon" target="_parent">
<polygon fill="#fff700" stroke="black" points="103.5,-74 28.5,-74 28.5,-55 103.5,-55 103.5,-74"/>
<text text-anchor="middle" x="66" y="-62" font-family="Helvetica,sans-Serif" font-size="10.00">GpsrBeacon</text>
</a>
</g>
</g>
<!-- Coord -->
<g id="node2" class="node">
<title>Coord</title>
<g id="a_node2"><a xlink:href="src-inet-common-geometry-Coord.html" xlink:title="Class Coord" target="_parent">
<polygon fill="#fffcaf" stroke="black" points="54,-19 0,-19 0,0 54,0 54,-19"/>
<text text-anchor="middle" x="27" y="-7" font-family="Helvetica,sans-Serif" font-size="10.00">Coord</text>
</a>
</g>
</g>
<!-- GpsrBeacon&#45;&gt;Coord -->
<g id="edge1" class="edge">
<title>GpsrBeacon&#45;&gt;Coord</title>
<path fill="none" stroke="black" d="M59.56,-54.75C54.11,-47.34 46.14,-36.5 39.44,-27.41"/>
<polygon fill="black" stroke="black" points="42.07,-25.07 33.32,-19.09 36.43,-29.22 42.07,-25.07"/>
</g>
<!-- L3Address -->
<g id="node3" class="node">
<title>L3Address</title>
<g id="a_node3"><a xlink:href="src-inet-networklayer-common-L3Address.html" xlink:title="Class L3Address" target="_parent">
<polygon fill="#fffcaf" stroke="black" points="139.5,-19 72.5,-19 72.5,0 139.5,0 139.5,-19"/>
<text text-anchor="middle" x="106" y="-7" font-family="Helvetica,sans-Serif" font-size="10.00">L3Address</text>
</a>
</g>
</g>
<!-- GpsrBeacon&#45;&gt;L3Address -->
<g id="edge2" class="edge">
<title>GpsrBeacon&#45;&gt;L3Address</title>
<path fill="none" stroke="black" d="M72.61,-54.75C78.26,-47.26 86.54,-36.28 93.45,-27.13"/>
<polygon fill="black" stroke="black" points="96.29,-29.18 99.52,-19.09 90.7,-24.96 96.29,-29.18"/>
</g>
</g>
</svg>
