<?xml version="1.0" encoding="UTF-8" standalone="no"?>
<!DOCTYPE svg PUBLIC "-//W3C//DTD SVG 1.1//EN"
 "http://www.w3.org/Graphics/SVG/1.1/DTD/svg11.dtd">
<!-- Generated by graphviz version 2.43.0 (0)
 -->
<!-- Title: opp Pages: 1 -->
<svg width="180pt" height="137pt"
 viewBox="0.00 0.00 179.50 137.00" xmlns="http://www.w3.org/2000/svg" xmlns:xlink="http://www.w3.org/1999/xlink">
<g id="graph0" class="graph" transform="scale(1 1) rotate(0) translate(4 133)">
<title>opp</title>
<polygon fill="transparent" stroke="transparent" points="-4,4 -4,-133 175.5,-133 175.5,4 -4,4"/>
<!-- NetworkInterface -->
<g id="node1" class="node">
<title>NetworkInterface</title>
<g id="a_node1"><a xlink:href="src-inet-networklayer-common-NetworkInterface.html" xlink:title="Class NetworkInterface" target="_parent">
<polygon fill="#fff700" stroke="black" points="135.5,-74 34.5,-74 34.5,-55 135.5,-55 135.5,-74"/>
<text text-anchor="middle" x="85" y="-62" font-family="Helvetica,sans-Serif" font-size="10.00">NetworkInterface</text>
</a>
</g>
</g>
<!-- MacAddress -->
<g id="node2" class="node">
<title>MacAddress</title>
<g id="a_node2"><a xlink:href="src-inet-linklayer-common-MacAddress.html" xlink:title="Class MacAddress" target="_parent">
<polygon fill="#fffcaf" stroke="black" points="76,-19 0,-19 0,0 76,0 76,-19"/>
<text text-anchor="middle" x="38" y="-7" font-family="Helvetica,sans-Serif" font-size="10.00">MacAddress</text>
</a>
</g>
</g>
<!-- NetworkInterface&#45;&gt;MacAddress -->
<g id="edge1" class="edge">
<title>NetworkInterface&#45;&gt;MacAddress</title>
<path fill="none" stroke="black" d="M77.24,-54.75C70.53,-47.18 60.66,-36.05 52.49,-26.84"/>
<polygon fill="black" stroke="black" points="54.87,-24.25 45.62,-19.09 49.63,-28.89 54.87,-24.25"/>
</g>
<!-- Ipv4Address -->
<g id="node3" class="node">
<title>Ipv4Address</title>
<g id="a_node3"><a xlink:href="src-inet-networklayer-contract-ipv4-Ipv4Address.html" xlink:title="Class Ipv4Address" target="_parent">
<polygon fill="#fffcaf" stroke="black" points="171.5,-19 94.5,-19 94.5,0 171.5,0 171.5,-19"/>
<text text-anchor="middle" x="133" y="-7" font-family="Helvetica,sans-Serif" font-size="10.00">Ipv4Address</text>
</a>
</g>
</g>
<!-- NetworkInterface&#45;&gt;Ipv4Address -->
<g id="edge2" class="edge">
<title>NetworkInterface&#45;&gt;Ipv4Address</title>
<path fill="none" stroke="black" d="M92.93,-54.75C99.85,-47.11 110.07,-35.82 118.45,-26.56"/>
<polygon fill="black" stroke="black" points="121.1,-28.85 125.22,-19.09 115.91,-24.15 121.1,-28.85"/>
</g>
<!-- PacketDrop -->
<g id="node4" class="node">
<title>PacketDrop</title>
<g id="a_node4"><a xlink:href="src-inet-visualizer-base-PacketDrop.html" xlink:title="Class PacketDrop" target="_parent">
<polygon fill="#fffcaf" stroke="black" points="121,-129 49,-129 49,-110 121,-110 121,-129"/>
<text text-anchor="middle" x="85" y="-117" font-family="Helvetica,sans-Serif" font-size="10.00">PacketDrop</text>
</a>
</g>
</g>
<!-- PacketDrop&#45;&gt;NetworkInterface -->
<g id="edge3" class="edge">
<title>PacketDrop&#45;&gt;NetworkInterface</title>
<path fill="none" stroke="black" d="M85,-109.75C85,-102.8 85,-92.85 85,-84.13"/>
<polygon fill="black" stroke="black" points="88.5,-84.09 85,-74.09 81.5,-84.09 88.5,-84.09"/>
</g>
</g>
</svg>
