<?xml version="1.0" encoding="UTF-8" standalone="no"?>
<!DOCTYPE svg PUBLIC "-//W3C//DTD SVG 1.1//EN"
 "http://www.w3.org/Graphics/SVG/1.1/DTD/svg11.dtd">
<!-- Generated by graphviz version 2.43.0 (0)
 -->
<!-- Title: opp Pages: 1 -->
<svg width="172pt" height="137pt"
 viewBox="0.00 0.00 172.00 137.00" xmlns="http://www.w3.org/2000/svg" xmlns:xlink="http://www.w3.org/1999/xlink">
<g id="graph0" class="graph" transform="scale(1 1) rotate(0) translate(4 133)">
<title>opp</title>
<polygon fill="transparent" stroke="transparent" points="-4,4 -4,-133 168,-133 168,4 -4,4"/>
<!-- Ospfv3InterAreaPrefixLsa -->
<g id="node1" class="node">
<title>Ospfv3InterAreaPrefixLsa</title>
<g id="a_node1"><a xlink:href="src-inet-routing-ospfv3-Ospfv3InterAreaPrefixLsa.html" xlink:title="Class Ospfv3InterAreaPrefixLsa" target="_parent">
<polygon fill="#fff700" stroke="black" points="152.5,-74 11.5,-74 11.5,-55 152.5,-55 152.5,-74"/>
<text text-anchor="middle" x="82" y="-62" font-family="Helvetica,sans-Serif" font-size="10.00">Ospfv3InterAreaPrefixLsa</text>
</a>
</g>
</g>
<!-- Ospfv3LsaPrefix0 -->
<g id="node2" class="node">
<title>Ospfv3LsaPrefix0</title>
<g id="a_node2"><a xlink:href="src-inet-routing-ospfv3-Ospfv3LsaPrefix0.html" xlink:title="Struct Ospfv3LsaPrefix0" target="_parent">
<polygon fill="#d0d0ff" stroke="black" points="133,-19 31,-19 31,0 133,0 133,-19"/>
<text text-anchor="middle" x="82" y="-7" font-family="Helvetica,sans-Serif" font-size="10.00">Ospfv3LsaPrefix0</text>
</a>
</g>
</g>
<!-- Ospfv3InterAreaPrefixLsa&#45;&gt;Ospfv3LsaPrefix0 -->
<g id="edge1" class="edge">
<title>Ospfv3InterAreaPrefixLsa&#45;&gt;Ospfv3LsaPrefix0</title>
<path fill="none" stroke="black" d="M82,-54.75C82,-47.8 82,-37.85 82,-29.13"/>
<polygon fill="black" stroke="black" points="85.5,-29.09 82,-19.09 78.5,-29.09 85.5,-29.09"/>
</g>
<!-- Ospfv3LinkStateUpdatePacket -->
<g id="node3" class="node">
<title>Ospfv3LinkStateUpdatePacket</title>
<g id="a_node3"><a xlink:href="src-inet-routing-ospfv3-Ospfv3LinkStateUpdatePacket.html" xlink:title="Class Ospfv3LinkStateUpdatePacket" target="_parent">
<polygon fill="#fffcaf" stroke="black" points="164,-129 0,-129 0,-110 164,-110 164,-129"/>
<text text-anchor="middle" x="82" y="-117" font-family="Helvetica,sans-Serif" font-size="10.00">Ospfv3LinkStateUpdatePacket</text>
</a>
</g>
</g>
<!-- Ospfv3LinkStateUpdatePacket&#45;&gt;Ospfv3InterAreaPrefixLsa -->
<g id="edge2" class="edge">
<title>Ospfv3LinkStateUpdatePacket&#45;&gt;Ospfv3InterAreaPrefixLsa</title>
<path fill="none" stroke="black" d="M82,-109.75C82,-102.8 82,-92.85 82,-84.13"/>
<polygon fill="black" stroke="black" points="85.5,-84.09 82,-74.09 78.5,-84.09 85.5,-84.09"/>
</g>
</g>
</svg>
