<?xml version="1.0" encoding="UTF-8" standalone="no"?>
<!DOCTYPE svg PUBLIC "-//W3C//DTD SVG 1.1//EN"
 "http://www.w3.org/Graphics/SVG/1.1/DTD/svg11.dtd">
<!-- Generated by graphviz version 2.43.0 (0)
 -->
<!-- Title: opp Pages: 1 -->
<svg width="296pt" height="137pt"
 viewBox="0.00 0.00 296.00 137.00" xmlns="http://www.w3.org/2000/svg" xmlns:xlink="http://www.w3.org/1999/xlink">
<g id="graph0" class="graph" transform="scale(1 1) rotate(0) translate(4 133)">
<title>opp</title>
<polygon fill="transparent" stroke="transparent" points="-4,4 -4,-133 292,-133 292,4 -4,4"/>
<!-- SocketBindCommand -->
<g id="node1" class="node">
<title>SocketBindCommand</title>
<g id="a_node1"><a xlink:href="src-inet-common-socket-SocketBindCommand.html" xlink:title="Class SocketBindCommand" target="_parent">
<polygon fill="#fff700" stroke="black" points="201.5,-74 80.5,-74 80.5,-55 201.5,-55 201.5,-74"/>
<text text-anchor="middle" x="141" y="-62" font-family="Helvetica,sans-Serif" font-size="10.00">SocketBindCommand</text>
</a>
</g>
</g>
<!-- EthernetBindCommand -->
<g id="node3" class="node">
<title>EthernetBindCommand</title>
<g id="a_node3"><a xlink:href="src-inet-linklayer-ethernet-common-EthernetBindCommand.html" xlink:title="Class EthernetBindCommand" target="_parent">
<polygon fill="#fffcaf" stroke="black" points="130,-19 0,-19 0,0 130,0 130,-19"/>
<text text-anchor="middle" x="65" y="-7" font-family="Helvetica,sans-Serif" font-size="10.00">EthernetBindCommand</text>
</a>
</g>
</g>
<!-- SocketBindCommand&#45;&gt;EthernetBindCommand -->
<g id="edge2" class="edge">
<title>SocketBindCommand&#45;&gt;EthernetBindCommand</title>
<path fill="none" stroke="black" d="M128.79,-54.98C114.69,-45.15 91.62,-29.07 77.43,-19.17"/>
</g>
<!-- Ieee8021qBindCommand -->
<g id="node4" class="node">
<title>Ieee8021qBindCommand</title>
<g id="a_node4"><a xlink:href="src-inet-linklayer-ieee8021q-Ieee8021qBindCommand.html" xlink:title="Class Ieee8021qBindCommand" target="_parent">
<polygon fill="#fffcaf" stroke="black" points="288,-19 148,-19 148,0 288,0 288,-19"/>
<text text-anchor="middle" x="218" y="-7" font-family="Helvetica,sans-Serif" font-size="10.00">Ieee8021qBindCommand</text>
</a>
</g>
</g>
<!-- SocketBindCommand&#45;&gt;Ieee8021qBindCommand -->
<g id="edge3" class="edge">
<title>SocketBindCommand&#45;&gt;Ieee8021qBindCommand</title>
<path fill="none" stroke="black" d="M153.37,-54.98C167.66,-45.15 191.02,-29.07 205.4,-19.17"/>
</g>
<!-- SocketCommandBase -->
<g id="node2" class="node">
<title>SocketCommandBase</title>
<g id="a_node2"><a xlink:href="src-inet-common-socket-SocketCommandBase.html" xlink:title="Class SocketCommandBase" target="_parent">
<polygon fill="#fffcaf" stroke="black" points="202.5,-129 79.5,-129 79.5,-110 202.5,-110 202.5,-129"/>
<text text-anchor="middle" x="141" y="-117" font-family="Helvetica,sans-Serif" font-size="10.00">SocketCommandBase</text>
</a>
</g>
</g>
<!-- SocketCommandBase&#45;&gt;SocketBindCommand -->
<g id="edge1" class="edge">
<title>SocketCommandBase&#45;&gt;SocketBindCommand</title>
<path fill="none" stroke="black" d="M141,-109.75C141,-99.87 141,-83.9 141,-74.09"/>
</g>
</g>
</svg>
