<?xml version="1.0" encoding="UTF-8" standalone="no"?>
<!DOCTYPE svg PUBLIC "-//W3C//DTD SVG 1.1//EN"
 "http://www.w3.org/Graphics/SVG/1.1/DTD/svg11.dtd">
<!-- Generated by graphviz version 2.43.0 (0)
 -->
<!-- Title: opp Pages: 1 -->
<svg width="778pt" height="82pt"
 viewBox="0.00 0.00 778.00 82.00" xmlns="http://www.w3.org/2000/svg" xmlns:xlink="http://www.w3.org/1999/xlink">
<g id="graph0" class="graph" transform="scale(1 1) rotate(0) translate(4 78)">
<title>opp</title>
<polygon fill="transparent" stroke="transparent" points="-4,4 -4,-78 774,-78 774,4 -4,4"/>
<!-- SocketCommandBase -->
<g id="node1" class="node">
<title>SocketCommandBase</title>
<g id="a_node1"><a xlink:href="src-inet-common-socket-SocketCommandBase.html" xlink:title="Class SocketCommandBase" target="_parent">
<polygon fill="#fff700" stroke="black" points="465,-74 342,-74 342,-55 465,-55 465,-74"/>
<text text-anchor="middle" x="403.5" y="-62" font-family="Helvetica,sans-Serif" font-size="10.00">SocketCommandBase</text>
</a>
</g>
</g>
<!-- Ieee8022LlcSocketOpenCommand -->
<g id="node2" class="node">
<title>Ieee8022LlcSocketOpenCommand</title>
<g id="a_node2"><a xlink:href="src-inet-linklayer-ieee8022-Ieee8022LlcSocketOpenCommand.html" xlink:title="Class Ieee8022LlcSocketOpenCommand" target="_parent">
<polygon fill="#fffcaf" stroke="black" points="183,-19 0,-19 0,0 183,0 183,-19"/>
<text text-anchor="middle" x="91.5" y="-7" font-family="Helvetica,sans-Serif" font-size="10.00">Ieee8022LlcSocketOpenCommand</text>
</a>
</g>
</g>
<!-- SocketCommandBase&#45;&gt;Ieee8022LlcSocketOpenCommand -->
<g id="edge1" class="edge">
<title>SocketCommandBase&#45;&gt;Ieee8022LlcSocketOpenCommand</title>
<path fill="none" stroke="black" d="M353.37,-54.98C295.24,-45.11 199.96,-28.92 141.76,-19.04"/>
</g>
<!-- SocketBindCommand -->
<g id="node3" class="node">
<title>SocketBindCommand</title>
<g id="a_node3"><a xlink:href="src-inet-common-socket-SocketBindCommand.html" xlink:title="Class SocketBindCommand" target="_parent">
<polygon fill="#fffcaf" stroke="black" points="322,-19 201,-19 201,0 322,0 322,-19"/>
<text text-anchor="middle" x="261.5" y="-7" font-family="Helvetica,sans-Serif" font-size="10.00">SocketBindCommand</text>
</a>
</g>
</g>
<!-- SocketCommandBase&#45;&gt;SocketBindCommand -->
<g id="edge2" class="edge">
<title>SocketCommandBase&#45;&gt;SocketBindCommand</title>
<path fill="none" stroke="black" d="M380.69,-54.98C354.34,-45.15 311.25,-29.07 284.73,-19.17"/>
</g>
<!-- SocketCloseCommand -->
<g id="node4" class="node">
<title>SocketCloseCommand</title>
<g id="a_node4"><a xlink:href="src-inet-common-socket-SocketCloseCommand.html" xlink:title="Class SocketCloseCommand" target="_parent">
<polygon fill="#fffcaf" stroke="black" points="466.5,-19 340.5,-19 340.5,0 466.5,0 466.5,-19"/>
<text text-anchor="middle" x="403.5" y="-7" font-family="Helvetica,sans-Serif" font-size="10.00">SocketCloseCommand</text>
</a>
</g>
</g>
<!-- SocketCommandBase&#45;&gt;SocketCloseCommand -->
<g id="edge3" class="edge">
<title>SocketCommandBase&#45;&gt;SocketCloseCommand</title>
<path fill="none" stroke="black" d="M403.5,-54.75C403.5,-44.87 403.5,-28.9 403.5,-19.09"/>
</g>
<!-- SocketClosedIndication -->
<g id="node5" class="node">
<title>SocketClosedIndication</title>
<g id="a_node5"><a xlink:href="src-inet-common-socket-SocketClosedIndication.html" xlink:title="Class SocketClosedIndication" target="_parent">
<polygon fill="#fffcaf" stroke="black" points="614.5,-19 484.5,-19 484.5,0 614.5,0 614.5,-19"/>
<text text-anchor="middle" x="549.5" y="-7" font-family="Helvetica,sans-Serif" font-size="10.00">SocketClosedIndication</text>
</a>
</g>
</g>
<!-- SocketCommandBase&#45;&gt;SocketClosedIndication -->
<g id="edge4" class="edge">
<title>SocketCommandBase&#45;&gt;SocketClosedIndication</title>
<path fill="none" stroke="black" d="M426.96,-54.98C454.04,-45.15 498.35,-29.07 525.62,-19.17"/>
</g>
<!-- SocketDestroyCommand -->
<g id="node6" class="node">
<title>SocketDestroyCommand</title>
<g id="a_node6"><a xlink:href="src-inet-common-socket-SocketDestroyCommand.html" xlink:title="Class SocketDestroyCommand" target="_parent">
<polygon fill="#fffcaf" stroke="black" points="770,-19 633,-19 633,0 770,0 770,-19"/>
<text text-anchor="middle" x="701.5" y="-7" font-family="Helvetica,sans-Serif" font-size="10.00">SocketDestroyCommand</text>
</a>
</g>
</g>
<!-- SocketCommandBase&#45;&gt;SocketDestroyCommand -->
<g id="edge5" class="edge">
<title>SocketCommandBase&#45;&gt;SocketDestroyCommand</title>
<path fill="none" stroke="black" d="M451.38,-54.98C506.82,-45.12 597.64,-28.97 653.25,-19.08"/>
</g>
</g>
</svg>
