<?xml version="1.0" encoding="UTF-8" standalone="no"?>
<!DOCTYPE svg PUBLIC "-//W3C//DTD SVG 1.1//EN"
 "http://www.w3.org/Graphics/SVG/1.1/DTD/svg11.dtd">
<!-- Generated by graphviz version 2.43.0 (0)
 -->
<!-- Title: opp Pages: 1 -->
<svg width="138pt" height="137pt"
 viewBox="0.00 0.00 138.00 137.00" xmlns="http://www.w3.org/2000/svg" xmlns:xlink="http://www.w3.org/1999/xlink">
<g id="graph0" class="graph" transform="scale(1 1) rotate(0) translate(4 133)">
<title>opp</title>
<polygon fill="transparent" stroke="transparent" points="-4,4 -4,-133 134,-133 134,4 -4,4"/>
<!-- EncodedSourceAddress -->
<g id="node1" class="node">
<title>EncodedSourceAddress</title>
<g id="a_node1"><a xlink:href="src-inet-routing-pim-EncodedSourceAddress.html" xlink:title="Struct EncodedSourceAddress" target="_parent">
<polygon fill="#9090ff" stroke="black" points="130,-74 0,-74 0,-55 130,-55 130,-74"/>
<text text-anchor="middle" x="65" y="-62" font-family="Helvetica,sans-Serif" font-size="10.00">EncodedSourceAddress</text>
</a>
</g>
</g>
<!-- L3Address -->
<g id="node2" class="node">
<title>L3Address</title>
<g id="a_node2"><a xlink:href="src-inet-networklayer-common-L3Address.html" xlink:title="Class L3Address" target="_parent">
<polygon fill="#fffcaf" stroke="black" points="98.5,-19 31.5,-19 31.5,0 98.5,0 98.5,-19"/>
<text text-anchor="middle" x="65" y="-7" font-family="Helvetica,sans-Serif" font-size="10.00">L3Address</text>
</a>
</g>
</g>
<!-- EncodedSourceAddress&#45;&gt;L3Address -->
<g id="edge1" class="edge">
<title>EncodedSourceAddress&#45;&gt;L3Address</title>
<path fill="none" stroke="black" d="M65,-54.75C65,-47.8 65,-37.85 65,-29.13"/>
<polygon fill="black" stroke="black" points="68.5,-29.09 65,-19.09 61.5,-29.09 68.5,-29.09"/>
</g>
<!-- JoinPruneGroup -->
<g id="node3" class="node">
<title>JoinPruneGroup</title>
<g id="a_node3"><a xlink:href="src-inet-routing-pim-JoinPruneGroup.html" xlink:title="Class JoinPruneGroup" target="_parent">
<polygon fill="#fffcaf" stroke="black" points="111,-129 19,-129 19,-110 111,-110 111,-129"/>
<text text-anchor="middle" x="65" y="-117" font-family="Helvetica,sans-Serif" font-size="10.00">JoinPruneGroup</text>
</a>
</g>
</g>
<!-- JoinPruneGroup&#45;&gt;EncodedSourceAddress -->
<g id="edge2" class="edge">
<title>JoinPruneGroup&#45;&gt;EncodedSourceAddress</title>
<path fill="none" stroke="black" d="M65,-109.75C65,-102.8 65,-92.85 65,-84.13"/>
<polygon fill="black" stroke="black" points="68.5,-84.09 65,-74.09 61.5,-84.09 68.5,-84.09"/>
</g>
</g>
</svg>
