<?xml version="1.0" encoding="UTF-8" standalone="no"?>
<!DOCTYPE svg PUBLIC "-//W3C//DTD SVG 1.1//EN"
 "http://www.w3.org/Graphics/SVG/1.1/DTD/svg11.dtd">
<!-- Generated by graphviz version 2.43.0 (0)
 -->
<!-- Title: opp Pages: 1 -->
<svg width="214pt" height="137pt"
 viewBox="0.00 0.00 213.50 137.00" xmlns="http://www.w3.org/2000/svg" xmlns:xlink="http://www.w3.org/1999/xlink">
<g id="graph0" class="graph" transform="scale(1 1) rotate(0) translate(4 133)">
<title>opp</title>
<polygon fill="transparent" stroke="transparent" points="-4,4 -4,-133 209.5,-133 209.5,4 -4,4"/>
<!-- SignalPowerTagBase -->
<g id="node1" class="node">
<title>SignalPowerTagBase</title>
<g id="a_node1"><a xlink:href="src-inet-physicallayer-wireless-common-contract-packetlevel-SignalPowerTagBase.html" xlink:title="Class SignalPowerTagBase" target="_parent">
<polygon fill="#fff700" stroke="black" points="160.5,-74 43.5,-74 43.5,-55 160.5,-55 160.5,-74"/>
<text text-anchor="middle" x="102" y="-62" font-family="Helvetica,sans-Serif" font-size="10.00">SignalPowerTagBase</text>
</a>
</g>
</g>
<!-- SignalPowerInd -->
<g id="node3" class="node">
<title>SignalPowerInd</title>
<g id="a_node3"><a xlink:href="src-inet-physicallayer-wireless-common-contract-packetlevel-SignalPowerInd.html" xlink:title="Class SignalPowerInd" target="_parent">
<polygon fill="#fffcaf" stroke="black" points="92,-19 0,-19 0,0 92,0 92,-19"/>
<text text-anchor="middle" x="46" y="-7" font-family="Helvetica,sans-Serif" font-size="10.00">SignalPowerInd</text>
</a>
</g>
</g>
<!-- SignalPowerTagBase&#45;&gt;SignalPowerInd -->
<g id="edge2" class="edge">
<title>SignalPowerTagBase&#45;&gt;SignalPowerInd</title>
<path fill="none" stroke="black" d="M93,-54.98C82.61,-45.15 65.62,-29.07 55.16,-19.17"/>
</g>
<!-- SignalPowerReq -->
<g id="node4" class="node">
<title>SignalPowerReq</title>
<g id="a_node4"><a xlink:href="src-inet-physicallayer-wireless-common-contract-packetlevel-SignalPowerReq.html" xlink:title="Class SignalPowerReq" target="_parent">
<polygon fill="#fffcaf" stroke="black" points="205.5,-19 110.5,-19 110.5,0 205.5,0 205.5,-19"/>
<text text-anchor="middle" x="158" y="-7" font-family="Helvetica,sans-Serif" font-size="10.00">SignalPowerReq</text>
</a>
</g>
</g>
<!-- SignalPowerTagBase&#45;&gt;SignalPowerReq -->
<g id="edge3" class="edge">
<title>SignalPowerTagBase&#45;&gt;SignalPowerReq</title>
<path fill="none" stroke="black" d="M111,-54.98C121.39,-45.15 138.38,-29.07 148.84,-19.17"/>
</g>
<!-- SignalTagBase -->
<g id="node2" class="node">
<title>SignalTagBase</title>
<g id="a_node2"><a xlink:href="src-inet-physicallayer-wireless-common-contract-packetlevel-SignalTagBase.html" xlink:title="Class SignalTagBase" target="_parent">
<polygon fill="#fffcaf" stroke="black" points="145.5,-129 58.5,-129 58.5,-110 145.5,-110 145.5,-129"/>
<text text-anchor="middle" x="102" y="-117" font-family="Helvetica,sans-Serif" font-size="10.00">SignalTagBase</text>
</a>
</g>
</g>
<!-- SignalTagBase&#45;&gt;SignalPowerTagBase -->
<g id="edge1" class="edge">
<title>SignalTagBase&#45;&gt;SignalPowerTagBase</title>
<path fill="none" stroke="black" d="M102,-109.75C102,-99.87 102,-83.9 102,-74.09"/>
</g>
</g>
</svg>
