<?xml version="1.0" encoding="UTF-8" standalone="no"?>
<!DOCTYPE svg PUBLIC "-//W3C//DTD SVG 1.1//EN"
 "http://www.w3.org/Graphics/SVG/1.1/DTD/svg11.dtd">
<!-- Generated by graphviz version 2.43.0 (0)
 -->
<!-- Title: opp Pages: 1 -->
<svg width="298pt" height="82pt"
 viewBox="0.00 0.00 298.00 82.00" xmlns="http://www.w3.org/2000/svg" xmlns:xlink="http://www.w3.org/1999/xlink">
<g id="graph0" class="graph" transform="scale(1 1) rotate(0) translate(4 78)">
<title>opp</title>
<polygon fill="transparent" stroke="transparent" points="-4,4 -4,-78 294,-78 294,4 -4,4"/>
<!-- ConfigureRadioCommand -->
<g id="node1" class="node">
<title>ConfigureRadioCommand</title>
<g id="a_node1"><a xlink:href="src-inet-physicallayer-wireless-common-contract-packetlevel-ConfigureRadioCommand.html" xlink:title="Class ConfigureRadioCommand" target="_parent">
<polygon fill="#fff700" stroke="black" points="226,-74 84,-74 84,-55 226,-55 226,-74"/>
<text text-anchor="middle" x="155" y="-62" font-family="Helvetica,sans-Serif" font-size="10.00">ConfigureRadioCommand</text>
</a>
</g>
</g>
<!-- IModulation -->
<g id="node2" class="node">
<title>IModulation</title>
<g id="a_node2"><a xlink:href="src-inet-physicallayer-wireless-common-contract-packetlevel-IModulation.html" xlink:title="Class IModulation" target="_parent">
<polygon fill="#fffcaf" stroke="black" points="74,-19 0,-19 0,0 74,0 74,-19"/>
<text text-anchor="middle" x="37" y="-7" font-family="Helvetica,sans-Serif" font-size="10.00">IModulation</text>
</a>
</g>
</g>
<!-- ConfigureRadioCommand&#45;&gt;IModulation -->
<g id="edge1" class="edge">
<title>ConfigureRadioCommand&#45;&gt;IModulation</title>
<path fill="none" stroke="black" d="M136.04,-54.98C116.97,-46.42 87.34,-33.11 65.45,-23.28"/>
<polygon fill="black" stroke="black" points="66.86,-20.07 56.3,-19.17 63.99,-26.46 66.86,-20.07"/>
</g>
<!-- bps -->
<g id="node3" class="node">
<title>bps</title>
<g id="a_node3"><a xlink:href="src-inet-common-bps.html" xlink:title="Class bps" target="_parent">
<polygon fill="#fffcaf" stroke="black" points="146,-19 92,-19 92,0 146,0 146,-19"/>
<text text-anchor="middle" x="119" y="-7" font-family="Helvetica,sans-Serif" font-size="10.00">bps</text>
</a>
</g>
</g>
<!-- ConfigureRadioCommand&#45;&gt;bps -->
<g id="edge2" class="edge">
<title>ConfigureRadioCommand&#45;&gt;bps</title>
<path fill="none" stroke="black" d="M149.06,-54.75C144.02,-47.34 136.66,-36.5 130.49,-27.41"/>
<polygon fill="black" stroke="black" points="133.35,-25.39 124.83,-19.09 127.56,-29.33 133.35,-25.39"/>
</g>
<!-- Hz -->
<g id="node4" class="node">
<title>Hz</title>
<g id="a_node4"><a xlink:href="src-inet-common-Hz.html" xlink:title="Class Hz" target="_parent">
<polygon fill="#fffcaf" stroke="black" points="218,-19 164,-19 164,0 218,0 218,-19"/>
<text text-anchor="middle" x="191" y="-7" font-family="Helvetica,sans-Serif" font-size="10.00">Hz</text>
</a>
</g>
</g>
<!-- ConfigureRadioCommand&#45;&gt;Hz -->
<g id="edge3" class="edge">
<title>ConfigureRadioCommand&#45;&gt;Hz</title>
<path fill="none" stroke="black" d="M160.94,-54.75C165.98,-47.34 173.34,-36.5 179.51,-27.41"/>
<polygon fill="black" stroke="black" points="182.44,-29.33 185.17,-19.09 176.65,-25.39 182.44,-29.33"/>
</g>
<!-- W -->
<g id="node5" class="node">
<title>W</title>
<g id="a_node5"><a xlink:href="src-inet-common-W.html" xlink:title="Class W" target="_parent">
<polygon fill="#fffcaf" stroke="black" points="290,-19 236,-19 236,0 290,0 290,-19"/>
<text text-anchor="middle" x="263" y="-7" font-family="Helvetica,sans-Serif" font-size="10.00">W</text>
</a>
</g>
</g>
<!-- ConfigureRadioCommand&#45;&gt;W -->
<g id="edge4" class="edge">
<title>ConfigureRadioCommand&#45;&gt;W</title>
<path fill="none" stroke="black" d="M172.35,-54.98C189.57,-46.54 216.2,-33.47 236.15,-23.68"/>
<polygon fill="black" stroke="black" points="237.9,-26.72 245.33,-19.17 234.81,-20.43 237.9,-26.72"/>
</g>
</g>
</svg>
