<?xml version="1.0" encoding="UTF-8" standalone="no"?>
<!DOCTYPE svg PUBLIC "-//W3C//DTD SVG 1.1//EN"
 "http://www.w3.org/Graphics/SVG/1.1/DTD/svg11.dtd">
<!-- Generated by graphviz version 2.43.0 (0)
 -->
<!-- Title: opp Pages: 1 -->
<svg width="790pt" height="82pt"
 viewBox="0.00 0.00 789.50 82.00" xmlns="http://www.w3.org/2000/svg" xmlns:xlink="http://www.w3.org/1999/xlink">
<g id="graph0" class="graph" transform="scale(1 1) rotate(0) translate(4 78)">
<title>opp</title>
<polygon fill="transparent" stroke="transparent" points="-4,4 -4,-78 785.5,-78 785.5,4 -4,4"/>
<!-- L3SocketCommandBase -->
<g id="node1" class="node">
<title>L3SocketCommandBase</title>
<g id="a_node1"><a xlink:href="src-inet-networklayer-contract-L3SocketCommandBase.html" xlink:title="Class L3SocketCommandBase" target="_parent">
<polygon fill="#fff700" stroke="black" points="443,-74 309,-74 309,-55 443,-55 443,-74"/>
<text text-anchor="middle" x="376" y="-62" font-family="Helvetica,sans-Serif" font-size="10.00">L3SocketCommandBase</text>
</a>
</g>
</g>
<!-- L3SocketBindCommand -->
<g id="node2" class="node">
<title>L3SocketBindCommand</title>
<g id="a_node2"><a xlink:href="src-inet-networklayer-contract-L3SocketBindCommand.html" xlink:title="Class L3SocketBindCommand" target="_parent">
<polygon fill="#fffcaf" stroke="black" points="132,-19 0,-19 0,0 132,0 132,-19"/>
<text text-anchor="middle" x="66" y="-7" font-family="Helvetica,sans-Serif" font-size="10.00">L3SocketBindCommand</text>
</a>
</g>
</g>
<!-- L3SocketCommandBase&#45;&gt;L3SocketBindCommand -->
<g id="edge1" class="edge">
<title>L3SocketCommandBase&#45;&gt;L3SocketBindCommand</title>
<path fill="none" stroke="black" d="M326.19,-54.98C268.43,-45.11 173.76,-28.92 115.94,-19.04"/>
</g>
<!-- L3SocketCloseCommand -->
<g id="node3" class="node">
<title>L3SocketCloseCommand</title>
<g id="a_node3"><a xlink:href="src-inet-networklayer-contract-L3SocketCloseCommand.html" xlink:title="Class L3SocketCloseCommand" target="_parent">
<polygon fill="#fffcaf" stroke="black" points="287.5,-19 150.5,-19 150.5,0 287.5,0 287.5,-19"/>
<text text-anchor="middle" x="219" y="-7" font-family="Helvetica,sans-Serif" font-size="10.00">L3SocketCloseCommand</text>
</a>
</g>
</g>
<!-- L3SocketCommandBase&#45;&gt;L3SocketCloseCommand -->
<g id="edge2" class="edge">
<title>L3SocketCommandBase&#45;&gt;L3SocketCloseCommand</title>
<path fill="none" stroke="black" d="M350.78,-54.98C321.56,-45.12 273.72,-28.97 244.42,-19.08"/>
</g>
<!-- L3SocketClosedIndication -->
<g id="node4" class="node">
<title>L3SocketClosedIndication</title>
<g id="a_node4"><a xlink:href="src-inet-networklayer-contract-L3SocketClosedIndication.html" xlink:title="Class L3SocketClosedIndication" target="_parent">
<polygon fill="#fffcaf" stroke="black" points="446.5,-19 305.5,-19 305.5,0 446.5,0 446.5,-19"/>
<text text-anchor="middle" x="376" y="-7" font-family="Helvetica,sans-Serif" font-size="10.00">L3SocketClosedIndication</text>
</a>
</g>
</g>
<!-- L3SocketCommandBase&#45;&gt;L3SocketClosedIndication -->
<g id="edge3" class="edge">
<title>L3SocketCommandBase&#45;&gt;L3SocketClosedIndication</title>
<path fill="none" stroke="black" d="M376,-54.75C376,-44.87 376,-28.9 376,-19.09"/>
</g>
<!-- L3SocketConnectCommand -->
<g id="node5" class="node">
<title>L3SocketConnectCommand</title>
<g id="a_node5"><a xlink:href="src-inet-networklayer-contract-L3SocketConnectCommand.html" xlink:title="Class L3SocketConnectCommand" target="_parent">
<polygon fill="#fffcaf" stroke="black" points="615,-19 465,-19 465,0 615,0 615,-19"/>
<text text-anchor="middle" x="540" y="-7" font-family="Helvetica,sans-Serif" font-size="10.00">L3SocketConnectCommand</text>
</a>
</g>
</g>
<!-- L3SocketCommandBase&#45;&gt;L3SocketConnectCommand -->
<g id="edge4" class="edge">
<title>L3SocketCommandBase&#45;&gt;L3SocketConnectCommand</title>
<path fill="none" stroke="black" d="M402.35,-54.98C432.86,-45.12 482.84,-28.97 513.44,-19.08"/>
</g>
<!-- L3SocketDestroyCommand -->
<g id="node6" class="node">
<title>L3SocketDestroyCommand</title>
<g id="a_node6"><a xlink:href="src-inet-networklayer-contract-L3SocketDestroyCommand.html" xlink:title="Class L3SocketDestroyCommand" target="_parent">
<polygon fill="#fffcaf" stroke="black" points="781.5,-19 632.5,-19 632.5,0 781.5,0 781.5,-19"/>
<text text-anchor="middle" x="707" y="-7" font-family="Helvetica,sans-Serif" font-size="10.00">L3SocketDestroyCommand</text>
</a>
</g>
</g>
<!-- L3SocketCommandBase&#45;&gt;L3SocketDestroyCommand -->
<g id="edge5" class="edge">
<title>L3SocketCommandBase&#45;&gt;L3SocketDestroyCommand</title>
<path fill="none" stroke="black" d="M429.18,-54.98C490.86,-45.11 591.94,-28.92 653.68,-19.04"/>
</g>
</g>
</svg>
