<?xml version="1.0" encoding="UTF-8" standalone="no"?>
<!DOCTYPE svg PUBLIC "-//W3C//DTD SVG 1.1//EN"
 "http://www.w3.org/Graphics/SVG/1.1/DTD/svg11.dtd">
<!-- Generated by graphviz version 2.43.0 (0)
 -->
<!-- Title: opp Pages: 1 -->
<svg width="314pt" height="82pt"
 viewBox="0.00 0.00 313.50 82.00" xmlns="http://www.w3.org/2000/svg" xmlns:xlink="http://www.w3.org/1999/xlink">
<g id="graph0" class="graph" transform="scale(1 1) rotate(0) translate(4 78)">
<title>opp</title>
<polygon fill="transparent" stroke="transparent" points="-4,4 -4,-78 309.5,-78 309.5,4 -4,4"/>
<!-- TransmissionBase -->
<g id="node1" class="node">
<title>TransmissionBase</title>
<g id="a_node1"><a xlink:href="src-inet-physicallayer-wireless-common-base-packetlevel-TransmissionBase.html" xlink:title="Class TransmissionBase" target="_parent">
<polygon fill="#fff700" stroke="black" points="215.5,-74 110.5,-74 110.5,-55 215.5,-55 215.5,-74"/>
<text text-anchor="middle" x="163" y="-62" font-family="Helvetica,sans-Serif" font-size="10.00">TransmissionBase</text>
</a>
</g>
</g>
<!-- NarrowbandTransmissionBase -->
<g id="node2" class="node">
<title>NarrowbandTransmissionBase</title>
<g id="a_node2"><a xlink:href="src-inet-physicallayer-wireless-common-base-packetlevel-NarrowbandTransmissionBase.html" xlink:title="Class NarrowbandTransmissionBase" target="_parent">
<polygon fill="#fffcaf" stroke="black" points="164,-19 0,-19 0,0 164,0 164,-19"/>
<text text-anchor="middle" x="82" y="-7" font-family="Helvetica,sans-Serif" font-size="10.00">NarrowbandTransmissionBase</text>
</a>
</g>
</g>
<!-- TransmissionBase&#45;&gt;NarrowbandTransmissionBase -->
<g id="edge1" class="edge">
<title>TransmissionBase&#45;&gt;NarrowbandTransmissionBase</title>
<path fill="none" stroke="black" d="M149.99,-54.98C134.96,-45.15 110.38,-29.07 95.25,-19.17"/>
</g>
<!-- UnitDiskTransmission -->
<g id="node3" class="node">
<title>UnitDiskTransmission</title>
<g id="a_node3"><a xlink:href="src-inet-physicallayer-wireless-unitdisk-UnitDiskTransmission.html" xlink:title="Class UnitDiskTransmission" target="_parent">
<polygon fill="#fffcaf" stroke="black" points="305.5,-19 182.5,-19 182.5,0 305.5,0 305.5,-19"/>
<text text-anchor="middle" x="244" y="-7" font-family="Helvetica,sans-Serif" font-size="10.00">UnitDiskTransmission</text>
</a>
</g>
</g>
<!-- TransmissionBase&#45;&gt;UnitDiskTransmission -->
<g id="edge2" class="edge">
<title>TransmissionBase&#45;&gt;UnitDiskTransmission</title>
<path fill="none" stroke="black" d="M176.01,-54.98C191.04,-45.15 215.62,-29.07 230.75,-19.17"/>
</g>
</g>
</svg>
