<?xml version="1.0" encoding="UTF-8" standalone="no"?>
<!DOCTYPE svg PUBLIC "-//W3C//DTD SVG 1.1//EN"
 "http://www.w3.org/Graphics/SVG/1.1/DTD/svg11.dtd">
<!-- Generated by graphviz version 2.43.0 (0)
 -->
<!-- Title: opp Pages: 1 -->
<svg width="730pt" height="137pt"
 viewBox="0.00 0.00 729.50 137.00" xmlns="http://www.w3.org/2000/svg" xmlns:xlink="http://www.w3.org/1999/xlink">
<g id="graph0" class="graph" transform="scale(1 1) rotate(0) translate(4 133)">
<title>opp</title>
<polygon fill="transparent" stroke="transparent" points="-4,4 -4,-133 725.5,-133 725.5,4 -4,4"/>
<!-- Ipv6NdMessage -->
<g id="node1" class="node">
<title>Ipv6NdMessage</title>
<g id="a_node1"><a xlink:href="src-inet-networklayer-icmpv6-Ipv6NdMessage.html" xlink:title="Class Ipv6NdMessage" target="_parent">
<polygon fill="#fff700" stroke="black" points="426.5,-74 331.5,-74 331.5,-55 426.5,-55 426.5,-74"/>
<text text-anchor="middle" x="379" y="-62" font-family="Helvetica,sans-Serif" font-size="10.00">Ipv6NdMessage</text>
</a>
</g>
</g>
<!-- Ipv6NeighbourAdvertisement -->
<g id="node3" class="node">
<title>Ipv6NeighbourAdvertisement</title>
<g id="a_node3"><a xlink:href="src-inet-networklayer-icmpv6-Ipv6NeighbourAdvertisement.html" xlink:title="Class Ipv6NeighbourAdvertisement" target="_parent">
<polygon fill="#fffcaf" stroke="black" points="160,-19 0,-19 0,0 160,0 160,-19"/>
<text text-anchor="middle" x="80" y="-7" font-family="Helvetica,sans-Serif" font-size="10.00">Ipv6NeighbourAdvertisement</text>
</a>
</g>
</g>
<!-- Ipv6NdMessage&#45;&gt;Ipv6NeighbourAdvertisement -->
<g id="edge2" class="edge">
<title>Ipv6NdMessage&#45;&gt;Ipv6NeighbourAdvertisement</title>
<path fill="none" stroke="black" d="M331.29,-55.04C275.56,-45.17 183.9,-28.92 128.03,-19.01"/>
</g>
<!-- Ipv6NeighbourSolicitation -->
<g id="node4" class="node">
<title>Ipv6NeighbourSolicitation</title>
<g id="a_node4"><a xlink:href="src-inet-networklayer-icmpv6-Ipv6NeighbourSolicitation.html" xlink:title="Class Ipv6NeighbourSolicitation" target="_parent">
<polygon fill="#fffcaf" stroke="black" points="321.5,-19 178.5,-19 178.5,0 321.5,0 321.5,-19"/>
<text text-anchor="middle" x="250" y="-7" font-family="Helvetica,sans-Serif" font-size="10.00">Ipv6NeighbourSolicitation</text>
</a>
</g>
</g>
<!-- Ipv6NdMessage&#45;&gt;Ipv6NeighbourSolicitation -->
<g id="edge3" class="edge">
<title>Ipv6NdMessage&#45;&gt;Ipv6NeighbourSolicitation</title>
<path fill="none" stroke="black" d="M358.27,-54.98C334.34,-45.15 295.19,-29.07 271.1,-19.17"/>
</g>
<!-- Ipv6Redirect -->
<g id="node5" class="node">
<title>Ipv6Redirect</title>
<g id="a_node5"><a xlink:href="src-inet-networklayer-icmpv6-Ipv6Redirect.html" xlink:title="Class Ipv6Redirect" target="_parent">
<polygon fill="#fffcaf" stroke="black" points="418,-19 340,-19 340,0 418,0 418,-19"/>
<text text-anchor="middle" x="379" y="-7" font-family="Helvetica,sans-Serif" font-size="10.00">Ipv6Redirect</text>
</a>
</g>
</g>
<!-- Ipv6NdMessage&#45;&gt;Ipv6Redirect -->
<g id="edge4" class="edge">
<title>Ipv6NdMessage&#45;&gt;Ipv6Redirect</title>
<path fill="none" stroke="black" d="M379,-54.75C379,-44.87 379,-28.9 379,-19.09"/>
</g>
<!-- Ipv6RouterAdvertisement -->
<g id="node6" class="node">
<title>Ipv6RouterAdvertisement</title>
<g id="a_node6"><a xlink:href="src-inet-networklayer-icmpv6-Ipv6RouterAdvertisement.html" xlink:title="Class Ipv6RouterAdvertisement" target="_parent">
<polygon fill="#fffcaf" stroke="black" points="578,-19 436,-19 436,0 578,0 578,-19"/>
<text text-anchor="middle" x="507" y="-7" font-family="Helvetica,sans-Serif" font-size="10.00">Ipv6RouterAdvertisement</text>
</a>
</g>
</g>
<!-- Ipv6NdMessage&#45;&gt;Ipv6RouterAdvertisement -->
<g id="edge5" class="edge">
<title>Ipv6NdMessage&#45;&gt;Ipv6RouterAdvertisement</title>
<path fill="none" stroke="black" d="M399.57,-54.98C423.31,-45.15 462.16,-29.07 486.06,-19.17"/>
</g>
<!-- Ipv6RouterSolicitation -->
<g id="node7" class="node">
<title>Ipv6RouterSolicitation</title>
<g id="a_node7"><a xlink:href="src-inet-networklayer-icmpv6-Ipv6RouterSolicitation.html" xlink:title="Class Ipv6RouterSolicitation" target="_parent">
<polygon fill="#fffcaf" stroke="black" points="721.5,-19 596.5,-19 596.5,0 721.5,0 721.5,-19"/>
<text text-anchor="middle" x="659" y="-7" font-family="Helvetica,sans-Serif" font-size="10.00">Ipv6RouterSolicitation</text>
</a>
</g>
</g>
<!-- Ipv6NdMessage&#45;&gt;Ipv6RouterSolicitation -->
<g id="edge6" class="edge">
<title>Ipv6NdMessage&#45;&gt;Ipv6RouterSolicitation</title>
<path fill="none" stroke="black" d="M423.99,-54.98C476.08,-45.12 561.41,-28.97 613.66,-19.08"/>
</g>
<!-- Icmpv6Header -->
<g id="node2" class="node">
<title>Icmpv6Header</title>
<g id="a_node2"><a xlink:href="src-inet-networklayer-icmpv6-Icmpv6Header.html" xlink:title="Class Icmpv6Header" target="_parent">
<polygon fill="#fffcaf" stroke="black" points="423,-129 335,-129 335,-110 423,-110 423,-129"/>
<text text-anchor="middle" x="379" y="-117" font-family="Helvetica,sans-Serif" font-size="10.00">Icmpv6Header</text>
</a>
</g>
</g>
<!-- Icmpv6Header&#45;&gt;Ipv6NdMessage -->
<g id="edge1" class="edge">
<title>Icmpv6Header&#45;&gt;Ipv6NdMessage</title>
<path fill="none" stroke="black" d="M379,-109.75C379,-99.87 379,-83.9 379,-74.09"/>
</g>
</g>
</svg>
