<?xml version="1.0" encoding="UTF-8" standalone="no"?>
<!DOCTYPE svg PUBLIC "-//W3C//DTD SVG 1.1//EN"
 "http://www.w3.org/Graphics/SVG/1.1/DTD/svg11.dtd">
<!-- Generated by graphviz version 2.43.0 (0)
 -->
<!-- Title: opp Pages: 1 -->
<svg width="238pt" height="137pt"
 viewBox="0.00 0.00 237.50 137.00" xmlns="http://www.w3.org/2000/svg" xmlns:xlink="http://www.w3.org/1999/xlink">
<g id="graph0" class="graph" transform="scale(1 1) rotate(0) translate(4 133)">
<title>opp</title>
<polygon fill="transparent" stroke="transparent" points="-4,4 -4,-133 233.5,-133 233.5,4 -4,4"/>
<!-- Ipv6ExtHeaderTagBase -->
<g id="node1" class="node">
<title>Ipv6ExtHeaderTagBase</title>
<g id="a_node1"><a xlink:href="src-inet-networklayer-ipv6-Ipv6ExtHeaderTagBase.html" xlink:title="Class Ipv6ExtHeaderTagBase" target="_parent">
<polygon fill="#fff700" stroke="black" points="178.5,-74 49.5,-74 49.5,-55 178.5,-55 178.5,-74"/>
<text text-anchor="middle" x="114" y="-62" font-family="Helvetica,sans-Serif" font-size="10.00">Ipv6ExtHeaderTagBase</text>
</a>
</g>
</g>
<!-- Ipv6ExtHeaderInd -->
<g id="node3" class="node">
<title>Ipv6ExtHeaderInd</title>
<g id="a_node3"><a xlink:href="src-inet-networklayer-ipv6-Ipv6ExtHeaderInd.html" xlink:title="Class Ipv6ExtHeaderInd" target="_parent">
<polygon fill="#fffcaf" stroke="black" points="104,-19 0,-19 0,0 104,0 104,-19"/>
<text text-anchor="middle" x="52" y="-7" font-family="Helvetica,sans-Serif" font-size="10.00">Ipv6ExtHeaderInd</text>
</a>
</g>
</g>
<!-- Ipv6ExtHeaderTagBase&#45;&gt;Ipv6ExtHeaderInd -->
<g id="edge2" class="edge">
<title>Ipv6ExtHeaderTagBase&#45;&gt;Ipv6ExtHeaderInd</title>
<path fill="none" stroke="black" d="M104.04,-54.98C92.54,-45.15 73.72,-29.07 62.14,-19.17"/>
</g>
<!-- Ipv6ExtHeaderReq -->
<g id="node4" class="node">
<title>Ipv6ExtHeaderReq</title>
<g id="a_node4"><a xlink:href="src-inet-networklayer-ipv6-Ipv6ExtHeaderReq.html" xlink:title="Class Ipv6ExtHeaderReq" target="_parent">
<polygon fill="#fffcaf" stroke="black" points="229.5,-19 122.5,-19 122.5,0 229.5,0 229.5,-19"/>
<text text-anchor="middle" x="176" y="-7" font-family="Helvetica,sans-Serif" font-size="10.00">Ipv6ExtHeaderReq</text>
</a>
</g>
</g>
<!-- Ipv6ExtHeaderTagBase&#45;&gt;Ipv6ExtHeaderReq -->
<g id="edge3" class="edge">
<title>Ipv6ExtHeaderTagBase&#45;&gt;Ipv6ExtHeaderReq</title>
<path fill="none" stroke="black" d="M123.96,-54.98C135.46,-45.15 154.28,-29.07 165.86,-19.17"/>
</g>
<!-- TagBase -->
<g id="node2" class="node">
<title>TagBase</title>
<g id="a_node2"><a xlink:href="src-inet-common-TagBase.html" xlink:title="Class TagBase" target="_parent">
<polygon fill="#fffcaf" stroke="black" points="142.5,-129 85.5,-129 85.5,-110 142.5,-110 142.5,-129"/>
<text text-anchor="middle" x="114" y="-117" font-family="Helvetica,sans-Serif" font-size="10.00">TagBase</text>
</a>
</g>
</g>
<!-- TagBase&#45;&gt;Ipv6ExtHeaderTagBase -->
<g id="edge1" class="edge">
<title>TagBase&#45;&gt;Ipv6ExtHeaderTagBase</title>
<path fill="none" stroke="black" d="M114,-109.75C114,-99.87 114,-83.9 114,-74.09"/>
</g>
</g>
</svg>
