<?xml version="1.0" encoding="UTF-8" standalone="no"?>
<!DOCTYPE svg PUBLIC "-//W3C//DTD SVG 1.1//EN"
 "http://www.w3.org/Graphics/SVG/1.1/DTD/svg11.dtd">
<!-- Generated by graphviz version 2.43.0 (0)
 -->
<!-- Title: opp Pages: 1 -->
<svg width="296pt" height="137pt"
 viewBox="0.00 0.00 296.00 137.00" xmlns="http://www.w3.org/2000/svg" xmlns:xlink="http://www.w3.org/1999/xlink">
<g id="graph0" class="graph" transform="scale(1 1) rotate(0) translate(4 133)">
<title>opp</title>
<polygon fill="transparent" stroke="transparent" points="-4,4 -4,-133 292,-133 292,4 -4,4"/>
<!-- IcmpHeader -->
<g id="node1" class="node">
<title>IcmpHeader</title>
<g id="a_node1"><a xlink:href="src-inet-networklayer-ipv4-IcmpHeader.html" xlink:title="Class IcmpHeader" target="_parent">
<polygon fill="#fff700" stroke="black" points="200,-74 124,-74 124,-55 200,-55 200,-74"/>
<text text-anchor="middle" x="162" y="-62" font-family="Helvetica,sans-Serif" font-size="10.00">IcmpHeader</text>
</a>
</g>
</g>
<!-- IcmpEchoReply -->
<g id="node3" class="node">
<title>IcmpEchoReply</title>
<g id="a_node3"><a xlink:href="src-inet-networklayer-ipv4-IcmpEchoReply.html" xlink:title="Class IcmpEchoReply" target="_parent">
<polygon fill="#fffcaf" stroke="black" points="92,-19 0,-19 0,0 92,0 92,-19"/>
<text text-anchor="middle" x="46" y="-7" font-family="Helvetica,sans-Serif" font-size="10.00">IcmpEchoReply</text>
</a>
</g>
</g>
<!-- IcmpHeader&#45;&gt;IcmpEchoReply -->
<g id="edge2" class="edge">
<title>IcmpHeader&#45;&gt;IcmpEchoReply</title>
<path fill="none" stroke="black" d="M143.36,-54.98C121.84,-45.15 86.64,-29.07 64.98,-19.17"/>
</g>
<!-- IcmpEchoRequest -->
<g id="node4" class="node">
<title>IcmpEchoRequest</title>
<g id="a_node4"><a xlink:href="src-inet-networklayer-ipv4-IcmpEchoRequest.html" xlink:title="Class IcmpEchoRequest" target="_parent">
<polygon fill="#fffcaf" stroke="black" points="214,-19 110,-19 110,0 214,0 214,-19"/>
<text text-anchor="middle" x="162" y="-7" font-family="Helvetica,sans-Serif" font-size="10.00">IcmpEchoRequest</text>
</a>
</g>
</g>
<!-- IcmpHeader&#45;&gt;IcmpEchoRequest -->
<g id="edge3" class="edge">
<title>IcmpHeader&#45;&gt;IcmpEchoRequest</title>
<path fill="none" stroke="black" d="M162,-54.75C162,-44.87 162,-28.9 162,-19.09"/>
</g>
<!-- IcmpPtb -->
<g id="node5" class="node">
<title>IcmpPtb</title>
<g id="a_node5"><a xlink:href="src-inet-networklayer-ipv4-IcmpPtb.html" xlink:title="Class IcmpPtb" target="_parent">
<polygon fill="#fffcaf" stroke="black" points="288,-19 232,-19 232,0 288,0 288,-19"/>
<text text-anchor="middle" x="260" y="-7" font-family="Helvetica,sans-Serif" font-size="10.00">IcmpPtb</text>
</a>
</g>
</g>
<!-- IcmpHeader&#45;&gt;IcmpPtb -->
<g id="edge4" class="edge">
<title>IcmpHeader&#45;&gt;IcmpPtb</title>
<path fill="none" stroke="black" d="M177.75,-54.98C195.93,-45.15 225.67,-29.07 243.97,-19.17"/>
</g>
<!-- FieldsChunk -->
<g id="node2" class="node">
<title>FieldsChunk</title>
<g id="a_node2"><a xlink:href="src-inet-common-packet-chunk-FieldsChunk.html" xlink:title="Class FieldsChunk" target="_parent">
<polygon fill="#fffcaf" stroke="black" points="199.5,-129 124.5,-129 124.5,-110 199.5,-110 199.5,-129"/>
<text text-anchor="middle" x="162" y="-117" font-family="Helvetica,sans-Serif" font-size="10.00">FieldsChunk</text>
</a>
</g>
</g>
<!-- FieldsChunk&#45;&gt;IcmpHeader -->
<g id="edge1" class="edge">
<title>FieldsChunk&#45;&gt;IcmpHeader</title>
<path fill="none" stroke="black" d="M162,-109.75C162,-99.87 162,-83.9 162,-74.09"/>
</g>
</g>
</svg>
