<?xml version="1.0" encoding="UTF-8" standalone="no"?>
<!DOCTYPE svg PUBLIC "-//W3C//DTD SVG 1.1//EN"
 "http://www.w3.org/Graphics/SVG/1.1/DTD/svg11.dtd">
<!-- Generated by graphviz version 2.43.0 (0)
 -->
<!-- Title: opp Pages: 1 -->
<svg width="89pt" height="137pt"
 viewBox="0.00 0.00 89.00 137.00" xmlns="http://www.w3.org/2000/svg" xmlns:xlink="http://www.w3.org/1999/xlink">
<g id="graph0" class="graph" transform="scale(1 1) rotate(0) translate(4 133)">
<title>opp</title>
<polygon fill="transparent" stroke="transparent" points="-4,4 -4,-133 85,-133 85,4 -4,4"/>
<!-- PimJoinPrune -->
<g id="node1" class="node">
<title>PimJoinPrune</title>
<g id="a_node1"><a xlink:href="src-inet-routing-pim-PimJoinPrune.html" xlink:title="Class PimJoinPrune" target="_parent">
<polygon fill="#fff700" stroke="black" points="81,-74 0,-74 0,-55 81,-55 81,-74"/>
<text text-anchor="middle" x="40.5" y="-62" font-family="Helvetica,sans-Serif" font-size="10.00">PimJoinPrune</text>
</a>
</g>
</g>
<!-- PimGraft -->
<g id="node3" class="node">
<title>PimGraft</title>
<g id="a_node3"><a xlink:href="src-inet-routing-pim-PimGraft.html" xlink:title="Class PimGraft" target="_parent">
<polygon fill="#fffcaf" stroke="black" points="70.5,-19 10.5,-19 10.5,0 70.5,0 70.5,-19"/>
<text text-anchor="middle" x="40.5" y="-7" font-family="Helvetica,sans-Serif" font-size="10.00">PimGraft</text>
</a>
</g>
</g>
<!-- PimJoinPrune&#45;&gt;PimGraft -->
<g id="edge2" class="edge">
<title>PimJoinPrune&#45;&gt;PimGraft</title>
<path fill="none" stroke="black" d="M40.5,-54.75C40.5,-44.87 40.5,-28.9 40.5,-19.09"/>
</g>
<!-- PimPacket -->
<g id="node2" class="node">
<title>PimPacket</title>
<g id="a_node2"><a xlink:href="src-inet-routing-pim-PimPacket.html" xlink:title="Class PimPacket" target="_parent">
<polygon fill="#fffcaf" stroke="black" points="74.5,-129 6.5,-129 6.5,-110 74.5,-110 74.5,-129"/>
<text text-anchor="middle" x="40.5" y="-117" font-family="Helvetica,sans-Serif" font-size="10.00">PimPacket</text>
</a>
</g>
</g>
<!-- PimPacket&#45;&gt;PimJoinPrune -->
<g id="edge1" class="edge">
<title>PimPacket&#45;&gt;PimJoinPrune</title>
<path fill="none" stroke="black" d="M40.5,-109.75C40.5,-99.87 40.5,-83.9 40.5,-74.09"/>
</g>
</g>
</svg>
