<?xml version="1.0" encoding="UTF-8" standalone="no"?>
<!DOCTYPE svg PUBLIC "-//W3C//DTD SVG 1.1//EN"
 "http://www.w3.org/Graphics/SVG/1.1/DTD/svg11.dtd">
<!-- Generated by graphviz version 2.43.0 (0)
 -->
<!-- Title: opp Pages: 1 -->
<svg width="119pt" height="137pt"
 viewBox="0.00 0.00 119.00 137.00" xmlns="http://www.w3.org/2000/svg" xmlns:xlink="http://www.w3.org/1999/xlink">
<g id="graph0" class="graph" transform="scale(1 1) rotate(0) translate(4 133)">
<title>opp</title>
<polygon fill="transparent" stroke="transparent" points="-4,4 -4,-133 115,-133 115,4 -4,4"/>
<!-- Ipv6NdOption -->
<g id="node1" class="node">
<title>Ipv6NdOption</title>
<g id="a_node1"><a xlink:href="src-inet-networklayer-icmpv6-Ipv6NdOption.html" xlink:title="Class Ipv6NdOption" target="_parent">
<polygon fill="#fff700" stroke="black" points="97,-74 14,-74 14,-55 97,-55 97,-74"/>
<text text-anchor="middle" x="55.5" y="-62" font-family="Helvetica,sans-Serif" font-size="10.00">Ipv6NdOption</text>
</a>
</g>
</g>
<!-- Ipv6NdOptionTypes -->
<g id="node2" class="node">
<title>Ipv6NdOptionTypes</title>
<g id="a_node2"><a xlink:href="src-inet-networklayer-icmpv6-Ipv6NdOptionTypes.html" xlink:title="Enum Ipv6NdOptionTypes" target="_parent">
<polygon fill="#d0ffd0" stroke="black" points="111,-19 0,-19 0,0 111,0 111,-19"/>
<text text-anchor="middle" x="55.5" y="-7" font-family="Helvetica,sans-Serif" font-size="10.00">Ipv6NdOptionTypes</text>
</a>
</g>
</g>
<!-- Ipv6NdOption&#45;&gt;Ipv6NdOptionTypes -->
<g id="edge1" class="edge">
<title>Ipv6NdOption&#45;&gt;Ipv6NdOptionTypes</title>
<path fill="none" stroke="black" d="M55.5,-54.75C55.5,-47.8 55.5,-37.85 55.5,-29.13"/>
<polygon fill="black" stroke="black" points="59,-29.09 55.5,-19.09 52,-29.09 59,-29.09"/>
</g>
<!-- Ipv6NdOptions -->
<g id="node3" class="node">
<title>Ipv6NdOptions</title>
<g id="a_node3"><a xlink:href="src-inet-networklayer-icmpv6-Ipv6NdOptions.html" xlink:title="Class Ipv6NdOptions" target="_parent">
<polygon fill="#fffcaf" stroke="black" points="100,-129 11,-129 11,-110 100,-110 100,-129"/>
<text text-anchor="middle" x="55.5" y="-117" font-family="Helvetica,sans-Serif" font-size="10.00">Ipv6NdOptions</text>
</a>
</g>
</g>
<!-- Ipv6NdOptions&#45;&gt;Ipv6NdOption -->
<g id="edge2" class="edge">
<title>Ipv6NdOptions&#45;&gt;Ipv6NdOption</title>
<path fill="none" stroke="black" d="M55.5,-109.75C55.5,-102.8 55.5,-92.85 55.5,-84.13"/>
<polygon fill="black" stroke="black" points="59,-84.09 55.5,-74.09 52,-84.09 59,-84.09"/>
</g>
</g>
</svg>
