<?xml version="1.0" encoding="UTF-8" standalone="no"?>
<!DOCTYPE svg PUBLIC "-//W3C//DTD SVG 1.1//EN"
 "http://www.w3.org/Graphics/SVG/1.1/DTD/svg11.dtd">
<!-- Generated by graphviz version 2.43.0 (0)
 -->
<!-- Title: opp Pages: 1 -->
<svg width="184pt" height="82pt"
 viewBox="0.00 0.00 184.00 82.00" xmlns="http://www.w3.org/2000/svg" xmlns:xlink="http://www.w3.org/1999/xlink">
<g id="graph0" class="graph" transform="scale(1 1) rotate(0) translate(4 78)">
<title>opp</title>
<polygon fill="transparent" stroke="transparent" points="-4,4 -4,-78 180,-78 180,4 -4,4"/>
<!-- IFrameSequenceStep -->
<g id="node1" class="node">
<title>IFrameSequenceStep</title>
<g id="a_node1"><a xlink:href="src-inet-linklayer-ieee80211-mac-framesequence-IFrameSequenceStep.html" xlink:title="Class IFrameSequenceStep" target="_parent">
<polygon fill="#fff700" stroke="black" points="146,-74 27,-74 27,-55 146,-55 146,-74"/>
<text text-anchor="middle" x="86.5" y="-62" font-family="Helvetica,sans-Serif" font-size="10.00">IFrameSequenceStep</text>
</a>
</g>
</g>
<!-- ReceiveStep -->
<g id="node2" class="node">
<title>ReceiveStep</title>
<g id="a_node2"><a xlink:href="src-inet-linklayer-ieee80211-mac-framesequence-ReceiveStep.html" xlink:title="Class ReceiveStep" target="_parent">
<polygon fill="#fffcaf" stroke="black" points="77,-19 0,-19 0,0 77,0 77,-19"/>
<text text-anchor="middle" x="38.5" y="-7" font-family="Helvetica,sans-Serif" font-size="10.00">ReceiveStep</text>
</a>
</g>
</g>
<!-- IFrameSequenceStep&#45;&gt;ReceiveStep -->
<g id="edge1" class="edge">
<title>IFrameSequenceStep&#45;&gt;ReceiveStep</title>
<path fill="none" stroke="black" d="M78.57,-54.75C69.63,-44.87 55.16,-28.9 46.28,-19.09"/>
</g>
<!-- TransmitStep -->
<g id="node3" class="node">
<title>TransmitStep</title>
<g id="a_node3"><a xlink:href="src-inet-linklayer-ieee80211-mac-framesequence-TransmitStep.html" xlink:title="Class TransmitStep" target="_parent">
<polygon fill="#fffcaf" stroke="black" points="176,-19 95,-19 95,0 176,0 176,-19"/>
<text text-anchor="middle" x="135.5" y="-7" font-family="Helvetica,sans-Serif" font-size="10.00">TransmitStep</text>
</a>
</g>
</g>
<!-- IFrameSequenceStep&#45;&gt;TransmitStep -->
<g id="edge2" class="edge">
<title>IFrameSequenceStep&#45;&gt;TransmitStep</title>
<path fill="none" stroke="black" d="M94.59,-54.75C103.72,-44.87 118.49,-28.9 127.56,-19.09"/>
</g>
</g>
</svg>
