<?xml version="1.0" encoding="UTF-8" standalone="no"?>
<!DOCTYPE svg PUBLIC "-//W3C//DTD SVG 1.1//EN"
 "http://www.w3.org/Graphics/SVG/1.1/DTD/svg11.dtd">
<!-- Generated by graphviz version 2.43.0 (0)
 -->
<!-- Title: opp Pages: 1 -->
<svg width="234pt" height="82pt"
 viewBox="0.00 0.00 234.00 82.00" xmlns="http://www.w3.org/2000/svg" xmlns:xlink="http://www.w3.org/1999/xlink">
<g id="graph0" class="graph" transform="scale(1 1) rotate(0) translate(4 78)">
<title>opp</title>
<polygon fill="transparent" stroke="transparent" points="-4,4 -4,-78 230,-78 230,4 -4,4"/>
<!-- Ieee80211DataOrMgmtHeader -->
<g id="node1" class="node">
<title>Ieee80211DataOrMgmtHeader</title>
<g id="a_node1"><a xlink:href="src-inet-linklayer-ieee80211-mac-Ieee80211DataOrMgmtHeader.html" xlink:title="Class Ieee80211DataOrMgmtHeader" target="_parent">
<polygon fill="#fff700" stroke="black" points="182,-74 16,-74 16,-55 182,-55 182,-74"/>
<text text-anchor="middle" x="99" y="-62" font-family="Helvetica,sans-Serif" font-size="10.00">Ieee80211DataOrMgmtHeader</text>
</a>
</g>
</g>
<!-- MacAddress -->
<g id="node2" class="node">
<title>MacAddress</title>
<g id="a_node2"><a xlink:href="src-inet-linklayer-common-MacAddress.html" xlink:title="Class MacAddress" target="_parent">
<polygon fill="#fffcaf" stroke="black" points="76,-19 0,-19 0,0 76,0 76,-19"/>
<text text-anchor="middle" x="38" y="-7" font-family="Helvetica,sans-Serif" font-size="10.00">MacAddress</text>
</a>
</g>
</g>
<!-- Ieee80211DataOrMgmtHeader&#45;&gt;MacAddress -->
<g id="edge1" class="edge">
<title>Ieee80211DataOrMgmtHeader&#45;&gt;MacAddress</title>
<path fill="none" stroke="black" d="M89.2,-54.98C80.18,-47.15 66.59,-35.34 55.68,-25.86"/>
<polygon fill="black" stroke="black" points="57.82,-23.09 47.98,-19.17 53.23,-28.37 57.82,-23.09"/>
</g>
<!-- SequenceNumberCyclic -->
<g id="node3" class="node">
<title>SequenceNumberCyclic</title>
<g id="a_node3"><a xlink:href="src-inet-linklayer-ieee80211-mac-SequenceNumberCyclic.html" xlink:title="Class SequenceNumberCyclic" target="_parent">
<polygon fill="#fffcaf" stroke="black" points="226,-19 94,-19 94,0 226,0 226,-19"/>
<text text-anchor="middle" x="160" y="-7" font-family="Helvetica,sans-Serif" font-size="10.00">SequenceNumberCyclic</text>
</a>
</g>
</g>
<!-- Ieee80211DataOrMgmtHeader&#45;&gt;SequenceNumberCyclic -->
<g id="edge2" class="edge">
<title>Ieee80211DataOrMgmtHeader&#45;&gt;SequenceNumberCyclic</title>
<path fill="none" stroke="black" d="M108.8,-54.98C117.82,-47.15 131.41,-35.34 142.32,-25.86"/>
<polygon fill="black" stroke="black" points="144.77,-28.37 150.02,-19.17 140.18,-23.09 144.77,-28.37"/>
</g>
</g>
</svg>
