<?xml version="1.0" encoding="UTF-8" standalone="no"?>
<!DOCTYPE svg PUBLIC "-//W3C//DTD SVG 1.1//EN"
 "http://www.w3.org/Graphics/SVG/1.1/DTD/svg11.dtd">
<!-- Generated by graphviz version 2.43.0 (0)
 -->
<!-- Title: opp Pages: 1 -->
<svg width="254pt" height="82pt"
 viewBox="0.00 0.00 253.50 82.00" xmlns="http://www.w3.org/2000/svg" xmlns:xlink="http://www.w3.org/1999/xlink">
<g id="graph0" class="graph" transform="scale(1 1) rotate(0) translate(4 78)">
<title>opp</title>
<polygon fill="transparent" stroke="transparent" points="-4,4 -4,-78 249.5,-78 249.5,4 -4,4"/>
<!-- ReceptionBase -->
<g id="node1" class="node">
<title>ReceptionBase</title>
<g id="a_node1"><a xlink:href="src-inet-physicallayer-wireless-common-base-packetlevel-ReceptionBase.html" xlink:title="Class ReceptionBase" target="_parent">
<polygon fill="#fff700" stroke="black" points="176,-74 87,-74 87,-55 176,-55 176,-74"/>
<text text-anchor="middle" x="131.5" y="-62" font-family="Helvetica,sans-Serif" font-size="10.00">ReceptionBase</text>
</a>
</g>
</g>
<!-- Quaternion -->
<g id="node2" class="node">
<title>Quaternion</title>
<g id="a_node2"><a xlink:href="src-inet-common-geometry-Quaternion.html" xlink:title="Class Quaternion" target="_parent">
<polygon fill="#fffcaf" stroke="black" points="71,-19 0,-19 0,0 71,0 71,-19"/>
<text text-anchor="middle" x="35.5" y="-7" font-family="Helvetica,sans-Serif" font-size="10.00">Quaternion</text>
</a>
</g>
</g>
<!-- ReceptionBase&#45;&gt;Quaternion -->
<g id="edge1" class="edge">
<title>ReceptionBase&#45;&gt;Quaternion</title>
<path fill="none" stroke="black" d="M116.08,-54.98C101.05,-46.69 77.96,-33.94 60.34,-24.22"/>
<polygon fill="black" stroke="black" points="61.65,-20.94 51.2,-19.17 58.27,-27.07 61.65,-20.94"/>
</g>
<!-- ITransmission -->
<g id="node3" class="node">
<title>ITransmission</title>
<g id="a_node3"><a xlink:href="src-inet-physicallayer-wireless-common-signal-ITransmission.html" xlink:title="Class ITransmission" target="_parent">
<polygon fill="#fffcaf" stroke="black" points="173.5,-19 89.5,-19 89.5,0 173.5,0 173.5,-19"/>
<text text-anchor="middle" x="131.5" y="-7" font-family="Helvetica,sans-Serif" font-size="10.00">ITransmission</text>
</a>
</g>
</g>
<!-- ReceptionBase&#45;&gt;ITransmission -->
<g id="edge2" class="edge">
<title>ReceptionBase&#45;&gt;ITransmission</title>
<path fill="none" stroke="black" d="M131.5,-54.75C131.5,-47.8 131.5,-37.85 131.5,-29.13"/>
<polygon fill="black" stroke="black" points="135,-29.09 131.5,-19.09 128,-29.09 135,-29.09"/>
</g>
<!-- Coord -->
<g id="node4" class="node">
<title>Coord</title>
<g id="a_node4"><a xlink:href="src-inet-common-geometry-Coord.html" xlink:title="Class Coord" target="_parent">
<polygon fill="#fffcaf" stroke="black" points="245.5,-19 191.5,-19 191.5,0 245.5,0 245.5,-19"/>
<text text-anchor="middle" x="218.5" y="-7" font-family="Helvetica,sans-Serif" font-size="10.00">Coord</text>
</a>
</g>
</g>
<!-- ReceptionBase&#45;&gt;Coord -->
<g id="edge3" class="edge">
<title>ReceptionBase&#45;&gt;Coord</title>
<path fill="none" stroke="black" d="M145.48,-54.98C158.97,-46.77 179.63,-34.18 195.54,-24.49"/>
<polygon fill="black" stroke="black" points="197.55,-27.36 204.27,-19.17 193.91,-21.38 197.55,-27.36"/>
</g>
</g>
</svg>
