<?xml version="1.0" encoding="UTF-8" standalone="no"?>
<!DOCTYPE svg PUBLIC "-//W3C//DTD SVG 1.1//EN"
 "http://www.w3.org/Graphics/SVG/1.1/DTD/svg11.dtd">
<!-- Generated by graphviz version 2.43.0 (0)
 -->
<!-- Title: opp Pages: 1 -->
<svg width="216pt" height="82pt"
 viewBox="0.00 0.00 215.50 82.00" xmlns="http://www.w3.org/2000/svg" xmlns:xlink="http://www.w3.org/1999/xlink">
<g id="graph0" class="graph" transform="scale(1 1) rotate(0) translate(4 78)">
<title>opp</title>
<polygon fill="transparent" stroke="transparent" points="-4,4 -4,-78 211.5,-78 211.5,4 -4,4"/>
<!-- RsvpPathTear -->
<g id="node1" class="node">
<title>RsvpPathTear</title>
<g id="a_node1"><a xlink:href="src-inet-networklayer-rsvpte-RsvpPathTear.html" xlink:title="Class RsvpPathTear" target="_parent">
<polygon fill="#fff700" stroke="black" points="136,-74 53,-74 53,-55 136,-55 136,-74"/>
<text text-anchor="middle" x="94.5" y="-62" font-family="Helvetica,sans-Serif" font-size="10.00">RsvpPathTear</text>
</a>
</g>
</g>
<!-- RsvpHopObj -->
<g id="node2" class="node">
<title>RsvpHopObj</title>
<g id="a_node2"><a xlink:href="src-inet-networklayer-rsvpte-RsvpHopObj.html" xlink:title="Struct RsvpHopObj" target="_parent">
<polygon fill="#d0d0ff" stroke="black" points="77,-19 0,-19 0,0 77,0 77,-19"/>
<text text-anchor="middle" x="38.5" y="-7" font-family="Helvetica,sans-Serif" font-size="10.00">RsvpHopObj</text>
</a>
</g>
</g>
<!-- RsvpPathTear&#45;&gt;RsvpHopObj -->
<g id="edge1" class="edge">
<title>RsvpPathTear&#45;&gt;RsvpHopObj</title>
<path fill="none" stroke="black" d="M85.5,-54.98C77.31,-47.23 64.99,-35.58 55.03,-26.14"/>
<polygon fill="black" stroke="black" points="57.33,-23.5 47.66,-19.17 52.52,-28.59 57.33,-23.5"/>
</g>
<!-- SenderTemplateObj -->
<g id="node3" class="node">
<title>SenderTemplateObj</title>
<g id="a_node3"><a xlink:href="src-inet-networklayer-rsvpte-SenderTemplateObj.html" xlink:title="Struct SenderTemplateObj" target="_parent">
<polygon fill="#d0d0ff" stroke="black" points="207.5,-19 95.5,-19 95.5,0 207.5,0 207.5,-19"/>
<text text-anchor="middle" x="151.5" y="-7" font-family="Helvetica,sans-Serif" font-size="10.00">SenderTemplateObj</text>
</a>
</g>
</g>
<!-- RsvpPathTear&#45;&gt;SenderTemplateObj -->
<g id="edge2" class="edge">
<title>RsvpPathTear&#45;&gt;SenderTemplateObj</title>
<path fill="none" stroke="black" d="M103.66,-54.98C112,-47.23 124.53,-35.58 134.68,-26.14"/>
<polygon fill="black" stroke="black" points="137.24,-28.54 142.18,-19.17 132.47,-23.42 137.24,-28.54"/>
</g>
</g>
</svg>
