<?xml version="1.0" encoding="UTF-8" standalone="no"?>
<!DOCTYPE svg PUBLIC "-//W3C//DTD SVG 1.1//EN"
 "http://www.w3.org/Graphics/SVG/1.1/DTD/svg11.dtd">
<!-- Generated by graphviz version 2.43.0 (0)
 -->
<!-- Title: opp Pages: 1 -->
<svg width="390pt" height="137pt"
 viewBox="0.00 0.00 390.00 137.00" xmlns="http://www.w3.org/2000/svg" xmlns:xlink="http://www.w3.org/1999/xlink">
<g id="graph0" class="graph" transform="scale(1 1) rotate(0) translate(4 133)">
<title>opp</title>
<polygon fill="transparent" stroke="transparent" points="-4,4 -4,-133 386,-133 386,4 -4,4"/>
<!-- BgpHeader -->
<g id="node1" class="node">
<title>BgpHeader</title>
<g id="a_node1"><a xlink:href="src-inet-routing-bgpv4-bgpmessage-BgpHeader.html" xlink:title="Class BgpHeader" target="_parent">
<polygon fill="#fff700" stroke="black" points="233.5,-74 162.5,-74 162.5,-55 233.5,-55 233.5,-74"/>
<text text-anchor="middle" x="198" y="-62" font-family="Helvetica,sans-Serif" font-size="10.00">BgpHeader</text>
</a>
</g>
</g>
<!-- BgpKeepAliveMessage -->
<g id="node3" class="node">
<title>BgpKeepAliveMessage</title>
<g id="a_node3"><a xlink:href="src-inet-routing-bgpv4-bgpmessage-BgpKeepAliveMessage.html" xlink:title="Class BgpKeepAliveMessage" target="_parent">
<polygon fill="#fffcaf" stroke="black" points="128,-19 0,-19 0,0 128,0 128,-19"/>
<text text-anchor="middle" x="64" y="-7" font-family="Helvetica,sans-Serif" font-size="10.00">BgpKeepAliveMessage</text>
</a>
</g>
</g>
<!-- BgpHeader&#45;&gt;BgpKeepAliveMessage -->
<g id="edge2" class="edge">
<title>BgpHeader&#45;&gt;BgpKeepAliveMessage</title>
<path fill="none" stroke="black" d="M176.47,-54.98C151.61,-45.15 110.94,-29.07 85.92,-19.17"/>
</g>
<!-- BgpOpenMessage -->
<g id="node4" class="node">
<title>BgpOpenMessage</title>
<g id="a_node4"><a xlink:href="src-inet-routing-bgpv4-bgpmessage-BgpOpenMessage.html" xlink:title="Class BgpOpenMessage" target="_parent">
<polygon fill="#fffcaf" stroke="black" points="250,-19 146,-19 146,0 250,0 250,-19"/>
<text text-anchor="middle" x="198" y="-7" font-family="Helvetica,sans-Serif" font-size="10.00">BgpOpenMessage</text>
</a>
</g>
</g>
<!-- BgpHeader&#45;&gt;BgpOpenMessage -->
<g id="edge3" class="edge">
<title>BgpHeader&#45;&gt;BgpOpenMessage</title>
<path fill="none" stroke="black" d="M198,-54.75C198,-44.87 198,-28.9 198,-19.09"/>
</g>
<!-- BgpUpdateMessage -->
<g id="node5" class="node">
<title>BgpUpdateMessage</title>
<g id="a_node5"><a xlink:href="src-inet-routing-bgpv4-bgpmessage-BgpUpdateMessage.html" xlink:title="Class BgpUpdateMessage" target="_parent">
<polygon fill="#fffcaf" stroke="black" points="382,-19 268,-19 268,0 382,0 382,-19"/>
<text text-anchor="middle" x="325" y="-7" font-family="Helvetica,sans-Serif" font-size="10.00">BgpUpdateMessage</text>
</a>
</g>
</g>
<!-- BgpHeader&#45;&gt;BgpUpdateMessage -->
<g id="edge4" class="edge">
<title>BgpHeader&#45;&gt;BgpUpdateMessage</title>
<path fill="none" stroke="black" d="M218.4,-54.98C241.96,-45.15 280.51,-29.07 304.22,-19.17"/>
</g>
<!-- FieldsChunk -->
<g id="node2" class="node">
<title>FieldsChunk</title>
<g id="a_node2"><a xlink:href="src-inet-common-packet-chunk-FieldsChunk.html" xlink:title="Class FieldsChunk" target="_parent">
<polygon fill="#fffcaf" stroke="black" points="235.5,-129 160.5,-129 160.5,-110 235.5,-110 235.5,-129"/>
<text text-anchor="middle" x="198" y="-117" font-family="Helvetica,sans-Serif" font-size="10.00">FieldsChunk</text>
</a>
</g>
</g>
<!-- FieldsChunk&#45;&gt;BgpHeader -->
<g id="edge1" class="edge">
<title>FieldsChunk&#45;&gt;BgpHeader</title>
<path fill="none" stroke="black" d="M198,-109.75C198,-99.87 198,-83.9 198,-74.09"/>
</g>
</g>
</svg>
