<?xml version="1.0" encoding="UTF-8" standalone="no"?>
<!DOCTYPE svg PUBLIC "-//W3C//DTD SVG 1.1//EN"
 "http://www.w3.org/Graphics/SVG/1.1/DTD/svg11.dtd">
<!-- Generated by graphviz version 2.43.0 (0)
 -->
<!-- Title: opp Pages: 1 -->
<svg width="160pt" height="82pt"
 viewBox="0.00 0.00 160.00 82.00" xmlns="http://www.w3.org/2000/svg" xmlns:xlink="http://www.w3.org/1999/xlink">
<g id="graph0" class="graph" transform="scale(1 1) rotate(0) translate(4 78)">
<title>opp</title>
<polygon fill="transparent" stroke="transparent" points="-4,4 -4,-78 156,-78 156,4 -4,4"/>
<!-- Icmpv6Header -->
<g id="node1" class="node">
<title>Icmpv6Header</title>
<g id="a_node1"><a xlink:href="src-inet-networklayer-icmpv6-Icmpv6Header.html" xlink:title="Class Icmpv6Header" target="_parent">
<polygon fill="#fff700" stroke="black" points="123.5,-74 35.5,-74 35.5,-55 123.5,-55 123.5,-74"/>
<text text-anchor="middle" x="79.5" y="-62" font-family="Helvetica,sans-Serif" font-size="10.00">Icmpv6Header</text>
</a>
</g>
</g>
<!-- Icmpv6Type -->
<g id="node2" class="node">
<title>Icmpv6Type</title>
<g id="a_node2"><a xlink:href="src-inet-networklayer-icmpv6-Icmpv6Type.html" xlink:title="Enum Icmpv6Type" target="_parent">
<polygon fill="#d0ffd0" stroke="black" points="75,-19 0,-19 0,0 75,0 75,-19"/>
<text text-anchor="middle" x="37.5" y="-7" font-family="Helvetica,sans-Serif" font-size="10.00">Icmpv6Type</text>
</a>
</g>
</g>
<!-- Icmpv6Header&#45;&gt;Icmpv6Type -->
<g id="edge1" class="edge">
<title>Icmpv6Header&#45;&gt;Icmpv6Type</title>
<path fill="none" stroke="black" d="M72.56,-54.75C66.63,-47.26 57.93,-36.28 50.68,-27.13"/>
<polygon fill="black" stroke="black" points="53.26,-24.75 44.31,-19.09 47.77,-29.1 53.26,-24.75"/>
</g>
<!-- CrcMode -->
<g id="node3" class="node">
<title>CrcMode</title>
<g id="a_node3"><a xlink:href="src-inet-transportlayer-common-CrcMode.html" xlink:title="Enum CrcMode" target="_parent">
<polygon fill="#d0ffd0" stroke="black" points="152,-19 93,-19 93,0 152,0 152,-19"/>
<text text-anchor="middle" x="122.5" y="-7" font-family="Helvetica,sans-Serif" font-size="10.00">CrcMode</text>
</a>
</g>
</g>
<!-- Icmpv6Header&#45;&gt;CrcMode -->
<g id="edge2" class="edge">
<title>Icmpv6Header&#45;&gt;CrcMode</title>
<path fill="none" stroke="black" d="M86.6,-54.75C92.67,-47.26 101.59,-36.28 109.01,-27.13"/>
<polygon fill="black" stroke="black" points="111.95,-29.06 115.53,-19.09 106.51,-24.65 111.95,-29.06"/>
</g>
</g>
</svg>
