<?xml version="1.0" encoding="UTF-8" standalone="no"?>
<!DOCTYPE svg PUBLIC "-//W3C//DTD SVG 1.1//EN"
 "http://www.w3.org/Graphics/SVG/1.1/DTD/svg11.dtd">
<!-- Generated by graphviz version 2.43.0 (0)
 -->
<!-- Title: opp Pages: 1 -->
<svg width="415pt" height="82pt"
 viewBox="0.00 0.00 414.50 82.00" xmlns="http://www.w3.org/2000/svg" xmlns:xlink="http://www.w3.org/1999/xlink">
<g id="graph0" class="graph" transform="scale(1 1) rotate(0) translate(4 78)">
<title>opp</title>
<polygon fill="transparent" stroke="transparent" points="-4,4 -4,-78 410.5,-78 410.5,4 -4,4"/>
<!-- Ipv4Header -->
<g id="node1" class="node">
<title>Ipv4Header</title>
<g id="a_node1"><a xlink:href="src-inet-networklayer-ipv4-Ipv4Header.html" xlink:title="Class Ipv4Header" target="_parent">
<polygon fill="#fff700" stroke="black" points="225.5,-74 152.5,-74 152.5,-55 225.5,-55 225.5,-74"/>
<text text-anchor="middle" x="189" y="-62" font-family="Helvetica,sans-Serif" font-size="10.00">Ipv4Header</text>
</a>
</g>
</g>
<!-- B -->
<g id="node2" class="node">
<title>B</title>
<g id="a_node2"><a xlink:href="src-inet-common-B.html" xlink:title="Class B" target="_parent">
<polygon fill="#fffcaf" stroke="black" points="54,-19 0,-19 0,0 54,0 54,-19"/>
<text text-anchor="middle" x="27" y="-7" font-family="Helvetica,sans-Serif" font-size="10.00">B</text>
</a>
</g>
</g>
<!-- Ipv4Header&#45;&gt;B -->
<g id="edge1" class="edge">
<title>Ipv4Header&#45;&gt;B</title>
<path fill="none" stroke="black" d="M162.97,-54.98C135.89,-46.13 93.29,-32.19 62.99,-22.28"/>
<polygon fill="black" stroke="black" points="63.82,-18.87 53.23,-19.08 61.65,-25.52 63.82,-18.87"/>
</g>
<!-- TlvOptions -->
<g id="node3" class="node">
<title>TlvOptions</title>
<g id="a_node3"><a xlink:href="src-inet-common-TlvOptions.html" xlink:title="Class TlvOptions" target="_parent">
<polygon fill="#fffcaf" stroke="black" points="141.5,-19 72.5,-19 72.5,0 141.5,0 141.5,-19"/>
<text text-anchor="middle" x="107" y="-7" font-family="Helvetica,sans-Serif" font-size="10.00">TlvOptions</text>
</a>
</g>
</g>
<!-- Ipv4Header&#45;&gt;TlvOptions -->
<g id="edge2" class="edge">
<title>Ipv4Header&#45;&gt;TlvOptions</title>
<path fill="none" stroke="black" d="M175.83,-54.98C163.23,-46.84 144,-34.41 129.06,-24.76"/>
<polygon fill="black" stroke="black" points="130.71,-21.66 120.41,-19.17 126.91,-27.54 130.71,-21.66"/>
</g>
<!-- CrcMode -->
<g id="node4" class="node">
<title>CrcMode</title>
<g id="a_node4"><a xlink:href="src-inet-transportlayer-common-CrcMode.html" xlink:title="Enum CrcMode" target="_parent">
<polygon fill="#d0ffd0" stroke="black" points="218.5,-19 159.5,-19 159.5,0 218.5,0 218.5,-19"/>
<text text-anchor="middle" x="189" y="-7" font-family="Helvetica,sans-Serif" font-size="10.00">CrcMode</text>
</a>
</g>
</g>
<!-- Ipv4Header&#45;&gt;CrcMode -->
<g id="edge3" class="edge">
<title>Ipv4Header&#45;&gt;CrcMode</title>
<path fill="none" stroke="black" d="M189,-54.75C189,-47.8 189,-37.85 189,-29.13"/>
<polygon fill="black" stroke="black" points="192.5,-29.09 189,-19.09 185.5,-29.09 192.5,-29.09"/>
</g>
<!-- IpProtocolId -->
<g id="node5" class="node">
<title>IpProtocolId</title>
<g id="a_node5"><a xlink:href="src-inet-networklayer-common-IpProtocolId.html" xlink:title="Enum IpProtocolId" target="_parent">
<polygon fill="#d0ffd0" stroke="black" points="311,-19 237,-19 237,0 311,0 311,-19"/>
<text text-anchor="middle" x="274" y="-7" font-family="Helvetica,sans-Serif" font-size="10.00">IpProtocolId</text>
</a>
</g>
</g>
<!-- Ipv4Header&#45;&gt;IpProtocolId -->
<g id="edge4" class="edge">
<title>Ipv4Header&#45;&gt;IpProtocolId</title>
<path fill="none" stroke="black" d="M202.66,-54.98C215.84,-46.77 236.03,-34.18 251.57,-24.49"/>
<polygon fill="black" stroke="black" points="253.46,-27.43 260.09,-19.17 249.76,-21.49 253.46,-27.43"/>
</g>
<!-- Ipv4Address -->
<g id="node6" class="node">
<title>Ipv4Address</title>
<g id="a_node6"><a xlink:href="src-inet-networklayer-contract-ipv4-Ipv4Address.html" xlink:title="Class Ipv4Address" target="_parent">
<polygon fill="#fffcaf" stroke="black" points="406.5,-19 329.5,-19 329.5,0 406.5,0 406.5,-19"/>
<text text-anchor="middle" x="368" y="-7" font-family="Helvetica,sans-Serif" font-size="10.00">Ipv4Address</text>
</a>
</g>
</g>
<!-- Ipv4Header&#45;&gt;Ipv4Address -->
<g id="edge5" class="edge">
<title>Ipv4Header&#45;&gt;Ipv4Address</title>
<path fill="none" stroke="black" d="M217.76,-54.98C247.94,-46.05 295.57,-31.94 329.1,-22.02"/>
<polygon fill="black" stroke="black" points="330.42,-25.28 339.02,-19.08 328.43,-18.57 330.42,-25.28"/>
</g>
</g>
</svg>
