<?xml version="1.0" encoding="UTF-8" standalone="no"?>
<!DOCTYPE svg PUBLIC "-//W3C//DTD SVG 1.1//EN"
 "http://www.w3.org/Graphics/SVG/1.1/DTD/svg11.dtd">
<!-- Generated by graphviz version 2.43.0 (0)
 -->
<!-- Title: opp Pages: 1 -->
<svg width="148pt" height="82pt"
 viewBox="0.00 0.00 148.00 82.00" xmlns="http://www.w3.org/2000/svg" xmlns:xlink="http://www.w3.org/1999/xlink">
<g id="graph0" class="graph" transform="scale(1 1) rotate(0) translate(4 78)">
<title>opp</title>
<polygon fill="transparent" stroke="transparent" points="-4,4 -4,-78 144,-78 144,4 -4,4"/>
<!-- IcmpHeader -->
<g id="node1" class="node">
<title>IcmpHeader</title>
<g id="a_node1"><a xlink:href="src-inet-networklayer-ipv4-IcmpHeader.html" xlink:title="Class IcmpHeader" target="_parent">
<polygon fill="#fff700" stroke="black" points="106.5,-74 30.5,-74 30.5,-55 106.5,-55 106.5,-74"/>
<text text-anchor="middle" x="68.5" y="-62" font-family="Helvetica,sans-Serif" font-size="10.00">IcmpHeader</text>
</a>
</g>
</g>
<!-- CrcMode -->
<g id="node2" class="node">
<title>CrcMode</title>
<g id="a_node2"><a xlink:href="src-inet-transportlayer-common-CrcMode.html" xlink:title="Enum CrcMode" target="_parent">
<polygon fill="#d0ffd0" stroke="black" points="59,-19 0,-19 0,0 59,0 59,-19"/>
<text text-anchor="middle" x="29.5" y="-7" font-family="Helvetica,sans-Serif" font-size="10.00">CrcMode</text>
</a>
</g>
</g>
<!-- IcmpHeader&#45;&gt;CrcMode -->
<g id="edge1" class="edge">
<title>IcmpHeader&#45;&gt;CrcMode</title>
<path fill="none" stroke="black" d="M62.06,-54.75C56.61,-47.34 48.64,-36.5 41.94,-27.41"/>
<polygon fill="black" stroke="black" points="44.57,-25.07 35.82,-19.09 38.93,-29.22 44.57,-25.07"/>
</g>
<!-- IcmpType -->
<g id="node3" class="node">
<title>IcmpType</title>
<g id="a_node3"><a xlink:href="src-inet-networklayer-ipv4-IcmpType.html" xlink:title="Enum IcmpType" target="_parent">
<polygon fill="#d0ffd0" stroke="black" points="140,-19 77,-19 77,0 140,0 140,-19"/>
<text text-anchor="middle" x="108.5" y="-7" font-family="Helvetica,sans-Serif" font-size="10.00">IcmpType</text>
</a>
</g>
</g>
<!-- IcmpHeader&#45;&gt;IcmpType -->
<g id="edge2" class="edge">
<title>IcmpHeader&#45;&gt;IcmpType</title>
<path fill="none" stroke="black" d="M75.11,-54.75C80.76,-47.26 89.04,-36.28 95.95,-27.13"/>
<polygon fill="black" stroke="black" points="98.79,-29.18 102.02,-19.09 93.2,-24.96 98.79,-29.18"/>
</g>
</g>
</svg>
