<?xml version="1.0" encoding="UTF-8" standalone="no"?>
<!DOCTYPE svg PUBLIC "-//W3C//DTD SVG 1.1//EN"
 "http://www.w3.org/Graphics/SVG/1.1/DTD/svg11.dtd">
<!-- Generated by graphviz version 2.43.0 (0)
 -->
<!-- Title: opp Pages: 1 -->
<svg width="201pt" height="137pt"
 viewBox="0.00 0.00 201.00 137.00" xmlns="http://www.w3.org/2000/svg" xmlns:xlink="http://www.w3.org/1999/xlink">
<g id="graph0" class="graph" transform="scale(1 1) rotate(0) translate(4 133)">
<title>opp</title>
<polygon fill="transparent" stroke="transparent" points="-4,4 -4,-133 197,-133 197,4 -4,4"/>
<!-- Ieee80211ModeSet -->
<g id="node1" class="node">
<title>Ieee80211ModeSet</title>
<g id="a_node1"><a xlink:href="src-inet-physicallayer-wireless-ieee80211-mode-Ieee80211ModeSet.html" xlink:title="Class Ieee80211ModeSet" target="_parent">
<polygon fill="#fff700" stroke="black" points="151.5,-74 41.5,-74 41.5,-55 151.5,-55 151.5,-74"/>
<text text-anchor="middle" x="96.5" y="-62" font-family="Helvetica,sans-Serif" font-size="10.00">Ieee80211ModeSet</text>
</a>
</g>
</g>
<!-- IIeee80211Mode -->
<g id="node2" class="node">
<title>IIeee80211Mode</title>
<g id="a_node2"><a xlink:href="src-inet-physicallayer-wireless-ieee80211-mode-IIeee80211Mode.html" xlink:title="Class IIeee80211Mode" target="_parent">
<polygon fill="#fffcaf" stroke="black" points="145.5,-19 47.5,-19 47.5,0 145.5,0 145.5,-19"/>
<text text-anchor="middle" x="96.5" y="-7" font-family="Helvetica,sans-Serif" font-size="10.00">IIeee80211Mode</text>
</a>
</g>
</g>
<!-- Ieee80211ModeSet&#45;&gt;IIeee80211Mode -->
<g id="edge1" class="edge">
<title>Ieee80211ModeSet&#45;&gt;IIeee80211Mode</title>
<path fill="none" stroke="black" d="M96.5,-54.75C96.5,-47.8 96.5,-37.85 96.5,-29.13"/>
<polygon fill="black" stroke="black" points="100,-29.09 96.5,-19.09 93,-29.09 100,-29.09"/>
</g>
<!-- Ieee80211ConfigureRadioCommand -->
<g id="node3" class="node">
<title>Ieee80211ConfigureRadioCommand</title>
<g id="a_node3"><a xlink:href="src-inet-physicallayer-wireless-ieee80211-packetlevel-Ieee80211ConfigureRadioCommand.html" xlink:title="Class Ieee80211ConfigureRadioCommand" target="_parent">
<polygon fill="#fffcaf" stroke="black" points="193,-129 0,-129 0,-110 193,-110 193,-129"/>
<text text-anchor="middle" x="96.5" y="-117" font-family="Helvetica,sans-Serif" font-size="10.00">Ieee80211ConfigureRadioCommand</text>
</a>
</g>
</g>
<!-- Ieee80211ConfigureRadioCommand&#45;&gt;Ieee80211ModeSet -->
<g id="edge2" class="edge">
<title>Ieee80211ConfigureRadioCommand&#45;&gt;Ieee80211ModeSet</title>
<path fill="none" stroke="black" d="M96.5,-109.75C96.5,-102.8 96.5,-92.85 96.5,-84.13"/>
<polygon fill="black" stroke="black" points="100,-84.09 96.5,-74.09 93,-84.09 100,-84.09"/>
</g>
</g>
</svg>
