<?xml version="1.0" encoding="UTF-8" standalone="no"?>
<!DOCTYPE svg PUBLIC "-//W3C//DTD SVG 1.1//EN"
 "http://www.w3.org/Graphics/SVG/1.1/DTD/svg11.dtd">
<!-- Generated by graphviz version 2.43.0 (0)
 -->
<!-- Title: opp Pages: 1 -->
<svg width="164pt" height="137pt"
 viewBox="0.00 0.00 164.00 137.00" xmlns="http://www.w3.org/2000/svg" xmlns:xlink="http://www.w3.org/1999/xlink">
<g id="graph0" class="graph" transform="scale(1 1) rotate(0) translate(4 133)">
<title>opp</title>
<polygon fill="transparent" stroke="transparent" points="-4,4 -4,-133 160,-133 160,4 -4,4"/>
<!-- StreamTagBase -->
<g id="node1" class="node">
<title>StreamTagBase</title>
<g id="a_node1"><a xlink:href="src-inet-protocolelement-redundancy-StreamTagBase.html" xlink:title="Class StreamTagBase" target="_parent">
<polygon fill="#fff700" stroke="black" points="122.5,-74 30.5,-74 30.5,-55 122.5,-55 122.5,-74"/>
<text text-anchor="middle" x="76.5" y="-62" font-family="Helvetica,sans-Serif" font-size="10.00">StreamTagBase</text>
</a>
</g>
</g>
<!-- StreamInd -->
<g id="node3" class="node">
<title>StreamInd</title>
<g id="a_node3"><a xlink:href="src-inet-protocolelement-redundancy-StreamInd.html" xlink:title="Class StreamInd" target="_parent">
<polygon fill="#fffcaf" stroke="black" points="67,-19 0,-19 0,0 67,0 67,-19"/>
<text text-anchor="middle" x="33.5" y="-7" font-family="Helvetica,sans-Serif" font-size="10.00">StreamInd</text>
</a>
</g>
</g>
<!-- StreamTagBase&#45;&gt;StreamInd -->
<g id="edge2" class="edge">
<title>StreamTagBase&#45;&gt;StreamInd</title>
<path fill="none" stroke="black" d="M69.4,-54.75C61.38,-44.87 48.43,-28.9 40.47,-19.09"/>
</g>
<!-- StreamReq -->
<g id="node4" class="node">
<title>StreamReq</title>
<g id="a_node4"><a xlink:href="src-inet-protocolelement-redundancy-StreamReq.html" xlink:title="Class StreamReq" target="_parent">
<polygon fill="#fffcaf" stroke="black" points="156,-19 85,-19 85,0 156,0 156,-19"/>
<text text-anchor="middle" x="120.5" y="-7" font-family="Helvetica,sans-Serif" font-size="10.00">StreamReq</text>
</a>
</g>
</g>
<!-- StreamTagBase&#45;&gt;StreamReq -->
<g id="edge3" class="edge">
<title>StreamTagBase&#45;&gt;StreamReq</title>
<path fill="none" stroke="black" d="M83.77,-54.75C91.97,-44.87 105.22,-28.9 113.37,-19.09"/>
</g>
<!-- TagBase -->
<g id="node2" class="node">
<title>TagBase</title>
<g id="a_node2"><a xlink:href="src-inet-common-TagBase.html" xlink:title="Class TagBase" target="_parent">
<polygon fill="#fffcaf" stroke="black" points="105,-129 48,-129 48,-110 105,-110 105,-129"/>
<text text-anchor="middle" x="76.5" y="-117" font-family="Helvetica,sans-Serif" font-size="10.00">TagBase</text>
</a>
</g>
</g>
<!-- TagBase&#45;&gt;StreamTagBase -->
<g id="edge1" class="edge">
<title>TagBase&#45;&gt;StreamTagBase</title>
<path fill="none" stroke="black" d="M76.5,-109.75C76.5,-99.87 76.5,-83.9 76.5,-74.09"/>
</g>
</g>
</svg>
