<?xml version="1.0" encoding="UTF-8" standalone="no"?>
<!DOCTYPE svg PUBLIC "-//W3C//DTD SVG 1.1//EN"
 "http://www.w3.org/Graphics/SVG/1.1/DTD/svg11.dtd">
<!-- Generated by graphviz version 2.43.0 (0)
 -->
<!-- Title: opp Pages: 1 -->
<svg width="182pt" height="82pt"
 viewBox="0.00 0.00 182.00 82.00" xmlns="http://www.w3.org/2000/svg" xmlns:xlink="http://www.w3.org/1999/xlink">
<g id="graph0" class="graph" transform="scale(1 1) rotate(0) translate(4 78)">
<title>opp</title>
<polygon fill="transparent" stroke="transparent" points="-4,4 -4,-78 178,-78 178,4 -4,4"/>
<!-- SctpAsconfChunk -->
<g id="node1" class="node">
<title>SctpAsconfChunk</title>
<g id="a_node1"><a xlink:href="src-inet-transportlayer-sctp-SctpAsconfChunk.html" xlink:title="Class SctpAsconfChunk" target="_parent">
<polygon fill="#fff700" stroke="black" points="143,-74 42,-74 42,-55 143,-55 143,-74"/>
<text text-anchor="middle" x="92.5" y="-62" font-family="Helvetica,sans-Serif" font-size="10.00">SctpAsconfChunk</text>
</a>
</g>
</g>
<!-- SctpParameter -->
<g id="node2" class="node">
<title>SctpParameter</title>
<g id="a_node2"><a xlink:href="src-inet-transportlayer-sctp-SctpParameter.html" xlink:title="Class SctpParameter" target="_parent">
<polygon fill="#fffcaf" stroke="black" points="89,-19 0,-19 0,0 89,0 89,-19"/>
<text text-anchor="middle" x="44.5" y="-7" font-family="Helvetica,sans-Serif" font-size="10.00">SctpParameter</text>
</a>
</g>
</g>
<!-- SctpAsconfChunk&#45;&gt;SctpParameter -->
<g id="edge1" class="edge">
<title>SctpAsconfChunk&#45;&gt;SctpParameter</title>
<path fill="none" stroke="black" d="M84.57,-54.75C77.65,-47.11 67.43,-35.82 59.05,-26.56"/>
<polygon fill="black" stroke="black" points="61.59,-24.15 52.28,-19.09 56.4,-28.85 61.59,-24.15"/>
</g>
<!-- L3Address -->
<g id="node3" class="node">
<title>L3Address</title>
<g id="a_node3"><a xlink:href="src-inet-networklayer-common-L3Address.html" xlink:title="Class L3Address" target="_parent">
<polygon fill="#fffcaf" stroke="black" points="174,-19 107,-19 107,0 174,0 174,-19"/>
<text text-anchor="middle" x="140.5" y="-7" font-family="Helvetica,sans-Serif" font-size="10.00">L3Address</text>
</a>
</g>
</g>
<!-- SctpAsconfChunk&#45;&gt;L3Address -->
<g id="edge2" class="edge">
<title>SctpAsconfChunk&#45;&gt;L3Address</title>
<path fill="none" stroke="black" d="M100.43,-54.75C107.35,-47.11 117.57,-35.82 125.95,-26.56"/>
<polygon fill="black" stroke="black" points="128.6,-28.85 132.72,-19.09 123.41,-24.15 128.6,-28.85"/>
</g>
</g>
</svg>
