<?xml version="1.0" encoding="UTF-8" standalone="no"?>
<!DOCTYPE svg PUBLIC "-//W3C//DTD SVG 1.1//EN"
 "http://www.w3.org/Graphics/SVG/1.1/DTD/svg11.dtd">
<!-- Generated by graphviz version 2.43.0 (0)
 -->
<!-- Title: opp Pages: 1 -->
<svg width="161pt" height="82pt"
 viewBox="0.00 0.00 160.50 82.00" xmlns="http://www.w3.org/2000/svg" xmlns:xlink="http://www.w3.org/1999/xlink">
<g id="graph0" class="graph" transform="scale(1 1) rotate(0) translate(4 78)">
<title>opp</title>
<polygon fill="transparent" stroke="transparent" points="-4,4 -4,-78 156.5,-78 156.5,4 -4,4"/>
<!-- Ipv4SocketBindCommand -->
<g id="node1" class="node">
<title>Ipv4SocketBindCommand</title>
<g id="a_node1"><a xlink:href="src-inet-networklayer-contract-ipv4-Ipv4SocketBindCommand.html" xlink:title="Class Ipv4SocketBindCommand" target="_parent">
<polygon fill="#fff700" stroke="black" points="142,-74 0,-74 0,-55 142,-55 142,-74"/>
<text text-anchor="middle" x="71" y="-62" font-family="Helvetica,sans-Serif" font-size="10.00">Ipv4SocketBindCommand</text>
</a>
</g>
</g>
<!-- Protocol -->
<g id="node2" class="node">
<title>Protocol</title>
<g id="a_node2"><a xlink:href="src-inet-common-Protocol.html" xlink:title="Class Protocol" target="_parent">
<polygon fill="#fffcaf" stroke="black" points="57,-19 1,-19 1,0 57,0 57,-19"/>
<text text-anchor="middle" x="29" y="-7" font-family="Helvetica,sans-Serif" font-size="10.00">Protocol</text>
</a>
</g>
</g>
<!-- Ipv4SocketBindCommand&#45;&gt;Protocol -->
<g id="edge1" class="edge">
<title>Ipv4SocketBindCommand&#45;&gt;Protocol</title>
<path fill="none" stroke="black" d="M64.06,-54.75C58.13,-47.26 49.43,-36.28 42.18,-27.13"/>
<polygon fill="black" stroke="black" points="44.76,-24.75 35.81,-19.09 39.27,-29.1 44.76,-24.75"/>
</g>
<!-- Ipv4Address -->
<g id="node3" class="node">
<title>Ipv4Address</title>
<g id="a_node3"><a xlink:href="src-inet-networklayer-contract-ipv4-Ipv4Address.html" xlink:title="Class Ipv4Address" target="_parent">
<polygon fill="#fffcaf" stroke="black" points="152.5,-19 75.5,-19 75.5,0 152.5,0 152.5,-19"/>
<text text-anchor="middle" x="114" y="-7" font-family="Helvetica,sans-Serif" font-size="10.00">Ipv4Address</text>
</a>
</g>
</g>
<!-- Ipv4SocketBindCommand&#45;&gt;Ipv4Address -->
<g id="edge2" class="edge">
<title>Ipv4SocketBindCommand&#45;&gt;Ipv4Address</title>
<path fill="none" stroke="black" d="M78.1,-54.75C84.17,-47.26 93.09,-36.28 100.51,-27.13"/>
<polygon fill="black" stroke="black" points="103.45,-29.06 107.03,-19.09 98.01,-24.65 103.45,-29.06"/>
</g>
</g>
</svg>
