<?xml version="1.0" encoding="UTF-8" standalone="no"?>
<!DOCTYPE svg PUBLIC "-//W3C//DTD SVG 1.1//EN"
 "http://www.w3.org/Graphics/SVG/1.1/DTD/svg11.dtd">
<!-- Generated by graphviz version 2.43.0 (0)
 -->
<!-- Title: opp Pages: 1 -->
<svg width="170pt" height="137pt"
 viewBox="0.00 0.00 170.00 137.00" xmlns="http://www.w3.org/2000/svg" xmlns:xlink="http://www.w3.org/1999/xlink">
<g id="graph0" class="graph" transform="scale(1 1) rotate(0) translate(4 133)">
<title>opp</title>
<polygon fill="transparent" stroke="transparent" points="-4,4 -4,-133 166,-133 166,4 -4,4"/>
<!-- ScalarTransmission -->
<g id="node1" class="node">
<title>ScalarTransmission</title>
<g id="a_node1"><a xlink:href="src-inet-physicallayer-wireless-common-analogmodel-packetlevel-ScalarTransmission.html" xlink:title="Class ScalarTransmission" target="_parent">
<polygon fill="#fff700" stroke="black" points="136.5,-74 25.5,-74 25.5,-55 136.5,-55 136.5,-74"/>
<text text-anchor="middle" x="81" y="-62" font-family="Helvetica,sans-Serif" font-size="10.00">ScalarTransmission</text>
</a>
</g>
</g>
<!-- Ieee80211ScalarTransmission -->
<g id="node3" class="node">
<title>Ieee80211ScalarTransmission</title>
<g id="a_node3"><a xlink:href="src-inet-physicallayer-wireless-ieee80211-packetlevel-Ieee80211ScalarTransmission.html" xlink:title="Class Ieee80211ScalarTransmission" target="_parent">
<polygon fill="#fffcaf" stroke="black" points="162,-19 0,-19 0,0 162,0 162,-19"/>
<text text-anchor="middle" x="81" y="-7" font-family="Helvetica,sans-Serif" font-size="10.00">Ieee80211ScalarTransmission</text>
</a>
</g>
</g>
<!-- ScalarTransmission&#45;&gt;Ieee80211ScalarTransmission -->
<g id="edge2" class="edge">
<title>ScalarTransmission&#45;&gt;Ieee80211ScalarTransmission</title>
<path fill="none" stroke="black" d="M81,-54.75C81,-44.87 81,-28.9 81,-19.09"/>
</g>
<!-- FlatTransmissionBase -->
<g id="node2" class="node">
<title>FlatTransmissionBase</title>
<g id="a_node2"><a xlink:href="src-inet-physicallayer-wireless-common-base-packetlevel-FlatTransmissionBase.html" xlink:title="Class FlatTransmissionBase" target="_parent">
<polygon fill="#fffcaf" stroke="black" points="143,-129 19,-129 19,-110 143,-110 143,-129"/>
<text text-anchor="middle" x="81" y="-117" font-family="Helvetica,sans-Serif" font-size="10.00">FlatTransmissionBase</text>
</a>
</g>
</g>
<!-- FlatTransmissionBase&#45;&gt;ScalarTransmission -->
<g id="edge1" class="edge">
<title>FlatTransmissionBase&#45;&gt;ScalarTransmission</title>
<path fill="none" stroke="black" d="M81,-109.75C81,-99.87 81,-83.9 81,-74.09"/>
</g>
</g>
</svg>
