<?xml version="1.0" encoding="UTF-8" standalone="no"?>
<!DOCTYPE svg PUBLIC "-//W3C//DTD SVG 1.1//EN"
 "http://www.w3.org/Graphics/SVG/1.1/DTD/svg11.dtd">
<!-- Generated by graphviz version 2.43.0 (0)
 -->
<!-- Title: opp Pages: 1 -->
<svg width="192pt" height="82pt"
 viewBox="0.00 0.00 192.00 82.00" xmlns="http://www.w3.org/2000/svg" xmlns:xlink="http://www.w3.org/1999/xlink">
<g id="graph0" class="graph" transform="scale(1 1) rotate(0) translate(4 78)">
<title>opp</title>
<polygon fill="transparent" stroke="transparent" points="-4,4 -4,-78 188,-78 188,4 -4,4"/>
<!-- Ipv6NeighbourAdvertisement -->
<g id="node1" class="node">
<title>Ipv6NeighbourAdvertisement</title>
<g id="a_node1"><a xlink:href="src-inet-networklayer-icmpv6-Ipv6NeighbourAdvertisement.html" xlink:title="Class Ipv6NeighbourAdvertisement" target="_parent">
<polygon fill="#fff700" stroke="black" points="168.5,-74 8.5,-74 8.5,-55 168.5,-55 168.5,-74"/>
<text text-anchor="middle" x="88.5" y="-62" font-family="Helvetica,sans-Serif" font-size="10.00">Ipv6NeighbourAdvertisement</text>
</a>
</g>
</g>
<!-- Ipv6Address -->
<g id="node2" class="node">
<title>Ipv6Address</title>
<g id="a_node2"><a xlink:href="src-inet-networklayer-contract-ipv6-Ipv6Address.html" xlink:title="Class Ipv6Address" target="_parent">
<polygon fill="#fffcaf" stroke="black" points="77,-19 0,-19 0,0 77,0 77,-19"/>
<text text-anchor="middle" x="38.5" y="-7" font-family="Helvetica,sans-Serif" font-size="10.00">Ipv6Address</text>
</a>
</g>
</g>
<!-- Ipv6NeighbourAdvertisement&#45;&gt;Ipv6Address -->
<g id="edge1" class="edge">
<title>Ipv6NeighbourAdvertisement&#45;&gt;Ipv6Address</title>
<path fill="none" stroke="black" d="M80.24,-54.75C73.04,-47.11 62.39,-35.82 53.65,-26.56"/>
<polygon fill="black" stroke="black" points="56.01,-23.96 46.6,-19.09 50.92,-28.76 56.01,-23.96"/>
</g>
<!-- Ipv6NdOptions -->
<g id="node3" class="node">
<title>Ipv6NdOptions</title>
<g id="a_node3"><a xlink:href="src-inet-networklayer-icmpv6-Ipv6NdOptions.html" xlink:title="Class Ipv6NdOptions" target="_parent">
<polygon fill="#fffcaf" stroke="black" points="184,-19 95,-19 95,0 184,0 184,-19"/>
<text text-anchor="middle" x="139.5" y="-7" font-family="Helvetica,sans-Serif" font-size="10.00">Ipv6NdOptions</text>
</a>
</g>
</g>
<!-- Ipv6NeighbourAdvertisement&#45;&gt;Ipv6NdOptions -->
<g id="edge2" class="edge">
<title>Ipv6NeighbourAdvertisement&#45;&gt;Ipv6NdOptions</title>
<path fill="none" stroke="black" d="M96.92,-54.75C104.27,-47.11 115.13,-35.82 124.04,-26.56"/>
<polygon fill="black" stroke="black" points="126.82,-28.72 131.24,-19.09 121.78,-23.87 126.82,-28.72"/>
</g>
</g>
</svg>
