<?xml version="1.0" encoding="UTF-8" standalone="no"?>
<!DOCTYPE svg PUBLIC "-//W3C//DTD SVG 1.1//EN"
 "http://www.w3.org/Graphics/SVG/1.1/DTD/svg11.dtd">
<!-- Generated by graphviz version 2.43.0 (0)
 -->
<!-- Title: opp Pages: 1 -->
<svg width="551pt" height="137pt"
 viewBox="0.00 0.00 550.50 137.00" xmlns="http://www.w3.org/2000/svg" xmlns:xlink="http://www.w3.org/1999/xlink">
<g id="graph0" class="graph" transform="scale(1 1) rotate(0) translate(4 133)">
<title>opp</title>
<polygon fill="transparent" stroke="transparent" points="-4,4 -4,-133 546.5,-133 546.5,4 -4,4"/>
<!-- LdpPacket -->
<g id="node1" class="node">
<title>LdpPacket</title>
<g id="a_node1"><a xlink:href="src-inet-networklayer-ldp-LdpPacket.html" xlink:title="Class LdpPacket" target="_parent">
<polygon fill="#fff700" stroke="black" points="276.5,-74 210.5,-74 210.5,-55 276.5,-55 276.5,-74"/>
<text text-anchor="middle" x="243.5" y="-62" font-family="Helvetica,sans-Serif" font-size="10.00">LdpPacket</text>
</a>
</g>
</g>
<!-- LdpAddress -->
<g id="node3" class="node">
<title>LdpAddress</title>
<g id="a_node3"><a xlink:href="src-inet-networklayer-ldp-LdpAddress.html" xlink:title="Class LdpAddress" target="_parent">
<polygon fill="#fffcaf" stroke="black" points="73,-19 0,-19 0,0 73,0 73,-19"/>
<text text-anchor="middle" x="36.5" y="-7" font-family="Helvetica,sans-Serif" font-size="10.00">LdpAddress</text>
</a>
</g>
</g>
<!-- LdpPacket&#45;&gt;LdpAddress -->
<g id="edge2" class="edge">
<title>LdpPacket&#45;&gt;LdpAddress</title>
<path fill="none" stroke="black" d="M210.24,-54.98C171.73,-45.12 108.64,-28.97 70.02,-19.08"/>
</g>
<!-- LdpHello -->
<g id="node4" class="node">
<title>LdpHello</title>
<g id="a_node4"><a xlink:href="src-inet-networklayer-ldp-LdpHello.html" xlink:title="Class LdpHello" target="_parent">
<polygon fill="#fffcaf" stroke="black" points="150,-19 91,-19 91,0 150,0 150,-19"/>
<text text-anchor="middle" x="120.5" y="-7" font-family="Helvetica,sans-Serif" font-size="10.00">LdpHello</text>
</a>
</g>
</g>
<!-- LdpPacket&#45;&gt;LdpHello -->
<g id="edge3" class="edge">
<title>LdpPacket&#45;&gt;LdpHello</title>
<path fill="none" stroke="black" d="M223.74,-54.98C200.92,-45.15 163.59,-29.07 140.62,-19.17"/>
</g>
<!-- LdpIni -->
<g id="node5" class="node">
<title>LdpIni</title>
<g id="a_node5"><a xlink:href="src-inet-networklayer-ldp-LdpIni.html" xlink:title="Class LdpIni" target="_parent">
<polygon fill="#fffcaf" stroke="black" points="222.5,-19 168.5,-19 168.5,0 222.5,0 222.5,-19"/>
<text text-anchor="middle" x="195.5" y="-7" font-family="Helvetica,sans-Serif" font-size="10.00">LdpIni</text>
</a>
</g>
</g>
<!-- LdpPacket&#45;&gt;LdpIni -->
<g id="edge4" class="edge">
<title>LdpPacket&#45;&gt;LdpIni</title>
<path fill="none" stroke="black" d="M235.57,-54.75C226.63,-44.87 212.16,-28.9 203.28,-19.09"/>
</g>
<!-- LdpLabelMapping -->
<g id="node6" class="node">
<title>LdpLabelMapping</title>
<g id="a_node6"><a xlink:href="src-inet-networklayer-ldp-LdpLabelMapping.html" xlink:title="Class LdpLabelMapping" target="_parent">
<polygon fill="#fffcaf" stroke="black" points="342.5,-19 240.5,-19 240.5,0 342.5,0 342.5,-19"/>
<text text-anchor="middle" x="291.5" y="-7" font-family="Helvetica,sans-Serif" font-size="10.00">LdpLabelMapping</text>
</a>
</g>
</g>
<!-- LdpPacket&#45;&gt;LdpLabelMapping -->
<g id="edge5" class="edge">
<title>LdpPacket&#45;&gt;LdpLabelMapping</title>
<path fill="none" stroke="black" d="M251.43,-54.75C260.37,-44.87 274.84,-28.9 283.72,-19.09"/>
</g>
<!-- LdpLabelRequest -->
<g id="node7" class="node">
<title>LdpLabelRequest</title>
<g id="a_node7"><a xlink:href="src-inet-networklayer-ldp-LdpLabelRequest.html" xlink:title="Class LdpLabelRequest" target="_parent">
<polygon fill="#fffcaf" stroke="black" points="460.5,-19 360.5,-19 360.5,0 460.5,0 460.5,-19"/>
<text text-anchor="middle" x="410.5" y="-7" font-family="Helvetica,sans-Serif" font-size="10.00">LdpLabelRequest</text>
</a>
</g>
</g>
<!-- LdpPacket&#45;&gt;LdpLabelRequest -->
<g id="edge6" class="edge">
<title>LdpPacket&#45;&gt;LdpLabelRequest</title>
<path fill="none" stroke="black" d="M270.33,-54.98C301.4,-45.12 352.3,-28.97 383.46,-19.08"/>
</g>
<!-- LdpNotify -->
<g id="node8" class="node">
<title>LdpNotify</title>
<g id="a_node8"><a xlink:href="src-inet-networklayer-ldp-LdpNotify.html" xlink:title="Class LdpNotify" target="_parent">
<polygon fill="#fffcaf" stroke="black" points="542.5,-19 478.5,-19 478.5,0 542.5,0 542.5,-19"/>
<text text-anchor="middle" x="510.5" y="-7" font-family="Helvetica,sans-Serif" font-size="10.00">LdpNotify</text>
</a>
</g>
</g>
<!-- LdpPacket&#45;&gt;LdpNotify -->
<g id="edge7" class="edge">
<title>LdpPacket&#45;&gt;LdpNotify</title>
<path fill="none" stroke="black" d="M276.84,-57.04C320.94,-48.48 401.1,-32.82 469.5,-19 472.35,-18.42 475.31,-17.82 478.28,-17.21"/>
</g>
<!-- FieldsChunk -->
<g id="node2" class="node">
<title>FieldsChunk</title>
<g id="a_node2"><a xlink:href="src-inet-common-packet-chunk-FieldsChunk.html" xlink:title="Class FieldsChunk" target="_parent">
<polygon fill="#fffcaf" stroke="black" points="281,-129 206,-129 206,-110 281,-110 281,-129"/>
<text text-anchor="middle" x="243.5" y="-117" font-family="Helvetica,sans-Serif" font-size="10.00">FieldsChunk</text>
</a>
</g>
</g>
<!-- FieldsChunk&#45;&gt;LdpPacket -->
<g id="edge1" class="edge">
<title>FieldsChunk&#45;&gt;LdpPacket</title>
<path fill="none" stroke="black" d="M243.5,-109.75C243.5,-99.87 243.5,-83.9 243.5,-74.09"/>
</g>
</g>
</svg>
