<?xml version="1.0" encoding="UTF-8" standalone="no"?>
<!DOCTYPE svg PUBLIC "-//W3C//DTD SVG 1.1//EN"
 "http://www.w3.org/Graphics/SVG/1.1/DTD/svg11.dtd">
<!-- Generated by graphviz version 2.43.0 (0)
 -->
<!-- Title: opp Pages: 1 -->
<svg width="168pt" height="82pt"
 viewBox="0.00 0.00 167.50 82.00" xmlns="http://www.w3.org/2000/svg" xmlns:xlink="http://www.w3.org/1999/xlink">
<g id="graph0" class="graph" transform="scale(1 1) rotate(0) translate(4 78)">
<title>opp</title>
<polygon fill="transparent" stroke="transparent" points="-4,4 -4,-78 163.5,-78 163.5,4 -4,4"/>
<!-- LMacHeaderBase -->
<g id="node1" class="node">
<title>LMacHeaderBase</title>
<g id="a_node1"><a xlink:href="src-inet-linklayer-lmac-LMacHeaderBase.html" xlink:title="Class LMacHeaderBase" target="_parent">
<polygon fill="#fff700" stroke="black" points="127,-74 26,-74 26,-55 127,-55 127,-74"/>
<text text-anchor="middle" x="76.5" y="-62" font-family="Helvetica,sans-Serif" font-size="10.00">LMacHeaderBase</text>
</a>
</g>
</g>
<!-- LMacType -->
<g id="node2" class="node">
<title>LMacType</title>
<g id="a_node2"><a xlink:href="src-inet-linklayer-lmac-LMacType.html" xlink:title="Enum LMacType" target="_parent">
<polygon fill="#d0ffd0" stroke="black" points="65,-19 0,-19 0,0 65,0 65,-19"/>
<text text-anchor="middle" x="32.5" y="-7" font-family="Helvetica,sans-Serif" font-size="10.00">LMacType</text>
</a>
</g>
</g>
<!-- LMacHeaderBase&#45;&gt;LMacType -->
<g id="edge1" class="edge">
<title>LMacHeaderBase&#45;&gt;LMacType</title>
<path fill="none" stroke="black" d="M69.23,-54.75C62.96,-47.18 53.71,-36.05 46.07,-26.84"/>
<polygon fill="black" stroke="black" points="48.71,-24.55 39.63,-19.09 43.33,-29.02 48.71,-24.55"/>
</g>
<!-- MacAddress -->
<g id="node3" class="node">
<title>MacAddress</title>
<g id="a_node3"><a xlink:href="src-inet-linklayer-common-MacAddress.html" xlink:title="Class MacAddress" target="_parent">
<polygon fill="#fffcaf" stroke="black" points="159.5,-19 83.5,-19 83.5,0 159.5,0 159.5,-19"/>
<text text-anchor="middle" x="121.5" y="-7" font-family="Helvetica,sans-Serif" font-size="10.00">MacAddress</text>
</a>
</g>
</g>
<!-- LMacHeaderBase&#45;&gt;MacAddress -->
<g id="edge2" class="edge">
<title>LMacHeaderBase&#45;&gt;MacAddress</title>
<path fill="none" stroke="black" d="M83.93,-54.75C90.35,-47.18 99.81,-36.05 107.62,-26.84"/>
<polygon fill="black" stroke="black" points="110.4,-28.98 114.21,-19.09 105.07,-24.45 110.4,-28.98"/>
</g>
</g>
</svg>
