<?xml version="1.0" encoding="UTF-8" standalone="no"?>
<!DOCTYPE svg PUBLIC "-//W3C//DTD SVG 1.1//EN"
 "http://www.w3.org/Graphics/SVG/1.1/DTD/svg11.dtd">
<!-- Generated by graphviz version 2.43.0 (0)
 -->
<!-- Title: opp Pages: 1 -->
<svg width="414pt" height="82pt"
 viewBox="0.00 0.00 413.50 82.00" xmlns="http://www.w3.org/2000/svg" xmlns:xlink="http://www.w3.org/1999/xlink">
<g id="graph0" class="graph" transform="scale(1 1) rotate(0) translate(4 78)">
<title>opp</title>
<polygon fill="transparent" stroke="transparent" points="-4,4 -4,-78 409.5,-78 409.5,4 -4,4"/>
<!-- RsvpPathMsg -->
<g id="node1" class="node">
<title>RsvpPathMsg</title>
<g id="a_node1"><a xlink:href="src-inet-networklayer-rsvpte-RsvpPathMsg.html" xlink:title="Class RsvpPathMsg" target="_parent">
<polygon fill="#fff700" stroke="black" points="234.5,-74 151.5,-74 151.5,-55 234.5,-55 234.5,-74"/>
<text text-anchor="middle" x="193" y="-62" font-family="Helvetica,sans-Serif" font-size="10.00">RsvpPathMsg</text>
</a>
</g>
</g>
<!-- EroVector -->
<g id="node2" class="node">
<title>EroVector</title>
<g id="a_node2"><a xlink:href="src-inet-networklayer-rsvpte-EroVector.html" xlink:title="Class EroVector" target="_parent">
<polygon fill="#fffcaf" stroke="black" points="64,-19 0,-19 0,0 64,0 64,-19"/>
<text text-anchor="middle" x="32" y="-7" font-family="Helvetica,sans-Serif" font-size="10.00">EroVector</text>
</a>
</g>
</g>
<!-- RsvpPathMsg&#45;&gt;EroVector -->
<g id="edge1" class="edge">
<title>RsvpPathMsg&#45;&gt;EroVector</title>
<path fill="none" stroke="black" d="M167.13,-54.98C140.22,-46.13 97.88,-32.19 67.77,-22.28"/>
<polygon fill="black" stroke="black" points="68.66,-18.88 58.07,-19.08 66.47,-25.53 68.66,-18.88"/>
</g>
<!-- LabelRequestObj -->
<g id="node3" class="node">
<title>LabelRequestObj</title>
<g id="a_node3"><a xlink:href="src-inet-networklayer-rsvpte-LabelRequestObj.html" xlink:title="Struct LabelRequestObj" target="_parent">
<polygon fill="#d0d0ff" stroke="black" points="181.5,-19 82.5,-19 82.5,0 181.5,0 181.5,-19"/>
<text text-anchor="middle" x="132" y="-7" font-family="Helvetica,sans-Serif" font-size="10.00">LabelRequestObj</text>
</a>
</g>
</g>
<!-- RsvpPathMsg&#45;&gt;LabelRequestObj -->
<g id="edge2" class="edge">
<title>RsvpPathMsg&#45;&gt;LabelRequestObj</title>
<path fill="none" stroke="black" d="M183.2,-54.98C174.18,-47.15 160.59,-35.34 149.68,-25.86"/>
<polygon fill="black" stroke="black" points="151.82,-23.09 141.98,-19.17 147.23,-28.37 151.82,-23.09"/>
</g>
<!-- SenderDescriptor_t -->
<g id="node4" class="node">
<title>SenderDescriptor_t</title>
<g id="a_node4"><a xlink:href="src-inet-networklayer-rsvpte-SenderDescriptor_t.html" xlink:title="Struct SenderDescriptor_t" target="_parent">
<polygon fill="#d0d0ff" stroke="black" points="310,-19 200,-19 200,0 310,0 310,-19"/>
<text text-anchor="middle" x="255" y="-7" font-family="Helvetica,sans-Serif" font-size="10.00">SenderDescriptor_t</text>
</a>
</g>
</g>
<!-- RsvpPathMsg&#45;&gt;SenderDescriptor_t -->
<g id="edge3" class="edge">
<title>RsvpPathMsg&#45;&gt;SenderDescriptor_t</title>
<path fill="none" stroke="black" d="M202.96,-54.98C212.13,-47.15 225.94,-35.34 237.03,-25.86"/>
<polygon fill="black" stroke="black" points="239.53,-28.33 244.86,-19.17 234.98,-23.01 239.53,-28.33"/>
</g>
<!-- RsvpHopObj -->
<g id="node5" class="node">
<title>RsvpHopObj</title>
<g id="a_node5"><a xlink:href="src-inet-networklayer-rsvpte-RsvpHopObj.html" xlink:title="Struct RsvpHopObj" target="_parent">
<polygon fill="#d0d0ff" stroke="black" points="405.5,-19 328.5,-19 328.5,0 405.5,0 405.5,-19"/>
<text text-anchor="middle" x="367" y="-7" font-family="Helvetica,sans-Serif" font-size="10.00">RsvpHopObj</text>
</a>
</g>
</g>
<!-- RsvpPathMsg&#45;&gt;RsvpHopObj -->
<g id="edge4" class="edge">
<title>RsvpPathMsg&#45;&gt;RsvpHopObj</title>
<path fill="none" stroke="black" d="M220.96,-54.98C250.3,-46.05 296.6,-31.94 329.19,-22.02"/>
<polygon fill="black" stroke="black" points="330.28,-25.34 338.82,-19.08 328.24,-18.65 330.28,-25.34"/>
</g>
</g>
</svg>
