<?xml version="1.0" encoding="UTF-8" standalone="no"?>
<!DOCTYPE svg PUBLIC "-//W3C//DTD SVG 1.1//EN"
 "http://www.w3.org/Graphics/SVG/1.1/DTD/svg11.dtd">
<!-- Generated by graphviz version 2.43.0 (0)
 -->
<!-- Title: opp Pages: 1 -->
<svg width="4839pt" height="82pt"
 viewBox="0.00 0.00 4838.50 82.00" xmlns="http://www.w3.org/2000/svg" xmlns:xlink="http://www.w3.org/1999/xlink">
<g id="graph0" class="graph" transform="scale(1 1) rotate(0) translate(4 78)">
<title>opp</title>
<polygon fill="transparent" stroke="transparent" points="-4,4 -4,-78 4834.5,-78 4834.5,4 -4,4"/>
<!-- TagBase -->
<g id="node1" class="node">
<title>TagBase</title>
<g id="a_node1"><a xlink:href="src-inet-common-TagBase.html" xlink:title="Class TagBase" target="_parent">
<polygon fill="#fff700" stroke="black" points="2532.5,-74 2475.5,-74 2475.5,-55 2532.5,-55 2532.5,-74"/>
<text text-anchor="middle" x="2504" y="-62" font-family="Helvetica,sans-Serif" font-size="10.00">TagBase</text>
</a>
</g>
</g>
<!-- CreationTimeTag -->
<g id="node2" class="node">
<title>CreationTimeTag</title>
<g id="a_node2"><a xlink:href="src-inet-common-CreationTimeTag.html" xlink:title="Class CreationTimeTag" target="_parent">
<polygon fill="#fffcaf" stroke="black" points="98,-19 0,-19 0,0 98,0 98,-19"/>
<text text-anchor="middle" x="49" y="-7" font-family="Helvetica,sans-Serif" font-size="10.00">CreationTimeTag</text>
</a>
</g>
</g>
<!-- TagBase&#45;&gt;CreationTimeTag -->
<g id="edge1" class="edge">
<title>TagBase&#45;&gt;CreationTimeTag</title>
<path fill="none" stroke="black" d="M2475.23,-63.47C2237.82,-63.15 599.08,-59.46 107,-19 104.16,-18.77 101.25,-18.48 98.31,-18.16"/>
</g>
<!-- CreditGateTag -->
<g id="node3" class="node">
<title>CreditGateTag</title>
<g id="a_node3"><a xlink:href="src-inet-queueing-gate-CreditGateTag.html" xlink:title="Class CreditGateTag" target="_parent">
<polygon fill="#fffcaf" stroke="black" points="202,-19 116,-19 116,0 202,0 202,-19"/>
<text text-anchor="middle" x="159" y="-7" font-family="Helvetica,sans-Serif" font-size="10.00">CreditGateTag</text>
</a>
</g>
</g>
<!-- TagBase&#45;&gt;CreditGateTag -->
<g id="edge2" class="edge">
<title>TagBase&#45;&gt;CreditGateTag</title>
<path fill="none" stroke="black" d="M2475.38,-63.51C2244.36,-63.48 680.64,-61.72 211,-19 208.08,-18.73 205.09,-18.4 202.07,-18.03"/>
</g>
<!-- DirectionTag -->
<g id="node4" class="node">
<title>DirectionTag</title>
<g id="a_node4"><a xlink:href="src-inet-common-DirectionTag.html" xlink:title="Class DirectionTag" target="_parent">
<polygon fill="#fffcaf" stroke="black" points="297.5,-19 220.5,-19 220.5,0 297.5,0 297.5,-19"/>
<text text-anchor="middle" x="259" y="-7" font-family="Helvetica,sans-Serif" font-size="10.00">DirectionTag</text>
</a>
</g>
</g>
<!-- TagBase&#45;&gt;DirectionTag -->
<g id="edge3" class="edge">
<title>TagBase&#45;&gt;DirectionTag</title>
<path fill="none" stroke="black" d="M2475.14,-63.55C2248.74,-63.81 754.86,-63.85 306,-19 303.28,-18.73 300.48,-18.38 297.66,-17.99"/>
</g>
<!-- DscpTagBase -->
<g id="node5" class="node">
<title>DscpTagBase</title>
<g id="a_node5"><a xlink:href="src-inet-networklayer-common-DscpTagBase.html" xlink:title="Class DscpTagBase" target="_parent">
<polygon fill="#fffcaf" stroke="black" points="396.5,-19 315.5,-19 315.5,0 396.5,0 396.5,-19"/>
<text text-anchor="middle" x="356" y="-7" font-family="Helvetica,sans-Serif" font-size="10.00">DscpTagBase</text>
</a>
</g>
</g>
<!-- TagBase&#45;&gt;DscpTagBase -->
<g id="edge4" class="edge">
<title>TagBase&#45;&gt;DscpTagBase</title>
<path fill="none" stroke="black" d="M2475.42,-63.47C2255.86,-63.18 833.97,-59.69 406,-19 402.93,-18.71 399.77,-18.34 396.59,-17.91"/>
</g>
<!-- EcnTagBase -->
<g id="node6" class="node">
<title>EcnTagBase</title>
<g id="a_node6"><a xlink:href="src-inet-networklayer-common-EcnTagBase.html" xlink:title="Class EcnTagBase" target="_parent">
<polygon fill="#fffcaf" stroke="black" points="489,-19 415,-19 415,0 489,0 489,-19"/>
<text text-anchor="middle" x="452" y="-7" font-family="Helvetica,sans-Serif" font-size="10.00">EcnTagBase</text>
</a>
</g>
</g>
<!-- TagBase&#45;&gt;EcnTagBase -->
<g id="edge5" class="edge">
<title>TagBase&#45;&gt;EcnTagBase</title>
<path fill="none" stroke="black" d="M2475.32,-63.5C2260.94,-63.38 906.03,-60.95 498,-19 495.09,-18.7 492.09,-18.32 489.08,-17.88"/>
</g>
<!-- EligibilityTimeTag -->
<g id="node7" class="node">
<title>EligibilityTimeTag</title>
<g id="a_node7"><a xlink:href="src-inet-protocolelement-shaper-EligibilityTimeTag.html" xlink:title="Class EligibilityTimeTag" target="_parent">
<polygon fill="#fffcaf" stroke="black" points="610.5,-19 507.5,-19 507.5,0 610.5,0 610.5,-19"/>
<text text-anchor="middle" x="559" y="-7" font-family="Helvetica,sans-Serif" font-size="10.00">EligibilityTimeTag</text>
</a>
</g>
</g>
<!-- TagBase&#45;&gt;EligibilityTimeTag -->
<g id="edge6" class="edge">
<title>TagBase&#45;&gt;EligibilityTimeTag</title>
<path fill="none" stroke="black" d="M2475.45,-63.28C2269.1,-61.59 1002.96,-50.1 620,-19 616.91,-18.75 613.74,-18.45 610.54,-18.11"/>
</g>
<!-- FlowTag -->
<g id="node8" class="node">
<title>FlowTag</title>
<g id="a_node8"><a xlink:href="src-inet-common-FlowTag.html" xlink:title="Class FlowTag" target="_parent">
<polygon fill="#fffcaf" stroke="black" points="685,-19 629,-19 629,0 685,0 685,-19"/>
<text text-anchor="middle" x="657" y="-7" font-family="Helvetica,sans-Serif" font-size="10.00">FlowTag</text>
</a>
</g>
</g>
<!-- TagBase&#45;&gt;FlowTag -->
<g id="edge7" class="edge">
<title>TagBase&#45;&gt;FlowTag</title>
<path fill="none" stroke="black" d="M2475.26,-63.59C2272.87,-64.07 1059.47,-65 694,-19 691.12,-18.64 688.14,-18.15 685.18,-17.59"/>
</g>
<!-- FragmentationReq -->
<g id="node9" class="node">
<title>FragmentationReq</title>
<g id="a_node9"><a xlink:href="src-inet-networklayer-common-FragmentationReq.html" xlink:title="Class FragmentationReq" target="_parent">
<polygon fill="#fffcaf" stroke="black" points="810.5,-19 703.5,-19 703.5,0 810.5,0 810.5,-19"/>
<text text-anchor="middle" x="757" y="-7" font-family="Helvetica,sans-Serif" font-size="10.00">FragmentationReq</text>
</a>
</g>
</g>
<!-- TagBase&#45;&gt;FragmentationReq -->
<g id="edge8" class="edge">
<title>TagBase&#45;&gt;FragmentationReq</title>
<path fill="none" stroke="black" d="M2475.46,-63.17C2282.02,-60.85 1160.53,-46.39 820,-19 816.92,-18.75 813.76,-18.46 810.57,-18.13"/>
</g>
<!-- FragmentTag -->
<g id="node10" class="node">
<title>FragmentTag</title>
<g id="a_node10"><a xlink:href="src-inet-protocolelement-fragmentation-tag-FragmentTag.html" xlink:title="Class FragmentTag" target="_parent">
<polygon fill="#fffcaf" stroke="black" points="909,-19 829,-19 829,0 909,0 909,-19"/>
<text text-anchor="middle" x="869" y="-7" font-family="Helvetica,sans-Serif" font-size="10.00">FragmentTag</text>
</a>
</g>
</g>
<!-- TagBase&#45;&gt;FragmentTag -->
<g id="edge9" class="edge">
<title>TagBase&#45;&gt;FragmentTag</title>
<path fill="none" stroke="black" d="M2475.33,-63.26C2288.06,-61.6 1237.13,-50.99 918,-19 915.08,-18.71 912.07,-18.34 909.05,-17.93"/>
</g>
<!-- GptpIngressTimeInd -->
<g id="node11" class="node">
<title>GptpIngressTimeInd</title>
<g id="a_node11"><a xlink:href="src-inet-linklayer-ieee8021as-GptpIngressTimeInd.html" xlink:title="Class GptpIngressTimeInd" target="_parent">
<polygon fill="#fffcaf" stroke="black" points="1041,-19 927,-19 927,0 1041,0 1041,-19"/>
<text text-anchor="middle" x="984" y="-7" font-family="Helvetica,sans-Serif" font-size="10.00">GptpIngressTimeInd</text>
</a>
</g>
</g>
<!-- TagBase&#45;&gt;GptpIngressTimeInd -->
<g id="edge10" class="edge">
<title>TagBase&#45;&gt;GptpIngressTimeInd</title>
<path fill="none" stroke="black" d="M2475.25,-63.66C2325.8,-64.28 1622.74,-64.54 1050,-19 1047.12,-18.77 1044.17,-18.51 1041.2,-18.21"/>
</g>
<!-- HopLimitTagBase -->
<g id="node12" class="node">
<title>HopLimitTagBase</title>
<g id="a_node12"><a xlink:href="src-inet-networklayer-common-HopLimitTagBase.html" xlink:title="Class HopLimitTagBase" target="_parent">
<polygon fill="#fffcaf" stroke="black" points="1160.5,-19 1059.5,-19 1059.5,0 1160.5,0 1160.5,-19"/>
<text text-anchor="middle" x="1110" y="-7" font-family="Helvetica,sans-Serif" font-size="10.00">HopLimitTagBase</text>
</a>
</g>
</g>
<!-- TagBase&#45;&gt;HopLimitTagBase -->
<g id="edge11" class="edge">
<title>TagBase&#45;&gt;HopLimitTagBase</title>
<path fill="none" stroke="black" d="M2475.28,-63.71C2333.22,-64.5 1691.63,-65.22 1169,-19 1166.32,-18.76 1163.58,-18.49 1160.81,-18.18"/>
</g>
<!-- IdentityTag -->
<g id="node13" class="node">
<title>IdentityTag</title>
<g id="a_node13"><a xlink:href="src-inet-common-IdentityTag.html" xlink:title="Class IdentityTag" target="_parent">
<polygon fill="#fffcaf" stroke="black" points="1249.5,-19 1178.5,-19 1178.5,0 1249.5,0 1249.5,-19"/>
<text text-anchor="middle" x="1214" y="-7" font-family="Helvetica,sans-Serif" font-size="10.00">IdentityTag</text>
</a>
</g>
</g>
<!-- TagBase&#45;&gt;IdentityTag -->
<g id="edge12" class="edge">
<title>TagBase&#45;&gt;IdentityTag</title>
<path fill="none" stroke="black" d="M2475.47,-63.07C2313.28,-60.51 1506.06,-46.59 1259,-19 1256,-18.66 1252.89,-18.24 1249.79,-17.76"/>
</g>
<!-- Ieee80211ChannelTagBase -->
<g id="node14" class="node">
<title>Ieee80211ChannelTagBase</title>
<g id="a_node14"><a xlink:href="src-inet-physicallayer-wireless-ieee80211-packetlevel-Ieee80211ChannelTagBase.html" xlink:title="Class Ieee80211ChannelTagBase" target="_parent">
<polygon fill="#fffcaf" stroke="black" points="1416,-19 1268,-19 1268,0 1416,0 1416,-19"/>
<text text-anchor="middle" x="1342" y="-7" font-family="Helvetica,sans-Serif" font-size="10.00">Ieee80211ChannelTagBase</text>
</a>
</g>
</g>
<!-- TagBase&#45;&gt;Ieee80211ChannelTagBase -->
<g id="edge13" class="edge">
<title>TagBase&#45;&gt;Ieee80211ChannelTagBase</title>
<path fill="none" stroke="black" d="M2475.2,-62.96C2350.12,-60.46 1841.55,-48.89 1425,-19 1422.11,-18.79 1419.17,-18.57 1416.19,-18.32"/>
</g>
<!-- Ieee80211ModeTagBase -->
<g id="node15" class="node">
<title>Ieee80211ModeTagBase</title>
<g id="a_node15"><a xlink:href="src-inet-physicallayer-wireless-ieee80211-packetlevel-Ieee80211ModeTagBase.html" xlink:title="Class Ieee80211ModeTagBase" target="_parent">
<polygon fill="#fffcaf" stroke="black" points="1569.5,-19 1434.5,-19 1434.5,0 1569.5,0 1569.5,-19"/>
<text text-anchor="middle" x="1502" y="-7" font-family="Helvetica,sans-Serif" font-size="10.00">Ieee80211ModeTagBase</text>
</a>
</g>
</g>
<!-- TagBase&#45;&gt;Ieee80211ModeTagBase -->
<g id="edge14" class="edge">
<title>TagBase&#45;&gt;Ieee80211ModeTagBase</title>
<path fill="none" stroke="black" d="M2475.19,-62.76C2361.31,-59.72 1931.6,-46.92 1579,-19 1575.92,-18.76 1572.77,-18.49 1569.58,-18.2"/>
</g>
<!-- Ieee80211SubtypeTagBase -->
<g id="node16" class="node">
<title>Ieee80211SubtypeTagBase</title>
<g id="a_node16"><a xlink:href="src-inet-linklayer-ieee80211-mac-Ieee80211SubtypeTagBase.html" xlink:title="Class Ieee80211SubtypeTagBase" target="_parent">
<polygon fill="#fffcaf" stroke="black" points="1736,-19 1588,-19 1588,0 1736,0 1736,-19"/>
<text text-anchor="middle" x="1662" y="-7" font-family="Helvetica,sans-Serif" font-size="10.00">Ieee80211SubtypeTagBase</text>
</a>
</g>
</g>
<!-- TagBase&#45;&gt;Ieee80211SubtypeTagBase -->
<g id="edge15" class="edge">
<title>TagBase&#45;&gt;Ieee80211SubtypeTagBase</title>
<path fill="none" stroke="black" d="M2475.36,-62.27C2374.95,-57.86 2029.52,-41.9 1745,-19 1742.11,-18.77 1739.17,-18.52 1736.2,-18.26"/>
</g>
<!-- Ieee802SapTagBase -->
<g id="node17" class="node">
<title>Ieee802SapTagBase</title>
<g id="a_node17"><a xlink:href="src-inet-linklayer-common-Ieee802SapTagBase.html" xlink:title="Class Ieee802SapTagBase" target="_parent">
<polygon fill="#fffcaf" stroke="black" points="1868,-19 1754,-19 1754,0 1868,0 1868,-19"/>
<text text-anchor="middle" x="1811" y="-7" font-family="Helvetica,sans-Serif" font-size="10.00">Ieee802SapTagBase</text>
</a>
</g>
</g>
<!-- TagBase&#45;&gt;Ieee802SapTagBase -->
<g id="edge16" class="edge">
<title>TagBase&#45;&gt;Ieee802SapTagBase</title>
<path fill="none" stroke="black" d="M2475.2,-62.04C2386.12,-57.42 2107.21,-41.97 1877,-19 1874.13,-18.71 1871.18,-18.4 1868.21,-18.07"/>
</g>
<!-- InterfaceTagBase -->
<g id="node18" class="node">
<title>InterfaceTagBase</title>
<g id="a_node18"><a xlink:href="src-inet-linklayer-common-InterfaceTagBase.html" xlink:title="Class InterfaceTagBase" target="_parent">
<polygon fill="#fffcaf" stroke="black" points="1987.5,-19 1886.5,-19 1886.5,0 1987.5,0 1987.5,-19"/>
<text text-anchor="middle" x="1937" y="-7" font-family="Helvetica,sans-Serif" font-size="10.00">InterfaceTagBase</text>
</a>
</g>
</g>
<!-- TagBase&#45;&gt;InterfaceTagBase -->
<g id="edge17" class="edge">
<title>TagBase&#45;&gt;InterfaceTagBase</title>
<path fill="none" stroke="black" d="M2475.36,-61.52C2398.05,-56.07 2178.71,-39.83 1997,-19 1993.97,-18.65 1990.85,-18.27 1987.71,-17.88"/>
</g>
<!-- Ipv4OptionsTagBase -->
<g id="node19" class="node">
<title>Ipv4OptionsTagBase</title>
<g id="a_node19"><a xlink:href="src-inet-networklayer-ipv4-Ipv4OptionsTagBase.html" xlink:title="Class Ipv4OptionsTagBase" target="_parent">
<polygon fill="#fffcaf" stroke="black" points="2122,-19 2006,-19 2006,0 2122,0 2122,-19"/>
<text text-anchor="middle" x="2064" y="-7" font-family="Helvetica,sans-Serif" font-size="10.00">Ipv4OptionsTagBase</text>
</a>
</g>
</g>
<!-- TagBase&#45;&gt;Ipv4OptionsTagBase -->
<g id="edge18" class="edge">
<title>TagBase&#45;&gt;Ipv4OptionsTagBase</title>
<path fill="none" stroke="black" d="M2475.45,-60.17C2412.98,-52.86 2259.48,-34.81 2131,-19 2128.09,-18.64 2125.11,-18.27 2122.1,-17.9"/>
</g>
<!-- Ipv6ExtHeaderTagBase -->
<g id="node20" class="node">
<title>Ipv6ExtHeaderTagBase</title>
<g id="a_node20"><a xlink:href="src-inet-networklayer-ipv6-Ipv6ExtHeaderTagBase.html" xlink:title="Class Ipv6ExtHeaderTagBase" target="_parent">
<polygon fill="#fffcaf" stroke="black" points="2269.5,-19 2140.5,-19 2140.5,0 2269.5,0 2269.5,-19"/>
<text text-anchor="middle" x="2205" y="-7" font-family="Helvetica,sans-Serif" font-size="10.00">Ipv6ExtHeaderTagBase</text>
</a>
</g>
</g>
<!-- TagBase&#45;&gt;Ipv6ExtHeaderTagBase -->
<g id="edge19" class="edge">
<title>TagBase&#45;&gt;Ipv6ExtHeaderTagBase</title>
<path fill="none" stroke="black" d="M2475.33,-58.42C2424.03,-49.32 2316.02,-30.18 2253.16,-19.04"/>
</g>
<!-- L3AddressTagBase -->
<g id="node21" class="node">
<title>L3AddressTagBase</title>
<g id="a_node21"><a xlink:href="src-inet-networklayer-common-L3AddressTagBase.html" xlink:title="Class L3AddressTagBase" target="_parent">
<polygon fill="#fffcaf" stroke="black" points="2394.5,-19 2287.5,-19 2287.5,0 2394.5,0 2394.5,-19"/>
<text text-anchor="middle" x="2341" y="-7" font-family="Helvetica,sans-Serif" font-size="10.00">L3AddressTagBase</text>
</a>
</g>
</g>
<!-- TagBase&#45;&gt;L3AddressTagBase -->
<g id="edge20" class="edge">
<title>TagBase&#45;&gt;L3AddressTagBase</title>
<path fill="none" stroke="black" d="M2477.81,-54.98C2447.48,-45.12 2397.81,-28.97 2367.39,-19.08"/>
</g>
<!-- L4PortTagBase -->
<g id="node22" class="node">
<title>L4PortTagBase</title>
<g id="a_node22"><a xlink:href="src-inet-transportlayer-common-L4PortTagBase.html" xlink:title="Class L4PortTagBase" target="_parent">
<polygon fill="#fffcaf" stroke="black" points="2501,-19 2413,-19 2413,0 2501,0 2501,-19"/>
<text text-anchor="middle" x="2457" y="-7" font-family="Helvetica,sans-Serif" font-size="10.00">L4PortTagBase</text>
</a>
</g>
</g>
<!-- TagBase&#45;&gt;L4PortTagBase -->
<g id="edge21" class="edge">
<title>TagBase&#45;&gt;L4PortTagBase</title>
<path fill="none" stroke="black" d="M2496.24,-54.75C2487.48,-44.87 2473.32,-28.9 2464.62,-19.09"/>
</g>
<!-- LabelsTag -->
<g id="node23" class="node">
<title>LabelsTag</title>
<g id="a_node23"><a xlink:href="src-inet-queueing-common-LabelsTag.html" xlink:title="Class LabelsTag" target="_parent">
<polygon fill="#fffcaf" stroke="black" points="2584.5,-19 2519.5,-19 2519.5,0 2584.5,0 2584.5,-19"/>
<text text-anchor="middle" x="2552" y="-7" font-family="Helvetica,sans-Serif" font-size="10.00">LabelsTag</text>
</a>
</g>
</g>
<!-- TagBase&#45;&gt;LabelsTag -->
<g id="edge22" class="edge">
<title>TagBase&#45;&gt;LabelsTag</title>
<path fill="none" stroke="black" d="M2511.93,-54.75C2520.87,-44.87 2535.34,-28.9 2544.22,-19.09"/>
</g>
<!-- LlcProtocolTag -->
<g id="node24" class="node">
<title>LlcProtocolTag</title>
<g id="a_node24"><a xlink:href="src-inet-linklayer-ieee80211-llc-LlcProtocolTag.html" xlink:title="Class LlcProtocolTag" target="_parent">
<polygon fill="#fffcaf" stroke="black" points="2689,-19 2603,-19 2603,0 2689,0 2689,-19"/>
<text text-anchor="middle" x="2646" y="-7" font-family="Helvetica,sans-Serif" font-size="10.00">LlcProtocolTag</text>
</a>
</g>
</g>
<!-- TagBase&#45;&gt;LlcProtocolTag -->
<g id="edge23" class="edge">
<title>TagBase&#45;&gt;LlcProtocolTag</title>
<path fill="none" stroke="black" d="M2526.81,-54.98C2553.16,-45.15 2596.25,-29.07 2622.77,-19.17"/>
</g>
<!-- MacAddressTagBase -->
<g id="node25" class="node">
<title>MacAddressTagBase</title>
<g id="a_node25"><a xlink:href="src-inet-linklayer-common-MacAddressTagBase.html" xlink:title="Class MacAddressTagBase" target="_parent">
<polygon fill="#fffcaf" stroke="black" points="2823,-19 2707,-19 2707,0 2823,0 2823,-19"/>
<text text-anchor="middle" x="2765" y="-7" font-family="Helvetica,sans-Serif" font-size="10.00">MacAddressTagBase</text>
</a>
</g>
</g>
<!-- TagBase&#45;&gt;MacAddressTagBase -->
<g id="edge24" class="edge">
<title>TagBase&#45;&gt;MacAddressTagBase</title>
<path fill="none" stroke="black" d="M2532.68,-57.68C2578.76,-48.32 2669.53,-29.89 2722.95,-19.04"/>
</g>
<!-- MulticastReq -->
<g id="node26" class="node">
<title>MulticastReq</title>
<g id="a_node26"><a xlink:href="src-inet-networklayer-common-MulticastReq.html" xlink:title="Class MulticastReq" target="_parent">
<polygon fill="#fffcaf" stroke="black" points="2921,-19 2841,-19 2841,0 2921,0 2921,-19"/>
<text text-anchor="middle" x="2881" y="-7" font-family="Helvetica,sans-Serif" font-size="10.00">MulticastReq</text>
</a>
</g>
</g>
<!-- TagBase&#45;&gt;MulticastReq -->
<g id="edge25" class="edge">
<title>TagBase&#45;&gt;MulticastReq</title>
<path fill="none" stroke="black" d="M2532.57,-59.98C2589.59,-52.89 2721.54,-36.07 2832,-19 2834.9,-18.55 2837.9,-18.07 2840.91,-17.58"/>
</g>
<!-- NextHopAddressReq -->
<g id="node27" class="node">
<title>NextHopAddressReq</title>
<g id="a_node27"><a xlink:href="src-inet-networklayer-common-NextHopAddressReq.html" xlink:title="Class NextHopAddressReq" target="_parent">
<polygon fill="#fffcaf" stroke="black" points="3056.5,-19 2939.5,-19 2939.5,0 3056.5,0 3056.5,-19"/>
<text text-anchor="middle" x="2998" y="-7" font-family="Helvetica,sans-Serif" font-size="10.00">NextHopAddressReq</text>
</a>
</g>
</g>
<!-- TagBase&#45;&gt;NextHopAddressReq -->
<g id="edge26" class="edge">
<title>TagBase&#45;&gt;NextHopAddressReq</title>
<path fill="none" stroke="black" d="M2532.69,-60.71C2601.36,-53.97 2780.59,-36.14 2930,-19 2933.07,-18.65 2936.22,-18.28 2939.4,-17.9"/>
</g>
<!-- PacketEventTag -->
<g id="node28" class="node">
<title>PacketEventTag</title>
<g id="a_node28"><a xlink:href="src-inet-common-PacketEventTag.html" xlink:title="Class PacketEventTag" target="_parent">
<polygon fill="#fffcaf" stroke="black" points="3167.5,-19 3074.5,-19 3074.5,0 3167.5,0 3167.5,-19"/>
<text text-anchor="middle" x="3121" y="-7" font-family="Helvetica,sans-Serif" font-size="10.00">PacketEventTag</text>
</a>
</g>
</g>
<!-- TagBase&#45;&gt;PacketEventTag -->
<g id="edge27" class="edge">
<title>TagBase&#45;&gt;PacketEventTag</title>
<path fill="none" stroke="black" d="M2532.73,-61.98C2615.63,-57.44 2862.33,-42.77 3066,-19 3068.69,-18.69 3071.44,-18.34 3074.22,-17.97"/>
</g>
<!-- PcpTagBase -->
<g id="node29" class="node">
<title>PcpTagBase</title>
<g id="a_node29"><a xlink:href="src-inet-linklayer-common-PcpTagBase.html" xlink:title="Class PcpTagBase" target="_parent">
<polygon fill="#fffcaf" stroke="black" points="3260,-19 3186,-19 3186,0 3260,0 3260,-19"/>
<text text-anchor="middle" x="3223" y="-7" font-family="Helvetica,sans-Serif" font-size="10.00">PcpTagBase</text>
</a>
</g>
</g>
<!-- TagBase&#45;&gt;PcpTagBase -->
<g id="edge28" class="edge">
<title>TagBase&#45;&gt;PcpTagBase</title>
<path fill="none" stroke="black" d="M2532.65,-62.8C2625.83,-60.27 2928.64,-50.05 3177,-19 3179.9,-18.64 3182.9,-18.21 3185.9,-17.74"/>
</g>
<!-- ProgressTag -->
<g id="node30" class="node">
<title>ProgressTag</title>
<g id="a_node30"><a xlink:href="src-inet-queueing-common-ProgressTag.html" xlink:title="Class ProgressTag" target="_parent">
<polygon fill="#fffcaf" stroke="black" points="3353.5,-19 3278.5,-19 3278.5,0 3353.5,0 3353.5,-19"/>
<text text-anchor="middle" x="3316" y="-7" font-family="Helvetica,sans-Serif" font-size="10.00">ProgressTag</text>
</a>
</g>
</g>
<!-- TagBase&#45;&gt;ProgressTag -->
<g id="edge29" class="edge">
<title>TagBase&#45;&gt;ProgressTag</title>
<path fill="none" stroke="black" d="M2532.59,-63.08C2633.6,-61.34 2983,-53.05 3269,-19 3272.05,-18.64 3275.19,-18.2 3278.35,-17.72"/>
</g>
<!-- ProtocolListTagBase -->
<g id="node31" class="node">
<title>ProtocolListTagBase</title>
<g id="a_node31"><a xlink:href="src-inet-common-ProtocolListTagBase.html" xlink:title="Class ProtocolListTagBase" target="_parent">
<polygon fill="#fffcaf" stroke="black" points="3486,-19 3372,-19 3372,0 3486,0 3486,-19"/>
<text text-anchor="middle" x="3429" y="-7" font-family="Helvetica,sans-Serif" font-size="10.00">ProtocolListTagBase</text>
</a>
</g>
</g>
<!-- TagBase&#45;&gt;ProtocolListTagBase -->
<g id="edge30" class="edge">
<title>TagBase&#45;&gt;ProtocolListTagBase</title>
<path fill="none" stroke="black" d="M2532.6,-62.81C2641.12,-60.03 3037.66,-48.33 3363,-19 3365.88,-18.74 3368.82,-18.45 3371.79,-18.14"/>
</g>
<!-- ProtocolTagBase -->
<g id="node32" class="node">
<title>ProtocolTagBase</title>
<g id="a_node32"><a xlink:href="src-inet-common-ProtocolTagBase.html" xlink:title="Class ProtocolTagBase" target="_parent">
<polygon fill="#fffcaf" stroke="black" points="3601.5,-19 3504.5,-19 3504.5,0 3601.5,0 3601.5,-19"/>
<text text-anchor="middle" x="3553" y="-7" font-family="Helvetica,sans-Serif" font-size="10.00">ProtocolTagBase</text>
</a>
</g>
</g>
<!-- TagBase&#45;&gt;ProtocolTagBase -->
<g id="edge31" class="edge">
<title>TagBase&#45;&gt;ProtocolTagBase</title>
<path fill="none" stroke="black" d="M2532.86,-63.26C2651.8,-62.07 3115.68,-55.22 3495,-19 3498.04,-18.71 3501.16,-18.37 3504.31,-18"/>
</g>
<!-- RateTag -->
<g id="node33" class="node">
<title>RateTag</title>
<g id="a_node33"><a xlink:href="src-inet-queueing-common-RateTag.html" xlink:title="Class RateTag" target="_parent">
<polygon fill="#fffcaf" stroke="black" points="3676,-19 3620,-19 3620,0 3676,0 3676,-19"/>
<text text-anchor="middle" x="3648" y="-7" font-family="Helvetica,sans-Serif" font-size="10.00">RateTag</text>
</a>
</g>
</g>
<!-- TagBase&#45;&gt;RateTag -->
<g id="edge32" class="edge">
<title>TagBase&#45;&gt;RateTag</title>
<path fill="none" stroke="black" d="M2532.53,-63.07C2683.82,-60.69 3393.43,-48.11 3611,-19 3613.87,-18.62 3616.85,-18.11 3619.82,-17.54"/>
</g>
<!-- ResidenceTimeTag -->
<g id="node34" class="node">
<title>ResidenceTimeTag</title>
<g id="a_node34"><a xlink:href="src-inet-common-ResidenceTimeTag.html" xlink:title="Class ResidenceTimeTag" target="_parent">
<polygon fill="#fffcaf" stroke="black" points="3801.5,-19 3694.5,-19 3694.5,0 3801.5,0 3801.5,-19"/>
<text text-anchor="middle" x="3748" y="-7" font-family="Helvetica,sans-Serif" font-size="10.00">ResidenceTimeTag</text>
</a>
</g>
</g>
<!-- TagBase&#45;&gt;ResidenceTimeTag -->
<g id="edge33" class="edge">
<title>TagBase&#45;&gt;ResidenceTimeTag</title>
<path fill="none" stroke="black" d="M2532.84,-63.44C2665.07,-62.94 3226.58,-58.47 3685,-19 3688.08,-18.73 3691.24,-18.43 3694.42,-18.09"/>
</g>
<!-- SctpCommandReq -->
<g id="node35" class="node">
<title>SctpCommandReq</title>
<g id="a_node35"><a xlink:href="src-inet-transportlayer-contract-sctp-SctpCommandReq.html" xlink:title="Class SctpCommandReq" target="_parent">
<polygon fill="#fffcaf" stroke="black" points="3926.5,-19 3819.5,-19 3819.5,0 3926.5,0 3926.5,-19"/>
<text text-anchor="middle" x="3873" y="-7" font-family="Helvetica,sans-Serif" font-size="10.00">SctpCommandReq</text>
</a>
</g>
</g>
<!-- TagBase&#45;&gt;SctpCommandReq -->
<g id="edge34" class="edge">
<title>TagBase&#45;&gt;SctpCommandReq</title>
<path fill="none" stroke="black" d="M2532.58,-63.61C2672.55,-63.91 3299.75,-62.63 3811,-19 3813.71,-18.77 3816.48,-18.5 3819.27,-18.21"/>
</g>
<!-- SequenceNumberTagBase -->
<g id="node36" class="node">
<title>SequenceNumberTagBase</title>
<g id="a_node36"><a xlink:href="src-inet-common-SequenceNumberTagBase.html" xlink:title="Class SequenceNumberTagBase" target="_parent">
<polygon fill="#fffcaf" stroke="black" points="4087.5,-19 3944.5,-19 3944.5,0 4087.5,0 4087.5,-19"/>
<text text-anchor="middle" x="4016" y="-7" font-family="Helvetica,sans-Serif" font-size="10.00">SequenceNumberTagBase</text>
</a>
</g>
</g>
<!-- TagBase&#45;&gt;SequenceNumberTagBase -->
<g id="edge35" class="edge">
<title>TagBase&#45;&gt;SequenceNumberTagBase</title>
<path fill="none" stroke="black" d="M2532.79,-63.41C2680.92,-62.75 3372.08,-57.67 3936,-19 3938.79,-18.81 3941.63,-18.6 3944.49,-18.37"/>
</g>
<!-- SignalTagBase -->
<g id="node37" class="node">
<title>SignalTagBase</title>
<g id="a_node37"><a xlink:href="src-inet-physicallayer-wireless-common-contract-packetlevel-SignalTagBase.html" xlink:title="Class SignalTagBase" target="_parent">
<polygon fill="#fffcaf" stroke="black" points="4192.5,-19 4105.5,-19 4105.5,0 4192.5,0 4192.5,-19"/>
<text text-anchor="middle" x="4149" y="-7" font-family="Helvetica,sans-Serif" font-size="10.00">SignalTagBase</text>
</a>
</g>
</g>
<!-- TagBase&#45;&gt;SignalTagBase -->
<g id="edge36" class="edge">
<title>TagBase&#45;&gt;SignalTagBase</title>
<path fill="none" stroke="black" d="M2532.8,-63.22C2720.86,-61.34 3776.3,-49.55 4097,-19 4099.73,-18.74 4102.54,-18.42 4105.36,-18.07"/>
</g>
<!-- SocketTagBase -->
<g id="node38" class="node">
<title>SocketTagBase</title>
<g id="a_node38"><a xlink:href="src-inet-common-socket-SocketTagBase.html" xlink:title="Class SocketTagBase" target="_parent">
<polygon fill="#fffcaf" stroke="black" points="4299.5,-19 4210.5,-19 4210.5,0 4299.5,0 4299.5,-19"/>
<text text-anchor="middle" x="4255" y="-7" font-family="Helvetica,sans-Serif" font-size="10.00">SocketTagBase</text>
</a>
</g>
</g>
<!-- TagBase&#45;&gt;SocketTagBase -->
<g id="edge37" class="edge">
<title>TagBase&#45;&gt;SocketTagBase</title>
<path fill="none" stroke="black" d="M2532.79,-63.27C2727.89,-61.63 3859,-50.86 4202,-19 4204.69,-18.75 4207.45,-18.45 4210.23,-18.11"/>
</g>
<!-- StreamTagBase -->
<g id="node39" class="node">
<title>StreamTagBase</title>
<g id="a_node39"><a xlink:href="src-inet-protocolelement-redundancy-StreamTagBase.html" xlink:title="Class StreamTagBase" target="_parent">
<polygon fill="#fffcaf" stroke="black" points="4410,-19 4318,-19 4318,0 4410,0 4410,-19"/>
<text text-anchor="middle" x="4364" y="-7" font-family="Helvetica,sans-Serif" font-size="10.00">StreamTagBase</text>
</a>
</g>
</g>
<!-- TagBase&#45;&gt;StreamTagBase -->
<g id="edge38" class="edge">
<title>TagBase&#45;&gt;StreamTagBase</title>
<path fill="none" stroke="black" d="M2532.63,-63.3C2734.25,-61.81 3943.11,-51.65 4309,-19 4311.89,-18.74 4314.85,-18.43 4317.84,-18.07"/>
</g>
<!-- TimeTagBase -->
<g id="node40" class="node">
<title>TimeTagBase</title>
<g id="a_node40"><a xlink:href="src-inet-common-TimeTagBase.html" xlink:title="Class TimeTagBase" target="_parent">
<polygon fill="#fffcaf" stroke="black" points="4509.5,-19 4428.5,-19 4428.5,0 4509.5,0 4509.5,-19"/>
<text text-anchor="middle" x="4469" y="-7" font-family="Helvetica,sans-Serif" font-size="10.00">TimeTagBase</text>
</a>
</g>
</g>
<!-- TagBase&#45;&gt;TimeTagBase -->
<g id="edge39" class="edge">
<title>TagBase&#45;&gt;TimeTagBase</title>
<path fill="none" stroke="black" d="M2532.69,-63.41C2741.48,-62.63 4030.04,-56.38 4419,-19 4422.07,-18.71 4425.23,-18.33 4428.41,-17.91"/>
</g>
<!-- TosTagBase -->
<g id="node41" class="node">
<title>TosTagBase</title>
<g id="a_node41"><a xlink:href="src-inet-networklayer-common-TosTagBase.html" xlink:title="Class TosTagBase" target="_parent">
<polygon fill="#fffcaf" stroke="black" points="4600.5,-19 4527.5,-19 4527.5,0 4600.5,0 4600.5,-19"/>
<text text-anchor="middle" x="4564" y="-7" font-family="Helvetica,sans-Serif" font-size="10.00">TosTagBase</text>
</a>
</g>
</g>
<!-- TagBase&#45;&gt;TosTagBase -->
<g id="edge40" class="edge">
<title>TagBase&#45;&gt;TosTagBase</title>
<path fill="none" stroke="black" d="M2532.81,-63.52C2748.17,-63.53 4109.22,-61.93 4519,-19 4521.69,-18.72 4524.46,-18.36 4527.24,-17.95"/>
</g>
<!-- UserPriorityTagBase -->
<g id="node42" class="node">
<title>UserPriorityTagBase</title>
<g id="a_node42"><a xlink:href="src-inet-linklayer-common-UserPriorityTagBase.html" xlink:title="Class UserPriorityTagBase" target="_parent">
<polygon fill="#fffcaf" stroke="black" points="4733.5,-19 4618.5,-19 4618.5,0 4733.5,0 4733.5,-19"/>
<text text-anchor="middle" x="4676" y="-7" font-family="Helvetica,sans-Serif" font-size="10.00">UserPriorityTagBase</text>
</a>
</g>
</g>
<!-- TagBase&#45;&gt;UserPriorityTagBase -->
<g id="edge41" class="edge">
<title>TagBase&#45;&gt;UserPriorityTagBase</title>
<path fill="none" stroke="black" d="M2532.67,-63.32C2752.97,-61.84 4179.67,-51.16 4610,-19 4612.76,-18.79 4615.59,-18.55 4618.44,-18.28"/>
</g>
<!-- VlanTagBase -->
<g id="node43" class="node">
<title>VlanTagBase</title>
<g id="a_node43"><a xlink:href="src-inet-linklayer-common-VlanTagBase.html" xlink:title="Class VlanTagBase" target="_parent">
<polygon fill="#fffcaf" stroke="black" points="4830.5,-19 4751.5,-19 4751.5,0 4830.5,0 4830.5,-19"/>
<text text-anchor="middle" x="4791" y="-7" font-family="Helvetica,sans-Serif" font-size="10.00">VlanTagBase</text>
</a>
</g>
</g>
<!-- TagBase&#45;&gt;VlanTagBase -->
<g id="edge42" class="edge">
<title>TagBase&#45;&gt;VlanTagBase</title>
<path fill="none" stroke="black" d="M2532.67,-63.54C2760.79,-63.8 4285.2,-63.81 4743,-19 4745.7,-18.74 4748.47,-18.41 4751.25,-18.03"/>
</g>
</g>
</svg>
