<?xml version="1.0" encoding="UTF-8" standalone="no"?>
<!DOCTYPE svg PUBLIC "-//W3C//DTD SVG 1.1//EN"
 "http://www.w3.org/Graphics/SVG/1.1/DTD/svg11.dtd">
<!-- Generated by graphviz version 2.43.0 (0)
 -->
<!-- Title: opp Pages: 1 -->
<svg width="421pt" height="137pt"
 viewBox="0.00 0.00 421.00 137.00" xmlns="http://www.w3.org/2000/svg" xmlns:xlink="http://www.w3.org/1999/xlink">
<g id="graph0" class="graph" transform="scale(1 1) rotate(0) translate(4 133)">
<title>opp</title>
<polygon fill="transparent" stroke="transparent" points="-4,4 -4,-133 417,-133 417,4 -4,4"/>
<!-- DhcpOptions -->
<g id="node1" class="node">
<title>DhcpOptions</title>
<g id="a_node1"><a xlink:href="src-inet-applications-dhcp-DhcpOptions.html" xlink:title="Class DhcpOptions" target="_parent">
<polygon fill="#fff700" stroke="black" points="266,-74 187,-74 187,-55 266,-55 266,-74"/>
<text text-anchor="middle" x="226.5" y="-62" font-family="Helvetica,sans-Serif" font-size="10.00">DhcpOptions</text>
</a>
</g>
</g>
<!-- DhcpMessageType -->
<g id="node2" class="node">
<title>DhcpMessageType</title>
<g id="a_node2"><a xlink:href="src-inet-applications-dhcp-DhcpMessageType.html" xlink:title="Enum DhcpMessageType" target="_parent">
<polygon fill="#d0ffd0" stroke="black" points="107,-19 0,-19 0,0 107,0 107,-19"/>
<text text-anchor="middle" x="53.5" y="-7" font-family="Helvetica,sans-Serif" font-size="10.00">DhcpMessageType</text>
</a>
</g>
</g>
<!-- DhcpOptions&#45;&gt;DhcpMessageType -->
<g id="edge1" class="edge">
<title>DhcpOptions&#45;&gt;DhcpMessageType</title>
<path fill="none" stroke="black" d="M198.7,-54.98C169.53,-46.05 123.5,-31.94 91.1,-22.02"/>
<polygon fill="black" stroke="black" points="92.1,-18.66 81.51,-19.08 90.05,-25.36 92.1,-18.66"/>
</g>
<!-- DhcpOptionCode -->
<g id="node3" class="node">
<title>DhcpOptionCode</title>
<g id="a_node3"><a xlink:href="src-inet-applications-dhcp-DhcpOptionCode.html" xlink:title="Enum DhcpOptionCode" target="_parent">
<polygon fill="#d0ffd0" stroke="black" points="223.5,-19 125.5,-19 125.5,0 223.5,0 223.5,-19"/>
<text text-anchor="middle" x="174.5" y="-7" font-family="Helvetica,sans-Serif" font-size="10.00">DhcpOptionCode</text>
</a>
</g>
</g>
<!-- DhcpOptions&#45;&gt;DhcpOptionCode -->
<g id="edge2" class="edge">
<title>DhcpOptions&#45;&gt;DhcpOptionCode</title>
<path fill="none" stroke="black" d="M217.91,-54.75C210.34,-47.03 199.12,-35.6 189.99,-26.28"/>
<polygon fill="black" stroke="black" points="192.43,-23.78 182.93,-19.09 187.43,-28.68 192.43,-23.78"/>
</g>
<!-- MacAddress -->
<g id="node4" class="node">
<title>MacAddress</title>
<g id="a_node4"><a xlink:href="src-inet-linklayer-common-MacAddress.html" xlink:title="Class MacAddress" target="_parent">
<polygon fill="#fffcaf" stroke="black" points="317.5,-19 241.5,-19 241.5,0 317.5,0 317.5,-19"/>
<text text-anchor="middle" x="279.5" y="-7" font-family="Helvetica,sans-Serif" font-size="10.00">MacAddress</text>
</a>
</g>
</g>
<!-- DhcpOptions&#45;&gt;MacAddress -->
<g id="edge3" class="edge">
<title>DhcpOptions&#45;&gt;MacAddress</title>
<path fill="none" stroke="black" d="M235.25,-54.75C242.97,-47.03 254.4,-35.6 263.72,-26.28"/>
<polygon fill="black" stroke="black" points="266.31,-28.64 270.91,-19.09 261.36,-23.69 266.31,-28.64"/>
</g>
<!-- Ipv4Address -->
<g id="node5" class="node">
<title>Ipv4Address</title>
<g id="a_node5"><a xlink:href="src-inet-networklayer-contract-ipv4-Ipv4Address.html" xlink:title="Class Ipv4Address" target="_parent">
<polygon fill="#fffcaf" stroke="black" points="413,-19 336,-19 336,0 413,0 413,-19"/>
<text text-anchor="middle" x="374.5" y="-7" font-family="Helvetica,sans-Serif" font-size="10.00">Ipv4Address</text>
</a>
</g>
</g>
<!-- DhcpOptions&#45;&gt;Ipv4Address -->
<g id="edge4" class="edge">
<title>DhcpOptions&#45;&gt;Ipv4Address</title>
<path fill="none" stroke="black" d="M250.28,-54.98C274.73,-46.23 313.03,-32.51 340.65,-22.62"/>
<polygon fill="black" stroke="black" points="342.05,-25.84 350.29,-19.17 339.69,-19.25 342.05,-25.84"/>
</g>
<!-- DhcpMessage -->
<g id="node6" class="node">
<title>DhcpMessage</title>
<g id="a_node6"><a xlink:href="src-inet-applications-dhcp-DhcpMessage.html" xlink:title="Class DhcpMessage" target="_parent">
<polygon fill="#fffcaf" stroke="black" points="269,-129 184,-129 184,-110 269,-110 269,-129"/>
<text text-anchor="middle" x="226.5" y="-117" font-family="Helvetica,sans-Serif" font-size="10.00">DhcpMessage</text>
</a>
</g>
</g>
<!-- DhcpMessage&#45;&gt;DhcpOptions -->
<g id="edge5" class="edge">
<title>DhcpMessage&#45;&gt;DhcpOptions</title>
<path fill="none" stroke="black" d="M226.5,-109.75C226.5,-102.8 226.5,-92.85 226.5,-84.13"/>
<polygon fill="black" stroke="black" points="230,-84.09 226.5,-74.09 223,-84.09 230,-84.09"/>
</g>
</g>
</svg>
