<?xml version="1.0" encoding="UTF-8" standalone="no"?>
<!DOCTYPE svg PUBLIC "-//W3C//DTD SVG 1.1//EN"
 "http://www.w3.org/Graphics/SVG/1.1/DTD/svg11.dtd">
<!-- Generated by graphviz version 2.43.0 (0)
 -->
<!-- Title: opp Pages: 1 -->
<svg width="1453pt" height="82pt"
 viewBox="0.00 0.00 1453.00 82.00" xmlns="http://www.w3.org/2000/svg" xmlns:xlink="http://www.w3.org/1999/xlink">
<g id="graph0" class="graph" transform="scale(1 1) rotate(0) translate(4 78)">
<title>opp</title>
<polygon fill="transparent" stroke="transparent" points="-4,4 -4,-78 1449,-78 1449,4 -4,4"/>
<!-- BgpUpdatePathAttributes -->
<g id="node1" class="node">
<title>BgpUpdatePathAttributes</title>
<g id="a_node1"><a xlink:href="src-inet-routing-bgpv4-bgpmessage-BgpUpdatePathAttributes.html" xlink:title="Class BgpUpdatePathAttributes" target="_parent">
<polygon fill="#fff700" stroke="black" points="810,-74 670,-74 670,-55 810,-55 810,-74"/>
<text text-anchor="middle" x="740" y="-62" font-family="Helvetica,sans-Serif" font-size="10.00">BgpUpdatePathAttributes</text>
</a>
</g>
</g>
<!-- BgpUpdatePathAttributesAggregator -->
<g id="node2" class="node">
<title>BgpUpdatePathAttributesAggregator</title>
<g id="a_node2"><a xlink:href="src-inet-routing-bgpv4-bgpmessage-BgpUpdatePathAttributesAggregator.html" xlink:title="Class BgpUpdatePathAttributesAggregator" target="_parent">
<polygon fill="#fffcaf" stroke="black" points="194,-19 0,-19 0,0 194,0 194,-19"/>
<text text-anchor="middle" x="97" y="-7" font-family="Helvetica,sans-Serif" font-size="10.00">BgpUpdatePathAttributesAggregator</text>
</a>
</g>
</g>
<!-- BgpUpdatePathAttributes&#45;&gt;BgpUpdatePathAttributesAggregator -->
<g id="edge1" class="edge">
<title>BgpUpdatePathAttributes&#45;&gt;BgpUpdatePathAttributesAggregator</title>
<path fill="none" stroke="black" d="M669.96,-57.73C554.74,-48.23 324.95,-29.29 194.1,-18.5"/>
</g>
<!-- BgpUpdatePathAttributesAsPath -->
<g id="node3" class="node">
<title>BgpUpdatePathAttributesAsPath</title>
<g id="a_node3"><a xlink:href="src-inet-routing-bgpv4-bgpmessage-BgpUpdatePathAttributesAsPath.html" xlink:title="Class BgpUpdatePathAttributesAsPath" target="_parent">
<polygon fill="#fffcaf" stroke="black" points="386,-19 212,-19 212,0 386,0 386,-19"/>
<text text-anchor="middle" x="299" y="-7" font-family="Helvetica,sans-Serif" font-size="10.00">BgpUpdatePathAttributesAsPath</text>
</a>
</g>
</g>
<!-- BgpUpdatePathAttributes&#45;&gt;BgpUpdatePathAttributesAsPath -->
<g id="edge2" class="edge">
<title>BgpUpdatePathAttributes&#45;&gt;BgpUpdatePathAttributesAsPath</title>
<path fill="none" stroke="black" d="M669.63,-55.04C587.44,-45.17 452.24,-28.92 369.84,-19.01"/>
</g>
<!-- BgpUpdatePathAttributesAtomicAggregate -->
<g id="node4" class="node">
<title>BgpUpdatePathAttributesAtomicAggregate</title>
<g id="a_node4"><a xlink:href="src-inet-routing-bgpv4-bgpmessage-BgpUpdatePathAttributesAtomicAggregate.html" xlink:title="Class BgpUpdatePathAttributesAtomicAggregate" target="_parent">
<polygon fill="#fffcaf" stroke="black" points="629.5,-19 404.5,-19 404.5,0 629.5,0 629.5,-19"/>
<text text-anchor="middle" x="517" y="-7" font-family="Helvetica,sans-Serif" font-size="10.00">BgpUpdatePathAttributesAtomicAggregate</text>
</a>
</g>
</g>
<!-- BgpUpdatePathAttributes&#45;&gt;BgpUpdatePathAttributesAtomicAggregate -->
<g id="edge3" class="edge">
<title>BgpUpdatePathAttributes&#45;&gt;BgpUpdatePathAttributesAtomicAggregate</title>
<path fill="none" stroke="black" d="M704.17,-54.98C662.68,-45.12 594.72,-28.97 553.11,-19.08"/>
</g>
<!-- BgpUpdatePathAttributesLocalPref -->
<g id="node5" class="node">
<title>BgpUpdatePathAttributesLocalPref</title>
<g id="a_node5"><a xlink:href="src-inet-routing-bgpv4-bgpmessage-BgpUpdatePathAttributesLocalPref.html" xlink:title="Class BgpUpdatePathAttributesLocalPref" target="_parent">
<polygon fill="#fffcaf" stroke="black" points="832.5,-19 647.5,-19 647.5,0 832.5,0 832.5,-19"/>
<text text-anchor="middle" x="740" y="-7" font-family="Helvetica,sans-Serif" font-size="10.00">BgpUpdatePathAttributesLocalPref</text>
</a>
</g>
</g>
<!-- BgpUpdatePathAttributes&#45;&gt;BgpUpdatePathAttributesLocalPref -->
<g id="edge4" class="edge">
<title>BgpUpdatePathAttributes&#45;&gt;BgpUpdatePathAttributesLocalPref</title>
<path fill="none" stroke="black" d="M740,-54.75C740,-44.87 740,-28.9 740,-19.09"/>
</g>
<!-- BgpUpdatePathAttributesMultiExitDisc -->
<g id="node6" class="node">
<title>BgpUpdatePathAttributesMultiExitDisc</title>
<g id="a_node6"><a xlink:href="src-inet-routing-bgpv4-bgpmessage-BgpUpdatePathAttributesMultiExitDisc.html" xlink:title="Class BgpUpdatePathAttributesMultiExitDisc" target="_parent">
<polygon fill="#fffcaf" stroke="black" points="1055.5,-19 850.5,-19 850.5,0 1055.5,0 1055.5,-19"/>
<text text-anchor="middle" x="953" y="-7" font-family="Helvetica,sans-Serif" font-size="10.00">BgpUpdatePathAttributesMultiExitDisc</text>
</a>
</g>
</g>
<!-- BgpUpdatePathAttributes&#45;&gt;BgpUpdatePathAttributesMultiExitDisc -->
<g id="edge5" class="edge">
<title>BgpUpdatePathAttributes&#45;&gt;BgpUpdatePathAttributesMultiExitDisc</title>
<path fill="none" stroke="black" d="M774.22,-54.98C813.85,-45.12 878.77,-28.97 918.51,-19.08"/>
</g>
<!-- BgpUpdatePathAttributesNextHop -->
<g id="node7" class="node">
<title>BgpUpdatePathAttributesNextHop</title>
<g id="a_node7"><a xlink:href="src-inet-routing-bgpv4-bgpmessage-BgpUpdatePathAttributesNextHop.html" xlink:title="Class BgpUpdatePathAttributesNextHop" target="_parent">
<polygon fill="#fffcaf" stroke="black" points="1256.5,-19 1073.5,-19 1073.5,0 1256.5,0 1256.5,-19"/>
<text text-anchor="middle" x="1165" y="-7" font-family="Helvetica,sans-Serif" font-size="10.00">BgpUpdatePathAttributesNextHop</text>
</a>
</g>
</g>
<!-- BgpUpdatePathAttributes&#45;&gt;BgpUpdatePathAttributesNextHop -->
<g id="edge6" class="edge">
<title>BgpUpdatePathAttributes&#45;&gt;BgpUpdatePathAttributesNextHop</title>
<path fill="none" stroke="black" d="M808.28,-54.98C887.48,-45.11 1017.26,-28.92 1096.53,-19.04"/>
</g>
<!-- BgpUpdatePathAttributesOrigin -->
<g id="node8" class="node">
<title>BgpUpdatePathAttributesOrigin</title>
<g id="a_node8"><a xlink:href="src-inet-routing-bgpv4-bgpmessage-BgpUpdatePathAttributesOrigin.html" xlink:title="Class BgpUpdatePathAttributesOrigin" target="_parent">
<polygon fill="#fffcaf" stroke="black" points="1445,-19 1275,-19 1275,0 1445,0 1445,-19"/>
<text text-anchor="middle" x="1360" y="-7" font-family="Helvetica,sans-Serif" font-size="10.00">BgpUpdatePathAttributesOrigin</text>
</a>
</g>
</g>
<!-- BgpUpdatePathAttributes&#45;&gt;BgpUpdatePathAttributesOrigin -->
<g id="edge7" class="edge">
<title>BgpUpdatePathAttributes&#45;&gt;BgpUpdatePathAttributesOrigin</title>
<path fill="none" stroke="black" d="M810.2,-57.69C911.06,-49.31 1102.81,-33.28 1266,-19 1268.94,-18.74 1271.93,-18.48 1274.95,-18.21"/>
</g>
</g>
</svg>
