<?xml version="1.0" encoding="UTF-8" standalone="no"?>
<!DOCTYPE svg PUBLIC "-//W3C//DTD SVG 1.1//EN"
 "http://www.w3.org/Graphics/SVG/1.1/DTD/svg11.dtd">
<!-- Generated by graphviz version 2.43.0 (0)
 -->
<!-- Title: opp Pages: 1 -->
<svg width="271pt" height="137pt"
 viewBox="0.00 0.00 270.50 137.00" xmlns="http://www.w3.org/2000/svg" xmlns:xlink="http://www.w3.org/1999/xlink">
<g id="graph0" class="graph" transform="scale(1 1) rotate(0) translate(4 133)">
<title>opp</title>
<polygon fill="transparent" stroke="transparent" points="-4,4 -4,-133 266.5,-133 266.5,4 -4,4"/>
<!-- Ospfv2Link -->
<g id="node1" class="node">
<title>Ospfv2Link</title>
<g id="a_node1"><a xlink:href="src-inet-routing-ospfv2-Ospfv2Link.html" xlink:title="Class Ospfv2Link" target="_parent">
<polygon fill="#fff700" stroke="black" points="182.5,-74 111.5,-74 111.5,-55 182.5,-55 182.5,-74"/>
<text text-anchor="middle" x="147" y="-62" font-family="Helvetica,sans-Serif" font-size="10.00">Ospfv2Link</text>
</a>
</g>
</g>
<!-- Ospfv2TosData -->
<g id="node2" class="node">
<title>Ospfv2TosData</title>
<g id="a_node2"><a xlink:href="src-inet-routing-ospfv2-Ospfv2TosData.html" xlink:title="Struct Ospfv2TosData" target="_parent">
<polygon fill="#d0d0ff" stroke="black" points="90,-19 0,-19 0,0 90,0 90,-19"/>
<text text-anchor="middle" x="45" y="-7" font-family="Helvetica,sans-Serif" font-size="10.00">Ospfv2TosData</text>
</a>
</g>
</g>
<!-- Ospfv2Link&#45;&gt;Ospfv2TosData -->
<g id="edge1" class="edge">
<title>Ospfv2Link&#45;&gt;Ospfv2TosData</title>
<path fill="none" stroke="black" d="M130.61,-54.98C114.43,-46.57 89.43,-33.59 70.62,-23.81"/>
<polygon fill="black" stroke="black" points="72.17,-20.68 61.69,-19.17 68.95,-26.89 72.17,-20.68"/>
</g>
<!-- Ipv4Address -->
<g id="node3" class="node">
<title>Ipv4Address</title>
<g id="a_node3"><a xlink:href="src-inet-networklayer-contract-ipv4-Ipv4Address.html" xlink:title="Class Ipv4Address" target="_parent">
<polygon fill="#fffcaf" stroke="black" points="185.5,-19 108.5,-19 108.5,0 185.5,0 185.5,-19"/>
<text text-anchor="middle" x="147" y="-7" font-family="Helvetica,sans-Serif" font-size="10.00">Ipv4Address</text>
</a>
</g>
</g>
<!-- Ospfv2Link&#45;&gt;Ipv4Address -->
<g id="edge2" class="edge">
<title>Ospfv2Link&#45;&gt;Ipv4Address</title>
<path fill="none" stroke="black" d="M147,-54.75C147,-47.8 147,-37.85 147,-29.13"/>
<polygon fill="black" stroke="black" points="150.5,-29.09 147,-19.09 143.5,-29.09 150.5,-29.09"/>
</g>
<!-- LinkType -->
<g id="node4" class="node">
<title>LinkType</title>
<g id="a_node4"><a xlink:href="src-inet-routing-ospfv2-LinkType.html" xlink:title="Enum LinkType" target="_parent">
<polygon fill="#d0ffd0" stroke="black" points="262.5,-19 203.5,-19 203.5,0 262.5,0 262.5,-19"/>
<text text-anchor="middle" x="233" y="-7" font-family="Helvetica,sans-Serif" font-size="10.00">LinkType</text>
</a>
</g>
</g>
<!-- Ospfv2Link&#45;&gt;LinkType -->
<g id="edge3" class="edge">
<title>Ospfv2Link&#45;&gt;LinkType</title>
<path fill="none" stroke="black" d="M160.82,-54.98C174.15,-46.77 194.58,-34.18 210.31,-24.49"/>
<polygon fill="black" stroke="black" points="212.25,-27.4 218.93,-19.17 208.58,-21.44 212.25,-27.4"/>
</g>
<!-- Ospfv2RouterLsa -->
<g id="node5" class="node">
<title>Ospfv2RouterLsa</title>
<g id="a_node5"><a xlink:href="src-inet-routing-ospfv2-Ospfv2RouterLsa.html" xlink:title="Class Ospfv2RouterLsa" target="_parent">
<polygon fill="#fffcaf" stroke="black" points="197,-129 97,-129 97,-110 197,-110 197,-129"/>
<text text-anchor="middle" x="147" y="-117" font-family="Helvetica,sans-Serif" font-size="10.00">Ospfv2RouterLsa</text>
</a>
</g>
</g>
<!-- Ospfv2RouterLsa&#45;&gt;Ospfv2Link -->
<g id="edge4" class="edge">
<title>Ospfv2RouterLsa&#45;&gt;Ospfv2Link</title>
<path fill="none" stroke="black" d="M147,-109.75C147,-102.8 147,-92.85 147,-84.13"/>
<polygon fill="black" stroke="black" points="150.5,-84.09 147,-74.09 143.5,-84.09 150.5,-84.09"/>
</g>
</g>
</svg>
