<?xml version="1.0" encoding="UTF-8" standalone="no"?>
<!DOCTYPE svg PUBLIC "-//W3C//DTD SVG 1.1//EN"
 "http://www.w3.org/Graphics/SVG/1.1/DTD/svg11.dtd">
<!-- Generated by graphviz version 2.43.0 (0)
 -->
<!-- Title: opp Pages: 1 -->
<svg width="186pt" height="137pt"
 viewBox="0.00 0.00 185.50 137.00" xmlns="http://www.w3.org/2000/svg" xmlns:xlink="http://www.w3.org/1999/xlink">
<g id="graph0" class="graph" transform="scale(1 1) rotate(0) translate(4 133)">
<title>opp</title>
<polygon fill="transparent" stroke="transparent" points="-4,4 -4,-133 181.5,-133 181.5,4 -4,4"/>
<!-- RsvpMessage -->
<g id="node1" class="node">
<title>RsvpMessage</title>
<g id="a_node1"><a xlink:href="src-inet-networklayer-rsvpte-RsvpMessage.html" xlink:title="Class RsvpMessage" target="_parent">
<polygon fill="#fff700" stroke="black" points="134,-74 50,-74 50,-55 134,-55 134,-74"/>
<text text-anchor="middle" x="92" y="-62" font-family="Helvetica,sans-Serif" font-size="10.00">RsvpMessage</text>
</a>
</g>
</g>
<!-- RsvpHelloMsg -->
<g id="node3" class="node">
<title>RsvpHelloMsg</title>
<g id="a_node3"><a xlink:href="src-inet-networklayer-rsvpte-RsvpHelloMsg.html" xlink:title="Class RsvpHelloMsg" target="_parent">
<polygon fill="#fffcaf" stroke="black" points="86,-19 0,-19 0,0 86,0 86,-19"/>
<text text-anchor="middle" x="43" y="-7" font-family="Helvetica,sans-Serif" font-size="10.00">RsvpHelloMsg</text>
</a>
</g>
</g>
<!-- RsvpMessage&#45;&gt;RsvpHelloMsg -->
<g id="edge2" class="edge">
<title>RsvpMessage&#45;&gt;RsvpHelloMsg</title>
<path fill="none" stroke="black" d="M83.91,-54.75C74.78,-44.87 60.01,-28.9 50.94,-19.09"/>
</g>
<!-- RsvpPacket -->
<g id="node4" class="node">
<title>RsvpPacket</title>
<g id="a_node4"><a xlink:href="src-inet-networklayer-rsvpte-RsvpPacket.html" xlink:title="Class RsvpPacket" target="_parent">
<polygon fill="#fffcaf" stroke="black" points="177.5,-19 104.5,-19 104.5,0 177.5,0 177.5,-19"/>
<text text-anchor="middle" x="141" y="-7" font-family="Helvetica,sans-Serif" font-size="10.00">RsvpPacket</text>
</a>
</g>
</g>
<!-- RsvpMessage&#45;&gt;RsvpPacket -->
<g id="edge3" class="edge">
<title>RsvpMessage&#45;&gt;RsvpPacket</title>
<path fill="none" stroke="black" d="M100.09,-54.75C109.22,-44.87 123.99,-28.9 133.06,-19.09"/>
</g>
<!-- FieldsChunk -->
<g id="node2" class="node">
<title>FieldsChunk</title>
<g id="a_node2"><a xlink:href="src-inet-common-packet-chunk-FieldsChunk.html" xlink:title="Class FieldsChunk" target="_parent">
<polygon fill="#fffcaf" stroke="black" points="129.5,-129 54.5,-129 54.5,-110 129.5,-110 129.5,-129"/>
<text text-anchor="middle" x="92" y="-117" font-family="Helvetica,sans-Serif" font-size="10.00">FieldsChunk</text>
</a>
</g>
</g>
<!-- FieldsChunk&#45;&gt;RsvpMessage -->
<g id="edge1" class="edge">
<title>FieldsChunk&#45;&gt;RsvpMessage</title>
<path fill="none" stroke="black" d="M92,-109.75C92,-99.87 92,-83.9 92,-74.09"/>
</g>
</g>
</svg>
