<?xml version="1.0" encoding="UTF-8" standalone="no"?>
<!DOCTYPE svg PUBLIC "-//W3C//DTD SVG 1.1//EN"
 "http://www.w3.org/Graphics/SVG/1.1/DTD/svg11.dtd">
<!-- Generated by graphviz version 2.43.0 (0)
 -->
<!-- Title: opp Pages: 1 -->
<svg width="138pt" height="137pt"
 viewBox="0.00 0.00 137.50 137.00" xmlns="http://www.w3.org/2000/svg" xmlns:xlink="http://www.w3.org/1999/xlink">
<g id="graph0" class="graph" transform="scale(1 1) rotate(0) translate(4 133)">
<title>opp</title>
<polygon fill="transparent" stroke="transparent" points="-4,4 -4,-133 133.5,-133 133.5,4 -4,4"/>
<!-- VlanTagBase -->
<g id="node1" class="node">
<title>VlanTagBase</title>
<g id="a_node1"><a xlink:href="src-inet-linklayer-common-VlanTagBase.html" xlink:title="Class VlanTagBase" target="_parent">
<polygon fill="#fff700" stroke="black" points="103.5,-74 24.5,-74 24.5,-55 103.5,-55 103.5,-74"/>
<text text-anchor="middle" x="64" y="-62" font-family="Helvetica,sans-Serif" font-size="10.00">VlanTagBase</text>
</a>
</g>
</g>
<!-- VlanInd -->
<g id="node3" class="node">
<title>VlanInd</title>
<g id="a_node3"><a xlink:href="src-inet-linklayer-common-VlanInd.html" xlink:title="Class VlanInd" target="_parent">
<polygon fill="#fffcaf" stroke="black" points="54,-19 0,-19 0,0 54,0 54,-19"/>
<text text-anchor="middle" x="27" y="-7" font-family="Helvetica,sans-Serif" font-size="10.00">VlanInd</text>
</a>
</g>
</g>
<!-- VlanTagBase&#45;&gt;VlanInd -->
<g id="edge2" class="edge">
<title>VlanTagBase&#45;&gt;VlanInd</title>
<path fill="none" stroke="black" d="M57.89,-54.75C50.99,-44.87 39.85,-28.9 33,-19.09"/>
</g>
<!-- VlanReq -->
<g id="node4" class="node">
<title>VlanReq</title>
<g id="a_node4"><a xlink:href="src-inet-linklayer-common-VlanReq.html" xlink:title="Class VlanReq" target="_parent">
<polygon fill="#fffcaf" stroke="black" points="129.5,-19 72.5,-19 72.5,0 129.5,0 129.5,-19"/>
<text text-anchor="middle" x="101" y="-7" font-family="Helvetica,sans-Serif" font-size="10.00">VlanReq</text>
</a>
</g>
</g>
<!-- VlanTagBase&#45;&gt;VlanReq -->
<g id="edge3" class="edge">
<title>VlanTagBase&#45;&gt;VlanReq</title>
<path fill="none" stroke="black" d="M70.11,-54.75C77.01,-44.87 88.15,-28.9 95,-19.09"/>
</g>
<!-- TagBase -->
<g id="node2" class="node">
<title>TagBase</title>
<g id="a_node2"><a xlink:href="src-inet-common-TagBase.html" xlink:title="Class TagBase" target="_parent">
<polygon fill="#fffcaf" stroke="black" points="92.5,-129 35.5,-129 35.5,-110 92.5,-110 92.5,-129"/>
<text text-anchor="middle" x="64" y="-117" font-family="Helvetica,sans-Serif" font-size="10.00">TagBase</text>
</a>
</g>
</g>
<!-- TagBase&#45;&gt;VlanTagBase -->
<g id="edge1" class="edge">
<title>TagBase&#45;&gt;VlanTagBase</title>
<path fill="none" stroke="black" d="M64,-109.75C64,-99.87 64,-83.9 64,-74.09"/>
</g>
</g>
</svg>
