<?xml version="1.0" encoding="UTF-8" standalone="no"?>
<!DOCTYPE svg PUBLIC "-//W3C//DTD SVG 1.1//EN"
 "http://www.w3.org/Graphics/SVG/1.1/DTD/svg11.dtd">
<!-- Generated by graphviz version 2.43.0 (0)
 -->
<!-- Title: opp Pages: 1 -->
<svg width="1145pt" height="137pt"
 viewBox="0.00 0.00 1144.50 137.00" xmlns="http://www.w3.org/2000/svg" xmlns:xlink="http://www.w3.org/1999/xlink">
<g id="graph0" class="graph" transform="scale(1 1) rotate(0) translate(4 133)">
<title>opp</title>
<polygon fill="transparent" stroke="transparent" points="-4,4 -4,-133 1140.5,-133 1140.5,4 -4,4"/>
<!-- ProtocolTagBase -->
<g id="node1" class="node">
<title>ProtocolTagBase</title>
<g id="a_node1"><a xlink:href="src-inet-common-ProtocolTagBase.html" xlink:title="Class ProtocolTagBase" target="_parent">
<polygon fill="#fff700" stroke="black" points="596.5,-74 499.5,-74 499.5,-55 596.5,-55 596.5,-74"/>
<text text-anchor="middle" x="548" y="-62" font-family="Helvetica,sans-Serif" font-size="10.00">ProtocolTagBase</text>
</a>
</g>
</g>
<!-- DispatchProtocolInd -->
<g id="node3" class="node">
<title>DispatchProtocolInd</title>
<g id="a_node3"><a xlink:href="src-inet-common-DispatchProtocolInd.html" xlink:title="Class DispatchProtocolInd" target="_parent">
<polygon fill="#fffcaf" stroke="black" points="114,-19 0,-19 0,0 114,0 114,-19"/>
<text text-anchor="middle" x="57" y="-7" font-family="Helvetica,sans-Serif" font-size="10.00">DispatchProtocolInd</text>
</a>
</g>
</g>
<!-- ProtocolTagBase&#45;&gt;DispatchProtocolInd -->
<g id="edge2" class="edge">
<title>ProtocolTagBase&#45;&gt;DispatchProtocolInd</title>
<path fill="none" stroke="black" d="M499.2,-58.77C420.13,-51.02 259.14,-34.89 123,-19 120.13,-18.67 117.19,-18.31 114.23,-17.95"/>
</g>
<!-- DispatchProtocolReq -->
<g id="node4" class="node">
<title>DispatchProtocolReq</title>
<g id="a_node4"><a xlink:href="src-inet-common-DispatchProtocolReq.html" xlink:title="Class DispatchProtocolReq" target="_parent">
<polygon fill="#fffcaf" stroke="black" points="250,-19 132,-19 132,0 250,0 250,-19"/>
<text text-anchor="middle" x="191" y="-7" font-family="Helvetica,sans-Serif" font-size="10.00">DispatchProtocolReq</text>
</a>
</g>
</g>
<!-- ProtocolTagBase&#45;&gt;DispatchProtocolReq -->
<g id="edge3" class="edge">
<title>ProtocolTagBase&#45;&gt;DispatchProtocolReq</title>
<path fill="none" stroke="black" d="M499.48,-56.3C434.09,-46.59 317.87,-29.33 248.27,-19"/>
</g>
<!-- MacProtocolInd -->
<g id="node5" class="node">
<title>MacProtocolInd</title>
<g id="a_node5"><a xlink:href="src-inet-common-MacProtocolInd.html" xlink:title="Class MacProtocolInd" target="_parent">
<polygon fill="#fffcaf" stroke="black" points="360,-19 268,-19 268,0 360,0 360,-19"/>
<text text-anchor="middle" x="314" y="-7" font-family="Helvetica,sans-Serif" font-size="10.00">MacProtocolInd</text>
</a>
</g>
</g>
<!-- ProtocolTagBase&#45;&gt;MacProtocolInd -->
<g id="edge4" class="edge">
<title>ProtocolTagBase&#45;&gt;MacProtocolInd</title>
<path fill="none" stroke="black" d="M510.4,-54.98C466.87,-45.12 395.55,-28.97 351.89,-19.08"/>
</g>
<!-- MacProtocolReq -->
<g id="node6" class="node">
<title>MacProtocolReq</title>
<g id="a_node6"><a xlink:href="src-inet-common-MacProtocolReq.html" xlink:title="Class MacProtocolReq" target="_parent">
<polygon fill="#fffcaf" stroke="black" points="473.5,-19 378.5,-19 378.5,0 473.5,0 473.5,-19"/>
<text text-anchor="middle" x="426" y="-7" font-family="Helvetica,sans-Serif" font-size="10.00">MacProtocolReq</text>
</a>
</g>
</g>
<!-- ProtocolTagBase&#45;&gt;MacProtocolReq -->
<g id="edge5" class="edge">
<title>ProtocolTagBase&#45;&gt;MacProtocolReq</title>
<path fill="none" stroke="black" d="M528.4,-54.98C505.77,-45.15 468.74,-29.07 445.96,-19.17"/>
</g>
<!-- NetworkProtocolInd -->
<g id="node7" class="node">
<title>NetworkProtocolInd</title>
<g id="a_node7"><a xlink:href="src-inet-common-NetworkProtocolInd.html" xlink:title="Class NetworkProtocolInd" target="_parent">
<polygon fill="#fffcaf" stroke="black" points="604.5,-19 491.5,-19 491.5,0 604.5,0 604.5,-19"/>
<text text-anchor="middle" x="548" y="-7" font-family="Helvetica,sans-Serif" font-size="10.00">NetworkProtocolInd</text>
</a>
</g>
</g>
<!-- ProtocolTagBase&#45;&gt;NetworkProtocolInd -->
<g id="edge6" class="edge">
<title>ProtocolTagBase&#45;&gt;NetworkProtocolInd</title>
<path fill="none" stroke="black" d="M548,-54.75C548,-44.87 548,-28.9 548,-19.09"/>
</g>
<!-- NetworkProtocolReq -->
<g id="node8" class="node">
<title>NetworkProtocolReq</title>
<g id="a_node8"><a xlink:href="src-inet-common-NetworkProtocolReq.html" xlink:title="Class NetworkProtocolReq" target="_parent">
<polygon fill="#fffcaf" stroke="black" points="739,-19 623,-19 623,0 739,0 739,-19"/>
<text text-anchor="middle" x="681" y="-7" font-family="Helvetica,sans-Serif" font-size="10.00">NetworkProtocolReq</text>
</a>
</g>
</g>
<!-- ProtocolTagBase&#45;&gt;NetworkProtocolReq -->
<g id="edge7" class="edge">
<title>ProtocolTagBase&#45;&gt;NetworkProtocolReq</title>
<path fill="none" stroke="black" d="M569.37,-54.98C594.04,-45.15 634.41,-29.07 659.24,-19.17"/>
</g>
<!-- PacketProtocolTag -->
<g id="node9" class="node">
<title>PacketProtocolTag</title>
<g id="a_node9"><a xlink:href="src-inet-common-PacketProtocolTag.html" xlink:title="Class PacketProtocolTag" target="_parent">
<polygon fill="#fffcaf" stroke="black" points="862.5,-19 757.5,-19 757.5,0 862.5,0 862.5,-19"/>
<text text-anchor="middle" x="810" y="-7" font-family="Helvetica,sans-Serif" font-size="10.00">PacketProtocolTag</text>
</a>
</g>
</g>
<!-- ProtocolTagBase&#45;&gt;PacketProtocolTag -->
<g id="edge8" class="edge">
<title>ProtocolTagBase&#45;&gt;PacketProtocolTag</title>
<path fill="none" stroke="black" d="M590.09,-54.98C638.84,-45.12 718.69,-28.97 767.58,-19.08"/>
</g>
<!-- TransportProtocolInd -->
<g id="node10" class="node">
<title>TransportProtocolInd</title>
<g id="a_node10"><a xlink:href="src-inet-common-TransportProtocolInd.html" xlink:title="Class TransportProtocolInd" target="_parent">
<polygon fill="#fffcaf" stroke="black" points="997.5,-19 880.5,-19 880.5,0 997.5,0 997.5,-19"/>
<text text-anchor="middle" x="939" y="-7" font-family="Helvetica,sans-Serif" font-size="10.00">TransportProtocolInd</text>
</a>
</g>
</g>
<!-- ProtocolTagBase&#45;&gt;TransportProtocolInd -->
<g id="edge9" class="edge">
<title>ProtocolTagBase&#45;&gt;TransportProtocolInd</title>
<path fill="none" stroke="black" d="M596.73,-56.89C668.69,-47.14 803.16,-28.91 880.4,-18.44"/>
</g>
<!-- TransportProtocolReq -->
<g id="node11" class="node">
<title>TransportProtocolReq</title>
<g id="a_node11"><a xlink:href="src-inet-common-TransportProtocolReq.html" xlink:title="Class TransportProtocolReq" target="_parent">
<polygon fill="#fffcaf" stroke="black" points="1136.5,-19 1015.5,-19 1015.5,0 1136.5,0 1136.5,-19"/>
<text text-anchor="middle" x="1076" y="-7" font-family="Helvetica,sans-Serif" font-size="10.00">TransportProtocolReq</text>
</a>
</g>
</g>
<!-- ProtocolTagBase&#45;&gt;TransportProtocolReq -->
<g id="edge10" class="edge">
<title>ProtocolTagBase&#45;&gt;TransportProtocolReq</title>
<path fill="none" stroke="black" d="M596.62,-59.2C680.45,-51.7 857.59,-35.44 1007,-19 1009.76,-18.7 1012.58,-18.38 1015.43,-18.05"/>
</g>
<!-- TagBase -->
<g id="node2" class="node">
<title>TagBase</title>
<g id="a_node2"><a xlink:href="src-inet-common-TagBase.html" xlink:title="Class TagBase" target="_parent">
<polygon fill="#fffcaf" stroke="black" points="576.5,-129 519.5,-129 519.5,-110 576.5,-110 576.5,-129"/>
<text text-anchor="middle" x="548" y="-117" font-family="Helvetica,sans-Serif" font-size="10.00">TagBase</text>
</a>
</g>
</g>
<!-- TagBase&#45;&gt;ProtocolTagBase -->
<g id="edge1" class="edge">
<title>TagBase&#45;&gt;ProtocolTagBase</title>
<path fill="none" stroke="black" d="M548,-109.75C548,-99.87 548,-83.9 548,-74.09"/>
</g>
</g>
</svg>
