<?xml version="1.0" encoding="UTF-8" standalone="no"?>
<!DOCTYPE svg PUBLIC "-//W3C//DTD SVG 1.1//EN"
 "http://www.w3.org/Graphics/SVG/1.1/DTD/svg11.dtd">
<!-- Generated by graphviz version 2.43.0 (0)
 -->
<!-- Title: opp Pages: 1 -->
<svg width="214pt" height="82pt"
 viewBox="0.00 0.00 213.50 82.00" xmlns="http://www.w3.org/2000/svg" xmlns:xlink="http://www.w3.org/1999/xlink">
<g id="graph0" class="graph" transform="scale(1 1) rotate(0) translate(4 78)">
<title>opp</title>
<polygon fill="transparent" stroke="transparent" points="-4,4 -4,-78 209.5,-78 209.5,4 -4,4"/>
<!-- RsvpPathError -->
<g id="node1" class="node">
<title>RsvpPathError</title>
<g id="a_node1"><a xlink:href="src-inet-networklayer-rsvpte-RsvpPathError.html" xlink:title="Class RsvpPathError" target="_parent">
<polygon fill="#fff700" stroke="black" points="154,-74 68,-74 68,-55 154,-55 154,-74"/>
<text text-anchor="middle" x="111" y="-62" font-family="Helvetica,sans-Serif" font-size="10.00">RsvpPathError</text>
</a>
</g>
</g>
<!-- SenderDescriptor_t -->
<g id="node2" class="node">
<title>SenderDescriptor_t</title>
<g id="a_node2"><a xlink:href="src-inet-networklayer-rsvpte-SenderDescriptor_t.html" xlink:title="Struct SenderDescriptor_t" target="_parent">
<polygon fill="#d0d0ff" stroke="black" points="110,-19 0,-19 0,0 110,0 110,-19"/>
<text text-anchor="middle" x="55" y="-7" font-family="Helvetica,sans-Serif" font-size="10.00">SenderDescriptor_t</text>
</a>
</g>
</g>
<!-- RsvpPathError&#45;&gt;SenderDescriptor_t -->
<g id="edge1" class="edge">
<title>RsvpPathError&#45;&gt;SenderDescriptor_t</title>
<path fill="none" stroke="black" d="M102,-54.98C93.81,-47.23 81.49,-35.58 71.53,-26.14"/>
<polygon fill="black" stroke="black" points="73.83,-23.5 64.16,-19.17 69.02,-28.59 73.83,-23.5"/>
</g>
<!-- Ipv4Address -->
<g id="node3" class="node">
<title>Ipv4Address</title>
<g id="a_node3"><a xlink:href="src-inet-networklayer-contract-ipv4-Ipv4Address.html" xlink:title="Class Ipv4Address" target="_parent">
<polygon fill="#fffcaf" stroke="black" points="205.5,-19 128.5,-19 128.5,0 205.5,0 205.5,-19"/>
<text text-anchor="middle" x="167" y="-7" font-family="Helvetica,sans-Serif" font-size="10.00">Ipv4Address</text>
</a>
</g>
</g>
<!-- RsvpPathError&#45;&gt;Ipv4Address -->
<g id="edge2" class="edge">
<title>RsvpPathError&#45;&gt;Ipv4Address</title>
<path fill="none" stroke="black" d="M120,-54.98C128.19,-47.23 140.51,-35.58 150.47,-26.14"/>
<polygon fill="black" stroke="black" points="152.98,-28.59 157.84,-19.17 148.17,-23.5 152.98,-28.59"/>
</g>
</g>
</svg>
