<?xml version="1.0" encoding="UTF-8" standalone="no"?>
<!DOCTYPE svg PUBLIC "-//W3C//DTD SVG 1.1//EN"
 "http://www.w3.org/Graphics/SVG/1.1/DTD/svg11.dtd">
<!-- Generated by graphviz version 2.43.0 (0)
 -->
<!-- Title: opp Pages: 1 -->
<svg width="1034pt" height="82pt"
 viewBox="0.00 0.00 1033.50 82.00" xmlns="http://www.w3.org/2000/svg" xmlns:xlink="http://www.w3.org/1999/xlink">
<g id="graph0" class="graph" transform="scale(1 1) rotate(0) translate(4 78)">
<title>opp</title>
<polygon fill="transparent" stroke="transparent" points="-4,4 -4,-78 1029.5,-78 1029.5,4 -4,4"/>
<!-- TcpOption -->
<g id="node1" class="node">
<title>TcpOption</title>
<g id="a_node1"><a xlink:href="src-inet-transportlayer-tcp_common-TcpOption.html" xlink:title="Class TcpOption" target="_parent">
<polygon fill="#fff700" stroke="black" points="511,-74 446,-74 446,-55 511,-55 511,-74"/>
<text text-anchor="middle" x="478.5" y="-62" font-family="Helvetica,sans-Serif" font-size="10.00">TcpOption</text>
</a>
</g>
</g>
<!-- TcpOptionEnd -->
<g id="node2" class="node">
<title>TcpOptionEnd</title>
<g id="a_node2"><a xlink:href="src-inet-transportlayer-tcp_common-TcpOptionEnd.html" xlink:title="Class TcpOptionEnd" target="_parent">
<polygon fill="#fffcaf" stroke="black" points="83,-19 0,-19 0,0 83,0 83,-19"/>
<text text-anchor="middle" x="41.5" y="-7" font-family="Helvetica,sans-Serif" font-size="10.00">TcpOptionEnd</text>
</a>
</g>
</g>
<!-- TcpOption&#45;&gt;TcpOptionEnd -->
<g id="edge1" class="edge">
<title>TcpOption&#45;&gt;TcpOptionEnd</title>
<path fill="none" stroke="black" d="M445.81,-60.34C379.07,-53.76 222.4,-37.64 91.5,-19 88.8,-18.62 86.02,-18.2 83.22,-17.76"/>
</g>
<!-- TcpOptionMaxSegmentSize -->
<g id="node3" class="node">
<title>TcpOptionMaxSegmentSize</title>
<g id="a_node3"><a xlink:href="src-inet-transportlayer-tcp_common-TcpOptionMaxSegmentSize.html" xlink:title="Class TcpOptionMaxSegmentSize" target="_parent">
<polygon fill="#fffcaf" stroke="black" points="250,-19 101,-19 101,0 250,0 250,-19"/>
<text text-anchor="middle" x="175.5" y="-7" font-family="Helvetica,sans-Serif" font-size="10.00">TcpOptionMaxSegmentSize</text>
</a>
</g>
</g>
<!-- TcpOption&#45;&gt;TcpOptionMaxSegmentSize -->
<g id="edge2" class="edge">
<title>TcpOption&#45;&gt;TcpOptionMaxSegmentSize</title>
<path fill="none" stroke="black" d="M445.79,-57.78C392.46,-48.45 286.5,-29.92 224.27,-19.03"/>
</g>
<!-- TcpOptionNop -->
<g id="node4" class="node">
<title>TcpOptionNop</title>
<g id="a_node4"><a xlink:href="src-inet-transportlayer-tcp_common-TcpOptionNop.html" xlink:title="Class TcpOptionNop" target="_parent">
<polygon fill="#fffcaf" stroke="black" points="351.5,-19 267.5,-19 267.5,0 351.5,0 351.5,-19"/>
<text text-anchor="middle" x="309.5" y="-7" font-family="Helvetica,sans-Serif" font-size="10.00">TcpOptionNop</text>
</a>
</g>
</g>
<!-- TcpOption&#45;&gt;TcpOptionNop -->
<g id="edge3" class="edge">
<title>TcpOption&#45;&gt;TcpOptionNop</title>
<path fill="none" stroke="black" d="M451.35,-54.98C419.9,-45.12 368.4,-28.97 336.87,-19.08"/>
</g>
<!-- TcpOptionSack -->
<g id="node5" class="node">
<title>TcpOptionSack</title>
<g id="a_node5"><a xlink:href="src-inet-transportlayer-tcp_common-TcpOptionSack.html" xlink:title="Class TcpOptionSack" target="_parent">
<polygon fill="#fffcaf" stroke="black" points="457.5,-19 369.5,-19 369.5,0 457.5,0 457.5,-19"/>
<text text-anchor="middle" x="413.5" y="-7" font-family="Helvetica,sans-Serif" font-size="10.00">TcpOptionSack</text>
</a>
</g>
</g>
<!-- TcpOption&#45;&gt;TcpOptionSack -->
<g id="edge4" class="edge">
<title>TcpOption&#45;&gt;TcpOptionSack</title>
<path fill="none" stroke="black" d="M468.06,-54.98C456,-45.15 436.27,-29.07 424.13,-19.17"/>
</g>
<!-- TcpOptionSackPermitted -->
<g id="node6" class="node">
<title>TcpOptionSackPermitted</title>
<g id="a_node6"><a xlink:href="src-inet-transportlayer-tcp_common-TcpOptionSackPermitted.html" xlink:title="Class TcpOptionSackPermitted" target="_parent">
<polygon fill="#fffcaf" stroke="black" points="611.5,-19 475.5,-19 475.5,0 611.5,0 611.5,-19"/>
<text text-anchor="middle" x="543.5" y="-7" font-family="Helvetica,sans-Serif" font-size="10.00">TcpOptionSackPermitted</text>
</a>
</g>
</g>
<!-- TcpOption&#45;&gt;TcpOptionSackPermitted -->
<g id="edge5" class="edge">
<title>TcpOption&#45;&gt;TcpOptionSackPermitted</title>
<path fill="none" stroke="black" d="M488.94,-54.98C501,-45.15 520.73,-29.07 532.87,-19.17"/>
</g>
<!-- TcpOptionTimestamp -->
<g id="node7" class="node">
<title>TcpOptionTimestamp</title>
<g id="a_node7"><a xlink:href="src-inet-transportlayer-tcp_common-TcpOptionTimestamp.html" xlink:title="Class TcpOptionTimestamp" target="_parent">
<polygon fill="#fffcaf" stroke="black" points="749,-19 630,-19 630,0 749,0 749,-19"/>
<text text-anchor="middle" x="689.5" y="-7" font-family="Helvetica,sans-Serif" font-size="10.00">TcpOptionTimestamp</text>
</a>
</g>
</g>
<!-- TcpOption&#45;&gt;TcpOptionTimestamp -->
<g id="edge6" class="edge">
<title>TcpOption&#45;&gt;TcpOptionTimestamp</title>
<path fill="none" stroke="black" d="M511.01,-55.33C550.19,-45.49 615.74,-29.03 655.56,-19.03"/>
</g>
<!-- TcpOptionUnknown -->
<g id="node8" class="node">
<title>TcpOptionUnknown</title>
<g id="a_node8"><a xlink:href="src-inet-transportlayer-tcp_common-TcpOptionUnknown.html" xlink:title="Class TcpOptionUnknown" target="_parent">
<polygon fill="#fffcaf" stroke="black" points="877.5,-19 767.5,-19 767.5,0 877.5,0 877.5,-19"/>
<text text-anchor="middle" x="822.5" y="-7" font-family="Helvetica,sans-Serif" font-size="10.00">TcpOptionUnknown</text>
</a>
</g>
</g>
<!-- TcpOption&#45;&gt;TcpOptionUnknown -->
<g id="edge7" class="edge">
<title>TcpOption&#45;&gt;TcpOptionUnknown</title>
<path fill="none" stroke="black" d="M511.17,-58.47C570.12,-49.38 694.87,-30.16 767.28,-19.01"/>
</g>
<!-- TcpOptionWindowScale -->
<g id="node9" class="node">
<title>TcpOptionWindowScale</title>
<g id="a_node9"><a xlink:href="src-inet-transportlayer-tcp_common-TcpOptionWindowScale.html" xlink:title="Class TcpOptionWindowScale" target="_parent">
<polygon fill="#fffcaf" stroke="black" points="1025.5,-19 895.5,-19 895.5,0 1025.5,0 1025.5,-19"/>
<text text-anchor="middle" x="960.5" y="-7" font-family="Helvetica,sans-Serif" font-size="10.00">TcpOptionWindowScale</text>
</a>
</g>
</g>
<!-- TcpOption&#45;&gt;TcpOptionWindowScale -->
<g id="edge8" class="edge">
<title>TcpOption&#45;&gt;TcpOptionWindowScale</title>
<path fill="none" stroke="black" d="M511.03,-60.02C580.17,-52.6 746.83,-34.64 886.5,-19 889.33,-18.68 892.22,-18.36 895.13,-18.03"/>
</g>
</g>
</svg>
