<?xml version="1.0" encoding="UTF-8" standalone="no"?>
<!DOCTYPE svg PUBLIC "-//W3C//DTD SVG 1.1//EN"
 "http://www.w3.org/Graphics/SVG/1.1/DTD/svg11.dtd">
<!-- Generated by graphviz version 2.43.0 (0)
 -->
<!-- Title: opp Pages: 1 -->
<svg width="228pt" height="137pt"
 viewBox="0.00 0.00 228.00 137.00" xmlns="http://www.w3.org/2000/svg" xmlns:xlink="http://www.w3.org/1999/xlink">
<g id="graph0" class="graph" transform="scale(1 1) rotate(0) translate(4 133)">
<title>opp</title>
<polygon fill="transparent" stroke="transparent" points="-4,4 -4,-133 224,-133 224,4 -4,4"/>
<!-- Ipv6ExtensionHeader -->
<g id="node1" class="node">
<title>Ipv6ExtensionHeader</title>
<g id="a_node1"><a xlink:href="src-inet-networklayer-ipv6-Ipv6ExtensionHeader.html" xlink:title="Class Ipv6ExtensionHeader" target="_parent">
<polygon fill="#fff700" stroke="black" points="184,-74 63,-74 63,-55 184,-55 184,-74"/>
<text text-anchor="middle" x="123.5" y="-62" font-family="Helvetica,sans-Serif" font-size="10.00">Ipv6ExtensionHeader</text>
</a>
</g>
</g>
<!-- B -->
<g id="node2" class="node">
<title>B</title>
<g id="a_node2"><a xlink:href="src-inet-common-B.html" xlink:title="Class B" target="_parent">
<polygon fill="#fffcaf" stroke="black" points="150.5,-19 96.5,-19 96.5,0 150.5,0 150.5,-19"/>
<text text-anchor="middle" x="123.5" y="-7" font-family="Helvetica,sans-Serif" font-size="10.00">B</text>
</a>
</g>
</g>
<!-- Ipv6ExtensionHeader&#45;&gt;B -->
<g id="edge1" class="edge">
<title>Ipv6ExtensionHeader&#45;&gt;B</title>
<path fill="none" stroke="black" d="M123.5,-54.75C123.5,-47.8 123.5,-37.85 123.5,-29.13"/>
<polygon fill="black" stroke="black" points="127,-29.09 123.5,-19.09 120,-29.09 127,-29.09"/>
</g>
<!-- Ipv6ExtHeaderTagBase -->
<g id="node3" class="node">
<title>Ipv6ExtHeaderTagBase</title>
<g id="a_node3"><a xlink:href="src-inet-networklayer-ipv6-Ipv6ExtHeaderTagBase.html" xlink:title="Class Ipv6ExtHeaderTagBase" target="_parent">
<polygon fill="#fffcaf" stroke="black" points="129,-129 0,-129 0,-110 129,-110 129,-129"/>
<text text-anchor="middle" x="64.5" y="-117" font-family="Helvetica,sans-Serif" font-size="10.00">Ipv6ExtHeaderTagBase</text>
</a>
</g>
</g>
<!-- Ipv6ExtHeaderTagBase&#45;&gt;Ipv6ExtensionHeader -->
<g id="edge2" class="edge">
<title>Ipv6ExtHeaderTagBase&#45;&gt;Ipv6ExtensionHeader</title>
<path fill="none" stroke="black" d="M73.98,-109.98C82.7,-102.15 95.84,-90.34 106.4,-80.86"/>
<polygon fill="black" stroke="black" points="108.75,-83.46 113.85,-74.17 104.07,-78.25 108.75,-83.46"/>
</g>
<!-- Ipv6Header -->
<g id="node4" class="node">
<title>Ipv6Header</title>
<g id="a_node4"><a xlink:href="src-inet-networklayer-ipv6-Ipv6Header.html" xlink:title="Class Ipv6Header" target="_parent">
<polygon fill="#fffcaf" stroke="black" points="220,-129 147,-129 147,-110 220,-110 220,-129"/>
<text text-anchor="middle" x="183.5" y="-117" font-family="Helvetica,sans-Serif" font-size="10.00">Ipv6Header</text>
</a>
</g>
</g>
<!-- Ipv6Header&#45;&gt;Ipv6ExtensionHeader -->
<g id="edge3" class="edge">
<title>Ipv6Header&#45;&gt;Ipv6ExtensionHeader</title>
<path fill="none" stroke="black" d="M173.86,-109.98C164.99,-102.15 151.63,-90.34 140.89,-80.86"/>
<polygon fill="black" stroke="black" points="143.13,-78.17 133.32,-74.17 138.49,-83.41 143.13,-78.17"/>
</g>
</g>
</svg>
