<?xml version="1.0" encoding="UTF-8" standalone="no"?>
<!DOCTYPE svg PUBLIC "-//W3C//DTD SVG 1.1//EN"
 "http://www.w3.org/Graphics/SVG/1.1/DTD/svg11.dtd">
<!-- Generated by graphviz version 2.43.0 (0)
 -->
<!-- Title: opp Pages: 1 -->
<svg width="224pt" height="82pt"
 viewBox="0.00 0.00 223.50 82.00" xmlns="http://www.w3.org/2000/svg" xmlns:xlink="http://www.w3.org/1999/xlink">
<g id="graph0" class="graph" transform="scale(1 1) rotate(0) translate(4 78)">
<title>opp</title>
<polygon fill="transparent" stroke="transparent" points="-4,4 -4,-78 219.5,-78 219.5,4 -4,4"/>
<!-- Ieee80211MacHeader -->
<g id="node1" class="node">
<title>Ieee80211MacHeader</title>
<g id="a_node1"><a xlink:href="src-inet-linklayer-ieee80211-mac-Ieee80211MacHeader.html" xlink:title="Class Ieee80211MacHeader" target="_parent">
<polygon fill="#fff700" stroke="black" points="157.5,-74 34.5,-74 34.5,-55 157.5,-55 157.5,-74"/>
<text text-anchor="middle" x="96" y="-62" font-family="Helvetica,sans-Serif" font-size="10.00">Ieee80211MacHeader</text>
</a>
</g>
</g>
<!-- MacAddress -->
<g id="node2" class="node">
<title>MacAddress</title>
<g id="a_node2"><a xlink:href="src-inet-linklayer-common-MacAddress.html" xlink:title="Class MacAddress" target="_parent">
<polygon fill="#fffcaf" stroke="black" points="76,-19 0,-19 0,0 76,0 76,-19"/>
<text text-anchor="middle" x="38" y="-7" font-family="Helvetica,sans-Serif" font-size="10.00">MacAddress</text>
</a>
</g>
</g>
<!-- Ieee80211MacHeader&#45;&gt;MacAddress -->
<g id="edge1" class="edge">
<title>Ieee80211MacHeader&#45;&gt;MacAddress</title>
<path fill="none" stroke="black" d="M86.68,-54.98C78.19,-47.23 65.44,-35.58 55.12,-26.14"/>
<polygon fill="black" stroke="black" points="57.23,-23.33 47.49,-19.17 52.51,-28.5 57.23,-23.33"/>
</g>
<!-- Ieee80211FrameType -->
<g id="node3" class="node">
<title>Ieee80211FrameType</title>
<g id="a_node3"><a xlink:href="src-inet-linklayer-ieee80211-mac-Ieee80211FrameType.html" xlink:title="Enum Ieee80211FrameType" target="_parent">
<polygon fill="#d0ffd0" stroke="black" points="215.5,-19 94.5,-19 94.5,0 215.5,0 215.5,-19"/>
<text text-anchor="middle" x="155" y="-7" font-family="Helvetica,sans-Serif" font-size="10.00">Ieee80211FrameType</text>
</a>
</g>
</g>
<!-- Ieee80211MacHeader&#45;&gt;Ieee80211FrameType -->
<g id="edge2" class="edge">
<title>Ieee80211MacHeader&#45;&gt;Ieee80211FrameType</title>
<path fill="none" stroke="black" d="M105.48,-54.98C114.2,-47.15 127.34,-35.34 137.9,-25.86"/>
<polygon fill="black" stroke="black" points="140.25,-28.46 145.35,-19.17 135.57,-23.25 140.25,-28.46"/>
</g>
</g>
</svg>
