<?xml version="1.0" encoding="UTF-8" standalone="no"?>
<!DOCTYPE svg PUBLIC "-//W3C//DTD SVG 1.1//EN"
 "http://www.w3.org/Graphics/SVG/1.1/DTD/svg11.dtd">
<!-- Generated by graphviz version 2.43.0 (0)
 -->
<!-- Title: opp Pages: 1 -->
<svg width="163pt" height="137pt"
 viewBox="0.00 0.00 163.00 137.00" xmlns="http://www.w3.org/2000/svg" xmlns:xlink="http://www.w3.org/1999/xlink">
<g id="graph0" class="graph" transform="scale(1 1) rotate(0) translate(4 133)">
<title>opp</title>
<polygon fill="transparent" stroke="transparent" points="-4,4 -4,-133 159,-133 159,4 -4,4"/>
<!-- Ieee80211DsssPhyHeader -->
<g id="node1" class="node">
<title>Ieee80211DsssPhyHeader</title>
<g id="a_node1"><a xlink:href="src-inet-physicallayer-wireless-ieee80211-packetlevel-Ieee80211DsssPhyHeader.html" xlink:title="Class Ieee80211DsssPhyHeader" target="_parent">
<polygon fill="#fff700" stroke="black" points="149.5,-74 5.5,-74 5.5,-55 149.5,-55 149.5,-74"/>
<text text-anchor="middle" x="77.5" y="-62" font-family="Helvetica,sans-Serif" font-size="10.00">Ieee80211DsssPhyHeader</text>
</a>
</g>
</g>
<!-- Ieee80211HrDsssPhyHeader -->
<g id="node3" class="node">
<title>Ieee80211HrDsssPhyHeader</title>
<g id="a_node3"><a xlink:href="src-inet-physicallayer-wireless-ieee80211-packetlevel-Ieee80211HrDsssPhyHeader.html" xlink:title="Class Ieee80211HrDsssPhyHeader" target="_parent">
<polygon fill="#fffcaf" stroke="black" points="155,-19 0,-19 0,0 155,0 155,-19"/>
<text text-anchor="middle" x="77.5" y="-7" font-family="Helvetica,sans-Serif" font-size="10.00">Ieee80211HrDsssPhyHeader</text>
</a>
</g>
</g>
<!-- Ieee80211DsssPhyHeader&#45;&gt;Ieee80211HrDsssPhyHeader -->
<g id="edge2" class="edge">
<title>Ieee80211DsssPhyHeader&#45;&gt;Ieee80211HrDsssPhyHeader</title>
<path fill="none" stroke="black" d="M77.5,-54.75C77.5,-44.87 77.5,-28.9 77.5,-19.09"/>
</g>
<!-- Ieee80211PhyHeader -->
<g id="node2" class="node">
<title>Ieee80211PhyHeader</title>
<g id="a_node2"><a xlink:href="src-inet-physicallayer-wireless-ieee80211-packetlevel-Ieee80211PhyHeader.html" xlink:title="Class Ieee80211PhyHeader" target="_parent">
<polygon fill="#fffcaf" stroke="black" points="138,-129 17,-129 17,-110 138,-110 138,-129"/>
<text text-anchor="middle" x="77.5" y="-117" font-family="Helvetica,sans-Serif" font-size="10.00">Ieee80211PhyHeader</text>
</a>
</g>
</g>
<!-- Ieee80211PhyHeader&#45;&gt;Ieee80211DsssPhyHeader -->
<g id="edge1" class="edge">
<title>Ieee80211PhyHeader&#45;&gt;Ieee80211DsssPhyHeader</title>
<path fill="none" stroke="black" d="M77.5,-109.75C77.5,-99.87 77.5,-83.9 77.5,-74.09"/>
</g>
</g>
</svg>
