<?xml version="1.0" encoding="UTF-8" standalone="no"?>
<!DOCTYPE svg PUBLIC "-//W3C//DTD SVG 1.1//EN"
 "http://www.w3.org/Graphics/SVG/1.1/DTD/svg11.dtd">
<!-- Generated by graphviz version 2.43.0 (0)
 -->
<!-- Title: opp Pages: 1 -->
<svg width="180pt" height="82pt"
 viewBox="0.00 0.00 180.00 82.00" xmlns="http://www.w3.org/2000/svg" xmlns:xlink="http://www.w3.org/1999/xlink">
<g id="graph0" class="graph" transform="scale(1 1) rotate(0) translate(4 78)">
<title>opp</title>
<polygon fill="transparent" stroke="transparent" points="-4,4 -4,-78 176,-78 176,4 -4,4"/>
<!-- RsvpResvError -->
<g id="node1" class="node">
<title>RsvpResvError</title>
<g id="a_node1"><a xlink:href="src-inet-networklayer-rsvpte-RsvpResvError.html" xlink:title="Class RsvpResvError" target="_parent">
<polygon fill="#fff700" stroke="black" points="129.5,-74 41.5,-74 41.5,-55 129.5,-55 129.5,-74"/>
<text text-anchor="middle" x="85.5" y="-62" font-family="Helvetica,sans-Serif" font-size="10.00">RsvpResvError</text>
</a>
</g>
</g>
<!-- RsvpHopObj -->
<g id="node2" class="node">
<title>RsvpHopObj</title>
<g id="a_node2"><a xlink:href="src-inet-networklayer-rsvpte-RsvpHopObj.html" xlink:title="Struct RsvpHopObj" target="_parent">
<polygon fill="#d0d0ff" stroke="black" points="77,-19 0,-19 0,0 77,0 77,-19"/>
<text text-anchor="middle" x="38.5" y="-7" font-family="Helvetica,sans-Serif" font-size="10.00">RsvpHopObj</text>
</a>
</g>
</g>
<!-- RsvpResvError&#45;&gt;RsvpHopObj -->
<g id="edge1" class="edge">
<title>RsvpResvError&#45;&gt;RsvpHopObj</title>
<path fill="none" stroke="black" d="M77.74,-54.75C71.03,-47.18 61.16,-36.05 52.99,-26.84"/>
<polygon fill="black" stroke="black" points="55.37,-24.25 46.12,-19.09 50.13,-28.89 55.37,-24.25"/>
</g>
<!-- Ipv4Address -->
<g id="node3" class="node">
<title>Ipv4Address</title>
<g id="a_node3"><a xlink:href="src-inet-networklayer-contract-ipv4-Ipv4Address.html" xlink:title="Class Ipv4Address" target="_parent">
<polygon fill="#fffcaf" stroke="black" points="172,-19 95,-19 95,0 172,0 172,-19"/>
<text text-anchor="middle" x="133.5" y="-7" font-family="Helvetica,sans-Serif" font-size="10.00">Ipv4Address</text>
</a>
</g>
</g>
<!-- RsvpResvError&#45;&gt;Ipv4Address -->
<g id="edge2" class="edge">
<title>RsvpResvError&#45;&gt;Ipv4Address</title>
<path fill="none" stroke="black" d="M93.43,-54.75C100.35,-47.11 110.57,-35.82 118.95,-26.56"/>
<polygon fill="black" stroke="black" points="121.6,-28.85 125.72,-19.09 116.41,-24.15 121.6,-28.85"/>
</g>
</g>
</svg>
