<?xml version="1.0" encoding="UTF-8" standalone="no"?>
<!DOCTYPE svg PUBLIC "-//W3C//DTD SVG 1.1//EN"
 "http://www.w3.org/Graphics/SVG/1.1/DTD/svg11.dtd">
<!-- Generated by graphviz version 2.43.0 (0)
 -->
<!-- Title: opp Pages: 1 -->
<svg width="509pt" height="137pt"
 viewBox="0.00 0.00 508.50 137.00" xmlns="http://www.w3.org/2000/svg" xmlns:xlink="http://www.w3.org/1999/xlink">
<g id="graph0" class="graph" transform="scale(1 1) rotate(0) translate(4 133)">
<title>opp</title>
<polygon fill="transparent" stroke="transparent" points="-4,4 -4,-133 504.5,-133 504.5,4 -4,4"/>
<!-- Ieee80211BlockAck -->
<g id="node1" class="node">
<title>Ieee80211BlockAck</title>
<g id="a_node1"><a xlink:href="src-inet-linklayer-ieee80211-mac-Ieee80211BlockAck.html" xlink:title="Class Ieee80211BlockAck" target="_parent">
<polygon fill="#fff700" stroke="black" points="300,-74 187,-74 187,-55 300,-55 300,-74"/>
<text text-anchor="middle" x="243.5" y="-62" font-family="Helvetica,sans-Serif" font-size="10.00">Ieee80211BlockAck</text>
</a>
</g>
</g>
<!-- Ieee80211BasicBlockAck -->
<g id="node3" class="node">
<title>Ieee80211BasicBlockAck</title>
<g id="a_node3"><a xlink:href="src-inet-linklayer-ieee80211-mac-Ieee80211BasicBlockAck.html" xlink:title="Class Ieee80211BasicBlockAck" target="_parent">
<polygon fill="#fffcaf" stroke="black" points="139,-19 0,-19 0,0 139,0 139,-19"/>
<text text-anchor="middle" x="69.5" y="-7" font-family="Helvetica,sans-Serif" font-size="10.00">Ieee80211BasicBlockAck</text>
</a>
</g>
</g>
<!-- Ieee80211BlockAck&#45;&gt;Ieee80211BasicBlockAck -->
<g id="edge2" class="edge">
<title>Ieee80211BlockAck&#45;&gt;Ieee80211BasicBlockAck</title>
<path fill="none" stroke="black" d="M215.54,-54.98C183.17,-45.12 130.14,-28.97 97.68,-19.08"/>
</g>
<!-- Ieee80211CompressedBlockAck -->
<g id="node4" class="node">
<title>Ieee80211CompressedBlockAck</title>
<g id="a_node4"><a xlink:href="src-inet-linklayer-ieee80211-mac-Ieee80211CompressedBlockAck.html" xlink:title="Class Ieee80211CompressedBlockAck" target="_parent">
<polygon fill="#fffcaf" stroke="black" points="330,-19 157,-19 157,0 330,0 330,-19"/>
<text text-anchor="middle" x="243.5" y="-7" font-family="Helvetica,sans-Serif" font-size="10.00">Ieee80211CompressedBlockAck</text>
</a>
</g>
</g>
<!-- Ieee80211BlockAck&#45;&gt;Ieee80211CompressedBlockAck -->
<g id="edge3" class="edge">
<title>Ieee80211BlockAck&#45;&gt;Ieee80211CompressedBlockAck</title>
<path fill="none" stroke="black" d="M243.5,-54.75C243.5,-44.87 243.5,-28.9 243.5,-19.09"/>
</g>
<!-- Ieee80211MultiTidBlockAck -->
<g id="node5" class="node">
<title>Ieee80211MultiTidBlockAck</title>
<g id="a_node5"><a xlink:href="src-inet-linklayer-ieee80211-mac-Ieee80211MultiTidBlockAck.html" xlink:title="Class Ieee80211MultiTidBlockAck" target="_parent">
<polygon fill="#fffcaf" stroke="black" points="500.5,-19 348.5,-19 348.5,0 500.5,0 500.5,-19"/>
<text text-anchor="middle" x="424.5" y="-7" font-family="Helvetica,sans-Serif" font-size="10.00">Ieee80211MultiTidBlockAck</text>
</a>
</g>
</g>
<!-- Ieee80211BlockAck&#45;&gt;Ieee80211MultiTidBlockAck -->
<g id="edge4" class="edge">
<title>Ieee80211BlockAck&#45;&gt;Ieee80211MultiTidBlockAck</title>
<path fill="none" stroke="black" d="M272.58,-54.98C306.26,-45.12 361.42,-28.97 395.19,-19.08"/>
</g>
<!-- Ieee80211TwoAddressHeader -->
<g id="node2" class="node">
<title>Ieee80211TwoAddressHeader</title>
<g id="a_node2"><a xlink:href="src-inet-linklayer-ieee80211-mac-Ieee80211TwoAddressHeader.html" xlink:title="Class Ieee80211TwoAddressHeader" target="_parent">
<polygon fill="#fffcaf" stroke="black" points="324,-129 163,-129 163,-110 324,-110 324,-129"/>
<text text-anchor="middle" x="243.5" y="-117" font-family="Helvetica,sans-Serif" font-size="10.00">Ieee80211TwoAddressHeader</text>
</a>
</g>
</g>
<!-- Ieee80211TwoAddressHeader&#45;&gt;Ieee80211BlockAck -->
<g id="edge1" class="edge">
<title>Ieee80211TwoAddressHeader&#45;&gt;Ieee80211BlockAck</title>
<path fill="none" stroke="black" d="M243.5,-109.75C243.5,-99.87 243.5,-83.9 243.5,-74.09"/>
</g>
</g>
</svg>
