<?xml version="1.0" encoding="UTF-8" standalone="no"?>
<!DOCTYPE svg PUBLIC "-//W3C//DTD SVG 1.1//EN"
 "http://www.w3.org/Graphics/SVG/1.1/DTD/svg11.dtd">
<!-- Generated by graphviz version 2.43.0 (0)
 -->
<!-- Title: opp Pages: 1 -->
<svg width="232pt" height="82pt"
 viewBox="0.00 0.00 231.50 82.00" xmlns="http://www.w3.org/2000/svg" xmlns:xlink="http://www.w3.org/1999/xlink">
<g id="graph0" class="graph" transform="scale(1 1) rotate(0) translate(4 78)">
<title>opp</title>
<polygon fill="transparent" stroke="transparent" points="-4,4 -4,-78 227.5,-78 227.5,4 -4,4"/>
<!-- Ieee80211ScalarTransmission -->
<g id="node1" class="node">
<title>Ieee80211ScalarTransmission</title>
<g id="a_node1"><a xlink:href="src-inet-physicallayer-wireless-ieee80211-packetlevel-Ieee80211ScalarTransmission.html" xlink:title="Class Ieee80211ScalarTransmission" target="_parent">
<polygon fill="#fff700" stroke="black" points="190,-74 28,-74 28,-55 190,-55 190,-74"/>
<text text-anchor="middle" x="109" y="-62" font-family="Helvetica,sans-Serif" font-size="10.00">Ieee80211ScalarTransmission</text>
</a>
</g>
</g>
<!-- IIeee80211Mode -->
<g id="node2" class="node">
<title>IIeee80211Mode</title>
<g id="a_node2"><a xlink:href="src-inet-physicallayer-wireless-ieee80211-mode-IIeee80211Mode.html" xlink:title="Class IIeee80211Mode" target="_parent">
<polygon fill="#fffcaf" stroke="black" points="98,-19 0,-19 0,0 98,0 98,-19"/>
<text text-anchor="middle" x="49" y="-7" font-family="Helvetica,sans-Serif" font-size="10.00">IIeee80211Mode</text>
</a>
</g>
</g>
<!-- Ieee80211ScalarTransmission&#45;&gt;IIeee80211Mode -->
<g id="edge1" class="edge">
<title>Ieee80211ScalarTransmission&#45;&gt;IIeee80211Mode</title>
<path fill="none" stroke="black" d="M99.36,-54.98C90.49,-47.15 77.13,-35.34 66.39,-25.86"/>
<polygon fill="black" stroke="black" points="68.63,-23.17 58.82,-19.17 63.99,-28.41 68.63,-23.17"/>
</g>
<!-- Ieee80211Channel -->
<g id="node3" class="node">
<title>Ieee80211Channel</title>
<g id="a_node3"><a xlink:href="src-inet-physicallayer-wireless-ieee80211-mode-Ieee80211Channel.html" xlink:title="Class Ieee80211Channel" target="_parent">
<polygon fill="#fffcaf" stroke="black" points="223.5,-19 116.5,-19 116.5,0 223.5,0 223.5,-19"/>
<text text-anchor="middle" x="170" y="-7" font-family="Helvetica,sans-Serif" font-size="10.00">Ieee80211Channel</text>
</a>
</g>
</g>
<!-- Ieee80211ScalarTransmission&#45;&gt;Ieee80211Channel -->
<g id="edge2" class="edge">
<title>Ieee80211ScalarTransmission&#45;&gt;Ieee80211Channel</title>
<path fill="none" stroke="black" d="M118.8,-54.98C127.82,-47.15 141.41,-35.34 152.32,-25.86"/>
<polygon fill="black" stroke="black" points="154.77,-28.37 160.02,-19.17 150.18,-23.09 154.77,-28.37"/>
</g>
</g>
</svg>
