<?xml version="1.0" encoding="UTF-8" standalone="no"?>
<!DOCTYPE svg PUBLIC "-//W3C//DTD SVG 1.1//EN"
 "http://www.w3.org/Graphics/SVG/1.1/DTD/svg11.dtd">
<!-- Generated by graphviz version 2.43.0 (0)
 -->
<!-- Title: opp Pages: 1 -->
<svg width="172pt" height="137pt"
 viewBox="0.00 0.00 172.00 137.00" xmlns="http://www.w3.org/2000/svg" xmlns:xlink="http://www.w3.org/1999/xlink">
<g id="graph0" class="graph" transform="scale(1 1) rotate(0) translate(4 133)">
<title>opp</title>
<polygon fill="transparent" stroke="transparent" points="-4,4 -4,-133 168,-133 168,4 -4,4"/>
<!-- Ieee80211OfdmPhyHeader -->
<g id="node1" class="node">
<title>Ieee80211OfdmPhyHeader</title>
<g id="a_node1"><a xlink:href="src-inet-physicallayer-wireless-ieee80211-packetlevel-Ieee80211OfdmPhyHeader.html" xlink:title="Class Ieee80211OfdmPhyHeader" target="_parent">
<polygon fill="#fff700" stroke="black" points="156,-74 8,-74 8,-55 156,-55 156,-74"/>
<text text-anchor="middle" x="82" y="-62" font-family="Helvetica,sans-Serif" font-size="10.00">Ieee80211OfdmPhyHeader</text>
</a>
</g>
</g>
<!-- Ieee80211ErpOfdmPhyHeader -->
<g id="node3" class="node">
<title>Ieee80211ErpOfdmPhyHeader</title>
<g id="a_node3"><a xlink:href="src-inet-physicallayer-wireless-ieee80211-packetlevel-Ieee80211ErpOfdmPhyHeader.html" xlink:title="Class Ieee80211ErpOfdmPhyHeader" target="_parent">
<polygon fill="#fffcaf" stroke="black" points="164,-19 0,-19 0,0 164,0 164,-19"/>
<text text-anchor="middle" x="82" y="-7" font-family="Helvetica,sans-Serif" font-size="10.00">Ieee80211ErpOfdmPhyHeader</text>
</a>
</g>
</g>
<!-- Ieee80211OfdmPhyHeader&#45;&gt;Ieee80211ErpOfdmPhyHeader -->
<g id="edge2" class="edge">
<title>Ieee80211OfdmPhyHeader&#45;&gt;Ieee80211ErpOfdmPhyHeader</title>
<path fill="none" stroke="black" d="M82,-54.75C82,-44.87 82,-28.9 82,-19.09"/>
</g>
<!-- Ieee80211PhyHeader -->
<g id="node2" class="node">
<title>Ieee80211PhyHeader</title>
<g id="a_node2"><a xlink:href="src-inet-physicallayer-wireless-ieee80211-packetlevel-Ieee80211PhyHeader.html" xlink:title="Class Ieee80211PhyHeader" target="_parent">
<polygon fill="#fffcaf" stroke="black" points="142.5,-129 21.5,-129 21.5,-110 142.5,-110 142.5,-129"/>
<text text-anchor="middle" x="82" y="-117" font-family="Helvetica,sans-Serif" font-size="10.00">Ieee80211PhyHeader</text>
</a>
</g>
</g>
<!-- Ieee80211PhyHeader&#45;&gt;Ieee80211OfdmPhyHeader -->
<g id="edge1" class="edge">
<title>Ieee80211PhyHeader&#45;&gt;Ieee80211OfdmPhyHeader</title>
<path fill="none" stroke="black" d="M82,-109.75C82,-99.87 82,-83.9 82,-74.09"/>
</g>
</g>
</svg>
