<?xml version="1.0" encoding="UTF-8" standalone="no"?>
<!DOCTYPE svg PUBLIC "-//W3C//DTD SVG 1.1//EN"
 "http://www.w3.org/Graphics/SVG/1.1/DTD/svg11.dtd">
<!-- Generated by graphviz version 2.43.0 (0)
 -->
<!-- Title: opp Pages: 1 -->
<svg width="154pt" height="137pt"
 viewBox="0.00 0.00 154.00 137.00" xmlns="http://www.w3.org/2000/svg" xmlns:xlink="http://www.w3.org/1999/xlink">
<g id="graph0" class="graph" transform="scale(1 1) rotate(0) translate(4 133)">
<title>opp</title>
<polygon fill="transparent" stroke="transparent" points="-4,4 -4,-133 150,-133 150,4 -4,4"/>
<!-- IIeee80211DataMode -->
<g id="node1" class="node">
<title>IIeee80211DataMode</title>
<g id="a_node1"><a xlink:href="src-inet-physicallayer-wireless-ieee80211-mode-IIeee80211DataMode.html" xlink:title="Class IIeee80211DataMode" target="_parent">
<polygon fill="#fff700" stroke="black" points="138.5,-74 17.5,-74 17.5,-55 138.5,-55 138.5,-74"/>
<text text-anchor="middle" x="78" y="-62" font-family="Helvetica,sans-Serif" font-size="10.00">IIeee80211DataMode</text>
</a>
</g>
</g>
<!-- IModulation -->
<g id="node2" class="node">
<title>IModulation</title>
<g id="a_node2"><a xlink:href="src-inet-physicallayer-wireless-common-contract-packetlevel-IModulation.html" xlink:title="Class IModulation" target="_parent">
<polygon fill="#fffcaf" stroke="black" points="74,-19 0,-19 0,0 74,0 74,-19"/>
<text text-anchor="middle" x="37" y="-7" font-family="Helvetica,sans-Serif" font-size="10.00">IModulation</text>
</a>
</g>
</g>
<!-- IIeee80211DataMode&#45;&gt;IModulation -->
<g id="edge1" class="edge">
<title>IIeee80211DataMode&#45;&gt;IModulation</title>
<path fill="none" stroke="black" d="M71.23,-54.75C65.44,-47.26 56.94,-36.28 49.86,-27.13"/>
<polygon fill="black" stroke="black" points="52.53,-24.86 43.64,-19.09 46.99,-29.14 52.53,-24.86"/>
</g>
<!-- bps -->
<g id="node3" class="node">
<title>bps</title>
<g id="a_node3"><a xlink:href="src-inet-common-bps.html" xlink:title="Class bps" target="_parent">
<polygon fill="#fffcaf" stroke="black" points="146,-19 92,-19 92,0 146,0 146,-19"/>
<text text-anchor="middle" x="119" y="-7" font-family="Helvetica,sans-Serif" font-size="10.00">bps</text>
</a>
</g>
</g>
<!-- IIeee80211DataMode&#45;&gt;bps -->
<g id="edge2" class="edge">
<title>IIeee80211DataMode&#45;&gt;bps</title>
<path fill="none" stroke="black" d="M84.77,-54.75C90.56,-47.26 99.06,-36.28 106.14,-27.13"/>
<polygon fill="black" stroke="black" points="109.01,-29.14 112.36,-19.09 103.47,-24.86 109.01,-29.14"/>
</g>
<!-- IIeee80211Mode -->
<g id="node4" class="node">
<title>IIeee80211Mode</title>
<g id="a_node4"><a xlink:href="src-inet-physicallayer-wireless-ieee80211-mode-IIeee80211Mode.html" xlink:title="Class IIeee80211Mode" target="_parent">
<polygon fill="#fffcaf" stroke="black" points="127,-129 29,-129 29,-110 127,-110 127,-129"/>
<text text-anchor="middle" x="78" y="-117" font-family="Helvetica,sans-Serif" font-size="10.00">IIeee80211Mode</text>
</a>
</g>
</g>
<!-- IIeee80211Mode&#45;&gt;IIeee80211DataMode -->
<g id="edge3" class="edge">
<title>IIeee80211Mode&#45;&gt;IIeee80211DataMode</title>
<path fill="none" stroke="black" d="M78,-109.75C78,-102.8 78,-92.85 78,-84.13"/>
<polygon fill="black" stroke="black" points="81.5,-84.09 78,-74.09 74.5,-84.09 81.5,-84.09"/>
</g>
</g>
</svg>
