<?xml version="1.0" encoding="UTF-8" standalone="no"?>
<!DOCTYPE svg PUBLIC "-//W3C//DTD SVG 1.1//EN"
 "http://www.w3.org/Graphics/SVG/1.1/DTD/svg11.dtd">
<!-- Generated by graphviz version 2.43.0 (0)
 -->
<!-- Title: opp Pages: 1 -->
<svg width="327pt" height="137pt"
 viewBox="0.00 0.00 326.50 137.00" xmlns="http://www.w3.org/2000/svg" xmlns:xlink="http://www.w3.org/1999/xlink">
<g id="graph0" class="graph" transform="scale(1 1) rotate(0) translate(4 133)">
<title>opp</title>
<polygon fill="transparent" stroke="transparent" points="-4,4 -4,-133 322.5,-133 322.5,4 -4,4"/>
<!-- SenderTemplateObj -->
<g id="node1" class="node">
<title>SenderTemplateObj</title>
<g id="a_node1"><a xlink:href="src-inet-networklayer-rsvpte-SenderTemplateObj.html" xlink:title="Struct SenderTemplateObj" target="_parent">
<polygon fill="#9090ff" stroke="black" points="204.5,-74 92.5,-74 92.5,-55 204.5,-55 204.5,-74"/>
<text text-anchor="middle" x="148.5" y="-62" font-family="Helvetica,sans-Serif" font-size="10.00">SenderTemplateObj</text>
</a>
</g>
</g>
<!-- Ipv4Address -->
<g id="node2" class="node">
<title>Ipv4Address</title>
<g id="a_node2"><a xlink:href="src-inet-networklayer-contract-ipv4-Ipv4Address.html" xlink:title="Class Ipv4Address" target="_parent">
<polygon fill="#fffcaf" stroke="black" points="187,-19 110,-19 110,0 187,0 187,-19"/>
<text text-anchor="middle" x="148.5" y="-7" font-family="Helvetica,sans-Serif" font-size="10.00">Ipv4Address</text>
</a>
</g>
</g>
<!-- SenderTemplateObj&#45;&gt;Ipv4Address -->
<g id="edge1" class="edge">
<title>SenderTemplateObj&#45;&gt;Ipv4Address</title>
<path fill="none" stroke="black" d="M148.5,-54.75C148.5,-47.8 148.5,-37.85 148.5,-29.13"/>
<polygon fill="black" stroke="black" points="152,-29.09 148.5,-19.09 145,-29.09 152,-29.09"/>
</g>
<!-- PathNotifyMsg -->
<g id="node3" class="node">
<title>PathNotifyMsg</title>
<g id="a_node3"><a xlink:href="src-inet-networklayer-rsvpte-PathNotifyMsg.html" xlink:title="Message PathNotifyMsg" target="_parent">
<polygon fill="#fffcaf" stroke="black" points="89,-129 0,-129 0,-110 89,-110 89,-129"/>
<text text-anchor="middle" x="44.5" y="-117" font-family="Helvetica,sans-Serif" font-size="10.00">PathNotifyMsg</text>
</a>
</g>
</g>
<!-- PathNotifyMsg&#45;&gt;SenderTemplateObj -->
<g id="edge2" class="edge">
<title>PathNotifyMsg&#45;&gt;SenderTemplateObj</title>
<path fill="none" stroke="black" d="M61.21,-109.98C77.71,-101.57 103.2,-88.59 122.38,-78.81"/>
<polygon fill="black" stroke="black" points="124.17,-81.83 131.49,-74.17 120.99,-75.59 124.17,-81.83"/>
</g>
<!-- RsvpPathTear -->
<g id="node4" class="node">
<title>RsvpPathTear</title>
<g id="a_node4"><a xlink:href="src-inet-networklayer-rsvpte-RsvpPathTear.html" xlink:title="Class RsvpPathTear" target="_parent">
<polygon fill="#fffcaf" stroke="black" points="190,-129 107,-129 107,-110 190,-110 190,-129"/>
<text text-anchor="middle" x="148.5" y="-117" font-family="Helvetica,sans-Serif" font-size="10.00">RsvpPathTear</text>
</a>
</g>
</g>
<!-- RsvpPathTear&#45;&gt;SenderTemplateObj -->
<g id="edge3" class="edge">
<title>RsvpPathTear&#45;&gt;SenderTemplateObj</title>
<path fill="none" stroke="black" d="M148.5,-109.75C148.5,-102.8 148.5,-92.85 148.5,-84.13"/>
<polygon fill="black" stroke="black" points="152,-84.09 148.5,-74.09 145,-84.09 152,-84.09"/>
</g>
<!-- SenderDescriptor_t -->
<g id="node5" class="node">
<title>SenderDescriptor_t</title>
<g id="a_node5"><a xlink:href="src-inet-networklayer-rsvpte-SenderDescriptor_t.html" xlink:title="Struct SenderDescriptor_t" target="_parent">
<polygon fill="#d0d0ff" stroke="black" points="318.5,-129 208.5,-129 208.5,-110 318.5,-110 318.5,-129"/>
<text text-anchor="middle" x="263.5" y="-117" font-family="Helvetica,sans-Serif" font-size="10.00">SenderDescriptor_t</text>
</a>
</g>
</g>
<!-- SenderDescriptor_t&#45;&gt;SenderTemplateObj -->
<g id="edge4" class="edge">
<title>SenderDescriptor_t&#45;&gt;SenderTemplateObj</title>
<path fill="none" stroke="black" d="M245.02,-109.98C226.52,-101.46 197.82,-88.23 176.52,-78.41"/>
<polygon fill="black" stroke="black" points="177.86,-75.18 167.31,-74.17 174.93,-81.53 177.86,-75.18"/>
</g>
</g>
</svg>
