<?xml version="1.0" encoding="UTF-8" standalone="no"?>
<!DOCTYPE svg PUBLIC "-//W3C//DTD SVG 1.1//EN"
 "http://www.w3.org/Graphics/SVG/1.1/DTD/svg11.dtd">
<!-- Generated by graphviz version 2.43.0 (0)
 -->
<!-- Title: opp Pages: 1 -->
<svg width="210pt" height="137pt"
 viewBox="0.00 0.00 210.00 137.00" xmlns="http://www.w3.org/2000/svg" xmlns:xlink="http://www.w3.org/1999/xlink">
<g id="graph0" class="graph" transform="scale(1 1) rotate(0) translate(4 133)">
<title>opp</title>
<polygon fill="transparent" stroke="transparent" points="-4,4 -4,-133 206,-133 206,4 -4,4"/>
<!-- Ipv4OptionsTagBase -->
<g id="node1" class="node">
<title>Ipv4OptionsTagBase</title>
<g id="a_node1"><a xlink:href="src-inet-networklayer-ipv4-Ipv4OptionsTagBase.html" xlink:title="Class Ipv4OptionsTagBase" target="_parent">
<polygon fill="#fff700" stroke="black" points="158,-74 42,-74 42,-55 158,-55 158,-74"/>
<text text-anchor="middle" x="100" y="-62" font-family="Helvetica,sans-Serif" font-size="10.00">Ipv4OptionsTagBase</text>
</a>
</g>
</g>
<!-- Ipv4OptionsInd -->
<g id="node3" class="node">
<title>Ipv4OptionsInd</title>
<g id="a_node3"><a xlink:href="src-inet-networklayer-ipv4-Ipv4OptionsInd.html" xlink:title="Class Ipv4OptionsInd" target="_parent">
<polygon fill="#fffcaf" stroke="black" points="90,-19 0,-19 0,0 90,0 90,-19"/>
<text text-anchor="middle" x="45" y="-7" font-family="Helvetica,sans-Serif" font-size="10.00">Ipv4OptionsInd</text>
</a>
</g>
</g>
<!-- Ipv4OptionsTagBase&#45;&gt;Ipv4OptionsInd -->
<g id="edge2" class="edge">
<title>Ipv4OptionsTagBase&#45;&gt;Ipv4OptionsInd</title>
<path fill="none" stroke="black" d="M90.92,-54.75C80.67,-44.87 64.09,-28.9 53.91,-19.09"/>
</g>
<!-- Ipv4OptionsReq -->
<g id="node4" class="node">
<title>Ipv4OptionsReq</title>
<g id="a_node4"><a xlink:href="src-inet-networklayer-ipv4-Ipv4OptionsReq.html" xlink:title="Class Ipv4OptionsReq" target="_parent">
<polygon fill="#fffcaf" stroke="black" points="202,-19 108,-19 108,0 202,0 202,-19"/>
<text text-anchor="middle" x="155" y="-7" font-family="Helvetica,sans-Serif" font-size="10.00">Ipv4OptionsReq</text>
</a>
</g>
</g>
<!-- Ipv4OptionsTagBase&#45;&gt;Ipv4OptionsReq -->
<g id="edge3" class="edge">
<title>Ipv4OptionsTagBase&#45;&gt;Ipv4OptionsReq</title>
<path fill="none" stroke="black" d="M109.08,-54.75C119.33,-44.87 135.91,-28.9 146.09,-19.09"/>
</g>
<!-- TagBase -->
<g id="node2" class="node">
<title>TagBase</title>
<g id="a_node2"><a xlink:href="src-inet-common-TagBase.html" xlink:title="Class TagBase" target="_parent">
<polygon fill="#fffcaf" stroke="black" points="128.5,-129 71.5,-129 71.5,-110 128.5,-110 128.5,-129"/>
<text text-anchor="middle" x="100" y="-117" font-family="Helvetica,sans-Serif" font-size="10.00">TagBase</text>
</a>
</g>
</g>
<!-- TagBase&#45;&gt;Ipv4OptionsTagBase -->
<g id="edge1" class="edge">
<title>TagBase&#45;&gt;Ipv4OptionsTagBase</title>
<path fill="none" stroke="black" d="M100,-109.75C100,-99.87 100,-83.9 100,-74.09"/>
</g>
</g>
</svg>
