<?xml version="1.0" encoding="UTF-8" standalone="no"?>
<!DOCTYPE svg PUBLIC "-//W3C//DTD SVG 1.1//EN"
 "http://www.w3.org/Graphics/SVG/1.1/DTD/svg11.dtd">
<!-- Generated by graphviz version 2.43.0 (0)
 -->
<!-- Title: opp Pages: 1 -->
<svg width="356pt" height="82pt"
 viewBox="0.00 0.00 355.50 82.00" xmlns="http://www.w3.org/2000/svg" xmlns:xlink="http://www.w3.org/1999/xlink">
<g id="graph0" class="graph" transform="scale(1 1) rotate(0) translate(4 78)">
<title>opp</title>
<polygon fill="transparent" stroke="transparent" points="-4,4 -4,-78 351.5,-78 351.5,4 -4,4"/>
<!-- ClockEvent -->
<g id="node1" class="node">
<title>ClockEvent</title>
<g id="a_node1"><a xlink:href="src-inet-clock-common-ClockEvent.html" xlink:title="Message ClockEvent" target="_parent">
<polygon fill="#fff700" stroke="black" points="264,-74 193,-74 193,-55 264,-55 264,-74"/>
<text text-anchor="middle" x="228.5" y="-62" font-family="Helvetica,sans-Serif" font-size="10.00">ClockEvent</text>
</a>
</g>
</g>
<!-- OverdueClockEventHandlingMode -->
<g id="node2" class="node">
<title>OverdueClockEventHandlingMode</title>
<g id="a_node2"><a xlink:href="src-inet-clock-common-OverdueClockEventHandlingMode.html" xlink:title="Enum OverdueClockEventHandlingMode" target="_parent">
<polygon fill="#d0ffd0" stroke="black" points="183,-19 0,-19 0,0 183,0 183,-19"/>
<text text-anchor="middle" x="91.5" y="-7" font-family="Helvetica,sans-Serif" font-size="10.00">OverdueClockEventHandlingMode</text>
</a>
</g>
</g>
<!-- ClockEvent&#45;&gt;OverdueClockEventHandlingMode -->
<g id="edge1" class="edge">
<title>ClockEvent&#45;&gt;OverdueClockEventHandlingMode</title>
<path fill="none" stroke="black" d="M206.49,-54.98C184.05,-46.3 149.02,-32.75 123.51,-22.88"/>
<polygon fill="black" stroke="black" points="124.5,-19.51 113.91,-19.17 121.98,-26.04 124.5,-19.51"/>
</g>
<!-- IClock -->
<g id="node3" class="node">
<title>IClock</title>
<g id="a_node3"><a xlink:href="src-inet-clock-contract-IClock.html" xlink:title="Class IClock" target="_parent">
<polygon fill="#fffcaf" stroke="black" points="255.5,-19 201.5,-19 201.5,0 255.5,0 255.5,-19"/>
<text text-anchor="middle" x="228.5" y="-7" font-family="Helvetica,sans-Serif" font-size="10.00">IClock</text>
</a>
</g>
</g>
<!-- ClockEvent&#45;&gt;IClock -->
<g id="edge2" class="edge">
<title>ClockEvent&#45;&gt;IClock</title>
<path fill="none" stroke="black" d="M228.5,-54.75C228.5,-47.8 228.5,-37.85 228.5,-29.13"/>
<polygon fill="black" stroke="black" points="232,-29.09 228.5,-19.09 225,-29.09 232,-29.09"/>
</g>
<!-- clocktime_t -->
<g id="node4" class="node">
<title>clocktime_t</title>
<g id="a_node4"><a xlink:href="src-inet-clock-contract-clocktime_t.html" xlink:title="Class clocktime_t" target="_parent">
<polygon fill="#fffcaf" stroke="black" points="347.5,-19 273.5,-19 273.5,0 347.5,0 347.5,-19"/>
<text text-anchor="middle" x="310.5" y="-7" font-family="Helvetica,sans-Serif" font-size="10.00">clocktime_t</text>
</a>
</g>
</g>
<!-- ClockEvent&#45;&gt;clocktime_t -->
<g id="edge3" class="edge">
<title>ClockEvent&#45;&gt;clocktime_t</title>
<path fill="none" stroke="black" d="M241.67,-54.98C254.27,-46.84 273.5,-34.41 288.44,-24.76"/>
<polygon fill="black" stroke="black" points="290.59,-27.54 297.09,-19.17 286.79,-21.66 290.59,-27.54"/>
</g>
</g>
</svg>
