<?xml version="1.0" encoding="UTF-8" standalone="no"?>
<!DOCTYPE svg PUBLIC "-//W3C//DTD SVG 1.1//EN"
 "http://www.w3.org/Graphics/SVG/1.1/DTD/svg11.dtd">
<!-- Generated by graphviz version 2.43.0 (0)
 -->
<!-- Title: opp Pages: 1 -->
<svg width="424pt" height="137pt"
 viewBox="0.00 0.00 424.00 137.00" xmlns="http://www.w3.org/2000/svg" xmlns:xlink="http://www.w3.org/1999/xlink">
<g id="graph0" class="graph" transform="scale(1 1) rotate(0) translate(4 133)">
<title>opp</title>
<polygon fill="transparent" stroke="transparent" points="-4,4 -4,-133 420,-133 420,4 -4,4"/>
<!-- Ieee80211ActionFrame -->
<g id="node1" class="node">
<title>Ieee80211ActionFrame</title>
<g id="a_node1"><a xlink:href="src-inet-linklayer-ieee80211-mac-Ieee80211ActionFrame.html" xlink:title="Class Ieee80211ActionFrame" target="_parent">
<polygon fill="#fff700" stroke="black" points="293.5,-74 164.5,-74 164.5,-55 293.5,-55 293.5,-74"/>
<text text-anchor="middle" x="229" y="-62" font-family="Helvetica,sans-Serif" font-size="10.00">Ieee80211ActionFrame</text>
</a>
</g>
</g>
<!-- Ieee80211AddbaRequest -->
<g id="node3" class="node">
<title>Ieee80211AddbaRequest</title>
<g id="a_node3"><a xlink:href="src-inet-linklayer-ieee80211-mac-Ieee80211AddbaRequest.html" xlink:title="Class Ieee80211AddbaRequest" target="_parent">
<polygon fill="#fffcaf" stroke="black" points="138,-19 0,-19 0,0 138,0 138,-19"/>
<text text-anchor="middle" x="69" y="-7" font-family="Helvetica,sans-Serif" font-size="10.00">Ieee80211AddbaRequest</text>
</a>
</g>
</g>
<!-- Ieee80211ActionFrame&#45;&gt;Ieee80211AddbaRequest -->
<g id="edge2" class="edge">
<title>Ieee80211ActionFrame&#45;&gt;Ieee80211AddbaRequest</title>
<path fill="none" stroke="black" d="M203.29,-54.98C173.52,-45.12 124.76,-28.97 94.91,-19.08"/>
</g>
<!-- Ieee80211AddbaResponse -->
<g id="node4" class="node">
<title>Ieee80211AddbaResponse</title>
<g id="a_node4"><a xlink:href="src-inet-linklayer-ieee80211-mac-Ieee80211AddbaResponse.html" xlink:title="Class Ieee80211AddbaResponse" target="_parent">
<polygon fill="#fffcaf" stroke="black" points="302,-19 156,-19 156,0 302,0 302,-19"/>
<text text-anchor="middle" x="229" y="-7" font-family="Helvetica,sans-Serif" font-size="10.00">Ieee80211AddbaResponse</text>
</a>
</g>
</g>
<!-- Ieee80211ActionFrame&#45;&gt;Ieee80211AddbaResponse -->
<g id="edge3" class="edge">
<title>Ieee80211ActionFrame&#45;&gt;Ieee80211AddbaResponse</title>
<path fill="none" stroke="black" d="M229,-54.75C229,-44.87 229,-28.9 229,-19.09"/>
</g>
<!-- Ieee80211Delba -->
<g id="node5" class="node">
<title>Ieee80211Delba</title>
<g id="a_node5"><a xlink:href="src-inet-linklayer-ieee80211-mac-Ieee80211Delba.html" xlink:title="Class Ieee80211Delba" target="_parent">
<polygon fill="#fffcaf" stroke="black" points="416,-19 320,-19 320,0 416,0 416,-19"/>
<text text-anchor="middle" x="368" y="-7" font-family="Helvetica,sans-Serif" font-size="10.00">Ieee80211Delba</text>
</a>
</g>
</g>
<!-- Ieee80211ActionFrame&#45;&gt;Ieee80211Delba -->
<g id="edge4" class="edge">
<title>Ieee80211ActionFrame&#45;&gt;Ieee80211Delba</title>
<path fill="none" stroke="black" d="M251.33,-54.98C277.12,-45.15 319.3,-29.07 345.26,-19.17"/>
</g>
<!-- Ieee80211MgmtHeader -->
<g id="node2" class="node">
<title>Ieee80211MgmtHeader</title>
<g id="a_node2"><a xlink:href="src-inet-linklayer-ieee80211-mac-Ieee80211MgmtHeader.html" xlink:title="Class Ieee80211MgmtHeader" target="_parent">
<polygon fill="#fffcaf" stroke="black" points="294.5,-129 163.5,-129 163.5,-110 294.5,-110 294.5,-129"/>
<text text-anchor="middle" x="229" y="-117" font-family="Helvetica,sans-Serif" font-size="10.00">Ieee80211MgmtHeader</text>
</a>
</g>
</g>
<!-- Ieee80211MgmtHeader&#45;&gt;Ieee80211ActionFrame -->
<g id="edge1" class="edge">
<title>Ieee80211MgmtHeader&#45;&gt;Ieee80211ActionFrame</title>
<path fill="none" stroke="black" d="M229,-109.75C229,-99.87 229,-83.9 229,-74.09"/>
</g>
</g>
</svg>
