<?xml version="1.0" encoding="UTF-8" standalone="no"?>
<!DOCTYPE svg PUBLIC "-//W3C//DTD SVG 1.1//EN"
 "http://www.w3.org/Graphics/SVG/1.1/DTD/svg11.dtd">
<!-- Generated by graphviz version 2.43.0 (0)
 -->
<!-- Title: opp Pages: 1 -->
<svg width="364pt" height="137pt"
 viewBox="0.00 0.00 363.50 137.00" xmlns="http://www.w3.org/2000/svg" xmlns:xlink="http://www.w3.org/1999/xlink">
<g id="graph0" class="graph" transform="scale(1 1) rotate(0) translate(4 133)">
<title>opp</title>
<polygon fill="transparent" stroke="transparent" points="-4,4 -4,-133 359.5,-133 359.5,4 -4,4"/>
<!-- Ipv6NdSourceTargetLinkLayerAddress -->
<g id="node1" class="node">
<title>Ipv6NdSourceTargetLinkLayerAddress</title>
<g id="a_node1"><a xlink:href="src-inet-networklayer-icmpv6-Ipv6NdSourceTargetLinkLayerAddress.html" xlink:title="Class Ipv6NdSourceTargetLinkLayerAddress" target="_parent">
<polygon fill="#fff700" stroke="black" points="278,-74 78,-74 78,-55 278,-55 278,-74"/>
<text text-anchor="middle" x="178" y="-62" font-family="Helvetica,sans-Serif" font-size="10.00">Ipv6NdSourceTargetLinkLayerAddress</text>
</a>
</g>
</g>
<!-- Ipv6NdSourceLinkLayerAddress -->
<g id="node3" class="node">
<title>Ipv6NdSourceLinkLayerAddress</title>
<g id="a_node3"><a xlink:href="src-inet-networklayer-icmpv6-Ipv6NdSourceLinkLayerAddress.html" xlink:title="Class Ipv6NdSourceLinkLayerAddress" target="_parent">
<polygon fill="#fffcaf" stroke="black" points="170,-19 0,-19 0,0 170,0 170,-19"/>
<text text-anchor="middle" x="85" y="-7" font-family="Helvetica,sans-Serif" font-size="10.00">Ipv6NdSourceLinkLayerAddress</text>
</a>
</g>
</g>
<!-- Ipv6NdSourceTargetLinkLayerAddress&#45;&gt;Ipv6NdSourceLinkLayerAddress -->
<g id="edge2" class="edge">
<title>Ipv6NdSourceTargetLinkLayerAddress&#45;&gt;Ipv6NdSourceLinkLayerAddress</title>
<path fill="none" stroke="black" d="M163.06,-54.98C145.81,-45.15 117.58,-29.07 100.21,-19.17"/>
</g>
<!-- Ipv6NdTargetLinkLayerAddress -->
<g id="node4" class="node">
<title>Ipv6NdTargetLinkLayerAddress</title>
<g id="a_node4"><a xlink:href="src-inet-networklayer-icmpv6-Ipv6NdTargetLinkLayerAddress.html" xlink:title="Class Ipv6NdTargetLinkLayerAddress" target="_parent">
<polygon fill="#fffcaf" stroke="black" points="355.5,-19 188.5,-19 188.5,0 355.5,0 355.5,-19"/>
<text text-anchor="middle" x="272" y="-7" font-family="Helvetica,sans-Serif" font-size="10.00">Ipv6NdTargetLinkLayerAddress</text>
</a>
</g>
</g>
<!-- Ipv6NdSourceTargetLinkLayerAddress&#45;&gt;Ipv6NdTargetLinkLayerAddress -->
<g id="edge3" class="edge">
<title>Ipv6NdSourceTargetLinkLayerAddress&#45;&gt;Ipv6NdTargetLinkLayerAddress</title>
<path fill="none" stroke="black" d="M193.1,-54.98C210.54,-45.15 239.07,-29.07 256.62,-19.17"/>
</g>
<!-- Ipv6NdOption -->
<g id="node2" class="node">
<title>Ipv6NdOption</title>
<g id="a_node2"><a xlink:href="src-inet-networklayer-icmpv6-Ipv6NdOption.html" xlink:title="Class Ipv6NdOption" target="_parent">
<polygon fill="#fffcaf" stroke="black" points="219.5,-129 136.5,-129 136.5,-110 219.5,-110 219.5,-129"/>
<text text-anchor="middle" x="178" y="-117" font-family="Helvetica,sans-Serif" font-size="10.00">Ipv6NdOption</text>
</a>
</g>
</g>
<!-- Ipv6NdOption&#45;&gt;Ipv6NdSourceTargetLinkLayerAddress -->
<g id="edge1" class="edge">
<title>Ipv6NdOption&#45;&gt;Ipv6NdSourceTargetLinkLayerAddress</title>
<path fill="none" stroke="black" d="M178,-109.75C178,-99.87 178,-83.9 178,-74.09"/>
</g>
</g>
</svg>
