<?xml version="1.0" encoding="UTF-8" standalone="no"?>
<!DOCTYPE svg PUBLIC "-//W3C//DTD SVG 1.1//EN"
 "http://www.w3.org/Graphics/SVG/1.1/DTD/svg11.dtd">
<!-- Generated by graphviz version 2.43.0 (0)
 -->
<!-- Title: opp Pages: 1 -->
<svg width="389pt" height="82pt"
 viewBox="0.00 0.00 389.00 82.00" xmlns="http://www.w3.org/2000/svg" xmlns:xlink="http://www.w3.org/1999/xlink">
<g id="graph0" class="graph" transform="scale(1 1) rotate(0) translate(4 78)">
<title>opp</title>
<polygon fill="transparent" stroke="transparent" points="-4,4 -4,-78 385,-78 385,4 -4,4"/>
<!-- Ipv6Header -->
<g id="node1" class="node">
<title>Ipv6Header</title>
<g id="a_node1"><a xlink:href="src-inet-networklayer-ipv6-Ipv6Header.html" xlink:title="Class Ipv6Header" target="_parent">
<polygon fill="#fff700" stroke="black" points="205.5,-74 132.5,-74 132.5,-55 205.5,-55 205.5,-74"/>
<text text-anchor="middle" x="169" y="-62" font-family="Helvetica,sans-Serif" font-size="10.00">Ipv6Header</text>
</a>
</g>
</g>
<!-- B -->
<g id="node2" class="node">
<title>B</title>
<g id="a_node2"><a xlink:href="src-inet-common-B.html" xlink:title="Class B" target="_parent">
<polygon fill="#fffcaf" stroke="black" points="54,-19 0,-19 0,0 54,0 54,-19"/>
<text text-anchor="middle" x="27" y="-7" font-family="Helvetica,sans-Serif" font-size="10.00">B</text>
</a>
</g>
</g>
<!-- Ipv6Header&#45;&gt;B -->
<g id="edge1" class="edge">
<title>Ipv6Header&#45;&gt;B</title>
<path fill="none" stroke="black" d="M146.19,-54.98C122.83,-46.27 86.3,-32.63 59.83,-22.75"/>
<polygon fill="black" stroke="black" points="60.82,-19.39 50.23,-19.17 58.37,-25.95 60.82,-19.39"/>
</g>
<!-- Ipv6Address -->
<g id="node3" class="node">
<title>Ipv6Address</title>
<g id="a_node3"><a xlink:href="src-inet-networklayer-contract-ipv6-Ipv6Address.html" xlink:title="Class Ipv6Address" target="_parent">
<polygon fill="#fffcaf" stroke="black" points="149.5,-19 72.5,-19 72.5,0 149.5,0 149.5,-19"/>
<text text-anchor="middle" x="111" y="-7" font-family="Helvetica,sans-Serif" font-size="10.00">Ipv6Address</text>
</a>
</g>
</g>
<!-- Ipv6Header&#45;&gt;Ipv6Address -->
<g id="edge2" class="edge">
<title>Ipv6Header&#45;&gt;Ipv6Address</title>
<path fill="none" stroke="black" d="M159.68,-54.98C151.19,-47.23 138.44,-35.58 128.12,-26.14"/>
<polygon fill="black" stroke="black" points="130.23,-23.33 120.49,-19.17 125.51,-28.5 130.23,-23.33"/>
</g>
<!-- Ipv6ExtensionHeader -->
<g id="node4" class="node">
<title>Ipv6ExtensionHeader</title>
<g id="a_node4"><a xlink:href="src-inet-networklayer-ipv6-Ipv6ExtensionHeader.html" xlink:title="Class Ipv6ExtensionHeader" target="_parent">
<polygon fill="#fffcaf" stroke="black" points="288.5,-19 167.5,-19 167.5,0 288.5,0 288.5,-19"/>
<text text-anchor="middle" x="228" y="-7" font-family="Helvetica,sans-Serif" font-size="10.00">Ipv6ExtensionHeader</text>
</a>
</g>
</g>
<!-- Ipv6Header&#45;&gt;Ipv6ExtensionHeader -->
<g id="edge3" class="edge">
<title>Ipv6Header&#45;&gt;Ipv6ExtensionHeader</title>
<path fill="none" stroke="black" d="M178.48,-54.98C187.2,-47.15 200.34,-35.34 210.9,-25.86"/>
<polygon fill="black" stroke="black" points="213.25,-28.46 218.35,-19.17 208.57,-23.25 213.25,-28.46"/>
</g>
<!-- IpProtocolId -->
<g id="node5" class="node">
<title>IpProtocolId</title>
<g id="a_node5"><a xlink:href="src-inet-networklayer-common-IpProtocolId.html" xlink:title="Enum IpProtocolId" target="_parent">
<polygon fill="#d0ffd0" stroke="black" points="381,-19 307,-19 307,0 381,0 381,-19"/>
<text text-anchor="middle" x="344" y="-7" font-family="Helvetica,sans-Serif" font-size="10.00">IpProtocolId</text>
</a>
</g>
</g>
<!-- Ipv6Header&#45;&gt;IpProtocolId -->
<g id="edge4" class="edge">
<title>Ipv6Header&#45;&gt;IpProtocolId</title>
<path fill="none" stroke="black" d="M197.12,-54.98C226.62,-46.05 273.19,-31.94 305.97,-22.02"/>
<polygon fill="black" stroke="black" points="307.11,-25.33 315.66,-19.08 305.08,-18.63 307.11,-25.33"/>
</g>
</g>
</svg>
