<?xml version="1.0" encoding="UTF-8" standalone="no"?>
<!DOCTYPE svg PUBLIC "-//W3C//DTD SVG 1.1//EN"
 "http://www.w3.org/Graphics/SVG/1.1/DTD/svg11.dtd">
<!-- Generated by graphviz version 2.43.0 (0)
 -->
<!-- Title: opp Pages: 1 -->
<svg width="426pt" height="137pt"
 viewBox="0.00 0.00 426.00 137.00" xmlns="http://www.w3.org/2000/svg" xmlns:xlink="http://www.w3.org/1999/xlink">
<g id="graph0" class="graph" transform="scale(1 1) rotate(0) translate(4 133)">
<title>opp</title>
<polygon fill="transparent" stroke="transparent" points="-4,4 -4,-133 422,-133 422,4 -4,4"/>
<!-- EigrpMpIpv6Internal -->
<g id="node1" class="node">
<title>EigrpMpIpv6Internal</title>
<g id="a_node1"><a xlink:href="src-inet-routing-eigrp-messages-EigrpMpIpv6Internal.html" xlink:title="Struct EigrpMpIpv6Internal" target="_parent">
<polygon fill="#9090ff" stroke="black" points="270,-74 155,-74 155,-55 270,-55 270,-74"/>
<text text-anchor="middle" x="212.5" y="-62" font-family="Helvetica,sans-Serif" font-size="10.00">EigrpMpIpv6Internal</text>
</a>
</g>
</g>
<!-- Ipv6Address -->
<g id="node2" class="node">
<title>Ipv6Address</title>
<g id="a_node2"><a xlink:href="src-inet-networklayer-contract-ipv6-Ipv6Address.html" xlink:title="Class Ipv6Address" target="_parent">
<polygon fill="#fffcaf" stroke="black" points="77,-19 0,-19 0,0 77,0 77,-19"/>
<text text-anchor="middle" x="38.5" y="-7" font-family="Helvetica,sans-Serif" font-size="10.00">Ipv6Address</text>
</a>
</g>
</g>
<!-- EigrpMpIpv6Internal&#45;&gt;Ipv6Address -->
<g id="edge1" class="edge">
<title>EigrpMpIpv6Internal&#45;&gt;Ipv6Address</title>
<path fill="none" stroke="black" d="M184.54,-54.98C155.2,-46.05 108.9,-31.94 76.31,-22.02"/>
<polygon fill="black" stroke="black" points="77.26,-18.65 66.68,-19.08 75.22,-25.34 77.26,-18.65"/>
</g>
<!-- EigrpWideMetricPar -->
<g id="node3" class="node">
<title>EigrpWideMetricPar</title>
<g id="a_node3"><a xlink:href="src-inet-routing-eigrp-messages-EigrpWideMetricPar.html" xlink:title="Struct EigrpWideMetricPar" target="_parent">
<polygon fill="#d0d0ff" stroke="black" points="208,-19 95,-19 95,0 208,0 208,-19"/>
<text text-anchor="middle" x="151.5" y="-7" font-family="Helvetica,sans-Serif" font-size="10.00">EigrpWideMetricPar</text>
</a>
</g>
</g>
<!-- EigrpMpIpv6Internal&#45;&gt;EigrpWideMetricPar -->
<g id="edge2" class="edge">
<title>EigrpMpIpv6Internal&#45;&gt;EigrpWideMetricPar</title>
<path fill="none" stroke="black" d="M202.7,-54.98C193.68,-47.15 180.09,-35.34 169.18,-25.86"/>
<polygon fill="black" stroke="black" points="171.32,-23.09 161.48,-19.17 166.73,-28.37 171.32,-23.09"/>
</g>
<!-- EigrpRouteFlags -->
<g id="node4" class="node">
<title>EigrpRouteFlags</title>
<g id="a_node4"><a xlink:href="src-inet-routing-eigrp-messages-EigrpRouteFlags.html" xlink:title="Struct EigrpRouteFlags" target="_parent">
<polygon fill="#d0d0ff" stroke="black" points="322.5,-19 226.5,-19 226.5,0 322.5,0 322.5,-19"/>
<text text-anchor="middle" x="274.5" y="-7" font-family="Helvetica,sans-Serif" font-size="10.00">EigrpRouteFlags</text>
</a>
</g>
</g>
<!-- EigrpMpIpv6Internal&#45;&gt;EigrpRouteFlags -->
<g id="edge3" class="edge">
<title>EigrpMpIpv6Internal&#45;&gt;EigrpRouteFlags</title>
<path fill="none" stroke="black" d="M222.46,-54.98C231.63,-47.15 245.44,-35.34 256.53,-25.86"/>
<polygon fill="black" stroke="black" points="259.03,-28.33 264.36,-19.17 254.48,-23.01 259.03,-28.33"/>
</g>
<!-- Ipv4Address -->
<g id="node5" class="node">
<title>Ipv4Address</title>
<g id="a_node5"><a xlink:href="src-inet-networklayer-contract-ipv4-Ipv4Address.html" xlink:title="Class Ipv4Address" target="_parent">
<polygon fill="#fffcaf" stroke="black" points="418,-19 341,-19 341,0 418,0 418,-19"/>
<text text-anchor="middle" x="379.5" y="-7" font-family="Helvetica,sans-Serif" font-size="10.00">Ipv4Address</text>
</a>
</g>
</g>
<!-- EigrpMpIpv6Internal&#45;&gt;Ipv4Address -->
<g id="edge4" class="edge">
<title>EigrpMpIpv6Internal&#45;&gt;Ipv4Address</title>
<path fill="none" stroke="black" d="M239.33,-54.98C267.37,-46.09 311.55,-32.07 342.8,-22.15"/>
<polygon fill="black" stroke="black" points="343.99,-25.44 352.46,-19.08 341.87,-18.77 343.99,-25.44"/>
</g>
<!-- EigrpIpv6Message -->
<g id="node6" class="node">
<title>EigrpIpv6Message</title>
<g id="a_node6"><a xlink:href="src-inet-routing-eigrp-messages-EigrpIpv6Message.html" xlink:title="Class EigrpIpv6Message" target="_parent">
<polygon fill="#fffcaf" stroke="black" points="265.5,-129 159.5,-129 159.5,-110 265.5,-110 265.5,-129"/>
<text text-anchor="middle" x="212.5" y="-117" font-family="Helvetica,sans-Serif" font-size="10.00">EigrpIpv6Message</text>
</a>
</g>
</g>
<!-- EigrpIpv6Message&#45;&gt;EigrpMpIpv6Internal -->
<g id="edge5" class="edge">
<title>EigrpIpv6Message&#45;&gt;EigrpMpIpv6Internal</title>
<path fill="none" stroke="black" d="M212.5,-109.75C212.5,-102.8 212.5,-92.85 212.5,-84.13"/>
<polygon fill="black" stroke="black" points="216,-84.09 212.5,-74.09 209,-84.09 216,-84.09"/>
</g>
</g>
</svg>
