<?xml version="1.0" encoding="UTF-8" standalone="no"?>
<!DOCTYPE svg PUBLIC "-//W3C//DTD SVG 1.1//EN"
 "http://www.w3.org/Graphics/SVG/1.1/DTD/svg11.dtd">
<!-- Generated by graphviz version 2.43.0 (0)
 -->
<!-- Title: opp Pages: 1 -->
<svg width="160pt" height="82pt"
 viewBox="0.00 0.00 159.50 82.00" xmlns="http://www.w3.org/2000/svg" xmlns:xlink="http://www.w3.org/1999/xlink">
<g id="graph0" class="graph" transform="scale(1 1) rotate(0) translate(4 78)">
<title>opp</title>
<polygon fill="transparent" stroke="transparent" points="-4,4 -4,-78 155.5,-78 155.5,4 -4,4"/>
<!-- Ipv6SocketBindCommand -->
<g id="node1" class="node">
<title>Ipv6SocketBindCommand</title>
<g id="a_node1"><a xlink:href="src-inet-networklayer-contract-ipv6-Ipv6SocketBindCommand.html" xlink:title="Class Ipv6SocketBindCommand" target="_parent">
<polygon fill="#fff700" stroke="black" points="151.5,-74 9.5,-74 9.5,-55 151.5,-55 151.5,-74"/>
<text text-anchor="middle" x="80.5" y="-62" font-family="Helvetica,sans-Serif" font-size="10.00">Ipv6SocketBindCommand</text>
</a>
</g>
</g>
<!-- Ipv6Address -->
<g id="node2" class="node">
<title>Ipv6Address</title>
<g id="a_node2"><a xlink:href="src-inet-networklayer-contract-ipv6-Ipv6Address.html" xlink:title="Class Ipv6Address" target="_parent">
<polygon fill="#fffcaf" stroke="black" points="77,-19 0,-19 0,0 77,0 77,-19"/>
<text text-anchor="middle" x="38.5" y="-7" font-family="Helvetica,sans-Serif" font-size="10.00">Ipv6Address</text>
</a>
</g>
</g>
<!-- Ipv6SocketBindCommand&#45;&gt;Ipv6Address -->
<g id="edge1" class="edge">
<title>Ipv6SocketBindCommand&#45;&gt;Ipv6Address</title>
<path fill="none" stroke="black" d="M73.56,-54.75C67.63,-47.26 58.93,-36.28 51.68,-27.13"/>
<polygon fill="black" stroke="black" points="54.26,-24.75 45.31,-19.09 48.77,-29.1 54.26,-24.75"/>
</g>
<!-- Protocol -->
<g id="node3" class="node">
<title>Protocol</title>
<g id="a_node3"><a xlink:href="src-inet-common-Protocol.html" xlink:title="Class Protocol" target="_parent">
<polygon fill="#fffcaf" stroke="black" points="151.5,-19 95.5,-19 95.5,0 151.5,0 151.5,-19"/>
<text text-anchor="middle" x="123.5" y="-7" font-family="Helvetica,sans-Serif" font-size="10.00">Protocol</text>
</a>
</g>
</g>
<!-- Ipv6SocketBindCommand&#45;&gt;Protocol -->
<g id="edge2" class="edge">
<title>Ipv6SocketBindCommand&#45;&gt;Protocol</title>
<path fill="none" stroke="black" d="M87.6,-54.75C93.67,-47.26 102.59,-36.28 110.01,-27.13"/>
<polygon fill="black" stroke="black" points="112.95,-29.06 116.53,-19.09 107.51,-24.65 112.95,-29.06"/>
</g>
</g>
</svg>
