<?xml version="1.0" encoding="UTF-8" standalone="no"?>
<!DOCTYPE svg PUBLIC "-//W3C//DTD SVG 1.1//EN"
 "http://www.w3.org/Graphics/SVG/1.1/DTD/svg11.dtd">
<!-- Generated by graphviz version 2.43.0 (0)
 -->
<!-- Title: opp Pages: 1 -->
<svg width="148pt" height="82pt"
 viewBox="0.00 0.00 148.00 82.00" xmlns="http://www.w3.org/2000/svg" xmlns:xlink="http://www.w3.org/1999/xlink">
<g id="graph0" class="graph" transform="scale(1 1) rotate(0) translate(4 78)">
<title>opp</title>
<polygon fill="transparent" stroke="transparent" points="-4,4 -4,-78 144,-78 144,4 -4,4"/>
<!-- TransportPseudoHeader -->
<g id="node1" class="node">
<title>TransportPseudoHeader</title>
<g id="a_node1"><a xlink:href="src-inet-transportlayer-common-TransportPseudoHeader.html" xlink:title="Class TransportPseudoHeader" target="_parent">
<polygon fill="#fff700" stroke="black" points="133,-74 0,-74 0,-55 133,-55 133,-74"/>
<text text-anchor="middle" x="66.5" y="-62" font-family="Helvetica,sans-Serif" font-size="10.00">TransportPseudoHeader</text>
</a>
</g>
</g>
<!-- B -->
<g id="node2" class="node">
<title>B</title>
<g id="a_node2"><a xlink:href="src-inet-common-B.html" xlink:title="Class B" target="_parent">
<polygon fill="#fffcaf" stroke="black" points="54.5,-19 0.5,-19 0.5,0 54.5,0 54.5,-19"/>
<text text-anchor="middle" x="27.5" y="-7" font-family="Helvetica,sans-Serif" font-size="10.00">B</text>
</a>
</g>
</g>
<!-- TransportPseudoHeader&#45;&gt;B -->
<g id="edge1" class="edge">
<title>TransportPseudoHeader&#45;&gt;B</title>
<path fill="none" stroke="black" d="M60.06,-54.75C54.61,-47.34 46.64,-36.5 39.94,-27.41"/>
<polygon fill="black" stroke="black" points="42.57,-25.07 33.82,-19.09 36.93,-29.22 42.57,-25.07"/>
</g>
<!-- L3Address -->
<g id="node3" class="node">
<title>L3Address</title>
<g id="a_node3"><a xlink:href="src-inet-networklayer-common-L3Address.html" xlink:title="Class L3Address" target="_parent">
<polygon fill="#fffcaf" stroke="black" points="140,-19 73,-19 73,0 140,0 140,-19"/>
<text text-anchor="middle" x="106.5" y="-7" font-family="Helvetica,sans-Serif" font-size="10.00">L3Address</text>
</a>
</g>
</g>
<!-- TransportPseudoHeader&#45;&gt;L3Address -->
<g id="edge2" class="edge">
<title>TransportPseudoHeader&#45;&gt;L3Address</title>
<path fill="none" stroke="black" d="M73.11,-54.75C78.76,-47.26 87.04,-36.28 93.95,-27.13"/>
<polygon fill="black" stroke="black" points="96.79,-29.18 100.02,-19.09 91.2,-24.96 96.79,-29.18"/>
</g>
</g>
</svg>
