<?xml version="1.0" encoding="UTF-8" standalone="no"?>
<!DOCTYPE svg PUBLIC "-//W3C//DTD SVG 1.1//EN"
 "http://www.w3.org/Graphics/SVG/1.1/DTD/svg11.dtd">
<!-- Generated by graphviz version 2.43.0 (0)
 -->
<!-- Title: opp Pages: 1 -->
<svg width="550pt" height="82pt"
 viewBox="0.00 0.00 550.00 82.00" xmlns="http://www.w3.org/2000/svg" xmlns:xlink="http://www.w3.org/1999/xlink">
<g id="graph0" class="graph" transform="scale(1 1) rotate(0) translate(4 78)">
<title>opp</title>
<polygon fill="transparent" stroke="transparent" points="-4,4 -4,-78 546,-78 546,4 -4,4"/>
<!-- TunControlInfo -->
<g id="node1" class="node">
<title>TunControlInfo</title>
<g id="a_node1"><a xlink:href="src-inet-linklayer-tun-TunControlInfo.html" xlink:title="Class TunControlInfo" target="_parent">
<polygon fill="#fff700" stroke="black" points="299.5,-74 212.5,-74 212.5,-55 299.5,-55 299.5,-74"/>
<text text-anchor="middle" x="256" y="-62" font-family="Helvetica,sans-Serif" font-size="10.00">TunControlInfo</text>
</a>
</g>
</g>
<!-- TunCloseCommand -->
<g id="node2" class="node">
<title>TunCloseCommand</title>
<g id="a_node2"><a xlink:href="src-inet-linklayer-tun-TunCloseCommand.html" xlink:title="Class TunCloseCommand" target="_parent">
<polygon fill="#fffcaf" stroke="black" points="110,-19 0,-19 0,0 110,0 110,-19"/>
<text text-anchor="middle" x="55" y="-7" font-family="Helvetica,sans-Serif" font-size="10.00">TunCloseCommand</text>
</a>
</g>
</g>
<!-- TunControlInfo&#45;&gt;TunCloseCommand -->
<g id="edge1" class="edge">
<title>TunControlInfo&#45;&gt;TunCloseCommand</title>
<path fill="none" stroke="black" d="M223.71,-54.98C186.31,-45.12 125.05,-28.97 87.55,-19.08"/>
</g>
<!-- TunDestroyCommand -->
<g id="node3" class="node">
<title>TunDestroyCommand</title>
<g id="a_node3"><a xlink:href="src-inet-linklayer-tun-TunDestroyCommand.html" xlink:title="Class TunDestroyCommand" target="_parent">
<polygon fill="#fffcaf" stroke="black" points="250,-19 128,-19 128,0 250,0 250,-19"/>
<text text-anchor="middle" x="189" y="-7" font-family="Helvetica,sans-Serif" font-size="10.00">TunDestroyCommand</text>
</a>
</g>
</g>
<!-- TunControlInfo&#45;&gt;TunDestroyCommand -->
<g id="edge2" class="edge">
<title>TunControlInfo&#45;&gt;TunDestroyCommand</title>
<path fill="none" stroke="black" d="M245.24,-54.98C232.81,-45.15 212.47,-29.07 199.96,-19.17"/>
</g>
<!-- TunOpenCommand -->
<g id="node4" class="node">
<title>TunOpenCommand</title>
<g id="a_node4"><a xlink:href="src-inet-linklayer-tun-TunOpenCommand.html" xlink:title="Class TunOpenCommand" target="_parent">
<polygon fill="#fffcaf" stroke="black" points="377.5,-19 268.5,-19 268.5,0 377.5,0 377.5,-19"/>
<text text-anchor="middle" x="323" y="-7" font-family="Helvetica,sans-Serif" font-size="10.00">TunOpenCommand</text>
</a>
</g>
</g>
<!-- TunControlInfo&#45;&gt;TunOpenCommand -->
<g id="edge3" class="edge">
<title>TunControlInfo&#45;&gt;TunOpenCommand</title>
<path fill="none" stroke="black" d="M266.76,-54.98C279.19,-45.15 299.53,-29.07 312.04,-19.17"/>
</g>
<!-- TunSocketClosedIndication -->
<g id="node5" class="node">
<title>TunSocketClosedIndication</title>
<g id="a_node5"><a xlink:href="src-inet-linklayer-tun-TunSocketClosedIndication.html" xlink:title="Class TunSocketClosedIndication" target="_parent">
<polygon fill="#fffcaf" stroke="black" points="542,-19 396,-19 396,0 542,0 542,-19"/>
<text text-anchor="middle" x="469" y="-7" font-family="Helvetica,sans-Serif" font-size="10.00">TunSocketClosedIndication</text>
</a>
</g>
</g>
<!-- TunControlInfo&#45;&gt;TunSocketClosedIndication -->
<g id="edge4" class="edge">
<title>TunControlInfo&#45;&gt;TunSocketClosedIndication</title>
<path fill="none" stroke="black" d="M290.22,-54.98C329.85,-45.12 394.77,-28.97 434.51,-19.08"/>
</g>
</g>
</svg>
