<?xml version="1.0" encoding="UTF-8" standalone="no"?>
<!DOCTYPE svg PUBLIC "-//W3C//DTD SVG 1.1//EN"
 "http://www.w3.org/Graphics/SVG/1.1/DTD/svg11.dtd">
<!-- Generated by graphviz version 2.43.0 (0)
 -->
<!-- Title: opp Pages: 1 -->
<svg width="232pt" height="137pt"
 viewBox="0.00 0.00 232.00 137.00" xmlns="http://www.w3.org/2000/svg" xmlns:xlink="http://www.w3.org/1999/xlink">
<g id="graph0" class="graph" transform="scale(1 1) rotate(0) translate(4 133)">
<title>opp</title>
<polygon fill="transparent" stroke="transparent" points="-4,4 -4,-133 228,-133 228,4 -4,4"/>
<!-- SenderDescriptor_t -->
<g id="node1" class="node">
<title>SenderDescriptor_t</title>
<g id="a_node1"><a xlink:href="src-inet-networklayer-rsvpte-SenderDescriptor_t.html" xlink:title="Struct SenderDescriptor_t" target="_parent">
<polygon fill="#9090ff" stroke="black" points="162,-74 52,-74 52,-55 162,-55 162,-74"/>
<text text-anchor="middle" x="107" y="-62" font-family="Helvetica,sans-Serif" font-size="10.00">SenderDescriptor_t</text>
</a>
</g>
</g>
<!-- SenderTspecObj -->
<g id="node2" class="node">
<title>SenderTspecObj</title>
<g id="a_node2"><a xlink:href="src-inet-networklayer-rsvpte-SenderTspecObj.html" xlink:title="Struct SenderTspecObj" target="_parent">
<polygon fill="#d0d0ff" stroke="black" points="94,-19 0,-19 0,0 94,0 94,-19"/>
<text text-anchor="middle" x="47" y="-7" font-family="Helvetica,sans-Serif" font-size="10.00">SenderTspecObj</text>
</a>
</g>
</g>
<!-- SenderDescriptor_t&#45;&gt;SenderTspecObj -->
<g id="edge1" class="edge">
<title>SenderDescriptor_t&#45;&gt;SenderTspecObj</title>
<path fill="none" stroke="black" d="M97.36,-54.98C88.49,-47.15 75.13,-35.34 64.39,-25.86"/>
<polygon fill="black" stroke="black" points="66.63,-23.17 56.82,-19.17 61.99,-28.41 66.63,-23.17"/>
</g>
<!-- SenderTemplateObj -->
<g id="node3" class="node">
<title>SenderTemplateObj</title>
<g id="a_node3"><a xlink:href="src-inet-networklayer-rsvpte-SenderTemplateObj.html" xlink:title="Struct SenderTemplateObj" target="_parent">
<polygon fill="#d0d0ff" stroke="black" points="224,-19 112,-19 112,0 224,0 224,-19"/>
<text text-anchor="middle" x="168" y="-7" font-family="Helvetica,sans-Serif" font-size="10.00">SenderTemplateObj</text>
</a>
</g>
</g>
<!-- SenderDescriptor_t&#45;&gt;SenderTemplateObj -->
<g id="edge2" class="edge">
<title>SenderDescriptor_t&#45;&gt;SenderTemplateObj</title>
<path fill="none" stroke="black" d="M116.8,-54.98C125.82,-47.15 139.41,-35.34 150.32,-25.86"/>
<polygon fill="black" stroke="black" points="152.77,-28.37 158.02,-19.17 148.18,-23.09 152.77,-28.37"/>
</g>
<!-- RsvpPathError -->
<g id="node4" class="node">
<title>RsvpPathError</title>
<g id="a_node4"><a xlink:href="src-inet-networklayer-rsvpte-RsvpPathError.html" xlink:title="Class RsvpPathError" target="_parent">
<polygon fill="#fffcaf" stroke="black" points="99,-129 13,-129 13,-110 99,-110 99,-129"/>
<text text-anchor="middle" x="56" y="-117" font-family="Helvetica,sans-Serif" font-size="10.00">RsvpPathError</text>
</a>
</g>
</g>
<!-- RsvpPathError&#45;&gt;SenderDescriptor_t -->
<g id="edge3" class="edge">
<title>RsvpPathError&#45;&gt;SenderDescriptor_t</title>
<path fill="none" stroke="black" d="M64.42,-109.75C71.77,-102.11 82.63,-90.82 91.54,-81.56"/>
<polygon fill="black" stroke="black" points="94.32,-83.72 98.74,-74.09 89.28,-78.87 94.32,-83.72"/>
</g>
<!-- RsvpPathMsg -->
<g id="node5" class="node">
<title>RsvpPathMsg</title>
<g id="a_node5"><a xlink:href="src-inet-networklayer-rsvpte-RsvpPathMsg.html" xlink:title="Class RsvpPathMsg" target="_parent">
<polygon fill="#fffcaf" stroke="black" points="200.5,-129 117.5,-129 117.5,-110 200.5,-110 200.5,-129"/>
<text text-anchor="middle" x="159" y="-117" font-family="Helvetica,sans-Serif" font-size="10.00">RsvpPathMsg</text>
</a>
</g>
</g>
<!-- RsvpPathMsg&#45;&gt;SenderDescriptor_t -->
<g id="edge4" class="edge">
<title>RsvpPathMsg&#45;&gt;SenderDescriptor_t</title>
<path fill="none" stroke="black" d="M150.41,-109.75C142.84,-102.03 131.62,-90.6 122.49,-81.28"/>
<polygon fill="black" stroke="black" points="124.93,-78.78 115.43,-74.09 119.93,-83.68 124.93,-78.78"/>
</g>
</g>
</svg>
