<?xml version="1.0" encoding="UTF-8" standalone="no"?>
<!DOCTYPE svg PUBLIC "-//W3C//DTD SVG 1.1//EN"
 "http://www.w3.org/Graphics/SVG/1.1/DTD/svg11.dtd">
<!-- Generated by graphviz version 2.43.0 (0)
 -->
<!-- Title: opp Pages: 1 -->
<svg width="266pt" height="137pt"
 viewBox="0.00 0.00 265.50 137.00" xmlns="http://www.w3.org/2000/svg" xmlns:xlink="http://www.w3.org/1999/xlink">
<g id="graph0" class="graph" transform="scale(1 1) rotate(0) translate(4 133)">
<title>opp</title>
<polygon fill="transparent" stroke="transparent" points="-4,4 -4,-133 261.5,-133 261.5,4 -4,4"/>
<!-- LMacHeaderBase -->
<g id="node1" class="node">
<title>LMacHeaderBase</title>
<g id="a_node1"><a xlink:href="src-inet-linklayer-lmac-LMacHeaderBase.html" xlink:title="Class LMacHeaderBase" target="_parent">
<polygon fill="#fff700" stroke="black" points="173.5,-74 72.5,-74 72.5,-55 173.5,-55 173.5,-74"/>
<text text-anchor="middle" x="123" y="-62" font-family="Helvetica,sans-Serif" font-size="10.00">LMacHeaderBase</text>
</a>
</g>
</g>
<!-- LMacControlFrame -->
<g id="node3" class="node">
<title>LMacControlFrame</title>
<g id="a_node3"><a xlink:href="src-inet-linklayer-lmac-LMacControlFrame.html" xlink:title="Class LMacControlFrame" target="_parent">
<polygon fill="#fffcaf" stroke="black" points="108,-19 0,-19 0,0 108,0 108,-19"/>
<text text-anchor="middle" x="54" y="-7" font-family="Helvetica,sans-Serif" font-size="10.00">LMacControlFrame</text>
</a>
</g>
</g>
<!-- LMacHeaderBase&#45;&gt;LMacControlFrame -->
<g id="edge2" class="edge">
<title>LMacHeaderBase&#45;&gt;LMacControlFrame</title>
<path fill="none" stroke="black" d="M111.91,-54.98C99.11,-45.15 78.17,-29.07 65.29,-19.17"/>
</g>
<!-- LMacDataFrameHeader -->
<g id="node4" class="node">
<title>LMacDataFrameHeader</title>
<g id="a_node4"><a xlink:href="src-inet-linklayer-lmac-LMacDataFrameHeader.html" xlink:title="Class LMacDataFrameHeader" target="_parent">
<polygon fill="#fffcaf" stroke="black" points="257.5,-19 126.5,-19 126.5,0 257.5,0 257.5,-19"/>
<text text-anchor="middle" x="192" y="-7" font-family="Helvetica,sans-Serif" font-size="10.00">LMacDataFrameHeader</text>
</a>
</g>
</g>
<!-- LMacHeaderBase&#45;&gt;LMacDataFrameHeader -->
<g id="edge3" class="edge">
<title>LMacHeaderBase&#45;&gt;LMacDataFrameHeader</title>
<path fill="none" stroke="black" d="M134.09,-54.98C146.89,-45.15 167.83,-29.07 180.71,-19.17"/>
</g>
<!-- FieldsChunk -->
<g id="node2" class="node">
<title>FieldsChunk</title>
<g id="a_node2"><a xlink:href="src-inet-common-packet-chunk-FieldsChunk.html" xlink:title="Class FieldsChunk" target="_parent">
<polygon fill="#fffcaf" stroke="black" points="160.5,-129 85.5,-129 85.5,-110 160.5,-110 160.5,-129"/>
<text text-anchor="middle" x="123" y="-117" font-family="Helvetica,sans-Serif" font-size="10.00">FieldsChunk</text>
</a>
</g>
</g>
<!-- FieldsChunk&#45;&gt;LMacHeaderBase -->
<g id="edge1" class="edge">
<title>FieldsChunk&#45;&gt;LMacHeaderBase</title>
<path fill="none" stroke="black" d="M123,-109.75C123,-99.87 123,-83.9 123,-74.09"/>
</g>
</g>
</svg>
