<?xml version="1.0" encoding="UTF-8" standalone="no"?>
<!DOCTYPE svg PUBLIC "-//W3C//DTD SVG 1.1//EN"
 "http://www.w3.org/Graphics/SVG/1.1/DTD/svg11.dtd">
<!-- Generated by graphviz version 2.43.0 (0)
 -->
<!-- Title: opp Pages: 1 -->
<svg width="164pt" height="82pt"
 viewBox="0.00 0.00 164.00 82.00" xmlns="http://www.w3.org/2000/svg" xmlns:xlink="http://www.w3.org/1999/xlink">
<g id="graph0" class="graph" transform="scale(1 1) rotate(0) translate(4 78)">
<title>opp</title>
<polygon fill="transparent" stroke="transparent" points="-4,4 -4,-78 160,-78 160,4 -4,4"/>
<!-- SctpInitAckChunk -->
<g id="node1" class="node">
<title>SctpInitAckChunk</title>
<g id="a_node1"><a xlink:href="src-inet-transportlayer-sctp-SctpInitAckChunk.html" xlink:title="Class SctpInitAckChunk" target="_parent">
<polygon fill="#fff700" stroke="black" points="129.5,-74 27.5,-74 27.5,-55 129.5,-55 129.5,-74"/>
<text text-anchor="middle" x="78.5" y="-62" font-family="Helvetica,sans-Serif" font-size="10.00">SctpInitAckChunk</text>
</a>
</g>
</g>
<!-- SctpCookie -->
<g id="node2" class="node">
<title>SctpCookie</title>
<g id="a_node2"><a xlink:href="src-inet-transportlayer-sctp-SctpCookie.html" xlink:title="Class SctpCookie" target="_parent">
<polygon fill="#fffcaf" stroke="black" points="71,-19 0,-19 0,0 71,0 71,-19"/>
<text text-anchor="middle" x="35.5" y="-7" font-family="Helvetica,sans-Serif" font-size="10.00">SctpCookie</text>
</a>
</g>
</g>
<!-- SctpInitAckChunk&#45;&gt;SctpCookie -->
<g id="edge1" class="edge">
<title>SctpInitAckChunk&#45;&gt;SctpCookie</title>
<path fill="none" stroke="black" d="M71.4,-54.75C65.33,-47.26 56.41,-36.28 48.99,-27.13"/>
<polygon fill="black" stroke="black" points="51.49,-24.65 42.47,-19.09 46.05,-29.06 51.49,-24.65"/>
</g>
<!-- L3Address -->
<g id="node3" class="node">
<title>L3Address</title>
<g id="a_node3"><a xlink:href="src-inet-networklayer-common-L3Address.html" xlink:title="Class L3Address" target="_parent">
<polygon fill="#fffcaf" stroke="black" points="156,-19 89,-19 89,0 156,0 156,-19"/>
<text text-anchor="middle" x="122.5" y="-7" font-family="Helvetica,sans-Serif" font-size="10.00">L3Address</text>
</a>
</g>
</g>
<!-- SctpInitAckChunk&#45;&gt;L3Address -->
<g id="edge2" class="edge">
<title>SctpInitAckChunk&#45;&gt;L3Address</title>
<path fill="none" stroke="black" d="M85.77,-54.75C92.04,-47.18 101.29,-36.05 108.93,-26.84"/>
<polygon fill="black" stroke="black" points="111.67,-29.02 115.37,-19.09 106.29,-24.55 111.67,-29.02"/>
</g>
</g>
</svg>
