<?xml version="1.0" encoding="UTF-8" standalone="no"?>
<!DOCTYPE svg PUBLIC "-//W3C//DTD SVG 1.1//EN"
 "http://www.w3.org/Graphics/SVG/1.1/DTD/svg11.dtd">
<!-- Generated by graphviz version 2.43.0 (0)
 -->
<!-- Title: opp Pages: 1 -->
<svg width="154pt" height="137pt"
 viewBox="0.00 0.00 154.00 137.00" xmlns="http://www.w3.org/2000/svg" xmlns:xlink="http://www.w3.org/1999/xlink">
<g id="graph0" class="graph" transform="scale(1 1) rotate(0) translate(4 133)">
<title>opp</title>
<polygon fill="transparent" stroke="transparent" points="-4,4 -4,-133 150,-133 150,4 -4,4"/>
<!-- RtcpReceiverReportPacket -->
<g id="node1" class="node">
<title>RtcpReceiverReportPacket</title>
<g id="a_node1"><a xlink:href="src-inet-transportlayer-rtp-RtcpReceiverReportPacket.html" xlink:title="Class RtcpReceiverReportPacket" target="_parent">
<polygon fill="#fff700" stroke="black" points="146,-74 0,-74 0,-55 146,-55 146,-74"/>
<text text-anchor="middle" x="73" y="-62" font-family="Helvetica,sans-Serif" font-size="10.00">RtcpReceiverReportPacket</text>
</a>
</g>
</g>
<!-- RtcpSenderReportPacket -->
<g id="node3" class="node">
<title>RtcpSenderReportPacket</title>
<g id="a_node3"><a xlink:href="src-inet-transportlayer-rtp-RtcpSenderReportPacket.html" xlink:title="Class RtcpSenderReportPacket" target="_parent">
<polygon fill="#fffcaf" stroke="black" points="141.5,-19 4.5,-19 4.5,0 141.5,0 141.5,-19"/>
<text text-anchor="middle" x="73" y="-7" font-family="Helvetica,sans-Serif" font-size="10.00">RtcpSenderReportPacket</text>
</a>
</g>
</g>
<!-- RtcpReceiverReportPacket&#45;&gt;RtcpSenderReportPacket -->
<g id="edge2" class="edge">
<title>RtcpReceiverReportPacket&#45;&gt;RtcpSenderReportPacket</title>
<path fill="none" stroke="black" d="M73,-54.75C73,-44.87 73,-28.9 73,-19.09"/>
</g>
<!-- RtcpPacket -->
<g id="node2" class="node">
<title>RtcpPacket</title>
<g id="a_node2"><a xlink:href="src-inet-transportlayer-rtp-RtcpPacket.html" xlink:title="Class RtcpPacket" target="_parent">
<polygon fill="#fffcaf" stroke="black" points="108.5,-129 37.5,-129 37.5,-110 108.5,-110 108.5,-129"/>
<text text-anchor="middle" x="73" y="-117" font-family="Helvetica,sans-Serif" font-size="10.00">RtcpPacket</text>
</a>
</g>
</g>
<!-- RtcpPacket&#45;&gt;RtcpReceiverReportPacket -->
<g id="edge1" class="edge">
<title>RtcpPacket&#45;&gt;RtcpReceiverReportPacket</title>
<path fill="none" stroke="black" d="M73,-109.75C73,-99.87 73,-83.9 73,-74.09"/>
</g>
</g>
</svg>
