<?xml version="1.0" encoding="UTF-8" standalone="no"?>
<!DOCTYPE svg PUBLIC "-//W3C//DTD SVG 1.1//EN"
 "http://www.w3.org/Graphics/SVG/1.1/DTD/svg11.dtd">
<!-- Generated by graphviz version 2.43.0 (0)
 -->
<!-- Title: opp Pages: 1 -->
<svg width="166pt" height="82pt"
 viewBox="0.00 0.00 166.00 82.00" xmlns="http://www.w3.org/2000/svg" xmlns:xlink="http://www.w3.org/1999/xlink">
<g id="graph0" class="graph" transform="scale(1 1) rotate(0) translate(4 78)">
<title>opp</title>
<polygon fill="transparent" stroke="transparent" points="-4,4 -4,-78 162,-78 162,4 -4,4"/>
<!-- Ieee80211DataHeader -->
<g id="node1" class="node">
<title>Ieee80211DataHeader</title>
<g id="a_node1"><a xlink:href="src-inet-linklayer-ieee80211-mac-Ieee80211DataHeader.html" xlink:title="Class Ieee80211DataHeader" target="_parent">
<polygon fill="#fff700" stroke="black" points="145,-74 19,-74 19,-55 145,-55 145,-74"/>
<text text-anchor="middle" x="82" y="-62" font-family="Helvetica,sans-Serif" font-size="10.00">Ieee80211DataHeader</text>
</a>
</g>
</g>
<!-- MacAddress -->
<g id="node2" class="node">
<title>MacAddress</title>
<g id="a_node2"><a xlink:href="src-inet-linklayer-common-MacAddress.html" xlink:title="Class MacAddress" target="_parent">
<polygon fill="#fffcaf" stroke="black" points="76,-19 0,-19 0,0 76,0 76,-19"/>
<text text-anchor="middle" x="38" y="-7" font-family="Helvetica,sans-Serif" font-size="10.00">MacAddress</text>
</a>
</g>
</g>
<!-- Ieee80211DataHeader&#45;&gt;MacAddress -->
<g id="edge1" class="edge">
<title>Ieee80211DataHeader&#45;&gt;MacAddress</title>
<path fill="none" stroke="black" d="M74.73,-54.75C68.46,-47.18 59.21,-36.05 51.57,-26.84"/>
<polygon fill="black" stroke="black" points="54.21,-24.55 45.13,-19.09 48.83,-29.02 54.21,-24.55"/>
</g>
<!-- AckPolicy -->
<g id="node3" class="node">
<title>AckPolicy</title>
<g id="a_node3"><a xlink:href="src-inet-linklayer-ieee80211-mac-AckPolicy.html" xlink:title="Enum AckPolicy" target="_parent">
<polygon fill="#d0ffd0" stroke="black" points="158,-19 94,-19 94,0 158,0 158,-19"/>
<text text-anchor="middle" x="126" y="-7" font-family="Helvetica,sans-Serif" font-size="10.00">AckPolicy</text>
</a>
</g>
</g>
<!-- Ieee80211DataHeader&#45;&gt;AckPolicy -->
<g id="edge2" class="edge">
<title>Ieee80211DataHeader&#45;&gt;AckPolicy</title>
<path fill="none" stroke="black" d="M89.27,-54.75C95.54,-47.18 104.79,-36.05 112.43,-26.84"/>
<polygon fill="black" stroke="black" points="115.17,-29.02 118.87,-19.09 109.79,-24.55 115.17,-29.02"/>
</g>
</g>
</svg>
