<?xml version="1.0" encoding="UTF-8" standalone="no"?>
<!DOCTYPE svg PUBLIC "-//W3C//DTD SVG 1.1//EN"
 "http://www.w3.org/Graphics/SVG/1.1/DTD/svg11.dtd">
<!-- Generated by graphviz version 2.43.0 (0)
 -->
<!-- Title: opp Pages: 1 -->
<svg width="929pt" height="82pt"
 viewBox="0.00 0.00 928.50 82.00" xmlns="http://www.w3.org/2000/svg" xmlns:xlink="http://www.w3.org/1999/xlink">
<g id="graph0" class="graph" transform="scale(1 1) rotate(0) translate(4 78)">
<title>opp</title>
<polygon fill="transparent" stroke="transparent" points="-4,4 -4,-78 924.5,-78 924.5,4 -4,4"/>
<!-- Ospfv2Packet -->
<g id="node1" class="node">
<title>Ospfv2Packet</title>
<g id="a_node1"><a xlink:href="src-inet-routing-ospfv2-Ospfv2Packet.html" xlink:title="Class Ospfv2Packet" target="_parent">
<polygon fill="#fff700" stroke="black" points="482,-74 399,-74 399,-55 482,-55 482,-74"/>
<text text-anchor="middle" x="440.5" y="-62" font-family="Helvetica,sans-Serif" font-size="10.00">Ospfv2Packet</text>
</a>
</g>
</g>
<!-- Ospfv2DatabaseDescriptionPacket -->
<g id="node2" class="node">
<title>Ospfv2DatabaseDescriptionPacket</title>
<g id="a_node2"><a xlink:href="src-inet-routing-ospfv2-Ospfv2DatabaseDescriptionPacket.html" xlink:title="Class Ospfv2DatabaseDescriptionPacket" target="_parent">
<polygon fill="#fffcaf" stroke="black" points="185,-19 0,-19 0,0 185,0 185,-19"/>
<text text-anchor="middle" x="92.5" y="-7" font-family="Helvetica,sans-Serif" font-size="10.00">Ospfv2DatabaseDescriptionPacket</text>
</a>
</g>
</g>
<!-- Ospfv2Packet&#45;&gt;Ospfv2DatabaseDescriptionPacket -->
<g id="edge1" class="edge">
<title>Ospfv2Packet&#45;&gt;Ospfv2DatabaseDescriptionPacket</title>
<path fill="none" stroke="black" d="M398.87,-57.16C336.45,-47.65 218.48,-29.69 148.55,-19.04"/>
</g>
<!-- Ospfv2HelloPacket -->
<g id="node3" class="node">
<title>Ospfv2HelloPacket</title>
<g id="a_node3"><a xlink:href="src-inet-routing-ospfv2-Ospfv2HelloPacket.html" xlink:title="Class Ospfv2HelloPacket" target="_parent">
<polygon fill="#fffcaf" stroke="black" points="312,-19 203,-19 203,0 312,0 312,-19"/>
<text text-anchor="middle" x="257.5" y="-7" font-family="Helvetica,sans-Serif" font-size="10.00">Ospfv2HelloPacket</text>
</a>
</g>
</g>
<!-- Ospfv2Packet&#45;&gt;Ospfv2HelloPacket -->
<g id="edge2" class="edge">
<title>Ospfv2Packet&#45;&gt;Ospfv2HelloPacket</title>
<path fill="none" stroke="black" d="M411.1,-54.98C377.05,-45.12 321.28,-28.97 287.13,-19.08"/>
</g>
<!-- Ospfv2LinkStateAcknowledgementPacket -->
<g id="node4" class="node">
<title>Ospfv2LinkStateAcknowledgementPacket</title>
<g id="a_node4"><a xlink:href="src-inet-routing-ospfv2-Ospfv2LinkStateAcknowledgementPacket.html" xlink:title="Class Ospfv2LinkStateAcknowledgementPacket" target="_parent">
<polygon fill="#fffcaf" stroke="black" points="550.5,-19 330.5,-19 330.5,0 550.5,0 550.5,-19"/>
<text text-anchor="middle" x="440.5" y="-7" font-family="Helvetica,sans-Serif" font-size="10.00">Ospfv2LinkStateAcknowledgementPacket</text>
</a>
</g>
</g>
<!-- Ospfv2Packet&#45;&gt;Ospfv2LinkStateAcknowledgementPacket -->
<g id="edge3" class="edge">
<title>Ospfv2Packet&#45;&gt;Ospfv2LinkStateAcknowledgementPacket</title>
<path fill="none" stroke="black" d="M440.5,-54.75C440.5,-44.87 440.5,-28.9 440.5,-19.09"/>
</g>
<!-- Ospfv2LinkStateRequestPacket -->
<g id="node5" class="node">
<title>Ospfv2LinkStateRequestPacket</title>
<g id="a_node5"><a xlink:href="src-inet-routing-ospfv2-Ospfv2LinkStateRequestPacket.html" xlink:title="Class Ospfv2LinkStateRequestPacket" target="_parent">
<polygon fill="#fffcaf" stroke="black" points="738,-19 569,-19 569,0 738,0 738,-19"/>
<text text-anchor="middle" x="653.5" y="-7" font-family="Helvetica,sans-Serif" font-size="10.00">Ospfv2LinkStateRequestPacket</text>
</a>
</g>
</g>
<!-- Ospfv2Packet&#45;&gt;Ospfv2LinkStateRequestPacket -->
<g id="edge4" class="edge">
<title>Ospfv2Packet&#45;&gt;Ospfv2LinkStateRequestPacket</title>
<path fill="none" stroke="black" d="M474.72,-54.98C514.35,-45.12 579.27,-28.97 619.01,-19.08"/>
</g>
<!-- Ospfv2LinkStateUpdatePacket -->
<g id="node6" class="node">
<title>Ospfv2LinkStateUpdatePacket</title>
<g id="a_node6"><a xlink:href="src-inet-routing-ospfv2-Ospfv2LinkStateUpdatePacket.html" xlink:title="Class Ospfv2LinkStateUpdatePacket" target="_parent">
<polygon fill="#fffcaf" stroke="black" points="920.5,-19 756.5,-19 756.5,0 920.5,0 920.5,-19"/>
<text text-anchor="middle" x="838.5" y="-7" font-family="Helvetica,sans-Serif" font-size="10.00">Ospfv2LinkStateUpdatePacket</text>
</a>
</g>
</g>
<!-- Ospfv2Packet&#45;&gt;Ospfv2LinkStateUpdatePacket -->
<g id="edge5" class="edge">
<title>Ospfv2Packet&#45;&gt;Ospfv2LinkStateUpdatePacket</title>
<path fill="none" stroke="black" d="M482.34,-57.93C551.99,-48.65 692.17,-29.99 774.37,-19.04"/>
</g>
</g>
</svg>
