<?xml version="1.0" encoding="UTF-8" standalone="no"?>
<!DOCTYPE svg PUBLIC "-//W3C//DTD SVG 1.1//EN"
 "http://www.w3.org/Graphics/SVG/1.1/DTD/svg11.dtd">
<!-- Generated by graphviz version 2.43.0 (0)
 -->
<!-- Title: opp Pages: 1 -->
<svg width="932pt" height="137pt"
 viewBox="0.00 0.00 931.50 137.00" xmlns="http://www.w3.org/2000/svg" xmlns:xlink="http://www.w3.org/1999/xlink">
<g id="graph0" class="graph" transform="scale(1 1) rotate(0) translate(4 133)">
<title>opp</title>
<polygon fill="transparent" stroke="transparent" points="-4,4 -4,-133 927.5,-133 927.5,4 -4,4"/>
<!-- Ieee80211PhyHeader -->
<g id="node1" class="node">
<title>Ieee80211PhyHeader</title>
<g id="a_node1"><a xlink:href="src-inet-physicallayer-wireless-ieee80211-packetlevel-Ieee80211PhyHeader.html" xlink:title="Class Ieee80211PhyHeader" target="_parent">
<polygon fill="#fff700" stroke="black" points="524.5,-74 403.5,-74 403.5,-55 524.5,-55 524.5,-74"/>
<text text-anchor="middle" x="464" y="-62" font-family="Helvetica,sans-Serif" font-size="10.00">Ieee80211PhyHeader</text>
</a>
</g>
</g>
<!-- Ieee80211DsssPhyHeader -->
<g id="node3" class="node">
<title>Ieee80211DsssPhyHeader</title>
<g id="a_node3"><a xlink:href="src-inet-physicallayer-wireless-ieee80211-packetlevel-Ieee80211DsssPhyHeader.html" xlink:title="Class Ieee80211DsssPhyHeader" target="_parent">
<polygon fill="#fffcaf" stroke="black" points="144,-19 0,-19 0,0 144,0 144,-19"/>
<text text-anchor="middle" x="72" y="-7" font-family="Helvetica,sans-Serif" font-size="10.00">Ieee80211DsssPhyHeader</text>
</a>
</g>
</g>
<!-- Ieee80211PhyHeader&#45;&gt;Ieee80211DsssPhyHeader -->
<g id="edge2" class="edge">
<title>Ieee80211PhyHeader&#45;&gt;Ieee80211DsssPhyHeader</title>
<path fill="none" stroke="black" d="M403.18,-55.28C330.28,-45.42 208.73,-28.99 134.91,-19.01"/>
</g>
<!-- Ieee80211FhssPhyHeader -->
<g id="node4" class="node">
<title>Ieee80211FhssPhyHeader</title>
<g id="a_node4"><a xlink:href="src-inet-physicallayer-wireless-ieee80211-packetlevel-Ieee80211FhssPhyHeader.html" xlink:title="Class Ieee80211FhssPhyHeader" target="_parent">
<polygon fill="#fffcaf" stroke="black" points="305.5,-19 162.5,-19 162.5,0 305.5,0 305.5,-19"/>
<text text-anchor="middle" x="234" y="-7" font-family="Helvetica,sans-Serif" font-size="10.00">Ieee80211FhssPhyHeader</text>
</a>
</g>
</g>
<!-- Ieee80211PhyHeader&#45;&gt;Ieee80211FhssPhyHeader -->
<g id="edge3" class="edge">
<title>Ieee80211PhyHeader&#45;&gt;Ieee80211FhssPhyHeader</title>
<path fill="none" stroke="black" d="M427.05,-54.98C384.25,-45.12 314.16,-28.97 271.24,-19.08"/>
</g>
<!-- Ieee80211HtPhyHeader -->
<g id="node5" class="node">
<title>Ieee80211HtPhyHeader</title>
<g id="a_node5"><a xlink:href="src-inet-physicallayer-wireless-ieee80211-packetlevel-Ieee80211HtPhyHeader.html" xlink:title="Class Ieee80211HtPhyHeader" target="_parent">
<polygon fill="#fffcaf" stroke="black" points="456,-19 324,-19 324,0 456,0 456,-19"/>
<text text-anchor="middle" x="390" y="-7" font-family="Helvetica,sans-Serif" font-size="10.00">Ieee80211HtPhyHeader</text>
</a>
</g>
</g>
<!-- Ieee80211PhyHeader&#45;&gt;Ieee80211HtPhyHeader -->
<g id="edge4" class="edge">
<title>Ieee80211PhyHeader&#45;&gt;Ieee80211HtPhyHeader</title>
<path fill="none" stroke="black" d="M452.11,-54.98C438.38,-45.15 415.92,-29.07 402.11,-19.17"/>
</g>
<!-- Ieee80211IrPhyHeader -->
<g id="node6" class="node">
<title>Ieee80211IrPhyHeader</title>
<g id="a_node6"><a xlink:href="src-inet-physicallayer-wireless-ieee80211-packetlevel-Ieee80211IrPhyHeader.html" xlink:title="Class Ieee80211IrPhyHeader" target="_parent">
<polygon fill="#fffcaf" stroke="black" points="602,-19 474,-19 474,0 602,0 602,-19"/>
<text text-anchor="middle" x="538" y="-7" font-family="Helvetica,sans-Serif" font-size="10.00">Ieee80211IrPhyHeader</text>
</a>
</g>
</g>
<!-- Ieee80211PhyHeader&#45;&gt;Ieee80211IrPhyHeader -->
<g id="edge5" class="edge">
<title>Ieee80211PhyHeader&#45;&gt;Ieee80211IrPhyHeader</title>
<path fill="none" stroke="black" d="M475.89,-54.98C489.62,-45.15 512.08,-29.07 525.89,-19.17"/>
</g>
<!-- Ieee80211OfdmPhyHeader -->
<g id="node7" class="node">
<title>Ieee80211OfdmPhyHeader</title>
<g id="a_node7"><a xlink:href="src-inet-physicallayer-wireless-ieee80211-packetlevel-Ieee80211OfdmPhyHeader.html" xlink:title="Class Ieee80211OfdmPhyHeader" target="_parent">
<polygon fill="#fffcaf" stroke="black" points="768,-19 620,-19 620,0 768,0 768,-19"/>
<text text-anchor="middle" x="694" y="-7" font-family="Helvetica,sans-Serif" font-size="10.00">Ieee80211OfdmPhyHeader</text>
</a>
</g>
</g>
<!-- Ieee80211PhyHeader&#45;&gt;Ieee80211OfdmPhyHeader -->
<g id="edge6" class="edge">
<title>Ieee80211PhyHeader&#45;&gt;Ieee80211OfdmPhyHeader</title>
<path fill="none" stroke="black" d="M500.95,-54.98C543.75,-45.12 613.84,-28.97 656.76,-19.08"/>
</g>
<!-- Ieee80211VhtPhyHeader -->
<g id="node8" class="node">
<title>Ieee80211VhtPhyHeader</title>
<g id="a_node8"><a xlink:href="src-inet-physicallayer-wireless-ieee80211-packetlevel-Ieee80211VhtPhyHeader.html" xlink:title="Class Ieee80211VhtPhyHeader" target="_parent">
<polygon fill="#fffcaf" stroke="black" points="923.5,-19 786.5,-19 786.5,0 923.5,0 923.5,-19"/>
<text text-anchor="middle" x="855" y="-7" font-family="Helvetica,sans-Serif" font-size="10.00">Ieee80211VhtPhyHeader</text>
</a>
</g>
</g>
<!-- Ieee80211PhyHeader&#45;&gt;Ieee80211VhtPhyHeader -->
<g id="edge7" class="edge">
<title>Ieee80211PhyHeader&#45;&gt;Ieee80211VhtPhyHeader</title>
<path fill="none" stroke="black" d="M524.66,-55.28C597.38,-45.42 718.62,-28.99 792.25,-19.01"/>
</g>
<!-- FieldsChunk -->
<g id="node2" class="node">
<title>FieldsChunk</title>
<g id="a_node2"><a xlink:href="src-inet-common-packet-chunk-FieldsChunk.html" xlink:title="Class FieldsChunk" target="_parent">
<polygon fill="#fffcaf" stroke="black" points="501.5,-129 426.5,-129 426.5,-110 501.5,-110 501.5,-129"/>
<text text-anchor="middle" x="464" y="-117" font-family="Helvetica,sans-Serif" font-size="10.00">FieldsChunk</text>
</a>
</g>
</g>
<!-- FieldsChunk&#45;&gt;Ieee80211PhyHeader -->
<g id="edge1" class="edge">
<title>FieldsChunk&#45;&gt;Ieee80211PhyHeader</title>
<path fill="none" stroke="black" d="M464,-109.75C464,-99.87 464,-83.9 464,-74.09"/>
</g>
</g>
</svg>
