<?xml version="1.0" encoding="UTF-8" standalone="no"?>
<!DOCTYPE svg PUBLIC "-//W3C//DTD SVG 1.1//EN"
 "http://www.w3.org/Graphics/SVG/1.1/DTD/svg11.dtd">
<!-- Generated by graphviz version 2.43.0 (0)
 -->
<!-- Title: opp Pages: 1 -->
<svg width="180pt" height="137pt"
 viewBox="0.00 0.00 180.00 137.00" xmlns="http://www.w3.org/2000/svg" xmlns:xlink="http://www.w3.org/1999/xlink">
<g id="graph0" class="graph" transform="scale(1 1) rotate(0) translate(4 133)">
<title>opp</title>
<polygon fill="transparent" stroke="transparent" points="-4,4 -4,-133 176,-133 176,4 -4,4"/>
<!-- InterfaceTagBase -->
<g id="node1" class="node">
<title>InterfaceTagBase</title>
<g id="a_node1"><a xlink:href="src-inet-linklayer-common-InterfaceTagBase.html" xlink:title="Class InterfaceTagBase" target="_parent">
<polygon fill="#fff700" stroke="black" points="135,-74 34,-74 34,-55 135,-55 135,-74"/>
<text text-anchor="middle" x="84.5" y="-62" font-family="Helvetica,sans-Serif" font-size="10.00">InterfaceTagBase</text>
</a>
</g>
</g>
<!-- InterfaceInd -->
<g id="node3" class="node">
<title>InterfaceInd</title>
<g id="a_node3"><a xlink:href="src-inet-linklayer-common-InterfaceInd.html" xlink:title="Class InterfaceInd" target="_parent">
<polygon fill="#fffcaf" stroke="black" points="75,-19 0,-19 0,0 75,0 75,-19"/>
<text text-anchor="middle" x="37.5" y="-7" font-family="Helvetica,sans-Serif" font-size="10.00">InterfaceInd</text>
</a>
</g>
</g>
<!-- InterfaceTagBase&#45;&gt;InterfaceInd -->
<g id="edge2" class="edge">
<title>InterfaceTagBase&#45;&gt;InterfaceInd</title>
<path fill="none" stroke="black" d="M76.74,-54.75C67.98,-44.87 53.82,-28.9 45.12,-19.09"/>
</g>
<!-- InterfaceReq -->
<g id="node4" class="node">
<title>InterfaceReq</title>
<g id="a_node4"><a xlink:href="src-inet-linklayer-common-InterfaceReq.html" xlink:title="Class InterfaceReq" target="_parent">
<polygon fill="#fffcaf" stroke="black" points="172,-19 93,-19 93,0 172,0 172,-19"/>
<text text-anchor="middle" x="132.5" y="-7" font-family="Helvetica,sans-Serif" font-size="10.00">InterfaceReq</text>
</a>
</g>
</g>
<!-- InterfaceTagBase&#45;&gt;InterfaceReq -->
<g id="edge3" class="edge">
<title>InterfaceTagBase&#45;&gt;InterfaceReq</title>
<path fill="none" stroke="black" d="M92.43,-54.75C101.37,-44.87 115.84,-28.9 124.72,-19.09"/>
</g>
<!-- TagBase -->
<g id="node2" class="node">
<title>TagBase</title>
<g id="a_node2"><a xlink:href="src-inet-common-TagBase.html" xlink:title="Class TagBase" target="_parent">
<polygon fill="#fffcaf" stroke="black" points="113,-129 56,-129 56,-110 113,-110 113,-129"/>
<text text-anchor="middle" x="84.5" y="-117" font-family="Helvetica,sans-Serif" font-size="10.00">TagBase</text>
</a>
</g>
</g>
<!-- TagBase&#45;&gt;InterfaceTagBase -->
<g id="edge1" class="edge">
<title>TagBase&#45;&gt;InterfaceTagBase</title>
<path fill="none" stroke="black" d="M84.5,-109.75C84.5,-99.87 84.5,-83.9 84.5,-74.09"/>
</g>
</g>
</svg>
