<?xml version="1.0" encoding="UTF-8" standalone="no"?>
<!DOCTYPE svg PUBLIC "-//W3C//DTD SVG 1.1//EN"
 "http://www.w3.org/Graphics/SVG/1.1/DTD/svg11.dtd">
<!-- Generated by graphviz version 2.43.0 (0)
 -->
<!-- Title: opp Pages: 1 -->
<svg width="98pt" height="137pt"
 viewBox="0.00 0.00 98.00 137.00" xmlns="http://www.w3.org/2000/svg" xmlns:xlink="http://www.w3.org/1999/xlink">
<g id="graph0" class="graph" transform="scale(1 1) rotate(0) translate(4 133)">
<title>opp</title>
<polygon fill="transparent" stroke="transparent" points="-4,4 -4,-133 94,-133 94,4 -4,4"/>
<!-- EigrpMsgRoute -->
<g id="node1" class="node">
<title>EigrpMsgRoute</title>
<g id="a_node1"><a xlink:href="src-inet-routing-eigrp-messages-EigrpMsgRoute.html" xlink:title="Struct EigrpMsgRoute" target="_parent">
<polygon fill="#9090ff" stroke="black" points="90,-74 0,-74 0,-55 90,-55 90,-74"/>
<text text-anchor="middle" x="45" y="-62" font-family="Helvetica,sans-Serif" font-size="10.00">EigrpMsgRoute</text>
</a>
</g>
</g>
<!-- Ipv4Address -->
<g id="node2" class="node">
<title>Ipv4Address</title>
<g id="a_node2"><a xlink:href="src-inet-networklayer-contract-ipv4-Ipv4Address.html" xlink:title="Class Ipv4Address" target="_parent">
<polygon fill="#fffcaf" stroke="black" points="83.5,-19 6.5,-19 6.5,0 83.5,0 83.5,-19"/>
<text text-anchor="middle" x="45" y="-7" font-family="Helvetica,sans-Serif" font-size="10.00">Ipv4Address</text>
</a>
</g>
</g>
<!-- EigrpMsgRoute&#45;&gt;Ipv4Address -->
<g id="edge1" class="edge">
<title>EigrpMsgRoute&#45;&gt;Ipv4Address</title>
<path fill="none" stroke="black" d="M45,-54.75C45,-47.8 45,-37.85 45,-29.13"/>
<polygon fill="black" stroke="black" points="48.5,-29.09 45,-19.09 41.5,-29.09 48.5,-29.09"/>
</g>
<!-- EigrpMsgReq -->
<g id="node3" class="node">
<title>EigrpMsgReq</title>
<g id="a_node3"><a xlink:href="src-inet-routing-eigrp-messages-EigrpMsgReq.html" xlink:title="Message EigrpMsgReq" target="_parent">
<polygon fill="#fffcaf" stroke="black" points="85,-129 5,-129 5,-110 85,-110 85,-129"/>
<text text-anchor="middle" x="45" y="-117" font-family="Helvetica,sans-Serif" font-size="10.00">EigrpMsgReq</text>
</a>
</g>
</g>
<!-- EigrpMsgReq&#45;&gt;EigrpMsgRoute -->
<g id="edge2" class="edge">
<title>EigrpMsgReq&#45;&gt;EigrpMsgRoute</title>
<path fill="none" stroke="black" d="M45,-109.75C45,-102.8 45,-92.85 45,-84.13"/>
<polygon fill="black" stroke="black" points="48.5,-84.09 45,-74.09 41.5,-84.09 48.5,-84.09"/>
</g>
</g>
</svg>
