<?xml version="1.0" encoding="UTF-8" standalone="no"?>
<!DOCTYPE svg PUBLIC "-//W3C//DTD SVG 1.1//EN"
 "http://www.w3.org/Graphics/SVG/1.1/DTD/svg11.dtd">
<!-- Generated by graphviz version 2.43.0 (0)
 -->
<!-- Title: opp Pages: 1 -->
<svg width="194pt" height="137pt"
 viewBox="0.00 0.00 194.00 137.00" xmlns="http://www.w3.org/2000/svg" xmlns:xlink="http://www.w3.org/1999/xlink">
<g id="graph0" class="graph" transform="scale(1 1) rotate(0) translate(4 133)">
<title>opp</title>
<polygon fill="transparent" stroke="transparent" points="-4,4 -4,-133 190,-133 190,4 -4,4"/>
<!-- L3AddressTagBase -->
<g id="node1" class="node">
<title>L3AddressTagBase</title>
<g id="a_node1"><a xlink:href="src-inet-networklayer-common-L3AddressTagBase.html" xlink:title="Class L3AddressTagBase" target="_parent">
<polygon fill="#fff700" stroke="black" points="145.5,-74 38.5,-74 38.5,-55 145.5,-55 145.5,-74"/>
<text text-anchor="middle" x="92" y="-62" font-family="Helvetica,sans-Serif" font-size="10.00">L3AddressTagBase</text>
</a>
</g>
</g>
<!-- L3AddressInd -->
<g id="node3" class="node">
<title>L3AddressInd</title>
<g id="a_node3"><a xlink:href="src-inet-networklayer-common-L3AddressInd.html" xlink:title="Class L3AddressInd" target="_parent">
<polygon fill="#fffcaf" stroke="black" points="82,-19 0,-19 0,0 82,0 82,-19"/>
<text text-anchor="middle" x="41" y="-7" font-family="Helvetica,sans-Serif" font-size="10.00">L3AddressInd</text>
</a>
</g>
</g>
<!-- L3AddressTagBase&#45;&gt;L3AddressInd -->
<g id="edge2" class="edge">
<title>L3AddressTagBase&#45;&gt;L3AddressInd</title>
<path fill="none" stroke="black" d="M83.58,-54.75C74.07,-44.87 58.71,-28.9 49.26,-19.09"/>
</g>
<!-- L3AddressReq -->
<g id="node4" class="node">
<title>L3AddressReq</title>
<g id="a_node4"><a xlink:href="src-inet-networklayer-common-L3AddressReq.html" xlink:title="Class L3AddressReq" target="_parent">
<polygon fill="#fffcaf" stroke="black" points="186,-19 100,-19 100,0 186,0 186,-19"/>
<text text-anchor="middle" x="143" y="-7" font-family="Helvetica,sans-Serif" font-size="10.00">L3AddressReq</text>
</a>
</g>
</g>
<!-- L3AddressTagBase&#45;&gt;L3AddressReq -->
<g id="edge3" class="edge">
<title>L3AddressTagBase&#45;&gt;L3AddressReq</title>
<path fill="none" stroke="black" d="M100.42,-54.75C109.93,-44.87 125.29,-28.9 134.74,-19.09"/>
</g>
<!-- TagBase -->
<g id="node2" class="node">
<title>TagBase</title>
<g id="a_node2"><a xlink:href="src-inet-common-TagBase.html" xlink:title="Class TagBase" target="_parent">
<polygon fill="#fffcaf" stroke="black" points="120.5,-129 63.5,-129 63.5,-110 120.5,-110 120.5,-129"/>
<text text-anchor="middle" x="92" y="-117" font-family="Helvetica,sans-Serif" font-size="10.00">TagBase</text>
</a>
</g>
</g>
<!-- TagBase&#45;&gt;L3AddressTagBase -->
<g id="edge1" class="edge">
<title>TagBase&#45;&gt;L3AddressTagBase</title>
<path fill="none" stroke="black" d="M92,-109.75C92,-99.87 92,-83.9 92,-74.09"/>
</g>
</g>
</svg>
