<?xml version="1.0" encoding="UTF-8" standalone="no"?>
<!DOCTYPE svg PUBLIC "-//W3C//DTD SVG 1.1//EN"
 "http://www.w3.org/Graphics/SVG/1.1/DTD/svg11.dtd">
<!-- Generated by graphviz version 2.43.0 (0)
 -->
<!-- Title: opp Pages: 1 -->
<svg width="1187pt" height="137pt"
 viewBox="0.00 0.00 1187.00 137.00" xmlns="http://www.w3.org/2000/svg" xmlns:xlink="http://www.w3.org/1999/xlink">
<g id="graph0" class="graph" transform="scale(1 1) rotate(0) translate(4 133)">
<title>opp</title>
<polygon fill="transparent" stroke="transparent" points="-4,4 -4,-133 1183,-133 1183,4 -4,4"/>
<!-- SctpCommandReq -->
<g id="node1" class="node">
<title>SctpCommandReq</title>
<g id="a_node1"><a xlink:href="src-inet-transportlayer-contract-sctp-SctpCommandReq.html" xlink:title="Class SctpCommandReq" target="_parent">
<polygon fill="#fff700" stroke="black" points="634,-74 527,-74 527,-55 634,-55 634,-74"/>
<text text-anchor="middle" x="580.5" y="-62" font-family="Helvetica,sans-Serif" font-size="10.00">SctpCommandReq</text>
</a>
</g>
</g>
<!-- SctpAvailableReq -->
<g id="node3" class="node">
<title>SctpAvailableReq</title>
<g id="a_node3"><a xlink:href="src-inet-transportlayer-contract-sctp-SctpAvailableReq.html" xlink:title="Class SctpAvailableReq" target="_parent">
<polygon fill="#fffcaf" stroke="black" points="101,-19 0,-19 0,0 101,0 101,-19"/>
<text text-anchor="middle" x="50.5" y="-7" font-family="Helvetica,sans-Serif" font-size="10.00">SctpAvailableReq</text>
</a>
</g>
</g>
<!-- SctpCommandReq&#45;&gt;SctpAvailableReq -->
<g id="edge2" class="edge">
<title>SctpCommandReq&#45;&gt;SctpAvailableReq</title>
<path fill="none" stroke="black" d="M526.84,-59.23C439.48,-52.1 261.08,-36.79 110.5,-19 107.47,-18.64 104.36,-18.26 101.22,-17.85"/>
</g>
<!-- SctpConnectReq -->
<g id="node4" class="node">
<title>SctpConnectReq</title>
<g id="a_node4"><a xlink:href="src-inet-transportlayer-contract-sctp-SctpConnectReq.html" xlink:title="Class SctpConnectReq" target="_parent">
<polygon fill="#fffcaf" stroke="black" points="215.5,-19 119.5,-19 119.5,0 215.5,0 215.5,-19"/>
<text text-anchor="middle" x="167.5" y="-7" font-family="Helvetica,sans-Serif" font-size="10.00">SctpConnectReq</text>
</a>
</g>
</g>
<!-- SctpCommandReq&#45;&gt;SctpConnectReq -->
<g id="edge3" class="edge">
<title>SctpCommandReq&#45;&gt;SctpConnectReq</title>
<path fill="none" stroke="black" d="M526.77,-57.19C457.03,-48.9 331.57,-33.67 224.5,-19 221.63,-18.61 218.67,-18.19 215.69,-17.77"/>
</g>
<!-- SctpInfoReq -->
<g id="node5" class="node">
<title>SctpInfoReq</title>
<g id="a_node5"><a xlink:href="src-inet-transportlayer-contract-sctp-SctpInfoReq.html" xlink:title="Class SctpInfoReq" target="_parent">
<polygon fill="#fffcaf" stroke="black" points="309,-19 234,-19 234,0 309,0 309,-19"/>
<text text-anchor="middle" x="271.5" y="-7" font-family="Helvetica,sans-Serif" font-size="10.00">SctpInfoReq</text>
</a>
</g>
</g>
<!-- SctpCommandReq&#45;&gt;SctpInfoReq -->
<g id="edge4" class="edge">
<title>SctpCommandReq&#45;&gt;SctpInfoReq</title>
<path fill="none" stroke="black" d="M529.26,-54.96C476.43,-46.12 391.67,-31.83 318.5,-19 315.48,-18.47 312.35,-17.92 309.2,-17.36"/>
</g>
<!-- SctpOpenReq -->
<g id="node6" class="node">
<title>SctpOpenReq</title>
<g id="a_node6"><a xlink:href="src-inet-transportlayer-contract-sctp-SctpOpenReq.html" xlink:title="Class SctpOpenReq" target="_parent">
<polygon fill="#fffcaf" stroke="black" points="409.5,-19 327.5,-19 327.5,0 409.5,0 409.5,-19"/>
<text text-anchor="middle" x="368.5" y="-7" font-family="Helvetica,sans-Serif" font-size="10.00">SctpOpenReq</text>
</a>
</g>
</g>
<!-- SctpCommandReq&#45;&gt;SctpOpenReq -->
<g id="edge5" class="edge">
<title>SctpCommandReq&#45;&gt;SctpOpenReq</title>
<path fill="none" stroke="black" d="M546.44,-54.98C506.99,-45.12 442.39,-28.97 402.83,-19.08"/>
</g>
<!-- SctpPathInfoReq -->
<g id="node7" class="node">
<title>SctpPathInfoReq</title>
<g id="a_node7"><a xlink:href="src-inet-transportlayer-contract-sctp-SctpPathInfoReq.html" xlink:title="Class SctpPathInfoReq" target="_parent">
<polygon fill="#fffcaf" stroke="black" points="525,-19 428,-19 428,0 525,0 525,-19"/>
<text text-anchor="middle" x="476.5" y="-7" font-family="Helvetica,sans-Serif" font-size="10.00">SctpPathInfoReq</text>
</a>
</g>
</g>
<!-- SctpCommandReq&#45;&gt;SctpPathInfoReq -->
<g id="edge6" class="edge">
<title>SctpCommandReq&#45;&gt;SctpPathInfoReq</title>
<path fill="none" stroke="black" d="M563.79,-54.98C544.5,-45.15 512.93,-29.07 493.51,-19.17"/>
</g>
<!-- SctpRcvReq -->
<g id="node8" class="node">
<title>SctpRcvReq</title>
<g id="a_node8"><a xlink:href="src-inet-transportlayer-contract-sctp-SctpRcvReq.html" xlink:title="Class SctpRcvReq" target="_parent">
<polygon fill="#fffcaf" stroke="black" points="617.5,-19 543.5,-19 543.5,0 617.5,0 617.5,-19"/>
<text text-anchor="middle" x="580.5" y="-7" font-family="Helvetica,sans-Serif" font-size="10.00">SctpRcvReq</text>
</a>
</g>
</g>
<!-- SctpCommandReq&#45;&gt;SctpRcvReq -->
<g id="edge7" class="edge">
<title>SctpCommandReq&#45;&gt;SctpRcvReq</title>
<path fill="none" stroke="black" d="M580.5,-54.75C580.5,-44.87 580.5,-28.9 580.5,-19.09"/>
</g>
<!-- SctpResetReq -->
<g id="node9" class="node">
<title>SctpResetReq</title>
<g id="a_node9"><a xlink:href="src-inet-transportlayer-contract-sctp-SctpResetReq.html" xlink:title="Class SctpResetReq" target="_parent">
<polygon fill="#fffcaf" stroke="black" points="719.5,-19 635.5,-19 635.5,0 719.5,0 719.5,-19"/>
<text text-anchor="middle" x="677.5" y="-7" font-family="Helvetica,sans-Serif" font-size="10.00">SctpResetReq</text>
</a>
</g>
</g>
<!-- SctpCommandReq&#45;&gt;SctpResetReq -->
<g id="edge8" class="edge">
<title>SctpCommandReq&#45;&gt;SctpResetReq</title>
<path fill="none" stroke="black" d="M596.08,-54.98C614.08,-45.15 643.52,-29.07 661.63,-19.17"/>
</g>
<!-- SctpRtoReq -->
<g id="node10" class="node">
<title>SctpRtoReq</title>
<g id="a_node10"><a xlink:href="src-inet-transportlayer-contract-sctp-SctpRtoReq.html" xlink:title="Class SctpRtoReq" target="_parent">
<polygon fill="#fffcaf" stroke="black" points="811,-19 738,-19 738,0 811,0 811,-19"/>
<text text-anchor="middle" x="774.5" y="-7" font-family="Helvetica,sans-Serif" font-size="10.00">SctpRtoReq</text>
</a>
</g>
</g>
<!-- SctpCommandReq&#45;&gt;SctpRtoReq -->
<g id="edge9" class="edge">
<title>SctpCommandReq&#45;&gt;SctpRtoReq</title>
<path fill="none" stroke="black" d="M611.67,-54.98C647.76,-45.12 706.89,-28.97 743.09,-19.08"/>
</g>
<!-- SctpSendQueueAbatedReq -->
<g id="node11" class="node">
<title>SctpSendQueueAbatedReq</title>
<g id="a_node11"><a xlink:href="src-inet-transportlayer-contract-sctp-SctpSendQueueAbatedReq.html" xlink:title="Class SctpSendQueueAbatedReq" target="_parent">
<polygon fill="#fffcaf" stroke="black" points="975.5,-19 829.5,-19 829.5,0 975.5,0 975.5,-19"/>
<text text-anchor="middle" x="902.5" y="-7" font-family="Helvetica,sans-Serif" font-size="10.00">SctpSendQueueAbatedReq</text>
</a>
</g>
</g>
<!-- SctpCommandReq&#45;&gt;SctpSendQueueAbatedReq -->
<g id="edge10" class="edge">
<title>SctpCommandReq&#45;&gt;SctpSendQueueAbatedReq</title>
<path fill="none" stroke="black" d="M632.23,-54.98C692.23,-45.11 790.57,-28.92 850.63,-19.04"/>
</g>
<!-- SctpSendReq -->
<g id="node12" class="node">
<title>SctpSendReq</title>
<g id="a_node12"><a xlink:href="src-inet-transportlayer-contract-sctp-SctpSendReq.html" xlink:title="Class SctpSendReq" target="_parent">
<polygon fill="#fffcaf" stroke="black" points="1073.5,-19 993.5,-19 993.5,0 1073.5,0 1073.5,-19"/>
<text text-anchor="middle" x="1033.5" y="-7" font-family="Helvetica,sans-Serif" font-size="10.00">SctpSendReq</text>
</a>
</g>
</g>
<!-- SctpCommandReq&#45;&gt;SctpSendReq -->
<g id="edge11" class="edge">
<title>SctpCommandReq&#45;&gt;SctpSendReq</title>
<path fill="none" stroke="black" d="M634.22,-58.65C711.75,-51.41 859.44,-36.72 984.5,-19 987.41,-18.59 990.41,-18.14 993.42,-17.66"/>
</g>
<!-- SctpStatusReq -->
<g id="node13" class="node">
<title>SctpStatusReq</title>
<g id="a_node13"><a xlink:href="src-inet-transportlayer-contract-sctp-SctpStatusReq.html" xlink:title="Class SctpStatusReq" target="_parent">
<polygon fill="#fffcaf" stroke="black" points="1179,-19 1092,-19 1092,0 1179,0 1179,-19"/>
<text text-anchor="middle" x="1135.5" y="-7" font-family="Helvetica,sans-Serif" font-size="10.00">SctpStatusReq</text>
</a>
</g>
</g>
<!-- SctpCommandReq&#45;&gt;SctpStatusReq -->
<g id="edge12" class="edge">
<title>SctpCommandReq&#45;&gt;SctpStatusReq</title>
<path fill="none" stroke="black" d="M634.12,-60C726.08,-53.71 919.7,-39.24 1082.5,-19 1085.55,-18.62 1088.7,-18.2 1091.86,-17.75"/>
</g>
<!-- TagBase -->
<g id="node2" class="node">
<title>TagBase</title>
<g id="a_node2"><a xlink:href="src-inet-common-TagBase.html" xlink:title="Class TagBase" target="_parent">
<polygon fill="#fffcaf" stroke="black" points="609,-129 552,-129 552,-110 609,-110 609,-129"/>
<text text-anchor="middle" x="580.5" y="-117" font-family="Helvetica,sans-Serif" font-size="10.00">TagBase</text>
</a>
</g>
</g>
<!-- TagBase&#45;&gt;SctpCommandReq -->
<g id="edge1" class="edge">
<title>TagBase&#45;&gt;SctpCommandReq</title>
<path fill="none" stroke="black" d="M580.5,-109.75C580.5,-99.87 580.5,-83.9 580.5,-74.09"/>
</g>
</g>
</svg>
