<?xml version="1.0" encoding="UTF-8" standalone="no"?>
<!DOCTYPE svg PUBLIC "-//W3C//DTD SVG 1.1//EN"
 "http://www.w3.org/Graphics/SVG/1.1/DTD/svg11.dtd">
<!-- Generated by graphviz version 2.43.0 (0)
 -->
<!-- Title: opp Pages: 1 -->
<svg width="157pt" height="137pt"
 viewBox="0.00 0.00 157.00 137.00" xmlns="http://www.w3.org/2000/svg" xmlns:xlink="http://www.w3.org/1999/xlink">
<g id="graph0" class="graph" transform="scale(1 1) rotate(0) translate(4 133)">
<title>opp</title>
<polygon fill="transparent" stroke="transparent" points="-4,4 -4,-133 153,-133 153,4 -4,4"/>
<!-- NarrowbandReceptionBase -->
<g id="node1" class="node">
<title>NarrowbandReceptionBase</title>
<g id="a_node1"><a xlink:href="src-inet-physicallayer-wireless-common-base-packetlevel-NarrowbandReceptionBase.html" xlink:title="Class NarrowbandReceptionBase" target="_parent">
<polygon fill="#fff700" stroke="black" points="149,-74 0,-74 0,-55 149,-55 149,-74"/>
<text text-anchor="middle" x="74.5" y="-62" font-family="Helvetica,sans-Serif" font-size="10.00">NarrowbandReceptionBase</text>
</a>
</g>
</g>
<!-- FlatReceptionBase -->
<g id="node3" class="node">
<title>FlatReceptionBase</title>
<g id="a_node3"><a xlink:href="src-inet-physicallayer-wireless-common-base-packetlevel-FlatReceptionBase.html" xlink:title="Class FlatReceptionBase" target="_parent">
<polygon fill="#fffcaf" stroke="black" points="128.5,-19 20.5,-19 20.5,0 128.5,0 128.5,-19"/>
<text text-anchor="middle" x="74.5" y="-7" font-family="Helvetica,sans-Serif" font-size="10.00">FlatReceptionBase</text>
</a>
</g>
</g>
<!-- NarrowbandReceptionBase&#45;&gt;FlatReceptionBase -->
<g id="edge2" class="edge">
<title>NarrowbandReceptionBase&#45;&gt;FlatReceptionBase</title>
<path fill="none" stroke="black" d="M74.5,-54.75C74.5,-44.87 74.5,-28.9 74.5,-19.09"/>
</g>
<!-- ReceptionBase -->
<g id="node2" class="node">
<title>ReceptionBase</title>
<g id="a_node2"><a xlink:href="src-inet-physicallayer-wireless-common-base-packetlevel-ReceptionBase.html" xlink:title="Class ReceptionBase" target="_parent">
<polygon fill="#fffcaf" stroke="black" points="119,-129 30,-129 30,-110 119,-110 119,-129"/>
<text text-anchor="middle" x="74.5" y="-117" font-family="Helvetica,sans-Serif" font-size="10.00">ReceptionBase</text>
</a>
</g>
</g>
<!-- ReceptionBase&#45;&gt;NarrowbandReceptionBase -->
<g id="edge1" class="edge">
<title>ReceptionBase&#45;&gt;NarrowbandReceptionBase</title>
<path fill="none" stroke="black" d="M74.5,-109.75C74.5,-99.87 74.5,-83.9 74.5,-74.09"/>
</g>
</g>
</svg>
