<?xml version="1.0" encoding="UTF-8" standalone="no"?>
<!DOCTYPE svg PUBLIC "-//W3C//DTD SVG 1.1//EN"
 "http://www.w3.org/Graphics/SVG/1.1/DTD/svg11.dtd">
<!-- Generated by graphviz version 2.43.0 (0)
 -->
<!-- Title: opp Pages: 1 -->
<svg width="747pt" height="137pt"
 viewBox="0.00 0.00 746.50 137.00" xmlns="http://www.w3.org/2000/svg" xmlns:xlink="http://www.w3.org/1999/xlink">
<g id="graph0" class="graph" transform="scale(1 1) rotate(0) translate(4 133)">
<title>opp</title>
<polygon fill="transparent" stroke="transparent" points="-4,4 -4,-133 742.5,-133 742.5,4 -4,4"/>
<!-- TimeTagBase -->
<g id="node1" class="node">
<title>TimeTagBase</title>
<g id="a_node1"><a xlink:href="src-inet-common-TimeTagBase.html" xlink:title="Class TimeTagBase" target="_parent">
<polygon fill="#fff700" stroke="black" points="393,-74 312,-74 312,-55 393,-55 393,-74"/>
<text text-anchor="middle" x="352.5" y="-62" font-family="Helvetica,sans-Serif" font-size="10.00">TimeTagBase</text>
</a>
</g>
</g>
<!-- DelayingTimeTag -->
<g id="node3" class="node">
<title>DelayingTimeTag</title>
<g id="a_node3"><a xlink:href="src-inet-common-DelayingTimeTag.html" xlink:title="Class DelayingTimeTag" target="_parent">
<polygon fill="#fffcaf" stroke="black" points="101,-19 0,-19 0,0 101,0 101,-19"/>
<text text-anchor="middle" x="50.5" y="-7" font-family="Helvetica,sans-Serif" font-size="10.00">DelayingTimeTag</text>
</a>
</g>
</g>
<!-- TimeTagBase&#45;&gt;DelayingTimeTag -->
<g id="edge2" class="edge">
<title>TimeTagBase&#45;&gt;DelayingTimeTag</title>
<path fill="none" stroke="black" d="M311.77,-56.35C256.55,-46.66 158.06,-29.38 99.06,-19.02"/>
</g>
<!-- ElapsedTimeTag -->
<g id="node4" class="node">
<title>ElapsedTimeTag</title>
<g id="a_node4"><a xlink:href="src-inet-common-ElapsedTimeTag.html" xlink:title="Class ElapsedTimeTag" target="_parent">
<polygon fill="#fffcaf" stroke="black" points="214,-19 119,-19 119,0 214,0 214,-19"/>
<text text-anchor="middle" x="166.5" y="-7" font-family="Helvetica,sans-Serif" font-size="10.00">ElapsedTimeTag</text>
</a>
</g>
</g>
<!-- TimeTagBase&#45;&gt;ElapsedTimeTag -->
<g id="edge3" class="edge">
<title>TimeTagBase&#45;&gt;ElapsedTimeTag</title>
<path fill="none" stroke="black" d="M322.62,-54.98C288.01,-45.12 231.32,-28.97 196.62,-19.08"/>
</g>
<!-- ProcessingTimeTag -->
<g id="node5" class="node">
<title>ProcessingTimeTag</title>
<g id="a_node5"><a xlink:href="src-inet-common-ProcessingTimeTag.html" xlink:title="Class ProcessingTimeTag" target="_parent">
<polygon fill="#fffcaf" stroke="black" points="342.5,-19 232.5,-19 232.5,0 342.5,0 342.5,-19"/>
<text text-anchor="middle" x="287.5" y="-7" font-family="Helvetica,sans-Serif" font-size="10.00">ProcessingTimeTag</text>
</a>
</g>
</g>
<!-- TimeTagBase&#45;&gt;ProcessingTimeTag -->
<g id="edge4" class="edge">
<title>TimeTagBase&#45;&gt;ProcessingTimeTag</title>
<path fill="none" stroke="black" d="M342.06,-54.98C330,-45.15 310.27,-29.07 298.13,-19.17"/>
</g>
<!-- PropagationTimeTag -->
<g id="node6" class="node">
<title>PropagationTimeTag</title>
<g id="a_node6"><a xlink:href="src-inet-common-PropagationTimeTag.html" xlink:title="Class PropagationTimeTag" target="_parent">
<polygon fill="#fffcaf" stroke="black" points="476.5,-19 360.5,-19 360.5,0 476.5,0 476.5,-19"/>
<text text-anchor="middle" x="418.5" y="-7" font-family="Helvetica,sans-Serif" font-size="10.00">PropagationTimeTag</text>
</a>
</g>
</g>
<!-- TimeTagBase&#45;&gt;PropagationTimeTag -->
<g id="edge5" class="edge">
<title>TimeTagBase&#45;&gt;PropagationTimeTag</title>
<path fill="none" stroke="black" d="M363.1,-54.98C375.35,-45.15 395.38,-29.07 407.7,-19.17"/>
</g>
<!-- QueueingTimeTag -->
<g id="node7" class="node">
<title>QueueingTimeTag</title>
<g id="a_node7"><a xlink:href="src-inet-common-QueueingTimeTag.html" xlink:title="Class QueueingTimeTag" target="_parent">
<polygon fill="#fffcaf" stroke="black" points="598.5,-19 494.5,-19 494.5,0 598.5,0 598.5,-19"/>
<text text-anchor="middle" x="546.5" y="-7" font-family="Helvetica,sans-Serif" font-size="10.00">QueueingTimeTag</text>
</a>
</g>
</g>
<!-- TimeTagBase&#45;&gt;QueueingTimeTag -->
<g id="edge6" class="edge">
<title>TimeTagBase&#45;&gt;QueueingTimeTag</title>
<path fill="none" stroke="black" d="M383.67,-54.98C419.76,-45.12 478.89,-28.97 515.09,-19.08"/>
</g>
<!-- TransmissionTimeTag -->
<g id="node8" class="node">
<title>TransmissionTimeTag</title>
<g id="a_node8"><a xlink:href="src-inet-common-TransmissionTimeTag.html" xlink:title="Class TransmissionTimeTag" target="_parent">
<polygon fill="#fffcaf" stroke="black" points="738.5,-19 616.5,-19 616.5,0 738.5,0 738.5,-19"/>
<text text-anchor="middle" x="677.5" y="-7" font-family="Helvetica,sans-Serif" font-size="10.00">TransmissionTimeTag</text>
</a>
</g>
</g>
<!-- TimeTagBase&#45;&gt;TransmissionTimeTag -->
<g id="edge7" class="edge">
<title>TimeTagBase&#45;&gt;TransmissionTimeTag</title>
<path fill="none" stroke="black" d="M393,-56.89C451.71,-47.32 560.47,-29.58 625.18,-19.03"/>
</g>
<!-- TagBase -->
<g id="node2" class="node">
<title>TagBase</title>
<g id="a_node2"><a xlink:href="src-inet-common-TagBase.html" xlink:title="Class TagBase" target="_parent">
<polygon fill="#fffcaf" stroke="black" points="381,-129 324,-129 324,-110 381,-110 381,-129"/>
<text text-anchor="middle" x="352.5" y="-117" font-family="Helvetica,sans-Serif" font-size="10.00">TagBase</text>
</a>
</g>
</g>
<!-- TagBase&#45;&gt;TimeTagBase -->
<g id="edge1" class="edge">
<title>TagBase&#45;&gt;TimeTagBase</title>
<path fill="none" stroke="black" d="M352.5,-109.75C352.5,-99.87 352.5,-83.9 352.5,-74.09"/>
</g>
</g>
</svg>
