<?xml version="1.0" encoding="UTF-8" standalone="no"?>
<!DOCTYPE svg PUBLIC "-//W3C//DTD SVG 1.1//EN"
 "http://www.w3.org/Graphics/SVG/1.1/DTD/svg11.dtd">
<!-- Generated by graphviz version 2.43.0 (0)
 -->
<!-- Title: opp Pages: 1 -->
<svg width="202pt" height="137pt"
 viewBox="0.00 0.00 202.00 137.00" xmlns="http://www.w3.org/2000/svg" xmlns:xlink="http://www.w3.org/1999/xlink">
<g id="graph0" class="graph" transform="scale(1 1) rotate(0) translate(4 133)">
<title>opp</title>
<polygon fill="transparent" stroke="transparent" points="-4,4 -4,-133 198,-133 198,4 -4,4"/>
<!-- SignalBandTagBase -->
<g id="node1" class="node">
<title>SignalBandTagBase</title>
<g id="a_node1"><a xlink:href="src-inet-physicallayer-wireless-common-contract-packetlevel-SignalBandTagBase.html" xlink:title="Class SignalBandTagBase" target="_parent">
<polygon fill="#fff700" stroke="black" points="152,-74 40,-74 40,-55 152,-55 152,-74"/>
<text text-anchor="middle" x="96" y="-62" font-family="Helvetica,sans-Serif" font-size="10.00">SignalBandTagBase</text>
</a>
</g>
</g>
<!-- SignalBandInd -->
<g id="node3" class="node">
<title>SignalBandInd</title>
<g id="a_node3"><a xlink:href="src-inet-physicallayer-wireless-common-contract-packetlevel-SignalBandInd.html" xlink:title="Class SignalBandInd" target="_parent">
<polygon fill="#fffcaf" stroke="black" points="86,-19 0,-19 0,0 86,0 86,-19"/>
<text text-anchor="middle" x="43" y="-7" font-family="Helvetica,sans-Serif" font-size="10.00">SignalBandInd</text>
</a>
</g>
</g>
<!-- SignalBandTagBase&#45;&gt;SignalBandInd -->
<g id="edge2" class="edge">
<title>SignalBandTagBase&#45;&gt;SignalBandInd</title>
<path fill="none" stroke="black" d="M87.25,-54.75C77.37,-44.87 61.4,-28.9 51.59,-19.09"/>
</g>
<!-- SignalBandReq -->
<g id="node4" class="node">
<title>SignalBandReq</title>
<g id="a_node4"><a xlink:href="src-inet-physicallayer-wireless-common-contract-packetlevel-SignalBandReq.html" xlink:title="Class SignalBandReq" target="_parent">
<polygon fill="#fffcaf" stroke="black" points="194,-19 104,-19 104,0 194,0 194,-19"/>
<text text-anchor="middle" x="149" y="-7" font-family="Helvetica,sans-Serif" font-size="10.00">SignalBandReq</text>
</a>
</g>
</g>
<!-- SignalBandTagBase&#45;&gt;SignalBandReq -->
<g id="edge3" class="edge">
<title>SignalBandTagBase&#45;&gt;SignalBandReq</title>
<path fill="none" stroke="black" d="M104.75,-54.75C114.63,-44.87 130.6,-28.9 140.41,-19.09"/>
</g>
<!-- SignalTagBase -->
<g id="node2" class="node">
<title>SignalTagBase</title>
<g id="a_node2"><a xlink:href="src-inet-physicallayer-wireless-common-contract-packetlevel-SignalTagBase.html" xlink:title="Class SignalTagBase" target="_parent">
<polygon fill="#fffcaf" stroke="black" points="139.5,-129 52.5,-129 52.5,-110 139.5,-110 139.5,-129"/>
<text text-anchor="middle" x="96" y="-117" font-family="Helvetica,sans-Serif" font-size="10.00">SignalTagBase</text>
</a>
</g>
</g>
<!-- SignalTagBase&#45;&gt;SignalBandTagBase -->
<g id="edge1" class="edge">
<title>SignalTagBase&#45;&gt;SignalBandTagBase</title>
<path fill="none" stroke="black" d="M96,-109.75C96,-99.87 96,-83.9 96,-74.09"/>
</g>
</g>
</svg>
