<?xml version="1.0" encoding="UTF-8" standalone="no"?>
<!DOCTYPE svg PUBLIC "-//W3C//DTD SVG 1.1//EN"
 "http://www.w3.org/Graphics/SVG/1.1/DTD/svg11.dtd">
<!-- Generated by graphviz version 2.43.0 (0)
 -->
<!-- Title: opp Pages: 1 -->
<svg width="192pt" height="82pt"
 viewBox="0.00 0.00 192.00 82.00" xmlns="http://www.w3.org/2000/svg" xmlns:xlink="http://www.w3.org/1999/xlink">
<g id="graph0" class="graph" transform="scale(1 1) rotate(0) translate(4 78)">
<title>opp</title>
<polygon fill="transparent" stroke="transparent" points="-4,4 -4,-78 188,-78 188,4 -4,4"/>
<!-- Ospfv2HelloPacket -->
<g id="node1" class="node">
<title>Ospfv2HelloPacket</title>
<g id="a_node1"><a xlink:href="src-inet-routing-ospfv2-Ospfv2HelloPacket.html" xlink:title="Class Ospfv2HelloPacket" target="_parent">
<polygon fill="#fff700" stroke="black" points="149,-74 40,-74 40,-55 149,-55 149,-74"/>
<text text-anchor="middle" x="94.5" y="-62" font-family="Helvetica,sans-Serif" font-size="10.00">Ospfv2HelloPacket</text>
</a>
</g>
</g>
<!-- Ospfv2Options -->
<g id="node2" class="node">
<title>Ospfv2Options</title>
<g id="a_node2"><a xlink:href="src-inet-routing-ospfv2-Ospfv2Options.html" xlink:title="Struct Ospfv2Options" target="_parent">
<polygon fill="#d0d0ff" stroke="black" points="89,-19 0,-19 0,0 89,0 89,-19"/>
<text text-anchor="middle" x="44.5" y="-7" font-family="Helvetica,sans-Serif" font-size="10.00">Ospfv2Options</text>
</a>
</g>
</g>
<!-- Ospfv2HelloPacket&#45;&gt;Ospfv2Options -->
<g id="edge1" class="edge">
<title>Ospfv2HelloPacket&#45;&gt;Ospfv2Options</title>
<path fill="none" stroke="black" d="M86.24,-54.75C79.04,-47.11 68.39,-35.82 59.65,-26.56"/>
<polygon fill="black" stroke="black" points="62.01,-23.96 52.6,-19.09 56.92,-28.76 62.01,-23.96"/>
</g>
<!-- Ipv4Address -->
<g id="node3" class="node">
<title>Ipv4Address</title>
<g id="a_node3"><a xlink:href="src-inet-networklayer-contract-ipv4-Ipv4Address.html" xlink:title="Class Ipv4Address" target="_parent">
<polygon fill="#fffcaf" stroke="black" points="184,-19 107,-19 107,0 184,0 184,-19"/>
<text text-anchor="middle" x="145.5" y="-7" font-family="Helvetica,sans-Serif" font-size="10.00">Ipv4Address</text>
</a>
</g>
</g>
<!-- Ospfv2HelloPacket&#45;&gt;Ipv4Address -->
<g id="edge2" class="edge">
<title>Ospfv2HelloPacket&#45;&gt;Ipv4Address</title>
<path fill="none" stroke="black" d="M102.92,-54.75C110.27,-47.11 121.13,-35.82 130.04,-26.56"/>
<polygon fill="black" stroke="black" points="132.82,-28.72 137.24,-19.09 127.78,-23.87 132.82,-28.72"/>
</g>
</g>
</svg>
