<?xml version="1.0" encoding="UTF-8" standalone="no"?>
<!DOCTYPE svg PUBLIC "-//W3C//DTD SVG 1.1//EN"
 "http://www.w3.org/Graphics/SVG/1.1/DTD/svg11.dtd">
<!-- Generated by graphviz version 2.43.0 (0)
 -->
<!-- Title: opp Pages: 1 -->
<svg width="374pt" height="137pt"
 viewBox="0.00 0.00 373.50 137.00" xmlns="http://www.w3.org/2000/svg" xmlns:xlink="http://www.w3.org/1999/xlink">
<g id="graph0" class="graph" transform="scale(1 1) rotate(0) translate(4 133)">
<title>opp</title>
<polygon fill="transparent" stroke="transparent" points="-4,4 -4,-133 369.5,-133 369.5,4 -4,4"/>
<!-- RtcpPacket -->
<g id="node1" class="node">
<title>RtcpPacket</title>
<g id="a_node1"><a xlink:href="src-inet-transportlayer-rtp-RtcpPacket.html" xlink:title="Class RtcpPacket" target="_parent">
<polygon fill="#fff700" stroke="black" points="216,-74 145,-74 145,-55 216,-55 216,-74"/>
<text text-anchor="middle" x="180.5" y="-62" font-family="Helvetica,sans-Serif" font-size="10.00">RtcpPacket</text>
</a>
</g>
</g>
<!-- RtcpByePacket -->
<g id="node3" class="node">
<title>RtcpByePacket</title>
<g id="a_node3"><a xlink:href="src-inet-transportlayer-rtp-RtcpByePacket.html" xlink:title="Class RtcpByePacket" target="_parent">
<polygon fill="#fffcaf" stroke="black" points="89,-19 0,-19 0,0 89,0 89,-19"/>
<text text-anchor="middle" x="44.5" y="-7" font-family="Helvetica,sans-Serif" font-size="10.00">RtcpByePacket</text>
</a>
</g>
</g>
<!-- RtcpPacket&#45;&gt;RtcpByePacket -->
<g id="edge2" class="edge">
<title>RtcpPacket&#45;&gt;RtcpByePacket</title>
<path fill="none" stroke="black" d="M158.65,-54.98C133.42,-45.15 92.14,-29.07 66.75,-19.17"/>
</g>
<!-- RtcpReceiverReportPacket -->
<g id="node4" class="node">
<title>RtcpReceiverReportPacket</title>
<g id="a_node4"><a xlink:href="src-inet-transportlayer-rtp-RtcpReceiverReportPacket.html" xlink:title="Class RtcpReceiverReportPacket" target="_parent">
<polygon fill="#fffcaf" stroke="black" points="253.5,-19 107.5,-19 107.5,0 253.5,0 253.5,-19"/>
<text text-anchor="middle" x="180.5" y="-7" font-family="Helvetica,sans-Serif" font-size="10.00">RtcpReceiverReportPacket</text>
</a>
</g>
</g>
<!-- RtcpPacket&#45;&gt;RtcpReceiverReportPacket -->
<g id="edge3" class="edge">
<title>RtcpPacket&#45;&gt;RtcpReceiverReportPacket</title>
<path fill="none" stroke="black" d="M180.5,-54.75C180.5,-44.87 180.5,-28.9 180.5,-19.09"/>
</g>
<!-- RtcpSdesPacket -->
<g id="node5" class="node">
<title>RtcpSdesPacket</title>
<g id="a_node5"><a xlink:href="src-inet-transportlayer-rtp-RtcpSdesPacket.html" xlink:title="Class RtcpSdesPacket" target="_parent">
<polygon fill="#fffcaf" stroke="black" points="365.5,-19 271.5,-19 271.5,0 365.5,0 365.5,-19"/>
<text text-anchor="middle" x="318.5" y="-7" font-family="Helvetica,sans-Serif" font-size="10.00">RtcpSdesPacket</text>
</a>
</g>
</g>
<!-- RtcpPacket&#45;&gt;RtcpSdesPacket -->
<g id="edge4" class="edge">
<title>RtcpPacket&#45;&gt;RtcpSdesPacket</title>
<path fill="none" stroke="black" d="M202.67,-54.98C228.27,-45.15 270.15,-29.07 295.92,-19.17"/>
</g>
<!-- FieldsChunk -->
<g id="node2" class="node">
<title>FieldsChunk</title>
<g id="a_node2"><a xlink:href="src-inet-common-packet-chunk-FieldsChunk.html" xlink:title="Class FieldsChunk" target="_parent">
<polygon fill="#fffcaf" stroke="black" points="218,-129 143,-129 143,-110 218,-110 218,-129"/>
<text text-anchor="middle" x="180.5" y="-117" font-family="Helvetica,sans-Serif" font-size="10.00">FieldsChunk</text>
</a>
</g>
</g>
<!-- FieldsChunk&#45;&gt;RtcpPacket -->
<g id="edge1" class="edge">
<title>FieldsChunk&#45;&gt;RtcpPacket</title>
<path fill="none" stroke="black" d="M180.5,-109.75C180.5,-99.87 180.5,-83.9 180.5,-74.09"/>
</g>
</g>
</svg>
