<?xml version="1.0" encoding="UTF-8" standalone="no"?>
<!DOCTYPE svg PUBLIC "-//W3C//DTD SVG 1.1//EN"
 "http://www.w3.org/Graphics/SVG/1.1/DTD/svg11.dtd">
<!-- Generated by graphviz version 2.43.0 (0)
 -->
<!-- Title: opp Pages: 1 -->
<svg width="579pt" height="137pt"
 viewBox="0.00 0.00 579.00 137.00" xmlns="http://www.w3.org/2000/svg" xmlns:xlink="http://www.w3.org/1999/xlink">
<g id="graph0" class="graph" transform="scale(1 1) rotate(0) translate(4 133)">
<title>opp</title>
<polygon fill="transparent" stroke="transparent" points="-4,4 -4,-133 575,-133 575,4 -4,4"/>
<!-- PimPacket -->
<g id="node1" class="node">
<title>PimPacket</title>
<g id="a_node1"><a xlink:href="src-inet-routing-pim-PimPacket.html" xlink:title="Class PimPacket" target="_parent">
<polygon fill="#fff700" stroke="black" points="286,-74 218,-74 218,-55 286,-55 286,-74"/>
<text text-anchor="middle" x="252" y="-62" font-family="Helvetica,sans-Serif" font-size="10.00">PimPacket</text>
</a>
</g>
</g>
<!-- PimAssert -->
<g id="node3" class="node">
<title>PimAssert</title>
<g id="a_node3"><a xlink:href="src-inet-routing-pim-PimAssert.html" xlink:title="Class PimAssert" target="_parent">
<polygon fill="#fffcaf" stroke="black" points="66,-19 0,-19 0,0 66,0 66,-19"/>
<text text-anchor="middle" x="33" y="-7" font-family="Helvetica,sans-Serif" font-size="10.00">PimAssert</text>
</a>
</g>
</g>
<!-- PimPacket&#45;&gt;PimAssert -->
<g id="edge2" class="edge">
<title>PimPacket&#45;&gt;PimAssert</title>
<path fill="none" stroke="black" d="M217.78,-55.22C176.4,-45.2 107.21,-28.46 66.26,-18.55"/>
</g>
<!-- PimHello -->
<g id="node4" class="node">
<title>PimHello</title>
<g id="a_node4"><a xlink:href="src-inet-routing-pim-PimHello.html" xlink:title="Class PimHello" target="_parent">
<polygon fill="#fffcaf" stroke="black" points="145.5,-19 84.5,-19 84.5,0 145.5,0 145.5,-19"/>
<text text-anchor="middle" x="115" y="-7" font-family="Helvetica,sans-Serif" font-size="10.00">PimHello</text>
</a>
</g>
</g>
<!-- PimPacket&#45;&gt;PimHello -->
<g id="edge3" class="edge">
<title>PimPacket&#45;&gt;PimHello</title>
<path fill="none" stroke="black" d="M229.99,-54.98C204.57,-45.15 162.99,-29.07 137.41,-19.17"/>
</g>
<!-- PimJoinPrune -->
<g id="node5" class="node">
<title>PimJoinPrune</title>
<g id="a_node5"><a xlink:href="src-inet-routing-pim-PimJoinPrune.html" xlink:title="Class PimJoinPrune" target="_parent">
<polygon fill="#fffcaf" stroke="black" points="244.5,-19 163.5,-19 163.5,0 244.5,0 244.5,-19"/>
<text text-anchor="middle" x="204" y="-7" font-family="Helvetica,sans-Serif" font-size="10.00">PimJoinPrune</text>
</a>
</g>
</g>
<!-- PimPacket&#45;&gt;PimJoinPrune -->
<g id="edge4" class="edge">
<title>PimPacket&#45;&gt;PimJoinPrune</title>
<path fill="none" stroke="black" d="M244.07,-54.75C235.13,-44.87 220.66,-28.9 211.78,-19.09"/>
</g>
<!-- PimRegister -->
<g id="node6" class="node">
<title>PimRegister</title>
<g id="a_node6"><a xlink:href="src-inet-routing-pim-PimRegister.html" xlink:title="Class PimRegister" target="_parent">
<polygon fill="#fffcaf" stroke="black" points="339,-19 263,-19 263,0 339,0 339,-19"/>
<text text-anchor="middle" x="301" y="-7" font-family="Helvetica,sans-Serif" font-size="10.00">PimRegister</text>
</a>
</g>
</g>
<!-- PimPacket&#45;&gt;PimRegister -->
<g id="edge5" class="edge">
<title>PimPacket&#45;&gt;PimRegister</title>
<path fill="none" stroke="black" d="M260.09,-54.75C269.22,-44.87 283.99,-28.9 293.06,-19.09"/>
</g>
<!-- PimRegisterStop -->
<g id="node7" class="node">
<title>PimRegisterStop</title>
<g id="a_node7"><a xlink:href="src-inet-routing-pim-PimRegisterStop.html" xlink:title="Class PimRegisterStop" target="_parent">
<polygon fill="#fffcaf" stroke="black" points="455,-19 357,-19 357,0 455,0 455,-19"/>
<text text-anchor="middle" x="406" y="-7" font-family="Helvetica,sans-Serif" font-size="10.00">PimRegisterStop</text>
</a>
</g>
</g>
<!-- PimPacket&#45;&gt;PimRegisterStop -->
<g id="edge6" class="edge">
<title>PimPacket&#45;&gt;PimRegisterStop</title>
<path fill="none" stroke="black" d="M276.74,-54.98C305.4,-45.12 352.33,-28.97 381.06,-19.08"/>
</g>
<!-- PimStateRefresh -->
<g id="node8" class="node">
<title>PimStateRefresh</title>
<g id="a_node8"><a xlink:href="src-inet-routing-pim-PimStateRefresh.html" xlink:title="Class PimStateRefresh" target="_parent">
<polygon fill="#fffcaf" stroke="black" points="571,-19 473,-19 473,0 571,0 571,-19"/>
<text text-anchor="middle" x="522" y="-7" font-family="Helvetica,sans-Serif" font-size="10.00">PimStateRefresh</text>
</a>
</g>
</g>
<!-- PimPacket&#45;&gt;PimStateRefresh -->
<g id="edge7" class="edge">
<title>PimPacket&#45;&gt;PimStateRefresh</title>
<path fill="none" stroke="black" d="M286.2,-56.79C335.01,-47.21 424.68,-29.6 478.26,-19.09"/>
</g>
<!-- FieldsChunk -->
<g id="node2" class="node">
<title>FieldsChunk</title>
<g id="a_node2"><a xlink:href="src-inet-common-packet-chunk-FieldsChunk.html" xlink:title="Class FieldsChunk" target="_parent">
<polygon fill="#fffcaf" stroke="black" points="289.5,-129 214.5,-129 214.5,-110 289.5,-110 289.5,-129"/>
<text text-anchor="middle" x="252" y="-117" font-family="Helvetica,sans-Serif" font-size="10.00">FieldsChunk</text>
</a>
</g>
</g>
<!-- FieldsChunk&#45;&gt;PimPacket -->
<g id="edge1" class="edge">
<title>FieldsChunk&#45;&gt;PimPacket</title>
<path fill="none" stroke="black" d="M252,-109.75C252,-99.87 252,-83.9 252,-74.09"/>
</g>
</g>
</svg>
