<?xml version="1.0" encoding="UTF-8" standalone="no"?>
<!DOCTYPE svg PUBLIC "-//W3C//DTD SVG 1.1//EN"
 "http://www.w3.org/Graphics/SVG/1.1/DTD/svg11.dtd">
<!-- Generated by graphviz version 2.43.0 (0)
 -->
<!-- Title: opp Pages: 1 -->
<svg width="332pt" height="82pt"
 viewBox="0.00 0.00 332.00 82.00" xmlns="http://www.w3.org/2000/svg" xmlns:xlink="http://www.w3.org/1999/xlink">
<g id="graph0" class="graph" transform="scale(1 1) rotate(0) translate(4 78)">
<title>opp</title>
<polygon fill="transparent" stroke="transparent" points="-4,4 -4,-78 328,-78 328,4 -4,4"/>
<!-- WirelessSignal -->
<g id="node1" class="node">
<title>WirelessSignal</title>
<g id="a_node1"><a xlink:href="src-inet-physicallayer-wireless-common-signal-WirelessSignal.html" xlink:title="Packet WirelessSignal" target="_parent">
<polygon fill="#fff700" stroke="black" points="211.5,-74 122.5,-74 122.5,-55 211.5,-55 211.5,-74"/>
<text text-anchor="middle" x="167" y="-62" font-family="Helvetica,sans-Serif" font-size="10.00">WirelessSignal</text>
</a>
</g>
</g>
<!-- IListening -->
<g id="node2" class="node">
<title>IListening</title>
<g id="a_node2"><a xlink:href="src-inet-physicallayer-wireless-common-signal-IListening.html" xlink:title="Class IListening" target="_parent">
<polygon fill="#fffcaf" stroke="black" points="64,-19 0,-19 0,0 64,0 64,-19"/>
<text text-anchor="middle" x="32" y="-7" font-family="Helvetica,sans-Serif" font-size="10.00">IListening</text>
</a>
</g>
</g>
<!-- WirelessSignal&#45;&gt;IListening -->
<g id="edge1" class="edge">
<title>WirelessSignal&#45;&gt;IListening</title>
<path fill="none" stroke="black" d="M145.31,-54.98C123.2,-46.3 88.68,-32.75 63.55,-22.88"/>
<polygon fill="black" stroke="black" points="64.67,-19.57 54.08,-19.17 62.11,-26.08 64.67,-19.57"/>
</g>
<!-- ITransmission -->
<g id="node3" class="node">
<title>ITransmission</title>
<g id="a_node3"><a xlink:href="src-inet-physicallayer-wireless-common-signal-ITransmission.html" xlink:title="Class ITransmission" target="_parent">
<polygon fill="#fffcaf" stroke="black" points="166,-19 82,-19 82,0 166,0 166,-19"/>
<text text-anchor="middle" x="124" y="-7" font-family="Helvetica,sans-Serif" font-size="10.00">ITransmission</text>
</a>
</g>
</g>
<!-- WirelessSignal&#45;&gt;ITransmission -->
<g id="edge2" class="edge">
<title>WirelessSignal&#45;&gt;ITransmission</title>
<path fill="none" stroke="black" d="M159.9,-54.75C153.83,-47.26 144.91,-36.28 137.49,-27.13"/>
<polygon fill="black" stroke="black" points="139.99,-24.65 130.97,-19.09 134.55,-29.06 139.99,-24.65"/>
</g>
<!-- IArrival -->
<g id="node4" class="node">
<title>IArrival</title>
<g id="a_node4"><a xlink:href="src-inet-physicallayer-wireless-common-signal-IArrival.html" xlink:title="Class IArrival" target="_parent">
<polygon fill="#fffcaf" stroke="black" points="238,-19 184,-19 184,0 238,0 238,-19"/>
<text text-anchor="middle" x="211" y="-7" font-family="Helvetica,sans-Serif" font-size="10.00">IArrival</text>
</a>
</g>
</g>
<!-- WirelessSignal&#45;&gt;IArrival -->
<g id="edge3" class="edge">
<title>WirelessSignal&#45;&gt;IArrival</title>
<path fill="none" stroke="black" d="M174.27,-54.75C180.54,-47.18 189.79,-36.05 197.43,-26.84"/>
<polygon fill="black" stroke="black" points="200.17,-29.02 203.87,-19.09 194.79,-24.55 200.17,-29.02"/>
</g>
<!-- IReception -->
<g id="node5" class="node">
<title>IReception</title>
<g id="a_node5"><a xlink:href="src-inet-physicallayer-wireless-common-signal-IReception.html" xlink:title="Class IReception" target="_parent">
<polygon fill="#fffcaf" stroke="black" points="324,-19 256,-19 256,0 324,0 324,-19"/>
<text text-anchor="middle" x="290" y="-7" font-family="Helvetica,sans-Serif" font-size="10.00">IReception</text>
</a>
</g>
</g>
<!-- WirelessSignal&#45;&gt;IReception -->
<g id="edge4" class="edge">
<title>WirelessSignal&#45;&gt;IReception</title>
<path fill="none" stroke="black" d="M186.76,-54.98C206.73,-46.38 237.8,-32.99 260.65,-23.15"/>
<polygon fill="black" stroke="black" points="262.08,-26.34 269.88,-19.17 259.31,-19.91 262.08,-26.34"/>
</g>
</g>
</svg>
