<?xml version="1.0" encoding="UTF-8" standalone="no"?>
<!DOCTYPE svg PUBLIC "-//W3C//DTD SVG 1.1//EN"
 "http://www.w3.org/Graphics/SVG/1.1/DTD/svg11.dtd">
<!-- Generated by graphviz version 2.43.0 (0)
 -->
<!-- Title: opp Pages: 1 -->
<svg width="257pt" height="137pt"
 viewBox="0.00 0.00 257.00 137.00" xmlns="http://www.w3.org/2000/svg" xmlns:xlink="http://www.w3.org/1999/xlink">
<g id="graph0" class="graph" transform="scale(1 1) rotate(0) translate(4 133)">
<title>opp</title>
<polygon fill="transparent" stroke="transparent" points="-4,4 -4,-133 253,-133 253,4 -4,4"/>
<!-- TransportHeaderBase -->
<g id="node1" class="node">
<title>TransportHeaderBase</title>
<g id="a_node1"><a xlink:href="src-inet-transportlayer-contract-TransportHeaderBase.html" xlink:title="Class TransportHeaderBase" target="_parent">
<polygon fill="#fff700" stroke="black" points="186.5,-74 64.5,-74 64.5,-55 186.5,-55 186.5,-74"/>
<text text-anchor="middle" x="125.5" y="-62" font-family="Helvetica,sans-Serif" font-size="10.00">TransportHeaderBase</text>
</a>
</g>
</g>
<!-- SctpHeader -->
<g id="node3" class="node">
<title>SctpHeader</title>
<g id="a_node3"><a xlink:href="src-inet-transportlayer-sctp-SctpHeader.html" xlink:title="Class SctpHeader" target="_parent">
<polygon fill="#fffcaf" stroke="black" points="73,-19 0,-19 0,0 73,0 73,-19"/>
<text text-anchor="middle" x="36.5" y="-7" font-family="Helvetica,sans-Serif" font-size="10.00">SctpHeader</text>
</a>
</g>
</g>
<!-- TransportHeaderBase&#45;&gt;SctpHeader -->
<g id="edge2" class="edge">
<title>TransportHeaderBase&#45;&gt;SctpHeader</title>
<path fill="none" stroke="black" d="M111.2,-54.98C94.69,-45.15 67.68,-29.07 51.06,-19.17"/>
</g>
<!-- TcpHeader -->
<g id="node4" class="node">
<title>TcpHeader</title>
<g id="a_node4"><a xlink:href="src-inet-transportlayer-tcp_common-TcpHeader.html" xlink:title="Class TcpHeader" target="_parent">
<polygon fill="#fffcaf" stroke="black" points="159.5,-19 91.5,-19 91.5,0 159.5,0 159.5,-19"/>
<text text-anchor="middle" x="125.5" y="-7" font-family="Helvetica,sans-Serif" font-size="10.00">TcpHeader</text>
</a>
</g>
</g>
<!-- TransportHeaderBase&#45;&gt;TcpHeader -->
<g id="edge3" class="edge">
<title>TransportHeaderBase&#45;&gt;TcpHeader</title>
<path fill="none" stroke="black" d="M125.5,-54.75C125.5,-44.87 125.5,-28.9 125.5,-19.09"/>
</g>
<!-- UdpHeader -->
<g id="node5" class="node">
<title>UdpHeader</title>
<g id="a_node5"><a xlink:href="src-inet-transportlayer-udp-UdpHeader.html" xlink:title="Class UdpHeader" target="_parent">
<polygon fill="#fffcaf" stroke="black" points="249,-19 178,-19 178,0 249,0 249,-19"/>
<text text-anchor="middle" x="213.5" y="-7" font-family="Helvetica,sans-Serif" font-size="10.00">UdpHeader</text>
</a>
</g>
</g>
<!-- TransportHeaderBase&#45;&gt;UdpHeader -->
<g id="edge4" class="edge">
<title>TransportHeaderBase&#45;&gt;UdpHeader</title>
<path fill="none" stroke="black" d="M139.64,-54.98C155.96,-45.15 182.67,-29.07 199.1,-19.17"/>
</g>
<!-- FieldsChunk -->
<g id="node2" class="node">
<title>FieldsChunk</title>
<g id="a_node2"><a xlink:href="src-inet-common-packet-chunk-FieldsChunk.html" xlink:title="Class FieldsChunk" target="_parent">
<polygon fill="#fffcaf" stroke="black" points="163,-129 88,-129 88,-110 163,-110 163,-129"/>
<text text-anchor="middle" x="125.5" y="-117" font-family="Helvetica,sans-Serif" font-size="10.00">FieldsChunk</text>
</a>
</g>
</g>
<!-- FieldsChunk&#45;&gt;TransportHeaderBase -->
<g id="edge1" class="edge">
<title>FieldsChunk&#45;&gt;TransportHeaderBase</title>
<path fill="none" stroke="black" d="M125.5,-109.75C125.5,-99.87 125.5,-83.9 125.5,-74.09"/>
</g>
</g>
</svg>
