<?xml version="1.0" encoding="UTF-8" standalone="no"?>
<!DOCTYPE svg PUBLIC "-//W3C//DTD SVG 1.1//EN"
 "http://www.w3.org/Graphics/SVG/1.1/DTD/svg11.dtd">
<!-- Generated by graphviz version 2.43.0 (0)
 -->
<!-- Title: opp Pages: 1 -->
<svg width="276pt" height="82pt"
 viewBox="0.00 0.00 275.50 82.00" xmlns="http://www.w3.org/2000/svg" xmlns:xlink="http://www.w3.org/1999/xlink">
<g id="graph0" class="graph" transform="scale(1 1) rotate(0) translate(4 78)">
<title>opp</title>
<polygon fill="transparent" stroke="transparent" points="-4,4 -4,-78 271.5,-78 271.5,4 -4,4"/>
<!-- PacketEvent -->
<g id="node1" class="node">
<title>PacketEvent</title>
<g id="a_node1"><a xlink:href="src-inet-common-PacketEvent.html" xlink:title="Class PacketEvent" target="_parent">
<polygon fill="#fff700" stroke="black" points="166.5,-74 89.5,-74 89.5,-55 166.5,-55 166.5,-74"/>
<text text-anchor="middle" x="128" y="-62" font-family="Helvetica,sans-Serif" font-size="10.00">PacketEvent</text>
</a>
</g>
</g>
<!-- PacketQueuedEvent -->
<g id="node2" class="node">
<title>PacketQueuedEvent</title>
<g id="a_node2"><a xlink:href="src-inet-common-PacketQueuedEvent.html" xlink:title="Class PacketQueuedEvent" target="_parent">
<polygon fill="#fffcaf" stroke="black" points="114,-19 0,-19 0,0 114,0 114,-19"/>
<text text-anchor="middle" x="57" y="-7" font-family="Helvetica,sans-Serif" font-size="10.00">PacketQueuedEvent</text>
</a>
</g>
</g>
<!-- PacketEvent&#45;&gt;PacketQueuedEvent -->
<g id="edge1" class="edge">
<title>PacketEvent&#45;&gt;PacketQueuedEvent</title>
<path fill="none" stroke="black" d="M116.59,-54.98C103.42,-45.15 81.87,-29.07 68.61,-19.17"/>
</g>
<!-- PacketTransmittedEvent -->
<g id="node3" class="node">
<title>PacketTransmittedEvent</title>
<g id="a_node3"><a xlink:href="src-inet-common-PacketTransmittedEvent.html" xlink:title="Class PacketTransmittedEvent" target="_parent">
<polygon fill="#fffcaf" stroke="black" points="267.5,-19 132.5,-19 132.5,0 267.5,0 267.5,-19"/>
<text text-anchor="middle" x="200" y="-7" font-family="Helvetica,sans-Serif" font-size="10.00">PacketTransmittedEvent</text>
</a>
</g>
</g>
<!-- PacketEvent&#45;&gt;PacketTransmittedEvent -->
<g id="edge2" class="edge">
<title>PacketEvent&#45;&gt;PacketTransmittedEvent</title>
<path fill="none" stroke="black" d="M139.57,-54.98C152.92,-45.15 174.78,-29.07 188.22,-19.17"/>
</g>
</g>
</svg>
