<?xml version="1.0" encoding="UTF-8" standalone="no"?>
<!DOCTYPE svg PUBLIC "-//W3C//DTD SVG 1.1//EN"
 "http://www.w3.org/Graphics/SVG/1.1/DTD/svg11.dtd">
<!-- Generated by graphviz version 2.43.0 (0)
 -->
<!-- Title: opp Pages: 1 -->
<svg width="303pt" height="137pt"
 viewBox="0.00 0.00 302.50 137.00" xmlns="http://www.w3.org/2000/svg" xmlns:xlink="http://www.w3.org/1999/xlink">
<g id="graph0" class="graph" transform="scale(1 1) rotate(0) translate(4 133)">
<title>opp</title>
<polygon fill="transparent" stroke="transparent" points="-4,4 -4,-133 298.5,-133 298.5,4 -4,4"/>
<!-- Ospfv3LinkLsa -->
<g id="node1" class="node">
<title>Ospfv3LinkLsa</title>
<g id="a_node1"><a xlink:href="src-inet-routing-ospfv3-Ospfv3LinkLsa.html" xlink:title="Class Ospfv3LinkLsa" target="_parent">
<polygon fill="#fff700" stroke="black" points="184.5,-74 96.5,-74 96.5,-55 184.5,-55 184.5,-74"/>
<text text-anchor="middle" x="140.5" y="-62" font-family="Helvetica,sans-Serif" font-size="10.00">Ospfv3LinkLsa</text>
</a>
</g>
</g>
<!-- Ospfv3Options -->
<g id="node2" class="node">
<title>Ospfv3Options</title>
<g id="a_node2"><a xlink:href="src-inet-routing-ospfv3-Ospfv3Options.html" xlink:title="Struct Ospfv3Options" target="_parent">
<polygon fill="#d0d0ff" stroke="black" points="89,-19 0,-19 0,0 89,0 89,-19"/>
<text text-anchor="middle" x="44.5" y="-7" font-family="Helvetica,sans-Serif" font-size="10.00">Ospfv3Options</text>
</a>
</g>
</g>
<!-- Ospfv3LinkLsa&#45;&gt;Ospfv3Options -->
<g id="edge1" class="edge">
<title>Ospfv3LinkLsa&#45;&gt;Ospfv3Options</title>
<path fill="none" stroke="black" d="M125.08,-54.98C110.05,-46.69 86.96,-33.94 69.34,-24.22"/>
<polygon fill="black" stroke="black" points="70.65,-20.94 60.2,-19.17 67.27,-27.07 70.65,-20.94"/>
</g>
<!-- L3Address -->
<g id="node3" class="node">
<title>L3Address</title>
<g id="a_node3"><a xlink:href="src-inet-networklayer-common-L3Address.html" xlink:title="Class L3Address" target="_parent">
<polygon fill="#fffcaf" stroke="black" points="174,-19 107,-19 107,0 174,0 174,-19"/>
<text text-anchor="middle" x="140.5" y="-7" font-family="Helvetica,sans-Serif" font-size="10.00">L3Address</text>
</a>
</g>
</g>
<!-- Ospfv3LinkLsa&#45;&gt;L3Address -->
<g id="edge2" class="edge">
<title>Ospfv3LinkLsa&#45;&gt;L3Address</title>
<path fill="none" stroke="black" d="M140.5,-54.75C140.5,-47.8 140.5,-37.85 140.5,-29.13"/>
<polygon fill="black" stroke="black" points="144,-29.09 140.5,-19.09 137,-29.09 144,-29.09"/>
</g>
<!-- Ospfv3LsaPrefix0 -->
<g id="node4" class="node">
<title>Ospfv3LsaPrefix0</title>
<g id="a_node4"><a xlink:href="src-inet-routing-ospfv3-Ospfv3LsaPrefix0.html" xlink:title="Struct Ospfv3LsaPrefix0" target="_parent">
<polygon fill="#d0d0ff" stroke="black" points="294.5,-19 192.5,-19 192.5,0 294.5,0 294.5,-19"/>
<text text-anchor="middle" x="243.5" y="-7" font-family="Helvetica,sans-Serif" font-size="10.00">Ospfv3LsaPrefix0</text>
</a>
</g>
</g>
<!-- Ospfv3LinkLsa&#45;&gt;Ospfv3LsaPrefix0 -->
<g id="edge3" class="edge">
<title>Ospfv3LinkLsa&#45;&gt;Ospfv3LsaPrefix0</title>
<path fill="none" stroke="black" d="M157.05,-54.98C173.39,-46.57 198.63,-33.59 217.63,-23.81"/>
<polygon fill="black" stroke="black" points="219.36,-26.86 226.65,-19.17 216.16,-20.63 219.36,-26.86"/>
</g>
<!-- Ospfv3LinkStateUpdatePacket -->
<g id="node5" class="node">
<title>Ospfv3LinkStateUpdatePacket</title>
<g id="a_node5"><a xlink:href="src-inet-routing-ospfv3-Ospfv3LinkStateUpdatePacket.html" xlink:title="Class Ospfv3LinkStateUpdatePacket" target="_parent">
<polygon fill="#fffcaf" stroke="black" points="222.5,-129 58.5,-129 58.5,-110 222.5,-110 222.5,-129"/>
<text text-anchor="middle" x="140.5" y="-117" font-family="Helvetica,sans-Serif" font-size="10.00">Ospfv3LinkStateUpdatePacket</text>
</a>
</g>
</g>
<!-- Ospfv3LinkStateUpdatePacket&#45;&gt;Ospfv3LinkLsa -->
<g id="edge4" class="edge">
<title>Ospfv3LinkStateUpdatePacket&#45;&gt;Ospfv3LinkLsa</title>
<path fill="none" stroke="black" d="M140.5,-109.75C140.5,-102.8 140.5,-92.85 140.5,-84.13"/>
<polygon fill="black" stroke="black" points="144,-84.09 140.5,-74.09 137,-84.09 144,-84.09"/>
</g>
</g>
</svg>
