<?xml version="1.0" encoding="UTF-8" standalone="no"?>
<!DOCTYPE svg PUBLIC "-//W3C//DTD SVG 1.1//EN"
 "http://www.w3.org/Graphics/SVG/1.1/DTD/svg11.dtd">
<!-- Generated by graphviz version 2.43.0 (0)
 -->
<!-- Title: opp Pages: 1 -->
<svg width="210pt" height="82pt"
 viewBox="0.00 0.00 209.50 82.00" xmlns="http://www.w3.org/2000/svg" xmlns:xlink="http://www.w3.org/1999/xlink">
<g id="graph0" class="graph" transform="scale(1 1) rotate(0) translate(4 78)">
<title>opp</title>
<polygon fill="transparent" stroke="transparent" points="-4,4 -4,-78 205.5,-78 205.5,4 -4,4"/>
<!-- Ieee80211Prim_ScanRequest -->
<g id="node1" class="node">
<title>Ieee80211Prim_ScanRequest</title>
<g id="a_node1"><a xlink:href="src-inet-linklayer-ieee80211-mgmt-Ieee80211Prim_ScanRequest.html" xlink:title="Class Ieee80211Prim_ScanRequest" target="_parent">
<polygon fill="#fff700" stroke="black" points="172,-74 14,-74 14,-55 172,-55 172,-74"/>
<text text-anchor="middle" x="93" y="-62" font-family="Helvetica,sans-Serif" font-size="10.00">Ieee80211Prim_ScanRequest</text>
</a>
</g>
</g>
<!-- MacAddress -->
<g id="node2" class="node">
<title>MacAddress</title>
<g id="a_node2"><a xlink:href="src-inet-linklayer-common-MacAddress.html" xlink:title="Class MacAddress" target="_parent">
<polygon fill="#fffcaf" stroke="black" points="76,-19 0,-19 0,0 76,0 76,-19"/>
<text text-anchor="middle" x="38" y="-7" font-family="Helvetica,sans-Serif" font-size="10.00">MacAddress</text>
</a>
</g>
</g>
<!-- Ieee80211Prim_ScanRequest&#45;&gt;MacAddress -->
<g id="edge1" class="edge">
<title>Ieee80211Prim_ScanRequest&#45;&gt;MacAddress</title>
<path fill="none" stroke="black" d="M83.92,-54.75C75.91,-47.03 64.04,-35.6 54.38,-26.28"/>
<polygon fill="black" stroke="black" points="56.54,-23.51 46.91,-19.09 51.69,-28.55 56.54,-23.51"/>
</g>
<!-- Ieee80211BssType -->
<g id="node3" class="node">
<title>Ieee80211BssType</title>
<g id="a_node3"><a xlink:href="src-inet-linklayer-ieee80211-mgmt-Ieee80211BssType.html" xlink:title="Enum Ieee80211BssType" target="_parent">
<polygon fill="#d0ffd0" stroke="black" points="201.5,-19 94.5,-19 94.5,0 201.5,0 201.5,-19"/>
<text text-anchor="middle" x="148" y="-7" font-family="Helvetica,sans-Serif" font-size="10.00">Ieee80211BssType</text>
</a>
</g>
</g>
<!-- Ieee80211Prim_ScanRequest&#45;&gt;Ieee80211BssType -->
<g id="edge2" class="edge">
<title>Ieee80211Prim_ScanRequest&#45;&gt;Ieee80211BssType</title>
<path fill="none" stroke="black" d="M102.08,-54.75C110.09,-47.03 121.96,-35.6 131.62,-26.28"/>
<polygon fill="black" stroke="black" points="134.31,-28.55 139.09,-19.09 129.46,-23.51 134.31,-28.55"/>
</g>
</g>
</svg>
