<?xml version="1.0" encoding="UTF-8" standalone="no"?>
<!DOCTYPE svg PUBLIC "-//W3C//DTD SVG 1.1//EN"
 "http://www.w3.org/Graphics/SVG/1.1/DTD/svg11.dtd">
<!-- Generated by graphviz version 2.43.0 (0)
 -->
<!-- Title: opp Pages: 1 -->
<svg width="1047pt" height="137pt"
 viewBox="0.00 0.00 1046.50 137.00" xmlns="http://www.w3.org/2000/svg" xmlns:xlink="http://www.w3.org/1999/xlink">
<g id="graph0" class="graph" transform="scale(1 1) rotate(0) translate(4 133)">
<title>opp</title>
<polygon fill="transparent" stroke="transparent" points="-4,4 -4,-133 1042.5,-133 1042.5,4 -4,4"/>
<!-- RtpSessionControlInfo -->
<g id="node1" class="node">
<title>RtpSessionControlInfo</title>
<g id="a_node1"><a xlink:href="src-inet-transportlayer-rtp-RtpSessionControlInfo.html" xlink:title="Class RtpSessionControlInfo" target="_parent">
<polygon fill="#fff700" stroke="black" points="595,-74 470,-74 470,-55 595,-55 595,-74"/>
<text text-anchor="middle" x="532.5" y="-62" font-family="Helvetica,sans-Serif" font-size="10.00">RtpSessionControlInfo</text>
</a>
</g>
</g>
<!-- RtpCiCreateSenderModule -->
<g id="node3" class="node">
<title>RtpCiCreateSenderModule</title>
<g id="a_node3"><a xlink:href="src-inet-transportlayer-rtp-RtpCiCreateSenderModule.html" xlink:title="Class RtpCiCreateSenderModule" target="_parent">
<polygon fill="#fffcaf" stroke="black" points="145,-19 0,-19 0,0 145,0 145,-19"/>
<text text-anchor="middle" x="72.5" y="-7" font-family="Helvetica,sans-Serif" font-size="10.00">RtpCiCreateSenderModule</text>
</a>
</g>
</g>
<!-- RtpSessionControlInfo&#45;&gt;RtpCiCreateSenderModule -->
<g id="edge2" class="edge">
<title>RtpSessionControlInfo&#45;&gt;RtpCiCreateSenderModule</title>
<path fill="none" stroke="black" d="M469.98,-56.3C385.36,-46.55 234.66,-29.18 145.12,-18.87"/>
</g>
<!-- RtpCiDeleteSenderModule -->
<g id="node4" class="node">
<title>RtpCiDeleteSenderModule</title>
<g id="a_node4"><a xlink:href="src-inet-transportlayer-rtp-RtpCiDeleteSenderModule.html" xlink:title="Class RtpCiDeleteSenderModule" target="_parent">
<polygon fill="#fffcaf" stroke="black" points="308,-19 163,-19 163,0 308,0 308,-19"/>
<text text-anchor="middle" x="235.5" y="-7" font-family="Helvetica,sans-Serif" font-size="10.00">RtpCiDeleteSenderModule</text>
</a>
</g>
</g>
<!-- RtpSessionControlInfo&#45;&gt;RtpCiDeleteSenderModule -->
<g id="edge3" class="edge">
<title>RtpSessionControlInfo&#45;&gt;RtpCiDeleteSenderModule</title>
<path fill="none" stroke="black" d="M484.78,-54.98C429.52,-45.12 339.01,-28.97 283.59,-19.08"/>
</g>
<!-- RtpCiSenderControl -->
<g id="node5" class="node">
<title>RtpCiSenderControl</title>
<g id="a_node5"><a xlink:href="src-inet-transportlayer-rtp-RtpCiSenderControl.html" xlink:title="Class RtpCiSenderControl" target="_parent">
<polygon fill="#fffcaf" stroke="black" points="438.5,-19 326.5,-19 326.5,0 438.5,0 438.5,-19"/>
<text text-anchor="middle" x="382.5" y="-7" font-family="Helvetica,sans-Serif" font-size="10.00">RtpCiSenderControl</text>
</a>
</g>
</g>
<!-- RtpSessionControlInfo&#45;&gt;RtpCiSenderControl -->
<g id="edge4" class="edge">
<title>RtpSessionControlInfo&#45;&gt;RtpCiSenderControl</title>
<path fill="none" stroke="black" d="M508.4,-54.98C480.57,-45.15 435.05,-29.07 407.04,-19.17"/>
</g>
<!-- RtpCiSenderModuleCreated -->
<g id="node6" class="node">
<title>RtpCiSenderModuleCreated</title>
<g id="a_node6"><a xlink:href="src-inet-transportlayer-rtp-RtpCiSenderModuleCreated.html" xlink:title="Class RtpCiSenderModuleCreated" target="_parent">
<polygon fill="#fffcaf" stroke="black" points="608,-19 457,-19 457,0 608,0 608,-19"/>
<text text-anchor="middle" x="532.5" y="-7" font-family="Helvetica,sans-Serif" font-size="10.00">RtpCiSenderModuleCreated</text>
</a>
</g>
</g>
<!-- RtpSessionControlInfo&#45;&gt;RtpCiSenderModuleCreated -->
<g id="edge5" class="edge">
<title>RtpSessionControlInfo&#45;&gt;RtpCiSenderModuleCreated</title>
<path fill="none" stroke="black" d="M532.5,-54.75C532.5,-44.87 532.5,-28.9 532.5,-19.09"/>
</g>
<!-- RtpCiSenderModuleDeleted -->
<g id="node7" class="node">
<title>RtpCiSenderModuleDeleted</title>
<g id="a_node7"><a xlink:href="src-inet-transportlayer-rtp-RtpCiSenderModuleDeleted.html" xlink:title="Class RtpCiSenderModuleDeleted" target="_parent">
<polygon fill="#fffcaf" stroke="black" points="777,-19 626,-19 626,0 777,0 777,-19"/>
<text text-anchor="middle" x="701.5" y="-7" font-family="Helvetica,sans-Serif" font-size="10.00">RtpCiSenderModuleDeleted</text>
</a>
</g>
</g>
<!-- RtpSessionControlInfo&#45;&gt;RtpCiSenderModuleDeleted -->
<g id="edge6" class="edge">
<title>RtpSessionControlInfo&#45;&gt;RtpCiSenderModuleDeleted</title>
<path fill="none" stroke="black" d="M559.65,-54.98C591.1,-45.12 642.6,-28.97 674.13,-19.08"/>
</g>
<!-- RtpCiSenderStatus -->
<g id="node8" class="node">
<title>RtpCiSenderStatus</title>
<g id="a_node8"><a xlink:href="src-inet-transportlayer-rtp-RtpCiSenderStatus.html" xlink:title="Class RtpCiSenderStatus" target="_parent">
<polygon fill="#fffcaf" stroke="black" points="902,-19 795,-19 795,0 902,0 902,-19"/>
<text text-anchor="middle" x="848.5" y="-7" font-family="Helvetica,sans-Serif" font-size="10.00">RtpCiSenderStatus</text>
</a>
</g>
</g>
<!-- RtpSessionControlInfo&#45;&gt;RtpCiSenderStatus -->
<g id="edge7" class="edge">
<title>RtpSessionControlInfo&#45;&gt;RtpCiSenderStatus</title>
<path fill="none" stroke="black" d="M583.27,-54.98C642.15,-45.11 738.65,-28.92 797.59,-19.04"/>
</g>
<!-- RtpCiSessionEntered -->
<g id="node9" class="node">
<title>RtpCiSessionEntered</title>
<g id="a_node9"><a xlink:href="src-inet-transportlayer-rtp-RtpCiSessionEntered.html" xlink:title="Class RtpCiSessionEntered" target="_parent">
<polygon fill="#fffcaf" stroke="black" points="1038.5,-19 920.5,-19 920.5,0 1038.5,0 1038.5,-19"/>
<text text-anchor="middle" x="979.5" y="-7" font-family="Helvetica,sans-Serif" font-size="10.00">RtpCiSessionEntered</text>
</a>
</g>
</g>
<!-- RtpSessionControlInfo&#45;&gt;RtpCiSessionEntered -->
<g id="edge8" class="edge">
<title>RtpSessionControlInfo&#45;&gt;RtpCiSessionEntered</title>
<path fill="none" stroke="black" d="M595.22,-56.28C670.4,-47.59 800.19,-32.49 911.5,-19 914.33,-18.66 917.24,-18.3 920.17,-17.94"/>
</g>
<!-- RtpControlInfo -->
<g id="node2" class="node">
<title>RtpControlInfo</title>
<g id="a_node2"><a xlink:href="src-inet-transportlayer-rtp-RtpControlInfo.html" xlink:title="Class RtpControlInfo" target="_parent">
<polygon fill="#fffcaf" stroke="black" points="576,-129 489,-129 489,-110 576,-110 576,-129"/>
<text text-anchor="middle" x="532.5" y="-117" font-family="Helvetica,sans-Serif" font-size="10.00">RtpControlInfo</text>
</a>
</g>
</g>
<!-- RtpControlInfo&#45;&gt;RtpSessionControlInfo -->
<g id="edge1" class="edge">
<title>RtpControlInfo&#45;&gt;RtpSessionControlInfo</title>
<path fill="none" stroke="black" d="M532.5,-109.75C532.5,-99.87 532.5,-83.9 532.5,-74.09"/>
</g>
</g>
</svg>
