<?xml version="1.0" encoding="UTF-8" standalone="no"?>
<!DOCTYPE svg PUBLIC "-//W3C//DTD SVG 1.1//EN"
 "http://www.w3.org/Graphics/SVG/1.1/DTD/svg11.dtd">
<!-- Generated by graphviz version 2.43.0 (0)
 -->
<!-- Title: opp Pages: 1 -->
<svg width="660pt" height="82pt"
 viewBox="0.00 0.00 660.00 82.00" xmlns="http://www.w3.org/2000/svg" xmlns:xlink="http://www.w3.org/1999/xlink">
<g id="graph0" class="graph" transform="scale(1 1) rotate(0) translate(4 78)">
<title>opp</title>
<polygon fill="transparent" stroke="transparent" points="-4,4 -4,-78 656,-78 656,4 -4,4"/>
<!-- Ospfv3LinkStateUpdatePacket -->
<g id="node1" class="node">
<title>Ospfv3LinkStateUpdatePacket</title>
<g id="a_node1"><a xlink:href="src-inet-routing-ospfv3-Ospfv3LinkStateUpdatePacket.html" xlink:title="Class Ospfv3LinkStateUpdatePacket" target="_parent">
<polygon fill="#fff700" stroke="black" points="418,-74 254,-74 254,-55 418,-55 418,-74"/>
<text text-anchor="middle" x="336" y="-62" font-family="Helvetica,sans-Serif" font-size="10.00">Ospfv3LinkStateUpdatePacket</text>
</a>
</g>
</g>
<!-- Ospfv3LinkLsa -->
<g id="node2" class="node">
<title>Ospfv3LinkLsa</title>
<g id="a_node2"><a xlink:href="src-inet-routing-ospfv3-Ospfv3LinkLsa.html" xlink:title="Class Ospfv3LinkLsa" target="_parent">
<polygon fill="#fffcaf" stroke="black" points="88,-19 0,-19 0,0 88,0 88,-19"/>
<text text-anchor="middle" x="44" y="-7" font-family="Helvetica,sans-Serif" font-size="10.00">Ospfv3LinkLsa</text>
</a>
</g>
</g>
<!-- Ospfv3LinkStateUpdatePacket&#45;&gt;Ospfv3LinkLsa -->
<g id="edge1" class="edge">
<title>Ospfv3LinkStateUpdatePacket&#45;&gt;Ospfv3LinkLsa</title>
<path fill="none" stroke="black" d="M289.09,-54.98C237.03,-45.54 153.15,-30.31 98.3,-20.36"/>
<polygon fill="black" stroke="black" points="98.87,-16.9 88.41,-18.56 97.62,-23.79 98.87,-16.9"/>
</g>
<!-- Ospfv3InterAreaPrefixLsa -->
<g id="node3" class="node">
<title>Ospfv3InterAreaPrefixLsa</title>
<g id="a_node3"><a xlink:href="src-inet-routing-ospfv3-Ospfv3InterAreaPrefixLsa.html" xlink:title="Class Ospfv3InterAreaPrefixLsa" target="_parent">
<polygon fill="#fffcaf" stroke="black" points="247.5,-19 106.5,-19 106.5,0 247.5,0 247.5,-19"/>
<text text-anchor="middle" x="177" y="-7" font-family="Helvetica,sans-Serif" font-size="10.00">Ospfv3InterAreaPrefixLsa</text>
</a>
</g>
</g>
<!-- Ospfv3LinkStateUpdatePacket&#45;&gt;Ospfv3InterAreaPrefixLsa -->
<g id="edge2" class="edge">
<title>Ospfv3LinkStateUpdatePacket&#45;&gt;Ospfv3InterAreaPrefixLsa</title>
<path fill="none" stroke="black" d="M310.45,-54.98C283.88,-46.13 242.06,-32.19 212.33,-22.28"/>
<polygon fill="black" stroke="black" points="213.34,-18.92 202.75,-19.08 211.13,-25.56 213.34,-18.92"/>
</g>
<!-- Ospfv3IntraAreaPrefixLsa -->
<g id="node4" class="node">
<title>Ospfv3IntraAreaPrefixLsa</title>
<g id="a_node4"><a xlink:href="src-inet-routing-ospfv3-Ospfv3IntraAreaPrefixLsa.html" xlink:title="Class Ospfv3IntraAreaPrefixLsa" target="_parent">
<polygon fill="#fffcaf" stroke="black" points="406.5,-19 265.5,-19 265.5,0 406.5,0 406.5,-19"/>
<text text-anchor="middle" x="336" y="-7" font-family="Helvetica,sans-Serif" font-size="10.00">Ospfv3IntraAreaPrefixLsa</text>
</a>
</g>
</g>
<!-- Ospfv3LinkStateUpdatePacket&#45;&gt;Ospfv3IntraAreaPrefixLsa -->
<g id="edge3" class="edge">
<title>Ospfv3LinkStateUpdatePacket&#45;&gt;Ospfv3IntraAreaPrefixLsa</title>
<path fill="none" stroke="black" d="M336,-54.75C336,-47.8 336,-37.85 336,-29.13"/>
<polygon fill="black" stroke="black" points="339.5,-29.09 336,-19.09 332.5,-29.09 339.5,-29.09"/>
</g>
<!-- Ospfv3NetworkLsa -->
<g id="node5" class="node">
<title>Ospfv3NetworkLsa</title>
<g id="a_node5"><a xlink:href="src-inet-routing-ospfv3-Ospfv3NetworkLsa.html" xlink:title="Class Ospfv3NetworkLsa" target="_parent">
<polygon fill="#fffcaf" stroke="black" points="533.5,-19 424.5,-19 424.5,0 533.5,0 533.5,-19"/>
<text text-anchor="middle" x="479" y="-7" font-family="Helvetica,sans-Serif" font-size="10.00">Ospfv3NetworkLsa</text>
</a>
</g>
</g>
<!-- Ospfv3LinkStateUpdatePacket&#45;&gt;Ospfv3NetworkLsa -->
<g id="edge4" class="edge">
<title>Ospfv3LinkStateUpdatePacket&#45;&gt;Ospfv3NetworkLsa</title>
<path fill="none" stroke="black" d="M358.98,-54.98C382.5,-46.27 419.29,-32.63 445.94,-22.75"/>
<polygon fill="black" stroke="black" points="447.45,-25.93 455.61,-19.17 445.01,-19.36 447.45,-25.93"/>
</g>
<!-- Ospfv3RouterLsa -->
<g id="node6" class="node">
<title>Ospfv3RouterLsa</title>
<g id="a_node6"><a xlink:href="src-inet-routing-ospfv3-Ospfv3RouterLsa.html" xlink:title="Class Ospfv3RouterLsa" target="_parent">
<polygon fill="#fffcaf" stroke="black" points="652,-19 552,-19 552,0 652,0 652,-19"/>
<text text-anchor="middle" x="602" y="-7" font-family="Helvetica,sans-Serif" font-size="10.00">Ospfv3RouterLsa</text>
</a>
</g>
</g>
<!-- Ospfv3LinkStateUpdatePacket&#45;&gt;Ospfv3RouterLsa -->
<g id="edge5" class="edge">
<title>Ospfv3LinkStateUpdatePacket&#45;&gt;Ospfv3RouterLsa</title>
<path fill="none" stroke="black" d="M378.74,-54.98C425.04,-45.76 498.98,-31.03 548.96,-21.07"/>
<polygon fill="black" stroke="black" points="549.8,-24.47 558.93,-19.08 548.44,-17.6 549.8,-24.47"/>
</g>
</g>
</svg>
