<?xml version="1.0" encoding="UTF-8" standalone="no"?>
<!DOCTYPE svg PUBLIC "-//W3C//DTD SVG 1.1//EN"
 "http://www.w3.org/Graphics/SVG/1.1/DTD/svg11.dtd">
<!-- Generated by graphviz version 2.43.0 (0)
 -->
<!-- Title: opp Pages: 1 -->
<svg width="158pt" height="137pt"
 viewBox="0.00 0.00 158.00 137.00" xmlns="http://www.w3.org/2000/svg" xmlns:xlink="http://www.w3.org/1999/xlink">
<g id="graph0" class="graph" transform="scale(1 1) rotate(0) translate(4 133)">
<title>opp</title>
<polygon fill="transparent" stroke="transparent" points="-4,4 -4,-133 154,-133 154,4 -4,4"/>
<!-- SocketTagBase -->
<g id="node1" class="node">
<title>SocketTagBase</title>
<g id="a_node1"><a xlink:href="src-inet-common-socket-SocketTagBase.html" xlink:title="Class SocketTagBase" target="_parent">
<polygon fill="#fff700" stroke="black" points="118.5,-74 29.5,-74 29.5,-55 118.5,-55 118.5,-74"/>
<text text-anchor="middle" x="74" y="-62" font-family="Helvetica,sans-Serif" font-size="10.00">SocketTagBase</text>
</a>
</g>
</g>
<!-- SocketInd -->
<g id="node3" class="node">
<title>SocketInd</title>
<g id="a_node3"><a xlink:href="src-inet-common-socket-SocketInd.html" xlink:title="Class SocketInd" target="_parent">
<polygon fill="#fffcaf" stroke="black" points="64,-19 0,-19 0,0 64,0 64,-19"/>
<text text-anchor="middle" x="32" y="-7" font-family="Helvetica,sans-Serif" font-size="10.00">SocketInd</text>
</a>
</g>
</g>
<!-- SocketTagBase&#45;&gt;SocketInd -->
<g id="edge2" class="edge">
<title>SocketTagBase&#45;&gt;SocketInd</title>
<path fill="none" stroke="black" d="M67.06,-54.75C59.24,-44.87 46.58,-28.9 38.81,-19.09"/>
</g>
<!-- SocketReq -->
<g id="node4" class="node">
<title>SocketReq</title>
<g id="a_node4"><a xlink:href="src-inet-common-socket-SocketReq.html" xlink:title="Class SocketReq" target="_parent">
<polygon fill="#fffcaf" stroke="black" points="150,-19 82,-19 82,0 150,0 150,-19"/>
<text text-anchor="middle" x="116" y="-7" font-family="Helvetica,sans-Serif" font-size="10.00">SocketReq</text>
</a>
</g>
</g>
<!-- SocketTagBase&#45;&gt;SocketReq -->
<g id="edge3" class="edge">
<title>SocketTagBase&#45;&gt;SocketReq</title>
<path fill="none" stroke="black" d="M80.94,-54.75C88.76,-44.87 101.42,-28.9 109.19,-19.09"/>
</g>
<!-- TagBase -->
<g id="node2" class="node">
<title>TagBase</title>
<g id="a_node2"><a xlink:href="src-inet-common-TagBase.html" xlink:title="Class TagBase" target="_parent">
<polygon fill="#fffcaf" stroke="black" points="102.5,-129 45.5,-129 45.5,-110 102.5,-110 102.5,-129"/>
<text text-anchor="middle" x="74" y="-117" font-family="Helvetica,sans-Serif" font-size="10.00">TagBase</text>
</a>
</g>
</g>
<!-- TagBase&#45;&gt;SocketTagBase -->
<g id="edge1" class="edge">
<title>TagBase&#45;&gt;SocketTagBase</title>
<path fill="none" stroke="black" d="M74,-109.75C74,-99.87 74,-83.9 74,-74.09"/>
</g>
</g>
</svg>
