<?xml version="1.0" encoding="UTF-8" standalone="no"?>
<!DOCTYPE svg PUBLIC "-//W3C//DTD SVG 1.1//EN"
 "http://www.w3.org/Graphics/SVG/1.1/DTD/svg11.dtd">
<!-- Generated by graphviz version 2.43.0 (0)
 -->
<!-- Title: opp Pages: 1 -->
<svg width="182pt" height="137pt"
 viewBox="0.00 0.00 182.00 137.00" xmlns="http://www.w3.org/2000/svg" xmlns:xlink="http://www.w3.org/1999/xlink">
<g id="graph0" class="graph" transform="scale(1 1) rotate(0) translate(4 133)">
<title>opp</title>
<polygon fill="transparent" stroke="transparent" points="-4,4 -4,-133 178,-133 178,4 -4,4"/>
<!-- HopLimitTagBase -->
<g id="node1" class="node">
<title>HopLimitTagBase</title>
<g id="a_node1"><a xlink:href="src-inet-networklayer-common-HopLimitTagBase.html" xlink:title="Class HopLimitTagBase" target="_parent">
<polygon fill="#fff700" stroke="black" points="136.5,-74 35.5,-74 35.5,-55 136.5,-55 136.5,-74"/>
<text text-anchor="middle" x="86" y="-62" font-family="Helvetica,sans-Serif" font-size="10.00">HopLimitTagBase</text>
</a>
</g>
</g>
<!-- HopLimitInd -->
<g id="node3" class="node">
<title>HopLimitInd</title>
<g id="a_node3"><a xlink:href="src-inet-networklayer-common-HopLimitInd.html" xlink:title="Class HopLimitInd" target="_parent">
<polygon fill="#fffcaf" stroke="black" points="76,-19 0,-19 0,0 76,0 76,-19"/>
<text text-anchor="middle" x="38" y="-7" font-family="Helvetica,sans-Serif" font-size="10.00">HopLimitInd</text>
</a>
</g>
</g>
<!-- HopLimitTagBase&#45;&gt;HopLimitInd -->
<g id="edge2" class="edge">
<title>HopLimitTagBase&#45;&gt;HopLimitInd</title>
<path fill="none" stroke="black" d="M78.07,-54.75C69.13,-44.87 54.66,-28.9 45.78,-19.09"/>
</g>
<!-- HopLimitReq -->
<g id="node4" class="node">
<title>HopLimitReq</title>
<g id="a_node4"><a xlink:href="src-inet-networklayer-common-HopLimitReq.html" xlink:title="Class HopLimitReq" target="_parent">
<polygon fill="#fffcaf" stroke="black" points="174,-19 94,-19 94,0 174,0 174,-19"/>
<text text-anchor="middle" x="134" y="-7" font-family="Helvetica,sans-Serif" font-size="10.00">HopLimitReq</text>
</a>
</g>
</g>
<!-- HopLimitTagBase&#45;&gt;HopLimitReq -->
<g id="edge3" class="edge">
<title>HopLimitTagBase&#45;&gt;HopLimitReq</title>
<path fill="none" stroke="black" d="M93.93,-54.75C102.87,-44.87 117.34,-28.9 126.22,-19.09"/>
</g>
<!-- TagBase -->
<g id="node2" class="node">
<title>TagBase</title>
<g id="a_node2"><a xlink:href="src-inet-common-TagBase.html" xlink:title="Class TagBase" target="_parent">
<polygon fill="#fffcaf" stroke="black" points="114.5,-129 57.5,-129 57.5,-110 114.5,-110 114.5,-129"/>
<text text-anchor="middle" x="86" y="-117" font-family="Helvetica,sans-Serif" font-size="10.00">TagBase</text>
</a>
</g>
</g>
<!-- TagBase&#45;&gt;HopLimitTagBase -->
<g id="edge1" class="edge">
<title>TagBase&#45;&gt;HopLimitTagBase</title>
<path fill="none" stroke="black" d="M86,-109.75C86,-99.87 86,-83.9 86,-74.09"/>
</g>
</g>
</svg>
