<?xml version="1.0" encoding="UTF-8" standalone="no"?>
<!DOCTYPE svg PUBLIC "-//W3C//DTD SVG 1.1//EN"
 "http://www.w3.org/Graphics/SVG/1.1/DTD/svg11.dtd">
<!-- Generated by graphviz version 2.43.0 (0)
 -->
<!-- Title: opp Pages: 1 -->
<svg width="907pt" height="137pt"
 viewBox="0.00 0.00 907.00 137.00" xmlns="http://www.w3.org/2000/svg" xmlns:xlink="http://www.w3.org/1999/xlink">
<g id="graph0" class="graph" transform="scale(1 1) rotate(0) translate(4 133)">
<title>opp</title>
<polygon fill="transparent" stroke="transparent" points="-4,4 -4,-133 903,-133 903,4 -4,4"/>
<!-- Ipv4Option -->
<g id="node1" class="node">
<title>Ipv4Option</title>
<g id="a_node1"><a xlink:href="src-inet-networklayer-ipv4-Ipv4Option.html" xlink:title="Class Ipv4Option" target="_parent">
<polygon fill="#fff700" stroke="black" points="461,-74 391,-74 391,-55 461,-55 461,-74"/>
<text text-anchor="middle" x="426" y="-62" font-family="Helvetica,sans-Serif" font-size="10.00">Ipv4Option</text>
</a>
</g>
</g>
<!-- Ipv4OptionEnd -->
<g id="node3" class="node">
<title>Ipv4OptionEnd</title>
<g id="a_node3"><a xlink:href="src-inet-networklayer-ipv4-Ipv4OptionEnd.html" xlink:title="Class Ipv4OptionEnd" target="_parent">
<polygon fill="#fffcaf" stroke="black" points="88,-19 0,-19 0,0 88,0 88,-19"/>
<text text-anchor="middle" x="44" y="-7" font-family="Helvetica,sans-Serif" font-size="10.00">Ipv4OptionEnd</text>
</a>
</g>
</g>
<!-- Ipv4Option&#45;&gt;Ipv4OptionEnd -->
<g id="edge2" class="edge">
<title>Ipv4Option&#45;&gt;Ipv4OptionEnd</title>
<path fill="none" stroke="black" d="M390.79,-59.08C330.4,-51.43 203.21,-34.99 96,-19 93.47,-18.62 90.87,-18.23 88.24,-17.82"/>
</g>
<!-- Ipv4OptionNop -->
<g id="node4" class="node">
<title>Ipv4OptionNop</title>
<g id="a_node4"><a xlink:href="src-inet-networklayer-ipv4-Ipv4OptionNop.html" xlink:title="Class Ipv4OptionNop" target="_parent">
<polygon fill="#fffcaf" stroke="black" points="194.5,-19 105.5,-19 105.5,0 194.5,0 194.5,-19"/>
<text text-anchor="middle" x="150" y="-7" font-family="Helvetica,sans-Serif" font-size="10.00">Ipv4OptionNop</text>
</a>
</g>
</g>
<!-- Ipv4Option&#45;&gt;Ipv4OptionNop -->
<g id="edge3" class="edge">
<title>Ipv4Option&#45;&gt;Ipv4OptionNop</title>
<path fill="none" stroke="black" d="M390.76,-56.73C340.77,-47.13 249.27,-29.56 194.61,-19.07"/>
</g>
<!-- Ipv4OptionRecordRoute -->
<g id="node5" class="node">
<title>Ipv4OptionRecordRoute</title>
<g id="a_node5"><a xlink:href="src-inet-networklayer-ipv4-Ipv4OptionRecordRoute.html" xlink:title="Class Ipv4OptionRecordRoute" target="_parent">
<polygon fill="#fffcaf" stroke="black" points="345,-19 213,-19 213,0 345,0 345,-19"/>
<text text-anchor="middle" x="279" y="-7" font-family="Helvetica,sans-Serif" font-size="10.00">Ipv4OptionRecordRoute</text>
</a>
</g>
</g>
<!-- Ipv4Option&#45;&gt;Ipv4OptionRecordRoute -->
<g id="edge4" class="edge">
<title>Ipv4Option&#45;&gt;Ipv4OptionRecordRoute</title>
<path fill="none" stroke="black" d="M402.38,-54.98C375.11,-45.15 330.5,-29.07 303.05,-19.17"/>
</g>
<!-- Ipv4OptionRouterAlert -->
<g id="node6" class="node">
<title>Ipv4OptionRouterAlert</title>
<g id="a_node6"><a xlink:href="src-inet-networklayer-ipv4-Ipv4OptionRouterAlert.html" xlink:title="Class Ipv4OptionRouterAlert" target="_parent">
<polygon fill="#fffcaf" stroke="black" points="488.5,-19 363.5,-19 363.5,0 488.5,0 488.5,-19"/>
<text text-anchor="middle" x="426" y="-7" font-family="Helvetica,sans-Serif" font-size="10.00">Ipv4OptionRouterAlert</text>
</a>
</g>
</g>
<!-- Ipv4Option&#45;&gt;Ipv4OptionRouterAlert -->
<g id="edge5" class="edge">
<title>Ipv4Option&#45;&gt;Ipv4OptionRouterAlert</title>
<path fill="none" stroke="black" d="M426,-54.75C426,-44.87 426,-28.9 426,-19.09"/>
</g>
<!-- Ipv4OptionStreamId -->
<g id="node7" class="node">
<title>Ipv4OptionStreamId</title>
<g id="a_node7"><a xlink:href="src-inet-networklayer-ipv4-Ipv4OptionStreamId.html" xlink:title="Class Ipv4OptionStreamId" target="_parent">
<polygon fill="#fffcaf" stroke="black" points="621,-19 507,-19 507,0 621,0 621,-19"/>
<text text-anchor="middle" x="564" y="-7" font-family="Helvetica,sans-Serif" font-size="10.00">Ipv4OptionStreamId</text>
</a>
</g>
</g>
<!-- Ipv4Option&#45;&gt;Ipv4OptionStreamId -->
<g id="edge6" class="edge">
<title>Ipv4Option&#45;&gt;Ipv4OptionStreamId</title>
<path fill="none" stroke="black" d="M448.17,-54.98C473.77,-45.15 515.65,-29.07 541.42,-19.17"/>
</g>
<!-- Ipv4OptionTimestamp -->
<g id="node8" class="node">
<title>Ipv4OptionTimestamp</title>
<g id="a_node8"><a xlink:href="src-inet-networklayer-ipv4-Ipv4OptionTimestamp.html" xlink:title="Class Ipv4OptionTimestamp" target="_parent">
<polygon fill="#fffcaf" stroke="black" points="764.5,-19 639.5,-19 639.5,0 764.5,0 764.5,-19"/>
<text text-anchor="middle" x="702" y="-7" font-family="Helvetica,sans-Serif" font-size="10.00">Ipv4OptionTimestamp</text>
</a>
</g>
</g>
<!-- Ipv4Option&#45;&gt;Ipv4OptionTimestamp -->
<g id="edge7" class="edge">
<title>Ipv4Option&#45;&gt;Ipv4OptionTimestamp</title>
<path fill="none" stroke="black" d="M461.24,-56.73C511.23,-47.13 602.73,-29.56 657.39,-19.07"/>
</g>
<!-- Ipv4OptionUnknown -->
<g id="node9" class="node">
<title>Ipv4OptionUnknown</title>
<g id="a_node9"><a xlink:href="src-inet-networklayer-ipv4-Ipv4OptionUnknown.html" xlink:title="Class Ipv4OptionUnknown" target="_parent">
<polygon fill="#fffcaf" stroke="black" points="899,-19 783,-19 783,0 899,0 899,-19"/>
<text text-anchor="middle" x="841" y="-7" font-family="Helvetica,sans-Serif" font-size="10.00">Ipv4OptionUnknown</text>
</a>
</g>
</g>
<!-- Ipv4Option&#45;&gt;Ipv4OptionUnknown -->
<g id="edge8" class="edge">
<title>Ipv4Option&#45;&gt;Ipv4OptionUnknown</title>
<path fill="none" stroke="black" d="M461.03,-59.03C532.35,-49.92 695.09,-29.13 782.66,-17.95"/>
</g>
<!-- TlvOptionBase -->
<g id="node2" class="node">
<title>TlvOptionBase</title>
<g id="a_node2"><a xlink:href="src-inet-common-TlvOptionBase.html" xlink:title="Class TlvOptionBase" target="_parent">
<polygon fill="#fffcaf" stroke="black" points="470,-129 382,-129 382,-110 470,-110 470,-129"/>
<text text-anchor="middle" x="426" y="-117" font-family="Helvetica,sans-Serif" font-size="10.00">TlvOptionBase</text>
</a>
</g>
</g>
<!-- TlvOptionBase&#45;&gt;Ipv4Option -->
<g id="edge1" class="edge">
<title>TlvOptionBase&#45;&gt;Ipv4Option</title>
<path fill="none" stroke="black" d="M426,-109.75C426,-99.87 426,-83.9 426,-74.09"/>
</g>
</g>
</svg>
