<?xml version="1.0" encoding="UTF-8" standalone="no"?>
<!DOCTYPE svg PUBLIC "-//W3C//DTD SVG 1.1//EN"
 "http://www.w3.org/Graphics/SVG/1.1/DTD/svg11.dtd">
<!-- Generated by graphviz version 2.43.0 (0)
 -->
<!-- Title: opp Pages: 1 -->
<svg width="382pt" height="82pt"
 viewBox="0.00 0.00 382.00 82.00" xmlns="http://www.w3.org/2000/svg" xmlns:xlink="http://www.w3.org/1999/xlink">
<g id="graph0" class="graph" transform="scale(1 1) rotate(0) translate(4 78)">
<title>opp</title>
<polygon fill="transparent" stroke="transparent" points="-4,4 -4,-78 378,-78 378,4 -4,4"/>
<!-- Ieee80211BeaconFrame -->
<g id="node1" class="node">
<title>Ieee80211BeaconFrame</title>
<g id="a_node1"><a xlink:href="src-inet-linklayer-ieee80211-mgmt-Ieee80211BeaconFrame.html" xlink:title="Class Ieee80211BeaconFrame" target="_parent">
<polygon fill="#fff700" stroke="black" points="257.5,-74 123.5,-74 123.5,-55 257.5,-55 257.5,-74"/>
<text text-anchor="middle" x="190.5" y="-62" font-family="Helvetica,sans-Serif" font-size="10.00">Ieee80211BeaconFrame</text>
</a>
</g>
</g>
<!-- Ieee80211SupportedRatesElement -->
<g id="node2" class="node">
<title>Ieee80211SupportedRatesElement</title>
<g id="a_node2"><a xlink:href="src-inet-linklayer-ieee80211-mgmt-Ieee80211SupportedRatesElement.html" xlink:title="Struct Ieee80211SupportedRatesElement" target="_parent">
<polygon fill="#d0d0ff" stroke="black" points="185,-19 0,-19 0,0 185,0 185,-19"/>
<text text-anchor="middle" x="92.5" y="-7" font-family="Helvetica,sans-Serif" font-size="10.00">Ieee80211SupportedRatesElement</text>
</a>
</g>
</g>
<!-- Ieee80211BeaconFrame&#45;&gt;Ieee80211SupportedRatesElement -->
<g id="edge1" class="edge">
<title>Ieee80211BeaconFrame&#45;&gt;Ieee80211SupportedRatesElement</title>
<path fill="none" stroke="black" d="M174.75,-54.98C159.27,-46.61 135.41,-33.7 117.36,-23.95"/>
<polygon fill="black" stroke="black" points="118.99,-20.85 108.53,-19.17 115.66,-27.01 118.99,-20.85"/>
</g>
<!-- Ieee80211HandoverParameters -->
<g id="node3" class="node">
<title>Ieee80211HandoverParameters</title>
<g id="a_node3"><a xlink:href="src-inet-linklayer-ieee80211-mgmt-Ieee80211HandoverParameters.html" xlink:title="Struct Ieee80211HandoverParameters" target="_parent">
<polygon fill="#d0d0ff" stroke="black" points="374,-19 203,-19 203,0 374,0 374,-19"/>
<text text-anchor="middle" x="288.5" y="-7" font-family="Helvetica,sans-Serif" font-size="10.00">Ieee80211HandoverParameters</text>
</a>
</g>
</g>
<!-- Ieee80211BeaconFrame&#45;&gt;Ieee80211HandoverParameters -->
<g id="edge2" class="edge">
<title>Ieee80211BeaconFrame&#45;&gt;Ieee80211HandoverParameters</title>
<path fill="none" stroke="black" d="M206.25,-54.98C221.73,-46.61 245.59,-33.7 263.64,-23.95"/>
<polygon fill="black" stroke="black" points="265.34,-27.01 272.47,-19.17 262.01,-20.85 265.34,-27.01"/>
</g>
</g>
</svg>
