<?xml version="1.0" encoding="UTF-8" standalone="no"?>
<!DOCTYPE svg PUBLIC "-//W3C//DTD SVG 1.1//EN"
 "http://www.w3.org/Graphics/SVG/1.1/DTD/svg11.dtd">
<!-- Generated by graphviz version 2.43.0 (0)
 -->
<!-- Title: opp Pages: 1 -->
<svg width="998pt" height="137pt"
 viewBox="0.00 0.00 998.00 137.00" xmlns="http://www.w3.org/2000/svg" xmlns:xlink="http://www.w3.org/1999/xlink">
<g id="graph0" class="graph" transform="scale(1 1) rotate(0) translate(4 133)">
<title>opp</title>
<polygon fill="transparent" stroke="transparent" points="-4,4 -4,-133 994,-133 994,4 -4,4"/>
<!-- Ieee80211PhyPreamble -->
<g id="node1" class="node">
<title>Ieee80211PhyPreamble</title>
<g id="a_node1"><a xlink:href="src-inet-physicallayer-wireless-ieee80211-packetlevel-Ieee80211PhyPreamble.html" xlink:title="Class Ieee80211PhyPreamble" target="_parent">
<polygon fill="#fff700" stroke="black" points="562.5,-74 430.5,-74 430.5,-55 562.5,-55 562.5,-74"/>
<text text-anchor="middle" x="496.5" y="-62" font-family="Helvetica,sans-Serif" font-size="10.00">Ieee80211PhyPreamble</text>
</a>
</g>
</g>
<!-- Ieee80211DsssPhyPreamble -->
<g id="node3" class="node">
<title>Ieee80211DsssPhyPreamble</title>
<g id="a_node3"><a xlink:href="src-inet-physicallayer-wireless-ieee80211-packetlevel-Ieee80211DsssPhyPreamble.html" xlink:title="Class Ieee80211DsssPhyPreamble" target="_parent">
<polygon fill="#fffcaf" stroke="black" points="155,-19 0,-19 0,0 155,0 155,-19"/>
<text text-anchor="middle" x="77.5" y="-7" font-family="Helvetica,sans-Serif" font-size="10.00">Ieee80211DsssPhyPreamble</text>
</a>
</g>
</g>
<!-- Ieee80211PhyPreamble&#45;&gt;Ieee80211DsssPhyPreamble -->
<g id="edge2" class="edge">
<title>Ieee80211PhyPreamble&#45;&gt;Ieee80211DsssPhyPreamble</title>
<path fill="none" stroke="black" d="M430.11,-55.1C352.11,-45.24 223.43,-28.96 144.97,-19.03"/>
</g>
<!-- Ieee80211FhssPhyPreamble -->
<g id="node4" class="node">
<title>Ieee80211FhssPhyPreamble</title>
<g id="a_node4"><a xlink:href="src-inet-physicallayer-wireless-ieee80211-packetlevel-Ieee80211FhssPhyPreamble.html" xlink:title="Class Ieee80211FhssPhyPreamble" target="_parent">
<polygon fill="#fffcaf" stroke="black" points="328,-19 173,-19 173,0 328,0 328,-19"/>
<text text-anchor="middle" x="250.5" y="-7" font-family="Helvetica,sans-Serif" font-size="10.00">Ieee80211FhssPhyPreamble</text>
</a>
</g>
</g>
<!-- Ieee80211PhyPreamble&#45;&gt;Ieee80211FhssPhyPreamble -->
<g id="edge3" class="edge">
<title>Ieee80211PhyPreamble&#45;&gt;Ieee80211FhssPhyPreamble</title>
<path fill="none" stroke="black" d="M456.98,-54.98C411.21,-45.12 336.24,-28.97 290.33,-19.08"/>
</g>
<!-- Ieee80211HtPhyPreamble -->
<g id="node5" class="node">
<title>Ieee80211HtPhyPreamble</title>
<g id="a_node5"><a xlink:href="src-inet-physicallayer-wireless-ieee80211-packetlevel-Ieee80211HtPhyPreamble.html" xlink:title="Class Ieee80211HtPhyPreamble" target="_parent">
<polygon fill="#fffcaf" stroke="black" points="489,-19 346,-19 346,0 489,0 489,-19"/>
<text text-anchor="middle" x="417.5" y="-7" font-family="Helvetica,sans-Serif" font-size="10.00">Ieee80211HtPhyPreamble</text>
</a>
</g>
</g>
<!-- Ieee80211PhyPreamble&#45;&gt;Ieee80211HtPhyPreamble -->
<g id="edge4" class="edge">
<title>Ieee80211PhyPreamble&#45;&gt;Ieee80211HtPhyPreamble</title>
<path fill="none" stroke="black" d="M483.81,-54.98C469.15,-45.15 445.18,-29.07 430.42,-19.17"/>
</g>
<!-- Ieee80211IrPhyPreamble -->
<g id="node6" class="node">
<title>Ieee80211IrPhyPreamble</title>
<g id="a_node6"><a xlink:href="src-inet-physicallayer-wireless-ieee80211-packetlevel-Ieee80211IrPhyPreamble.html" xlink:title="Class Ieee80211IrPhyPreamble" target="_parent">
<polygon fill="#fffcaf" stroke="black" points="646,-19 507,-19 507,0 646,0 646,-19"/>
<text text-anchor="middle" x="576.5" y="-7" font-family="Helvetica,sans-Serif" font-size="10.00">Ieee80211IrPhyPreamble</text>
</a>
</g>
</g>
<!-- Ieee80211PhyPreamble&#45;&gt;Ieee80211IrPhyPreamble -->
<g id="edge5" class="edge">
<title>Ieee80211PhyPreamble&#45;&gt;Ieee80211IrPhyPreamble</title>
<path fill="none" stroke="black" d="M509.35,-54.98C524.19,-45.15 548.47,-29.07 563.41,-19.17"/>
</g>
<!-- Ieee80211OfdmPhyPreamble -->
<g id="node7" class="node">
<title>Ieee80211OfdmPhyPreamble</title>
<g id="a_node7"><a xlink:href="src-inet-physicallayer-wireless-ieee80211-packetlevel-Ieee80211OfdmPhyPreamble.html" xlink:title="Class Ieee80211OfdmPhyPreamble" target="_parent">
<polygon fill="#fffcaf" stroke="black" points="823,-19 664,-19 664,0 823,0 823,-19"/>
<text text-anchor="middle" x="743.5" y="-7" font-family="Helvetica,sans-Serif" font-size="10.00">Ieee80211OfdmPhyPreamble</text>
</a>
</g>
</g>
<!-- Ieee80211PhyPreamble&#45;&gt;Ieee80211OfdmPhyPreamble -->
<g id="edge6" class="edge">
<title>Ieee80211PhyPreamble&#45;&gt;Ieee80211OfdmPhyPreamble</title>
<path fill="none" stroke="black" d="M536.18,-54.98C582.14,-45.12 657.42,-28.97 703.5,-19.08"/>
</g>
<!-- Ieee80211VhtPhyPreamble -->
<g id="node8" class="node">
<title>Ieee80211VhtPhyPreamble</title>
<g id="a_node8"><a xlink:href="src-inet-physicallayer-wireless-ieee80211-packetlevel-Ieee80211VhtPhyPreamble.html" xlink:title="Class Ieee80211VhtPhyPreamble" target="_parent">
<polygon fill="#fffcaf" stroke="black" points="990,-19 841,-19 841,0 990,0 990,-19"/>
<text text-anchor="middle" x="915.5" y="-7" font-family="Helvetica,sans-Serif" font-size="10.00">Ieee80211VhtPhyPreamble</text>
</a>
</g>
</g>
<!-- Ieee80211PhyPreamble&#45;&gt;Ieee80211VhtPhyPreamble -->
<g id="edge7" class="edge">
<title>Ieee80211PhyPreamble&#45;&gt;Ieee80211VhtPhyPreamble</title>
<path fill="none" stroke="black" d="M562.89,-55.1C640.89,-45.24 769.57,-28.96 848.03,-19.03"/>
</g>
<!-- FieldsChunk -->
<g id="node2" class="node">
<title>FieldsChunk</title>
<g id="a_node2"><a xlink:href="src-inet-common-packet-chunk-FieldsChunk.html" xlink:title="Class FieldsChunk" target="_parent">
<polygon fill="#fffcaf" stroke="black" points="534,-129 459,-129 459,-110 534,-110 534,-129"/>
<text text-anchor="middle" x="496.5" y="-117" font-family="Helvetica,sans-Serif" font-size="10.00">FieldsChunk</text>
</a>
</g>
</g>
<!-- FieldsChunk&#45;&gt;Ieee80211PhyPreamble -->
<g id="edge1" class="edge">
<title>FieldsChunk&#45;&gt;Ieee80211PhyPreamble</title>
<path fill="none" stroke="black" d="M496.5,-109.75C496.5,-99.87 496.5,-83.9 496.5,-74.09"/>
</g>
</g>
</svg>
