<?xml version="1.0" encoding="UTF-8" standalone="no"?>
<!DOCTYPE svg PUBLIC "-//W3C//DTD SVG 1.1//EN"
 "http://www.w3.org/Graphics/SVG/1.1/DTD/svg11.dtd">
<!-- Generated by graphviz version 2.43.0 (0)
 -->
<!-- Title: opp Pages: 1 -->
<svg width="343pt" height="137pt"
 viewBox="0.00 0.00 342.50 137.00" xmlns="http://www.w3.org/2000/svg" xmlns:xlink="http://www.w3.org/1999/xlink">
<g id="graph0" class="graph" transform="scale(1 1) rotate(0) translate(4 133)">
<title>opp</title>
<polygon fill="transparent" stroke="transparent" points="-4,4 -4,-133 338.5,-133 338.5,4 -4,4"/>
<!-- AddressBlock -->
<g id="node1" class="node">
<title>AddressBlock</title>
<g id="a_node1"><a xlink:href="src-inet-routing-dymo-AddressBlock.html" xlink:title="Class AddressBlock" target="_parent">
<polygon fill="#fff700" stroke="black" points="241.5,-74 158.5,-74 158.5,-55 241.5,-55 241.5,-74"/>
<text text-anchor="middle" x="200" y="-62" font-family="Helvetica,sans-Serif" font-size="10.00">AddressBlock</text>
</a>
</g>
</g>
<!-- DymoSequenceNumber -->
<g id="node2" class="node">
<title>DymoSequenceNumber</title>
<g id="a_node2"><a xlink:href="src-inet-routing-dymo-DymoSequenceNumber.html" xlink:title="Class DymoSequenceNumber" target="_parent">
<polygon fill="#fffcaf" stroke="black" points="132,-19 0,-19 0,0 132,0 132,-19"/>
<text text-anchor="middle" x="66" y="-7" font-family="Helvetica,sans-Serif" font-size="10.00">DymoSequenceNumber</text>
</a>
</g>
</g>
<!-- AddressBlock&#45;&gt;DymoSequenceNumber -->
<g id="edge1" class="edge">
<title>AddressBlock&#45;&gt;DymoSequenceNumber</title>
<path fill="none" stroke="black" d="M178.47,-54.98C156.53,-46.3 122.26,-32.75 97.31,-22.88"/>
<polygon fill="black" stroke="black" points="98.51,-19.59 87.92,-19.17 95.93,-26.1 98.51,-19.59"/>
</g>
<!-- DymoMetricType -->
<g id="node3" class="node">
<title>DymoMetricType</title>
<g id="a_node3"><a xlink:href="src-inet-routing-dymo-DymoMetricType.html" xlink:title="Enum DymoMetricType" target="_parent">
<polygon fill="#d0ffd0" stroke="black" points="249.5,-19 150.5,-19 150.5,0 249.5,0 249.5,-19"/>
<text text-anchor="middle" x="200" y="-7" font-family="Helvetica,sans-Serif" font-size="10.00">DymoMetricType</text>
</a>
</g>
</g>
<!-- AddressBlock&#45;&gt;DymoMetricType -->
<g id="edge2" class="edge">
<title>AddressBlock&#45;&gt;DymoMetricType</title>
<path fill="none" stroke="black" d="M200,-54.75C200,-47.8 200,-37.85 200,-29.13"/>
<polygon fill="black" stroke="black" points="203.5,-29.09 200,-19.09 196.5,-29.09 203.5,-29.09"/>
</g>
<!-- L3Address -->
<g id="node4" class="node">
<title>L3Address</title>
<g id="a_node4"><a xlink:href="src-inet-networklayer-common-L3Address.html" xlink:title="Class L3Address" target="_parent">
<polygon fill="#fffcaf" stroke="black" points="334.5,-19 267.5,-19 267.5,0 334.5,0 334.5,-19"/>
<text text-anchor="middle" x="301" y="-7" font-family="Helvetica,sans-Serif" font-size="10.00">L3Address</text>
</a>
</g>
</g>
<!-- AddressBlock&#45;&gt;L3Address -->
<g id="edge3" class="edge">
<title>AddressBlock&#45;&gt;L3Address</title>
<path fill="none" stroke="black" d="M216.23,-54.98C232.18,-46.61 256.78,-33.7 275.38,-23.95"/>
<polygon fill="black" stroke="black" points="277.25,-26.92 284.48,-19.17 274,-20.72 277.25,-26.92"/>
</g>
<!-- Rerr -->
<g id="node5" class="node">
<title>Rerr</title>
<g id="a_node5"><a xlink:href="src-inet-routing-dymo-Rerr.html" xlink:title="Class Rerr" target="_parent">
<polygon fill="#fffcaf" stroke="black" points="191,-129 137,-129 137,-110 191,-110 191,-129"/>
<text text-anchor="middle" x="164" y="-117" font-family="Helvetica,sans-Serif" font-size="10.00">Rerr</text>
</a>
</g>
</g>
<!-- Rerr&#45;&gt;AddressBlock -->
<g id="edge4" class="edge">
<title>Rerr&#45;&gt;AddressBlock</title>
<path fill="none" stroke="black" d="M169.94,-109.75C174.98,-102.34 182.34,-91.5 188.51,-82.41"/>
<polygon fill="black" stroke="black" points="191.44,-84.33 194.17,-74.09 185.65,-80.39 191.44,-84.33"/>
</g>
<!-- RteMsg -->
<g id="node6" class="node">
<title>RteMsg</title>
<g id="a_node6"><a xlink:href="src-inet-routing-dymo-RteMsg.html" xlink:title="Class RteMsg" target="_parent">
<polygon fill="#fffcaf" stroke="black" points="263,-129 209,-129 209,-110 263,-110 263,-129"/>
<text text-anchor="middle" x="236" y="-117" font-family="Helvetica,sans-Serif" font-size="10.00">RteMsg</text>
</a>
</g>
</g>
<!-- RteMsg&#45;&gt;AddressBlock -->
<g id="edge5" class="edge">
<title>RteMsg&#45;&gt;AddressBlock</title>
<path fill="none" stroke="black" d="M230.06,-109.75C225.02,-102.34 217.66,-91.5 211.49,-82.41"/>
<polygon fill="black" stroke="black" points="214.35,-80.39 205.83,-74.09 208.56,-84.33 214.35,-80.39"/>
</g>
</g>
</svg>
