<?xml version="1.0" encoding="UTF-8" standalone="no"?>
<!DOCTYPE svg PUBLIC "-//W3C//DTD SVG 1.1//EN"
 "http://www.w3.org/Graphics/SVG/1.1/DTD/svg11.dtd">
<!-- Generated by graphviz version 2.43.0 (0)
 -->
<!-- Title: opp Pages: 1 -->
<svg width="208pt" height="137pt"
 viewBox="0.00 0.00 207.50 137.00" xmlns="http://www.w3.org/2000/svg" xmlns:xlink="http://www.w3.org/1999/xlink">
<g id="graph0" class="graph" transform="scale(1 1) rotate(0) translate(4 133)">
<title>opp</title>
<polygon fill="transparent" stroke="transparent" points="-4,4 -4,-133 203.5,-133 203.5,4 -4,4"/>
<!-- Ieee802SapTagBase -->
<g id="node1" class="node">
<title>Ieee802SapTagBase</title>
<g id="a_node1"><a xlink:href="src-inet-linklayer-common-Ieee802SapTagBase.html" xlink:title="Class Ieee802SapTagBase" target="_parent">
<polygon fill="#fff700" stroke="black" points="155.5,-74 41.5,-74 41.5,-55 155.5,-55 155.5,-74"/>
<text text-anchor="middle" x="98.5" y="-62" font-family="Helvetica,sans-Serif" font-size="10.00">Ieee802SapTagBase</text>
</a>
</g>
</g>
<!-- Ieee802SapInd -->
<g id="node3" class="node">
<title>Ieee802SapInd</title>
<g id="a_node3"><a xlink:href="src-inet-linklayer-common-Ieee802SapInd.html" xlink:title="Class Ieee802SapInd" target="_parent">
<polygon fill="#fffcaf" stroke="black" points="89,-19 0,-19 0,0 89,0 89,-19"/>
<text text-anchor="middle" x="44.5" y="-7" font-family="Helvetica,sans-Serif" font-size="10.00">Ieee802SapInd</text>
</a>
</g>
</g>
<!-- Ieee802SapTagBase&#45;&gt;Ieee802SapInd -->
<g id="edge2" class="edge">
<title>Ieee802SapTagBase&#45;&gt;Ieee802SapInd</title>
<path fill="none" stroke="black" d="M89.58,-54.75C79.52,-44.87 63.25,-28.9 53.25,-19.09"/>
</g>
<!-- Ieee802SapReq -->
<g id="node4" class="node">
<title>Ieee802SapReq</title>
<g id="a_node4"><a xlink:href="src-inet-linklayer-common-Ieee802SapReq.html" xlink:title="Class Ieee802SapReq" target="_parent">
<polygon fill="#fffcaf" stroke="black" points="199.5,-19 107.5,-19 107.5,0 199.5,0 199.5,-19"/>
<text text-anchor="middle" x="153.5" y="-7" font-family="Helvetica,sans-Serif" font-size="10.00">Ieee802SapReq</text>
</a>
</g>
</g>
<!-- Ieee802SapTagBase&#45;&gt;Ieee802SapReq -->
<g id="edge3" class="edge">
<title>Ieee802SapTagBase&#45;&gt;Ieee802SapReq</title>
<path fill="none" stroke="black" d="M107.58,-54.75C117.83,-44.87 134.41,-28.9 144.59,-19.09"/>
</g>
<!-- TagBase -->
<g id="node2" class="node">
<title>TagBase</title>
<g id="a_node2"><a xlink:href="src-inet-common-TagBase.html" xlink:title="Class TagBase" target="_parent">
<polygon fill="#fffcaf" stroke="black" points="127,-129 70,-129 70,-110 127,-110 127,-129"/>
<text text-anchor="middle" x="98.5" y="-117" font-family="Helvetica,sans-Serif" font-size="10.00">TagBase</text>
</a>
</g>
</g>
<!-- TagBase&#45;&gt;Ieee802SapTagBase -->
<g id="edge1" class="edge">
<title>TagBase&#45;&gt;Ieee802SapTagBase</title>
<path fill="none" stroke="black" d="M98.5,-109.75C98.5,-99.87 98.5,-83.9 98.5,-74.09"/>
</g>
</g>
</svg>
