<?xml version="1.0" encoding="UTF-8" standalone="no"?>
<!DOCTYPE svg PUBLIC "-//W3C//DTD SVG 1.1//EN"
 "http://www.w3.org/Graphics/SVG/1.1/DTD/svg11.dtd">
<!-- Generated by graphviz version 2.43.0 (0)
 -->
<!-- Title: opp Pages: 1 -->
<svg width="237pt" height="82pt"
 viewBox="0.00 0.00 237.00 82.00" xmlns="http://www.w3.org/2000/svg" xmlns:xlink="http://www.w3.org/1999/xlink">
<g id="graph0" class="graph" transform="scale(1 1) rotate(0) translate(4 78)">
<title>opp</title>
<polygon fill="transparent" stroke="transparent" points="-4,4 -4,-78 233,-78 233,4 -4,4"/>
<!-- Ieee80211Prim_DeauthenticateRequest -->
<g id="node1" class="node">
<title>Ieee80211Prim_DeauthenticateRequest</title>
<g id="a_node1"><a xlink:href="src-inet-linklayer-ieee80211-mgmt-Ieee80211Prim_DeauthenticateRequest.html" xlink:title="Class Ieee80211Prim_DeauthenticateRequest" target="_parent">
<polygon fill="#fff700" stroke="black" points="210,-74 0,-74 0,-55 210,-55 210,-74"/>
<text text-anchor="middle" x="105" y="-62" font-family="Helvetica,sans-Serif" font-size="10.00">Ieee80211Prim_DeauthenticateRequest</text>
</a>
</g>
</g>
<!-- MacAddress -->
<g id="node2" class="node">
<title>MacAddress</title>
<g id="a_node2"><a xlink:href="src-inet-linklayer-common-MacAddress.html" xlink:title="Class MacAddress" target="_parent">
<polygon fill="#fffcaf" stroke="black" points="83,-19 7,-19 7,0 83,0 83,-19"/>
<text text-anchor="middle" x="45" y="-7" font-family="Helvetica,sans-Serif" font-size="10.00">MacAddress</text>
</a>
</g>
</g>
<!-- Ieee80211Prim_DeauthenticateRequest&#45;&gt;MacAddress -->
<g id="edge1" class="edge">
<title>Ieee80211Prim_DeauthenticateRequest&#45;&gt;MacAddress</title>
<path fill="none" stroke="black" d="M95.36,-54.98C86.49,-47.15 73.13,-35.34 62.39,-25.86"/>
<polygon fill="black" stroke="black" points="64.63,-23.17 54.82,-19.17 59.99,-28.41 64.63,-23.17"/>
</g>
<!-- Ieee80211ReasonCode -->
<g id="node3" class="node">
<title>Ieee80211ReasonCode</title>
<g id="a_node3"><a xlink:href="src-inet-linklayer-ieee80211-mgmt-Ieee80211ReasonCode.html" xlink:title="Enum Ieee80211ReasonCode" target="_parent">
<polygon fill="#d0ffd0" stroke="black" points="229,-19 101,-19 101,0 229,0 229,-19"/>
<text text-anchor="middle" x="165" y="-7" font-family="Helvetica,sans-Serif" font-size="10.00">Ieee80211ReasonCode</text>
</a>
</g>
</g>
<!-- Ieee80211Prim_DeauthenticateRequest&#45;&gt;Ieee80211ReasonCode -->
<g id="edge2" class="edge">
<title>Ieee80211Prim_DeauthenticateRequest&#45;&gt;Ieee80211ReasonCode</title>
<path fill="none" stroke="black" d="M114.64,-54.98C123.51,-47.15 136.87,-35.34 147.61,-25.86"/>
<polygon fill="black" stroke="black" points="150.01,-28.41 155.18,-19.17 145.37,-23.17 150.01,-28.41"/>
</g>
</g>
</svg>
