<?xml version="1.0" encoding="UTF-8" standalone="no"?>
<!DOCTYPE svg PUBLIC "-//W3C//DTD SVG 1.1//EN"
 "http://www.w3.org/Graphics/SVG/1.1/DTD/svg11.dtd">
<!-- Generated by graphviz version 2.43.0 (0)
 -->
<!-- Title: opp Pages: 1 -->
<svg width="1334pt" height="137pt"
 viewBox="0.00 0.00 1334.00 137.00" xmlns="http://www.w3.org/2000/svg" xmlns:xlink="http://www.w3.org/1999/xlink">
<g id="graph0" class="graph" transform="scale(1 1) rotate(0) translate(4 133)">
<title>opp</title>
<polygon fill="transparent" stroke="transparent" points="-4,4 -4,-133 1330,-133 1330,4 -4,4"/>
<!-- Ieee80211MgmtFrame -->
<g id="node1" class="node">
<title>Ieee80211MgmtFrame</title>
<g id="a_node1"><a xlink:href="src-inet-linklayer-ieee80211-mgmt-Ieee80211MgmtFrame.html" xlink:title="Class Ieee80211MgmtFrame" target="_parent">
<polygon fill="#fff700" stroke="black" points="750.5,-74 623.5,-74 623.5,-55 750.5,-55 750.5,-74"/>
<text text-anchor="middle" x="687" y="-62" font-family="Helvetica,sans-Serif" font-size="10.00">Ieee80211MgmtFrame</text>
</a>
</g>
</g>
<!-- Ieee80211AssociationRequestFrame -->
<g id="node3" class="node">
<title>Ieee80211AssociationRequestFrame</title>
<g id="a_node3"><a xlink:href="src-inet-linklayer-ieee80211-mgmt-Ieee80211AssociationRequestFrame.html" xlink:title="Class Ieee80211AssociationRequestFrame" target="_parent">
<polygon fill="#fffcaf" stroke="black" points="194,-19 0,-19 0,0 194,0 194,-19"/>
<text text-anchor="middle" x="97" y="-7" font-family="Helvetica,sans-Serif" font-size="10.00">Ieee80211AssociationRequestFrame</text>
</a>
</g>
</g>
<!-- Ieee80211MgmtFrame&#45;&gt;Ieee80211AssociationRequestFrame -->
<g id="edge2" class="edge">
<title>Ieee80211MgmtFrame&#45;&gt;Ieee80211AssociationRequestFrame</title>
<path fill="none" stroke="black" d="M623.3,-57.78C519.38,-48.44 312.85,-29.89 191.7,-19.01"/>
</g>
<!-- Ieee80211AssociationResponseFrame -->
<g id="node4" class="node">
<title>Ieee80211AssociationResponseFrame</title>
<g id="a_node4"><a xlink:href="src-inet-linklayer-ieee80211-mgmt-Ieee80211AssociationResponseFrame.html" xlink:title="Class Ieee80211AssociationResponseFrame" target="_parent">
<polygon fill="#fffcaf" stroke="black" points="414,-19 212,-19 212,0 414,0 414,-19"/>
<text text-anchor="middle" x="313" y="-7" font-family="Helvetica,sans-Serif" font-size="10.00">Ieee80211AssociationResponseFrame</text>
</a>
</g>
</g>
<!-- Ieee80211MgmtFrame&#45;&gt;Ieee80211AssociationResponseFrame -->
<g id="edge3" class="edge">
<title>Ieee80211MgmtFrame&#45;&gt;Ieee80211AssociationResponseFrame</title>
<path fill="none" stroke="black" d="M626.91,-54.98C557.22,-45.11 443.01,-28.92 373.25,-19.04"/>
</g>
<!-- Ieee80211AuthenticationFrame -->
<g id="node5" class="node">
<title>Ieee80211AuthenticationFrame</title>
<g id="a_node5"><a xlink:href="src-inet-linklayer-ieee80211-mgmt-Ieee80211AuthenticationFrame.html" xlink:title="Class Ieee80211AuthenticationFrame" target="_parent">
<polygon fill="#fffcaf" stroke="black" points="602,-19 432,-19 432,0 602,0 602,-19"/>
<text text-anchor="middle" x="517" y="-7" font-family="Helvetica,sans-Serif" font-size="10.00">Ieee80211AuthenticationFrame</text>
</a>
</g>
</g>
<!-- Ieee80211MgmtFrame&#45;&gt;Ieee80211AuthenticationFrame -->
<g id="edge4" class="edge">
<title>Ieee80211MgmtFrame&#45;&gt;Ieee80211AuthenticationFrame</title>
<path fill="none" stroke="black" d="M659.69,-54.98C628.06,-45.12 576.25,-28.97 544.53,-19.08"/>
</g>
<!-- Ieee80211BeaconFrame -->
<g id="node6" class="node">
<title>Ieee80211BeaconFrame</title>
<g id="a_node6"><a xlink:href="src-inet-linklayer-ieee80211-mgmt-Ieee80211BeaconFrame.html" xlink:title="Class Ieee80211BeaconFrame" target="_parent">
<polygon fill="#fffcaf" stroke="black" points="754,-19 620,-19 620,0 754,0 754,-19"/>
<text text-anchor="middle" x="687" y="-7" font-family="Helvetica,sans-Serif" font-size="10.00">Ieee80211BeaconFrame</text>
</a>
</g>
</g>
<!-- Ieee80211MgmtFrame&#45;&gt;Ieee80211BeaconFrame -->
<g id="edge5" class="edge">
<title>Ieee80211MgmtFrame&#45;&gt;Ieee80211BeaconFrame</title>
<path fill="none" stroke="black" d="M687,-54.75C687,-44.87 687,-28.9 687,-19.09"/>
</g>
<!-- Ieee80211DeauthenticationFrame -->
<g id="node7" class="node">
<title>Ieee80211DeauthenticationFrame</title>
<g id="a_node7"><a xlink:href="src-inet-linklayer-ieee80211-mgmt-Ieee80211DeauthenticationFrame.html" xlink:title="Class Ieee80211DeauthenticationFrame" target="_parent">
<polygon fill="#fffcaf" stroke="black" points="954,-19 772,-19 772,0 954,0 954,-19"/>
<text text-anchor="middle" x="863" y="-7" font-family="Helvetica,sans-Serif" font-size="10.00">Ieee80211DeauthenticationFrame</text>
</a>
</g>
</g>
<!-- Ieee80211MgmtFrame&#45;&gt;Ieee80211DeauthenticationFrame -->
<g id="edge6" class="edge">
<title>Ieee80211MgmtFrame&#45;&gt;Ieee80211DeauthenticationFrame</title>
<path fill="none" stroke="black" d="M715.28,-54.98C748.02,-45.12 801.66,-28.97 834.5,-19.08"/>
</g>
<!-- Ieee80211DisassociationFrame -->
<g id="node8" class="node">
<title>Ieee80211DisassociationFrame</title>
<g id="a_node8"><a xlink:href="src-inet-linklayer-ieee80211-mgmt-Ieee80211DisassociationFrame.html" xlink:title="Class Ieee80211DisassociationFrame" target="_parent">
<polygon fill="#fffcaf" stroke="black" points="1142,-19 972,-19 972,0 1142,0 1142,-19"/>
<text text-anchor="middle" x="1057" y="-7" font-family="Helvetica,sans-Serif" font-size="10.00">Ieee80211DisassociationFrame</text>
</a>
</g>
</g>
<!-- Ieee80211MgmtFrame&#45;&gt;Ieee80211DisassociationFrame -->
<g id="edge7" class="edge">
<title>Ieee80211MgmtFrame&#45;&gt;Ieee80211DisassociationFrame</title>
<path fill="none" stroke="black" d="M746.45,-54.98C815.39,-45.11 928.38,-28.92 997.39,-19.04"/>
</g>
<!-- Ieee80211ProbeRequestFrame -->
<g id="node9" class="node">
<title>Ieee80211ProbeRequestFrame</title>
<g id="a_node9"><a xlink:href="src-inet-linklayer-ieee80211-mgmt-Ieee80211ProbeRequestFrame.html" xlink:title="Class Ieee80211ProbeRequestFrame" target="_parent">
<polygon fill="#fffcaf" stroke="black" points="1326,-19 1160,-19 1160,0 1326,0 1326,-19"/>
<text text-anchor="middle" x="1243" y="-7" font-family="Helvetica,sans-Serif" font-size="10.00">Ieee80211ProbeRequestFrame</text>
</a>
</g>
</g>
<!-- Ieee80211MgmtFrame&#45;&gt;Ieee80211ProbeRequestFrame -->
<g id="edge8" class="edge">
<title>Ieee80211MgmtFrame&#45;&gt;Ieee80211ProbeRequestFrame</title>
<path fill="none" stroke="black" d="M750.51,-57.45C851.23,-47.84 1047.64,-29.12 1159.59,-18.45"/>
</g>
<!-- FieldsChunk -->
<g id="node2" class="node">
<title>FieldsChunk</title>
<g id="a_node2"><a xlink:href="src-inet-common-packet-chunk-FieldsChunk.html" xlink:title="Class FieldsChunk" target="_parent">
<polygon fill="#fffcaf" stroke="black" points="724.5,-129 649.5,-129 649.5,-110 724.5,-110 724.5,-129"/>
<text text-anchor="middle" x="687" y="-117" font-family="Helvetica,sans-Serif" font-size="10.00">FieldsChunk</text>
</a>
</g>
</g>
<!-- FieldsChunk&#45;&gt;Ieee80211MgmtFrame -->
<g id="edge1" class="edge">
<title>FieldsChunk&#45;&gt;Ieee80211MgmtFrame</title>
<path fill="none" stroke="black" d="M687,-109.75C687,-99.87 687,-83.9 687,-74.09"/>
</g>
</g>
</svg>
