<?xml version="1.0" encoding="UTF-8" standalone="no"?>
<!DOCTYPE svg PUBLIC "-//W3C//DTD SVG 1.1//EN"
 "http://www.w3.org/Graphics/SVG/1.1/DTD/svg11.dtd">
<!-- Generated by graphviz version 2.43.0 (0)
 -->
<!-- Title: opp Pages: 1 -->
<svg width="194pt" height="82pt"
 viewBox="0.00 0.00 193.50 82.00" xmlns="http://www.w3.org/2000/svg" xmlns:xlink="http://www.w3.org/1999/xlink">
<g id="graph0" class="graph" transform="scale(1 1) rotate(0) translate(4 78)">
<title>opp</title>
<polygon fill="transparent" stroke="transparent" points="-4,4 -4,-78 189.5,-78 189.5,4 -4,4"/>
<!-- Ospfv2SummaryLsa -->
<g id="node1" class="node">
<title>Ospfv2SummaryLsa</title>
<g id="a_node1"><a xlink:href="src-inet-routing-ospfv2-Ospfv2SummaryLsa.html" xlink:title="Class Ospfv2SummaryLsa" target="_parent">
<polygon fill="#fff700" stroke="black" points="153.5,-74 38.5,-74 38.5,-55 153.5,-55 153.5,-74"/>
<text text-anchor="middle" x="96" y="-62" font-family="Helvetica,sans-Serif" font-size="10.00">Ospfv2SummaryLsa</text>
</a>
</g>
</g>
<!-- Ospfv2TosData -->
<g id="node2" class="node">
<title>Ospfv2TosData</title>
<g id="a_node2"><a xlink:href="src-inet-routing-ospfv2-Ospfv2TosData.html" xlink:title="Struct Ospfv2TosData" target="_parent">
<polygon fill="#d0d0ff" stroke="black" points="90,-19 0,-19 0,0 90,0 90,-19"/>
<text text-anchor="middle" x="45" y="-7" font-family="Helvetica,sans-Serif" font-size="10.00">Ospfv2TosData</text>
</a>
</g>
</g>
<!-- Ospfv2SummaryLsa&#45;&gt;Ospfv2TosData -->
<g id="edge1" class="edge">
<title>Ospfv2SummaryLsa&#45;&gt;Ospfv2TosData</title>
<path fill="none" stroke="black" d="M87.58,-54.75C80.23,-47.11 69.37,-35.82 60.46,-26.56"/>
<polygon fill="black" stroke="black" points="62.72,-23.87 53.26,-19.09 57.68,-28.72 62.72,-23.87"/>
</g>
<!-- Ipv4Address -->
<g id="node3" class="node">
<title>Ipv4Address</title>
<g id="a_node3"><a xlink:href="src-inet-networklayer-contract-ipv4-Ipv4Address.html" xlink:title="Class Ipv4Address" target="_parent">
<polygon fill="#fffcaf" stroke="black" points="185.5,-19 108.5,-19 108.5,0 185.5,0 185.5,-19"/>
<text text-anchor="middle" x="147" y="-7" font-family="Helvetica,sans-Serif" font-size="10.00">Ipv4Address</text>
</a>
</g>
</g>
<!-- Ospfv2SummaryLsa&#45;&gt;Ipv4Address -->
<g id="edge2" class="edge">
<title>Ospfv2SummaryLsa&#45;&gt;Ipv4Address</title>
<path fill="none" stroke="black" d="M104.42,-54.75C111.77,-47.11 122.63,-35.82 131.54,-26.56"/>
<polygon fill="black" stroke="black" points="134.32,-28.72 138.74,-19.09 129.28,-23.87 134.32,-28.72"/>
</g>
</g>
</svg>
