<?xml version="1.0" encoding="UTF-8" standalone="no"?>
<!DOCTYPE svg PUBLIC "-//W3C//DTD SVG 1.1//EN"
 "http://www.w3.org/Graphics/SVG/1.1/DTD/svg11.dtd">
<!-- Generated by graphviz version 2.43.0 (0)
 -->
<!-- Title: opp Pages: 1 -->
<svg width="214pt" height="137pt"
 viewBox="0.00 0.00 214.00 137.00" xmlns="http://www.w3.org/2000/svg" xmlns:xlink="http://www.w3.org/1999/xlink">
<g id="graph0" class="graph" transform="scale(1 1) rotate(0) translate(4 133)">
<title>opp</title>
<polygon fill="transparent" stroke="transparent" points="-4,4 -4,-133 210,-133 210,4 -4,4"/>
<!-- Ieee80211AssociationRequestFrame -->
<g id="node1" class="node">
<title>Ieee80211AssociationRequestFrame</title>
<g id="a_node1"><a xlink:href="src-inet-linklayer-ieee80211-mgmt-Ieee80211AssociationRequestFrame.html" xlink:title="Class Ieee80211AssociationRequestFrame" target="_parent">
<polygon fill="#fff700" stroke="black" points="200,-74 6,-74 6,-55 200,-55 200,-74"/>
<text text-anchor="middle" x="103" y="-62" font-family="Helvetica,sans-Serif" font-size="10.00">Ieee80211AssociationRequestFrame</text>
</a>
</g>
</g>
<!-- Ieee80211ReassociationRequestFrame -->
<g id="node3" class="node">
<title>Ieee80211ReassociationRequestFrame</title>
<g id="a_node3"><a xlink:href="src-inet-linklayer-ieee80211-mgmt-Ieee80211ReassociationRequestFrame.html" xlink:title="Class Ieee80211ReassociationRequestFrame" target="_parent">
<polygon fill="#fffcaf" stroke="black" points="206,-19 0,-19 0,0 206,0 206,-19"/>
<text text-anchor="middle" x="103" y="-7" font-family="Helvetica,sans-Serif" font-size="10.00">Ieee80211ReassociationRequestFrame</text>
</a>
</g>
</g>
<!-- Ieee80211AssociationRequestFrame&#45;&gt;Ieee80211ReassociationRequestFrame -->
<g id="edge2" class="edge">
<title>Ieee80211AssociationRequestFrame&#45;&gt;Ieee80211ReassociationRequestFrame</title>
<path fill="none" stroke="black" d="M103,-54.75C103,-44.87 103,-28.9 103,-19.09"/>
</g>
<!-- Ieee80211MgmtFrame -->
<g id="node2" class="node">
<title>Ieee80211MgmtFrame</title>
<g id="a_node2"><a xlink:href="src-inet-linklayer-ieee80211-mgmt-Ieee80211MgmtFrame.html" xlink:title="Class Ieee80211MgmtFrame" target="_parent">
<polygon fill="#fffcaf" stroke="black" points="166.5,-129 39.5,-129 39.5,-110 166.5,-110 166.5,-129"/>
<text text-anchor="middle" x="103" y="-117" font-family="Helvetica,sans-Serif" font-size="10.00">Ieee80211MgmtFrame</text>
</a>
</g>
</g>
<!-- Ieee80211MgmtFrame&#45;&gt;Ieee80211AssociationRequestFrame -->
<g id="edge1" class="edge">
<title>Ieee80211MgmtFrame&#45;&gt;Ieee80211AssociationRequestFrame</title>
<path fill="none" stroke="black" d="M103,-109.75C103,-99.87 103,-83.9 103,-74.09"/>
</g>
</g>
</svg>
