<?xml version="1.0" encoding="UTF-8" standalone="no"?>
<!DOCTYPE svg PUBLIC "-//W3C//DTD SVG 1.1//EN"
 "http://www.w3.org/Graphics/SVG/1.1/DTD/svg11.dtd">
<!-- Generated by graphviz version 2.43.0 (0)
 -->
<!-- Title: opp Pages: 1 -->
<svg width="930pt" height="82pt"
 viewBox="0.00 0.00 929.50 82.00" xmlns="http://www.w3.org/2000/svg" xmlns:xlink="http://www.w3.org/1999/xlink">
<g id="graph0" class="graph" transform="scale(1 1) rotate(0) translate(4 78)">
<title>opp</title>
<polygon fill="transparent" stroke="transparent" points="-4,4 -4,-78 925.5,-78 925.5,4 -4,4"/>
<!-- SignallingMsg -->
<g id="node1" class="node">
<title>SignallingMsg</title>
<g id="a_node1"><a xlink:href="src-inet-networklayer-rsvpte-SignallingMsg.html" xlink:title="Message SignallingMsg" target="_parent">
<polygon fill="#fff700" stroke="black" points="478.5,-74 393.5,-74 393.5,-55 478.5,-55 478.5,-74"/>
<text text-anchor="middle" x="436" y="-62" font-family="Helvetica,sans-Serif" font-size="10.00">SignallingMsg</text>
</a>
</g>
</g>
<!-- HelloTimeoutMsg -->
<g id="node2" class="node">
<title>HelloTimeoutMsg</title>
<g id="a_node2"><a xlink:href="src-inet-networklayer-rsvpte-HelloTimeoutMsg.html" xlink:title="Message HelloTimeoutMsg" target="_parent">
<polygon fill="#fffcaf" stroke="black" points="102,-19 0,-19 0,0 102,0 102,-19"/>
<text text-anchor="middle" x="51" y="-7" font-family="Helvetica,sans-Serif" font-size="10.00">HelloTimeoutMsg</text>
</a>
</g>
</g>
<!-- SignallingMsg&#45;&gt;HelloTimeoutMsg -->
<g id="edge1" class="edge">
<title>SignallingMsg&#45;&gt;HelloTimeoutMsg</title>
<path fill="none" stroke="black" d="M393.4,-57.73C331.3,-49.31 212.25,-33.1 111,-19 108.08,-18.59 105.09,-18.17 102.06,-17.75"/>
</g>
<!-- HelloTimerMsg -->
<g id="node3" class="node">
<title>HelloTimerMsg</title>
<g id="a_node3"><a xlink:href="src-inet-networklayer-rsvpte-HelloTimerMsg.html" xlink:title="Message HelloTimerMsg" target="_parent">
<polygon fill="#fffcaf" stroke="black" points="210,-19 120,-19 120,0 210,0 210,-19"/>
<text text-anchor="middle" x="165" y="-7" font-family="Helvetica,sans-Serif" font-size="10.00">HelloTimerMsg</text>
</a>
</g>
</g>
<!-- SignallingMsg&#45;&gt;HelloTimerMsg -->
<g id="edge2" class="edge">
<title>SignallingMsg&#45;&gt;HelloTimerMsg</title>
<path fill="none" stroke="black" d="M393.36,-55.16C342.98,-45.31 259.59,-29 208.74,-19.05"/>
</g>
<!-- PathNotifyMsg -->
<g id="node4" class="node">
<title>PathNotifyMsg</title>
<g id="a_node4"><a xlink:href="src-inet-networklayer-rsvpte-PathNotifyMsg.html" xlink:title="Message PathNotifyMsg" target="_parent">
<polygon fill="#fffcaf" stroke="black" points="317.5,-19 228.5,-19 228.5,0 317.5,0 317.5,-19"/>
<text text-anchor="middle" x="273" y="-7" font-family="Helvetica,sans-Serif" font-size="10.00">PathNotifyMsg</text>
</a>
</g>
</g>
<!-- SignallingMsg&#45;&gt;PathNotifyMsg -->
<g id="edge3" class="edge">
<title>SignallingMsg&#45;&gt;PathNotifyMsg</title>
<path fill="none" stroke="black" d="M409.81,-54.98C379.48,-45.12 329.81,-28.97 299.39,-19.08"/>
</g>
<!-- PsbTimeoutMsg -->
<g id="node5" class="node">
<title>PsbTimeoutMsg</title>
<g id="a_node5"><a xlink:href="src-inet-networklayer-rsvpte-PsbTimeoutMsg.html" xlink:title="Message PsbTimeoutMsg" target="_parent">
<polygon fill="#fffcaf" stroke="black" points="430,-19 336,-19 336,0 430,0 430,-19"/>
<text text-anchor="middle" x="383" y="-7" font-family="Helvetica,sans-Serif" font-size="10.00">PsbTimeoutMsg</text>
</a>
</g>
</g>
<!-- SignallingMsg&#45;&gt;PsbTimeoutMsg -->
<g id="edge4" class="edge">
<title>SignallingMsg&#45;&gt;PsbTimeoutMsg</title>
<path fill="none" stroke="black" d="M427.25,-54.75C417.37,-44.87 401.4,-28.9 391.59,-19.09"/>
</g>
<!-- PsbTimerMsg -->
<g id="node6" class="node">
<title>PsbTimerMsg</title>
<g id="a_node6"><a xlink:href="src-inet-networklayer-rsvpte-PsbTimerMsg.html" xlink:title="Message PsbTimerMsg" target="_parent">
<polygon fill="#fffcaf" stroke="black" points="530,-19 448,-19 448,0 530,0 530,-19"/>
<text text-anchor="middle" x="489" y="-7" font-family="Helvetica,sans-Serif" font-size="10.00">PsbTimerMsg</text>
</a>
</g>
</g>
<!-- SignallingMsg&#45;&gt;PsbTimerMsg -->
<g id="edge5" class="edge">
<title>SignallingMsg&#45;&gt;PsbTimerMsg</title>
<path fill="none" stroke="black" d="M444.75,-54.75C454.63,-44.87 470.6,-28.9 480.41,-19.09"/>
</g>
<!-- RsbCommitTimerMsg -->
<g id="node7" class="node">
<title>RsbCommitTimerMsg</title>
<g id="a_node7"><a xlink:href="src-inet-networklayer-rsvpte-RsbCommitTimerMsg.html" xlink:title="Message RsbCommitTimerMsg" target="_parent">
<polygon fill="#fffcaf" stroke="black" points="670,-19 548,-19 548,0 670,0 670,-19"/>
<text text-anchor="middle" x="609" y="-7" font-family="Helvetica,sans-Serif" font-size="10.00">RsbCommitTimerMsg</text>
</a>
</g>
</g>
<!-- SignallingMsg&#45;&gt;RsbCommitTimerMsg -->
<g id="edge6" class="edge">
<title>SignallingMsg&#45;&gt;RsbCommitTimerMsg</title>
<path fill="none" stroke="black" d="M463.8,-54.98C495.98,-45.12 548.71,-28.97 580.99,-19.08"/>
</g>
<!-- RsbRefreshTimerMsg -->
<g id="node8" class="node">
<title>RsbRefreshTimerMsg</title>
<g id="a_node8"><a xlink:href="src-inet-networklayer-rsvpte-RsbRefreshTimerMsg.html" xlink:title="Message RsbRefreshTimerMsg" target="_parent">
<polygon fill="#fffcaf" stroke="black" points="808,-19 688,-19 688,0 808,0 808,-19"/>
<text text-anchor="middle" x="748" y="-7" font-family="Helvetica,sans-Serif" font-size="10.00">RsbRefreshTimerMsg</text>
</a>
</g>
</g>
<!-- SignallingMsg&#45;&gt;RsbRefreshTimerMsg -->
<g id="edge7" class="edge">
<title>SignallingMsg&#45;&gt;RsbRefreshTimerMsg</title>
<path fill="none" stroke="black" d="M478.73,-56.24C535.89,-46.53 637.07,-29.34 697.8,-19.03"/>
</g>
<!-- RsbTimeoutMsg -->
<g id="node9" class="node">
<title>RsbTimeoutMsg</title>
<g id="a_node9"><a xlink:href="src-inet-networklayer-rsvpte-RsbTimeoutMsg.html" xlink:title="Message RsbTimeoutMsg" target="_parent">
<polygon fill="#fffcaf" stroke="black" points="921.5,-19 826.5,-19 826.5,0 921.5,0 921.5,-19"/>
<text text-anchor="middle" x="874" y="-7" font-family="Helvetica,sans-Serif" font-size="10.00">RsbTimeoutMsg</text>
</a>
</g>
</g>
<!-- SignallingMsg&#45;&gt;RsbTimeoutMsg -->
<g id="edge8" class="edge">
<title>SignallingMsg&#45;&gt;RsbTimeoutMsg</title>
<path fill="none" stroke="black" d="M478.62,-58.97C549.11,-51.37 694.38,-35.3 817,-19 820.07,-18.59 823.24,-18.16 826.43,-17.71"/>
</g>
</g>
</svg>
