<?xml version="1.0" encoding="UTF-8" standalone="no"?>
<!DOCTYPE svg PUBLIC "-//W3C//DTD SVG 1.1//EN"
 "http://www.w3.org/Graphics/SVG/1.1/DTD/svg11.dtd">
<!-- Generated by graphviz version 2.43.0 (0)
 -->
<!-- Title: opp Pages: 1 -->
<svg width="158pt" height="82pt"
 viewBox="0.00 0.00 158.00 82.00" xmlns="http://www.w3.org/2000/svg" xmlns:xlink="http://www.w3.org/1999/xlink">
<g id="graph0" class="graph" transform="scale(1 1) rotate(0) translate(4 78)">
<title>opp</title>
<polygon fill="transparent" stroke="transparent" points="-4,4 -4,-78 154,-78 154,4 -4,4"/>
<!-- EthernetBindCommand -->
<g id="node1" class="node">
<title>EthernetBindCommand</title>
<g id="a_node1"><a xlink:href="src-inet-linklayer-ethernet-common-EthernetBindCommand.html" xlink:title="Class EthernetBindCommand" target="_parent">
<polygon fill="#fff700" stroke="black" points="145,-74 15,-74 15,-55 145,-55 145,-74"/>
<text text-anchor="middle" x="80" y="-62" font-family="Helvetica,sans-Serif" font-size="10.00">EthernetBindCommand</text>
</a>
</g>
</g>
<!-- MacAddress -->
<g id="node2" class="node">
<title>MacAddress</title>
<g id="a_node2"><a xlink:href="src-inet-linklayer-common-MacAddress.html" xlink:title="Class MacAddress" target="_parent">
<polygon fill="#fffcaf" stroke="black" points="76,-19 0,-19 0,0 76,0 76,-19"/>
<text text-anchor="middle" x="38" y="-7" font-family="Helvetica,sans-Serif" font-size="10.00">MacAddress</text>
</a>
</g>
</g>
<!-- EthernetBindCommand&#45;&gt;MacAddress -->
<g id="edge1" class="edge">
<title>EthernetBindCommand&#45;&gt;MacAddress</title>
<path fill="none" stroke="black" d="M73.06,-54.75C67.13,-47.26 58.43,-36.28 51.18,-27.13"/>
<polygon fill="black" stroke="black" points="53.76,-24.75 44.81,-19.09 48.27,-29.1 53.76,-24.75"/>
</g>
<!-- Protocol -->
<g id="node3" class="node">
<title>Protocol</title>
<g id="a_node3"><a xlink:href="src-inet-common-Protocol.html" xlink:title="Class Protocol" target="_parent">
<polygon fill="#fffcaf" stroke="black" points="150,-19 94,-19 94,0 150,0 150,-19"/>
<text text-anchor="middle" x="122" y="-7" font-family="Helvetica,sans-Serif" font-size="10.00">Protocol</text>
</a>
</g>
</g>
<!-- EthernetBindCommand&#45;&gt;Protocol -->
<g id="edge2" class="edge">
<title>EthernetBindCommand&#45;&gt;Protocol</title>
<path fill="none" stroke="black" d="M86.94,-54.75C92.87,-47.26 101.57,-36.28 108.82,-27.13"/>
<polygon fill="black" stroke="black" points="111.73,-29.1 115.19,-19.09 106.24,-24.75 111.73,-29.1"/>
</g>
</g>
</svg>
