<?xml version="1.0" encoding="UTF-8" standalone="no"?>
<!DOCTYPE svg PUBLIC "-//W3C//DTD SVG 1.1//EN"
 "http://www.w3.org/Graphics/SVG/1.1/DTD/svg11.dtd">
<!-- Generated by graphviz version 2.43.0 (0)
 -->
<!-- Title: opp Pages: 1 -->
<svg width="175pt" height="137pt"
 viewBox="0.00 0.00 175.00 137.00" xmlns="http://www.w3.org/2000/svg" xmlns:xlink="http://www.w3.org/1999/xlink">
<g id="graph0" class="graph" transform="scale(1 1) rotate(0) translate(4 133)">
<title>opp</title>
<polygon fill="transparent" stroke="transparent" points="-4,4 -4,-133 171,-133 171,4 -4,4"/>
<!-- Ieee80211DsssPhyPreamble -->
<g id="node1" class="node">
<title>Ieee80211DsssPhyPreamble</title>
<g id="a_node1"><a xlink:href="src-inet-physicallayer-wireless-ieee80211-packetlevel-Ieee80211DsssPhyPreamble.html" xlink:title="Class Ieee80211DsssPhyPreamble" target="_parent">
<polygon fill="#fff700" stroke="black" points="161,-74 6,-74 6,-55 161,-55 161,-74"/>
<text text-anchor="middle" x="83.5" y="-62" font-family="Helvetica,sans-Serif" font-size="10.00">Ieee80211DsssPhyPreamble</text>
</a>
</g>
</g>
<!-- Ieee80211HrDsssPhyPreamble -->
<g id="node3" class="node">
<title>Ieee80211HrDsssPhyPreamble</title>
<g id="a_node3"><a xlink:href="src-inet-physicallayer-wireless-ieee80211-packetlevel-Ieee80211HrDsssPhyPreamble.html" xlink:title="Class Ieee80211HrDsssPhyPreamble" target="_parent">
<polygon fill="#fffcaf" stroke="black" points="167,-19 0,-19 0,0 167,0 167,-19"/>
<text text-anchor="middle" x="83.5" y="-7" font-family="Helvetica,sans-Serif" font-size="10.00">Ieee80211HrDsssPhyPreamble</text>
</a>
</g>
</g>
<!-- Ieee80211DsssPhyPreamble&#45;&gt;Ieee80211HrDsssPhyPreamble -->
<g id="edge2" class="edge">
<title>Ieee80211DsssPhyPreamble&#45;&gt;Ieee80211HrDsssPhyPreamble</title>
<path fill="none" stroke="black" d="M83.5,-54.75C83.5,-44.87 83.5,-28.9 83.5,-19.09"/>
</g>
<!-- Ieee80211PhyPreamble -->
<g id="node2" class="node">
<title>Ieee80211PhyPreamble</title>
<g id="a_node2"><a xlink:href="src-inet-physicallayer-wireless-ieee80211-packetlevel-Ieee80211PhyPreamble.html" xlink:title="Class Ieee80211PhyPreamble" target="_parent">
<polygon fill="#fffcaf" stroke="black" points="149.5,-129 17.5,-129 17.5,-110 149.5,-110 149.5,-129"/>
<text text-anchor="middle" x="83.5" y="-117" font-family="Helvetica,sans-Serif" font-size="10.00">Ieee80211PhyPreamble</text>
</a>
</g>
</g>
<!-- Ieee80211PhyPreamble&#45;&gt;Ieee80211DsssPhyPreamble -->
<g id="edge1" class="edge">
<title>Ieee80211PhyPreamble&#45;&gt;Ieee80211DsssPhyPreamble</title>
<path fill="none" stroke="black" d="M83.5,-109.75C83.5,-99.87 83.5,-83.9 83.5,-74.09"/>
</g>
</g>
</svg>
