<?xml version="1.0" encoding="UTF-8" standalone="no"?>
<!DOCTYPE svg PUBLIC "-//W3C//DTD SVG 1.1//EN"
 "http://www.w3.org/Graphics/SVG/1.1/DTD/svg11.dtd">
<!-- Generated by graphviz version 2.43.0 (0)
 -->
<!-- Title: opp Pages: 1 -->
<svg width="152pt" height="82pt"
 viewBox="0.00 0.00 151.50 82.00" xmlns="http://www.w3.org/2000/svg" xmlns:xlink="http://www.w3.org/1999/xlink">
<g id="graph0" class="graph" transform="scale(1 1) rotate(0) translate(4 78)">
<title>opp</title>
<polygon fill="transparent" stroke="transparent" points="-4,4 -4,-78 147.5,-78 147.5,4 -4,4"/>
<!-- Arrival -->
<g id="node1" class="node">
<title>Arrival</title>
<g id="a_node1"><a xlink:href="src-inet-physicallayer-wireless-common-signal-Arrival.html" xlink:title="Class Arrival" target="_parent">
<polygon fill="#fff700" stroke="black" points="102.5,-74 48.5,-74 48.5,-55 102.5,-55 102.5,-74"/>
<text text-anchor="middle" x="75.5" y="-62" font-family="Helvetica,sans-Serif" font-size="10.00">Arrival</text>
</a>
</g>
</g>
<!-- Quaternion -->
<g id="node2" class="node">
<title>Quaternion</title>
<g id="a_node2"><a xlink:href="src-inet-common-geometry-Quaternion.html" xlink:title="Class Quaternion" target="_parent">
<polygon fill="#fffcaf" stroke="black" points="71,-19 0,-19 0,0 71,0 71,-19"/>
<text text-anchor="middle" x="35.5" y="-7" font-family="Helvetica,sans-Serif" font-size="10.00">Quaternion</text>
</a>
</g>
</g>
<!-- Arrival&#45;&gt;Quaternion -->
<g id="edge1" class="edge">
<title>Arrival&#45;&gt;Quaternion</title>
<path fill="none" stroke="black" d="M68.89,-54.75C63.24,-47.26 54.96,-36.28 48.05,-27.13"/>
<polygon fill="black" stroke="black" points="50.8,-24.96 41.98,-19.09 45.21,-29.18 50.8,-24.96"/>
</g>
<!-- Coord -->
<g id="node3" class="node">
<title>Coord</title>
<g id="a_node3"><a xlink:href="src-inet-common-geometry-Coord.html" xlink:title="Class Coord" target="_parent">
<polygon fill="#fffcaf" stroke="black" points="143.5,-19 89.5,-19 89.5,0 143.5,0 143.5,-19"/>
<text text-anchor="middle" x="116.5" y="-7" font-family="Helvetica,sans-Serif" font-size="10.00">Coord</text>
</a>
</g>
</g>
<!-- Arrival&#45;&gt;Coord -->
<g id="edge2" class="edge">
<title>Arrival&#45;&gt;Coord</title>
<path fill="none" stroke="black" d="M82.27,-54.75C88.06,-47.26 96.56,-36.28 103.64,-27.13"/>
<polygon fill="black" stroke="black" points="106.51,-29.14 109.86,-19.09 100.97,-24.86 106.51,-29.14"/>
</g>
</g>
</svg>
