<?xml version="1.0" encoding="UTF-8" standalone="no"?>
<!DOCTYPE svg PUBLIC "-//W3C//DTD SVG 1.1//EN"
 "http://www.w3.org/Graphics/SVG/1.1/DTD/svg11.dtd">
<!-- Generated by graphviz version 2.43.0 (0)
 -->
<!-- Title: opp Pages: 1 -->
<svg width="252pt" height="82pt"
 viewBox="0.00 0.00 252.00 82.00" xmlns="http://www.w3.org/2000/svg" xmlns:xlink="http://www.w3.org/1999/xlink">
<g id="graph0" class="graph" transform="scale(1 1) rotate(0) translate(4 78)">
<title>opp</title>
<polygon fill="transparent" stroke="transparent" points="-4,4 -4,-78 248,-78 248,4 -4,4"/>
<!-- PimJoinPrune -->
<g id="node1" class="node">
<title>PimJoinPrune</title>
<g id="a_node1"><a xlink:href="src-inet-routing-pim-PimJoinPrune.html" xlink:title="Class PimJoinPrune" target="_parent">
<polygon fill="#fff700" stroke="black" points="172.5,-74 91.5,-74 91.5,-55 172.5,-55 172.5,-74"/>
<text text-anchor="middle" x="132" y="-62" font-family="Helvetica,sans-Serif" font-size="10.00">PimJoinPrune</text>
</a>
</g>
</g>
<!-- EncodedUnicastAddress -->
<g id="node2" class="node">
<title>EncodedUnicastAddress</title>
<g id="a_node2"><a xlink:href="src-inet-routing-pim-EncodedUnicastAddress.html" xlink:title="Struct EncodedUnicastAddress" target="_parent">
<polygon fill="#d0d0ff" stroke="black" points="134,-19 0,-19 0,0 134,0 134,-19"/>
<text text-anchor="middle" x="67" y="-7" font-family="Helvetica,sans-Serif" font-size="10.00">EncodedUnicastAddress</text>
</a>
</g>
</g>
<!-- PimJoinPrune&#45;&gt;EncodedUnicastAddress -->
<g id="edge1" class="edge">
<title>PimJoinPrune&#45;&gt;EncodedUnicastAddress</title>
<path fill="none" stroke="black" d="M121.56,-54.98C111.85,-47.07 97.18,-35.11 85.5,-25.58"/>
<polygon fill="black" stroke="black" points="87.6,-22.78 77.63,-19.17 83.17,-28.2 87.6,-22.78"/>
</g>
<!-- JoinPruneGroup -->
<g id="node3" class="node">
<title>JoinPruneGroup</title>
<g id="a_node3"><a xlink:href="src-inet-routing-pim-JoinPruneGroup.html" xlink:title="Class JoinPruneGroup" target="_parent">
<polygon fill="#fffcaf" stroke="black" points="244,-19 152,-19 152,0 244,0 244,-19"/>
<text text-anchor="middle" x="198" y="-7" font-family="Helvetica,sans-Serif" font-size="10.00">JoinPruneGroup</text>
</a>
</g>
</g>
<!-- PimJoinPrune&#45;&gt;JoinPruneGroup -->
<g id="edge2" class="edge">
<title>PimJoinPrune&#45;&gt;JoinPruneGroup</title>
<path fill="none" stroke="black" d="M142.6,-54.98C152.46,-47.07 167.35,-35.11 179.22,-25.58"/>
<polygon fill="black" stroke="black" points="181.6,-28.16 187.2,-19.17 177.21,-22.7 181.6,-28.16"/>
</g>
</g>
</svg>
