<?xml version="1.0" encoding="UTF-8" standalone="no"?>
<!DOCTYPE svg PUBLIC "-//W3C//DTD SVG 1.1//EN"
 "http://www.w3.org/Graphics/SVG/1.1/DTD/svg11.dtd">
<!-- Generated by graphviz version 2.43.0 (0)
 -->
<!-- Title: opp Pages: 1 -->
<svg width="284pt" height="137pt"
 viewBox="0.00 0.00 283.50 137.00" xmlns="http://www.w3.org/2000/svg" xmlns:xlink="http://www.w3.org/1999/xlink">
<g id="graph0" class="graph" transform="scale(1 1) rotate(0) translate(4 133)">
<title>opp</title>
<polygon fill="transparent" stroke="transparent" points="-4,4 -4,-133 279.5,-133 279.5,4 -4,4"/>
<!-- Ieee80211DataOrMgmtHeader -->
<g id="node1" class="node">
<title>Ieee80211DataOrMgmtHeader</title>
<g id="a_node1"><a xlink:href="src-inet-linklayer-ieee80211-mac-Ieee80211DataOrMgmtHeader.html" xlink:title="Class Ieee80211DataOrMgmtHeader" target="_parent">
<polygon fill="#fff700" stroke="black" points="219,-74 53,-74 53,-55 219,-55 219,-74"/>
<text text-anchor="middle" x="136" y="-62" font-family="Helvetica,sans-Serif" font-size="10.00">Ieee80211DataOrMgmtHeader</text>
</a>
</g>
</g>
<!-- Ieee80211DataHeader -->
<g id="node3" class="node">
<title>Ieee80211DataHeader</title>
<g id="a_node3"><a xlink:href="src-inet-linklayer-ieee80211-mac-Ieee80211DataHeader.html" xlink:title="Class Ieee80211DataHeader" target="_parent">
<polygon fill="#fffcaf" stroke="black" points="126,-19 0,-19 0,0 126,0 126,-19"/>
<text text-anchor="middle" x="63" y="-7" font-family="Helvetica,sans-Serif" font-size="10.00">Ieee80211DataHeader</text>
</a>
</g>
</g>
<!-- Ieee80211DataOrMgmtHeader&#45;&gt;Ieee80211DataHeader -->
<g id="edge2" class="edge">
<title>Ieee80211DataOrMgmtHeader&#45;&gt;Ieee80211DataHeader</title>
<path fill="none" stroke="black" d="M124.27,-54.98C110.73,-45.15 88.57,-29.07 74.94,-19.17"/>
</g>
<!-- Ieee80211MgmtHeader -->
<g id="node4" class="node">
<title>Ieee80211MgmtHeader</title>
<g id="a_node4"><a xlink:href="src-inet-linklayer-ieee80211-mac-Ieee80211MgmtHeader.html" xlink:title="Class Ieee80211MgmtHeader" target="_parent">
<polygon fill="#fffcaf" stroke="black" points="275.5,-19 144.5,-19 144.5,0 275.5,0 275.5,-19"/>
<text text-anchor="middle" x="210" y="-7" font-family="Helvetica,sans-Serif" font-size="10.00">Ieee80211MgmtHeader</text>
</a>
</g>
</g>
<!-- Ieee80211DataOrMgmtHeader&#45;&gt;Ieee80211MgmtHeader -->
<g id="edge3" class="edge">
<title>Ieee80211DataOrMgmtHeader&#45;&gt;Ieee80211MgmtHeader</title>
<path fill="none" stroke="black" d="M147.89,-54.98C161.62,-45.15 184.08,-29.07 197.89,-19.17"/>
</g>
<!-- Ieee80211TwoAddressHeader -->
<g id="node2" class="node">
<title>Ieee80211TwoAddressHeader</title>
<g id="a_node2"><a xlink:href="src-inet-linklayer-ieee80211-mac-Ieee80211TwoAddressHeader.html" xlink:title="Class Ieee80211TwoAddressHeader" target="_parent">
<polygon fill="#fffcaf" stroke="black" points="216.5,-129 55.5,-129 55.5,-110 216.5,-110 216.5,-129"/>
<text text-anchor="middle" x="136" y="-117" font-family="Helvetica,sans-Serif" font-size="10.00">Ieee80211TwoAddressHeader</text>
</a>
</g>
</g>
<!-- Ieee80211TwoAddressHeader&#45;&gt;Ieee80211DataOrMgmtHeader -->
<g id="edge1" class="edge">
<title>Ieee80211TwoAddressHeader&#45;&gt;Ieee80211DataOrMgmtHeader</title>
<path fill="none" stroke="black" d="M136,-109.75C136,-99.87 136,-83.9 136,-74.09"/>
</g>
</g>
</svg>
