<?xml version="1.0" encoding="UTF-8" standalone="no"?>
<!DOCTYPE svg PUBLIC "-//W3C//DTD SVG 1.1//EN"
 "http://www.w3.org/Graphics/SVG/1.1/DTD/svg11.dtd">
<!-- Generated by graphviz version 2.43.0 (0)
 -->
<!-- Title: opp Pages: 1 -->
<svg width="210pt" height="82pt"
 viewBox="0.00 0.00 209.50 82.00" xmlns="http://www.w3.org/2000/svg" xmlns:xlink="http://www.w3.org/1999/xlink">
<g id="graph0" class="graph" transform="scale(1 1) rotate(0) translate(4 78)">
<title>opp</title>
<polygon fill="transparent" stroke="transparent" points="-4,4 -4,-78 205.5,-78 205.5,4 -4,4"/>
<!-- PathNotifyMsg -->
<g id="node1" class="node">
<title>PathNotifyMsg</title>
<g id="a_node1"><a xlink:href="src-inet-networklayer-rsvpte-PathNotifyMsg.html" xlink:title="Message PathNotifyMsg" target="_parent">
<polygon fill="#fff700" stroke="black" points="155.5,-74 66.5,-74 66.5,-55 155.5,-55 155.5,-74"/>
<text text-anchor="middle" x="111" y="-62" font-family="Helvetica,sans-Serif" font-size="10.00">PathNotifyMsg</text>
</a>
</g>
</g>
<!-- SenderTemplateObj -->
<g id="node2" class="node">
<title>SenderTemplateObj</title>
<g id="a_node2"><a xlink:href="src-inet-networklayer-rsvpte-SenderTemplateObj.html" xlink:title="Struct SenderTemplateObj" target="_parent">
<polygon fill="#d0d0ff" stroke="black" points="112,-19 0,-19 0,0 112,0 112,-19"/>
<text text-anchor="middle" x="56" y="-7" font-family="Helvetica,sans-Serif" font-size="10.00">SenderTemplateObj</text>
</a>
</g>
</g>
<!-- PathNotifyMsg&#45;&gt;SenderTemplateObj -->
<g id="edge1" class="edge">
<title>PathNotifyMsg&#45;&gt;SenderTemplateObj</title>
<path fill="none" stroke="black" d="M101.92,-54.75C93.91,-47.03 82.04,-35.6 72.38,-26.28"/>
<polygon fill="black" stroke="black" points="74.54,-23.51 64.91,-19.09 69.69,-28.55 74.54,-23.51"/>
</g>
<!-- SessionObj -->
<g id="node3" class="node">
<title>SessionObj</title>
<g id="a_node3"><a xlink:href="src-inet-networklayer-rsvpte-SessionObj.html" xlink:title="Struct SessionObj" target="_parent">
<polygon fill="#d0d0ff" stroke="black" points="201.5,-19 130.5,-19 130.5,0 201.5,0 201.5,-19"/>
<text text-anchor="middle" x="166" y="-7" font-family="Helvetica,sans-Serif" font-size="10.00">SessionObj</text>
</a>
</g>
</g>
<!-- PathNotifyMsg&#45;&gt;SessionObj -->
<g id="edge2" class="edge">
<title>PathNotifyMsg&#45;&gt;SessionObj</title>
<path fill="none" stroke="black" d="M120.08,-54.75C128.09,-47.03 139.96,-35.6 149.62,-26.28"/>
<polygon fill="black" stroke="black" points="152.31,-28.55 157.09,-19.09 147.46,-23.51 152.31,-28.55"/>
</g>
</g>
</svg>
