<?xml version="1.0" encoding="UTF-8" standalone="no"?>
<!DOCTYPE svg PUBLIC "-//W3C//DTD SVG 1.1//EN"
 "http://www.w3.org/Graphics/SVG/1.1/DTD/svg11.dtd">
<!-- Generated by graphviz version 2.43.0 (0)
 -->
<!-- Title: opp Pages: 1 -->
<svg width="182pt" height="82pt"
 viewBox="0.00 0.00 181.50 82.00" xmlns="http://www.w3.org/2000/svg" xmlns:xlink="http://www.w3.org/1999/xlink">
<g id="graph0" class="graph" transform="scale(1 1) rotate(0) translate(4 78)">
<title>opp</title>
<polygon fill="transparent" stroke="transparent" points="-4,4 -4,-78 177.5,-78 177.5,4 -4,4"/>
<!-- PacketDrop -->
<g id="node1" class="node">
<title>PacketDrop</title>
<g id="a_node1"><a xlink:href="src-inet-visualizer-base-PacketDrop.html" xlink:title="Class PacketDrop" target="_parent">
<polygon fill="#fff700" stroke="black" points="111,-74 39,-74 39,-55 111,-55 111,-74"/>
<text text-anchor="middle" x="75" y="-62" font-family="Helvetica,sans-Serif" font-size="10.00">PacketDrop</text>
</a>
</g>
</g>
<!-- Coord -->
<g id="node2" class="node">
<title>Coord</title>
<g id="a_node2"><a xlink:href="src-inet-common-geometry-Coord.html" xlink:title="Class Coord" target="_parent">
<polygon fill="#fffcaf" stroke="black" points="54,-19 0,-19 0,0 54,0 54,-19"/>
<text text-anchor="middle" x="27" y="-7" font-family="Helvetica,sans-Serif" font-size="10.00">Coord</text>
</a>
</g>
</g>
<!-- PacketDrop&#45;&gt;Coord -->
<g id="edge1" class="edge">
<title>PacketDrop&#45;&gt;Coord</title>
<path fill="none" stroke="black" d="M67.07,-54.75C60.15,-47.11 49.93,-35.82 41.55,-26.56"/>
<polygon fill="black" stroke="black" points="44.09,-24.15 34.78,-19.09 38.9,-28.85 44.09,-24.15"/>
</g>
<!-- NetworkInterface -->
<g id="node3" class="node">
<title>NetworkInterface</title>
<g id="a_node3"><a xlink:href="src-inet-networklayer-common-NetworkInterface.html" xlink:title="Class NetworkInterface" target="_parent">
<polygon fill="#fffcaf" stroke="black" points="173.5,-19 72.5,-19 72.5,0 173.5,0 173.5,-19"/>
<text text-anchor="middle" x="123" y="-7" font-family="Helvetica,sans-Serif" font-size="10.00">NetworkInterface</text>
</a>
</g>
</g>
<!-- PacketDrop&#45;&gt;NetworkInterface -->
<g id="edge2" class="edge">
<title>PacketDrop&#45;&gt;NetworkInterface</title>
<path fill="none" stroke="black" d="M82.93,-54.75C89.85,-47.11 100.07,-35.82 108.45,-26.56"/>
<polygon fill="black" stroke="black" points="111.1,-28.85 115.22,-19.09 105.91,-24.15 111.1,-28.85"/>
</g>
</g>
</svg>
