<?xml version="1.0" encoding="UTF-8" standalone="no"?>
<!DOCTYPE svg PUBLIC "-//W3C//DTD SVG 1.1//EN"
 "http://www.w3.org/Graphics/SVG/1.1/DTD/svg11.dtd">
<!-- Generated by graphviz version 2.43.0 (0)
 -->
<!-- Title: opp Pages: 1 -->
<svg width="150pt" height="82pt"
 viewBox="0.00 0.00 149.50 82.00" xmlns="http://www.w3.org/2000/svg" xmlns:xlink="http://www.w3.org/1999/xlink">
<g id="graph0" class="graph" transform="scale(1 1) rotate(0) translate(4 78)">
<title>opp</title>
<polygon fill="transparent" stroke="transparent" points="-4,4 -4,-78 145.5,-78 145.5,4 -4,4"/>
<!-- IgmpMessage -->
<g id="node1" class="node">
<title>IgmpMessage</title>
<g id="a_node1"><a xlink:href="src-inet-networklayer-ipv4-IgmpMessage.html" xlink:title="Class IgmpMessage" target="_parent">
<polygon fill="#fff700" stroke="black" points="114.5,-74 29.5,-74 29.5,-55 114.5,-55 114.5,-74"/>
<text text-anchor="middle" x="72" y="-62" font-family="Helvetica,sans-Serif" font-size="10.00">IgmpMessage</text>
</a>
</g>
</g>
<!-- IgmpType -->
<g id="node2" class="node">
<title>IgmpType</title>
<g id="a_node2"><a xlink:href="src-inet-networklayer-ipv4-IgmpType.html" xlink:title="Enum IgmpType" target="_parent">
<polygon fill="#d0ffd0" stroke="black" points="64,-19 0,-19 0,0 64,0 64,-19"/>
<text text-anchor="middle" x="32" y="-7" font-family="Helvetica,sans-Serif" font-size="10.00">IgmpType</text>
</a>
</g>
</g>
<!-- IgmpMessage&#45;&gt;IgmpType -->
<g id="edge1" class="edge">
<title>IgmpMessage&#45;&gt;IgmpType</title>
<path fill="none" stroke="black" d="M65.39,-54.75C59.74,-47.26 51.46,-36.28 44.55,-27.13"/>
<polygon fill="black" stroke="black" points="47.3,-24.96 38.48,-19.09 41.71,-29.18 47.3,-24.96"/>
</g>
<!-- CrcMode -->
<g id="node3" class="node">
<title>CrcMode</title>
<g id="a_node3"><a xlink:href="src-inet-transportlayer-common-CrcMode.html" xlink:title="Enum CrcMode" target="_parent">
<polygon fill="#d0ffd0" stroke="black" points="141.5,-19 82.5,-19 82.5,0 141.5,0 141.5,-19"/>
<text text-anchor="middle" x="112" y="-7" font-family="Helvetica,sans-Serif" font-size="10.00">CrcMode</text>
</a>
</g>
</g>
<!-- IgmpMessage&#45;&gt;CrcMode -->
<g id="edge2" class="edge">
<title>IgmpMessage&#45;&gt;CrcMode</title>
<path fill="none" stroke="black" d="M78.61,-54.75C84.26,-47.26 92.54,-36.28 99.45,-27.13"/>
<polygon fill="black" stroke="black" points="102.29,-29.18 105.52,-19.09 96.7,-24.96 102.29,-29.18"/>
</g>
</g>
</svg>
