<?xml version="1.0" encoding="UTF-8" standalone="no"?>
<!DOCTYPE svg PUBLIC "-//W3C//DTD SVG 1.1//EN"
 "http://www.w3.org/Graphics/SVG/1.1/DTD/svg11.dtd">
<!-- Generated by graphviz version 2.43.0 (0)
 -->
<!-- Title: opp Pages: 1 -->
<svg width="2541pt" height="82pt"
 viewBox="0.00 0.00 2541.00 82.00" xmlns="http://www.w3.org/2000/svg" xmlns:xlink="http://www.w3.org/1999/xlink">
<g id="graph0" class="graph" transform="scale(1 1) rotate(0) translate(4 78)">
<title>opp</title>
<polygon fill="transparent" stroke="transparent" points="-4,4 -4,-78 2537,-78 2537,4 -4,4"/>
<!-- SctpChunk -->
<g id="node1" class="node">
<title>SctpChunk</title>
<g id="a_node1"><a xlink:href="src-inet-transportlayer-sctp-SctpChunk.html" xlink:title="Class SctpChunk" target="_parent">
<polygon fill="#fff700" stroke="black" points="1272.5,-74 1204.5,-74 1204.5,-55 1272.5,-55 1272.5,-74"/>
<text text-anchor="middle" x="1238.5" y="-62" font-family="Helvetica,sans-Serif" font-size="10.00">SctpChunk</text>
</a>
</g>
</g>
<!-- SctpAbortChunk -->
<g id="node2" class="node">
<title>SctpAbortChunk</title>
<g id="a_node2"><a xlink:href="src-inet-transportlayer-sctp-SctpAbortChunk.html" xlink:title="Class SctpAbortChunk" target="_parent">
<polygon fill="#fffcaf" stroke="black" points="95,-19 0,-19 0,0 95,0 95,-19"/>
<text text-anchor="middle" x="47.5" y="-7" font-family="Helvetica,sans-Serif" font-size="10.00">SctpAbortChunk</text>
</a>
</g>
</g>
<!-- SctpChunk&#45;&gt;SctpAbortChunk -->
<g id="edge1" class="edge">
<title>SctpChunk&#45;&gt;SctpAbortChunk</title>
<path fill="none" stroke="black" d="M1204.05,-63.55C1065.59,-63.44 536.37,-60.21 103.5,-19 100.76,-18.74 97.95,-18.43 95.11,-18.1"/>
</g>
<!-- SctpAsconfAckChunk -->
<g id="node3" class="node">
<title>SctpAsconfAckChunk</title>
<g id="a_node3"><a xlink:href="src-inet-transportlayer-sctp-SctpAsconfAckChunk.html" xlink:title="Class SctpAsconfAckChunk" target="_parent">
<polygon fill="#fffcaf" stroke="black" points="232,-19 113,-19 113,0 232,0 232,-19"/>
<text text-anchor="middle" x="172.5" y="-7" font-family="Helvetica,sans-Serif" font-size="10.00">SctpAsconfAckChunk</text>
</a>
</g>
</g>
<!-- SctpChunk&#45;&gt;SctpAsconfAckChunk -->
<g id="edge2" class="edge">
<title>SctpChunk&#45;&gt;SctpAsconfAckChunk</title>
<path fill="none" stroke="black" d="M1204.4,-62.97C1077.11,-60.76 617.67,-50.93 240.5,-19 237.77,-18.77 234.99,-18.51 232.18,-18.23"/>
</g>
<!-- SctpAsconfChunk -->
<g id="node4" class="node">
<title>SctpAsconfChunk</title>
<g id="a_node4"><a xlink:href="src-inet-transportlayer-sctp-SctpAsconfChunk.html" xlink:title="Class SctpAsconfChunk" target="_parent">
<polygon fill="#fffcaf" stroke="black" points="351,-19 250,-19 250,0 351,0 351,-19"/>
<text text-anchor="middle" x="300.5" y="-7" font-family="Helvetica,sans-Serif" font-size="10.00">SctpAsconfChunk</text>
</a>
</g>
</g>
<!-- SctpChunk&#45;&gt;SctpAsconfChunk -->
<g id="edge3" class="edge">
<title>SctpChunk&#45;&gt;SctpAsconfChunk</title>
<path fill="none" stroke="black" d="M1204.11,-62.87C1086.26,-60.48 687.9,-50.42 360.5,-19 357.46,-18.71 354.34,-18.37 351.2,-18.01"/>
</g>
<!-- SctpAuthenticationChunk -->
<g id="node5" class="node">
<title>SctpAuthenticationChunk</title>
<g id="a_node5"><a xlink:href="src-inet-transportlayer-sctp-SctpAuthenticationChunk.html" xlink:title="Class SctpAuthenticationChunk" target="_parent">
<polygon fill="#fffcaf" stroke="black" points="509.5,-19 369.5,-19 369.5,0 509.5,0 509.5,-19"/>
<text text-anchor="middle" x="439.5" y="-7" font-family="Helvetica,sans-Serif" font-size="10.00">SctpAuthenticationChunk</text>
</a>
</g>
</g>
<!-- SctpChunk&#45;&gt;SctpAuthenticationChunk -->
<g id="edge4" class="edge">
<title>SctpChunk&#45;&gt;SctpAuthenticationChunk</title>
<path fill="none" stroke="black" d="M1204.36,-61.94C1100.95,-57.1 782.12,-41.32 518.5,-19 515.61,-18.76 512.67,-18.49 509.7,-18.22"/>
</g>
<!-- SctpCookieAckChunk -->
<g id="node6" class="node">
<title>SctpCookieAckChunk</title>
<g id="a_node6"><a xlink:href="src-inet-transportlayer-sctp-SctpCookieAckChunk.html" xlink:title="Class SctpCookieAckChunk" target="_parent">
<polygon fill="#fffcaf" stroke="black" points="647.5,-19 527.5,-19 527.5,0 647.5,0 647.5,-19"/>
<text text-anchor="middle" x="587.5" y="-7" font-family="Helvetica,sans-Serif" font-size="10.00">SctpCookieAckChunk</text>
</a>
</g>
</g>
<!-- SctpChunk&#45;&gt;SctpCookieAckChunk -->
<g id="edge5" class="edge">
<title>SctpChunk&#45;&gt;SctpCookieAckChunk</title>
<path fill="none" stroke="black" d="M1204.34,-61.44C1114.5,-55.91 864.22,-39.72 656.5,-19 653.62,-18.71 650.67,-18.4 647.69,-18.08"/>
</g>
<!-- SctpCookieEchoChunk -->
<g id="node7" class="node">
<title>SctpCookieEchoChunk</title>
<g id="a_node7"><a xlink:href="src-inet-transportlayer-sctp-SctpCookieEchoChunk.html" xlink:title="Class SctpCookieEchoChunk" target="_parent">
<polygon fill="#fffcaf" stroke="black" points="791,-19 666,-19 666,0 791,0 791,-19"/>
<text text-anchor="middle" x="728.5" y="-7" font-family="Helvetica,sans-Serif" font-size="10.00">SctpCookieEchoChunk</text>
</a>
</g>
</g>
<!-- SctpChunk&#45;&gt;SctpCookieEchoChunk -->
<g id="edge6" class="edge">
<title>SctpChunk&#45;&gt;SctpCookieEchoChunk</title>
<path fill="none" stroke="black" d="M1204.4,-60.23C1130.68,-53.11 950.93,-35.52 800.5,-19 797.5,-18.67 794.42,-18.33 791.32,-17.98"/>
</g>
<!-- SctpDataChunk -->
<g id="node8" class="node">
<title>SctpDataChunk</title>
<g id="a_node8"><a xlink:href="src-inet-transportlayer-sctp-SctpDataChunk.html" xlink:title="Class SctpDataChunk" target="_parent">
<polygon fill="#fffcaf" stroke="black" points="901.5,-19 809.5,-19 809.5,0 901.5,0 901.5,-19"/>
<text text-anchor="middle" x="855.5" y="-7" font-family="Helvetica,sans-Serif" font-size="10.00">SctpDataChunk</text>
</a>
</g>
</g>
<!-- SctpChunk&#45;&gt;SctpDataChunk -->
<g id="edge7" class="edge">
<title>SctpChunk&#45;&gt;SctpDataChunk</title>
<path fill="none" stroke="black" d="M1204.47,-59.09C1144.87,-51.33 1017.7,-34.55 910.5,-19 907.63,-18.58 904.68,-18.15 901.7,-17.7"/>
</g>
<!-- SctpErrorChunk -->
<g id="node9" class="node">
<title>SctpErrorChunk</title>
<g id="a_node9"><a xlink:href="src-inet-transportlayer-sctp-SctpErrorChunk.html" xlink:title="Class SctpErrorChunk" target="_parent">
<polygon fill="#fffcaf" stroke="black" points="1011.5,-19 919.5,-19 919.5,0 1011.5,0 1011.5,-19"/>
<text text-anchor="middle" x="965.5" y="-7" font-family="Helvetica,sans-Serif" font-size="10.00">SctpErrorChunk</text>
</a>
</g>
</g>
<!-- SctpChunk&#45;&gt;SctpErrorChunk -->
<g id="edge8" class="edge">
<title>SctpChunk&#45;&gt;SctpErrorChunk</title>
<path fill="none" stroke="black" d="M1204.48,-56.89C1155.16,-47.32 1063.8,-29.58 1009.45,-19.03"/>
</g>
<!-- SctpForwardTsnChunk -->
<g id="node10" class="node">
<title>SctpForwardTsnChunk</title>
<g id="a_node10"><a xlink:href="src-inet-transportlayer-sctp-SctpForwardTsnChunk.html" xlink:title="Class SctpForwardTsnChunk" target="_parent">
<polygon fill="#fffcaf" stroke="black" points="1153,-19 1030,-19 1030,0 1153,0 1153,-19"/>
<text text-anchor="middle" x="1091.5" y="-7" font-family="Helvetica,sans-Serif" font-size="10.00">SctpForwardTsnChunk</text>
</a>
</g>
</g>
<!-- SctpChunk&#45;&gt;SctpForwardTsnChunk -->
<g id="edge9" class="edge">
<title>SctpChunk&#45;&gt;SctpForwardTsnChunk</title>
<path fill="none" stroke="black" d="M1214.88,-54.98C1187.61,-45.15 1143,-29.07 1115.55,-19.17"/>
</g>
<!-- SctpHeartbeatAckChunk -->
<g id="node11" class="node">
<title>SctpHeartbeatAckChunk</title>
<g id="a_node11"><a xlink:href="src-inet-transportlayer-sctp-SctpHeartbeatAckChunk.html" xlink:title="Class SctpHeartbeatAckChunk" target="_parent">
<polygon fill="#fffcaf" stroke="black" points="1306,-19 1171,-19 1171,0 1306,0 1306,-19"/>
<text text-anchor="middle" x="1238.5" y="-7" font-family="Helvetica,sans-Serif" font-size="10.00">SctpHeartbeatAckChunk</text>
</a>
</g>
</g>
<!-- SctpChunk&#45;&gt;SctpHeartbeatAckChunk -->
<g id="edge10" class="edge">
<title>SctpChunk&#45;&gt;SctpHeartbeatAckChunk</title>
<path fill="none" stroke="black" d="M1238.5,-54.75C1238.5,-44.87 1238.5,-28.9 1238.5,-19.09"/>
</g>
<!-- SctpHeartbeatChunk -->
<g id="node12" class="node">
<title>SctpHeartbeatChunk</title>
<g id="a_node12"><a xlink:href="src-inet-transportlayer-sctp-SctpHeartbeatChunk.html" xlink:title="Class SctpHeartbeatChunk" target="_parent">
<polygon fill="#fffcaf" stroke="black" points="1441,-19 1324,-19 1324,0 1441,0 1441,-19"/>
<text text-anchor="middle" x="1382.5" y="-7" font-family="Helvetica,sans-Serif" font-size="10.00">SctpHeartbeatChunk</text>
</a>
</g>
</g>
<!-- SctpChunk&#45;&gt;SctpHeartbeatChunk -->
<g id="edge11" class="edge">
<title>SctpChunk&#45;&gt;SctpHeartbeatChunk</title>
<path fill="none" stroke="black" d="M1261.64,-54.98C1288.35,-45.15 1332.05,-29.07 1358.94,-19.17"/>
</g>
<!-- SctpInitAckChunk -->
<g id="node13" class="node">
<title>SctpInitAckChunk</title>
<g id="a_node13"><a xlink:href="src-inet-transportlayer-sctp-SctpInitAckChunk.html" xlink:title="Class SctpInitAckChunk" target="_parent">
<polygon fill="#fffcaf" stroke="black" points="1561.5,-19 1459.5,-19 1459.5,0 1561.5,0 1561.5,-19"/>
<text text-anchor="middle" x="1510.5" y="-7" font-family="Helvetica,sans-Serif" font-size="10.00">SctpInitAckChunk</text>
</a>
</g>
</g>
<!-- SctpChunk&#45;&gt;SctpInitAckChunk -->
<g id="edge12" class="edge">
<title>SctpChunk&#45;&gt;SctpInitAckChunk</title>
<path fill="none" stroke="black" d="M1272.67,-56.84C1321.9,-47.25 1412.77,-29.54 1466.81,-19.01"/>
</g>
<!-- SctpInitChunk -->
<g id="node14" class="node">
<title>SctpInitChunk</title>
<g id="a_node14"><a xlink:href="src-inet-transportlayer-sctp-SctpInitChunk.html" xlink:title="Class SctpInitChunk" target="_parent">
<polygon fill="#fffcaf" stroke="black" points="1663.5,-19 1579.5,-19 1579.5,0 1663.5,0 1663.5,-19"/>
<text text-anchor="middle" x="1621.5" y="-7" font-family="Helvetica,sans-Serif" font-size="10.00">SctpInitChunk</text>
</a>
</g>
</g>
<!-- SctpChunk&#45;&gt;SctpInitChunk -->
<g id="edge13" class="edge">
<title>SctpChunk&#45;&gt;SctpInitChunk</title>
<path fill="none" stroke="black" d="M1272.96,-59.25C1333.33,-51.72 1462.1,-35.29 1570.5,-19 1573.43,-18.56 1576.45,-18.09 1579.49,-17.61"/>
</g>
<!-- SctpPacketDropChunk -->
<g id="node15" class="node">
<title>SctpPacketDropChunk</title>
<g id="a_node15"><a xlink:href="src-inet-transportlayer-sctp-SctpPacketDropChunk.html" xlink:title="Class SctpPacketDropChunk" target="_parent">
<polygon fill="#fffcaf" stroke="black" points="1805.5,-19 1681.5,-19 1681.5,0 1805.5,0 1805.5,-19"/>
<text text-anchor="middle" x="1743.5" y="-7" font-family="Helvetica,sans-Serif" font-size="10.00">SctpPacketDropChunk</text>
</a>
</g>
</g>
<!-- SctpChunk&#45;&gt;SctpPacketDropChunk -->
<g id="edge14" class="edge">
<title>SctpChunk&#45;&gt;SctpPacketDropChunk</title>
<path fill="none" stroke="black" d="M1272.56,-60.21C1345.79,-53.08 1523.64,-35.54 1672.5,-19 1675.34,-18.68 1678.24,-18.36 1681.17,-18.02"/>
</g>
<!-- SctpSackChunk -->
<g id="node16" class="node">
<title>SctpSackChunk</title>
<g id="a_node16"><a xlink:href="src-inet-transportlayer-sctp-SctpSackChunk.html" xlink:title="Class SctpSackChunk" target="_parent">
<polygon fill="#fffcaf" stroke="black" points="1915.5,-19 1823.5,-19 1823.5,0 1915.5,0 1915.5,-19"/>
<text text-anchor="middle" x="1869.5" y="-7" font-family="Helvetica,sans-Serif" font-size="10.00">SctpSackChunk</text>
</a>
</g>
</g>
<!-- SctpChunk&#45;&gt;SctpSackChunk -->
<g id="edge15" class="edge">
<title>SctpChunk&#45;&gt;SctpSackChunk</title>
<path fill="none" stroke="black" d="M1272.67,-61.77C1361.96,-57.06 1609.51,-42.72 1814.5,-19 1817.38,-18.67 1820.34,-18.29 1823.32,-17.9"/>
</g>
<!-- SctpShutdownAckChunk -->
<g id="node17" class="node">
<title>SctpShutdownAckChunk</title>
<g id="a_node17"><a xlink:href="src-inet-transportlayer-sctp-SctpShutdownAckChunk.html" xlink:title="Class SctpShutdownAckChunk" target="_parent">
<polygon fill="#fffcaf" stroke="black" points="2067.5,-19 1933.5,-19 1933.5,0 2067.5,0 2067.5,-19"/>
<text text-anchor="middle" x="2000.5" y="-7" font-family="Helvetica,sans-Serif" font-size="10.00">SctpShutdownAckChunk</text>
</a>
</g>
</g>
<!-- SctpChunk&#45;&gt;SctpShutdownAckChunk -->
<g id="edge16" class="edge">
<title>SctpChunk&#45;&gt;SctpShutdownAckChunk</title>
<path fill="none" stroke="black" d="M1272.81,-61.84C1373.16,-56.87 1674.84,-41.05 1924.5,-19 1927.41,-18.74 1930.38,-18.47 1933.38,-18.18"/>
</g>
<!-- SctpShutdownChunk -->
<g id="node18" class="node">
<title>SctpShutdownChunk</title>
<g id="a_node18"><a xlink:href="src-inet-transportlayer-sctp-SctpShutdownChunk.html" xlink:title="Class SctpShutdownChunk" target="_parent">
<polygon fill="#fffcaf" stroke="black" points="2201.5,-19 2085.5,-19 2085.5,0 2201.5,0 2201.5,-19"/>
<text text-anchor="middle" x="2143.5" y="-7" font-family="Helvetica,sans-Serif" font-size="10.00">SctpShutdownChunk</text>
</a>
</g>
</g>
<!-- SctpChunk&#45;&gt;SctpShutdownChunk -->
<g id="edge17" class="edge">
<title>SctpChunk&#45;&gt;SctpShutdownChunk</title>
<path fill="none" stroke="black" d="M1272.89,-62.58C1387.26,-59.31 1765.25,-46.97 2076.5,-19 2079.42,-18.74 2082.41,-18.45 2085.42,-18.13"/>
</g>
<!-- SctpShutdownCompleteChunk -->
<g id="node19" class="node">
<title>SctpShutdownCompleteChunk</title>
<g id="a_node19"><a xlink:href="src-inet-transportlayer-sctp-SctpShutdownCompleteChunk.html" xlink:title="Class SctpShutdownCompleteChunk" target="_parent">
<polygon fill="#fffcaf" stroke="black" points="2383.5,-19 2219.5,-19 2219.5,0 2383.5,0 2383.5,-19"/>
<text text-anchor="middle" x="2301.5" y="-7" font-family="Helvetica,sans-Serif" font-size="10.00">SctpShutdownCompleteChunk</text>
</a>
</g>
</g>
<!-- SctpChunk&#45;&gt;SctpShutdownCompleteChunk -->
<g id="edge18" class="edge">
<title>SctpChunk&#45;&gt;SctpShutdownCompleteChunk</title>
<path fill="none" stroke="black" d="M1272.54,-62.53C1397.61,-58.82 1843.55,-44.52 2210.5,-19 2213.35,-18.8 2216.25,-18.59 2219.17,-18.37"/>
</g>
<!-- SctpStreamResetChunk -->
<g id="node20" class="node">
<title>SctpStreamResetChunk</title>
<g id="a_node20"><a xlink:href="src-inet-transportlayer-sctp-SctpStreamResetChunk.html" xlink:title="Class SctpStreamResetChunk" target="_parent">
<polygon fill="#fffcaf" stroke="black" points="2533,-19 2402,-19 2402,0 2533,0 2533,-19"/>
<text text-anchor="middle" x="2467.5" y="-7" font-family="Helvetica,sans-Serif" font-size="10.00">SctpStreamResetChunk</text>
</a>
</g>
</g>
<!-- SctpChunk&#45;&gt;SctpStreamResetChunk -->
<g id="edge19" class="edge">
<title>SctpChunk&#45;&gt;SctpStreamResetChunk</title>
<path fill="none" stroke="black" d="M1272.54,-63.11C1411.66,-61.33 1950.67,-52.51 2392.5,-19 2395.51,-18.77 2398.58,-18.52 2401.68,-18.24"/>
</g>
</g>
</svg>
