<?xml version="1.0" encoding="UTF-8" standalone="no"?>
<!DOCTYPE svg PUBLIC "-//W3C//DTD SVG 1.1//EN"
 "http://www.w3.org/Graphics/SVG/1.1/DTD/svg11.dtd">
<!-- Generated by graphviz version 2.43.0 (0)
 -->
<!-- Title: opp Pages: 1 -->
<svg width="260pt" height="137pt"
 viewBox="0.00 0.00 259.50 137.00" xmlns="http://www.w3.org/2000/svg" xmlns:xlink="http://www.w3.org/1999/xlink">
<g id="graph0" class="graph" transform="scale(1 1) rotate(0) translate(4 133)">
<title>opp</title>
<polygon fill="transparent" stroke="transparent" points="-4,4 -4,-133 255.5,-133 255.5,4 -4,4"/>
<!-- Ospfv3LsaPrefixMetric -->
<g id="node1" class="node">
<title>Ospfv3LsaPrefixMetric</title>
<g id="a_node1"><a xlink:href="src-inet-routing-ospfv3-Ospfv3LsaPrefixMetric.html" xlink:title="Struct Ospfv3LsaPrefixMetric" target="_parent">
<polygon fill="#9090ff" stroke="black" points="201,-74 74,-74 74,-55 201,-55 201,-74"/>
<text text-anchor="middle" x="137.5" y="-62" font-family="Helvetica,sans-Serif" font-size="10.00">Ospfv3LsaPrefixMetric</text>
</a>
</g>
</g>
<!-- L3Address -->
<g id="node2" class="node">
<title>L3Address</title>
<g id="a_node2"><a xlink:href="src-inet-networklayer-common-L3Address.html" xlink:title="Class L3Address" target="_parent">
<polygon fill="#fffcaf" stroke="black" points="171,-19 104,-19 104,0 171,0 171,-19"/>
<text text-anchor="middle" x="137.5" y="-7" font-family="Helvetica,sans-Serif" font-size="10.00">L3Address</text>
</a>
</g>
</g>
<!-- Ospfv3LsaPrefixMetric&#45;&gt;L3Address -->
<g id="edge1" class="edge">
<title>Ospfv3LsaPrefixMetric&#45;&gt;L3Address</title>
<path fill="none" stroke="black" d="M137.5,-54.75C137.5,-47.8 137.5,-37.85 137.5,-29.13"/>
<polygon fill="black" stroke="black" points="141,-29.09 137.5,-19.09 134,-29.09 141,-29.09"/>
</g>
<!-- Ospfv3IntraAreaPrefixLsa -->
<g id="node3" class="node">
<title>Ospfv3IntraAreaPrefixLsa</title>
<g id="a_node3"><a xlink:href="src-inet-routing-ospfv3-Ospfv3IntraAreaPrefixLsa.html" xlink:title="Class Ospfv3IntraAreaPrefixLsa" target="_parent">
<polygon fill="#fffcaf" stroke="black" points="141,-129 0,-129 0,-110 141,-110 141,-129"/>
<text text-anchor="middle" x="70.5" y="-117" font-family="Helvetica,sans-Serif" font-size="10.00">Ospfv3IntraAreaPrefixLsa</text>
</a>
</g>
</g>
<!-- Ospfv3IntraAreaPrefixLsa&#45;&gt;Ospfv3LsaPrefixMetric -->
<g id="edge2" class="edge">
<title>Ospfv3IntraAreaPrefixLsa&#45;&gt;Ospfv3LsaPrefixMetric</title>
<path fill="none" stroke="black" d="M81.26,-109.98C91.27,-102.07 106.39,-90.11 118.43,-80.58"/>
<polygon fill="black" stroke="black" points="120.87,-83.12 126.54,-74.17 116.53,-77.63 120.87,-83.12"/>
</g>
<!-- Ospfv3NssaLsa -->
<g id="node4" class="node">
<title>Ospfv3NssaLsa</title>
<g id="a_node4"><a xlink:href="src-inet-routing-ospfv3-Ospfv3NssaLsa.html" xlink:title="Class Ospfv3NssaLsa" target="_parent">
<polygon fill="#fffcaf" stroke="black" points="251.5,-129 159.5,-129 159.5,-110 251.5,-110 251.5,-129"/>
<text text-anchor="middle" x="205.5" y="-117" font-family="Helvetica,sans-Serif" font-size="10.00">Ospfv3NssaLsa</text>
</a>
</g>
</g>
<!-- Ospfv3NssaLsa&#45;&gt;Ospfv3LsaPrefixMetric -->
<g id="edge3" class="edge">
<title>Ospfv3NssaLsa&#45;&gt;Ospfv3LsaPrefixMetric</title>
<path fill="none" stroke="black" d="M194.57,-109.98C184.42,-102.07 169.08,-90.11 156.85,-80.58"/>
<polygon fill="black" stroke="black" points="158.66,-77.56 148.62,-74.17 154.36,-83.08 158.66,-77.56"/>
</g>
</g>
</svg>
