<?xml version="1.0" encoding="UTF-8" standalone="no"?>
<!DOCTYPE svg PUBLIC "-//W3C//DTD SVG 1.1//EN"
 "http://www.w3.org/Graphics/SVG/1.1/DTD/svg11.dtd">
<!-- Generated by graphviz version 2.43.0 (0)
 -->
<!-- Title: opp Pages: 1 -->
<svg width="587pt" height="137pt"
 viewBox="0.00 0.00 586.50 137.00" xmlns="http://www.w3.org/2000/svg" xmlns:xlink="http://www.w3.org/1999/xlink">
<g id="graph0" class="graph" transform="scale(1 1) rotate(0) translate(4 133)">
<title>opp</title>
<polygon fill="transparent" stroke="transparent" points="-4,4 -4,-133 582.5,-133 582.5,4 -4,4"/>
<!-- Ieee80211TwoAddressHeader -->
<g id="node1" class="node">
<title>Ieee80211TwoAddressHeader</title>
<g id="a_node1"><a xlink:href="src-inet-linklayer-ieee80211-mac-Ieee80211TwoAddressHeader.html" xlink:title="Class Ieee80211TwoAddressHeader" target="_parent">
<polygon fill="#fff700" stroke="black" points="360,-74 199,-74 199,-55 360,-55 360,-74"/>
<text text-anchor="middle" x="279.5" y="-62" font-family="Helvetica,sans-Serif" font-size="10.00">Ieee80211TwoAddressHeader</text>
</a>
</g>
</g>
<!-- Ieee80211BlockAck -->
<g id="node3" class="node">
<title>Ieee80211BlockAck</title>
<g id="a_node3"><a xlink:href="src-inet-linklayer-ieee80211-mac-Ieee80211BlockAck.html" xlink:title="Class Ieee80211BlockAck" target="_parent">
<polygon fill="#fffcaf" stroke="black" points="113,-19 0,-19 0,0 113,0 113,-19"/>
<text text-anchor="middle" x="56.5" y="-7" font-family="Helvetica,sans-Serif" font-size="10.00">Ieee80211BlockAck</text>
</a>
</g>
</g>
<!-- Ieee80211TwoAddressHeader&#45;&gt;Ieee80211BlockAck -->
<g id="edge2" class="edge">
<title>Ieee80211TwoAddressHeader&#45;&gt;Ieee80211BlockAck</title>
<path fill="none" stroke="black" d="M243.67,-54.98C202.18,-45.12 134.22,-28.97 92.61,-19.08"/>
</g>
<!-- Ieee80211BlockAckReq -->
<g id="node4" class="node">
<title>Ieee80211BlockAckReq</title>
<g id="a_node4"><a xlink:href="src-inet-linklayer-ieee80211-mac-Ieee80211BlockAckReq.html" xlink:title="Class Ieee80211BlockAckReq" target="_parent">
<polygon fill="#fffcaf" stroke="black" points="262,-19 131,-19 131,0 262,0 262,-19"/>
<text text-anchor="middle" x="196.5" y="-7" font-family="Helvetica,sans-Serif" font-size="10.00">Ieee80211BlockAckReq</text>
</a>
</g>
</g>
<!-- Ieee80211TwoAddressHeader&#45;&gt;Ieee80211BlockAckReq -->
<g id="edge3" class="edge">
<title>Ieee80211TwoAddressHeader&#45;&gt;Ieee80211BlockAckReq</title>
<path fill="none" stroke="black" d="M266.16,-54.98C250.77,-45.15 225.58,-29.07 210.08,-19.17"/>
</g>
<!-- Ieee80211DataOrMgmtHeader -->
<g id="node5" class="node">
<title>Ieee80211DataOrMgmtHeader</title>
<g id="a_node5"><a xlink:href="src-inet-linklayer-ieee80211-mac-Ieee80211DataOrMgmtHeader.html" xlink:title="Class Ieee80211DataOrMgmtHeader" target="_parent">
<polygon fill="#fffcaf" stroke="black" points="446.5,-19 280.5,-19 280.5,0 446.5,0 446.5,-19"/>
<text text-anchor="middle" x="363.5" y="-7" font-family="Helvetica,sans-Serif" font-size="10.00">Ieee80211DataOrMgmtHeader</text>
</a>
</g>
</g>
<!-- Ieee80211TwoAddressHeader&#45;&gt;Ieee80211DataOrMgmtHeader -->
<g id="edge4" class="edge">
<title>Ieee80211TwoAddressHeader&#45;&gt;Ieee80211DataOrMgmtHeader</title>
<path fill="none" stroke="black" d="M293,-54.98C308.58,-45.15 334.07,-29.07 349.76,-19.17"/>
</g>
<!-- Ieee80211RtsFrame -->
<g id="node6" class="node">
<title>Ieee80211RtsFrame</title>
<g id="a_node6"><a xlink:href="src-inet-linklayer-ieee80211-mac-Ieee80211RtsFrame.html" xlink:title="Class Ieee80211RtsFrame" target="_parent">
<polygon fill="#fffcaf" stroke="black" points="578.5,-19 464.5,-19 464.5,0 578.5,0 578.5,-19"/>
<text text-anchor="middle" x="521.5" y="-7" font-family="Helvetica,sans-Serif" font-size="10.00">Ieee80211RtsFrame</text>
</a>
</g>
</g>
<!-- Ieee80211TwoAddressHeader&#45;&gt;Ieee80211RtsFrame -->
<g id="edge5" class="edge">
<title>Ieee80211TwoAddressHeader&#45;&gt;Ieee80211RtsFrame</title>
<path fill="none" stroke="black" d="M318.38,-54.98C363.41,-45.12 437.16,-28.97 482.31,-19.08"/>
</g>
<!-- Ieee80211OneAddressHeader -->
<g id="node2" class="node">
<title>Ieee80211OneAddressHeader</title>
<g id="a_node2"><a xlink:href="src-inet-linklayer-ieee80211-mac-Ieee80211OneAddressHeader.html" xlink:title="Class Ieee80211OneAddressHeader" target="_parent">
<polygon fill="#fffcaf" stroke="black" points="360,-129 199,-129 199,-110 360,-110 360,-129"/>
<text text-anchor="middle" x="279.5" y="-117" font-family="Helvetica,sans-Serif" font-size="10.00">Ieee80211OneAddressHeader</text>
</a>
</g>
</g>
<!-- Ieee80211OneAddressHeader&#45;&gt;Ieee80211TwoAddressHeader -->
<g id="edge1" class="edge">
<title>Ieee80211OneAddressHeader&#45;&gt;Ieee80211TwoAddressHeader</title>
<path fill="none" stroke="black" d="M279.5,-109.75C279.5,-99.87 279.5,-83.9 279.5,-74.09"/>
</g>
</g>
</svg>
