<?xml version="1.0" encoding="UTF-8" standalone="no"?>
<!DOCTYPE svg PUBLIC "-//W3C//DTD SVG 1.1//EN"
 "http://www.w3.org/Graphics/SVG/1.1/DTD/svg11.dtd">
<!-- Generated by graphviz version 2.43.0 (0)
 -->
<!-- Title: opp Pages: 1 -->
<svg width="174pt" height="82pt"
 viewBox="0.00 0.00 174.00 82.00" xmlns="http://www.w3.org/2000/svg" xmlns:xlink="http://www.w3.org/1999/xlink">
<g id="graph0" class="graph" transform="scale(1 1) rotate(0) translate(4 78)">
<title>opp</title>
<polygon fill="transparent" stroke="transparent" points="-4,4 -4,-78 170,-78 170,4 -4,4"/>
<!-- RtpInnerPacket -->
<g id="node1" class="node">
<title>RtpInnerPacket</title>
<g id="a_node1"><a xlink:href="src-inet-transportlayer-rtp-RtpInnerPacket.html" xlink:title="Packet RtpInnerPacket" target="_parent">
<polygon fill="#fff700" stroke="black" points="126.5,-74 36.5,-74 36.5,-55 126.5,-55 126.5,-74"/>
<text text-anchor="middle" x="81.5" y="-62" font-family="Helvetica,sans-Serif" font-size="10.00">RtpInnerPacket</text>
</a>
</g>
</g>
<!-- RtpInpType -->
<g id="node2" class="node">
<title>RtpInpType</title>
<g id="a_node2"><a xlink:href="src-inet-transportlayer-rtp-RtpInpType.html" xlink:title="Enum RtpInpType" target="_parent">
<polygon fill="#d0ffd0" stroke="black" points="71,-19 0,-19 0,0 71,0 71,-19"/>
<text text-anchor="middle" x="35.5" y="-7" font-family="Helvetica,sans-Serif" font-size="10.00">RtpInpType</text>
</a>
</g>
</g>
<!-- RtpInnerPacket&#45;&gt;RtpInpType -->
<g id="edge1" class="edge">
<title>RtpInnerPacket&#45;&gt;RtpInpType</title>
<path fill="none" stroke="black" d="M73.9,-54.75C67.34,-47.18 57.68,-36.05 49.69,-26.84"/>
<polygon fill="black" stroke="black" points="52.15,-24.35 42.95,-19.09 46.87,-28.94 52.15,-24.35"/>
</g>
<!-- Ipv4Address -->
<g id="node3" class="node">
<title>Ipv4Address</title>
<g id="a_node3"><a xlink:href="src-inet-networklayer-contract-ipv4-Ipv4Address.html" xlink:title="Class Ipv4Address" target="_parent">
<polygon fill="#fffcaf" stroke="black" points="166,-19 89,-19 89,0 166,0 166,-19"/>
<text text-anchor="middle" x="127.5" y="-7" font-family="Helvetica,sans-Serif" font-size="10.00">Ipv4Address</text>
</a>
</g>
</g>
<!-- RtpInnerPacket&#45;&gt;Ipv4Address -->
<g id="edge2" class="edge">
<title>RtpInnerPacket&#45;&gt;Ipv4Address</title>
<path fill="none" stroke="black" d="M89.1,-54.75C95.66,-47.18 105.32,-36.05 113.31,-26.84"/>
<polygon fill="black" stroke="black" points="116.13,-28.94 120.05,-19.09 110.85,-24.35 116.13,-28.94"/>
</g>
</g>
</svg>
