<?xml version="1.0" encoding="UTF-8" standalone="no"?>
<!DOCTYPE svg PUBLIC "-//W3C//DTD SVG 1.1//EN"
 "http://www.w3.org/Graphics/SVG/1.1/DTD/svg11.dtd">
<!-- Generated by graphviz version 2.43.0 (0)
 -->
<!-- Title: opp Pages: 1 -->
<svg width="212pt" height="137pt"
 viewBox="0.00 0.00 211.50 137.00" xmlns="http://www.w3.org/2000/svg" xmlns:xlink="http://www.w3.org/1999/xlink">
<g id="graph0" class="graph" transform="scale(1 1) rotate(0) translate(4 133)">
<title>opp</title>
<polygon fill="transparent" stroke="transparent" points="-4,4 -4,-133 207.5,-133 207.5,4 -4,4"/>
<!-- GroupRecord -->
<g id="node1" class="node">
<title>GroupRecord</title>
<g id="a_node1"><a xlink:href="src-inet-networklayer-ipv4-GroupRecord.html" xlink:title="Class GroupRecord" target="_parent">
<polygon fill="#fff700" stroke="black" points="149,-74 69,-74 69,-55 149,-55 149,-74"/>
<text text-anchor="middle" x="109" y="-62" font-family="Helvetica,sans-Serif" font-size="10.00">GroupRecord</text>
</a>
</g>
</g>
<!-- Ipv4AddressVector -->
<g id="node2" class="node">
<title>Ipv4AddressVector</title>
<g id="a_node2"><a xlink:href="src-inet-networklayer-contract-ipv4-Ipv4AddressVector.html" xlink:title="Class Ipv4AddressVector" target="_parent">
<polygon fill="#fffcaf" stroke="black" points="108,-19 0,-19 0,0 108,0 108,-19"/>
<text text-anchor="middle" x="54" y="-7" font-family="Helvetica,sans-Serif" font-size="10.00">Ipv4AddressVector</text>
</a>
</g>
</g>
<!-- GroupRecord&#45;&gt;Ipv4AddressVector -->
<g id="edge1" class="edge">
<title>GroupRecord&#45;&gt;Ipv4AddressVector</title>
<path fill="none" stroke="black" d="M99.92,-54.75C91.91,-47.03 80.04,-35.6 70.38,-26.28"/>
<polygon fill="black" stroke="black" points="72.54,-23.51 62.91,-19.09 67.69,-28.55 72.54,-23.51"/>
</g>
<!-- Ipv4Address -->
<g id="node3" class="node">
<title>Ipv4Address</title>
<g id="a_node3"><a xlink:href="src-inet-networklayer-contract-ipv4-Ipv4Address.html" xlink:title="Class Ipv4Address" target="_parent">
<polygon fill="#fffcaf" stroke="black" points="203.5,-19 126.5,-19 126.5,0 203.5,0 203.5,-19"/>
<text text-anchor="middle" x="165" y="-7" font-family="Helvetica,sans-Serif" font-size="10.00">Ipv4Address</text>
</a>
</g>
</g>
<!-- GroupRecord&#45;&gt;Ipv4Address -->
<g id="edge2" class="edge">
<title>GroupRecord&#45;&gt;Ipv4Address</title>
<path fill="none" stroke="black" d="M118,-54.98C126.19,-47.23 138.51,-35.58 148.47,-26.14"/>
<polygon fill="black" stroke="black" points="150.98,-28.59 155.84,-19.17 146.17,-23.5 150.98,-28.59"/>
</g>
<!-- Igmpv3Report -->
<g id="node4" class="node">
<title>Igmpv3Report</title>
<g id="a_node4"><a xlink:href="src-inet-networklayer-ipv4-Igmpv3Report.html" xlink:title="Class Igmpv3Report" target="_parent">
<polygon fill="#fffcaf" stroke="black" points="152,-129 66,-129 66,-110 152,-110 152,-129"/>
<text text-anchor="middle" x="109" y="-117" font-family="Helvetica,sans-Serif" font-size="10.00">Igmpv3Report</text>
</a>
</g>
</g>
<!-- Igmpv3Report&#45;&gt;GroupRecord -->
<g id="edge3" class="edge">
<title>Igmpv3Report&#45;&gt;GroupRecord</title>
<path fill="none" stroke="black" d="M109,-109.75C109,-102.8 109,-92.85 109,-84.13"/>
<polygon fill="black" stroke="black" points="112.5,-84.09 109,-74.09 105.5,-84.09 112.5,-84.09"/>
</g>
</g>
</svg>
