<?xml version="1.0" encoding="UTF-8" standalone="no"?>
<!DOCTYPE svg PUBLIC "-//W3C//DTD SVG 1.1//EN"
 "http://www.w3.org/Graphics/SVG/1.1/DTD/svg11.dtd">
<!-- Generated by graphviz version 2.43.0 (0)
 -->
<!-- Title: opp Pages: 1 -->
<svg width="169pt" height="137pt"
 viewBox="0.00 0.00 169.00 137.00" xmlns="http://www.w3.org/2000/svg" xmlns:xlink="http://www.w3.org/1999/xlink">
<g id="graph0" class="graph" transform="scale(1 1) rotate(0) translate(4 133)">
<title>opp</title>
<polygon fill="transparent" stroke="transparent" points="-4,4 -4,-133 165,-133 165,4 -4,4"/>
<!-- Ieee80211MacHeader -->
<g id="node1" class="node">
<title>Ieee80211MacHeader</title>
<g id="a_node1"><a xlink:href="src-inet-linklayer-ieee80211-mac-Ieee80211MacHeader.html" xlink:title="Class Ieee80211MacHeader" target="_parent">
<polygon fill="#fff700" stroke="black" points="142,-74 19,-74 19,-55 142,-55 142,-74"/>
<text text-anchor="middle" x="80.5" y="-62" font-family="Helvetica,sans-Serif" font-size="10.00">Ieee80211MacHeader</text>
</a>
</g>
</g>
<!-- Ieee80211OneAddressHeader -->
<g id="node3" class="node">
<title>Ieee80211OneAddressHeader</title>
<g id="a_node3"><a xlink:href="src-inet-linklayer-ieee80211-mac-Ieee80211OneAddressHeader.html" xlink:title="Class Ieee80211OneAddressHeader" target="_parent">
<polygon fill="#fffcaf" stroke="black" points="161,-19 0,-19 0,0 161,0 161,-19"/>
<text text-anchor="middle" x="80.5" y="-7" font-family="Helvetica,sans-Serif" font-size="10.00">Ieee80211OneAddressHeader</text>
</a>
</g>
</g>
<!-- Ieee80211MacHeader&#45;&gt;Ieee80211OneAddressHeader -->
<g id="edge2" class="edge">
<title>Ieee80211MacHeader&#45;&gt;Ieee80211OneAddressHeader</title>
<path fill="none" stroke="black" d="M80.5,-54.75C80.5,-44.87 80.5,-28.9 80.5,-19.09"/>
</g>
<!-- FieldsChunk -->
<g id="node2" class="node">
<title>FieldsChunk</title>
<g id="a_node2"><a xlink:href="src-inet-common-packet-chunk-FieldsChunk.html" xlink:title="Class FieldsChunk" target="_parent">
<polygon fill="#fffcaf" stroke="black" points="118,-129 43,-129 43,-110 118,-110 118,-129"/>
<text text-anchor="middle" x="80.5" y="-117" font-family="Helvetica,sans-Serif" font-size="10.00">FieldsChunk</text>
</a>
</g>
</g>
<!-- FieldsChunk&#45;&gt;Ieee80211MacHeader -->
<g id="edge1" class="edge">
<title>FieldsChunk&#45;&gt;Ieee80211MacHeader</title>
<path fill="none" stroke="black" d="M80.5,-109.75C80.5,-99.87 80.5,-83.9 80.5,-74.09"/>
</g>
</g>
</svg>
