<?xml version="1.0" encoding="UTF-8" standalone="no"?>
<!DOCTYPE svg PUBLIC "-//W3C//DTD SVG 1.1//EN"
 "http://www.w3.org/Graphics/SVG/1.1/DTD/svg11.dtd">
<!-- Generated by graphviz version 2.43.0 (0)
 -->
<!-- Title: opp Pages: 1 -->
<svg width="508pt" height="82pt"
 viewBox="0.00 0.00 507.50 82.00" xmlns="http://www.w3.org/2000/svg" xmlns:xlink="http://www.w3.org/1999/xlink">
<g id="graph0" class="graph" transform="scale(1 1) rotate(0) translate(4 78)">
<title>opp</title>
<polygon fill="transparent" stroke="transparent" points="-4,4 -4,-78 503.5,-78 503.5,4 -4,4"/>
<!-- Ospfv2Lsa -->
<g id="node1" class="node">
<title>Ospfv2Lsa</title>
<g id="a_node1"><a xlink:href="src-inet-routing-ospfv2-Ospfv2Lsa.html" xlink:title="Class Ospfv2Lsa" target="_parent">
<polygon fill="#fff700" stroke="black" points="288,-74 220,-74 220,-55 288,-55 288,-74"/>
<text text-anchor="middle" x="254" y="-62" font-family="Helvetica,sans-Serif" font-size="10.00">Ospfv2Lsa</text>
</a>
</g>
</g>
<!-- Ospfv2AsExternalLsa -->
<g id="node2" class="node">
<title>Ospfv2AsExternalLsa</title>
<g id="a_node2"><a xlink:href="src-inet-routing-ospfv2-Ospfv2AsExternalLsa.html" xlink:title="Class Ospfv2AsExternalLsa" target="_parent">
<polygon fill="#fffcaf" stroke="black" points="120,-19 0,-19 0,0 120,0 120,-19"/>
<text text-anchor="middle" x="60" y="-7" font-family="Helvetica,sans-Serif" font-size="10.00">Ospfv2AsExternalLsa</text>
</a>
</g>
</g>
<!-- Ospfv2Lsa&#45;&gt;Ospfv2AsExternalLsa -->
<g id="edge1" class="edge">
<title>Ospfv2Lsa&#45;&gt;Ospfv2AsExternalLsa</title>
<path fill="none" stroke="black" d="M222.83,-54.98C186.74,-45.12 127.61,-28.97 91.41,-19.08"/>
</g>
<!-- Ospfv2NetworkLsa -->
<g id="node3" class="node">
<title>Ospfv2NetworkLsa</title>
<g id="a_node3"><a xlink:href="src-inet-routing-ospfv2-Ospfv2NetworkLsa.html" xlink:title="Class Ospfv2NetworkLsa" target="_parent">
<polygon fill="#fffcaf" stroke="black" points="247.5,-19 138.5,-19 138.5,0 247.5,0 247.5,-19"/>
<text text-anchor="middle" x="193" y="-7" font-family="Helvetica,sans-Serif" font-size="10.00">Ospfv2NetworkLsa</text>
</a>
</g>
</g>
<!-- Ospfv2Lsa&#45;&gt;Ospfv2NetworkLsa -->
<g id="edge2" class="edge">
<title>Ospfv2Lsa&#45;&gt;Ospfv2NetworkLsa</title>
<path fill="none" stroke="black" d="M244.2,-54.98C232.88,-45.15 214.37,-29.07 202.98,-19.17"/>
</g>
<!-- Ospfv2RouterLsa -->
<g id="node4" class="node">
<title>Ospfv2RouterLsa</title>
<g id="a_node4"><a xlink:href="src-inet-routing-ospfv2-Ospfv2RouterLsa.html" xlink:title="Class Ospfv2RouterLsa" target="_parent">
<polygon fill="#fffcaf" stroke="black" points="366,-19 266,-19 266,0 366,0 366,-19"/>
<text text-anchor="middle" x="316" y="-7" font-family="Helvetica,sans-Serif" font-size="10.00">Ospfv2RouterLsa</text>
</a>
</g>
</g>
<!-- Ospfv2Lsa&#45;&gt;Ospfv2RouterLsa -->
<g id="edge3" class="edge">
<title>Ospfv2Lsa&#45;&gt;Ospfv2RouterLsa</title>
<path fill="none" stroke="black" d="M263.96,-54.98C275.46,-45.15 294.28,-29.07 305.86,-19.17"/>
</g>
<!-- Ospfv2SummaryLsa -->
<g id="node5" class="node">
<title>Ospfv2SummaryLsa</title>
<g id="a_node5"><a xlink:href="src-inet-routing-ospfv2-Ospfv2SummaryLsa.html" xlink:title="Class Ospfv2SummaryLsa" target="_parent">
<polygon fill="#fffcaf" stroke="black" points="499.5,-19 384.5,-19 384.5,0 499.5,0 499.5,-19"/>
<text text-anchor="middle" x="442" y="-7" font-family="Helvetica,sans-Serif" font-size="10.00">Ospfv2SummaryLsa</text>
</a>
</g>
</g>
<!-- Ospfv2Lsa&#45;&gt;Ospfv2SummaryLsa -->
<g id="edge4" class="edge">
<title>Ospfv2Lsa&#45;&gt;Ospfv2SummaryLsa</title>
<path fill="none" stroke="black" d="M284.21,-54.98C319.18,-45.12 376.48,-28.97 411.56,-19.08"/>
</g>
</g>
</svg>
