<?xml version="1.0" encoding="UTF-8" standalone="no"?>
<!DOCTYPE svg PUBLIC "-//W3C//DTD SVG 1.1//EN"
 "http://www.w3.org/Graphics/SVG/1.1/DTD/svg11.dtd">
<!-- Generated by graphviz version 2.43.0 (0)
 -->
<!-- Title: opp Pages: 1 -->
<svg width="430pt" height="82pt"
 viewBox="0.00 0.00 429.50 82.00" xmlns="http://www.w3.org/2000/svg" xmlns:xlink="http://www.w3.org/1999/xlink">
<g id="graph0" class="graph" transform="scale(1 1) rotate(0) translate(4 78)">
<title>opp</title>
<polygon fill="transparent" stroke="transparent" points="-4,4 -4,-78 425.5,-78 425.5,4 -4,4"/>
<!-- BgpUpdateMessage -->
<g id="node1" class="node">
<title>BgpUpdateMessage</title>
<g id="a_node1"><a xlink:href="src-inet-routing-bgpv4-bgpmessage-BgpUpdateMessage.html" xlink:title="Class BgpUpdateMessage" target="_parent">
<polygon fill="#fff700" stroke="black" points="302.5,-74 188.5,-74 188.5,-55 302.5,-55 302.5,-74"/>
<text text-anchor="middle" x="245.5" y="-62" font-family="Helvetica,sans-Serif" font-size="10.00">BgpUpdateMessage</text>
</a>
</g>
</g>
<!-- BgpUpdateWithdrawnRoutes -->
<g id="node2" class="node">
<title>BgpUpdateWithdrawnRoutes</title>
<g id="a_node2"><a xlink:href="src-inet-routing-bgpv4-bgpmessage-BgpUpdateWithdrawnRoutes.html" xlink:title="Struct BgpUpdateWithdrawnRoutes" target="_parent">
<polygon fill="#d0d0ff" stroke="black" points="157,-19 0,-19 0,0 157,0 157,-19"/>
<text text-anchor="middle" x="78.5" y="-7" font-family="Helvetica,sans-Serif" font-size="10.00">BgpUpdateWithdrawnRoutes</text>
</a>
</g>
</g>
<!-- BgpUpdateMessage&#45;&gt;BgpUpdateWithdrawnRoutes -->
<g id="edge1" class="edge">
<title>BgpUpdateMessage&#45;&gt;BgpUpdateWithdrawnRoutes</title>
<path fill="none" stroke="black" d="M218.67,-54.98C190.63,-46.09 146.45,-32.07 115.2,-22.15"/>
<polygon fill="black" stroke="black" points="116.13,-18.77 105.54,-19.08 114.01,-25.44 116.13,-18.77"/>
</g>
<!-- BgpUpdatePathAttributes -->
<g id="node3" class="node">
<title>BgpUpdatePathAttributes</title>
<g id="a_node3"><a xlink:href="src-inet-routing-bgpv4-bgpmessage-BgpUpdatePathAttributes.html" xlink:title="Class BgpUpdatePathAttributes" target="_parent">
<polygon fill="#fffcaf" stroke="black" points="315.5,-19 175.5,-19 175.5,0 315.5,0 315.5,-19"/>
<text text-anchor="middle" x="245.5" y="-7" font-family="Helvetica,sans-Serif" font-size="10.00">BgpUpdatePathAttributes</text>
</a>
</g>
</g>
<!-- BgpUpdateMessage&#45;&gt;BgpUpdatePathAttributes -->
<g id="edge2" class="edge">
<title>BgpUpdateMessage&#45;&gt;BgpUpdatePathAttributes</title>
<path fill="none" stroke="black" d="M245.5,-54.75C245.5,-47.8 245.5,-37.85 245.5,-29.13"/>
<polygon fill="black" stroke="black" points="249,-29.09 245.5,-19.09 242,-29.09 249,-29.09"/>
</g>
<!-- BgpUpdateNlri -->
<g id="node4" class="node">
<title>BgpUpdateNlri</title>
<g id="a_node4"><a xlink:href="src-inet-routing-bgpv4-bgpmessage-BgpUpdateNlri.html" xlink:title="Struct BgpUpdateNlri" target="_parent">
<polygon fill="#d0d0ff" stroke="black" points="421.5,-19 333.5,-19 333.5,0 421.5,0 421.5,-19"/>
<text text-anchor="middle" x="377.5" y="-7" font-family="Helvetica,sans-Serif" font-size="10.00">BgpUpdateNlri</text>
</a>
</g>
</g>
<!-- BgpUpdateMessage&#45;&gt;BgpUpdateNlri -->
<g id="edge3" class="edge">
<title>BgpUpdateMessage&#45;&gt;BgpUpdateNlri</title>
<path fill="none" stroke="black" d="M266.71,-54.98C288.23,-46.34 321.78,-32.87 346.33,-23.02"/>
<polygon fill="black" stroke="black" points="347.93,-26.14 355.91,-19.17 345.32,-19.65 347.93,-26.14"/>
</g>
</g>
</svg>
