<?xml version="1.0" encoding="UTF-8" standalone="no"?>
<!DOCTYPE svg PUBLIC "-//W3C//DTD SVG 1.1//EN"
 "http://www.w3.org/Graphics/SVG/1.1/DTD/svg11.dtd">
<!-- Generated by graphviz version 2.43.0 (0)
 -->
<!-- Title: opp Pages: 1 -->
<svg width="929pt" height="82pt"
 viewBox="0.00 0.00 928.50 82.00" xmlns="http://www.w3.org/2000/svg" xmlns:xlink="http://www.w3.org/1999/xlink">
<g id="graph0" class="graph" transform="scale(1 1) rotate(0) translate(4 78)">
<title>opp</title>
<polygon fill="transparent" stroke="transparent" points="-4,4 -4,-78 924.5,-78 924.5,4 -4,4"/>
<!-- Ospfv3Packet -->
<g id="node1" class="node">
<title>Ospfv3Packet</title>
<g id="a_node1"><a xlink:href="src-inet-routing-ospfv3-Ospfv3Packet.html" xlink:title="Class Ospfv3Packet" target="_parent">
<polygon fill="#fff700" stroke="black" points="482,-74 399,-74 399,-55 482,-55 482,-74"/>
<text text-anchor="middle" x="440.5" y="-62" font-family="Helvetica,sans-Serif" font-size="10.00">Ospfv3Packet</text>
</a>
</g>
</g>
<!-- Ospfv3DatabaseDescriptionPacket -->
<g id="node2" class="node">
<title>Ospfv3DatabaseDescriptionPacket</title>
<g id="a_node2"><a xlink:href="src-inet-routing-ospfv3-Ospfv3DatabaseDescriptionPacket.html" xlink:title="Class Ospfv3DatabaseDescriptionPacket" target="_parent">
<polygon fill="#fffcaf" stroke="black" points="185,-19 0,-19 0,0 185,0 185,-19"/>
<text text-anchor="middle" x="92.5" y="-7" font-family="Helvetica,sans-Serif" font-size="10.00">Ospfv3DatabaseDescriptionPacket</text>
</a>
</g>
</g>
<!-- Ospfv3Packet&#45;&gt;Ospfv3DatabaseDescriptionPacket -->
<g id="edge1" class="edge">
<title>Ospfv3Packet&#45;&gt;Ospfv3DatabaseDescriptionPacket</title>
<path fill="none" stroke="black" d="M398.87,-57.16C336.45,-47.65 218.48,-29.69 148.55,-19.04"/>
</g>
<!-- Ospfv3HelloPacket -->
<g id="node3" class="node">
<title>Ospfv3HelloPacket</title>
<g id="a_node3"><a xlink:href="src-inet-routing-ospfv3-Ospfv3HelloPacket.html" xlink:title="Class Ospfv3HelloPacket" target="_parent">
<polygon fill="#fffcaf" stroke="black" points="312,-19 203,-19 203,0 312,0 312,-19"/>
<text text-anchor="middle" x="257.5" y="-7" font-family="Helvetica,sans-Serif" font-size="10.00">Ospfv3HelloPacket</text>
</a>
</g>
</g>
<!-- Ospfv3Packet&#45;&gt;Ospfv3HelloPacket -->
<g id="edge2" class="edge">
<title>Ospfv3Packet&#45;&gt;Ospfv3HelloPacket</title>
<path fill="none" stroke="black" d="M411.1,-54.98C377.05,-45.12 321.28,-28.97 287.13,-19.08"/>
</g>
<!-- Ospfv3LinkStateAcknowledgementPacket -->
<g id="node4" class="node">
<title>Ospfv3LinkStateAcknowledgementPacket</title>
<g id="a_node4"><a xlink:href="src-inet-routing-ospfv3-Ospfv3LinkStateAcknowledgementPacket.html" xlink:title="Class Ospfv3LinkStateAcknowledgementPacket" target="_parent">
<polygon fill="#fffcaf" stroke="black" points="550.5,-19 330.5,-19 330.5,0 550.5,0 550.5,-19"/>
<text text-anchor="middle" x="440.5" y="-7" font-family="Helvetica,sans-Serif" font-size="10.00">Ospfv3LinkStateAcknowledgementPacket</text>
</a>
</g>
</g>
<!-- Ospfv3Packet&#45;&gt;Ospfv3LinkStateAcknowledgementPacket -->
<g id="edge3" class="edge">
<title>Ospfv3Packet&#45;&gt;Ospfv3LinkStateAcknowledgementPacket</title>
<path fill="none" stroke="black" d="M440.5,-54.75C440.5,-44.87 440.5,-28.9 440.5,-19.09"/>
</g>
<!-- Ospfv3LinkStateRequestPacket -->
<g id="node5" class="node">
<title>Ospfv3LinkStateRequestPacket</title>
<g id="a_node5"><a xlink:href="src-inet-routing-ospfv3-Ospfv3LinkStateRequestPacket.html" xlink:title="Class Ospfv3LinkStateRequestPacket" target="_parent">
<polygon fill="#fffcaf" stroke="black" points="738,-19 569,-19 569,0 738,0 738,-19"/>
<text text-anchor="middle" x="653.5" y="-7" font-family="Helvetica,sans-Serif" font-size="10.00">Ospfv3LinkStateRequestPacket</text>
</a>
</g>
</g>
<!-- Ospfv3Packet&#45;&gt;Ospfv3LinkStateRequestPacket -->
<g id="edge4" class="edge">
<title>Ospfv3Packet&#45;&gt;Ospfv3LinkStateRequestPacket</title>
<path fill="none" stroke="black" d="M474.72,-54.98C514.35,-45.12 579.27,-28.97 619.01,-19.08"/>
</g>
<!-- Ospfv3LinkStateUpdatePacket -->
<g id="node6" class="node">
<title>Ospfv3LinkStateUpdatePacket</title>
<g id="a_node6"><a xlink:href="src-inet-routing-ospfv3-Ospfv3LinkStateUpdatePacket.html" xlink:title="Class Ospfv3LinkStateUpdatePacket" target="_parent">
<polygon fill="#fffcaf" stroke="black" points="920.5,-19 756.5,-19 756.5,0 920.5,0 920.5,-19"/>
<text text-anchor="middle" x="838.5" y="-7" font-family="Helvetica,sans-Serif" font-size="10.00">Ospfv3LinkStateUpdatePacket</text>
</a>
</g>
</g>
<!-- Ospfv3Packet&#45;&gt;Ospfv3LinkStateUpdatePacket -->
<g id="edge5" class="edge">
<title>Ospfv3Packet&#45;&gt;Ospfv3LinkStateUpdatePacket</title>
<path fill="none" stroke="black" d="M482.34,-57.93C551.99,-48.65 692.17,-29.99 774.37,-19.04"/>
</g>
</g>
</svg>
