<?xml version="1.0" encoding="UTF-8" standalone="no"?>
<!DOCTYPE svg PUBLIC "-//W3C//DTD SVG 1.1//EN"
 "http://www.w3.org/Graphics/SVG/1.1/DTD/svg11.dtd">
<!-- Generated by graphviz version 2.43.0 (0)
 -->
<!-- Title: opp Pages: 1 -->
<svg width="212pt" height="82pt"
 viewBox="0.00 0.00 211.50 82.00" xmlns="http://www.w3.org/2000/svg" xmlns:xlink="http://www.w3.org/1999/xlink">
<g id="graph0" class="graph" transform="scale(1 1) rotate(0) translate(4 78)">
<title>opp</title>
<polygon fill="transparent" stroke="transparent" points="-4,4 -4,-78 207.5,-78 207.5,4 -4,4"/>
<!-- EigrpIpv6Hello -->
<g id="node1" class="node">
<title>EigrpIpv6Hello</title>
<g id="a_node1"><a xlink:href="src-inet-routing-eigrp-messages-EigrpIpv6Hello.html" xlink:title="Class EigrpIpv6Hello" target="_parent">
<polygon fill="#fff700" stroke="black" points="152.5,-74 64.5,-74 64.5,-55 152.5,-55 152.5,-74"/>
<text text-anchor="middle" x="108.5" y="-62" font-family="Helvetica,sans-Serif" font-size="10.00">EigrpIpv6Hello</text>
</a>
</g>
</g>
<!-- EigrpTlvParameter -->
<g id="node2" class="node">
<title>EigrpTlvParameter</title>
<g id="a_node2"><a xlink:href="src-inet-routing-eigrp-messages-EigrpTlvParameter.html" xlink:title="Struct EigrpTlvParameter" target="_parent">
<polygon fill="#d0d0ff" stroke="black" points="107,-19 0,-19 0,0 107,0 107,-19"/>
<text text-anchor="middle" x="53.5" y="-7" font-family="Helvetica,sans-Serif" font-size="10.00">EigrpTlvParameter</text>
</a>
</g>
</g>
<!-- EigrpIpv6Hello&#45;&gt;EigrpTlvParameter -->
<g id="edge1" class="edge">
<title>EigrpIpv6Hello&#45;&gt;EigrpTlvParameter</title>
<path fill="none" stroke="black" d="M99.42,-54.75C91.41,-47.03 79.54,-35.6 69.88,-26.28"/>
<polygon fill="black" stroke="black" points="72.04,-23.51 62.41,-19.09 67.19,-28.55 72.04,-23.51"/>
</g>
<!-- EigrpTlvStub -->
<g id="node3" class="node">
<title>EigrpTlvStub</title>
<g id="a_node3"><a xlink:href="src-inet-routing-eigrp-messages-EigrpTlvStub.html" xlink:title="Struct EigrpTlvStub" target="_parent">
<polygon fill="#d0d0ff" stroke="black" points="203.5,-19 125.5,-19 125.5,0 203.5,0 203.5,-19"/>
<text text-anchor="middle" x="164.5" y="-7" font-family="Helvetica,sans-Serif" font-size="10.00">EigrpTlvStub</text>
</a>
</g>
</g>
<!-- EigrpIpv6Hello&#45;&gt;EigrpTlvStub -->
<g id="edge2" class="edge">
<title>EigrpIpv6Hello&#45;&gt;EigrpTlvStub</title>
<path fill="none" stroke="black" d="M117.5,-54.98C125.69,-47.23 138.01,-35.58 147.97,-26.14"/>
<polygon fill="black" stroke="black" points="150.48,-28.59 155.34,-19.17 145.67,-23.5 150.48,-28.59"/>
</g>
</g>
</svg>
