<?xml version="1.0" encoding="UTF-8" standalone="no"?>
<!DOCTYPE svg PUBLIC "-//W3C//DTD SVG 1.1//EN"
 "http://www.w3.org/Graphics/SVG/1.1/DTD/svg11.dtd">
<!-- Generated by graphviz version 2.43.0 (0)
 -->
<!-- Title: opp Pages: 1 -->
<svg width="310pt" height="137pt"
 viewBox="0.00 0.00 310.00 137.00" xmlns="http://www.w3.org/2000/svg" xmlns:xlink="http://www.w3.org/1999/xlink">
<g id="graph0" class="graph" transform="scale(1 1) rotate(0) translate(4 133)">
<title>opp</title>
<polygon fill="transparent" stroke="transparent" points="-4,4 -4,-133 306,-133 306,4 -4,4"/>
<!-- FecTlv -->
<g id="node1" class="node">
<title>FecTlv</title>
<g id="a_node1"><a xlink:href="src-inet-networklayer-ldp-FecTlv.html" xlink:title="Struct FecTlv" target="_parent">
<polygon fill="#9090ff" stroke="black" points="197,-74 143,-74 143,-55 197,-55 197,-74"/>
<text text-anchor="middle" x="170" y="-62" font-family="Helvetica,sans-Serif" font-size="10.00">FecTlv</text>
</a>
</g>
</g>
<!-- Ipv4Address -->
<g id="node2" class="node">
<title>Ipv4Address</title>
<g id="a_node2"><a xlink:href="src-inet-networklayer-contract-ipv4-Ipv4Address.html" xlink:title="Class Ipv4Address" target="_parent">
<polygon fill="#fffcaf" stroke="black" points="208.5,-19 131.5,-19 131.5,0 208.5,0 208.5,-19"/>
<text text-anchor="middle" x="170" y="-7" font-family="Helvetica,sans-Serif" font-size="10.00">Ipv4Address</text>
</a>
</g>
</g>
<!-- FecTlv&#45;&gt;Ipv4Address -->
<g id="edge1" class="edge">
<title>FecTlv&#45;&gt;Ipv4Address</title>
<path fill="none" stroke="black" d="M170,-54.75C170,-47.8 170,-37.85 170,-29.13"/>
<polygon fill="black" stroke="black" points="173.5,-29.09 170,-19.09 166.5,-29.09 173.5,-29.09"/>
</g>
<!-- LdpLabelMapping -->
<g id="node3" class="node">
<title>LdpLabelMapping</title>
<g id="a_node3"><a xlink:href="src-inet-networklayer-ldp-LdpLabelMapping.html" xlink:title="Class LdpLabelMapping" target="_parent">
<polygon fill="#fffcaf" stroke="black" points="102,-129 0,-129 0,-110 102,-110 102,-129"/>
<text text-anchor="middle" x="51" y="-117" font-family="Helvetica,sans-Serif" font-size="10.00">LdpLabelMapping</text>
</a>
</g>
</g>
<!-- LdpLabelMapping&#45;&gt;FecTlv -->
<g id="edge2" class="edge">
<title>LdpLabelMapping&#45;&gt;FecTlv</title>
<path fill="none" stroke="black" d="M70.12,-109.98C89.35,-101.42 119.23,-88.11 141.31,-78.28"/>
<polygon fill="black" stroke="black" points="142.82,-81.44 150.53,-74.17 139.97,-75.04 142.82,-81.44"/>
</g>
<!-- LdpLabelRequest -->
<g id="node4" class="node">
<title>LdpLabelRequest</title>
<g id="a_node4"><a xlink:href="src-inet-networklayer-ldp-LdpLabelRequest.html" xlink:title="Class LdpLabelRequest" target="_parent">
<polygon fill="#fffcaf" stroke="black" points="220,-129 120,-129 120,-110 220,-110 220,-129"/>
<text text-anchor="middle" x="170" y="-117" font-family="Helvetica,sans-Serif" font-size="10.00">LdpLabelRequest</text>
</a>
</g>
</g>
<!-- LdpLabelRequest&#45;&gt;FecTlv -->
<g id="edge3" class="edge">
<title>LdpLabelRequest&#45;&gt;FecTlv</title>
<path fill="none" stroke="black" d="M170,-109.75C170,-102.8 170,-92.85 170,-84.13"/>
<polygon fill="black" stroke="black" points="173.5,-84.09 170,-74.09 166.5,-84.09 173.5,-84.09"/>
</g>
<!-- LdpNotify -->
<g id="node5" class="node">
<title>LdpNotify</title>
<g id="a_node5"><a xlink:href="src-inet-networklayer-ldp-LdpNotify.html" xlink:title="Class LdpNotify" target="_parent">
<polygon fill="#fffcaf" stroke="black" points="302,-129 238,-129 238,-110 302,-110 302,-129"/>
<text text-anchor="middle" x="270" y="-117" font-family="Helvetica,sans-Serif" font-size="10.00">LdpNotify</text>
</a>
</g>
</g>
<!-- LdpNotify&#45;&gt;FecTlv -->
<g id="edge4" class="edge">
<title>LdpNotify&#45;&gt;FecTlv</title>
<path fill="none" stroke="black" d="M253.93,-109.98C238.14,-101.61 213.78,-88.7 195.37,-78.95"/>
<polygon fill="black" stroke="black" points="196.83,-75.76 186.36,-74.17 193.56,-81.95 196.83,-75.76"/>
</g>
</g>
</svg>
