<?xml version="1.0" encoding="UTF-8" standalone="no"?>
<!DOCTYPE svg PUBLIC "-//W3C//DTD SVG 1.1//EN"
 "http://www.w3.org/Graphics/SVG/1.1/DTD/svg11.dtd">
<!-- Generated by graphviz version 2.43.0 (0)
 -->
<!-- Title: opp Pages: 1 -->
<svg width="133pt" height="137pt"
 viewBox="0.00 0.00 133.00 137.00" xmlns="http://www.w3.org/2000/svg" xmlns:xlink="http://www.w3.org/1999/xlink">
<g id="graph0" class="graph" transform="scale(1 1) rotate(0) translate(4 133)">
<title>opp</title>
<polygon fill="transparent" stroke="transparent" points="-4,4 -4,-133 129,-133 129,4 -4,4"/>
<!-- Ospfv3RouterLsaBody -->
<g id="node1" class="node">
<title>Ospfv3RouterLsaBody</title>
<g id="a_node1"><a xlink:href="src-inet-routing-ospfv3-Ospfv3RouterLsaBody.html" xlink:title="Struct Ospfv3RouterLsaBody" target="_parent">
<polygon fill="#9090ff" stroke="black" points="125,-74 0,-74 0,-55 125,-55 125,-74"/>
<text text-anchor="middle" x="62.5" y="-62" font-family="Helvetica,sans-Serif" font-size="10.00">Ospfv3RouterLsaBody</text>
</a>
</g>
</g>
<!-- Ipv4Address -->
<g id="node2" class="node">
<title>Ipv4Address</title>
<g id="a_node2"><a xlink:href="src-inet-networklayer-contract-ipv4-Ipv4Address.html" xlink:title="Class Ipv4Address" target="_parent">
<polygon fill="#fffcaf" stroke="black" points="101,-19 24,-19 24,0 101,0 101,-19"/>
<text text-anchor="middle" x="62.5" y="-7" font-family="Helvetica,sans-Serif" font-size="10.00">Ipv4Address</text>
</a>
</g>
</g>
<!-- Ospfv3RouterLsaBody&#45;&gt;Ipv4Address -->
<g id="edge1" class="edge">
<title>Ospfv3RouterLsaBody&#45;&gt;Ipv4Address</title>
<path fill="none" stroke="black" d="M62.5,-54.75C62.5,-47.8 62.5,-37.85 62.5,-29.13"/>
<polygon fill="black" stroke="black" points="66,-29.09 62.5,-19.09 59,-29.09 66,-29.09"/>
</g>
<!-- Ospfv3RouterLsa -->
<g id="node3" class="node">
<title>Ospfv3RouterLsa</title>
<g id="a_node3"><a xlink:href="src-inet-routing-ospfv3-Ospfv3RouterLsa.html" xlink:title="Class Ospfv3RouterLsa" target="_parent">
<polygon fill="#fffcaf" stroke="black" points="112.5,-129 12.5,-129 12.5,-110 112.5,-110 112.5,-129"/>
<text text-anchor="middle" x="62.5" y="-117" font-family="Helvetica,sans-Serif" font-size="10.00">Ospfv3RouterLsa</text>
</a>
</g>
</g>
<!-- Ospfv3RouterLsa&#45;&gt;Ospfv3RouterLsaBody -->
<g id="edge2" class="edge">
<title>Ospfv3RouterLsa&#45;&gt;Ospfv3RouterLsaBody</title>
<path fill="none" stroke="black" d="M62.5,-109.75C62.5,-102.8 62.5,-92.85 62.5,-84.13"/>
<polygon fill="black" stroke="black" points="66,-84.09 62.5,-74.09 59,-84.09 66,-84.09"/>
</g>
</g>
</svg>
