<?xml version="1.0" encoding="UTF-8" standalone="no"?>
<!DOCTYPE svg PUBLIC "-//W3C//DTD SVG 1.1//EN"
 "http://www.w3.org/Graphics/SVG/1.1/DTD/svg11.dtd">
<!-- Generated by graphviz version 2.43.0 (0)
 -->
<!-- Title: opp Pages: 1 -->
<svg width="112pt" height="137pt"
 viewBox="0.00 0.00 112.00 137.00" xmlns="http://www.w3.org/2000/svg" xmlns:xlink="http://www.w3.org/1999/xlink">
<g id="graph0" class="graph" transform="scale(1 1) rotate(0) translate(4 133)">
<title>opp</title>
<polygon fill="transparent" stroke="transparent" points="-4,4 -4,-133 108,-133 108,4 -4,4"/>
<!-- UnreachableNode -->
<g id="node1" class="node">
<title>UnreachableNode</title>
<g id="a_node1"><a xlink:href="src-inet-routing-aodv-UnreachableNode.html" xlink:title="Struct UnreachableNode" target="_parent">
<polygon fill="#9090ff" stroke="black" points="104,-74 0,-74 0,-55 104,-55 104,-74"/>
<text text-anchor="middle" x="52" y="-62" font-family="Helvetica,sans-Serif" font-size="10.00">UnreachableNode</text>
</a>
</g>
</g>
<!-- L3Address -->
<g id="node2" class="node">
<title>L3Address</title>
<g id="a_node2"><a xlink:href="src-inet-networklayer-common-L3Address.html" xlink:title="Class L3Address" target="_parent">
<polygon fill="#fffcaf" stroke="black" points="85.5,-19 18.5,-19 18.5,0 85.5,0 85.5,-19"/>
<text text-anchor="middle" x="52" y="-7" font-family="Helvetica,sans-Serif" font-size="10.00">L3Address</text>
</a>
</g>
</g>
<!-- UnreachableNode&#45;&gt;L3Address -->
<g id="edge1" class="edge">
<title>UnreachableNode&#45;&gt;L3Address</title>
<path fill="none" stroke="black" d="M52,-54.75C52,-47.8 52,-37.85 52,-29.13"/>
<polygon fill="black" stroke="black" points="55.5,-29.09 52,-19.09 48.5,-29.09 55.5,-29.09"/>
</g>
<!-- Rerr -->
<g id="node3" class="node">
<title>Rerr</title>
<g id="a_node3"><a xlink:href="src-inet-routing-aodv-Rerr.html" xlink:title="Class Rerr" target="_parent">
<polygon fill="#fffcaf" stroke="black" points="79,-129 25,-129 25,-110 79,-110 79,-129"/>
<text text-anchor="middle" x="52" y="-117" font-family="Helvetica,sans-Serif" font-size="10.00">Rerr</text>
</a>
</g>
</g>
<!-- Rerr&#45;&gt;UnreachableNode -->
<g id="edge2" class="edge">
<title>Rerr&#45;&gt;UnreachableNode</title>
<path fill="none" stroke="black" d="M52,-109.75C52,-102.8 52,-92.85 52,-84.13"/>
<polygon fill="black" stroke="black" points="55.5,-84.09 52,-74.09 48.5,-84.09 55.5,-84.09"/>
</g>
</g>
</svg>
