<?xml version="1.0" encoding="UTF-8" standalone="no"?>
<!DOCTYPE svg PUBLIC "-//W3C//DTD SVG 1.1//EN"
 "http://www.w3.org/Graphics/SVG/1.1/DTD/svg11.dtd">
<!-- Generated by graphviz version 2.43.0 (0)
 -->
<!-- Title: opp Pages: 1 -->
<svg width="614pt" height="137pt"
 viewBox="0.00 0.00 614.00 137.00" xmlns="http://www.w3.org/2000/svg" xmlns:xlink="http://www.w3.org/1999/xlink">
<g id="graph0" class="graph" transform="scale(1 1) rotate(0) translate(4 133)">
<title>opp</title>
<polygon fill="transparent" stroke="transparent" points="-4,4 -4,-133 610,-133 610,4 -4,4"/>
<!-- TlvOptions -->
<g id="node1" class="node">
<title>TlvOptions</title>
<g id="a_node1"><a xlink:href="src-inet-common-TlvOptions.html" xlink:title="Class TlvOptions" target="_parent">
<polygon fill="#fff700" stroke="black" points="300,-74 231,-74 231,-55 300,-55 300,-74"/>
<text text-anchor="middle" x="265.5" y="-62" font-family="Helvetica,sans-Serif" font-size="10.00">TlvOptions</text>
</a>
</g>
</g>
<!-- TlvOptionBase -->
<g id="node2" class="node">
<title>TlvOptionBase</title>
<g id="a_node2"><a xlink:href="src-inet-common-TlvOptionBase.html" xlink:title="Class TlvOptionBase" target="_parent">
<polygon fill="#fffcaf" stroke="black" points="309.5,-19 221.5,-19 221.5,0 309.5,0 309.5,-19"/>
<text text-anchor="middle" x="265.5" y="-7" font-family="Helvetica,sans-Serif" font-size="10.00">TlvOptionBase</text>
</a>
</g>
</g>
<!-- TlvOptions&#45;&gt;TlvOptionBase -->
<g id="edge1" class="edge">
<title>TlvOptions&#45;&gt;TlvOptionBase</title>
<path fill="none" stroke="black" d="M265.5,-54.75C265.5,-47.8 265.5,-37.85 265.5,-29.13"/>
<polygon fill="black" stroke="black" points="269,-29.09 265.5,-19.09 262,-29.09 269,-29.09"/>
</g>
<!-- Ipv4Header -->
<g id="node3" class="node">
<title>Ipv4Header</title>
<g id="a_node3"><a xlink:href="src-inet-networklayer-ipv4-Ipv4Header.html" xlink:title="Class Ipv4Header" target="_parent">
<polygon fill="#fffcaf" stroke="black" points="73,-129 0,-129 0,-110 73,-110 73,-129"/>
<text text-anchor="middle" x="36.5" y="-117" font-family="Helvetica,sans-Serif" font-size="10.00">Ipv4Header</text>
</a>
</g>
</g>
<!-- Ipv4Header&#45;&gt;TlvOptions -->
<g id="edge2" class="edge">
<title>Ipv4Header&#45;&gt;TlvOptions</title>
<path fill="none" stroke="black" d="M73.04,-110.04C113.25,-100.74 177.9,-85.77 221.03,-75.79"/>
<polygon fill="black" stroke="black" points="222.01,-79.16 230.96,-73.49 220.43,-72.34 222.01,-79.16"/>
</g>
<!-- Ipv6DestinationOptionsHeader -->
<g id="node4" class="node">
<title>Ipv6DestinationOptionsHeader</title>
<g id="a_node4"><a xlink:href="src-inet-networklayer-ipv6-Ipv6DestinationOptionsHeader.html" xlink:title="Class Ipv6DestinationOptionsHeader" target="_parent">
<polygon fill="#fffcaf" stroke="black" points="258,-129 91,-129 91,-110 258,-110 258,-129"/>
<text text-anchor="middle" x="174.5" y="-117" font-family="Helvetica,sans-Serif" font-size="10.00">Ipv6DestinationOptionsHeader</text>
</a>
</g>
</g>
<!-- Ipv6DestinationOptionsHeader&#45;&gt;TlvOptions -->
<g id="edge3" class="edge">
<title>Ipv6DestinationOptionsHeader&#45;&gt;TlvOptions</title>
<path fill="none" stroke="black" d="M189.12,-109.98C203.36,-101.69 225.25,-88.94 241.95,-79.22"/>
<polygon fill="black" stroke="black" points="243.73,-82.23 250.61,-74.17 240.21,-76.18 243.73,-82.23"/>
</g>
<!-- Ipv6HopByHopOptionsHeader -->
<g id="node5" class="node">
<title>Ipv6HopByHopOptionsHeader</title>
<g id="a_node5"><a xlink:href="src-inet-networklayer-ipv6-Ipv6HopByHopOptionsHeader.html" xlink:title="Class Ipv6HopByHopOptionsHeader" target="_parent">
<polygon fill="#fffcaf" stroke="black" points="438.5,-129 276.5,-129 276.5,-110 438.5,-110 438.5,-129"/>
<text text-anchor="middle" x="357.5" y="-117" font-family="Helvetica,sans-Serif" font-size="10.00">Ipv6HopByHopOptionsHeader</text>
</a>
</g>
</g>
<!-- Ipv6HopByHopOptionsHeader&#45;&gt;TlvOptions -->
<g id="edge4" class="edge">
<title>Ipv6HopByHopOptionsHeader&#45;&gt;TlvOptions</title>
<path fill="none" stroke="black" d="M342.72,-109.98C328.32,-101.69 306.19,-88.94 289.31,-79.22"/>
<polygon fill="black" stroke="black" points="290.96,-76.13 280.55,-74.17 287.47,-82.19 290.96,-76.13"/>
</g>
<!-- NextHopForwardingHeader -->
<g id="node6" class="node">
<title>NextHopForwardingHeader</title>
<g id="a_node6"><a xlink:href="src-inet-networklayer-nexthop-NextHopForwardingHeader.html" xlink:title="Class NextHopForwardingHeader" target="_parent">
<polygon fill="#fffcaf" stroke="black" points="606,-129 457,-129 457,-110 606,-110 606,-129"/>
<text text-anchor="middle" x="531.5" y="-117" font-family="Helvetica,sans-Serif" font-size="10.00">NextHopForwardingHeader</text>
</a>
</g>
</g>
<!-- NextHopForwardingHeader&#45;&gt;TlvOptions -->
<g id="edge5" class="edge">
<title>NextHopForwardingHeader&#45;&gt;TlvOptions</title>
<path fill="none" stroke="black" d="M488.76,-109.98C439.71,-100.21 359.65,-84.26 309.91,-74.35"/>
<polygon fill="black" stroke="black" points="310.57,-70.91 300.08,-72.39 309.2,-77.78 310.57,-70.91"/>
</g>
</g>
</svg>
