<?xml version="1.0" encoding="UTF-8" standalone="no"?>
<!DOCTYPE svg PUBLIC "-//W3C//DTD SVG 1.1//EN"
 "http://www.w3.org/Graphics/SVG/1.1/DTD/svg11.dtd">
<!-- Generated by graphviz version 2.43.0 (0)
 -->
<!-- Title: opp Pages: 1 -->
<svg width="122pt" height="137pt"
 viewBox="0.00 0.00 122.00 137.00" xmlns="http://www.w3.org/2000/svg" xmlns:xlink="http://www.w3.org/1999/xlink">
<g id="graph0" class="graph" transform="scale(1 1) rotate(0) translate(4 133)">
<title>opp</title>
<polygon fill="transparent" stroke="transparent" points="-4,4 -4,-133 118,-133 118,4 -4,4"/>
<!-- BgpUpdateNlri -->
<g id="node1" class="node">
<title>BgpUpdateNlri</title>
<g id="a_node1"><a xlink:href="src-inet-routing-bgpv4-bgpmessage-BgpUpdateNlri.html" xlink:title="Struct BgpUpdateNlri" target="_parent">
<polygon fill="#9090ff" stroke="black" points="101,-74 13,-74 13,-55 101,-55 101,-74"/>
<text text-anchor="middle" x="57" y="-62" font-family="Helvetica,sans-Serif" font-size="10.00">BgpUpdateNlri</text>
</a>
</g>
</g>
<!-- Ipv4Address -->
<g id="node2" class="node">
<title>Ipv4Address</title>
<g id="a_node2"><a xlink:href="src-inet-networklayer-contract-ipv4-Ipv4Address.html" xlink:title="Class Ipv4Address" target="_parent">
<polygon fill="#fffcaf" stroke="black" points="95.5,-19 18.5,-19 18.5,0 95.5,0 95.5,-19"/>
<text text-anchor="middle" x="57" y="-7" font-family="Helvetica,sans-Serif" font-size="10.00">Ipv4Address</text>
</a>
</g>
</g>
<!-- BgpUpdateNlri&#45;&gt;Ipv4Address -->
<g id="edge1" class="edge">
<title>BgpUpdateNlri&#45;&gt;Ipv4Address</title>
<path fill="none" stroke="black" d="M57,-54.75C57,-47.8 57,-37.85 57,-29.13"/>
<polygon fill="black" stroke="black" points="60.5,-29.09 57,-19.09 53.5,-29.09 60.5,-29.09"/>
</g>
<!-- BgpUpdateMessage -->
<g id="node3" class="node">
<title>BgpUpdateMessage</title>
<g id="a_node3"><a xlink:href="src-inet-routing-bgpv4-bgpmessage-BgpUpdateMessage.html" xlink:title="Class BgpUpdateMessage" target="_parent">
<polygon fill="#fffcaf" stroke="black" points="114,-129 0,-129 0,-110 114,-110 114,-129"/>
<text text-anchor="middle" x="57" y="-117" font-family="Helvetica,sans-Serif" font-size="10.00">BgpUpdateMessage</text>
</a>
</g>
</g>
<!-- BgpUpdateMessage&#45;&gt;BgpUpdateNlri -->
<g id="edge2" class="edge">
<title>BgpUpdateMessage&#45;&gt;BgpUpdateNlri</title>
<path fill="none" stroke="black" d="M57,-109.75C57,-102.8 57,-92.85 57,-84.13"/>
<polygon fill="black" stroke="black" points="60.5,-84.09 57,-74.09 53.5,-84.09 60.5,-84.09"/>
</g>
</g>
</svg>
