<?xml version="1.0" encoding="UTF-8" standalone="no"?>
<!DOCTYPE svg PUBLIC "-//W3C//DTD SVG 1.1//EN"
 "http://www.w3.org/Graphics/SVG/1.1/DTD/svg11.dtd">
<!-- Generated by graphviz version 2.43.0 (0)
 -->
<!-- Title: opp Pages: 1 -->
<svg width="176pt" height="82pt"
 viewBox="0.00 0.00 175.50 82.00" xmlns="http://www.w3.org/2000/svg" xmlns:xlink="http://www.w3.org/1999/xlink">
<g id="graph0" class="graph" transform="scale(1 1) rotate(0) translate(4 78)">
<title>opp</title>
<polygon fill="transparent" stroke="transparent" points="-4,4 -4,-78 171.5,-78 171.5,4 -4,4"/>
<!-- PimPacket -->
<g id="node1" class="node">
<title>PimPacket</title>
<g id="a_node1"><a xlink:href="src-inet-routing-pim-PimPacket.html" xlink:title="Class PimPacket" target="_parent">
<polygon fill="#fff700" stroke="black" points="109.5,-74 41.5,-74 41.5,-55 109.5,-55 109.5,-74"/>
<text text-anchor="middle" x="75.5" y="-62" font-family="Helvetica,sans-Serif" font-size="10.00">PimPacket</text>
</a>
</g>
</g>
<!-- CrcMode -->
<g id="node2" class="node">
<title>CrcMode</title>
<g id="a_node2"><a xlink:href="src-inet-transportlayer-common-CrcMode.html" xlink:title="Enum CrcMode" target="_parent">
<polygon fill="#d0ffd0" stroke="black" points="59,-19 0,-19 0,0 59,0 59,-19"/>
<text text-anchor="middle" x="29.5" y="-7" font-family="Helvetica,sans-Serif" font-size="10.00">CrcMode</text>
</a>
</g>
</g>
<!-- PimPacket&#45;&gt;CrcMode -->
<g id="edge1" class="edge">
<title>PimPacket&#45;&gt;CrcMode</title>
<path fill="none" stroke="black" d="M67.9,-54.75C61.34,-47.18 51.68,-36.05 43.69,-26.84"/>
<polygon fill="black" stroke="black" points="46.15,-24.35 36.95,-19.09 40.87,-28.94 46.15,-24.35"/>
</g>
<!-- PimPacketType -->
<g id="node3" class="node">
<title>PimPacketType</title>
<g id="a_node3"><a xlink:href="src-inet-routing-pim-PimPacketType.html" xlink:title="Enum PimPacketType" target="_parent">
<polygon fill="#d0ffd0" stroke="black" points="167.5,-19 77.5,-19 77.5,0 167.5,0 167.5,-19"/>
<text text-anchor="middle" x="122.5" y="-7" font-family="Helvetica,sans-Serif" font-size="10.00">PimPacketType</text>
</a>
</g>
</g>
<!-- PimPacket&#45;&gt;PimPacketType -->
<g id="edge2" class="edge">
<title>PimPacket&#45;&gt;PimPacketType</title>
<path fill="none" stroke="black" d="M83.26,-54.75C89.97,-47.18 99.84,-36.05 108.01,-26.84"/>
<polygon fill="black" stroke="black" points="110.87,-28.89 114.88,-19.09 105.63,-24.25 110.87,-28.89"/>
</g>
</g>
</svg>
