<?xml version="1.0" encoding="UTF-8" standalone="no"?>
<!DOCTYPE svg PUBLIC "-//W3C//DTD SVG 1.1//EN"
 "http://www.w3.org/Graphics/SVG/1.1/DTD/svg11.dtd">
<!-- Generated by graphviz version 2.43.0 (0)
 -->
<!-- Title: opp Pages: 1 -->
<svg width="331pt" height="137pt"
 viewBox="0.00 0.00 331.00 137.00" xmlns="http://www.w3.org/2000/svg" xmlns:xlink="http://www.w3.org/1999/xlink">
<g id="graph0" class="graph" transform="scale(1 1) rotate(0) translate(4 133)">
<title>opp</title>
<polygon fill="transparent" stroke="transparent" points="-4,4 -4,-133 327,-133 327,4 -4,4"/>
<!-- EigrpMpIpv4Internal -->
<g id="node1" class="node">
<title>EigrpMpIpv4Internal</title>
<g id="a_node1"><a xlink:href="src-inet-routing-eigrp-messages-EigrpMpIpv4Internal.html" xlink:title="Struct EigrpMpIpv4Internal" target="_parent">
<polygon fill="#9090ff" stroke="black" points="237,-74 122,-74 122,-55 237,-55 237,-74"/>
<text text-anchor="middle" x="179.5" y="-62" font-family="Helvetica,sans-Serif" font-size="10.00">EigrpMpIpv4Internal</text>
</a>
</g>
</g>
<!-- EigrpWideMetricPar -->
<g id="node2" class="node">
<title>EigrpWideMetricPar</title>
<g id="a_node2"><a xlink:href="src-inet-routing-eigrp-messages-EigrpWideMetricPar.html" xlink:title="Struct EigrpWideMetricPar" target="_parent">
<polygon fill="#d0d0ff" stroke="black" points="113,-19 0,-19 0,0 113,0 113,-19"/>
<text text-anchor="middle" x="56.5" y="-7" font-family="Helvetica,sans-Serif" font-size="10.00">EigrpWideMetricPar</text>
</a>
</g>
</g>
<!-- EigrpMpIpv4Internal&#45;&gt;EigrpWideMetricPar -->
<g id="edge1" class="edge">
<title>EigrpMpIpv4Internal&#45;&gt;EigrpWideMetricPar</title>
<path fill="none" stroke="black" d="M159.74,-54.98C139.77,-46.38 108.7,-32.99 85.85,-23.15"/>
<polygon fill="black" stroke="black" points="87.19,-19.91 76.62,-19.17 84.42,-26.34 87.19,-19.91"/>
</g>
<!-- EigrpRouteFlags -->
<g id="node3" class="node">
<title>EigrpRouteFlags</title>
<g id="a_node3"><a xlink:href="src-inet-routing-eigrp-messages-EigrpRouteFlags.html" xlink:title="Struct EigrpRouteFlags" target="_parent">
<polygon fill="#d0d0ff" stroke="black" points="227.5,-19 131.5,-19 131.5,0 227.5,0 227.5,-19"/>
<text text-anchor="middle" x="179.5" y="-7" font-family="Helvetica,sans-Serif" font-size="10.00">EigrpRouteFlags</text>
</a>
</g>
</g>
<!-- EigrpMpIpv4Internal&#45;&gt;EigrpRouteFlags -->
<g id="edge2" class="edge">
<title>EigrpMpIpv4Internal&#45;&gt;EigrpRouteFlags</title>
<path fill="none" stroke="black" d="M179.5,-54.75C179.5,-47.8 179.5,-37.85 179.5,-29.13"/>
<polygon fill="black" stroke="black" points="183,-29.09 179.5,-19.09 176,-29.09 183,-29.09"/>
</g>
<!-- Ipv4Address -->
<g id="node4" class="node">
<title>Ipv4Address</title>
<g id="a_node4"><a xlink:href="src-inet-networklayer-contract-ipv4-Ipv4Address.html" xlink:title="Class Ipv4Address" target="_parent">
<polygon fill="#fffcaf" stroke="black" points="323,-19 246,-19 246,0 323,0 323,-19"/>
<text text-anchor="middle" x="284.5" y="-7" font-family="Helvetica,sans-Serif" font-size="10.00">Ipv4Address</text>
</a>
</g>
</g>
<!-- EigrpMpIpv4Internal&#45;&gt;Ipv4Address -->
<g id="edge3" class="edge">
<title>EigrpMpIpv4Internal&#45;&gt;Ipv4Address</title>
<path fill="none" stroke="black" d="M196.37,-54.98C213.11,-46.54 239,-33.47 258.39,-23.68"/>
<polygon fill="black" stroke="black" points="259.97,-26.8 267.32,-19.17 256.82,-20.55 259.97,-26.8"/>
</g>
<!-- EigrpIpv4Message -->
<g id="node5" class="node">
<title>EigrpIpv4Message</title>
<g id="a_node5"><a xlink:href="src-inet-routing-eigrp-messages-EigrpIpv4Message.html" xlink:title="Class EigrpIpv4Message" target="_parent">
<polygon fill="#fffcaf" stroke="black" points="232.5,-129 126.5,-129 126.5,-110 232.5,-110 232.5,-129"/>
<text text-anchor="middle" x="179.5" y="-117" font-family="Helvetica,sans-Serif" font-size="10.00">EigrpIpv4Message</text>
</a>
</g>
</g>
<!-- EigrpIpv4Message&#45;&gt;EigrpMpIpv4Internal -->
<g id="edge4" class="edge">
<title>EigrpIpv4Message&#45;&gt;EigrpMpIpv4Internal</title>
<path fill="none" stroke="black" d="M179.5,-109.75C179.5,-102.8 179.5,-92.85 179.5,-84.13"/>
<polygon fill="black" stroke="black" points="183,-84.09 179.5,-74.09 176,-84.09 183,-84.09"/>
</g>
</g>
</svg>
