<?xml version="1.0" encoding="UTF-8" standalone="no"?>
<!DOCTYPE svg PUBLIC "-//W3C//DTD SVG 1.1//EN"
 "http://www.w3.org/Graphics/SVG/1.1/DTD/svg11.dtd">
<!-- Generated by graphviz version 2.43.0 (0)
 -->
<!-- Title: opp Pages: 1 -->
<svg width="188pt" height="137pt"
 viewBox="0.00 0.00 188.00 137.00" xmlns="http://www.w3.org/2000/svg" xmlns:xlink="http://www.w3.org/1999/xlink">
<g id="graph0" class="graph" transform="scale(1 1) rotate(0) translate(4 133)">
<title>opp</title>
<polygon fill="transparent" stroke="transparent" points="-4,4 -4,-133 184,-133 184,4 -4,4"/>
<!-- SessionObj -->
<g id="node1" class="node">
<title>SessionObj</title>
<g id="a_node1"><a xlink:href="src-inet-networklayer-rsvpte-SessionObj.html" xlink:title="Struct SessionObj" target="_parent">
<polygon fill="#9090ff" stroke="black" points="129,-74 58,-74 58,-55 129,-55 129,-74"/>
<text text-anchor="middle" x="93.5" y="-62" font-family="Helvetica,sans-Serif" font-size="10.00">SessionObj</text>
</a>
</g>
</g>
<!-- Ipv4Address -->
<g id="node2" class="node">
<title>Ipv4Address</title>
<g id="a_node2"><a xlink:href="src-inet-networklayer-contract-ipv4-Ipv4Address.html" xlink:title="Class Ipv4Address" target="_parent">
<polygon fill="#fffcaf" stroke="black" points="132,-19 55,-19 55,0 132,0 132,-19"/>
<text text-anchor="middle" x="93.5" y="-7" font-family="Helvetica,sans-Serif" font-size="10.00">Ipv4Address</text>
</a>
</g>
</g>
<!-- SessionObj&#45;&gt;Ipv4Address -->
<g id="edge1" class="edge">
<title>SessionObj&#45;&gt;Ipv4Address</title>
<path fill="none" stroke="black" d="M93.5,-54.75C93.5,-47.8 93.5,-37.85 93.5,-29.13"/>
<polygon fill="black" stroke="black" points="97,-29.09 93.5,-19.09 90,-29.09 97,-29.09"/>
</g>
<!-- PathNotifyMsg -->
<g id="node3" class="node">
<title>PathNotifyMsg</title>
<g id="a_node3"><a xlink:href="src-inet-networklayer-rsvpte-PathNotifyMsg.html" xlink:title="Message PathNotifyMsg" target="_parent">
<polygon fill="#fffcaf" stroke="black" points="89,-129 0,-129 0,-110 89,-110 89,-129"/>
<text text-anchor="middle" x="44.5" y="-117" font-family="Helvetica,sans-Serif" font-size="10.00">PathNotifyMsg</text>
</a>
</g>
</g>
<!-- PathNotifyMsg&#45;&gt;SessionObj -->
<g id="edge2" class="edge">
<title>PathNotifyMsg&#45;&gt;SessionObj</title>
<path fill="none" stroke="black" d="M52.59,-109.75C59.66,-102.11 70.09,-90.82 78.65,-81.56"/>
<polygon fill="black" stroke="black" points="81.34,-83.81 85.56,-74.09 76.2,-79.06 81.34,-83.81"/>
</g>
<!-- RsvpPacket -->
<g id="node4" class="node">
<title>RsvpPacket</title>
<g id="a_node4"><a xlink:href="src-inet-networklayer-rsvpte-RsvpPacket.html" xlink:title="Class RsvpPacket" target="_parent">
<polygon fill="#fffcaf" stroke="black" points="180,-129 107,-129 107,-110 180,-110 180,-129"/>
<text text-anchor="middle" x="143.5" y="-117" font-family="Helvetica,sans-Serif" font-size="10.00">RsvpPacket</text>
</a>
</g>
</g>
<!-- RsvpPacket&#45;&gt;SessionObj -->
<g id="edge3" class="edge">
<title>RsvpPacket&#45;&gt;SessionObj</title>
<path fill="none" stroke="black" d="M135.24,-109.75C128.04,-102.11 117.39,-90.82 108.65,-81.56"/>
<polygon fill="black" stroke="black" points="111.01,-78.96 101.6,-74.09 105.92,-83.76 111.01,-78.96"/>
</g>
</g>
</svg>
