<?xml version="1.0" encoding="UTF-8" standalone="no"?>
<!DOCTYPE svg PUBLIC "-//W3C//DTD SVG 1.1//EN"
 "http://www.w3.org/Graphics/SVG/1.1/DTD/svg11.dtd">
<!-- Generated by graphviz version 2.43.0 (0)
 -->
<!-- Title: opp Pages: 1 -->
<svg width="839pt" height="82pt"
 viewBox="0.00 0.00 839.00 82.00" xmlns="http://www.w3.org/2000/svg" xmlns:xlink="http://www.w3.org/1999/xlink">
<g id="graph0" class="graph" transform="scale(1 1) rotate(0) translate(4 78)">
<title>opp</title>
<polygon fill="transparent" stroke="transparent" points="-4,4 -4,-78 835,-78 835,4 -4,4"/>
<!-- Ipv4SocketCommandBase -->
<g id="node1" class="node">
<title>Ipv4SocketCommandBase</title>
<g id="a_node1"><a xlink:href="src-inet-networklayer-contract-ipv4-Ipv4SocketCommandBase.html" xlink:title="Class Ipv4SocketCommandBase" target="_parent">
<polygon fill="#fff700" stroke="black" points="473,-74 329,-74 329,-55 473,-55 473,-74"/>
<text text-anchor="middle" x="401" y="-62" font-family="Helvetica,sans-Serif" font-size="10.00">Ipv4SocketCommandBase</text>
</a>
</g>
</g>
<!-- Ipv4SocketBindCommand -->
<g id="node2" class="node">
<title>Ipv4SocketBindCommand</title>
<g id="a_node2"><a xlink:href="src-inet-networklayer-contract-ipv4-Ipv4SocketBindCommand.html" xlink:title="Class Ipv4SocketBindCommand" target="_parent">
<polygon fill="#fffcaf" stroke="black" points="142,-19 0,-19 0,0 142,0 142,-19"/>
<text text-anchor="middle" x="71" y="-7" font-family="Helvetica,sans-Serif" font-size="10.00">Ipv4SocketBindCommand</text>
</a>
</g>
</g>
<!-- Ipv4SocketCommandBase&#45;&gt;Ipv4SocketBindCommand -->
<g id="edge1" class="edge">
<title>Ipv4SocketCommandBase&#45;&gt;Ipv4SocketBindCommand</title>
<path fill="none" stroke="black" d="M347.98,-54.98C286.49,-45.11 185.71,-28.92 124.16,-19.04"/>
</g>
<!-- Ipv4SocketCloseCommand -->
<g id="node3" class="node">
<title>Ipv4SocketCloseCommand</title>
<g id="a_node3"><a xlink:href="src-inet-networklayer-contract-ipv4-Ipv4SocketCloseCommand.html" xlink:title="Class Ipv4SocketCloseCommand" target="_parent">
<polygon fill="#fffcaf" stroke="black" points="307.5,-19 160.5,-19 160.5,0 307.5,0 307.5,-19"/>
<text text-anchor="middle" x="234" y="-7" font-family="Helvetica,sans-Serif" font-size="10.00">Ipv4SocketCloseCommand</text>
</a>
</g>
</g>
<!-- Ipv4SocketCommandBase&#45;&gt;Ipv4SocketCloseCommand -->
<g id="edge2" class="edge">
<title>Ipv4SocketCommandBase&#45;&gt;Ipv4SocketCloseCommand</title>
<path fill="none" stroke="black" d="M374.17,-54.98C343.1,-45.12 292.2,-28.97 261.04,-19.08"/>
</g>
<!-- Ipv4SocketClosedIndication -->
<g id="node4" class="node">
<title>Ipv4SocketClosedIndication</title>
<g id="a_node4"><a xlink:href="src-inet-networklayer-contract-ipv4-Ipv4SocketClosedIndication.html" xlink:title="Class Ipv4SocketClosedIndication" target="_parent">
<polygon fill="#fffcaf" stroke="black" points="476.5,-19 325.5,-19 325.5,0 476.5,0 476.5,-19"/>
<text text-anchor="middle" x="401" y="-7" font-family="Helvetica,sans-Serif" font-size="10.00">Ipv4SocketClosedIndication</text>
</a>
</g>
</g>
<!-- Ipv4SocketCommandBase&#45;&gt;Ipv4SocketClosedIndication -->
<g id="edge3" class="edge">
<title>Ipv4SocketCommandBase&#45;&gt;Ipv4SocketClosedIndication</title>
<path fill="none" stroke="black" d="M401,-54.75C401,-44.87 401,-28.9 401,-19.09"/>
</g>
<!-- Ipv4SocketConnectCommand -->
<g id="node5" class="node">
<title>Ipv4SocketConnectCommand</title>
<g id="a_node5"><a xlink:href="src-inet-networklayer-contract-ipv4-Ipv4SocketConnectCommand.html" xlink:title="Class Ipv4SocketConnectCommand" target="_parent">
<polygon fill="#fffcaf" stroke="black" points="655,-19 495,-19 495,0 655,0 655,-19"/>
<text text-anchor="middle" x="575" y="-7" font-family="Helvetica,sans-Serif" font-size="10.00">Ipv4SocketConnectCommand</text>
</a>
</g>
</g>
<!-- Ipv4SocketCommandBase&#45;&gt;Ipv4SocketConnectCommand -->
<g id="edge4" class="edge">
<title>Ipv4SocketCommandBase&#45;&gt;Ipv4SocketConnectCommand</title>
<path fill="none" stroke="black" d="M428.96,-54.98C461.33,-45.12 514.36,-28.97 546.82,-19.08"/>
</g>
<!-- Ipv4SocketDestroyCommand -->
<g id="node6" class="node">
<title>Ipv4SocketDestroyCommand</title>
<g id="a_node6"><a xlink:href="src-inet-networklayer-contract-ipv4-Ipv4SocketDestroyCommand.html" xlink:title="Class Ipv4SocketDestroyCommand" target="_parent">
<polygon fill="#fffcaf" stroke="black" points="831,-19 673,-19 673,0 831,0 831,-19"/>
<text text-anchor="middle" x="752" y="-7" font-family="Helvetica,sans-Serif" font-size="10.00">Ipv4SocketDestroyCommand</text>
</a>
</g>
</g>
<!-- Ipv4SocketCommandBase&#45;&gt;Ipv4SocketDestroyCommand -->
<g id="edge5" class="edge">
<title>Ipv4SocketCommandBase&#45;&gt;Ipv4SocketDestroyCommand</title>
<path fill="none" stroke="black" d="M457.39,-54.98C522.8,-45.11 629.99,-28.92 695.46,-19.04"/>
</g>
</g>
</svg>
