<?xml version="1.0" encoding="UTF-8" standalone="no"?>
<!DOCTYPE svg PUBLIC "-//W3C//DTD SVG 1.1//EN"
 "http://www.w3.org/Graphics/SVG/1.1/DTD/svg11.dtd">
<!-- Generated by graphviz version 2.43.0 (0)
 -->
<!-- Title: opp Pages: 1 -->
<svg width="610pt" height="137pt"
 viewBox="0.00 0.00 609.50 137.00" xmlns="http://www.w3.org/2000/svg" xmlns:xlink="http://www.w3.org/1999/xlink">
<g id="graph0" class="graph" transform="scale(1 1) rotate(0) translate(4 133)">
<title>opp</title>
<polygon fill="transparent" stroke="transparent" points="-4,4 -4,-133 605.5,-133 605.5,4 -4,4"/>
<!-- RsvpPacket -->
<g id="node1" class="node">
<title>RsvpPacket</title>
<g id="a_node1"><a xlink:href="src-inet-networklayer-rsvpte-RsvpPacket.html" xlink:title="Class RsvpPacket" target="_parent">
<polygon fill="#fff700" stroke="black" points="335.5,-74 262.5,-74 262.5,-55 335.5,-55 335.5,-74"/>
<text text-anchor="middle" x="299" y="-62" font-family="Helvetica,sans-Serif" font-size="10.00">RsvpPacket</text>
</a>
</g>
</g>
<!-- RsvpPathError -->
<g id="node3" class="node">
<title>RsvpPathError</title>
<g id="a_node3"><a xlink:href="src-inet-networklayer-rsvpte-RsvpPathError.html" xlink:title="Class RsvpPathError" target="_parent">
<polygon fill="#fffcaf" stroke="black" points="86,-19 0,-19 0,0 86,0 86,-19"/>
<text text-anchor="middle" x="43" y="-7" font-family="Helvetica,sans-Serif" font-size="10.00">RsvpPathError</text>
</a>
</g>
</g>
<!-- RsvpPacket&#45;&gt;RsvpPathError -->
<g id="edge2" class="edge">
<title>RsvpPacket&#45;&gt;RsvpPathError</title>
<path fill="none" stroke="black" d="M262.32,-55.91C215.18,-46.15 133.54,-29.25 84.28,-19.05"/>
</g>
<!-- RsvpPathMsg -->
<g id="node4" class="node">
<title>RsvpPathMsg</title>
<g id="a_node4"><a xlink:href="src-inet-networklayer-rsvpte-RsvpPathMsg.html" xlink:title="Class RsvpPathMsg" target="_parent">
<polygon fill="#fffcaf" stroke="black" points="187.5,-19 104.5,-19 104.5,0 187.5,0 187.5,-19"/>
<text text-anchor="middle" x="146" y="-7" font-family="Helvetica,sans-Serif" font-size="10.00">RsvpPathMsg</text>
</a>
</g>
</g>
<!-- RsvpPacket&#45;&gt;RsvpPathMsg -->
<g id="edge3" class="edge">
<title>RsvpPacket&#45;&gt;RsvpPathMsg</title>
<path fill="none" stroke="black" d="M274.42,-54.98C245.95,-45.12 199.32,-28.97 170.77,-19.08"/>
</g>
<!-- RsvpPathTear -->
<g id="node5" class="node">
<title>RsvpPathTear</title>
<g id="a_node5"><a xlink:href="src-inet-networklayer-rsvpte-RsvpPathTear.html" xlink:title="Class RsvpPathTear" target="_parent">
<polygon fill="#fffcaf" stroke="black" points="288.5,-19 205.5,-19 205.5,0 288.5,0 288.5,-19"/>
<text text-anchor="middle" x="247" y="-7" font-family="Helvetica,sans-Serif" font-size="10.00">RsvpPathTear</text>
</a>
</g>
</g>
<!-- RsvpPacket&#45;&gt;RsvpPathTear -->
<g id="edge4" class="edge">
<title>RsvpPacket&#45;&gt;RsvpPathTear</title>
<path fill="none" stroke="black" d="M290.41,-54.75C280.72,-44.87 265.05,-28.9 255.43,-19.09"/>
</g>
<!-- RsvpResvError -->
<g id="node6" class="node">
<title>RsvpResvError</title>
<g id="a_node6"><a xlink:href="src-inet-networklayer-rsvpte-RsvpResvError.html" xlink:title="Class RsvpResvError" target="_parent">
<polygon fill="#fffcaf" stroke="black" points="395,-19 307,-19 307,0 395,0 395,-19"/>
<text text-anchor="middle" x="351" y="-7" font-family="Helvetica,sans-Serif" font-size="10.00">RsvpResvError</text>
</a>
</g>
</g>
<!-- RsvpPacket&#45;&gt;RsvpResvError -->
<g id="edge5" class="edge">
<title>RsvpPacket&#45;&gt;RsvpResvError</title>
<path fill="none" stroke="black" d="M307.59,-54.75C317.28,-44.87 332.95,-28.9 342.57,-19.09"/>
</g>
<!-- RsvpResvMsg -->
<g id="node7" class="node">
<title>RsvpResvMsg</title>
<g id="a_node7"><a xlink:href="src-inet-networklayer-rsvpte-RsvpResvMsg.html" xlink:title="Class RsvpResvMsg" target="_parent">
<polygon fill="#fffcaf" stroke="black" points="498.5,-19 413.5,-19 413.5,0 498.5,0 498.5,-19"/>
<text text-anchor="middle" x="456" y="-7" font-family="Helvetica,sans-Serif" font-size="10.00">RsvpResvMsg</text>
</a>
</g>
</g>
<!-- RsvpPacket&#45;&gt;RsvpResvMsg -->
<g id="edge6" class="edge">
<title>RsvpPacket&#45;&gt;RsvpResvMsg</title>
<path fill="none" stroke="black" d="M324.22,-54.98C353.44,-45.12 401.28,-28.97 430.58,-19.08"/>
</g>
<!-- RsvpResvTear -->
<g id="node8" class="node">
<title>RsvpResvTear</title>
<g id="a_node8"><a xlink:href="src-inet-networklayer-rsvpte-RsvpResvTear.html" xlink:title="Class RsvpResvTear" target="_parent">
<polygon fill="#fffcaf" stroke="black" points="601.5,-19 516.5,-19 516.5,0 601.5,0 601.5,-19"/>
<text text-anchor="middle" x="559" y="-7" font-family="Helvetica,sans-Serif" font-size="10.00">RsvpResvTear</text>
</a>
</g>
</g>
<!-- RsvpPacket&#45;&gt;RsvpResvTear -->
<g id="edge7" class="edge">
<title>RsvpPacket&#45;&gt;RsvpResvTear</title>
<path fill="none" stroke="black" d="M335.7,-56.02C383.43,-46.29 466.63,-29.33 516.89,-19.08"/>
</g>
<!-- RsvpMessage -->
<g id="node2" class="node">
<title>RsvpMessage</title>
<g id="a_node2"><a xlink:href="src-inet-networklayer-rsvpte-RsvpMessage.html" xlink:title="Class RsvpMessage" target="_parent">
<polygon fill="#fffcaf" stroke="black" points="341,-129 257,-129 257,-110 341,-110 341,-129"/>
<text text-anchor="middle" x="299" y="-117" font-family="Helvetica,sans-Serif" font-size="10.00">RsvpMessage</text>
</a>
</g>
</g>
<!-- RsvpMessage&#45;&gt;RsvpPacket -->
<g id="edge1" class="edge">
<title>RsvpMessage&#45;&gt;RsvpPacket</title>
<path fill="none" stroke="black" d="M299,-109.75C299,-99.87 299,-83.9 299,-74.09"/>
</g>
</g>
</svg>
