<?xml version="1.0" encoding="UTF-8" standalone="no"?>
<!DOCTYPE svg PUBLIC "-//W3C//DTD SVG 1.1//EN"
 "http://www.w3.org/Graphics/SVG/1.1/DTD/svg11.dtd">
<!-- Generated by graphviz version 2.43.0 (0)
 -->
<!-- Title: opp Pages: 1 -->
<svg width="310pt" height="137pt"
 viewBox="0.00 0.00 309.50 137.00" xmlns="http://www.w3.org/2000/svg" xmlns:xlink="http://www.w3.org/1999/xlink">
<g id="graph0" class="graph" transform="scale(1 1) rotate(0) translate(4 133)">
<title>opp</title>
<polygon fill="transparent" stroke="transparent" points="-4,4 -4,-133 305.5,-133 305.5,4 -4,4"/>
<!-- ProtocolListTagBase -->
<g id="node1" class="node">
<title>ProtocolListTagBase</title>
<g id="a_node1"><a xlink:href="src-inet-common-ProtocolListTagBase.html" xlink:title="Class ProtocolListTagBase" target="_parent">
<polygon fill="#fff700" stroke="black" points="207,-74 93,-74 93,-55 207,-55 207,-74"/>
<text text-anchor="middle" x="150" y="-62" font-family="Helvetica,sans-Serif" font-size="10.00">ProtocolListTagBase</text>
</a>
</g>
</g>
<!-- EncapsulationProtocolInd -->
<g id="node3" class="node">
<title>EncapsulationProtocolInd</title>
<g id="a_node3"><a xlink:href="src-inet-common-EncapsulationProtocolInd.html" xlink:title="Class EncapsulationProtocolInd" target="_parent">
<polygon fill="#fffcaf" stroke="black" points="140,-19 0,-19 0,0 140,0 140,-19"/>
<text text-anchor="middle" x="70" y="-7" font-family="Helvetica,sans-Serif" font-size="10.00">EncapsulationProtocolInd</text>
</a>
</g>
</g>
<!-- ProtocolListTagBase&#45;&gt;EncapsulationProtocolInd -->
<g id="edge2" class="edge">
<title>ProtocolListTagBase&#45;&gt;EncapsulationProtocolInd</title>
<path fill="none" stroke="black" d="M137.15,-54.98C122.31,-45.15 98.03,-29.07 83.09,-19.17"/>
</g>
<!-- EncapsulationProtocolReq -->
<g id="node4" class="node">
<title>EncapsulationProtocolReq</title>
<g id="a_node4"><a xlink:href="src-inet-common-EncapsulationProtocolReq.html" xlink:title="Class EncapsulationProtocolReq" target="_parent">
<polygon fill="#fffcaf" stroke="black" points="301.5,-19 158.5,-19 158.5,0 301.5,0 301.5,-19"/>
<text text-anchor="middle" x="230" y="-7" font-family="Helvetica,sans-Serif" font-size="10.00">EncapsulationProtocolReq</text>
</a>
</g>
</g>
<!-- ProtocolListTagBase&#45;&gt;EncapsulationProtocolReq -->
<g id="edge3" class="edge">
<title>ProtocolListTagBase&#45;&gt;EncapsulationProtocolReq</title>
<path fill="none" stroke="black" d="M162.85,-54.98C177.69,-45.15 201.97,-29.07 216.91,-19.17"/>
</g>
<!-- TagBase -->
<g id="node2" class="node">
<title>TagBase</title>
<g id="a_node2"><a xlink:href="src-inet-common-TagBase.html" xlink:title="Class TagBase" target="_parent">
<polygon fill="#fffcaf" stroke="black" points="178.5,-129 121.5,-129 121.5,-110 178.5,-110 178.5,-129"/>
<text text-anchor="middle" x="150" y="-117" font-family="Helvetica,sans-Serif" font-size="10.00">TagBase</text>
</a>
</g>
</g>
<!-- TagBase&#45;&gt;ProtocolListTagBase -->
<g id="edge1" class="edge">
<title>TagBase&#45;&gt;ProtocolListTagBase</title>
<path fill="none" stroke="black" d="M150,-109.75C150,-99.87 150,-83.9 150,-74.09"/>
</g>
</g>
</svg>
