<?xml version="1.0" encoding="UTF-8" standalone="no"?>
<!DOCTYPE svg PUBLIC "-//W3C//DTD SVG 1.1//EN"
 "http://www.w3.org/Graphics/SVG/1.1/DTD/svg11.dtd">
<!-- Generated by graphviz version 2.43.0 (0)
 -->
<!-- Title: opp Pages: 1 -->
<svg width="270pt" height="137pt"
 viewBox="0.00 0.00 269.50 137.00" xmlns="http://www.w3.org/2000/svg" xmlns:xlink="http://www.w3.org/1999/xlink">
<g id="graph0" class="graph" transform="scale(1 1) rotate(0) translate(4 133)">
<title>opp</title>
<polygon fill="transparent" stroke="transparent" points="-4,4 -4,-133 265.5,-133 265.5,4 -4,4"/>
<!-- BMacHeaderBase -->
<g id="node1" class="node">
<title>BMacHeaderBase</title>
<g id="a_node1"><a xlink:href="src-inet-linklayer-bmac-BMacHeaderBase.html" xlink:title="Class BMacHeaderBase" target="_parent">
<polygon fill="#fff700" stroke="black" points="176.5,-74 73.5,-74 73.5,-55 176.5,-55 176.5,-74"/>
<text text-anchor="middle" x="125" y="-62" font-family="Helvetica,sans-Serif" font-size="10.00">BMacHeaderBase</text>
</a>
</g>
</g>
<!-- BMacControlFrame -->
<g id="node3" class="node">
<title>BMacControlFrame</title>
<g id="a_node3"><a xlink:href="src-inet-linklayer-bmac-BMacControlFrame.html" xlink:title="Class BMacControlFrame" target="_parent">
<polygon fill="#fffcaf" stroke="black" points="110,-19 0,-19 0,0 110,0 110,-19"/>
<text text-anchor="middle" x="55" y="-7" font-family="Helvetica,sans-Serif" font-size="10.00">BMacControlFrame</text>
</a>
</g>
</g>
<!-- BMacHeaderBase&#45;&gt;BMacControlFrame -->
<g id="edge2" class="edge">
<title>BMacHeaderBase&#45;&gt;BMacControlFrame</title>
<path fill="none" stroke="black" d="M113.75,-54.98C100.77,-45.15 79.52,-29.07 66.45,-19.17"/>
</g>
<!-- BMacDataFrameHeader -->
<g id="node4" class="node">
<title>BMacDataFrameHeader</title>
<g id="a_node4"><a xlink:href="src-inet-linklayer-bmac-BMacDataFrameHeader.html" xlink:title="Class BMacDataFrameHeader" target="_parent">
<polygon fill="#fffcaf" stroke="black" points="261.5,-19 128.5,-19 128.5,0 261.5,0 261.5,-19"/>
<text text-anchor="middle" x="195" y="-7" font-family="Helvetica,sans-Serif" font-size="10.00">BMacDataFrameHeader</text>
</a>
</g>
</g>
<!-- BMacHeaderBase&#45;&gt;BMacDataFrameHeader -->
<g id="edge3" class="edge">
<title>BMacHeaderBase&#45;&gt;BMacDataFrameHeader</title>
<path fill="none" stroke="black" d="M136.25,-54.98C149.23,-45.15 170.48,-29.07 183.55,-19.17"/>
</g>
<!-- FieldsChunk -->
<g id="node2" class="node">
<title>FieldsChunk</title>
<g id="a_node2"><a xlink:href="src-inet-common-packet-chunk-FieldsChunk.html" xlink:title="Class FieldsChunk" target="_parent">
<polygon fill="#fffcaf" stroke="black" points="162.5,-129 87.5,-129 87.5,-110 162.5,-110 162.5,-129"/>
<text text-anchor="middle" x="125" y="-117" font-family="Helvetica,sans-Serif" font-size="10.00">FieldsChunk</text>
</a>
</g>
</g>
<!-- FieldsChunk&#45;&gt;BMacHeaderBase -->
<g id="edge1" class="edge">
<title>FieldsChunk&#45;&gt;BMacHeaderBase</title>
<path fill="none" stroke="black" d="M125,-109.75C125,-99.87 125,-83.9 125,-74.09"/>
</g>
</g>
</svg>
