<?xml version="1.0" encoding="UTF-8" standalone="no"?>
<!DOCTYPE svg PUBLIC "-//W3C//DTD SVG 1.1//EN"
 "http://www.w3.org/Graphics/SVG/1.1/DTD/svg11.dtd">
<!-- Generated by graphviz version 2.43.0 (0)
 -->
<!-- Title: opp Pages: 1 -->
<svg width="111pt" height="137pt"
 viewBox="0.00 0.00 111.00 137.00" xmlns="http://www.w3.org/2000/svg" xmlns:xlink="http://www.w3.org/1999/xlink">
<g id="graph0" class="graph" transform="scale(1 1) rotate(0) translate(4 133)">
<title>opp</title>
<polygon fill="transparent" stroke="transparent" points="-4,4 -4,-133 107,-133 107,4 -4,4"/>
<!-- TcpReceiveQueue -->
<g id="node1" class="node">
<title>TcpReceiveQueue</title>
<g id="a_node1"><a xlink:href="src-inet-transportlayer-tcp-TcpReceiveQueue.html" xlink:title="Class TcpReceiveQueue" target="_parent">
<polygon fill="#fff700" stroke="black" points="103,-74 0,-74 0,-55 103,-55 103,-74"/>
<text text-anchor="middle" x="51.5" y="-62" font-family="Helvetica,sans-Serif" font-size="10.00">TcpReceiveQueue</text>
</a>
</g>
</g>
<!-- ReorderBuffer -->
<g id="node2" class="node">
<title>ReorderBuffer</title>
<g id="a_node2"><a xlink:href="src-inet-common-packet-ReorderBuffer.html" xlink:title="Class ReorderBuffer" target="_parent">
<polygon fill="#fffcaf" stroke="black" points="94,-19 9,-19 9,0 94,0 94,-19"/>
<text text-anchor="middle" x="51.5" y="-7" font-family="Helvetica,sans-Serif" font-size="10.00">ReorderBuffer</text>
</a>
</g>
</g>
<!-- TcpReceiveQueue&#45;&gt;ReorderBuffer -->
<g id="edge1" class="edge">
<title>TcpReceiveQueue&#45;&gt;ReorderBuffer</title>
<path fill="none" stroke="black" d="M51.5,-54.75C51.5,-47.8 51.5,-37.85 51.5,-29.13"/>
<polygon fill="black" stroke="black" points="55,-29.09 51.5,-19.09 48,-29.09 55,-29.09"/>
</g>
<!-- TcpConnection -->
<g id="node3" class="node">
<title>TcpConnection</title>
<g id="a_node3"><a xlink:href="src-inet-transportlayer-tcp-TcpConnection.html" xlink:title="Class TcpConnection" target="_parent">
<polygon fill="#fffcaf" stroke="black" points="95,-129 8,-129 8,-110 95,-110 95,-129"/>
<text text-anchor="middle" x="51.5" y="-117" font-family="Helvetica,sans-Serif" font-size="10.00">TcpConnection</text>
</a>
</g>
</g>
<!-- TcpConnection&#45;&gt;TcpReceiveQueue -->
<g id="edge2" class="edge">
<title>TcpConnection&#45;&gt;TcpReceiveQueue</title>
<path fill="none" stroke="black" d="M51.5,-109.75C51.5,-102.8 51.5,-92.85 51.5,-84.13"/>
<polygon fill="black" stroke="black" points="55,-84.09 51.5,-74.09 48,-84.09 55,-84.09"/>
</g>
</g>
</svg>
