<?xml version="1.0" encoding="UTF-8" standalone="no"?>
<!DOCTYPE svg PUBLIC "-//W3C//DTD SVG 1.1//EN"
 "http://www.w3.org/Graphics/SVG/1.1/DTD/svg11.dtd">
<!-- Generated by graphviz version 2.43.0 (0)
 -->
<!-- Title: opp Pages: 1 -->
<svg width="164pt" height="82pt"
 viewBox="0.00 0.00 163.50 82.00" xmlns="http://www.w3.org/2000/svg" xmlns:xlink="http://www.w3.org/1999/xlink">
<g id="graph0" class="graph" transform="scale(1 1) rotate(0) translate(4 78)">
<title>opp</title>
<polygon fill="transparent" stroke="transparent" points="-4,4 -4,-78 159.5,-78 159.5,4 -4,4"/>
<!-- BindingError -->
<g id="node1" class="node">
<title>BindingError</title>
<g id="a_node1"><a xlink:href="src-inet-networklayer-xmipv6-BindingError.html" xlink:title="Class BindingError" target="_parent">
<polygon fill="#fff700" stroke="black" points="120,-74 43,-74 43,-55 120,-55 120,-74"/>
<text text-anchor="middle" x="81.5" y="-62" font-family="Helvetica,sans-Serif" font-size="10.00">BindingError</text>
</a>
</g>
</g>
<!-- Ipv6Address -->
<g id="node2" class="node">
<title>Ipv6Address</title>
<g id="a_node2"><a xlink:href="src-inet-networklayer-contract-ipv6-Ipv6Address.html" xlink:title="Class Ipv6Address" target="_parent">
<polygon fill="#fffcaf" stroke="black" points="77,-19 0,-19 0,0 77,0 77,-19"/>
<text text-anchor="middle" x="38.5" y="-7" font-family="Helvetica,sans-Serif" font-size="10.00">Ipv6Address</text>
</a>
</g>
</g>
<!-- BindingError&#45;&gt;Ipv6Address -->
<g id="edge1" class="edge">
<title>BindingError&#45;&gt;Ipv6Address</title>
<path fill="none" stroke="black" d="M74.4,-54.75C68.33,-47.26 59.41,-36.28 51.99,-27.13"/>
<polygon fill="black" stroke="black" points="54.49,-24.65 45.47,-19.09 49.05,-29.06 54.49,-24.65"/>
</g>
<!-- BeStatus -->
<g id="node3" class="node">
<title>BeStatus</title>
<g id="a_node3"><a xlink:href="src-inet-networklayer-xmipv6-BeStatus.html" xlink:title="Enum BeStatus" target="_parent">
<polygon fill="#d0ffd0" stroke="black" points="155.5,-19 95.5,-19 95.5,0 155.5,0 155.5,-19"/>
<text text-anchor="middle" x="125.5" y="-7" font-family="Helvetica,sans-Serif" font-size="10.00">BeStatus</text>
</a>
</g>
</g>
<!-- BindingError&#45;&gt;BeStatus -->
<g id="edge2" class="edge">
<title>BindingError&#45;&gt;BeStatus</title>
<path fill="none" stroke="black" d="M88.77,-54.75C95.04,-47.18 104.29,-36.05 111.93,-26.84"/>
<polygon fill="black" stroke="black" points="114.67,-29.02 118.37,-19.09 109.29,-24.55 114.67,-29.02"/>
</g>
</g>
</svg>
