<?xml version="1.0" encoding="UTF-8" standalone="no"?>
<!DOCTYPE svg PUBLIC "-//W3C//DTD SVG 1.1//EN"
 "http://www.w3.org/Graphics/SVG/1.1/DTD/svg11.dtd">
<!-- Generated by graphviz version 2.43.0 (0)
 -->
<!-- Title: opp Pages: 1 -->
<svg width="2706pt" height="137pt"
 viewBox="0.00 0.00 2706.00 137.00" xmlns="http://www.w3.org/2000/svg" xmlns:xlink="http://www.w3.org/1999/xlink">
<g id="graph0" class="graph" transform="scale(1 1) rotate(0) translate(4 133)">
<title>opp</title>
<polygon fill="transparent" stroke="transparent" points="-4,4 -4,-133 2702,-133 2702,4 -4,4"/>
<!-- UdpSetOptionCommand -->
<g id="node1" class="node">
<title>UdpSetOptionCommand</title>
<g id="a_node1"><a xlink:href="src-inet-transportlayer-contract-udp-UdpSetOptionCommand.html" xlink:title="Class UdpSetOptionCommand" target="_parent">
<polygon fill="#fff700" stroke="black" points="1441.5,-74 1307.5,-74 1307.5,-55 1441.5,-55 1441.5,-74"/>
<text text-anchor="middle" x="1374.5" y="-62" font-family="Helvetica,sans-Serif" font-size="10.00">UdpSetOptionCommand</text>
</a>
</g>
</g>
<!-- UdpBlockMulticastSourcesCommand -->
<g id="node3" class="node">
<title>UdpBlockMulticastSourcesCommand</title>
<g id="a_node3"><a xlink:href="src-inet-transportlayer-contract-udp-UdpBlockMulticastSourcesCommand.html" xlink:title="Class UdpBlockMulticastSourcesCommand" target="_parent">
<polygon fill="#fffcaf" stroke="black" points="197,-19 0,-19 0,0 197,0 197,-19"/>
<text text-anchor="middle" x="98.5" y="-7" font-family="Helvetica,sans-Serif" font-size="10.00">UdpBlockMulticastSourcesCommand</text>
</a>
</g>
</g>
<!-- UdpSetOptionCommand&#45;&gt;UdpBlockMulticastSourcesCommand -->
<g id="edge2" class="edge">
<title>UdpSetOptionCommand&#45;&gt;UdpBlockMulticastSourcesCommand</title>
<path fill="none" stroke="black" d="M1307.3,-61.89C1128.26,-57.4 624.83,-43.42 206.5,-19 203.4,-18.82 200.25,-18.63 197.08,-18.42"/>
</g>
<!-- UdpJoinMulticastGroupsCommand -->
<g id="node4" class="node">
<title>UdpJoinMulticastGroupsCommand</title>
<g id="a_node4"><a xlink:href="src-inet-transportlayer-contract-udp-UdpJoinMulticastGroupsCommand.html" xlink:title="Class UdpJoinMulticastGroupsCommand" target="_parent">
<polygon fill="#fffcaf" stroke="black" points="399.5,-19 215.5,-19 215.5,0 399.5,0 399.5,-19"/>
<text text-anchor="middle" x="307.5" y="-7" font-family="Helvetica,sans-Serif" font-size="10.00">UdpJoinMulticastGroupsCommand</text>
</a>
</g>
</g>
<!-- UdpSetOptionCommand&#45;&gt;UdpJoinMulticastGroupsCommand -->
<g id="edge3" class="edge">
<title>UdpSetOptionCommand&#45;&gt;UdpJoinMulticastGroupsCommand</title>
<path fill="none" stroke="black" d="M1307.4,-61.29C1150.21,-55.91 745.87,-40.96 408.5,-19 405.6,-18.81 402.66,-18.61 399.69,-18.4"/>
</g>
<!-- UdpJoinMulticastSourcesCommand -->
<g id="node5" class="node">
<title>UdpJoinMulticastSourcesCommand</title>
<g id="a_node5"><a xlink:href="src-inet-transportlayer-contract-udp-UdpJoinMulticastSourcesCommand.html" xlink:title="Class UdpJoinMulticastSourcesCommand" target="_parent">
<polygon fill="#fffcaf" stroke="black" points="605.5,-19 417.5,-19 417.5,0 605.5,0 605.5,-19"/>
<text text-anchor="middle" x="511.5" y="-7" font-family="Helvetica,sans-Serif" font-size="10.00">UdpJoinMulticastSourcesCommand</text>
</a>
</g>
</g>
<!-- UdpSetOptionCommand&#45;&gt;UdpJoinMulticastSourcesCommand -->
<g id="edge4" class="edge">
<title>UdpSetOptionCommand&#45;&gt;UdpJoinMulticastSourcesCommand</title>
<path fill="none" stroke="black" d="M1307.37,-60.11C1174.84,-53.29 870.28,-37.04 614.5,-19 611.55,-18.79 608.55,-18.57 605.52,-18.35"/>
</g>
<!-- UdpLeaveMulticastGroupsCommand -->
<g id="node6" class="node">
<title>UdpLeaveMulticastGroupsCommand</title>
<g id="a_node6"><a xlink:href="src-inet-transportlayer-contract-udp-UdpLeaveMulticastGroupsCommand.html" xlink:title="Class UdpLeaveMulticastGroupsCommand" target="_parent">
<polygon fill="#fffcaf" stroke="black" points="819,-19 624,-19 624,0 819,0 819,-19"/>
<text text-anchor="middle" x="721.5" y="-7" font-family="Helvetica,sans-Serif" font-size="10.00">UdpLeaveMulticastGroupsCommand</text>
</a>
</g>
</g>
<!-- UdpSetOptionCommand&#45;&gt;UdpLeaveMulticastGroupsCommand -->
<g id="edge5" class="edge">
<title>UdpSetOptionCommand&#45;&gt;UdpLeaveMulticastGroupsCommand</title>
<path fill="none" stroke="black" d="M1307.38,-58.05C1191.52,-48.65 953.53,-29.33 819.26,-18.43"/>
</g>
<!-- UdpLeaveMulticastSourcesCommand -->
<g id="node7" class="node">
<title>UdpLeaveMulticastSourcesCommand</title>
<g id="a_node7"><a xlink:href="src-inet-transportlayer-contract-udp-UdpLeaveMulticastSourcesCommand.html" xlink:title="Class UdpLeaveMulticastSourcesCommand" target="_parent">
<polygon fill="#fffcaf" stroke="black" points="1036,-19 837,-19 837,0 1036,0 1036,-19"/>
<text text-anchor="middle" x="936.5" y="-7" font-family="Helvetica,sans-Serif" font-size="10.00">UdpLeaveMulticastSourcesCommand</text>
</a>
</g>
</g>
<!-- UdpSetOptionCommand&#45;&gt;UdpLeaveMulticastSourcesCommand -->
<g id="edge6" class="edge">
<title>UdpSetOptionCommand&#45;&gt;UdpLeaveMulticastSourcesCommand</title>
<path fill="none" stroke="black" d="M1307.02,-55.33C1225.67,-45.49 1089.62,-29.03 1006.96,-19.03"/>
</g>
<!-- UdpSetBroadcastCommand -->
<g id="node8" class="node">
<title>UdpSetBroadcastCommand</title>
<g id="a_node8"><a xlink:href="src-inet-transportlayer-contract-udp-UdpSetBroadcastCommand.html" xlink:title="Class UdpSetBroadcastCommand" target="_parent">
<polygon fill="#fffcaf" stroke="black" points="1205,-19 1054,-19 1054,0 1205,0 1205,-19"/>
<text text-anchor="middle" x="1129.5" y="-7" font-family="Helvetica,sans-Serif" font-size="10.00">UdpSetBroadcastCommand</text>
</a>
</g>
</g>
<!-- UdpSetOptionCommand&#45;&gt;UdpSetBroadcastCommand -->
<g id="edge7" class="edge">
<title>UdpSetOptionCommand&#45;&gt;UdpSetBroadcastCommand</title>
<path fill="none" stroke="black" d="M1335.14,-54.98C1289.55,-45.12 1214.89,-28.97 1169.17,-19.08"/>
</g>
<!-- UdpSetDscpCommand -->
<g id="node9" class="node">
<title>UdpSetDscpCommand</title>
<g id="a_node9"><a xlink:href="src-inet-transportlayer-contract-udp-UdpSetDscpCommand.html" xlink:title="Class UdpSetDscpCommand" target="_parent">
<polygon fill="#fffcaf" stroke="black" points="1349.5,-19 1223.5,-19 1223.5,0 1349.5,0 1349.5,-19"/>
<text text-anchor="middle" x="1286.5" y="-7" font-family="Helvetica,sans-Serif" font-size="10.00">UdpSetDscpCommand</text>
</a>
</g>
</g>
<!-- UdpSetOptionCommand&#45;&gt;UdpSetDscpCommand -->
<g id="edge8" class="edge">
<title>UdpSetOptionCommand&#45;&gt;UdpSetDscpCommand</title>
<path fill="none" stroke="black" d="M1360.36,-54.98C1344.04,-45.15 1317.33,-29.07 1300.9,-19.17"/>
</g>
<!-- UdpSetMulticastInterfaceCommand -->
<g id="node10" class="node">
<title>UdpSetMulticastInterfaceCommand</title>
<g id="a_node10"><a xlink:href="src-inet-transportlayer-contract-udp-UdpSetMulticastInterfaceCommand.html" xlink:title="Class UdpSetMulticastInterfaceCommand" target="_parent">
<polygon fill="#fffcaf" stroke="black" points="1559,-19 1368,-19 1368,0 1559,0 1559,-19"/>
<text text-anchor="middle" x="1463.5" y="-7" font-family="Helvetica,sans-Serif" font-size="10.00">UdpSetMulticastInterfaceCommand</text>
</a>
</g>
</g>
<!-- UdpSetOptionCommand&#45;&gt;UdpSetMulticastInterfaceCommand -->
<g id="edge9" class="edge">
<title>UdpSetOptionCommand&#45;&gt;UdpSetMulticastInterfaceCommand</title>
<path fill="none" stroke="black" d="M1388.8,-54.98C1405.31,-45.15 1432.32,-29.07 1448.94,-19.17"/>
</g>
<!-- UdpSetMulticastLoopCommand -->
<g id="node11" class="node">
<title>UdpSetMulticastLoopCommand</title>
<g id="a_node11"><a xlink:href="src-inet-transportlayer-contract-udp-UdpSetMulticastLoopCommand.html" xlink:title="Class UdpSetMulticastLoopCommand" target="_parent">
<polygon fill="#fffcaf" stroke="black" points="1747.5,-19 1577.5,-19 1577.5,0 1747.5,0 1747.5,-19"/>
<text text-anchor="middle" x="1662.5" y="-7" font-family="Helvetica,sans-Serif" font-size="10.00">UdpSetMulticastLoopCommand</text>
</a>
</g>
</g>
<!-- UdpSetOptionCommand&#45;&gt;UdpSetMulticastLoopCommand -->
<g id="edge10" class="edge">
<title>UdpSetOptionCommand&#45;&gt;UdpSetMulticastLoopCommand</title>
<path fill="none" stroke="black" d="M1420.77,-54.98C1474.36,-45.12 1562.13,-28.97 1615.87,-19.08"/>
</g>
<!-- UdpSetMulticastSourceFilterCommand -->
<g id="node12" class="node">
<title>UdpSetMulticastSourceFilterCommand</title>
<g id="a_node12"><a xlink:href="src-inet-transportlayer-contract-udp-UdpSetMulticastSourceFilterCommand.html" xlink:title="Class UdpSetMulticastSourceFilterCommand" target="_parent">
<polygon fill="#fffcaf" stroke="black" points="1969.5,-19 1765.5,-19 1765.5,0 1969.5,0 1969.5,-19"/>
<text text-anchor="middle" x="1867.5" y="-7" font-family="Helvetica,sans-Serif" font-size="10.00">UdpSetMulticastSourceFilterCommand</text>
</a>
</g>
</g>
<!-- UdpSetOptionCommand&#45;&gt;UdpSetMulticastSourceFilterCommand -->
<g id="edge11" class="edge">
<title>UdpSetOptionCommand&#45;&gt;UdpSetMulticastSourceFilterCommand</title>
<path fill="none" stroke="black" d="M1441.5,-56.3C1531.8,-46.59 1692.3,-29.33 1788.42,-19"/>
</g>
<!-- UdpSetReuseAddressCommand -->
<g id="node13" class="node">
<title>UdpSetReuseAddressCommand</title>
<g id="a_node13"><a xlink:href="src-inet-transportlayer-contract-udp-UdpSetReuseAddressCommand.html" xlink:title="Class UdpSetReuseAddressCommand" target="_parent">
<polygon fill="#fffcaf" stroke="black" points="2159,-19 1988,-19 1988,0 2159,0 2159,-19"/>
<text text-anchor="middle" x="2073.5" y="-7" font-family="Helvetica,sans-Serif" font-size="10.00">UdpSetReuseAddressCommand</text>
</a>
</g>
</g>
<!-- UdpSetOptionCommand&#45;&gt;UdpSetReuseAddressCommand -->
<g id="edge12" class="edge">
<title>UdpSetOptionCommand&#45;&gt;UdpSetReuseAddressCommand</title>
<path fill="none" stroke="black" d="M1441.56,-58.9C1553.05,-51.19 1783.58,-34.9 1978.5,-19 1981.55,-18.75 1984.66,-18.49 1987.8,-18.23"/>
</g>
<!-- UdpSetTimeToLiveCommand -->
<g id="node14" class="node">
<title>UdpSetTimeToLiveCommand</title>
<g id="a_node14"><a xlink:href="src-inet-transportlayer-contract-udp-UdpSetTimeToLiveCommand.html" xlink:title="Class UdpSetTimeToLiveCommand" target="_parent">
<polygon fill="#fffcaf" stroke="black" points="2334,-19 2177,-19 2177,0 2334,0 2334,-19"/>
<text text-anchor="middle" x="2255.5" y="-7" font-family="Helvetica,sans-Serif" font-size="10.00">UdpSetTimeToLiveCommand</text>
</a>
</g>
</g>
<!-- UdpSetOptionCommand&#45;&gt;UdpSetTimeToLiveCommand -->
<g id="edge13" class="edge">
<title>UdpSetOptionCommand&#45;&gt;UdpSetTimeToLiveCommand</title>
<path fill="none" stroke="black" d="M1441.75,-60.67C1578.65,-54.71 1899.55,-39.67 2168.5,-19 2171.22,-18.79 2173.99,-18.57 2176.79,-18.34"/>
</g>
<!-- UdpSetTosCommand -->
<g id="node15" class="node">
<title>UdpSetTosCommand</title>
<g id="a_node15"><a xlink:href="src-inet-transportlayer-contract-udp-UdpSetTosCommand.html" xlink:title="Class UdpSetTosCommand" target="_parent">
<polygon fill="#fffcaf" stroke="black" points="2470.5,-19 2352.5,-19 2352.5,0 2470.5,0 2470.5,-19"/>
<text text-anchor="middle" x="2411.5" y="-7" font-family="Helvetica,sans-Serif" font-size="10.00">UdpSetTosCommand</text>
</a>
</g>
</g>
<!-- UdpSetOptionCommand&#45;&gt;UdpSetTosCommand -->
<g id="edge14" class="edge">
<title>UdpSetOptionCommand&#45;&gt;UdpSetTosCommand</title>
<path fill="none" stroke="black" d="M1441.58,-62.23C1599.2,-58.85 2005.39,-47.85 2343.5,-19 2346.35,-18.76 2349.25,-18.49 2352.19,-18.19"/>
</g>
<!-- UdpUnblockMulticastSourcesCommand -->
<g id="node16" class="node">
<title>UdpUnblockMulticastSourcesCommand</title>
<g id="a_node16"><a xlink:href="src-inet-transportlayer-contract-udp-UdpUnblockMulticastSourcesCommand.html" xlink:title="Class UdpUnblockMulticastSourcesCommand" target="_parent">
<polygon fill="#fffcaf" stroke="black" points="2698,-19 2489,-19 2489,0 2698,0 2698,-19"/>
<text text-anchor="middle" x="2593.5" y="-7" font-family="Helvetica,sans-Serif" font-size="10.00">UdpUnblockMulticastSourcesCommand</text>
</a>
</g>
</g>
<!-- UdpSetOptionCommand&#45;&gt;UdpUnblockMulticastSourcesCommand -->
<g id="edge15" class="edge">
<title>UdpSetOptionCommand&#45;&gt;UdpUnblockMulticastSourcesCommand</title>
<path fill="none" stroke="black" d="M1441.81,-61.59C1614.35,-56.52 2086.56,-41.55 2479.5,-19 2482.57,-18.82 2485.69,-18.64 2488.83,-18.44"/>
</g>
<!-- UdpControlInfo -->
<g id="node2" class="node">
<title>UdpControlInfo</title>
<g id="a_node2"><a xlink:href="src-inet-transportlayer-contract-udp-UdpControlInfo.html" xlink:title="Class UdpControlInfo" target="_parent">
<polygon fill="#fffcaf" stroke="black" points="1419.5,-129 1329.5,-129 1329.5,-110 1419.5,-110 1419.5,-129"/>
<text text-anchor="middle" x="1374.5" y="-117" font-family="Helvetica,sans-Serif" font-size="10.00">UdpControlInfo</text>
</a>
</g>
</g>
<!-- UdpControlInfo&#45;&gt;UdpSetOptionCommand -->
<g id="edge1" class="edge">
<title>UdpControlInfo&#45;&gt;UdpSetOptionCommand</title>
<path fill="none" stroke="black" d="M1374.5,-109.75C1374.5,-99.87 1374.5,-83.9 1374.5,-74.09"/>
</g>
</g>
</svg>
