<?xml version="1.0" encoding="UTF-8" standalone="no"?>
<!DOCTYPE svg PUBLIC "-//W3C//DTD SVG 1.1//EN"
 "http://www.w3.org/Graphics/SVG/1.1/DTD/svg11.dtd">
<!-- Generated by graphviz version 2.43.0 (0)
 -->
<!-- Title: opp Pages: 1 -->
<svg width="518pt" height="137pt"
 viewBox="0.00 0.00 517.50 137.00" xmlns="http://www.w3.org/2000/svg" xmlns:xlink="http://www.w3.org/1999/xlink">
<g id="graph0" class="graph" transform="scale(1 1) rotate(0) translate(4 133)">
<title>opp</title>
<polygon fill="transparent" stroke="transparent" points="-4,4 -4,-133 513.5,-133 513.5,4 -4,4"/>
<!-- Ospfv2LsaHeader -->
<g id="node1" class="node">
<title>Ospfv2LsaHeader</title>
<g id="a_node1"><a xlink:href="src-inet-routing-ospfv2-Ospfv2LsaHeader.html" xlink:title="Class Ospfv2LsaHeader" target="_parent">
<polygon fill="#fff700" stroke="black" points="365,-74 262,-74 262,-55 365,-55 365,-74"/>
<text text-anchor="middle" x="313.5" y="-62" font-family="Helvetica,sans-Serif" font-size="10.00">Ospfv2LsaHeader</text>
</a>
</g>
</g>
<!-- Ospfv2Options -->
<g id="node2" class="node">
<title>Ospfv2Options</title>
<g id="a_node2"><a xlink:href="src-inet-routing-ospfv2-Ospfv2Options.html" xlink:title="Struct Ospfv2Options" target="_parent">
<polygon fill="#d0d0ff" stroke="black" points="223,-19 134,-19 134,0 223,0 223,-19"/>
<text text-anchor="middle" x="178.5" y="-7" font-family="Helvetica,sans-Serif" font-size="10.00">Ospfv2Options</text>
</a>
</g>
</g>
<!-- Ospfv2LsaHeader&#45;&gt;Ospfv2Options -->
<g id="edge1" class="edge">
<title>Ospfv2LsaHeader&#45;&gt;Ospfv2Options</title>
<path fill="none" stroke="black" d="M291.81,-54.98C269.7,-46.3 235.18,-32.75 210.05,-22.88"/>
<polygon fill="black" stroke="black" points="211.17,-19.57 200.58,-19.17 208.61,-26.08 211.17,-19.57"/>
</g>
<!-- CrcMode -->
<g id="node3" class="node">
<title>CrcMode</title>
<g id="a_node3"><a xlink:href="src-inet-transportlayer-common-CrcMode.html" xlink:title="Enum CrcMode" target="_parent">
<polygon fill="#d0ffd0" stroke="black" points="300,-19 241,-19 241,0 300,0 300,-19"/>
<text text-anchor="middle" x="270.5" y="-7" font-family="Helvetica,sans-Serif" font-size="10.00">CrcMode</text>
</a>
</g>
</g>
<!-- Ospfv2LsaHeader&#45;&gt;CrcMode -->
<g id="edge2" class="edge">
<title>Ospfv2LsaHeader&#45;&gt;CrcMode</title>
<path fill="none" stroke="black" d="M306.4,-54.75C300.33,-47.26 291.41,-36.28 283.99,-27.13"/>
<polygon fill="black" stroke="black" points="286.49,-24.65 277.47,-19.09 281.05,-29.06 286.49,-24.65"/>
</g>
<!-- Ipv4Address -->
<g id="node4" class="node">
<title>Ipv4Address</title>
<g id="a_node4"><a xlink:href="src-inet-networklayer-contract-ipv4-Ipv4Address.html" xlink:title="Class Ipv4Address" target="_parent">
<polygon fill="#fffcaf" stroke="black" points="395,-19 318,-19 318,0 395,0 395,-19"/>
<text text-anchor="middle" x="356.5" y="-7" font-family="Helvetica,sans-Serif" font-size="10.00">Ipv4Address</text>
</a>
</g>
</g>
<!-- Ospfv2LsaHeader&#45;&gt;Ipv4Address -->
<g id="edge3" class="edge">
<title>Ospfv2LsaHeader&#45;&gt;Ipv4Address</title>
<path fill="none" stroke="black" d="M320.6,-54.75C326.67,-47.26 335.59,-36.28 343.01,-27.13"/>
<polygon fill="black" stroke="black" points="345.95,-29.06 349.53,-19.09 340.51,-24.65 345.95,-29.06"/>
</g>
<!-- Ospfv2LsaType -->
<g id="node5" class="node">
<title>Ospfv2LsaType</title>
<g id="a_node5"><a xlink:href="src-inet-routing-ospfv2-Ospfv2LsaType.html" xlink:title="Enum Ospfv2LsaType" target="_parent">
<polygon fill="#d0ffd0" stroke="black" points="503.5,-19 413.5,-19 413.5,0 503.5,0 503.5,-19"/>
<text text-anchor="middle" x="458.5" y="-7" font-family="Helvetica,sans-Serif" font-size="10.00">Ospfv2LsaType</text>
</a>
</g>
</g>
<!-- Ospfv2LsaHeader&#45;&gt;Ospfv2LsaType -->
<g id="edge4" class="edge">
<title>Ospfv2LsaHeader&#45;&gt;Ospfv2LsaType</title>
<path fill="none" stroke="black" d="M336.8,-54.98C360.75,-46.23 398.28,-32.51 425.33,-22.62"/>
<polygon fill="black" stroke="black" points="426.59,-25.89 434.78,-19.17 424.19,-19.32 426.59,-25.89"/>
</g>
<!-- Ospfv2DatabaseDescriptionPacket -->
<g id="node6" class="node">
<title>Ospfv2DatabaseDescriptionPacket</title>
<g id="a_node6"><a xlink:href="src-inet-routing-ospfv2-Ospfv2DatabaseDescriptionPacket.html" xlink:title="Class Ospfv2DatabaseDescriptionPacket" target="_parent">
<polygon fill="#fffcaf" stroke="black" points="185,-129 0,-129 0,-110 185,-110 185,-129"/>
<text text-anchor="middle" x="92.5" y="-117" font-family="Helvetica,sans-Serif" font-size="10.00">Ospfv2DatabaseDescriptionPacket</text>
</a>
</g>
</g>
<!-- Ospfv2DatabaseDescriptionPacket&#45;&gt;Ospfv2LsaHeader -->
<g id="edge5" class="edge">
<title>Ospfv2DatabaseDescriptionPacket&#45;&gt;Ospfv2LsaHeader</title>
<path fill="none" stroke="black" d="M128.01,-109.98C165.99,-100.87 226.37,-86.4 267.86,-76.45"/>
<polygon fill="black" stroke="black" points="268.81,-79.82 277.71,-74.08 267.17,-73.01 268.81,-79.82"/>
</g>
<!-- Ospfv2LinkStateAcknowledgementPacket -->
<g id="node7" class="node">
<title>Ospfv2LinkStateAcknowledgementPacket</title>
<g id="a_node7"><a xlink:href="src-inet-routing-ospfv2-Ospfv2LinkStateAcknowledgementPacket.html" xlink:title="Class Ospfv2LinkStateAcknowledgementPacket" target="_parent">
<polygon fill="#fffcaf" stroke="black" points="423.5,-129 203.5,-129 203.5,-110 423.5,-110 423.5,-129"/>
<text text-anchor="middle" x="313.5" y="-117" font-family="Helvetica,sans-Serif" font-size="10.00">Ospfv2LinkStateAcknowledgementPacket</text>
</a>
</g>
</g>
<!-- Ospfv2LinkStateAcknowledgementPacket&#45;&gt;Ospfv2LsaHeader -->
<g id="edge6" class="edge">
<title>Ospfv2LinkStateAcknowledgementPacket&#45;&gt;Ospfv2LsaHeader</title>
<path fill="none" stroke="black" d="M313.5,-109.75C313.5,-102.8 313.5,-92.85 313.5,-84.13"/>
<polygon fill="black" stroke="black" points="317,-84.09 313.5,-74.09 310,-84.09 317,-84.09"/>
</g>
<!-- Ospfv2Lsa -->
<g id="node8" class="node">
<title>Ospfv2Lsa</title>
<g id="a_node8"><a xlink:href="src-inet-routing-ospfv2-Ospfv2Lsa.html" xlink:title="Class Ospfv2Lsa" target="_parent">
<polygon fill="#fffcaf" stroke="black" points="509.5,-129 441.5,-129 441.5,-110 509.5,-110 509.5,-129"/>
<text text-anchor="middle" x="475.5" y="-117" font-family="Helvetica,sans-Serif" font-size="10.00">Ospfv2Lsa</text>
</a>
</g>
</g>
<!-- Ospfv2Lsa&#45;&gt;Ospfv2LsaHeader -->
<g id="edge7" class="edge">
<title>Ospfv2Lsa&#45;&gt;Ospfv2LsaHeader</title>
<path fill="none" stroke="black" d="M449.47,-109.98C422.39,-101.13 379.79,-87.19 349.49,-77.28"/>
<polygon fill="black" stroke="black" points="350.32,-73.87 339.73,-74.08 348.15,-80.52 350.32,-73.87"/>
</g>
</g>
</svg>
