<?xml version="1.0" encoding="UTF-8" standalone="no"?>
<!DOCTYPE svg PUBLIC "-//W3C//DTD SVG 1.1//EN"
 "http://www.w3.org/Graphics/SVG/1.1/DTD/svg11.dtd">
<!-- Generated by graphviz version 2.43.0 (0)
 -->
<!-- Title: opp Pages: 1 -->
<svg width="150pt" height="82pt"
 viewBox="0.00 0.00 149.50 82.00" xmlns="http://www.w3.org/2000/svg" xmlns:xlink="http://www.w3.org/1999/xlink">
<g id="graph0" class="graph" transform="scale(1 1) rotate(0) translate(4 78)">
<title>opp</title>
<polygon fill="transparent" stroke="transparent" points="-4,4 -4,-78 145.5,-78 145.5,4 -4,4"/>
<!-- NetworkHeaderBase -->
<g id="node1" class="node">
<title>NetworkHeaderBase</title>
<g id="a_node1"><a xlink:href="src-inet-networklayer-contract-NetworkHeaderBase.html" xlink:title="Class NetworkHeaderBase" target="_parent">
<polygon fill="#fff700" stroke="black" points="126.5,-74 9.5,-74 9.5,-55 126.5,-55 126.5,-74"/>
<text text-anchor="middle" x="68" y="-62" font-family="Helvetica,sans-Serif" font-size="10.00">NetworkHeaderBase</text>
</a>
</g>
</g>
<!-- Protocol -->
<g id="node2" class="node">
<title>Protocol</title>
<g id="a_node2"><a xlink:href="src-inet-common-Protocol.html" xlink:title="Class Protocol" target="_parent">
<polygon fill="#fffcaf" stroke="black" points="56,-19 0,-19 0,0 56,0 56,-19"/>
<text text-anchor="middle" x="28" y="-7" font-family="Helvetica,sans-Serif" font-size="10.00">Protocol</text>
</a>
</g>
</g>
<!-- NetworkHeaderBase&#45;&gt;Protocol -->
<g id="edge1" class="edge">
<title>NetworkHeaderBase&#45;&gt;Protocol</title>
<path fill="none" stroke="black" d="M61.39,-54.75C55.74,-47.26 47.46,-36.28 40.55,-27.13"/>
<polygon fill="black" stroke="black" points="43.3,-24.96 34.48,-19.09 37.71,-29.18 43.3,-24.96"/>
</g>
<!-- L3Address -->
<g id="node3" class="node">
<title>L3Address</title>
<g id="a_node3"><a xlink:href="src-inet-networklayer-common-L3Address.html" xlink:title="Class L3Address" target="_parent">
<polygon fill="#fffcaf" stroke="black" points="141.5,-19 74.5,-19 74.5,0 141.5,0 141.5,-19"/>
<text text-anchor="middle" x="108" y="-7" font-family="Helvetica,sans-Serif" font-size="10.00">L3Address</text>
</a>
</g>
</g>
<!-- NetworkHeaderBase&#45;&gt;L3Address -->
<g id="edge2" class="edge">
<title>NetworkHeaderBase&#45;&gt;L3Address</title>
<path fill="none" stroke="black" d="M74.61,-54.75C80.26,-47.26 88.54,-36.28 95.45,-27.13"/>
<polygon fill="black" stroke="black" points="98.29,-29.18 101.52,-19.09 92.7,-24.96 98.29,-29.18"/>
</g>
</g>
</svg>
