<?xml version="1.0" encoding="UTF-8" standalone="no"?>
<!DOCTYPE svg PUBLIC "-//W3C//DTD SVG 1.1//EN"
 "http://www.w3.org/Graphics/SVG/1.1/DTD/svg11.dtd">
<!-- Generated by graphviz version 2.43.0 (0)
 -->
<!-- Title: opp Pages: 1 -->
<svg width="174pt" height="137pt"
 viewBox="0.00 0.00 174.00 137.00" xmlns="http://www.w3.org/2000/svg" xmlns:xlink="http://www.w3.org/1999/xlink">
<g id="graph0" class="graph" transform="scale(1 1) rotate(0) translate(4 133)">
<title>opp</title>
<polygon fill="transparent" stroke="transparent" points="-4,4 -4,-133 170,-133 170,4 -4,4"/>
<!-- Ieee80211MgmtHeader -->
<g id="node1" class="node">
<title>Ieee80211MgmtHeader</title>
<g id="a_node1"><a xlink:href="src-inet-linklayer-ieee80211-mac-Ieee80211MgmtHeader.html" xlink:title="Class Ieee80211MgmtHeader" target="_parent">
<polygon fill="#fff700" stroke="black" points="148.5,-74 17.5,-74 17.5,-55 148.5,-55 148.5,-74"/>
<text text-anchor="middle" x="83" y="-62" font-family="Helvetica,sans-Serif" font-size="10.00">Ieee80211MgmtHeader</text>
</a>
</g>
</g>
<!-- Ieee80211ActionFrame -->
<g id="node3" class="node">
<title>Ieee80211ActionFrame</title>
<g id="a_node3"><a xlink:href="src-inet-linklayer-ieee80211-mac-Ieee80211ActionFrame.html" xlink:title="Class Ieee80211ActionFrame" target="_parent">
<polygon fill="#fffcaf" stroke="black" points="147.5,-19 18.5,-19 18.5,0 147.5,0 147.5,-19"/>
<text text-anchor="middle" x="83" y="-7" font-family="Helvetica,sans-Serif" font-size="10.00">Ieee80211ActionFrame</text>
</a>
</g>
</g>
<!-- Ieee80211MgmtHeader&#45;&gt;Ieee80211ActionFrame -->
<g id="edge2" class="edge">
<title>Ieee80211MgmtHeader&#45;&gt;Ieee80211ActionFrame</title>
<path fill="none" stroke="black" d="M83,-54.75C83,-44.87 83,-28.9 83,-19.09"/>
</g>
<!-- Ieee80211DataOrMgmtHeader -->
<g id="node2" class="node">
<title>Ieee80211DataOrMgmtHeader</title>
<g id="a_node2"><a xlink:href="src-inet-linklayer-ieee80211-mac-Ieee80211DataOrMgmtHeader.html" xlink:title="Class Ieee80211DataOrMgmtHeader" target="_parent">
<polygon fill="#fffcaf" stroke="black" points="166,-129 0,-129 0,-110 166,-110 166,-129"/>
<text text-anchor="middle" x="83" y="-117" font-family="Helvetica,sans-Serif" font-size="10.00">Ieee80211DataOrMgmtHeader</text>
</a>
</g>
</g>
<!-- Ieee80211DataOrMgmtHeader&#45;&gt;Ieee80211MgmtHeader -->
<g id="edge1" class="edge">
<title>Ieee80211DataOrMgmtHeader&#45;&gt;Ieee80211MgmtHeader</title>
<path fill="none" stroke="black" d="M83,-109.75C83,-99.87 83,-83.9 83,-74.09"/>
</g>
</g>
</svg>
