<?xml version="1.0" encoding="UTF-8" standalone="no"?>
<!DOCTYPE svg PUBLIC "-//W3C//DTD SVG 1.1//EN"
 "http://www.w3.org/Graphics/SVG/1.1/DTD/svg11.dtd">
<!-- Generated by graphviz version 2.43.0 (0)
 -->
<!-- Title: opp Pages: 1 -->
<svg width="366pt" height="137pt"
 viewBox="0.00 0.00 366.00 137.00" xmlns="http://www.w3.org/2000/svg" xmlns:xlink="http://www.w3.org/1999/xlink">
<g id="graph0" class="graph" transform="scale(1 1) rotate(0) translate(4 133)">
<title>opp</title>
<polygon fill="transparent" stroke="transparent" points="-4,4 -4,-133 362,-133 362,4 -4,4"/>
<!-- EthernetSignalBase -->
<g id="node1" class="node">
<title>EthernetSignalBase</title>
<g id="a_node1"><a xlink:href="src-inet-physicallayer-wired-ethernet-EthernetSignalBase.html" xlink:title="Packet EthernetSignalBase" target="_parent">
<polygon fill="#fff700" stroke="black" points="254,-74 142,-74 142,-55 254,-55 254,-74"/>
<text text-anchor="middle" x="198" y="-62" font-family="Helvetica,sans-Serif" font-size="10.00">EthernetSignalBase</text>
</a>
</g>
</g>
<!-- EthernetFilledIfgSignal -->
<g id="node3" class="node">
<title>EthernetFilledIfgSignal</title>
<g id="a_node3"><a xlink:href="src-inet-physicallayer-wired-ethernet-EthernetFilledIfgSignal.html" xlink:title="Packet EthernetFilledIfgSignal" target="_parent">
<polygon fill="#fffcaf" stroke="black" points="126,-19 0,-19 0,0 126,0 126,-19"/>
<text text-anchor="middle" x="63" y="-7" font-family="Helvetica,sans-Serif" font-size="10.00">EthernetFilledIfgSignal</text>
</a>
</g>
</g>
<!-- EthernetSignalBase&#45;&gt;EthernetFilledIfgSignal -->
<g id="edge2" class="edge">
<title>EthernetSignalBase&#45;&gt;EthernetFilledIfgSignal</title>
<path fill="none" stroke="black" d="M176.31,-54.98C151.27,-45.15 110.29,-29.07 85.08,-19.17"/>
</g>
<!-- EthernetJamSignal -->
<g id="node4" class="node">
<title>EthernetJamSignal</title>
<g id="a_node4"><a xlink:href="src-inet-physicallayer-wired-ethernet-EthernetJamSignal.html" xlink:title="Packet EthernetJamSignal" target="_parent">
<polygon fill="#fffcaf" stroke="black" points="251.5,-19 144.5,-19 144.5,0 251.5,0 251.5,-19"/>
<text text-anchor="middle" x="198" y="-7" font-family="Helvetica,sans-Serif" font-size="10.00">EthernetJamSignal</text>
</a>
</g>
</g>
<!-- EthernetSignalBase&#45;&gt;EthernetJamSignal -->
<g id="edge3" class="edge">
<title>EthernetSignalBase&#45;&gt;EthernetJamSignal</title>
<path fill="none" stroke="black" d="M198,-54.75C198,-44.87 198,-28.9 198,-19.09"/>
</g>
<!-- EthernetSignal -->
<g id="node5" class="node">
<title>EthernetSignal</title>
<g id="a_node5"><a xlink:href="src-inet-physicallayer-wired-ethernet-EthernetSignal.html" xlink:title="Packet EthernetSignal" target="_parent">
<polygon fill="#fffcaf" stroke="black" points="358,-19 270,-19 270,0 358,0 358,-19"/>
<text text-anchor="middle" x="314" y="-7" font-family="Helvetica,sans-Serif" font-size="10.00">EthernetSignal</text>
</a>
</g>
</g>
<!-- EthernetSignalBase&#45;&gt;EthernetSignal -->
<g id="edge4" class="edge">
<title>EthernetSignalBase&#45;&gt;EthernetSignal</title>
<path fill="none" stroke="black" d="M216.64,-54.98C238.16,-45.15 273.36,-29.07 295.02,-19.17"/>
</g>
<!-- Signal -->
<g id="node2" class="node">
<title>Signal</title>
<g id="a_node2"><a xlink:href="src-inet-physicallayer-common-Signal.html" xlink:title="Packet Signal" target="_parent">
<polygon fill="#fffcaf" stroke="black" points="225,-129 171,-129 171,-110 225,-110 225,-129"/>
<text text-anchor="middle" x="198" y="-117" font-family="Helvetica,sans-Serif" font-size="10.00">Signal</text>
</a>
</g>
</g>
<!-- Signal&#45;&gt;EthernetSignalBase -->
<g id="edge1" class="edge">
<title>Signal&#45;&gt;EthernetSignalBase</title>
<path fill="none" stroke="black" d="M198,-109.75C198,-99.87 198,-83.9 198,-74.09"/>
</g>
</g>
</svg>
