<?xml version="1.0" encoding="UTF-8" standalone="no"?>
<!DOCTYPE svg PUBLIC "-//W3C//DTD SVG 1.1//EN"
 "http://www.w3.org/Graphics/SVG/1.1/DTD/svg11.dtd">
<!-- Generated by graphviz version 2.43.0 (0)
 -->
<!-- Title: opp Pages: 1 -->
<svg width="494pt" height="137pt"
 viewBox="0.00 0.00 493.50 137.00" xmlns="http://www.w3.org/2000/svg" xmlns:xlink="http://www.w3.org/1999/xlink">
<g id="graph0" class="graph" transform="scale(1 1) rotate(0) translate(4 133)">
<title>opp</title>
<polygon fill="transparent" stroke="transparent" points="-4,4 -4,-133 489.5,-133 489.5,4 -4,4"/>
<!-- IgmpMessage -->
<g id="node1" class="node">
<title>IgmpMessage</title>
<g id="a_node1"><a xlink:href="src-inet-networklayer-ipv4-IgmpMessage.html" xlink:title="Class IgmpMessage" target="_parent">
<polygon fill="#fff700" stroke="black" points="278,-74 193,-74 193,-55 278,-55 278,-74"/>
<text text-anchor="middle" x="235.5" y="-62" font-family="Helvetica,sans-Serif" font-size="10.00">IgmpMessage</text>
</a>
</g>
</g>
<!-- IgmpQuery -->
<g id="node3" class="node">
<title>IgmpQuery</title>
<g id="a_node3"><a xlink:href="src-inet-networklayer-ipv4-IgmpQuery.html" xlink:title="Class IgmpQuery" target="_parent">
<polygon fill="#fffcaf" stroke="black" points="71,-19 0,-19 0,0 71,0 71,-19"/>
<text text-anchor="middle" x="35.5" y="-7" font-family="Helvetica,sans-Serif" font-size="10.00">IgmpQuery</text>
</a>
</g>
</g>
<!-- IgmpMessage&#45;&gt;IgmpQuery -->
<g id="edge2" class="edge">
<title>IgmpMessage&#45;&gt;IgmpQuery</title>
<path fill="none" stroke="black" d="M203.37,-54.98C166.15,-45.12 105.2,-28.97 67.89,-19.08"/>
</g>
<!-- Igmpv1Report -->
<g id="node4" class="node">
<title>Igmpv1Report</title>
<g id="a_node4"><a xlink:href="src-inet-networklayer-ipv4-Igmpv1Report.html" xlink:title="Class Igmpv1Report" target="_parent">
<polygon fill="#fffcaf" stroke="black" points="175.5,-19 89.5,-19 89.5,0 175.5,0 175.5,-19"/>
<text text-anchor="middle" x="132.5" y="-7" font-family="Helvetica,sans-Serif" font-size="10.00">Igmpv1Report</text>
</a>
</g>
</g>
<!-- IgmpMessage&#45;&gt;Igmpv1Report -->
<g id="edge3" class="edge">
<title>IgmpMessage&#45;&gt;Igmpv1Report</title>
<path fill="none" stroke="black" d="M218.95,-54.98C199.84,-45.15 168.58,-29.07 149.35,-19.17"/>
</g>
<!-- Igmpv2Leave -->
<g id="node5" class="node">
<title>Igmpv2Leave</title>
<g id="a_node5"><a xlink:href="src-inet-networklayer-ipv4-Igmpv2Leave.html" xlink:title="Class Igmpv2Leave" target="_parent">
<polygon fill="#fffcaf" stroke="black" points="277,-19 194,-19 194,0 277,0 277,-19"/>
<text text-anchor="middle" x="235.5" y="-7" font-family="Helvetica,sans-Serif" font-size="10.00">Igmpv2Leave</text>
</a>
</g>
</g>
<!-- IgmpMessage&#45;&gt;Igmpv2Leave -->
<g id="edge4" class="edge">
<title>IgmpMessage&#45;&gt;Igmpv2Leave</title>
<path fill="none" stroke="black" d="M235.5,-54.75C235.5,-44.87 235.5,-28.9 235.5,-19.09"/>
</g>
<!-- Igmpv2Report -->
<g id="node6" class="node">
<title>Igmpv2Report</title>
<g id="a_node6"><a xlink:href="src-inet-networklayer-ipv4-Igmpv2Report.html" xlink:title="Class Igmpv2Report" target="_parent">
<polygon fill="#fffcaf" stroke="black" points="381.5,-19 295.5,-19 295.5,0 381.5,0 381.5,-19"/>
<text text-anchor="middle" x="338.5" y="-7" font-family="Helvetica,sans-Serif" font-size="10.00">Igmpv2Report</text>
</a>
</g>
</g>
<!-- IgmpMessage&#45;&gt;Igmpv2Report -->
<g id="edge5" class="edge">
<title>IgmpMessage&#45;&gt;Igmpv2Report</title>
<path fill="none" stroke="black" d="M252.05,-54.98C271.16,-45.15 302.42,-29.07 321.65,-19.17"/>
</g>
<!-- Igmpv3Report -->
<g id="node7" class="node">
<title>Igmpv3Report</title>
<g id="a_node7"><a xlink:href="src-inet-networklayer-ipv4-Igmpv3Report.html" xlink:title="Class Igmpv3Report" target="_parent">
<polygon fill="#fffcaf" stroke="black" points="485.5,-19 399.5,-19 399.5,0 485.5,0 485.5,-19"/>
<text text-anchor="middle" x="442.5" y="-7" font-family="Helvetica,sans-Serif" font-size="10.00">Igmpv3Report</text>
</a>
</g>
</g>
<!-- IgmpMessage&#45;&gt;Igmpv3Report -->
<g id="edge6" class="edge">
<title>IgmpMessage&#45;&gt;Igmpv3Report</title>
<path fill="none" stroke="black" d="M268.76,-54.98C307.27,-45.12 370.36,-28.97 408.98,-19.08"/>
</g>
<!-- FieldsChunk -->
<g id="node2" class="node">
<title>FieldsChunk</title>
<g id="a_node2"><a xlink:href="src-inet-common-packet-chunk-FieldsChunk.html" xlink:title="Class FieldsChunk" target="_parent">
<polygon fill="#fffcaf" stroke="black" points="273,-129 198,-129 198,-110 273,-110 273,-129"/>
<text text-anchor="middle" x="235.5" y="-117" font-family="Helvetica,sans-Serif" font-size="10.00">FieldsChunk</text>
</a>
</g>
</g>
<!-- FieldsChunk&#45;&gt;IgmpMessage -->
<g id="edge1" class="edge">
<title>FieldsChunk&#45;&gt;IgmpMessage</title>
<path fill="none" stroke="black" d="M235.5,-109.75C235.5,-99.87 235.5,-83.9 235.5,-74.09"/>
</g>
</g>
</svg>
