<?xml version="1.0" encoding="UTF-8" standalone="no"?>
<!DOCTYPE svg PUBLIC "-//W3C//DTD SVG 1.1//EN"
 "http://www.w3.org/Graphics/SVG/1.1/DTD/svg11.dtd">
<!-- Generated by graphviz version 2.43.0 (0)
 -->
<!-- Title: opp Pages: 1 -->
<svg width="876pt" height="137pt"
 viewBox="0.00 0.00 875.50 137.00" xmlns="http://www.w3.org/2000/svg" xmlns:xlink="http://www.w3.org/1999/xlink">
<g id="graph0" class="graph" transform="scale(1 1) rotate(0) translate(4 133)">
<title>opp</title>
<polygon fill="transparent" stroke="transparent" points="-4,4 -4,-133 871.5,-133 871.5,4 -4,4"/>
<!-- IIeee80211Mode -->
<g id="node1" class="node">
<title>IIeee80211Mode</title>
<g id="a_node1"><a xlink:href="src-inet-physicallayer-wireless-ieee80211-mode-IIeee80211Mode.html" xlink:title="Class IIeee80211Mode" target="_parent">
<polygon fill="#fff700" stroke="black" points="527.5,-74 429.5,-74 429.5,-55 527.5,-55 527.5,-74"/>
<text text-anchor="middle" x="478.5" y="-62" font-family="Helvetica,sans-Serif" font-size="10.00">IIeee80211Mode</text>
</a>
</g>
</g>
<!-- IIeee80211PreambleMode -->
<g id="node2" class="node">
<title>IIeee80211PreambleMode</title>
<g id="a_node2"><a xlink:href="src-inet-physicallayer-wireless-ieee80211-mode-IIeee80211PreambleMode.html" xlink:title="Class IIeee80211PreambleMode" target="_parent">
<polygon fill="#fffcaf" stroke="black" points="399.5,-19 255.5,-19 255.5,0 399.5,0 399.5,-19"/>
<text text-anchor="middle" x="327.5" y="-7" font-family="Helvetica,sans-Serif" font-size="10.00">IIeee80211PreambleMode</text>
</a>
</g>
</g>
<!-- IIeee80211Mode&#45;&gt;IIeee80211PreambleMode -->
<g id="edge1" class="edge">
<title>IIeee80211Mode&#45;&gt;IIeee80211PreambleMode</title>
<path fill="none" stroke="black" d="M454.24,-54.98C429.18,-46.19 389.87,-32.39 361.67,-22.49"/>
<polygon fill="black" stroke="black" points="362.8,-19.18 352.2,-19.17 360.48,-25.78 362.8,-19.18"/>
</g>
<!-- IIeee80211DataMode -->
<g id="node3" class="node">
<title>IIeee80211DataMode</title>
<g id="a_node3"><a xlink:href="src-inet-physicallayer-wireless-ieee80211-mode-IIeee80211DataMode.html" xlink:title="Class IIeee80211DataMode" target="_parent">
<polygon fill="#fffcaf" stroke="black" points="539,-19 418,-19 418,0 539,0 539,-19"/>
<text text-anchor="middle" x="478.5" y="-7" font-family="Helvetica,sans-Serif" font-size="10.00">IIeee80211DataMode</text>
</a>
</g>
</g>
<!-- IIeee80211Mode&#45;&gt;IIeee80211DataMode -->
<g id="edge2" class="edge">
<title>IIeee80211Mode&#45;&gt;IIeee80211DataMode</title>
<path fill="none" stroke="black" d="M478.5,-54.75C478.5,-47.8 478.5,-37.85 478.5,-29.13"/>
<polygon fill="black" stroke="black" points="482,-29.09 478.5,-19.09 475,-29.09 482,-29.09"/>
</g>
<!-- IIeee80211HeaderMode -->
<g id="node4" class="node">
<title>IIeee80211HeaderMode</title>
<g id="a_node4"><a xlink:href="src-inet-physicallayer-wireless-ieee80211-mode-IIeee80211HeaderMode.html" xlink:title="Class IIeee80211HeaderMode" target="_parent">
<polygon fill="#fffcaf" stroke="black" points="690,-19 557,-19 557,0 690,0 690,-19"/>
<text text-anchor="middle" x="623.5" y="-7" font-family="Helvetica,sans-Serif" font-size="10.00">IIeee80211HeaderMode</text>
</a>
</g>
</g>
<!-- IIeee80211Mode&#45;&gt;IIeee80211HeaderMode -->
<g id="edge3" class="edge">
<title>IIeee80211Mode&#45;&gt;IIeee80211HeaderMode</title>
<path fill="none" stroke="black" d="M501.8,-54.98C525.75,-46.23 563.28,-32.51 590.33,-22.62"/>
<polygon fill="black" stroke="black" points="591.59,-25.89 599.78,-19.17 589.19,-19.32 591.59,-25.89"/>
</g>
<!-- Ieee80211ConfigureRadioCommand -->
<g id="node5" class="node">
<title>Ieee80211ConfigureRadioCommand</title>
<g id="a_node5"><a xlink:href="src-inet-physicallayer-wireless-ieee80211-packetlevel-Ieee80211ConfigureRadioCommand.html" xlink:title="Class Ieee80211ConfigureRadioCommand" target="_parent">
<polygon fill="#fffcaf" stroke="black" points="193,-129 0,-129 0,-110 193,-110 193,-129"/>
<text text-anchor="middle" x="96.5" y="-117" font-family="Helvetica,sans-Serif" font-size="10.00">Ieee80211ConfigureRadioCommand</text>
</a>
</g>
</g>
<!-- Ieee80211ConfigureRadioCommand&#45;&gt;IIeee80211Mode -->
<g id="edge4" class="edge">
<title>Ieee80211ConfigureRadioCommand&#45;&gt;IIeee80211Mode</title>
<path fill="none" stroke="black" d="M157.87,-109.98C229.84,-100 348.29,-83.57 419.3,-73.71"/>
<polygon fill="black" stroke="black" points="420,-77.15 429.42,-72.31 419.04,-70.22 420,-77.15"/>
</g>
<!-- Ieee80211DimensionalTransmission -->
<g id="node6" class="node">
<title>Ieee80211DimensionalTransmission</title>
<g id="a_node6"><a xlink:href="src-inet-physicallayer-wireless-ieee80211-packetlevel-Ieee80211DimensionalTransmission.html" xlink:title="Class Ieee80211DimensionalTransmission" target="_parent">
<polygon fill="#fffcaf" stroke="black" points="405.5,-129 211.5,-129 211.5,-110 405.5,-110 405.5,-129"/>
<text text-anchor="middle" x="308.5" y="-117" font-family="Helvetica,sans-Serif" font-size="10.00">Ieee80211DimensionalTransmission</text>
</a>
</g>
</g>
<!-- Ieee80211DimensionalTransmission&#45;&gt;IIeee80211Mode -->
<g id="edge5" class="edge">
<title>Ieee80211DimensionalTransmission&#45;&gt;IIeee80211Mode</title>
<path fill="none" stroke="black" d="M335.81,-109.98C364.35,-101.09 409.33,-87.07 441.14,-77.15"/>
<polygon fill="black" stroke="black" points="442.47,-80.4 450.97,-74.08 440.38,-73.72 442.47,-80.4"/>
</g>
<!-- Ieee80211ModeSet -->
<g id="node7" class="node">
<title>Ieee80211ModeSet</title>
<g id="a_node7"><a xlink:href="src-inet-physicallayer-wireless-ieee80211-mode-Ieee80211ModeSet.html" xlink:title="Class Ieee80211ModeSet" target="_parent">
<polygon fill="#fffcaf" stroke="black" points="533.5,-129 423.5,-129 423.5,-110 533.5,-110 533.5,-129"/>
<text text-anchor="middle" x="478.5" y="-117" font-family="Helvetica,sans-Serif" font-size="10.00">Ieee80211ModeSet</text>
</a>
</g>
</g>
<!-- Ieee80211ModeSet&#45;&gt;IIeee80211Mode -->
<g id="edge6" class="edge">
<title>Ieee80211ModeSet&#45;&gt;IIeee80211Mode</title>
<path fill="none" stroke="black" d="M478.5,-109.75C478.5,-102.8 478.5,-92.85 478.5,-84.13"/>
<polygon fill="black" stroke="black" points="482,-84.09 478.5,-74.09 475,-84.09 482,-84.09"/>
</g>
<!-- Ieee80211ModeTagBase -->
<g id="node8" class="node">
<title>Ieee80211ModeTagBase</title>
<g id="a_node8"><a xlink:href="src-inet-physicallayer-wireless-ieee80211-packetlevel-Ieee80211ModeTagBase.html" xlink:title="Class Ieee80211ModeTagBase" target="_parent">
<polygon fill="#fffcaf" stroke="black" points="687,-129 552,-129 552,-110 687,-110 687,-129"/>
<text text-anchor="middle" x="619.5" y="-117" font-family="Helvetica,sans-Serif" font-size="10.00">Ieee80211ModeTagBase</text>
</a>
</g>
</g>
<!-- Ieee80211ModeTagBase&#45;&gt;IIeee80211Mode -->
<g id="edge7" class="edge">
<title>Ieee80211ModeTagBase&#45;&gt;IIeee80211Mode</title>
<path fill="none" stroke="black" d="M596.85,-109.98C573.65,-101.27 537.38,-87.63 511.1,-77.75"/>
<polygon fill="black" stroke="black" points="512.16,-74.41 501.57,-74.17 509.7,-80.97 512.16,-74.41"/>
</g>
<!-- Ieee80211ScalarTransmission -->
<g id="node9" class="node">
<title>Ieee80211ScalarTransmission</title>
<g id="a_node9"><a xlink:href="src-inet-physicallayer-wireless-ieee80211-packetlevel-Ieee80211ScalarTransmission.html" xlink:title="Class Ieee80211ScalarTransmission" target="_parent">
<polygon fill="#fffcaf" stroke="black" points="867.5,-129 705.5,-129 705.5,-110 867.5,-110 867.5,-129"/>
<text text-anchor="middle" x="786.5" y="-117" font-family="Helvetica,sans-Serif" font-size="10.00">Ieee80211ScalarTransmission</text>
</a>
</g>
</g>
<!-- Ieee80211ScalarTransmission&#45;&gt;IIeee80211Mode -->
<g id="edge8" class="edge">
<title>Ieee80211ScalarTransmission&#45;&gt;IIeee80211Mode</title>
<path fill="none" stroke="black" d="M737.01,-109.98C682.71,-100.64 595.59,-85.65 537.7,-75.69"/>
<polygon fill="black" stroke="black" points="538.06,-72.2 527.61,-73.95 536.87,-79.1 538.06,-72.2"/>
</g>
</g>
</svg>
