<?xml version="1.0" encoding="UTF-8" standalone="no"?>
<!DOCTYPE svg PUBLIC "-//W3C//DTD SVG 1.1//EN"
 "http://www.w3.org/Graphics/SVG/1.1/DTD/svg11.dtd">
<!-- Generated by graphviz version 2.43.0 (0)
 -->
<!-- Title: opp Pages: 1 -->
<svg width="434pt" height="137pt"
 viewBox="0.00 0.00 434.00 137.00" xmlns="http://www.w3.org/2000/svg" xmlns:xlink="http://www.w3.org/1999/xlink">
<g id="graph0" class="graph" transform="scale(1 1) rotate(0) translate(4 133)">
<title>opp</title>
<polygon fill="transparent" stroke="transparent" points="-4,4 -4,-133 430,-133 430,4 -4,4"/>
<!-- TcpSetOptionCommand -->
<g id="node1" class="node">
<title>TcpSetOptionCommand</title>
<g id="a_node1"><a xlink:href="src-inet-transportlayer-contract-tcp-TcpSetOptionCommand.html" xlink:title="Class TcpSetOptionCommand" target="_parent">
<polygon fill="#fff700" stroke="black" points="282.5,-74 151.5,-74 151.5,-55 282.5,-55 282.5,-74"/>
<text text-anchor="middle" x="217" y="-62" font-family="Helvetica,sans-Serif" font-size="10.00">TcpSetOptionCommand</text>
</a>
</g>
</g>
<!-- TcpSetDscpCommand -->
<g id="node3" class="node">
<title>TcpSetDscpCommand</title>
<g id="a_node3"><a xlink:href="src-inet-transportlayer-contract-tcp-TcpSetDscpCommand.html" xlink:title="Class TcpSetDscpCommand" target="_parent">
<polygon fill="#fffcaf" stroke="black" points="122,-19 0,-19 0,0 122,0 122,-19"/>
<text text-anchor="middle" x="61" y="-7" font-family="Helvetica,sans-Serif" font-size="10.00">TcpSetDscpCommand</text>
</a>
</g>
</g>
<!-- TcpSetOptionCommand&#45;&gt;TcpSetDscpCommand -->
<g id="edge2" class="edge">
<title>TcpSetOptionCommand&#45;&gt;TcpSetDscpCommand</title>
<path fill="none" stroke="black" d="M191.94,-54.98C162.91,-45.12 115.37,-28.97 86.26,-19.08"/>
</g>
<!-- TcpSetTimeToLiveCommand -->
<g id="node4" class="node">
<title>TcpSetTimeToLiveCommand</title>
<g id="a_node4"><a xlink:href="src-inet-transportlayer-contract-tcp-TcpSetTimeToLiveCommand.html" xlink:title="Class TcpSetTimeToLiveCommand" target="_parent">
<polygon fill="#fffcaf" stroke="black" points="293.5,-19 140.5,-19 140.5,0 293.5,0 293.5,-19"/>
<text text-anchor="middle" x="217" y="-7" font-family="Helvetica,sans-Serif" font-size="10.00">TcpSetTimeToLiveCommand</text>
</a>
</g>
</g>
<!-- TcpSetOptionCommand&#45;&gt;TcpSetTimeToLiveCommand -->
<g id="edge3" class="edge">
<title>TcpSetOptionCommand&#45;&gt;TcpSetTimeToLiveCommand</title>
<path fill="none" stroke="black" d="M217,-54.75C217,-44.87 217,-28.9 217,-19.09"/>
</g>
<!-- TcpSetTosCommand -->
<g id="node5" class="node">
<title>TcpSetTosCommand</title>
<g id="a_node5"><a xlink:href="src-inet-transportlayer-contract-tcp-TcpSetTosCommand.html" xlink:title="Class TcpSetTosCommand" target="_parent">
<polygon fill="#fffcaf" stroke="black" points="426,-19 312,-19 312,0 426,0 426,-19"/>
<text text-anchor="middle" x="369" y="-7" font-family="Helvetica,sans-Serif" font-size="10.00">TcpSetTosCommand</text>
</a>
</g>
</g>
<!-- TcpSetOptionCommand&#45;&gt;TcpSetTosCommand -->
<g id="edge4" class="edge">
<title>TcpSetOptionCommand&#45;&gt;TcpSetTosCommand</title>
<path fill="none" stroke="black" d="M241.42,-54.98C269.7,-45.12 316.03,-28.97 344.39,-19.08"/>
</g>
<!-- TcpCommand -->
<g id="node2" class="node">
<title>TcpCommand</title>
<g id="a_node2"><a xlink:href="src-inet-transportlayer-contract-tcp-TcpCommand.html" xlink:title="Class TcpCommand" target="_parent">
<polygon fill="#fffcaf" stroke="black" points="258.5,-129 175.5,-129 175.5,-110 258.5,-110 258.5,-129"/>
<text text-anchor="middle" x="217" y="-117" font-family="Helvetica,sans-Serif" font-size="10.00">TcpCommand</text>
</a>
</g>
</g>
<!-- TcpCommand&#45;&gt;TcpSetOptionCommand -->
<g id="edge1" class="edge">
<title>TcpCommand&#45;&gt;TcpSetOptionCommand</title>
<path fill="none" stroke="black" d="M217,-109.75C217,-99.87 217,-83.9 217,-74.09"/>
</g>
</g>
</svg>
