<?xml version="1.0" encoding="UTF-8" standalone="no"?>
<!DOCTYPE svg PUBLIC "-//W3C//DTD SVG 1.1//EN"
 "http://www.w3.org/Graphics/SVG/1.1/DTD/svg11.dtd">
<!-- Generated by graphviz version 2.43.0 (0)
 -->
<!-- Title: opp Pages: 1 -->
<svg width="666pt" height="137pt"
 viewBox="0.00 0.00 665.50 137.00" xmlns="http://www.w3.org/2000/svg" xmlns:xlink="http://www.w3.org/1999/xlink">
<g id="graph0" class="graph" transform="scale(1 1) rotate(0) translate(4 133)">
<title>opp</title>
<polygon fill="transparent" stroke="transparent" points="-4,4 -4,-133 661.5,-133 661.5,4 -4,4"/>
<!-- SignalTagBase -->
<g id="node1" class="node">
<title>SignalTagBase</title>
<g id="a_node1"><a xlink:href="src-inet-physicallayer-wireless-common-contract-packetlevel-SignalTagBase.html" xlink:title="Class SignalTagBase" target="_parent">
<polygon fill="#fff700" stroke="black" points="397,-74 310,-74 310,-55 397,-55 397,-74"/>
<text text-anchor="middle" x="353.5" y="-62" font-family="Helvetica,sans-Serif" font-size="10.00">SignalTagBase</text>
</a>
</g>
</g>
<!-- ErrorRateInd -->
<g id="node3" class="node">
<title>ErrorRateInd</title>
<g id="a_node3"><a xlink:href="src-inet-physicallayer-wireless-common-contract-packetlevel-ErrorRateInd.html" xlink:title="Class ErrorRateInd" target="_parent">
<polygon fill="#fffcaf" stroke="black" points="77,-19 0,-19 0,0 77,0 77,-19"/>
<text text-anchor="middle" x="38.5" y="-7" font-family="Helvetica,sans-Serif" font-size="10.00">ErrorRateInd</text>
</a>
</g>
</g>
<!-- SignalTagBase&#45;&gt;ErrorRateInd -->
<g id="edge2" class="edge">
<title>SignalTagBase&#45;&gt;ErrorRateInd</title>
<path fill="none" stroke="black" d="M309.54,-56.31C256.6,-47.63 165,-32.49 86.5,-19 83.41,-18.47 80.22,-17.91 77.01,-17.35"/>
</g>
<!-- SignalBandTagBase -->
<g id="node4" class="node">
<title>SignalBandTagBase</title>
<g id="a_node4"><a xlink:href="src-inet-physicallayer-wireless-common-contract-packetlevel-SignalBandTagBase.html" xlink:title="Class SignalBandTagBase" target="_parent">
<polygon fill="#fffcaf" stroke="black" points="207.5,-19 95.5,-19 95.5,0 207.5,0 207.5,-19"/>
<text text-anchor="middle" x="151.5" y="-7" font-family="Helvetica,sans-Serif" font-size="10.00">SignalBandTagBase</text>
</a>
</g>
</g>
<!-- SignalTagBase&#45;&gt;SignalBandTagBase -->
<g id="edge3" class="edge">
<title>SignalTagBase&#45;&gt;SignalBandTagBase</title>
<path fill="none" stroke="black" d="M321.05,-54.98C283.46,-45.12 221.9,-28.97 184.21,-19.08"/>
</g>
<!-- SignalBitrateTagBase -->
<g id="node5" class="node">
<title>SignalBitrateTagBase</title>
<g id="a_node5"><a xlink:href="src-inet-physicallayer-wireless-common-contract-packetlevel-SignalBitrateTagBase.html" xlink:title="Class SignalBitrateTagBase" target="_parent">
<polygon fill="#fffcaf" stroke="black" points="345.5,-19 225.5,-19 225.5,0 345.5,0 345.5,-19"/>
<text text-anchor="middle" x="285.5" y="-7" font-family="Helvetica,sans-Serif" font-size="10.00">SignalBitrateTagBase</text>
</a>
</g>
</g>
<!-- SignalTagBase&#45;&gt;SignalBitrateTagBase -->
<g id="edge4" class="edge">
<title>SignalTagBase&#45;&gt;SignalBitrateTagBase</title>
<path fill="none" stroke="black" d="M342.57,-54.98C329.96,-45.15 309.32,-29.07 296.62,-19.17"/>
</g>
<!-- SignalPowerTagBase -->
<g id="node6" class="node">
<title>SignalPowerTagBase</title>
<g id="a_node6"><a xlink:href="src-inet-physicallayer-wireless-common-contract-packetlevel-SignalPowerTagBase.html" xlink:title="Class SignalPowerTagBase" target="_parent">
<polygon fill="#fffcaf" stroke="black" points="481,-19 364,-19 364,0 481,0 481,-19"/>
<text text-anchor="middle" x="422.5" y="-7" font-family="Helvetica,sans-Serif" font-size="10.00">SignalPowerTagBase</text>
</a>
</g>
</g>
<!-- SignalTagBase&#45;&gt;SignalPowerTagBase -->
<g id="edge5" class="edge">
<title>SignalTagBase&#45;&gt;SignalPowerTagBase</title>
<path fill="none" stroke="black" d="M364.59,-54.98C377.39,-45.15 398.33,-29.07 411.21,-19.17"/>
</g>
<!-- SignalTimeInd -->
<g id="node7" class="node">
<title>SignalTimeInd</title>
<g id="a_node7"><a xlink:href="src-inet-physicallayer-wireless-common-contract-packetlevel-SignalTimeInd.html" xlink:title="Class SignalTimeInd" target="_parent">
<polygon fill="#fffcaf" stroke="black" points="585.5,-19 499.5,-19 499.5,0 585.5,0 585.5,-19"/>
<text text-anchor="middle" x="542.5" y="-7" font-family="Helvetica,sans-Serif" font-size="10.00">SignalTimeInd</text>
</a>
</g>
</g>
<!-- SignalTagBase&#45;&gt;SignalTimeInd -->
<g id="edge6" class="edge">
<title>SignalTagBase&#45;&gt;SignalTimeInd</title>
<path fill="none" stroke="black" d="M383.87,-54.98C419.03,-45.12 476.63,-28.97 511.9,-19.08"/>
</g>
<!-- SnirInd -->
<g id="node8" class="node">
<title>SnirInd</title>
<g id="a_node8"><a xlink:href="src-inet-physicallayer-wireless-common-contract-packetlevel-SnirInd.html" xlink:title="Class SnirInd" target="_parent">
<polygon fill="#fffcaf" stroke="black" points="657.5,-19 603.5,-19 603.5,0 657.5,0 657.5,-19"/>
<text text-anchor="middle" x="630.5" y="-7" font-family="Helvetica,sans-Serif" font-size="10.00">SnirInd</text>
</a>
</g>
</g>
<!-- SignalTagBase&#45;&gt;SnirInd -->
<g id="edge7" class="edge">
<title>SignalTagBase&#45;&gt;SnirInd</title>
<path fill="none" stroke="black" d="M397.16,-56.1C445.54,-47.76 525.8,-33.44 594.5,-19 597.39,-18.39 600.41,-17.73 603.41,-17.05"/>
</g>
<!-- TagBase -->
<g id="node2" class="node">
<title>TagBase</title>
<g id="a_node2"><a xlink:href="src-inet-common-TagBase.html" xlink:title="Class TagBase" target="_parent">
<polygon fill="#fffcaf" stroke="black" points="382,-129 325,-129 325,-110 382,-110 382,-129"/>
<text text-anchor="middle" x="353.5" y="-117" font-family="Helvetica,sans-Serif" font-size="10.00">TagBase</text>
</a>
</g>
</g>
<!-- TagBase&#45;&gt;SignalTagBase -->
<g id="edge1" class="edge">
<title>TagBase&#45;&gt;SignalTagBase</title>
<path fill="none" stroke="black" d="M353.5,-109.75C353.5,-99.87 353.5,-83.9 353.5,-74.09"/>
</g>
</g>
</svg>
