<?xml version="1.0" encoding="UTF-8" standalone="no"?>
<!DOCTYPE svg PUBLIC "-//W3C//DTD SVG 1.1//EN"
 "http://www.w3.org/Graphics/SVG/1.1/DTD/svg11.dtd">
<!-- Generated by graphviz version 2.43.0 (0)
 -->
<!-- Title: opp Pages: 1 -->
<svg width="339pt" height="82pt"
 viewBox="0.00 0.00 338.50 82.00" xmlns="http://www.w3.org/2000/svg" xmlns:xlink="http://www.w3.org/1999/xlink">
<g id="graph0" class="graph" transform="scale(1 1) rotate(0) translate(4 78)">
<title>opp</title>
<polygon fill="transparent" stroke="transparent" points="-4,4 -4,-78 334.5,-78 334.5,4 -4,4"/>
<!-- Ospfv2DatabaseDescriptionPacket -->
<g id="node1" class="node">
<title>Ospfv2DatabaseDescriptionPacket</title>
<g id="a_node1"><a xlink:href="src-inet-routing-ospfv2-Ospfv2DatabaseDescriptionPacket.html" xlink:title="Class Ospfv2DatabaseDescriptionPacket" target="_parent">
<polygon fill="#fff700" stroke="black" points="257.5,-74 72.5,-74 72.5,-55 257.5,-55 257.5,-74"/>
<text text-anchor="middle" x="165" y="-62" font-family="Helvetica,sans-Serif" font-size="10.00">Ospfv2DatabaseDescriptionPacket</text>
</a>
</g>
</g>
<!-- Ospfv2DdOptions -->
<g id="node2" class="node">
<title>Ospfv2DdOptions</title>
<g id="a_node2"><a xlink:href="src-inet-routing-ospfv2-Ospfv2DdOptions.html" xlink:title="Struct Ospfv2DdOptions" target="_parent">
<polygon fill="#d0d0ff" stroke="black" points="102,-19 0,-19 0,0 102,0 102,-19"/>
<text text-anchor="middle" x="51" y="-7" font-family="Helvetica,sans-Serif" font-size="10.00">Ospfv2DdOptions</text>
</a>
</g>
</g>
<!-- Ospfv2DatabaseDescriptionPacket&#45;&gt;Ospfv2DdOptions -->
<g id="edge1" class="edge">
<title>Ospfv2DatabaseDescriptionPacket&#45;&gt;Ospfv2DdOptions</title>
<path fill="none" stroke="black" d="M146.68,-54.98C128.34,-46.46 99.89,-33.23 78.77,-23.41"/>
<polygon fill="black" stroke="black" points="80.19,-20.21 69.65,-19.17 77.24,-26.56 80.19,-20.21"/>
</g>
<!-- Ospfv2Options -->
<g id="node3" class="node">
<title>Ospfv2Options</title>
<g id="a_node3"><a xlink:href="src-inet-routing-ospfv2-Ospfv2Options.html" xlink:title="Struct Ospfv2Options" target="_parent">
<polygon fill="#d0d0ff" stroke="black" points="209.5,-19 120.5,-19 120.5,0 209.5,0 209.5,-19"/>
<text text-anchor="middle" x="165" y="-7" font-family="Helvetica,sans-Serif" font-size="10.00">Ospfv2Options</text>
</a>
</g>
</g>
<!-- Ospfv2DatabaseDescriptionPacket&#45;&gt;Ospfv2Options -->
<g id="edge2" class="edge">
<title>Ospfv2DatabaseDescriptionPacket&#45;&gt;Ospfv2Options</title>
<path fill="none" stroke="black" d="M165,-54.75C165,-47.8 165,-37.85 165,-29.13"/>
<polygon fill="black" stroke="black" points="168.5,-29.09 165,-19.09 161.5,-29.09 168.5,-29.09"/>
</g>
<!-- Ospfv2LsaHeader -->
<g id="node4" class="node">
<title>Ospfv2LsaHeader</title>
<g id="a_node4"><a xlink:href="src-inet-routing-ospfv2-Ospfv2LsaHeader.html" xlink:title="Class Ospfv2LsaHeader" target="_parent">
<polygon fill="#fffcaf" stroke="black" points="330.5,-19 227.5,-19 227.5,0 330.5,0 330.5,-19"/>
<text text-anchor="middle" x="279" y="-7" font-family="Helvetica,sans-Serif" font-size="10.00">Ospfv2LsaHeader</text>
</a>
</g>
</g>
<!-- Ospfv2DatabaseDescriptionPacket&#45;&gt;Ospfv2LsaHeader -->
<g id="edge3" class="edge">
<title>Ospfv2DatabaseDescriptionPacket&#45;&gt;Ospfv2LsaHeader</title>
<path fill="none" stroke="black" d="M183.32,-54.98C201.66,-46.46 230.11,-33.23 251.23,-23.41"/>
<polygon fill="black" stroke="black" points="252.76,-26.56 260.35,-19.17 249.81,-20.21 252.76,-26.56"/>
</g>
</g>
</svg>
