<?xml version="1.0" encoding="UTF-8" standalone="no"?>
<!DOCTYPE svg PUBLIC "-//W3C//DTD SVG 1.1//EN"
 "http://www.w3.org/Graphics/SVG/1.1/DTD/svg11.dtd">
<!-- Generated by graphviz version 2.43.0 (0)
 -->
<!-- Title: opp Pages: 1 -->
<svg width="760pt" height="137pt"
 viewBox="0.00 0.00 760.00 137.00" xmlns="http://www.w3.org/2000/svg" xmlns:xlink="http://www.w3.org/1999/xlink">
<g id="graph0" class="graph" transform="scale(1 1) rotate(0) translate(4 133)">
<title>opp</title>
<polygon fill="transparent" stroke="transparent" points="-4,4 -4,-133 756,-133 756,4 -4,4"/>
<!-- Ieee80211Channel -->
<g id="node1" class="node">
<title>Ieee80211Channel</title>
<g id="a_node1"><a xlink:href="src-inet-physicallayer-wireless-ieee80211-mode-Ieee80211Channel.html" xlink:title="Class Ieee80211Channel" target="_parent">
<polygon fill="#fff700" stroke="black" points="422.5,-74 315.5,-74 315.5,-55 422.5,-55 422.5,-74"/>
<text text-anchor="middle" x="369" y="-62" font-family="Helvetica,sans-Serif" font-size="10.00">Ieee80211Channel</text>
</a>
</g>
</g>
<!-- IIeee80211Band -->
<g id="node2" class="node">
<title>IIeee80211Band</title>
<g id="a_node2"><a xlink:href="src-inet-physicallayer-wireless-ieee80211-mode-IIeee80211Band.html" xlink:title="Class IIeee80211Band" target="_parent">
<polygon fill="#fffcaf" stroke="black" points="416.5,-19 321.5,-19 321.5,0 416.5,0 416.5,-19"/>
<text text-anchor="middle" x="369" y="-7" font-family="Helvetica,sans-Serif" font-size="10.00">IIeee80211Band</text>
</a>
</g>
</g>
<!-- Ieee80211Channel&#45;&gt;IIeee80211Band -->
<g id="edge1" class="edge">
<title>Ieee80211Channel&#45;&gt;IIeee80211Band</title>
<path fill="none" stroke="black" d="M369,-54.75C369,-47.8 369,-37.85 369,-29.13"/>
<polygon fill="black" stroke="black" points="372.5,-29.09 369,-19.09 365.5,-29.09 372.5,-29.09"/>
</g>
<!-- Ieee80211ChannelTagBase -->
<g id="node3" class="node">
<title>Ieee80211ChannelTagBase</title>
<g id="a_node3"><a xlink:href="src-inet-physicallayer-wireless-ieee80211-packetlevel-Ieee80211ChannelTagBase.html" xlink:title="Class Ieee80211ChannelTagBase" target="_parent">
<polygon fill="#fffcaf" stroke="black" points="148,-129 0,-129 0,-110 148,-110 148,-129"/>
<text text-anchor="middle" x="74" y="-117" font-family="Helvetica,sans-Serif" font-size="10.00">Ieee80211ChannelTagBase</text>
</a>
</g>
</g>
<!-- Ieee80211ChannelTagBase&#45;&gt;Ieee80211Channel -->
<g id="edge2" class="edge">
<title>Ieee80211ChannelTagBase&#45;&gt;Ieee80211Channel</title>
<path fill="none" stroke="black" d="M121.4,-109.98C173.07,-100.7 255.77,-85.84 311.21,-75.88"/>
<polygon fill="black" stroke="black" points="312.01,-79.3 321.23,-74.08 310.77,-72.41 312.01,-79.3"/>
</g>
<!-- Ieee80211ConfigureRadioCommand -->
<g id="node4" class="node">
<title>Ieee80211ConfigureRadioCommand</title>
<g id="a_node4"><a xlink:href="src-inet-physicallayer-wireless-ieee80211-packetlevel-Ieee80211ConfigureRadioCommand.html" xlink:title="Class Ieee80211ConfigureRadioCommand" target="_parent">
<polygon fill="#fffcaf" stroke="black" points="359.5,-129 166.5,-129 166.5,-110 359.5,-110 359.5,-129"/>
<text text-anchor="middle" x="263" y="-117" font-family="Helvetica,sans-Serif" font-size="10.00">Ieee80211ConfigureRadioCommand</text>
</a>
</g>
</g>
<!-- Ieee80211ConfigureRadioCommand&#45;&gt;Ieee80211Channel -->
<g id="edge3" class="edge">
<title>Ieee80211ConfigureRadioCommand&#45;&gt;Ieee80211Channel</title>
<path fill="none" stroke="black" d="M280.03,-109.98C296.93,-101.54 323.06,-88.47 342.64,-78.68"/>
<polygon fill="black" stroke="black" points="344.28,-81.77 351.66,-74.17 341.15,-75.51 344.28,-81.77"/>
</g>
<!-- Ieee80211DimensionalTransmission -->
<g id="node5" class="node">
<title>Ieee80211DimensionalTransmission</title>
<g id="a_node5"><a xlink:href="src-inet-physicallayer-wireless-ieee80211-packetlevel-Ieee80211DimensionalTransmission.html" xlink:title="Class Ieee80211DimensionalTransmission" target="_parent">
<polygon fill="#fffcaf" stroke="black" points="572,-129 378,-129 378,-110 572,-110 572,-129"/>
<text text-anchor="middle" x="475" y="-117" font-family="Helvetica,sans-Serif" font-size="10.00">Ieee80211DimensionalTransmission</text>
</a>
</g>
</g>
<!-- Ieee80211DimensionalTransmission&#45;&gt;Ieee80211Channel -->
<g id="edge4" class="edge">
<title>Ieee80211DimensionalTransmission&#45;&gt;Ieee80211Channel</title>
<path fill="none" stroke="black" d="M457.97,-109.98C441.07,-101.54 414.94,-88.47 395.36,-78.68"/>
<polygon fill="black" stroke="black" points="396.85,-75.51 386.34,-74.17 393.72,-81.77 396.85,-75.51"/>
</g>
<!-- Ieee80211ScalarTransmission -->
<g id="node6" class="node">
<title>Ieee80211ScalarTransmission</title>
<g id="a_node6"><a xlink:href="src-inet-physicallayer-wireless-ieee80211-packetlevel-Ieee80211ScalarTransmission.html" xlink:title="Class Ieee80211ScalarTransmission" target="_parent">
<polygon fill="#fffcaf" stroke="black" points="752,-129 590,-129 590,-110 752,-110 752,-129"/>
<text text-anchor="middle" x="671" y="-117" font-family="Helvetica,sans-Serif" font-size="10.00">Ieee80211ScalarTransmission</text>
</a>
</g>
</g>
<!-- Ieee80211ScalarTransmission&#45;&gt;Ieee80211Channel -->
<g id="edge5" class="edge">
<title>Ieee80211ScalarTransmission&#45;&gt;Ieee80211Channel</title>
<path fill="none" stroke="black" d="M622.48,-109.98C569.39,-100.67 484.31,-85.74 427.56,-75.78"/>
<polygon fill="black" stroke="black" points="428.11,-72.32 417.65,-74.04 426.9,-79.21 428.11,-72.32"/>
</g>
</g>
</svg>
