<?xml version="1.0" encoding="UTF-8" standalone="no"?>
<!DOCTYPE svg PUBLIC "-//W3C//DTD SVG 1.1//EN"
 "http://www.w3.org/Graphics/SVG/1.1/DTD/svg11.dtd">
<!-- Generated by graphviz version 2.43.0 (0)
 -->
<!-- Title: opp Pages: 1 -->
<svg width="288pt" height="137pt"
 viewBox="0.00 0.00 287.50 137.00" xmlns="http://www.w3.org/2000/svg" xmlns:xlink="http://www.w3.org/1999/xlink">
<g id="graph0" class="graph" transform="scale(1 1) rotate(0) translate(4 133)">
<title>opp</title>
<polygon fill="transparent" stroke="transparent" points="-4,4 -4,-133 283.5,-133 283.5,4 -4,4"/>
<!-- Ieee80211Prim_BssDescription -->
<g id="node1" class="node">
<title>Ieee80211Prim_BssDescription</title>
<g id="a_node1"><a xlink:href="src-inet-linklayer-ieee80211-mgmt-Ieee80211Prim_BssDescription.html" xlink:title="Class Ieee80211Prim_BssDescription" target="_parent">
<polygon fill="#fff700" stroke="black" points="196,-74 28,-74 28,-55 196,-55 196,-74"/>
<text text-anchor="middle" x="112" y="-62" font-family="Helvetica,sans-Serif" font-size="10.00">Ieee80211Prim_BssDescription</text>
</a>
</g>
</g>
<!-- MacAddress -->
<g id="node2" class="node">
<title>MacAddress</title>
<g id="a_node2"><a xlink:href="src-inet-linklayer-common-MacAddress.html" xlink:title="Class MacAddress" target="_parent">
<polygon fill="#fffcaf" stroke="black" points="76,-19 0,-19 0,0 76,0 76,-19"/>
<text text-anchor="middle" x="38" y="-7" font-family="Helvetica,sans-Serif" font-size="10.00">MacAddress</text>
</a>
</g>
</g>
<!-- Ieee80211Prim_BssDescription&#45;&gt;MacAddress -->
<g id="edge1" class="edge">
<title>Ieee80211Prim_BssDescription&#45;&gt;MacAddress</title>
<path fill="none" stroke="black" d="M100.11,-54.98C88.85,-46.92 71.71,-34.65 58.29,-25.03"/>
<polygon fill="black" stroke="black" points="60.27,-22.15 50.11,-19.17 56.2,-27.84 60.27,-22.15"/>
</g>
<!-- Ieee80211SupportedRatesElement -->
<g id="node3" class="node">
<title>Ieee80211SupportedRatesElement</title>
<g id="a_node3"><a xlink:href="src-inet-linklayer-ieee80211-mgmt-Ieee80211SupportedRatesElement.html" xlink:title="Struct Ieee80211SupportedRatesElement" target="_parent">
<polygon fill="#d0d0ff" stroke="black" points="279.5,-19 94.5,-19 94.5,0 279.5,0 279.5,-19"/>
<text text-anchor="middle" x="187" y="-7" font-family="Helvetica,sans-Serif" font-size="10.00">Ieee80211SupportedRatesElement</text>
</a>
</g>
</g>
<!-- Ieee80211Prim_BssDescription&#45;&gt;Ieee80211SupportedRatesElement -->
<g id="edge2" class="edge">
<title>Ieee80211Prim_BssDescription&#45;&gt;Ieee80211SupportedRatesElement</title>
<path fill="none" stroke="black" d="M124.05,-54.98C135.46,-46.92 152.83,-34.65 166.43,-25.03"/>
<polygon fill="black" stroke="black" points="168.58,-27.8 174.73,-19.17 164.54,-22.08 168.58,-27.8"/>
</g>
<!-- Ieee80211Prim_ScanConfirm -->
<g id="node4" class="node">
<title>Ieee80211Prim_ScanConfirm</title>
<g id="a_node4"><a xlink:href="src-inet-linklayer-ieee80211-mgmt-Ieee80211Prim_ScanConfirm.html" xlink:title="Class Ieee80211Prim_ScanConfirm" target="_parent">
<polygon fill="#fffcaf" stroke="black" points="191,-129 33,-129 33,-110 191,-110 191,-129"/>
<text text-anchor="middle" x="112" y="-117" font-family="Helvetica,sans-Serif" font-size="10.00">Ieee80211Prim_ScanConfirm</text>
</a>
</g>
</g>
<!-- Ieee80211Prim_ScanConfirm&#45;&gt;Ieee80211Prim_BssDescription -->
<g id="edge3" class="edge">
<title>Ieee80211Prim_ScanConfirm&#45;&gt;Ieee80211Prim_BssDescription</title>
<path fill="none" stroke="black" d="M112,-109.75C112,-102.8 112,-92.85 112,-84.13"/>
<polygon fill="black" stroke="black" points="115.5,-84.09 112,-74.09 108.5,-84.09 115.5,-84.09"/>
</g>
</g>
</svg>
