<?xml version="1.0" encoding="UTF-8" standalone="no"?>
<!DOCTYPE svg PUBLIC "-//W3C//DTD SVG 1.1//EN"
 "http://www.w3.org/Graphics/SVG/1.1/DTD/svg11.dtd">
<!-- Generated by graphviz version 2.43.0 (0)
 -->
<!-- Title: opp Pages: 1 -->
<svg width="338pt" height="82pt"
 viewBox="0.00 0.00 337.50 82.00" xmlns="http://www.w3.org/2000/svg" xmlns:xlink="http://www.w3.org/1999/xlink">
<g id="graph0" class="graph" transform="scale(1 1) rotate(0) translate(4 78)">
<title>opp</title>
<polygon fill="transparent" stroke="transparent" points="-4,4 -4,-78 333.5,-78 333.5,4 -4,4"/>
<!-- Ospfv3DatabaseDescriptionPacket -->
<g id="node1" class="node">
<title>Ospfv3DatabaseDescriptionPacket</title>
<g id="a_node1"><a xlink:href="src-inet-routing-ospfv3-Ospfv3DatabaseDescriptionPacket.html" xlink:title="Class Ospfv3DatabaseDescriptionPacket" target="_parent">
<polygon fill="#fff700" stroke="black" points="258,-74 73,-74 73,-55 258,-55 258,-74"/>
<text text-anchor="middle" x="165.5" y="-62" font-family="Helvetica,sans-Serif" font-size="10.00">Ospfv3DatabaseDescriptionPacket</text>
</a>
</g>
</g>
<!-- Ospfv3LsaHeader -->
<g id="node2" class="node">
<title>Ospfv3LsaHeader</title>
<g id="a_node2"><a xlink:href="src-inet-routing-ospfv3-Ospfv3LsaHeader.html" xlink:title="Class Ospfv3LsaHeader" target="_parent">
<polygon fill="#fffcaf" stroke="black" points="103,-19 0,-19 0,0 103,0 103,-19"/>
<text text-anchor="middle" x="51.5" y="-7" font-family="Helvetica,sans-Serif" font-size="10.00">Ospfv3LsaHeader</text>
</a>
</g>
</g>
<!-- Ospfv3DatabaseDescriptionPacket&#45;&gt;Ospfv3LsaHeader -->
<g id="edge1" class="edge">
<title>Ospfv3DatabaseDescriptionPacket&#45;&gt;Ospfv3LsaHeader</title>
<path fill="none" stroke="black" d="M147.18,-54.98C128.84,-46.46 100.39,-33.23 79.27,-23.41"/>
<polygon fill="black" stroke="black" points="80.69,-20.21 70.15,-19.17 77.74,-26.56 80.69,-20.21"/>
</g>
<!-- Ospfv3Options -->
<g id="node3" class="node">
<title>Ospfv3Options</title>
<g id="a_node3"><a xlink:href="src-inet-routing-ospfv3-Ospfv3Options.html" xlink:title="Struct Ospfv3Options" target="_parent">
<polygon fill="#d0d0ff" stroke="black" points="210,-19 121,-19 121,0 210,0 210,-19"/>
<text text-anchor="middle" x="165.5" y="-7" font-family="Helvetica,sans-Serif" font-size="10.00">Ospfv3Options</text>
</a>
</g>
</g>
<!-- Ospfv3DatabaseDescriptionPacket&#45;&gt;Ospfv3Options -->
<g id="edge2" class="edge">
<title>Ospfv3DatabaseDescriptionPacket&#45;&gt;Ospfv3Options</title>
<path fill="none" stroke="black" d="M165.5,-54.75C165.5,-47.8 165.5,-37.85 165.5,-29.13"/>
<polygon fill="black" stroke="black" points="169,-29.09 165.5,-19.09 162,-29.09 169,-29.09"/>
</g>
<!-- Ospfv3DdOptions -->
<g id="node4" class="node">
<title>Ospfv3DdOptions</title>
<g id="a_node4"><a xlink:href="src-inet-routing-ospfv3-Ospfv3DdOptions.html" xlink:title="Struct Ospfv3DdOptions" target="_parent">
<polygon fill="#d0d0ff" stroke="black" points="329.5,-19 227.5,-19 227.5,0 329.5,0 329.5,-19"/>
<text text-anchor="middle" x="278.5" y="-7" font-family="Helvetica,sans-Serif" font-size="10.00">Ospfv3DdOptions</text>
</a>
</g>
</g>
<!-- Ospfv3DatabaseDescriptionPacket&#45;&gt;Ospfv3DdOptions -->
<g id="edge3" class="edge">
<title>Ospfv3DatabaseDescriptionPacket&#45;&gt;Ospfv3DdOptions</title>
<path fill="none" stroke="black" d="M183.66,-54.98C201.75,-46.5 229.78,-33.35 250.69,-23.54"/>
<polygon fill="black" stroke="black" points="252.45,-26.59 260.01,-19.17 249.47,-20.25 252.45,-26.59"/>
</g>
</g>
</svg>
