<?xml version="1.0" encoding="UTF-8" standalone="no"?>
<!DOCTYPE svg PUBLIC "-//W3C//DTD SVG 1.1//EN"
 "http://www.w3.org/Graphics/SVG/1.1/DTD/svg11.dtd">
<!-- Generated by graphviz version 2.43.0 (0)
 -->
<!-- Title: opp Pages: 1 -->
<svg width="240pt" height="82pt"
 viewBox="0.00 0.00 239.50 82.00" xmlns="http://www.w3.org/2000/svg" xmlns:xlink="http://www.w3.org/1999/xlink">
<g id="graph0" class="graph" transform="scale(1 1) rotate(0) translate(4 78)">
<title>opp</title>
<polygon fill="transparent" stroke="transparent" points="-4,4 -4,-78 235.5,-78 235.5,4 -4,4"/>
<!-- ProbabilisticBroadcastHeader -->
<g id="node1" class="node">
<title>ProbabilisticBroadcastHeader</title>
<g id="a_node1"><a xlink:href="src-inet-networklayer-probabilistic-ProbabilisticBroadcastHeader.html" xlink:title="Class ProbabilisticBroadcastHeader" target="_parent">
<polygon fill="#fff700" stroke="black" points="189.5,-74 28.5,-74 28.5,-55 189.5,-55 189.5,-74"/>
<text text-anchor="middle" x="109" y="-62" font-family="Helvetica,sans-Serif" font-size="10.00">ProbabilisticBroadcastHeader</text>
</a>
</g>
</g>
<!-- B -->
<g id="node2" class="node">
<title>B</title>
<g id="a_node2"><a xlink:href="src-inet-common-B.html" xlink:title="Class B" target="_parent">
<polygon fill="#fffcaf" stroke="black" points="54,-19 0,-19 0,0 54,0 54,-19"/>
<text text-anchor="middle" x="27" y="-7" font-family="Helvetica,sans-Serif" font-size="10.00">B</text>
</a>
</g>
</g>
<!-- ProbabilisticBroadcastHeader&#45;&gt;B -->
<g id="edge1" class="edge">
<title>ProbabilisticBroadcastHeader&#45;&gt;B</title>
<path fill="none" stroke="black" d="M95.83,-54.98C83.23,-46.84 64,-34.41 49.06,-24.76"/>
<polygon fill="black" stroke="black" points="50.71,-21.66 40.41,-19.17 46.91,-27.54 50.71,-21.66"/>
</g>
<!-- IpProtocolId -->
<g id="node3" class="node">
<title>IpProtocolId</title>
<g id="a_node3"><a xlink:href="src-inet-networklayer-common-IpProtocolId.html" xlink:title="Enum IpProtocolId" target="_parent">
<polygon fill="#d0ffd0" stroke="black" points="146,-19 72,-19 72,0 146,0 146,-19"/>
<text text-anchor="middle" x="109" y="-7" font-family="Helvetica,sans-Serif" font-size="10.00">IpProtocolId</text>
</a>
</g>
</g>
<!-- ProbabilisticBroadcastHeader&#45;&gt;IpProtocolId -->
<g id="edge2" class="edge">
<title>ProbabilisticBroadcastHeader&#45;&gt;IpProtocolId</title>
<path fill="none" stroke="black" d="M109,-54.75C109,-47.8 109,-37.85 109,-29.13"/>
<polygon fill="black" stroke="black" points="112.5,-29.09 109,-19.09 105.5,-29.09 112.5,-29.09"/>
</g>
<!-- L3Address -->
<g id="node4" class="node">
<title>L3Address</title>
<g id="a_node4"><a xlink:href="src-inet-networklayer-common-L3Address.html" xlink:title="Class L3Address" target="_parent">
<polygon fill="#fffcaf" stroke="black" points="231.5,-19 164.5,-19 164.5,0 231.5,0 231.5,-19"/>
<text text-anchor="middle" x="198" y="-7" font-family="Helvetica,sans-Serif" font-size="10.00">L3Address</text>
</a>
</g>
</g>
<!-- ProbabilisticBroadcastHeader&#45;&gt;L3Address -->
<g id="edge3" class="edge">
<title>ProbabilisticBroadcastHeader&#45;&gt;L3Address</title>
<path fill="none" stroke="black" d="M123.3,-54.98C137.1,-46.77 158.24,-34.18 174.51,-24.49"/>
<polygon fill="black" stroke="black" points="176.64,-27.29 183.44,-19.17 173.06,-21.28 176.64,-27.29"/>
</g>
</g>
</svg>
