<?xml version="1.0" encoding="UTF-8" standalone="no"?>
<!DOCTYPE svg PUBLIC "-//W3C//DTD SVG 1.1//EN"
 "http://www.w3.org/Graphics/SVG/1.1/DTD/svg11.dtd">
<!-- Generated by graphviz version 2.43.0 (0)
 -->
<!-- Title: opp Pages: 1 -->
<svg width="230pt" height="82pt"
 viewBox="0.00 0.00 230.00 82.00" xmlns="http://www.w3.org/2000/svg" xmlns:xlink="http://www.w3.org/1999/xlink">
<g id="graph0" class="graph" transform="scale(1 1) rotate(0) translate(4 78)">
<title>opp</title>
<polygon fill="transparent" stroke="transparent" points="-4,4 -4,-78 226,-78 226,4 -4,4"/>
<!-- Ospfv3NssaLsa -->
<g id="node1" class="node">
<title>Ospfv3NssaLsa</title>
<g id="a_node1"><a xlink:href="src-inet-routing-ospfv3-Ospfv3NssaLsa.html" xlink:title="Class Ospfv3NssaLsa" target="_parent">
<polygon fill="#fff700" stroke="black" points="144.5,-74 52.5,-74 52.5,-55 144.5,-55 144.5,-74"/>
<text text-anchor="middle" x="98.5" y="-62" font-family="Helvetica,sans-Serif" font-size="10.00">Ospfv3NssaLsa</text>
</a>
</g>
</g>
<!-- Ipv6Address -->
<g id="node2" class="node">
<title>Ipv6Address</title>
<g id="a_node2"><a xlink:href="src-inet-networklayer-contract-ipv6-Ipv6Address.html" xlink:title="Class Ipv6Address" target="_parent">
<polygon fill="#fffcaf" stroke="black" points="77,-19 0,-19 0,0 77,0 77,-19"/>
<text text-anchor="middle" x="38.5" y="-7" font-family="Helvetica,sans-Serif" font-size="10.00">Ipv6Address</text>
</a>
</g>
</g>
<!-- Ospfv3NssaLsa&#45;&gt;Ipv6Address -->
<g id="edge1" class="edge">
<title>Ospfv3NssaLsa&#45;&gt;Ipv6Address</title>
<path fill="none" stroke="black" d="M88.86,-54.98C79.99,-47.15 66.63,-35.34 55.89,-25.86"/>
<polygon fill="black" stroke="black" points="58.13,-23.17 48.32,-19.17 53.49,-28.41 58.13,-23.17"/>
</g>
<!-- Ospfv3LsaPrefixMetric -->
<g id="node3" class="node">
<title>Ospfv3LsaPrefixMetric</title>
<g id="a_node3"><a xlink:href="src-inet-routing-ospfv3-Ospfv3LsaPrefixMetric.html" xlink:title="Struct Ospfv3LsaPrefixMetric" target="_parent">
<polygon fill="#d0d0ff" stroke="black" points="222,-19 95,-19 95,0 222,0 222,-19"/>
<text text-anchor="middle" x="158.5" y="-7" font-family="Helvetica,sans-Serif" font-size="10.00">Ospfv3LsaPrefixMetric</text>
</a>
</g>
</g>
<!-- Ospfv3NssaLsa&#45;&gt;Ospfv3LsaPrefixMetric -->
<g id="edge2" class="edge">
<title>Ospfv3NssaLsa&#45;&gt;Ospfv3LsaPrefixMetric</title>
<path fill="none" stroke="black" d="M108.14,-54.98C117.01,-47.15 130.37,-35.34 141.11,-25.86"/>
<polygon fill="black" stroke="black" points="143.51,-28.41 148.68,-19.17 138.87,-23.17 143.51,-28.41"/>
</g>
</g>
</svg>
