<?xml version="1.0" encoding="UTF-8" standalone="no"?>
<!DOCTYPE svg PUBLIC "-//W3C//DTD SVG 1.1//EN"
 "http://www.w3.org/Graphics/SVG/1.1/DTD/svg11.dtd">
<!-- Generated by graphviz version 2.43.0 (0)
 -->
<!-- Title: opp Pages: 1 -->
<svg width="312pt" height="82pt"
 viewBox="0.00 0.00 312.00 82.00" xmlns="http://www.w3.org/2000/svg" xmlns:xlink="http://www.w3.org/1999/xlink">
<g id="graph0" class="graph" transform="scale(1 1) rotate(0) translate(4 78)">
<title>opp</title>
<polygon fill="transparent" stroke="transparent" points="-4,4 -4,-78 308,-78 308,4 -4,4"/>
<!-- FlowDescriptor_t -->
<g id="node1" class="node">
<title>FlowDescriptor_t</title>
<g id="a_node1"><a xlink:href="src-inet-networklayer-rsvpte-FlowDescriptor_t.html" xlink:title="Struct FlowDescriptor_t" target="_parent">
<polygon fill="#9090ff" stroke="black" points="215.5,-74 116.5,-74 116.5,-55 215.5,-55 215.5,-74"/>
<text text-anchor="middle" x="166" y="-62" font-family="Helvetica,sans-Serif" font-size="10.00">FlowDescriptor_t</text>
</a>
</g>
</g>
<!-- Ipv4AddressVector -->
<g id="node2" class="node">
<title>Ipv4AddressVector</title>
<g id="a_node2"><a xlink:href="src-inet-networklayer-contract-ipv4-Ipv4AddressVector.html" xlink:title="Class Ipv4AddressVector" target="_parent">
<polygon fill="#fffcaf" stroke="black" points="108,-19 0,-19 0,0 108,0 108,-19"/>
<text text-anchor="middle" x="54" y="-7" font-family="Helvetica,sans-Serif" font-size="10.00">Ipv4AddressVector</text>
</a>
</g>
</g>
<!-- FlowDescriptor_t&#45;&gt;Ipv4AddressVector -->
<g id="edge1" class="edge">
<title>FlowDescriptor_t&#45;&gt;Ipv4AddressVector</title>
<path fill="none" stroke="black" d="M148.01,-54.98C130.07,-46.5 102.28,-33.35 81.57,-23.54"/>
<polygon fill="black" stroke="black" points="82.86,-20.28 72.32,-19.17 79.86,-26.61 82.86,-20.28"/>
</g>
<!-- FlowSpecObj -->
<g id="node3" class="node">
<title>FlowSpecObj</title>
<g id="a_node3"><a xlink:href="src-inet-networklayer-rsvpte-FlowSpecObj.html" xlink:title="Struct FlowSpecObj" target="_parent">
<polygon fill="#d0d0ff" stroke="black" points="206,-19 126,-19 126,0 206,0 206,-19"/>
<text text-anchor="middle" x="166" y="-7" font-family="Helvetica,sans-Serif" font-size="10.00">FlowSpecObj</text>
</a>
</g>
</g>
<!-- FlowDescriptor_t&#45;&gt;FlowSpecObj -->
<g id="edge2" class="edge">
<title>FlowDescriptor_t&#45;&gt;FlowSpecObj</title>
<path fill="none" stroke="black" d="M166,-54.75C166,-47.8 166,-37.85 166,-29.13"/>
<polygon fill="black" stroke="black" points="169.5,-29.09 166,-19.09 162.5,-29.09 169.5,-29.09"/>
</g>
<!-- FilterSpecObj -->
<g id="node4" class="node">
<title>FilterSpecObj</title>
<g id="a_node4"><a xlink:href="src-inet-networklayer-rsvpte-FilterSpecObj.html" xlink:title="Struct FilterSpecObj" target="_parent">
<polygon fill="#d0d0ff" stroke="black" points="304,-19 224,-19 224,0 304,0 304,-19"/>
<text text-anchor="middle" x="264" y="-7" font-family="Helvetica,sans-Serif" font-size="10.00">FilterSpecObj</text>
</a>
</g>
</g>
<!-- FlowDescriptor_t&#45;&gt;FilterSpecObj -->
<g id="edge3" class="edge">
<title>FlowDescriptor_t&#45;&gt;FilterSpecObj</title>
<path fill="none" stroke="black" d="M181.75,-54.98C197.23,-46.61 221.09,-33.7 239.14,-23.95"/>
<polygon fill="black" stroke="black" points="240.84,-27.01 247.97,-19.17 237.51,-20.85 240.84,-27.01"/>
</g>
</g>
</svg>
