<?xml version="1.0" encoding="UTF-8" standalone="no"?>
<!DOCTYPE svg PUBLIC "-//W3C//DTD SVG 1.1//EN"
 "http://www.w3.org/Graphics/SVG/1.1/DTD/svg11.dtd">
<!-- Generated by graphviz version 2.43.0 (0)
 -->
<!-- Title: opp Pages: 1 -->
<svg width="416pt" height="137pt"
 viewBox="0.00 0.00 416.00 137.00" xmlns="http://www.w3.org/2000/svg" xmlns:xlink="http://www.w3.org/1999/xlink">
<g id="graph0" class="graph" transform="scale(1 1) rotate(0) translate(4 133)">
<title>opp</title>
<polygon fill="transparent" stroke="transparent" points="-4,4 -4,-133 412,-133 412,4 -4,4"/>
<!-- EncodedGroupAddress -->
<g id="node1" class="node">
<title>EncodedGroupAddress</title>
<g id="a_node1"><a xlink:href="src-inet-routing-pim-EncodedGroupAddress.html" xlink:title="Struct EncodedGroupAddress" target="_parent">
<polygon fill="#9090ff" stroke="black" points="256,-74 130,-74 130,-55 256,-55 256,-74"/>
<text text-anchor="middle" x="193" y="-62" font-family="Helvetica,sans-Serif" font-size="10.00">EncodedGroupAddress</text>
</a>
</g>
</g>
<!-- L3Address -->
<g id="node2" class="node">
<title>L3Address</title>
<g id="a_node2"><a xlink:href="src-inet-networklayer-common-L3Address.html" xlink:title="Class L3Address" target="_parent">
<polygon fill="#fffcaf" stroke="black" points="226.5,-19 159.5,-19 159.5,0 226.5,0 226.5,-19"/>
<text text-anchor="middle" x="193" y="-7" font-family="Helvetica,sans-Serif" font-size="10.00">L3Address</text>
</a>
</g>
</g>
<!-- EncodedGroupAddress&#45;&gt;L3Address -->
<g id="edge1" class="edge">
<title>EncodedGroupAddress&#45;&gt;L3Address</title>
<path fill="none" stroke="black" d="M193,-54.75C193,-47.8 193,-37.85 193,-29.13"/>
<polygon fill="black" stroke="black" points="196.5,-29.09 193,-19.09 189.5,-29.09 196.5,-29.09"/>
</g>
<!-- JoinPruneGroup -->
<g id="node3" class="node">
<title>JoinPruneGroup</title>
<g id="a_node3"><a xlink:href="src-inet-routing-pim-JoinPruneGroup.html" xlink:title="Class JoinPruneGroup" target="_parent">
<polygon fill="#fffcaf" stroke="black" points="92,-129 0,-129 0,-110 92,-110 92,-129"/>
<text text-anchor="middle" x="46" y="-117" font-family="Helvetica,sans-Serif" font-size="10.00">JoinPruneGroup</text>
</a>
</g>
</g>
<!-- JoinPruneGroup&#45;&gt;EncodedGroupAddress -->
<g id="edge2" class="edge">
<title>JoinPruneGroup&#45;&gt;EncodedGroupAddress</title>
<path fill="none" stroke="black" d="M69.62,-109.98C93.9,-101.23 131.95,-87.51 159.37,-77.62"/>
<polygon fill="black" stroke="black" points="160.73,-80.85 168.95,-74.17 158.36,-74.27 160.73,-80.85"/>
</g>
<!-- PimAssert -->
<g id="node4" class="node">
<title>PimAssert</title>
<g id="a_node4"><a xlink:href="src-inet-routing-pim-PimAssert.html" xlink:title="Class PimAssert" target="_parent">
<polygon fill="#fffcaf" stroke="black" points="176,-129 110,-129 110,-110 176,-110 176,-129"/>
<text text-anchor="middle" x="143" y="-117" font-family="Helvetica,sans-Serif" font-size="10.00">PimAssert</text>
</a>
</g>
</g>
<!-- PimAssert&#45;&gt;EncodedGroupAddress -->
<g id="edge3" class="edge">
<title>PimAssert&#45;&gt;EncodedGroupAddress</title>
<path fill="none" stroke="black" d="M151.26,-109.75C158.46,-102.11 169.11,-90.82 177.85,-81.56"/>
<polygon fill="black" stroke="black" points="180.58,-83.76 184.9,-74.09 175.49,-78.96 180.58,-83.76"/>
</g>
<!-- PimRegisterStop -->
<g id="node5" class="node">
<title>PimRegisterStop</title>
<g id="a_node5"><a xlink:href="src-inet-routing-pim-PimRegisterStop.html" xlink:title="Class PimRegisterStop" target="_parent">
<polygon fill="#fffcaf" stroke="black" points="292,-129 194,-129 194,-110 292,-110 292,-129"/>
<text text-anchor="middle" x="243" y="-117" font-family="Helvetica,sans-Serif" font-size="10.00">PimRegisterStop</text>
</a>
</g>
</g>
<!-- PimRegisterStop&#45;&gt;EncodedGroupAddress -->
<g id="edge4" class="edge">
<title>PimRegisterStop&#45;&gt;EncodedGroupAddress</title>
<path fill="none" stroke="black" d="M234.74,-109.75C227.54,-102.11 216.89,-90.82 208.15,-81.56"/>
<polygon fill="black" stroke="black" points="210.51,-78.96 201.1,-74.09 205.42,-83.76 210.51,-78.96"/>
</g>
<!-- PimStateRefresh -->
<g id="node6" class="node">
<title>PimStateRefresh</title>
<g id="a_node6"><a xlink:href="src-inet-routing-pim-PimStateRefresh.html" xlink:title="Class PimStateRefresh" target="_parent">
<polygon fill="#fffcaf" stroke="black" points="408,-129 310,-129 310,-110 408,-110 408,-129"/>
<text text-anchor="middle" x="359" y="-117" font-family="Helvetica,sans-Serif" font-size="10.00">PimStateRefresh</text>
</a>
</g>
</g>
<!-- PimStateRefresh&#45;&gt;EncodedGroupAddress -->
<g id="edge5" class="edge">
<title>PimStateRefresh&#45;&gt;EncodedGroupAddress</title>
<path fill="none" stroke="black" d="M332.33,-109.98C304.46,-101.09 260.55,-87.07 229.48,-77.15"/>
<polygon fill="black" stroke="black" points="230.47,-73.79 219.88,-74.08 228.34,-80.46 230.47,-73.79"/>
</g>
</g>
</svg>
