<?xml version="1.0" encoding="UTF-8" standalone="no"?>
<!DOCTYPE svg PUBLIC "-//W3C//DTD SVG 1.1//EN"
 "http://www.w3.org/Graphics/SVG/1.1/DTD/svg11.dtd">
<!-- Generated by graphviz version 2.43.0 (0)
 -->
<!-- Title: opp Pages: 1 -->
<svg width="96pt" height="137pt"
 viewBox="0.00 0.00 96.00 137.00" xmlns="http://www.w3.org/2000/svg" xmlns:xlink="http://www.w3.org/1999/xlink">
<g id="graph0" class="graph" transform="scale(1 1) rotate(0) translate(4 133)">
<title>opp</title>
<polygon fill="transparent" stroke="transparent" points="-4,4 -4,-133 92,-133 92,4 -4,4"/>
<!-- TcpSendQueue -->
<g id="node1" class="node">
<title>TcpSendQueue</title>
<g id="a_node1"><a xlink:href="src-inet-transportlayer-tcp-TcpSendQueue.html" xlink:title="Class TcpSendQueue" target="_parent">
<polygon fill="#fff700" stroke="black" points="88,-74 0,-74 0,-55 88,-55 88,-74"/>
<text text-anchor="middle" x="44" y="-62" font-family="Helvetica,sans-Serif" font-size="10.00">TcpSendQueue</text>
</a>
</g>
</g>
<!-- ChunkQueue -->
<g id="node2" class="node">
<title>ChunkQueue</title>
<g id="a_node2"><a xlink:href="src-inet-common-packet-ChunkQueue.html" xlink:title="Class ChunkQueue" target="_parent">
<polygon fill="#fffcaf" stroke="black" points="83.5,-19 4.5,-19 4.5,0 83.5,0 83.5,-19"/>
<text text-anchor="middle" x="44" y="-7" font-family="Helvetica,sans-Serif" font-size="10.00">ChunkQueue</text>
</a>
</g>
</g>
<!-- TcpSendQueue&#45;&gt;ChunkQueue -->
<g id="edge1" class="edge">
<title>TcpSendQueue&#45;&gt;ChunkQueue</title>
<path fill="none" stroke="black" d="M44,-54.75C44,-47.8 44,-37.85 44,-29.13"/>
<polygon fill="black" stroke="black" points="47.5,-29.09 44,-19.09 40.5,-29.09 47.5,-29.09"/>
</g>
<!-- TcpConnection -->
<g id="node3" class="node">
<title>TcpConnection</title>
<g id="a_node3"><a xlink:href="src-inet-transportlayer-tcp-TcpConnection.html" xlink:title="Class TcpConnection" target="_parent">
<polygon fill="#fffcaf" stroke="black" points="87.5,-129 0.5,-129 0.5,-110 87.5,-110 87.5,-129"/>
<text text-anchor="middle" x="44" y="-117" font-family="Helvetica,sans-Serif" font-size="10.00">TcpConnection</text>
</a>
</g>
</g>
<!-- TcpConnection&#45;&gt;TcpSendQueue -->
<g id="edge2" class="edge">
<title>TcpConnection&#45;&gt;TcpSendQueue</title>
<path fill="none" stroke="black" d="M44,-109.75C44,-102.8 44,-92.85 44,-84.13"/>
<polygon fill="black" stroke="black" points="47.5,-84.09 44,-74.09 40.5,-84.09 47.5,-84.09"/>
</g>
</g>
</svg>
