<?xml version="1.0" encoding="UTF-8" standalone="no"?>
<!DOCTYPE svg PUBLIC "-//W3C//DTD SVG 1.1//EN"
 "http://www.w3.org/Graphics/SVG/1.1/DTD/svg11.dtd">
<!-- Generated by graphviz version 2.43.0 (0)
 -->
<!-- Title: opp Pages: 1 -->
<svg width="473pt" height="82pt"
 viewBox="0.00 0.00 472.50 82.00" xmlns="http://www.w3.org/2000/svg" xmlns:xlink="http://www.w3.org/1999/xlink">
<g id="graph0" class="graph" transform="scale(1 1) rotate(0) translate(4 78)">
<title>opp</title>
<polygon fill="transparent" stroke="transparent" points="-4,4 -4,-78 468.5,-78 468.5,4 -4,4"/>
<!-- Ieee80211ConfigureRadioCommand -->
<g id="node1" class="node">
<title>Ieee80211ConfigureRadioCommand</title>
<g id="a_node1"><a xlink:href="src-inet-physicallayer-wireless-ieee80211-packetlevel-Ieee80211ConfigureRadioCommand.html" xlink:title="Class Ieee80211ConfigureRadioCommand" target="_parent">
<polygon fill="#fff700" stroke="black" points="327.5,-74 134.5,-74 134.5,-55 327.5,-55 327.5,-74"/>
<text text-anchor="middle" x="231" y="-62" font-family="Helvetica,sans-Serif" font-size="10.00">Ieee80211ConfigureRadioCommand</text>
</a>
</g>
</g>
<!-- IIeee80211Mode -->
<g id="node2" class="node">
<title>IIeee80211Mode</title>
<g id="a_node2"><a xlink:href="src-inet-physicallayer-wireless-ieee80211-mode-IIeee80211Mode.html" xlink:title="Class IIeee80211Mode" target="_parent">
<polygon fill="#fffcaf" stroke="black" points="98,-19 0,-19 0,0 98,0 98,-19"/>
<text text-anchor="middle" x="49" y="-7" font-family="Helvetica,sans-Serif" font-size="10.00">IIeee80211Mode</text>
</a>
</g>
</g>
<!-- Ieee80211ConfigureRadioCommand&#45;&gt;IIeee80211Mode -->
<g id="edge1" class="edge">
<title>Ieee80211ConfigureRadioCommand&#45;&gt;IIeee80211Mode</title>
<path fill="none" stroke="black" d="M201.76,-54.98C170.94,-46.01 122.22,-31.82 88.11,-21.89"/>
<polygon fill="black" stroke="black" points="89.05,-18.52 78.47,-19.08 87.09,-25.24 89.05,-18.52"/>
</g>
<!-- Ieee80211ModeSet -->
<g id="node3" class="node">
<title>Ieee80211ModeSet</title>
<g id="a_node3"><a xlink:href="src-inet-physicallayer-wireless-ieee80211-mode-Ieee80211ModeSet.html" xlink:title="Class Ieee80211ModeSet" target="_parent">
<polygon fill="#fffcaf" stroke="black" points="226,-19 116,-19 116,0 226,0 226,-19"/>
<text text-anchor="middle" x="171" y="-7" font-family="Helvetica,sans-Serif" font-size="10.00">Ieee80211ModeSet</text>
</a>
</g>
</g>
<!-- Ieee80211ConfigureRadioCommand&#45;&gt;Ieee80211ModeSet -->
<g id="edge2" class="edge">
<title>Ieee80211ConfigureRadioCommand&#45;&gt;Ieee80211ModeSet</title>
<path fill="none" stroke="black" d="M221.36,-54.98C212.49,-47.15 199.13,-35.34 188.39,-25.86"/>
<polygon fill="black" stroke="black" points="190.63,-23.17 180.82,-19.17 185.99,-28.41 190.63,-23.17"/>
</g>
<!-- IIeee80211Band -->
<g id="node4" class="node">
<title>IIeee80211Band</title>
<g id="a_node4"><a xlink:href="src-inet-physicallayer-wireless-ieee80211-mode-IIeee80211Band.html" xlink:title="Class IIeee80211Band" target="_parent">
<polygon fill="#fffcaf" stroke="black" points="339.5,-19 244.5,-19 244.5,0 339.5,0 339.5,-19"/>
<text text-anchor="middle" x="292" y="-7" font-family="Helvetica,sans-Serif" font-size="10.00">IIeee80211Band</text>
</a>
</g>
</g>
<!-- Ieee80211ConfigureRadioCommand&#45;&gt;IIeee80211Band -->
<g id="edge3" class="edge">
<title>Ieee80211ConfigureRadioCommand&#45;&gt;IIeee80211Band</title>
<path fill="none" stroke="black" d="M240.8,-54.98C249.82,-47.15 263.41,-35.34 274.32,-25.86"/>
<polygon fill="black" stroke="black" points="276.77,-28.37 282.02,-19.17 272.18,-23.09 276.77,-28.37"/>
</g>
<!-- Ieee80211Channel -->
<g id="node5" class="node">
<title>Ieee80211Channel</title>
<g id="a_node5"><a xlink:href="src-inet-physicallayer-wireless-ieee80211-mode-Ieee80211Channel.html" xlink:title="Class Ieee80211Channel" target="_parent">
<polygon fill="#fffcaf" stroke="black" points="464.5,-19 357.5,-19 357.5,0 464.5,0 464.5,-19"/>
<text text-anchor="middle" x="411" y="-7" font-family="Helvetica,sans-Serif" font-size="10.00">Ieee80211Channel</text>
</a>
</g>
</g>
<!-- Ieee80211ConfigureRadioCommand&#45;&gt;Ieee80211Channel -->
<g id="edge4" class="edge">
<title>Ieee80211ConfigureRadioCommand&#45;&gt;Ieee80211Channel</title>
<path fill="none" stroke="black" d="M259.92,-54.98C290.27,-46.05 338.17,-31.94 371.88,-22.02"/>
<polygon fill="black" stroke="black" points="373.25,-25.26 381.85,-19.08 371.27,-18.55 373.25,-25.26"/>
</g>
</g>
</svg>
