<?xml version="1.0" encoding="UTF-8" standalone="no"?>
<!DOCTYPE svg PUBLIC "-//W3C//DTD SVG 1.1//EN"
 "http://www.w3.org/Graphics/SVG/1.1/DTD/svg11.dtd">
<!-- Generated by graphviz version 2.43.0 (0)
 -->
<!-- Title: opp Pages: 1 -->
<svg width="177pt" height="137pt"
 viewBox="0.00 0.00 177.00 137.00" xmlns="http://www.w3.org/2000/svg" xmlns:xlink="http://www.w3.org/1999/xlink">
<g id="graph0" class="graph" transform="scale(1 1) rotate(0) translate(4 133)">
<title>opp</title>
<polygon fill="transparent" stroke="transparent" points="-4,4 -4,-133 173,-133 173,4 -4,4"/>
<!-- Ospfv2LsaRequest -->
<g id="node1" class="node">
<title>Ospfv2LsaRequest</title>
<g id="a_node1"><a xlink:href="src-inet-routing-ospfv2-Ospfv2LsaRequest.html" xlink:title="Struct Ospfv2LsaRequest" target="_parent">
<polygon fill="#9090ff" stroke="black" points="138,-74 31,-74 31,-55 138,-55 138,-74"/>
<text text-anchor="middle" x="84.5" y="-62" font-family="Helvetica,sans-Serif" font-size="10.00">Ospfv2LsaRequest</text>
</a>
</g>
</g>
<!-- Ipv4Address -->
<g id="node2" class="node">
<title>Ipv4Address</title>
<g id="a_node2"><a xlink:href="src-inet-networklayer-contract-ipv4-Ipv4Address.html" xlink:title="Class Ipv4Address" target="_parent">
<polygon fill="#fffcaf" stroke="black" points="123,-19 46,-19 46,0 123,0 123,-19"/>
<text text-anchor="middle" x="84.5" y="-7" font-family="Helvetica,sans-Serif" font-size="10.00">Ipv4Address</text>
</a>
</g>
</g>
<!-- Ospfv2LsaRequest&#45;&gt;Ipv4Address -->
<g id="edge1" class="edge">
<title>Ospfv2LsaRequest&#45;&gt;Ipv4Address</title>
<path fill="none" stroke="black" d="M84.5,-54.75C84.5,-47.8 84.5,-37.85 84.5,-29.13"/>
<polygon fill="black" stroke="black" points="88,-29.09 84.5,-19.09 81,-29.09 88,-29.09"/>
</g>
<!-- Ospfv2LinkStateRequestPacket -->
<g id="node3" class="node">
<title>Ospfv2LinkStateRequestPacket</title>
<g id="a_node3"><a xlink:href="src-inet-routing-ospfv2-Ospfv2LinkStateRequestPacket.html" xlink:title="Class Ospfv2LinkStateRequestPacket" target="_parent">
<polygon fill="#fffcaf" stroke="black" points="169,-129 0,-129 0,-110 169,-110 169,-129"/>
<text text-anchor="middle" x="84.5" y="-117" font-family="Helvetica,sans-Serif" font-size="10.00">Ospfv2LinkStateRequestPacket</text>
</a>
</g>
</g>
<!-- Ospfv2LinkStateRequestPacket&#45;&gt;Ospfv2LsaRequest -->
<g id="edge2" class="edge">
<title>Ospfv2LinkStateRequestPacket&#45;&gt;Ospfv2LsaRequest</title>
<path fill="none" stroke="black" d="M84.5,-109.75C84.5,-102.8 84.5,-92.85 84.5,-84.13"/>
<polygon fill="black" stroke="black" points="88,-84.09 84.5,-74.09 81,-84.09 88,-84.09"/>
</g>
</g>
</svg>
