<?xml version="1.0" encoding="UTF-8" standalone="no"?>
<!DOCTYPE svg PUBLIC "-//W3C//DTD SVG 1.1//EN"
 "http://www.w3.org/Graphics/SVG/1.1/DTD/svg11.dtd">
<!-- Generated by graphviz version 2.43.0 (0)
 -->
<!-- Title: opp Pages: 1 -->
<svg width="582pt" height="82pt"
 viewBox="0.00 0.00 582.00 82.00" xmlns="http://www.w3.org/2000/svg" xmlns:xlink="http://www.w3.org/1999/xlink">
<g id="graph0" class="graph" transform="scale(1 1) rotate(0) translate(4 78)">
<title>opp</title>
<polygon fill="transparent" stroke="transparent" points="-4,4 -4,-78 578,-78 578,4 -4,4"/>
<!-- Ieee80211PrimConfirm -->
<g id="node1" class="node">
<title>Ieee80211PrimConfirm</title>
<g id="a_node1"><a xlink:href="src-inet-linklayer-ieee80211-mgmt-Ieee80211PrimConfirm.html" xlink:title="Class Ieee80211PrimConfirm" target="_parent">
<polygon fill="#fff700" stroke="black" points="363.5,-74 234.5,-74 234.5,-55 363.5,-55 363.5,-74"/>
<text text-anchor="middle" x="299" y="-62" font-family="Helvetica,sans-Serif" font-size="10.00">Ieee80211PrimConfirm</text>
</a>
</g>
</g>
<!-- Ieee80211Prim_AssociateConfirm -->
<g id="node2" class="node">
<title>Ieee80211Prim_AssociateConfirm</title>
<g id="a_node2"><a xlink:href="src-inet-linklayer-ieee80211-mgmt-Ieee80211Prim_AssociateConfirm.html" xlink:title="Class Ieee80211Prim_AssociateConfirm" target="_parent">
<polygon fill="#fffcaf" stroke="black" points="182,-19 0,-19 0,0 182,0 182,-19"/>
<text text-anchor="middle" x="91" y="-7" font-family="Helvetica,sans-Serif" font-size="10.00">Ieee80211Prim_AssociateConfirm</text>
</a>
</g>
</g>
<!-- Ieee80211PrimConfirm&#45;&gt;Ieee80211Prim_AssociateConfirm -->
<g id="edge1" class="edge">
<title>Ieee80211PrimConfirm&#45;&gt;Ieee80211Prim_AssociateConfirm</title>
<path fill="none" stroke="black" d="M265.58,-54.98C226.88,-45.12 163.49,-28.97 124.68,-19.08"/>
</g>
<!-- Ieee80211Prim_AuthenticateConfirm -->
<g id="node3" class="node">
<title>Ieee80211Prim_AuthenticateConfirm</title>
<g id="a_node3"><a xlink:href="src-inet-linklayer-ieee80211-mgmt-Ieee80211Prim_AuthenticateConfirm.html" xlink:title="Class Ieee80211Prim_AuthenticateConfirm" target="_parent">
<polygon fill="#fffcaf" stroke="black" points="397.5,-19 200.5,-19 200.5,0 397.5,0 397.5,-19"/>
<text text-anchor="middle" x="299" y="-7" font-family="Helvetica,sans-Serif" font-size="10.00">Ieee80211Prim_AuthenticateConfirm</text>
</a>
</g>
</g>
<!-- Ieee80211PrimConfirm&#45;&gt;Ieee80211Prim_AuthenticateConfirm -->
<g id="edge2" class="edge">
<title>Ieee80211PrimConfirm&#45;&gt;Ieee80211Prim_AuthenticateConfirm</title>
<path fill="none" stroke="black" d="M299,-54.75C299,-44.87 299,-28.9 299,-19.09"/>
</g>
<!-- Ieee80211Prim_ScanConfirm -->
<g id="node4" class="node">
<title>Ieee80211Prim_ScanConfirm</title>
<g id="a_node4"><a xlink:href="src-inet-linklayer-ieee80211-mgmt-Ieee80211Prim_ScanConfirm.html" xlink:title="Class Ieee80211Prim_ScanConfirm" target="_parent">
<polygon fill="#fffcaf" stroke="black" points="574,-19 416,-19 416,0 574,0 574,-19"/>
<text text-anchor="middle" x="495" y="-7" font-family="Helvetica,sans-Serif" font-size="10.00">Ieee80211Prim_ScanConfirm</text>
</a>
</g>
</g>
<!-- Ieee80211PrimConfirm&#45;&gt;Ieee80211Prim_ScanConfirm -->
<g id="edge3" class="edge">
<title>Ieee80211PrimConfirm&#45;&gt;Ieee80211Prim_ScanConfirm</title>
<path fill="none" stroke="black" d="M330.49,-54.98C366.96,-45.12 426.69,-28.97 463.26,-19.08"/>
</g>
</g>
</svg>
