<?xml version="1.0" encoding="UTF-8" standalone="no"?>
<!DOCTYPE svg PUBLIC "-//W3C//DTD SVG 1.1//EN"
 "http://www.w3.org/Graphics/SVG/1.1/DTD/svg11.dtd">
<!-- Generated by graphviz version 2.43.0 (0)
 -->
<!-- Title: opp Pages: 1 -->
<svg width="1001pt" height="82pt"
 viewBox="0.00 0.00 1001.00 82.00" xmlns="http://www.w3.org/2000/svg" xmlns:xlink="http://www.w3.org/1999/xlink">
<g id="graph0" class="graph" transform="scale(1 1) rotate(0) translate(4 78)">
<title>opp</title>
<polygon fill="transparent" stroke="transparent" points="-4,4 -4,-78 997,-78 997,4 -4,4"/>
<!-- Chunk -->
<g id="node1" class="node">
<title>Chunk</title>
<g id="a_node1"><a xlink:href="src-inet-common-packet-chunk-Chunk.html" xlink:title="Class Chunk" target="_parent">
<polygon fill="#fff700" stroke="black" points="520.5,-74 466.5,-74 466.5,-55 520.5,-55 520.5,-74"/>
<text text-anchor="middle" x="493.5" y="-62" font-family="Helvetica,sans-Serif" font-size="10.00">Chunk</text>
</a>
</g>
</g>
<!-- BitCountChunk -->
<g id="node2" class="node">
<title>BitCountChunk</title>
<g id="a_node2"><a xlink:href="src-inet-common-packet-chunk-BitCountChunk.html" xlink:title="Class BitCountChunk" target="_parent">
<polygon fill="#fffcaf" stroke="black" points="89,-19 0,-19 0,0 89,0 89,-19"/>
<text text-anchor="middle" x="44.5" y="-7" font-family="Helvetica,sans-Serif" font-size="10.00">BitCountChunk</text>
</a>
</g>
</g>
<!-- Chunk&#45;&gt;BitCountChunk -->
<g id="edge1" class="edge">
<title>Chunk&#45;&gt;BitCountChunk</title>
<path fill="none" stroke="black" d="M466.15,-60.84C401.89,-54.49 236.31,-37.6 98.5,-19 95.49,-18.59 92.39,-18.16 89.27,-17.7"/>
</g>
<!-- BitsChunk -->
<g id="node3" class="node">
<title>BitsChunk</title>
<g id="a_node3"><a xlink:href="src-inet-common-packet-chunk-BitsChunk.html" xlink:title="Class BitsChunk" target="_parent">
<polygon fill="#fffcaf" stroke="black" points="173.5,-19 107.5,-19 107.5,0 173.5,0 173.5,-19"/>
<text text-anchor="middle" x="140.5" y="-7" font-family="Helvetica,sans-Serif" font-size="10.00">BitsChunk</text>
</a>
</g>
</g>
<!-- Chunk&#45;&gt;BitsChunk -->
<g id="edge2" class="edge">
<title>Chunk&#45;&gt;BitsChunk</title>
<path fill="none" stroke="black" d="M466.38,-60.15C412.25,-53.36 287.04,-37.04 182.5,-19 179.71,-18.52 176.83,-17.99 173.94,-17.45"/>
</g>
<!-- ByteCountChunk -->
<g id="node4" class="node">
<title>ByteCountChunk</title>
<g id="a_node4"><a xlink:href="src-inet-common-packet-chunk-ByteCountChunk.html" xlink:title="Class ByteCountChunk" target="_parent">
<polygon fill="#fffcaf" stroke="black" points="289.5,-19 191.5,-19 191.5,0 289.5,0 289.5,-19"/>
<text text-anchor="middle" x="240.5" y="-7" font-family="Helvetica,sans-Serif" font-size="10.00">ByteCountChunk</text>
</a>
</g>
</g>
<!-- Chunk&#45;&gt;ByteCountChunk -->
<g id="edge3" class="edge">
<title>Chunk&#45;&gt;ByteCountChunk</title>
<path fill="none" stroke="black" d="M466.42,-57.83C421.94,-48.51 333.13,-29.9 281.09,-19"/>
</g>
<!-- BytesChunk -->
<g id="node5" class="node">
<title>BytesChunk</title>
<g id="a_node5"><a xlink:href="src-inet-common-packet-chunk-BytesChunk.html" xlink:title="Class BytesChunk" target="_parent">
<polygon fill="#fffcaf" stroke="black" points="383,-19 308,-19 308,0 383,0 383,-19"/>
<text text-anchor="middle" x="345.5" y="-7" font-family="Helvetica,sans-Serif" font-size="10.00">BytesChunk</text>
</a>
</g>
</g>
<!-- Chunk&#45;&gt;BytesChunk -->
<g id="edge4" class="edge">
<title>Chunk&#45;&gt;BytesChunk</title>
<path fill="none" stroke="black" d="M469.72,-54.98C442.27,-45.15 397.35,-29.07 369.71,-19.17"/>
</g>
<!-- cPacketChunk -->
<g id="node6" class="node">
<title>cPacketChunk</title>
<g id="a_node6"><a xlink:href="src-inet-common-packet-chunk-cPacketChunk.html" xlink:title="Class cPacketChunk" target="_parent">
<polygon fill="#fffcaf" stroke="black" points="486,-19 401,-19 401,0 486,0 486,-19"/>
<text text-anchor="middle" x="443.5" y="-7" font-family="Helvetica,sans-Serif" font-size="10.00">cPacketChunk</text>
</a>
</g>
</g>
<!-- Chunk&#45;&gt;cPacketChunk -->
<g id="edge5" class="edge">
<title>Chunk&#45;&gt;cPacketChunk</title>
<path fill="none" stroke="black" d="M485.24,-54.75C475.92,-44.87 460.86,-28.9 451.6,-19.09"/>
</g>
<!-- EmptyChunk -->
<g id="node7" class="node">
<title>EmptyChunk</title>
<g id="a_node7"><a xlink:href="src-inet-common-packet-chunk-EmptyChunk.html" xlink:title="Class EmptyChunk" target="_parent">
<polygon fill="#fffcaf" stroke="black" points="583,-19 504,-19 504,0 583,0 583,-19"/>
<text text-anchor="middle" x="543.5" y="-7" font-family="Helvetica,sans-Serif" font-size="10.00">EmptyChunk</text>
</a>
</g>
</g>
<!-- Chunk&#45;&gt;EmptyChunk -->
<g id="edge6" class="edge">
<title>Chunk&#45;&gt;EmptyChunk</title>
<path fill="none" stroke="black" d="M501.76,-54.75C511.08,-44.87 526.14,-28.9 535.4,-19.09"/>
</g>
<!-- EncryptedChunk -->
<g id="node8" class="node">
<title>EncryptedChunk</title>
<g id="a_node8"><a xlink:href="src-inet-common-packet-chunk-EncryptedChunk.html" xlink:title="Class EncryptedChunk" target="_parent">
<polygon fill="#fffcaf" stroke="black" points="697.5,-19 601.5,-19 601.5,0 697.5,0 697.5,-19"/>
<text text-anchor="middle" x="649.5" y="-7" font-family="Helvetica,sans-Serif" font-size="10.00">EncryptedChunk</text>
</a>
</g>
</g>
<!-- Chunk&#45;&gt;EncryptedChunk -->
<g id="edge7" class="edge">
<title>Chunk&#45;&gt;EncryptedChunk</title>
<path fill="none" stroke="black" d="M518.56,-54.98C547.59,-45.12 595.13,-28.97 624.24,-19.08"/>
</g>
<!-- FieldsChunk -->
<g id="node9" class="node">
<title>FieldsChunk</title>
<g id="a_node9"><a xlink:href="src-inet-common-packet-chunk-FieldsChunk.html" xlink:title="Class FieldsChunk" target="_parent">
<polygon fill="#fffcaf" stroke="black" points="791,-19 716,-19 716,0 791,0 791,-19"/>
<text text-anchor="middle" x="753.5" y="-7" font-family="Helvetica,sans-Serif" font-size="10.00">FieldsChunk</text>
</a>
</g>
</g>
<!-- Chunk&#45;&gt;FieldsChunk -->
<g id="edge8" class="edge">
<title>Chunk&#45;&gt;FieldsChunk</title>
<path fill="none" stroke="black" d="M520.83,-57.93C567.51,-48.41 662.66,-29.02 715.68,-18.21"/>
</g>
<!-- SequenceChunk -->
<g id="node10" class="node">
<title>SequenceChunk</title>
<g id="a_node10"><a xlink:href="src-inet-common-packet-chunk-SequenceChunk.html" xlink:title="Class SequenceChunk" target="_parent">
<polygon fill="#fffcaf" stroke="black" points="904,-19 809,-19 809,0 904,0 904,-19"/>
<text text-anchor="middle" x="856.5" y="-7" font-family="Helvetica,sans-Serif" font-size="10.00">SequenceChunk</text>
</a>
</g>
</g>
<!-- Chunk&#45;&gt;SequenceChunk -->
<g id="edge9" class="edge">
<title>Chunk&#45;&gt;SequenceChunk</title>
<path fill="none" stroke="black" d="M520.61,-59.63C574.14,-51.98 697.15,-34.33 800.5,-19 803.22,-18.6 806.02,-18.18 808.84,-17.76"/>
</g>
<!-- SliceChunk -->
<g id="node11" class="node">
<title>SliceChunk</title>
<g id="a_node11"><a xlink:href="src-inet-common-packet-chunk-SliceChunk.html" xlink:title="Class SliceChunk" target="_parent">
<polygon fill="#fffcaf" stroke="black" points="993,-19 922,-19 922,0 993,0 993,-19"/>
<text text-anchor="middle" x="957.5" y="-7" font-family="Helvetica,sans-Serif" font-size="10.00">SliceChunk</text>
</a>
</g>
</g>
<!-- Chunk&#45;&gt;SliceChunk -->
<g id="edge10" class="edge">
<title>Chunk&#45;&gt;SliceChunk</title>
<path fill="none" stroke="black" d="M520.63,-61.43C587.57,-56.16 765.92,-41.03 913.5,-19 916.12,-18.61 918.81,-18.17 921.52,-17.71"/>
</g>
</g>
</svg>
