<?xml version="1.0" encoding="UTF-8" standalone="no"?>
<!DOCTYPE svg PUBLIC "-//W3C//DTD SVG 1.1//EN"
 "http://www.w3.org/Graphics/SVG/1.1/DTD/svg11.dtd">
<!-- Generated by graphviz version 2.43.0 (0)
 -->
<!-- Title: opp Pages: 1 -->
<svg width="153pt" height="137pt"
 viewBox="0.00 0.00 153.00 137.00" xmlns="http://www.w3.org/2000/svg" xmlns:xlink="http://www.w3.org/1999/xlink">
<g id="graph0" class="graph" transform="scale(1 1) rotate(0) translate(4 133)">
<title>opp</title>
<polygon fill="transparent" stroke="transparent" points="-4,4 -4,-133 149,-133 149,4 -4,4"/>
<!-- EthernetMacAddressFields -->
<g id="node1" class="node">
<title>EthernetMacAddressFields</title>
<g id="a_node1"><a xlink:href="src-inet-linklayer-ethernet-common-EthernetMacAddressFields.html" xlink:title="Class EthernetMacAddressFields" target="_parent">
<polygon fill="#fff700" stroke="black" points="145,-74 0,-74 0,-55 145,-55 145,-74"/>
<text text-anchor="middle" x="72.5" y="-62" font-family="Helvetica,sans-Serif" font-size="10.00">EthernetMacAddressFields</text>
</a>
</g>
</g>
<!-- EthernetMacHeader -->
<g id="node3" class="node">
<title>EthernetMacHeader</title>
<g id="a_node3"><a xlink:href="src-inet-linklayer-ethernet-common-EthernetMacHeader.html" xlink:title="Class EthernetMacHeader" target="_parent">
<polygon fill="#fffcaf" stroke="black" points="129,-19 16,-19 16,0 129,0 129,-19"/>
<text text-anchor="middle" x="72.5" y="-7" font-family="Helvetica,sans-Serif" font-size="10.00">EthernetMacHeader</text>
</a>
</g>
</g>
<!-- EthernetMacAddressFields&#45;&gt;EthernetMacHeader -->
<g id="edge2" class="edge">
<title>EthernetMacAddressFields&#45;&gt;EthernetMacHeader</title>
<path fill="none" stroke="black" d="M72.5,-54.75C72.5,-44.87 72.5,-28.9 72.5,-19.09"/>
</g>
<!-- FieldsChunk -->
<g id="node2" class="node">
<title>FieldsChunk</title>
<g id="a_node2"><a xlink:href="src-inet-common-packet-chunk-FieldsChunk.html" xlink:title="Class FieldsChunk" target="_parent">
<polygon fill="#fffcaf" stroke="black" points="110,-129 35,-129 35,-110 110,-110 110,-129"/>
<text text-anchor="middle" x="72.5" y="-117" font-family="Helvetica,sans-Serif" font-size="10.00">FieldsChunk</text>
</a>
</g>
</g>
<!-- FieldsChunk&#45;&gt;EthernetMacAddressFields -->
<g id="edge1" class="edge">
<title>FieldsChunk&#45;&gt;EthernetMacAddressFields</title>
<path fill="none" stroke="black" d="M72.5,-109.75C72.5,-99.87 72.5,-83.9 72.5,-74.09"/>
</g>
</g>
</svg>
