<?xml version="1.0" encoding="UTF-8" standalone="no"?>
<!DOCTYPE svg PUBLIC "-//W3C//DTD SVG 1.1//EN"
 "http://www.w3.org/Graphics/SVG/1.1/DTD/svg11.dtd">
<!-- Generated by graphviz version 2.43.0 (0)
 -->
<!-- Title: opp Pages: 1 -->
<svg width="609pt" height="82pt"
 viewBox="0.00 0.00 608.50 82.00" xmlns="http://www.w3.org/2000/svg" xmlns:xlink="http://www.w3.org/1999/xlink">
<g id="graph0" class="graph" transform="scale(1 1) rotate(0) translate(4 78)">
<title>opp</title>
<polygon fill="transparent" stroke="transparent" points="-4,4 -4,-78 604.5,-78 604.5,4 -4,4"/>
<!-- HelloOption -->
<g id="node1" class="node">
<title>HelloOption</title>
<g id="a_node1"><a xlink:href="src-inet-routing-pim-HelloOption.html" xlink:title="Class HelloOption" target="_parent">
<polygon fill="#fff700" stroke="black" points="329.5,-74 255.5,-74 255.5,-55 329.5,-55 329.5,-74"/>
<text text-anchor="middle" x="292.5" y="-62" font-family="Helvetica,sans-Serif" font-size="10.00">HelloOption</text>
</a>
</g>
</g>
<!-- AddressListOption -->
<g id="node2" class="node">
<title>AddressListOption</title>
<g id="a_node2"><a xlink:href="src-inet-routing-pim-AddressListOption.html" xlink:title="Class AddressListOption" target="_parent">
<polygon fill="#fffcaf" stroke="black" points="105,-19 0,-19 0,0 105,0 105,-19"/>
<text text-anchor="middle" x="52.5" y="-7" font-family="Helvetica,sans-Serif" font-size="10.00">AddressListOption</text>
</a>
</g>
</g>
<!-- HelloOption&#45;&gt;AddressListOption -->
<g id="edge1" class="edge">
<title>HelloOption&#45;&gt;AddressListOption</title>
<path fill="none" stroke="black" d="M255.26,-55.28C210.63,-45.42 136.21,-28.99 91.02,-19.01"/>
</g>
<!-- DrPriorityOption -->
<g id="node3" class="node">
<title>DrPriorityOption</title>
<g id="a_node3"><a xlink:href="src-inet-routing-pim-DrPriorityOption.html" xlink:title="Class DrPriorityOption" target="_parent">
<polygon fill="#fffcaf" stroke="black" points="218,-19 123,-19 123,0 218,0 218,-19"/>
<text text-anchor="middle" x="170.5" y="-7" font-family="Helvetica,sans-Serif" font-size="10.00">DrPriorityOption</text>
</a>
</g>
</g>
<!-- HelloOption&#45;&gt;DrPriorityOption -->
<g id="edge2" class="edge">
<title>HelloOption&#45;&gt;DrPriorityOption</title>
<path fill="none" stroke="black" d="M272.9,-54.98C250.27,-45.15 213.24,-29.07 190.46,-19.17"/>
</g>
<!-- GenerationIdOption -->
<g id="node4" class="node">
<title>GenerationIdOption</title>
<g id="a_node4"><a xlink:href="src-inet-routing-pim-GenerationIdOption.html" xlink:title="Class GenerationIdOption" target="_parent">
<polygon fill="#fffcaf" stroke="black" points="348.5,-19 236.5,-19 236.5,0 348.5,0 348.5,-19"/>
<text text-anchor="middle" x="292.5" y="-7" font-family="Helvetica,sans-Serif" font-size="10.00">GenerationIdOption</text>
</a>
</g>
</g>
<!-- HelloOption&#45;&gt;GenerationIdOption -->
<g id="edge3" class="edge">
<title>HelloOption&#45;&gt;GenerationIdOption</title>
<path fill="none" stroke="black" d="M292.5,-54.75C292.5,-44.87 292.5,-28.9 292.5,-19.09"/>
</g>
<!-- HoldtimeOption -->
<g id="node5" class="node">
<title>HoldtimeOption</title>
<g id="a_node5"><a xlink:href="src-inet-routing-pim-HoldtimeOption.html" xlink:title="Class HoldtimeOption" target="_parent">
<polygon fill="#fffcaf" stroke="black" points="460.5,-19 366.5,-19 366.5,0 460.5,0 460.5,-19"/>
<text text-anchor="middle" x="413.5" y="-7" font-family="Helvetica,sans-Serif" font-size="10.00">HoldtimeOption</text>
</a>
</g>
</g>
<!-- HelloOption&#45;&gt;HoldtimeOption -->
<g id="edge4" class="edge">
<title>HelloOption&#45;&gt;HoldtimeOption</title>
<path fill="none" stroke="black" d="M311.94,-54.98C334.39,-45.15 371.11,-29.07 393.71,-19.17"/>
</g>
<!-- LanPruneDelayOption -->
<g id="node6" class="node">
<title>LanPruneDelayOption</title>
<g id="a_node6"><a xlink:href="src-inet-routing-pim-LanPruneDelayOption.html" xlink:title="Class LanPruneDelayOption" target="_parent">
<polygon fill="#fffcaf" stroke="black" points="600.5,-19 478.5,-19 478.5,0 600.5,0 600.5,-19"/>
<text text-anchor="middle" x="539.5" y="-7" font-family="Helvetica,sans-Serif" font-size="10.00">LanPruneDelayOption</text>
</a>
</g>
</g>
<!-- HelloOption&#45;&gt;LanPruneDelayOption -->
<g id="edge5" class="edge">
<title>HelloOption&#45;&gt;LanPruneDelayOption</title>
<path fill="none" stroke="black" d="M329.75,-55.51C375.43,-45.7 452.57,-29.15 499.49,-19.09"/>
</g>
</g>
</svg>
