<?xml version="1.0" encoding="UTF-8" standalone="no"?>
<!DOCTYPE svg PUBLIC "-//W3C//DTD SVG 1.1//EN"
 "http://www.w3.org/Graphics/SVG/1.1/DTD/svg11.dtd">
<!-- Generated by graphviz version 2.43.0 (0)
 -->
<!-- Title: opp Pages: 1 -->
<svg width="140pt" height="82pt"
 viewBox="0.00 0.00 139.50 82.00" xmlns="http://www.w3.org/2000/svg" xmlns:xlink="http://www.w3.org/1999/xlink">
<g id="graph0" class="graph" transform="scale(1 1) rotate(0) translate(4 78)">
<title>opp</title>
<polygon fill="transparent" stroke="transparent" points="-4,4 -4,-78 135.5,-78 135.5,4 -4,4"/>
<!-- UdpHeader -->
<g id="node1" class="node">
<title>UdpHeader</title>
<g id="a_node1"><a xlink:href="src-inet-transportlayer-udp-UdpHeader.html" xlink:title="Class UdpHeader" target="_parent">
<polygon fill="#fff700" stroke="black" points="99.5,-74 28.5,-74 28.5,-55 99.5,-55 99.5,-74"/>
<text text-anchor="middle" x="64" y="-62" font-family="Helvetica,sans-Serif" font-size="10.00">UdpHeader</text>
</a>
</g>
</g>
<!-- B -->
<g id="node2" class="node">
<title>B</title>
<g id="a_node2"><a xlink:href="src-inet-common-B.html" xlink:title="Class B" target="_parent">
<polygon fill="#fffcaf" stroke="black" points="54,-19 0,-19 0,0 54,0 54,-19"/>
<text text-anchor="middle" x="27" y="-7" font-family="Helvetica,sans-Serif" font-size="10.00">B</text>
</a>
</g>
</g>
<!-- UdpHeader&#45;&gt;B -->
<g id="edge1" class="edge">
<title>UdpHeader&#45;&gt;B</title>
<path fill="none" stroke="black" d="M57.89,-54.75C52.72,-47.34 45.15,-36.5 38.81,-27.41"/>
<polygon fill="black" stroke="black" points="41.59,-25.29 33,-19.09 35.85,-29.29 41.59,-25.29"/>
</g>
<!-- CrcMode -->
<g id="node3" class="node">
<title>CrcMode</title>
<g id="a_node3"><a xlink:href="src-inet-transportlayer-common-CrcMode.html" xlink:title="Enum CrcMode" target="_parent">
<polygon fill="#d0ffd0" stroke="black" points="131.5,-19 72.5,-19 72.5,0 131.5,0 131.5,-19"/>
<text text-anchor="middle" x="102" y="-7" font-family="Helvetica,sans-Serif" font-size="10.00">CrcMode</text>
</a>
</g>
</g>
<!-- UdpHeader&#45;&gt;CrcMode -->
<g id="edge2" class="edge">
<title>UdpHeader&#45;&gt;CrcMode</title>
<path fill="none" stroke="black" d="M70.27,-54.75C75.59,-47.34 83.36,-36.5 89.88,-27.41"/>
<polygon fill="black" stroke="black" points="92.86,-29.26 95.84,-19.09 87.17,-25.18 92.86,-29.26"/>
</g>
</g>
</svg>
