<?xml version="1.0" encoding="UTF-8" standalone="no"?>
<!DOCTYPE svg PUBLIC "-//W3C//DTD SVG 1.1//EN"
 "http://www.w3.org/Graphics/SVG/1.1/DTD/svg11.dtd">
<!-- Generated by graphviz version 2.43.0 (0)
 -->
<!-- Title: opp Pages: 1 -->
<svg width="220pt" height="82pt"
 viewBox="0.00 0.00 220.00 82.00" xmlns="http://www.w3.org/2000/svg" xmlns:xlink="http://www.w3.org/1999/xlink">
<g id="graph0" class="graph" transform="scale(1 1) rotate(0) translate(4 78)">
<title>opp</title>
<polygon fill="transparent" stroke="transparent" points="-4,4 -4,-78 216,-78 216,4 -4,4"/>
<!-- Ieee80211BasicBlockAck -->
<g id="node1" class="node">
<title>Ieee80211BasicBlockAck</title>
<g id="a_node1"><a xlink:href="src-inet-linklayer-ieee80211-mac-Ieee80211BasicBlockAck.html" xlink:title="Class Ieee80211BasicBlockAck" target="_parent">
<polygon fill="#fff700" stroke="black" points="157.5,-74 18.5,-74 18.5,-55 157.5,-55 157.5,-74"/>
<text text-anchor="middle" x="88" y="-62" font-family="Helvetica,sans-Serif" font-size="10.00">Ieee80211BasicBlockAck</text>
</a>
</g>
</g>
<!-- BitVector -->
<g id="node2" class="node">
<title>BitVector</title>
<g id="a_node2"><a xlink:href="src-inet-linklayer-ieee80211-mac-BitVector.html" xlink:title="Class BitVector" target="_parent">
<polygon fill="#fffcaf" stroke="black" points="62,-19 0,-19 0,0 62,0 62,-19"/>
<text text-anchor="middle" x="31" y="-7" font-family="Helvetica,sans-Serif" font-size="10.00">BitVector</text>
</a>
</g>
</g>
<!-- Ieee80211BasicBlockAck&#45;&gt;BitVector -->
<g id="edge1" class="edge">
<title>Ieee80211BasicBlockAck&#45;&gt;BitVector</title>
<path fill="none" stroke="black" d="M78.84,-54.98C70.5,-47.23 57.97,-35.58 47.82,-26.14"/>
<polygon fill="black" stroke="black" points="50.03,-23.42 40.32,-19.17 45.26,-28.54 50.03,-23.42"/>
</g>
<!-- SequenceNumberCyclic -->
<g id="node3" class="node">
<title>SequenceNumberCyclic</title>
<g id="a_node3"><a xlink:href="src-inet-linklayer-ieee80211-mac-SequenceNumberCyclic.html" xlink:title="Class SequenceNumberCyclic" target="_parent">
<polygon fill="#fffcaf" stroke="black" points="212,-19 80,-19 80,0 212,0 212,-19"/>
<text text-anchor="middle" x="146" y="-7" font-family="Helvetica,sans-Serif" font-size="10.00">SequenceNumberCyclic</text>
</a>
</g>
</g>
<!-- Ieee80211BasicBlockAck&#45;&gt;SequenceNumberCyclic -->
<g id="edge2" class="edge">
<title>Ieee80211BasicBlockAck&#45;&gt;SequenceNumberCyclic</title>
<path fill="none" stroke="black" d="M97.32,-54.98C105.81,-47.23 118.56,-35.58 128.88,-26.14"/>
<polygon fill="black" stroke="black" points="131.49,-28.5 136.51,-19.17 126.77,-23.33 131.49,-28.5"/>
</g>
</g>
</svg>
