<?xml version="1.0" encoding="UTF-8" standalone="no"?>
<!DOCTYPE svg PUBLIC "-//W3C//DTD SVG 1.1//EN"
 "http://www.w3.org/Graphics/SVG/1.1/DTD/svg11.dtd">
<!-- Generated by graphviz version 2.43.0 (0)
 -->
<!-- Title: opp Pages: 1 -->
<svg width="165pt" height="137pt"
 viewBox="0.00 0.00 165.00 137.00" xmlns="http://www.w3.org/2000/svg" xmlns:xlink="http://www.w3.org/1999/xlink">
<g id="graph0" class="graph" transform="scale(1 1) rotate(0) translate(4 133)">
<title>opp</title>
<polygon fill="transparent" stroke="transparent" points="-4,4 -4,-133 161,-133 161,4 -4,4"/>
<!-- BgpUpdateWithdrawnRoutes -->
<g id="node1" class="node">
<title>BgpUpdateWithdrawnRoutes</title>
<g id="a_node1"><a xlink:href="src-inet-routing-bgpv4-bgpmessage-BgpUpdateWithdrawnRoutes.html" xlink:title="Struct BgpUpdateWithdrawnRoutes" target="_parent">
<polygon fill="#9090ff" stroke="black" points="157,-74 0,-74 0,-55 157,-55 157,-74"/>
<text text-anchor="middle" x="78.5" y="-62" font-family="Helvetica,sans-Serif" font-size="10.00">BgpUpdateWithdrawnRoutes</text>
</a>
</g>
</g>
<!-- Ipv4Address -->
<g id="node2" class="node">
<title>Ipv4Address</title>
<g id="a_node2"><a xlink:href="src-inet-networklayer-contract-ipv4-Ipv4Address.html" xlink:title="Class Ipv4Address" target="_parent">
<polygon fill="#fffcaf" stroke="black" points="117,-19 40,-19 40,0 117,0 117,-19"/>
<text text-anchor="middle" x="78.5" y="-7" font-family="Helvetica,sans-Serif" font-size="10.00">Ipv4Address</text>
</a>
</g>
</g>
<!-- BgpUpdateWithdrawnRoutes&#45;&gt;Ipv4Address -->
<g id="edge1" class="edge">
<title>BgpUpdateWithdrawnRoutes&#45;&gt;Ipv4Address</title>
<path fill="none" stroke="black" d="M78.5,-54.75C78.5,-47.8 78.5,-37.85 78.5,-29.13"/>
<polygon fill="black" stroke="black" points="82,-29.09 78.5,-19.09 75,-29.09 82,-29.09"/>
</g>
<!-- BgpUpdateMessage -->
<g id="node3" class="node">
<title>BgpUpdateMessage</title>
<g id="a_node3"><a xlink:href="src-inet-routing-bgpv4-bgpmessage-BgpUpdateMessage.html" xlink:title="Class BgpUpdateMessage" target="_parent">
<polygon fill="#fffcaf" stroke="black" points="135.5,-129 21.5,-129 21.5,-110 135.5,-110 135.5,-129"/>
<text text-anchor="middle" x="78.5" y="-117" font-family="Helvetica,sans-Serif" font-size="10.00">BgpUpdateMessage</text>
</a>
</g>
</g>
<!-- BgpUpdateMessage&#45;&gt;BgpUpdateWithdrawnRoutes -->
<g id="edge2" class="edge">
<title>BgpUpdateMessage&#45;&gt;BgpUpdateWithdrawnRoutes</title>
<path fill="none" stroke="black" d="M78.5,-109.75C78.5,-102.8 78.5,-92.85 78.5,-84.13"/>
<polygon fill="black" stroke="black" points="82,-84.09 78.5,-74.09 75,-84.09 82,-84.09"/>
</g>
</g>
</svg>
