<?xml version="1.0" encoding="UTF-8" standalone="no"?>
<!DOCTYPE svg PUBLIC "-//W3C//DTD SVG 1.1//EN"
 "http://www.w3.org/Graphics/SVG/1.1/DTD/svg11.dtd">
<!-- Generated by graphviz version 2.43.0 (0)
 -->
<!-- Title: opp Pages: 1 -->
<svg width="134pt" height="137pt"
 viewBox="0.00 0.00 134.00 137.00" xmlns="http://www.w3.org/2000/svg" xmlns:xlink="http://www.w3.org/1999/xlink">
<g id="graph0" class="graph" transform="scale(1 1) rotate(0) translate(4 133)">
<title>opp</title>
<polygon fill="transparent" stroke="transparent" points="-4,4 -4,-133 130,-133 130,4 -4,4"/>
<!-- ChunkBuffer::Region -->
<g id="node1" class="node">
<title>ChunkBuffer::Region</title>
<g id="a_node1"><a xlink:href="src-inet-common-packet-ChunkBuffer::Region.html" xlink:title="Class ChunkBuffer::Region" target="_parent">
<polygon fill="#fff700" stroke="black" points="121.5,-74 4.5,-74 4.5,-55 121.5,-55 121.5,-74"/>
<text text-anchor="middle" x="63" y="-62" font-family="Helvetica,sans-Serif" font-size="10.00">ChunkBuffer::Region</text>
</a>
</g>
</g>
<!-- b -->
<g id="node2" class="node">
<title>b</title>
<g id="a_node2"><a xlink:href="src-inet-common-b.html" xlink:title="Class b" target="_parent">
<polygon fill="#fffcaf" stroke="black" points="54,-19 0,-19 0,0 54,0 54,-19"/>
<text text-anchor="middle" x="27" y="-7" font-family="Helvetica,sans-Serif" font-size="10.00">b</text>
</a>
</g>
</g>
<!-- ChunkBuffer::Region&#45;&gt;b -->
<g id="edge1" class="edge">
<title>ChunkBuffer::Region&#45;&gt;b</title>
<path fill="none" stroke="black" d="M57.06,-54.75C52.02,-47.34 44.66,-36.5 38.49,-27.41"/>
<polygon fill="black" stroke="black" points="41.35,-25.39 32.83,-19.09 35.56,-29.33 41.35,-25.39"/>
</g>
<!-- Chunk -->
<g id="node3" class="node">
<title>Chunk</title>
<g id="a_node3"><a xlink:href="src-inet-common-packet-chunk-Chunk.html" xlink:title="Class Chunk" target="_parent">
<polygon fill="#fffcaf" stroke="black" points="126,-19 72,-19 72,0 126,0 126,-19"/>
<text text-anchor="middle" x="99" y="-7" font-family="Helvetica,sans-Serif" font-size="10.00">Chunk</text>
</a>
</g>
</g>
<!-- ChunkBuffer::Region&#45;&gt;Chunk -->
<g id="edge2" class="edge">
<title>ChunkBuffer::Region&#45;&gt;Chunk</title>
<path fill="none" stroke="black" d="M68.94,-54.75C73.98,-47.34 81.34,-36.5 87.51,-27.41"/>
<polygon fill="black" stroke="black" points="90.44,-29.33 93.17,-19.09 84.65,-25.39 90.44,-29.33"/>
</g>
<!-- ChunkBuffer -->
<g id="node4" class="node">
<title>ChunkBuffer</title>
<g id="a_node4"><a xlink:href="src-inet-common-packet-ChunkBuffer.html" xlink:title="Class ChunkBuffer" target="_parent">
<polygon fill="#fffcaf" stroke="black" points="101.5,-129 24.5,-129 24.5,-110 101.5,-110 101.5,-129"/>
<text text-anchor="middle" x="63" y="-117" font-family="Helvetica,sans-Serif" font-size="10.00">ChunkBuffer</text>
</a>
</g>
</g>
<!-- ChunkBuffer&#45;&gt;ChunkBuffer::Region -->
<g id="edge3" class="edge">
<title>ChunkBuffer&#45;&gt;ChunkBuffer::Region</title>
<path fill="none" stroke="black" d="M63,-109.75C63,-102.8 63,-92.85 63,-84.13"/>
<polygon fill="black" stroke="black" points="66.5,-84.09 63,-74.09 59.5,-84.09 66.5,-84.09"/>
</g>
</g>
</svg>
