<?xml version="1.0" encoding="UTF-8" standalone="no"?>
<!DOCTYPE svg PUBLIC "-//W3C//DTD SVG 1.1//EN"
 "http://www.w3.org/Graphics/SVG/1.1/DTD/svg11.dtd">
<!-- Generated by graphviz version 2.43.0 (0)
 -->
<!-- Title: opp Pages: 1 -->
<svg width="274pt" height="137pt"
 viewBox="0.00 0.00 274.00 137.00" xmlns="http://www.w3.org/2000/svg" xmlns:xlink="http://www.w3.org/1999/xlink">
<g id="graph0" class="graph" transform="scale(1 1) rotate(0) translate(4 133)">
<title>opp</title>
<polygon fill="transparent" stroke="transparent" points="-4,4 -4,-133 270,-133 270,4 -4,4"/>
<!-- Ieee80211SubtypeTagBase -->
<g id="node1" class="node">
<title>Ieee80211SubtypeTagBase</title>
<g id="a_node1"><a xlink:href="src-inet-linklayer-ieee80211-mac-Ieee80211SubtypeTagBase.html" xlink:title="Class Ieee80211SubtypeTagBase" target="_parent">
<polygon fill="#fff700" stroke="black" points="206,-74 58,-74 58,-55 206,-55 206,-74"/>
<text text-anchor="middle" x="132" y="-62" font-family="Helvetica,sans-Serif" font-size="10.00">Ieee80211SubtypeTagBase</text>
</a>
</g>
</g>
<!-- Ieee80211SubtypeInd -->
<g id="node3" class="node">
<title>Ieee80211SubtypeInd</title>
<g id="a_node3"><a xlink:href="src-inet-linklayer-ieee80211-mac-Ieee80211SubtypeInd.html" xlink:title="Class Ieee80211SubtypeInd" target="_parent">
<polygon fill="#fffcaf" stroke="black" points="122,-19 0,-19 0,0 122,0 122,-19"/>
<text text-anchor="middle" x="61" y="-7" font-family="Helvetica,sans-Serif" font-size="10.00">Ieee80211SubtypeInd</text>
</a>
</g>
</g>
<!-- Ieee80211SubtypeTagBase&#45;&gt;Ieee80211SubtypeInd -->
<g id="edge2" class="edge">
<title>Ieee80211SubtypeTagBase&#45;&gt;Ieee80211SubtypeInd</title>
<path fill="none" stroke="black" d="M120.59,-54.98C107.42,-45.15 85.87,-29.07 72.61,-19.17"/>
</g>
<!-- Ieee80211SubtypeReq -->
<g id="node4" class="node">
<title>Ieee80211SubtypeReq</title>
<g id="a_node4"><a xlink:href="src-inet-linklayer-ieee80211-mac-Ieee80211SubtypeReq.html" xlink:title="Class Ieee80211SubtypeReq" target="_parent">
<polygon fill="#fffcaf" stroke="black" points="266,-19 140,-19 140,0 266,0 266,-19"/>
<text text-anchor="middle" x="203" y="-7" font-family="Helvetica,sans-Serif" font-size="10.00">Ieee80211SubtypeReq</text>
</a>
</g>
</g>
<!-- Ieee80211SubtypeTagBase&#45;&gt;Ieee80211SubtypeReq -->
<g id="edge3" class="edge">
<title>Ieee80211SubtypeTagBase&#45;&gt;Ieee80211SubtypeReq</title>
<path fill="none" stroke="black" d="M143.41,-54.98C156.58,-45.15 178.13,-29.07 191.39,-19.17"/>
</g>
<!-- TagBase -->
<g id="node2" class="node">
<title>TagBase</title>
<g id="a_node2"><a xlink:href="src-inet-common-TagBase.html" xlink:title="Class TagBase" target="_parent">
<polygon fill="#fffcaf" stroke="black" points="160.5,-129 103.5,-129 103.5,-110 160.5,-110 160.5,-129"/>
<text text-anchor="middle" x="132" y="-117" font-family="Helvetica,sans-Serif" font-size="10.00">TagBase</text>
</a>
</g>
</g>
<!-- TagBase&#45;&gt;Ieee80211SubtypeTagBase -->
<g id="edge1" class="edge">
<title>TagBase&#45;&gt;Ieee80211SubtypeTagBase</title>
<path fill="none" stroke="black" d="M132,-109.75C132,-99.87 132,-83.9 132,-74.09"/>
</g>
</g>
</svg>
