<?xml version="1.0" encoding="UTF-8" standalone="no"?>
<!DOCTYPE svg PUBLIC "-//W3C//DTD SVG 1.1//EN"
 "http://www.w3.org/Graphics/SVG/1.1/DTD/svg11.dtd">
<!-- Generated by graphviz version 2.43.0 (0)
 -->
<!-- Title: opp Pages: 1 -->
<svg width="268pt" height="82pt"
 viewBox="0.00 0.00 267.50 82.00" xmlns="http://www.w3.org/2000/svg" xmlns:xlink="http://www.w3.org/1999/xlink">
<g id="graph0" class="graph" transform="scale(1 1) rotate(0) translate(4 78)">
<title>opp</title>
<polygon fill="transparent" stroke="transparent" points="-4,4 -4,-78 263.5,-78 263.5,4 -4,4"/>
<!-- ArpPacket -->
<g id="node1" class="node">
<title>ArpPacket</title>
<g id="a_node1"><a xlink:href="src-inet-networklayer-arp-ipv4-ArpPacket.html" xlink:title="Class ArpPacket" target="_parent">
<polygon fill="#fff700" stroke="black" points="161.5,-74 96.5,-74 96.5,-55 161.5,-55 161.5,-74"/>
<text text-anchor="middle" x="129" y="-62" font-family="Helvetica,sans-Serif" font-size="10.00">ArpPacket</text>
</a>
</g>
</g>
<!-- MacAddress -->
<g id="node2" class="node">
<title>MacAddress</title>
<g id="a_node2"><a xlink:href="src-inet-linklayer-common-MacAddress.html" xlink:title="Class MacAddress" target="_parent">
<polygon fill="#fffcaf" stroke="black" points="76,-19 0,-19 0,0 76,0 76,-19"/>
<text text-anchor="middle" x="38" y="-7" font-family="Helvetica,sans-Serif" font-size="10.00">MacAddress</text>
</a>
</g>
</g>
<!-- ArpPacket&#45;&gt;MacAddress -->
<g id="edge1" class="edge">
<title>ArpPacket&#45;&gt;MacAddress</title>
<path fill="none" stroke="black" d="M114.38,-54.98C100.14,-46.69 78.25,-33.94 61.55,-24.22"/>
<polygon fill="black" stroke="black" points="63.29,-21.18 52.89,-19.17 59.77,-27.23 63.29,-21.18"/>
</g>
<!-- ArpOpcode -->
<g id="node3" class="node">
<title>ArpOpcode</title>
<g id="a_node3"><a xlink:href="src-inet-networklayer-arp-ipv4-ArpOpcode.html" xlink:title="Enum ArpOpcode" target="_parent">
<polygon fill="#d0ffd0" stroke="black" points="164,-19 94,-19 94,0 164,0 164,-19"/>
<text text-anchor="middle" x="129" y="-7" font-family="Helvetica,sans-Serif" font-size="10.00">ArpOpcode</text>
</a>
</g>
</g>
<!-- ArpPacket&#45;&gt;ArpOpcode -->
<g id="edge2" class="edge">
<title>ArpPacket&#45;&gt;ArpOpcode</title>
<path fill="none" stroke="black" d="M129,-54.75C129,-47.8 129,-37.85 129,-29.13"/>
<polygon fill="black" stroke="black" points="132.5,-29.09 129,-19.09 125.5,-29.09 132.5,-29.09"/>
</g>
<!-- Ipv4Address -->
<g id="node4" class="node">
<title>Ipv4Address</title>
<g id="a_node4"><a xlink:href="src-inet-networklayer-contract-ipv4-Ipv4Address.html" xlink:title="Class Ipv4Address" target="_parent">
<polygon fill="#fffcaf" stroke="black" points="259.5,-19 182.5,-19 182.5,0 259.5,0 259.5,-19"/>
<text text-anchor="middle" x="221" y="-7" font-family="Helvetica,sans-Serif" font-size="10.00">Ipv4Address</text>
</a>
</g>
</g>
<!-- ArpPacket&#45;&gt;Ipv4Address -->
<g id="edge3" class="edge">
<title>ArpPacket&#45;&gt;Ipv4Address</title>
<path fill="none" stroke="black" d="M143.78,-54.98C158.18,-46.69 180.31,-33.94 197.19,-24.22"/>
<polygon fill="black" stroke="black" points="199.03,-27.19 205.95,-19.17 195.54,-21.13 199.03,-27.19"/>
</g>
</g>
</svg>
