<?xml version="1.0" encoding="UTF-8" standalone="no"?>
<!DOCTYPE svg PUBLIC "-//W3C//DTD SVG 1.1//EN"
 "http://www.w3.org/Graphics/SVG/1.1/DTD/svg11.dtd">
<!-- Generated by graphviz version 2.43.0 (0)
 -->
<!-- Title: opp Pages: 1 -->
<svg width="174pt" height="82pt"
 viewBox="0.00 0.00 173.50 82.00" xmlns="http://www.w3.org/2000/svg" xmlns:xlink="http://www.w3.org/1999/xlink">
<g id="graph0" class="graph" transform="scale(1 1) rotate(0) translate(4 78)">
<title>opp</title>
<polygon fill="transparent" stroke="transparent" points="-4,4 -4,-78 169.5,-78 169.5,4 -4,4"/>
<!-- XMacHeaderBase -->
<g id="node1" class="node">
<title>XMacHeaderBase</title>
<g id="a_node1"><a xlink:href="src-inet-linklayer-xmac-XMacHeaderBase.html" xlink:title="Class XMacHeaderBase" target="_parent">
<polygon fill="#fff700" stroke="black" points="135.5,-74 32.5,-74 32.5,-55 135.5,-55 135.5,-74"/>
<text text-anchor="middle" x="84" y="-62" font-family="Helvetica,sans-Serif" font-size="10.00">XMacHeaderBase</text>
</a>
</g>
</g>
<!-- MacAddress -->
<g id="node2" class="node">
<title>MacAddress</title>
<g id="a_node2"><a xlink:href="src-inet-linklayer-common-MacAddress.html" xlink:title="Class MacAddress" target="_parent">
<polygon fill="#fffcaf" stroke="black" points="76,-19 0,-19 0,0 76,0 76,-19"/>
<text text-anchor="middle" x="38" y="-7" font-family="Helvetica,sans-Serif" font-size="10.00">MacAddress</text>
</a>
</g>
</g>
<!-- XMacHeaderBase&#45;&gt;MacAddress -->
<g id="edge1" class="edge">
<title>XMacHeaderBase&#45;&gt;MacAddress</title>
<path fill="none" stroke="black" d="M76.4,-54.75C69.84,-47.18 60.18,-36.05 52.19,-26.84"/>
<polygon fill="black" stroke="black" points="54.65,-24.35 45.45,-19.09 49.37,-28.94 54.65,-24.35"/>
</g>
<!-- XMacTypes -->
<g id="node3" class="node">
<title>XMacTypes</title>
<g id="a_node3"><a xlink:href="src-inet-linklayer-xmac-XMacTypes.html" xlink:title="Enum XMacTypes" target="_parent">
<polygon fill="#d0ffd0" stroke="black" points="165.5,-19 94.5,-19 94.5,0 165.5,0 165.5,-19"/>
<text text-anchor="middle" x="130" y="-7" font-family="Helvetica,sans-Serif" font-size="10.00">XMacTypes</text>
</a>
</g>
</g>
<!-- XMacHeaderBase&#45;&gt;XMacTypes -->
<g id="edge2" class="edge">
<title>XMacHeaderBase&#45;&gt;XMacTypes</title>
<path fill="none" stroke="black" d="M91.6,-54.75C98.16,-47.18 107.82,-36.05 115.81,-26.84"/>
<polygon fill="black" stroke="black" points="118.63,-28.94 122.55,-19.09 113.35,-24.35 118.63,-28.94"/>
</g>
</g>
</svg>
