<?xml version="1.0" encoding="UTF-8" standalone="no"?>
<!DOCTYPE svg PUBLIC "-//W3C//DTD SVG 1.1//EN"
 "http://www.w3.org/Graphics/SVG/1.1/DTD/svg11.dtd">
<!-- Generated by graphviz version 2.43.0 (0)
 -->
<!-- Title: opp Pages: 1 -->
<svg width="142pt" height="137pt"
 viewBox="0.00 0.00 141.50 137.00" xmlns="http://www.w3.org/2000/svg" xmlns:xlink="http://www.w3.org/1999/xlink">
<g id="graph0" class="graph" transform="scale(1 1) rotate(0) translate(4 133)">
<title>opp</title>
<polygon fill="transparent" stroke="transparent" points="-4,4 -4,-133 137.5,-133 137.5,4 -4,4"/>
<!-- DscpTagBase -->
<g id="node1" class="node">
<title>DscpTagBase</title>
<g id="a_node1"><a xlink:href="src-inet-networklayer-common-DscpTagBase.html" xlink:title="Class DscpTagBase" target="_parent">
<polygon fill="#fff700" stroke="black" points="106.5,-74 25.5,-74 25.5,-55 106.5,-55 106.5,-74"/>
<text text-anchor="middle" x="66" y="-62" font-family="Helvetica,sans-Serif" font-size="10.00">DscpTagBase</text>
</a>
</g>
</g>
<!-- DscpInd -->
<g id="node3" class="node">
<title>DscpInd</title>
<g id="a_node3"><a xlink:href="src-inet-networklayer-common-DscpInd.html" xlink:title="Class DscpInd" target="_parent">
<polygon fill="#fffcaf" stroke="black" points="56,-19 0,-19 0,0 56,0 56,-19"/>
<text text-anchor="middle" x="28" y="-7" font-family="Helvetica,sans-Serif" font-size="10.00">DscpInd</text>
</a>
</g>
</g>
<!-- DscpTagBase&#45;&gt;DscpInd -->
<g id="edge2" class="edge">
<title>DscpTagBase&#45;&gt;DscpInd</title>
<path fill="none" stroke="black" d="M59.73,-54.75C52.64,-44.87 41.19,-28.9 34.16,-19.09"/>
</g>
<!-- DscpReq -->
<g id="node4" class="node">
<title>DscpReq</title>
<g id="a_node4"><a xlink:href="src-inet-networklayer-common-DscpReq.html" xlink:title="Class DscpReq" target="_parent">
<polygon fill="#fffcaf" stroke="black" points="133.5,-19 74.5,-19 74.5,0 133.5,0 133.5,-19"/>
<text text-anchor="middle" x="104" y="-7" font-family="Helvetica,sans-Serif" font-size="10.00">DscpReq</text>
</a>
</g>
</g>
<!-- DscpTagBase&#45;&gt;DscpReq -->
<g id="edge3" class="edge">
<title>DscpTagBase&#45;&gt;DscpReq</title>
<path fill="none" stroke="black" d="M72.27,-54.75C79.36,-44.87 90.81,-28.9 97.84,-19.09"/>
</g>
<!-- TagBase -->
<g id="node2" class="node">
<title>TagBase</title>
<g id="a_node2"><a xlink:href="src-inet-common-TagBase.html" xlink:title="Class TagBase" target="_parent">
<polygon fill="#fffcaf" stroke="black" points="94.5,-129 37.5,-129 37.5,-110 94.5,-110 94.5,-129"/>
<text text-anchor="middle" x="66" y="-117" font-family="Helvetica,sans-Serif" font-size="10.00">TagBase</text>
</a>
</g>
</g>
<!-- TagBase&#45;&gt;DscpTagBase -->
<g id="edge1" class="edge">
<title>TagBase&#45;&gt;DscpTagBase</title>
<path fill="none" stroke="black" d="M66,-109.75C66,-99.87 66,-83.9 66,-74.09"/>
</g>
</g>
</svg>
