<?xml version="1.0" encoding="UTF-8" standalone="no"?>
<!DOCTYPE svg PUBLIC "-//W3C//DTD SVG 1.1//EN"
 "http://www.w3.org/Graphics/SVG/1.1/DTD/svg11.dtd">
<!-- Generated by graphviz version 2.43.0 (0)
 -->
<!-- Title: opp Pages: 1 -->
<svg width="202pt" height="137pt"
 viewBox="0.00 0.00 202.00 137.00" xmlns="http://www.w3.org/2000/svg" xmlns:xlink="http://www.w3.org/1999/xlink">
<g id="graph0" class="graph" transform="scale(1 1) rotate(0) translate(4 133)">
<title>opp</title>
<polygon fill="transparent" stroke="transparent" points="-4,4 -4,-133 198,-133 198,4 -4,4"/>
<!-- Ieee80211Prim_AssociateConfirm -->
<g id="node1" class="node">
<title>Ieee80211Prim_AssociateConfirm</title>
<g id="a_node1"><a xlink:href="src-inet-linklayer-ieee80211-mgmt-Ieee80211Prim_AssociateConfirm.html" xlink:title="Class Ieee80211Prim_AssociateConfirm" target="_parent">
<polygon fill="#fff700" stroke="black" points="188,-74 6,-74 6,-55 188,-55 188,-74"/>
<text text-anchor="middle" x="97" y="-62" font-family="Helvetica,sans-Serif" font-size="10.00">Ieee80211Prim_AssociateConfirm</text>
</a>
</g>
</g>
<!-- Ieee80211Prim_ReassociateConfirm -->
<g id="node3" class="node">
<title>Ieee80211Prim_ReassociateConfirm</title>
<g id="a_node3"><a xlink:href="src-inet-linklayer-ieee80211-mgmt-Ieee80211Prim_ReassociateConfirm.html" xlink:title="Class Ieee80211Prim_ReassociateConfirm" target="_parent">
<polygon fill="#fffcaf" stroke="black" points="194,-19 0,-19 0,0 194,0 194,-19"/>
<text text-anchor="middle" x="97" y="-7" font-family="Helvetica,sans-Serif" font-size="10.00">Ieee80211Prim_ReassociateConfirm</text>
</a>
</g>
</g>
<!-- Ieee80211Prim_AssociateConfirm&#45;&gt;Ieee80211Prim_ReassociateConfirm -->
<g id="edge2" class="edge">
<title>Ieee80211Prim_AssociateConfirm&#45;&gt;Ieee80211Prim_ReassociateConfirm</title>
<path fill="none" stroke="black" d="M97,-54.75C97,-44.87 97,-28.9 97,-19.09"/>
</g>
<!-- Ieee80211PrimConfirm -->
<g id="node2" class="node">
<title>Ieee80211PrimConfirm</title>
<g id="a_node2"><a xlink:href="src-inet-linklayer-ieee80211-mgmt-Ieee80211PrimConfirm.html" xlink:title="Class Ieee80211PrimConfirm" target="_parent">
<polygon fill="#fffcaf" stroke="black" points="161.5,-129 32.5,-129 32.5,-110 161.5,-110 161.5,-129"/>
<text text-anchor="middle" x="97" y="-117" font-family="Helvetica,sans-Serif" font-size="10.00">Ieee80211PrimConfirm</text>
</a>
</g>
</g>
<!-- Ieee80211PrimConfirm&#45;&gt;Ieee80211Prim_AssociateConfirm -->
<g id="edge1" class="edge">
<title>Ieee80211PrimConfirm&#45;&gt;Ieee80211Prim_AssociateConfirm</title>
<path fill="none" stroke="black" d="M97,-109.75C97,-99.87 97,-83.9 97,-74.09"/>
</g>
</g>
</svg>
