<?xml version="1.0" encoding="UTF-8" standalone="no"?>
<!DOCTYPE svg PUBLIC "-//W3C//DTD SVG 1.1//EN"
 "http://www.w3.org/Graphics/SVG/1.1/DTD/svg11.dtd">
<!-- Generated by graphviz version 2.43.0 (0)
 -->
<!-- Title: opp Pages: 1 -->
<svg width="753pt" height="137pt"
 viewBox="0.00 0.00 753.00 137.00" xmlns="http://www.w3.org/2000/svg" xmlns:xlink="http://www.w3.org/1999/xlink">
<g id="graph0" class="graph" transform="scale(1 1) rotate(0) translate(4 133)">
<title>opp</title>
<polygon fill="transparent" stroke="transparent" points="-4,4 -4,-133 749,-133 749,4 -4,4"/>
<!-- NetworkHeaderBase -->
<g id="node1" class="node">
<title>NetworkHeaderBase</title>
<g id="a_node1"><a xlink:href="src-inet-networklayer-contract-NetworkHeaderBase.html" xlink:title="Class NetworkHeaderBase" target="_parent">
<polygon fill="#fff700" stroke="black" points="362.5,-74 245.5,-74 245.5,-55 362.5,-55 362.5,-74"/>
<text text-anchor="middle" x="304" y="-62" font-family="Helvetica,sans-Serif" font-size="10.00">NetworkHeaderBase</text>
</a>
</g>
</g>
<!-- FloodingHeader -->
<g id="node3" class="node">
<title>FloodingHeader</title>
<g id="a_node3"><a xlink:href="src-inet-networklayer-flooding-FloodingHeader.html" xlink:title="Class FloodingHeader" target="_parent">
<polygon fill="#fffcaf" stroke="black" points="94,-19 0,-19 0,0 94,0 94,-19"/>
<text text-anchor="middle" x="47" y="-7" font-family="Helvetica,sans-Serif" font-size="10.00">FloodingHeader</text>
</a>
</g>
</g>
<!-- NetworkHeaderBase&#45;&gt;FloodingHeader -->
<g id="edge2" class="edge">
<title>NetworkHeaderBase&#45;&gt;FloodingHeader</title>
<path fill="none" stroke="black" d="M262.71,-54.98C214.89,-45.12 136.57,-28.97 88.62,-19.08"/>
</g>
<!-- Ipv4Header -->
<g id="node4" class="node">
<title>Ipv4Header</title>
<g id="a_node4"><a xlink:href="src-inet-networklayer-ipv4-Ipv4Header.html" xlink:title="Class Ipv4Header" target="_parent">
<polygon fill="#fffcaf" stroke="black" points="185.5,-19 112.5,-19 112.5,0 185.5,0 185.5,-19"/>
<text text-anchor="middle" x="149" y="-7" font-family="Helvetica,sans-Serif" font-size="10.00">Ipv4Header</text>
</a>
</g>
</g>
<!-- NetworkHeaderBase&#45;&gt;Ipv4Header -->
<g id="edge3" class="edge">
<title>NetworkHeaderBase&#45;&gt;Ipv4Header</title>
<path fill="none" stroke="black" d="M279.1,-54.98C250.26,-45.12 203.02,-28.97 174.1,-19.08"/>
</g>
<!-- Ipv6Header -->
<g id="node5" class="node">
<title>Ipv6Header</title>
<g id="a_node5"><a xlink:href="src-inet-networklayer-ipv6-Ipv6Header.html" xlink:title="Class Ipv6Header" target="_parent">
<polygon fill="#fffcaf" stroke="black" points="276.5,-19 203.5,-19 203.5,0 276.5,0 276.5,-19"/>
<text text-anchor="middle" x="240" y="-7" font-family="Helvetica,sans-Serif" font-size="10.00">Ipv6Header</text>
</a>
</g>
</g>
<!-- NetworkHeaderBase&#45;&gt;Ipv6Header -->
<g id="edge4" class="edge">
<title>NetworkHeaderBase&#45;&gt;Ipv6Header</title>
<path fill="none" stroke="black" d="M293.72,-54.98C281.84,-45.15 262.42,-29.07 250.47,-19.17"/>
</g>
<!-- NextHopForwardingHeader -->
<g id="node6" class="node">
<title>NextHopForwardingHeader</title>
<g id="a_node6"><a xlink:href="src-inet-networklayer-nexthop-NextHopForwardingHeader.html" xlink:title="Class NextHopForwardingHeader" target="_parent">
<polygon fill="#fffcaf" stroke="black" points="443.5,-19 294.5,-19 294.5,0 443.5,0 443.5,-19"/>
<text text-anchor="middle" x="369" y="-7" font-family="Helvetica,sans-Serif" font-size="10.00">NextHopForwardingHeader</text>
</a>
</g>
</g>
<!-- NetworkHeaderBase&#45;&gt;NextHopForwardingHeader -->
<g id="edge5" class="edge">
<title>NetworkHeaderBase&#45;&gt;NextHopForwardingHeader</title>
<path fill="none" stroke="black" d="M314.44,-54.98C326.5,-45.15 346.23,-29.07 358.37,-19.17"/>
</g>
<!-- ProbabilisticBroadcastHeader -->
<g id="node7" class="node">
<title>ProbabilisticBroadcastHeader</title>
<g id="a_node7"><a xlink:href="src-inet-networklayer-probabilistic-ProbabilisticBroadcastHeader.html" xlink:title="Class ProbabilisticBroadcastHeader" target="_parent">
<polygon fill="#fffcaf" stroke="black" points="622.5,-19 461.5,-19 461.5,0 622.5,0 622.5,-19"/>
<text text-anchor="middle" x="542" y="-7" font-family="Helvetica,sans-Serif" font-size="10.00">ProbabilisticBroadcastHeader</text>
</a>
</g>
</g>
<!-- NetworkHeaderBase&#45;&gt;ProbabilisticBroadcastHeader -->
<g id="edge6" class="edge">
<title>NetworkHeaderBase&#45;&gt;ProbabilisticBroadcastHeader</title>
<path fill="none" stroke="black" d="M342.24,-54.98C386.52,-45.12 459.05,-28.97 503.46,-19.08"/>
</g>
<!-- WiseRouteHeader -->
<g id="node8" class="node">
<title>WiseRouteHeader</title>
<g id="a_node8"><a xlink:href="src-inet-networklayer-wiseroute-WiseRouteHeader.html" xlink:title="Class WiseRouteHeader" target="_parent">
<polygon fill="#fffcaf" stroke="black" points="745,-19 641,-19 641,0 745,0 745,-19"/>
<text text-anchor="middle" x="693" y="-7" font-family="Helvetica,sans-Serif" font-size="10.00">WiseRouteHeader</text>
</a>
</g>
</g>
<!-- NetworkHeaderBase&#45;&gt;WiseRouteHeader -->
<g id="edge7" class="edge">
<title>NetworkHeaderBase&#45;&gt;WiseRouteHeader</title>
<path fill="none" stroke="black" d="M362.67,-55.61C428.3,-46.76 537.78,-31.96 632,-19 634.86,-18.61 637.8,-18.2 640.76,-17.79"/>
</g>
<!-- FieldsChunk -->
<g id="node2" class="node">
<title>FieldsChunk</title>
<g id="a_node2"><a xlink:href="src-inet-common-packet-chunk-FieldsChunk.html" xlink:title="Class FieldsChunk" target="_parent">
<polygon fill="#fffcaf" stroke="black" points="341.5,-129 266.5,-129 266.5,-110 341.5,-110 341.5,-129"/>
<text text-anchor="middle" x="304" y="-117" font-family="Helvetica,sans-Serif" font-size="10.00">FieldsChunk</text>
</a>
</g>
</g>
<!-- FieldsChunk&#45;&gt;NetworkHeaderBase -->
<g id="edge1" class="edge">
<title>FieldsChunk&#45;&gt;NetworkHeaderBase</title>
<path fill="none" stroke="black" d="M304,-109.75C304,-99.87 304,-83.9 304,-74.09"/>
</g>
</g>
</svg>
