<?xml version="1.0" encoding="UTF-8" standalone="no"?>
<!DOCTYPE svg PUBLIC "-//W3C//DTD SVG 1.1//EN"
 "http://www.w3.org/Graphics/SVG/1.1/DTD/svg11.dtd">
<!-- Generated by graphviz version 2.43.0 (0)
 -->
<!-- Title: opp Pages: 1 -->
<svg width="1056pt" height="137pt"
 viewBox="0.00 0.00 1056.00 137.00" xmlns="http://www.w3.org/2000/svg" xmlns:xlink="http://www.w3.org/1999/xlink">
<g id="graph0" class="graph" transform="scale(1 1) rotate(0) translate(4 133)">
<title>opp</title>
<polygon fill="transparent" stroke="transparent" points="-4,4 -4,-133 1052,-133 1052,4 -4,4"/>
<!-- Icmpv6Header -->
<g id="node1" class="node">
<title>Icmpv6Header</title>
<g id="a_node1"><a xlink:href="src-inet-networklayer-icmpv6-Icmpv6Header.html" xlink:title="Class Icmpv6Header" target="_parent">
<polygon fill="#fff700" stroke="black" points="584.5,-74 496.5,-74 496.5,-55 584.5,-55 584.5,-74"/>
<text text-anchor="middle" x="540.5" y="-62" font-family="Helvetica,sans-Serif" font-size="10.00">Icmpv6Header</text>
</a>
</g>
</g>
<!-- Icmpv6DestUnreachableMsg -->
<g id="node3" class="node">
<title>Icmpv6DestUnreachableMsg</title>
<g id="a_node3"><a xlink:href="src-inet-networklayer-icmpv6-Icmpv6DestUnreachableMsg.html" xlink:title="Class Icmpv6DestUnreachableMsg" target="_parent">
<polygon fill="#fffcaf" stroke="black" points="157,-19 0,-19 0,0 157,0 157,-19"/>
<text text-anchor="middle" x="78.5" y="-7" font-family="Helvetica,sans-Serif" font-size="10.00">Icmpv6DestUnreachableMsg</text>
</a>
</g>
</g>
<!-- Icmpv6Header&#45;&gt;Icmpv6DestUnreachableMsg -->
<g id="edge2" class="edge">
<title>Icmpv6Header&#45;&gt;Icmpv6DestUnreachableMsg</title>
<path fill="none" stroke="black" d="M496.2,-58.42C416.93,-49.32 250.04,-30.18 152.92,-19.04"/>
</g>
<!-- Icmpv6EchoReplyMsg -->
<g id="node4" class="node">
<title>Icmpv6EchoReplyMsg</title>
<g id="a_node4"><a xlink:href="src-inet-networklayer-icmpv6-Icmpv6EchoReplyMsg.html" xlink:title="Class Icmpv6EchoReplyMsg" target="_parent">
<polygon fill="#fffcaf" stroke="black" points="299.5,-19 175.5,-19 175.5,0 299.5,0 299.5,-19"/>
<text text-anchor="middle" x="237.5" y="-7" font-family="Helvetica,sans-Serif" font-size="10.00">Icmpv6EchoReplyMsg</text>
</a>
</g>
</g>
<!-- Icmpv6Header&#45;&gt;Icmpv6EchoReplyMsg -->
<g id="edge3" class="edge">
<title>Icmpv6Header&#45;&gt;Icmpv6EchoReplyMsg</title>
<path fill="none" stroke="black" d="M496.44,-55.79C440.47,-46 344.2,-29.16 286.13,-19.01"/>
</g>
<!-- Icmpv6EchoRequestMsg -->
<g id="node5" class="node">
<title>Icmpv6EchoRequestMsg</title>
<g id="a_node5"><a xlink:href="src-inet-networklayer-icmpv6-Icmpv6EchoRequestMsg.html" xlink:title="Class Icmpv6EchoRequestMsg" target="_parent">
<polygon fill="#fffcaf" stroke="black" points="453.5,-19 317.5,-19 317.5,0 453.5,0 453.5,-19"/>
<text text-anchor="middle" x="385.5" y="-7" font-family="Helvetica,sans-Serif" font-size="10.00">Icmpv6EchoRequestMsg</text>
</a>
</g>
</g>
<!-- Icmpv6Header&#45;&gt;Icmpv6EchoRequestMsg -->
<g id="edge4" class="edge">
<title>Icmpv6Header&#45;&gt;Icmpv6EchoRequestMsg</title>
<path fill="none" stroke="black" d="M515.6,-54.98C486.76,-45.12 439.52,-28.97 410.6,-19.08"/>
</g>
<!-- Icmpv6PacketTooBigMsg -->
<g id="node6" class="node">
<title>Icmpv6PacketTooBigMsg</title>
<g id="a_node6"><a xlink:href="src-inet-networklayer-icmpv6-Icmpv6PacketTooBigMsg.html" xlink:title="Class Icmpv6PacketTooBigMsg" target="_parent">
<polygon fill="#fffcaf" stroke="black" points="609,-19 472,-19 472,0 609,0 609,-19"/>
<text text-anchor="middle" x="540.5" y="-7" font-family="Helvetica,sans-Serif" font-size="10.00">Icmpv6PacketTooBigMsg</text>
</a>
</g>
</g>
<!-- Icmpv6Header&#45;&gt;Icmpv6PacketTooBigMsg -->
<g id="edge5" class="edge">
<title>Icmpv6Header&#45;&gt;Icmpv6PacketTooBigMsg</title>
<path fill="none" stroke="black" d="M540.5,-54.75C540.5,-44.87 540.5,-28.9 540.5,-19.09"/>
</g>
<!-- Icmpv6ParamProblemMsg -->
<g id="node7" class="node">
<title>Icmpv6ParamProblemMsg</title>
<g id="a_node7"><a xlink:href="src-inet-networklayer-icmpv6-Icmpv6ParamProblemMsg.html" xlink:title="Class Icmpv6ParamProblemMsg" target="_parent">
<polygon fill="#fffcaf" stroke="black" points="772,-19 627,-19 627,0 772,0 772,-19"/>
<text text-anchor="middle" x="699.5" y="-7" font-family="Helvetica,sans-Serif" font-size="10.00">Icmpv6ParamProblemMsg</text>
</a>
</g>
</g>
<!-- Icmpv6Header&#45;&gt;Icmpv6ParamProblemMsg -->
<g id="edge6" class="edge">
<title>Icmpv6Header&#45;&gt;Icmpv6ParamProblemMsg</title>
<path fill="none" stroke="black" d="M566.05,-54.98C595.63,-45.12 644.09,-28.97 673.75,-19.08"/>
</g>
<!-- Icmpv6TimeExceededMsg -->
<g id="node8" class="node">
<title>Icmpv6TimeExceededMsg</title>
<g id="a_node8"><a xlink:href="src-inet-networklayer-icmpv6-Icmpv6TimeExceededMsg.html" xlink:title="Class Icmpv6TimeExceededMsg" target="_parent">
<polygon fill="#fffcaf" stroke="black" points="934.5,-19 790.5,-19 790.5,0 934.5,0 934.5,-19"/>
<text text-anchor="middle" x="862.5" y="-7" font-family="Helvetica,sans-Serif" font-size="10.00">Icmpv6TimeExceededMsg</text>
</a>
</g>
</g>
<!-- Icmpv6Header&#45;&gt;Icmpv6TimeExceededMsg -->
<g id="edge7" class="edge">
<title>Icmpv6Header&#45;&gt;Icmpv6TimeExceededMsg</title>
<path fill="none" stroke="black" d="M584.6,-56.24C643.59,-46.53 748.02,-29.34 810.69,-19.03"/>
</g>
<!-- Ipv6NdMessage -->
<g id="node9" class="node">
<title>Ipv6NdMessage</title>
<g id="a_node9"><a xlink:href="src-inet-networklayer-icmpv6-Ipv6NdMessage.html" xlink:title="Class Ipv6NdMessage" target="_parent">
<polygon fill="#fffcaf" stroke="black" points="1048,-19 953,-19 953,0 1048,0 1048,-19"/>
<text text-anchor="middle" x="1000.5" y="-7" font-family="Helvetica,sans-Serif" font-size="10.00">Ipv6NdMessage</text>
</a>
</g>
</g>
<!-- Icmpv6Header&#45;&gt;Ipv6NdMessage -->
<g id="edge8" class="edge">
<title>Icmpv6Header&#45;&gt;Ipv6NdMessage</title>
<path fill="none" stroke="black" d="M584.69,-59.18C658.93,-51.79 813.31,-35.89 943.5,-19 946.58,-18.6 949.74,-18.17 952.93,-17.73"/>
</g>
<!-- FieldsChunk -->
<g id="node2" class="node">
<title>FieldsChunk</title>
<g id="a_node2"><a xlink:href="src-inet-common-packet-chunk-FieldsChunk.html" xlink:title="Class FieldsChunk" target="_parent">
<polygon fill="#fffcaf" stroke="black" points="578,-129 503,-129 503,-110 578,-110 578,-129"/>
<text text-anchor="middle" x="540.5" y="-117" font-family="Helvetica,sans-Serif" font-size="10.00">FieldsChunk</text>
</a>
</g>
</g>
<!-- FieldsChunk&#45;&gt;Icmpv6Header -->
<g id="edge1" class="edge">
<title>FieldsChunk&#45;&gt;Icmpv6Header</title>
<path fill="none" stroke="black" d="M540.5,-109.75C540.5,-99.87 540.5,-83.9 540.5,-74.09"/>
</g>
</g>
</svg>
