<?xml version="1.0" encoding="UTF-8" standalone="no"?>
<!DOCTYPE svg PUBLIC "-//W3C//DTD SVG 1.1//EN"
 "http://www.w3.org/Graphics/SVG/1.1/DTD/svg11.dtd">
<!-- Generated by graphviz version 2.43.0 (0)
 -->
<!-- Title: opp Pages: 1 -->
<svg width="230pt" height="137pt"
 viewBox="0.00 0.00 230.00 137.00" xmlns="http://www.w3.org/2000/svg" xmlns:xlink="http://www.w3.org/1999/xlink">
<g id="graph0" class="graph" transform="scale(1 1) rotate(0) translate(4 133)">
<title>opp</title>
<polygon fill="transparent" stroke="transparent" points="-4,4 -4,-133 226,-133 226,4 -4,4"/>
<!-- Ospfv3IntraAreaPrefixLsa -->
<g id="node1" class="node">
<title>Ospfv3IntraAreaPrefixLsa</title>
<g id="a_node1"><a xlink:href="src-inet-routing-ospfv3-Ospfv3IntraAreaPrefixLsa.html" xlink:title="Class Ospfv3IntraAreaPrefixLsa" target="_parent">
<polygon fill="#fff700" stroke="black" points="194,-74 53,-74 53,-55 194,-55 194,-74"/>
<text text-anchor="middle" x="123.5" y="-62" font-family="Helvetica,sans-Serif" font-size="10.00">Ospfv3IntraAreaPrefixLsa</text>
</a>
</g>
</g>
<!-- Ospfv3LsaPrefixMetric -->
<g id="node2" class="node">
<title>Ospfv3LsaPrefixMetric</title>
<g id="a_node2"><a xlink:href="src-inet-routing-ospfv3-Ospfv3LsaPrefixMetric.html" xlink:title="Struct Ospfv3LsaPrefixMetric" target="_parent">
<polygon fill="#d0d0ff" stroke="black" points="127,-19 0,-19 0,0 127,0 127,-19"/>
<text text-anchor="middle" x="63.5" y="-7" font-family="Helvetica,sans-Serif" font-size="10.00">Ospfv3LsaPrefixMetric</text>
</a>
</g>
</g>
<!-- Ospfv3IntraAreaPrefixLsa&#45;&gt;Ospfv3LsaPrefixMetric -->
<g id="edge1" class="edge">
<title>Ospfv3IntraAreaPrefixLsa&#45;&gt;Ospfv3LsaPrefixMetric</title>
<path fill="none" stroke="black" d="M113.86,-54.98C104.99,-47.15 91.63,-35.34 80.89,-25.86"/>
<polygon fill="black" stroke="black" points="83.13,-23.17 73.32,-19.17 78.49,-28.41 83.13,-23.17"/>
</g>
<!-- Ipv4Address -->
<g id="node3" class="node">
<title>Ipv4Address</title>
<g id="a_node3"><a xlink:href="src-inet-networklayer-contract-ipv4-Ipv4Address.html" xlink:title="Class Ipv4Address" target="_parent">
<polygon fill="#fffcaf" stroke="black" points="222,-19 145,-19 145,0 222,0 222,-19"/>
<text text-anchor="middle" x="183.5" y="-7" font-family="Helvetica,sans-Serif" font-size="10.00">Ipv4Address</text>
</a>
</g>
</g>
<!-- Ospfv3IntraAreaPrefixLsa&#45;&gt;Ipv4Address -->
<g id="edge2" class="edge">
<title>Ospfv3IntraAreaPrefixLsa&#45;&gt;Ipv4Address</title>
<path fill="none" stroke="black" d="M133.14,-54.98C142.01,-47.15 155.37,-35.34 166.11,-25.86"/>
<polygon fill="black" stroke="black" points="168.51,-28.41 173.68,-19.17 163.87,-23.17 168.51,-28.41"/>
</g>
<!-- Ospfv3LinkStateUpdatePacket -->
<g id="node4" class="node">
<title>Ospfv3LinkStateUpdatePacket</title>
<g id="a_node4"><a xlink:href="src-inet-routing-ospfv3-Ospfv3LinkStateUpdatePacket.html" xlink:title="Class Ospfv3LinkStateUpdatePacket" target="_parent">
<polygon fill="#fffcaf" stroke="black" points="205.5,-129 41.5,-129 41.5,-110 205.5,-110 205.5,-129"/>
<text text-anchor="middle" x="123.5" y="-117" font-family="Helvetica,sans-Serif" font-size="10.00">Ospfv3LinkStateUpdatePacket</text>
</a>
</g>
</g>
<!-- Ospfv3LinkStateUpdatePacket&#45;&gt;Ospfv3IntraAreaPrefixLsa -->
<g id="edge3" class="edge">
<title>Ospfv3LinkStateUpdatePacket&#45;&gt;Ospfv3IntraAreaPrefixLsa</title>
<path fill="none" stroke="black" d="M123.5,-109.75C123.5,-102.8 123.5,-92.85 123.5,-84.13"/>
<polygon fill="black" stroke="black" points="127,-84.09 123.5,-74.09 120,-84.09 127,-84.09"/>
</g>
</g>
</svg>
