<?xml version="1.0" encoding="UTF-8" standalone="no"?>
<!DOCTYPE svg PUBLIC "-//W3C//DTD SVG 1.1//EN"
 "http://www.w3.org/Graphics/SVG/1.1/DTD/svg11.dtd">
<!-- Generated by graphviz version 2.43.0 (0)
 -->
<!-- Title: opp Pages: 1 -->
<svg width="505pt" height="137pt"
 viewBox="0.00 0.00 505.00 137.00" xmlns="http://www.w3.org/2000/svg" xmlns:xlink="http://www.w3.org/1999/xlink">
<g id="graph0" class="graph" transform="scale(1 1) rotate(0) translate(4 133)">
<title>opp</title>
<polygon fill="transparent" stroke="transparent" points="-4,4 -4,-133 501,-133 501,4 -4,4"/>
<!-- RsvpHopObj -->
<g id="node1" class="node">
<title>RsvpHopObj</title>
<g id="a_node1"><a xlink:href="src-inet-networklayer-rsvpte-RsvpHopObj.html" xlink:title="Struct RsvpHopObj" target="_parent">
<polygon fill="#9090ff" stroke="black" points="285,-74 208,-74 208,-55 285,-55 285,-74"/>
<text text-anchor="middle" x="246.5" y="-62" font-family="Helvetica,sans-Serif" font-size="10.00">RsvpHopObj</text>
</a>
</g>
</g>
<!-- Ipv4Address -->
<g id="node2" class="node">
<title>Ipv4Address</title>
<g id="a_node2"><a xlink:href="src-inet-networklayer-contract-ipv4-Ipv4Address.html" xlink:title="Class Ipv4Address" target="_parent">
<polygon fill="#fffcaf" stroke="black" points="285,-19 208,-19 208,0 285,0 285,-19"/>
<text text-anchor="middle" x="246.5" y="-7" font-family="Helvetica,sans-Serif" font-size="10.00">Ipv4Address</text>
</a>
</g>
</g>
<!-- RsvpHopObj&#45;&gt;Ipv4Address -->
<g id="edge1" class="edge">
<title>RsvpHopObj&#45;&gt;Ipv4Address</title>
<path fill="none" stroke="black" d="M246.5,-54.75C246.5,-47.8 246.5,-37.85 246.5,-29.13"/>
<polygon fill="black" stroke="black" points="250,-29.09 246.5,-19.09 243,-29.09 250,-29.09"/>
</g>
<!-- RsvpPathMsg -->
<g id="node3" class="node">
<title>RsvpPathMsg</title>
<g id="a_node3"><a xlink:href="src-inet-networklayer-rsvpte-RsvpPathMsg.html" xlink:title="Class RsvpPathMsg" target="_parent">
<polygon fill="#fffcaf" stroke="black" points="83,-129 0,-129 0,-110 83,-110 83,-129"/>
<text text-anchor="middle" x="41.5" y="-117" font-family="Helvetica,sans-Serif" font-size="10.00">RsvpPathMsg</text>
</a>
</g>
</g>
<!-- RsvpPathMsg&#45;&gt;RsvpHopObj -->
<g id="edge2" class="edge">
<title>RsvpPathMsg&#45;&gt;RsvpHopObj</title>
<path fill="none" stroke="black" d="M74.44,-109.98C109.45,-100.93 164.97,-86.58 203.43,-76.64"/>
<polygon fill="black" stroke="black" points="204.5,-79.97 213.31,-74.08 202.75,-73.2 204.5,-79.97"/>
</g>
<!-- RsvpPathTear -->
<g id="node4" class="node">
<title>RsvpPathTear</title>
<g id="a_node4"><a xlink:href="src-inet-networklayer-rsvpte-RsvpPathTear.html" xlink:title="Class RsvpPathTear" target="_parent">
<polygon fill="#fffcaf" stroke="black" points="184,-129 101,-129 101,-110 184,-110 184,-129"/>
<text text-anchor="middle" x="142.5" y="-117" font-family="Helvetica,sans-Serif" font-size="10.00">RsvpPathTear</text>
</a>
</g>
</g>
<!-- RsvpPathTear&#45;&gt;RsvpHopObj -->
<g id="edge3" class="edge">
<title>RsvpPathTear&#45;&gt;RsvpHopObj</title>
<path fill="none" stroke="black" d="M159.21,-109.98C175.71,-101.57 201.2,-88.59 220.38,-78.81"/>
<polygon fill="black" stroke="black" points="222.17,-81.83 229.49,-74.17 218.99,-75.59 222.17,-81.83"/>
</g>
<!-- RsvpResvError -->
<g id="node5" class="node">
<title>RsvpResvError</title>
<g id="a_node5"><a xlink:href="src-inet-networklayer-rsvpte-RsvpResvError.html" xlink:title="Class RsvpResvError" target="_parent">
<polygon fill="#fffcaf" stroke="black" points="290.5,-129 202.5,-129 202.5,-110 290.5,-110 290.5,-129"/>
<text text-anchor="middle" x="246.5" y="-117" font-family="Helvetica,sans-Serif" font-size="10.00">RsvpResvError</text>
</a>
</g>
</g>
<!-- RsvpResvError&#45;&gt;RsvpHopObj -->
<g id="edge4" class="edge">
<title>RsvpResvError&#45;&gt;RsvpHopObj</title>
<path fill="none" stroke="black" d="M246.5,-109.75C246.5,-102.8 246.5,-92.85 246.5,-84.13"/>
<polygon fill="black" stroke="black" points="250,-84.09 246.5,-74.09 243,-84.09 250,-84.09"/>
</g>
<!-- RsvpResvMsg -->
<g id="node6" class="node">
<title>RsvpResvMsg</title>
<g id="a_node6"><a xlink:href="src-inet-networklayer-rsvpte-RsvpResvMsg.html" xlink:title="Class RsvpResvMsg" target="_parent">
<polygon fill="#fffcaf" stroke="black" points="394,-129 309,-129 309,-110 394,-110 394,-129"/>
<text text-anchor="middle" x="351.5" y="-117" font-family="Helvetica,sans-Serif" font-size="10.00">RsvpResvMsg</text>
</a>
</g>
</g>
<!-- RsvpResvMsg&#45;&gt;RsvpHopObj -->
<g id="edge5" class="edge">
<title>RsvpResvMsg&#45;&gt;RsvpHopObj</title>
<path fill="none" stroke="black" d="M334.63,-109.98C317.89,-101.54 292,-88.47 272.61,-78.68"/>
<polygon fill="black" stroke="black" points="274.18,-75.55 263.68,-74.17 271.03,-81.8 274.18,-75.55"/>
</g>
<!-- RsvpResvTear -->
<g id="node7" class="node">
<title>RsvpResvTear</title>
<g id="a_node7"><a xlink:href="src-inet-networklayer-rsvpte-RsvpResvTear.html" xlink:title="Class RsvpResvTear" target="_parent">
<polygon fill="#fffcaf" stroke="black" points="497,-129 412,-129 412,-110 497,-110 497,-129"/>
<text text-anchor="middle" x="454.5" y="-117" font-family="Helvetica,sans-Serif" font-size="10.00">RsvpResvTear</text>
</a>
</g>
</g>
<!-- RsvpResvTear&#45;&gt;RsvpHopObj -->
<g id="edge6" class="edge">
<title>RsvpResvTear&#45;&gt;RsvpHopObj</title>
<path fill="none" stroke="black" d="M421.08,-109.98C385.56,-100.93 329.23,-86.58 290.2,-76.64"/>
<polygon fill="black" stroke="black" points="290.74,-73.16 280.18,-74.08 289.01,-79.94 290.74,-73.16"/>
</g>
</g>
</svg>
