<?xml version="1.0" encoding="UTF-8" standalone="no"?>
<!DOCTYPE svg PUBLIC "-//W3C//DTD SVG 1.1//EN"
 "http://www.w3.org/Graphics/SVG/1.1/DTD/svg11.dtd">
<!-- Generated by graphviz version 2.43.0 (0)
 -->
<!-- Title: opp Pages: 1 -->
<svg width="730pt" height="137pt"
 viewBox="0.00 0.00 729.50 137.00" xmlns="http://www.w3.org/2000/svg" xmlns:xlink="http://www.w3.org/1999/xlink">
<g id="graph0" class="graph" transform="scale(1 1) rotate(0) translate(4 133)">
<title>opp</title>
<polygon fill="transparent" stroke="transparent" points="-4,4 -4,-133 725.5,-133 725.5,4 -4,4"/>
<!-- Ipv6NdOptions -->
<g id="node1" class="node">
<title>Ipv6NdOptions</title>
<g id="a_node1"><a xlink:href="src-inet-networklayer-icmpv6-Ipv6NdOptions.html" xlink:title="Class Ipv6NdOptions" target="_parent">
<polygon fill="#fff700" stroke="black" points="423.5,-74 334.5,-74 334.5,-55 423.5,-55 423.5,-74"/>
<text text-anchor="middle" x="379" y="-62" font-family="Helvetica,sans-Serif" font-size="10.00">Ipv6NdOptions</text>
</a>
</g>
</g>
<!-- Ipv6NdOption -->
<g id="node2" class="node">
<title>Ipv6NdOption</title>
<g id="a_node2"><a xlink:href="src-inet-networklayer-icmpv6-Ipv6NdOption.html" xlink:title="Class Ipv6NdOption" target="_parent">
<polygon fill="#fffcaf" stroke="black" points="420.5,-19 337.5,-19 337.5,0 420.5,0 420.5,-19"/>
<text text-anchor="middle" x="379" y="-7" font-family="Helvetica,sans-Serif" font-size="10.00">Ipv6NdOption</text>
</a>
</g>
</g>
<!-- Ipv6NdOptions&#45;&gt;Ipv6NdOption -->
<g id="edge1" class="edge">
<title>Ipv6NdOptions&#45;&gt;Ipv6NdOption</title>
<path fill="none" stroke="black" d="M379,-54.75C379,-47.8 379,-37.85 379,-29.13"/>
<polygon fill="black" stroke="black" points="382.5,-29.09 379,-19.09 375.5,-29.09 382.5,-29.09"/>
</g>
<!-- Ipv6NeighbourAdvertisement -->
<g id="node3" class="node">
<title>Ipv6NeighbourAdvertisement</title>
<g id="a_node3"><a xlink:href="src-inet-networklayer-icmpv6-Ipv6NeighbourAdvertisement.html" xlink:title="Class Ipv6NeighbourAdvertisement" target="_parent">
<polygon fill="#fffcaf" stroke="black" points="160,-129 0,-129 0,-110 160,-110 160,-129"/>
<text text-anchor="middle" x="80" y="-117" font-family="Helvetica,sans-Serif" font-size="10.00">Ipv6NeighbourAdvertisement</text>
</a>
</g>
</g>
<!-- Ipv6NeighbourAdvertisement&#45;&gt;Ipv6NdOptions -->
<g id="edge2" class="edge">
<title>Ipv6NeighbourAdvertisement&#45;&gt;Ipv6NdOptions</title>
<path fill="none" stroke="black" d="M128.04,-109.98C181.65,-100.48 268.23,-85.13 324.38,-75.18"/>
<polygon fill="black" stroke="black" points="325.26,-78.58 334.5,-73.39 324.04,-71.69 325.26,-78.58"/>
</g>
<!-- Ipv6NeighbourSolicitation -->
<g id="node4" class="node">
<title>Ipv6NeighbourSolicitation</title>
<g id="a_node4"><a xlink:href="src-inet-networklayer-icmpv6-Ipv6NeighbourSolicitation.html" xlink:title="Class Ipv6NeighbourSolicitation" target="_parent">
<polygon fill="#fffcaf" stroke="black" points="321.5,-129 178.5,-129 178.5,-110 321.5,-110 321.5,-129"/>
<text text-anchor="middle" x="250" y="-117" font-family="Helvetica,sans-Serif" font-size="10.00">Ipv6NeighbourSolicitation</text>
</a>
</g>
</g>
<!-- Ipv6NeighbourSolicitation&#45;&gt;Ipv6NdOptions -->
<g id="edge3" class="edge">
<title>Ipv6NeighbourSolicitation&#45;&gt;Ipv6NdOptions</title>
<path fill="none" stroke="black" d="M270.73,-109.98C291.76,-101.34 324.55,-87.87 348.54,-78.02"/>
<polygon fill="black" stroke="black" points="349.98,-81.21 357.9,-74.17 347.32,-74.73 349.98,-81.21"/>
</g>
<!-- Ipv6Redirect -->
<g id="node5" class="node">
<title>Ipv6Redirect</title>
<g id="a_node5"><a xlink:href="src-inet-networklayer-icmpv6-Ipv6Redirect.html" xlink:title="Class Ipv6Redirect" target="_parent">
<polygon fill="#fffcaf" stroke="black" points="418,-129 340,-129 340,-110 418,-110 418,-129"/>
<text text-anchor="middle" x="379" y="-117" font-family="Helvetica,sans-Serif" font-size="10.00">Ipv6Redirect</text>
</a>
</g>
</g>
<!-- Ipv6Redirect&#45;&gt;Ipv6NdOptions -->
<g id="edge4" class="edge">
<title>Ipv6Redirect&#45;&gt;Ipv6NdOptions</title>
<path fill="none" stroke="black" d="M379,-109.75C379,-102.8 379,-92.85 379,-84.13"/>
<polygon fill="black" stroke="black" points="382.5,-84.09 379,-74.09 375.5,-84.09 382.5,-84.09"/>
</g>
<!-- Ipv6RouterAdvertisement -->
<g id="node6" class="node">
<title>Ipv6RouterAdvertisement</title>
<g id="a_node6"><a xlink:href="src-inet-networklayer-icmpv6-Ipv6RouterAdvertisement.html" xlink:title="Class Ipv6RouterAdvertisement" target="_parent">
<polygon fill="#fffcaf" stroke="black" points="578,-129 436,-129 436,-110 578,-110 578,-129"/>
<text text-anchor="middle" x="507" y="-117" font-family="Helvetica,sans-Serif" font-size="10.00">Ipv6RouterAdvertisement</text>
</a>
</g>
</g>
<!-- Ipv6RouterAdvertisement&#45;&gt;Ipv6NdOptions -->
<g id="edge5" class="edge">
<title>Ipv6RouterAdvertisement&#45;&gt;Ipv6NdOptions</title>
<path fill="none" stroke="black" d="M486.43,-109.98C465.57,-101.34 433.03,-87.87 409.23,-78.02"/>
<polygon fill="black" stroke="black" points="410.52,-74.76 399.94,-74.17 407.84,-81.23 410.52,-74.76"/>
</g>
<!-- Ipv6RouterSolicitation -->
<g id="node7" class="node">
<title>Ipv6RouterSolicitation</title>
<g id="a_node7"><a xlink:href="src-inet-networklayer-icmpv6-Ipv6RouterSolicitation.html" xlink:title="Class Ipv6RouterSolicitation" target="_parent">
<polygon fill="#fffcaf" stroke="black" points="721.5,-129 596.5,-129 596.5,-110 721.5,-110 721.5,-129"/>
<text text-anchor="middle" x="659" y="-117" font-family="Helvetica,sans-Serif" font-size="10.00">Ipv6RouterSolicitation</text>
</a>
</g>
</g>
<!-- Ipv6RouterSolicitation&#45;&gt;Ipv6NdOptions -->
<g id="edge6" class="edge">
<title>Ipv6RouterSolicitation&#45;&gt;Ipv6NdOptions</title>
<path fill="none" stroke="black" d="M614.01,-109.98C564.93,-100.69 486.33,-85.82 433.71,-75.86"/>
<polygon fill="black" stroke="black" points="434.35,-72.42 423.88,-73.99 433.05,-79.29 434.35,-72.42"/>
</g>
</g>
</svg>
