<?xml version="1.0" encoding="UTF-8" standalone="no"?>
<!DOCTYPE svg PUBLIC "-//W3C//DTD SVG 1.1//EN"
 "http://www.w3.org/Graphics/SVG/1.1/DTD/svg11.dtd">
<!-- Generated by graphviz version 2.43.0 (0)
 -->
<!-- Title: opp Pages: 1 -->
<svg width="776pt" height="82pt"
 viewBox="0.00 0.00 776.00 82.00" xmlns="http://www.w3.org/2000/svg" xmlns:xlink="http://www.w3.org/1999/xlink">
<g id="graph0" class="graph" transform="scale(1 1) rotate(0) translate(4 78)">
<title>opp</title>
<polygon fill="transparent" stroke="transparent" points="-4,4 -4,-78 772,-78 772,4 -4,4"/>
<!-- Ipv6NdOption -->
<g id="node1" class="node">
<title>Ipv6NdOption</title>
<g id="a_node1"><a xlink:href="src-inet-networklayer-icmpv6-Ipv6NdOption.html" xlink:title="Class Ipv6NdOption" target="_parent">
<polygon fill="#fff700" stroke="black" points="385.5,-74 302.5,-74 302.5,-55 385.5,-55 385.5,-74"/>
<text text-anchor="middle" x="344" y="-62" font-family="Helvetica,sans-Serif" font-size="10.00">Ipv6NdOption</text>
</a>
</g>
</g>
<!-- Ipv6NdMtu -->
<g id="node2" class="node">
<title>Ipv6NdMtu</title>
<g id="a_node2"><a xlink:href="src-inet-networklayer-icmpv6-Ipv6NdMtu.html" xlink:title="Class Ipv6NdMtu" target="_parent">
<polygon fill="#fffcaf" stroke="black" points="70,-19 0,-19 0,0 70,0 70,-19"/>
<text text-anchor="middle" x="35" y="-7" font-family="Helvetica,sans-Serif" font-size="10.00">Ipv6NdMtu</text>
</a>
</g>
</g>
<!-- Ipv6NdOption&#45;&gt;Ipv6NdMtu -->
<g id="edge1" class="edge">
<title>Ipv6NdOption&#45;&gt;Ipv6NdMtu</title>
<path fill="none" stroke="black" d="M302.18,-56.8C249.91,-48.35 157.73,-33.21 79,-19 76.09,-18.47 73.08,-17.92 70.05,-17.35"/>
</g>
<!-- Ipv6NdPrefixInformation -->
<g id="node3" class="node">
<title>Ipv6NdPrefixInformation</title>
<g id="a_node3"><a xlink:href="src-inet-networklayer-icmpv6-Ipv6NdPrefixInformation.html" xlink:title="Class Ipv6NdPrefixInformation" target="_parent">
<polygon fill="#fffcaf" stroke="black" points="225.5,-19 88.5,-19 88.5,0 225.5,0 225.5,-19"/>
<text text-anchor="middle" x="157" y="-7" font-family="Helvetica,sans-Serif" font-size="10.00">Ipv6NdPrefixInformation</text>
</a>
</g>
</g>
<!-- Ipv6NdOption&#45;&gt;Ipv6NdPrefixInformation -->
<g id="edge2" class="edge">
<title>Ipv6NdOption&#45;&gt;Ipv6NdPrefixInformation</title>
<path fill="none" stroke="black" d="M313.96,-54.98C279.16,-45.12 222.17,-28.97 187.28,-19.08"/>
</g>
<!-- Ipv6NdSourceTargetLinkLayerAddress -->
<g id="node4" class="node">
<title>Ipv6NdSourceTargetLinkLayerAddress</title>
<g id="a_node4"><a xlink:href="src-inet-networklayer-icmpv6-Ipv6NdSourceTargetLinkLayerAddress.html" xlink:title="Class Ipv6NdSourceTargetLinkLayerAddress" target="_parent">
<polygon fill="#fffcaf" stroke="black" points="444,-19 244,-19 244,0 444,0 444,-19"/>
<text text-anchor="middle" x="344" y="-7" font-family="Helvetica,sans-Serif" font-size="10.00">Ipv6NdSourceTargetLinkLayerAddress</text>
</a>
</g>
</g>
<!-- Ipv6NdOption&#45;&gt;Ipv6NdSourceTargetLinkLayerAddress -->
<g id="edge3" class="edge">
<title>Ipv6NdOption&#45;&gt;Ipv6NdSourceTargetLinkLayerAddress</title>
<path fill="none" stroke="black" d="M344,-54.75C344,-44.87 344,-28.9 344,-19.09"/>
</g>
<!-- Mipv6HaInformation -->
<g id="node5" class="node">
<title>Mipv6HaInformation</title>
<g id="a_node5"><a xlink:href="src-inet-networklayer-icmpv6-Mipv6HaInformation.html" xlink:title="Class Mipv6HaInformation" target="_parent">
<polygon fill="#fffcaf" stroke="black" points="579.5,-19 462.5,-19 462.5,0 579.5,0 579.5,-19"/>
<text text-anchor="middle" x="521" y="-7" font-family="Helvetica,sans-Serif" font-size="10.00">Mipv6HaInformation</text>
</a>
</g>
</g>
<!-- Ipv6NdOption&#45;&gt;Mipv6HaInformation -->
<g id="edge4" class="edge">
<title>Ipv6NdOption&#45;&gt;Mipv6HaInformation</title>
<path fill="none" stroke="black" d="M372.44,-54.98C405.37,-45.12 459.31,-28.97 492.34,-19.08"/>
</g>
<!-- Mipv6NdAdvertisementInterval -->
<g id="node6" class="node">
<title>Mipv6NdAdvertisementInterval</title>
<g id="a_node6"><a xlink:href="src-inet-networklayer-icmpv6-Mipv6NdAdvertisementInterval.html" xlink:title="Class Mipv6NdAdvertisementInterval" target="_parent">
<polygon fill="#fffcaf" stroke="black" points="768,-19 598,-19 598,0 768,0 768,-19"/>
<text text-anchor="middle" x="683" y="-7" font-family="Helvetica,sans-Serif" font-size="10.00">Mipv6NdAdvertisementInterval</text>
</a>
</g>
</g>
<!-- Ipv6NdOption&#45;&gt;Mipv6NdAdvertisementInterval -->
<g id="edge5" class="edge">
<title>Ipv6NdOption&#45;&gt;Mipv6NdAdvertisementInterval</title>
<path fill="none" stroke="black" d="M385.57,-57C446.65,-47.45 560.74,-29.61 628.47,-19.02"/>
</g>
</g>
</svg>
