<?xml version="1.0" encoding="UTF-8" standalone="no"?>
<!DOCTYPE svg PUBLIC "-//W3C//DTD SVG 1.1//EN"
 "http://www.w3.org/Graphics/SVG/1.1/DTD/svg11.dtd">
<!-- Generated by graphviz version 2.43.0 (0)
 -->
<!-- Title: opp Pages: 1 -->
<svg width="172pt" height="137pt"
 viewBox="0.00 0.00 172.00 137.00" xmlns="http://www.w3.org/2000/svg" xmlns:xlink="http://www.w3.org/1999/xlink">
<g id="graph0" class="graph" transform="scale(1 1) rotate(0) translate(4 133)">
<title>opp</title>
<polygon fill="transparent" stroke="transparent" points="-4,4 -4,-133 168,-133 168,4 -4,4"/>
<!-- Ospfv2ExternalTosInfo -->
<g id="node1" class="node">
<title>Ospfv2ExternalTosInfo</title>
<g id="a_node1"><a xlink:href="src-inet-routing-ospfv2-Ospfv2ExternalTosInfo.html" xlink:title="Struct Ospfv2ExternalTosInfo" target="_parent">
<polygon fill="#9090ff" stroke="black" points="145,-74 19,-74 19,-55 145,-55 145,-74"/>
<text text-anchor="middle" x="82" y="-62" font-family="Helvetica,sans-Serif" font-size="10.00">Ospfv2ExternalTosInfo</text>
</a>
</g>
</g>
<!-- Ipv4Address -->
<g id="node2" class="node">
<title>Ipv4Address</title>
<g id="a_node2"><a xlink:href="src-inet-networklayer-contract-ipv4-Ipv4Address.html" xlink:title="Class Ipv4Address" target="_parent">
<polygon fill="#fffcaf" stroke="black" points="120.5,-19 43.5,-19 43.5,0 120.5,0 120.5,-19"/>
<text text-anchor="middle" x="82" y="-7" font-family="Helvetica,sans-Serif" font-size="10.00">Ipv4Address</text>
</a>
</g>
</g>
<!-- Ospfv2ExternalTosInfo&#45;&gt;Ipv4Address -->
<g id="edge1" class="edge">
<title>Ospfv2ExternalTosInfo&#45;&gt;Ipv4Address</title>
<path fill="none" stroke="black" d="M82,-54.75C82,-47.8 82,-37.85 82,-29.13"/>
<polygon fill="black" stroke="black" points="85.5,-29.09 82,-19.09 78.5,-29.09 85.5,-29.09"/>
</g>
<!-- Ospfv2AsExternalLsaContents -->
<g id="node3" class="node">
<title>Ospfv2AsExternalLsaContents</title>
<g id="a_node3"><a xlink:href="src-inet-routing-ospfv2-Ospfv2AsExternalLsaContents.html" xlink:title="Class Ospfv2AsExternalLsaContents" target="_parent">
<polygon fill="#fffcaf" stroke="black" points="164,-129 0,-129 0,-110 164,-110 164,-129"/>
<text text-anchor="middle" x="82" y="-117" font-family="Helvetica,sans-Serif" font-size="10.00">Ospfv2AsExternalLsaContents</text>
</a>
</g>
</g>
<!-- Ospfv2AsExternalLsaContents&#45;&gt;Ospfv2ExternalTosInfo -->
<g id="edge2" class="edge">
<title>Ospfv2AsExternalLsaContents&#45;&gt;Ospfv2ExternalTosInfo</title>
<path fill="none" stroke="black" d="M82,-109.75C82,-102.8 82,-92.85 82,-84.13"/>
<polygon fill="black" stroke="black" points="85.5,-84.09 82,-74.09 78.5,-84.09 85.5,-84.09"/>
</g>
</g>
</svg>
