<?xml version="1.0" encoding="UTF-8" standalone="no"?>
<!DOCTYPE svg PUBLIC "-//W3C//DTD SVG 1.1//EN"
 "http://www.w3.org/Graphics/SVG/1.1/DTD/svg11.dtd">
<!-- Generated by graphviz version 2.43.0 (0)
 -->
<!-- Title: opp Pages: 1 -->
<svg width="326pt" height="137pt"
 viewBox="0.00 0.00 326.00 137.00" xmlns="http://www.w3.org/2000/svg" xmlns:xlink="http://www.w3.org/1999/xlink">
<g id="graph0" class="graph" transform="scale(1 1) rotate(0) translate(4 133)">
<title>opp</title>
<polygon fill="transparent" stroke="transparent" points="-4,4 -4,-133 322,-133 322,4 -4,4"/>
<!-- IIeee80211Band -->
<g id="node1" class="node">
<title>IIeee80211Band</title>
<g id="a_node1"><a xlink:href="src-inet-physicallayer-wireless-ieee80211-mode-IIeee80211Band.html" xlink:title="Class IIeee80211Band" target="_parent">
<polygon fill="#fff700" stroke="black" points="185,-74 90,-74 90,-55 185,-55 185,-74"/>
<text text-anchor="middle" x="137.5" y="-62" font-family="Helvetica,sans-Serif" font-size="10.00">IIeee80211Band</text>
</a>
</g>
</g>
<!-- Hz -->
<g id="node2" class="node">
<title>Hz</title>
<g id="a_node2"><a xlink:href="src-inet-common-Hz.html" xlink:title="Class Hz" target="_parent">
<polygon fill="#fffcaf" stroke="black" points="164.5,-19 110.5,-19 110.5,0 164.5,0 164.5,-19"/>
<text text-anchor="middle" x="137.5" y="-7" font-family="Helvetica,sans-Serif" font-size="10.00">Hz</text>
</a>
</g>
</g>
<!-- IIeee80211Band&#45;&gt;Hz -->
<g id="edge1" class="edge">
<title>IIeee80211Band&#45;&gt;Hz</title>
<path fill="none" stroke="black" d="M137.5,-54.75C137.5,-47.8 137.5,-37.85 137.5,-29.13"/>
<polygon fill="black" stroke="black" points="141,-29.09 137.5,-19.09 134,-29.09 141,-29.09"/>
</g>
<!-- Ieee80211Channel -->
<g id="node3" class="node">
<title>Ieee80211Channel</title>
<g id="a_node3"><a xlink:href="src-inet-physicallayer-wireless-ieee80211-mode-Ieee80211Channel.html" xlink:title="Class Ieee80211Channel" target="_parent">
<polygon fill="#fffcaf" stroke="black" points="107,-129 0,-129 0,-110 107,-110 107,-129"/>
<text text-anchor="middle" x="53.5" y="-117" font-family="Helvetica,sans-Serif" font-size="10.00">Ieee80211Channel</text>
</a>
</g>
</g>
<!-- Ieee80211Channel&#45;&gt;IIeee80211Band -->
<g id="edge2" class="edge">
<title>Ieee80211Channel&#45;&gt;IIeee80211Band</title>
<path fill="none" stroke="black" d="M67,-109.98C79.9,-101.84 99.6,-89.41 114.9,-79.76"/>
<polygon fill="black" stroke="black" points="117.17,-82.47 123.76,-74.17 113.43,-76.55 117.17,-82.47"/>
</g>
<!-- Ieee80211ConfigureRadioCommand -->
<g id="node4" class="node">
<title>Ieee80211ConfigureRadioCommand</title>
<g id="a_node4"><a xlink:href="src-inet-physicallayer-wireless-ieee80211-packetlevel-Ieee80211ConfigureRadioCommand.html" xlink:title="Class Ieee80211ConfigureRadioCommand" target="_parent">
<polygon fill="#fffcaf" stroke="black" points="318,-129 125,-129 125,-110 318,-110 318,-129"/>
<text text-anchor="middle" x="221.5" y="-117" font-family="Helvetica,sans-Serif" font-size="10.00">Ieee80211ConfigureRadioCommand</text>
</a>
</g>
</g>
<!-- Ieee80211ConfigureRadioCommand&#45;&gt;IIeee80211Band -->
<g id="edge3" class="edge">
<title>Ieee80211ConfigureRadioCommand&#45;&gt;IIeee80211Band</title>
<path fill="none" stroke="black" d="M208,-109.98C195.1,-101.84 175.4,-89.41 160.1,-79.76"/>
<polygon fill="black" stroke="black" points="161.57,-76.55 151.24,-74.17 157.83,-82.47 161.57,-76.55"/>
</g>
</g>
</svg>
