<?xml version="1.0" encoding="UTF-8" standalone="no"?>
<!DOCTYPE svg PUBLIC "-//W3C//DTD SVG 1.1//EN"
 "http://www.w3.org/Graphics/SVG/1.1/DTD/svg11.dtd">
<!-- Generated by graphviz version 2.43.0 (0)
 -->
<!-- Title: opp Pages: 1 -->
<svg width="240pt" height="137pt"
 viewBox="0.00 0.00 240.00 137.00" xmlns="http://www.w3.org/2000/svg" xmlns:xlink="http://www.w3.org/1999/xlink">
<g id="graph0" class="graph" transform="scale(1 1) rotate(0) translate(4 133)">
<title>opp</title>
<polygon fill="transparent" stroke="transparent" points="-4,4 -4,-133 236,-133 236,4 -4,4"/>
<!-- Ospfv3RouterLsa -->
<g id="node1" class="node">
<title>Ospfv3RouterLsa</title>
<g id="a_node1"><a xlink:href="src-inet-routing-ospfv3-Ospfv3RouterLsa.html" xlink:title="Class Ospfv3RouterLsa" target="_parent">
<polygon fill="#fff700" stroke="black" points="156.5,-74 56.5,-74 56.5,-55 156.5,-55 156.5,-74"/>
<text text-anchor="middle" x="106.5" y="-62" font-family="Helvetica,sans-Serif" font-size="10.00">Ospfv3RouterLsa</text>
</a>
</g>
</g>
<!-- Ospfv3Options -->
<g id="node2" class="node">
<title>Ospfv3Options</title>
<g id="a_node2"><a xlink:href="src-inet-routing-ospfv3-Ospfv3Options.html" xlink:title="Struct Ospfv3Options" target="_parent">
<polygon fill="#d0d0ff" stroke="black" points="89,-19 0,-19 0,0 89,0 89,-19"/>
<text text-anchor="middle" x="44.5" y="-7" font-family="Helvetica,sans-Serif" font-size="10.00">Ospfv3Options</text>
</a>
</g>
</g>
<!-- Ospfv3RouterLsa&#45;&gt;Ospfv3Options -->
<g id="edge1" class="edge">
<title>Ospfv3RouterLsa&#45;&gt;Ospfv3Options</title>
<path fill="none" stroke="black" d="M96.54,-54.98C87.37,-47.15 73.56,-35.34 62.47,-25.86"/>
<polygon fill="black" stroke="black" points="64.52,-23.01 54.64,-19.17 59.97,-28.33 64.52,-23.01"/>
</g>
<!-- Ospfv3RouterLsaBody -->
<g id="node3" class="node">
<title>Ospfv3RouterLsaBody</title>
<g id="a_node3"><a xlink:href="src-inet-routing-ospfv3-Ospfv3RouterLsaBody.html" xlink:title="Struct Ospfv3RouterLsaBody" target="_parent">
<polygon fill="#d0d0ff" stroke="black" points="232,-19 107,-19 107,0 232,0 232,-19"/>
<text text-anchor="middle" x="169.5" y="-7" font-family="Helvetica,sans-Serif" font-size="10.00">Ospfv3RouterLsaBody</text>
</a>
</g>
</g>
<!-- Ospfv3RouterLsa&#45;&gt;Ospfv3RouterLsaBody -->
<g id="edge2" class="edge">
<title>Ospfv3RouterLsa&#45;&gt;Ospfv3RouterLsaBody</title>
<path fill="none" stroke="black" d="M116.62,-54.98C125.94,-47.15 139.97,-35.34 151.24,-25.86"/>
<polygon fill="black" stroke="black" points="153.79,-28.29 159.19,-19.17 149.29,-22.93 153.79,-28.29"/>
</g>
<!-- Ospfv3LinkStateUpdatePacket -->
<g id="node4" class="node">
<title>Ospfv3LinkStateUpdatePacket</title>
<g id="a_node4"><a xlink:href="src-inet-routing-ospfv3-Ospfv3LinkStateUpdatePacket.html" xlink:title="Class Ospfv3LinkStateUpdatePacket" target="_parent">
<polygon fill="#fffcaf" stroke="black" points="188.5,-129 24.5,-129 24.5,-110 188.5,-110 188.5,-129"/>
<text text-anchor="middle" x="106.5" y="-117" font-family="Helvetica,sans-Serif" font-size="10.00">Ospfv3LinkStateUpdatePacket</text>
</a>
</g>
</g>
<!-- Ospfv3LinkStateUpdatePacket&#45;&gt;Ospfv3RouterLsa -->
<g id="edge3" class="edge">
<title>Ospfv3LinkStateUpdatePacket&#45;&gt;Ospfv3RouterLsa</title>
<path fill="none" stroke="black" d="M106.5,-109.75C106.5,-102.8 106.5,-92.85 106.5,-84.13"/>
<polygon fill="black" stroke="black" points="110,-84.09 106.5,-74.09 103,-84.09 110,-84.09"/>
</g>
</g>
</svg>
