<?xml version="1.0" encoding="UTF-8" standalone="no"?>
<!DOCTYPE svg PUBLIC "-//W3C//DTD SVG 1.1//EN"
 "http://www.w3.org/Graphics/SVG/1.1/DTD/svg11.dtd">
<!-- Generated by graphviz version 2.43.0 (0)
 -->
<!-- Title: opp Pages: 1 -->
<svg width="376pt" height="82pt"
 viewBox="0.00 0.00 376.00 82.00" xmlns="http://www.w3.org/2000/svg" xmlns:xlink="http://www.w3.org/1999/xlink">
<g id="graph0" class="graph" transform="scale(1 1) rotate(0) translate(4 78)">
<title>opp</title>
<polygon fill="transparent" stroke="transparent" points="-4,4 -4,-78 372,-78 372,4 -4,4"/>
<!-- RreqTimer -->
<g id="node1" class="node">
<title>RreqTimer</title>
<g id="a_node1"><a xlink:href="src-inet-routing-dymo-RreqTimer.html" xlink:title="Message RreqTimer" target="_parent">
<polygon fill="#fff700" stroke="black" points="213.5,-74 146.5,-74 146.5,-55 213.5,-55 213.5,-74"/>
<text text-anchor="middle" x="180" y="-62" font-family="Helvetica,sans-Serif" font-size="10.00">RreqTimer</text>
</a>
</g>
</g>
<!-- RreqBackoffTimer -->
<g id="node2" class="node">
<title>RreqBackoffTimer</title>
<g id="a_node2"><a xlink:href="src-inet-routing-dymo-RreqBackoffTimer.html" xlink:title="Message RreqBackoffTimer" target="_parent">
<polygon fill="#fffcaf" stroke="black" points="104,-19 0,-19 0,0 104,0 104,-19"/>
<text text-anchor="middle" x="52" y="-7" font-family="Helvetica,sans-Serif" font-size="10.00">RreqBackoffTimer</text>
</a>
</g>
</g>
<!-- RreqTimer&#45;&gt;RreqBackoffTimer -->
<g id="edge1" class="edge">
<title>RreqTimer&#45;&gt;RreqBackoffTimer</title>
<path fill="none" stroke="black" d="M159.43,-54.98C135.69,-45.15 96.84,-29.07 72.94,-19.17"/>
</g>
<!-- RreqHolddownTimer -->
<g id="node3" class="node">
<title>RreqHolddownTimer</title>
<g id="a_node3"><a xlink:href="src-inet-routing-dymo-RreqHolddownTimer.html" xlink:title="Message RreqHolddownTimer" target="_parent">
<polygon fill="#fffcaf" stroke="black" points="238,-19 122,-19 122,0 238,0 238,-19"/>
<text text-anchor="middle" x="180" y="-7" font-family="Helvetica,sans-Serif" font-size="10.00">RreqHolddownTimer</text>
</a>
</g>
</g>
<!-- RreqTimer&#45;&gt;RreqHolddownTimer -->
<g id="edge2" class="edge">
<title>RreqTimer&#45;&gt;RreqHolddownTimer</title>
<path fill="none" stroke="black" d="M180,-54.75C180,-44.87 180,-28.9 180,-19.09"/>
</g>
<!-- RreqWaitRrepTimer -->
<g id="node4" class="node">
<title>RreqWaitRrepTimer</title>
<g id="a_node4"><a xlink:href="src-inet-routing-dymo-RreqWaitRrepTimer.html" xlink:title="Message RreqWaitRrepTimer" target="_parent">
<polygon fill="#fffcaf" stroke="black" points="368,-19 256,-19 256,0 368,0 368,-19"/>
<text text-anchor="middle" x="312" y="-7" font-family="Helvetica,sans-Serif" font-size="10.00">RreqWaitRrepTimer</text>
</a>
</g>
</g>
<!-- RreqTimer&#45;&gt;RreqWaitRrepTimer -->
<g id="edge3" class="edge">
<title>RreqTimer&#45;&gt;RreqWaitRrepTimer</title>
<path fill="none" stroke="black" d="M201.21,-54.98C225.69,-45.15 265.76,-29.07 290.41,-19.17"/>
</g>
</g>
</svg>
