<?xml version="1.0" encoding="UTF-8" standalone="no"?>
<!DOCTYPE svg PUBLIC "-//W3C//DTD SVG 1.1//EN"
 "http://www.w3.org/Graphics/SVG/1.1/DTD/svg11.dtd">
<!-- Generated by graphviz version 2.43.0 (0)
 -->
<!-- Title: opp Pages: 1 -->
<svg width="218pt" height="82pt"
 viewBox="0.00 0.00 218.00 82.00" xmlns="http://www.w3.org/2000/svg" xmlns:xlink="http://www.w3.org/1999/xlink">
<g id="graph0" class="graph" transform="scale(1 1) rotate(0) translate(4 78)">
<title>opp</title>
<polygon fill="transparent" stroke="transparent" points="-4,4 -4,-78 214,-78 214,4 -4,4"/>
<!-- ChunkBuffer -->
<g id="node1" class="node">
<title>ChunkBuffer</title>
<g id="a_node1"><a xlink:href="src-inet-common-packet-ChunkBuffer.html" xlink:title="Class ChunkBuffer" target="_parent">
<polygon fill="#fff700" stroke="black" points="149,-74 72,-74 72,-55 149,-55 149,-74"/>
<text text-anchor="middle" x="110.5" y="-62" font-family="Helvetica,sans-Serif" font-size="10.00">ChunkBuffer</text>
</a>
</g>
</g>
<!-- ReassemblyBuffer -->
<g id="node2" class="node">
<title>ReassemblyBuffer</title>
<g id="a_node2"><a xlink:href="src-inet-common-packet-ReassemblyBuffer.html" xlink:title="Class ReassemblyBuffer" target="_parent">
<polygon fill="#fffcaf" stroke="black" points="107,-19 0,-19 0,0 107,0 107,-19"/>
<text text-anchor="middle" x="53.5" y="-7" font-family="Helvetica,sans-Serif" font-size="10.00">ReassemblyBuffer</text>
</a>
</g>
</g>
<!-- ChunkBuffer&#45;&gt;ReassemblyBuffer -->
<g id="edge1" class="edge">
<title>ChunkBuffer&#45;&gt;ReassemblyBuffer</title>
<path fill="none" stroke="black" d="M101.34,-54.98C90.77,-45.15 73.47,-29.07 62.82,-19.17"/>
</g>
<!-- ReorderBuffer -->
<g id="node3" class="node">
<title>ReorderBuffer</title>
<g id="a_node3"><a xlink:href="src-inet-common-packet-ReorderBuffer.html" xlink:title="Class ReorderBuffer" target="_parent">
<polygon fill="#fffcaf" stroke="black" points="210,-19 125,-19 125,0 210,0 210,-19"/>
<text text-anchor="middle" x="167.5" y="-7" font-family="Helvetica,sans-Serif" font-size="10.00">ReorderBuffer</text>
</a>
</g>
</g>
<!-- ChunkBuffer&#45;&gt;ReorderBuffer -->
<g id="edge2" class="edge">
<title>ChunkBuffer&#45;&gt;ReorderBuffer</title>
<path fill="none" stroke="black" d="M119.66,-54.98C130.23,-45.15 147.53,-29.07 158.18,-19.17"/>
</g>
</g>
</svg>
