<?xml version="1.0" encoding="UTF-8" standalone="no"?>
<!DOCTYPE svg PUBLIC "-//W3C//DTD SVG 1.1//EN"
 "http://www.w3.org/Graphics/SVG/1.1/DTD/svg11.dtd">
<!-- Generated by graphviz version 2.43.0 (0)
 -->
<!-- Title: opp Pages: 1 -->
<svg width="210pt" height="137pt"
 viewBox="0.00 0.00 210.00 137.00" xmlns="http://www.w3.org/2000/svg" xmlns:xlink="http://www.w3.org/1999/xlink">
<g id="graph0" class="graph" transform="scale(1 1) rotate(0) translate(4 133)">
<title>opp</title>
<polygon fill="transparent" stroke="transparent" points="-4,4 -4,-133 206,-133 206,4 -4,4"/>
<!-- DymoPacket -->
<g id="node1" class="node">
<title>DymoPacket</title>
<g id="a_node1"><a xlink:href="src-inet-routing-dymo-DymoPacket.html" xlink:title="Class DymoPacket" target="_parent">
<polygon fill="#fff700" stroke="black" points="140,-74 62,-74 62,-55 140,-55 140,-74"/>
<text text-anchor="middle" x="101" y="-62" font-family="Helvetica,sans-Serif" font-size="10.00">DymoPacket</text>
</a>
</g>
</g>
<!-- Rerr -->
<g id="node3" class="node">
<title>Rerr</title>
<g id="a_node3"><a xlink:href="src-inet-routing-dymo-Rerr.html" xlink:title="Class Rerr" target="_parent">
<polygon fill="#fffcaf" stroke="black" points="54,-19 0,-19 0,0 54,0 54,-19"/>
<text text-anchor="middle" x="27" y="-7" font-family="Helvetica,sans-Serif" font-size="10.00">Rerr</text>
</a>
</g>
</g>
<!-- DymoPacket&#45;&gt;Rerr -->
<g id="edge2" class="edge">
<title>DymoPacket&#45;&gt;Rerr</title>
<path fill="none" stroke="black" d="M89.11,-54.98C75.38,-45.15 52.92,-29.07 39.11,-19.17"/>
</g>
<!-- RrepAck -->
<g id="node4" class="node">
<title>RrepAck</title>
<g id="a_node4"><a xlink:href="src-inet-routing-dymo-RrepAck.html" xlink:title="Class RrepAck" target="_parent">
<polygon fill="#fffcaf" stroke="black" points="129.5,-19 72.5,-19 72.5,0 129.5,0 129.5,-19"/>
<text text-anchor="middle" x="101" y="-7" font-family="Helvetica,sans-Serif" font-size="10.00">RrepAck</text>
</a>
</g>
</g>
<!-- DymoPacket&#45;&gt;RrepAck -->
<g id="edge3" class="edge">
<title>DymoPacket&#45;&gt;RrepAck</title>
<path fill="none" stroke="black" d="M101,-54.75C101,-44.87 101,-28.9 101,-19.09"/>
</g>
<!-- RteMsg -->
<g id="node5" class="node">
<title>RteMsg</title>
<g id="a_node5"><a xlink:href="src-inet-routing-dymo-RteMsg.html" xlink:title="Class RteMsg" target="_parent">
<polygon fill="#fffcaf" stroke="black" points="202,-19 148,-19 148,0 202,0 202,-19"/>
<text text-anchor="middle" x="175" y="-7" font-family="Helvetica,sans-Serif" font-size="10.00">RteMsg</text>
</a>
</g>
</g>
<!-- DymoPacket&#45;&gt;RteMsg -->
<g id="edge4" class="edge">
<title>DymoPacket&#45;&gt;RteMsg</title>
<path fill="none" stroke="black" d="M112.89,-54.98C126.62,-45.15 149.08,-29.07 162.89,-19.17"/>
</g>
<!-- FieldsChunk -->
<g id="node2" class="node">
<title>FieldsChunk</title>
<g id="a_node2"><a xlink:href="src-inet-common-packet-chunk-FieldsChunk.html" xlink:title="Class FieldsChunk" target="_parent">
<polygon fill="#fffcaf" stroke="black" points="138.5,-129 63.5,-129 63.5,-110 138.5,-110 138.5,-129"/>
<text text-anchor="middle" x="101" y="-117" font-family="Helvetica,sans-Serif" font-size="10.00">FieldsChunk</text>
</a>
</g>
</g>
<!-- FieldsChunk&#45;&gt;DymoPacket -->
<g id="edge1" class="edge">
<title>FieldsChunk&#45;&gt;DymoPacket</title>
<path fill="none" stroke="black" d="M101,-109.75C101,-99.87 101,-83.9 101,-74.09"/>
</g>
</g>
</svg>
