<?xml version="1.0" encoding="UTF-8" standalone="no"?>
<!DOCTYPE svg PUBLIC "-//W3C//DTD SVG 1.1//EN"
 "http://www.w3.org/Graphics/SVG/1.1/DTD/svg11.dtd">
<!-- Generated by graphviz version 2.43.0 (0)
 -->
<!-- Title: opp Pages: 1 -->
<svg width="117pt" height="137pt"
 viewBox="0.00 0.00 117.00 137.00" xmlns="http://www.w3.org/2000/svg" xmlns:xlink="http://www.w3.org/1999/xlink">
<g id="graph0" class="graph" transform="scale(1 1) rotate(0) translate(4 133)">
<title>opp</title>
<polygon fill="transparent" stroke="transparent" points="-4,4 -4,-133 113,-133 113,4 -4,4"/>
<!-- TcpOption -->
<g id="node1" class="node">
<title>TcpOption</title>
<g id="a_node1"><a xlink:href="src-inet-transportlayer-tcp_common-TcpOption.html" xlink:title="Class TcpOption" target="_parent">
<polygon fill="#fff700" stroke="black" points="87,-74 22,-74 22,-55 87,-55 87,-74"/>
<text text-anchor="middle" x="54.5" y="-62" font-family="Helvetica,sans-Serif" font-size="10.00">TcpOption</text>
</a>
</g>
</g>
<!-- TcpOptionNumbers -->
<g id="node2" class="node">
<title>TcpOptionNumbers</title>
<g id="a_node2"><a xlink:href="src-inet-transportlayer-tcp_common-TcpOptionNumbers.html" xlink:title="Enum TcpOptionNumbers" target="_parent">
<polygon fill="#d0ffd0" stroke="black" points="109,-19 0,-19 0,0 109,0 109,-19"/>
<text text-anchor="middle" x="54.5" y="-7" font-family="Helvetica,sans-Serif" font-size="10.00">TcpOptionNumbers</text>
</a>
</g>
</g>
<!-- TcpOption&#45;&gt;TcpOptionNumbers -->
<g id="edge1" class="edge">
<title>TcpOption&#45;&gt;TcpOptionNumbers</title>
<path fill="none" stroke="black" d="M54.5,-54.75C54.5,-47.8 54.5,-37.85 54.5,-29.13"/>
<polygon fill="black" stroke="black" points="58,-29.09 54.5,-19.09 51,-29.09 58,-29.09"/>
</g>
<!-- TcpHeader -->
<g id="node3" class="node">
<title>TcpHeader</title>
<g id="a_node3"><a xlink:href="src-inet-transportlayer-tcp_common-TcpHeader.html" xlink:title="Class TcpHeader" target="_parent">
<polygon fill="#fffcaf" stroke="black" points="88.5,-129 20.5,-129 20.5,-110 88.5,-110 88.5,-129"/>
<text text-anchor="middle" x="54.5" y="-117" font-family="Helvetica,sans-Serif" font-size="10.00">TcpHeader</text>
</a>
</g>
</g>
<!-- TcpHeader&#45;&gt;TcpOption -->
<g id="edge2" class="edge">
<title>TcpHeader&#45;&gt;TcpOption</title>
<path fill="none" stroke="black" d="M54.5,-109.75C54.5,-102.8 54.5,-92.85 54.5,-84.13"/>
<polygon fill="black" stroke="black" points="58,-84.09 54.5,-74.09 51,-84.09 58,-84.09"/>
</g>
</g>
</svg>
