<?xml version="1.0" encoding="UTF-8" standalone="no"?>
<!DOCTYPE svg PUBLIC "-//W3C//DTD SVG 1.1//EN"
 "http://www.w3.org/Graphics/SVG/1.1/DTD/svg11.dtd">
<!-- Generated by graphviz version 2.43.0 (0)
 -->
<!-- Title: opp Pages: 1 -->
<svg width="1072pt" height="82pt"
 viewBox="0.00 0.00 1072.00 82.00" xmlns="http://www.w3.org/2000/svg" xmlns:xlink="http://www.w3.org/1999/xlink">
<g id="graph0" class="graph" transform="scale(1 1) rotate(0) translate(4 78)">
<title>opp</title>
<polygon fill="transparent" stroke="transparent" points="-4,4 -4,-78 1068,-78 1068,4 -4,4"/>
<!-- Ospfv3Lsa -->
<g id="node1" class="node">
<title>Ospfv3Lsa</title>
<g id="a_node1"><a xlink:href="src-inet-routing-ospfv3-Ospfv3Lsa.html" xlink:title="Class Ospfv3Lsa" target="_parent">
<polygon fill="#fff700" stroke="black" points="631,-74 563,-74 563,-55 631,-55 631,-74"/>
<text text-anchor="middle" x="597" y="-62" font-family="Helvetica,sans-Serif" font-size="10.00">Ospfv3Lsa</text>
</a>
</g>
</g>
<!-- Ospfv3AsExternalLsa -->
<g id="node2" class="node">
<title>Ospfv3AsExternalLsa</title>
<g id="a_node2"><a xlink:href="src-inet-routing-ospfv3-Ospfv3AsExternalLsa.html" xlink:title="Class Ospfv3AsExternalLsa" target="_parent">
<polygon fill="#fffcaf" stroke="black" points="120,-19 0,-19 0,0 120,0 120,-19"/>
<text text-anchor="middle" x="60" y="-7" font-family="Helvetica,sans-Serif" font-size="10.00">Ospfv3AsExternalLsa</text>
</a>
</g>
</g>
<!-- Ospfv3Lsa&#45;&gt;Ospfv3AsExternalLsa -->
<g id="edge1" class="edge">
<title>Ospfv3Lsa&#45;&gt;Ospfv3AsExternalLsa</title>
<path fill="none" stroke="black" d="M562.91,-60.59C485.64,-53.91 291.27,-36.71 129,-19 126.12,-18.69 123.17,-18.36 120.2,-18.02"/>
</g>
<!-- Ospfv3InterAreaPrefixLsa -->
<g id="node3" class="node">
<title>Ospfv3InterAreaPrefixLsa</title>
<g id="a_node3"><a xlink:href="src-inet-routing-ospfv3-Ospfv3InterAreaPrefixLsa.html" xlink:title="Class Ospfv3InterAreaPrefixLsa" target="_parent">
<polygon fill="#fffcaf" stroke="black" points="279.5,-19 138.5,-19 138.5,0 279.5,0 279.5,-19"/>
<text text-anchor="middle" x="209" y="-7" font-family="Helvetica,sans-Serif" font-size="10.00">Ospfv3InterAreaPrefixLsa</text>
</a>
</g>
</g>
<!-- Ospfv3Lsa&#45;&gt;Ospfv3InterAreaPrefixLsa -->
<g id="edge2" class="edge">
<title>Ospfv3Lsa&#45;&gt;Ospfv3InterAreaPrefixLsa</title>
<path fill="none" stroke="black" d="M562.91,-58.84C497.63,-49.93 354.14,-30.33 271.31,-19.01"/>
</g>
<!-- Ospfv3InterAreaRouterLsa -->
<g id="node4" class="node">
<title>Ospfv3InterAreaRouterLsa</title>
<g id="a_node4"><a xlink:href="src-inet-routing-ospfv3-Ospfv3InterAreaRouterLsa.html" xlink:title="Class Ospfv3InterAreaRouterLsa" target="_parent">
<polygon fill="#fffcaf" stroke="black" points="442.5,-19 297.5,-19 297.5,0 442.5,0 442.5,-19"/>
<text text-anchor="middle" x="370" y="-7" font-family="Helvetica,sans-Serif" font-size="10.00">Ospfv3InterAreaRouterLsa</text>
</a>
</g>
</g>
<!-- Ospfv3Lsa&#45;&gt;Ospfv3InterAreaRouterLsa -->
<g id="edge3" class="edge">
<title>Ospfv3Lsa&#45;&gt;Ospfv3InterAreaRouterLsa</title>
<path fill="none" stroke="black" d="M562.52,-55.45C520.48,-45.63 449.71,-29.11 406.69,-19.07"/>
</g>
<!-- Ospfv3IntraAreaPrefixLsa -->
<g id="node5" class="node">
<title>Ospfv3IntraAreaPrefixLsa</title>
<g id="a_node5"><a xlink:href="src-inet-routing-ospfv3-Ospfv3IntraAreaPrefixLsa.html" xlink:title="Class Ospfv3IntraAreaPrefixLsa" target="_parent">
<polygon fill="#fffcaf" stroke="black" points="601.5,-19 460.5,-19 460.5,0 601.5,0 601.5,-19"/>
<text text-anchor="middle" x="531" y="-7" font-family="Helvetica,sans-Serif" font-size="10.00">Ospfv3IntraAreaPrefixLsa</text>
</a>
</g>
</g>
<!-- Ospfv3Lsa&#45;&gt;Ospfv3IntraAreaPrefixLsa -->
<g id="edge4" class="edge">
<title>Ospfv3Lsa&#45;&gt;Ospfv3IntraAreaPrefixLsa</title>
<path fill="none" stroke="black" d="M586.4,-54.98C574.15,-45.15 554.12,-29.07 541.8,-19.17"/>
</g>
<!-- Ospfv3LinkLsa -->
<g id="node6" class="node">
<title>Ospfv3LinkLsa</title>
<g id="a_node6"><a xlink:href="src-inet-routing-ospfv3-Ospfv3LinkLsa.html" xlink:title="Class Ospfv3LinkLsa" target="_parent">
<polygon fill="#fffcaf" stroke="black" points="708,-19 620,-19 620,0 708,0 708,-19"/>
<text text-anchor="middle" x="664" y="-7" font-family="Helvetica,sans-Serif" font-size="10.00">Ospfv3LinkLsa</text>
</a>
</g>
</g>
<!-- Ospfv3Lsa&#45;&gt;Ospfv3LinkLsa -->
<g id="edge5" class="edge">
<title>Ospfv3Lsa&#45;&gt;Ospfv3LinkLsa</title>
<path fill="none" stroke="black" d="M607.76,-54.98C620.19,-45.15 640.53,-29.07 653.04,-19.17"/>
</g>
<!-- Ospfv3NetworkLsa -->
<g id="node7" class="node">
<title>Ospfv3NetworkLsa</title>
<g id="a_node7"><a xlink:href="src-inet-routing-ospfv3-Ospfv3NetworkLsa.html" xlink:title="Class Ospfv3NetworkLsa" target="_parent">
<polygon fill="#fffcaf" stroke="black" points="835.5,-19 726.5,-19 726.5,0 835.5,0 835.5,-19"/>
<text text-anchor="middle" x="781" y="-7" font-family="Helvetica,sans-Serif" font-size="10.00">Ospfv3NetworkLsa</text>
</a>
</g>
</g>
<!-- Ospfv3Lsa&#45;&gt;Ospfv3NetworkLsa -->
<g id="edge6" class="edge">
<title>Ospfv3Lsa&#45;&gt;Ospfv3NetworkLsa</title>
<path fill="none" stroke="black" d="M626.56,-54.98C660.8,-45.12 716.87,-28.97 751.21,-19.08"/>
</g>
<!-- Ospfv3NssaLsa -->
<g id="node8" class="node">
<title>Ospfv3NssaLsa</title>
<g id="a_node8"><a xlink:href="src-inet-routing-ospfv3-Ospfv3NssaLsa.html" xlink:title="Class Ospfv3NssaLsa" target="_parent">
<polygon fill="#fffcaf" stroke="black" points="946,-19 854,-19 854,0 946,0 946,-19"/>
<text text-anchor="middle" x="900" y="-7" font-family="Helvetica,sans-Serif" font-size="10.00">Ospfv3NssaLsa</text>
</a>
</g>
</g>
<!-- Ospfv3Lsa&#45;&gt;Ospfv3NssaLsa -->
<g id="edge7" class="edge">
<title>Ospfv3Lsa&#45;&gt;Ospfv3NssaLsa</title>
<path fill="none" stroke="black" d="M631.17,-57.52C685.73,-47.98 792.59,-29.29 853.87,-18.57"/>
</g>
<!-- Ospfv3RouterLsa -->
<g id="node9" class="node">
<title>Ospfv3RouterLsa</title>
<g id="a_node9"><a xlink:href="src-inet-routing-ospfv3-Ospfv3RouterLsa.html" xlink:title="Class Ospfv3RouterLsa" target="_parent">
<polygon fill="#fffcaf" stroke="black" points="1064,-19 964,-19 964,0 1064,0 1064,-19"/>
<text text-anchor="middle" x="1014" y="-7" font-family="Helvetica,sans-Serif" font-size="10.00">Ospfv3RouterLsa</text>
</a>
</g>
</g>
<!-- Ospfv3Lsa&#45;&gt;Ospfv3RouterLsa -->
<g id="edge8" class="edge">
<title>Ospfv3Lsa&#45;&gt;Ospfv3RouterLsa</title>
<path fill="none" stroke="black" d="M631.09,-59.49C694.77,-51.94 836.13,-34.95 955,-19 957.87,-18.61 960.82,-18.21 963.8,-17.8"/>
</g>
</g>
</svg>
