<?xml version="1.0" encoding="UTF-8" standalone="no"?>
<!DOCTYPE svg PUBLIC "-//W3C//DTD SVG 1.1//EN"
 "http://www.w3.org/Graphics/SVG/1.1/DTD/svg11.dtd">
<!-- Generated by graphviz version 2.43.0 (0)
 -->
<!-- Title: opp Pages: 1 -->
<svg width="530pt" height="137pt"
 viewBox="0.00 0.00 529.50 137.00" xmlns="http://www.w3.org/2000/svg" xmlns:xlink="http://www.w3.org/1999/xlink">
<g id="graph0" class="graph" transform="scale(1 1) rotate(0) translate(4 133)">
<title>opp</title>
<polygon fill="transparent" stroke="transparent" points="-4,4 -4,-133 525.5,-133 525.5,4 -4,4"/>
<!-- EncodedUnicastAddress -->
<g id="node1" class="node">
<title>EncodedUnicastAddress</title>
<g id="a_node1"><a xlink:href="src-inet-routing-pim-EncodedUnicastAddress.html" xlink:title="Struct EncodedUnicastAddress" target="_parent">
<polygon fill="#9090ff" stroke="black" points="315.5,-74 181.5,-74 181.5,-55 315.5,-55 315.5,-74"/>
<text text-anchor="middle" x="248.5" y="-62" font-family="Helvetica,sans-Serif" font-size="10.00">EncodedUnicastAddress</text>
</a>
</g>
</g>
<!-- L3Address -->
<g id="node2" class="node">
<title>L3Address</title>
<g id="a_node2"><a xlink:href="src-inet-networklayer-common-L3Address.html" xlink:title="Class L3Address" target="_parent">
<polygon fill="#fffcaf" stroke="black" points="282,-19 215,-19 215,0 282,0 282,-19"/>
<text text-anchor="middle" x="248.5" y="-7" font-family="Helvetica,sans-Serif" font-size="10.00">L3Address</text>
</a>
</g>
</g>
<!-- EncodedUnicastAddress&#45;&gt;L3Address -->
<g id="edge1" class="edge">
<title>EncodedUnicastAddress&#45;&gt;L3Address</title>
<path fill="none" stroke="black" d="M248.5,-54.75C248.5,-47.8 248.5,-37.85 248.5,-29.13"/>
<polygon fill="black" stroke="black" points="252,-29.09 248.5,-19.09 245,-29.09 252,-29.09"/>
</g>
<!-- AddressListOption -->
<g id="node3" class="node">
<title>AddressListOption</title>
<g id="a_node3"><a xlink:href="src-inet-routing-pim-AddressListOption.html" xlink:title="Class AddressListOption" target="_parent">
<polygon fill="#fffcaf" stroke="black" points="105,-129 0,-129 0,-110 105,-110 105,-129"/>
<text text-anchor="middle" x="52.5" y="-117" font-family="Helvetica,sans-Serif" font-size="10.00">AddressListOption</text>
</a>
</g>
</g>
<!-- AddressListOption&#45;&gt;EncodedUnicastAddress -->
<g id="edge2" class="edge">
<title>AddressListOption&#45;&gt;EncodedUnicastAddress</title>
<path fill="none" stroke="black" d="M83.99,-109.98C117.32,-100.97 170.1,-86.7 206.85,-76.76"/>
<polygon fill="black" stroke="black" points="208.02,-80.07 216.76,-74.08 206.2,-73.31 208.02,-80.07"/>
</g>
<!-- PimAssert -->
<g id="node4" class="node">
<title>PimAssert</title>
<g id="a_node4"><a xlink:href="src-inet-routing-pim-PimAssert.html" xlink:title="Class PimAssert" target="_parent">
<polygon fill="#fffcaf" stroke="black" points="189.5,-129 123.5,-129 123.5,-110 189.5,-110 189.5,-129"/>
<text text-anchor="middle" x="156.5" y="-117" font-family="Helvetica,sans-Serif" font-size="10.00">PimAssert</text>
</a>
</g>
</g>
<!-- PimAssert&#45;&gt;EncodedUnicastAddress -->
<g id="edge3" class="edge">
<title>PimAssert&#45;&gt;EncodedUnicastAddress</title>
<path fill="none" stroke="black" d="M171.28,-109.98C185.68,-101.69 207.81,-88.94 224.69,-79.22"/>
<polygon fill="black" stroke="black" points="226.53,-82.19 233.45,-74.17 223.04,-76.13 226.53,-82.19"/>
</g>
<!-- PimJoinPrune -->
<g id="node5" class="node">
<title>PimJoinPrune</title>
<g id="a_node5"><a xlink:href="src-inet-routing-pim-PimJoinPrune.html" xlink:title="Class PimJoinPrune" target="_parent">
<polygon fill="#fffcaf" stroke="black" points="289,-129 208,-129 208,-110 289,-110 289,-129"/>
<text text-anchor="middle" x="248.5" y="-117" font-family="Helvetica,sans-Serif" font-size="10.00">PimJoinPrune</text>
</a>
</g>
</g>
<!-- PimJoinPrune&#45;&gt;EncodedUnicastAddress -->
<g id="edge4" class="edge">
<title>PimJoinPrune&#45;&gt;EncodedUnicastAddress</title>
<path fill="none" stroke="black" d="M248.5,-109.75C248.5,-102.8 248.5,-92.85 248.5,-84.13"/>
<polygon fill="black" stroke="black" points="252,-84.09 248.5,-74.09 245,-84.09 252,-84.09"/>
</g>
<!-- PimRegisterStop -->
<g id="node6" class="node">
<title>PimRegisterStop</title>
<g id="a_node6"><a xlink:href="src-inet-routing-pim-PimRegisterStop.html" xlink:title="Class PimRegisterStop" target="_parent">
<polygon fill="#fffcaf" stroke="black" points="405.5,-129 307.5,-129 307.5,-110 405.5,-110 405.5,-129"/>
<text text-anchor="middle" x="356.5" y="-117" font-family="Helvetica,sans-Serif" font-size="10.00">PimRegisterStop</text>
</a>
</g>
</g>
<!-- PimRegisterStop&#45;&gt;EncodedUnicastAddress -->
<g id="edge5" class="edge">
<title>PimRegisterStop&#45;&gt;EncodedUnicastAddress</title>
<path fill="none" stroke="black" d="M339.15,-109.98C321.93,-101.54 295.3,-88.47 275.35,-78.68"/>
<polygon fill="black" stroke="black" points="276.69,-75.43 266.17,-74.17 273.6,-81.72 276.69,-75.43"/>
</g>
<!-- PimStateRefresh -->
<g id="node7" class="node">
<title>PimStateRefresh</title>
<g id="a_node7"><a xlink:href="src-inet-routing-pim-PimStateRefresh.html" xlink:title="Class PimStateRefresh" target="_parent">
<polygon fill="#fffcaf" stroke="black" points="521.5,-129 423.5,-129 423.5,-110 521.5,-110 521.5,-129"/>
<text text-anchor="middle" x="472.5" y="-117" font-family="Helvetica,sans-Serif" font-size="10.00">PimStateRefresh</text>
</a>
</g>
</g>
<!-- PimStateRefresh&#45;&gt;EncodedUnicastAddress -->
<g id="edge6" class="edge">
<title>PimStateRefresh&#45;&gt;EncodedUnicastAddress</title>
<path fill="none" stroke="black" d="M436.51,-109.98C398.01,-100.87 336.81,-86.4 294.76,-76.45"/>
<polygon fill="black" stroke="black" points="295.31,-72.98 284.77,-74.08 293.7,-79.79 295.31,-72.98"/>
</g>
</g>
</svg>
