<?xml version="1.0" encoding="UTF-8" standalone="no"?>
<!DOCTYPE svg PUBLIC "-//W3C//DTD SVG 1.1//EN"
 "http://www.w3.org/Graphics/SVG/1.1/DTD/svg11.dtd">
<!-- Generated by graphviz version 2.43.0 (0)
 -->
<!-- Title: opp Pages: 1 -->
<svg width="396pt" height="82pt"
 viewBox="0.00 0.00 396.00 82.00" xmlns="http://www.w3.org/2000/svg" xmlns:xlink="http://www.w3.org/1999/xlink">
<g id="graph0" class="graph" transform="scale(1 1) rotate(0) translate(4 78)">
<title>opp</title>
<polygon fill="transparent" stroke="transparent" points="-4,4 -4,-78 392,-78 392,4 -4,4"/>
<!-- BpduBase -->
<g id="node1" class="node">
<title>BpduBase</title>
<g id="a_node1"><a xlink:href="src-inet-linklayer-ieee8021d-common-BpduBase.html" xlink:title="Class BpduBase" target="_parent">
<polygon fill="#fff700" stroke="black" points="275.5,-74 210.5,-74 210.5,-55 275.5,-55 275.5,-74"/>
<text text-anchor="middle" x="243" y="-62" font-family="Helvetica,sans-Serif" font-size="10.00">BpduBase</text>
</a>
</g>
</g>
<!-- BpduProtocolVersionIdentifier -->
<g id="node2" class="node">
<title>BpduProtocolVersionIdentifier</title>
<g id="a_node2"><a xlink:href="src-inet-linklayer-ieee8021d-common-BpduProtocolVersionIdentifier.html" xlink:title="Enum BpduProtocolVersionIdentifier" target="_parent">
<polygon fill="#d0ffd0" stroke="black" points="162,-19 0,-19 0,0 162,0 162,-19"/>
<text text-anchor="middle" x="81" y="-7" font-family="Helvetica,sans-Serif" font-size="10.00">BpduProtocolVersionIdentifier</text>
</a>
</g>
</g>
<!-- BpduBase&#45;&gt;BpduProtocolVersionIdentifier -->
<g id="edge1" class="edge">
<title>BpduBase&#45;&gt;BpduProtocolVersionIdentifier</title>
<path fill="none" stroke="black" d="M216.97,-54.98C189.89,-46.13 147.29,-32.19 116.99,-22.28"/>
<polygon fill="black" stroke="black" points="117.82,-18.87 107.23,-19.08 115.65,-25.52 117.82,-18.87"/>
</g>
<!-- BpduProtocolIdentifier -->
<g id="node3" class="node">
<title>BpduProtocolIdentifier</title>
<g id="a_node3"><a xlink:href="src-inet-linklayer-ieee8021d-common-BpduProtocolIdentifier.html" xlink:title="Enum BpduProtocolIdentifier" target="_parent">
<polygon fill="#d0ffd0" stroke="black" points="305.5,-19 180.5,-19 180.5,0 305.5,0 305.5,-19"/>
<text text-anchor="middle" x="243" y="-7" font-family="Helvetica,sans-Serif" font-size="10.00">BpduProtocolIdentifier</text>
</a>
</g>
</g>
<!-- BpduBase&#45;&gt;BpduProtocolIdentifier -->
<g id="edge2" class="edge">
<title>BpduBase&#45;&gt;BpduProtocolIdentifier</title>
<path fill="none" stroke="black" d="M243,-54.75C243,-47.8 243,-37.85 243,-29.13"/>
<polygon fill="black" stroke="black" points="246.5,-29.09 243,-19.09 239.5,-29.09 246.5,-29.09"/>
</g>
<!-- BpduType -->
<g id="node4" class="node">
<title>BpduType</title>
<g id="a_node4"><a xlink:href="src-inet-linklayer-ieee8021d-common-BpduType.html" xlink:title="Enum BpduType" target="_parent">
<polygon fill="#d0ffd0" stroke="black" points="388,-19 324,-19 324,0 388,0 388,-19"/>
<text text-anchor="middle" x="356" y="-7" font-family="Helvetica,sans-Serif" font-size="10.00">BpduType</text>
</a>
</g>
</g>
<!-- BpduBase&#45;&gt;BpduType -->
<g id="edge3" class="edge">
<title>BpduBase&#45;&gt;BpduType</title>
<path fill="none" stroke="black" d="M261.16,-54.98C279.25,-46.5 307.28,-33.35 328.19,-23.54"/>
<polygon fill="black" stroke="black" points="329.95,-26.59 337.51,-19.17 326.97,-20.25 329.95,-26.59"/>
</g>
</g>
</svg>
