<?xml version="1.0" encoding="UTF-8" standalone="no"?>
<!DOCTYPE svg PUBLIC "-//W3C//DTD SVG 1.1//EN"
 "http://www.w3.org/Graphics/SVG/1.1/DTD/svg11.dtd">
<!-- Generated by graphviz version 2.43.0 (0)
 -->
<!-- Title: opp Pages: 1 -->
<svg width="282pt" height="137pt"
 viewBox="0.00 0.00 282.00 137.00" xmlns="http://www.w3.org/2000/svg" xmlns:xlink="http://www.w3.org/1999/xlink">
<g id="graph0" class="graph" transform="scale(1 1) rotate(0) translate(4 133)">
<title>opp</title>
<polygon fill="transparent" stroke="transparent" points="-4,4 -4,-133 278,-133 278,4 -4,4"/>
<!-- AodvControlPacket -->
<g id="node1" class="node">
<title>AodvControlPacket</title>
<g id="a_node1"><a xlink:href="src-inet-routing-aodv-AodvControlPacket.html" xlink:title="Class AodvControlPacket" target="_parent">
<polygon fill="#fff700" stroke="black" points="190.5,-74 81.5,-74 81.5,-55 190.5,-55 190.5,-74"/>
<text text-anchor="middle" x="136" y="-62" font-family="Helvetica,sans-Serif" font-size="10.00">AodvControlPacket</text>
</a>
</g>
</g>
<!-- Rerr -->
<g id="node3" class="node">
<title>Rerr</title>
<g id="a_node3"><a xlink:href="src-inet-routing-aodv-Rerr.html" xlink:title="Class Rerr" target="_parent">
<polygon fill="#fffcaf" stroke="black" points="54,-19 0,-19 0,0 54,0 54,-19"/>
<text text-anchor="middle" x="27" y="-7" font-family="Helvetica,sans-Serif" font-size="10.00">Rerr</text>
</a>
</g>
</g>
<!-- AodvControlPacket&#45;&gt;Rerr -->
<g id="edge2" class="edge">
<title>AodvControlPacket&#45;&gt;Rerr</title>
<path fill="none" stroke="black" d="M118.49,-54.98C98.27,-45.15 65.19,-29.07 44.83,-19.17"/>
</g>
<!-- Rrep -->
<g id="node4" class="node">
<title>Rrep</title>
<g id="a_node4"><a xlink:href="src-inet-routing-aodv-Rrep.html" xlink:title="Class Rrep" target="_parent">
<polygon fill="#fffcaf" stroke="black" points="126,-19 72,-19 72,0 126,0 126,-19"/>
<text text-anchor="middle" x="99" y="-7" font-family="Helvetica,sans-Serif" font-size="10.00">Rrep</text>
</a>
</g>
</g>
<!-- AodvControlPacket&#45;&gt;Rrep -->
<g id="edge3" class="edge">
<title>AodvControlPacket&#45;&gt;Rrep</title>
<path fill="none" stroke="black" d="M129.89,-54.75C122.99,-44.87 111.85,-28.9 105,-19.09"/>
</g>
<!-- RrepAck -->
<g id="node5" class="node">
<title>RrepAck</title>
<g id="a_node5"><a xlink:href="src-inet-routing-aodv-RrepAck.html" xlink:title="Class RrepAck" target="_parent">
<polygon fill="#fffcaf" stroke="black" points="201.5,-19 144.5,-19 144.5,0 201.5,0 201.5,-19"/>
<text text-anchor="middle" x="173" y="-7" font-family="Helvetica,sans-Serif" font-size="10.00">RrepAck</text>
</a>
</g>
</g>
<!-- AodvControlPacket&#45;&gt;RrepAck -->
<g id="edge4" class="edge">
<title>AodvControlPacket&#45;&gt;RrepAck</title>
<path fill="none" stroke="black" d="M142.11,-54.75C149.01,-44.87 160.15,-28.9 167,-19.09"/>
</g>
<!-- Rreq -->
<g id="node6" class="node">
<title>Rreq</title>
<g id="a_node6"><a xlink:href="src-inet-routing-aodv-Rreq.html" xlink:title="Class Rreq" target="_parent">
<polygon fill="#fffcaf" stroke="black" points="274,-19 220,-19 220,0 274,0 274,-19"/>
<text text-anchor="middle" x="247" y="-7" font-family="Helvetica,sans-Serif" font-size="10.00">Rreq</text>
</a>
</g>
</g>
<!-- AodvControlPacket&#45;&gt;Rreq -->
<g id="edge5" class="edge">
<title>AodvControlPacket&#45;&gt;Rreq</title>
<path fill="none" stroke="black" d="M153.83,-54.98C174.43,-45.15 208.11,-29.07 228.84,-19.17"/>
</g>
<!-- FieldsChunk -->
<g id="node2" class="node">
<title>FieldsChunk</title>
<g id="a_node2"><a xlink:href="src-inet-common-packet-chunk-FieldsChunk.html" xlink:title="Class FieldsChunk" target="_parent">
<polygon fill="#fffcaf" stroke="black" points="173.5,-129 98.5,-129 98.5,-110 173.5,-110 173.5,-129"/>
<text text-anchor="middle" x="136" y="-117" font-family="Helvetica,sans-Serif" font-size="10.00">FieldsChunk</text>
</a>
</g>
</g>
<!-- FieldsChunk&#45;&gt;AodvControlPacket -->
<g id="edge1" class="edge">
<title>FieldsChunk&#45;&gt;AodvControlPacket</title>
<path fill="none" stroke="black" d="M136,-109.75C136,-99.87 136,-83.9 136,-74.09"/>
</g>
</g>
</svg>
