<?xml version="1.0" encoding="UTF-8" standalone="no"?>
<!DOCTYPE svg PUBLIC "-//W3C//DTD SVG 1.1//EN"
 "http://www.w3.org/Graphics/SVG/1.1/DTD/svg11.dtd">
<!-- Generated by graphviz version 2.43.0 (0)
 -->
<!-- Title: opp Pages: 1 -->
<svg width="202pt" height="137pt"
 viewBox="0.00 0.00 202.00 137.00" xmlns="http://www.w3.org/2000/svg" xmlns:xlink="http://www.w3.org/1999/xlink">
<g id="graph0" class="graph" transform="scale(1 1) rotate(0) translate(4 133)">
<title>opp</title>
<polygon fill="transparent" stroke="transparent" points="-4,4 -4,-133 198,-133 198,4 -4,4"/>
<!-- EigrpTlvParameter -->
<g id="node1" class="node">
<title>EigrpTlvParameter</title>
<g id="a_node1"><a xlink:href="src-inet-routing-eigrp-messages-EigrpTlvParameter.html" xlink:title="Struct EigrpTlvParameter" target="_parent">
<polygon fill="#9090ff" stroke="black" points="150.5,-74 43.5,-74 43.5,-55 150.5,-55 150.5,-74"/>
<text text-anchor="middle" x="97" y="-62" font-family="Helvetica,sans-Serif" font-size="10.00">EigrpTlvParameter</text>
</a>
</g>
</g>
<!-- EigrpKValues -->
<g id="node2" class="node">
<title>EigrpKValues</title>
<g id="a_node2"><a xlink:href="src-inet-routing-eigrp-messages-EigrpKValues.html" xlink:title="Struct EigrpKValues" target="_parent">
<polygon fill="#d0d0ff" stroke="black" points="137.5,-19 56.5,-19 56.5,0 137.5,0 137.5,-19"/>
<text text-anchor="middle" x="97" y="-7" font-family="Helvetica,sans-Serif" font-size="10.00">EigrpKValues</text>
</a>
</g>
</g>
<!-- EigrpTlvParameter&#45;&gt;EigrpKValues -->
<g id="edge1" class="edge">
<title>EigrpTlvParameter&#45;&gt;EigrpKValues</title>
<path fill="none" stroke="black" d="M97,-54.75C97,-47.8 97,-37.85 97,-29.13"/>
<polygon fill="black" stroke="black" points="100.5,-29.09 97,-19.09 93.5,-29.09 100.5,-29.09"/>
</g>
<!-- EigrpIpv4Hello -->
<g id="node3" class="node">
<title>EigrpIpv4Hello</title>
<g id="a_node3"><a xlink:href="src-inet-routing-eigrp-messages-EigrpIpv4Hello.html" xlink:title="Class EigrpIpv4Hello" target="_parent">
<polygon fill="#fffcaf" stroke="black" points="88,-129 0,-129 0,-110 88,-110 88,-129"/>
<text text-anchor="middle" x="44" y="-117" font-family="Helvetica,sans-Serif" font-size="10.00">EigrpIpv4Hello</text>
</a>
</g>
</g>
<!-- EigrpIpv4Hello&#45;&gt;EigrpTlvParameter -->
<g id="edge2" class="edge">
<title>EigrpIpv4Hello&#45;&gt;EigrpTlvParameter</title>
<path fill="none" stroke="black" d="M52.75,-109.75C60.47,-102.03 71.9,-90.6 81.22,-81.28"/>
<polygon fill="black" stroke="black" points="83.81,-83.64 88.41,-74.09 78.86,-78.69 83.81,-83.64"/>
</g>
<!-- EigrpIpv6Hello -->
<g id="node4" class="node">
<title>EigrpIpv6Hello</title>
<g id="a_node4"><a xlink:href="src-inet-routing-eigrp-messages-EigrpIpv6Hello.html" xlink:title="Class EigrpIpv6Hello" target="_parent">
<polygon fill="#fffcaf" stroke="black" points="194,-129 106,-129 106,-110 194,-110 194,-129"/>
<text text-anchor="middle" x="150" y="-117" font-family="Helvetica,sans-Serif" font-size="10.00">EigrpIpv6Hello</text>
</a>
</g>
</g>
<!-- EigrpIpv6Hello&#45;&gt;EigrpTlvParameter -->
<g id="edge3" class="edge">
<title>EigrpIpv6Hello&#45;&gt;EigrpTlvParameter</title>
<path fill="none" stroke="black" d="M141.25,-109.75C133.53,-102.03 122.1,-90.6 112.78,-81.28"/>
<polygon fill="black" stroke="black" points="115.14,-78.69 105.59,-74.09 110.19,-83.64 115.14,-78.69"/>
</g>
</g>
</svg>
