<?xml version="1.0" encoding="UTF-8" standalone="no"?>
<!DOCTYPE svg PUBLIC "-//W3C//DTD SVG 1.1//EN"
 "http://www.w3.org/Graphics/SVG/1.1/DTD/svg11.dtd">
<!-- Generated by graphviz version 2.43.0 (0)
 -->
<!-- Title: opp Pages: 1 -->
<svg width="816pt" height="82pt"
 viewBox="0.00 0.00 816.00 82.00" xmlns="http://www.w3.org/2000/svg" xmlns:xlink="http://www.w3.org/1999/xlink">
<g id="graph0" class="graph" transform="scale(1 1) rotate(0) translate(4 78)">
<title>opp</title>
<polygon fill="transparent" stroke="transparent" points="-4,4 -4,-78 812,-78 812,4 -4,4"/>
<!-- TcpCommand -->
<g id="node1" class="node">
<title>TcpCommand</title>
<g id="a_node1"><a xlink:href="src-inet-transportlayer-contract-tcp-TcpCommand.html" xlink:title="Class TcpCommand" target="_parent">
<polygon fill="#fff700" stroke="black" points="436.5,-74 353.5,-74 353.5,-55 436.5,-55 436.5,-74"/>
<text text-anchor="middle" x="395" y="-62" font-family="Helvetica,sans-Serif" font-size="10.00">TcpCommand</text>
</a>
</g>
</g>
<!-- TcpAcceptCommand -->
<g id="node2" class="node">
<title>TcpAcceptCommand</title>
<g id="a_node2"><a xlink:href="src-inet-transportlayer-contract-tcp-TcpAcceptCommand.html" xlink:title="Class TcpAcceptCommand" target="_parent">
<polygon fill="#fffcaf" stroke="black" points="116,-19 0,-19 0,0 116,0 116,-19"/>
<text text-anchor="middle" x="58" y="-7" font-family="Helvetica,sans-Serif" font-size="10.00">TcpAcceptCommand</text>
</a>
</g>
</g>
<!-- TcpCommand&#45;&gt;TcpAcceptCommand -->
<g id="edge1" class="edge">
<title>TcpCommand&#45;&gt;TcpAcceptCommand</title>
<path fill="none" stroke="black" d="M353.34,-56.95C292.5,-47.38 179.28,-29.57 112.08,-19.01"/>
</g>
<!-- TcpAvailableInfo -->
<g id="node3" class="node">
<title>TcpAvailableInfo</title>
<g id="a_node3"><a xlink:href="src-inet-transportlayer-contract-tcp-TcpAvailableInfo.html" xlink:title="Class TcpAvailableInfo" target="_parent">
<polygon fill="#fffcaf" stroke="black" points="230,-19 134,-19 134,0 230,0 230,-19"/>
<text text-anchor="middle" x="182" y="-7" font-family="Helvetica,sans-Serif" font-size="10.00">TcpAvailableInfo</text>
</a>
</g>
</g>
<!-- TcpCommand&#45;&gt;TcpAvailableInfo -->
<g id="edge2" class="edge">
<title>TcpCommand&#45;&gt;TcpAvailableInfo</title>
<path fill="none" stroke="black" d="M360.78,-54.98C321.15,-45.12 256.23,-28.97 216.49,-19.08"/>
</g>
<!-- TcpConnectInfo -->
<g id="node4" class="node">
<title>TcpConnectInfo</title>
<g id="a_node4"><a xlink:href="src-inet-transportlayer-contract-tcp-TcpConnectInfo.html" xlink:title="Class TcpConnectInfo" target="_parent">
<polygon fill="#fffcaf" stroke="black" points="339.5,-19 248.5,-19 248.5,0 339.5,0 339.5,-19"/>
<text text-anchor="middle" x="294" y="-7" font-family="Helvetica,sans-Serif" font-size="10.00">TcpConnectInfo</text>
</a>
</g>
</g>
<!-- TcpCommand&#45;&gt;TcpConnectInfo -->
<g id="edge3" class="edge">
<title>TcpCommand&#45;&gt;TcpConnectInfo</title>
<path fill="none" stroke="black" d="M378.77,-54.98C360.04,-45.15 329.38,-29.07 310.52,-19.17"/>
</g>
<!-- TcpErrorInfo -->
<g id="node5" class="node">
<title>TcpErrorInfo</title>
<g id="a_node5"><a xlink:href="src-inet-transportlayer-contract-tcp-TcpErrorInfo.html" xlink:title="Class TcpErrorInfo" target="_parent">
<polygon fill="#fffcaf" stroke="black" points="432,-19 358,-19 358,0 432,0 432,-19"/>
<text text-anchor="middle" x="395" y="-7" font-family="Helvetica,sans-Serif" font-size="10.00">TcpErrorInfo</text>
</a>
</g>
</g>
<!-- TcpCommand&#45;&gt;TcpErrorInfo -->
<g id="edge4" class="edge">
<title>TcpCommand&#45;&gt;TcpErrorInfo</title>
<path fill="none" stroke="black" d="M395,-54.75C395,-44.87 395,-28.9 395,-19.09"/>
</g>
<!-- TcpOpenCommand -->
<g id="node6" class="node">
<title>TcpOpenCommand</title>
<g id="a_node6"><a xlink:href="src-inet-transportlayer-contract-tcp-TcpOpenCommand.html" xlink:title="Class TcpOpenCommand" target="_parent">
<polygon fill="#fffcaf" stroke="black" points="558,-19 450,-19 450,0 558,0 558,-19"/>
<text text-anchor="middle" x="504" y="-7" font-family="Helvetica,sans-Serif" font-size="10.00">TcpOpenCommand</text>
</a>
</g>
</g>
<!-- TcpCommand&#45;&gt;TcpOpenCommand -->
<g id="edge5" class="edge">
<title>TcpCommand&#45;&gt;TcpOpenCommand</title>
<path fill="none" stroke="black" d="M412.51,-54.98C432.73,-45.15 465.81,-29.07 486.17,-19.17"/>
</g>
<!-- TcpSetOptionCommand -->
<g id="node7" class="node">
<title>TcpSetOptionCommand</title>
<g id="a_node7"><a xlink:href="src-inet-transportlayer-contract-tcp-TcpSetOptionCommand.html" xlink:title="Class TcpSetOptionCommand" target="_parent">
<polygon fill="#fffcaf" stroke="black" points="707.5,-19 576.5,-19 576.5,0 707.5,0 707.5,-19"/>
<text text-anchor="middle" x="642" y="-7" font-family="Helvetica,sans-Serif" font-size="10.00">TcpSetOptionCommand</text>
</a>
</g>
</g>
<!-- TcpCommand&#45;&gt;TcpSetOptionCommand -->
<g id="edge6" class="edge">
<title>TcpCommand&#45;&gt;TcpSetOptionCommand</title>
<path fill="none" stroke="black" d="M434.68,-54.98C480.64,-45.12 555.92,-28.97 602,-19.08"/>
</g>
<!-- TcpStatusInfo -->
<g id="node8" class="node">
<title>TcpStatusInfo</title>
<g id="a_node8"><a xlink:href="src-inet-transportlayer-contract-tcp-TcpStatusInfo.html" xlink:title="Class TcpStatusInfo" target="_parent">
<polygon fill="#fffcaf" stroke="black" points="808,-19 726,-19 726,0 808,0 808,-19"/>
<text text-anchor="middle" x="767" y="-7" font-family="Helvetica,sans-Serif" font-size="10.00">TcpStatusInfo</text>
</a>
</g>
</g>
<!-- TcpCommand&#45;&gt;TcpStatusInfo -->
<g id="edge7" class="edge">
<title>TcpCommand&#45;&gt;TcpStatusInfo</title>
<path fill="none" stroke="black" d="M436.74,-58.15C498.2,-50.18 616.6,-34.47 717,-19 719.87,-18.56 722.83,-18.09 725.82,-17.61"/>
</g>
</g>
</svg>
