<?xml version="1.0" encoding="UTF-8" standalone="no"?>
<!DOCTYPE svg PUBLIC "-//W3C//DTD SVG 1.1//EN"
 "http://www.w3.org/Graphics/SVG/1.1/DTD/svg11.dtd">
<!-- Generated by graphviz version 2.43.0 (0)
 -->
<!-- Title: opp Pages: 1 -->
<svg width="250pt" height="137pt"
 viewBox="0.00 0.00 249.50 137.00" xmlns="http://www.w3.org/2000/svg" xmlns:xlink="http://www.w3.org/1999/xlink">
<g id="graph0" class="graph" transform="scale(1 1) rotate(0) translate(4 133)">
<title>opp</title>
<polygon fill="transparent" stroke="transparent" points="-4,4 -4,-133 245.5,-133 245.5,4 -4,4"/>
<!-- Ieee80211ModeTagBase -->
<g id="node1" class="node">
<title>Ieee80211ModeTagBase</title>
<g id="a_node1"><a xlink:href="src-inet-physicallayer-wireless-ieee80211-packetlevel-Ieee80211ModeTagBase.html" xlink:title="Class Ieee80211ModeTagBase" target="_parent">
<polygon fill="#fff700" stroke="black" points="187.5,-74 52.5,-74 52.5,-55 187.5,-55 187.5,-74"/>
<text text-anchor="middle" x="120" y="-62" font-family="Helvetica,sans-Serif" font-size="10.00">Ieee80211ModeTagBase</text>
</a>
</g>
</g>
<!-- Ieee80211ModeInd -->
<g id="node3" class="node">
<title>Ieee80211ModeInd</title>
<g id="a_node3"><a xlink:href="src-inet-physicallayer-wireless-ieee80211-packetlevel-Ieee80211ModeInd.html" xlink:title="Class Ieee80211ModeInd" target="_parent">
<polygon fill="#fffcaf" stroke="black" points="110,-19 0,-19 0,0 110,0 110,-19"/>
<text text-anchor="middle" x="55" y="-7" font-family="Helvetica,sans-Serif" font-size="10.00">Ieee80211ModeInd</text>
</a>
</g>
</g>
<!-- Ieee80211ModeTagBase&#45;&gt;Ieee80211ModeInd -->
<g id="edge2" class="edge">
<title>Ieee80211ModeTagBase&#45;&gt;Ieee80211ModeInd</title>
<path fill="none" stroke="black" d="M109.56,-54.98C97.5,-45.15 77.77,-29.07 65.63,-19.17"/>
</g>
<!-- Ieee80211ModeReq -->
<g id="node4" class="node">
<title>Ieee80211ModeReq</title>
<g id="a_node4"><a xlink:href="src-inet-physicallayer-wireless-ieee80211-packetlevel-Ieee80211ModeReq.html" xlink:title="Class Ieee80211ModeReq" target="_parent">
<polygon fill="#fffcaf" stroke="black" points="241.5,-19 128.5,-19 128.5,0 241.5,0 241.5,-19"/>
<text text-anchor="middle" x="185" y="-7" font-family="Helvetica,sans-Serif" font-size="10.00">Ieee80211ModeReq</text>
</a>
</g>
</g>
<!-- Ieee80211ModeTagBase&#45;&gt;Ieee80211ModeReq -->
<g id="edge3" class="edge">
<title>Ieee80211ModeTagBase&#45;&gt;Ieee80211ModeReq</title>
<path fill="none" stroke="black" d="M130.44,-54.98C142.5,-45.15 162.23,-29.07 174.37,-19.17"/>
</g>
<!-- TagBase -->
<g id="node2" class="node">
<title>TagBase</title>
<g id="a_node2"><a xlink:href="src-inet-common-TagBase.html" xlink:title="Class TagBase" target="_parent">
<polygon fill="#fffcaf" stroke="black" points="148.5,-129 91.5,-129 91.5,-110 148.5,-110 148.5,-129"/>
<text text-anchor="middle" x="120" y="-117" font-family="Helvetica,sans-Serif" font-size="10.00">TagBase</text>
</a>
</g>
</g>
<!-- TagBase&#45;&gt;Ieee80211ModeTagBase -->
<g id="edge1" class="edge">
<title>TagBase&#45;&gt;Ieee80211ModeTagBase</title>
<path fill="none" stroke="black" d="M120,-109.75C120,-99.87 120,-83.9 120,-74.09"/>
</g>
</g>
</svg>
