<?xml version="1.0" encoding="UTF-8" standalone="no"?>
<!DOCTYPE svg PUBLIC "-//W3C//DTD SVG 1.1//EN"
 "http://www.w3.org/Graphics/SVG/1.1/DTD/svg11.dtd">
<!-- Generated by graphviz version 2.43.0 (0)
 -->
<!-- Title: opp Pages: 1 -->
<svg width="192pt" height="137pt"
 viewBox="0.00 0.00 192.00 137.00" xmlns="http://www.w3.org/2000/svg" xmlns:xlink="http://www.w3.org/1999/xlink">
<g id="graph0" class="graph" transform="scale(1 1) rotate(0) translate(4 133)">
<title>opp</title>
<polygon fill="transparent" stroke="transparent" points="-4,4 -4,-133 188,-133 188,4 -4,4"/>
<!-- Ospfv3NetworkLsa -->
<g id="node1" class="node">
<title>Ospfv3NetworkLsa</title>
<g id="a_node1"><a xlink:href="src-inet-routing-ospfv3-Ospfv3NetworkLsa.html" xlink:title="Class Ospfv3NetworkLsa" target="_parent">
<polygon fill="#fff700" stroke="black" points="143,-74 34,-74 34,-55 143,-55 143,-74"/>
<text text-anchor="middle" x="88.5" y="-62" font-family="Helvetica,sans-Serif" font-size="10.00">Ospfv3NetworkLsa</text>
</a>
</g>
</g>
<!-- Ipv4Address -->
<g id="node2" class="node">
<title>Ipv4Address</title>
<g id="a_node2"><a xlink:href="src-inet-networklayer-contract-ipv4-Ipv4Address.html" xlink:title="Class Ipv4Address" target="_parent">
<polygon fill="#fffcaf" stroke="black" points="77,-19 0,-19 0,0 77,0 77,-19"/>
<text text-anchor="middle" x="38.5" y="-7" font-family="Helvetica,sans-Serif" font-size="10.00">Ipv4Address</text>
</a>
</g>
</g>
<!-- Ospfv3NetworkLsa&#45;&gt;Ipv4Address -->
<g id="edge1" class="edge">
<title>Ospfv3NetworkLsa&#45;&gt;Ipv4Address</title>
<path fill="none" stroke="black" d="M80.24,-54.75C73.04,-47.11 62.39,-35.82 53.65,-26.56"/>
<polygon fill="black" stroke="black" points="56.01,-23.96 46.6,-19.09 50.92,-28.76 56.01,-23.96"/>
</g>
<!-- Ospfv3Options -->
<g id="node3" class="node">
<title>Ospfv3Options</title>
<g id="a_node3"><a xlink:href="src-inet-routing-ospfv3-Ospfv3Options.html" xlink:title="Struct Ospfv3Options" target="_parent">
<polygon fill="#d0d0ff" stroke="black" points="184,-19 95,-19 95,0 184,0 184,-19"/>
<text text-anchor="middle" x="139.5" y="-7" font-family="Helvetica,sans-Serif" font-size="10.00">Ospfv3Options</text>
</a>
</g>
</g>
<!-- Ospfv3NetworkLsa&#45;&gt;Ospfv3Options -->
<g id="edge2" class="edge">
<title>Ospfv3NetworkLsa&#45;&gt;Ospfv3Options</title>
<path fill="none" stroke="black" d="M96.92,-54.75C104.27,-47.11 115.13,-35.82 124.04,-26.56"/>
<polygon fill="black" stroke="black" points="126.82,-28.72 131.24,-19.09 121.78,-23.87 126.82,-28.72"/>
</g>
<!-- Ospfv3LinkStateUpdatePacket -->
<g id="node4" class="node">
<title>Ospfv3LinkStateUpdatePacket</title>
<g id="a_node4"><a xlink:href="src-inet-routing-ospfv3-Ospfv3LinkStateUpdatePacket.html" xlink:title="Class Ospfv3LinkStateUpdatePacket" target="_parent">
<polygon fill="#fffcaf" stroke="black" points="170.5,-129 6.5,-129 6.5,-110 170.5,-110 170.5,-129"/>
<text text-anchor="middle" x="88.5" y="-117" font-family="Helvetica,sans-Serif" font-size="10.00">Ospfv3LinkStateUpdatePacket</text>
</a>
</g>
</g>
<!-- Ospfv3LinkStateUpdatePacket&#45;&gt;Ospfv3NetworkLsa -->
<g id="edge3" class="edge">
<title>Ospfv3LinkStateUpdatePacket&#45;&gt;Ospfv3NetworkLsa</title>
<path fill="none" stroke="black" d="M88.5,-109.75C88.5,-102.8 88.5,-92.85 88.5,-84.13"/>
<polygon fill="black" stroke="black" points="92,-84.09 88.5,-74.09 85,-84.09 92,-84.09"/>
</g>
</g>
</svg>
