<?xml version="1.0" encoding="UTF-8" standalone="no"?>
<!DOCTYPE svg PUBLIC "-//W3C//DTD SVG 1.1//EN"
 "http://www.w3.org/Graphics/SVG/1.1/DTD/svg11.dtd">
<!-- Generated by graphviz version 2.43.0 (0)
 -->
<!-- Title: opp Pages: 1 -->
<svg width="172pt" height="137pt"
 viewBox="0.00 0.00 172.00 137.00" xmlns="http://www.w3.org/2000/svg" xmlns:xlink="http://www.w3.org/1999/xlink">
<g id="graph0" class="graph" transform="scale(1 1) rotate(0) translate(4 133)">
<title>opp</title>
<polygon fill="transparent" stroke="transparent" points="-4,4 -4,-133 168,-133 168,4 -4,4"/>
<!-- Ospfv2Lsa -->
<g id="node1" class="node">
<title>Ospfv2Lsa</title>
<g id="a_node1"><a xlink:href="src-inet-routing-ospfv2-Ospfv2Lsa.html" xlink:title="Class Ospfv2Lsa" target="_parent">
<polygon fill="#fff700" stroke="black" points="116,-74 48,-74 48,-55 116,-55 116,-74"/>
<text text-anchor="middle" x="82" y="-62" font-family="Helvetica,sans-Serif" font-size="10.00">Ospfv2Lsa</text>
</a>
</g>
</g>
<!-- Ospfv2LsaHeader -->
<g id="node2" class="node">
<title>Ospfv2LsaHeader</title>
<g id="a_node2"><a xlink:href="src-inet-routing-ospfv2-Ospfv2LsaHeader.html" xlink:title="Class Ospfv2LsaHeader" target="_parent">
<polygon fill="#fffcaf" stroke="black" points="133.5,-19 30.5,-19 30.5,0 133.5,0 133.5,-19"/>
<text text-anchor="middle" x="82" y="-7" font-family="Helvetica,sans-Serif" font-size="10.00">Ospfv2LsaHeader</text>
</a>
</g>
</g>
<!-- Ospfv2Lsa&#45;&gt;Ospfv2LsaHeader -->
<g id="edge1" class="edge">
<title>Ospfv2Lsa&#45;&gt;Ospfv2LsaHeader</title>
<path fill="none" stroke="black" d="M82,-54.75C82,-47.8 82,-37.85 82,-29.13"/>
<polygon fill="black" stroke="black" points="85.5,-29.09 82,-19.09 78.5,-29.09 85.5,-29.09"/>
</g>
<!-- Ospfv2LinkStateUpdatePacket -->
<g id="node3" class="node">
<title>Ospfv2LinkStateUpdatePacket</title>
<g id="a_node3"><a xlink:href="src-inet-routing-ospfv2-Ospfv2LinkStateUpdatePacket.html" xlink:title="Class Ospfv2LinkStateUpdatePacket" target="_parent">
<polygon fill="#fffcaf" stroke="black" points="164,-129 0,-129 0,-110 164,-110 164,-129"/>
<text text-anchor="middle" x="82" y="-117" font-family="Helvetica,sans-Serif" font-size="10.00">Ospfv2LinkStateUpdatePacket</text>
</a>
</g>
</g>
<!-- Ospfv2LinkStateUpdatePacket&#45;&gt;Ospfv2Lsa -->
<g id="edge2" class="edge">
<title>Ospfv2LinkStateUpdatePacket&#45;&gt;Ospfv2Lsa</title>
<path fill="none" stroke="black" d="M82,-109.75C82,-102.8 82,-92.85 82,-84.13"/>
<polygon fill="black" stroke="black" points="85.5,-84.09 82,-74.09 78.5,-84.09 85.5,-84.09"/>
</g>
</g>
</svg>
