<?xml version="1.0" encoding="UTF-8" standalone="no"?>
<!DOCTYPE svg PUBLIC "-//W3C//DTD SVG 1.1//EN"
 "http://www.w3.org/Graphics/SVG/1.1/DTD/svg11.dtd">
<!-- Generated by graphviz version 2.43.0 (0)
 -->
<!-- Title: opp Pages: 1 -->
<svg width="1026pt" height="82pt"
 viewBox="0.00 0.00 1026.00 82.00" xmlns="http://www.w3.org/2000/svg" xmlns:xlink="http://www.w3.org/1999/xlink">
<g id="graph0" class="graph" transform="scale(1 1) rotate(0) translate(4 78)">
<title>opp</title>
<polygon fill="transparent" stroke="transparent" points="-4,4 -4,-78 1022,-78 1022,4 -4,4"/>
<!-- Ieee80211PrimRequest -->
<g id="node1" class="node">
<title>Ieee80211PrimRequest</title>
<g id="a_node1"><a xlink:href="src-inet-linklayer-ieee80211-mgmt-Ieee80211PrimRequest.html" xlink:title="Class Ieee80211PrimRequest" target="_parent">
<polygon fill="#fff700" stroke="black" points="586,-74 456,-74 456,-55 586,-55 586,-74"/>
<text text-anchor="middle" x="521" y="-62" font-family="Helvetica,sans-Serif" font-size="10.00">Ieee80211PrimRequest</text>
</a>
</g>
</g>
<!-- Ieee80211Prim_AssociateRequest -->
<g id="node2" class="node">
<title>Ieee80211Prim_AssociateRequest</title>
<g id="a_node2"><a xlink:href="src-inet-linklayer-ieee80211-mgmt-Ieee80211Prim_AssociateRequest.html" xlink:title="Class Ieee80211Prim_AssociateRequest" target="_parent">
<polygon fill="#fffcaf" stroke="black" points="182,-19 0,-19 0,0 182,0 182,-19"/>
<text text-anchor="middle" x="91" y="-7" font-family="Helvetica,sans-Serif" font-size="10.00">Ieee80211Prim_AssociateRequest</text>
</a>
</g>
</g>
<!-- Ieee80211PrimRequest&#45;&gt;Ieee80211Prim_AssociateRequest -->
<g id="edge1" class="edge">
<title>Ieee80211PrimRequest&#45;&gt;Ieee80211Prim_AssociateRequest</title>
<path fill="none" stroke="black" d="M455.69,-55.45C375.93,-45.62 241.6,-29.06 160.13,-19.02"/>
</g>
<!-- Ieee80211Prim_AuthenticateRequest -->
<g id="node3" class="node">
<title>Ieee80211Prim_AuthenticateRequest</title>
<g id="a_node3"><a xlink:href="src-inet-linklayer-ieee80211-mgmt-Ieee80211Prim_AuthenticateRequest.html" xlink:title="Class Ieee80211Prim_AuthenticateRequest" target="_parent">
<polygon fill="#fffcaf" stroke="black" points="397.5,-19 200.5,-19 200.5,0 397.5,0 397.5,-19"/>
<text text-anchor="middle" x="299" y="-7" font-family="Helvetica,sans-Serif" font-size="10.00">Ieee80211Prim_AuthenticateRequest</text>
</a>
</g>
</g>
<!-- Ieee80211PrimRequest&#45;&gt;Ieee80211Prim_AuthenticateRequest -->
<g id="edge2" class="edge">
<title>Ieee80211PrimRequest&#45;&gt;Ieee80211Prim_AuthenticateRequest</title>
<path fill="none" stroke="black" d="M485.33,-54.98C444.03,-45.12 376.37,-28.97 334.95,-19.08"/>
</g>
<!-- Ieee80211Prim_DeauthenticateRequest -->
<g id="node4" class="node">
<title>Ieee80211Prim_DeauthenticateRequest</title>
<g id="a_node4"><a xlink:href="src-inet-linklayer-ieee80211-mgmt-Ieee80211Prim_DeauthenticateRequest.html" xlink:title="Class Ieee80211Prim_DeauthenticateRequest" target="_parent">
<polygon fill="#fffcaf" stroke="black" points="626,-19 416,-19 416,0 626,0 626,-19"/>
<text text-anchor="middle" x="521" y="-7" font-family="Helvetica,sans-Serif" font-size="10.00">Ieee80211Prim_DeauthenticateRequest</text>
</a>
</g>
</g>
<!-- Ieee80211PrimRequest&#45;&gt;Ieee80211Prim_DeauthenticateRequest -->
<g id="edge3" class="edge">
<title>Ieee80211PrimRequest&#45;&gt;Ieee80211Prim_DeauthenticateRequest</title>
<path fill="none" stroke="black" d="M521,-54.75C521,-44.87 521,-28.9 521,-19.09"/>
</g>
<!-- Ieee80211Prim_DisassociateRequest -->
<g id="node5" class="node">
<title>Ieee80211Prim_DisassociateRequest</title>
<g id="a_node5"><a xlink:href="src-inet-linklayer-ieee80211-mgmt-Ieee80211Prim_DisassociateRequest.html" xlink:title="Class Ieee80211Prim_DisassociateRequest" target="_parent">
<polygon fill="#fffcaf" stroke="black" points="841.5,-19 644.5,-19 644.5,0 841.5,0 841.5,-19"/>
<text text-anchor="middle" x="743" y="-7" font-family="Helvetica,sans-Serif" font-size="10.00">Ieee80211Prim_DisassociateRequest</text>
</a>
</g>
</g>
<!-- Ieee80211PrimRequest&#45;&gt;Ieee80211Prim_DisassociateRequest -->
<g id="edge4" class="edge">
<title>Ieee80211PrimRequest&#45;&gt;Ieee80211Prim_DisassociateRequest</title>
<path fill="none" stroke="black" d="M556.67,-54.98C597.97,-45.12 665.63,-28.97 707.05,-19.08"/>
</g>
<!-- Ieee80211Prim_ScanRequest -->
<g id="node6" class="node">
<title>Ieee80211Prim_ScanRequest</title>
<g id="a_node6"><a xlink:href="src-inet-linklayer-ieee80211-mgmt-Ieee80211Prim_ScanRequest.html" xlink:title="Class Ieee80211Prim_ScanRequest" target="_parent">
<polygon fill="#fffcaf" stroke="black" points="1018,-19 860,-19 860,0 1018,0 1018,-19"/>
<text text-anchor="middle" x="939" y="-7" font-family="Helvetica,sans-Serif" font-size="10.00">Ieee80211Prim_ScanRequest</text>
</a>
</g>
</g>
<!-- Ieee80211PrimRequest&#45;&gt;Ieee80211Prim_ScanRequest -->
<g id="edge5" class="edge">
<title>Ieee80211PrimRequest&#45;&gt;Ieee80211Prim_ScanRequest</title>
<path fill="none" stroke="black" d="M586.31,-55.22C664.04,-45.36 793.15,-28.99 871.73,-19.03"/>
</g>
</g>
</svg>
