<?xml version="1.0" encoding="UTF-8" standalone="no"?>
<!DOCTYPE svg PUBLIC "-//W3C//DTD SVG 1.1//EN"
 "http://www.w3.org/Graphics/SVG/1.1/DTD/svg11.dtd">
<!-- Generated by graphviz version 2.43.0 (0)
 -->
<!-- Title: opp Pages: 1 -->
<svg width="230pt" height="137pt"
 viewBox="0.00 0.00 229.50 137.00" xmlns="http://www.w3.org/2000/svg" xmlns:xlink="http://www.w3.org/1999/xlink">
<g id="graph0" class="graph" transform="scale(1 1) rotate(0) translate(4 133)">
<title>opp</title>
<polygon fill="transparent" stroke="transparent" points="-4,4 -4,-133 225.5,-133 225.5,4 -4,4"/>
<!-- Ospfv2AsExternalLsaContents -->
<g id="node1" class="node">
<title>Ospfv2AsExternalLsaContents</title>
<g id="a_node1"><a xlink:href="src-inet-routing-ospfv2-Ospfv2AsExternalLsaContents.html" xlink:title="Class Ospfv2AsExternalLsaContents" target="_parent">
<polygon fill="#fff700" stroke="black" points="205,-74 41,-74 41,-55 205,-55 205,-74"/>
<text text-anchor="middle" x="123" y="-62" font-family="Helvetica,sans-Serif" font-size="10.00">Ospfv2AsExternalLsaContents</text>
</a>
</g>
</g>
<!-- Ospfv2ExternalTosInfo -->
<g id="node2" class="node">
<title>Ospfv2ExternalTosInfo</title>
<g id="a_node2"><a xlink:href="src-inet-routing-ospfv2-Ospfv2ExternalTosInfo.html" xlink:title="Struct Ospfv2ExternalTosInfo" target="_parent">
<polygon fill="#d0d0ff" stroke="black" points="126,-19 0,-19 0,0 126,0 126,-19"/>
<text text-anchor="middle" x="63" y="-7" font-family="Helvetica,sans-Serif" font-size="10.00">Ospfv2ExternalTosInfo</text>
</a>
</g>
</g>
<!-- Ospfv2AsExternalLsaContents&#45;&gt;Ospfv2ExternalTosInfo -->
<g id="edge1" class="edge">
<title>Ospfv2AsExternalLsaContents&#45;&gt;Ospfv2ExternalTosInfo</title>
<path fill="none" stroke="black" d="M113.36,-54.98C104.49,-47.15 91.13,-35.34 80.39,-25.86"/>
<polygon fill="black" stroke="black" points="82.63,-23.17 72.82,-19.17 77.99,-28.41 82.63,-23.17"/>
</g>
<!-- Ipv4Address -->
<g id="node3" class="node">
<title>Ipv4Address</title>
<g id="a_node3"><a xlink:href="src-inet-networklayer-contract-ipv4-Ipv4Address.html" xlink:title="Class Ipv4Address" target="_parent">
<polygon fill="#fffcaf" stroke="black" points="221.5,-19 144.5,-19 144.5,0 221.5,0 221.5,-19"/>
<text text-anchor="middle" x="183" y="-7" font-family="Helvetica,sans-Serif" font-size="10.00">Ipv4Address</text>
</a>
</g>
</g>
<!-- Ospfv2AsExternalLsaContents&#45;&gt;Ipv4Address -->
<g id="edge2" class="edge">
<title>Ospfv2AsExternalLsaContents&#45;&gt;Ipv4Address</title>
<path fill="none" stroke="black" d="M132.64,-54.98C141.51,-47.15 154.87,-35.34 165.61,-25.86"/>
<polygon fill="black" stroke="black" points="168.01,-28.41 173.18,-19.17 163.37,-23.17 168.01,-28.41"/>
</g>
<!-- Ospfv2AsExternalLsa -->
<g id="node4" class="node">
<title>Ospfv2AsExternalLsa</title>
<g id="a_node4"><a xlink:href="src-inet-routing-ospfv2-Ospfv2AsExternalLsa.html" xlink:title="Class Ospfv2AsExternalLsa" target="_parent">
<polygon fill="#fffcaf" stroke="black" points="183,-129 63,-129 63,-110 183,-110 183,-129"/>
<text text-anchor="middle" x="123" y="-117" font-family="Helvetica,sans-Serif" font-size="10.00">Ospfv2AsExternalLsa</text>
</a>
</g>
</g>
<!-- Ospfv2AsExternalLsa&#45;&gt;Ospfv2AsExternalLsaContents -->
<g id="edge3" class="edge">
<title>Ospfv2AsExternalLsa&#45;&gt;Ospfv2AsExternalLsaContents</title>
<path fill="none" stroke="black" d="M123,-109.75C123,-102.8 123,-92.85 123,-84.13"/>
<polygon fill="black" stroke="black" points="126.5,-84.09 123,-74.09 119.5,-84.09 126.5,-84.09"/>
</g>
</g>
</svg>
