<?xml version="1.0" encoding="UTF-8" standalone="no"?>
<!DOCTYPE svg PUBLIC "-//W3C//DTD SVG 1.1//EN"
 "http://www.w3.org/Graphics/SVG/1.1/DTD/svg11.dtd">
<!-- Generated by graphviz version 2.43.0 (0)
 -->
<!-- Title: opp Pages: 1 -->
<svg width="2251pt" height="82pt"
 viewBox="0.00 0.00 2250.50 82.00" xmlns="http://www.w3.org/2000/svg" xmlns:xlink="http://www.w3.org/1999/xlink">
<g id="graph0" class="graph" transform="scale(1 1) rotate(0) translate(4 78)">
<title>opp</title>
<polygon fill="transparent" stroke="transparent" points="-4,4 -4,-78 2246.5,-78 2246.5,4 -4,4"/>
<!-- SctpParameter -->
<g id="node1" class="node">
<title>SctpParameter</title>
<g id="a_node1"><a xlink:href="src-inet-transportlayer-sctp-SctpParameter.html" xlink:title="Class SctpParameter" target="_parent">
<polygon fill="#fff700" stroke="black" points="1138.5,-74 1049.5,-74 1049.5,-55 1138.5,-55 1138.5,-74"/>
<text text-anchor="middle" x="1094" y="-62" font-family="Helvetica,sans-Serif" font-size="10.00">SctpParameter</text>
</a>
</g>
</g>
<!-- SctpAddIPParameter -->
<g id="node2" class="node">
<title>SctpAddIPParameter</title>
<g id="a_node2"><a xlink:href="src-inet-transportlayer-sctp-SctpAddIPParameter.html" xlink:title="Class SctpAddIPParameter" target="_parent">
<polygon fill="#fffcaf" stroke="black" points="116,-19 0,-19 0,0 116,0 116,-19"/>
<text text-anchor="middle" x="58" y="-7" font-family="Helvetica,sans-Serif" font-size="10.00">SctpAddIPParameter</text>
</a>
</g>
</g>
<!-- SctpParameter&#45;&gt;SctpAddIPParameter -->
<g id="edge1" class="edge">
<title>SctpParameter&#45;&gt;SctpAddIPParameter</title>
<path fill="none" stroke="black" d="M1049.49,-62.73C911.8,-60.06 480.7,-49.68 125,-19 122.08,-18.75 119.09,-18.46 116.07,-18.16"/>
</g>
<!-- SctpAddStreamsRequestParameter -->
<g id="node3" class="node">
<title>SctpAddStreamsRequestParameter</title>
<g id="a_node3"><a xlink:href="src-inet-transportlayer-sctp-SctpAddStreamsRequestParameter.html" xlink:title="Class SctpAddStreamsRequestParameter" target="_parent">
<polygon fill="#fffcaf" stroke="black" points="322,-19 134,-19 134,0 322,0 322,-19"/>
<text text-anchor="middle" x="228" y="-7" font-family="Helvetica,sans-Serif" font-size="10.00">SctpAddStreamsRequestParameter</text>
</a>
</g>
</g>
<!-- SctpParameter&#45;&gt;SctpAddStreamsRequestParameter -->
<g id="edge2" class="edge">
<title>SctpParameter&#45;&gt;SctpAddStreamsRequestParameter</title>
<path fill="none" stroke="black" d="M1049.26,-61.27C931.57,-55.31 603.67,-38.2 331,-19 328.05,-18.79 325.05,-18.58 322.02,-18.35"/>
</g>
<!-- SctpDeleteIPParameter -->
<g id="node4" class="node">
<title>SctpDeleteIPParameter</title>
<g id="a_node4"><a xlink:href="src-inet-transportlayer-sctp-SctpDeleteIPParameter.html" xlink:title="Class SctpDeleteIPParameter" target="_parent">
<polygon fill="#fffcaf" stroke="black" points="470,-19 340,-19 340,0 470,0 470,-19"/>
<text text-anchor="middle" x="405" y="-7" font-family="Helvetica,sans-Serif" font-size="10.00">SctpDeleteIPParameter</text>
</a>
</g>
</g>
<!-- SctpParameter&#45;&gt;SctpDeleteIPParameter -->
<g id="edge3" class="edge">
<title>SctpParameter&#45;&gt;SctpDeleteIPParameter</title>
<path fill="none" stroke="black" d="M1049.19,-60.91C947.63,-54.89 692.17,-38.95 479,-19 476.17,-18.73 473.28,-18.45 470.35,-18.16"/>
</g>
<!-- SctpErrorCauseParameter -->
<g id="node5" class="node">
<title>SctpErrorCauseParameter</title>
<g id="a_node5"><a xlink:href="src-inet-transportlayer-sctp-SctpErrorCauseParameter.html" xlink:title="Class SctpErrorCauseParameter" target="_parent">
<polygon fill="#fffcaf" stroke="black" points="630,-19 488,-19 488,0 630,0 630,-19"/>
<text text-anchor="middle" x="559" y="-7" font-family="Helvetica,sans-Serif" font-size="10.00">SctpErrorCauseParameter</text>
</a>
</g>
</g>
<!-- SctpParameter&#45;&gt;SctpErrorCauseParameter -->
<g id="edge4" class="edge">
<title>SctpParameter&#45;&gt;SctpErrorCauseParameter</title>
<path fill="none" stroke="black" d="M1049.42,-59.27C967.93,-51.49 789.42,-34.35 639,-19 636.08,-18.7 633.1,-18.4 630.1,-18.09"/>
</g>
<!-- SctpIncomingSsnResetRequestParameter -->
<g id="node6" class="node">
<title>SctpIncomingSsnResetRequestParameter</title>
<g id="a_node6"><a xlink:href="src-inet-transportlayer-sctp-SctpIncomingSsnResetRequestParameter.html" xlink:title="Class SctpIncomingSsnResetRequestParameter" target="_parent">
<polygon fill="#fffcaf" stroke="black" points="866,-19 648,-19 648,0 866,0 866,-19"/>
<text text-anchor="middle" x="757" y="-7" font-family="Helvetica,sans-Serif" font-size="10.00">SctpIncomingSsnResetRequestParameter</text>
</a>
</g>
</g>
<!-- SctpParameter&#45;&gt;SctpIncomingSsnResetRequestParameter -->
<g id="edge5" class="edge">
<title>SctpParameter&#45;&gt;SctpIncomingSsnResetRequestParameter</title>
<path fill="none" stroke="black" d="M1049.25,-56.46C987.75,-46.79 877.23,-29.41 811.14,-19.01"/>
</g>
<!-- SctpOutgoingSsnResetRequestParameter -->
<g id="node7" class="node">
<title>SctpOutgoingSsnResetRequestParameter</title>
<g id="a_node7"><a xlink:href="src-inet-transportlayer-sctp-SctpOutgoingSsnResetRequestParameter.html" xlink:title="Class SctpOutgoingSsnResetRequestParameter" target="_parent">
<polygon fill="#fffcaf" stroke="black" points="1102,-19 884,-19 884,0 1102,0 1102,-19"/>
<text text-anchor="middle" x="993" y="-7" font-family="Helvetica,sans-Serif" font-size="10.00">SctpOutgoingSsnResetRequestParameter</text>
</a>
</g>
</g>
<!-- SctpParameter&#45;&gt;SctpOutgoingSsnResetRequestParameter -->
<g id="edge6" class="edge">
<title>SctpParameter&#45;&gt;SctpOutgoingSsnResetRequestParameter</title>
<path fill="none" stroke="black" d="M1077.77,-54.98C1059.04,-45.15 1028.38,-29.07 1009.52,-19.17"/>
</g>
<!-- SctpSetPrimaryIPParameter -->
<g id="node8" class="node">
<title>SctpSetPrimaryIPParameter</title>
<g id="a_node8"><a xlink:href="src-inet-transportlayer-sctp-SctpSetPrimaryIPParameter.html" xlink:title="Class SctpSetPrimaryIPParameter" target="_parent">
<polygon fill="#fffcaf" stroke="black" points="1272,-19 1120,-19 1120,0 1272,0 1272,-19"/>
<text text-anchor="middle" x="1196" y="-7" font-family="Helvetica,sans-Serif" font-size="10.00">SctpSetPrimaryIPParameter</text>
</a>
</g>
</g>
<!-- SctpParameter&#45;&gt;SctpSetPrimaryIPParameter -->
<g id="edge7" class="edge">
<title>SctpParameter&#45;&gt;SctpSetPrimaryIPParameter</title>
<path fill="none" stroke="black" d="M1110.39,-54.98C1129.31,-45.15 1160.27,-29.07 1179.31,-19.17"/>
</g>
<!-- SctpSimpleErrorCauseParameter -->
<g id="node9" class="node">
<title>SctpSimpleErrorCauseParameter</title>
<g id="a_node9"><a xlink:href="src-inet-transportlayer-sctp-SctpSimpleErrorCauseParameter.html" xlink:title="Class SctpSimpleErrorCauseParameter" target="_parent">
<polygon fill="#fffcaf" stroke="black" points="1466,-19 1290,-19 1290,0 1466,0 1466,-19"/>
<text text-anchor="middle" x="1378" y="-7" font-family="Helvetica,sans-Serif" font-size="10.00">SctpSimpleErrorCauseParameter</text>
</a>
</g>
</g>
<!-- SctpParameter&#45;&gt;SctpSimpleErrorCauseParameter -->
<g id="edge8" class="edge">
<title>SctpParameter&#45;&gt;SctpSimpleErrorCauseParameter</title>
<path fill="none" stroke="black" d="M1138.69,-55.16C1191.49,-45.31 1278.87,-29 1332.16,-19.05"/>
</g>
<!-- SctpSsnTsnResetRequestParameter -->
<g id="node10" class="node">
<title>SctpSsnTsnResetRequestParameter</title>
<g id="a_node10"><a xlink:href="src-inet-transportlayer-sctp-SctpSsnTsnResetRequestParameter.html" xlink:title="Class SctpSsnTsnResetRequestParameter" target="_parent">
<polygon fill="#fffcaf" stroke="black" points="1673.5,-19 1484.5,-19 1484.5,0 1673.5,0 1673.5,-19"/>
<text text-anchor="middle" x="1579" y="-7" font-family="Helvetica,sans-Serif" font-size="10.00">SctpSsnTsnResetRequestParameter</text>
</a>
</g>
</g>
<!-- SctpParameter&#45;&gt;SctpSsnTsnResetRequestParameter -->
<g id="edge9" class="edge">
<title>SctpParameter&#45;&gt;SctpSsnTsnResetRequestParameter</title>
<path fill="none" stroke="black" d="M1138.76,-58.61C1221.3,-49.59 1398.43,-30.23 1501.08,-19.02"/>
</g>
<!-- SctpStreamResetResponseParameter -->
<g id="node11" class="node">
<title>SctpStreamResetResponseParameter</title>
<g id="a_node11"><a xlink:href="src-inet-transportlayer-sctp-SctpStreamResetResponseParameter.html" xlink:title="Class SctpStreamResetResponseParameter" target="_parent">
<polygon fill="#fffcaf" stroke="black" points="1890.5,-19 1691.5,-19 1691.5,0 1890.5,0 1890.5,-19"/>
<text text-anchor="middle" x="1791" y="-7" font-family="Helvetica,sans-Serif" font-size="10.00">SctpStreamResetResponseParameter</text>
</a>
</g>
</g>
<!-- SctpParameter&#45;&gt;SctpStreamResetResponseParameter -->
<g id="edge10" class="edge">
<title>SctpParameter&#45;&gt;SctpStreamResetResponseParameter</title>
<path fill="none" stroke="black" d="M1138.71,-60.17C1237.09,-52.83 1479.79,-34.67 1683,-19 1685.72,-18.79 1688.48,-18.58 1691.26,-18.36"/>
</g>
<!-- SctpSuccessIndication -->
<g id="node12" class="node">
<title>SctpSuccessIndication</title>
<g id="a_node12"><a xlink:href="src-inet-transportlayer-sctp-SctpSuccessIndication.html" xlink:title="Class SctpSuccessIndication" target="_parent">
<polygon fill="#fffcaf" stroke="black" points="2033.5,-19 1908.5,-19 1908.5,0 2033.5,0 2033.5,-19"/>
<text text-anchor="middle" x="1971" y="-7" font-family="Helvetica,sans-Serif" font-size="10.00">SctpSuccessIndication</text>
</a>
</g>
</g>
<!-- SctpParameter&#45;&gt;SctpSuccessIndication -->
<g id="edge11" class="edge">
<title>SctpParameter&#45;&gt;SctpSuccessIndication</title>
<path fill="none" stroke="black" d="M1138.63,-62.04C1260.7,-57.83 1610.31,-44.31 1900,-19 1902.72,-18.76 1905.5,-18.5 1908.3,-18.23"/>
</g>
<!-- SctpSupportedExtensionsParameter -->
<g id="node13" class="node">
<title>SctpSupportedExtensionsParameter</title>
<g id="a_node13"><a xlink:href="src-inet-transportlayer-sctp-SctpSupportedExtensionsParameter.html" xlink:title="Class SctpSupportedExtensionsParameter" target="_parent">
<polygon fill="#fffcaf" stroke="black" points="2242.5,-19 2051.5,-19 2051.5,0 2242.5,0 2242.5,-19"/>
<text text-anchor="middle" x="2147" y="-7" font-family="Helvetica,sans-Serif" font-size="10.00">SctpSupportedExtensionsParameter</text>
</a>
</g>
</g>
<!-- SctpParameter&#45;&gt;SctpSupportedExtensionsParameter -->
<g id="edge12" class="edge">
<title>SctpParameter&#45;&gt;SctpSupportedExtensionsParameter</title>
<path fill="none" stroke="black" d="M1138.98,-61.95C1275.22,-57.12 1695.29,-41.36 2043,-19 2045.71,-18.83 2048.46,-18.64 2051.24,-18.45"/>
</g>
</g>
</svg>
