<?xml version="1.0" encoding="UTF-8" standalone="no"?>
<!DOCTYPE svg PUBLIC "-//W3C//DTD SVG 1.1//EN"
 "http://www.w3.org/Graphics/SVG/1.1/DTD/svg11.dtd">
<!-- Generated by graphviz version 2.43.0 (0)
 -->
<!-- Title: opp Pages: 1 -->
<svg width="226pt" height="82pt"
 viewBox="0.00 0.00 226.00 82.00" xmlns="http://www.w3.org/2000/svg" xmlns:xlink="http://www.w3.org/1999/xlink">
<g id="graph0" class="graph" transform="scale(1 1) rotate(0) translate(4 78)">
<title>opp</title>
<polygon fill="transparent" stroke="transparent" points="-4,4 -4,-78 222,-78 222,4 -4,4"/>
<!-- UdpSetMulticastSourceFilterCommand -->
<g id="node1" class="node">
<title>UdpSetMulticastSourceFilterCommand</title>
<g id="a_node1"><a xlink:href="src-inet-transportlayer-contract-udp-UdpSetMulticastSourceFilterCommand.html" xlink:title="Class UdpSetMulticastSourceFilterCommand" target="_parent">
<polygon fill="#fff700" stroke="black" points="218,-74 14,-74 14,-55 218,-55 218,-74"/>
<text text-anchor="middle" x="116" y="-62" font-family="Helvetica,sans-Serif" font-size="10.00">UdpSetMulticastSourceFilterCommand</text>
</a>
</g>
</g>
<!-- UdpSourceFilterMode -->
<g id="node2" class="node">
<title>UdpSourceFilterMode</title>
<g id="a_node2"><a xlink:href="src-inet-transportlayer-contract-udp-UdpSourceFilterMode.html" xlink:title="Enum UdpSourceFilterMode" target="_parent">
<polygon fill="#d0ffd0" stroke="black" points="120,-19 0,-19 0,0 120,0 120,-19"/>
<text text-anchor="middle" x="60" y="-7" font-family="Helvetica,sans-Serif" font-size="10.00">UdpSourceFilterMode</text>
</a>
</g>
</g>
<!-- UdpSetMulticastSourceFilterCommand&#45;&gt;UdpSourceFilterMode -->
<g id="edge1" class="edge">
<title>UdpSetMulticastSourceFilterCommand&#45;&gt;UdpSourceFilterMode</title>
<path fill="none" stroke="black" d="M107,-54.98C98.81,-47.23 86.49,-35.58 76.53,-26.14"/>
<polygon fill="black" stroke="black" points="78.83,-23.5 69.16,-19.17 74.02,-28.59 78.83,-23.5"/>
</g>
<!-- L3Address -->
<g id="node3" class="node">
<title>L3Address</title>
<g id="a_node3"><a xlink:href="src-inet-networklayer-common-L3Address.html" xlink:title="Class L3Address" target="_parent">
<polygon fill="#fffcaf" stroke="black" points="205.5,-19 138.5,-19 138.5,0 205.5,0 205.5,-19"/>
<text text-anchor="middle" x="172" y="-7" font-family="Helvetica,sans-Serif" font-size="10.00">L3Address</text>
</a>
</g>
</g>
<!-- UdpSetMulticastSourceFilterCommand&#45;&gt;L3Address -->
<g id="edge2" class="edge">
<title>UdpSetMulticastSourceFilterCommand&#45;&gt;L3Address</title>
<path fill="none" stroke="black" d="M125,-54.98C133.19,-47.23 145.51,-35.58 155.47,-26.14"/>
<polygon fill="black" stroke="black" points="157.98,-28.59 162.84,-19.17 153.17,-23.5 157.98,-28.59"/>
</g>
</g>
</svg>
