<?xml version="1.0" encoding="UTF-8" standalone="no"?>
<!DOCTYPE svg PUBLIC "-//W3C//DTD SVG 1.1//EN"
 "http://www.w3.org/Graphics/SVG/1.1/DTD/svg11.dtd">
<!-- Generated by graphviz version 2.43.0 (0)
 -->
<!-- Title: opp Pages: 1 -->
<svg width="154pt" height="82pt"
 viewBox="0.00 0.00 153.50 82.00" xmlns="http://www.w3.org/2000/svg" xmlns:xlink="http://www.w3.org/1999/xlink">
<g id="graph0" class="graph" transform="scale(1 1) rotate(0) translate(4 78)">
<title>opp</title>
<polygon fill="transparent" stroke="transparent" points="-4,4 -4,-78 149.5,-78 149.5,4 -4,4"/>
<!-- SctpHeader -->
<g id="node1" class="node">
<title>SctpHeader</title>
<g id="a_node1"><a xlink:href="src-inet-transportlayer-sctp-SctpHeader.html" xlink:title="Class SctpHeader" target="_parent">
<polygon fill="#fff700" stroke="black" points="111.5,-74 38.5,-74 38.5,-55 111.5,-55 111.5,-74"/>
<text text-anchor="middle" x="75" y="-62" font-family="Helvetica,sans-Serif" font-size="10.00">SctpHeader</text>
</a>
</g>
</g>
<!-- SctpChunk -->
<g id="node2" class="node">
<title>SctpChunk</title>
<g id="a_node2"><a xlink:href="src-inet-transportlayer-sctp-SctpChunk.html" xlink:title="Class SctpChunk" target="_parent">
<polygon fill="#fffcaf" stroke="black" points="68,-19 0,-19 0,0 68,0 68,-19"/>
<text text-anchor="middle" x="34" y="-7" font-family="Helvetica,sans-Serif" font-size="10.00">SctpChunk</text>
</a>
</g>
</g>
<!-- SctpHeader&#45;&gt;SctpChunk -->
<g id="edge1" class="edge">
<title>SctpHeader&#45;&gt;SctpChunk</title>
<path fill="none" stroke="black" d="M68.23,-54.75C62.44,-47.26 53.94,-36.28 46.86,-27.13"/>
<polygon fill="black" stroke="black" points="49.53,-24.86 40.64,-19.09 43.99,-29.14 49.53,-24.86"/>
</g>
<!-- CrcMode -->
<g id="node3" class="node">
<title>CrcMode</title>
<g id="a_node3"><a xlink:href="src-inet-transportlayer-common-CrcMode.html" xlink:title="Enum CrcMode" target="_parent">
<polygon fill="#d0ffd0" stroke="black" points="145.5,-19 86.5,-19 86.5,0 145.5,0 145.5,-19"/>
<text text-anchor="middle" x="116" y="-7" font-family="Helvetica,sans-Serif" font-size="10.00">CrcMode</text>
</a>
</g>
</g>
<!-- SctpHeader&#45;&gt;CrcMode -->
<g id="edge2" class="edge">
<title>SctpHeader&#45;&gt;CrcMode</title>
<path fill="none" stroke="black" d="M81.77,-54.75C87.56,-47.26 96.06,-36.28 103.14,-27.13"/>
<polygon fill="black" stroke="black" points="106.01,-29.14 109.36,-19.09 100.47,-24.86 106.01,-29.14"/>
</g>
</g>
</svg>
