<?xml version="1.0" encoding="UTF-8" standalone="no"?>
<!DOCTYPE svg PUBLIC "-//W3C//DTD SVG 1.1//EN"
 "http://www.w3.org/Graphics/SVG/1.1/DTD/svg11.dtd">
<!-- Generated by graphviz version 2.43.0 (0)
 -->
<!-- Title: opp Pages: 1 -->
<svg width="226pt" height="82pt"
 viewBox="0.00 0.00 225.50 82.00" xmlns="http://www.w3.org/2000/svg" xmlns:xlink="http://www.w3.org/1999/xlink">
<g id="graph0" class="graph" transform="scale(1 1) rotate(0) translate(4 78)">
<title>opp</title>
<polygon fill="transparent" stroke="transparent" points="-4,4 -4,-78 221.5,-78 221.5,4 -4,4"/>
<!-- RsvpResvTear -->
<g id="node1" class="node">
<title>RsvpResvTear</title>
<g id="a_node1"><a xlink:href="src-inet-networklayer-rsvpte-RsvpResvTear.html" xlink:title="Class RsvpResvTear" target="_parent">
<polygon fill="#fff700" stroke="black" points="162.5,-74 77.5,-74 77.5,-55 162.5,-55 162.5,-74"/>
<text text-anchor="middle" x="120" y="-62" font-family="Helvetica,sans-Serif" font-size="10.00">RsvpResvTear</text>
</a>
</g>
</g>
<!-- FlowDescriptorVector -->
<g id="node2" class="node">
<title>FlowDescriptorVector</title>
<g id="a_node2"><a xlink:href="src-inet-networklayer-rsvpte-FlowDescriptorVector.html" xlink:title="Class FlowDescriptorVector" target="_parent">
<polygon fill="#fffcaf" stroke="black" points="122,-19 0,-19 0,0 122,0 122,-19"/>
<text text-anchor="middle" x="61" y="-7" font-family="Helvetica,sans-Serif" font-size="10.00">FlowDescriptorVector</text>
</a>
</g>
</g>
<!-- RsvpResvTear&#45;&gt;FlowDescriptorVector -->
<g id="edge1" class="edge">
<title>RsvpResvTear&#45;&gt;FlowDescriptorVector</title>
<path fill="none" stroke="black" d="M110.52,-54.98C101.8,-47.15 88.66,-35.34 78.1,-25.86"/>
<polygon fill="black" stroke="black" points="80.43,-23.25 70.65,-19.17 75.75,-28.46 80.43,-23.25"/>
</g>
<!-- RsvpHopObj -->
<g id="node3" class="node">
<title>RsvpHopObj</title>
<g id="a_node3"><a xlink:href="src-inet-networklayer-rsvpte-RsvpHopObj.html" xlink:title="Struct RsvpHopObj" target="_parent">
<polygon fill="#d0d0ff" stroke="black" points="217.5,-19 140.5,-19 140.5,0 217.5,0 217.5,-19"/>
<text text-anchor="middle" x="179" y="-7" font-family="Helvetica,sans-Serif" font-size="10.00">RsvpHopObj</text>
</a>
</g>
</g>
<!-- RsvpResvTear&#45;&gt;RsvpHopObj -->
<g id="edge2" class="edge">
<title>RsvpResvTear&#45;&gt;RsvpHopObj</title>
<path fill="none" stroke="black" d="M129.48,-54.98C138.2,-47.15 151.34,-35.34 161.9,-25.86"/>
<polygon fill="black" stroke="black" points="164.25,-28.46 169.35,-19.17 159.57,-23.25 164.25,-28.46"/>
</g>
</g>
</svg>
