<?xml version="1.0" encoding="UTF-8" standalone="no"?>
<!DOCTYPE svg PUBLIC "-//W3C//DTD SVG 1.1//EN"
 "http://www.w3.org/Graphics/SVG/1.1/DTD/svg11.dtd">
<!-- Generated by graphviz version 2.43.0 (0)
 -->
<!-- Title: opp Pages: 1 -->
<svg width="238pt" height="82pt"
 viewBox="0.00 0.00 237.50 82.00" xmlns="http://www.w3.org/2000/svg" xmlns:xlink="http://www.w3.org/1999/xlink">
<g id="graph0" class="graph" transform="scale(1 1) rotate(0) translate(4 78)">
<title>opp</title>
<polygon fill="transparent" stroke="transparent" points="-4,4 -4,-78 233.5,-78 233.5,4 -4,4"/>
<!-- CsmaCaMacHeader -->
<g id="node1" class="node">
<title>CsmaCaMacHeader</title>
<g id="a_node1"><a xlink:href="src-inet-linklayer-csmaca-CsmaCaMacHeader.html" xlink:title="Class CsmaCaMacHeader" target="_parent">
<polygon fill="#fff700" stroke="black" points="156.5,-74 43.5,-74 43.5,-55 156.5,-55 156.5,-74"/>
<text text-anchor="middle" x="100" y="-62" font-family="Helvetica,sans-Serif" font-size="10.00">CsmaCaMacHeader</text>
</a>
</g>
</g>
<!-- MacAddress -->
<g id="node2" class="node">
<title>MacAddress</title>
<g id="a_node2"><a xlink:href="src-inet-linklayer-common-MacAddress.html" xlink:title="Class MacAddress" target="_parent">
<polygon fill="#fffcaf" stroke="black" points="76,-19 0,-19 0,0 76,0 76,-19"/>
<text text-anchor="middle" x="38" y="-7" font-family="Helvetica,sans-Serif" font-size="10.00">MacAddress</text>
</a>
</g>
</g>
<!-- CsmaCaMacHeader&#45;&gt;MacAddress -->
<g id="edge1" class="edge">
<title>CsmaCaMacHeader&#45;&gt;MacAddress</title>
<path fill="none" stroke="black" d="M90.04,-54.98C80.87,-47.15 67.06,-35.34 55.97,-25.86"/>
<polygon fill="black" stroke="black" points="58.02,-23.01 48.14,-19.17 53.47,-28.33 58.02,-23.01"/>
</g>
<!-- CsmaCaMacHeaderType -->
<g id="node3" class="node">
<title>CsmaCaMacHeaderType</title>
<g id="a_node3"><a xlink:href="src-inet-linklayer-csmaca-CsmaCaMacHeaderType.html" xlink:title="Enum CsmaCaMacHeaderType" target="_parent">
<polygon fill="#d0ffd0" stroke="black" points="229.5,-19 94.5,-19 94.5,0 229.5,0 229.5,-19"/>
<text text-anchor="middle" x="162" y="-7" font-family="Helvetica,sans-Serif" font-size="10.00">CsmaCaMacHeaderType</text>
</a>
</g>
</g>
<!-- CsmaCaMacHeader&#45;&gt;CsmaCaMacHeaderType -->
<g id="edge2" class="edge">
<title>CsmaCaMacHeader&#45;&gt;CsmaCaMacHeaderType</title>
<path fill="none" stroke="black" d="M109.96,-54.98C119.13,-47.15 132.94,-35.34 144.03,-25.86"/>
<polygon fill="black" stroke="black" points="146.53,-28.33 151.86,-19.17 141.98,-23.01 146.53,-28.33"/>
</g>
</g>
</svg>
