<?xml version="1.0" encoding="UTF-8" standalone="no"?>
<!DOCTYPE svg PUBLIC "-//W3C//DTD SVG 1.1//EN"
 "http://www.w3.org/Graphics/SVG/1.1/DTD/svg11.dtd">
<!-- Generated by graphviz version 2.43.0 (0)
 -->
<!-- Title: opp Pages: 1 -->
<svg width="400pt" height="137pt"
 viewBox="0.00 0.00 399.50 137.00" xmlns="http://www.w3.org/2000/svg" xmlns:xlink="http://www.w3.org/1999/xlink">
<g id="graph0" class="graph" transform="scale(1 1) rotate(0) translate(4 133)">
<title>opp</title>
<polygon fill="transparent" stroke="transparent" points="-4,4 -4,-133 395.5,-133 395.5,4 -4,4"/>
<!-- Quaternion -->
<g id="node1" class="node">
<title>Quaternion</title>
<g id="a_node1"><a xlink:href="src-inet-common-geometry-Quaternion.html" xlink:title="Class Quaternion" target="_parent">
<polygon fill="#fff700" stroke="black" points="205.5,-74 134.5,-74 134.5,-55 205.5,-55 205.5,-74"/>
<text text-anchor="middle" x="170" y="-62" font-family="Helvetica,sans-Serif" font-size="10.00">Quaternion</text>
</a>
</g>
</g>
<!-- Coord -->
<g id="node2" class="node">
<title>Coord</title>
<g id="a_node2"><a xlink:href="src-inet-common-geometry-Coord.html" xlink:title="Class Coord" target="_parent">
<polygon fill="#fffcaf" stroke="black" points="197,-19 143,-19 143,0 197,0 197,-19"/>
<text text-anchor="middle" x="170" y="-7" font-family="Helvetica,sans-Serif" font-size="10.00">Coord</text>
</a>
</g>
</g>
<!-- Quaternion&#45;&gt;Coord -->
<g id="edge1" class="edge">
<title>Quaternion&#45;&gt;Coord</title>
<path fill="none" stroke="black" d="M170,-54.75C170,-47.8 170,-37.85 170,-29.13"/>
<polygon fill="black" stroke="black" points="173.5,-29.09 170,-19.09 166.5,-29.09 173.5,-29.09"/>
</g>
<!-- Arrival -->
<g id="node3" class="node">
<title>Arrival</title>
<g id="a_node3"><a xlink:href="src-inet-physicallayer-wireless-common-signal-Arrival.html" xlink:title="Class Arrival" target="_parent">
<polygon fill="#fffcaf" stroke="black" points="54,-129 0,-129 0,-110 54,-110 54,-129"/>
<text text-anchor="middle" x="27" y="-117" font-family="Helvetica,sans-Serif" font-size="10.00">Arrival</text>
</a>
</g>
</g>
<!-- Arrival&#45;&gt;Quaternion -->
<g id="edge2" class="edge">
<title>Arrival&#45;&gt;Quaternion</title>
<path fill="none" stroke="black" d="M49.98,-109.98C73.5,-101.27 110.29,-87.63 136.94,-77.75"/>
<polygon fill="black" stroke="black" points="138.45,-80.93 146.61,-74.17 136.01,-74.36 138.45,-80.93"/>
</g>
<!-- PhysicalObject -->
<g id="node4" class="node">
<title>PhysicalObject</title>
<g id="a_node4"><a xlink:href="src-inet-environment-common-PhysicalObject.html" xlink:title="Class PhysicalObject" target="_parent">
<polygon fill="#fffcaf" stroke="black" points="161.5,-129 72.5,-129 72.5,-110 161.5,-110 161.5,-129"/>
<text text-anchor="middle" x="117" y="-117" font-family="Helvetica,sans-Serif" font-size="10.00">PhysicalObject</text>
</a>
</g>
</g>
<!-- PhysicalObject&#45;&gt;Quaternion -->
<g id="edge3" class="edge">
<title>PhysicalObject&#45;&gt;Quaternion</title>
<path fill="none" stroke="black" d="M125.75,-109.75C133.47,-102.03 144.9,-90.6 154.22,-81.28"/>
<polygon fill="black" stroke="black" points="156.81,-83.64 161.41,-74.09 151.86,-78.69 156.81,-83.64"/>
</g>
<!-- ReceptionBase -->
<g id="node5" class="node">
<title>ReceptionBase</title>
<g id="a_node5"><a xlink:href="src-inet-physicallayer-wireless-common-base-packetlevel-ReceptionBase.html" xlink:title="Class ReceptionBase" target="_parent">
<polygon fill="#fffcaf" stroke="black" points="268.5,-129 179.5,-129 179.5,-110 268.5,-110 268.5,-129"/>
<text text-anchor="middle" x="224" y="-117" font-family="Helvetica,sans-Serif" font-size="10.00">ReceptionBase</text>
</a>
</g>
</g>
<!-- ReceptionBase&#45;&gt;Quaternion -->
<g id="edge4" class="edge">
<title>ReceptionBase&#45;&gt;Quaternion</title>
<path fill="none" stroke="black" d="M215.08,-109.75C207.22,-102.03 195.57,-90.6 186.08,-81.28"/>
<polygon fill="black" stroke="black" points="188.34,-78.6 178.75,-74.09 183.44,-83.59 188.34,-78.6"/>
</g>
<!-- TransmissionBase -->
<g id="node6" class="node">
<title>TransmissionBase</title>
<g id="a_node6"><a xlink:href="src-inet-physicallayer-wireless-common-base-packetlevel-TransmissionBase.html" xlink:title="Class TransmissionBase" target="_parent">
<polygon fill="#fffcaf" stroke="black" points="391.5,-129 286.5,-129 286.5,-110 391.5,-110 391.5,-129"/>
<text text-anchor="middle" x="339" y="-117" font-family="Helvetica,sans-Serif" font-size="10.00">TransmissionBase</text>
</a>
</g>
</g>
<!-- TransmissionBase&#45;&gt;Quaternion -->
<g id="edge5" class="edge">
<title>TransmissionBase&#45;&gt;Quaternion</title>
<path fill="none" stroke="black" d="M311.85,-109.98C283.47,-101.09 238.77,-87.07 207.14,-77.15"/>
<polygon fill="black" stroke="black" points="207.95,-73.73 197.37,-74.08 205.86,-80.41 207.95,-73.73"/>
</g>
</g>
</svg>
