<?xml version="1.0" encoding="UTF-8" standalone="no"?>
<!DOCTYPE svg PUBLIC "-//W3C//DTD SVG 1.1//EN"
 "http://www.w3.org/Graphics/SVG/1.1/DTD/svg11.dtd">
<!-- Generated by graphviz version 2.43.0 (0)
 -->
<!-- Title: opp Pages: 1 -->
<svg width="503pt" height="82pt"
 viewBox="0.00 0.00 502.50 82.00" xmlns="http://www.w3.org/2000/svg" xmlns:xlink="http://www.w3.org/1999/xlink">
<g id="graph0" class="graph" transform="scale(1 1) rotate(0) translate(4 78)">
<title>opp</title>
<polygon fill="transparent" stroke="transparent" points="-4,4 -4,-78 498.5,-78 498.5,4 -4,4"/>
<!-- RtpControlInfo -->
<g id="node1" class="node">
<title>RtpControlInfo</title>
<g id="a_node1"><a xlink:href="src-inet-transportlayer-rtp-RtpControlInfo.html" xlink:title="Class RtpControlInfo" target="_parent">
<polygon fill="#fff700" stroke="black" points="283.5,-74 196.5,-74 196.5,-55 283.5,-55 283.5,-74"/>
<text text-anchor="middle" x="240" y="-62" font-family="Helvetica,sans-Serif" font-size="10.00">RtpControlInfo</text>
</a>
</g>
</g>
<!-- RtpCiEnterSession -->
<g id="node2" class="node">
<title>RtpCiEnterSession</title>
<g id="a_node2"><a xlink:href="src-inet-transportlayer-rtp-RtpCiEnterSession.html" xlink:title="Class RtpCiEnterSession" target="_parent">
<polygon fill="#fffcaf" stroke="black" points="106,-19 0,-19 0,0 106,0 106,-19"/>
<text text-anchor="middle" x="53" y="-7" font-family="Helvetica,sans-Serif" font-size="10.00">RtpCiEnterSession</text>
</a>
</g>
</g>
<!-- RtpControlInfo&#45;&gt;RtpCiEnterSession -->
<g id="edge1" class="edge">
<title>RtpControlInfo&#45;&gt;RtpCiEnterSession</title>
<path fill="none" stroke="black" d="M209.96,-54.98C175.16,-45.12 118.17,-28.97 83.28,-19.08"/>
</g>
<!-- RtpCiLeaveSession -->
<g id="node3" class="node">
<title>RtpCiLeaveSession</title>
<g id="a_node3"><a xlink:href="src-inet-transportlayer-rtp-RtpCiLeaveSession.html" xlink:title="Class RtpCiLeaveSession" target="_parent">
<polygon fill="#fffcaf" stroke="black" points="234,-19 124,-19 124,0 234,0 234,-19"/>
<text text-anchor="middle" x="179" y="-7" font-family="Helvetica,sans-Serif" font-size="10.00">RtpCiLeaveSession</text>
</a>
</g>
</g>
<!-- RtpControlInfo&#45;&gt;RtpCiLeaveSession -->
<g id="edge2" class="edge">
<title>RtpControlInfo&#45;&gt;RtpCiLeaveSession</title>
<path fill="none" stroke="black" d="M230.2,-54.98C218.88,-45.15 200.37,-29.07 188.98,-19.17"/>
</g>
<!-- RtpCiSessionLeft -->
<g id="node4" class="node">
<title>RtpCiSessionLeft</title>
<g id="a_node4"><a xlink:href="src-inet-transportlayer-rtp-RtpCiSessionLeft.html" xlink:title="Class RtpCiSessionLeft" target="_parent">
<polygon fill="#fffcaf" stroke="black" points="351.5,-19 252.5,-19 252.5,0 351.5,0 351.5,-19"/>
<text text-anchor="middle" x="302" y="-7" font-family="Helvetica,sans-Serif" font-size="10.00">RtpCiSessionLeft</text>
</a>
</g>
</g>
<!-- RtpControlInfo&#45;&gt;RtpCiSessionLeft -->
<g id="edge3" class="edge">
<title>RtpControlInfo&#45;&gt;RtpCiSessionLeft</title>
<path fill="none" stroke="black" d="M249.96,-54.98C261.46,-45.15 280.28,-29.07 291.86,-19.17"/>
</g>
<!-- RtpSessionControlInfo -->
<g id="node5" class="node">
<title>RtpSessionControlInfo</title>
<g id="a_node5"><a xlink:href="src-inet-transportlayer-rtp-RtpSessionControlInfo.html" xlink:title="Class RtpSessionControlInfo" target="_parent">
<polygon fill="#fffcaf" stroke="black" points="494.5,-19 369.5,-19 369.5,0 494.5,0 494.5,-19"/>
<text text-anchor="middle" x="432" y="-7" font-family="Helvetica,sans-Serif" font-size="10.00">RtpSessionControlInfo</text>
</a>
</g>
</g>
<!-- RtpControlInfo&#45;&gt;RtpSessionControlInfo -->
<g id="edge4" class="edge">
<title>RtpControlInfo&#45;&gt;RtpSessionControlInfo</title>
<path fill="none" stroke="black" d="M270.85,-54.98C306.57,-45.12 365.08,-28.97 400.91,-19.08"/>
</g>
</g>
</svg>
