<?xml version="1.0" encoding="UTF-8" standalone="no"?>
<!DOCTYPE svg PUBLIC "-//W3C//DTD SVG 1.1//EN"
 "http://www.w3.org/Graphics/SVG/1.1/DTD/svg11.dtd">
<!-- Generated by graphviz version 2.43.0 (0)
 -->
<!-- Title: opp Pages: 1 -->
<svg width="367pt" height="137pt"
 viewBox="0.00 0.00 366.50 137.00" xmlns="http://www.w3.org/2000/svg" xmlns:xlink="http://www.w3.org/1999/xlink">
<g id="graph0" class="graph" transform="scale(1 1) rotate(0) translate(4 133)">
<title>opp</title>
<polygon fill="transparent" stroke="transparent" points="-4,4 -4,-133 362.5,-133 362.5,4 -4,4"/>
<!-- ChunkPtr -->
<g id="node1" class="node">
<title>ChunkPtr</title>
<g id="a_node1"><a xlink:href="src-inet-common-ChunkPtr.html" xlink:title="Class ChunkPtr" target="_parent">
<polygon fill="#fff700" stroke="black" points="197.5,-74 136.5,-74 136.5,-55 197.5,-55 197.5,-74"/>
<text text-anchor="middle" x="167" y="-62" font-family="Helvetica,sans-Serif" font-size="10.00">ChunkPtr</text>
</a>
</g>
</g>
<!-- Chunk -->
<g id="node2" class="node">
<title>Chunk</title>
<g id="a_node2"><a xlink:href="src-inet-common-packet-chunk-Chunk.html" xlink:title="Class Chunk" target="_parent">
<polygon fill="#fffcaf" stroke="black" points="194,-19 140,-19 140,0 194,0 194,-19"/>
<text text-anchor="middle" x="167" y="-7" font-family="Helvetica,sans-Serif" font-size="10.00">Chunk</text>
</a>
</g>
</g>
<!-- ChunkPtr&#45;&gt;Chunk -->
<g id="edge1" class="edge">
<title>ChunkPtr&#45;&gt;Chunk</title>
<path fill="none" stroke="black" d="M167,-54.75C167,-47.8 167,-37.85 167,-29.13"/>
<polygon fill="black" stroke="black" points="170.5,-29.09 167,-19.09 163.5,-29.09 170.5,-29.09"/>
</g>
<!-- MacProtocolInd -->
<g id="node3" class="node">
<title>MacProtocolInd</title>
<g id="a_node3"><a xlink:href="src-inet-common-MacProtocolInd.html" xlink:title="Class MacProtocolInd" target="_parent">
<polygon fill="#fffcaf" stroke="black" points="92,-129 0,-129 0,-110 92,-110 92,-129"/>
<text text-anchor="middle" x="46" y="-117" font-family="Helvetica,sans-Serif" font-size="10.00">MacProtocolInd</text>
</a>
</g>
</g>
<!-- MacProtocolInd&#45;&gt;ChunkPtr -->
<g id="edge2" class="edge">
<title>MacProtocolInd&#45;&gt;ChunkPtr</title>
<path fill="none" stroke="black" d="M65.44,-109.98C84.99,-101.42 115.38,-88.11 137.82,-78.28"/>
<polygon fill="black" stroke="black" points="139.45,-81.39 147.21,-74.17 136.64,-74.98 139.45,-81.39"/>
</g>
<!-- NetworkProtocolInd -->
<g id="node4" class="node">
<title>NetworkProtocolInd</title>
<g id="a_node4"><a xlink:href="src-inet-common-NetworkProtocolInd.html" xlink:title="Class NetworkProtocolInd" target="_parent">
<polygon fill="#fffcaf" stroke="black" points="223.5,-129 110.5,-129 110.5,-110 223.5,-110 223.5,-129"/>
<text text-anchor="middle" x="167" y="-117" font-family="Helvetica,sans-Serif" font-size="10.00">NetworkProtocolInd</text>
</a>
</g>
</g>
<!-- NetworkProtocolInd&#45;&gt;ChunkPtr -->
<g id="edge3" class="edge">
<title>NetworkProtocolInd&#45;&gt;ChunkPtr</title>
<path fill="none" stroke="black" d="M167,-109.75C167,-102.8 167,-92.85 167,-84.13"/>
<polygon fill="black" stroke="black" points="170.5,-84.09 167,-74.09 163.5,-84.09 170.5,-84.09"/>
</g>
<!-- TransportProtocolInd -->
<g id="node5" class="node">
<title>TransportProtocolInd</title>
<g id="a_node5"><a xlink:href="src-inet-common-TransportProtocolInd.html" xlink:title="Class TransportProtocolInd" target="_parent">
<polygon fill="#fffcaf" stroke="black" points="358.5,-129 241.5,-129 241.5,-110 358.5,-110 358.5,-129"/>
<text text-anchor="middle" x="300" y="-117" font-family="Helvetica,sans-Serif" font-size="10.00">TransportProtocolInd</text>
</a>
</g>
</g>
<!-- TransportProtocolInd&#45;&gt;ChunkPtr -->
<g id="edge4" class="edge">
<title>TransportProtocolInd&#45;&gt;ChunkPtr</title>
<path fill="none" stroke="black" d="M278.63,-109.98C256.85,-101.3 222.84,-87.75 198.08,-77.88"/>
<polygon fill="black" stroke="black" points="199.34,-74.62 188.76,-74.17 196.75,-81.12 199.34,-74.62"/>
</g>
</g>
</svg>
