<?xml version="1.0" encoding="UTF-8" standalone="no"?>
<!DOCTYPE svg PUBLIC "-//W3C//DTD SVG 1.1//EN"
 "http://www.w3.org/Graphics/SVG/1.1/DTD/svg11.dtd">
<!-- Generated by graphviz version 2.43.0 (0)
 -->
<!-- Title: opp Pages: 1 -->
<svg width="981pt" height="82pt"
 viewBox="0.00 0.00 980.50 82.00" xmlns="http://www.w3.org/2000/svg" xmlns:xlink="http://www.w3.org/1999/xlink">
<g id="graph0" class="graph" transform="scale(1 1) rotate(0) translate(4 78)">
<title>opp</title>
<polygon fill="transparent" stroke="transparent" points="-4,4 -4,-78 976.5,-78 976.5,4 -4,4"/>
<!-- UdpControlInfo -->
<g id="node1" class="node">
<title>UdpControlInfo</title>
<g id="a_node1"><a xlink:href="src-inet-transportlayer-contract-udp-UdpControlInfo.html" xlink:title="Class UdpControlInfo" target="_parent">
<polygon fill="#fff700" stroke="black" points="510,-74 420,-74 420,-55 510,-55 510,-74"/>
<text text-anchor="middle" x="465" y="-62" font-family="Helvetica,sans-Serif" font-size="10.00">UdpControlInfo</text>
</a>
</g>
</g>
<!-- UdpBindCommand -->
<g id="node2" class="node">
<title>UdpBindCommand</title>
<g id="a_node2"><a xlink:href="src-inet-transportlayer-contract-udp-UdpBindCommand.html" xlink:title="Class UdpBindCommand" target="_parent">
<polygon fill="#fffcaf" stroke="black" points="108,-19 0,-19 0,0 108,0 108,-19"/>
<text text-anchor="middle" x="54" y="-7" font-family="Helvetica,sans-Serif" font-size="10.00">UdpBindCommand</text>
</a>
</g>
</g>
<!-- UdpControlInfo&#45;&gt;UdpBindCommand -->
<g id="edge1" class="edge">
<title>UdpControlInfo&#45;&gt;UdpBindCommand</title>
<path fill="none" stroke="black" d="M419.94,-57.84C353.59,-49.48 225.7,-33.28 117,-19 114.15,-18.63 111.24,-18.24 108.29,-17.85"/>
</g>
<!-- UdpCloseCommand -->
<g id="node3" class="node">
<title>UdpCloseCommand</title>
<g id="a_node3"><a xlink:href="src-inet-transportlayer-contract-udp-UdpCloseCommand.html" xlink:title="Class UdpCloseCommand" target="_parent">
<polygon fill="#fffcaf" stroke="black" points="239.5,-19 126.5,-19 126.5,0 239.5,0 239.5,-19"/>
<text text-anchor="middle" x="183" y="-7" font-family="Helvetica,sans-Serif" font-size="10.00">UdpCloseCommand</text>
</a>
</g>
</g>
<!-- UdpControlInfo&#45;&gt;UdpCloseCommand -->
<g id="edge2" class="edge">
<title>UdpControlInfo&#45;&gt;UdpCloseCommand</title>
<path fill="none" stroke="black" d="M419.69,-54.98C367.22,-45.12 281.28,-28.97 228.66,-19.08"/>
</g>
<!-- UdpConnectCommand -->
<g id="node4" class="node">
<title>UdpConnectCommand</title>
<g id="a_node4"><a xlink:href="src-inet-transportlayer-contract-udp-UdpConnectCommand.html" xlink:title="Class UdpConnectCommand" target="_parent">
<polygon fill="#fffcaf" stroke="black" points="384,-19 258,-19 258,0 384,0 384,-19"/>
<text text-anchor="middle" x="321" y="-7" font-family="Helvetica,sans-Serif" font-size="10.00">UdpConnectCommand</text>
</a>
</g>
</g>
<!-- UdpControlInfo&#45;&gt;UdpConnectCommand -->
<g id="edge3" class="edge">
<title>UdpControlInfo&#45;&gt;UdpConnectCommand</title>
<path fill="none" stroke="black" d="M441.86,-54.98C415.15,-45.15 371.45,-29.07 344.56,-19.17"/>
</g>
<!-- UdpDestroyCommand -->
<g id="node5" class="node">
<title>UdpDestroyCommand</title>
<g id="a_node5"><a xlink:href="src-inet-transportlayer-contract-udp-UdpDestroyCommand.html" xlink:title="Class UdpDestroyCommand" target="_parent">
<polygon fill="#fffcaf" stroke="black" points="527.5,-19 402.5,-19 402.5,0 527.5,0 527.5,-19"/>
<text text-anchor="middle" x="465" y="-7" font-family="Helvetica,sans-Serif" font-size="10.00">UdpDestroyCommand</text>
</a>
</g>
</g>
<!-- UdpControlInfo&#45;&gt;UdpDestroyCommand -->
<g id="edge4" class="edge">
<title>UdpControlInfo&#45;&gt;UdpDestroyCommand</title>
<path fill="none" stroke="black" d="M465,-54.75C465,-44.87 465,-28.9 465,-19.09"/>
</g>
<!-- UdpErrorIndication -->
<g id="node6" class="node">
<title>UdpErrorIndication</title>
<g id="a_node6"><a xlink:href="src-inet-transportlayer-contract-udp-UdpErrorIndication.html" xlink:title="Class UdpErrorIndication" target="_parent">
<polygon fill="#fffcaf" stroke="black" points="652.5,-19 545.5,-19 545.5,0 652.5,0 652.5,-19"/>
<text text-anchor="middle" x="599" y="-7" font-family="Helvetica,sans-Serif" font-size="10.00">UdpErrorIndication</text>
</a>
</g>
</g>
<!-- UdpControlInfo&#45;&gt;UdpErrorIndication -->
<g id="edge5" class="edge">
<title>UdpControlInfo&#45;&gt;UdpErrorIndication</title>
<path fill="none" stroke="black" d="M486.53,-54.98C511.39,-45.15 552.06,-29.07 577.08,-19.17"/>
</g>
<!-- UdpSetOptionCommand -->
<g id="node7" class="node">
<title>UdpSetOptionCommand</title>
<g id="a_node7"><a xlink:href="src-inet-transportlayer-contract-udp-UdpSetOptionCommand.html" xlink:title="Class UdpSetOptionCommand" target="_parent">
<polygon fill="#fffcaf" stroke="black" points="805,-19 671,-19 671,0 805,0 805,-19"/>
<text text-anchor="middle" x="738" y="-7" font-family="Helvetica,sans-Serif" font-size="10.00">UdpSetOptionCommand</text>
</a>
</g>
</g>
<!-- UdpControlInfo&#45;&gt;UdpSetOptionCommand -->
<g id="edge6" class="edge">
<title>UdpControlInfo&#45;&gt;UdpSetOptionCommand</title>
<path fill="none" stroke="black" d="M508.86,-54.98C559.66,-45.12 642.85,-28.97 693.79,-19.08"/>
</g>
<!-- UdpSocketClosedIndication -->
<g id="node8" class="node">
<title>UdpSocketClosedIndication</title>
<g id="a_node8"><a xlink:href="src-inet-transportlayer-contract-udp-UdpSocketClosedIndication.html" xlink:title="Class UdpSocketClosedIndication" target="_parent">
<polygon fill="#fffcaf" stroke="black" points="972.5,-19 823.5,-19 823.5,0 972.5,0 972.5,-19"/>
<text text-anchor="middle" x="898" y="-7" font-family="Helvetica,sans-Serif" font-size="10.00">UdpSocketClosedIndication</text>
</a>
</g>
</g>
<!-- UdpControlInfo&#45;&gt;UdpSocketClosedIndication -->
<g id="edge7" class="edge">
<title>UdpControlInfo&#45;&gt;UdpSocketClosedIndication</title>
<path fill="none" stroke="black" d="M510.11,-57.98C585.82,-48.71 738.91,-29.97 828.46,-19.01"/>
</g>
</g>
</svg>
