<?xml version="1.0" encoding="UTF-8" standalone="no"?>
<!DOCTYPE svg PUBLIC "-//W3C//DTD SVG 1.1//EN"
 "http://www.w3.org/Graphics/SVG/1.1/DTD/svg11.dtd">
<!-- Generated by graphviz version 2.43.0 (0)
 -->
<!-- Title: opp Pages: 1 -->
<svg width="266pt" height="137pt"
 viewBox="0.00 0.00 266.00 137.00" xmlns="http://www.w3.org/2000/svg" xmlns:xlink="http://www.w3.org/1999/xlink">
<g id="graph0" class="graph" transform="scale(1 1) rotate(0) translate(4 133)">
<title>opp</title>
<polygon fill="transparent" stroke="transparent" points="-4,4 -4,-133 262,-133 262,4 -4,4"/>
<!-- SequenceNumberTagBase -->
<g id="node1" class="node">
<title>SequenceNumberTagBase</title>
<g id="a_node1"><a xlink:href="src-inet-common-SequenceNumberTagBase.html" xlink:title="Class SequenceNumberTagBase" target="_parent">
<polygon fill="#fff700" stroke="black" points="199.5,-74 56.5,-74 56.5,-55 199.5,-55 199.5,-74"/>
<text text-anchor="middle" x="128" y="-62" font-family="Helvetica,sans-Serif" font-size="10.00">SequenceNumberTagBase</text>
</a>
</g>
</g>
<!-- SequenceNumberInd -->
<g id="node3" class="node">
<title>SequenceNumberInd</title>
<g id="a_node3"><a xlink:href="src-inet-common-SequenceNumberInd.html" xlink:title="Class SequenceNumberInd" target="_parent">
<polygon fill="#fffcaf" stroke="black" points="118,-19 0,-19 0,0 118,0 118,-19"/>
<text text-anchor="middle" x="59" y="-7" font-family="Helvetica,sans-Serif" font-size="10.00">SequenceNumberInd</text>
</a>
</g>
</g>
<!-- SequenceNumberTagBase&#45;&gt;SequenceNumberInd -->
<g id="edge2" class="edge">
<title>SequenceNumberTagBase&#45;&gt;SequenceNumberInd</title>
<path fill="none" stroke="black" d="M116.91,-54.98C104.11,-45.15 83.17,-29.07 70.29,-19.17"/>
</g>
<!-- SequenceNumberReq -->
<g id="node4" class="node">
<title>SequenceNumberReq</title>
<g id="a_node4"><a xlink:href="src-inet-common-SequenceNumberReq.html" xlink:title="Class SequenceNumberReq" target="_parent">
<polygon fill="#fffcaf" stroke="black" points="258,-19 136,-19 136,0 258,0 258,-19"/>
<text text-anchor="middle" x="197" y="-7" font-family="Helvetica,sans-Serif" font-size="10.00">SequenceNumberReq</text>
</a>
</g>
</g>
<!-- SequenceNumberTagBase&#45;&gt;SequenceNumberReq -->
<g id="edge3" class="edge">
<title>SequenceNumberTagBase&#45;&gt;SequenceNumberReq</title>
<path fill="none" stroke="black" d="M139.09,-54.98C151.89,-45.15 172.83,-29.07 185.71,-19.17"/>
</g>
<!-- TagBase -->
<g id="node2" class="node">
<title>TagBase</title>
<g id="a_node2"><a xlink:href="src-inet-common-TagBase.html" xlink:title="Class TagBase" target="_parent">
<polygon fill="#fffcaf" stroke="black" points="156.5,-129 99.5,-129 99.5,-110 156.5,-110 156.5,-129"/>
<text text-anchor="middle" x="128" y="-117" font-family="Helvetica,sans-Serif" font-size="10.00">TagBase</text>
</a>
</g>
</g>
<!-- TagBase&#45;&gt;SequenceNumberTagBase -->
<g id="edge1" class="edge">
<title>TagBase&#45;&gt;SequenceNumberTagBase</title>
<path fill="none" stroke="black" d="M128,-109.75C128,-99.87 128,-83.9 128,-74.09"/>
</g>
</g>
</svg>
