<?xml version="1.0" encoding="UTF-8" standalone="no"?>
<!DOCTYPE svg PUBLIC "-//W3C//DTD SVG 1.1//EN"
 "http://www.w3.org/Graphics/SVG/1.1/DTD/svg11.dtd">
<!-- Generated by graphviz version 2.43.0 (0)
 -->
<!-- Title: opp Pages: 1 -->
<svg width="328pt" height="82pt"
 viewBox="0.00 0.00 327.50 82.00" xmlns="http://www.w3.org/2000/svg" xmlns:xlink="http://www.w3.org/1999/xlink">
<g id="graph0" class="graph" transform="scale(1 1) rotate(0) translate(4 78)">
<title>opp</title>
<polygon fill="transparent" stroke="transparent" points="-4,4 -4,-78 323.5,-78 323.5,4 -4,4"/>
<!-- NextHopForwardingHeader -->
<g id="node1" class="node">
<title>NextHopForwardingHeader</title>
<g id="a_node1"><a xlink:href="src-inet-networklayer-nexthop-NextHopForwardingHeader.html" xlink:title="Class NextHopForwardingHeader" target="_parent">
<polygon fill="#fff700" stroke="black" points="226.5,-74 77.5,-74 77.5,-55 226.5,-55 226.5,-74"/>
<text text-anchor="middle" x="152" y="-62" font-family="Helvetica,sans-Serif" font-size="10.00">NextHopForwardingHeader</text>
</a>
</g>
</g>
<!-- B -->
<g id="node2" class="node">
<title>B</title>
<g id="a_node2"><a xlink:href="src-inet-common-B.html" xlink:title="Class B" target="_parent">
<polygon fill="#fffcaf" stroke="black" points="54,-19 0,-19 0,0 54,0 54,-19"/>
<text text-anchor="middle" x="27" y="-7" font-family="Helvetica,sans-Serif" font-size="10.00">B</text>
</a>
</g>
</g>
<!-- NextHopForwardingHeader&#45;&gt;B -->
<g id="edge1" class="edge">
<title>NextHopForwardingHeader&#45;&gt;B</title>
<path fill="none" stroke="black" d="M131.92,-54.98C111.63,-46.38 80.04,-32.99 56.83,-23.15"/>
<polygon fill="black" stroke="black" points="58.02,-19.85 47.45,-19.17 55.29,-26.3 58.02,-19.85"/>
</g>
<!-- TlvOptions -->
<g id="node3" class="node">
<title>TlvOptions</title>
<g id="a_node3"><a xlink:href="src-inet-common-TlvOptions.html" xlink:title="Class TlvOptions" target="_parent">
<polygon fill="#fffcaf" stroke="black" points="141.5,-19 72.5,-19 72.5,0 141.5,0 141.5,-19"/>
<text text-anchor="middle" x="107" y="-7" font-family="Helvetica,sans-Serif" font-size="10.00">TlvOptions</text>
</a>
</g>
</g>
<!-- NextHopForwardingHeader&#45;&gt;TlvOptions -->
<g id="edge2" class="edge">
<title>NextHopForwardingHeader&#45;&gt;TlvOptions</title>
<path fill="none" stroke="black" d="M144.57,-54.75C138.15,-47.18 128.69,-36.05 120.88,-26.84"/>
<polygon fill="black" stroke="black" points="123.43,-24.45 114.29,-19.09 118.1,-28.98 123.43,-24.45"/>
</g>
<!-- IpProtocolId -->
<g id="node4" class="node">
<title>IpProtocolId</title>
<g id="a_node4"><a xlink:href="src-inet-networklayer-common-IpProtocolId.html" xlink:title="Enum IpProtocolId" target="_parent">
<polygon fill="#d0ffd0" stroke="black" points="234,-19 160,-19 160,0 234,0 234,-19"/>
<text text-anchor="middle" x="197" y="-7" font-family="Helvetica,sans-Serif" font-size="10.00">IpProtocolId</text>
</a>
</g>
</g>
<!-- NextHopForwardingHeader&#45;&gt;IpProtocolId -->
<g id="edge3" class="edge">
<title>NextHopForwardingHeader&#45;&gt;IpProtocolId</title>
<path fill="none" stroke="black" d="M159.43,-54.75C165.85,-47.18 175.31,-36.05 183.12,-26.84"/>
<polygon fill="black" stroke="black" points="185.9,-28.98 189.71,-19.09 180.57,-24.45 185.9,-28.98"/>
</g>
<!-- L3Address -->
<g id="node5" class="node">
<title>L3Address</title>
<g id="a_node5"><a xlink:href="src-inet-networklayer-common-L3Address.html" xlink:title="Class L3Address" target="_parent">
<polygon fill="#fffcaf" stroke="black" points="319.5,-19 252.5,-19 252.5,0 319.5,0 319.5,-19"/>
<text text-anchor="middle" x="286" y="-7" font-family="Helvetica,sans-Serif" font-size="10.00">L3Address</text>
</a>
</g>
</g>
<!-- NextHopForwardingHeader&#45;&gt;L3Address -->
<g id="edge4" class="edge">
<title>NextHopForwardingHeader&#45;&gt;L3Address</title>
<path fill="none" stroke="black" d="M173.53,-54.98C195.47,-46.3 229.74,-32.75 254.69,-22.88"/>
<polygon fill="black" stroke="black" points="256.07,-26.1 264.08,-19.17 253.49,-19.59 256.07,-26.1"/>
</g>
</g>
</svg>
