<?xml version="1.0" encoding="UTF-8" standalone="no"?>
<!DOCTYPE svg PUBLIC "-//W3C//DTD SVG 1.1//EN"
 "http://www.w3.org/Graphics/SVG/1.1/DTD/svg11.dtd">
<!-- Generated by graphviz version 2.43.0 (0)
 -->
<!-- Title: opp Pages: 1 -->
<svg width="324pt" height="137pt"
 viewBox="0.00 0.00 324.00 137.00" xmlns="http://www.w3.org/2000/svg" xmlns:xlink="http://www.w3.org/1999/xlink">
<g id="graph0" class="graph" transform="scale(1 1) rotate(0) translate(4 133)">
<title>opp</title>
<polygon fill="transparent" stroke="transparent" points="-4,4 -4,-133 320,-133 320,4 -4,4"/>
<!-- EigrpIpv4Message -->
<g id="node1" class="node">
<title>EigrpIpv4Message</title>
<g id="a_node1"><a xlink:href="src-inet-routing-eigrp-messages-EigrpIpv4Message.html" xlink:title="Class EigrpIpv4Message" target="_parent">
<polygon fill="#fff700" stroke="black" points="208,-74 102,-74 102,-55 208,-55 208,-74"/>
<text text-anchor="middle" x="155" y="-62" font-family="Helvetica,sans-Serif" font-size="10.00">EigrpIpv4Message</text>
</a>
</g>
</g>
<!-- EigrpIpv4Query -->
<g id="node3" class="node">
<title>EigrpIpv4Query</title>
<g id="a_node3"><a xlink:href="src-inet-routing-eigrp-messages-EigrpIpv4Query.html" xlink:title="Class EigrpIpv4Query" target="_parent">
<polygon fill="#fffcaf" stroke="black" points="92,-19 0,-19 0,0 92,0 92,-19"/>
<text text-anchor="middle" x="46" y="-7" font-family="Helvetica,sans-Serif" font-size="10.00">EigrpIpv4Query</text>
</a>
</g>
</g>
<!-- EigrpIpv4Message&#45;&gt;EigrpIpv4Query -->
<g id="edge2" class="edge">
<title>EigrpIpv4Message&#45;&gt;EigrpIpv4Query</title>
<path fill="none" stroke="black" d="M137.49,-54.98C117.27,-45.15 84.19,-29.07 63.83,-19.17"/>
</g>
<!-- EigrpIpv4Reply -->
<g id="node4" class="node">
<title>EigrpIpv4Reply</title>
<g id="a_node4"><a xlink:href="src-inet-routing-eigrp-messages-EigrpIpv4Reply.html" xlink:title="Class EigrpIpv4Reply" target="_parent">
<polygon fill="#fffcaf" stroke="black" points="200,-19 110,-19 110,0 200,0 200,-19"/>
<text text-anchor="middle" x="155" y="-7" font-family="Helvetica,sans-Serif" font-size="10.00">EigrpIpv4Reply</text>
</a>
</g>
</g>
<!-- EigrpIpv4Message&#45;&gt;EigrpIpv4Reply -->
<g id="edge3" class="edge">
<title>EigrpIpv4Message&#45;&gt;EigrpIpv4Reply</title>
<path fill="none" stroke="black" d="M155,-54.75C155,-44.87 155,-28.9 155,-19.09"/>
</g>
<!-- EigrpIpv4Update -->
<g id="node5" class="node">
<title>EigrpIpv4Update</title>
<g id="a_node5"><a xlink:href="src-inet-routing-eigrp-messages-EigrpIpv4Update.html" xlink:title="Class EigrpIpv4Update" target="_parent">
<polygon fill="#fffcaf" stroke="black" points="316,-19 218,-19 218,0 316,0 316,-19"/>
<text text-anchor="middle" x="267" y="-7" font-family="Helvetica,sans-Serif" font-size="10.00">EigrpIpv4Update</text>
</a>
</g>
</g>
<!-- EigrpIpv4Message&#45;&gt;EigrpIpv4Update -->
<g id="edge4" class="edge">
<title>EigrpIpv4Message&#45;&gt;EigrpIpv4Update</title>
<path fill="none" stroke="black" d="M172.99,-54.98C193.77,-45.15 227.76,-29.07 248.68,-19.17"/>
</g>
<!-- EigrpMessage -->
<g id="node2" class="node">
<title>EigrpMessage</title>
<g id="a_node2"><a xlink:href="src-inet-routing-eigrp-messages-EigrpMessage.html" xlink:title="Class EigrpMessage" target="_parent">
<polygon fill="#fffcaf" stroke="black" points="197.5,-129 112.5,-129 112.5,-110 197.5,-110 197.5,-129"/>
<text text-anchor="middle" x="155" y="-117" font-family="Helvetica,sans-Serif" font-size="10.00">EigrpMessage</text>
</a>
</g>
</g>
<!-- EigrpMessage&#45;&gt;EigrpIpv4Message -->
<g id="edge1" class="edge">
<title>EigrpMessage&#45;&gt;EigrpIpv4Message</title>
<path fill="none" stroke="black" d="M155,-109.75C155,-99.87 155,-83.9 155,-74.09"/>
</g>
</g>
</svg>
