<?xml version="1.0" encoding="UTF-8" standalone="no"?>
<!DOCTYPE svg PUBLIC "-//W3C//DTD SVG 1.1//EN"
 "http://www.w3.org/Graphics/SVG/1.1/DTD/svg11.dtd">
<!-- Generated by graphviz version 2.43.0 (0)
 -->
<!-- Title: opp Pages: 1 -->
<svg width="664pt" height="82pt"
 viewBox="0.00 0.00 664.00 82.00" xmlns="http://www.w3.org/2000/svg" xmlns:xlink="http://www.w3.org/1999/xlink">
<g id="graph0" class="graph" transform="scale(1 1) rotate(0) translate(4 78)">
<title>opp</title>
<polygon fill="transparent" stroke="transparent" points="-4,4 -4,-78 660,-78 660,4 -4,4"/>
<!-- TcpConnection -->
<g id="node1" class="node">
<title>TcpConnection</title>
<g id="a_node1"><a xlink:href="src-inet-transportlayer-tcp-TcpConnection.html" xlink:title="Class TcpConnection" target="_parent">
<polygon fill="#fff700" stroke="black" points="388.5,-74 301.5,-74 301.5,-55 388.5,-55 388.5,-74"/>
<text text-anchor="middle" x="345" y="-62" font-family="Helvetica,sans-Serif" font-size="10.00">TcpConnection</text>
</a>
</g>
</g>
<!-- TcpSendQueue -->
<g id="node2" class="node">
<title>TcpSendQueue</title>
<g id="a_node2"><a xlink:href="src-inet-transportlayer-tcp-TcpSendQueue.html" xlink:title="Class TcpSendQueue" target="_parent">
<polygon fill="#fffcaf" stroke="black" points="88,-19 0,-19 0,0 88,0 88,-19"/>
<text text-anchor="middle" x="44" y="-7" font-family="Helvetica,sans-Serif" font-size="10.00">TcpSendQueue</text>
</a>
</g>
</g>
<!-- TcpConnection&#45;&gt;TcpSendQueue -->
<g id="edge1" class="edge">
<title>TcpConnection&#45;&gt;TcpSendQueue</title>
<path fill="none" stroke="black" d="M301.23,-55.79C247.55,-46.34 156.54,-30.32 98.41,-20.08"/>
<polygon fill="black" stroke="black" points="98.77,-16.59 88.31,-18.3 97.55,-23.48 98.77,-16.59"/>
</g>
<!-- TcpStateVariables -->
<g id="node3" class="node">
<title>TcpStateVariables</title>
<g id="a_node3"><a xlink:href="src-inet-transportlayer-tcp-TcpStateVariables.html" xlink:title="Struct TcpStateVariables" target="_parent">
<polygon fill="#d0d0ff" stroke="black" points="210,-19 106,-19 106,0 210,0 210,-19"/>
<text text-anchor="middle" x="158" y="-7" font-family="Helvetica,sans-Serif" font-size="10.00">TcpStateVariables</text>
</a>
</g>
</g>
<!-- TcpConnection&#45;&gt;TcpStateVariables -->
<g id="edge2" class="edge">
<title>TcpConnection&#45;&gt;TcpStateVariables</title>
<path fill="none" stroke="black" d="M314.96,-54.98C283.29,-46.01 233.23,-31.82 198.19,-21.89"/>
<polygon fill="black" stroke="black" points="198.86,-18.44 188.28,-19.08 196.95,-25.18 198.86,-18.44"/>
</g>
<!-- TcpReceiveQueue -->
<g id="node4" class="node">
<title>TcpReceiveQueue</title>
<g id="a_node4"><a xlink:href="src-inet-transportlayer-tcp-TcpReceiveQueue.html" xlink:title="Class TcpReceiveQueue" target="_parent">
<polygon fill="#fffcaf" stroke="black" points="331.5,-19 228.5,-19 228.5,0 331.5,0 331.5,-19"/>
<text text-anchor="middle" x="280" y="-7" font-family="Helvetica,sans-Serif" font-size="10.00">TcpReceiveQueue</text>
</a>
</g>
</g>
<!-- TcpConnection&#45;&gt;TcpReceiveQueue -->
<g id="edge3" class="edge">
<title>TcpConnection&#45;&gt;TcpReceiveQueue</title>
<path fill="none" stroke="black" d="M334.56,-54.98C324.85,-47.07 310.18,-35.11 298.5,-25.58"/>
<polygon fill="black" stroke="black" points="300.6,-22.78 290.63,-19.17 296.17,-28.2 300.6,-22.78"/>
</g>
<!-- TcpSackRexmitQueue -->
<g id="node5" class="node">
<title>TcpSackRexmitQueue</title>
<g id="a_node5"><a xlink:href="src-inet-transportlayer-tcp-TcpSackRexmitQueue.html" xlink:title="Class TcpSackRexmitQueue" target="_parent">
<polygon fill="#fffcaf" stroke="black" points="472,-19 350,-19 350,0 472,0 472,-19"/>
<text text-anchor="middle" x="411" y="-7" font-family="Helvetica,sans-Serif" font-size="10.00">TcpSackRexmitQueue</text>
</a>
</g>
</g>
<!-- TcpConnection&#45;&gt;TcpSackRexmitQueue -->
<g id="edge4" class="edge">
<title>TcpConnection&#45;&gt;TcpSackRexmitQueue</title>
<path fill="none" stroke="black" d="M355.6,-54.98C365.46,-47.07 380.35,-35.11 392.22,-25.58"/>
<polygon fill="black" stroke="black" points="394.6,-28.16 400.2,-19.17 390.21,-22.7 394.6,-28.16"/>
</g>
<!-- L3Address -->
<g id="node6" class="node">
<title>L3Address</title>
<g id="a_node6"><a xlink:href="src-inet-networklayer-common-L3Address.html" xlink:title="Class L3Address" target="_parent">
<polygon fill="#fffcaf" stroke="black" points="557.5,-19 490.5,-19 490.5,0 557.5,0 557.5,-19"/>
<text text-anchor="middle" x="524" y="-7" font-family="Helvetica,sans-Serif" font-size="10.00">L3Address</text>
</a>
</g>
</g>
<!-- TcpConnection&#45;&gt;L3Address -->
<g id="edge5" class="edge">
<title>TcpConnection&#45;&gt;L3Address</title>
<path fill="none" stroke="black" d="M373.76,-54.98C403.94,-46.05 451.57,-31.94 485.1,-22.02"/>
<polygon fill="black" stroke="black" points="486.42,-25.28 495.02,-19.08 484.43,-18.57 486.42,-25.28"/>
</g>
<!-- TcpAlgorithm -->
<g id="node7" class="node">
<title>TcpAlgorithm</title>
<g id="a_node7"><a xlink:href="src-inet-transportlayer-tcp-TcpAlgorithm.html" xlink:title="Class TcpAlgorithm" target="_parent">
<polygon fill="#fffcaf" stroke="black" points="656,-19 576,-19 576,0 656,0 656,-19"/>
<text text-anchor="middle" x="616" y="-7" font-family="Helvetica,sans-Serif" font-size="10.00">TcpAlgorithm</text>
</a>
</g>
</g>
<!-- TcpConnection&#45;&gt;TcpAlgorithm -->
<g id="edge6" class="edge">
<title>TcpConnection&#45;&gt;TcpAlgorithm</title>
<path fill="none" stroke="black" d="M388.54,-54.98C436.83,-45.54 514.63,-30.32 565.54,-20.37"/>
<polygon fill="black" stroke="black" points="566.52,-23.74 575.66,-18.39 565.18,-16.87 566.52,-23.74"/>
</g>
</g>
</svg>
