<?xml version="1.0" encoding="UTF-8" standalone="no"?>
<!DOCTYPE svg PUBLIC "-//W3C//DTD SVG 1.1//EN"
 "http://www.w3.org/Graphics/SVG/1.1/DTD/svg11.dtd">
<!-- Generated by graphviz version 2.43.0 (0)
 -->
<!-- Title: opp Pages: 1 -->
<svg width="275pt" height="82pt"
 viewBox="0.00 0.00 274.50 82.00" xmlns="http://www.w3.org/2000/svg" xmlns:xlink="http://www.w3.org/1999/xlink">
<g id="graph0" class="graph" transform="scale(1 1) rotate(0) translate(4 78)">
<title>opp</title>
<polygon fill="transparent" stroke="transparent" points="-4,4 -4,-78 270.5,-78 270.5,4 -4,4"/>
<!-- OspfPacketBase -->
<g id="node1" class="node">
<title>OspfPacketBase</title>
<g id="a_node1"><a xlink:href="src-inet-routing-ospf_common-OspfPacketBase.html" xlink:title="Class OspfPacketBase" target="_parent">
<polygon fill="#fff700" stroke="black" points="189.5,-74 94.5,-74 94.5,-55 189.5,-55 189.5,-74"/>
<text text-anchor="middle" x="142" y="-62" font-family="Helvetica,sans-Serif" font-size="10.00">OspfPacketBase</text>
</a>
</g>
</g>
<!-- OspfPacketType -->
<g id="node2" class="node">
<title>OspfPacketType</title>
<g id="a_node2"><a xlink:href="src-inet-routing-ospf_common-OspfPacketType.html" xlink:title="Enum OspfPacketType" target="_parent">
<polygon fill="#d0ffd0" stroke="black" points="94,-19 0,-19 0,0 94,0 94,-19"/>
<text text-anchor="middle" x="47" y="-7" font-family="Helvetica,sans-Serif" font-size="10.00">OspfPacketType</text>
</a>
</g>
</g>
<!-- OspfPacketBase&#45;&gt;OspfPacketType -->
<g id="edge1" class="edge">
<title>OspfPacketBase&#45;&gt;OspfPacketType</title>
<path fill="none" stroke="black" d="M126.74,-54.98C111.87,-46.69 89.02,-33.94 71.58,-24.22"/>
<polygon fill="black" stroke="black" points="72.98,-20.99 62.54,-19.17 69.57,-27.1 72.98,-20.99"/>
</g>
<!-- CrcMode -->
<g id="node3" class="node">
<title>CrcMode</title>
<g id="a_node3"><a xlink:href="src-inet-transportlayer-common-CrcMode.html" xlink:title="Enum CrcMode" target="_parent">
<polygon fill="#d0ffd0" stroke="black" points="171.5,-19 112.5,-19 112.5,0 171.5,0 171.5,-19"/>
<text text-anchor="middle" x="142" y="-7" font-family="Helvetica,sans-Serif" font-size="10.00">CrcMode</text>
</a>
</g>
</g>
<!-- OspfPacketBase&#45;&gt;CrcMode -->
<g id="edge2" class="edge">
<title>OspfPacketBase&#45;&gt;CrcMode</title>
<path fill="none" stroke="black" d="M142,-54.75C142,-47.8 142,-37.85 142,-29.13"/>
<polygon fill="black" stroke="black" points="145.5,-29.09 142,-19.09 138.5,-29.09 145.5,-29.09"/>
</g>
<!-- Ipv4Address -->
<g id="node4" class="node">
<title>Ipv4Address</title>
<g id="a_node4"><a xlink:href="src-inet-networklayer-contract-ipv4-Ipv4Address.html" xlink:title="Class Ipv4Address" target="_parent">
<polygon fill="#fffcaf" stroke="black" points="266.5,-19 189.5,-19 189.5,0 266.5,0 266.5,-19"/>
<text text-anchor="middle" x="228" y="-7" font-family="Helvetica,sans-Serif" font-size="10.00">Ipv4Address</text>
</a>
</g>
</g>
<!-- OspfPacketBase&#45;&gt;Ipv4Address -->
<g id="edge3" class="edge">
<title>OspfPacketBase&#45;&gt;Ipv4Address</title>
<path fill="none" stroke="black" d="M155.82,-54.98C169.15,-46.77 189.58,-34.18 205.31,-24.49"/>
<polygon fill="black" stroke="black" points="207.25,-27.4 213.93,-19.17 203.58,-21.44 207.25,-27.4"/>
</g>
</g>
</svg>
