<?xml version="1.0" encoding="UTF-8" standalone="no"?>
<!DOCTYPE svg PUBLIC "-//W3C//DTD SVG 1.1//EN"
 "http://www.w3.org/Graphics/SVG/1.1/DTD/svg11.dtd">
<!-- Generated by graphviz version 2.43.0 (0)
 -->
<!-- Title: opp Pages: 1 -->
<svg width="879pt" height="137pt"
 viewBox="0.00 0.00 878.50 137.00" xmlns="http://www.w3.org/2000/svg" xmlns:xlink="http://www.w3.org/1999/xlink">
<g id="graph0" class="graph" transform="scale(1 1) rotate(0) translate(4 133)">
<title>opp</title>
<polygon fill="transparent" stroke="transparent" points="-4,4 -4,-133 874.5,-133 874.5,4 -4,4"/>
<!-- MobilityHeader -->
<g id="node1" class="node">
<title>MobilityHeader</title>
<g id="a_node1"><a xlink:href="src-inet-networklayer-xmipv6-MobilityHeader.html" xlink:title="Class MobilityHeader" target="_parent">
<polygon fill="#fff700" stroke="black" points="546,-74 454,-74 454,-55 546,-55 546,-74"/>
<text text-anchor="middle" x="500" y="-62" font-family="Helvetica,sans-Serif" font-size="10.00">MobilityHeader</text>
</a>
</g>
</g>
<!-- BindingAcknowledgement -->
<g id="node3" class="node">
<title>BindingAcknowledgement</title>
<g id="a_node3"><a xlink:href="src-inet-networklayer-xmipv6-BindingAcknowledgement.html" xlink:title="Class BindingAcknowledgement" target="_parent">
<polygon fill="#fffcaf" stroke="black" points="144,-19 0,-19 0,0 144,0 144,-19"/>
<text text-anchor="middle" x="72" y="-7" font-family="Helvetica,sans-Serif" font-size="10.00">BindingAcknowledgement</text>
</a>
</g>
</g>
<!-- MobilityHeader&#45;&gt;BindingAcknowledgement -->
<g id="edge2" class="edge">
<title>MobilityHeader&#45;&gt;BindingAcknowledgement</title>
<path fill="none" stroke="black" d="M453.79,-57.78C378.46,-48.45 228.79,-29.92 140.89,-19.03"/>
</g>
<!-- BindingError -->
<g id="node4" class="node">
<title>BindingError</title>
<g id="a_node4"><a xlink:href="src-inet-networklayer-xmipv6-BindingError.html" xlink:title="Class BindingError" target="_parent">
<polygon fill="#fffcaf" stroke="black" points="239.5,-19 162.5,-19 162.5,0 239.5,0 239.5,-19"/>
<text text-anchor="middle" x="201" y="-7" font-family="Helvetica,sans-Serif" font-size="10.00">BindingError</text>
</a>
</g>
</g>
<!-- MobilityHeader&#45;&gt;BindingError -->
<g id="edge3" class="edge">
<title>MobilityHeader&#45;&gt;BindingError</title>
<path fill="none" stroke="black" d="M453.54,-55.36C402.97,-46.48 319.72,-31.82 248,-19 245.31,-18.52 242.53,-18.02 239.73,-17.52"/>
</g>
<!-- BindingRefreshRequest -->
<g id="node5" class="node">
<title>BindingRefreshRequest</title>
<g id="a_node5"><a xlink:href="src-inet-networklayer-xmipv6-BindingRefreshRequest.html" xlink:title="Class BindingRefreshRequest" target="_parent">
<polygon fill="#fffcaf" stroke="black" points="388.5,-19 257.5,-19 257.5,0 388.5,0 388.5,-19"/>
<text text-anchor="middle" x="323" y="-7" font-family="Helvetica,sans-Serif" font-size="10.00">BindingRefreshRequest</text>
</a>
</g>
</g>
<!-- MobilityHeader&#45;&gt;BindingRefreshRequest -->
<g id="edge4" class="edge">
<title>MobilityHeader&#45;&gt;BindingRefreshRequest</title>
<path fill="none" stroke="black" d="M471.56,-54.98C438.63,-45.12 384.69,-28.97 351.66,-19.08"/>
</g>
<!-- BindingUpdate -->
<g id="node6" class="node">
<title>BindingUpdate</title>
<g id="a_node6"><a xlink:href="src-inet-networklayer-xmipv6-BindingUpdate.html" xlink:title="Class BindingUpdate" target="_parent">
<polygon fill="#fffcaf" stroke="black" points="495.5,-19 406.5,-19 406.5,0 495.5,0 495.5,-19"/>
<text text-anchor="middle" x="451" y="-7" font-family="Helvetica,sans-Serif" font-size="10.00">BindingUpdate</text>
</a>
</g>
</g>
<!-- MobilityHeader&#45;&gt;BindingUpdate -->
<g id="edge5" class="edge">
<title>MobilityHeader&#45;&gt;BindingUpdate</title>
<path fill="none" stroke="black" d="M491.91,-54.75C482.78,-44.87 468.01,-28.9 458.94,-19.09"/>
</g>
<!-- CareOfTest -->
<g id="node7" class="node">
<title>CareOfTest</title>
<g id="a_node7"><a xlink:href="src-inet-networklayer-xmipv6-CareOfTest.html" xlink:title="Class CareOfTest" target="_parent">
<polygon fill="#fffcaf" stroke="black" points="584,-19 514,-19 514,0 584,0 584,-19"/>
<text text-anchor="middle" x="549" y="-7" font-family="Helvetica,sans-Serif" font-size="10.00">CareOfTest</text>
</a>
</g>
</g>
<!-- MobilityHeader&#45;&gt;CareOfTest -->
<g id="edge6" class="edge">
<title>MobilityHeader&#45;&gt;CareOfTest</title>
<path fill="none" stroke="black" d="M508.09,-54.75C517.22,-44.87 531.99,-28.9 541.06,-19.09"/>
</g>
<!-- CareOfTestInit -->
<g id="node8" class="node">
<title>CareOfTestInit</title>
<g id="a_node8"><a xlink:href="src-inet-networklayer-xmipv6-CareOfTestInit.html" xlink:title="Class CareOfTestInit" target="_parent">
<polygon fill="#fffcaf" stroke="black" points="688,-19 602,-19 602,0 688,0 688,-19"/>
<text text-anchor="middle" x="645" y="-7" font-family="Helvetica,sans-Serif" font-size="10.00">CareOfTestInit</text>
</a>
</g>
</g>
<!-- MobilityHeader&#45;&gt;CareOfTestInit -->
<g id="edge7" class="edge">
<title>MobilityHeader&#45;&gt;CareOfTestInit</title>
<path fill="none" stroke="black" d="M523.3,-54.98C550.2,-45.15 594.2,-29.07 621.28,-19.17"/>
</g>
<!-- HomeTest -->
<g id="node9" class="node">
<title>HomeTest</title>
<g id="a_node9"><a xlink:href="src-inet-networklayer-xmipv6-HomeTest.html" xlink:title="Class HomeTest" target="_parent">
<polygon fill="#fffcaf" stroke="black" points="771.5,-19 706.5,-19 706.5,0 771.5,0 771.5,-19"/>
<text text-anchor="middle" x="739" y="-7" font-family="Helvetica,sans-Serif" font-size="10.00">HomeTest</text>
</a>
</g>
</g>
<!-- MobilityHeader&#45;&gt;HomeTest -->
<g id="edge8" class="edge">
<title>MobilityHeader&#45;&gt;HomeTest</title>
<path fill="none" stroke="black" d="M538.4,-54.98C584.98,-44.66 662.68,-27.42 706.45,-17.72"/>
</g>
<!-- HomeTestInit -->
<g id="node10" class="node">
<title>HomeTestInit</title>
<g id="a_node10"><a xlink:href="src-inet-networklayer-xmipv6-HomeTestInit.html" xlink:title="Class HomeTestInit" target="_parent">
<polygon fill="#fffcaf" stroke="black" points="870.5,-19 789.5,-19 789.5,0 870.5,0 870.5,-19"/>
<text text-anchor="middle" x="830" y="-7" font-family="Helvetica,sans-Serif" font-size="10.00">HomeTestInit</text>
</a>
</g>
</g>
<!-- MobilityHeader&#45;&gt;HomeTestInit -->
<g id="edge9" class="edge">
<title>MobilityHeader&#45;&gt;HomeTestInit</title>
<path fill="none" stroke="black" d="M546.28,-56.38C602,-47.77 698.41,-32.7 781,-19 783.73,-18.55 786.54,-18.08 789.37,-17.6"/>
</g>
<!-- FieldsChunk -->
<g id="node2" class="node">
<title>FieldsChunk</title>
<g id="a_node2"><a xlink:href="src-inet-common-packet-chunk-FieldsChunk.html" xlink:title="Class FieldsChunk" target="_parent">
<polygon fill="#fffcaf" stroke="black" points="537.5,-129 462.5,-129 462.5,-110 537.5,-110 537.5,-129"/>
<text text-anchor="middle" x="500" y="-117" font-family="Helvetica,sans-Serif" font-size="10.00">FieldsChunk</text>
</a>
</g>
</g>
<!-- FieldsChunk&#45;&gt;MobilityHeader -->
<g id="edge1" class="edge">
<title>FieldsChunk&#45;&gt;MobilityHeader</title>
<path fill="none" stroke="black" d="M500,-109.75C500,-99.87 500,-83.9 500,-74.09"/>
</g>
</g>
</svg>
