<?xml version="1.0" encoding="UTF-8" standalone="no"?>
<!DOCTYPE svg PUBLIC "-//W3C//DTD SVG 1.1//EN"
 "http://www.w3.org/Graphics/SVG/1.1/DTD/svg11.dtd">
<!-- Generated by graphviz version 2.43.0 (0)
 -->
<!-- Title: opp Pages: 1 -->
<svg width="154pt" height="137pt"
 viewBox="0.00 0.00 154.00 137.00" xmlns="http://www.w3.org/2000/svg" xmlns:xlink="http://www.w3.org/1999/xlink">
<g id="graph0" class="graph" transform="scale(1 1) rotate(0) translate(4 133)">
<title>opp</title>
<polygon fill="transparent" stroke="transparent" points="-4,4 -4,-133 150,-133 150,4 -4,4"/>
<!-- L4PortTagBase -->
<g id="node1" class="node">
<title>L4PortTagBase</title>
<g id="a_node1"><a xlink:href="src-inet-transportlayer-common-L4PortTagBase.html" xlink:title="Class L4PortTagBase" target="_parent">
<polygon fill="#fff700" stroke="black" points="116,-74 28,-74 28,-55 116,-55 116,-74"/>
<text text-anchor="middle" x="72" y="-62" font-family="Helvetica,sans-Serif" font-size="10.00">L4PortTagBase</text>
</a>
</g>
</g>
<!-- L4PortInd -->
<g id="node3" class="node">
<title>L4PortInd</title>
<g id="a_node3"><a xlink:href="src-inet-transportlayer-common-L4PortInd.html" xlink:title="Class L4PortInd" target="_parent">
<polygon fill="#fffcaf" stroke="black" points="62,-19 0,-19 0,0 62,0 62,-19"/>
<text text-anchor="middle" x="31" y="-7" font-family="Helvetica,sans-Serif" font-size="10.00">L4PortInd</text>
</a>
</g>
</g>
<!-- L4PortTagBase&#45;&gt;L4PortInd -->
<g id="edge2" class="edge">
<title>L4PortTagBase&#45;&gt;L4PortInd</title>
<path fill="none" stroke="black" d="M65.23,-54.75C57.59,-44.87 45.23,-28.9 37.64,-19.09"/>
</g>
<!-- L4PortReq -->
<g id="node4" class="node">
<title>L4PortReq</title>
<g id="a_node4"><a xlink:href="src-inet-transportlayer-common-L4PortReq.html" xlink:title="Class L4PortReq" target="_parent">
<polygon fill="#fffcaf" stroke="black" points="146,-19 80,-19 80,0 146,0 146,-19"/>
<text text-anchor="middle" x="113" y="-7" font-family="Helvetica,sans-Serif" font-size="10.00">L4PortReq</text>
</a>
</g>
</g>
<!-- L4PortTagBase&#45;&gt;L4PortReq -->
<g id="edge3" class="edge">
<title>L4PortTagBase&#45;&gt;L4PortReq</title>
<path fill="none" stroke="black" d="M78.77,-54.75C86.41,-44.87 98.77,-28.9 106.36,-19.09"/>
</g>
<!-- TagBase -->
<g id="node2" class="node">
<title>TagBase</title>
<g id="a_node2"><a xlink:href="src-inet-common-TagBase.html" xlink:title="Class TagBase" target="_parent">
<polygon fill="#fffcaf" stroke="black" points="100.5,-129 43.5,-129 43.5,-110 100.5,-110 100.5,-129"/>
<text text-anchor="middle" x="72" y="-117" font-family="Helvetica,sans-Serif" font-size="10.00">TagBase</text>
</a>
</g>
</g>
<!-- TagBase&#45;&gt;L4PortTagBase -->
<g id="edge1" class="edge">
<title>TagBase&#45;&gt;L4PortTagBase</title>
<path fill="none" stroke="black" d="M72,-109.75C72,-99.87 72,-83.9 72,-74.09"/>
</g>
</g>
</svg>
