<?xml version="1.0" encoding="UTF-8" standalone="no"?>
<!DOCTYPE svg PUBLIC "-//W3C//DTD SVG 1.1//EN"
 "http://www.w3.org/Graphics/SVG/1.1/DTD/svg11.dtd">
<!-- Generated by graphviz version 2.43.0 (0)
 -->
<!-- Title: opp Pages: 1 -->
<svg width="646pt" height="137pt"
 viewBox="0.00 0.00 646.00 137.00" xmlns="http://www.w3.org/2000/svg" xmlns:xlink="http://www.w3.org/1999/xlink">
<g id="graph0" class="graph" transform="scale(1 1) rotate(0) translate(4 133)">
<title>opp</title>
<polygon fill="transparent" stroke="transparent" points="-4,4 -4,-133 642,-133 642,4 -4,4"/>
<!-- EigrpMessage -->
<g id="node1" class="node">
<title>EigrpMessage</title>
<g id="a_node1"><a xlink:href="src-inet-routing-eigrp-messages-EigrpMessage.html" xlink:title="Class EigrpMessage" target="_parent">
<polygon fill="#fff700" stroke="black" points="354.5,-74 269.5,-74 269.5,-55 354.5,-55 354.5,-74"/>
<text text-anchor="middle" x="312" y="-62" font-family="Helvetica,sans-Serif" font-size="10.00">EigrpMessage</text>
</a>
</g>
</g>
<!-- EigrpIpv4Ack -->
<g id="node3" class="node">
<title>EigrpIpv4Ack</title>
<g id="a_node3"><a xlink:href="src-inet-routing-eigrp-messages-EigrpIpv4Ack.html" xlink:title="Class EigrpIpv4Ack" target="_parent">
<polygon fill="#fffcaf" stroke="black" points="80,-19 0,-19 0,0 80,0 80,-19"/>
<text text-anchor="middle" x="40" y="-7" font-family="Helvetica,sans-Serif" font-size="10.00">EigrpIpv4Ack</text>
</a>
</g>
</g>
<!-- EigrpMessage&#45;&gt;EigrpIpv4Ack -->
<g id="edge2" class="edge">
<title>EigrpMessage&#45;&gt;EigrpIpv4Ack</title>
<path fill="none" stroke="black" d="M269.2,-55.16C217.44,-45.07 130.96,-28.22 80.33,-18.36"/>
</g>
<!-- EigrpIpv4Hello -->
<g id="node4" class="node">
<title>EigrpIpv4Hello</title>
<g id="a_node4"><a xlink:href="src-inet-routing-eigrp-messages-EigrpIpv4Hello.html" xlink:title="Class EigrpIpv4Hello" target="_parent">
<polygon fill="#fffcaf" stroke="black" points="186,-19 98,-19 98,0 186,0 186,-19"/>
<text text-anchor="middle" x="142" y="-7" font-family="Helvetica,sans-Serif" font-size="10.00">EigrpIpv4Hello</text>
</a>
</g>
</g>
<!-- EigrpMessage&#45;&gt;EigrpIpv4Hello -->
<g id="edge3" class="edge">
<title>EigrpMessage&#45;&gt;EigrpIpv4Hello</title>
<path fill="none" stroke="black" d="M284.69,-54.98C253.06,-45.12 201.25,-28.97 169.53,-19.08"/>
</g>
<!-- EigrpIpv4Message -->
<g id="node5" class="node">
<title>EigrpIpv4Message</title>
<g id="a_node5"><a xlink:href="src-inet-routing-eigrp-messages-EigrpIpv4Message.html" xlink:title="Class EigrpIpv4Message" target="_parent">
<polygon fill="#fffcaf" stroke="black" points="310,-19 204,-19 204,0 310,0 310,-19"/>
<text text-anchor="middle" x="257" y="-7" font-family="Helvetica,sans-Serif" font-size="10.00">EigrpIpv4Message</text>
</a>
</g>
</g>
<!-- EigrpMessage&#45;&gt;EigrpIpv4Message -->
<g id="edge4" class="edge">
<title>EigrpMessage&#45;&gt;EigrpIpv4Message</title>
<path fill="none" stroke="black" d="M302.92,-54.75C292.67,-44.87 276.09,-28.9 265.91,-19.09"/>
</g>
<!-- EigrpIpv6Ack -->
<g id="node6" class="node">
<title>EigrpIpv6Ack</title>
<g id="a_node6"><a xlink:href="src-inet-routing-eigrp-messages-EigrpIpv6Ack.html" xlink:title="Class EigrpIpv6Ack" target="_parent">
<polygon fill="#fffcaf" stroke="black" points="408,-19 328,-19 328,0 408,0 408,-19"/>
<text text-anchor="middle" x="368" y="-7" font-family="Helvetica,sans-Serif" font-size="10.00">EigrpIpv6Ack</text>
</a>
</g>
</g>
<!-- EigrpMessage&#45;&gt;EigrpIpv6Ack -->
<g id="edge5" class="edge">
<title>EigrpMessage&#45;&gt;EigrpIpv6Ack</title>
<path fill="none" stroke="black" d="M321,-54.98C331.39,-45.15 348.38,-29.07 358.84,-19.17"/>
</g>
<!-- EigrpIpv6Hello -->
<g id="node7" class="node">
<title>EigrpIpv6Hello</title>
<g id="a_node7"><a xlink:href="src-inet-routing-eigrp-messages-EigrpIpv6Hello.html" xlink:title="Class EigrpIpv6Hello" target="_parent">
<polygon fill="#fffcaf" stroke="black" points="514,-19 426,-19 426,0 514,0 514,-19"/>
<text text-anchor="middle" x="470" y="-7" font-family="Helvetica,sans-Serif" font-size="10.00">EigrpIpv6Hello</text>
</a>
</g>
</g>
<!-- EigrpMessage&#45;&gt;EigrpIpv6Hello -->
<g id="edge6" class="edge">
<title>EigrpMessage&#45;&gt;EigrpIpv6Hello</title>
<path fill="none" stroke="black" d="M337.39,-54.98C366.78,-45.12 414.93,-28.97 444.42,-19.08"/>
</g>
<!-- EigrpIpv6Message -->
<g id="node8" class="node">
<title>EigrpIpv6Message</title>
<g id="a_node8"><a xlink:href="src-inet-routing-eigrp-messages-EigrpIpv6Message.html" xlink:title="Class EigrpIpv6Message" target="_parent">
<polygon fill="#fffcaf" stroke="black" points="638,-19 532,-19 532,0 638,0 638,-19"/>
<text text-anchor="middle" x="585" y="-7" font-family="Helvetica,sans-Serif" font-size="10.00">EigrpIpv6Message</text>
</a>
</g>
</g>
<!-- EigrpMessage&#45;&gt;EigrpIpv6Message -->
<g id="edge7" class="edge">
<title>EigrpMessage&#45;&gt;EigrpIpv6Message</title>
<path fill="none" stroke="black" d="M354.66,-55.22C405.34,-45.38 489.49,-29.04 540.83,-19.07"/>
</g>
<!-- FieldsChunk -->
<g id="node2" class="node">
<title>FieldsChunk</title>
<g id="a_node2"><a xlink:href="src-inet-common-packet-chunk-FieldsChunk.html" xlink:title="Class FieldsChunk" target="_parent">
<polygon fill="#fffcaf" stroke="black" points="349.5,-129 274.5,-129 274.5,-110 349.5,-110 349.5,-129"/>
<text text-anchor="middle" x="312" y="-117" font-family="Helvetica,sans-Serif" font-size="10.00">FieldsChunk</text>
</a>
</g>
</g>
<!-- FieldsChunk&#45;&gt;EigrpMessage -->
<g id="edge1" class="edge">
<title>FieldsChunk&#45;&gt;EigrpMessage</title>
<path fill="none" stroke="black" d="M312,-109.75C312,-99.87 312,-83.9 312,-74.09"/>
</g>
</g>
</svg>
