<?xml version="1.0" encoding="UTF-8" standalone="no"?>
<!DOCTYPE svg PUBLIC "-//W3C//DTD SVG 1.1//EN"
 "http://www.w3.org/Graphics/SVG/1.1/DTD/svg11.dtd">
<!-- Generated by graphviz version 2.43.0 (0)
 -->
<!-- Title: opp Pages: 1 -->
<svg width="142pt" height="137pt"
 viewBox="0.00 0.00 141.50 137.00" xmlns="http://www.w3.org/2000/svg" xmlns:xlink="http://www.w3.org/1999/xlink">
<g id="graph0" class="graph" transform="scale(1 1) rotate(0) translate(4 133)">
<title>opp</title>
<polygon fill="transparent" stroke="transparent" points="-4,4 -4,-133 137.5,-133 137.5,4 -4,4"/>
<!-- BpduBase -->
<g id="node1" class="node">
<title>BpduBase</title>
<g id="a_node1"><a xlink:href="src-inet-linklayer-ieee8021d-common-BpduBase.html" xlink:title="Class BpduBase" target="_parent">
<polygon fill="#fff700" stroke="black" points="99.5,-74 34.5,-74 34.5,-55 99.5,-55 99.5,-74"/>
<text text-anchor="middle" x="67" y="-62" font-family="Helvetica,sans-Serif" font-size="10.00">BpduBase</text>
</a>
</g>
</g>
<!-- BpduCfg -->
<g id="node3" class="node">
<title>BpduCfg</title>
<g id="a_node3"><a xlink:href="src-inet-linklayer-ieee8021d-common-BpduCfg.html" xlink:title="Class BpduCfg" target="_parent">
<polygon fill="#fffcaf" stroke="black" points="58,-19 0,-19 0,0 58,0 58,-19"/>
<text text-anchor="middle" x="29" y="-7" font-family="Helvetica,sans-Serif" font-size="10.00">BpduCfg</text>
</a>
</g>
</g>
<!-- BpduBase&#45;&gt;BpduCfg -->
<g id="edge2" class="edge">
<title>BpduBase&#45;&gt;BpduCfg</title>
<path fill="none" stroke="black" d="M60.73,-54.75C53.64,-44.87 42.19,-28.9 35.16,-19.09"/>
</g>
<!-- BpduTcn -->
<g id="node4" class="node">
<title>BpduTcn</title>
<g id="a_node4"><a xlink:href="src-inet-linklayer-ieee8021d-common-BpduTcn.html" xlink:title="Class BpduTcn" target="_parent">
<polygon fill="#fffcaf" stroke="black" points="133.5,-19 76.5,-19 76.5,0 133.5,0 133.5,-19"/>
<text text-anchor="middle" x="105" y="-7" font-family="Helvetica,sans-Serif" font-size="10.00">BpduTcn</text>
</a>
</g>
</g>
<!-- BpduBase&#45;&gt;BpduTcn -->
<g id="edge3" class="edge">
<title>BpduBase&#45;&gt;BpduTcn</title>
<path fill="none" stroke="black" d="M73.27,-54.75C80.36,-44.87 91.81,-28.9 98.84,-19.09"/>
</g>
<!-- FieldsChunk -->
<g id="node2" class="node">
<title>FieldsChunk</title>
<g id="a_node2"><a xlink:href="src-inet-common-packet-chunk-FieldsChunk.html" xlink:title="Class FieldsChunk" target="_parent">
<polygon fill="#fffcaf" stroke="black" points="104.5,-129 29.5,-129 29.5,-110 104.5,-110 104.5,-129"/>
<text text-anchor="middle" x="67" y="-117" font-family="Helvetica,sans-Serif" font-size="10.00">FieldsChunk</text>
</a>
</g>
</g>
<!-- FieldsChunk&#45;&gt;BpduBase -->
<g id="edge1" class="edge">
<title>FieldsChunk&#45;&gt;BpduBase</title>
<path fill="none" stroke="black" d="M67,-109.75C67,-99.87 67,-83.9 67,-74.09"/>
</g>
</g>
</svg>
