<?xml version="1.0" encoding="UTF-8" standalone="no"?>
<!DOCTYPE svg PUBLIC "-//W3C//DTD SVG 1.1//EN"
 "http://www.w3.org/Graphics/SVG/1.1/DTD/svg11.dtd">
<!-- Generated by graphviz version 2.43.0 (0)
 -->
<!-- Title: opp Pages: 1 -->
<svg width="169pt" height="137pt"
 viewBox="0.00 0.00 169.00 137.00" xmlns="http://www.w3.org/2000/svg" xmlns:xlink="http://www.w3.org/1999/xlink">
<g id="graph0" class="graph" transform="scale(1 1) rotate(0) translate(4 133)">
<title>opp</title>
<polygon fill="transparent" stroke="transparent" points="-4,4 -4,-133 165,-133 165,4 -4,4"/>
<!-- BgpUpdatePathAttributes -->
<g id="node1" class="node">
<title>BgpUpdatePathAttributes</title>
<g id="a_node1"><a xlink:href="src-inet-routing-bgpv4-bgpmessage-BgpUpdatePathAttributes.html" xlink:title="Class BgpUpdatePathAttributes" target="_parent">
<polygon fill="#fff700" stroke="black" points="150.5,-74 10.5,-74 10.5,-55 150.5,-55 150.5,-74"/>
<text text-anchor="middle" x="80.5" y="-62" font-family="Helvetica,sans-Serif" font-size="10.00">BgpUpdatePathAttributes</text>
</a>
</g>
</g>
<!-- BgpUpdateAttributeTypeCode -->
<g id="node2" class="node">
<title>BgpUpdateAttributeTypeCode</title>
<g id="a_node2"><a xlink:href="src-inet-routing-bgpv4-bgpmessage-BgpUpdateAttributeTypeCode.html" xlink:title="Enum BgpUpdateAttributeTypeCode" target="_parent">
<polygon fill="#d0ffd0" stroke="black" points="161,-19 0,-19 0,0 161,0 161,-19"/>
<text text-anchor="middle" x="80.5" y="-7" font-family="Helvetica,sans-Serif" font-size="10.00">BgpUpdateAttributeTypeCode</text>
</a>
</g>
</g>
<!-- BgpUpdatePathAttributes&#45;&gt;BgpUpdateAttributeTypeCode -->
<g id="edge1" class="edge">
<title>BgpUpdatePathAttributes&#45;&gt;BgpUpdateAttributeTypeCode</title>
<path fill="none" stroke="black" d="M80.5,-54.75C80.5,-47.8 80.5,-37.85 80.5,-29.13"/>
<polygon fill="black" stroke="black" points="84,-29.09 80.5,-19.09 77,-29.09 84,-29.09"/>
</g>
<!-- BgpUpdateMessage -->
<g id="node3" class="node">
<title>BgpUpdateMessage</title>
<g id="a_node3"><a xlink:href="src-inet-routing-bgpv4-bgpmessage-BgpUpdateMessage.html" xlink:title="Class BgpUpdateMessage" target="_parent">
<polygon fill="#fffcaf" stroke="black" points="137.5,-129 23.5,-129 23.5,-110 137.5,-110 137.5,-129"/>
<text text-anchor="middle" x="80.5" y="-117" font-family="Helvetica,sans-Serif" font-size="10.00">BgpUpdateMessage</text>
</a>
</g>
</g>
<!-- BgpUpdateMessage&#45;&gt;BgpUpdatePathAttributes -->
<g id="edge2" class="edge">
<title>BgpUpdateMessage&#45;&gt;BgpUpdatePathAttributes</title>
<path fill="none" stroke="black" d="M80.5,-109.75C80.5,-102.8 80.5,-92.85 80.5,-84.13"/>
<polygon fill="black" stroke="black" points="84,-84.09 80.5,-74.09 77,-84.09 84,-84.09"/>
</g>
</g>
</svg>
