<?xml version="1.0" encoding="UTF-8" standalone="no"?>
<!DOCTYPE svg PUBLIC "-//W3C//DTD SVG 1.1//EN"
 "http://www.w3.org/Graphics/SVG/1.1/DTD/svg11.dtd">
<!-- Generated by graphviz version 2.43.0 (0)
 -->
<!-- Title: opp Pages: 1 -->
<svg width="129pt" height="137pt"
 viewBox="0.00 0.00 129.00 137.00" xmlns="http://www.w3.org/2000/svg" xmlns:xlink="http://www.w3.org/1999/xlink">
<g id="graph0" class="graph" transform="scale(1 1) rotate(0) translate(4 133)">
<title>opp</title>
<polygon fill="transparent" stroke="transparent" points="-4,4 -4,-133 125,-133 125,4 -4,4"/>
<!-- EthernetFcs -->
<g id="node1" class="node">
<title>EthernetFcs</title>
<g id="a_node1"><a xlink:href="src-inet-linklayer-ethernet-common-EthernetFcs.html" xlink:title="Class EthernetFcs" target="_parent">
<polygon fill="#fff700" stroke="black" points="97.5,-74 23.5,-74 23.5,-55 97.5,-55 97.5,-74"/>
<text text-anchor="middle" x="60.5" y="-62" font-family="Helvetica,sans-Serif" font-size="10.00">EthernetFcs</text>
</a>
</g>
</g>
<!-- EthernetFragmentFcs -->
<g id="node3" class="node">
<title>EthernetFragmentFcs</title>
<g id="a_node3"><a xlink:href="src-inet-linklayer-ethernet-common-EthernetFragmentFcs.html" xlink:title="Class EthernetFragmentFcs" target="_parent">
<polygon fill="#fffcaf" stroke="black" points="121,-19 0,-19 0,0 121,0 121,-19"/>
<text text-anchor="middle" x="60.5" y="-7" font-family="Helvetica,sans-Serif" font-size="10.00">EthernetFragmentFcs</text>
</a>
</g>
</g>
<!-- EthernetFcs&#45;&gt;EthernetFragmentFcs -->
<g id="edge2" class="edge">
<title>EthernetFcs&#45;&gt;EthernetFragmentFcs</title>
<path fill="none" stroke="black" d="M60.5,-54.75C60.5,-44.87 60.5,-28.9 60.5,-19.09"/>
</g>
<!-- FieldsChunk -->
<g id="node2" class="node">
<title>FieldsChunk</title>
<g id="a_node2"><a xlink:href="src-inet-common-packet-chunk-FieldsChunk.html" xlink:title="Class FieldsChunk" target="_parent">
<polygon fill="#fffcaf" stroke="black" points="98,-129 23,-129 23,-110 98,-110 98,-129"/>
<text text-anchor="middle" x="60.5" y="-117" font-family="Helvetica,sans-Serif" font-size="10.00">FieldsChunk</text>
</a>
</g>
</g>
<!-- FieldsChunk&#45;&gt;EthernetFcs -->
<g id="edge1" class="edge">
<title>FieldsChunk&#45;&gt;EthernetFcs</title>
<path fill="none" stroke="black" d="M60.5,-109.75C60.5,-99.87 60.5,-83.9 60.5,-74.09"/>
</g>
</g>
</svg>
