<?xml version="1.0" encoding="UTF-8" standalone="no"?>
<!DOCTYPE svg PUBLIC "-//W3C//DTD SVG 1.1//EN"
 "http://www.w3.org/Graphics/SVG/1.1/DTD/svg11.dtd">
<!-- Generated by graphviz version 2.43.0 (0)
 -->
<!-- Title: opp Pages: 1 -->
<svg width="294pt" height="137pt"
 viewBox="0.00 0.00 293.50 137.00" xmlns="http://www.w3.org/2000/svg" xmlns:xlink="http://www.w3.org/1999/xlink">
<g id="graph0" class="graph" transform="scale(1 1) rotate(0) translate(4 133)">
<title>opp</title>
<polygon fill="transparent" stroke="transparent" points="-4,4 -4,-133 289.5,-133 289.5,4 -4,4"/>
<!-- CsmaCaMacHeader -->
<g id="node1" class="node">
<title>CsmaCaMacHeader</title>
<g id="a_node1"><a xlink:href="src-inet-linklayer-csmaca-CsmaCaMacHeader.html" xlink:title="Class CsmaCaMacHeader" target="_parent">
<polygon fill="#fff700" stroke="black" points="198,-74 85,-74 85,-55 198,-55 198,-74"/>
<text text-anchor="middle" x="141.5" y="-62" font-family="Helvetica,sans-Serif" font-size="10.00">CsmaCaMacHeader</text>
</a>
</g>
</g>
<!-- CsmaCaMacAckHeader -->
<g id="node3" class="node">
<title>CsmaCaMacAckHeader</title>
<g id="a_node3"><a xlink:href="src-inet-linklayer-csmaca-CsmaCaMacAckHeader.html" xlink:title="Class CsmaCaMacAckHeader" target="_parent">
<polygon fill="#fffcaf" stroke="black" points="131,-19 0,-19 0,0 131,0 131,-19"/>
<text text-anchor="middle" x="65.5" y="-7" font-family="Helvetica,sans-Serif" font-size="10.00">CsmaCaMacAckHeader</text>
</a>
</g>
</g>
<!-- CsmaCaMacHeader&#45;&gt;CsmaCaMacAckHeader -->
<g id="edge2" class="edge">
<title>CsmaCaMacHeader&#45;&gt;CsmaCaMacAckHeader</title>
<path fill="none" stroke="black" d="M129.29,-54.98C115.19,-45.15 92.12,-29.07 77.93,-19.17"/>
</g>
<!-- CsmaCaMacDataHeader -->
<g id="node4" class="node">
<title>CsmaCaMacDataHeader</title>
<g id="a_node4"><a xlink:href="src-inet-linklayer-csmaca-CsmaCaMacDataHeader.html" xlink:title="Class CsmaCaMacDataHeader" target="_parent">
<polygon fill="#fffcaf" stroke="black" points="285.5,-19 149.5,-19 149.5,0 285.5,0 285.5,-19"/>
<text text-anchor="middle" x="217.5" y="-7" font-family="Helvetica,sans-Serif" font-size="10.00">CsmaCaMacDataHeader</text>
</a>
</g>
</g>
<!-- CsmaCaMacHeader&#45;&gt;CsmaCaMacDataHeader -->
<g id="edge3" class="edge">
<title>CsmaCaMacHeader&#45;&gt;CsmaCaMacDataHeader</title>
<path fill="none" stroke="black" d="M153.71,-54.98C167.81,-45.15 190.88,-29.07 205.07,-19.17"/>
</g>
<!-- FieldsChunk -->
<g id="node2" class="node">
<title>FieldsChunk</title>
<g id="a_node2"><a xlink:href="src-inet-common-packet-chunk-FieldsChunk.html" xlink:title="Class FieldsChunk" target="_parent">
<polygon fill="#fffcaf" stroke="black" points="179,-129 104,-129 104,-110 179,-110 179,-129"/>
<text text-anchor="middle" x="141.5" y="-117" font-family="Helvetica,sans-Serif" font-size="10.00">FieldsChunk</text>
</a>
</g>
</g>
<!-- FieldsChunk&#45;&gt;CsmaCaMacHeader -->
<g id="edge1" class="edge">
<title>FieldsChunk&#45;&gt;CsmaCaMacHeader</title>
<path fill="none" stroke="black" d="M141.5,-109.75C141.5,-99.87 141.5,-83.9 141.5,-74.09"/>
</g>
</g>
</svg>
