<?xml version="1.0" encoding="UTF-8" standalone="no"?>
<!DOCTYPE svg PUBLIC "-//W3C//DTD SVG 1.1//EN"
 "http://www.w3.org/Graphics/SVG/1.1/DTD/svg11.dtd">
<!-- Generated by graphviz version 2.43.0 (0)
 -->
<!-- Title: opp Pages: 1 -->
<svg width="228pt" height="82pt"
 viewBox="0.00 0.00 227.50 82.00" xmlns="http://www.w3.org/2000/svg" xmlns:xlink="http://www.w3.org/1999/xlink">
<g id="graph0" class="graph" transform="scale(1 1) rotate(0) translate(4 78)">
<title>opp</title>
<polygon fill="transparent" stroke="transparent" points="-4,4 -4,-78 223.5,-78 223.5,4 -4,4"/>
<!-- Signal -->
<g id="node1" class="node">
<title>Signal</title>
<g id="a_node1"><a xlink:href="src-inet-physicallayer-common-Signal.html" xlink:title="Packet Signal" target="_parent">
<polygon fill="#fff700" stroke="black" points="142,-74 88,-74 88,-55 142,-55 142,-74"/>
<text text-anchor="middle" x="115" y="-62" font-family="Helvetica,sans-Serif" font-size="10.00">Signal</text>
</a>
</g>
</g>
<!-- EthernetSignalBase -->
<g id="node2" class="node">
<title>EthernetSignalBase</title>
<g id="a_node2"><a xlink:href="src-inet-physicallayer-wired-ethernet-EthernetSignalBase.html" xlink:title="Packet EthernetSignalBase" target="_parent">
<polygon fill="#fffcaf" stroke="black" points="112,-19 0,-19 0,0 112,0 112,-19"/>
<text text-anchor="middle" x="56" y="-7" font-family="Helvetica,sans-Serif" font-size="10.00">EthernetSignalBase</text>
</a>
</g>
</g>
<!-- Signal&#45;&gt;EthernetSignalBase -->
<g id="edge1" class="edge">
<title>Signal&#45;&gt;EthernetSignalBase</title>
<path fill="none" stroke="black" d="M105.52,-54.98C94.58,-45.15 76.67,-29.07 65.65,-19.17"/>
</g>
<!-- WirelessSignal -->
<g id="node3" class="node">
<title>WirelessSignal</title>
<g id="a_node3"><a xlink:href="src-inet-physicallayer-wireless-common-signal-WirelessSignal.html" xlink:title="Packet WirelessSignal" target="_parent">
<polygon fill="#fffcaf" stroke="black" points="219.5,-19 130.5,-19 130.5,0 219.5,0 219.5,-19"/>
<text text-anchor="middle" x="175" y="-7" font-family="Helvetica,sans-Serif" font-size="10.00">WirelessSignal</text>
</a>
</g>
</g>
<!-- Signal&#45;&gt;WirelessSignal -->
<g id="edge2" class="edge">
<title>Signal&#45;&gt;WirelessSignal</title>
<path fill="none" stroke="black" d="M124.64,-54.98C135.77,-45.15 153.98,-29.07 165.18,-19.17"/>
</g>
</g>
</svg>
