<?xml version="1.0" encoding="UTF-8" standalone="no"?>
<!DOCTYPE svg PUBLIC "-//W3C//DTD SVG 1.1//EN"
 "http://www.w3.org/Graphics/SVG/1.1/DTD/svg11.dtd">
<!-- Generated by graphviz version 2.43.0 (0)
 -->
<!-- Title: opp Pages: 1 -->
<svg width="168pt" height="82pt"
 viewBox="0.00 0.00 167.50 82.00" xmlns="http://www.w3.org/2000/svg" xmlns:xlink="http://www.w3.org/1999/xlink">
<g id="graph0" class="graph" transform="scale(1 1) rotate(0) translate(4 78)">
<title>opp</title>
<polygon fill="transparent" stroke="transparent" points="-4,4 -4,-78 163.5,-78 163.5,4 -4,4"/>
<!-- RipPacket -->
<g id="node1" class="node">
<title>RipPacket</title>
<g id="a_node1"><a xlink:href="src-inet-routing-rip-RipPacket.html" xlink:title="Class RipPacket" target="_parent">
<polygon fill="#fff700" stroke="black" points="105.5,-74 40.5,-74 40.5,-55 105.5,-55 105.5,-74"/>
<text text-anchor="middle" x="73" y="-62" font-family="Helvetica,sans-Serif" font-size="10.00">RipPacket</text>
</a>
</g>
</g>
<!-- RipEntry -->
<g id="node2" class="node">
<title>RipEntry</title>
<g id="a_node2"><a xlink:href="src-inet-routing-rip-RipEntry.html" xlink:title="Struct RipEntry" target="_parent">
<polygon fill="#d0d0ff" stroke="black" points="58,-19 0,-19 0,0 58,0 58,-19"/>
<text text-anchor="middle" x="29" y="-7" font-family="Helvetica,sans-Serif" font-size="10.00">RipEntry</text>
</a>
</g>
</g>
<!-- RipPacket&#45;&gt;RipEntry -->
<g id="edge1" class="edge">
<title>RipPacket&#45;&gt;RipEntry</title>
<path fill="none" stroke="black" d="M65.73,-54.75C59.46,-47.18 50.21,-36.05 42.57,-26.84"/>
<polygon fill="black" stroke="black" points="45.21,-24.55 36.13,-19.09 39.83,-29.02 45.21,-24.55"/>
</g>
<!-- RipCommand -->
<g id="node3" class="node">
<title>RipCommand</title>
<g id="a_node3"><a xlink:href="src-inet-routing-rip-RipCommand.html" xlink:title="Enum RipCommand" target="_parent">
<polygon fill="#d0ffd0" stroke="black" points="159.5,-19 76.5,-19 76.5,0 159.5,0 159.5,-19"/>
<text text-anchor="middle" x="118" y="-7" font-family="Helvetica,sans-Serif" font-size="10.00">RipCommand</text>
</a>
</g>
</g>
<!-- RipPacket&#45;&gt;RipCommand -->
<g id="edge2" class="edge">
<title>RipPacket&#45;&gt;RipCommand</title>
<path fill="none" stroke="black" d="M80.43,-54.75C86.85,-47.18 96.31,-36.05 104.12,-26.84"/>
<polygon fill="black" stroke="black" points="106.9,-28.98 110.71,-19.09 101.57,-24.45 106.9,-28.98"/>
</g>
</g>
</svg>
