<?xml version="1.0" encoding="UTF-8" standalone="no"?>
<!DOCTYPE svg PUBLIC "-//W3C//DTD SVG 1.1//EN"
 "http://www.w3.org/Graphics/SVG/1.1/DTD/svg11.dtd">
<!-- Generated by graphviz version 2.43.0 (0)
 -->
<!-- Title: opp Pages: 1 -->
<svg width="214pt" height="82pt"
 viewBox="0.00 0.00 214.00 82.00" xmlns="http://www.w3.org/2000/svg" xmlns:xlink="http://www.w3.org/1999/xlink">
<g id="graph0" class="graph" transform="scale(1 1) rotate(0) translate(4 78)">
<title>opp</title>
<polygon fill="transparent" stroke="transparent" points="-4,4 -4,-78 210,-78 210,4 -4,4"/>
<!-- ApskPhyHeader -->
<g id="node1" class="node">
<title>ApskPhyHeader</title>
<g id="a_node1"><a xlink:href="src-inet-physicallayer-wireless-apsk-packetlevel-ApskPhyHeader.html" xlink:title="Class ApskPhyHeader" target="_parent">
<polygon fill="#fff700" stroke="black" points="149,-74 55,-74 55,-55 149,-55 149,-74"/>
<text text-anchor="middle" x="102" y="-62" font-family="Helvetica,sans-Serif" font-size="10.00">ApskPhyHeader</text>
</a>
</g>
</g>
<!-- b -->
<g id="node2" class="node">
<title>b</title>
<g id="a_node2"><a xlink:href="src-inet-common-b.html" xlink:title="Class b" target="_parent">
<polygon fill="#fffcaf" stroke="black" points="54,-19 0,-19 0,0 54,0 54,-19"/>
<text text-anchor="middle" x="27" y="-7" font-family="Helvetica,sans-Serif" font-size="10.00">b</text>
</a>
</g>
</g>
<!-- ApskPhyHeader&#45;&gt;b -->
<g id="edge1" class="edge">
<title>ApskPhyHeader&#45;&gt;b</title>
<path fill="none" stroke="black" d="M89.95,-54.98C78.54,-46.92 61.17,-34.65 47.57,-25.03"/>
<polygon fill="black" stroke="black" points="49.46,-22.08 39.27,-19.17 45.42,-27.8 49.46,-22.08"/>
</g>
<!-- CrcMode -->
<g id="node3" class="node">
<title>CrcMode</title>
<g id="a_node3"><a xlink:href="src-inet-transportlayer-common-CrcMode.html" xlink:title="Enum CrcMode" target="_parent">
<polygon fill="#d0ffd0" stroke="black" points="131.5,-19 72.5,-19 72.5,0 131.5,0 131.5,-19"/>
<text text-anchor="middle" x="102" y="-7" font-family="Helvetica,sans-Serif" font-size="10.00">CrcMode</text>
</a>
</g>
</g>
<!-- ApskPhyHeader&#45;&gt;CrcMode -->
<g id="edge2" class="edge">
<title>ApskPhyHeader&#45;&gt;CrcMode</title>
<path fill="none" stroke="black" d="M102,-54.75C102,-47.8 102,-37.85 102,-29.13"/>
<polygon fill="black" stroke="black" points="105.5,-29.09 102,-19.09 98.5,-29.09 105.5,-29.09"/>
</g>
<!-- Protocol -->
<g id="node4" class="node">
<title>Protocol</title>
<g id="a_node4"><a xlink:href="src-inet-common-Protocol.html" xlink:title="Class Protocol" target="_parent">
<polygon fill="#fffcaf" stroke="black" points="206,-19 150,-19 150,0 206,0 206,-19"/>
<text text-anchor="middle" x="178" y="-7" font-family="Helvetica,sans-Serif" font-size="10.00">Protocol</text>
</a>
</g>
</g>
<!-- ApskPhyHeader&#45;&gt;Protocol -->
<g id="edge3" class="edge">
<title>ApskPhyHeader&#45;&gt;Protocol</title>
<path fill="none" stroke="black" d="M114.21,-54.98C125.78,-46.92 143.38,-34.65 157.16,-25.03"/>
<polygon fill="black" stroke="black" points="159.37,-27.76 165.57,-19.17 155.36,-22.02 159.37,-27.76"/>
</g>
</g>
</svg>
