<?xml version="1.0" encoding="UTF-8" standalone="no"?>
<!DOCTYPE svg PUBLIC "-//W3C//DTD SVG 1.1//EN"
 "http://www.w3.org/Graphics/SVG/1.1/DTD/svg11.dtd">
<!-- Generated by graphviz version 2.43.0 (0)
 -->
<!-- Title: opp Pages: 1 -->
<svg width="436pt" height="137pt"
 viewBox="0.00 0.00 435.50 137.00" xmlns="http://www.w3.org/2000/svg" xmlns:xlink="http://www.w3.org/1999/xlink">
<g id="graph0" class="graph" transform="scale(1 1) rotate(0) translate(4 133)">
<title>opp</title>
<polygon fill="transparent" stroke="transparent" points="-4,4 -4,-133 431.5,-133 431.5,4 -4,4"/>
<!-- Ieee80211OneAddressHeader -->
<g id="node1" class="node">
<title>Ieee80211OneAddressHeader</title>
<g id="a_node1"><a xlink:href="src-inet-linklayer-ieee80211-mac-Ieee80211OneAddressHeader.html" xlink:title="Class Ieee80211OneAddressHeader" target="_parent">
<polygon fill="#fff700" stroke="black" points="271.5,-74 110.5,-74 110.5,-55 271.5,-55 271.5,-74"/>
<text text-anchor="middle" x="191" y="-62" font-family="Helvetica,sans-Serif" font-size="10.00">Ieee80211OneAddressHeader</text>
</a>
</g>
</g>
<!-- Ieee80211AckFrame -->
<g id="node3" class="node">
<title>Ieee80211AckFrame</title>
<g id="a_node3"><a xlink:href="src-inet-linklayer-ieee80211-mac-Ieee80211AckFrame.html" xlink:title="Class Ieee80211AckFrame" target="_parent">
<polygon fill="#fffcaf" stroke="black" points="116,-19 0,-19 0,0 116,0 116,-19"/>
<text text-anchor="middle" x="58" y="-7" font-family="Helvetica,sans-Serif" font-size="10.00">Ieee80211AckFrame</text>
</a>
</g>
</g>
<!-- Ieee80211OneAddressHeader&#45;&gt;Ieee80211AckFrame -->
<g id="edge2" class="edge">
<title>Ieee80211OneAddressHeader&#45;&gt;Ieee80211AckFrame</title>
<path fill="none" stroke="black" d="M169.63,-54.98C144.96,-45.15 104.59,-29.07 79.76,-19.17"/>
</g>
<!-- Ieee80211CtsFrame -->
<g id="node4" class="node">
<title>Ieee80211CtsFrame</title>
<g id="a_node4"><a xlink:href="src-inet-linklayer-ieee80211-mac-Ieee80211CtsFrame.html" xlink:title="Class Ieee80211CtsFrame" target="_parent">
<polygon fill="#fffcaf" stroke="black" points="248,-19 134,-19 134,0 248,0 248,-19"/>
<text text-anchor="middle" x="191" y="-7" font-family="Helvetica,sans-Serif" font-size="10.00">Ieee80211CtsFrame</text>
</a>
</g>
</g>
<!-- Ieee80211OneAddressHeader&#45;&gt;Ieee80211CtsFrame -->
<g id="edge3" class="edge">
<title>Ieee80211OneAddressHeader&#45;&gt;Ieee80211CtsFrame</title>
<path fill="none" stroke="black" d="M191,-54.75C191,-44.87 191,-28.9 191,-19.09"/>
</g>
<!-- Ieee80211TwoAddressHeader -->
<g id="node5" class="node">
<title>Ieee80211TwoAddressHeader</title>
<g id="a_node5"><a xlink:href="src-inet-linklayer-ieee80211-mac-Ieee80211TwoAddressHeader.html" xlink:title="Class Ieee80211TwoAddressHeader" target="_parent">
<polygon fill="#fffcaf" stroke="black" points="427.5,-19 266.5,-19 266.5,0 427.5,0 427.5,-19"/>
<text text-anchor="middle" x="347" y="-7" font-family="Helvetica,sans-Serif" font-size="10.00">Ieee80211TwoAddressHeader</text>
</a>
</g>
</g>
<!-- Ieee80211OneAddressHeader&#45;&gt;Ieee80211TwoAddressHeader -->
<g id="edge4" class="edge">
<title>Ieee80211OneAddressHeader&#45;&gt;Ieee80211TwoAddressHeader</title>
<path fill="none" stroke="black" d="M216.06,-54.98C245.09,-45.12 292.63,-28.97 321.74,-19.08"/>
</g>
<!-- Ieee80211MacHeader -->
<g id="node2" class="node">
<title>Ieee80211MacHeader</title>
<g id="a_node2"><a xlink:href="src-inet-linklayer-ieee80211-mac-Ieee80211MacHeader.html" xlink:title="Class Ieee80211MacHeader" target="_parent">
<polygon fill="#fffcaf" stroke="black" points="252.5,-129 129.5,-129 129.5,-110 252.5,-110 252.5,-129"/>
<text text-anchor="middle" x="191" y="-117" font-family="Helvetica,sans-Serif" font-size="10.00">Ieee80211MacHeader</text>
</a>
</g>
</g>
<!-- Ieee80211MacHeader&#45;&gt;Ieee80211OneAddressHeader -->
<g id="edge1" class="edge">
<title>Ieee80211MacHeader&#45;&gt;Ieee80211OneAddressHeader</title>
<path fill="none" stroke="black" d="M191,-109.75C191,-99.87 191,-83.9 191,-74.09"/>
</g>
</g>
</svg>
