<?xml version="1.0" encoding="UTF-8" standalone="no"?>
<!DOCTYPE svg PUBLIC "-//W3C//DTD SVG 1.1//EN"
 "http://www.w3.org/Graphics/SVG/1.1/DTD/svg11.dtd">
<!-- Generated by graphviz version 2.43.0 (0)
 -->
<!-- Title: opp Pages: 1 -->
<svg width="549pt" height="137pt"
 viewBox="0.00 0.00 549.00 137.00" xmlns="http://www.w3.org/2000/svg" xmlns:xlink="http://www.w3.org/1999/xlink">
<g id="graph0" class="graph" transform="scale(1 1) rotate(0) translate(4 133)">
<title>opp</title>
<polygon fill="transparent" stroke="transparent" points="-4,4 -4,-133 545,-133 545,4 -4,4"/>
<!-- Packet -->
<g id="node1" class="node">
<title>Packet</title>
<g id="a_node1"><a xlink:href="src-inet-common-packet-Packet.html" xlink:title="Class Packet" target="_parent">
<polygon fill="#fff700" stroke="black" points="271,-74 217,-74 217,-55 271,-55 271,-74"/>
<text text-anchor="middle" x="244" y="-62" font-family="Helvetica,sans-Serif" font-size="10.00">Packet</text>
</a>
</g>
</g>
<!-- ChunkTemporarySharedPtr -->
<g id="node2" class="node">
<title>ChunkTemporarySharedPtr</title>
<g id="a_node2"><a xlink:href="src-inet-common-packet-chunk-ChunkTemporarySharedPtr.html" xlink:title="Class ChunkTemporarySharedPtr" target="_parent">
<polygon fill="#fffcaf" stroke="black" points="163,-19 17,-19 17,0 163,0 163,-19"/>
<text text-anchor="middle" x="90" y="-7" font-family="Helvetica,sans-Serif" font-size="10.00">ChunkTemporarySharedPtr</text>
</a>
</g>
</g>
<!-- Packet&#45;&gt;ChunkTemporarySharedPtr -->
<g id="edge1" class="edge">
<title>Packet&#45;&gt;ChunkTemporarySharedPtr</title>
<path fill="none" stroke="black" d="M219.26,-54.98C193.63,-46.16 153.37,-32.31 124.59,-22.41"/>
<polygon fill="black" stroke="black" points="125.53,-19.03 114.94,-19.08 123.25,-25.65 125.53,-19.03"/>
</g>
<!-- b -->
<g id="node3" class="node">
<title>b</title>
<g id="a_node3"><a xlink:href="src-inet-common-b.html" xlink:title="Class b" target="_parent">
<polygon fill="#fffcaf" stroke="black" points="235,-19 181,-19 181,0 235,0 235,-19"/>
<text text-anchor="middle" x="208" y="-7" font-family="Helvetica,sans-Serif" font-size="10.00">b</text>
</a>
</g>
</g>
<!-- Packet&#45;&gt;b -->
<g id="edge2" class="edge">
<title>Packet&#45;&gt;b</title>
<path fill="none" stroke="black" d="M238.06,-54.75C233.02,-47.34 225.66,-36.5 219.49,-27.41"/>
<polygon fill="black" stroke="black" points="222.35,-25.39 213.83,-19.09 216.56,-29.33 222.35,-25.39"/>
</g>
<!-- Chunk -->
<g id="node4" class="node">
<title>Chunk</title>
<g id="a_node4"><a xlink:href="src-inet-common-packet-chunk-Chunk.html" xlink:title="Class Chunk" target="_parent">
<polygon fill="#fffcaf" stroke="black" points="307,-19 253,-19 253,0 307,0 307,-19"/>
<text text-anchor="middle" x="280" y="-7" font-family="Helvetica,sans-Serif" font-size="10.00">Chunk</text>
</a>
</g>
</g>
<!-- Packet&#45;&gt;Chunk -->
<g id="edge3" class="edge">
<title>Packet&#45;&gt;Chunk</title>
<path fill="none" stroke="black" d="M249.94,-54.75C254.98,-47.34 262.34,-36.5 268.51,-27.41"/>
<polygon fill="black" stroke="black" points="271.44,-29.33 274.17,-19.09 265.65,-25.39 271.44,-29.33"/>
</g>
<!-- SharingRegionTagSet::TagBaseRegionTag -->
<g id="node5" class="node">
<title>SharingRegionTagSet::TagBaseRegionTag</title>
<g id="a_node5"><a xlink:href="src-inet-common-packet-chunk-SharingRegionTagSet::TagBaseRegionTag.html" xlink:title="Class SharingRegionTagSet::TagBaseRegionTag" target="_parent">
<polygon fill="#fffcaf" stroke="black" points="541,-19 325,-19 325,0 541,0 541,-19"/>
<text text-anchor="middle" x="433" y="-7" font-family="Helvetica,sans-Serif" font-size="10.00">SharingRegionTagSet::TagBaseRegionTag</text>
</a>
</g>
</g>
<!-- Packet&#45;&gt;SharingRegionTagSet::TagBaseRegionTag -->
<g id="edge4" class="edge">
<title>Packet&#45;&gt;SharingRegionTagSet::TagBaseRegionTag</title>
<path fill="none" stroke="black" d="M271.08,-55.91C302.89,-46.98 355.98,-32.1 392.65,-21.81"/>
<polygon fill="black" stroke="black" points="393.84,-25.12 402.53,-19.05 391.95,-18.38 393.84,-25.12"/>
</g>
<!-- InProgressFrames -->
<g id="node6" class="node">
<title>InProgressFrames</title>
<g id="a_node6"><a xlink:href="src-inet-linklayer-ieee80211-mac-queue-InProgressFrames.html" xlink:title="Class InProgressFrames" target="_parent">
<polygon fill="#fffcaf" stroke="black" points="104,-129 0,-129 0,-110 104,-110 104,-129"/>
<text text-anchor="middle" x="52" y="-117" font-family="Helvetica,sans-Serif" font-size="10.00">InProgressFrames</text>
</a>
</g>
</g>
<!-- InProgressFrames&#45;&gt;Packet -->
<g id="edge5" class="edge">
<title>InProgressFrames&#45;&gt;Packet</title>
<path fill="none" stroke="black" d="M82.85,-109.98C116.76,-100.62 171.21,-85.59 207.29,-75.63"/>
<polygon fill="black" stroke="black" points="208.24,-79 216.95,-72.97 206.38,-72.25 208.24,-79"/>
</g>
<!-- PacketHolderMessage -->
<g id="node7" class="node">
<title>PacketHolderMessage</title>
<g id="a_node7"><a xlink:href="src-inet-routing-aodv-PacketHolderMessage.html" xlink:title="Message PacketHolderMessage" target="_parent">
<polygon fill="#fffcaf" stroke="black" points="247.5,-129 122.5,-129 122.5,-110 247.5,-110 247.5,-129"/>
<text text-anchor="middle" x="185" y="-117" font-family="Helvetica,sans-Serif" font-size="10.00">PacketHolderMessage</text>
</a>
</g>
</g>
<!-- PacketHolderMessage&#45;&gt;Packet -->
<g id="edge6" class="edge">
<title>PacketHolderMessage&#45;&gt;Packet</title>
<path fill="none" stroke="black" d="M194.48,-109.98C203.2,-102.15 216.34,-90.34 226.9,-80.86"/>
<polygon fill="black" stroke="black" points="229.25,-83.46 234.35,-74.17 224.57,-78.25 229.25,-83.46"/>
</g>
<!-- ReceiveStep -->
<g id="node8" class="node">
<title>ReceiveStep</title>
<g id="a_node8"><a xlink:href="src-inet-linklayer-ieee80211-mac-framesequence-ReceiveStep.html" xlink:title="Class ReceiveStep" target="_parent">
<polygon fill="#fffcaf" stroke="black" points="342.5,-129 265.5,-129 265.5,-110 342.5,-110 342.5,-129"/>
<text text-anchor="middle" x="304" y="-117" font-family="Helvetica,sans-Serif" font-size="10.00">ReceiveStep</text>
</a>
</g>
</g>
<!-- ReceiveStep&#45;&gt;Packet -->
<g id="edge7" class="edge">
<title>ReceiveStep&#45;&gt;Packet</title>
<path fill="none" stroke="black" d="M294.36,-109.98C285.49,-102.15 272.13,-90.34 261.39,-80.86"/>
<polygon fill="black" stroke="black" points="263.63,-78.17 253.82,-74.17 258.99,-83.41 263.63,-78.17"/>
</g>
<!-- TransmitStep -->
<g id="node9" class="node">
<title>TransmitStep</title>
<g id="a_node9"><a xlink:href="src-inet-linklayer-ieee80211-mac-framesequence-TransmitStep.html" xlink:title="Class TransmitStep" target="_parent">
<polygon fill="#fffcaf" stroke="black" points="441.5,-129 360.5,-129 360.5,-110 441.5,-110 441.5,-129"/>
<text text-anchor="middle" x="401" y="-117" font-family="Helvetica,sans-Serif" font-size="10.00">TransmitStep</text>
</a>
</g>
</g>
<!-- TransmitStep&#45;&gt;Packet -->
<g id="edge8" class="edge">
<title>TransmitStep&#45;&gt;Packet</title>
<path fill="none" stroke="black" d="M375.78,-109.98C349.64,-101.16 308.6,-87.31 279.27,-77.41"/>
<polygon fill="black" stroke="black" points="280.02,-73.96 269.42,-74.08 277.78,-80.6 280.02,-73.96"/>
</g>
</g>
</svg>
