<?xml version="1.0" encoding="UTF-8" standalone="no"?>
<!DOCTYPE svg PUBLIC "-//W3C//DTD SVG 1.1//EN"
 "http://www.w3.org/Graphics/SVG/1.1/DTD/svg11.dtd">
<!-- Generated by graphviz version 2.43.0 (0)
 -->
<!-- Title: opp Pages: 1 -->
<svg width="91pt" height="137pt"
 viewBox="0.00 0.00 91.00 137.00" xmlns="http://www.w3.org/2000/svg" xmlns:xlink="http://www.w3.org/1999/xlink">
<g id="graph0" class="graph" transform="scale(1 1) rotate(0) translate(4 133)">
<title>opp</title>
<polygon fill="transparent" stroke="transparent" points="-4,4 -4,-133 87,-133 87,4 -4,4"/>
<!-- Igmpv2Query -->
<g id="node1" class="node">
<title>Igmpv2Query</title>
<g id="a_node1"><a xlink:href="src-inet-networklayer-ipv4-Igmpv2Query.html" xlink:title="Class Igmpv2Query" target="_parent">
<polygon fill="#fff700" stroke="black" points="83,-74 0,-74 0,-55 83,-55 83,-74"/>
<text text-anchor="middle" x="41.5" y="-62" font-family="Helvetica,sans-Serif" font-size="10.00">Igmpv2Query</text>
</a>
</g>
</g>
<!-- Igmpv3Query -->
<g id="node3" class="node">
<title>Igmpv3Query</title>
<g id="a_node3"><a xlink:href="src-inet-networklayer-ipv4-Igmpv3Query.html" xlink:title="Class Igmpv3Query" target="_parent">
<polygon fill="#fffcaf" stroke="black" points="83,-19 0,-19 0,0 83,0 83,-19"/>
<text text-anchor="middle" x="41.5" y="-7" font-family="Helvetica,sans-Serif" font-size="10.00">Igmpv3Query</text>
</a>
</g>
</g>
<!-- Igmpv2Query&#45;&gt;Igmpv3Query -->
<g id="edge2" class="edge">
<title>Igmpv2Query&#45;&gt;Igmpv3Query</title>
<path fill="none" stroke="black" d="M41.5,-54.75C41.5,-44.87 41.5,-28.9 41.5,-19.09"/>
</g>
<!-- IgmpQuery -->
<g id="node2" class="node">
<title>IgmpQuery</title>
<g id="a_node2"><a xlink:href="src-inet-networklayer-ipv4-IgmpQuery.html" xlink:title="Class IgmpQuery" target="_parent">
<polygon fill="#fffcaf" stroke="black" points="77,-129 6,-129 6,-110 77,-110 77,-129"/>
<text text-anchor="middle" x="41.5" y="-117" font-family="Helvetica,sans-Serif" font-size="10.00">IgmpQuery</text>
</a>
</g>
</g>
<!-- IgmpQuery&#45;&gt;Igmpv2Query -->
<g id="edge1" class="edge">
<title>IgmpQuery&#45;&gt;Igmpv2Query</title>
<path fill="none" stroke="black" d="M41.5,-109.75C41.5,-99.87 41.5,-83.9 41.5,-74.09"/>
</g>
</g>
</svg>
