<?xml version="1.0" encoding="UTF-8" standalone="no"?>
<!DOCTYPE svg PUBLIC "-//W3C//DTD SVG 1.1//EN"
 "http://www.w3.org/Graphics/SVG/1.1/DTD/svg11.dtd">
<!-- Generated by graphviz version 2.43.0 (0)
 -->
<!-- Title: opp Pages: 1 -->
<svg width="370pt" height="82pt"
 viewBox="0.00 0.00 369.50 82.00" xmlns="http://www.w3.org/2000/svg" xmlns:xlink="http://www.w3.org/1999/xlink">
<g id="graph0" class="graph" transform="scale(1 1) rotate(0) translate(4 78)">
<title>opp</title>
<polygon fill="transparent" stroke="transparent" points="-4,4 -4,-78 365.5,-78 365.5,4 -4,4"/>
<!-- WiseRouteHeader -->
<g id="node1" class="node">
<title>WiseRouteHeader</title>
<g id="a_node1"><a xlink:href="src-inet-networklayer-wiseroute-WiseRouteHeader.html" xlink:title="Class WiseRouteHeader" target="_parent">
<polygon fill="#fff700" stroke="black" points="235,-74 131,-74 131,-55 235,-55 235,-74"/>
<text text-anchor="middle" x="183" y="-62" font-family="Helvetica,sans-Serif" font-size="10.00">WiseRouteHeader</text>
</a>
</g>
</g>
<!-- B -->
<g id="node2" class="node">
<title>B</title>
<g id="a_node2"><a xlink:href="src-inet-common-B.html" xlink:title="Class B" target="_parent">
<polygon fill="#fffcaf" stroke="black" points="54,-19 0,-19 0,0 54,0 54,-19"/>
<text text-anchor="middle" x="27" y="-7" font-family="Helvetica,sans-Serif" font-size="10.00">B</text>
</a>
</g>
</g>
<!-- WiseRouteHeader&#45;&gt;B -->
<g id="edge1" class="edge">
<title>WiseRouteHeader&#45;&gt;B</title>
<path fill="none" stroke="black" d="M157.94,-54.98C131.97,-46.16 91.19,-32.31 62.04,-22.41"/>
<polygon fill="black" stroke="black" points="62.85,-18.99 52.26,-19.08 60.6,-25.61 62.85,-18.99"/>
</g>
<!-- WiseRouteMsgType -->
<g id="node3" class="node">
<title>WiseRouteMsgType</title>
<g id="a_node3"><a xlink:href="src-inet-networklayer-wiseroute-WiseRouteMsgType.html" xlink:title="Enum WiseRouteMsgType" target="_parent">
<polygon fill="#d0ffd0" stroke="black" points="184,-19 72,-19 72,0 184,0 184,-19"/>
<text text-anchor="middle" x="128" y="-7" font-family="Helvetica,sans-Serif" font-size="10.00">WiseRouteMsgType</text>
</a>
</g>
</g>
<!-- WiseRouteHeader&#45;&gt;WiseRouteMsgType -->
<g id="edge2" class="edge">
<title>WiseRouteHeader&#45;&gt;WiseRouteMsgType</title>
<path fill="none" stroke="black" d="M173.92,-54.75C165.91,-47.03 154.04,-35.6 144.38,-26.28"/>
<polygon fill="black" stroke="black" points="146.54,-23.51 136.91,-19.09 141.69,-28.55 146.54,-23.51"/>
</g>
<!-- IpProtocolId -->
<g id="node4" class="node">
<title>IpProtocolId</title>
<g id="a_node4"><a xlink:href="src-inet-networklayer-common-IpProtocolId.html" xlink:title="Enum IpProtocolId" target="_parent">
<polygon fill="#d0ffd0" stroke="black" points="276,-19 202,-19 202,0 276,0 276,-19"/>
<text text-anchor="middle" x="239" y="-7" font-family="Helvetica,sans-Serif" font-size="10.00">IpProtocolId</text>
</a>
</g>
</g>
<!-- WiseRouteHeader&#45;&gt;IpProtocolId -->
<g id="edge3" class="edge">
<title>WiseRouteHeader&#45;&gt;IpProtocolId</title>
<path fill="none" stroke="black" d="M192,-54.98C200.19,-47.23 212.51,-35.58 222.47,-26.14"/>
<polygon fill="black" stroke="black" points="224.98,-28.59 229.84,-19.17 220.17,-23.5 224.98,-28.59"/>
</g>
<!-- L3Address -->
<g id="node5" class="node">
<title>L3Address</title>
<g id="a_node5"><a xlink:href="src-inet-networklayer-common-L3Address.html" xlink:title="Class L3Address" target="_parent">
<polygon fill="#fffcaf" stroke="black" points="361.5,-19 294.5,-19 294.5,0 361.5,0 361.5,-19"/>
<text text-anchor="middle" x="328" y="-7" font-family="Helvetica,sans-Serif" font-size="10.00">L3Address</text>
</a>
</g>
</g>
<!-- WiseRouteHeader&#45;&gt;L3Address -->
<g id="edge4" class="edge">
<title>WiseRouteHeader&#45;&gt;L3Address</title>
<path fill="none" stroke="black" d="M206.3,-54.98C230.25,-46.23 267.78,-32.51 294.83,-22.62"/>
<polygon fill="black" stroke="black" points="296.09,-25.89 304.28,-19.17 293.69,-19.32 296.09,-25.89"/>
</g>
</g>
</svg>
