<?xml version="1.0" encoding="UTF-8" standalone="no"?>
<!DOCTYPE svg PUBLIC "-//W3C//DTD SVG 1.1//EN"
 "http://www.w3.org/Graphics/SVG/1.1/DTD/svg11.dtd">
<!-- Generated by graphviz version 2.43.0 (0)
 -->
<!-- Title: opp Pages: 1 -->
<svg width="224pt" height="137pt"
 viewBox="0.00 0.00 224.00 137.00" xmlns="http://www.w3.org/2000/svg" xmlns:xlink="http://www.w3.org/1999/xlink">
<g id="graph0" class="graph" transform="scale(1 1) rotate(0) translate(4 133)">
<title>opp</title>
<polygon fill="transparent" stroke="transparent" points="-4,4 -4,-133 220,-133 220,4 -4,4"/>
<!-- SharingRegionTagSet::TagBaseRegionTag -->
<g id="node1" class="node">
<title>SharingRegionTagSet::TagBaseRegionTag</title>
<g id="a_node1"><a xlink:href="src-inet-common-packet-chunk-SharingRegionTagSet::TagBaseRegionTag.html" xlink:title="Class SharingRegionTagSet::TagBaseRegionTag" target="_parent">
<polygon fill="#fff700" stroke="black" points="216,-74 0,-74 0,-55 216,-55 216,-74"/>
<text text-anchor="middle" x="108" y="-62" font-family="Helvetica,sans-Serif" font-size="10.00">SharingRegionTagSet::TagBaseRegionTag</text>
</a>
</g>
</g>
<!-- b -->
<g id="node2" class="node">
<title>b</title>
<g id="a_node2"><a xlink:href="src-inet-common-b.html" xlink:title="Class b" target="_parent">
<polygon fill="#fffcaf" stroke="black" points="135,-19 81,-19 81,0 135,0 135,-19"/>
<text text-anchor="middle" x="108" y="-7" font-family="Helvetica,sans-Serif" font-size="10.00">b</text>
</a>
</g>
</g>
<!-- SharingRegionTagSet::TagBaseRegionTag&#45;&gt;b -->
<g id="edge1" class="edge">
<title>SharingRegionTagSet::TagBaseRegionTag&#45;&gt;b</title>
<path fill="none" stroke="black" d="M108,-54.75C108,-47.8 108,-37.85 108,-29.13"/>
<polygon fill="black" stroke="black" points="111.5,-29.09 108,-19.09 104.5,-29.09 111.5,-29.09"/>
</g>
<!-- Chunk -->
<g id="node3" class="node">
<title>Chunk</title>
<g id="a_node3"><a xlink:href="src-inet-common-packet-chunk-Chunk.html" xlink:title="Class Chunk" target="_parent">
<polygon fill="#fffcaf" stroke="black" points="99,-129 45,-129 45,-110 99,-110 99,-129"/>
<text text-anchor="middle" x="72" y="-117" font-family="Helvetica,sans-Serif" font-size="10.00">Chunk</text>
</a>
</g>
</g>
<!-- Chunk&#45;&gt;SharingRegionTagSet::TagBaseRegionTag -->
<g id="edge2" class="edge">
<title>Chunk&#45;&gt;SharingRegionTagSet::TagBaseRegionTag</title>
<path fill="none" stroke="black" d="M77.94,-109.75C82.98,-102.34 90.34,-91.5 96.51,-82.41"/>
<polygon fill="black" stroke="black" points="99.44,-84.33 102.17,-74.09 93.65,-80.39 99.44,-84.33"/>
</g>
<!-- Packet -->
<g id="node4" class="node">
<title>Packet</title>
<g id="a_node4"><a xlink:href="src-inet-common-packet-Packet.html" xlink:title="Class Packet" target="_parent">
<polygon fill="#fffcaf" stroke="black" points="171,-129 117,-129 117,-110 171,-110 171,-129"/>
<text text-anchor="middle" x="144" y="-117" font-family="Helvetica,sans-Serif" font-size="10.00">Packet</text>
</a>
</g>
</g>
<!-- Packet&#45;&gt;SharingRegionTagSet::TagBaseRegionTag -->
<g id="edge3" class="edge">
<title>Packet&#45;&gt;SharingRegionTagSet::TagBaseRegionTag</title>
<path fill="none" stroke="black" d="M138.06,-109.75C133.02,-102.34 125.66,-91.5 119.49,-82.41"/>
<polygon fill="black" stroke="black" points="122.35,-80.39 113.83,-74.09 116.56,-84.33 122.35,-80.39"/>
</g>
</g>
</svg>
