<?xml version="1.0" encoding="UTF-8" standalone="no"?>
<!DOCTYPE svg PUBLIC "-//W3C//DTD SVG 1.1//EN"
 "http://www.w3.org/Graphics/SVG/1.1/DTD/svg11.dtd">
<!-- Generated by graphviz version 2.43.0 (0)
 -->
<!-- Title: opp Pages: 1 -->
<svg width="182pt" height="137pt"
 viewBox="0.00 0.00 182.00 137.00" xmlns="http://www.w3.org/2000/svg" xmlns:xlink="http://www.w3.org/1999/xlink">
<g id="graph0" class="graph" transform="scale(1 1) rotate(0) translate(4 133)">
<title>opp</title>
<polygon fill="transparent" stroke="transparent" points="-4,4 -4,-133 178,-133 178,4 -4,4"/>
<!-- BgpAsPathSegment -->
<g id="node1" class="node">
<title>BgpAsPathSegment</title>
<g id="a_node1"><a xlink:href="src-inet-routing-bgpv4-bgpmessage-BgpAsPathSegment.html" xlink:title="Class BgpAsPathSegment" target="_parent">
<polygon fill="#fff700" stroke="black" points="143.5,-74 30.5,-74 30.5,-55 143.5,-55 143.5,-74"/>
<text text-anchor="middle" x="87" y="-62" font-family="Helvetica,sans-Serif" font-size="10.00">BgpAsPathSegment</text>
</a>
</g>
</g>
<!-- BgpPathSegmentType -->
<g id="node2" class="node">
<title>BgpPathSegmentType</title>
<g id="a_node2"><a xlink:href="src-inet-routing-bgpv4-BgpPathSegmentType.html" xlink:title="Enum BgpPathSegmentType" target="_parent">
<polygon fill="#d0ffd0" stroke="black" points="148.5,-19 25.5,-19 25.5,0 148.5,0 148.5,-19"/>
<text text-anchor="middle" x="87" y="-7" font-family="Helvetica,sans-Serif" font-size="10.00">BgpPathSegmentType</text>
</a>
</g>
</g>
<!-- BgpAsPathSegment&#45;&gt;BgpPathSegmentType -->
<g id="edge1" class="edge">
<title>BgpAsPathSegment&#45;&gt;BgpPathSegmentType</title>
<path fill="none" stroke="black" d="M87,-54.75C87,-47.8 87,-37.85 87,-29.13"/>
<polygon fill="black" stroke="black" points="90.5,-29.09 87,-19.09 83.5,-29.09 90.5,-29.09"/>
</g>
<!-- BgpUpdatePathAttributesAsPath -->
<g id="node3" class="node">
<title>BgpUpdatePathAttributesAsPath</title>
<g id="a_node3"><a xlink:href="src-inet-routing-bgpv4-bgpmessage-BgpUpdatePathAttributesAsPath.html" xlink:title="Class BgpUpdatePathAttributesAsPath" target="_parent">
<polygon fill="#fffcaf" stroke="black" points="174,-129 0,-129 0,-110 174,-110 174,-129"/>
<text text-anchor="middle" x="87" y="-117" font-family="Helvetica,sans-Serif" font-size="10.00">BgpUpdatePathAttributesAsPath</text>
</a>
</g>
</g>
<!-- BgpUpdatePathAttributesAsPath&#45;&gt;BgpAsPathSegment -->
<g id="edge2" class="edge">
<title>BgpUpdatePathAttributesAsPath&#45;&gt;BgpAsPathSegment</title>
<path fill="none" stroke="black" d="M87,-109.75C87,-102.8 87,-92.85 87,-84.13"/>
<polygon fill="black" stroke="black" points="90.5,-84.09 87,-74.09 83.5,-84.09 90.5,-84.09"/>
</g>
</g>
</svg>
