<?xml version="1.0" encoding="UTF-8" standalone="no"?>
<!DOCTYPE svg PUBLIC "-//W3C//DTD SVG 1.1//EN"
 "http://www.w3.org/Graphics/SVG/1.1/DTD/svg11.dtd">
<!-- Generated by graphviz version 2.43.0 (0)
 -->
<!-- Title: opp Pages: 1 -->
<svg width="564pt" height="137pt"
 viewBox="0.00 0.00 564.00 137.00" xmlns="http://www.w3.org/2000/svg" xmlns:xlink="http://www.w3.org/1999/xlink">
<g id="graph0" class="graph" transform="scale(1 1) rotate(0) translate(4 133)">
<title>opp</title>
<polygon fill="transparent" stroke="transparent" points="-4,4 -4,-133 560,-133 560,4 -4,4"/>
<!-- Ieee80211BlockAckReq -->
<g id="node1" class="node">
<title>Ieee80211BlockAckReq</title>
<g id="a_node1"><a xlink:href="src-inet-linklayer-ieee80211-mac-Ieee80211BlockAckReq.html" xlink:title="Class Ieee80211BlockAckReq" target="_parent">
<polygon fill="#fff700" stroke="black" points="337.5,-74 206.5,-74 206.5,-55 337.5,-55 337.5,-74"/>
<text text-anchor="middle" x="272" y="-62" font-family="Helvetica,sans-Serif" font-size="10.00">Ieee80211BlockAckReq</text>
</a>
</g>
</g>
<!-- Ieee80211BasicBlockAckReq -->
<g id="node3" class="node">
<title>Ieee80211BasicBlockAckReq</title>
<g id="a_node3"><a xlink:href="src-inet-linklayer-ieee80211-mac-Ieee80211BasicBlockAckReq.html" xlink:title="Class Ieee80211BasicBlockAckReq" target="_parent">
<polygon fill="#fffcaf" stroke="black" points="158,-19 0,-19 0,0 158,0 158,-19"/>
<text text-anchor="middle" x="79" y="-7" font-family="Helvetica,sans-Serif" font-size="10.00">Ieee80211BasicBlockAckReq</text>
</a>
</g>
</g>
<!-- Ieee80211BlockAckReq&#45;&gt;Ieee80211BasicBlockAckReq -->
<g id="edge2" class="edge">
<title>Ieee80211BlockAckReq&#45;&gt;Ieee80211BasicBlockAckReq</title>
<path fill="none" stroke="black" d="M240.99,-54.98C205.08,-45.12 146.26,-28.97 110.25,-19.08"/>
</g>
<!-- Ieee80211CompressedBlockAckReq -->
<g id="node4" class="node">
<title>Ieee80211CompressedBlockAckReq</title>
<g id="a_node4"><a xlink:href="src-inet-linklayer-ieee80211-mac-Ieee80211CompressedBlockAckReq.html" xlink:title="Class Ieee80211CompressedBlockAckReq" target="_parent">
<polygon fill="#fffcaf" stroke="black" points="368,-19 176,-19 176,0 368,0 368,-19"/>
<text text-anchor="middle" x="272" y="-7" font-family="Helvetica,sans-Serif" font-size="10.00">Ieee80211CompressedBlockAckReq</text>
</a>
</g>
</g>
<!-- Ieee80211BlockAckReq&#45;&gt;Ieee80211CompressedBlockAckReq -->
<g id="edge3" class="edge">
<title>Ieee80211BlockAckReq&#45;&gt;Ieee80211CompressedBlockAckReq</title>
<path fill="none" stroke="black" d="M272,-54.75C272,-44.87 272,-28.9 272,-19.09"/>
</g>
<!-- Ieee80211MultiTidBlockAckReq -->
<g id="node5" class="node">
<title>Ieee80211MultiTidBlockAckReq</title>
<g id="a_node5"><a xlink:href="src-inet-linklayer-ieee80211-mac-Ieee80211MultiTidBlockAckReq.html" xlink:title="Class Ieee80211MultiTidBlockAckReq" target="_parent">
<polygon fill="#fffcaf" stroke="black" points="556,-19 386,-19 386,0 556,0 556,-19"/>
<text text-anchor="middle" x="471" y="-7" font-family="Helvetica,sans-Serif" font-size="10.00">Ieee80211MultiTidBlockAckReq</text>
</a>
</g>
</g>
<!-- Ieee80211BlockAckReq&#45;&gt;Ieee80211MultiTidBlockAckReq -->
<g id="edge4" class="edge">
<title>Ieee80211BlockAckReq&#45;&gt;Ieee80211MultiTidBlockAckReq</title>
<path fill="none" stroke="black" d="M303.97,-54.98C341,-45.12 401.64,-28.97 438.78,-19.08"/>
</g>
<!-- Ieee80211TwoAddressHeader -->
<g id="node2" class="node">
<title>Ieee80211TwoAddressHeader</title>
<g id="a_node2"><a xlink:href="src-inet-linklayer-ieee80211-mac-Ieee80211TwoAddressHeader.html" xlink:title="Class Ieee80211TwoAddressHeader" target="_parent">
<polygon fill="#fffcaf" stroke="black" points="352.5,-129 191.5,-129 191.5,-110 352.5,-110 352.5,-129"/>
<text text-anchor="middle" x="272" y="-117" font-family="Helvetica,sans-Serif" font-size="10.00">Ieee80211TwoAddressHeader</text>
</a>
</g>
</g>
<!-- Ieee80211TwoAddressHeader&#45;&gt;Ieee80211BlockAckReq -->
<g id="edge1" class="edge">
<title>Ieee80211TwoAddressHeader&#45;&gt;Ieee80211BlockAckReq</title>
<path fill="none" stroke="black" d="M272,-109.75C272,-99.87 272,-83.9 272,-74.09"/>
</g>
</g>
</svg>
