<?xml version="1.0" encoding="UTF-8" standalone="no"?>
<!DOCTYPE svg PUBLIC "-//W3C//DTD SVG 1.1//EN"
 "http://www.w3.org/Graphics/SVG/1.1/DTD/svg11.dtd">
<!-- Generated by graphviz version 2.43.0 (0)
 -->
<!-- Title: opp Pages: 1 -->
<svg width="100pt" height="137pt"
 viewBox="0.00 0.00 100.00 137.00" xmlns="http://www.w3.org/2000/svg" xmlns:xlink="http://www.w3.org/1999/xlink">
<g id="graph0" class="graph" transform="scale(1 1) rotate(0) translate(4 133)">
<title>opp</title>
<polygon fill="transparent" stroke="transparent" points="-4,4 -4,-133 96,-133 96,4 -4,4"/>
<!-- TeLinkStateInfo -->
<g id="node1" class="node">
<title>TeLinkStateInfo</title>
<g id="a_node1"><a xlink:href="src-inet-networklayer-ted-TeLinkStateInfo.html" xlink:title="Struct TeLinkStateInfo" target="_parent">
<polygon fill="#9090ff" stroke="black" points="92,-74 0,-74 0,-55 92,-55 92,-74"/>
<text text-anchor="middle" x="46" y="-62" font-family="Helvetica,sans-Serif" font-size="10.00">TeLinkStateInfo</text>
</a>
</g>
</g>
<!-- Ipv4Address -->
<g id="node2" class="node">
<title>Ipv4Address</title>
<g id="a_node2"><a xlink:href="src-inet-networklayer-contract-ipv4-Ipv4Address.html" xlink:title="Class Ipv4Address" target="_parent">
<polygon fill="#fffcaf" stroke="black" points="84.5,-19 7.5,-19 7.5,0 84.5,0 84.5,-19"/>
<text text-anchor="middle" x="46" y="-7" font-family="Helvetica,sans-Serif" font-size="10.00">Ipv4Address</text>
</a>
</g>
</g>
<!-- TeLinkStateInfo&#45;&gt;Ipv4Address -->
<g id="edge1" class="edge">
<title>TeLinkStateInfo&#45;&gt;Ipv4Address</title>
<path fill="none" stroke="black" d="M46,-54.75C46,-47.8 46,-37.85 46,-29.13"/>
<polygon fill="black" stroke="black" points="49.5,-29.09 46,-19.09 42.5,-29.09 49.5,-29.09"/>
</g>
<!-- LinkStateMsg -->
<g id="node3" class="node">
<title>LinkStateMsg</title>
<g id="a_node3"><a xlink:href="src-inet-networklayer-ted-LinkStateMsg.html" xlink:title="Class LinkStateMsg" target="_parent">
<polygon fill="#fffcaf" stroke="black" points="87.5,-129 4.5,-129 4.5,-110 87.5,-110 87.5,-129"/>
<text text-anchor="middle" x="46" y="-117" font-family="Helvetica,sans-Serif" font-size="10.00">LinkStateMsg</text>
</a>
</g>
</g>
<!-- LinkStateMsg&#45;&gt;TeLinkStateInfo -->
<g id="edge2" class="edge">
<title>LinkStateMsg&#45;&gt;TeLinkStateInfo</title>
<path fill="none" stroke="black" d="M46,-109.75C46,-102.8 46,-92.85 46,-84.13"/>
<polygon fill="black" stroke="black" points="49.5,-84.09 46,-74.09 42.5,-84.09 49.5,-84.09"/>
</g>
</g>
</svg>
