<?xml version="1.0" encoding="UTF-8" standalone="no"?>
<!DOCTYPE svg PUBLIC "-//W3C//DTD SVG 1.1//EN"
 "http://www.w3.org/Graphics/SVG/1.1/DTD/svg11.dtd">
<!-- Generated by graphviz version 2.43.0 (0)
 -->
<!-- Title: opp Pages: 1 -->
<svg width="271pt" height="82pt"
 viewBox="0.00 0.00 271.00 82.00" xmlns="http://www.w3.org/2000/svg" xmlns:xlink="http://www.w3.org/1999/xlink">
<g id="graph0" class="graph" transform="scale(1 1) rotate(0) translate(4 78)">
<title>opp</title>
<polygon fill="transparent" stroke="transparent" points="-4,4 -4,-78 267,-78 267,4 -4,4"/>
<!-- TlvOptionBase -->
<g id="node1" class="node">
<title>TlvOptionBase</title>
<g id="a_node1"><a xlink:href="src-inet-common-TlvOptionBase.html" xlink:title="Class TlvOptionBase" target="_parent">
<polygon fill="#fff700" stroke="black" points="168.5,-74 80.5,-74 80.5,-55 168.5,-55 168.5,-74"/>
<text text-anchor="middle" x="124.5" y="-62" font-family="Helvetica,sans-Serif" font-size="10.00">TlvOptionBase</text>
</a>
</g>
</g>
<!-- GpsrOption -->
<g id="node2" class="node">
<title>GpsrOption</title>
<g id="a_node2"><a xlink:href="src-inet-routing-gpsr-GpsrOption.html" xlink:title="Class GpsrOption" target="_parent">
<polygon fill="#fffcaf" stroke="black" points="71,-19 0,-19 0,0 71,0 71,-19"/>
<text text-anchor="middle" x="35.5" y="-7" font-family="Helvetica,sans-Serif" font-size="10.00">GpsrOption</text>
</a>
</g>
</g>
<!-- TlvOptionBase&#45;&gt;GpsrOption -->
<g id="edge1" class="edge">
<title>TlvOptionBase&#45;&gt;GpsrOption</title>
<path fill="none" stroke="black" d="M110.2,-54.98C93.69,-45.15 66.68,-29.07 50.06,-19.17"/>
</g>
<!-- Ipv4Option -->
<g id="node3" class="node">
<title>Ipv4Option</title>
<g id="a_node3"><a xlink:href="src-inet-networklayer-ipv4-Ipv4Option.html" xlink:title="Class Ipv4Option" target="_parent">
<polygon fill="#fffcaf" stroke="black" points="159.5,-19 89.5,-19 89.5,0 159.5,0 159.5,-19"/>
<text text-anchor="middle" x="124.5" y="-7" font-family="Helvetica,sans-Serif" font-size="10.00">Ipv4Option</text>
</a>
</g>
</g>
<!-- TlvOptionBase&#45;&gt;Ipv4Option -->
<g id="edge2" class="edge">
<title>TlvOptionBase&#45;&gt;Ipv4Option</title>
<path fill="none" stroke="black" d="M124.5,-54.75C124.5,-44.87 124.5,-28.9 124.5,-19.09"/>
</g>
<!-- TlvOptionRaw -->
<g id="node4" class="node">
<title>TlvOptionRaw</title>
<g id="a_node4"><a xlink:href="src-inet-common-TlvOptionRaw.html" xlink:title="Class TlvOptionRaw" target="_parent">
<polygon fill="#fffcaf" stroke="black" points="263,-19 178,-19 178,0 263,0 263,-19"/>
<text text-anchor="middle" x="220.5" y="-7" font-family="Helvetica,sans-Serif" font-size="10.00">TlvOptionRaw</text>
</a>
</g>
</g>
<!-- TlvOptionBase&#45;&gt;TlvOptionRaw -->
<g id="edge3" class="edge">
<title>TlvOptionBase&#45;&gt;TlvOptionRaw</title>
<path fill="none" stroke="black" d="M139.92,-54.98C157.73,-45.15 186.87,-29.07 204.8,-19.17"/>
</g>
</g>
</svg>
