<?xml version="1.0" encoding="UTF-8" standalone="no"?>
<!DOCTYPE svg PUBLIC "-//W3C//DTD SVG 1.1//EN"
 "http://www.w3.org/Graphics/SVG/1.1/DTD/svg11.dtd">
<!-- Generated by graphviz version 2.43.0 (0)
 -->
<!-- Title: opp Pages: 1 -->
<svg width="256pt" height="137pt"
 viewBox="0.00 0.00 255.50 137.00" xmlns="http://www.w3.org/2000/svg" xmlns:xlink="http://www.w3.org/1999/xlink">
<g id="graph0" class="graph" transform="scale(1 1) rotate(0) translate(4 133)">
<title>opp</title>
<polygon fill="transparent" stroke="transparent" points="-4,4 -4,-133 251.5,-133 251.5,4 -4,4"/>
<!-- Ospfv3LsaPrefix0 -->
<g id="node1" class="node">
<title>Ospfv3LsaPrefix0</title>
<g id="a_node1"><a xlink:href="src-inet-routing-ospfv3-Ospfv3LsaPrefix0.html" xlink:title="Struct Ospfv3LsaPrefix0" target="_parent">
<polygon fill="#9090ff" stroke="black" points="187.5,-74 85.5,-74 85.5,-55 187.5,-55 187.5,-74"/>
<text text-anchor="middle" x="136.5" y="-62" font-family="Helvetica,sans-Serif" font-size="10.00">Ospfv3LsaPrefix0</text>
</a>
</g>
</g>
<!-- L3Address -->
<g id="node2" class="node">
<title>L3Address</title>
<g id="a_node2"><a xlink:href="src-inet-networklayer-common-L3Address.html" xlink:title="Class L3Address" target="_parent">
<polygon fill="#fffcaf" stroke="black" points="170,-19 103,-19 103,0 170,0 170,-19"/>
<text text-anchor="middle" x="136.5" y="-7" font-family="Helvetica,sans-Serif" font-size="10.00">L3Address</text>
</a>
</g>
</g>
<!-- Ospfv3LsaPrefix0&#45;&gt;L3Address -->
<g id="edge1" class="edge">
<title>Ospfv3LsaPrefix0&#45;&gt;L3Address</title>
<path fill="none" stroke="black" d="M136.5,-54.75C136.5,-47.8 136.5,-37.85 136.5,-29.13"/>
<polygon fill="black" stroke="black" points="140,-29.09 136.5,-19.09 133,-29.09 140,-29.09"/>
</g>
<!-- Ospfv3InterAreaPrefixLsa -->
<g id="node3" class="node">
<title>Ospfv3InterAreaPrefixLsa</title>
<g id="a_node3"><a xlink:href="src-inet-routing-ospfv3-Ospfv3InterAreaPrefixLsa.html" xlink:title="Class Ospfv3InterAreaPrefixLsa" target="_parent">
<polygon fill="#fffcaf" stroke="black" points="141,-129 0,-129 0,-110 141,-110 141,-129"/>
<text text-anchor="middle" x="70.5" y="-117" font-family="Helvetica,sans-Serif" font-size="10.00">Ospfv3InterAreaPrefixLsa</text>
</a>
</g>
</g>
<!-- Ospfv3InterAreaPrefixLsa&#45;&gt;Ospfv3LsaPrefix0 -->
<g id="edge2" class="edge">
<title>Ospfv3InterAreaPrefixLsa&#45;&gt;Ospfv3LsaPrefix0</title>
<path fill="none" stroke="black" d="M81.1,-109.98C90.96,-102.07 105.85,-90.11 117.72,-80.58"/>
<polygon fill="black" stroke="black" points="120.1,-83.16 125.7,-74.17 115.71,-77.7 120.1,-83.16"/>
</g>
<!-- Ospfv3LinkLsa -->
<g id="node4" class="node">
<title>Ospfv3LinkLsa</title>
<g id="a_node4"><a xlink:href="src-inet-routing-ospfv3-Ospfv3LinkLsa.html" xlink:title="Class Ospfv3LinkLsa" target="_parent">
<polygon fill="#fffcaf" stroke="black" points="247.5,-129 159.5,-129 159.5,-110 247.5,-110 247.5,-129"/>
<text text-anchor="middle" x="203.5" y="-117" font-family="Helvetica,sans-Serif" font-size="10.00">Ospfv3LinkLsa</text>
</a>
</g>
</g>
<!-- Ospfv3LinkLsa&#45;&gt;Ospfv3LsaPrefix0 -->
<g id="edge3" class="edge">
<title>Ospfv3LinkLsa&#45;&gt;Ospfv3LsaPrefix0</title>
<path fill="none" stroke="black" d="M192.74,-109.98C182.73,-102.07 167.61,-90.11 155.57,-80.58"/>
<polygon fill="black" stroke="black" points="157.47,-77.63 147.46,-74.17 153.13,-83.12 157.47,-77.63"/>
</g>
</g>
</svg>
