<?xml version="1.0" encoding="UTF-8" standalone="no"?>
<!DOCTYPE svg PUBLIC "-//W3C//DTD SVG 1.1//EN"
 "http://www.w3.org/Graphics/SVG/1.1/DTD/svg11.dtd">
<!-- Generated by graphviz version 2.43.0 (0)
 -->
<!-- Title: opp Pages: 1 -->
<svg width="220pt" height="137pt"
 viewBox="0.00 0.00 219.50 137.00" xmlns="http://www.w3.org/2000/svg" xmlns:xlink="http://www.w3.org/1999/xlink">
<g id="graph0" class="graph" transform="scale(1 1) rotate(0) translate(4 133)">
<title>opp</title>
<polygon fill="transparent" stroke="transparent" points="-4,4 -4,-133 215.5,-133 215.5,4 -4,4"/>
<!-- SignalBitrateTagBase -->
<g id="node1" class="node">
<title>SignalBitrateTagBase</title>
<g id="a_node1"><a xlink:href="src-inet-physicallayer-wireless-common-contract-packetlevel-SignalBitrateTagBase.html" xlink:title="Class SignalBitrateTagBase" target="_parent">
<polygon fill="#fff700" stroke="black" points="164.5,-74 44.5,-74 44.5,-55 164.5,-55 164.5,-74"/>
<text text-anchor="middle" x="104.5" y="-62" font-family="Helvetica,sans-Serif" font-size="10.00">SignalBitrateTagBase</text>
</a>
</g>
</g>
<!-- SignalBitrateInd -->
<g id="node3" class="node">
<title>SignalBitrateInd</title>
<g id="a_node3"><a xlink:href="src-inet-physicallayer-wireless-common-contract-packetlevel-SignalBitrateInd.html" xlink:title="Class SignalBitrateInd" target="_parent">
<polygon fill="#fffcaf" stroke="black" points="95,-19 0,-19 0,0 95,0 95,-19"/>
<text text-anchor="middle" x="47.5" y="-7" font-family="Helvetica,sans-Serif" font-size="10.00">SignalBitrateInd</text>
</a>
</g>
</g>
<!-- SignalBitrateTagBase&#45;&gt;SignalBitrateInd -->
<g id="edge2" class="edge">
<title>SignalBitrateTagBase&#45;&gt;SignalBitrateInd</title>
<path fill="none" stroke="black" d="M95.34,-54.98C84.77,-45.15 67.47,-29.07 56.82,-19.17"/>
</g>
<!-- SignalBitrateReq -->
<g id="node4" class="node">
<title>SignalBitrateReq</title>
<g id="a_node4"><a xlink:href="src-inet-physicallayer-wireless-common-contract-packetlevel-SignalBitrateReq.html" xlink:title="Class SignalBitrateReq" target="_parent">
<polygon fill="#fffcaf" stroke="black" points="211.5,-19 113.5,-19 113.5,0 211.5,0 211.5,-19"/>
<text text-anchor="middle" x="162.5" y="-7" font-family="Helvetica,sans-Serif" font-size="10.00">SignalBitrateReq</text>
</a>
</g>
</g>
<!-- SignalBitrateTagBase&#45;&gt;SignalBitrateReq -->
<g id="edge3" class="edge">
<title>SignalBitrateTagBase&#45;&gt;SignalBitrateReq</title>
<path fill="none" stroke="black" d="M113.82,-54.98C124.58,-45.15 142.18,-29.07 153.01,-19.17"/>
</g>
<!-- SignalTagBase -->
<g id="node2" class="node">
<title>SignalTagBase</title>
<g id="a_node2"><a xlink:href="src-inet-physicallayer-wireless-common-contract-packetlevel-SignalTagBase.html" xlink:title="Class SignalTagBase" target="_parent">
<polygon fill="#fffcaf" stroke="black" points="148,-129 61,-129 61,-110 148,-110 148,-129"/>
<text text-anchor="middle" x="104.5" y="-117" font-family="Helvetica,sans-Serif" font-size="10.00">SignalTagBase</text>
</a>
</g>
</g>
<!-- SignalTagBase&#45;&gt;SignalBitrateTagBase -->
<g id="edge1" class="edge">
<title>SignalTagBase&#45;&gt;SignalBitrateTagBase</title>
<path fill="none" stroke="black" d="M104.5,-109.75C104.5,-99.87 104.5,-83.9 104.5,-74.09"/>
</g>
</g>
</svg>
