<?xml version="1.0" encoding="UTF-8" standalone="no"?>
<!DOCTYPE svg PUBLIC "-//W3C//DTD SVG 1.1//EN"
 "http://www.w3.org/Graphics/SVG/1.1/DTD/svg11.dtd">
<!-- Generated by graphviz version 2.43.0 (0)
 -->
<!-- Title: opp Pages: 1 -->
<svg width="124pt" height="137pt"
 viewBox="0.00 0.00 124.00 137.00" xmlns="http://www.w3.org/2000/svg" xmlns:xlink="http://www.w3.org/1999/xlink">
<g id="graph0" class="graph" transform="scale(1 1) rotate(0) translate(4 133)">
<title>opp</title>
<polygon fill="transparent" stroke="transparent" points="-4,4 -4,-133 120,-133 120,4 -4,4"/>
<!-- HelloOption -->
<g id="node1" class="node">
<title>HelloOption</title>
<g id="a_node1"><a xlink:href="src-inet-routing-pim-HelloOption.html" xlink:title="Class HelloOption" target="_parent">
<polygon fill="#fff700" stroke="black" points="95,-74 21,-74 21,-55 95,-55 95,-74"/>
<text text-anchor="middle" x="58" y="-62" font-family="Helvetica,sans-Serif" font-size="10.00">HelloOption</text>
</a>
</g>
</g>
<!-- PimHelloOptionType -->
<g id="node2" class="node">
<title>PimHelloOptionType</title>
<g id="a_node2"><a xlink:href="src-inet-routing-pim-PimHelloOptionType.html" xlink:title="Enum PimHelloOptionType" target="_parent">
<polygon fill="#d0ffd0" stroke="black" points="116,-19 0,-19 0,0 116,0 116,-19"/>
<text text-anchor="middle" x="58" y="-7" font-family="Helvetica,sans-Serif" font-size="10.00">PimHelloOptionType</text>
</a>
</g>
</g>
<!-- HelloOption&#45;&gt;PimHelloOptionType -->
<g id="edge1" class="edge">
<title>HelloOption&#45;&gt;PimHelloOptionType</title>
<path fill="none" stroke="black" d="M58,-54.75C58,-47.8 58,-37.85 58,-29.13"/>
<polygon fill="black" stroke="black" points="61.5,-29.09 58,-19.09 54.5,-29.09 61.5,-29.09"/>
</g>
<!-- PimHello -->
<g id="node3" class="node">
<title>PimHello</title>
<g id="a_node3"><a xlink:href="src-inet-routing-pim-PimHello.html" xlink:title="Class PimHello" target="_parent">
<polygon fill="#fffcaf" stroke="black" points="88.5,-129 27.5,-129 27.5,-110 88.5,-110 88.5,-129"/>
<text text-anchor="middle" x="58" y="-117" font-family="Helvetica,sans-Serif" font-size="10.00">PimHello</text>
</a>
</g>
</g>
<!-- PimHello&#45;&gt;HelloOption -->
<g id="edge2" class="edge">
<title>PimHello&#45;&gt;HelloOption</title>
<path fill="none" stroke="black" d="M58,-109.75C58,-102.8 58,-92.85 58,-84.13"/>
<polygon fill="black" stroke="black" points="61.5,-84.09 58,-74.09 54.5,-84.09 61.5,-84.09"/>
</g>
</g>
</svg>
