<?xml version="1.0" encoding="UTF-8" standalone="no"?>
<!DOCTYPE svg PUBLIC "-//W3C//DTD SVG 1.1//EN"
 "http://www.w3.org/Graphics/SVG/1.1/DTD/svg11.dtd">
<!-- Generated by graphviz version 2.43.0 (0)
 -->
<!-- Title: opp Pages: 1 -->
<svg width="172pt" height="137pt"
 viewBox="0.00 0.00 172.00 137.00" xmlns="http://www.w3.org/2000/svg" xmlns:xlink="http://www.w3.org/1999/xlink">
<g id="graph0" class="graph" transform="scale(1 1) rotate(0) translate(4 133)">
<title>opp</title>
<polygon fill="transparent" stroke="transparent" points="-4,4 -4,-133 168,-133 168,4 -4,4"/>
<!-- NarrowbandTransmissionBase -->
<g id="node1" class="node">
<title>NarrowbandTransmissionBase</title>
<g id="a_node1"><a xlink:href="src-inet-physicallayer-wireless-common-base-packetlevel-NarrowbandTransmissionBase.html" xlink:title="Class NarrowbandTransmissionBase" target="_parent">
<polygon fill="#fff700" stroke="black" points="164,-74 0,-74 0,-55 164,-55 164,-74"/>
<text text-anchor="middle" x="82" y="-62" font-family="Helvetica,sans-Serif" font-size="10.00">NarrowbandTransmissionBase</text>
</a>
</g>
</g>
<!-- FlatTransmissionBase -->
<g id="node3" class="node">
<title>FlatTransmissionBase</title>
<g id="a_node3"><a xlink:href="src-inet-physicallayer-wireless-common-base-packetlevel-FlatTransmissionBase.html" xlink:title="Class FlatTransmissionBase" target="_parent">
<polygon fill="#fffcaf" stroke="black" points="144,-19 20,-19 20,0 144,0 144,-19"/>
<text text-anchor="middle" x="82" y="-7" font-family="Helvetica,sans-Serif" font-size="10.00">FlatTransmissionBase</text>
</a>
</g>
</g>
<!-- NarrowbandTransmissionBase&#45;&gt;FlatTransmissionBase -->
<g id="edge2" class="edge">
<title>NarrowbandTransmissionBase&#45;&gt;FlatTransmissionBase</title>
<path fill="none" stroke="black" d="M82,-54.75C82,-44.87 82,-28.9 82,-19.09"/>
</g>
<!-- TransmissionBase -->
<g id="node2" class="node">
<title>TransmissionBase</title>
<g id="a_node2"><a xlink:href="src-inet-physicallayer-wireless-common-base-packetlevel-TransmissionBase.html" xlink:title="Class TransmissionBase" target="_parent">
<polygon fill="#fffcaf" stroke="black" points="134.5,-129 29.5,-129 29.5,-110 134.5,-110 134.5,-129"/>
<text text-anchor="middle" x="82" y="-117" font-family="Helvetica,sans-Serif" font-size="10.00">TransmissionBase</text>
</a>
</g>
</g>
<!-- TransmissionBase&#45;&gt;NarrowbandTransmissionBase -->
<g id="edge1" class="edge">
<title>TransmissionBase&#45;&gt;NarrowbandTransmissionBase</title>
<path fill="none" stroke="black" d="M82,-109.75C82,-99.87 82,-83.9 82,-74.09"/>
</g>
</g>
</svg>
