<?xml version="1.0" encoding="UTF-8" standalone="no"?>
<!DOCTYPE svg PUBLIC "-//W3C//DTD SVG 1.1//EN"
 "http://www.w3.org/Graphics/SVG/1.1/DTD/svg11.dtd">
<!-- Generated by graphviz version 2.43.0 (0)
 -->
<!-- Title: opp Pages: 1 -->
<svg width="286pt" height="82pt"
 viewBox="0.00 0.00 286.00 82.00" xmlns="http://www.w3.org/2000/svg" xmlns:xlink="http://www.w3.org/1999/xlink">
<g id="graph0" class="graph" transform="scale(1 1) rotate(0) translate(4 78)">
<title>opp</title>
<polygon fill="transparent" stroke="transparent" points="-4,4 -4,-78 282,-78 282,4 -4,4"/>
<!-- PimStateRefresh -->
<g id="node1" class="node">
<title>PimStateRefresh</title>
<g id="a_node1"><a xlink:href="src-inet-routing-pim-PimStateRefresh.html" xlink:title="Class PimStateRefresh" target="_parent">
<polygon fill="#fff700" stroke="black" points="186,-74 88,-74 88,-55 186,-55 186,-74"/>
<text text-anchor="middle" x="137" y="-62" font-family="Helvetica,sans-Serif" font-size="10.00">PimStateRefresh</text>
</a>
</g>
</g>
<!-- EncodedGroupAddress -->
<g id="node2" class="node">
<title>EncodedGroupAddress</title>
<g id="a_node2"><a xlink:href="src-inet-routing-pim-EncodedGroupAddress.html" xlink:title="Struct EncodedGroupAddress" target="_parent">
<polygon fill="#d0d0ff" stroke="black" points="126,-19 0,-19 0,0 126,0 126,-19"/>
<text text-anchor="middle" x="63" y="-7" font-family="Helvetica,sans-Serif" font-size="10.00">EncodedGroupAddress</text>
</a>
</g>
</g>
<!-- PimStateRefresh&#45;&gt;EncodedGroupAddress -->
<g id="edge1" class="edge">
<title>PimStateRefresh&#45;&gt;EncodedGroupAddress</title>
<path fill="none" stroke="black" d="M125.11,-54.98C113.85,-46.92 96.71,-34.65 83.29,-25.03"/>
<polygon fill="black" stroke="black" points="85.27,-22.15 75.11,-19.17 81.2,-27.84 85.27,-22.15"/>
</g>
<!-- EncodedUnicastAddress -->
<g id="node3" class="node">
<title>EncodedUnicastAddress</title>
<g id="a_node3"><a xlink:href="src-inet-routing-pim-EncodedUnicastAddress.html" xlink:title="Struct EncodedUnicastAddress" target="_parent">
<polygon fill="#d0d0ff" stroke="black" points="278,-19 144,-19 144,0 278,0 278,-19"/>
<text text-anchor="middle" x="211" y="-7" font-family="Helvetica,sans-Serif" font-size="10.00">EncodedUnicastAddress</text>
</a>
</g>
</g>
<!-- PimStateRefresh&#45;&gt;EncodedUnicastAddress -->
<g id="edge2" class="edge">
<title>PimStateRefresh&#45;&gt;EncodedUnicastAddress</title>
<path fill="none" stroke="black" d="M148.89,-54.98C160.15,-46.92 177.29,-34.65 190.71,-25.03"/>
<polygon fill="black" stroke="black" points="192.8,-27.84 198.89,-19.17 188.73,-22.15 192.8,-27.84"/>
</g>
</g>
</svg>
