<?xml version="1.0" encoding="UTF-8" standalone="no"?>
<!DOCTYPE svg PUBLIC "-//W3C//DTD SVG 1.1//EN"
 "http://www.w3.org/Graphics/SVG/1.1/DTD/svg11.dtd">
<!-- Generated by graphviz version 2.43.0 (0)
 -->
<!-- Title: opp Pages: 1 -->
<svg width="1022pt" height="82pt"
 viewBox="0.00 0.00 1022.00 82.00" xmlns="http://www.w3.org/2000/svg" xmlns:xlink="http://www.w3.org/1999/xlink">
<g id="graph0" class="graph" transform="scale(1 1) rotate(0) translate(4 78)">
<title>opp</title>
<polygon fill="transparent" stroke="transparent" points="-4,4 -4,-78 1018,-78 1018,4 -4,4"/>
<!-- Ipv6ExtensionHeader -->
<g id="node1" class="node">
<title>Ipv6ExtensionHeader</title>
<g id="a_node1"><a xlink:href="src-inet-networklayer-ipv6-Ipv6ExtensionHeader.html" xlink:title="Class Ipv6ExtensionHeader" target="_parent">
<polygon fill="#fff700" stroke="black" points="612.5,-74 491.5,-74 491.5,-55 612.5,-55 612.5,-74"/>
<text text-anchor="middle" x="552" y="-62" font-family="Helvetica,sans-Serif" font-size="10.00">Ipv6ExtensionHeader</text>
</a>
</g>
</g>
<!-- Ipv6AuthenticationHeader -->
<g id="node2" class="node">
<title>Ipv6AuthenticationHeader</title>
<g id="a_node2"><a xlink:href="src-inet-networklayer-ipv6-Ipv6AuthenticationHeader.html" xlink:title="Class Ipv6AuthenticationHeader" target="_parent">
<polygon fill="#fffcaf" stroke="black" points="144,-19 0,-19 0,0 144,0 144,-19"/>
<text text-anchor="middle" x="72" y="-7" font-family="Helvetica,sans-Serif" font-size="10.00">Ipv6AuthenticationHeader</text>
</a>
</g>
</g>
<!-- Ipv6ExtensionHeader&#45;&gt;Ipv6AuthenticationHeader -->
<g id="edge1" class="edge">
<title>Ipv6ExtensionHeader&#45;&gt;Ipv6AuthenticationHeader</title>
<path fill="none" stroke="black" d="M491.21,-56.79C402.66,-47.01 238.5,-28.88 144.02,-18.45"/>
</g>
<!-- Ipv6DestinationOptionsHeader -->
<g id="node3" class="node">
<title>Ipv6DestinationOptionsHeader</title>
<g id="a_node3"><a xlink:href="src-inet-networklayer-ipv6-Ipv6DestinationOptionsHeader.html" xlink:title="Class Ipv6DestinationOptionsHeader" target="_parent">
<polygon fill="#fffcaf" stroke="black" points="329.5,-19 162.5,-19 162.5,0 329.5,0 329.5,-19"/>
<text text-anchor="middle" x="246" y="-7" font-family="Helvetica,sans-Serif" font-size="10.00">Ipv6DestinationOptionsHeader</text>
</a>
</g>
</g>
<!-- Ipv6ExtensionHeader&#45;&gt;Ipv6DestinationOptionsHeader -->
<g id="edge2" class="edge">
<title>Ipv6ExtensionHeader&#45;&gt;Ipv6DestinationOptionsHeader</title>
<path fill="none" stroke="black" d="M502.84,-54.98C445.82,-45.11 352.37,-28.92 295.3,-19.04"/>
</g>
<!-- Ipv6EncapsulatingSecurityPayloadHeader -->
<g id="node4" class="node">
<title>Ipv6EncapsulatingSecurityPayloadHeader</title>
<g id="a_node4"><a xlink:href="src-inet-networklayer-ipv6-Ipv6EncapsulatingSecurityPayloadHeader.html" xlink:title="Class Ipv6EncapsulatingSecurityPayloadHeader" target="_parent">
<polygon fill="#fffcaf" stroke="black" points="568,-19 348,-19 348,0 568,0 568,-19"/>
<text text-anchor="middle" x="458" y="-7" font-family="Helvetica,sans-Serif" font-size="10.00">Ipv6EncapsulatingSecurityPayloadHeader</text>
</a>
</g>
</g>
<!-- Ipv6ExtensionHeader&#45;&gt;Ipv6EncapsulatingSecurityPayloadHeader -->
<g id="edge3" class="edge">
<title>Ipv6ExtensionHeader&#45;&gt;Ipv6EncapsulatingSecurityPayloadHeader</title>
<path fill="none" stroke="black" d="M536.9,-54.98C519.46,-45.15 490.93,-29.07 473.38,-19.17"/>
</g>
<!-- Ipv6FragmentHeader -->
<g id="node5" class="node">
<title>Ipv6FragmentHeader</title>
<g id="a_node5"><a xlink:href="src-inet-networklayer-ipv6-Ipv6FragmentHeader.html" xlink:title="Class Ipv6FragmentHeader" target="_parent">
<polygon fill="#fffcaf" stroke="black" points="705.5,-19 586.5,-19 586.5,0 705.5,0 705.5,-19"/>
<text text-anchor="middle" x="646" y="-7" font-family="Helvetica,sans-Serif" font-size="10.00">Ipv6FragmentHeader</text>
</a>
</g>
</g>
<!-- Ipv6ExtensionHeader&#45;&gt;Ipv6FragmentHeader -->
<g id="edge4" class="edge">
<title>Ipv6ExtensionHeader&#45;&gt;Ipv6FragmentHeader</title>
<path fill="none" stroke="black" d="M567.1,-54.98C584.54,-45.15 613.07,-29.07 630.62,-19.17"/>
</g>
<!-- Ipv6HopByHopOptionsHeader -->
<g id="node6" class="node">
<title>Ipv6HopByHopOptionsHeader</title>
<g id="a_node6"><a xlink:href="src-inet-networklayer-ipv6-Ipv6HopByHopOptionsHeader.html" xlink:title="Class Ipv6HopByHopOptionsHeader" target="_parent">
<polygon fill="#fffcaf" stroke="black" points="886,-19 724,-19 724,0 886,0 886,-19"/>
<text text-anchor="middle" x="805" y="-7" font-family="Helvetica,sans-Serif" font-size="10.00">Ipv6HopByHopOptionsHeader</text>
</a>
</g>
</g>
<!-- Ipv6ExtensionHeader&#45;&gt;Ipv6HopByHopOptionsHeader -->
<g id="edge5" class="edge">
<title>Ipv6ExtensionHeader&#45;&gt;Ipv6HopByHopOptionsHeader</title>
<path fill="none" stroke="black" d="M592.65,-54.98C639.72,-45.12 716.82,-28.97 764.03,-19.08"/>
</g>
<!-- Ipv6RoutingHeader -->
<g id="node7" class="node">
<title>Ipv6RoutingHeader</title>
<g id="a_node7"><a xlink:href="src-inet-networklayer-ipv6-Ipv6RoutingHeader.html" xlink:title="Class Ipv6RoutingHeader" target="_parent">
<polygon fill="#fffcaf" stroke="black" points="1014,-19 904,-19 904,0 1014,0 1014,-19"/>
<text text-anchor="middle" x="959" y="-7" font-family="Helvetica,sans-Serif" font-size="10.00">Ipv6RoutingHeader</text>
</a>
</g>
</g>
<!-- Ipv6ExtensionHeader&#45;&gt;Ipv6RoutingHeader -->
<g id="edge6" class="edge">
<title>Ipv6ExtensionHeader&#45;&gt;Ipv6RoutingHeader</title>
<path fill="none" stroke="black" d="M612.73,-55.68C681.29,-46.83 796.17,-31.97 895,-19 897.89,-18.62 900.85,-18.23 903.84,-17.84"/>
</g>
</g>
</svg>
