<?xml version="1.0" encoding="UTF-8" standalone="no"?>
<!DOCTYPE svg PUBLIC "-//W3C//DTD SVG 1.1//EN"
 "http://www.w3.org/Graphics/SVG/1.1/DTD/svg11.dtd">
<!-- Generated by graphviz version 2.43.0 (0)
 -->
<!-- Title: opp Pages: 1 -->
<svg width="286pt" height="82pt"
 viewBox="0.00 0.00 285.50 82.00" xmlns="http://www.w3.org/2000/svg" xmlns:xlink="http://www.w3.org/1999/xlink">
<g id="graph0" class="graph" transform="scale(1 1) rotate(0) translate(4 78)">
<title>opp</title>
<polygon fill="transparent" stroke="transparent" points="-4,4 -4,-78 281.5,-78 281.5,4 -4,4"/>
<!-- GpsrOption -->
<g id="node1" class="node">
<title>GpsrOption</title>
<g id="a_node1"><a xlink:href="src-inet-routing-gpsr-GpsrOption.html" xlink:title="Class GpsrOption" target="_parent">
<polygon fill="#fff700" stroke="black" points="167.5,-74 96.5,-74 96.5,-55 167.5,-55 167.5,-74"/>
<text text-anchor="middle" x="132" y="-62" font-family="Helvetica,sans-Serif" font-size="10.00">GpsrOption</text>
</a>
</g>
</g>
<!-- Coord -->
<g id="node2" class="node">
<title>Coord</title>
<g id="a_node2"><a xlink:href="src-inet-common-geometry-Coord.html" xlink:title="Class Coord" target="_parent">
<polygon fill="#fffcaf" stroke="black" points="54,-19 0,-19 0,0 54,0 54,-19"/>
<text text-anchor="middle" x="27" y="-7" font-family="Helvetica,sans-Serif" font-size="10.00">Coord</text>
</a>
</g>
</g>
<!-- GpsrOption&#45;&gt;Coord -->
<g id="edge1" class="edge">
<title>GpsrOption&#45;&gt;Coord</title>
<path fill="none" stroke="black" d="M115.13,-54.98C98.39,-46.54 72.5,-33.47 53.11,-23.68"/>
<polygon fill="black" stroke="black" points="54.68,-20.55 44.18,-19.17 51.53,-26.8 54.68,-20.55"/>
</g>
<!-- GpsrForwardingMode -->
<g id="node3" class="node">
<title>GpsrForwardingMode</title>
<g id="a_node3"><a xlink:href="src-inet-routing-gpsr-GpsrForwardingMode.html" xlink:title="Enum GpsrForwardingMode" target="_parent">
<polygon fill="#d0ffd0" stroke="black" points="192,-19 72,-19 72,0 192,0 192,-19"/>
<text text-anchor="middle" x="132" y="-7" font-family="Helvetica,sans-Serif" font-size="10.00">GpsrForwardingMode</text>
</a>
</g>
</g>
<!-- GpsrOption&#45;&gt;GpsrForwardingMode -->
<g id="edge2" class="edge">
<title>GpsrOption&#45;&gt;GpsrForwardingMode</title>
<path fill="none" stroke="black" d="M132,-54.75C132,-47.8 132,-37.85 132,-29.13"/>
<polygon fill="black" stroke="black" points="135.5,-29.09 132,-19.09 128.5,-29.09 135.5,-29.09"/>
</g>
<!-- L3Address -->
<g id="node4" class="node">
<title>L3Address</title>
<g id="a_node4"><a xlink:href="src-inet-networklayer-common-L3Address.html" xlink:title="Class L3Address" target="_parent">
<polygon fill="#fffcaf" stroke="black" points="277.5,-19 210.5,-19 210.5,0 277.5,0 277.5,-19"/>
<text text-anchor="middle" x="244" y="-7" font-family="Helvetica,sans-Serif" font-size="10.00">L3Address</text>
</a>
</g>
</g>
<!-- GpsrOption&#45;&gt;L3Address -->
<g id="edge3" class="edge">
<title>GpsrOption&#45;&gt;L3Address</title>
<path fill="none" stroke="black" d="M149.99,-54.98C167.93,-46.5 195.72,-33.35 216.43,-23.54"/>
<polygon fill="black" stroke="black" points="218.14,-26.61 225.68,-19.17 215.14,-20.28 218.14,-26.61"/>
</g>
</g>
</svg>
