<?xml version="1.0" encoding="UTF-8" standalone="no"?>
<!DOCTYPE svg PUBLIC "-//W3C//DTD SVG 1.1//EN"
 "http://www.w3.org/Graphics/SVG/1.1/DTD/svg11.dtd">
<!-- Generated by graphviz version 2.43.0 (0)
 -->
<!-- Title: opp Pages: 1 -->
<svg width="212pt" height="137pt"
 viewBox="0.00 0.00 212.00 137.00" xmlns="http://www.w3.org/2000/svg" xmlns:xlink="http://www.w3.org/1999/xlink">
<g id="graph0" class="graph" transform="scale(1 1) rotate(0) translate(4 133)">
<title>opp</title>
<polygon fill="transparent" stroke="transparent" points="-4,4 -4,-133 208,-133 208,4 -4,4"/>
<!-- MacAddressTagBase -->
<g id="node1" class="node">
<title>MacAddressTagBase</title>
<g id="a_node1"><a xlink:href="src-inet-linklayer-common-MacAddressTagBase.html" xlink:title="Class MacAddressTagBase" target="_parent">
<polygon fill="#fff700" stroke="black" points="158.5,-74 42.5,-74 42.5,-55 158.5,-55 158.5,-74"/>
<text text-anchor="middle" x="100.5" y="-62" font-family="Helvetica,sans-Serif" font-size="10.00">MacAddressTagBase</text>
</a>
</g>
</g>
<!-- MacAddressInd -->
<g id="node3" class="node">
<title>MacAddressInd</title>
<g id="a_node3"><a xlink:href="src-inet-linklayer-common-MacAddressInd.html" xlink:title="Class MacAddressInd" target="_parent">
<polygon fill="#fffcaf" stroke="black" points="91,-19 0,-19 0,0 91,0 91,-19"/>
<text text-anchor="middle" x="45.5" y="-7" font-family="Helvetica,sans-Serif" font-size="10.00">MacAddressInd</text>
</a>
</g>
</g>
<!-- MacAddressTagBase&#45;&gt;MacAddressInd -->
<g id="edge2" class="edge">
<title>MacAddressTagBase&#45;&gt;MacAddressInd</title>
<path fill="none" stroke="black" d="M91.42,-54.75C81.17,-44.87 64.59,-28.9 54.41,-19.09"/>
</g>
<!-- MacAddressReq -->
<g id="node4" class="node">
<title>MacAddressReq</title>
<g id="a_node4"><a xlink:href="src-inet-linklayer-common-MacAddressReq.html" xlink:title="Class MacAddressReq" target="_parent">
<polygon fill="#fffcaf" stroke="black" points="204,-19 109,-19 109,0 204,0 204,-19"/>
<text text-anchor="middle" x="156.5" y="-7" font-family="Helvetica,sans-Serif" font-size="10.00">MacAddressReq</text>
</a>
</g>
</g>
<!-- MacAddressTagBase&#45;&gt;MacAddressReq -->
<g id="edge3" class="edge">
<title>MacAddressTagBase&#45;&gt;MacAddressReq</title>
<path fill="none" stroke="black" d="M109.5,-54.98C119.89,-45.15 136.88,-29.07 147.34,-19.17"/>
</g>
<!-- TagBase -->
<g id="node2" class="node">
<title>TagBase</title>
<g id="a_node2"><a xlink:href="src-inet-common-TagBase.html" xlink:title="Class TagBase" target="_parent">
<polygon fill="#fffcaf" stroke="black" points="129,-129 72,-129 72,-110 129,-110 129,-129"/>
<text text-anchor="middle" x="100.5" y="-117" font-family="Helvetica,sans-Serif" font-size="10.00">TagBase</text>
</a>
</g>
</g>
<!-- TagBase&#45;&gt;MacAddressTagBase -->
<g id="edge1" class="edge">
<title>TagBase&#45;&gt;MacAddressTagBase</title>
<path fill="none" stroke="black" d="M100.5,-109.75C100.5,-99.87 100.5,-83.9 100.5,-74.09"/>
</g>
</g>
</svg>
