<?xml version="1.0" encoding="UTF-8" standalone="no"?>
<!DOCTYPE svg PUBLIC "-//W3C//DTD SVG 1.1//EN"
 "http://www.w3.org/Graphics/SVG/1.1/DTD/svg11.dtd">
<!-- Generated by graphviz version 2.43.0 (0)
 -->
<!-- Title: opp Pages: 1 -->
<svg width="282pt" height="137pt"
 viewBox="0.00 0.00 282.00 137.00" xmlns="http://www.w3.org/2000/svg" xmlns:xlink="http://www.w3.org/1999/xlink">
<g id="graph0" class="graph" transform="scale(1 1) rotate(0) translate(4 133)">
<title>opp</title>
<polygon fill="transparent" stroke="transparent" points="-4,4 -4,-133 278,-133 278,4 -4,4"/>
<!-- JoinPruneGroup -->
<g id="node1" class="node">
<title>JoinPruneGroup</title>
<g id="a_node1"><a xlink:href="src-inet-routing-pim-JoinPruneGroup.html" xlink:title="Class JoinPruneGroup" target="_parent">
<polygon fill="#fff700" stroke="black" points="182,-74 90,-74 90,-55 182,-55 182,-74"/>
<text text-anchor="middle" x="136" y="-62" font-family="Helvetica,sans-Serif" font-size="10.00">JoinPruneGroup</text>
</a>
</g>
</g>
<!-- EncodedGroupAddress -->
<g id="node2" class="node">
<title>EncodedGroupAddress</title>
<g id="a_node2"><a xlink:href="src-inet-routing-pim-EncodedGroupAddress.html" xlink:title="Struct EncodedGroupAddress" target="_parent">
<polygon fill="#d0d0ff" stroke="black" points="126,-19 0,-19 0,0 126,0 126,-19"/>
<text text-anchor="middle" x="63" y="-7" font-family="Helvetica,sans-Serif" font-size="10.00">EncodedGroupAddress</text>
</a>
</g>
</g>
<!-- JoinPruneGroup&#45;&gt;EncodedGroupAddress -->
<g id="edge1" class="edge">
<title>JoinPruneGroup&#45;&gt;EncodedGroupAddress</title>
<path fill="none" stroke="black" d="M124.27,-54.98C113.27,-47 96.58,-34.88 83.4,-25.31"/>
<polygon fill="black" stroke="black" points="85.09,-22.21 74.94,-19.17 80.98,-27.88 85.09,-22.21"/>
</g>
<!-- EncodedSourceAddress -->
<g id="node3" class="node">
<title>EncodedSourceAddress</title>
<g id="a_node3"><a xlink:href="src-inet-routing-pim-EncodedSourceAddress.html" xlink:title="Struct EncodedSourceAddress" target="_parent">
<polygon fill="#d0d0ff" stroke="black" points="274,-19 144,-19 144,0 274,0 274,-19"/>
<text text-anchor="middle" x="209" y="-7" font-family="Helvetica,sans-Serif" font-size="10.00">EncodedSourceAddress</text>
</a>
</g>
</g>
<!-- JoinPruneGroup&#45;&gt;EncodedSourceAddress -->
<g id="edge2" class="edge">
<title>JoinPruneGroup&#45;&gt;EncodedSourceAddress</title>
<path fill="none" stroke="black" d="M147.73,-54.98C158.73,-47 175.42,-34.88 188.6,-25.31"/>
<polygon fill="black" stroke="black" points="191.02,-27.88 197.06,-19.17 186.91,-22.21 191.02,-27.88"/>
</g>
<!-- PimJoinPrune -->
<g id="node4" class="node">
<title>PimJoinPrune</title>
<g id="a_node4"><a xlink:href="src-inet-routing-pim-PimJoinPrune.html" xlink:title="Class PimJoinPrune" target="_parent">
<polygon fill="#fffcaf" stroke="black" points="176.5,-129 95.5,-129 95.5,-110 176.5,-110 176.5,-129"/>
<text text-anchor="middle" x="136" y="-117" font-family="Helvetica,sans-Serif" font-size="10.00">PimJoinPrune</text>
</a>
</g>
</g>
<!-- PimJoinPrune&#45;&gt;JoinPruneGroup -->
<g id="edge3" class="edge">
<title>PimJoinPrune&#45;&gt;JoinPruneGroup</title>
<path fill="none" stroke="black" d="M136,-109.75C136,-102.8 136,-92.85 136,-84.13"/>
<polygon fill="black" stroke="black" points="139.5,-84.09 136,-74.09 132.5,-84.09 139.5,-84.09"/>
</g>
</g>
</svg>
