<?xml version="1.0" encoding="UTF-8" standalone="no"?>
<!DOCTYPE svg PUBLIC "-//W3C//DTD SVG 1.1//EN"
 "http://www.w3.org/Graphics/SVG/1.1/DTD/svg11.dtd">
<!-- Generated by graphviz version 2.43.0 (0)
 -->
<!-- Title: opp Pages: 1 -->
<svg width="181pt" height="137pt"
 viewBox="0.00 0.00 181.00 137.00" xmlns="http://www.w3.org/2000/svg" xmlns:xlink="http://www.w3.org/1999/xlink">
<g id="graph0" class="graph" transform="scale(1 1) rotate(0) translate(4 133)">
<title>opp</title>
<polygon fill="transparent" stroke="transparent" points="-4,4 -4,-133 177,-133 177,4 -4,4"/>
<!-- Ieee80211BeaconFrame -->
<g id="node1" class="node">
<title>Ieee80211BeaconFrame</title>
<g id="a_node1"><a xlink:href="src-inet-linklayer-ieee80211-mgmt-Ieee80211BeaconFrame.html" xlink:title="Class Ieee80211BeaconFrame" target="_parent">
<polygon fill="#fff700" stroke="black" points="153.5,-74 19.5,-74 19.5,-55 153.5,-55 153.5,-74"/>
<text text-anchor="middle" x="86.5" y="-62" font-family="Helvetica,sans-Serif" font-size="10.00">Ieee80211BeaconFrame</text>
</a>
</g>
</g>
<!-- Ieee80211ProbeResponseFrame -->
<g id="node3" class="node">
<title>Ieee80211ProbeResponseFrame</title>
<g id="a_node3"><a xlink:href="src-inet-linklayer-ieee80211-mgmt-Ieee80211ProbeResponseFrame.html" xlink:title="Class Ieee80211ProbeResponseFrame" target="_parent">
<polygon fill="#fffcaf" stroke="black" points="173,-19 0,-19 0,0 173,0 173,-19"/>
<text text-anchor="middle" x="86.5" y="-7" font-family="Helvetica,sans-Serif" font-size="10.00">Ieee80211ProbeResponseFrame</text>
</a>
</g>
</g>
<!-- Ieee80211BeaconFrame&#45;&gt;Ieee80211ProbeResponseFrame -->
<g id="edge2" class="edge">
<title>Ieee80211BeaconFrame&#45;&gt;Ieee80211ProbeResponseFrame</title>
<path fill="none" stroke="black" d="M86.5,-54.75C86.5,-44.87 86.5,-28.9 86.5,-19.09"/>
</g>
<!-- Ieee80211MgmtFrame -->
<g id="node2" class="node">
<title>Ieee80211MgmtFrame</title>
<g id="a_node2"><a xlink:href="src-inet-linklayer-ieee80211-mgmt-Ieee80211MgmtFrame.html" xlink:title="Class Ieee80211MgmtFrame" target="_parent">
<polygon fill="#fffcaf" stroke="black" points="150,-129 23,-129 23,-110 150,-110 150,-129"/>
<text text-anchor="middle" x="86.5" y="-117" font-family="Helvetica,sans-Serif" font-size="10.00">Ieee80211MgmtFrame</text>
</a>
</g>
</g>
<!-- Ieee80211MgmtFrame&#45;&gt;Ieee80211BeaconFrame -->
<g id="edge1" class="edge">
<title>Ieee80211MgmtFrame&#45;&gt;Ieee80211BeaconFrame</title>
<path fill="none" stroke="black" d="M86.5,-109.75C86.5,-99.87 86.5,-83.9 86.5,-74.09"/>
</g>
</g>
</svg>
