<?xml version="1.0" encoding="UTF-8" standalone="no"?>
<!DOCTYPE svg PUBLIC "-//W3C//DTD SVG 1.1//EN"
 "http://www.w3.org/Graphics/SVG/1.1/DTD/svg11.dtd">
<!-- Generated by graphviz version 2.43.0 (0)
 -->
<!-- Title: opp Pages: 1 -->
<svg width="226pt" height="137pt"
 viewBox="0.00 0.00 226.00 137.00" xmlns="http://www.w3.org/2000/svg" xmlns:xlink="http://www.w3.org/1999/xlink">
<g id="graph0" class="graph" transform="scale(1 1) rotate(0) translate(4 133)">
<title>opp</title>
<polygon fill="transparent" stroke="transparent" points="-4,4 -4,-133 222,-133 222,4 -4,4"/>
<!-- IIeee80211HeaderMode -->
<g id="node1" class="node">
<title>IIeee80211HeaderMode</title>
<g id="a_node1"><a xlink:href="src-inet-physicallayer-wireless-ieee80211-mode-IIeee80211HeaderMode.html" xlink:title="Class IIeee80211HeaderMode" target="_parent">
<polygon fill="#fff700" stroke="black" points="175.5,-74 42.5,-74 42.5,-55 175.5,-55 175.5,-74"/>
<text text-anchor="middle" x="109" y="-62" font-family="Helvetica,sans-Serif" font-size="10.00">IIeee80211HeaderMode</text>
</a>
</g>
</g>
<!-- b -->
<g id="node2" class="node">
<title>b</title>
<g id="a_node2"><a xlink:href="src-inet-common-b.html" xlink:title="Class b" target="_parent">
<polygon fill="#fffcaf" stroke="black" points="54,-19 0,-19 0,0 54,0 54,-19"/>
<text text-anchor="middle" x="27" y="-7" font-family="Helvetica,sans-Serif" font-size="10.00">b</text>
</a>
</g>
</g>
<!-- IIeee80211HeaderMode&#45;&gt;b -->
<g id="edge1" class="edge">
<title>IIeee80211HeaderMode&#45;&gt;b</title>
<path fill="none" stroke="black" d="M95.83,-54.98C83.23,-46.84 64,-34.41 49.06,-24.76"/>
<polygon fill="black" stroke="black" points="50.71,-21.66 40.41,-19.17 46.91,-27.54 50.71,-21.66"/>
</g>
<!-- IModulation -->
<g id="node3" class="node">
<title>IModulation</title>
<g id="a_node3"><a xlink:href="src-inet-physicallayer-wireless-common-contract-packetlevel-IModulation.html" xlink:title="Class IModulation" target="_parent">
<polygon fill="#fffcaf" stroke="black" points="146,-19 72,-19 72,0 146,0 146,-19"/>
<text text-anchor="middle" x="109" y="-7" font-family="Helvetica,sans-Serif" font-size="10.00">IModulation</text>
</a>
</g>
</g>
<!-- IIeee80211HeaderMode&#45;&gt;IModulation -->
<g id="edge2" class="edge">
<title>IIeee80211HeaderMode&#45;&gt;IModulation</title>
<path fill="none" stroke="black" d="M109,-54.75C109,-47.8 109,-37.85 109,-29.13"/>
<polygon fill="black" stroke="black" points="112.5,-29.09 109,-19.09 105.5,-29.09 112.5,-29.09"/>
</g>
<!-- bps -->
<g id="node4" class="node">
<title>bps</title>
<g id="a_node4"><a xlink:href="src-inet-common-bps.html" xlink:title="Class bps" target="_parent">
<polygon fill="#fffcaf" stroke="black" points="218,-19 164,-19 164,0 218,0 218,-19"/>
<text text-anchor="middle" x="191" y="-7" font-family="Helvetica,sans-Serif" font-size="10.00">bps</text>
</a>
</g>
</g>
<!-- IIeee80211HeaderMode&#45;&gt;bps -->
<g id="edge3" class="edge">
<title>IIeee80211HeaderMode&#45;&gt;bps</title>
<path fill="none" stroke="black" d="M122.17,-54.98C134.77,-46.84 154,-34.41 168.94,-24.76"/>
<polygon fill="black" stroke="black" points="171.09,-27.54 177.59,-19.17 167.29,-21.66 171.09,-27.54"/>
</g>
<!-- IIeee80211Mode -->
<g id="node5" class="node">
<title>IIeee80211Mode</title>
<g id="a_node5"><a xlink:href="src-inet-physicallayer-wireless-ieee80211-mode-IIeee80211Mode.html" xlink:title="Class IIeee80211Mode" target="_parent">
<polygon fill="#fffcaf" stroke="black" points="158,-129 60,-129 60,-110 158,-110 158,-129"/>
<text text-anchor="middle" x="109" y="-117" font-family="Helvetica,sans-Serif" font-size="10.00">IIeee80211Mode</text>
</a>
</g>
</g>
<!-- IIeee80211Mode&#45;&gt;IIeee80211HeaderMode -->
<g id="edge4" class="edge">
<title>IIeee80211Mode&#45;&gt;IIeee80211HeaderMode</title>
<path fill="none" stroke="black" d="M109,-109.75C109,-102.8 109,-92.85 109,-84.13"/>
<polygon fill="black" stroke="black" points="112.5,-84.09 109,-74.09 105.5,-84.09 112.5,-84.09"/>
</g>
</g>
</svg>
