<?xml version="1.0" encoding="UTF-8" standalone="no"?>
<!DOCTYPE svg PUBLIC "-//W3C//DTD SVG 1.1//EN"
 "http://www.w3.org/Graphics/SVG/1.1/DTD/svg11.dtd">
<!-- Generated by graphviz version 2.43.0 (0)
 -->
<!-- Title: opp Pages: 1 -->
<svg width="374pt" height="82pt"
 viewBox="0.00 0.00 373.50 82.00" xmlns="http://www.w3.org/2000/svg" xmlns:xlink="http://www.w3.org/1999/xlink">
<g id="graph0" class="graph" transform="scale(1 1) rotate(0) translate(4 78)">
<title>opp</title>
<polygon fill="transparent" stroke="transparent" points="-4,4 -4,-78 369.5,-78 369.5,4 -4,4"/>
<!-- DhcpMessage -->
<g id="node1" class="node">
<title>DhcpMessage</title>
<g id="a_node1"><a xlink:href="src-inet-applications-dhcp-DhcpMessage.html" xlink:title="Class DhcpMessage" target="_parent">
<polygon fill="#fff700" stroke="black" points="225,-74 140,-74 140,-55 225,-55 225,-74"/>
<text text-anchor="middle" x="182.5" y="-62" font-family="Helvetica,sans-Serif" font-size="10.00">DhcpMessage</text>
</a>
</g>
</g>
<!-- DhcpOptions -->
<g id="node2" class="node">
<title>DhcpOptions</title>
<g id="a_node2"><a xlink:href="src-inet-applications-dhcp-DhcpOptions.html" xlink:title="Class DhcpOptions" target="_parent">
<polygon fill="#fffcaf" stroke="black" points="79,-19 0,-19 0,0 79,0 79,-19"/>
<text text-anchor="middle" x="39.5" y="-7" font-family="Helvetica,sans-Serif" font-size="10.00">DhcpOptions</text>
</a>
</g>
</g>
<!-- DhcpMessage&#45;&gt;DhcpOptions -->
<g id="edge1" class="edge">
<title>DhcpMessage&#45;&gt;DhcpOptions</title>
<path fill="none" stroke="black" d="M159.52,-54.98C136,-46.27 99.21,-32.63 72.56,-22.75"/>
<polygon fill="black" stroke="black" points="73.49,-19.36 62.89,-19.17 71.05,-25.93 73.49,-19.36"/>
</g>
<!-- MacAddress -->
<g id="node3" class="node">
<title>MacAddress</title>
<g id="a_node3"><a xlink:href="src-inet-linklayer-common-MacAddress.html" xlink:title="Class MacAddress" target="_parent">
<polygon fill="#fffcaf" stroke="black" points="173.5,-19 97.5,-19 97.5,0 173.5,0 173.5,-19"/>
<text text-anchor="middle" x="135.5" y="-7" font-family="Helvetica,sans-Serif" font-size="10.00">MacAddress</text>
</a>
</g>
</g>
<!-- DhcpMessage&#45;&gt;MacAddress -->
<g id="edge2" class="edge">
<title>DhcpMessage&#45;&gt;MacAddress</title>
<path fill="none" stroke="black" d="M174.74,-54.75C168.03,-47.18 158.16,-36.05 149.99,-26.84"/>
<polygon fill="black" stroke="black" points="152.37,-24.25 143.12,-19.09 147.13,-28.89 152.37,-24.25"/>
</g>
<!-- Ipv4Address -->
<g id="node4" class="node">
<title>Ipv4Address</title>
<g id="a_node4"><a xlink:href="src-inet-networklayer-contract-ipv4-Ipv4Address.html" xlink:title="Class Ipv4Address" target="_parent">
<polygon fill="#fffcaf" stroke="black" points="269,-19 192,-19 192,0 269,0 269,-19"/>
<text text-anchor="middle" x="230.5" y="-7" font-family="Helvetica,sans-Serif" font-size="10.00">Ipv4Address</text>
</a>
</g>
</g>
<!-- DhcpMessage&#45;&gt;Ipv4Address -->
<g id="edge3" class="edge">
<title>DhcpMessage&#45;&gt;Ipv4Address</title>
<path fill="none" stroke="black" d="M190.43,-54.75C197.35,-47.11 207.57,-35.82 215.95,-26.56"/>
<polygon fill="black" stroke="black" points="218.6,-28.85 222.72,-19.09 213.41,-24.15 218.6,-28.85"/>
</g>
<!-- DhcpOpcode -->
<g id="node5" class="node">
<title>DhcpOpcode</title>
<g id="a_node5"><a xlink:href="src-inet-applications-dhcp-DhcpOpcode.html" xlink:title="Enum DhcpOpcode" target="_parent">
<polygon fill="#d0ffd0" stroke="black" points="365.5,-19 287.5,-19 287.5,0 365.5,0 365.5,-19"/>
<text text-anchor="middle" x="326.5" y="-7" font-family="Helvetica,sans-Serif" font-size="10.00">DhcpOpcode</text>
</a>
</g>
</g>
<!-- DhcpMessage&#45;&gt;DhcpOpcode -->
<g id="edge4" class="edge">
<title>DhcpMessage&#45;&gt;DhcpOpcode</title>
<path fill="none" stroke="black" d="M205.64,-54.98C229.32,-46.27 266.37,-32.63 293.21,-22.75"/>
<polygon fill="black" stroke="black" points="294.77,-25.91 302.94,-19.17 292.35,-19.34 294.77,-25.91"/>
</g>
</g>
</svg>
