<?xml version="1.0" encoding="UTF-8" standalone="no"?>
<!DOCTYPE svg PUBLIC "-//W3C//DTD SVG 1.1//EN"
 "http://www.w3.org/Graphics/SVG/1.1/DTD/svg11.dtd">
<!-- Generated by graphviz version 2.43.0 (0)
 -->
<!-- Title: opp Pages: 1 -->
<svg width="192pt" height="137pt"
 viewBox="0.00 0.00 192.00 137.00" xmlns="http://www.w3.org/2000/svg" xmlns:xlink="http://www.w3.org/1999/xlink">
<g id="graph0" class="graph" transform="scale(1 1) rotate(0) translate(4 133)">
<title>opp</title>
<polygon fill="transparent" stroke="transparent" points="-4,4 -4,-133 188,-133 188,4 -4,4"/>
<!-- IgmpQuery -->
<g id="node1" class="node">
<title>IgmpQuery</title>
<g id="a_node1"><a xlink:href="src-inet-networklayer-ipv4-IgmpQuery.html" xlink:title="Class IgmpQuery" target="_parent">
<polygon fill="#fff700" stroke="black" points="127,-74 56,-74 56,-55 127,-55 127,-74"/>
<text text-anchor="middle" x="91.5" y="-62" font-family="Helvetica,sans-Serif" font-size="10.00">IgmpQuery</text>
</a>
</g>
</g>
<!-- Igmpv1Query -->
<g id="node3" class="node">
<title>Igmpv1Query</title>
<g id="a_node3"><a xlink:href="src-inet-networklayer-ipv4-Igmpv1Query.html" xlink:title="Class Igmpv1Query" target="_parent">
<polygon fill="#fffcaf" stroke="black" points="83,-19 0,-19 0,0 83,0 83,-19"/>
<text text-anchor="middle" x="41.5" y="-7" font-family="Helvetica,sans-Serif" font-size="10.00">Igmpv1Query</text>
</a>
</g>
</g>
<!-- IgmpQuery&#45;&gt;Igmpv1Query -->
<g id="edge2" class="edge">
<title>IgmpQuery&#45;&gt;Igmpv1Query</title>
<path fill="none" stroke="black" d="M83.24,-54.75C73.92,-44.87 58.86,-28.9 49.6,-19.09"/>
</g>
<!-- Igmpv2Query -->
<g id="node4" class="node">
<title>Igmpv2Query</title>
<g id="a_node4"><a xlink:href="src-inet-networklayer-ipv4-Igmpv2Query.html" xlink:title="Class Igmpv2Query" target="_parent">
<polygon fill="#fffcaf" stroke="black" points="184,-19 101,-19 101,0 184,0 184,-19"/>
<text text-anchor="middle" x="142.5" y="-7" font-family="Helvetica,sans-Serif" font-size="10.00">Igmpv2Query</text>
</a>
</g>
</g>
<!-- IgmpQuery&#45;&gt;Igmpv2Query -->
<g id="edge3" class="edge">
<title>IgmpQuery&#45;&gt;Igmpv2Query</title>
<path fill="none" stroke="black" d="M99.92,-54.75C109.43,-44.87 124.79,-28.9 134.24,-19.09"/>
</g>
<!-- IgmpMessage -->
<g id="node2" class="node">
<title>IgmpMessage</title>
<g id="a_node2"><a xlink:href="src-inet-networklayer-ipv4-IgmpMessage.html" xlink:title="Class IgmpMessage" target="_parent">
<polygon fill="#fffcaf" stroke="black" points="134,-129 49,-129 49,-110 134,-110 134,-129"/>
<text text-anchor="middle" x="91.5" y="-117" font-family="Helvetica,sans-Serif" font-size="10.00">IgmpMessage</text>
</a>
</g>
</g>
<!-- IgmpMessage&#45;&gt;IgmpQuery -->
<g id="edge1" class="edge">
<title>IgmpMessage&#45;&gt;IgmpQuery</title>
<path fill="none" stroke="black" d="M91.5,-109.75C91.5,-99.87 91.5,-83.9 91.5,-74.09"/>
</g>
</g>
</svg>
