<?xml version="1.0" encoding="UTF-8" standalone="no"?>
<!DOCTYPE svg PUBLIC "-//W3C//DTD SVG 1.1//EN"
 "http://www.w3.org/Graphics/SVG/1.1/DTD/svg11.dtd">
<!-- Generated by graphviz version 2.43.0 (0)
 -->
<!-- Title: opp Pages: 1 -->
<svg width="156pt" height="137pt"
 viewBox="0.00 0.00 156.00 137.00" xmlns="http://www.w3.org/2000/svg" xmlns:xlink="http://www.w3.org/1999/xlink">
<g id="graph0" class="graph" transform="scale(1 1) rotate(0) translate(4 133)">
<title>opp</title>
<polygon fill="transparent" stroke="transparent" points="-4,4 -4,-133 152,-133 152,4 -4,4"/>
<!-- EthernetControlFrameBase -->
<g id="node1" class="node">
<title>EthernetControlFrameBase</title>
<g id="a_node1"><a xlink:href="src-inet-linklayer-ethernet-common-EthernetControlFrameBase.html" xlink:title="Class EthernetControlFrameBase" target="_parent">
<polygon fill="#fff700" stroke="black" points="148,-74 0,-74 0,-55 148,-55 148,-74"/>
<text text-anchor="middle" x="74" y="-62" font-family="Helvetica,sans-Serif" font-size="10.00">EthernetControlFrameBase</text>
</a>
</g>
</g>
<!-- EthernetPauseFrame -->
<g id="node3" class="node">
<title>EthernetPauseFrame</title>
<g id="a_node3"><a xlink:href="src-inet-linklayer-ethernet-common-EthernetPauseFrame.html" xlink:title="Class EthernetPauseFrame" target="_parent">
<polygon fill="#fffcaf" stroke="black" points="133,-19 15,-19 15,0 133,0 133,-19"/>
<text text-anchor="middle" x="74" y="-7" font-family="Helvetica,sans-Serif" font-size="10.00">EthernetPauseFrame</text>
</a>
</g>
</g>
<!-- EthernetControlFrameBase&#45;&gt;EthernetPauseFrame -->
<g id="edge2" class="edge">
<title>EthernetControlFrameBase&#45;&gt;EthernetPauseFrame</title>
<path fill="none" stroke="black" d="M74,-54.75C74,-44.87 74,-28.9 74,-19.09"/>
</g>
<!-- FieldsChunk -->
<g id="node2" class="node">
<title>FieldsChunk</title>
<g id="a_node2"><a xlink:href="src-inet-common-packet-chunk-FieldsChunk.html" xlink:title="Class FieldsChunk" target="_parent">
<polygon fill="#fffcaf" stroke="black" points="111.5,-129 36.5,-129 36.5,-110 111.5,-110 111.5,-129"/>
<text text-anchor="middle" x="74" y="-117" font-family="Helvetica,sans-Serif" font-size="10.00">FieldsChunk</text>
</a>
</g>
</g>
<!-- FieldsChunk&#45;&gt;EthernetControlFrameBase -->
<g id="edge1" class="edge">
<title>FieldsChunk&#45;&gt;EthernetControlFrameBase</title>
<path fill="none" stroke="black" d="M74,-109.75C74,-99.87 74,-83.9 74,-74.09"/>
</g>
</g>
</svg>
