<?xml version="1.0" encoding="UTF-8" standalone="no"?>
<!DOCTYPE svg PUBLIC "-//W3C//DTD SVG 1.1//EN"
 "http://www.w3.org/Graphics/SVG/1.1/DTD/svg11.dtd">
<!-- Generated by graphviz version 2.43.0 (0)
 -->
<!-- Title: opp Pages: 1 -->
<svg width="142pt" height="137pt"
 viewBox="0.00 0.00 142.00 137.00" xmlns="http://www.w3.org/2000/svg" xmlns:xlink="http://www.w3.org/1999/xlink">
<g id="graph0" class="graph" transform="scale(1 1) rotate(0) translate(4 133)">
<title>opp</title>
<polygon fill="transparent" stroke="transparent" points="-4,4 -4,-133 138,-133 138,4 -4,4"/>
<!-- Ieee8022LlcHeader -->
<g id="node1" class="node">
<title>Ieee8022LlcHeader</title>
<g id="a_node1"><a xlink:href="src-inet-linklayer-ieee8022-Ieee8022LlcHeader.html" xlink:title="Class Ieee8022LlcHeader" target="_parent">
<polygon fill="#fff700" stroke="black" points="122,-74 12,-74 12,-55 122,-55 122,-74"/>
<text text-anchor="middle" x="67" y="-62" font-family="Helvetica,sans-Serif" font-size="10.00">Ieee8022LlcHeader</text>
</a>
</g>
</g>
<!-- Ieee8022LlcSnapHeader -->
<g id="node3" class="node">
<title>Ieee8022LlcSnapHeader</title>
<g id="a_node3"><a xlink:href="src-inet-linklayer-ieee8022-Ieee8022LlcSnapHeader.html" xlink:title="Class Ieee8022LlcSnapHeader" target="_parent">
<polygon fill="#fffcaf" stroke="black" points="134,-19 0,-19 0,0 134,0 134,-19"/>
<text text-anchor="middle" x="67" y="-7" font-family="Helvetica,sans-Serif" font-size="10.00">Ieee8022LlcSnapHeader</text>
</a>
</g>
</g>
<!-- Ieee8022LlcHeader&#45;&gt;Ieee8022LlcSnapHeader -->
<g id="edge2" class="edge">
<title>Ieee8022LlcHeader&#45;&gt;Ieee8022LlcSnapHeader</title>
<path fill="none" stroke="black" d="M67,-54.75C67,-44.87 67,-28.9 67,-19.09"/>
</g>
<!-- FieldsChunk -->
<g id="node2" class="node">
<title>FieldsChunk</title>
<g id="a_node2"><a xlink:href="src-inet-common-packet-chunk-FieldsChunk.html" xlink:title="Class FieldsChunk" target="_parent">
<polygon fill="#fffcaf" stroke="black" points="104.5,-129 29.5,-129 29.5,-110 104.5,-110 104.5,-129"/>
<text text-anchor="middle" x="67" y="-117" font-family="Helvetica,sans-Serif" font-size="10.00">FieldsChunk</text>
</a>
</g>
</g>
<!-- FieldsChunk&#45;&gt;Ieee8022LlcHeader -->
<g id="edge1" class="edge">
<title>FieldsChunk&#45;&gt;Ieee8022LlcHeader</title>
<path fill="none" stroke="black" d="M67,-109.75C67,-99.87 67,-83.9 67,-74.09"/>
</g>
</g>
</svg>
