<?xml version="1.0" encoding="UTF-8" standalone="no"?>
<!DOCTYPE svg PUBLIC "-//W3C//DTD SVG 1.1//EN"
 "http://www.w3.org/Graphics/SVG/1.1/DTD/svg11.dtd">
<!-- Generated by graphviz version 2.43.0 (0)
 -->
<!-- Title: opp Pages: 1 -->
<svg width="690pt" height="137pt"
 viewBox="0.00 0.00 690.00 137.00" xmlns="http://www.w3.org/2000/svg" xmlns:xlink="http://www.w3.org/1999/xlink">
<g id="graph0" class="graph" transform="scale(1 1) rotate(0) translate(4 133)">
<title>opp</title>
<polygon fill="transparent" stroke="transparent" points="-4,4 -4,-133 686,-133 686,4 -4,4"/>
<!-- Chunk -->
<g id="node1" class="node">
<title>Chunk</title>
<g id="a_node1"><a xlink:href="src-inet-common-packet-chunk-Chunk.html" xlink:title="Class Chunk" target="_parent">
<polygon fill="#fff700" stroke="black" points="386.5,-74 332.5,-74 332.5,-55 386.5,-55 386.5,-74"/>
<text text-anchor="middle" x="359.5" y="-62" font-family="Helvetica,sans-Serif" font-size="10.00">Chunk</text>
</a>
</g>
</g>
<!-- b -->
<g id="node2" class="node">
<title>b</title>
<g id="a_node2"><a xlink:href="src-inet-common-b.html" xlink:title="Class b" target="_parent">
<polygon fill="#fffcaf" stroke="black" points="310.5,-19 256.5,-19 256.5,0 310.5,0 310.5,-19"/>
<text text-anchor="middle" x="283.5" y="-7" font-family="Helvetica,sans-Serif" font-size="10.00">b</text>
</a>
</g>
</g>
<!-- Chunk&#45;&gt;b -->
<g id="edge1" class="edge">
<title>Chunk&#45;&gt;b</title>
<path fill="none" stroke="black" d="M347.29,-54.98C335.72,-46.92 318.12,-34.65 304.34,-25.03"/>
<polygon fill="black" stroke="black" points="306.14,-22.02 295.93,-19.17 302.13,-27.76 306.14,-22.02"/>
</g>
<!-- SharingRegionTagSet::TagBaseRegionTag -->
<g id="node3" class="node">
<title>SharingRegionTagSet::TagBaseRegionTag</title>
<g id="a_node3"><a xlink:href="src-inet-common-packet-chunk-SharingRegionTagSet::TagBaseRegionTag.html" xlink:title="Class SharingRegionTagSet::TagBaseRegionTag" target="_parent">
<polygon fill="#fffcaf" stroke="black" points="544.5,-19 328.5,-19 328.5,0 544.5,0 544.5,-19"/>
<text text-anchor="middle" x="436.5" y="-7" font-family="Helvetica,sans-Serif" font-size="10.00">SharingRegionTagSet::TagBaseRegionTag</text>
</a>
</g>
</g>
<!-- Chunk&#45;&gt;SharingRegionTagSet::TagBaseRegionTag -->
<g id="edge2" class="edge">
<title>Chunk&#45;&gt;SharingRegionTagSet::TagBaseRegionTag</title>
<path fill="none" stroke="black" d="M371.87,-54.98C383.59,-46.92 401.42,-34.65 415.39,-25.03"/>
<polygon fill="black" stroke="black" points="417.65,-27.72 423.9,-19.17 413.68,-21.96 417.65,-27.72"/>
</g>
<!-- ChunkBuffer::Region -->
<g id="node4" class="node">
<title>ChunkBuffer::Region</title>
<g id="a_node4"><a xlink:href="src-inet-common-packet-ChunkBuffer::Region.html" xlink:title="Class ChunkBuffer::Region" target="_parent">
<polygon fill="#fffcaf" stroke="black" points="117,-129 0,-129 0,-110 117,-110 117,-129"/>
<text text-anchor="middle" x="58.5" y="-117" font-family="Helvetica,sans-Serif" font-size="10.00">ChunkBuffer::Region</text>
</a>
</g>
</g>
<!-- ChunkBuffer::Region&#45;&gt;Chunk -->
<g id="edge3" class="edge">
<title>ChunkBuffer::Region&#45;&gt;Chunk</title>
<path fill="none" stroke="black" d="M106.86,-109.98C166.97,-99.4 268.23,-81.57 322.5,-72.01"/>
<polygon fill="black" stroke="black" points="323.15,-75.45 332.39,-70.27 321.93,-68.56 323.15,-75.45"/>
</g>
<!-- ChunkPtr -->
<g id="node5" class="node">
<title>ChunkPtr</title>
<g id="a_node5"><a xlink:href="src-inet-common-ChunkPtr.html" xlink:title="Class ChunkPtr" target="_parent">
<polygon fill="#fffcaf" stroke="black" points="196,-129 135,-129 135,-110 196,-110 196,-129"/>
<text text-anchor="middle" x="165.5" y="-117" font-family="Helvetica,sans-Serif" font-size="10.00">ChunkPtr</text>
</a>
</g>
</g>
<!-- ChunkPtr&#45;&gt;Chunk -->
<g id="edge4" class="edge">
<title>ChunkPtr&#45;&gt;Chunk</title>
<path fill="none" stroke="black" d="M196.24,-110.1C230.52,-100.74 285.94,-85.6 322.55,-75.59"/>
<polygon fill="black" stroke="black" points="323.62,-78.93 332.35,-72.92 321.78,-72.18 323.62,-78.93"/>
</g>
<!-- ChunkQueue -->
<g id="node6" class="node">
<title>ChunkQueue</title>
<g id="a_node6"><a xlink:href="src-inet-common-packet-ChunkQueue.html" xlink:title="Class ChunkQueue" target="_parent">
<polygon fill="#fffcaf" stroke="black" points="293,-129 214,-129 214,-110 293,-110 293,-129"/>
<text text-anchor="middle" x="253.5" y="-117" font-family="Helvetica,sans-Serif" font-size="10.00">ChunkQueue</text>
</a>
</g>
</g>
<!-- ChunkQueue&#45;&gt;Chunk -->
<g id="edge5" class="edge">
<title>ChunkQueue&#45;&gt;Chunk</title>
<path fill="none" stroke="black" d="M270.53,-109.98C287.43,-101.54 313.56,-88.47 333.14,-78.68"/>
<polygon fill="black" stroke="black" points="334.78,-81.77 342.16,-74.17 331.65,-75.51 334.78,-81.77"/>
</g>
<!-- EncryptedChunk -->
<g id="node7" class="node">
<title>EncryptedChunk</title>
<g id="a_node7"><a xlink:href="src-inet-common-packet-chunk-EncryptedChunk.html" xlink:title="Class EncryptedChunk" target="_parent">
<polygon fill="#fffcaf" stroke="black" points="407.5,-129 311.5,-129 311.5,-110 407.5,-110 407.5,-129"/>
<text text-anchor="middle" x="359.5" y="-117" font-family="Helvetica,sans-Serif" font-size="10.00">EncryptedChunk</text>
</a>
</g>
</g>
<!-- EncryptedChunk&#45;&gt;Chunk -->
<g id="edge6" class="edge">
<title>EncryptedChunk&#45;&gt;Chunk</title>
<path fill="none" stroke="black" d="M359.5,-109.75C359.5,-102.8 359.5,-92.85 359.5,-84.13"/>
<polygon fill="black" stroke="black" points="363,-84.09 359.5,-74.09 356,-84.09 363,-84.09"/>
</g>
<!-- Packet -->
<g id="node8" class="node">
<title>Packet</title>
<g id="a_node8"><a xlink:href="src-inet-common-packet-Packet.html" xlink:title="Class Packet" target="_parent">
<polygon fill="#fffcaf" stroke="black" points="479.5,-129 425.5,-129 425.5,-110 479.5,-110 479.5,-129"/>
<text text-anchor="middle" x="452.5" y="-117" font-family="Helvetica,sans-Serif" font-size="10.00">Packet</text>
</a>
</g>
</g>
<!-- Packet&#45;&gt;Chunk -->
<g id="edge7" class="edge">
<title>Packet&#45;&gt;Chunk</title>
<path fill="none" stroke="black" d="M437.56,-109.98C423,-101.69 400.63,-88.94 383.57,-79.22"/>
<polygon fill="black" stroke="black" points="385.14,-76.08 374.71,-74.17 381.67,-82.16 385.14,-76.08"/>
</g>
<!-- SequenceChunk -->
<g id="node9" class="node">
<title>SequenceChunk</title>
<g id="a_node9"><a xlink:href="src-inet-common-packet-chunk-SequenceChunk.html" xlink:title="Class SequenceChunk" target="_parent">
<polygon fill="#fffcaf" stroke="black" points="593,-129 498,-129 498,-110 593,-110 593,-129"/>
<text text-anchor="middle" x="545.5" y="-117" font-family="Helvetica,sans-Serif" font-size="10.00">SequenceChunk</text>
</a>
</g>
</g>
<!-- SequenceChunk&#45;&gt;Chunk -->
<g id="edge8" class="edge">
<title>SequenceChunk&#45;&gt;Chunk</title>
<path fill="none" stroke="black" d="M515.62,-109.98C483.18,-100.74 431.36,-85.98 396.41,-76.02"/>
<polygon fill="black" stroke="black" points="397.16,-72.59 386.59,-73.22 395.25,-79.33 397.16,-72.59"/>
</g>
<!-- SliceChunk -->
<g id="node10" class="node">
<title>SliceChunk</title>
<g id="a_node10"><a xlink:href="src-inet-common-packet-chunk-SliceChunk.html" xlink:title="Class SliceChunk" target="_parent">
<polygon fill="#fffcaf" stroke="black" points="682,-129 611,-129 611,-110 682,-110 682,-129"/>
<text text-anchor="middle" x="646.5" y="-117" font-family="Helvetica,sans-Serif" font-size="10.00">SliceChunk</text>
</a>
</g>
</g>
<!-- SliceChunk&#45;&gt;Chunk -->
<g id="edge9" class="edge">
<title>SliceChunk&#45;&gt;Chunk</title>
<path fill="none" stroke="black" d="M610.96,-111.6C608.1,-111.06 605.25,-110.52 602.5,-110 529.66,-96.29 444.42,-80.81 396.72,-72.2"/>
<polygon fill="black" stroke="black" points="397.31,-68.75 386.85,-70.42 396.07,-75.64 397.31,-68.75"/>
</g>
</g>
</svg>
