<?xml version="1.0" encoding="UTF-8" standalone="no"?>
<!DOCTYPE svg PUBLIC "-//W3C//DTD SVG 1.1//EN"
 "http://www.w3.org/Graphics/SVG/1.1/DTD/svg11.dtd">
<!-- Generated by graphviz version 2.43.0 (0)
 -->
<!-- Title: opp Pages: 1 -->
<svg width="231pt" height="82pt"
 viewBox="0.00 0.00 230.50 82.00" xmlns="http://www.w3.org/2000/svg" xmlns:xlink="http://www.w3.org/1999/xlink">
<g id="graph0" class="graph" transform="scale(1 1) rotate(0) translate(4 78)">
<title>opp</title>
<polygon fill="transparent" stroke="transparent" points="-4,4 -4,-78 226.5,-78 226.5,4 -4,4"/>
<!-- Ieee80211Prim_DisassociateRequest -->
<g id="node1" class="node">
<title>Ieee80211Prim_DisassociateRequest</title>
<g id="a_node1"><a xlink:href="src-inet-linklayer-ieee80211-mgmt-Ieee80211Prim_DisassociateRequest.html" xlink:title="Class Ieee80211Prim_DisassociateRequest" target="_parent">
<polygon fill="#fff700" stroke="black" points="197,-74 0,-74 0,-55 197,-55 197,-74"/>
<text text-anchor="middle" x="98.5" y="-62" font-family="Helvetica,sans-Serif" font-size="10.00">Ieee80211Prim_DisassociateRequest</text>
</a>
</g>
</g>
<!-- MacAddress -->
<g id="node2" class="node">
<title>MacAddress</title>
<g id="a_node2"><a xlink:href="src-inet-linklayer-common-MacAddress.html" xlink:title="Class MacAddress" target="_parent">
<polygon fill="#fffcaf" stroke="black" points="76.5,-19 0.5,-19 0.5,0 76.5,0 76.5,-19"/>
<text text-anchor="middle" x="38.5" y="-7" font-family="Helvetica,sans-Serif" font-size="10.00">MacAddress</text>
</a>
</g>
</g>
<!-- Ieee80211Prim_DisassociateRequest&#45;&gt;MacAddress -->
<g id="edge1" class="edge">
<title>Ieee80211Prim_DisassociateRequest&#45;&gt;MacAddress</title>
<path fill="none" stroke="black" d="M88.86,-54.98C79.99,-47.15 66.63,-35.34 55.89,-25.86"/>
<polygon fill="black" stroke="black" points="58.13,-23.17 48.32,-19.17 53.49,-28.41 58.13,-23.17"/>
</g>
<!-- Ieee80211ReasonCode -->
<g id="node3" class="node">
<title>Ieee80211ReasonCode</title>
<g id="a_node3"><a xlink:href="src-inet-linklayer-ieee80211-mgmt-Ieee80211ReasonCode.html" xlink:title="Enum Ieee80211ReasonCode" target="_parent">
<polygon fill="#d0ffd0" stroke="black" points="222.5,-19 94.5,-19 94.5,0 222.5,0 222.5,-19"/>
<text text-anchor="middle" x="158.5" y="-7" font-family="Helvetica,sans-Serif" font-size="10.00">Ieee80211ReasonCode</text>
</a>
</g>
</g>
<!-- Ieee80211Prim_DisassociateRequest&#45;&gt;Ieee80211ReasonCode -->
<g id="edge2" class="edge">
<title>Ieee80211Prim_DisassociateRequest&#45;&gt;Ieee80211ReasonCode</title>
<path fill="none" stroke="black" d="M108.14,-54.98C117.01,-47.15 130.37,-35.34 141.11,-25.86"/>
<polygon fill="black" stroke="black" points="143.51,-28.41 148.68,-19.17 138.87,-23.17 143.51,-28.41"/>
</g>
</g>
</svg>
