<?xml version="1.0" encoding="UTF-8" standalone="no"?>
<!DOCTYPE svg PUBLIC "-//W3C//DTD SVG 1.1//EN"
 "http://www.w3.org/Graphics/SVG/1.1/DTD/svg11.dtd">
<!-- Generated by graphviz version 2.43.0 (0)
 -->
<!-- Title: opp Pages: 1 -->
<svg width="222pt" height="137pt"
 viewBox="0.00 0.00 222.00 137.00" xmlns="http://www.w3.org/2000/svg" xmlns:xlink="http://www.w3.org/1999/xlink">
<g id="graph0" class="graph" transform="scale(1 1) rotate(0) translate(4 133)">
<title>opp</title>
<polygon fill="transparent" stroke="transparent" points="-4,4 -4,-133 218,-133 218,4 -4,4"/>
<!-- Ieee80211AssociationResponseFrame -->
<g id="node1" class="node">
<title>Ieee80211AssociationResponseFrame</title>
<g id="a_node1"><a xlink:href="src-inet-linklayer-ieee80211-mgmt-Ieee80211AssociationResponseFrame.html" xlink:title="Class Ieee80211AssociationResponseFrame" target="_parent">
<polygon fill="#fff700" stroke="black" points="208,-74 6,-74 6,-55 208,-55 208,-74"/>
<text text-anchor="middle" x="107" y="-62" font-family="Helvetica,sans-Serif" font-size="10.00">Ieee80211AssociationResponseFrame</text>
</a>
</g>
</g>
<!-- Ieee80211ReassociationResponseFrame -->
<g id="node3" class="node">
<title>Ieee80211ReassociationResponseFrame</title>
<g id="a_node3"><a xlink:href="src-inet-linklayer-ieee80211-mgmt-Ieee80211ReassociationResponseFrame.html" xlink:title="Class Ieee80211ReassociationResponseFrame" target="_parent">
<polygon fill="#fffcaf" stroke="black" points="214,-19 0,-19 0,0 214,0 214,-19"/>
<text text-anchor="middle" x="107" y="-7" font-family="Helvetica,sans-Serif" font-size="10.00">Ieee80211ReassociationResponseFrame</text>
</a>
</g>
</g>
<!-- Ieee80211AssociationResponseFrame&#45;&gt;Ieee80211ReassociationResponseFrame -->
<g id="edge2" class="edge">
<title>Ieee80211AssociationResponseFrame&#45;&gt;Ieee80211ReassociationResponseFrame</title>
<path fill="none" stroke="black" d="M107,-54.75C107,-44.87 107,-28.9 107,-19.09"/>
</g>
<!-- Ieee80211MgmtFrame -->
<g id="node2" class="node">
<title>Ieee80211MgmtFrame</title>
<g id="a_node2"><a xlink:href="src-inet-linklayer-ieee80211-mgmt-Ieee80211MgmtFrame.html" xlink:title="Class Ieee80211MgmtFrame" target="_parent">
<polygon fill="#fffcaf" stroke="black" points="170.5,-129 43.5,-129 43.5,-110 170.5,-110 170.5,-129"/>
<text text-anchor="middle" x="107" y="-117" font-family="Helvetica,sans-Serif" font-size="10.00">Ieee80211MgmtFrame</text>
</a>
</g>
</g>
<!-- Ieee80211MgmtFrame&#45;&gt;Ieee80211AssociationResponseFrame -->
<g id="edge1" class="edge">
<title>Ieee80211MgmtFrame&#45;&gt;Ieee80211AssociationResponseFrame</title>
<path fill="none" stroke="black" d="M107,-109.75C107,-99.87 107,-83.9 107,-74.09"/>
</g>
</g>
</svg>
