<?xml version="1.0" encoding="UTF-8" standalone="no"?>
<!DOCTYPE svg PUBLIC "-//W3C//DTD SVG 1.1//EN"
 "http://www.w3.org/Graphics/SVG/1.1/DTD/svg11.dtd">
<!-- Generated by graphviz version 2.43.0 (0)
 -->
<!-- Title: opp Pages: 1 -->
<svg width="134pt" height="137pt"
 viewBox="0.00 0.00 134.00 137.00" xmlns="http://www.w3.org/2000/svg" xmlns:xlink="http://www.w3.org/1999/xlink">
<g id="graph0" class="graph" transform="scale(1 1) rotate(0) translate(4 133)">
<title>opp</title>
<polygon fill="transparent" stroke="transparent" points="-4,4 -4,-133 130,-133 130,4 -4,4"/>
<!-- RteMsg -->
<g id="node1" class="node">
<title>RteMsg</title>
<g id="a_node1"><a xlink:href="src-inet-routing-dymo-RteMsg.html" xlink:title="Class RteMsg" target="_parent">
<polygon fill="#fff700" stroke="black" points="90,-74 36,-74 36,-55 90,-55 90,-74"/>
<text text-anchor="middle" x="63" y="-62" font-family="Helvetica,sans-Serif" font-size="10.00">RteMsg</text>
</a>
</g>
</g>
<!-- Rrep -->
<g id="node3" class="node">
<title>Rrep</title>
<g id="a_node3"><a xlink:href="src-inet-routing-dymo-Rrep.html" xlink:title="Class Rrep" target="_parent">
<polygon fill="#fffcaf" stroke="black" points="54,-19 0,-19 0,0 54,0 54,-19"/>
<text text-anchor="middle" x="27" y="-7" font-family="Helvetica,sans-Serif" font-size="10.00">Rrep</text>
</a>
</g>
</g>
<!-- RteMsg&#45;&gt;Rrep -->
<g id="edge2" class="edge">
<title>RteMsg&#45;&gt;Rrep</title>
<path fill="none" stroke="black" d="M57.06,-54.75C50.35,-44.87 39.5,-28.9 32.83,-19.09"/>
</g>
<!-- Rreq -->
<g id="node4" class="node">
<title>Rreq</title>
<g id="a_node4"><a xlink:href="src-inet-routing-dymo-Rreq.html" xlink:title="Class Rreq" target="_parent">
<polygon fill="#fffcaf" stroke="black" points="126,-19 72,-19 72,0 126,0 126,-19"/>
<text text-anchor="middle" x="99" y="-7" font-family="Helvetica,sans-Serif" font-size="10.00">Rreq</text>
</a>
</g>
</g>
<!-- RteMsg&#45;&gt;Rreq -->
<g id="edge3" class="edge">
<title>RteMsg&#45;&gt;Rreq</title>
<path fill="none" stroke="black" d="M68.94,-54.75C75.65,-44.87 86.5,-28.9 93.17,-19.09"/>
</g>
<!-- DymoPacket -->
<g id="node2" class="node">
<title>DymoPacket</title>
<g id="a_node2"><a xlink:href="src-inet-routing-dymo-DymoPacket.html" xlink:title="Class DymoPacket" target="_parent">
<polygon fill="#fffcaf" stroke="black" points="102,-129 24,-129 24,-110 102,-110 102,-129"/>
<text text-anchor="middle" x="63" y="-117" font-family="Helvetica,sans-Serif" font-size="10.00">DymoPacket</text>
</a>
</g>
</g>
<!-- DymoPacket&#45;&gt;RteMsg -->
<g id="edge1" class="edge">
<title>DymoPacket&#45;&gt;RteMsg</title>
<path fill="none" stroke="black" d="M63,-109.75C63,-99.87 63,-83.9 63,-74.09"/>
</g>
</g>
</svg>
