<?xml version="1.0" encoding="UTF-8" standalone="no"?>
<!DOCTYPE svg PUBLIC "-//W3C//DTD SVG 1.1//EN"
 "http://www.w3.org/Graphics/SVG/1.1/DTD/svg11.dtd">
<!-- Generated by graphviz version 2.43.0 (0)
 -->
<!-- Title: opp Pages: 1 -->
<svg width="101pt" height="137pt"
 viewBox="0.00 0.00 101.00 137.00" xmlns="http://www.w3.org/2000/svg" xmlns:xlink="http://www.w3.org/1999/xlink">
<g id="graph0" class="graph" transform="scale(1 1) rotate(0) translate(4 133)">
<title>opp</title>
<polygon fill="transparent" stroke="transparent" points="-4,4 -4,-133 97,-133 97,4 -4,4"/>
<!-- PacketEvent -->
<g id="node1" class="node">
<title>PacketEvent</title>
<g id="a_node1"><a xlink:href="src-inet-common-PacketEvent.html" xlink:title="Class PacketEvent" target="_parent">
<polygon fill="#fff700" stroke="black" points="85,-74 8,-74 8,-55 85,-55 85,-74"/>
<text text-anchor="middle" x="46.5" y="-62" font-family="Helvetica,sans-Serif" font-size="10.00">PacketEvent</text>
</a>
</g>
</g>
<!-- b -->
<g id="node2" class="node">
<title>b</title>
<g id="a_node2"><a xlink:href="src-inet-common-b.html" xlink:title="Class b" target="_parent">
<polygon fill="#fffcaf" stroke="black" points="73.5,-19 19.5,-19 19.5,0 73.5,0 73.5,-19"/>
<text text-anchor="middle" x="46.5" y="-7" font-family="Helvetica,sans-Serif" font-size="10.00">b</text>
</a>
</g>
</g>
<!-- PacketEvent&#45;&gt;b -->
<g id="edge1" class="edge">
<title>PacketEvent&#45;&gt;b</title>
<path fill="none" stroke="black" d="M46.5,-54.75C46.5,-47.8 46.5,-37.85 46.5,-29.13"/>
<polygon fill="black" stroke="black" points="50,-29.09 46.5,-19.09 43,-29.09 50,-29.09"/>
</g>
<!-- PacketEventTag -->
<g id="node3" class="node">
<title>PacketEventTag</title>
<g id="a_node3"><a xlink:href="src-inet-common-PacketEventTag.html" xlink:title="Class PacketEventTag" target="_parent">
<polygon fill="#fffcaf" stroke="black" points="93,-129 0,-129 0,-110 93,-110 93,-129"/>
<text text-anchor="middle" x="46.5" y="-117" font-family="Helvetica,sans-Serif" font-size="10.00">PacketEventTag</text>
</a>
</g>
</g>
<!-- PacketEventTag&#45;&gt;PacketEvent -->
<g id="edge2" class="edge">
<title>PacketEventTag&#45;&gt;PacketEvent</title>
<path fill="none" stroke="black" d="M46.5,-109.75C46.5,-102.8 46.5,-92.85 46.5,-84.13"/>
<polygon fill="black" stroke="black" points="50,-84.09 46.5,-74.09 43,-84.09 50,-84.09"/>
</g>
</g>
</svg>
