<?xml version="1.0" encoding="UTF-8" standalone="no"?>
<!DOCTYPE svg PUBLIC "-//W3C//DTD SVG 1.1//EN"
 "http://www.w3.org/Graphics/SVG/1.1/DTD/svg11.dtd">
<!-- Generated by graphviz version 2.43.0 (0)
 -->
<!-- Title: opp Pages: 1 -->
<svg width="223pt" height="82pt"
 viewBox="0.00 0.00 222.50 82.00" xmlns="http://www.w3.org/2000/svg" xmlns:xlink="http://www.w3.org/1999/xlink">
<g id="graph0" class="graph" transform="scale(1 1) rotate(0) translate(4 78)">
<title>opp</title>
<polygon fill="transparent" stroke="transparent" points="-4,4 -4,-78 218.5,-78 218.5,4 -4,4"/>
<!-- TcpHeader -->
<g id="node1" class="node">
<title>TcpHeader</title>
<g id="a_node1"><a xlink:href="src-inet-transportlayer-tcp_common-TcpHeader.html" xlink:title="Class TcpHeader" target="_parent">
<polygon fill="#fff700" stroke="black" points="136,-74 68,-74 68,-55 136,-55 136,-74"/>
<text text-anchor="middle" x="102" y="-62" font-family="Helvetica,sans-Serif" font-size="10.00">TcpHeader</text>
</a>
</g>
</g>
<!-- B -->
<g id="node2" class="node">
<title>B</title>
<g id="a_node2"><a xlink:href="src-inet-common-B.html" xlink:title="Class B" target="_parent">
<polygon fill="#fffcaf" stroke="black" points="54,-19 0,-19 0,0 54,0 54,-19"/>
<text text-anchor="middle" x="27" y="-7" font-family="Helvetica,sans-Serif" font-size="10.00">B</text>
</a>
</g>
</g>
<!-- TcpHeader&#45;&gt;B -->
<g id="edge1" class="edge">
<title>TcpHeader&#45;&gt;B</title>
<path fill="none" stroke="black" d="M89.95,-54.98C78.54,-46.92 61.17,-34.65 47.57,-25.03"/>
<polygon fill="black" stroke="black" points="49.46,-22.08 39.27,-19.17 45.42,-27.8 49.46,-22.08"/>
</g>
<!-- CrcMode -->
<g id="node3" class="node">
<title>CrcMode</title>
<g id="a_node3"><a xlink:href="src-inet-transportlayer-common-CrcMode.html" xlink:title="Enum CrcMode" target="_parent">
<polygon fill="#d0ffd0" stroke="black" points="131.5,-19 72.5,-19 72.5,0 131.5,0 131.5,-19"/>
<text text-anchor="middle" x="102" y="-7" font-family="Helvetica,sans-Serif" font-size="10.00">CrcMode</text>
</a>
</g>
</g>
<!-- TcpHeader&#45;&gt;CrcMode -->
<g id="edge2" class="edge">
<title>TcpHeader&#45;&gt;CrcMode</title>
<path fill="none" stroke="black" d="M102,-54.75C102,-47.8 102,-37.85 102,-29.13"/>
<polygon fill="black" stroke="black" points="105.5,-29.09 102,-19.09 98.5,-29.09 105.5,-29.09"/>
</g>
<!-- TcpOption -->
<g id="node4" class="node">
<title>TcpOption</title>
<g id="a_node4"><a xlink:href="src-inet-transportlayer-tcp_common-TcpOption.html" xlink:title="Class TcpOption" target="_parent">
<polygon fill="#fffcaf" stroke="black" points="214.5,-19 149.5,-19 149.5,0 214.5,0 214.5,-19"/>
<text text-anchor="middle" x="182" y="-7" font-family="Helvetica,sans-Serif" font-size="10.00">TcpOption</text>
</a>
</g>
</g>
<!-- TcpHeader&#45;&gt;TcpOption -->
<g id="edge3" class="edge">
<title>TcpHeader&#45;&gt;TcpOption</title>
<path fill="none" stroke="black" d="M114.85,-54.98C127.14,-46.84 145.91,-34.41 160.48,-24.76"/>
<polygon fill="black" stroke="black" points="162.51,-27.61 168.91,-19.17 158.64,-21.78 162.51,-27.61"/>
</g>
</g>
</svg>
