<?xml version="1.0" encoding="UTF-8" standalone="no"?>
<!DOCTYPE svg PUBLIC "-//W3C//DTD SVG 1.1//EN"
 "http://www.w3.org/Graphics/SVG/1.1/DTD/svg11.dtd">
<!-- Generated by graphviz version 2.43.0 (0)
 -->
<!-- Title: opp Pages: 1 -->
<svg width="168pt" height="82pt"
 viewBox="0.00 0.00 168.00 82.00" xmlns="http://www.w3.org/2000/svg" xmlns:xlink="http://www.w3.org/1999/xlink">
<g id="graph0" class="graph" transform="scale(1 1) rotate(0) translate(4 78)">
<title>opp</title>
<polygon fill="transparent" stroke="transparent" points="-4,4 -4,-78 164,-78 164,4 -4,4"/>
<!-- BMacHeaderBase -->
<g id="node1" class="node">
<title>BMacHeaderBase</title>
<g id="a_node1"><a xlink:href="src-inet-linklayer-bmac-BMacHeaderBase.html" xlink:title="Class BMacHeaderBase" target="_parent">
<polygon fill="#fff700" stroke="black" points="133.5,-74 30.5,-74 30.5,-55 133.5,-55 133.5,-74"/>
<text text-anchor="middle" x="82" y="-62" font-family="Helvetica,sans-Serif" font-size="10.00">BMacHeaderBase</text>
</a>
</g>
</g>
<!-- MacAddress -->
<g id="node2" class="node">
<title>MacAddress</title>
<g id="a_node2"><a xlink:href="src-inet-linklayer-common-MacAddress.html" xlink:title="Class MacAddress" target="_parent">
<polygon fill="#fffcaf" stroke="black" points="76,-19 0,-19 0,0 76,0 76,-19"/>
<text text-anchor="middle" x="38" y="-7" font-family="Helvetica,sans-Serif" font-size="10.00">MacAddress</text>
</a>
</g>
</g>
<!-- BMacHeaderBase&#45;&gt;MacAddress -->
<g id="edge1" class="edge">
<title>BMacHeaderBase&#45;&gt;MacAddress</title>
<path fill="none" stroke="black" d="M74.73,-54.75C68.46,-47.18 59.21,-36.05 51.57,-26.84"/>
<polygon fill="black" stroke="black" points="54.21,-24.55 45.13,-19.09 48.83,-29.02 54.21,-24.55"/>
</g>
<!-- BMacType -->
<g id="node3" class="node">
<title>BMacType</title>
<g id="a_node3"><a xlink:href="src-inet-linklayer-bmac-BMacType.html" xlink:title="Enum BMacType" target="_parent">
<polygon fill="#d0ffd0" stroke="black" points="160,-19 94,-19 94,0 160,0 160,-19"/>
<text text-anchor="middle" x="127" y="-7" font-family="Helvetica,sans-Serif" font-size="10.00">BMacType</text>
</a>
</g>
</g>
<!-- BMacHeaderBase&#45;&gt;BMacType -->
<g id="edge2" class="edge">
<title>BMacHeaderBase&#45;&gt;BMacType</title>
<path fill="none" stroke="black" d="M89.43,-54.75C95.85,-47.18 105.31,-36.05 113.12,-26.84"/>
<polygon fill="black" stroke="black" points="115.9,-28.98 119.71,-19.09 110.57,-24.45 115.9,-28.98"/>
</g>
</g>
</svg>
