<?xml version="1.0" encoding="UTF-8" standalone="no"?>
<!DOCTYPE svg PUBLIC "-//W3C//DTD SVG 1.1//EN"
 "http://www.w3.org/Graphics/SVG/1.1/DTD/svg11.dtd">
<!-- Generated by graphviz version 2.43.0 (0)
 -->
<!-- Title: opp Pages: 1 -->
<svg width="148pt" height="137pt"
 viewBox="0.00 0.00 147.50 137.00" xmlns="http://www.w3.org/2000/svg" xmlns:xlink="http://www.w3.org/1999/xlink">
<g id="graph0" class="graph" transform="scale(1 1) rotate(0) translate(4 133)">
<title>opp</title>
<polygon fill="transparent" stroke="transparent" points="-4,4 -4,-133 143.5,-133 143.5,4 -4,4"/>
<!-- RipEntry -->
<g id="node1" class="node">
<title>RipEntry</title>
<g id="a_node1"><a xlink:href="src-inet-routing-rip-RipEntry.html" xlink:title="Struct RipEntry" target="_parent">
<polygon fill="#9090ff" stroke="black" points="95,-74 37,-74 37,-55 95,-55 95,-74"/>
<text text-anchor="middle" x="66" y="-62" font-family="Helvetica,sans-Serif" font-size="10.00">RipEntry</text>
</a>
</g>
</g>
<!-- RipAf -->
<g id="node2" class="node">
<title>RipAf</title>
<g id="a_node2"><a xlink:href="src-inet-routing-rip-RipAf.html" xlink:title="Enum RipAf" target="_parent">
<polygon fill="#d0ffd0" stroke="black" points="54,-19 0,-19 0,0 54,0 54,-19"/>
<text text-anchor="middle" x="27" y="-7" font-family="Helvetica,sans-Serif" font-size="10.00">RipAf</text>
</a>
</g>
</g>
<!-- RipEntry&#45;&gt;RipAf -->
<g id="edge1" class="edge">
<title>RipEntry&#45;&gt;RipAf</title>
<path fill="none" stroke="black" d="M59.56,-54.75C54.11,-47.34 46.14,-36.5 39.44,-27.41"/>
<polygon fill="black" stroke="black" points="42.07,-25.07 33.32,-19.09 36.43,-29.22 42.07,-25.07"/>
</g>
<!-- L3Address -->
<g id="node3" class="node">
<title>L3Address</title>
<g id="a_node3"><a xlink:href="src-inet-networklayer-common-L3Address.html" xlink:title="Class L3Address" target="_parent">
<polygon fill="#fffcaf" stroke="black" points="139.5,-19 72.5,-19 72.5,0 139.5,0 139.5,-19"/>
<text text-anchor="middle" x="106" y="-7" font-family="Helvetica,sans-Serif" font-size="10.00">L3Address</text>
</a>
</g>
</g>
<!-- RipEntry&#45;&gt;L3Address -->
<g id="edge2" class="edge">
<title>RipEntry&#45;&gt;L3Address</title>
<path fill="none" stroke="black" d="M72.61,-54.75C78.26,-47.26 86.54,-36.28 93.45,-27.13"/>
<polygon fill="black" stroke="black" points="96.29,-29.18 99.52,-19.09 90.7,-24.96 96.29,-29.18"/>
</g>
<!-- RipPacket -->
<g id="node4" class="node">
<title>RipPacket</title>
<g id="a_node4"><a xlink:href="src-inet-routing-rip-RipPacket.html" xlink:title="Class RipPacket" target="_parent">
<polygon fill="#fffcaf" stroke="black" points="98.5,-129 33.5,-129 33.5,-110 98.5,-110 98.5,-129"/>
<text text-anchor="middle" x="66" y="-117" font-family="Helvetica,sans-Serif" font-size="10.00">RipPacket</text>
</a>
</g>
</g>
<!-- RipPacket&#45;&gt;RipEntry -->
<g id="edge3" class="edge">
<title>RipPacket&#45;&gt;RipEntry</title>
<path fill="none" stroke="black" d="M66,-109.75C66,-102.8 66,-92.85 66,-84.13"/>
<polygon fill="black" stroke="black" points="69.5,-84.09 66,-74.09 62.5,-84.09 69.5,-84.09"/>
</g>
</g>
</svg>
