<?xml version="1.0" encoding="UTF-8" standalone="no"?>
<!DOCTYPE svg PUBLIC "-//W3C//DTD SVG 1.1//EN"
 "http://www.w3.org/Graphics/SVG/1.1/DTD/svg11.dtd">
<!-- Generated by graphviz version 2.43.0 (0)
 -->
<!-- Title: opp Pages: 1 -->
<svg width="256pt" height="82pt"
 viewBox="0.00 0.00 255.50 82.00" xmlns="http://www.w3.org/2000/svg" xmlns:xlink="http://www.w3.org/1999/xlink">
<g id="graph0" class="graph" transform="scale(1 1) rotate(0) translate(4 78)">
<title>opp</title>
<polygon fill="transparent" stroke="transparent" points="-4,4 -4,-78 251.5,-78 251.5,4 -4,4"/>
<!-- BgpOpenMessage -->
<g id="node1" class="node">
<title>BgpOpenMessage</title>
<g id="a_node1"><a xlink:href="src-inet-routing-bgpv4-bgpmessage-BgpOpenMessage.html" xlink:title="Class BgpOpenMessage" target="_parent">
<polygon fill="#fff700" stroke="black" points="194,-74 90,-74 90,-55 194,-55 194,-74"/>
<text text-anchor="middle" x="142" y="-62" font-family="Helvetica,sans-Serif" font-size="10.00">BgpOpenMessage</text>
</a>
</g>
</g>
<!-- BgpOptionalParameterBase -->
<g id="node2" class="node">
<title>BgpOptionalParameterBase</title>
<g id="a_node2"><a xlink:href="src-inet-routing-bgpv4-bgpmessage-BgpOptionalParameterBase.html" xlink:title="Class BgpOptionalParameterBase" target="_parent">
<polygon fill="#fffcaf" stroke="black" points="152,-19 0,-19 0,0 152,0 152,-19"/>
<text text-anchor="middle" x="76" y="-7" font-family="Helvetica,sans-Serif" font-size="10.00">BgpOptionalParameterBase</text>
</a>
</g>
</g>
<!-- BgpOpenMessage&#45;&gt;BgpOptionalParameterBase -->
<g id="edge1" class="edge">
<title>BgpOpenMessage&#45;&gt;BgpOptionalParameterBase</title>
<path fill="none" stroke="black" d="M131.4,-54.98C121.54,-47.07 106.65,-35.11 94.78,-25.58"/>
<polygon fill="black" stroke="black" points="96.79,-22.7 86.8,-19.17 92.4,-28.16 96.79,-22.7"/>
</g>
<!-- Ipv4Address -->
<g id="node3" class="node">
<title>Ipv4Address</title>
<g id="a_node3"><a xlink:href="src-inet-networklayer-contract-ipv4-Ipv4Address.html" xlink:title="Class Ipv4Address" target="_parent">
<polygon fill="#fffcaf" stroke="black" points="247.5,-19 170.5,-19 170.5,0 247.5,0 247.5,-19"/>
<text text-anchor="middle" x="209" y="-7" font-family="Helvetica,sans-Serif" font-size="10.00">Ipv4Address</text>
</a>
</g>
</g>
<!-- BgpOpenMessage&#45;&gt;Ipv4Address -->
<g id="edge2" class="edge">
<title>BgpOpenMessage&#45;&gt;Ipv4Address</title>
<path fill="none" stroke="black" d="M152.76,-54.98C162.77,-47.07 177.89,-35.11 189.93,-25.58"/>
<polygon fill="black" stroke="black" points="192.37,-28.12 198.04,-19.17 188.03,-22.63 192.37,-28.12"/>
</g>
</g>
</svg>
