<?xml version="1.0" encoding="UTF-8" standalone="no"?>
<!DOCTYPE svg PUBLIC "-//W3C//DTD SVG 1.1//EN"
 "http://www.w3.org/Graphics/SVG/1.1/DTD/svg11.dtd">
<!-- Generated by graphviz version 2.43.0 (0)
 -->
<!-- Title: opp Pages: 1 -->
<svg width="334pt" height="82pt"
 viewBox="0.00 0.00 334.00 82.00" xmlns="http://www.w3.org/2000/svg" xmlns:xlink="http://www.w3.org/1999/xlink">
<g id="graph0" class="graph" transform="scale(1 1) rotate(0) translate(4 78)">
<title>opp</title>
<polygon fill="transparent" stroke="transparent" points="-4,4 -4,-78 330,-78 330,4 -4,4"/>
<!-- Ieee80211AssociationResponseFrame -->
<g id="node1" class="node">
<title>Ieee80211AssociationResponseFrame</title>
<g id="a_node1"><a xlink:href="src-inet-linklayer-ieee80211-mgmt-Ieee80211AssociationResponseFrame.html" xlink:title="Class Ieee80211AssociationResponseFrame" target="_parent">
<polygon fill="#fff700" stroke="black" points="279.5,-74 77.5,-74 77.5,-55 279.5,-55 279.5,-74"/>
<text text-anchor="middle" x="178.5" y="-62" font-family="Helvetica,sans-Serif" font-size="10.00">Ieee80211AssociationResponseFrame</text>
</a>
</g>
</g>
<!-- Ieee80211SupportedRatesElement -->
<g id="node2" class="node">
<title>Ieee80211SupportedRatesElement</title>
<g id="a_node2"><a xlink:href="src-inet-linklayer-ieee80211-mgmt-Ieee80211SupportedRatesElement.html" xlink:title="Struct Ieee80211SupportedRatesElement" target="_parent">
<polygon fill="#d0d0ff" stroke="black" points="185,-19 0,-19 0,0 185,0 185,-19"/>
<text text-anchor="middle" x="92.5" y="-7" font-family="Helvetica,sans-Serif" font-size="10.00">Ieee80211SupportedRatesElement</text>
</a>
</g>
</g>
<!-- Ieee80211AssociationResponseFrame&#45;&gt;Ieee80211SupportedRatesElement -->
<g id="edge1" class="edge">
<title>Ieee80211AssociationResponseFrame&#45;&gt;Ieee80211SupportedRatesElement</title>
<path fill="none" stroke="black" d="M164.68,-54.98C151.35,-46.77 130.92,-34.18 115.19,-24.49"/>
<polygon fill="black" stroke="black" points="116.92,-21.44 106.57,-19.17 113.25,-27.4 116.92,-21.44"/>
</g>
<!-- Ieee80211StatusCode -->
<g id="node3" class="node">
<title>Ieee80211StatusCode</title>
<g id="a_node3"><a xlink:href="src-inet-linklayer-ieee80211-mgmt-Ieee80211StatusCode.html" xlink:title="Enum Ieee80211StatusCode" target="_parent">
<polygon fill="#d0ffd0" stroke="black" points="326,-19 203,-19 203,0 326,0 326,-19"/>
<text text-anchor="middle" x="264.5" y="-7" font-family="Helvetica,sans-Serif" font-size="10.00">Ieee80211StatusCode</text>
</a>
</g>
</g>
<!-- Ieee80211AssociationResponseFrame&#45;&gt;Ieee80211StatusCode -->
<g id="edge2" class="edge">
<title>Ieee80211AssociationResponseFrame&#45;&gt;Ieee80211StatusCode</title>
<path fill="none" stroke="black" d="M192.32,-54.98C205.65,-46.77 226.08,-34.18 241.81,-24.49"/>
<polygon fill="black" stroke="black" points="243.75,-27.4 250.43,-19.17 240.08,-21.44 243.75,-27.4"/>
</g>
</g>
</svg>
